<svg width="543" height="115" viewBox="0 0 543 115" fill="none" xmlns="http://www.w3.org/2000/svg">
<mask id="path-1-outside-1_80_1116" maskUnits="userSpaceOnUse" x="-2" y="-2" width="546" height="118" fill="black">
<rect fill="white" x="-2" y="-2" width="546" height="118"/>
<path d="M30.3958 112H0.0925048L42.8822 2.46998H73.1855L115.902 112H85.5989L78.516 92.5037H37.4788L30.3958 112ZM46.6793 67.3118H69.3885L57.9974 36.0592L46.6793 67.3118ZM123.934 112V2.46998H165.629C178.237 2.46998 187.973 5.02568 194.837 10.1371C201.701 15.2485 205.133 22.4775 205.133 31.824C205.133 37.0328 203.964 41.6817 201.628 45.7708C199.291 49.8113 196.127 52.9755 192.135 55.2635C198.074 57.2107 202.674 60.3749 205.936 64.7561C209.197 69.1373 210.828 74.5164 210.828 80.8935C210.828 87.2219 209.295 92.7227 206.228 97.396C203.161 102.021 198.804 105.623 193.157 108.203C187.511 110.734 180.841 112 173.15 112H123.934ZM152.85 46.6471H163.657C167.795 46.6471 170.984 45.8195 173.223 44.1644C175.511 42.4606 176.655 40.0509 176.655 36.9354C176.655 34.0633 175.511 31.7997 173.223 30.1446C170.935 28.4894 167.746 27.6619 163.657 27.6619H152.85V46.6471ZM152.85 86.8081H165.629C168.939 86.8081 171.763 86.443 174.099 85.7128C176.436 84.9339 178.213 83.8386 179.43 82.4269C180.647 80.9665 181.255 79.214 181.255 77.1695C181.255 75.1249 180.72 73.4211 179.649 72.0581C178.578 70.6463 176.996 69.5997 174.902 68.9182C172.858 68.188 170.351 67.8229 167.381 67.8229H152.85V86.8081ZM276.984 114.191C268.611 114.191 260.871 112.779 253.764 109.955C246.705 107.083 240.547 103.092 235.29 97.9802C230.081 92.8201 226.041 86.7838 223.169 79.8712C220.297 72.9586 218.86 65.4132 218.86 57.235C218.86 49.0568 220.297 41.5113 223.169 34.5988C226.041 27.6862 230.081 21.6742 235.29 16.5628C240.547 11.4028 246.705 7.411 253.764 4.58756C260.871 1.71544 268.611 0.279383 276.984 0.279383C285.406 0.279383 293.146 1.71544 300.205 4.58756C307.263 7.411 313.373 11.4028 318.533 16.5628C323.742 21.6742 327.782 27.6862 330.654 34.5988C333.526 41.5113 334.962 49.0568 334.962 57.235C334.962 65.4132 333.526 72.9586 330.654 79.8712C327.782 86.7838 323.742 92.8201 318.533 97.9802C313.373 103.092 307.263 107.083 300.205 109.955C293.146 112.779 285.406 114.191 276.984 114.191ZM276.984 88.9987C281.025 88.9987 284.773 88.1955 288.229 86.589C291.686 84.9826 294.68 82.7433 297.211 79.8712C299.791 76.9504 301.787 73.5671 303.199 69.7214C304.659 65.8757 305.389 61.7136 305.389 57.235C305.389 52.7564 304.659 48.5943 303.199 44.7486C301.787 40.9028 299.791 37.5439 297.211 34.6718C294.68 31.751 291.686 29.4874 288.229 27.8809C284.773 26.2745 281.025 25.4713 276.984 25.4713C272.944 25.4713 269.171 26.2745 265.666 27.8809C262.21 29.4874 259.192 31.751 256.612 34.6718C254.032 37.5439 252.012 40.9028 250.551 44.7486C249.139 48.5943 248.434 52.7564 248.434 57.235C248.434 61.7136 249.139 65.8757 250.551 69.7214C252.012 73.5671 254.032 76.9504 256.612 79.8712C259.192 82.7433 262.21 84.9826 265.666 86.589C269.171 88.1955 272.944 88.9987 276.984 88.9987ZM444.784 2.46998V62.5655C444.784 73.2751 442.813 82.4999 438.87 90.24C434.975 97.9315 429.353 103.846 422.002 107.984C414.7 112.122 405.938 114.191 395.715 114.191C385.541 114.191 376.778 112.122 369.428 107.984C362.077 103.846 356.43 97.9315 352.487 90.24C348.593 82.4999 346.646 73.2751 346.646 62.5655V2.46998H375.561V58.6224C375.561 65.5836 376.267 71.3035 377.679 75.7821C379.139 80.2606 381.354 83.5952 384.324 85.7858C387.293 87.9277 391.09 88.9987 395.715 88.9987C400.34 88.9987 404.137 87.9277 407.106 85.7858C410.076 83.5952 412.266 80.2606 413.678 75.7821C415.138 71.3035 415.868 65.5836 415.868 58.6224V2.46998H444.784ZM512.109 112H483.193V27.6619H452.817V2.46998H542.485V27.6619H512.109V112Z"/>
</mask>
<path d="M30.3958 112V113.362H31.3501L31.6759 112.465L30.3958 112ZM0.0924988 112L-1.17609 111.504L-1.90179 113.362H0.0924988V112ZM42.8822 2.46999V1.10801H41.9521L41.6136 1.97438L42.8822 2.46999ZM73.1855 2.46999L74.4544 1.97511L74.1162 1.10801H73.1855V2.46999ZM115.902 112V113.362H117.895L117.171 111.505L115.902 112ZM85.5989 112L84.3188 112.465L84.6447 113.362H85.5989V112ZM78.516 92.5037L79.7961 92.0386L79.4703 91.1417H78.516V92.5037ZM37.4788 92.5037V91.1417H36.5245L36.1986 92.0386L37.4788 92.5037ZM46.6793 67.3118L45.3987 66.848L44.7375 68.6737H46.6793V67.3118ZM69.3885 67.3118V68.6737H71.3345L70.6681 66.8454L69.3885 67.3118ZM57.9974 36.0592L59.277 35.5928L57.9933 32.0707L56.7168 35.5954L57.9974 36.0592ZM30.3958 110.638H0.0924988V113.362H30.3958V110.638ZM1.36111 112.496L44.1508 2.96558L41.6136 1.97438L-1.17609 111.504L1.36111 112.496ZM42.8822 3.83196H73.1855V1.10801H42.8822V3.83196ZM71.9167 2.96485L114.633 112.495L117.171 111.505L74.4544 1.97511L71.9167 2.96485ZM115.902 110.638H85.5989V113.362H115.902V110.638ZM86.8791 111.535L79.7961 92.0386L77.2359 92.9687L84.3188 112.465L86.8791 111.535ZM78.516 91.1417H37.4788V93.8656H78.516V91.1417ZM36.1986 92.0386L29.1157 111.535L31.6759 112.465L38.7589 92.9687L36.1986 92.0386ZM46.6793 68.6737H69.3885V65.9498H46.6793V68.6737ZM70.6681 66.8454L59.277 35.5928L56.7177 36.5256L68.1089 67.7782L70.6681 66.8454ZM56.7168 35.5954L45.3987 66.848L47.9599 67.7755L59.278 36.5229L56.7168 35.5954ZM123.934 112H122.572V113.362H123.934V112ZM123.934 2.46999V1.10801H122.572V2.46999H123.934ZM201.628 45.7709L202.807 46.4527L202.81 46.4466L201.628 45.7709ZM192.135 55.2635L191.458 54.0818L188.802 55.604L191.711 56.5576L192.135 55.2635ZM206.228 97.396L207.363 98.1487L207.367 98.1432L206.228 97.396ZM193.157 108.203L193.715 109.446L193.723 109.442L193.157 108.203ZM152.85 46.6471H151.488V48.0091H152.85V46.6471ZM173.223 44.1644L174.033 45.2597L174.036 45.2568L173.223 44.1644ZM152.85 27.6619V26.2999H151.488V27.6619H152.85ZM152.85 86.8081H151.488V88.1701H152.85V86.8081ZM174.099 85.7128L174.505 87.0128L174.518 87.0089L174.53 87.0049L174.099 85.7128ZM179.43 82.4269L180.461 83.3162L180.469 83.3076L180.476 83.2988L179.43 82.4269ZM179.649 72.0581L178.564 72.8812L178.571 72.8904L178.578 72.8995L179.649 72.0581ZM174.902 68.9182L174.444 70.2008L174.462 70.2073L174.481 70.2133L174.902 68.9182ZM152.85 67.8229V66.4609H151.488V67.8229H152.85ZM125.296 112V2.46999H122.572V112H125.296ZM123.934 3.83196H165.629V1.10801H123.934V3.83196ZM165.629 3.83196C178.077 3.83196 187.482 6.35851 194.023 11.2294L195.65 9.04472C188.464 3.69285 178.397 1.10801 165.629 1.10801V3.83196ZM194.023 11.2294C200.507 16.0576 203.771 22.8619 203.771 31.824H206.495C206.495 22.0931 202.895 14.4394 195.65 9.04472L194.023 11.2294ZM203.771 31.824C203.771 36.8215 202.652 41.233 200.445 45.0951L202.81 46.4466C205.277 42.1304 206.495 37.2441 206.495 31.824H203.771ZM200.449 45.089C198.231 48.9247 195.238 51.9151 191.458 54.0818L192.812 56.4451C197.016 54.0359 200.352 50.6979 202.807 46.4527L200.449 45.089ZM191.711 56.5576C197.423 58.4304 201.773 61.445 204.843 65.5694L207.028 63.9428C203.576 59.3047 198.726 55.9909 192.559 53.9693L191.711 56.5576ZM204.843 65.5694C207.902 69.6777 209.466 74.7585 209.466 80.8935H212.19C212.19 74.2742 210.493 68.5968 207.028 63.9428L204.843 65.5694ZM209.466 80.8935C209.466 86.9925 207.992 92.2259 205.089 96.6487L207.367 98.1432C210.598 93.2195 212.19 87.4512 212.19 80.8935H209.466ZM205.093 96.6433C202.183 101.031 198.035 104.477 192.591 106.964L193.723 109.442C199.573 106.769 204.139 103.01 207.363 98.1487L205.093 96.6433ZM192.6 106.96C187.166 109.396 180.695 110.638 173.15 110.638V113.362C180.988 113.362 187.855 112.072 193.715 109.446L192.6 106.96ZM173.15 110.638H123.934V113.362H173.15V110.638ZM152.85 48.0091H163.657V45.2851H152.85V48.0091ZM163.657 48.0091C167.952 48.0091 171.47 47.1539 174.033 45.2597L172.413 43.0691C170.498 44.4851 167.639 45.2851 163.657 45.2851V48.0091ZM174.036 45.2568C176.705 43.2697 178.017 40.4354 178.017 36.9354H175.293C175.293 39.6665 174.317 41.6515 172.409 43.072L174.036 45.2568ZM178.017 36.9354C178.017 33.6352 176.67 30.9574 174.021 29.0411L172.425 31.2481C174.352 32.6419 175.293 34.4914 175.293 36.9354H178.017ZM174.021 29.0411C171.418 27.1578 167.91 26.2999 163.657 26.2999V29.0239C167.583 29.0239 170.452 29.8211 172.425 31.2481L174.021 29.0411ZM163.657 26.2999H152.85V29.0239H163.657V26.2999ZM151.488 27.6619V46.6471H154.212V27.6619H151.488ZM152.85 88.1701H165.629V85.4461H152.85V88.1701ZM165.629 88.1701C169.032 88.1701 172 87.7957 174.505 87.0128L173.693 84.4128C171.525 85.0903 168.846 85.4461 165.629 85.4461V88.1701ZM174.53 87.0049C177.027 86.1726 179.04 84.9645 180.461 83.3162L178.398 81.5376C177.385 82.7127 175.845 83.6952 173.669 84.4207L174.53 87.0049ZM180.476 83.2988C181.913 81.5745 182.617 79.5067 182.617 77.1694H179.893C179.893 78.9213 179.38 80.3585 178.383 81.555L180.476 83.2988ZM182.617 77.1694C182.617 74.8767 182.012 72.8608 180.72 71.2166L178.578 72.8995C179.428 73.9814 179.893 75.3731 179.893 77.1694H182.617ZM180.734 71.2349C179.458 69.5534 177.617 68.3696 175.324 67.6231L174.481 70.2133C176.374 70.8298 177.697 71.7393 178.564 72.8812L180.734 71.2349ZM175.36 67.6356C173.126 66.8375 170.454 66.4609 167.381 66.4609V69.1849C170.248 69.1849 172.59 69.5385 174.444 70.2008L175.36 67.6356ZM167.381 66.4609H152.85V69.1849H167.381V66.4609ZM151.488 67.8229V86.8081H154.212V67.8229H151.488ZM253.764 109.955L253.251 111.217L253.261 111.221L253.764 109.955ZM235.29 97.9802L234.331 98.9478L234.341 98.9567L235.29 97.9802ZM235.29 16.5628L236.244 17.535L236.244 17.5349L235.29 16.5628ZM253.764 4.58756L254.27 5.85213L254.274 5.85033L253.764 4.58756ZM300.205 4.58756L299.691 5.84913L299.699 5.85213L300.205 4.58756ZM318.533 16.5628L317.57 17.5259L317.579 17.535L318.533 16.5628ZM318.533 97.9802L319.491 98.9478V98.9477L318.533 97.9802ZM300.205 109.955L300.711 111.22L300.718 111.217L300.205 109.955ZM297.211 79.8712L296.19 78.9695L296.189 78.9707L297.211 79.8712ZM303.199 69.7214L301.925 69.2379L301.923 69.245L301.92 69.2521L303.199 69.7214ZM303.199 44.7486L301.92 45.2179L301.923 45.225L301.925 45.2321L303.199 44.7486ZM297.211 34.6718L296.182 35.5638L296.19 35.573L296.198 35.582L297.211 34.6718ZM265.666 27.881L265.099 26.6428L265.092 26.6459L265.666 27.881ZM256.612 34.6718L257.625 35.582L257.633 35.5735L256.612 34.6718ZM250.551 44.7486L249.278 44.2651L249.275 44.2721L249.273 44.2792L250.551 44.7486ZM250.551 69.7214L249.273 70.1908L249.275 70.1979L249.278 70.2049L250.551 69.7214ZM256.612 79.8712L255.591 80.7729L255.599 80.7814L256.612 79.8712ZM265.666 86.589L265.092 87.8241L265.099 87.8272L265.666 86.589ZM276.984 112.829C268.767 112.829 261.2 111.444 254.267 108.69L253.261 111.221C260.543 114.114 268.456 115.553 276.984 115.553V112.829ZM254.277 108.694C247.375 105.885 241.366 101.988 236.239 97.0036L234.341 98.9567C239.729 104.195 246.036 108.281 253.251 111.217L254.277 108.694ZM236.248 97.0126C231.171 91.9822 227.231 86.0981 224.426 79.3486L221.911 80.3938C224.851 87.4695 228.992 93.6579 234.331 98.9477L236.248 97.0126ZM224.426 79.3486C221.629 72.6164 220.222 65.2506 220.222 57.235H217.498C217.498 65.5759 218.964 73.3008 221.911 80.3938L224.426 79.3486ZM220.222 57.235C220.222 49.2194 221.629 41.8535 224.426 35.1214L221.911 34.0762C218.964 41.1692 217.498 48.8941 217.498 57.235H220.222ZM224.426 35.1214C227.23 28.3731 231.169 22.5151 236.244 17.535L234.336 15.5907C228.993 20.8334 224.851 26.9994 221.911 34.0762L224.426 35.1214ZM236.244 17.5349C241.369 12.505 247.373 8.61085 254.27 5.85213L253.258 3.323C246.038 6.21117 239.726 10.3005 234.336 15.5908L236.244 17.5349ZM254.274 5.85033C261.205 3.04955 268.77 1.64136 276.984 1.64136V-1.0826C268.453 -1.0826 260.538 0.38134 253.254 3.3248L254.274 5.85033ZM276.984 1.64136C285.249 1.64136 292.812 3.04996 299.691 5.84911L300.718 3.32602C293.48 0.380928 285.563 -1.0826 276.984 -1.0826V1.64136ZM299.699 5.85213C306.594 8.60999 312.545 12.5017 317.57 17.5259L319.496 15.5998C314.2 10.3038 307.933 6.21202 300.711 3.323L299.699 5.85213ZM317.579 17.535C322.654 22.5151 326.592 28.3731 329.396 35.1214L331.912 34.0762C328.971 26.9994 324.829 20.8334 319.487 15.5907L317.579 17.535ZM329.396 35.1214C332.194 41.8535 333.6 49.2194 333.6 57.235H336.324C336.324 48.8941 334.859 41.1692 331.912 34.0762L329.396 35.1214ZM333.6 57.235C333.6 65.2506 332.194 72.6164 329.396 79.3486L331.912 80.3938C334.859 73.3008 336.324 65.5759 336.324 57.235H333.6ZM329.396 79.3486C326.592 86.0981 322.652 91.9822 317.574 97.0126L319.491 98.9477C324.831 93.6579 328.972 87.4695 331.912 80.3938L329.396 79.3486ZM317.574 97.0125C312.548 101.991 306.592 105.886 299.691 108.694L300.718 111.217C307.935 108.281 314.197 104.192 319.491 98.9478L317.574 97.0125ZM299.699 108.691C292.818 111.443 285.251 112.829 276.984 112.829V115.553C285.561 115.553 293.475 114.114 300.711 111.22L299.699 108.691ZM276.984 90.3607C281.211 90.3607 285.157 89.5191 288.804 87.8241L287.655 85.3539C284.39 86.8718 280.839 87.6367 276.984 87.6367V90.3607ZM288.804 87.8241C292.431 86.138 295.577 83.7845 298.233 80.7717L296.189 78.9707C293.782 81.7022 290.94 83.8272 287.655 85.3539L288.804 87.8241ZM298.232 80.7729C300.929 77.7188 303.01 74.1871 304.477 70.1908L301.92 69.2521C300.564 72.9472 298.652 76.182 296.19 78.9695L298.232 80.7729ZM304.472 70.2049C305.996 66.1916 306.751 61.8641 306.751 57.235H304.027C304.027 61.563 303.322 65.5598 301.925 69.2379L304.472 70.2049ZM306.751 57.235C306.751 52.6059 305.996 48.2784 304.472 44.2651L301.925 45.2321C303.322 48.9102 304.027 52.907 304.027 57.235H306.751ZM304.477 44.2792C303.009 40.2811 300.927 36.7702 298.224 33.7616L296.198 35.582C298.655 38.3176 300.564 41.5246 301.92 45.2179L304.477 44.2792ZM298.24 33.7798C295.585 30.7159 292.437 28.3344 288.804 26.6459L287.655 29.116C290.935 30.6403 293.774 32.7861 296.182 35.5638L298.24 33.7798ZM288.804 26.6459C285.157 24.9509 281.211 24.1093 276.984 24.1093V26.8333C280.839 26.8333 284.39 27.5982 287.655 29.116L288.804 26.6459ZM276.984 24.1093C272.758 24.1093 268.79 24.9509 265.099 26.6428L266.234 29.1191C269.552 27.5982 273.13 26.8333 276.984 26.8333V24.1093ZM265.092 26.6459C261.462 28.3333 258.293 30.7118 255.591 33.7701L257.633 35.5735C260.091 32.7902 262.958 30.6415 266.24 29.116L265.092 26.6459ZM255.599 33.7616C252.899 36.7667 250.794 40.2727 249.278 44.2651L251.824 45.2321C253.229 41.533 255.164 38.3211 257.625 35.582L255.599 33.7616ZM249.273 44.2792C247.801 48.2887 247.072 52.6112 247.072 57.235H249.796C249.796 52.9016 250.478 48.8999 251.83 45.2179L249.273 44.2792ZM247.072 57.235C247.072 61.8588 247.801 66.1813 249.273 70.1908L251.83 69.2521C250.478 65.5701 249.796 61.5683 249.796 57.235H247.072ZM249.278 70.2049C250.793 74.1955 252.896 77.7223 255.591 80.7729L257.633 78.9695C255.167 76.1785 253.23 72.9388 251.824 69.2379L249.278 70.2049ZM255.599 80.7814C258.3 83.7885 261.467 86.1391 265.092 87.8241L266.24 85.3539C262.953 83.8261 260.084 81.6981 257.625 78.961L255.599 80.7814ZM265.099 87.8272C268.79 89.5191 272.758 90.3607 276.984 90.3607V87.6367C273.13 87.6367 269.552 86.8718 266.234 85.3509L265.099 87.8272ZM444.784 2.46999H446.146V1.10801H444.784V2.46999ZM438.87 90.24L437.656 89.6218L437.655 89.6248L438.87 90.24ZM422.002 107.984L421.334 106.797L421.331 106.799L422.002 107.984ZM352.487 90.24L351.27 90.8522L351.275 90.8614L352.487 90.24ZM346.646 2.46999V1.10801H345.284V2.46999H346.646ZM375.561 2.46999H376.923V1.10801H375.561V2.46999ZM377.679 75.7821L376.38 76.1916L376.384 76.2043L377.679 75.7821ZM384.324 85.7858L383.515 86.8818L383.521 86.8862L383.527 86.8904L384.324 85.7858ZM407.106 85.7858L407.903 86.8904L407.909 86.8862L407.915 86.8818L407.106 85.7858ZM413.678 75.7821L412.383 75.3598L412.379 75.3726L413.678 75.7821ZM415.868 2.46999V1.10801H414.507V2.46999H415.868ZM443.422 2.46999V62.5654H446.146V2.46999H443.422ZM443.422 62.5654C443.422 73.1093 441.482 82.1126 437.656 89.6218L440.083 90.8583C444.144 82.8872 446.146 73.4408 446.146 62.5654H443.422ZM437.655 89.6248C433.879 97.0814 428.444 102.795 421.334 106.797L422.67 109.171C430.261 104.898 436.072 98.7816 440.085 90.8553L437.655 89.6248ZM421.331 106.799C414.274 110.798 405.753 112.829 395.715 112.829V115.553C406.122 115.553 415.127 113.445 422.674 109.169L421.331 106.799ZM395.715 112.829C385.727 112.829 377.204 110.799 370.096 106.797L368.76 109.171C376.352 113.445 385.355 115.553 395.715 115.553V112.829ZM370.096 106.797C362.984 102.794 357.523 97.0786 353.699 89.6187L351.275 90.8614C355.337 98.7844 361.17 104.898 368.76 109.171L370.096 106.797ZM353.704 89.6279C349.925 82.1172 348.008 73.1117 348.008 62.5654H345.284C345.284 73.4384 347.261 82.8826 351.27 90.8522L353.704 89.6279ZM348.008 62.5654V2.46999H345.284V62.5654H348.008ZM346.646 3.83196H375.561V1.10801H346.646V3.83196ZM374.199 2.46999V58.6224H376.923V2.46999H374.199ZM374.199 58.6224C374.199 65.6623 374.912 71.5332 376.38 76.1915L378.978 75.3726C377.623 71.0738 376.923 65.505 376.923 58.6224H374.199ZM376.384 76.2043C377.908 80.8779 380.261 84.4814 383.515 86.8818L385.132 84.6898C382.447 82.709 380.371 79.6434 378.974 75.3598L376.384 76.2043ZM383.527 86.8904C386.783 89.2391 390.88 90.3607 395.715 90.3607V87.6367C391.301 87.6367 387.803 86.6163 385.121 84.6812L383.527 86.8904ZM395.715 90.3607C400.55 90.3607 404.647 89.2391 407.903 86.8904L406.309 84.6812C403.627 86.6163 400.129 87.6367 395.715 87.6367V90.3607ZM407.915 86.8818C411.173 84.4785 413.502 80.8697 414.977 76.1915L412.379 75.3726C411.03 79.6516 408.979 82.712 406.298 84.6898L407.915 86.8818ZM414.973 76.2043C416.493 71.541 417.23 65.6653 417.23 58.6224H414.507C414.507 65.502 413.783 71.066 412.383 75.3598L414.973 76.2043ZM417.23 58.6224V2.46999H414.507V58.6224H417.23ZM415.868 3.83196H444.784V1.10801H415.868V3.83196ZM512.109 112V113.362H513.471V112H512.109ZM483.193 112H481.831V113.362H483.193V112ZM483.193 27.6619H484.555V26.2999H483.193V27.6619ZM452.817 27.6619H451.455V29.0239H452.817V27.6619ZM452.817 2.46999V1.10801H451.455V2.46999H452.817ZM542.485 2.46999H543.847V1.10801H542.485V2.46999ZM542.485 27.6619V29.0239H543.847V27.6619H542.485ZM512.109 27.6619V26.2999H510.747V27.6619H512.109ZM512.109 110.638H483.193V113.362H512.109V110.638ZM484.555 112V27.6619H481.831V112H484.555ZM483.193 26.2999H452.817V29.0239H483.193V26.2999ZM454.179 27.6619V2.46999H451.455V27.6619H454.179ZM452.817 3.83196H542.485V1.10801H452.817V3.83196ZM541.123 2.46999V27.6619H543.847V2.46999H541.123ZM542.485 26.2999H512.109V29.0239H542.485V26.2999ZM510.747 27.6619V112H513.471V27.6619H510.747Z" fill="black" fill-opacity="0.15" mask="url(#path-1-outside-1_80_1116)"/>
</svg>
