<svg width="492" height="106" viewBox="0 0 492 106" fill="none" xmlns="http://www.w3.org/2000/svg">
<mask id="path-1-outside-1_1715_2232" maskUnits="userSpaceOnUse" x="0" y="0" width="492" height="106" fill="black">
<rect fill="white" width="492" height="106"/>
<path d="M30.9512 102H3.83396L42.1249 3.98573H69.2421L107.468 102H80.3504L74.0122 84.5535H37.2895L30.9512 102ZM45.5227 62.0102H65.8443L55.6508 34.0434L45.5227 62.0102ZM114.655 102V3.98573H151.966C163.249 3.98573 171.961 6.27273 178.103 10.8467C184.246 15.4207 187.317 21.8897 187.317 30.2536C187.317 34.9147 186.271 39.0748 184.18 42.734C182.089 46.3497 179.258 49.1812 175.686 51.2286C181 52.9711 185.117 55.8026 188.035 59.7232C190.954 63.6438 192.413 68.4573 192.413 74.1639C192.413 79.827 191.041 84.7495 188.297 88.9314C185.552 93.0698 181.654 96.2934 176.6 98.6022C171.547 100.867 165.579 102 158.696 102H114.655ZM140.531 43.5182H150.202C153.905 43.5182 156.758 42.7776 158.762 41.2965C160.809 39.7718 161.833 37.6155 161.833 34.8276C161.833 32.2574 160.809 30.2318 158.762 28.7507C156.714 27.2696 153.861 26.529 150.202 26.529H140.531V43.5182ZM140.531 79.4567H151.966C154.928 79.4567 157.455 79.13 159.546 78.4766C161.637 77.7796 163.227 76.7994 164.316 75.5361C165.405 74.2293 165.95 72.6611 165.95 70.8315C165.95 69.0019 165.47 67.4772 164.512 66.2575C163.554 64.9942 162.138 64.0576 160.265 63.4477C158.435 62.7943 156.192 62.4676 153.534 62.4676H140.531V79.4567ZM251.614 103.96C244.121 103.96 237.195 102.697 230.835 100.17C224.519 97.6002 219.008 94.0282 214.303 89.4542C209.642 84.8366 206.026 79.4349 203.456 73.2491C200.886 67.0634 199.601 60.3113 199.601 52.9929C199.601 45.6745 200.886 38.9224 203.456 32.7366C206.026 26.5508 209.642 21.1709 214.303 16.5969C219.008 11.9793 224.519 8.40727 230.835 5.88068C237.195 3.31053 244.121 2.02545 251.614 2.02545C259.15 2.02545 266.077 3.31053 272.393 5.88068C278.71 8.40727 284.177 11.9793 288.794 16.5969C293.455 21.1709 297.071 26.5508 299.641 32.7366C302.211 38.9224 303.496 45.6745 303.496 52.9929C303.496 60.3113 302.211 67.0634 299.641 73.2491C297.071 79.4349 293.455 84.8366 288.794 89.4542C284.177 94.0282 278.71 97.6002 272.393 100.17C266.077 102.697 259.15 103.96 251.614 103.96ZM251.614 81.417C255.23 81.417 258.584 80.6982 261.677 79.2607C264.77 77.8231 267.449 75.8193 269.714 73.2491C272.023 70.6354 273.809 67.6079 275.072 64.1665C276.379 60.7251 277.032 57.0006 277.032 52.9929C277.032 48.9852 276.379 45.2606 275.072 41.8192C273.809 38.3779 272.023 35.3721 269.714 32.8019C267.449 30.1882 264.77 28.1626 261.677 26.725C258.584 25.2875 255.23 24.5687 251.614 24.5687C247.998 24.5687 244.622 25.2875 241.486 26.725C238.393 28.1626 235.692 30.1882 233.383 32.8019C231.075 35.3721 229.267 38.3779 227.96 41.8192C226.697 45.2606 226.065 48.9852 226.065 52.9929C226.065 57.0006 226.697 60.7251 227.96 64.1665C229.267 67.6079 231.075 70.6354 233.383 73.2491C235.692 75.8193 238.393 77.8231 241.486 79.2607C244.622 80.6982 247.998 81.417 251.614 81.417ZM401.772 3.98573V57.7629C401.772 67.3465 400.008 75.6015 396.479 82.5278C392.994 89.4106 387.963 94.7034 381.385 98.4061C374.851 102.109 367.009 103.96 357.861 103.96C348.757 103.96 340.916 102.109 334.338 98.4061C327.76 94.7034 322.707 89.4106 319.179 82.5278C315.694 75.6015 313.951 67.3465 313.951 57.7629V3.98573H339.827V54.2344C339.827 60.4637 340.459 65.5823 341.722 69.5899C343.029 73.5976 345.011 76.5816 347.668 78.5419C350.325 80.4586 353.723 81.417 357.861 81.417C362 81.417 365.398 80.4586 368.055 78.5419C370.712 76.5816 372.673 73.5976 373.936 69.5899C375.243 65.5823 375.896 60.4637 375.896 54.2344V3.98573H401.772ZM462.018 102H436.142V26.529H408.96V3.98573H489.201V26.529H462.018V102Z"/>
</mask>
<path d="M30.9512 102V104H32.3525L32.831 102.683L30.9512 102ZM3.83396 102L1.97107 101.272L0.905419 104H3.83396V102ZM42.1249 3.98573V1.98573H40.759L40.262 3.25797L42.1249 3.98573ZM69.2421 3.98573L71.1055 3.25904L70.6089 1.98573H69.2421V3.98573ZM107.468 102V104H110.394L109.331 101.273L107.468 102ZM80.3504 102L78.4706 102.683L78.9491 104H80.3504V102ZM74.0122 84.5535L75.892 83.8705L75.4135 82.5535H74.0122V84.5535ZM37.2895 84.5535V82.5535H35.8882L35.4097 83.8705L37.2895 84.5535ZM45.5227 62.0102L43.6422 61.3292L42.6713 64.0102H45.5227V62.0102ZM65.8443 62.0102V64.0102H68.702L67.7234 61.3253L65.8443 62.0102ZM55.6508 34.0434L57.5299 33.3585L55.6448 28.1866L53.7703 33.3624L55.6508 34.0434ZM30.9512 100H3.83396V104H30.9512V100ZM5.69684 102.728L43.9877 4.7135L40.262 3.25797L1.97107 101.272L5.69684 102.728ZM42.1249 5.98573H69.2421V1.98573H42.1249V5.98573ZM67.3788 4.71243L105.604 102.727L109.331 101.273L71.1055 3.25904L67.3788 4.71243ZM107.468 100H80.3504V104H107.468V100ZM82.2302 101.317L75.892 83.8705L72.1324 85.2364L78.4706 102.683L82.2302 101.317ZM74.0122 82.5535H37.2895V86.5535H74.0122V82.5535ZM35.4097 83.8705L29.0714 101.317L32.831 102.683L39.1693 85.2364L35.4097 83.8705ZM45.5227 64.0102H65.8443V60.0102H45.5227V64.0102ZM67.7234 61.3253L57.5299 33.3585L53.7718 34.7283L63.9652 62.6951L67.7234 61.3253ZM53.7703 33.3624L43.6422 61.3292L47.4032 62.6912L57.5313 34.7245L53.7703 33.3624ZM114.655 102H112.655V104H114.655V102ZM114.655 3.98573V1.98573H112.655V3.98573H114.655ZM184.18 42.734L185.912 43.7353L185.917 43.7263L184.18 42.734ZM175.686 51.2286L174.691 49.4934L170.791 51.7287L175.063 53.1291L175.686 51.2286ZM188.297 88.9314L189.964 90.0368L189.969 90.0287L188.297 88.9314ZM176.6 98.6022L177.419 100.427L177.425 100.424L177.432 100.421L176.6 98.6022ZM140.531 43.5182H138.531V45.5182H140.531V43.5182ZM158.762 41.2965L159.951 42.9049L159.956 42.9006L158.762 41.2965ZM140.531 26.529V24.529H138.531V26.529H140.531ZM140.531 79.4567H138.531V81.4567H140.531V79.4567ZM159.546 78.4766L160.142 80.3855L160.16 80.3799L160.178 80.3739L159.546 78.4766ZM164.316 75.5361L165.831 76.842L165.842 76.8294L165.852 76.8165L164.316 75.5361ZM164.512 66.2575L162.919 67.4662L162.929 67.4798L162.939 67.4931L164.512 66.2575ZM160.265 63.4477L159.592 65.3312L159.619 65.3407L159.646 65.3495L160.265 63.4477ZM140.531 62.4676V60.4676H138.531V62.4676H140.531ZM116.655 102V3.98573H112.655V102H116.655ZM114.655 5.98573H151.966V1.98573H114.655V5.98573ZM151.966 5.98573C163.013 5.98573 171.241 8.22994 176.909 12.4508L179.298 9.24265C172.681 4.31553 163.484 1.98573 151.966 1.98573V5.98573ZM176.909 12.4508C182.492 16.6089 185.317 22.4542 185.317 30.2536H189.317C189.317 21.3252 185.999 14.2326 179.298 9.24265L176.909 12.4508ZM185.317 30.2536C185.317 34.6044 184.344 38.416 182.444 41.7418L185.917 43.7263C188.198 39.7337 189.317 35.2249 189.317 30.2536H185.317ZM182.449 41.7328C180.532 45.0477 177.953 47.6241 174.691 49.4934L176.68 52.9638C180.563 50.7383 183.647 47.6516 185.912 43.7353L182.449 41.7328ZM175.063 53.1291C180.044 54.7622 183.793 57.3741 186.431 60.9175L189.64 58.5289C186.44 54.2311 181.957 51.18 176.309 49.3282L175.063 53.1291ZM186.431 60.9175C189.052 64.4374 190.413 68.8129 190.413 74.1639H194.413C194.413 68.1017 192.857 62.8501 189.64 58.5289L186.431 60.9175ZM190.413 74.1639C190.413 79.4902 189.128 84.0199 186.625 87.8341L189.969 90.0287C192.955 85.4791 194.413 80.1638 194.413 74.1639H190.413ZM186.63 87.8261C184.116 91.6172 180.524 94.6105 175.769 96.7831L177.432 100.421C182.783 97.9763 186.989 94.5224 189.964 90.0368L186.63 87.8261ZM175.782 96.7772C171.041 98.9026 165.364 100 158.696 100V104C165.795 104 172.054 102.832 177.419 100.427L175.782 96.7772ZM158.696 100H114.655V104H158.696V100ZM140.531 45.5182H150.202V41.5182H140.531V45.5182ZM150.202 45.5182C154.135 45.5182 157.472 44.7371 159.951 42.9049L157.573 39.6881C156.044 40.8181 153.675 41.5182 150.202 41.5182V45.5182ZM159.956 42.9006C162.562 40.96 163.833 38.18 163.833 34.8276H159.833C159.833 37.051 159.056 38.5837 157.567 39.6924L159.956 42.9006ZM163.833 34.8276C163.833 31.6288 162.512 28.995 159.934 27.1302L157.59 30.3711C159.107 31.4686 159.833 32.8861 159.833 34.8276H163.833ZM159.934 27.1302C157.424 25.3141 154.101 24.529 150.202 24.529V28.529C153.621 28.529 156.005 29.225 157.59 30.3711L159.934 27.1302ZM150.202 24.529H140.531V28.529H150.202V24.529ZM138.531 26.529V43.5182H142.531V26.529H138.531ZM140.531 81.4567H151.966V77.4567H140.531V81.4567ZM151.966 81.4567C155.064 81.4567 157.804 81.1163 160.142 80.3855L158.949 76.5676C157.106 77.1437 154.792 77.4567 151.966 77.4567V81.4567ZM160.178 80.3739C162.504 79.5986 164.442 78.4527 165.831 76.842L162.801 74.2303C162.012 75.1461 160.769 75.9606 158.913 76.5792L160.178 80.3739ZM165.852 76.8165C167.264 75.1221 167.95 73.0909 167.95 70.8315H163.95C163.95 72.2312 163.546 73.3365 162.78 74.2558L165.852 76.8165ZM167.95 70.8315C167.95 68.6374 167.367 66.6545 166.085 65.0218L162.939 67.4931C163.573 68.2999 163.95 69.3664 163.95 70.8315H167.95ZM166.105 65.0487C164.846 63.3892 163.05 62.2513 160.884 61.546L159.646 65.3495C161.226 65.8639 162.261 66.5991 162.919 67.4662L166.105 65.0487ZM160.937 61.5642C158.829 60.8111 156.342 60.4676 153.534 60.4676V64.4676C156.041 64.4676 158.042 64.7775 159.592 65.3312L160.937 61.5642ZM153.534 60.4676H140.531V64.4676H153.534V60.4676ZM138.531 62.4676V79.4567H142.531V62.4676H138.531ZM230.835 100.17L230.081 102.023L230.089 102.026L230.097 102.029L230.835 100.17ZM214.303 89.4542L212.896 90.875L212.902 90.8816L212.909 90.8882L214.303 89.4542ZM214.303 16.5969L215.704 18.0244L215.704 18.0243L214.303 16.5969ZM230.835 5.88068L231.578 7.73764L231.584 7.73499L230.835 5.88068ZM272.393 5.88068L271.639 7.73322L271.65 7.73763L272.393 5.88068ZM288.794 16.5969L287.38 18.0111L287.387 18.0178L287.393 18.0244L288.794 16.5969ZM299.641 32.7366L297.794 33.504L299.641 32.7366ZM299.641 73.2491L297.794 72.4818L299.641 73.2491ZM288.794 89.4542L290.202 90.8751L290.202 90.875L288.794 89.4542ZM272.393 100.17L273.136 102.027L273.147 102.023L272.393 100.17ZM261.677 79.2607L262.52 81.0744L261.677 79.2607ZM269.714 73.2491L268.215 71.9251L268.214 71.9267L269.714 73.2491ZM275.072 64.1665L273.202 63.4565L273.198 63.4669L273.195 63.4773L275.072 64.1665ZM275.072 41.8192L273.195 42.5084L273.198 42.5189L273.202 42.5293L275.072 41.8192ZM269.714 32.8019L268.203 34.1118L268.214 34.1252L268.226 34.1385L269.714 32.8019ZM261.677 26.725L262.52 24.9114L261.677 26.725ZM241.486 26.725L240.653 24.9069L240.643 24.9114L241.486 26.725ZM233.383 32.8019L234.871 34.1385L234.877 34.1323L234.882 34.126L233.383 32.8019ZM227.96 41.8192L226.09 41.1092L226.086 41.1196L226.082 41.13L227.96 41.8192ZM227.96 64.1665L226.082 64.8557L226.086 64.8661L226.09 64.8765L227.96 64.1665ZM233.383 73.2491L231.884 74.5732L231.89 74.5795L231.896 74.5857L233.383 73.2491ZM241.486 79.2607L240.643 81.0744L240.653 81.0788L241.486 79.2607ZM251.614 101.96C244.35 101.96 237.677 100.736 231.573 98.3117L230.097 102.029C236.713 104.658 243.893 105.96 251.614 105.96V101.96ZM231.589 98.3179C225.501 95.8409 220.21 92.4077 215.697 88.0202L212.909 90.8882C217.806 95.6486 223.536 99.3596 230.081 102.023L231.589 98.3179ZM215.711 88.0333C211.242 83.6063 207.774 78.428 205.303 72.4818L201.609 74.0165C204.279 80.4419 208.042 86.0669 212.896 90.875L215.711 88.0333ZM205.303 72.4818C202.843 66.5609 201.601 60.0724 201.601 52.9929H197.601C197.601 60.5501 198.929 67.5659 201.609 74.0165L205.303 72.4818ZM201.601 52.9929C201.601 45.9133 202.843 39.4249 205.303 33.504L201.609 31.9692C198.929 38.4199 197.601 45.4356 197.601 52.9929H201.601ZM205.303 33.504C207.773 27.5594 211.239 22.4056 215.704 18.0244L212.902 15.1694C208.045 19.9362 204.28 25.5422 201.609 31.9692L205.303 33.504ZM215.704 18.0243C220.214 13.598 225.499 10.1692 231.578 7.73763L230.092 4.02372C223.538 6.64536 217.802 10.3607 212.902 15.1695L215.704 18.0243ZM231.584 7.73499C237.685 5.2696 244.354 4.02545 251.614 4.02545V0.0254494C243.888 0.0254494 236.705 1.35145 230.086 4.02636L231.584 7.73499ZM251.614 4.02545C258.919 4.02545 265.586 5.2702 271.639 7.73319L273.147 4.02816C266.567 1.35085 259.381 0.0254494 251.614 0.0254494V4.02545ZM271.65 7.73763C277.726 10.1679 282.962 13.5931 287.38 18.0111L290.208 15.1827C285.391 10.3656 279.693 6.64662 273.136 4.02372L271.65 7.73763ZM287.393 18.0244C291.858 22.4056 295.324 27.5594 297.794 33.504L301.488 31.9692C298.818 25.5422 295.052 19.9362 290.195 15.1694L287.393 18.0244ZM297.794 33.504C300.254 39.4249 301.496 45.9133 301.496 52.9929H305.496C305.496 45.4356 304.168 38.4199 301.488 31.9692L297.794 33.504ZM301.496 52.9929C301.496 60.0724 300.254 66.5609 297.794 72.4818L301.488 74.0165C304.168 67.5659 305.496 60.5501 305.496 52.9929H301.496ZM297.794 72.4818C295.323 78.428 291.855 83.6063 287.387 88.0333L290.202 90.875C295.055 86.0669 298.818 80.4419 301.488 74.0165L297.794 72.4818ZM287.387 88.0333C282.966 92.4126 277.724 95.8421 271.639 98.3179L273.147 102.023C279.695 99.3584 285.388 95.6437 290.202 90.8751L287.387 88.0333ZM271.65 98.3134C265.594 100.736 258.923 101.96 251.614 101.96V105.96C259.377 105.96 266.559 104.658 273.136 102.027L271.65 98.3134ZM251.614 83.417C255.503 83.417 259.147 82.642 262.52 81.0744L260.834 77.447C258.021 78.7545 254.956 79.417 251.614 79.417V83.417ZM262.52 81.0744C265.865 79.5197 268.767 77.3482 271.214 74.5716L268.214 71.9267C266.13 74.2904 263.675 76.1266 260.834 77.447L262.52 81.0744ZM271.213 74.5732C273.695 71.7638 275.605 68.5183 276.95 64.8557L273.195 63.4773C272.013 66.6975 270.351 69.5071 268.215 71.9251L271.213 74.5732ZM276.942 64.8765C278.342 61.189 279.032 57.2216 279.032 52.9929H275.032C275.032 56.7795 274.416 60.2612 273.202 63.4565L276.942 64.8765ZM279.032 52.9929C279.032 48.7641 278.342 44.7968 276.942 41.1092L273.202 42.5293C274.416 45.7245 275.032 49.2062 275.032 52.9929H279.032ZM276.95 41.13C275.604 37.4648 273.691 34.236 271.202 31.4654L268.226 34.1385C270.355 36.5082 272.013 39.2909 273.195 42.5084L276.95 41.13ZM271.225 31.4921C268.778 28.6683 265.872 26.4695 262.52 24.9114L260.834 28.5387C263.667 29.8556 266.119 31.7082 268.203 34.1118L271.225 31.4921ZM262.52 24.9114C259.147 23.3438 255.503 22.5687 251.614 22.5687V26.5687C254.956 26.5687 258.021 27.2312 260.834 28.5387L262.52 24.9114ZM251.614 22.5687C247.725 22.5687 244.063 23.3438 240.653 24.9069L242.319 28.5432C245.182 27.2312 248.272 26.5687 251.614 26.5687V22.5687ZM240.643 24.9114C237.294 26.4678 234.372 28.6622 231.884 31.4779L234.882 34.126C237.013 31.7142 239.492 29.8574 242.329 28.5387L240.643 24.9114ZM231.896 31.4654C229.411 34.2308 227.479 37.4525 226.09 41.1092L229.83 42.5293C231.055 39.3032 232.738 36.5134 234.871 34.1385L231.896 31.4654ZM226.082 41.13C224.731 44.8118 224.065 48.7719 224.065 52.9929H228.065C228.065 49.1984 228.662 45.7094 229.837 42.5084L226.082 41.13ZM224.065 52.9929C224.065 57.2138 224.731 61.1739 226.082 64.8557L229.837 63.4773C228.662 60.2763 228.065 56.7873 228.065 52.9929H224.065ZM226.09 64.8765C227.478 68.5306 229.407 71.769 231.884 74.5732L234.882 71.9251C232.742 69.5019 231.056 66.6852 229.83 63.4565L226.09 64.8765ZM231.896 74.5857C234.382 77.3541 237.302 79.5214 240.643 81.0744L242.329 77.447C239.484 76.1248 237.002 74.2845 234.871 71.9126L231.896 74.5857ZM240.653 81.0788C244.063 82.6419 247.725 83.417 251.614 83.417V79.417C248.272 79.417 245.182 78.7545 242.319 77.4426L240.653 81.0788ZM401.772 3.98573H403.772V1.98573H401.772V3.98573ZM396.479 82.5278L394.697 81.62L394.695 81.6244L396.479 82.5278ZM381.385 98.4061L380.404 96.6633L380.399 96.6661L381.385 98.4061ZM319.179 82.5278L317.392 83.4268L317.395 83.4335L317.399 83.4402L319.179 82.5278ZM313.951 3.98573V1.98573H311.951V3.98573H313.951ZM339.827 3.98573H341.827V1.98573H339.827V3.98573ZM341.722 69.5899L339.814 70.1912L339.817 70.2006L339.82 70.21L341.722 69.5899ZM347.668 78.5419L346.481 80.1514L346.489 80.1577L346.498 80.164L347.668 78.5419ZM368.055 78.5419L369.225 80.164L369.234 80.1577L369.242 80.1514L368.055 78.5419ZM373.936 69.5899L372.034 68.9699L372.031 68.9793L372.028 68.9887L373.936 69.5899ZM375.896 3.98573V1.98573H373.896V3.98573H375.896ZM399.772 3.98573V57.7629H403.772V3.98573H399.772ZM399.772 57.7629C399.772 67.1032 398.053 75.0328 394.697 81.62L398.261 83.4357C401.962 76.1702 403.772 67.5899 403.772 57.7629H399.772ZM394.695 81.6244C391.384 88.1623 386.629 93.1592 380.404 96.6633L382.366 100.149C389.297 96.2476 394.604 90.6589 398.263 83.4313L394.695 81.6244ZM380.399 96.6661C374.224 100.165 366.739 101.96 357.861 101.96V105.96C367.28 105.96 375.477 104.053 382.371 100.146L380.399 96.6661ZM357.861 101.96C349.03 101.96 341.541 100.166 335.319 96.6633L333.357 100.149C340.29 104.052 348.484 105.96 357.861 105.96V101.96ZM335.319 96.6633C329.092 93.158 324.312 88.1582 320.958 81.6154L317.399 83.4402C321.102 90.663 326.428 96.2488 333.357 100.149L335.319 96.6633ZM320.965 81.6289C317.65 75.0395 315.951 67.1066 315.951 57.7629H311.951C311.951 67.5864 313.737 76.1634 317.392 83.4268L320.965 81.6289ZM315.951 57.7629V3.98573H311.951V57.7629H315.951ZM313.951 5.98573H339.827V1.98573H313.951V5.98573ZM337.827 3.98573V54.2344H341.827V3.98573H337.827ZM337.827 54.2344C337.827 60.5792 338.468 65.9195 339.814 70.1912L343.629 68.9887C342.449 65.245 341.827 60.3482 341.827 54.2344H337.827ZM339.82 70.21C341.221 74.504 343.406 77.883 346.481 80.1514L348.855 76.9325C346.616 75.2803 344.837 72.6913 343.623 68.9699L339.82 70.21ZM346.498 80.164C349.576 82.3844 353.414 83.417 357.861 83.417V79.417C354.032 79.417 351.074 78.5329 348.838 76.9199L346.498 80.164ZM357.861 83.417C362.309 83.417 366.147 82.3844 369.225 80.164L366.885 76.9199C364.649 78.5329 361.691 79.417 357.861 79.417V83.417ZM369.242 80.1514C372.323 77.8786 374.488 74.492 375.843 70.1912L372.028 68.9887C370.857 72.7032 369.101 75.2846 366.868 76.9325L369.242 80.1514ZM375.837 70.21C377.233 65.931 377.896 60.5836 377.896 54.2344H373.896C373.896 60.3438 373.253 65.2335 372.034 68.9699L375.837 70.21ZM377.896 54.2344V3.98573H373.896V54.2344H377.896ZM375.896 5.98573H401.772V1.98573H375.896V5.98573ZM462.018 102V104H464.018V102H462.018ZM436.142 102H434.142V104H436.142V102ZM436.142 26.529H438.142V24.529H436.142V26.529ZM408.96 26.529H406.96V28.529H408.96V26.529ZM408.96 3.98573V1.98573H406.96V3.98573H408.96ZM489.201 3.98573H491.201V1.98573H489.201V3.98573ZM489.201 26.529V28.529H491.201V26.529H489.201ZM462.018 26.529V24.529H460.018V26.529H462.018ZM462.018 100H436.142V104H462.018V100ZM438.142 102V26.529H434.142V102H438.142ZM436.142 24.529H408.96V28.529H436.142V24.529ZM410.96 26.529V3.98573H406.96V26.529H410.96ZM408.96 5.98573H489.201V1.98573H408.96V5.98573ZM487.201 3.98573V26.529H491.201V3.98573H487.201ZM489.201 24.529H462.018V28.529H489.201V24.529ZM460.018 26.529V102H464.018V26.529H460.018Z" fill="#252735" fill-opacity="0.4" mask="url(#path-1-outside-1_1715_2232)"/>
</svg>
