<svg width="25" height="25" viewBox="0 0 25 25" fill="none" xmlns="http://www.w3.org/2000/svg">
<path fill-rule="evenodd" clip-rule="evenodd" d="M12.1444 0.396729C5.5611 0.396729 0.224365 5.73352 0.224365 12.3168C0.224365 18.9 5.5611 24.2368 12.1444 24.2368C18.7276 24.2368 24.0644 18.9 24.0644 12.3168C24.0644 5.73352 18.7276 0.396729 12.1444 0.396729ZM10.9097 22.4593C8.64815 22.1885 6.55561 21.1761 4.91999 19.5405C2.99021 17.6107 1.92749 15.045 1.92749 12.3159C1.92749 9.85912 2.78917 7.53506 4.36886 5.68774C4.40955 6.17583 4.51001 6.69911 4.48428 7.07316C4.39029 8.4368 4.25573 9.29023 5.05392 10.4407C5.36487 10.8888 5.44126 11.5311 5.59261 12.0498C5.74064 12.5572 6.332 12.8233 6.73986 13.1359C7.56274 13.7668 8.34998 14.5001 9.22254 15.0554C9.79843 15.4219 10.1582 15.6042 9.98949 16.3069C9.85385 16.8721 9.81597 17.2203 9.52358 17.7238C9.43435 17.8774 9.86038 18.8652 10.0022 19.007C10.4319 19.4366 10.8582 19.8308 11.3266 20.2176C12.0527 20.8176 11.2561 21.5971 10.9097 22.4593ZM19.3694 19.5416C17.9005 21.0105 16.0628 21.9763 14.0653 22.3543C14.3484 21.6542 14.8524 21.0322 15.32 20.6716C15.7267 20.3578 16.2361 19.7542 16.4486 19.2761C16.6609 18.7986 16.9421 18.3846 17.2267 17.9455C17.6315 17.3209 16.2284 16.379 15.7737 16.1816C14.7506 15.7374 13.9803 15.138 13.071 14.4981C12.4232 14.0423 11.1078 14.7362 10.3764 14.4169C9.37462 13.9795 8.54927 13.2194 7.67848 12.5637C6.7799 11.8869 6.82334 11.0979 6.82334 10.0996C7.52719 10.1256 8.52847 9.9048 8.99576 10.4708C9.14321 10.6495 9.65021 11.4475 9.98959 11.1639C10.2668 10.9322 9.78414 10.0035 9.6909 9.78514C9.40408 9.11378 10.3444 8.85194 10.8258 8.39669C11.4539 7.80275 12.8012 6.87127 12.6947 6.44553C12.5882 6.01979 11.3466 4.81358 10.6173 5.00178C10.5081 5.02997 9.54586 6.03887 9.35995 6.19716C9.36488 5.86787 9.36981 5.53863 9.37485 5.20934C9.378 5.00143 8.98699 4.78802 9.00516 4.65392C9.051 4.315 9.99441 3.69991 10.2291 3.42999C10.0647 3.32724 9.50362 2.84534 9.33382 2.91606C8.92269 3.08741 8.45838 3.20546 8.04726 3.37676C8.04726 3.23417 8.02995 3.10025 8.00932 2.96798C8.83318 2.60321 9.70489 2.34957 10.6059 2.21427L11.4131 2.53863L11.9829 3.21492L12.5517 3.80135L13.0488 3.96152L13.8384 3.21681L13.6348 2.68517V2.20728C15.1965 2.4341 16.6712 3.01669 17.9628 3.91505C17.7318 3.93574 17.4778 3.96972 17.1913 4.00617C17.073 3.93625 16.9212 3.9045 16.7922 3.85585C17.1665 4.66056 17.5569 5.45416 17.9535 6.24822C18.3772 7.09643 19.317 8.00625 19.4821 8.90163C19.6766 9.95701 19.5416 10.9157 19.648 12.1573C19.7505 13.3531 20.9961 14.7117 20.9961 14.7117C20.9961 14.7117 21.5713 14.9076 22.0497 14.8393C21.6038 16.6035 20.6896 18.2213 19.3694 19.5416Z" fill="#D1C4E9"/>
</svg>
