<svg width="618" height="102" viewBox="0 0 618 102" fill="none" xmlns="http://www.w3.org/2000/svg">
<mask id="path-1-outside-1_125_1045" maskUnits="userSpaceOnUse" x="-1" y="-1" width="620" height="104" fill="black">
<rect fill="white" x="-1" y="-1" width="620" height="104"/>
<path d="M0.797956 100V1.98573H38.1087C49.3913 1.98573 58.1036 4.27273 64.2459 8.84673C70.3881 13.4207 73.4592 19.8897 73.4592 28.2536C73.4592 32.9147 72.4137 37.0748 70.3227 40.734C68.2318 44.3497 65.4002 47.1812 61.8282 49.2286C67.1427 50.9711 71.2593 53.8026 74.178 57.7232C77.0966 61.6438 78.5559 66.4573 78.5559 72.1639C78.5559 77.827 77.1837 82.7495 74.4393 86.9314C71.6949 91.0698 67.7962 94.2934 62.743 96.6022C57.6898 98.8674 51.7218 100 44.839 100H0.797956ZM26.6737 41.5182H36.3445C40.0472 41.5182 42.9005 40.7776 44.9044 39.2965C46.9518 37.7718 47.9755 35.6155 47.9755 32.8276C47.9755 30.2574 46.9518 28.2318 44.9044 26.7507C42.857 25.2696 40.0037 24.529 36.3445 24.529H26.6737V41.5182ZM26.6737 77.4567H38.1087C41.0709 77.4567 43.5975 77.13 45.6885 76.4766C47.7795 75.7796 49.3695 74.7994 50.4585 73.5361C51.5476 72.2293 52.0921 70.6611 52.0921 68.8315C52.0921 67.0019 51.6129 65.4772 50.6545 64.2575C49.6962 62.9942 48.2804 62.0576 46.4073 61.4477C44.5777 60.7943 42.3342 60.4676 39.6769 60.4676H26.6737V77.4567ZM88.3574 100V1.98573H153.7V24.529H114.233V39.6886H151.087V62.2318H114.233V77.4567H154.354V100H88.3574ZM258.379 100H227.93L192.645 41.8449V100H166.769V1.98573H197.219L232.504 60.3369V1.98573H258.379V100ZM271.448 100V1.98573H336.791V24.529H297.324V39.6886H334.177V62.2318H297.324V77.4567H337.444V100H271.448ZM349.859 100V1.98573H412.589V24.529H375.735V39.6886H409.975V62.2318H375.735V100H349.859ZM425.004 100V1.98573H450.879V100H425.004ZM511.126 100H485.25V24.529H458.067V1.98573H538.308V24.529H511.126V100ZM540.922 88.761L553.076 69.0275C556.256 71.5105 559.218 73.5361 561.962 75.1044C564.75 76.6726 567.451 77.827 570.065 78.5675C572.722 79.2645 575.423 79.613 578.167 79.613C580.868 79.613 583.177 79.3081 585.094 78.6982C587.01 78.0448 588.47 77.13 589.472 75.9538C590.517 74.7341 591.04 73.2966 591.04 71.6412C591.04 69.5502 590.299 67.7642 588.818 66.2831C587.337 64.802 585.355 63.4734 582.872 62.2972C580.433 61.121 577.753 59.9448 574.835 58.7687C571.698 57.5054 568.497 56.1114 565.229 54.5867C561.962 53.0185 558.957 51.1236 556.212 48.9019C553.468 46.6802 551.246 43.9794 549.547 40.7994C547.848 37.5758 546.999 33.6552 546.999 29.0377C546.999 22.939 548.523 17.7334 551.573 13.4207C554.666 9.06454 558.869 5.75384 564.184 3.48862C569.542 1.17984 575.597 0.0254494 582.349 0.0254494C587.272 0.0254494 592.477 0.678878 597.966 1.98573C603.455 3.29259 609.009 5.34 614.629 8.12796L604.566 28.907C601.429 26.9903 597.988 25.4656 594.242 24.333C590.539 23.1568 587.141 22.5687 584.048 22.5687C581.914 22.5687 580.04 22.8519 578.429 23.4182C576.86 23.9845 575.641 24.8122 574.769 25.9012C573.898 26.9467 573.463 28.1882 573.463 29.6258C573.463 31.5425 574.203 33.2414 575.684 34.7225C577.165 36.16 579.126 37.4887 581.565 38.7084C584.005 39.9281 586.662 41.1697 589.537 42.433C592.673 43.7834 595.875 45.2863 599.142 46.9416C602.453 48.597 605.481 50.5572 608.225 52.8225C611.013 55.0877 613.256 57.8103 614.955 60.9903C616.654 64.1268 617.504 67.8949 617.504 72.2946C617.504 78.1755 615.892 83.3594 612.668 87.8462C609.488 92.2895 605.023 95.7527 599.273 98.2357C593.566 100.719 586.923 101.96 579.343 101.96C572.286 101.96 565.491 100.828 558.957 98.5625C552.422 96.2972 546.411 93.0301 540.922 88.761Z"/>
</mask>
<path d="M0.797955 100H-0.194908V100.993H0.797955V100ZM0.797955 1.98573V0.99287H-0.194908V1.98573H0.797955ZM70.3227 40.734L71.1822 41.2311L71.1848 41.2266L70.3227 40.734ZM61.8282 49.2286L61.3344 48.3672L59.3985 49.4769L61.5188 50.1721L61.8282 49.2286ZM74.4393 86.9314L75.2668 87.4802L75.2694 87.4762L74.4393 86.9314ZM62.743 96.6022L63.1491 97.5082L63.1556 97.5052L62.743 96.6022ZM26.6737 41.5182H25.6809V42.511H26.6737V41.5182ZM44.9044 39.2965L45.4945 40.0949L45.4974 40.0928L44.9044 39.2965ZM26.6737 24.529V23.5361H25.6809V24.529H26.6737ZM26.6737 77.4567H25.6809V78.4496H26.6737V77.4567ZM45.6885 76.4766L45.9846 77.4242L45.9936 77.4214L46.0025 77.4185L45.6885 76.4766ZM50.4585 73.5361L51.2105 74.1844L51.2159 74.1781L51.2213 74.1718L50.4585 73.5361ZM50.6545 64.2575L49.8635 64.8575L49.8686 64.8643L49.8738 64.8709L50.6545 64.2575ZM46.4073 61.4477L46.0733 62.3827L46.0865 62.3875L46.0999 62.3918L46.4073 61.4477ZM26.6737 60.4676V59.4747H25.6809V60.4676H26.6737ZM1.79082 100V1.98573H-0.194908V100H1.79082ZM0.797955 2.9786H38.1087V0.99287H0.797955V2.9786ZM38.1087 2.9786C49.2743 2.9786 57.746 5.24435 63.6529 9.64305L64.8389 8.05042C58.4612 3.30112 49.5082 0.99287 38.1087 0.99287V2.9786ZM63.6529 9.64305C69.5178 14.0106 72.4663 20.1699 72.4663 28.2536H74.4521C74.4521 19.6094 71.2584 12.8309 64.8389 8.05042L63.6529 9.64305ZM72.4663 28.2536C72.4663 32.7607 71.4571 36.7478 69.4607 40.2414L71.1848 41.2266C73.3703 37.4019 74.4521 33.0687 74.4521 28.2536H72.4663ZM69.4633 40.237C67.4586 43.7033 64.7523 46.4082 61.3344 48.3672L62.3219 50.09C66.0482 47.9542 69.0049 44.996 71.1822 41.2311L69.4633 40.237ZM61.5188 50.1721C66.6679 51.8603 70.6023 54.5828 73.3816 58.3161L74.9744 57.1303C71.9163 53.0225 67.6176 50.0819 62.1375 48.2852L61.5188 50.1721ZM73.3816 58.3161C76.1521 62.0378 77.5631 66.6339 77.5631 72.1639H79.5488C79.5488 66.2808 78.0411 61.2498 74.9744 57.1303L73.3816 58.3161ZM77.5631 72.1639C77.5631 77.6598 76.2339 82.3873 73.6093 86.3867L75.2694 87.4762C78.1336 83.1117 79.5488 77.9942 79.5488 72.1639H77.5631ZM73.6119 86.3827C70.9818 90.3487 67.2355 93.458 62.3304 95.6991L63.1556 97.5052C68.3568 95.1288 72.4081 91.7909 75.2668 87.4802L73.6119 86.3827ZM62.3368 95.6962C57.4385 97.892 51.6149 99.0071 44.839 99.0071V100.993C51.8288 100.993 57.9411 99.8428 63.1491 97.5082L62.3368 95.6962ZM44.839 99.0071H0.797955V100.993H44.839V99.0071ZM26.6737 42.511H36.3445V40.5253H26.6737V42.511ZM36.3445 42.511C40.1613 42.511 43.2548 41.7504 45.4945 40.0949L44.3142 38.4981C42.5462 39.8048 39.9331 40.5253 36.3445 40.5253V42.511ZM45.4974 40.0928C47.8221 38.3617 48.9684 35.8958 48.9684 32.8276H46.9826C46.9826 35.3353 46.0815 37.182 44.3114 38.5002L45.4974 40.0928ZM48.9684 32.8276C48.9684 29.9453 47.797 27.6178 45.4863 25.9462L44.3224 27.5551C46.1066 28.8458 46.9826 30.5695 46.9826 32.8276H48.9684ZM45.4863 25.9462C43.209 24.2988 40.1228 23.5361 36.3445 23.5361V25.5219C39.8845 25.5219 42.5049 26.2403 44.3224 27.5551L45.4863 25.9462ZM36.3445 23.5361H26.6737V25.5219H36.3445V23.5361ZM25.6809 24.529V41.5182H27.6666V24.529H25.6809ZM26.6737 78.4496H38.1087V76.4639H26.6737V78.4496ZM38.1087 78.4496C41.1385 78.4496 43.7708 78.1161 45.9846 77.4242L45.3923 75.5289C43.4242 76.1439 41.0034 76.4639 38.1087 76.4639V78.4496ZM46.0025 77.4185C48.2102 76.6826 49.9728 75.6202 51.2105 74.1844L49.7065 72.8879C48.7661 73.9787 47.3488 74.8766 45.3745 75.5347L46.0025 77.4185ZM51.2213 74.1718C52.4706 72.6725 53.085 70.8745 53.085 68.8315H51.0992C51.0992 70.4477 50.6245 71.7861 49.6958 72.9005L51.2213 74.1718ZM53.085 68.8315C53.085 66.8209 52.5547 65.0688 51.4352 63.6441L49.8738 64.8709C50.6711 65.8856 51.0992 67.1828 51.0992 68.8315H53.085ZM51.4455 63.6574C50.338 62.1974 48.7333 61.1609 46.7146 60.5036L46.0999 62.3918C47.8276 62.9543 49.0544 63.7909 49.8635 64.8575L51.4455 63.6574ZM46.7412 60.5127C44.773 59.8098 42.4091 59.4747 39.6769 59.4747V61.4604C42.2594 61.4604 44.3823 61.7788 46.0733 62.3827L46.7412 60.5127ZM39.6769 59.4747H26.6737V61.4604H39.6769V59.4747ZM25.6809 60.4676V77.4567H27.6666V60.4676H25.6809ZM88.3574 100H87.3645V100.993H88.3574V100ZM88.3574 1.98573V0.99287H87.3645V1.98573H88.3574ZM153.7 1.98573H154.693V0.99287H153.7V1.98573ZM153.7 24.529V25.5219H154.693V24.529H153.7ZM114.233 24.529V23.5361H113.24V24.529H114.233ZM114.233 39.6886H113.24V40.6814H114.233V39.6886ZM151.087 39.6886H152.079V38.6957H151.087V39.6886ZM151.087 62.2318V63.2247H152.079V62.2318H151.087ZM114.233 62.2318V61.239H113.24V62.2318H114.233ZM114.233 77.4567H113.24V78.4496H114.233V77.4567ZM154.354 77.4567H155.347V76.4639H154.354V77.4567ZM154.354 100V100.993H155.347V100H154.354ZM89.3502 100V1.98573H87.3645V100H89.3502ZM88.3574 2.9786H153.7V0.99287H88.3574V2.9786ZM152.707 1.98573V24.529H154.693V1.98573H152.707ZM153.7 23.5361H114.233V25.5219H153.7V23.5361ZM113.24 24.529V39.6886H115.226V24.529H113.24ZM114.233 40.6814H151.087V38.6957H114.233V40.6814ZM150.094 39.6886V62.2318H152.079V39.6886H150.094ZM151.087 61.239H114.233V63.2247H151.087V61.239ZM113.24 62.2318V77.4567H115.226V62.2318H113.24ZM114.233 78.4496H154.354V76.4639H114.233V78.4496ZM153.361 77.4567V100H155.347V77.4567H153.361ZM154.354 99.0071H88.3574V100.993H154.354V99.0071ZM258.379 100V100.993H259.372V100H258.379ZM227.93 100L227.081 100.515L227.371 100.993H227.93V100ZM192.645 41.8449L193.493 41.3298L191.652 38.2944V41.8449H192.645ZM192.645 100V100.993H193.637V100H192.645ZM166.769 100H165.776V100.993H166.769V100ZM166.769 1.98573V0.99287H165.776V1.98573H166.769ZM197.219 1.98573L198.068 1.47197L197.778 0.99287H197.219V1.98573ZM232.504 60.3369L231.654 60.8507L233.497 63.8976V60.3369H232.504ZM232.504 1.98573V0.99287H231.511V1.98573H232.504ZM258.379 1.98573H259.372V0.99287H258.379V1.98573ZM258.379 99.0071H227.93V100.993H258.379V99.0071ZM228.779 99.485L193.493 41.3298L191.796 42.3599L227.081 100.515L228.779 99.485ZM191.652 41.8449V100H193.637V41.8449H191.652ZM192.645 99.0071H166.769V100.993H192.645V99.0071ZM167.762 100V1.98573H165.776V100H167.762ZM166.769 2.9786H197.219V0.99287H166.769V2.9786ZM196.369 2.49949L231.654 60.8507L233.353 59.8231L198.068 1.47197L196.369 2.49949ZM233.497 60.3369V1.98573H231.511V60.3369H233.497ZM232.504 2.9786H258.379V0.99287H232.504V2.9786ZM257.387 1.98573V100H259.372V1.98573H257.387ZM271.448 100H270.455V100.993H271.448V100ZM271.448 1.98573V0.99287H270.455V1.98573H271.448ZM336.791 1.98573H337.784V0.99287H336.791V1.98573ZM336.791 24.529V25.5219H337.784V24.529H336.791ZM297.324 24.529V23.5361H296.331V24.529H297.324ZM297.324 39.6886H296.331V40.6814H297.324V39.6886ZM334.177 39.6886H335.17V38.6957H334.177V39.6886ZM334.177 62.2318V63.2247H335.17V62.2318H334.177ZM297.324 62.2318V61.239H296.331V62.2318H297.324ZM297.324 77.4567H296.331V78.4496H297.324V77.4567ZM337.444 77.4567H338.437V76.4639H337.444V77.4567ZM337.444 100V100.993H338.437V100H337.444ZM272.441 100V1.98573H270.455V100H272.441ZM271.448 2.9786H336.791V0.99287H271.448V2.9786ZM335.798 1.98573V24.529H337.784V1.98573H335.798ZM336.791 23.5361H297.324V25.5219H336.791V23.5361ZM296.331 24.529V39.6886H298.317V24.529H296.331ZM297.324 40.6814H334.177V38.6957H297.324V40.6814ZM333.184 39.6886V62.2318H335.17V39.6886H333.184ZM334.177 61.239H297.324V63.2247H334.177V61.239ZM296.331 62.2318V77.4567H298.317V62.2318H296.331ZM297.324 78.4496H337.444V76.4639H297.324V78.4496ZM336.451 77.4567V100H338.437V77.4567H336.451ZM337.444 99.0071H271.448V100.993H337.444V99.0071ZM349.859 100H348.867V100.993H349.859V100ZM349.859 1.98573V0.99287H348.867V1.98573H349.859ZM412.589 1.98573H413.581V0.99287H412.589V1.98573ZM412.589 24.529V25.5219H413.581V24.529H412.589ZM375.735 24.529V23.5361H374.742V24.529H375.735ZM375.735 39.6886H374.742V40.6814H375.735V39.6886ZM409.975 39.6886H410.968V38.6957H409.975V39.6886ZM409.975 62.2318V63.2247H410.968V62.2318H409.975ZM375.735 62.2318V61.239H374.742V62.2318H375.735ZM375.735 100V100.993H376.728V100H375.735ZM350.852 100V1.98573H348.867V100H350.852ZM349.859 2.9786H412.589V0.99287H349.859V2.9786ZM411.596 1.98573V24.529H413.581V1.98573H411.596ZM412.589 23.5361H375.735V25.5219H412.589V23.5361ZM374.742 24.529V39.6886H376.728V24.529H374.742ZM375.735 40.6814H409.975V38.6957H375.735V40.6814ZM408.982 39.6886V62.2318H410.968V39.6886H408.982ZM409.975 61.239H375.735V63.2247H409.975V61.239ZM374.742 62.2318V100H376.728V62.2318H374.742ZM375.735 99.0071H349.859V100.993H375.735V99.0071ZM425.004 100H424.011V100.993H425.004V100ZM425.004 1.98573V0.99287H424.011V1.98573H425.004ZM450.879 1.98573H451.872V0.99287H450.879V1.98573ZM450.879 100V100.993H451.872V100H450.879ZM425.997 100V1.98573H424.011V100H425.997ZM425.004 2.9786H450.879V0.99287H425.004V2.9786ZM449.887 1.98573V100H451.872V1.98573H449.887ZM450.879 99.0071H425.004V100.993H450.879V99.0071ZM511.126 100V100.993H512.118V100H511.126ZM485.25 100H484.257V100.993H485.25V100ZM485.25 24.529H486.243V23.5361H485.25V24.529ZM458.067 24.529H457.074V25.5219H458.067V24.529ZM458.067 1.98573V0.99287H457.074V1.98573H458.067ZM538.308 1.98573H539.301V0.99287H538.308V1.98573ZM538.308 24.529V25.5219H539.301V24.529H538.308ZM511.126 24.529V23.5361H510.133V24.529H511.126ZM511.126 99.0071H485.25V100.993H511.126V99.0071ZM486.243 100V24.529H484.257V100H486.243ZM485.25 23.5361H458.067V25.5219H485.25V23.5361ZM459.06 24.529V1.98573H457.074V24.529H459.06ZM458.067 2.9786H538.308V0.99287H458.067V2.9786ZM537.315 1.98573V24.529H539.301V1.98573H537.315ZM538.308 23.5361H511.126V25.5219H538.308V23.5361ZM510.133 24.529V100H512.118V24.529H510.133ZM540.922 88.761L540.076 88.2404L539.61 88.9983L540.312 89.5448L540.922 88.761ZM553.076 69.0275L553.687 68.2449L552.812 67.5621L552.23 68.5068L553.076 69.0275ZM561.962 75.1044L561.47 75.9664L561.476 75.9697L561.962 75.1044ZM570.065 78.5676L569.794 79.5228L569.804 79.5255L569.813 79.5279L570.065 78.5676ZM585.094 78.6982L585.395 79.6444L585.404 79.6413L585.414 79.638L585.094 78.6982ZM589.472 75.9538L588.718 75.3077L588.716 75.31L589.472 75.9538ZM588.818 66.2831L589.52 65.581L588.818 66.2831ZM582.872 62.2972L582.441 63.1915L582.447 63.1945L582.872 62.2972ZM574.835 58.7687L575.206 57.8478L575.206 57.8477L574.835 58.7687ZM565.229 54.5867L564.8 55.4819L564.81 55.4864L565.229 54.5867ZM549.547 40.7994L548.669 41.2623L548.671 41.2672L549.547 40.7994ZM551.573 13.4207L550.763 12.8459L550.762 12.8475L551.573 13.4207ZM564.184 3.48862L564.573 4.40199L564.577 4.40044L564.184 3.48862ZM614.629 8.12796L615.522 8.56071L615.951 7.67561L615.07 7.23854L614.629 8.12796ZM604.566 28.907L604.048 29.7542L604.982 30.3251L605.459 29.3397L604.566 28.907ZM594.242 24.333L593.941 25.2794L593.954 25.2834L594.242 24.333ZM578.429 23.4182L578.1 22.4814L578.091 22.4843L578.429 23.4182ZM574.769 25.9012L575.532 26.5368L575.539 26.5292L575.545 26.5215L574.769 25.9012ZM575.684 34.7225L574.982 35.4246L574.987 35.4298L574.993 35.435L575.684 34.7225ZM589.537 42.433L589.138 43.342L589.144 43.3449L589.537 42.433ZM599.142 46.9416L598.694 47.8273L598.698 47.8297L599.142 46.9416ZM608.225 52.8225L607.593 53.5882L607.599 53.593L608.225 52.8225ZM614.955 60.9903L614.08 61.4582L614.082 61.4632L614.955 60.9903ZM612.668 87.8462L611.862 87.2669L611.861 87.2684L612.668 87.8462ZM599.273 98.2357L598.879 97.3242L598.877 97.3253L599.273 98.2357ZM541.767 89.2817L553.921 69.5482L552.23 68.5068L540.076 88.2404L541.767 89.2817ZM552.465 69.8101C555.672 72.3148 558.674 74.3692 561.47 75.9664L562.455 74.2423C559.761 72.7031 556.839 70.7062 553.687 68.2449L552.465 69.8101ZM561.476 75.9697C564.32 77.5698 567.093 78.7575 569.794 79.5228L570.335 77.6123C567.809 76.8964 565.18 75.7754 562.449 74.239L561.476 75.9697ZM569.813 79.5279C572.552 80.2465 575.338 80.6059 578.167 80.6059V78.6202C575.508 78.6202 572.892 78.2826 570.317 77.6072L569.813 79.5279ZM578.167 80.6059C580.938 80.6059 583.354 80.2937 585.395 79.6444L584.793 77.7521C583 78.3224 580.799 78.6202 578.167 78.6202V80.6059ZM585.414 79.638C587.449 78.9444 589.079 77.9459 590.227 76.5977L588.716 75.31C587.86 76.3141 586.572 77.1452 584.773 77.7585L585.414 79.638ZM590.225 76.6C591.43 75.1944 592.033 73.5257 592.033 71.6412H590.047C590.047 73.0674 589.604 74.2738 588.718 75.3077L590.225 76.6ZM592.033 71.6412C592.033 69.2864 591.187 67.248 589.52 65.581L588.116 66.9852C589.411 68.2804 590.047 69.8141 590.047 71.6412H592.033ZM589.52 65.581C587.938 63.9988 585.853 62.6104 583.297 61.3999L582.447 63.1945C584.857 64.3363 586.736 65.6052 588.116 66.9852L589.52 65.581ZM583.303 61.4028C580.841 60.2158 578.142 59.0309 575.206 57.8478L574.464 59.6896C577.365 60.8588 580.024 62.0262 582.441 63.1915L583.303 61.4028ZM575.206 57.8477C572.087 56.5915 568.901 55.2046 565.649 53.687L564.81 55.4864C568.092 57.0181 571.31 58.4193 574.464 59.6896L575.206 57.8477ZM565.659 53.6916C562.46 52.1559 559.52 50.302 556.837 48.1302L555.587 49.6736C558.393 51.9451 561.465 53.8811 564.8 55.4818L565.659 53.6916ZM556.837 48.1302C554.198 45.9938 552.061 43.397 550.423 40.3315L548.671 41.2672C550.432 44.5618 552.738 47.3667 555.587 49.6736L556.837 48.1302ZM550.425 40.3365C548.819 37.2887 547.992 33.536 547.992 29.0377H546.006C546.006 33.7745 546.877 37.8629 548.669 41.2623L550.425 40.3365ZM547.992 29.0377C547.992 23.1115 549.47 18.114 552.383 13.9939L550.762 12.8475C547.577 17.3527 546.006 22.7665 546.006 29.0377H547.992ZM552.382 13.9955C555.36 9.80097 559.413 6.60138 564.573 4.40198L563.795 2.57526C558.326 4.9063 553.971 8.32812 550.763 12.8459L552.382 13.9955ZM564.577 4.40044C569.793 2.15288 575.711 1.01831 582.349 1.01831V-0.967415C575.483 -0.967415 569.291 0.206802 563.791 2.5768L564.577 4.40044ZM582.349 1.01831C587.184 1.01831 592.312 1.66013 597.736 2.9516L598.196 1.01987C592.643 -0.302372 587.359 -0.967415 582.349 -0.967415V1.01831ZM597.736 2.9516C603.144 4.23924 608.628 6.25915 614.187 9.01738L615.07 7.23854C609.391 4.42085 603.766 2.34594 598.196 1.01987L597.736 2.9516ZM613.735 7.69522L603.672 28.4742L605.459 29.3397L615.522 8.56071L613.735 7.69522ZM605.084 28.0598C601.87 26.0963 598.351 24.5381 594.529 23.3826L593.954 25.2834C597.625 26.3931 600.988 27.8843 604.048 29.7542L605.084 28.0598ZM594.542 23.3867C590.766 22.1872 587.265 21.5759 584.048 21.5759V23.5616C587.017 23.5616 590.312 24.1264 593.941 25.2793L594.542 23.3867ZM584.048 21.5759C581.828 21.5759 579.84 21.87 578.1 22.4815L578.758 24.3549C580.241 23.8337 581.999 23.5616 584.048 23.5616V21.5759ZM578.091 22.4843C576.385 23.1006 575 24.0233 573.994 25.281L575.545 26.5215C576.281 25.6011 577.336 24.8684 578.766 24.352L578.091 22.4843ZM574.007 25.2656C572.978 26.5001 572.47 27.9701 572.47 29.6258H574.456C574.456 28.4063 574.818 27.3933 575.532 26.5368L574.007 25.2656ZM572.47 29.6258C572.47 31.8315 573.334 33.7763 574.982 35.4246L576.386 34.0204C575.072 32.7065 574.456 31.2534 574.456 29.6258H572.47ZM574.993 35.435C576.566 36.962 578.618 38.3449 581.121 39.5965L582.009 37.8204C579.633 36.6324 577.765 35.3581 576.376 34.01L574.993 35.435ZM581.121 39.5965C583.577 40.8245 586.25 42.073 589.138 43.3419L589.936 41.524C587.074 40.2663 584.432 39.0318 582.009 37.8204L581.121 39.5965ZM589.144 43.3449C592.26 44.6866 595.444 46.1806 598.694 47.8273L599.591 46.0559C596.307 44.3919 593.086 42.8802 589.93 41.521L589.144 43.3449ZM598.698 47.8297C601.945 49.4528 604.909 51.3726 607.593 53.5882L608.857 52.0567C606.053 49.7419 602.961 47.7411 599.586 46.0536L598.698 47.8297ZM607.599 53.593C610.284 55.7747 612.443 58.3942 614.08 61.4582L615.831 60.5225C614.07 57.2264 611.742 54.4007 608.851 52.0519L607.599 53.593ZM614.082 61.4632C615.686 64.4243 616.511 68.022 616.511 72.2946H618.497C618.497 67.7678 617.622 63.8292 615.828 60.5174L614.082 61.4632ZM616.511 72.2946C616.511 77.9818 614.956 82.96 611.862 87.2669L613.475 88.4255C616.828 83.7587 618.497 78.3692 618.497 72.2946H616.511ZM611.861 87.2684C608.801 91.5445 604.489 94.9021 598.879 97.3242L599.667 99.1472C605.558 96.6033 610.176 93.0346 613.476 88.4241L611.861 87.2684ZM598.877 97.3253C593.319 99.7435 586.816 100.967 579.344 100.967V102.953C587.031 102.953 593.813 101.694 599.669 99.1462L598.877 97.3253ZM579.344 100.967C572.395 100.967 565.709 99.8526 559.282 97.6244L558.631 99.5005C565.272 101.803 572.178 102.953 579.344 102.953V100.967ZM559.282 97.6244C552.851 95.3949 546.935 92.1801 541.531 87.9773L540.312 89.5448C545.886 93.8801 551.994 97.1996 558.631 99.5005L559.282 97.6244Z" fill="black" fill-opacity="0.15" mask="url(#path-1-outside-1_125_1045)"/>
</svg>
