<svg width="622" height="106" viewBox="0 0 622 106" fill="none" xmlns="http://www.w3.org/2000/svg">
<mask id="path-1-outside-1_1715_2232" maskUnits="userSpaceOnUse" x="0" y="0" width="622" height="106" fill="black">
<rect fill="white" width="622" height="106"/>
<path d="M2.79796 102V3.98573H40.1087C51.3913 3.98573 60.1036 6.27273 66.2459 10.8467C72.3881 15.4207 75.4592 21.8897 75.4592 30.2536C75.4592 34.9147 74.4137 39.0748 72.3227 42.734C70.2318 46.3497 67.4002 49.1812 63.8282 51.2286C69.1427 52.9711 73.2593 55.8026 76.178 59.7232C79.0966 63.6438 80.5559 68.4573 80.5559 74.1639C80.5559 79.827 79.1837 84.7495 76.4393 88.9314C73.6949 93.0698 69.7962 96.2934 64.743 98.6022C59.6898 100.867 53.7218 102 46.839 102H2.79796ZM28.6737 43.5182H38.3445C42.0472 43.5182 44.9005 42.7776 46.9044 41.2965C48.9518 39.7718 49.9755 37.6155 49.9755 34.8276C49.9755 32.2574 48.9518 30.2318 46.9044 28.7507C44.857 27.2696 42.0037 26.529 38.3445 26.529H28.6737V43.5182ZM28.6737 79.4567H40.1087C43.0709 79.4567 45.5975 79.13 47.6885 78.4766C49.7795 77.7796 51.3695 76.7994 52.4585 75.5361C53.5476 74.2293 54.0921 72.6611 54.0921 70.8315C54.0921 69.0019 53.6129 67.4772 52.6545 66.2575C51.6962 64.9942 50.2804 64.0576 48.4073 63.4477C46.5777 62.7943 44.3342 62.4676 41.6769 62.4676H28.6737V79.4567ZM90.3574 102V3.98573H155.7V26.529H116.233V41.6886H153.087V64.2318H116.233V79.4567H156.354V102H90.3574ZM260.379 102H229.93L194.645 43.8449V102H168.769V3.98573H199.219L234.504 62.3369V3.98573H260.379V102ZM273.448 102V3.98573H338.791V26.529H299.324V41.6886H336.177V64.2318H299.324V79.4567H339.444V102H273.448ZM351.859 102V3.98573H414.589V26.529H377.735V41.6886H411.975V64.2318H377.735V102H351.859ZM427.004 102V3.98573H452.879V102H427.004ZM513.126 102H487.25V26.529H460.067V3.98573H540.308V26.529H513.126V102ZM542.922 90.761L555.076 71.0275C558.256 73.5105 561.218 75.5361 563.962 77.1044C566.75 78.6726 569.451 79.827 572.065 80.5675C574.722 81.2645 577.423 81.613 580.167 81.613C582.868 81.613 585.177 81.3081 587.094 80.6982C589.01 80.0448 590.47 79.13 591.472 77.9538C592.517 76.7341 593.04 75.2966 593.04 73.6412C593.04 71.5502 592.299 69.7642 590.818 68.2831C589.337 66.802 587.355 65.4734 584.872 64.2972C582.433 63.121 579.753 61.9448 576.835 60.7687C573.698 59.5054 570.497 58.1114 567.229 56.5867C563.962 55.0185 560.957 53.1236 558.212 50.9019C555.468 48.6802 553.246 45.9794 551.547 42.7994C549.848 39.5758 548.999 35.6552 548.999 31.0377C548.999 24.939 550.523 19.7334 553.573 15.4207C556.666 11.0645 560.869 7.75384 566.184 5.48862C571.542 3.17984 577.597 2.02545 584.349 2.02545C589.272 2.02545 594.477 2.67888 599.966 3.98573C605.455 5.29259 611.009 7.34 616.629 10.128L606.566 30.907C603.429 28.9903 599.988 27.4656 596.242 26.333C592.539 25.1568 589.141 24.5687 586.048 24.5687C583.914 24.5687 582.04 24.8519 580.429 25.4182C578.86 25.9845 577.641 26.8122 576.769 27.9012C575.898 28.9467 575.463 30.1882 575.463 31.6258C575.463 33.5425 576.203 35.2414 577.684 36.7225C579.165 38.16 581.126 39.4887 583.565 40.7084C586.005 41.9281 588.662 43.1697 591.537 44.433C594.673 45.7834 597.875 47.2863 601.142 48.9416C604.453 50.597 607.481 52.5572 610.225 54.8225C613.013 57.0877 615.256 59.8103 616.955 62.9903C618.654 66.1268 619.504 69.8949 619.504 74.2946C619.504 80.1755 617.892 85.3594 614.668 89.8462C611.488 94.2895 607.023 97.7527 601.273 100.236C595.566 102.719 588.923 103.96 581.343 103.96C574.286 103.96 567.491 102.828 560.957 100.562C554.422 98.2972 548.411 95.0301 542.922 90.761Z"/>
</mask>
<path d="M2.79796 102H0.797956V104H2.79796V102ZM2.79796 3.98573V1.98573H0.797956V3.98573H2.79796ZM72.3227 42.734L74.0541 43.7353L74.0592 43.7263L72.3227 42.734ZM63.8282 51.2286L62.8336 49.4934L58.9338 51.7287L63.2051 53.1291L63.8282 51.2286ZM76.4393 88.9314L78.1062 90.0368L78.1114 90.0287L76.4393 88.9314ZM64.743 98.6022L65.5611 100.427L65.5676 100.424L65.5741 100.421L64.743 98.6022ZM28.6737 43.5182H26.6737V45.5182H28.6737V43.5182ZM46.9044 41.2965L48.0932 42.9049L48.0989 42.9006L46.9044 41.2965ZM28.6737 26.529V24.529H26.6737V26.529H28.6737ZM28.6737 79.4567H26.6737V81.4567H28.6737V79.4567ZM47.6885 78.4766L48.285 80.3855L48.303 80.3799L48.3209 80.3739L47.6885 78.4766ZM52.4585 75.5361L53.9733 76.842L53.9843 76.8294L53.995 76.8165L52.4585 75.5361ZM52.6545 66.2575L51.0612 67.4662L51.0714 67.4798L51.0819 67.4931L52.6545 66.2575ZM48.4073 63.4477L47.7346 65.3312L47.7612 65.3407L47.7881 65.3495L48.4073 63.4477ZM28.6737 62.4676V60.4676H26.6737V62.4676H28.6737ZM4.79796 102V3.98573H0.797956V102H4.79796ZM2.79796 5.98573H40.1087V1.98573H2.79796V5.98573ZM40.1087 5.98573C51.1557 5.98573 59.3833 8.22994 65.0513 12.4508L67.4404 9.24265C60.824 4.31553 51.6268 1.98573 40.1087 1.98573V5.98573ZM65.0513 12.4508C70.635 16.6089 73.4592 22.4542 73.4592 30.2536H77.4592C77.4592 21.3252 74.1412 14.2326 67.4404 9.24265L65.0513 12.4508ZM73.4592 30.2536C73.4592 34.6044 72.4867 38.416 70.5863 41.7418L74.0592 43.7263C76.3407 39.7337 77.4592 35.2249 77.4592 30.2536H73.4592ZM70.5914 41.7328C68.6743 45.0477 66.0951 47.6241 62.8336 49.4934L64.8227 52.9638C68.7054 50.7383 71.7892 47.6516 74.0541 43.7353L70.5914 41.7328ZM63.2051 53.1291C68.1862 54.7622 71.9359 57.3741 74.5737 60.9175L77.7822 58.5289C74.5828 54.2311 70.0993 51.18 64.4513 49.3282L63.2051 53.1291ZM74.5737 60.9175C77.1941 64.4374 78.5559 68.8129 78.5559 74.1639H82.5559C82.5559 68.1017 80.9991 62.8501 77.7822 58.5289L74.5737 60.9175ZM78.5559 74.1639C78.5559 79.4902 77.2703 84.0199 74.7672 87.8341L78.1114 90.0287C81.0972 85.4791 82.5559 80.1638 82.5559 74.1639H78.5559ZM74.7725 87.8261C72.2584 91.6172 68.6668 94.6105 63.9118 96.7831L65.5741 100.421C70.9255 97.9763 75.1314 94.5224 78.1061 90.0368L74.7725 87.8261ZM63.9249 96.7772C59.1835 98.9026 53.5064 100 46.839 100V104C53.9372 104 60.1961 102.832 65.5611 100.427L63.9249 96.7772ZM46.839 100H2.79796V104H46.839V100ZM28.6737 45.5182H38.3445V41.5182H28.6737V45.5182ZM38.3445 45.5182C42.2771 45.5182 45.6142 44.7371 48.0932 42.9049L45.7156 39.6881C44.1868 40.8181 41.8173 41.5182 38.3445 41.5182V45.5182ZM48.0989 42.9006C50.7049 40.96 51.9755 38.18 51.9755 34.8276H47.9755C47.9755 37.051 47.1987 38.5837 45.7098 39.6924L48.0989 42.9006ZM51.9755 34.8276C51.9755 31.6288 50.6544 28.995 48.0766 27.1302L45.7321 30.3711C47.2492 31.4686 47.9755 32.8861 47.9755 34.8276H51.9755ZM48.0766 27.1302C45.5661 25.3141 42.2436 24.529 38.3445 24.529V28.529C41.7637 28.529 44.1479 29.225 45.7321 30.3711L48.0766 27.1302ZM38.3445 24.529H28.6737V28.529H38.3445V24.529ZM26.6737 26.529V43.5182H30.6737V26.529H26.6737ZM28.6737 81.4567H40.1087V77.4567H28.6737V81.4567ZM40.1087 81.4567C43.207 81.4567 45.9466 81.1163 48.285 80.3855L47.0919 76.5676C45.2485 77.1437 42.9349 77.4567 40.1087 77.4567V81.4567ZM48.3209 80.3739C50.647 79.5986 52.5848 78.4527 53.9733 76.842L50.9437 74.2303C50.1542 75.1461 48.9119 75.9606 47.056 76.5792L48.3209 80.3739ZM53.995 76.8165C55.407 75.1221 56.0921 73.0909 56.0921 70.8315H52.0921C52.0921 72.2312 51.6881 73.3365 50.9221 74.2558L53.995 76.8165ZM56.0921 70.8315C56.0921 68.6374 55.51 66.6545 54.2272 65.0218L51.0819 67.4931C51.7158 68.2999 52.0921 69.3664 52.0921 70.8315H56.0921ZM54.2479 65.0487C52.989 63.3892 51.1926 62.2513 49.0264 61.546L47.7881 65.3495C49.3682 65.8639 50.4033 66.5991 51.0612 67.4662L54.2479 65.0487ZM49.0799 61.5642C46.9712 60.8111 44.485 60.4676 41.6769 60.4676V64.4676C44.1834 64.4676 46.1841 64.7775 47.7346 65.3312L49.0799 61.5642ZM41.6769 60.4676H28.6737V64.4676H41.6769V60.4676ZM26.6737 62.4676V79.4567H30.6737V62.4676H26.6737ZM90.3574 102H88.3574V104H90.3574V102ZM90.3574 3.98573V1.98573H88.3574V3.98573H90.3574ZM155.7 3.98573H157.7V1.98573H155.7V3.98573ZM155.7 26.529V28.529H157.7V26.529H155.7ZM116.233 26.529V24.529H114.233V26.529H116.233ZM116.233 41.6886H114.233V43.6886H116.233V41.6886ZM153.087 41.6886H155.087V39.6886H153.087V41.6886ZM153.087 64.2318V66.2318H155.087V64.2318H153.087ZM116.233 64.2318V62.2318H114.233V64.2318H116.233ZM116.233 79.4567H114.233V81.4567H116.233V79.4567ZM156.354 79.4567H158.354V77.4567H156.354V79.4567ZM156.354 102V104H158.354V102H156.354ZM92.3574 102V3.98573H88.3574V102H92.3574ZM90.3574 5.98573H155.7V1.98573H90.3574V5.98573ZM153.7 3.98573V26.529H157.7V3.98573H153.7ZM155.7 24.529H116.233V28.529H155.7V24.529ZM114.233 26.529V41.6886H118.233V26.529H114.233ZM116.233 43.6886H153.087V39.6886H116.233V43.6886ZM151.087 41.6886V64.2318H155.087V41.6886H151.087ZM153.087 62.2318H116.233V66.2318H153.087V62.2318ZM114.233 64.2318V79.4567H118.233V64.2318H114.233ZM116.233 81.4567H156.354V77.4567H116.233V81.4567ZM154.354 79.4567V102H158.354V79.4567H154.354ZM156.354 100H90.3574V104H156.354V100ZM260.379 102V104H262.379V102H260.379ZM229.93 102L228.22 103.037L228.804 104H229.93V102ZM194.645 43.8449L196.354 42.8074L192.645 36.693V43.8449H194.645ZM194.645 102V104H196.645V102H194.645ZM168.769 102H166.769V104H168.769V102ZM168.769 3.98573V1.98573H166.769V3.98573H168.769ZM199.219 3.98573L200.93 2.95083L200.346 1.98573H199.219V3.98573ZM234.504 62.3369L232.792 63.3718L236.504 69.5094V62.3369H234.504ZM234.504 3.98573V1.98573H232.504V3.98573H234.504ZM260.379 3.98573H262.379V1.98573H260.379V3.98573ZM260.379 100H229.93V104H260.379V100ZM231.64 100.963L196.354 42.8074L192.935 44.8823L228.22 103.037L231.64 100.963ZM192.645 43.8449V102H196.645V43.8449H192.645ZM194.645 100H168.769V104H194.645V100ZM170.769 102V3.98573H166.769V102H170.769ZM168.769 5.98573H199.219V1.98573H168.769V5.98573ZM197.507 5.02064L232.792 63.3718L236.215 61.302L200.93 2.95083L197.507 5.02064ZM236.504 62.3369V3.98573H232.504V62.3369H236.504ZM234.504 5.98573H260.379V1.98573H234.504V5.98573ZM258.379 3.98573V102H262.379V3.98573H258.379ZM273.448 102H271.448V104H273.448V102ZM273.448 3.98573V1.98573H271.448V3.98573H273.448ZM338.791 3.98573H340.791V1.98573H338.791V3.98573ZM338.791 26.529V28.529H340.791V26.529H338.791ZM299.324 26.529V24.529H297.324V26.529H299.324ZM299.324 41.6886H297.324V43.6886H299.324V41.6886ZM336.177 41.6886H338.177V39.6886H336.177V41.6886ZM336.177 64.2318V66.2318H338.177V64.2318H336.177ZM299.324 64.2318V62.2318H297.324V64.2318H299.324ZM299.324 79.4567H297.324V81.4567H299.324V79.4567ZM339.444 79.4567H341.444V77.4567H339.444V79.4567ZM339.444 102V104H341.444V102H339.444ZM275.448 102V3.98573H271.448V102H275.448ZM273.448 5.98573H338.791V1.98573H273.448V5.98573ZM336.791 3.98573V26.529H340.791V3.98573H336.791ZM338.791 24.529H299.324V28.529H338.791V24.529ZM297.324 26.529V41.6886H301.324V26.529H297.324ZM299.324 43.6886H336.177V39.6886H299.324V43.6886ZM334.177 41.6886V64.2318H338.177V41.6886H334.177ZM336.177 62.2318H299.324V66.2318H336.177V62.2318ZM297.324 64.2318V79.4567H301.324V64.2318H297.324ZM299.324 81.4567H339.444V77.4567H299.324V81.4567ZM337.444 79.4567V102H341.444V79.4567H337.444ZM339.444 100H273.448V104H339.444V100ZM351.859 102H349.859V104H351.859V102ZM351.859 3.98573V1.98573H349.859V3.98573H351.859ZM414.589 3.98573H416.589V1.98573H414.589V3.98573ZM414.589 26.529V28.529H416.589V26.529H414.589ZM377.735 26.529V24.529H375.735V26.529H377.735ZM377.735 41.6886H375.735V43.6886H377.735V41.6886ZM411.975 41.6886H413.975V39.6886H411.975V41.6886ZM411.975 64.2318V66.2318H413.975V64.2318H411.975ZM377.735 64.2318V62.2318H375.735V64.2318H377.735ZM377.735 102V104H379.735V102H377.735ZM353.859 102V3.98573H349.859V102H353.859ZM351.859 5.98573H414.589V1.98573H351.859V5.98573ZM412.589 3.98573V26.529H416.589V3.98573H412.589ZM414.589 24.529H377.735V28.529H414.589V24.529ZM375.735 26.529V41.6886H379.735V26.529H375.735ZM377.735 43.6886H411.975V39.6886H377.735V43.6886ZM409.975 41.6886V64.2318H413.975V41.6886H409.975ZM411.975 62.2318H377.735V66.2318H411.975V62.2318ZM375.735 64.2318V102H379.735V64.2318H375.735ZM377.735 100H351.859V104H377.735V100ZM427.004 102H425.004V104H427.004V102ZM427.004 3.98573V1.98573H425.004V3.98573H427.004ZM452.879 3.98573H454.879V1.98573H452.879V3.98573ZM452.879 102V104H454.879V102H452.879ZM429.004 102V3.98573H425.004V102H429.004ZM427.004 5.98573H452.879V1.98573H427.004V5.98573ZM450.879 3.98573V102H454.879V3.98573H450.879ZM452.879 100H427.004V104H452.879V100ZM513.126 102V104H515.126V102H513.126ZM487.25 102H485.25V104H487.25V102ZM487.25 26.529H489.25V24.529H487.25V26.529ZM460.067 26.529H458.067V28.529H460.067V26.529ZM460.067 3.98573V1.98573H458.067V3.98573H460.067ZM540.308 3.98573H542.308V1.98573H540.308V3.98573ZM540.308 26.529V28.529H542.308V26.529H540.308ZM513.126 26.529V24.529H511.126V26.529H513.126ZM513.126 100H487.25V104H513.126V100ZM489.25 102V26.529H485.25V102H489.25ZM487.25 24.529H460.067V28.529H487.25V24.529ZM462.067 26.529V3.98573H458.067V26.529H462.067ZM460.067 5.98573H540.308V1.98573H460.067V5.98573ZM538.308 3.98573V26.529H542.308V3.98573H538.308ZM540.308 24.529H513.126V28.529H540.308V24.529ZM511.126 26.529V102H515.126V26.529H511.126ZM542.922 90.761L541.219 89.7122L540.279 91.2389L541.694 92.3397L542.922 90.761ZM555.076 71.0275L556.307 69.4511L554.545 68.0756L553.373 69.9787L555.076 71.0275ZM563.962 77.1044L562.97 78.8409L562.982 78.8475L563.962 77.1044ZM572.065 80.5675L571.52 82.4918L571.538 82.4971L571.557 82.5021L572.065 80.5675ZM587.094 80.6982L587.7 82.6041L587.72 82.5979L587.739 82.5913L587.094 80.6982ZM591.472 77.9538L589.953 76.6522L589.949 76.6569L591.472 77.9538ZM590.818 68.2831L592.232 66.8689L590.818 68.2831ZM584.872 64.2972L584.003 66.0988L584.016 66.1047L584.872 64.2972ZM576.835 60.7687L577.582 58.9136L577.582 58.9135L576.835 60.7687ZM567.229 56.5867L566.364 58.3898L566.374 58.3945L566.384 58.3991L567.229 56.5867ZM551.547 42.7994L549.778 43.7319L549.783 43.7418L551.547 42.7994ZM553.573 15.4207L551.942 14.2629L551.94 14.2661L553.573 15.4207ZM566.184 5.48862L566.968 7.32848L566.975 7.32536L566.184 5.48862ZM616.629 10.128L618.429 10.9997L619.292 9.21676L617.517 8.33634L616.629 10.128ZM606.566 30.907L605.523 32.6135L607.405 33.7635L608.366 31.7787L606.566 30.907ZM596.242 26.333L595.636 28.2391L595.649 28.2434L595.663 28.2474L596.242 26.333ZM580.429 25.4182L579.766 23.5313L579.758 23.5341L579.749 23.5371L580.429 25.4182ZM576.769 27.9012L578.306 29.1816L578.319 29.1662L578.331 29.1506L576.769 27.9012ZM577.684 36.7225L576.27 38.1367L576.281 38.1473L576.291 38.1577L577.684 36.7225ZM591.537 44.433L590.732 46.264L590.739 46.267L590.746 46.2699L591.537 44.433ZM601.142 48.9416L600.238 50.7257L600.248 50.7305L601.142 48.9416ZM610.225 54.8225L608.952 56.3649L608.958 56.3698L608.964 56.3747L610.225 54.8225ZM616.955 62.9903L615.191 63.9328L615.197 63.9429L616.955 62.9903ZM614.668 89.8462L613.044 88.6793L613.042 88.6822L614.668 89.8462ZM601.273 100.236L600.48 98.3996L600.475 98.4018L601.273 100.236ZM544.625 91.8099L556.779 72.0763L553.373 69.9787L541.219 89.7122L544.625 91.8099ZM553.845 72.6039C557.081 75.1307 560.123 77.2142 562.97 78.8409L564.955 75.3679C562.313 73.8581 559.431 71.8904 556.307 69.4511L553.845 72.6039ZM562.982 78.8475C565.884 80.4798 568.73 81.7015 571.52 82.4918L572.61 78.6433C570.172 77.9525 567.617 76.8654 564.943 75.3612L562.982 78.8475ZM571.557 82.5021C574.38 83.2425 577.251 83.613 580.167 83.613V79.613C577.594 79.613 575.064 79.2866 572.572 78.633L571.557 82.5021ZM580.167 83.613C583.008 83.613 585.533 83.2936 587.7 82.6041L586.487 78.7924C584.821 79.3226 582.728 79.613 580.167 79.613V83.613ZM587.739 82.5913C589.893 81.8569 591.697 80.7735 592.994 79.2508L589.949 76.6569C589.242 77.4865 588.128 78.2327 586.448 78.8052L587.739 82.5913ZM592.99 79.2554C594.357 77.6613 595.04 75.7581 595.04 73.6412H591.04C591.04 74.835 590.678 75.8069 589.953 76.6523L592.99 79.2554ZM595.04 73.6412C595.04 71.0188 594.088 68.7243 592.232 66.8689L589.404 69.6973C590.511 70.8041 591.04 72.0817 591.04 73.6412H595.04ZM592.232 66.8689C590.548 65.184 588.357 63.7351 585.728 62.4897L584.016 66.1047C586.353 67.2116 588.127 68.42 589.404 69.6973L592.232 66.8689ZM585.741 62.4956C583.256 61.2975 580.536 60.1037 577.582 58.9136L576.087 62.6237C578.971 63.7859 581.609 64.9445 584.003 66.0987L585.741 62.4956ZM577.582 58.9135C574.481 57.6644 571.312 56.2849 568.075 54.7744L566.384 58.3991C569.681 59.9379 572.916 61.3463 576.088 62.6238L577.582 58.9135ZM568.095 54.7837C564.964 53.281 562.091 51.4687 559.471 49.3474L556.954 52.4564C559.822 54.7784 562.96 56.756 566.364 58.3898L568.095 54.7837ZM559.471 49.3474C556.938 47.2975 554.887 44.8063 553.311 41.857L549.783 43.7418C551.605 47.1525 553.997 50.063 556.954 52.4564L559.471 49.3474ZM553.316 41.8669C551.804 38.9975 550.999 35.4151 550.999 31.0377H546.999C546.999 35.8954 547.892 40.1542 549.778 43.7319L553.316 41.8669ZM550.999 31.0377C550.999 25.2865 552.431 20.5001 555.206 16.5754L551.94 14.2661C548.616 18.9666 546.999 24.5915 546.999 31.0377H550.999ZM555.204 16.5786C558.065 12.548 561.965 9.4611 566.968 7.32847L565.4 3.64877C559.774 6.04657 555.266 9.58111 551.942 14.2629L555.204 16.5786ZM566.975 7.32536C572.047 5.1399 577.827 4.02545 584.349 4.02545V0.0254494C577.367 0.0254494 571.037 1.21978 565.393 3.65188L566.975 7.32536ZM584.349 4.02545C589.095 4.02545 594.144 4.65548 599.503 5.93135L600.429 2.04012C594.81 0.702275 589.449 0.0254494 584.349 0.0254494V4.02545ZM599.503 5.93135C604.829 7.1995 610.241 9.19151 615.74 11.9196L617.517 8.33634C611.777 5.48849 606.081 3.38569 600.429 2.04012L599.503 5.93135ZM614.829 9.25625L604.766 30.0353L608.366 31.7787L618.429 10.9997L614.829 9.25625ZM607.609 29.2004C604.318 27.1894 600.719 25.5973 596.82 24.4186L595.663 28.2474C599.257 29.3339 602.541 30.7911 605.523 32.6135L607.609 29.2004ZM596.847 24.4268C592.996 23.2037 589.391 22.5687 586.048 22.5687V26.5687C588.891 26.5687 592.081 27.11 595.636 28.2391L596.847 24.4268ZM586.048 22.5687C583.742 22.5687 581.636 22.8741 579.766 23.5313L581.092 27.3051C582.445 26.8297 584.085 26.5687 586.048 26.5687V22.5687ZM579.749 23.5371C577.903 24.2039 576.351 25.223 575.208 26.6518L578.331 29.1506C578.931 28.4013 579.818 27.7651 581.108 27.2993L579.749 23.5371ZM575.233 26.6208C574.045 28.0471 573.463 29.7488 573.463 31.6258H577.463C577.463 30.6276 577.752 29.8463 578.306 29.1816L575.233 26.6208ZM573.463 31.6258C573.463 34.1247 574.452 36.3188 576.27 38.1367L579.099 35.3083C577.954 34.1639 577.463 32.9602 577.463 31.6258H573.463ZM576.291 38.1577C577.958 39.7754 580.103 41.2135 582.671 42.4973L584.46 38.9196C582.148 37.7639 580.373 36.5447 579.077 35.2873L576.291 38.1577ZM582.671 42.4973C585.144 43.7338 587.831 44.9893 590.732 46.264L592.342 42.6019C589.492 41.35 586.865 40.1225 584.46 38.9196L582.671 42.4973ZM590.746 46.2699C593.842 47.6028 597.006 49.0878 600.238 50.7257L602.046 47.1575C598.745 45.4847 595.505 43.964 592.328 42.596L590.746 46.2699ZM600.248 50.7305C603.429 52.321 606.329 54.1997 608.952 56.3649L611.498 53.28C608.633 50.9148 605.477 48.873 602.037 47.1528L600.248 50.7305ZM608.964 56.3747C611.545 58.4715 613.617 60.9865 615.191 63.9328L618.719 62.0479C616.896 58.6341 614.481 55.7039 611.486 53.2702L608.964 56.3747ZM615.197 63.9429C616.704 66.7261 617.504 70.1509 617.504 74.2946H621.504C621.504 69.6389 620.604 65.5274 618.714 62.0378L615.197 63.9429ZM617.504 74.2946C617.504 79.7854 616.007 84.555 613.044 88.6793L616.293 91.0132C619.777 86.1637 621.504 80.5656 621.504 74.2946H617.504ZM613.042 88.6822C610.103 92.7888 605.946 96.0392 600.48 98.3996L602.066 102.072C608.1 99.4662 612.874 95.7903 616.295 91.0102L613.042 88.6822ZM600.475 98.4018C595.069 100.754 588.707 101.96 581.343 101.96V105.96C589.139 105.96 596.064 104.683 602.071 102.07L600.475 98.4018ZM581.343 101.96C574.505 101.96 567.931 100.863 561.612 98.6728L560.301 102.452C567.051 104.792 574.068 105.96 581.343 105.96V101.96ZM561.612 98.6728C555.285 96.4796 549.467 93.3179 544.15 89.1823L541.694 92.3397C547.354 96.7423 553.559 100.115 560.301 102.452L561.612 98.6728Z" fill="#252735" fill-opacity="0.4" mask="url(#path-1-outside-1_1715_2232)"/>
</svg>
