<svg width="41" height="40" viewBox="0 0 41 40" fill="none" xmlns="http://www.w3.org/2000/svg">
<rect x="0.5" width="40" height="40" rx="20" fill="url(#paint0_linear_1474_3776)"/>
<path d="M25.2461 21.9453C25.2461 24.4453 23.4492 25.9688 20.5586 25.9688C18.7227 25.9688 16.9258 25.3047 15.7539 24.2109L16.418 22.9219C17.707 24.0156 19.1133 24.5625 20.5195 24.5625C22.5508 24.5625 23.6055 23.6641 23.6055 21.9062C23.6055 20.1484 22.5117 19.2891 20.3242 19.2891H18.6836V17.8828H20.0117C22.1211 17.8828 23.293 16.9453 23.293 15.1875C23.293 13.6641 22.3164 12.8047 20.6367 12.8047C19.2695 12.8047 17.9414 13.3516 16.6133 14.4453L15.9883 13.1562C17.1211 12.0625 18.8789 11.3984 20.7148 11.3984C23.2539 11.3984 24.9336 12.8047 24.9336 15.0312C24.9336 16.6719 24.0742 17.9609 22.668 18.5078C24.3477 18.9766 25.2461 20.1875 25.2461 21.9453Z" fill="white"/>
<defs>
<linearGradient id="paint0_linear_1474_3776" x1="0.5" y1="0.600525" x2="40.5" y2="39.3995" gradientUnits="userSpaceOnUse">
<stop stop-color="#6B21A8"/>
<stop offset="1" stop-color="#CF3A7A"/>
</linearGradient>
</defs>
</svg>
