<svg width="369" height="106" viewBox="0 0 369 106" fill="none" xmlns="http://www.w3.org/2000/svg">
<mask id="path-1-outside-1_1715_2233" maskUnits="userSpaceOnUse" x="0" y="0" width="369" height="106" fill="black">
<rect fill="white" width="369" height="106"/>
<path d="M2.77897 102V3.98573H40.0897C51.3723 3.98573 60.0846 6.27273 66.2269 10.8467C72.3691 15.4207 75.4402 21.8897 75.4402 30.2536C75.4402 34.9147 74.3947 39.0748 72.3038 42.734C70.2128 46.3497 67.3813 49.1812 63.8092 51.2286C69.1237 52.9711 73.2403 55.8026 76.159 59.7232C79.0776 63.6438 80.537 68.4573 80.537 74.1639C80.537 79.827 79.1648 84.7495 76.4204 88.9314C73.676 93.0698 69.7772 96.2934 64.724 98.6022C59.6708 100.867 53.7028 102 46.8201 102H2.77897ZM28.6547 43.5182H38.3255C42.0282 43.5182 44.8815 42.7776 46.8854 41.2965C48.9328 39.7718 49.9565 37.6155 49.9565 34.8276C49.9565 32.2574 48.9328 30.2318 46.8854 28.7507C44.838 27.2696 41.9847 26.529 38.3255 26.529H28.6547V43.5182ZM28.6547 79.4567H40.0897C43.0519 79.4567 45.5785 79.13 47.6695 78.4766C49.7605 77.7796 51.3505 76.7994 52.4395 75.5361C53.5286 74.2293 54.0731 72.6611 54.0731 70.8315C54.0731 69.0019 53.5939 67.4772 52.6356 66.2575C51.6772 64.9942 50.2614 64.0576 48.3883 63.4477C46.5587 62.7943 44.3152 62.4676 41.658 62.4676H28.6547V79.4567ZM156.988 102H90.3384V3.98573H116.214V79.4567H156.988V102ZM208.348 103.96C200.855 103.96 193.929 102.697 187.569 100.17C181.252 97.6002 175.741 94.0282 171.037 89.4542C166.376 84.8366 162.76 79.4349 160.19 73.2491C157.62 67.0634 156.335 60.3113 156.335 52.9929C156.335 45.6745 157.62 38.9224 160.19 32.7366C162.76 26.5508 166.376 21.1709 171.037 16.5969C175.741 11.9793 181.252 8.40727 187.569 5.88068C193.929 3.31053 200.855 2.02545 208.348 2.02545C215.884 2.02545 222.81 3.31053 229.127 5.88068C235.443 8.40727 240.91 11.9793 245.528 16.5969C250.189 21.1709 253.804 26.5508 256.375 32.7366C258.945 38.9224 260.23 45.6745 260.23 52.9929C260.23 60.3113 258.945 67.0634 256.375 73.2491C253.804 79.4349 250.189 84.8366 245.528 89.4542C240.91 94.0282 235.443 97.6002 229.127 100.17C222.81 102.697 215.884 103.96 208.348 103.96ZM208.348 81.417C211.963 81.417 215.317 80.6982 218.41 79.2607C221.503 77.8231 224.182 75.8193 226.448 73.2491C228.756 70.6354 230.542 67.6079 231.806 64.1665C233.113 60.7251 233.766 57.0006 233.766 52.9929C233.766 48.9852 233.113 45.2606 231.806 41.8192C230.542 38.3779 228.756 35.3721 226.448 32.8019C224.182 30.1882 221.503 28.1626 218.41 26.725C215.317 25.2875 211.963 24.5687 208.348 24.5687C204.732 24.5687 201.356 25.2875 198.219 26.725C195.127 28.1626 192.426 30.1882 190.117 32.8019C187.808 35.3721 186 38.3779 184.693 41.8192C183.43 45.2606 182.799 48.9852 182.799 52.9929C182.799 57.0006 183.43 60.7251 184.693 64.1665C186 67.6079 187.808 70.6354 190.117 73.2491C192.426 75.8193 195.127 77.8231 198.219 79.2607C201.356 80.6982 204.732 81.417 208.348 81.417ZM339.229 32.2792C336.877 29.8397 334.002 27.9448 330.604 26.5944C327.206 25.2439 323.547 24.5687 319.626 24.5687C315.837 24.5687 312.395 25.2222 309.302 26.529C306.253 27.7923 303.617 29.6437 301.396 32.0832C299.218 34.5226 297.519 37.4413 296.299 40.8391C295.123 44.2369 294.535 48.0704 294.535 52.3394C294.535 56.6956 295.166 60.6598 296.43 64.2318C297.693 67.8039 299.501 70.875 301.853 73.4452C304.205 75.9718 306.993 77.9321 310.217 79.326C313.484 80.72 317.1 81.417 321.064 81.417C324.026 81.417 326.727 81.0249 329.166 80.2408C331.606 79.4567 333.762 78.3023 335.635 76.7777C337.509 75.253 339.099 73.3798 340.405 71.1582C341.712 68.893 342.714 66.3228 343.411 63.4477H319.953V43.8449H366.151L366.869 53.7116C366.869 61.1607 365.737 67.9782 363.471 74.1639C361.25 80.3062 358.07 85.5989 353.931 90.0423C349.793 94.4856 344.849 97.927 339.099 100.366C333.392 102.762 327.032 103.96 320.018 103.96C312.7 103.96 305.883 102.675 299.566 100.105C293.293 97.4913 287.783 93.8757 283.034 89.2581C278.33 84.597 274.649 79.1518 271.991 72.9224C269.378 66.6931 268.071 59.9628 268.071 52.7315C268.071 45.5873 269.356 38.9442 271.926 32.8019C274.496 26.6597 278.09 21.2798 282.708 16.6622C287.325 12.0447 292.705 8.45083 298.847 5.88068C305.033 3.31053 311.72 2.02545 318.908 2.02545C325.66 2.02545 332.238 3.20162 338.641 5.55396C345.045 7.90631 350.795 11.2606 355.892 15.6168L339.229 32.2792Z"/>
</mask>
<path d="M2.77897 102H0.778974V104H2.77897V102ZM2.77897 3.98573V1.98573H0.778974V3.98573H2.77897ZM72.3038 42.734L74.0351 43.7353L74.0402 43.7263L72.3038 42.734ZM63.8092 51.2286L62.8146 49.4934L58.9149 51.7287L63.1861 53.1291L63.8092 51.2286ZM76.4204 88.9314L78.0872 90.0368L78.0925 90.0287L76.4204 88.9314ZM64.724 98.6022L65.5421 100.427L65.5486 100.424L65.5551 100.421L64.724 98.6022ZM28.6547 43.5182H26.6547V45.5182H28.6547V43.5182ZM46.8854 41.2965L48.0742 42.9049L48.0799 42.9006L46.8854 41.2965ZM28.6547 26.529V24.529H26.6547V26.529H28.6547ZM28.6547 79.4567H26.6547V81.4567H28.6547V79.4567ZM47.6695 78.4766L48.2661 80.3855L48.2841 80.3799L48.302 80.3739L47.6695 78.4766ZM52.4395 75.5361L53.9544 76.842L53.9653 76.8294L53.976 76.8165L52.4395 75.5361ZM52.6356 66.2575L51.0422 67.4662L51.0524 67.4798L51.0629 67.4931L52.6356 66.2575ZM48.3883 63.4477L47.7156 65.3312L47.7422 65.3407L47.7691 65.3495L48.3883 63.4477ZM28.6547 62.4676V60.4676H26.6547V62.4676H28.6547ZM4.77897 102V3.98573H0.778974V102H4.77897ZM2.77897 5.98573H40.0897V1.98573H2.77897V5.98573ZM40.0897 5.98573C51.1367 5.98573 59.3643 8.22994 65.0323 12.4508L67.4214 9.24265C60.805 4.31553 51.6079 1.98573 40.0897 1.98573V5.98573ZM65.0323 12.4508C70.616 16.6089 73.4402 22.4542 73.4402 30.2536H77.4402C77.4402 21.3252 74.1222 14.2326 67.4214 9.24265L65.0323 12.4508ZM73.4402 30.2536C73.4402 34.6044 72.4677 38.416 70.5673 41.7418L74.0402 43.7263C76.3217 39.7337 77.4402 35.2249 77.4402 30.2536H73.4402ZM70.5724 41.7328C68.6554 45.0477 66.0761 47.6241 62.8146 49.4934L64.8037 52.9638C68.6864 50.7383 71.7702 47.6516 74.0351 43.7353L70.5724 41.7328ZM63.1861 53.1291C68.1672 54.7622 71.9169 57.3741 74.5547 60.9175L77.7633 58.5289C74.5638 54.2311 70.0803 51.18 64.4323 49.3282L63.1861 53.1291ZM74.5547 60.9175C77.1751 64.4374 78.537 68.8129 78.537 74.1639H82.537C82.537 68.1017 80.9801 62.8501 77.7633 58.5289L74.5547 60.9175ZM78.537 74.1639C78.537 79.4902 77.2513 84.0199 74.7483 87.8341L78.0925 90.0287C81.0782 85.4791 82.537 80.1638 82.537 74.1639H78.537ZM74.7536 87.8261C72.2395 91.6172 68.6478 94.6105 63.8928 96.7831L65.5551 100.421C70.9065 97.9763 75.1125 94.5224 78.0872 90.0368L74.7536 87.8261ZM63.9059 96.7772C59.1645 98.9026 53.4874 100 46.8201 100V104C53.9183 104 60.1771 102.832 65.5421 100.427L63.9059 96.7772ZM46.8201 100H2.77897V104H46.8201V100ZM28.6547 45.5182H38.3255V41.5182H28.6547V45.5182ZM38.3255 45.5182C42.2581 45.5182 45.5952 44.7371 48.0742 42.9049L45.6966 39.6881C44.1679 40.8181 41.7984 41.5182 38.3255 41.5182V45.5182ZM48.0799 42.9006C50.6859 40.96 51.9565 38.18 51.9565 34.8276H47.9565C47.9565 37.051 47.1797 38.5837 45.6909 39.6924L48.0799 42.9006ZM51.9565 34.8276C51.9565 31.6288 50.6354 28.995 48.0576 27.1302L45.7132 30.3711C47.2302 31.4686 47.9565 32.8861 47.9565 34.8276H51.9565ZM48.0576 27.1302C45.5471 25.3141 42.2247 24.529 38.3255 24.529V28.529C41.7447 28.529 44.1289 29.225 45.7132 30.3711L48.0576 27.1302ZM38.3255 24.529H28.6547V28.529H38.3255V24.529ZM26.6547 26.529V43.5182H30.6547V26.529H26.6547ZM28.6547 81.4567H40.0897V77.4567H28.6547V81.4567ZM40.0897 81.4567C43.188 81.4567 45.9276 81.1163 48.2661 80.3855L47.073 76.5676C45.2295 77.1437 42.9159 77.4567 40.0897 77.4567V81.4567ZM48.302 80.3739C50.6281 79.5986 52.5658 78.4527 53.9544 76.842L50.9247 74.2303C50.1352 75.1461 48.8929 75.9606 47.0371 76.5792L48.302 80.3739ZM53.976 76.8165C55.388 75.1221 56.0731 73.0909 56.0731 70.8315H52.0731C52.0731 72.2312 51.6691 73.3365 50.9031 74.2558L53.976 76.8165ZM56.0731 70.8315C56.0731 68.6374 55.491 66.6545 54.2082 65.0218L51.0629 67.4931C51.6968 68.2999 52.0731 69.3664 52.0731 70.8315H56.0731ZM54.2289 65.0487C52.9701 63.3892 51.1737 62.2513 49.0075 61.546L47.7691 65.3495C49.3492 65.8639 50.3844 66.5991 51.0422 67.4662L54.2289 65.0487ZM49.061 61.5642C46.9522 60.8111 44.466 60.4676 41.658 60.4676V64.4676C44.1644 64.4676 46.1651 64.7775 47.7156 65.3312L49.061 61.5642ZM41.658 60.4676H28.6547V64.4676H41.658V60.4676ZM26.6547 62.4676V79.4567H30.6547V62.4676H26.6547ZM156.988 102V104H158.988V102H156.988ZM90.3384 102H88.3384V104H90.3384V102ZM90.3384 3.98573V1.98573H88.3384V3.98573H90.3384ZM116.214 3.98573H118.214V1.98573H116.214V3.98573ZM116.214 79.4567H114.214V81.4567H116.214V79.4567ZM156.988 79.4567H158.988V77.4567H156.988V79.4567ZM156.988 100H90.3384V104H156.988V100ZM92.3384 102V3.98573H88.3384V102H92.3384ZM90.3384 5.98573H116.214V1.98573H90.3384V5.98573ZM114.214 3.98573V79.4567H118.214V3.98573H114.214ZM116.214 81.4567H156.988V77.4567H116.214V81.4567ZM154.988 79.4567V102H158.988V79.4567H154.988ZM187.569 100.17L186.815 102.023L186.822 102.026L186.83 102.029L187.569 100.17ZM171.037 89.4542L169.629 90.875L169.636 90.8816L169.643 90.8882L171.037 89.4542ZM171.037 16.5969L172.438 18.0244L172.438 18.0243L171.037 16.5969ZM187.569 5.88068L188.311 7.73764L188.318 7.73499L187.569 5.88068ZM229.127 5.88068L228.373 7.73322L228.384 7.73763L229.127 5.88068ZM245.528 16.5969L244.113 18.0111L244.12 18.0178L244.127 18.0244L245.528 16.5969ZM256.375 32.7366L254.528 33.504L256.375 32.7366ZM256.375 73.2491L254.528 72.4818L256.375 73.2491ZM245.528 89.4542L246.935 90.8751L246.935 90.875L245.528 89.4542ZM229.127 100.17L229.869 102.027L229.88 102.023L229.127 100.17ZM218.41 79.2607L219.253 81.0744L218.41 79.2607ZM226.448 73.2491L224.949 71.9251L224.947 71.9267L226.448 73.2491ZM231.806 64.1665L229.936 63.4565L229.932 63.4669L229.928 63.4773L231.806 64.1665ZM231.806 41.8192L229.928 42.5084L229.932 42.5189L229.936 42.5293L231.806 41.8192ZM226.448 32.8019L224.936 34.1118L224.948 34.1252L224.96 34.1385L226.448 32.8019ZM218.41 26.725L219.253 24.9114L218.41 26.725ZM198.219 26.725L197.386 24.9069L197.376 24.9114L198.219 26.725ZM190.117 32.8019L191.605 34.1385L191.61 34.1323L191.616 34.126L190.117 32.8019ZM184.693 41.8192L182.824 41.1092L182.82 41.1196L182.816 41.13L184.693 41.8192ZM184.693 64.1665L182.816 64.8557L182.82 64.8661L182.824 64.8765L184.693 64.1665ZM190.117 73.2491L188.618 74.5732L188.623 74.5795L188.629 74.5857L190.117 73.2491ZM198.219 79.2607L197.376 81.0744L197.386 81.0788L198.219 79.2607ZM208.348 101.96C201.084 101.96 194.411 100.736 188.307 98.3117L186.83 102.029C193.447 104.658 200.626 105.96 208.348 105.96V101.96ZM188.322 98.3179C182.235 95.8409 176.944 92.4077 172.431 88.0202L169.643 90.8882C174.539 95.6486 180.269 99.3596 186.815 102.023L188.322 98.3179ZM172.444 88.0333C167.976 83.6063 164.507 78.428 162.037 72.4818L158.343 74.0165C161.013 80.4419 164.776 86.0669 169.629 90.875L172.444 88.0333ZM162.037 72.4818C159.577 66.5609 158.335 60.0724 158.335 52.9929H154.335C154.335 60.5501 155.663 67.5659 158.343 74.0165L162.037 72.4818ZM158.335 52.9929C158.335 45.9133 159.577 39.4249 162.037 33.504L158.343 31.9692C155.663 38.4199 154.335 45.4356 154.335 52.9929H158.335ZM162.037 33.504C164.507 27.5594 167.973 22.4056 172.438 18.0244L169.636 15.1694C164.778 19.9362 161.013 25.5422 158.343 31.9692L162.037 33.504ZM172.438 18.0243C176.948 13.598 182.232 10.1692 188.311 7.73763L186.826 4.02372C180.272 6.64536 174.535 10.3607 169.636 15.1695L172.438 18.0243ZM188.318 7.73499C194.419 5.2696 201.088 4.02545 208.348 4.02545V0.0254494C200.622 0.0254494 193.438 1.35145 186.819 4.02636L188.318 7.73499ZM208.348 4.02545C215.653 4.02545 222.32 5.2702 228.373 7.73319L229.88 4.02816C223.301 1.35085 216.115 0.0254494 208.348 0.0254494V4.02545ZM228.384 7.73763C234.46 10.1679 239.695 13.5931 244.113 18.0111L246.942 15.1827C242.125 10.3656 236.427 6.64662 229.869 4.02372L228.384 7.73763ZM244.127 18.0244C248.592 22.4056 252.058 27.5594 254.528 33.504L258.221 31.9692C255.551 25.5422 251.786 19.9362 246.928 15.1694L244.127 18.0244ZM254.528 33.504C256.988 39.4249 258.23 45.9133 258.23 52.9929H262.23C262.23 45.4356 260.902 38.4199 258.221 31.9692L254.528 33.504ZM258.23 52.9929C258.23 60.0724 256.988 66.5609 254.528 72.4818L258.221 74.0165C260.902 67.5659 262.23 60.5501 262.23 52.9929H258.23ZM254.528 72.4818C252.057 78.428 248.589 83.6063 244.12 88.0333L246.935 90.875C251.789 86.0669 255.552 80.4419 258.221 74.0165L254.528 72.4818ZM244.12 88.0333C239.699 92.4126 234.457 95.8421 228.373 98.3179L229.88 102.023C236.429 99.3584 242.121 95.6437 246.935 90.8751L244.12 88.0333ZM228.384 98.3134C222.328 100.736 215.657 101.96 208.348 101.96V105.96C216.111 105.96 223.292 104.658 229.869 102.027L228.384 98.3134ZM208.348 83.417C212.237 83.417 215.881 82.642 219.253 81.0744L217.567 77.447C214.754 78.7545 211.69 79.417 208.348 79.417V83.417ZM219.253 81.0744C222.598 79.5197 225.501 77.3482 227.948 74.5716L224.947 71.9267C222.864 74.2904 220.408 76.1266 217.567 77.447L219.253 81.0744ZM227.946 74.5732C230.428 71.7638 232.339 68.5183 233.683 64.8557L229.928 63.4773C228.746 66.6975 227.085 69.5071 224.949 71.9251L227.946 74.5732ZM233.675 64.8765C235.076 61.189 235.766 57.2216 235.766 52.9929H231.766C231.766 56.7795 231.149 60.2612 229.936 63.4565L233.675 64.8765ZM235.766 52.9929C235.766 48.7641 235.076 44.7968 233.675 41.1092L229.936 42.5293C231.149 45.7245 231.766 49.2062 231.766 52.9929H235.766ZM233.683 41.13C232.338 37.4648 230.424 34.236 227.935 31.4654L224.96 34.1385C227.088 36.5082 228.747 39.2909 229.928 42.5084L233.683 41.13ZM227.959 31.4921C225.512 28.6683 222.606 26.4695 219.253 24.9114L217.567 28.5387C220.401 29.8556 222.853 31.7082 224.936 34.1118L227.959 31.4921ZM219.253 24.9114C215.881 23.3438 212.237 22.5687 208.348 22.5687V26.5687C211.69 26.5687 214.754 27.2312 217.567 28.5387L219.253 24.9114ZM208.348 22.5687C204.458 22.5687 200.797 23.3438 197.386 24.9069L199.053 28.5432C201.915 27.2312 205.005 26.5687 208.348 26.5687V22.5687ZM197.376 24.9114C194.028 26.4678 191.105 28.6622 188.618 31.4779L191.616 34.126C193.746 31.7142 196.225 29.8574 199.062 28.5387L197.376 24.9114ZM188.629 31.4654C186.145 34.2308 184.212 37.4525 182.824 41.1092L186.563 42.5293C187.788 39.3032 189.471 36.5134 191.605 34.1385L188.629 31.4654ZM182.816 41.13C181.464 44.8118 180.799 48.7719 180.799 52.9929H184.799C184.799 49.1984 185.396 45.7094 186.571 42.5084L182.816 41.13ZM180.799 52.9929C180.799 57.2138 181.464 61.1739 182.816 64.8557L186.571 63.4773C185.396 60.2763 184.799 56.7873 184.799 52.9929H180.799ZM182.824 64.8765C184.211 68.5306 186.141 71.769 188.618 74.5732L191.616 71.9251C189.475 69.5019 187.789 66.6852 186.563 63.4565L182.824 64.8765ZM188.629 74.5857C191.116 77.3541 194.035 79.5214 197.376 81.0744L199.062 77.447C196.218 76.1248 193.735 74.2845 191.605 71.9126L188.629 74.5857ZM197.386 81.0788C200.797 82.6419 204.458 83.417 208.348 83.417V79.417C205.005 79.417 201.915 78.7545 199.053 77.4426L197.386 81.0788ZM339.229 32.2792L337.79 33.6675L339.203 35.1336L340.643 33.6934L339.229 32.2792ZM309.302 26.529L310.068 28.3768L310.081 28.3713L309.302 26.529ZM301.396 32.0832L299.917 30.7365L299.91 30.7438L299.904 30.7511L301.396 32.0832ZM296.299 40.8391L294.417 40.1634L294.413 40.1741L294.409 40.1849L296.299 40.8391ZM296.43 64.2318L294.544 64.8987L296.43 64.2318ZM301.853 73.4452L300.378 74.7955L300.384 74.8018L300.389 74.808L301.853 73.4452ZM310.217 79.326L309.423 81.1618L309.432 81.1656L310.217 79.326ZM329.166 80.2408L329.778 82.1449L329.166 80.2408ZM340.405 71.1582L342.129 72.1722L342.134 72.1649L342.138 72.1576L340.405 71.1582ZM343.411 63.4477L345.355 63.9189L345.954 61.4477H343.411V63.4477ZM319.953 63.4477H317.953V65.4477H319.953V63.4477ZM319.953 43.8449V41.8449H317.953V43.8449H319.953ZM366.151 43.8449L368.145 43.6996L368.01 41.8449H366.151V43.8449ZM366.869 53.7116H368.869V53.6389L368.864 53.5663L366.869 53.7116ZM363.471 74.1639L361.593 73.4762L361.591 73.4837L363.471 74.1639ZM339.099 100.366L339.873 102.211L339.88 102.208L339.099 100.366ZM299.566 100.105L298.797 101.951L298.805 101.954L298.812 101.958L299.566 100.105ZM283.034 89.2581L281.627 90.6789L281.633 90.6855L281.64 90.692L283.034 89.2581ZM271.991 72.9224L270.147 73.6963L270.152 73.7072L271.991 72.9224ZM271.926 32.8019L270.081 32.0299L271.926 32.8019ZM282.708 16.6622L281.293 15.248L282.708 16.6622ZM298.847 5.88068L298.08 4.03375L298.075 4.03569L298.847 5.88068ZM355.892 15.6168L357.306 17.031L358.835 15.5016L357.191 14.0964L355.892 15.6168ZM340.669 30.8909C338.104 28.2308 334.984 26.1829 331.343 24.7358L329.865 28.453C333.02 29.7067 335.65 31.4486 337.79 33.6675L340.669 30.8909ZM331.343 24.7358C327.693 23.2853 323.781 22.5687 319.626 22.5687V26.5687C323.312 26.5687 326.719 27.2025 329.865 28.453L331.343 24.7358ZM319.626 22.5687C315.603 22.5687 311.893 23.2632 308.524 24.6867L310.081 28.3713C312.897 27.1811 316.07 26.5687 319.626 26.5687V22.5687ZM308.537 24.6813C305.216 26.0571 302.337 28.0795 299.917 30.7365L302.874 33.4298C304.898 31.2078 307.29 29.5275 310.068 28.3767L308.537 24.6813ZM299.904 30.7511C297.538 33.4012 295.714 36.5489 294.417 40.1634L298.181 41.5148C299.323 38.3337 300.898 35.644 302.888 33.4152L299.904 30.7511ZM294.409 40.1849C293.148 43.8284 292.535 47.8883 292.535 52.3394H296.535C296.535 48.2524 297.098 44.6455 298.189 41.4933L294.409 40.1849ZM292.535 52.3394C292.535 56.8893 293.195 61.083 294.544 64.8987L298.315 63.565C297.138 60.2365 296.535 56.5019 296.535 52.3394H292.535ZM294.544 64.8987C295.889 68.7015 297.829 72.0106 300.378 74.7955L303.328 72.0949C301.173 69.7394 299.497 66.9063 298.315 63.565L294.544 64.8987ZM300.389 74.808C302.933 77.5404 305.951 79.6601 309.423 81.1617L311.011 77.4903C308.036 76.204 305.478 74.4031 303.317 72.0823L300.389 74.808ZM309.432 81.1656C312.975 82.6771 316.861 83.417 321.064 83.417V79.417C317.338 79.417 313.994 78.7629 311.002 77.4865L309.432 81.1656ZM321.064 83.417C324.202 83.417 327.113 83.0016 329.778 82.1449L328.554 78.3368C326.341 79.0483 323.85 79.417 321.064 79.417V83.417ZM329.778 82.1449C332.44 81.2893 334.82 80.0199 336.898 78.3288L334.373 75.2265C332.704 76.5847 330.772 77.6241 328.554 78.3368L329.778 82.1449ZM336.898 78.3288C338.968 76.6441 340.71 74.585 342.129 72.1722L338.682 70.1441C337.487 72.1746 336.049 73.8619 334.373 75.2265L336.898 78.3288ZM342.138 72.1576C343.551 69.7073 344.619 66.9554 345.355 63.9189L341.467 62.9765C340.81 65.6902 339.873 68.0786 338.673 70.1587L342.138 72.1576ZM343.411 61.4477H319.953V65.4477H343.411V61.4477ZM321.953 63.4477V43.8449H317.953V63.4477H321.953ZM319.953 45.8449H366.151V41.8449H319.953V45.8449ZM364.156 43.9902L364.875 53.8569L368.864 53.5663L368.145 43.6996L364.156 43.9902ZM364.869 53.7116C364.869 60.9565 363.768 67.5376 361.593 73.4762L365.349 74.8517C367.705 68.4187 368.869 61.365 368.869 53.7116H364.869ZM361.591 73.4837C359.454 79.3919 356.409 84.4476 352.468 88.6792L355.395 91.4054C359.731 86.7503 363.046 81.2204 365.352 74.8442L361.591 73.4837ZM352.468 88.6792C348.526 92.911 343.817 96.1922 338.317 98.5253L339.88 102.208C345.881 99.6617 351.06 96.0601 355.395 91.4054L352.468 88.6792ZM338.324 98.5224C332.893 100.803 326.801 101.96 320.018 101.96V105.96C327.263 105.96 333.89 104.722 339.873 102.21L338.324 98.5224ZM320.018 101.96C312.939 101.96 306.38 100.718 300.32 98.2525L298.812 101.958C305.385 104.632 312.461 105.96 320.018 105.96V101.96ZM300.335 98.2589C294.289 95.7395 288.992 92.2617 284.429 87.8243L281.64 90.692C286.574 95.4897 292.298 99.2432 298.797 101.951L300.335 98.2589ZM284.442 87.8374C279.925 83.3625 276.389 78.1346 273.831 72.1377L270.152 73.7072C272.908 80.169 276.734 85.8316 281.627 90.6789L284.442 87.8374ZM273.836 72.1486C271.332 66.1812 270.071 59.716 270.071 52.7315H266.071C266.071 60.2095 267.424 67.205 270.147 73.6962L273.836 72.1486ZM270.071 52.7315C270.071 45.8329 271.311 39.4542 273.771 33.5739L270.081 32.0299C267.401 38.4341 266.071 45.3418 266.071 52.7315H270.071ZM273.771 33.5739C276.243 27.6669 279.692 22.5064 284.122 18.0765L281.293 15.248C276.488 20.0533 272.75 25.6525 270.081 32.0299L273.771 33.5739ZM284.122 18.0765C288.552 13.6466 293.712 10.1974 299.619 7.72567L298.075 4.03569C291.698 6.70427 286.099 10.4428 281.293 15.248L284.122 18.0765ZM299.615 7.7276C305.54 5.26571 311.964 4.02545 318.908 4.02545V0.0254494C311.476 0.0254494 304.526 1.35534 298.08 4.03375L299.615 7.7276ZM318.908 4.02545C325.422 4.02545 331.766 5.15924 337.952 7.4313L339.331 3.67662C332.709 1.244 325.898 0.0254494 318.908 0.0254494V4.02545ZM337.952 7.4313C344.136 9.70324 349.679 12.9379 354.592 17.1371L357.191 14.0964C351.911 9.58325 345.953 6.10937 339.331 3.67662L337.952 7.4313ZM354.477 14.2025L337.815 30.865L340.643 33.6934L357.306 17.031L354.477 14.2025Z" fill="#252735" fill-opacity="0.4" mask="url(#path-1-outside-1_1715_2233)"/>
</svg>
