<svg width="429" height="150" viewBox="0 0 429 150" fill="none" xmlns="http://www.w3.org/2000/svg">
<g clip-path="url(#clip0_1_4)">
<mask id="path-1-outside-1_1_4" maskUnits="userSpaceOnUse" x="11" y="18" width="410" height="118" fill="black">
<rect fill="white" x="11" y="18" width="410" height="118"/>
<path d="M12.5266 132V22.47H54.2211C66.8292 22.47 76.5652 25.0257 83.4291 30.1371C90.293 35.2485 93.7249 42.4775 93.7249 51.824C93.7249 57.0328 92.5566 61.6817 90.2199 65.7708C87.8833 69.8113 84.7191 72.9755 80.7273 75.2635C86.6663 77.2107 91.2666 80.3749 94.5281 84.7561C97.7897 89.1373 99.4205 94.5164 99.4205 100.893C99.4205 107.222 97.887 112.723 94.8202 117.396C91.7534 122.021 87.3965 125.623 81.7496 128.203C76.1027 130.734 69.4336 132 61.7421 132H12.5266ZM41.4426 66.6471H52.2495C56.3873 66.6471 59.5759 65.8195 61.8151 64.1644C64.1031 62.4606 65.2471 60.0509 65.2471 56.9354C65.2471 54.0633 64.1031 51.7997 61.8151 50.1446C59.5272 48.4894 56.3386 47.6619 52.2495 47.6619H41.4426V66.6471ZM41.4426 106.808H54.2211C57.5313 106.808 60.3547 106.443 62.6914 105.713C65.028 104.934 66.8048 103.839 68.0218 102.427C69.2388 100.966 69.8473 99.214 69.8473 97.1695C69.8473 95.1249 69.3119 93.4211 68.2409 92.0581C67.1699 90.6463 65.5878 89.5997 63.4946 88.9182C61.45 88.188 58.943 87.8229 55.9735 87.8229H41.4426V106.808ZM184.854 132H110.373V22.47H139.289V106.808H184.854V132ZM242.248 134.191C233.875 134.191 226.135 132.779 219.027 129.955C211.969 127.083 205.811 123.092 200.553 117.98C195.344 112.82 191.304 106.784 188.432 99.8712C185.56 92.9586 184.124 85.4132 184.124 77.235C184.124 69.0568 185.56 61.5113 188.432 54.5988C191.304 47.6862 195.344 41.6742 200.553 36.5628C205.811 31.4028 211.969 27.411 219.027 24.5876C226.135 21.7154 233.875 20.2794 242.248 20.2794C250.669 20.2794 258.409 21.7154 265.468 24.5876C272.527 27.411 278.636 31.4028 283.796 36.5628C289.005 41.6742 293.045 47.6862 295.917 54.5988C298.789 61.5113 300.225 69.0568 300.225 77.235C300.225 85.4132 298.789 92.9586 295.917 99.8712C293.045 106.784 289.005 112.82 283.796 117.98C278.636 123.092 272.527 127.083 265.468 129.955C258.409 132.779 250.669 134.191 242.248 134.191ZM242.248 108.999C246.288 108.999 250.036 108.195 253.493 106.589C256.949 104.983 259.943 102.743 262.474 99.8712C265.054 96.9504 267.05 93.5671 268.462 89.7214C269.922 85.8757 270.652 81.7136 270.652 77.235C270.652 72.7564 269.922 68.5943 268.462 64.7486C267.05 60.9028 265.054 57.5439 262.474 54.6718C259.943 51.751 256.949 49.4874 253.493 47.8809C250.036 46.2745 246.288 45.4713 242.248 45.4713C238.207 45.4713 234.434 46.2745 230.929 47.8809C227.473 49.4874 224.455 51.751 221.875 54.6718C219.295 57.5439 217.275 60.9028 215.814 64.7486C214.403 68.5943 213.697 72.7564 213.697 77.235C213.697 81.7136 214.403 85.8757 215.814 89.7214C217.275 93.5671 219.295 96.9504 221.875 99.8712C224.455 102.743 227.473 104.983 230.929 106.589C234.434 108.195 238.207 108.999 242.248 108.999ZM388.507 54.0876C385.878 51.3616 382.665 49.244 378.868 47.7349C375.071 46.2258 370.982 45.4713 366.601 45.4713C362.366 45.4713 358.52 46.2015 355.064 47.6619C351.656 49.0736 348.711 51.1425 346.228 53.8686C343.794 56.5947 341.896 59.8562 340.533 63.6533C339.218 67.4503 338.561 71.7342 338.561 76.5048C338.561 81.3728 339.267 85.8027 340.679 89.7944C342.09 93.7862 344.111 97.2181 346.739 100.09C349.368 102.914 352.483 105.104 356.086 106.662C359.737 108.22 363.777 108.999 368.207 108.999C371.517 108.999 374.536 108.561 377.262 107.684C379.988 106.808 382.397 105.518 384.491 103.814C386.584 102.11 388.361 100.017 389.821 97.5346C391.281 95.0032 392.401 92.1311 393.18 88.9182H366.966V67.0122H418.591L419.394 78.0382C419.394 86.3625 418.128 93.9809 415.597 100.893C413.114 107.757 409.561 113.672 404.936 118.637C400.312 123.603 394.786 127.448 388.361 130.174C381.984 132.852 374.876 134.191 367.039 134.191C358.861 134.191 351.242 132.755 344.184 129.882C337.174 126.962 331.016 122.921 325.709 117.761C320.452 112.552 316.339 106.467 313.369 99.5061C310.448 92.5449 308.988 85.0238 308.988 76.9429C308.988 68.9594 310.424 61.5357 313.296 54.6718C316.168 47.8079 320.184 41.7959 325.344 36.6359C330.504 31.4758 336.516 27.4597 343.38 24.5876C350.293 21.7154 357.765 20.2794 365.797 20.2794C373.343 20.2794 380.694 21.5937 387.85 24.2225C395.005 26.8512 401.431 30.5995 407.127 35.4675L388.507 54.0876Z"/>
</mask>
<path d="M12.5266 132H11.1647V133.362H12.5266V132ZM12.5266 22.47V21.108H11.1647V22.47H12.5266ZM90.2199 65.7708L91.399 66.4527L91.4025 66.4466L90.2199 65.7708ZM80.7273 75.2635L80.0501 74.0818L77.3943 75.604L80.303 76.5576L80.7273 75.2635ZM94.8202 117.396L95.9553 118.149L95.9589 118.143L94.8202 117.396ZM81.7496 128.203L82.3068 129.446L82.3156 129.442L81.7496 128.203ZM41.4426 66.6471H40.0806V68.0091H41.4426V66.6471ZM61.8151 64.1644L62.6247 65.2597L62.6286 65.2568L61.8151 64.1644ZM41.4426 47.6619V46.2999H40.0806V47.6619H41.4426ZM41.4426 106.808H40.0806V108.17H41.4426V106.808ZM62.6914 105.713L63.0976 107.013L63.1099 107.009L63.1221 107.005L62.6914 105.713ZM68.0218 102.427L69.0534 103.316L69.0609 103.308L69.0681 103.299L68.0218 102.427ZM68.2409 92.0581L67.1558 92.8812L67.1628 92.8904L67.17 92.8995L68.2409 92.0581ZM63.4946 88.9182L63.0365 90.2008L63.0547 90.2073L63.073 90.2133L63.4946 88.9182ZM41.4426 87.8229V86.4609H40.0806V87.8229H41.4426ZM13.8886 132V22.47H11.1647V132H13.8886ZM12.5266 23.832H54.2211V21.108H12.5266V23.832ZM54.2211 23.832C66.6687 23.832 76.0746 26.3585 82.6156 31.2294L84.2425 29.0447C77.0557 23.6929 66.9896 21.108 54.2211 21.108V23.832ZM82.6156 31.2294C89.0991 36.0576 92.3629 42.8619 92.3629 51.824H95.0869C95.0869 42.0931 91.4868 34.4394 84.2425 29.0447L82.6156 31.2294ZM92.3629 51.824C92.3629 56.8215 91.2443 61.233 89.0374 65.0951L91.4025 66.4466C93.8688 62.1304 95.0869 57.2441 95.0869 51.824H92.3629ZM89.0409 65.089C86.8227 68.9247 83.8303 71.9151 80.0501 74.0818L81.4046 76.4451C85.6079 74.0359 88.9439 70.6979 91.3989 66.4527L89.0409 65.089ZM80.303 76.5576C86.0149 78.4304 90.3653 81.445 93.4356 85.5693L95.6206 83.9428C92.1678 79.3047 87.3177 75.9909 81.1517 73.9693L80.303 76.5576ZM93.4356 85.5693C96.4941 89.6777 98.0585 94.7585 98.0585 100.893H100.782C100.782 94.2742 99.0853 88.5968 95.6206 83.9428L93.4356 85.5693ZM98.0585 100.893C98.0585 106.993 96.584 112.226 93.6815 116.649L95.9589 118.143C99.1901 113.22 100.782 107.451 100.782 100.893H98.0585ZM93.6851 116.643C90.7751 121.031 86.6274 124.477 81.1836 126.964L82.3156 129.442C88.1656 126.769 92.7316 123.01 95.9553 118.149L93.6851 116.643ZM81.1925 126.96C75.758 129.396 69.2869 130.638 61.7421 130.638V133.362C69.5803 133.362 76.4475 132.072 82.3067 129.446L81.1925 126.96ZM61.7421 130.638H12.5266V133.362H61.7421V130.638ZM41.4426 68.0091H52.2495V65.2851H41.4426V68.0091ZM52.2495 68.0091C56.5439 68.0091 60.0619 67.1539 62.6247 65.2597L61.0056 63.0691C59.0899 64.4851 56.2308 65.2851 52.2495 65.2851V68.0091ZM62.6286 65.2568C65.297 63.2697 66.6091 60.4354 66.6091 56.9354H63.8851C63.8851 59.6665 62.9093 61.6515 61.0017 63.072L62.6286 65.2568ZM66.6091 56.9354C66.6091 53.6352 65.2625 50.9574 62.6134 49.0411L61.0169 51.2481C62.9437 52.6419 63.8851 54.4914 63.8851 56.9354H66.6091ZM62.6134 49.0411C60.0101 47.1578 56.5021 46.2999 52.2495 46.2999V49.0239C56.1752 49.0239 59.0443 49.8211 61.0169 51.2481L62.6134 49.0411ZM52.2495 46.2999H41.4426V49.0239H52.2495V46.2999ZM40.0806 47.6619V66.6471H42.8045V47.6619H40.0806ZM41.4426 108.17H54.2211V105.446H41.4426V108.17ZM54.2211 108.17C57.624 108.17 60.5924 107.796 63.0976 107.013L62.2851 104.413C60.1171 105.09 57.4386 105.446 54.2211 105.446V108.17ZM63.1221 107.005C65.6188 106.173 67.6325 104.964 69.0534 103.316L66.9903 101.538C65.9772 102.713 64.4372 103.695 62.2607 104.421L63.1221 107.005ZM69.0681 103.299C70.5051 101.574 71.2093 99.5067 71.2093 97.1695H68.4854C68.4854 98.9213 67.9726 100.359 66.9756 101.555L69.0681 103.299ZM71.2093 97.1695C71.2093 94.8767 70.6038 92.8608 69.3119 91.2166L67.17 92.8995C68.02 93.9813 68.4854 95.3731 68.4854 97.1695H71.2093ZM69.326 91.2349C68.0504 89.5534 66.2091 88.3696 63.9163 87.6231L63.073 90.2133C64.9666 90.8298 66.2895 91.7393 67.1558 92.8812L69.326 91.2349ZM63.9527 87.6356C61.7181 86.8375 59.0457 86.4609 55.9735 86.4609V89.1849C58.8403 89.1849 61.182 89.5385 63.0365 90.2008L63.9527 87.6356ZM55.9735 86.4609H41.4426V89.1849H55.9735V86.4609ZM40.0806 87.8229V106.808H42.8045V87.8229H40.0806ZM184.854 132V133.362H186.216V132H184.854ZM110.373 132H109.011V133.362H110.373V132ZM110.373 22.47V21.108H109.011V22.47H110.373ZM139.289 22.47H140.651V21.108H139.289V22.47ZM139.289 106.808H137.927V108.17H139.289V106.808ZM184.854 106.808H186.216V105.446H184.854V106.808ZM184.854 130.638H110.373V133.362H184.854V130.638ZM111.735 132V22.47H109.011V132H111.735ZM110.373 23.832H139.289V21.108H110.373V23.832ZM137.927 22.47V106.808H140.651V22.47H137.927ZM139.289 108.17H184.854V105.446H139.289V108.17ZM183.492 106.808V132H186.216V106.808H183.492ZM219.027 129.955L218.514 131.217L218.524 131.221L219.027 129.955ZM200.553 117.98L199.595 118.948L199.604 118.957L200.553 117.98ZM200.553 36.5628L201.507 37.535L201.507 37.5349L200.553 36.5628ZM219.027 24.5876L219.533 25.8521L219.538 25.8503L219.027 24.5876ZM265.468 24.5876L264.955 25.8491L264.962 25.8521L265.468 24.5876ZM283.796 36.5628L282.833 37.526L282.842 37.535L283.796 36.5628ZM283.796 117.98L284.754 118.948L284.755 118.948L283.796 117.98ZM265.468 129.955L265.974 131.22L265.981 131.217L265.468 129.955ZM262.474 99.8712L261.453 98.9695L261.452 98.9707L262.474 99.8712ZM268.462 89.7214L267.189 89.2379L267.186 89.245L267.183 89.2521L268.462 89.7214ZM268.462 64.7486L267.183 65.2179L267.186 65.225L267.189 65.2321L268.462 64.7486ZM262.474 54.6718L261.445 55.5638L261.453 55.573L261.461 55.582L262.474 54.6718ZM230.929 47.8809L230.362 46.6428L230.355 46.6459L230.929 47.8809ZM221.875 54.6718L222.888 55.582L222.896 55.5735L221.875 54.6718ZM215.814 64.7486L214.541 64.2651L214.538 64.2721L214.536 64.2792L215.814 64.7486ZM215.814 89.7214L214.536 90.1908L214.538 90.1979L214.541 90.2049L215.814 89.7214ZM221.875 99.8712L220.854 100.773L220.862 100.781L221.875 99.8712ZM230.929 106.589L230.355 107.824L230.362 107.827L230.929 106.589ZM242.248 132.829C234.03 132.829 226.463 131.444 219.53 128.69L218.524 131.221C225.806 134.114 233.719 135.553 242.248 135.553V132.829ZM219.541 128.694C212.638 125.885 206.629 121.988 201.503 117.004L199.604 118.957C204.992 124.195 211.299 128.281 218.514 131.217L219.541 128.694ZM201.512 117.013C196.434 111.982 192.494 106.098 189.69 99.3486L187.174 100.394C190.114 107.469 194.255 113.658 199.595 118.948L201.512 117.013ZM189.69 99.3486C186.892 92.6164 185.486 85.2506 185.486 77.235H182.762C182.762 85.5759 184.227 93.3008 187.174 100.394L189.69 99.3486ZM185.486 77.235C185.486 69.2194 186.892 61.8535 189.69 55.1214L187.174 54.0762C184.227 61.1692 182.762 68.8941 182.762 77.235H185.486ZM189.69 55.1214C192.493 48.3731 196.432 42.5151 201.507 37.535L199.599 35.5907C194.257 40.8334 190.114 46.9994 187.174 54.0762L189.69 55.1214ZM201.507 37.5349C206.632 32.505 212.636 28.6108 219.533 25.8521L218.521 23.323C211.301 26.2112 204.989 30.3005 199.599 35.5908L201.507 37.5349ZM219.538 25.8503C226.468 23.0495 234.033 21.6414 242.248 21.6414V18.9174C233.716 18.9174 225.801 20.3813 218.517 23.3248L219.538 25.8503ZM242.248 21.6414C250.512 21.6414 258.075 23.05 264.955 25.8491L265.981 23.326C258.743 20.3809 250.827 18.9174 242.248 18.9174V21.6414ZM264.962 25.8521C271.857 28.61 277.809 32.5017 282.833 37.5259L284.759 35.5998C279.463 30.3038 273.196 26.212 265.974 23.323L264.962 25.8521ZM282.842 37.535C287.917 42.5151 291.856 48.3731 294.66 55.1214L297.175 54.0762C294.235 46.9994 290.092 40.8334 284.75 35.5907L282.842 37.535ZM294.66 55.1214C297.457 61.8535 298.864 69.2194 298.864 77.235H301.587C301.587 68.8941 300.122 61.1692 297.175 54.0762L294.66 55.1214ZM298.864 77.235C298.864 85.2506 297.457 92.6164 294.66 99.3486L297.175 100.394C300.122 93.3008 301.587 85.5759 301.587 77.235H298.864ZM294.66 99.3486C291.855 106.098 287.915 111.982 282.837 117.013L284.755 118.948C290.094 113.658 294.235 107.469 297.175 100.394L294.66 99.3486ZM282.837 117.013C277.811 121.991 271.855 125.886 264.955 128.694L265.981 131.217C273.198 128.281 279.461 124.192 284.754 118.948L282.837 117.013ZM264.962 128.691C258.081 131.443 250.515 132.829 242.248 132.829V135.553C250.824 135.553 258.738 134.114 265.974 131.22L264.962 128.691ZM242.248 110.361C246.474 110.361 250.42 109.519 254.067 107.824L252.919 105.354C249.653 106.872 246.102 107.637 242.248 107.637V110.361ZM254.067 107.824C257.695 106.138 260.841 103.784 263.496 100.772L261.452 98.9707C259.045 101.702 256.203 103.827 252.919 105.354L254.067 107.824ZM263.495 100.773C266.193 97.7188 268.273 94.1871 269.74 90.1908L267.183 89.2521C265.827 92.9472 263.916 96.182 261.453 98.9695L263.495 100.773ZM269.735 90.2049C271.259 86.1916 272.014 81.8641 272.014 77.235H269.29C269.29 81.563 268.585 85.5598 267.189 89.2379L269.735 90.2049ZM272.014 77.235C272.014 72.6059 271.259 68.2784 269.735 64.2651L267.189 65.2321C268.585 68.9102 269.29 72.907 269.29 77.235H272.014ZM269.74 64.2792C268.273 60.2811 266.19 56.7702 263.487 53.7616L261.461 55.582C263.918 58.3176 265.827 61.5246 267.183 65.2179L269.74 64.2792ZM263.503 53.7798C260.848 50.7159 257.7 48.3344 254.067 46.6459L252.919 49.116C256.198 50.6403 259.038 52.7861 261.445 55.5638L263.503 53.7798ZM254.067 46.6459C250.42 44.9509 246.474 44.1093 242.248 44.1093V46.8333C246.102 46.8333 249.653 47.5982 252.919 49.116L254.067 46.6459ZM242.248 44.1093C238.021 44.1093 234.054 44.9509 230.362 46.6428L231.497 49.1191C234.815 47.5981 238.393 46.8333 242.248 46.8333V44.1093ZM230.355 46.6459C226.725 48.3333 223.556 50.7118 220.854 53.7701L222.896 55.5735C225.354 52.7902 228.221 50.6415 231.504 49.116L230.355 46.6459ZM220.862 53.7616C218.162 56.7667 216.057 60.2727 214.541 64.2651L217.088 65.2321C218.492 61.533 220.428 58.3211 222.888 55.582L220.862 53.7616ZM214.536 64.2792C213.064 68.2887 212.335 72.6112 212.335 77.235H215.059C215.059 72.9016 215.741 68.8999 217.093 65.2179L214.536 64.2792ZM212.335 77.235C212.335 81.8588 213.064 86.1813 214.536 90.1908L217.093 89.2521C215.741 85.5701 215.059 81.5683 215.059 77.235H212.335ZM214.541 90.2049C216.056 94.1955 218.16 97.7223 220.854 100.773L222.896 98.9695C220.43 96.1785 218.493 92.9388 217.088 89.2379L214.541 90.2049ZM220.862 100.781C223.563 103.789 226.73 106.139 230.355 107.824L231.504 105.354C228.216 103.826 225.347 101.698 222.888 98.961L220.862 100.781ZM230.362 107.827C234.054 109.519 238.021 110.361 242.248 110.361V107.637C238.393 107.637 234.815 106.872 231.497 105.351L230.362 107.827ZM388.507 54.0876L387.526 55.033L388.489 56.0314L389.47 55.0507L388.507 54.0876ZM355.064 47.6619L355.585 48.9202L355.594 48.9165L355.064 47.6619ZM346.228 53.8686L345.221 52.9515L345.212 52.9615L346.228 53.8686ZM340.533 63.6533L339.251 63.1931L339.248 63.2004L339.245 63.2078L340.533 63.6533ZM346.739 100.09L345.735 101.01L345.742 101.018L346.739 100.09ZM356.086 106.662L355.545 107.912L355.551 107.915L356.086 106.662ZM389.821 97.5346L390.995 98.2251L391.001 98.2152L389.821 97.5346ZM393.18 88.9182L394.504 89.2391L394.912 87.5562H393.18V88.9182ZM366.966 88.9182H365.604V90.2802H366.966V88.9182ZM366.966 67.0122V65.6502H365.604V67.0122H366.966ZM418.591 67.0122L419.949 66.9132L419.857 65.6502H418.591V67.0122ZM419.394 78.0382H420.756V77.9887L420.753 77.9393L419.394 78.0382ZM415.597 100.893L414.318 100.425L414.316 100.43L415.597 100.893ZM388.361 130.174L388.888 131.43L388.893 131.428L388.361 130.174ZM344.184 129.882L343.66 131.14L343.67 131.144L344.184 129.882ZM325.709 117.761L324.751 118.729L324.76 118.738L325.709 117.761ZM313.369 99.5061L312.113 100.033L312.116 100.04L313.369 99.5061ZM343.38 24.5876L342.858 23.3298L342.855 23.3311L343.38 24.5876ZM407.127 35.4675L408.09 36.4306L409.131 35.3891L408.012 34.4322L407.127 35.4675ZM389.487 53.1423C386.713 50.2659 383.334 48.0442 379.371 46.4692L378.365 49.0006C381.996 50.4438 385.042 52.4572 387.526 55.033L389.487 53.1423ZM379.371 46.4692C375.403 44.892 371.142 44.1093 366.601 44.1093V46.8333C370.822 46.8333 374.739 47.5596 378.365 49.0006L379.371 46.4692ZM366.601 44.1093C362.207 44.1093 358.178 44.8675 354.533 46.4073L355.594 48.9165C358.862 47.5355 362.524 46.8333 366.601 46.8333V44.1093ZM354.542 46.4036C350.95 47.892 347.839 50.0773 345.221 52.9515L347.235 54.7856C349.583 52.2077 352.362 50.2553 355.585 48.9202L354.542 46.4036ZM345.212 52.9615C342.65 55.831 340.667 59.2485 339.251 63.1931L341.814 64.1134C343.124 60.4639 344.938 57.3583 347.244 54.7757L345.212 52.9615ZM339.245 63.2078C337.873 67.1721 337.199 71.6102 337.199 76.5048H339.923C339.923 71.8581 340.563 67.7285 341.82 64.0988L339.245 63.2078ZM337.199 76.5048C337.199 81.5047 337.924 86.0909 339.395 90.2485L341.963 89.3403C340.61 85.5144 339.923 81.2409 339.923 76.5048H337.199ZM339.395 90.2485C340.862 94.3974 342.972 97.9915 345.735 101.01L347.744 99.1707C345.249 96.4448 343.319 93.175 341.963 89.3403L339.395 90.2485ZM345.742 101.018C348.502 103.982 351.773 106.281 355.545 107.912L356.626 105.412C353.194 103.928 350.234 101.845 347.736 99.1622L345.742 101.018ZM355.551 107.915C359.39 109.553 363.615 110.361 368.207 110.361V107.637C363.94 107.637 360.084 106.887 356.62 105.409L355.551 107.915ZM368.207 110.361C371.637 110.361 374.798 109.907 377.678 108.981L376.845 106.388C374.273 107.214 371.397 107.637 368.207 107.637V110.361ZM377.678 108.981C380.556 108.056 383.118 106.688 385.35 104.871L383.631 102.758C381.677 104.348 379.42 105.56 376.845 106.388L377.678 108.981ZM385.35 104.871C387.577 103.058 389.458 100.838 390.995 98.2251L388.647 96.844C387.263 99.1965 385.59 101.163 383.631 102.758L385.35 104.871ZM391.001 98.2152C392.534 95.5577 393.698 92.5618 394.504 89.2391L391.856 88.5973C391.104 91.7003 390.029 94.4487 388.641 96.8539L391.001 98.2152ZM393.18 87.5562H366.966V90.2802H393.18V87.5562ZM368.328 88.9182V67.0122H365.604V88.9182H368.328ZM366.966 68.3742H418.591V65.6502H366.966V68.3742ZM417.233 67.1111L418.036 78.1372L420.753 77.9393L419.949 66.9132L417.233 67.1111ZM418.032 78.0382C418.032 86.2234 416.788 93.6809 414.318 100.425L416.876 101.362C419.469 94.2809 420.756 86.5016 420.756 78.0382H418.032ZM414.316 100.43C411.891 107.135 408.43 112.888 403.94 117.709L405.933 119.566C410.692 114.456 414.338 108.38 416.878 101.357L414.316 100.43ZM403.94 117.709C399.449 122.53 394.084 126.267 387.829 128.921L388.893 131.428C395.489 128.63 401.174 124.675 405.933 119.566L403.94 117.709ZM387.833 128.919C381.644 131.517 374.719 132.829 367.039 132.829V135.553C375.033 135.553 382.323 134.187 388.888 131.43L387.833 128.919ZM367.039 132.829C359.024 132.829 351.581 131.422 344.697 128.621L343.67 131.144C350.903 134.087 358.698 135.553 367.039 135.553V132.829ZM344.707 128.625C337.852 125.769 331.839 121.822 326.659 116.785L324.76 118.738C330.192 124.02 336.496 128.155 343.66 131.14L344.707 128.625ZM326.668 116.794C321.539 111.712 317.524 105.775 314.622 98.9717L312.116 100.04C315.153 107.16 319.365 113.393 324.751 118.729L326.668 116.794ZM314.625 98.9791C311.779 92.1963 310.35 84.8557 310.35 76.9429H307.626C307.626 85.1918 309.118 92.8934 312.113 100.033L314.625 98.9791ZM310.35 76.9429C310.35 69.1266 311.755 61.883 314.552 55.1975L312.04 54.1461C309.093 61.1883 307.626 68.7922 307.626 76.9429H310.35ZM314.552 55.1975C317.358 48.4939 321.275 42.6312 326.307 37.5989L324.381 35.6728C319.093 40.9607 314.979 47.122 312.04 54.1461L314.552 55.1975ZM326.307 37.5989C331.34 32.5666 337.202 28.6491 343.906 25.844L342.855 23.3311C335.831 26.2703 329.669 30.3849 324.381 35.6728L326.307 37.5989ZM343.903 25.8453C350.638 23.0469 357.931 21.6414 365.797 21.6414V18.9174C357.599 18.9174 349.948 20.384 342.858 23.3298L343.903 25.8453ZM365.797 21.6414C373.181 21.6414 380.373 22.9269 387.38 25.5009L388.319 22.944C381.014 20.2606 373.505 18.9174 365.797 18.9174V21.6414ZM387.38 25.5009C394.387 28.0749 400.671 31.7418 406.242 36.5029L408.012 34.4322C402.191 29.4573 395.624 25.6275 388.319 22.944L387.38 25.5009ZM406.164 34.5045L387.544 53.1246L389.47 55.0507L408.09 36.4306L406.164 34.5045Z" fill="black" fill-opacity="0.15" mask="url(#path-1-outside-1_1_4)"/>
</g>
<defs>
<clipPath id="clip0_1_4">
<rect width="429" height="150" fill="white"/>
</clipPath>
</defs>
</svg>
