<svg width="556" height="92" viewBox="0 0 556 92" fill="none" xmlns="http://www.w3.org/2000/svg">
<mask id="path-1-outside-1_83_1101" maskUnits="userSpaceOnUse" x="-0.330078" y="-1" width="557" height="94" fill="black">
<rect fill="white" x="-0.330078" y="-1" width="557" height="94"/>
<path d="M80.2905 79.1361C76.163 83.1078 71.2762 86.2035 65.63 88.423C60.0228 90.6425 53.9094 91.7522 47.2898 91.7522C40.6313 91.7522 34.4595 90.623 28.7744 88.3646C23.1283 86.0672 18.2025 82.8742 13.9971 78.7856C9.83067 74.6581 6.57927 69.8297 4.24294 64.3004C1.94555 58.771 0.796854 52.7355 0.796854 46.1938C0.796854 39.6521 1.94555 33.6166 4.24294 28.0872C6.57927 22.5579 9.83067 17.749 13.9971 13.6604C18.2025 9.53288 23.1283 6.33989 28.7744 4.08144C34.4595 1.78405 40.6313 0.63535 47.2898 0.63535C53.8705 0.63535 59.945 1.76458 65.5132 4.02303C71.1204 6.24254 75.9878 9.33818 80.1153 13.3099L63.9946 29.5474C61.9698 26.8217 59.4777 24.6801 56.5183 23.1225C53.5979 21.565 50.4049 20.7862 46.9394 20.7862C43.7464 20.7862 40.787 21.4287 38.0613 22.7137C35.3356 23.9987 32.9409 25.7898 30.8771 28.0872C28.8523 30.3846 27.2753 33.0714 26.146 36.1476C25.0168 39.2237 24.4522 42.553 24.4522 46.1354C24.4522 49.7567 25.0168 53.1054 26.146 56.1816C27.2753 59.2578 28.8523 61.964 30.8771 64.3004C32.9409 66.5978 35.3356 68.3889 38.0613 69.6739C40.787 70.9589 43.7464 71.6014 46.9394 71.6014C50.4049 71.6014 53.5979 70.8226 56.5183 69.2651C59.4388 67.7075 61.9114 65.5659 63.9362 62.8402L80.2905 79.1361ZM106.925 90H82.6852L116.912 2.3876H141.152L175.321 90H151.081L145.416 74.405H112.59L106.925 90ZM119.95 54.2541H138.115L129.003 29.2554L119.95 54.2541ZM259.312 90H233.729L217.024 61.0295H204.875V90H181.746V2.3876H218.777C226.37 2.3876 232.833 3.53629 238.168 5.83369C243.503 8.13108 247.572 11.4798 250.375 15.8799C253.218 20.2411 254.639 25.5173 254.639 31.7085C254.639 37.5104 253.393 42.5141 250.901 46.7195C248.409 50.9249 244.807 54.2347 240.096 56.6489L259.312 90ZM204.875 43.215H216.966C221.6 43.215 225.085 42.3583 227.421 40.645C229.796 38.8928 230.984 36.3033 230.984 32.8767C230.984 29.4501 229.796 26.8801 227.421 25.1668C225.085 23.4146 221.6 22.5385 216.966 22.5385H204.875V43.215ZM266.321 90V2.3876H324.729V22.5385H289.45V36.0892H322.393V56.24H289.45V69.8491H325.313V90H266.321ZM336.411 90V2.3876H394.819V22.5385H359.54V36.0892H392.483V56.24H359.54V69.8491H395.403V90H336.411ZM484.067 90H458.484L441.779 61.0295H429.63V90H406.501V2.3876H443.532C451.125 2.3876 457.588 3.53629 462.923 5.83369C468.258 8.13108 472.327 11.4798 475.13 15.8799C477.973 20.2411 479.394 25.5173 479.394 31.7085C479.394 37.5104 478.148 42.5141 475.656 46.7195C473.164 50.9249 469.562 54.2347 464.851 56.6489L484.067 90ZM429.63 43.215H441.721C446.355 43.215 449.84 42.3583 452.176 40.645C454.551 38.8928 455.739 36.3033 455.739 32.8767C455.739 29.4501 454.551 26.8801 452.176 25.1668C449.84 23.4146 446.355 22.5385 441.721 22.5385H429.63V43.215ZM486.987 79.9538L497.851 62.3145C500.694 64.534 503.342 66.3447 505.795 67.7464C508.287 69.1482 510.701 70.1801 513.037 70.8421C515.413 71.4651 517.827 71.7766 520.28 71.7766C522.694 71.7766 524.758 71.504 526.471 70.9589C528.185 70.3748 529.489 69.5571 530.385 68.5058C531.319 67.4155 531.786 66.1305 531.786 64.6508C531.786 62.7817 531.124 61.1853 529.801 59.8613C528.477 58.5374 526.705 57.3498 524.485 56.2984C522.305 55.2471 519.91 54.1957 517.301 53.1444C514.498 52.0152 511.636 50.7691 508.715 49.4063C505.795 48.0045 503.108 46.3106 500.655 44.3247C498.202 42.3389 496.216 39.9246 494.697 37.0821C493.179 34.2006 492.419 30.6961 492.419 26.5686C492.419 21.1172 493.782 16.464 496.508 12.609C499.273 8.71516 503.03 5.75581 507.781 3.73099C512.57 1.66723 517.983 0.63535 524.018 0.63535C528.418 0.63535 533.071 1.21943 537.978 2.3876C542.884 3.55576 547.849 5.38589 552.872 7.87798L543.877 26.4518C541.073 24.7385 537.997 23.3756 534.648 22.3632C531.339 21.3119 528.301 20.7862 525.537 20.7862C523.629 20.7862 521.954 21.0393 520.514 21.5455C519.112 22.0517 518.022 22.7916 517.243 23.765C516.464 24.6996 516.075 25.8093 516.075 27.0943C516.075 28.8076 516.737 30.3262 518.06 31.6501C519.384 32.9351 521.137 34.1228 523.317 35.213C525.498 36.3033 527.873 37.4131 530.443 38.5423C533.247 39.7494 536.109 41.0928 539.029 42.5725C541.988 44.0522 544.695 45.8044 547.148 47.8292C549.64 49.8541 551.645 52.2877 553.164 55.1303C554.682 57.9339 555.442 61.3021 555.442 65.2349C555.442 70.4916 554.001 75.1254 551.12 79.1361C548.277 83.1078 544.286 86.2035 539.146 88.423C534.045 90.6425 528.107 91.7522 521.331 91.7522C515.023 91.7522 508.949 90.7398 503.108 88.715C497.267 86.6902 491.894 83.7698 486.987 79.9538Z"/>
</mask>
<path d="M80.2905 79.1361L81.0459 79.9211L81.8476 79.1496L81.0595 78.3643L80.2905 79.1361ZM65.63 88.423L65.2314 87.4091L65.2291 87.41L65.63 88.423ZM28.7744 88.3646L28.3638 89.3737L28.3722 89.377L28.7744 88.3646ZM13.9971 78.7856L13.2304 79.5596L13.2377 79.5667L13.9971 78.7856ZM4.24295 64.3004L3.23688 64.7184L3.23941 64.7244L4.24295 64.3004ZM4.24295 28.0872L3.23938 27.6632L3.23688 27.6692L4.24295 28.0872ZM13.9971 13.6604L14.7602 14.438L14.7602 14.4379L13.9971 13.6604ZM28.7744 4.08144L29.179 5.09296L29.1826 5.09152L28.7744 4.08144ZM65.5132 4.02303L65.1037 5.03262L65.1122 5.036L65.5132 4.02303ZM80.1153 13.3099L80.8884 14.0775L81.6681 13.2922L80.8707 12.5249L80.1153 13.3099ZM63.9946 29.5474L63.1201 30.1971L63.8754 31.2138L64.7677 30.315L63.9946 29.5474ZM56.5183 23.1225L56.0056 24.0838L56.011 24.0866L56.5183 23.1225ZM30.8771 28.0872L30.0666 27.3592L30.0598 27.3669L30.8771 28.0872ZM26.1461 36.1476L25.1233 35.7722L26.1461 36.1476ZM26.1461 56.1816L25.1233 56.557L26.1461 56.1816ZM30.8771 64.3004L30.0538 65.0139L30.0602 65.0212L30.0667 65.0284L30.8771 64.3004ZM63.9362 62.8402L64.7052 62.0684L63.8128 61.1793L63.0616 62.1905L63.9362 62.8402ZM79.5351 78.351C75.5164 82.2181 70.7528 85.2386 65.2314 87.4091L66.0286 89.4369C71.7996 87.1683 76.8096 83.9975 81.0459 79.9211L79.5351 78.351ZM65.2291 87.41C59.7614 89.5743 53.7856 90.6628 47.2898 90.6628V92.8417C54.0333 92.8417 60.2842 91.7107 66.031 89.4359L65.2291 87.41ZM47.2898 90.6628C40.7568 90.6628 34.7228 89.5554 29.1766 87.3521L28.3722 89.377C34.1962 91.6907 40.5058 92.8417 47.2898 92.8417V90.6628ZM29.185 87.3555C23.6635 85.1088 18.8575 81.9915 14.7565 78.0045L13.2377 79.5667C17.5475 83.7569 22.593 87.0255 28.3638 89.3737L29.185 87.3555ZM14.7639 78.0117C10.7008 73.9866 7.52878 69.2778 5.24646 63.8763L3.23941 64.7244C5.62976 70.3815 8.96054 75.3296 13.2304 79.5596L14.7639 78.0117ZM5.24899 63.8824C3.01157 58.4973 1.88629 52.6054 1.88629 46.1938H-0.292572C-0.292572 52.8656 0.879547 59.0448 3.23688 64.7184L5.24899 63.8824ZM1.88629 46.1938C1.88629 39.7822 3.01157 33.8903 5.24899 28.5052L3.23688 27.6692C0.879547 33.3428 -0.292572 39.522 -0.292572 46.1938H1.88629ZM5.24646 28.5113C7.52841 23.1107 10.6994 18.4229 14.7602 14.438L13.2341 12.8828C8.96194 17.0751 5.63013 22.0051 3.23941 27.6632L5.24646 28.5113ZM14.7602 14.4379C18.8595 10.4146 23.6623 7.29964 29.179 5.09295L28.3698 3.06992C22.5942 5.38015 17.5456 8.65117 13.234 12.8829L14.7602 14.4379ZM29.1826 5.09152C34.7272 2.85089 40.7591 1.72479 47.2898 1.72479V-0.454086C40.5035 -0.454086 34.1918 0.717205 28.3662 3.07136L29.1826 5.09152ZM47.2898 1.72479C53.7436 1.72479 59.6774 2.83171 65.1037 5.03259L65.9227 3.01347C60.2125 0.697449 53.9974 -0.454086 47.2898 -0.454086V1.72479ZM65.1122 5.036C70.5947 7.20612 75.3399 10.2267 79.3599 14.095L80.8707 12.5249C76.6357 8.4497 71.6461 5.27897 65.9142 3.01006L65.1122 5.036ZM79.3422 12.5424L63.2215 28.7799L64.7677 30.315L80.8884 14.0775L79.3422 12.5424ZM64.8691 28.8978C62.7486 26.0432 60.1317 23.7932 57.0258 22.1585L56.011 24.0866C58.8236 25.567 61.191 27.6003 63.1201 30.1971L64.8691 28.8978ZM57.031 22.1613C53.9453 20.5156 50.5751 19.6968 46.9394 19.6968V21.8756C50.2348 21.8756 53.2505 22.6144 56.0057 24.0838L57.031 22.1613ZM46.9394 19.6968C43.5956 19.6968 40.4764 20.3707 37.5968 21.7282L38.5259 23.6991C41.0977 22.4867 43.8972 21.8756 46.9394 21.8756V19.6968ZM37.5968 21.7282C34.7365 23.0767 32.2249 24.9566 30.0667 27.3592L31.6876 28.8153C33.6568 26.6231 35.9348 24.9206 38.5259 23.6991L37.5968 21.7282ZM30.0598 27.3669C27.9397 29.7725 26.2958 32.5782 25.1233 35.7722L27.1688 36.523C28.2548 33.5646 29.7649 30.9968 31.6944 28.8076L30.0598 27.3669ZM25.1233 35.7722C23.946 38.9793 23.3628 42.4369 23.3628 46.1354H25.5416C25.5416 42.6692 26.0876 39.4682 27.1688 36.523L25.1233 35.7722ZM23.3628 46.1354C23.3628 49.8714 23.9456 53.3486 25.1233 56.557L27.1688 55.8062C26.0881 52.8623 25.5416 49.642 25.5416 46.1354H23.3628ZM25.1233 56.557C26.2953 59.7495 27.9375 62.572 30.0538 65.0139L31.7004 63.5869C29.767 61.3561 28.2553 58.766 27.1688 55.8062L25.1233 56.557ZM30.0667 65.0284C32.2249 67.431 34.7365 69.3109 37.5968 70.6593L38.5259 68.6885C35.9348 67.467 33.6568 65.7645 31.6876 63.5723L30.0667 65.0284ZM37.5968 70.6593C40.4764 72.0169 43.5956 72.6908 46.9394 72.6908V70.512C43.8972 70.512 41.0977 69.9009 38.5259 68.6885L37.5968 70.6593ZM46.9394 72.6908C50.5751 72.6908 53.9453 71.872 57.031 70.2263L56.0057 68.3038C53.2505 69.7732 50.2348 70.512 46.9394 70.512V72.6908ZM57.031 70.2263C60.0974 68.591 62.6924 66.3414 64.8107 63.4898L63.0616 62.1905C61.1304 64.7903 58.7802 66.8241 56.0057 68.3038L57.031 70.2263ZM63.1672 63.6119L79.5215 79.9078L81.0595 78.3643L64.7052 62.0684L63.1672 63.6119ZM106.925 90V91.0894H107.688L107.949 90.372L106.925 90ZM82.6852 90L81.6705 89.6036L81.09 91.0894H82.6852V90ZM116.913 2.3876V1.29816H116.168L115.898 1.99117L116.913 2.3876ZM141.152 2.3876L142.167 1.99176L141.896 1.29816H141.152V2.3876ZM175.321 90V91.0894H176.915L176.336 89.6042L175.321 90ZM151.081 90L150.057 90.372L150.318 91.0894H151.081V90ZM145.416 74.405L146.44 74.033L146.179 73.3156H145.416V74.405ZM112.59 74.405V73.3156H111.827L111.566 74.033L112.59 74.405ZM119.95 54.2541L118.925 53.8832L118.397 55.3436H119.95V54.2541ZM138.115 54.2541V55.3436H139.671L139.138 53.8811L138.115 54.2541ZM129.003 29.2554L130.027 28.8823L129 26.065L127.979 28.8844L129.003 29.2554ZM106.925 88.9106H82.6852V91.0894H106.925V88.9106ZM83.7 90.3964L117.927 2.78403L115.898 1.99117L81.6705 89.6036L83.7 90.3964ZM116.913 3.47704H141.152V1.29816H116.913V3.47704ZM140.137 2.78344L174.306 90.3958L176.336 89.6042L142.167 1.99176L140.137 2.78344ZM175.321 88.9106H151.081V91.0894H175.321V88.9106ZM152.105 89.628L146.44 74.033L144.392 74.777L150.057 90.372L152.105 89.628ZM145.416 73.3156H112.59V75.4944H145.416V73.3156ZM111.566 74.033L105.901 89.628L107.949 90.372L113.614 74.777L111.566 74.033ZM119.95 55.3436H138.115V53.1647H119.95V55.3436ZM139.138 53.8811L130.027 28.8823L127.979 29.6285L137.091 54.6272L139.138 53.8811ZM127.979 28.8844L118.925 53.8832L120.974 54.6251L130.027 29.6264L127.979 28.8844ZM259.312 90V91.0894H261.197L260.256 89.4561L259.312 90ZM233.729 90L232.785 90.5442L233.1 91.0894H233.729V90ZM217.024 61.0295L217.968 60.4853L217.654 59.9401H217.024V61.0295ZM204.875 61.0295V59.9401H203.786V61.0295H204.875ZM204.875 90V91.0894H205.965V90H204.875ZM181.746 90H180.656V91.0894H181.746V90ZM181.746 2.3876V1.29816H180.656V2.3876H181.746ZM250.375 15.8799L249.457 16.4654L249.463 16.4748L250.375 15.8799ZM240.096 56.6489L239.599 55.6793L238.58 56.2012L239.152 57.1928L240.096 56.6489ZM204.875 43.215H203.786V44.3044H204.875V43.215ZM227.421 40.645L228.065 41.5235L228.068 41.5217L227.421 40.645ZM227.421 25.1668L226.767 26.0384L226.775 26.0445L226.784 26.0504L227.421 25.1668ZM204.875 22.5385V21.449H203.786V22.5385H204.875ZM259.312 88.9106H233.729V91.0894H259.312V88.9106ZM234.673 89.4558L217.968 60.4853L216.08 61.5737L232.785 90.5442L234.673 89.4558ZM217.024 59.9401H204.875V62.1189H217.024V59.9401ZM203.786 61.0295V90H205.965V61.0295H203.786ZM204.875 88.9106H181.746V91.0894H204.875V88.9106ZM182.835 90V2.3876H180.656V90H182.835ZM181.746 3.47704H218.777V1.29816H181.746V3.47704ZM218.777 3.47704C226.265 3.47704 232.574 4.61053 237.737 6.83428L238.599 4.83309C233.093 2.46206 226.474 1.29816 218.777 1.29816V3.47704ZM237.737 6.83428C242.895 9.05547 246.783 12.27 249.457 16.4653L251.294 15.2945C248.36 10.6897 244.111 7.20668 238.599 4.83309L237.737 6.83428ZM249.463 16.4748C252.17 20.6278 253.55 25.6879 253.55 31.7085H255.729C255.729 25.3466 254.266 19.8543 251.288 15.285L249.463 16.4748ZM253.55 31.7085C253.55 37.3518 252.339 42.1559 249.964 46.1641L251.838 47.2749C254.447 42.8723 255.729 37.6691 255.729 31.7085H253.55ZM249.964 46.1641C247.585 50.178 244.143 53.3508 239.599 55.6793L240.592 57.6184C245.471 55.1186 249.233 51.6718 251.838 47.2749L249.964 46.1641ZM239.152 57.1928L258.368 90.5439L260.256 89.4561L241.039 56.105L239.152 57.1928ZM204.875 44.3044H216.966V42.1255H204.875V44.3044ZM216.966 44.3044C221.703 44.3044 225.46 43.4341 228.065 41.5235L226.777 39.7665C224.709 41.2826 221.496 42.1255 216.966 42.1255V44.3044ZM228.068 41.5217C230.769 39.5291 232.073 36.5859 232.073 32.8767H229.894C229.894 36.0208 228.824 38.2564 226.774 39.7683L228.068 41.5217ZM232.073 32.8767C232.073 29.168 230.768 26.2381 228.058 24.2833L226.784 26.0504C228.824 27.5222 229.894 29.7322 229.894 32.8767H232.073ZM228.075 24.2953C225.468 22.3402 221.707 21.449 216.966 21.449V23.6279C221.492 23.6279 224.701 24.489 226.767 26.0384L228.075 24.2953ZM216.966 21.449H204.875V23.6279H216.966V21.449ZM203.786 22.5385V43.215H205.965V22.5385H203.786ZM266.321 90H265.231V91.0894H266.321V90ZM266.321 2.3876V1.29816H265.231V2.3876H266.321ZM324.729 2.3876H325.818V1.29816H324.729V2.3876ZM324.729 22.5385V23.6279H325.818V22.5385H324.729ZM289.451 22.5385V21.449H288.361V22.5385H289.451ZM289.451 36.0892H288.361V37.1786H289.451V36.0892ZM322.393 36.0892H323.482V34.9997H322.393V36.0892ZM322.393 56.24V57.3295H323.482V56.24H322.393ZM289.451 56.24V55.1506H288.361V56.24H289.451ZM289.451 69.8491H288.361V70.9386H289.451V69.8491ZM325.313 69.8491H326.403V68.7597H325.313V69.8491ZM325.313 90V91.0894H326.403V90H325.313ZM267.41 90V2.3876H265.231V90H267.41ZM266.321 3.47704H324.729V1.29816H266.321V3.47704ZM323.64 2.3876V22.5385H325.818V2.3876H323.64ZM324.729 21.449H289.451V23.6279H324.729V21.449ZM288.361 22.5385V36.0892H290.54V22.5385H288.361ZM289.451 37.1786H322.393V34.9997H289.451V37.1786ZM321.303 36.0892V56.24H323.482V36.0892H321.303ZM322.393 55.1506H289.451V57.3295H322.393V55.1506ZM288.361 56.24V69.8491H290.54V56.24H288.361ZM289.451 70.9386H325.313V68.7597H289.451V70.9386ZM324.224 69.8491V90H326.403V69.8491H324.224ZM325.313 88.9106H266.321V91.0894H325.313V88.9106ZM336.411 90H335.321V91.0894H336.411V90ZM336.411 2.3876V1.29816H335.321V2.3876H336.411ZM394.819 2.3876H395.908V1.29816H394.819V2.3876ZM394.819 22.5385V23.6279H395.908V22.5385H394.819ZM359.54 22.5385V21.449H358.451V22.5385H359.54ZM359.54 36.0892H358.451V37.1786H359.54V36.0892ZM392.483 36.0892H393.572V34.9997H392.483V36.0892ZM392.483 56.24V57.3295H393.572V56.24H392.483ZM359.54 56.24V55.1506H358.451V56.24H359.54ZM359.54 69.8491H358.451V70.9386H359.54V69.8491ZM395.403 69.8491H396.493V68.7597H395.403V69.8491ZM395.403 90V91.0894H396.493V90H395.403ZM337.5 90V2.3876H335.321V90H337.5ZM336.411 3.47704H394.819V1.29816H336.411V3.47704ZM393.73 2.3876V22.5385H395.908V2.3876H393.73ZM394.819 21.449H359.54V23.6279H394.819V21.449ZM358.451 22.5385V36.0892H360.63V22.5385H358.451ZM359.54 37.1786H392.483V34.9997H359.54V37.1786ZM391.393 36.0892V56.24H393.572V36.0892H391.393ZM392.483 55.1506H359.54V57.3295H392.483V55.1506ZM358.451 56.24V69.8491H360.63V56.24H358.451ZM359.54 70.9386H395.403V68.7597H359.54V70.9386ZM394.314 69.8491V90H396.493V69.8491H394.314ZM395.403 88.9106H336.411V91.0894H395.403V88.9106ZM484.067 90V91.0894H485.952L485.011 89.4561L484.067 90ZM458.484 90L457.54 90.5442L457.855 91.0894H458.484V90ZM441.779 61.0295L442.723 60.4853L442.409 59.9401H441.779V61.0295ZM429.63 61.0295V59.9401H428.541V61.0295H429.63ZM429.63 90V91.0894H430.72V90H429.63ZM406.501 90H405.411V91.0894H406.501V90ZM406.501 2.3876V1.29816H405.411V2.3876H406.501ZM475.13 15.8799L474.212 16.4654L474.218 16.4748L475.13 15.8799ZM464.851 56.6489L464.354 55.6793L463.335 56.2012L463.907 57.1928L464.851 56.6489ZM429.63 43.215H428.541V44.3044H429.63V43.215ZM452.176 40.645L452.82 41.5235L452.823 41.5217L452.176 40.645ZM452.176 25.1668L451.522 26.0384L451.53 26.0445L451.539 26.0504L452.176 25.1668ZM429.63 22.5385V21.449H428.541V22.5385H429.63ZM484.067 88.9106H458.484V91.0894H484.067V88.9106ZM459.428 89.4558L442.723 60.4853L440.836 61.5737L457.54 90.5442L459.428 89.4558ZM441.779 59.9401H429.63V62.1189H441.779V59.9401ZM428.541 61.0295V90H430.72V61.0295H428.541ZM429.63 88.9106H406.501V91.0894H429.63V88.9106ZM407.59 90V2.3876H405.411V90H407.59ZM406.501 3.47704H443.531V1.29816H406.501V3.47704ZM443.531 3.47704C451.02 3.47704 457.329 4.61053 462.492 6.83428L463.354 4.83309C457.848 2.46206 451.229 1.29816 443.531 1.29816V3.47704ZM462.492 6.83428C467.65 9.05547 471.538 12.27 474.212 16.4653L476.049 15.2945C473.115 10.6897 468.866 7.20668 463.354 4.83309L462.492 6.83428ZM474.218 16.4748C476.925 20.6278 478.305 25.6879 478.305 31.7085H480.484C480.484 25.3466 479.021 19.8543 476.043 15.285L474.218 16.4748ZM478.305 31.7085C478.305 37.3518 477.094 42.1559 474.719 46.1641L476.593 47.2749C479.202 42.8723 480.484 37.6691 480.484 31.7085H478.305ZM474.719 46.1641C472.34 50.178 468.898 53.3508 464.354 55.6793L465.347 57.6184C470.226 55.1186 473.988 51.6718 476.593 47.2749L474.719 46.1641ZM463.907 57.1928L483.123 90.5439L485.011 89.4561L465.794 56.105L463.907 57.1928ZM429.63 44.3044H441.721V42.1255H429.63V44.3044ZM441.721 44.3044C446.458 44.3044 450.215 43.4341 452.82 41.5235L451.532 39.7665C449.464 41.2826 446.251 42.1255 441.721 42.1255V44.3044ZM452.823 41.5217C455.524 39.5291 456.828 36.5859 456.828 32.8767H454.649C454.649 36.0208 453.579 38.2564 451.529 39.7683L452.823 41.5217ZM456.828 32.8767C456.828 29.168 455.523 26.2381 452.813 24.2833L451.539 26.0504C453.579 27.5222 454.649 29.7322 454.649 32.8767H456.828ZM452.83 24.2953C450.223 22.3402 446.462 21.449 441.721 21.449V23.6279C446.247 23.6279 449.456 24.489 451.522 26.0384L452.83 24.2953ZM441.721 21.449H429.63V23.6279H441.721V21.449ZM428.541 22.5385V43.215H430.72V22.5385H428.541ZM486.987 79.9538L486.06 79.3825L485.547 80.2141L486.318 80.8137L486.987 79.9538ZM497.851 62.3145L498.522 61.4558L497.562 60.7065L496.924 61.7432L497.851 62.3145ZM505.795 67.7465L505.254 68.6924L505.261 68.696L505.795 67.7465ZM513.037 70.8421L512.74 71.8903L512.751 71.8932L512.761 71.8959L513.037 70.8421ZM526.471 70.9589L526.802 71.9971L526.812 71.9937L526.823 71.9901L526.471 70.9589ZM530.385 68.5058L529.557 67.7968L529.555 67.7993L530.385 68.5058ZM529.801 59.8613L530.571 59.091L529.801 59.8613ZM524.485 56.2984L524.012 57.2798L524.019 57.283L524.485 56.2984ZM517.301 53.1444L517.708 52.1339L517.708 52.1338L517.301 53.1444ZM508.715 49.4063L508.244 50.3885L508.254 50.3935L508.715 49.4063ZM494.697 37.0821L493.733 37.5901L493.736 37.5955L494.697 37.0821ZM496.508 12.609L495.62 11.9783L495.618 11.9801L496.508 12.609ZM507.781 3.73099L508.208 4.73319L508.212 4.73149L507.781 3.73099ZM552.872 7.87798L553.852 8.35281L554.323 7.38163L553.356 6.90205L552.872 7.87798ZM543.877 26.4518L543.309 27.3814L544.334 28.0078L544.857 26.9266L543.877 26.4518ZM534.648 22.3632L534.319 23.4015L534.326 23.4038L534.333 23.406L534.648 22.3632ZM520.514 21.5455L520.152 20.5176L520.144 20.5208L520.514 21.5455ZM517.243 23.765L518.08 24.4625L518.087 24.4541L518.094 24.4456L517.243 23.765ZM518.06 31.6501L517.29 32.4205L517.296 32.4262L517.302 32.4319L518.06 31.6501ZM530.443 38.5423L530.005 39.5397L530.012 39.5429L530.443 38.5423ZM539.029 42.5725L538.537 43.5443L538.542 43.5469L539.029 42.5725ZM547.148 47.8292L546.454 48.6695L546.461 48.6748L547.148 47.8292ZM553.164 55.1303L552.203 55.6436L552.206 55.6491L553.164 55.1303ZM551.12 79.1361L550.235 78.5004L550.234 78.502L551.12 79.1361ZM539.146 88.423L538.714 87.4228L538.711 87.424L539.146 88.423ZM487.915 80.5251L498.779 62.8858L496.924 61.7432L486.06 79.3825L487.915 80.5251ZM497.181 63.1732C500.054 65.4165 502.745 67.2587 505.254 68.6923L506.335 66.8006C503.938 65.4306 501.334 63.6515 498.522 61.4558L497.181 63.1732ZM505.261 68.696C507.815 70.1327 510.308 71.2012 512.74 71.8903L513.334 69.7939C511.094 69.1591 508.759 68.1638 506.329 66.7969L505.261 68.696ZM512.761 71.8959C515.226 72.5425 517.733 72.8661 520.28 72.8661V70.6872C517.92 70.6872 515.599 70.3877 513.314 69.7883L512.761 71.8959ZM520.28 72.8661C522.771 72.8661 524.952 72.5856 526.802 71.9971L526.141 69.9208C524.564 70.4225 522.618 70.6872 520.28 70.6872V72.8661ZM526.823 71.9901C528.665 71.3619 530.158 70.4523 531.214 69.2122L529.555 67.7993C528.821 68.6619 527.704 69.3878 526.12 69.9277L526.823 71.9901ZM531.212 69.2148C532.321 67.9205 532.876 66.3819 532.876 64.6508H530.697C530.697 65.8791 530.317 66.9104 529.557 67.7968L531.212 69.2148ZM532.876 64.6508C532.876 62.4922 532.099 60.6188 530.571 59.091L529.03 60.6317C530.15 61.7517 530.697 63.0713 530.697 64.6508H532.876ZM530.571 59.091C529.136 57.6561 527.251 56.4029 524.952 55.3139L524.019 57.283C526.159 58.2966 527.817 59.4188 529.03 60.6317L530.571 59.091ZM524.959 55.3171C522.753 54.2538 520.336 53.1928 517.708 52.1339L516.894 54.1549C519.484 55.1986 521.856 56.2404 524.012 57.2798L524.959 55.3171ZM517.708 52.1338C514.924 51.0124 512.08 49.7742 509.176 48.419L508.254 50.3935C511.191 51.7641 514.071 53.018 516.894 54.1549L517.708 52.1338ZM509.187 48.4241C506.341 47.058 503.726 45.4092 501.34 43.478L499.969 45.1715C502.49 47.2121 505.249 48.9509 508.244 50.3884L509.187 48.4241ZM501.34 43.478C499.003 41.5857 497.11 39.2856 495.658 36.5687L493.736 37.5955C495.322 40.5637 497.401 43.092 499.969 45.1715L501.34 43.478ZM495.661 36.5742C494.244 33.8856 493.509 30.5653 493.509 26.5686H491.33C491.33 30.827 492.113 34.5157 493.733 37.59L495.661 36.5742ZM493.509 26.5686C493.509 21.3064 494.821 16.8816 497.397 13.238L495.618 11.9801C492.743 16.0463 491.33 20.9279 491.33 26.5686H493.509ZM497.396 13.2397C500.035 9.52322 503.627 6.68579 508.208 4.73318L507.353 2.72879C502.433 4.82583 498.51 7.90711 495.62 11.9783L497.396 13.2397ZM508.212 4.73149C512.845 2.73491 518.108 1.72479 524.018 1.72479V-0.454086C517.857 -0.454086 512.295 0.599548 507.35 2.73048L508.212 4.73149ZM524.018 1.72479C528.322 1.72479 532.89 2.29612 537.725 3.44741L538.23 1.32779C533.253 0.142742 528.515 -0.454086 524.018 -0.454086V1.72479ZM537.725 3.44741C542.543 4.59449 547.43 6.39444 552.388 8.8539L553.356 6.90205C548.267 4.37734 543.225 2.51704 538.23 1.32779L537.725 3.44741ZM551.891 7.40314L542.896 25.977L544.857 26.9266L553.852 8.35281L551.891 7.40314ZM544.445 25.5222C541.557 23.7575 538.395 22.3579 534.964 21.3204L534.333 23.406C537.599 24.3934 540.589 25.7195 543.309 27.3814L544.445 25.5222ZM534.978 21.3249C531.588 20.248 528.438 19.6968 525.537 19.6968V21.8756C528.165 21.8756 531.089 22.3758 534.319 23.4015L534.978 21.3249ZM525.537 19.6968C523.535 19.6968 521.734 19.962 520.153 20.5177L520.875 22.5733C522.175 22.1166 523.722 21.8756 525.537 21.8756V19.6968ZM520.144 20.5208C518.59 21.0818 517.319 21.9259 516.392 23.0845L518.094 24.4456C518.724 23.6572 519.634 23.0216 520.884 22.5702L520.144 20.5208ZM516.406 23.0676C515.454 24.2095 514.985 25.57 514.985 27.0943H517.164C517.164 26.0487 517.474 25.1896 518.08 24.4625L516.406 23.0676ZM514.985 27.0943C514.985 29.1248 515.783 30.9131 517.29 32.4205L518.831 30.8798C517.69 29.7393 517.164 28.4904 517.164 27.0943H514.985ZM517.302 32.4319C518.727 33.815 520.58 35.0623 522.83 36.1875L523.804 34.2386C521.694 33.1832 520.042 32.0552 518.819 30.8684L517.302 32.4319ZM522.83 36.1875C525.029 37.2869 527.421 38.4043 530.005 39.5397L530.881 37.5449C528.325 36.4219 525.967 35.3197 523.804 34.2386L522.83 36.1875ZM530.012 39.5429C532.794 40.7405 535.635 42.0741 538.537 43.5443L539.521 41.6007C536.582 40.1115 533.7 38.7584 530.874 37.5417L530.012 39.5429ZM538.542 43.5469C541.431 44.9913 544.067 46.6991 546.454 48.6694L547.841 46.989C545.322 44.9098 542.546 43.1131 539.516 41.5981L538.542 43.5469ZM546.461 48.6748C548.84 50.6078 550.752 52.9284 552.203 55.6436L554.125 54.6169C552.538 51.647 550.44 49.1003 547.835 46.9837L546.461 48.6748ZM552.206 55.6491C553.62 58.2603 554.352 61.4415 554.352 65.2349H556.531C556.531 61.1626 555.745 57.6074 554.122 54.6114L552.206 55.6491ZM554.352 65.2349C554.352 70.2791 552.974 74.6872 550.235 78.5004L552.004 79.7717C555.028 75.5635 556.531 70.7041 556.531 65.2349H554.352ZM550.234 78.502C547.522 82.2903 543.699 85.2701 538.714 87.4228L539.578 89.4231C544.872 87.1368 549.032 83.9253 552.005 79.7701L550.234 78.502ZM538.711 87.424C533.774 89.5723 527.989 90.6628 521.331 90.6628V92.8417C528.224 92.8417 534.316 91.7126 539.581 89.422L538.711 87.424ZM521.331 90.6628C515.142 90.6628 509.189 89.6699 503.465 87.6857L502.751 89.7444C508.709 91.8098 514.904 92.8417 521.331 92.8417V90.6628ZM503.465 87.6857C497.737 85.7001 492.469 82.8371 487.656 79.0938L486.318 80.8137C491.318 84.7025 496.797 87.6803 502.751 89.7444L503.465 87.6857Z" fill="black" fill-opacity="0.15" mask="url(#path-1-outside-1_83_1101)"/>
</svg>
