<svg width="314" height="175" viewBox="0 0 314 175" fill="none" xmlns="http://www.w3.org/2000/svg">
<rect x="0.548645" y="0.216431" width="313.109" height="174.326" rx="16.9248" fill="#303030"/>
<mask id="mask0_83_510" style="mask-type:alpha" maskUnits="userSpaceOnUse" x="0" y="0" width="314" height="175">
<rect x="0.548645" y="0.216431" width="313.109" height="174.326" rx="16.9248" fill="#625FFB"/>
</mask>
<g mask="url(#mask0_83_510)">
<circle cx="0.548687" cy="166.926" r="52.467" fill="#B53783"/>
<path d="M404.688 30.4418C421.52 60.2217 411.759 98.1671 382.886 115.195C354.013 132.223 316.962 121.886 300.13 92.106C283.298 62.3262 293.06 24.3808 321.933 7.35272C350.806 -9.67538 387.857 0.661975 404.688 30.4418Z" fill="#B53783"/>
<circle cx="-21.4536" cy="115.305" r="52.467" fill="#545454"/>
<ellipse cx="60.6938" cy="61.938" rx="60.6938" ry="61.938" transform="matrix(0.861361 -0.507994 0.492048 0.870568 216.34 -20.2058)" fill="#545454"/>
</g>
<path d="M126.8 60.5231L120.555 48.4895C119.844 48.4895 119.066 48.4895 118.219 48.4895C117.373 48.4557 116.527 48.4387 115.681 48.4387C114.834 48.4049 114.022 48.388 113.244 48.388V42.0919H121.875C122.451 42.0919 123.009 42.0073 123.551 41.8381C124.092 41.635 124.566 41.2965 124.972 40.8226C125.412 40.3487 125.751 39.7055 125.988 38.8931C126.259 38.0469 126.394 36.9806 126.394 35.6943C126.394 34.1373 126.208 32.9356 125.836 32.0894C125.463 31.2093 124.972 30.6 124.363 30.2615C123.754 29.8891 123.026 29.703 122.18 29.703H113.244V22.95H123.195C124.414 22.95 125.649 23.1361 126.902 23.5085C128.188 23.8808 129.356 24.5409 130.405 25.4887C131.455 26.4365 132.301 27.7397 132.944 29.3983C133.587 31.0231 133.909 33.1218 133.909 35.6943C133.909 37.793 133.74 39.5532 133.401 40.9749C133.096 42.3627 132.673 43.4967 132.132 44.3768C131.59 45.2569 130.964 45.9508 130.253 46.4585C129.542 46.9324 128.831 47.3217 128.12 47.6264L134.975 60.5231H126.8ZM113.244 37.7253V33.9172H140.002V37.7253H113.244ZM121.875 26.758V22.95H140.002V26.758H121.875ZM157.487 60.7769C155.422 60.7769 153.256 60.6923 150.988 60.5231C148.72 60.3538 146.571 60.1676 144.54 59.9646V54.0239H157.792C159.01 54.0239 159.958 53.8208 160.635 53.4146C161.346 53.0084 161.837 52.4838 162.108 51.8406C162.412 51.1636 162.565 50.4697 162.565 49.7589V47.1694C162.565 45.9846 162.26 45.0538 161.651 44.3768C161.075 43.6659 160.094 43.3105 158.706 43.3105H155.761C154.644 43.3105 153.798 43.5475 153.222 44.0214C152.681 44.4614 152.325 45.1553 152.156 46.1031H145.047L146.114 22.95H168.658V29.703H152.562L152.156 38.6393C152.664 38.0977 153.357 37.6915 154.238 37.4207C155.152 37.116 156.167 36.9637 157.284 36.9637H161.397C163.36 36.9637 164.985 37.353 166.271 38.1315C167.557 38.9101 168.522 39.9763 169.165 41.3303C169.808 42.6505 170.13 44.1398 170.13 45.7985V51.3329C170.13 53.5331 169.639 55.3271 168.658 56.715C167.676 58.1028 166.254 59.1352 164.392 59.8122C162.531 60.4554 160.229 60.7769 157.487 60.7769ZM186.552 60.7769C184.893 60.7769 183.217 60.7092 181.525 60.5738C179.866 60.4384 178.36 60.2353 177.006 59.9646V54.0239H185.841C188.379 54.0239 190.241 53.2454 191.426 51.6883C192.611 50.0974 193.203 47.7618 193.203 44.6814C192.458 44.9184 191.629 45.1046 190.715 45.24C189.835 45.3754 188.904 45.46 187.922 45.4938C186.941 45.5277 185.875 45.5446 184.724 45.5446C182.253 45.5446 180.289 45.2061 178.834 44.5291C177.378 43.8183 176.329 42.8197 175.686 41.5334C175.077 40.2471 174.772 38.707 174.772 36.9129V31.5308C174.772 29.4322 175.161 27.7397 175.94 26.4534C176.718 25.1333 177.801 24.1855 179.189 23.61C180.611 23.0007 182.236 22.6961 184.064 22.6961H189.496C191.324 22.6961 192.932 22.9838 194.32 23.5592C195.742 24.1008 196.926 25.0486 197.874 26.4026C198.822 27.7566 199.533 29.6522 200.007 32.0894C200.515 34.4927 200.768 37.5392 200.768 41.2288C200.768 44.8845 200.447 47.9818 199.804 50.5205C199.161 53.0254 198.23 55.0394 197.011 56.5627C195.793 58.052 194.303 59.1352 192.543 59.8122C190.783 60.4554 188.786 60.7769 186.552 60.7769ZM186.856 39.147H193.203C193.203 37.2176 193.101 35.6267 192.898 34.3742C192.695 33.1218 192.374 32.1401 191.934 31.4293C191.527 30.6846 191.003 30.1769 190.36 29.9061C189.717 29.6014 188.938 29.4491 188.024 29.4491H185.739C185.028 29.4491 184.402 29.5676 183.861 29.8045C183.353 30.0415 182.964 30.4138 182.693 30.9215C182.422 31.4293 182.287 32.1401 182.287 33.0541V35.4913C182.287 36.4729 182.439 37.2345 182.743 37.7761C183.082 38.2838 183.59 38.6393 184.267 38.8424C184.944 39.0455 185.807 39.147 186.856 39.147Z" fill="white"/>
<path d="M93.4501 87.6239V76.5178H94.6298L94.8887 77.2946C95.0709 77.1604 95.2867 77.0261 95.5361 76.8918C95.795 76.7576 96.0732 76.6473 96.3705 76.5609C96.6774 76.465 96.9843 76.4171 97.2912 76.4171C97.7803 76.4171 98.1975 76.5178 98.5428 76.7192C98.8976 76.9206 99.1854 77.2035 99.406 77.568C99.6265 77.9228 99.7848 78.34 99.8807 78.8196C99.9862 79.2991 100.039 79.8122 100.039 80.3589C100.039 81.2125 99.943 81.9366 99.7512 82.5312C99.569 83.1162 99.2765 83.5622 98.8737 83.8691C98.4804 84.1664 97.953 84.3151 97.2912 84.3151C96.8884 84.3151 96.476 84.2575 96.054 84.1424C95.632 84.0177 95.2436 83.8547 94.8887 83.6533V87.6239H93.4501ZM96.8596 83.1066C97.1857 83.1066 97.4782 83.0251 97.7372 82.8621C97.9961 82.699 98.2023 82.4209 98.3558 82.0277C98.5188 81.6249 98.6003 81.0686 98.6003 80.3589C98.6003 79.6875 98.5188 79.1504 98.3558 78.7476C98.1927 78.3352 97.9817 78.0427 97.7228 77.8701C97.4638 77.6879 97.1809 77.5967 96.874 77.5967C96.4712 77.5967 96.1019 77.6591 95.7663 77.7838C95.4402 77.9084 95.1477 78.0379 94.8887 78.1722V82.56C95.186 82.723 95.5025 82.8573 95.8382 82.9628C96.1835 83.0587 96.5239 83.1066 96.8596 83.1066ZM104.831 84.3007C104.015 84.3007 103.363 84.1808 102.874 83.941C102.395 83.7013 102.049 83.2984 101.838 82.7326C101.637 82.1571 101.536 81.3659 101.536 80.3589C101.536 79.3327 101.637 78.5366 101.838 77.9708C102.049 77.3953 102.395 76.9925 102.874 76.7624C103.354 76.5322 104.001 76.4171 104.816 76.4171C105.526 76.4171 106.097 76.4938 106.528 76.6473C106.969 76.7911 107.291 77.0549 107.492 77.4385C107.703 77.8125 107.809 78.3352 107.809 79.0066C107.809 79.4765 107.713 79.8506 107.521 80.1287C107.339 80.4068 107.075 80.6082 106.73 80.7329C106.394 80.8576 105.991 80.9199 105.521 80.9199H102.975C102.984 81.4762 103.047 81.9222 103.162 82.2578C103.287 82.5839 103.502 82.8237 103.809 82.9772C104.126 83.121 104.586 83.1929 105.19 83.1929H107.593V84.0561C107.18 84.1137 106.758 84.1664 106.327 84.2144C105.895 84.2719 105.396 84.3007 104.831 84.3007ZM102.96 80.0136H105.392C105.775 80.0136 106.058 79.9417 106.24 79.7978C106.423 79.654 106.514 79.3902 106.514 79.0066C106.514 78.623 106.456 78.3208 106.341 78.1003C106.236 77.8797 106.058 77.7214 105.809 77.6255C105.56 77.5296 105.229 77.4817 104.816 77.4817C104.346 77.4817 103.972 77.5536 103.694 77.6975C103.426 77.8413 103.234 78.0955 103.119 78.4599C103.013 78.8244 102.96 79.3423 102.96 80.0136ZM109.564 84.2144V76.5178H110.672L111.003 77.8125C111.329 77.4193 111.693 77.0884 112.096 76.8199C112.499 76.5514 112.969 76.4171 113.506 76.4171C113.631 76.4171 113.751 76.4267 113.866 76.4459C113.981 76.4555 114.091 76.4746 114.197 76.5034V77.9852C114.062 77.966 113.923 77.9516 113.779 77.942C113.635 77.9228 113.487 77.9132 113.333 77.9132C113.007 77.9132 112.715 77.9516 112.456 78.0283C112.197 78.1051 111.948 78.2249 111.708 78.388C111.478 78.5414 111.243 78.7333 111.003 78.9634V84.2144H109.564ZM121.629 84.3007C120.91 84.3007 120.349 84.1089 119.946 83.7252C119.553 83.332 119.356 82.7374 119.356 81.9414V76.5178H120.795V81.5529C120.795 82.1284 120.924 82.5168 121.183 82.7182C121.452 82.9196 121.826 83.0203 122.305 83.0203C122.689 83.0203 123.053 82.9628 123.398 82.8477C123.753 82.723 124.099 82.5552 124.434 82.3442V76.5178H125.873V84.2144H124.722L124.434 83.3943C124.06 83.6341 123.629 83.8451 123.14 84.0273C122.66 84.2096 122.156 84.3007 121.629 84.3007ZM130.546 84.3007C130.345 84.3007 130.105 84.2959 129.827 84.2863C129.549 84.2767 129.261 84.2575 128.964 84.2287C128.676 84.2096 128.407 84.1856 128.158 84.1568C127.918 84.128 127.726 84.0945 127.583 84.0561V83.1929H130.819C131.098 83.1929 131.337 83.1738 131.539 83.1354C131.74 83.0874 131.894 82.9915 131.999 82.8477C132.114 82.7038 132.172 82.4928 132.172 82.2147V81.8982C132.172 81.6105 132.076 81.3851 131.884 81.222C131.692 81.059 131.376 80.9775 130.935 80.9775H129.812C129.362 80.9775 128.959 80.9199 128.604 80.8048C128.259 80.6802 127.985 80.474 127.784 80.1862C127.592 79.8985 127.496 79.5101 127.496 79.021V78.6038C127.496 78.1146 127.587 77.7118 127.77 77.3953C127.961 77.0788 128.264 76.8439 128.676 76.6904C129.088 76.5274 129.635 76.4459 130.316 76.4459C130.604 76.4459 130.92 76.4602 131.265 76.489C131.62 76.5082 131.966 76.537 132.301 76.5753C132.637 76.6137 132.905 76.6569 133.107 76.7048V77.568H130.057C129.635 77.568 129.309 77.6399 129.079 77.7838C128.858 77.9276 128.748 78.201 128.748 78.6038V78.8915C128.748 79.1409 128.801 79.3327 128.906 79.4669C129.012 79.6012 129.16 79.6875 129.352 79.7259C129.553 79.7643 129.788 79.7834 130.057 79.7834H131.208C131.937 79.7834 132.488 79.9561 132.862 80.3013C133.236 80.637 133.423 81.1118 133.423 81.7256V82.3154C133.423 82.8333 133.303 83.2361 133.064 83.5238C132.824 83.8115 132.488 84.013 132.057 84.128C131.635 84.2431 131.131 84.3007 130.546 84.3007ZM138.098 84.3007C137.283 84.3007 136.631 84.1808 136.142 83.941C135.662 83.7013 135.317 83.2984 135.106 82.7326C134.905 82.1571 134.804 81.3659 134.804 80.3589C134.804 79.3327 134.905 78.5366 135.106 77.9708C135.317 77.3953 135.662 76.9925 136.142 76.7624C136.622 76.5322 137.269 76.4171 138.084 76.4171C138.794 76.4171 139.364 76.4938 139.796 76.6473C140.237 76.7911 140.559 77.0549 140.76 77.4385C140.971 77.8125 141.076 78.3352 141.076 79.0066C141.076 79.4765 140.981 79.8506 140.789 80.1287C140.606 80.4068 140.343 80.6082 139.997 80.7329C139.662 80.8576 139.259 80.9199 138.789 80.9199H136.243C136.252 81.4762 136.315 81.9222 136.43 82.2578C136.554 82.5839 136.77 82.8237 137.077 82.9772C137.394 83.121 137.854 83.1929 138.458 83.1929H140.861V84.0561C140.448 84.1137 140.026 84.1664 139.595 84.2144C139.163 84.2719 138.664 84.3007 138.098 84.3007ZM136.228 80.0136H138.66C139.043 80.0136 139.326 79.9417 139.508 79.7978C139.691 79.654 139.782 79.3902 139.782 79.0066C139.782 78.623 139.724 78.3208 139.609 78.1003C139.504 77.8797 139.326 77.7214 139.077 77.6255C138.827 77.5296 138.497 77.4817 138.084 77.4817C137.614 77.4817 137.24 77.5536 136.962 77.6975C136.693 77.8413 136.502 78.0955 136.387 78.4599C136.281 78.8244 136.228 79.3423 136.228 80.0136ZM142.832 84.2144V76.5178H143.94L144.271 77.8125C144.597 77.4193 144.961 77.0884 145.364 76.8199C145.767 76.5514 146.237 76.4171 146.774 76.4171C146.899 76.4171 147.018 76.4267 147.134 76.4459C147.249 76.4555 147.359 76.4746 147.464 76.5034V77.9852C147.33 77.966 147.191 77.9516 147.047 77.942C146.903 77.9228 146.755 77.9132 146.601 77.9132C146.275 77.9132 145.983 77.9516 145.724 78.0283C145.465 78.1051 145.215 78.2249 144.976 78.388C144.745 78.5414 144.51 78.7333 144.271 78.9634V84.2144H142.832ZM152.638 87.6239V76.5178H153.818L154.077 77.2946C154.259 77.1604 154.475 77.0261 154.724 76.8918C154.983 76.7576 155.261 76.6473 155.559 76.5609C155.866 76.465 156.172 76.4171 156.479 76.4171C156.968 76.4171 157.386 76.5178 157.731 76.7192C158.086 76.9206 158.374 77.2035 158.594 77.568C158.815 77.9228 158.973 78.34 159.069 78.8196C159.174 79.2991 159.227 79.8122 159.227 80.3589C159.227 81.2125 159.131 81.9366 158.939 82.5312C158.757 83.1162 158.465 83.5622 158.062 83.8691C157.669 84.1664 157.141 84.3151 156.479 84.3151C156.077 84.3151 155.664 84.2575 155.242 84.1424C154.82 84.0177 154.432 83.8547 154.077 83.6533V87.6239H152.638ZM156.048 83.1066C156.374 83.1066 156.666 83.0251 156.925 82.8621C157.184 82.699 157.39 82.4209 157.544 82.0277C157.707 81.6249 157.788 81.0686 157.788 80.3589C157.788 79.6875 157.707 79.1504 157.544 78.7476C157.381 78.3352 157.17 78.0427 156.911 77.8701C156.652 77.6879 156.369 77.5967 156.062 77.5967C155.659 77.5967 155.29 77.6591 154.954 77.7838C154.628 77.9084 154.336 78.0379 154.077 78.1722V82.56C154.374 82.723 154.691 82.8573 155.026 82.9628C155.372 83.0587 155.712 83.1066 156.048 83.1066ZM164.019 84.3007C163.204 84.3007 162.551 84.1808 162.062 83.941C161.583 83.7013 161.237 83.2984 161.026 82.7326C160.825 82.1571 160.724 81.3659 160.724 80.3589C160.724 79.3327 160.825 78.5366 161.026 77.9708C161.237 77.3953 161.583 76.9925 162.062 76.7624C162.542 76.5322 163.189 76.4171 164.004 76.4171C164.714 76.4171 165.285 76.4938 165.716 76.6473C166.158 76.7911 166.479 77.0549 166.68 77.4385C166.891 77.8125 166.997 78.3352 166.997 79.0066C166.997 79.4765 166.901 79.8506 166.709 80.1287C166.527 80.4068 166.263 80.6082 165.918 80.7329C165.582 80.8576 165.179 80.9199 164.709 80.9199H162.163C162.173 81.4762 162.235 81.9222 162.35 82.2578C162.475 82.5839 162.69 82.8237 162.997 82.9772C163.314 83.121 163.774 83.1929 164.378 83.1929H166.781V84.0561C166.368 84.1137 165.947 84.1664 165.515 84.2144C165.083 84.2719 164.585 84.3007 164.019 84.3007ZM162.149 80.0136H164.58C164.963 80.0136 165.246 79.9417 165.429 79.7978C165.611 79.654 165.702 79.3902 165.702 79.0066C165.702 78.623 165.644 78.3208 165.529 78.1003C165.424 77.8797 165.246 77.7214 164.997 77.6255C164.748 77.5296 164.417 77.4817 164.004 77.4817C163.534 77.4817 163.16 77.5536 162.882 77.6975C162.614 77.8413 162.422 78.0955 162.307 78.4599C162.201 78.8244 162.149 79.3423 162.149 80.0136ZM168.752 84.2144V76.5178H169.86L170.191 77.8125C170.517 77.4193 170.882 77.0884 171.284 76.8199C171.687 76.5514 172.157 76.4171 172.694 76.4171C172.819 76.4171 172.939 76.4267 173.054 76.4459C173.169 76.4555 173.279 76.4746 173.385 76.5034V77.9852C173.25 77.966 173.111 77.9516 172.967 77.942C172.824 77.9228 172.675 77.9132 172.522 77.9132C172.195 77.9132 171.903 77.9516 171.644 78.0283C171.385 78.1051 171.136 78.2249 170.896 78.388C170.666 78.5414 170.431 78.7333 170.191 78.9634V84.2144H168.752ZM178.559 84.2144V76.5178H179.709L179.997 77.3522C180.371 77.0932 180.784 76.8679 181.234 76.676C181.685 76.4842 182.203 76.3883 182.788 76.3883C183.268 76.3883 183.675 76.4938 184.011 76.7048C184.347 76.9158 184.601 77.1843 184.773 77.5104C185.003 77.3378 185.282 77.1652 185.608 76.9925C185.934 76.8199 186.284 76.676 186.658 76.5609C187.032 76.4459 187.392 76.3883 187.737 76.3883C188.312 76.3883 188.777 76.5082 189.132 76.748C189.497 76.9781 189.756 77.2994 189.909 77.7118C190.072 78.1146 190.154 78.575 190.154 79.0929V84.2144H188.715V79.208C188.715 78.9011 188.653 78.6373 188.528 78.4168C188.413 78.1866 188.245 78.0091 188.025 77.8845C187.814 77.7598 187.555 77.6975 187.248 77.6975C186.864 77.6975 186.471 77.7742 186.068 77.9276C185.665 78.0715 185.296 78.2489 184.96 78.4599C184.999 78.5846 185.027 78.7141 185.047 78.8483C185.066 78.973 185.075 79.0977 185.075 79.2224V84.2144H183.637V79.208C183.637 78.9011 183.574 78.6373 183.45 78.4168C183.335 78.1866 183.172 78.0091 182.961 77.8845C182.75 77.7598 182.491 77.6975 182.184 77.6975C181.896 77.6975 181.628 77.7262 181.378 77.7838C181.138 77.8413 180.908 77.9228 180.688 78.0283C180.467 78.1242 180.237 78.2441 179.997 78.388V84.2144H178.559ZM195.266 84.3007C194.681 84.3007 194.173 84.2383 193.741 84.1137C193.319 83.989 192.969 83.7828 192.691 83.4951C192.413 83.1977 192.207 82.7949 192.072 82.2866C191.938 81.7783 191.871 81.1357 191.871 80.3589C191.871 79.5533 191.938 78.8963 192.072 78.388C192.207 77.8701 192.413 77.4673 192.691 77.1796C192.969 76.8918 193.324 76.6952 193.755 76.5897C194.187 76.4746 194.691 76.4171 195.266 76.4171C195.841 76.4171 196.345 76.4746 196.776 76.5897C197.208 76.7048 197.563 76.9062 197.841 77.1939C198.119 77.4817 198.325 77.8845 198.46 78.4024C198.594 78.9107 198.661 79.5628 198.661 80.3589C198.661 81.1453 198.594 81.7975 198.46 82.3154C198.325 82.8237 198.119 83.2217 197.841 83.5094C197.573 83.7972 197.222 84.0034 196.791 84.128C196.359 84.2431 195.851 84.3007 195.266 84.3007ZM195.266 83.121C195.582 83.121 195.861 83.0922 196.1 83.0347C196.35 82.9772 196.556 82.8573 196.719 82.675C196.882 82.4832 197.007 82.2003 197.093 81.8263C197.179 81.4522 197.222 80.9583 197.222 80.3445C197.222 79.7307 197.179 79.2416 197.093 78.8771C197.007 78.5031 196.882 78.2249 196.719 78.0427C196.556 77.8605 196.35 77.7406 196.1 77.6831C195.861 77.6159 195.582 77.5824 195.266 77.5824C194.94 77.5824 194.652 77.6159 194.403 77.6831C194.163 77.7406 193.962 77.8605 193.799 78.0427C193.645 78.2249 193.525 78.5031 193.439 78.8771C193.362 79.2416 193.324 79.7307 193.324 80.3445C193.324 80.9583 193.362 81.4522 193.439 81.8263C193.525 82.2003 193.645 82.4832 193.799 82.675C193.962 82.8573 194.163 82.9772 194.403 83.0347C194.652 83.0922 194.94 83.121 195.266 83.121ZM200.419 84.2144V76.5178H201.57L201.857 77.3522C202.203 77.1028 202.61 76.8822 203.08 76.6904C203.56 76.489 204.054 76.3883 204.562 76.3883C205.137 76.3883 205.598 76.513 205.943 76.7624C206.298 77.0021 206.552 77.3234 206.705 77.7262C206.859 78.129 206.936 78.5654 206.936 79.0354V84.2144H205.497V79.208C205.497 78.9011 205.435 78.6373 205.31 78.4168C205.195 78.1866 205.032 78.0091 204.821 77.8845C204.61 77.7598 204.351 77.6975 204.044 77.6975C203.756 77.6975 203.488 77.7262 203.238 77.7838C202.999 77.8413 202.768 77.9228 202.548 78.0283C202.327 78.1242 202.097 78.2441 201.857 78.388V84.2144H200.419ZM211.566 84.2144C211.048 84.2144 210.616 84.1328 210.271 83.9698C209.935 83.7972 209.686 83.5238 209.523 83.1498C209.369 82.7757 209.297 82.277 209.307 81.6536L209.365 77.6975H208.142V76.7624L209.393 76.5178L209.609 74.3599H210.746V76.5178H212.832V77.6975H210.746V81.6392C210.746 81.9366 210.774 82.1763 210.832 82.3585C210.889 82.5408 210.971 82.6798 211.076 82.7757C211.182 82.8717 211.297 82.9436 211.422 82.9915C211.546 83.0299 211.666 83.0539 211.781 83.0635L212.731 83.1498V84.2144H211.566ZM214.285 84.2144V73.2378H215.724V77.3522C216.059 77.1028 216.467 76.8822 216.946 76.6904C217.426 76.489 217.92 76.3883 218.428 76.3883C218.984 76.3883 219.435 76.5034 219.78 76.7336C220.135 76.9638 220.394 77.2803 220.557 77.6831C220.72 78.0763 220.802 78.5223 220.802 79.021V84.2144H219.363V79.1936C219.363 78.8963 219.301 78.6373 219.176 78.4168C219.061 78.1866 218.893 78.0091 218.673 77.8845C218.462 77.7598 218.208 77.6975 217.91 77.6975C217.623 77.6975 217.354 77.7262 217.105 77.7838C216.865 77.8413 216.635 77.9228 216.414 78.0283C216.193 78.1338 215.963 78.2537 215.724 78.388V84.2144H214.285Z" fill="#878787"/>
<path d="M55.9548 119.062V107.836H57.4933V119.062H55.9548ZM59.6726 119.062V110.912H60.8911L61.1958 111.796C61.5614 111.532 61.9929 111.298 62.4905 111.095C62.9983 110.882 63.5213 110.775 64.0595 110.775C64.6688 110.775 65.1562 110.907 65.5218 111.171C65.8975 111.425 66.1666 111.765 66.3291 112.192C66.4916 112.618 66.5728 113.081 66.5728 113.578V119.062H65.0496V113.761C65.0496 113.436 64.9836 113.157 64.8515 112.923C64.7297 112.679 64.5571 112.492 64.3336 112.36C64.1102 112.228 63.8361 112.162 63.5111 112.162C63.2065 112.162 62.9221 112.192 62.6581 112.253C62.4042 112.314 62.1605 112.4 61.9269 112.512C61.6934 112.613 61.4497 112.74 61.1958 112.893V119.062H59.6726ZM71.4752 119.062C70.9269 119.062 70.4699 118.975 70.1043 118.803C69.7489 118.62 69.4849 118.331 69.3122 117.935C69.1498 117.539 69.0736 117.01 69.0838 116.35L69.1447 112.162H67.8499V111.171L69.1752 110.912L69.4036 108.628H70.607V110.912H72.8157V112.162H70.607V116.335C70.607 116.65 70.6375 116.904 70.6984 117.097C70.7593 117.29 70.8456 117.437 70.9573 117.539C71.069 117.64 71.1909 117.716 71.3229 117.767C71.4549 117.808 71.5819 117.833 71.7037 117.843L72.7091 117.935V119.062H71.4752ZM76.746 119.153C75.9844 119.153 75.3903 118.95 74.9638 118.544C74.5475 118.128 74.3393 117.498 74.3393 116.655V110.912H75.8625V116.244C75.8625 116.853 75.9996 117.264 76.2738 117.478C76.5581 117.691 76.9542 117.797 77.4619 117.797C77.8681 117.797 78.254 117.737 78.6196 117.615C78.9953 117.483 79.3609 117.305 79.7163 117.082V110.912H81.2395V119.062H80.0209L79.7163 118.194C79.3203 118.447 78.8633 118.671 78.3454 118.864C77.8376 119.057 77.3045 119.153 76.746 119.153ZM83.5525 109.542C83.3697 109.542 83.2783 109.455 83.2783 109.283V108.003C83.2783 107.82 83.3697 107.729 83.5525 107.729H84.6797C84.7609 107.729 84.8218 107.754 84.8624 107.805C84.9031 107.856 84.9234 107.922 84.9234 108.003V109.283C84.9234 109.455 84.8421 109.542 84.6797 109.542H83.5525ZM83.3392 119.062V110.912H84.8624V119.062H83.3392ZM89.8165 119.062C89.2682 119.062 88.8112 118.975 88.4456 118.803C88.0902 118.62 87.8262 118.331 87.6535 117.935C87.4911 117.539 87.4149 117.01 87.4251 116.35L87.486 112.162H86.1912V111.171L87.5164 110.912L87.7449 108.628H88.9483V110.912H91.157V112.162H88.9483V116.335C88.9483 116.65 88.9788 116.904 89.0397 117.097C89.1006 117.29 89.1869 117.437 89.2986 117.539C89.4103 117.64 89.5322 117.716 89.6642 117.767C89.7962 117.808 89.9232 117.833 90.045 117.843L91.0503 117.935V119.062H89.8165ZM92.909 109.542C92.7263 109.542 92.6349 109.455 92.6349 109.283V108.003C92.6349 107.82 92.7263 107.729 92.909 107.729H94.0362C94.1175 107.729 94.1784 107.754 94.219 107.805C94.2597 107.856 94.28 107.922 94.28 108.003V109.283C94.28 109.455 94.1987 109.542 94.0362 109.542H92.909ZM92.6958 119.062V110.912H94.219V119.062H92.6958ZM98.5029 119.062L95.5478 110.912H97.1167L99.4168 117.645L101.763 110.912H103.332L100.27 119.062H98.5029ZM107.572 119.153C106.709 119.153 106.018 119.026 105.5 118.772C104.993 118.518 104.627 118.092 104.404 117.493C104.191 116.884 104.084 116.046 104.084 114.979C104.084 113.893 104.191 113.05 104.404 112.451C104.627 111.842 104.993 111.415 105.5 111.171C106.008 110.928 106.694 110.806 107.557 110.806C108.308 110.806 108.913 110.887 109.37 111.05C109.837 111.202 110.177 111.481 110.39 111.887C110.613 112.283 110.725 112.837 110.725 113.548C110.725 114.045 110.624 114.441 110.421 114.736C110.228 115.03 109.948 115.244 109.583 115.376C109.227 115.508 108.801 115.574 108.303 115.574H105.607C105.617 116.163 105.683 116.635 105.805 116.99C105.937 117.335 106.166 117.589 106.491 117.752C106.826 117.904 107.313 117.98 107.953 117.98H110.497V118.894C110.06 118.955 109.613 119.011 109.156 119.062C108.699 119.123 108.171 119.153 107.572 119.153ZM105.592 114.614H108.166C108.572 114.614 108.872 114.538 109.065 114.385C109.258 114.233 109.354 113.954 109.354 113.548C109.354 113.141 109.293 112.822 109.171 112.588C109.06 112.354 108.872 112.187 108.608 112.085C108.344 111.984 107.994 111.933 107.557 111.933C107.059 111.933 106.663 112.009 106.369 112.162C106.084 112.314 105.881 112.583 105.759 112.969C105.648 113.355 105.592 113.903 105.592 114.614ZM112.965 120.311C112.833 120.311 112.716 120.296 112.615 120.265C112.523 120.245 112.477 120.235 112.477 120.235V119.762C112.599 119.762 112.686 119.742 112.736 119.702C112.797 119.661 112.828 119.59 112.828 119.488V118.97H112.691C112.62 118.97 112.559 118.945 112.508 118.894C112.457 118.843 112.432 118.772 112.432 118.681V117.523C112.432 117.32 112.518 117.219 112.691 117.219H113.544C113.645 117.219 113.711 117.249 113.742 117.31C113.782 117.361 113.803 117.432 113.803 117.523V119.443C113.803 119.686 113.757 119.869 113.666 119.991C113.584 120.123 113.478 120.209 113.346 120.25C113.214 120.291 113.087 120.311 112.965 120.311ZM121.397 119.062L119.021 110.912H120.59L122.372 117.645L124.291 110.912H125.586L127.506 117.645L129.212 110.912H130.78L128.435 119.062H126.744L124.916 113.015L123.058 119.062H121.397ZM135.124 119.153C134.504 119.153 133.966 119.087 133.509 118.955C133.062 118.823 132.692 118.605 132.397 118.3C132.103 117.985 131.884 117.559 131.742 117.021C131.6 116.482 131.529 115.802 131.529 114.979C131.529 114.126 131.6 113.431 131.742 112.893C131.884 112.344 132.103 111.918 132.397 111.613C132.692 111.309 133.067 111.1 133.524 110.989C133.981 110.867 134.514 110.806 135.124 110.806C135.733 110.806 136.266 110.867 136.723 110.989C137.18 111.11 137.556 111.324 137.85 111.628C138.145 111.933 138.363 112.36 138.505 112.908C138.647 113.446 138.719 114.137 138.719 114.979C138.719 115.812 138.647 116.503 138.505 117.051C138.363 117.589 138.145 118.011 137.85 118.315C137.566 118.62 137.195 118.838 136.738 118.97C136.281 119.092 135.743 119.153 135.124 119.153ZM135.124 117.904C135.459 117.904 135.753 117.874 136.007 117.813C136.271 117.752 136.49 117.625 136.662 117.432C136.835 117.229 136.967 116.929 137.058 116.533C137.15 116.137 137.195 115.614 137.195 114.964C137.195 114.314 137.15 113.796 137.058 113.411C136.967 113.015 136.835 112.72 136.662 112.527C136.49 112.334 136.271 112.207 136.007 112.146C135.753 112.075 135.459 112.04 135.124 112.04C134.778 112.04 134.474 112.075 134.21 112.146C133.956 112.207 133.743 112.334 133.57 112.527C133.408 112.72 133.281 113.015 133.189 113.411C133.108 113.796 133.067 114.314 133.067 114.964C133.067 115.614 133.108 116.137 133.189 116.533C133.281 116.929 133.408 117.229 133.57 117.432C133.743 117.625 133.956 117.752 134.21 117.813C134.474 117.874 134.778 117.904 135.124 117.904ZM140.58 119.062V110.912H141.752L142.103 112.283C142.448 111.867 142.834 111.517 143.26 111.232C143.687 110.948 144.184 110.806 144.753 110.806C144.885 110.806 145.012 110.816 145.134 110.836C145.256 110.846 145.373 110.867 145.484 110.897V112.466C145.342 112.446 145.195 112.431 145.043 112.42C144.89 112.4 144.733 112.39 144.57 112.39C144.225 112.39 143.915 112.431 143.641 112.512C143.367 112.593 143.103 112.72 142.849 112.893C142.605 113.055 142.357 113.258 142.103 113.502V119.062H140.58ZM149.186 119.077C148.688 119.077 148.267 118.991 147.922 118.818C147.587 118.645 147.333 118.371 147.16 117.996C146.998 117.61 146.916 117.092 146.916 116.442V107.439H148.44V116.244C148.44 116.67 148.48 117 148.561 117.234C148.653 117.457 148.775 117.615 148.927 117.706C149.09 117.797 149.277 117.858 149.491 117.889L150.252 117.98V119.077H149.186ZM154.134 119.153C153.473 119.153 152.925 119.011 152.488 118.727C152.062 118.442 151.742 118.001 151.529 117.401C151.316 116.792 151.209 116.01 151.209 115.056C151.209 114.05 151.305 113.238 151.498 112.618C151.701 111.989 152.026 111.532 152.473 111.248C152.92 110.953 153.524 110.806 154.286 110.806C154.712 110.806 155.134 110.852 155.55 110.943C155.977 111.034 156.347 111.136 156.662 111.248V107.439H158.185V119.062H156.936L156.662 118.254C156.5 118.397 156.276 118.539 155.992 118.681C155.708 118.813 155.403 118.925 155.078 119.016C154.753 119.107 154.438 119.153 154.134 119.153ZM154.621 117.904C155.037 117.904 155.413 117.838 155.748 117.706C156.093 117.574 156.398 117.437 156.662 117.295V112.344C156.347 112.253 156.038 112.172 155.733 112.101C155.438 112.019 155.108 111.979 154.743 111.979C154.266 111.979 153.88 112.065 153.585 112.238C153.291 112.41 153.077 112.715 152.945 113.152C152.813 113.588 152.747 114.198 152.747 114.979C152.747 115.7 152.808 116.279 152.93 116.716C153.052 117.142 153.25 117.447 153.524 117.63C153.809 117.813 154.174 117.904 154.621 117.904ZM159.574 115.269V114.02H164.098V115.269H159.574ZM168.557 119.153C168.079 119.153 167.638 119.092 167.231 118.97C166.835 118.838 166.485 118.62 166.18 118.315C165.886 118.011 165.657 117.589 165.495 117.051C165.333 116.513 165.251 115.833 165.251 115.01C165.251 114.167 165.327 113.477 165.48 112.938C165.632 112.39 165.85 111.963 166.135 111.659C166.429 111.344 166.785 111.126 167.201 111.004C167.617 110.882 168.084 110.821 168.602 110.821C169.029 110.821 169.476 110.841 169.943 110.882C170.42 110.923 170.882 110.989 171.329 111.08V111.979H169.029C168.531 111.979 168.115 112.06 167.78 112.222C167.445 112.375 167.196 112.674 167.033 113.121C166.871 113.558 166.79 114.192 166.79 115.025C166.79 115.827 166.876 116.447 167.049 116.884C167.221 117.31 167.47 117.599 167.795 117.752C168.13 117.904 168.547 117.98 169.044 117.98H171.451V118.849C171.217 118.909 170.938 118.965 170.613 119.016C170.298 119.057 169.963 119.087 169.608 119.107C169.262 119.138 168.912 119.153 168.557 119.153ZM175.262 119.077C174.765 119.077 174.343 118.991 173.998 118.818C173.663 118.645 173.409 118.371 173.237 117.996C173.074 117.61 172.993 117.092 172.993 116.442V107.439H174.516V116.244C174.516 116.67 174.557 117 174.638 117.234C174.729 117.457 174.851 117.615 175.004 117.706C175.166 117.797 175.354 117.858 175.567 117.889L176.329 117.98V119.077H175.262ZM179.189 119.153C178.59 119.153 178.093 118.975 177.697 118.62C177.311 118.254 177.118 117.752 177.118 117.112V116.472C177.118 115.843 177.331 115.33 177.758 114.934C178.194 114.528 178.849 114.325 179.723 114.325H182.266V113.471C182.266 113.157 182.211 112.893 182.099 112.679C181.997 112.456 181.804 112.288 181.52 112.177C181.236 112.065 180.814 112.009 180.256 112.009H177.758V111.11C178.123 111.029 178.55 110.958 179.037 110.897C179.535 110.836 180.114 110.801 180.774 110.791C181.444 110.791 182.002 110.877 182.449 111.05C182.906 111.212 183.246 111.486 183.47 111.872C183.693 112.248 183.805 112.75 183.805 113.38V119.062H182.601L182.343 118.163C182.282 118.204 182.155 118.28 181.962 118.392C181.769 118.493 181.52 118.605 181.215 118.727C180.921 118.849 180.596 118.95 180.24 119.031C179.895 119.113 179.545 119.153 179.189 119.153ZM179.89 118.041C180.042 118.051 180.22 118.036 180.423 117.996C180.637 117.955 180.845 117.909 181.048 117.858C181.261 117.797 181.454 117.737 181.627 117.676C181.809 117.615 181.957 117.564 182.068 117.523C182.19 117.473 182.256 117.442 182.266 117.432V115.086L180.134 115.178C179.606 115.208 179.225 115.34 178.991 115.574C178.768 115.807 178.656 116.112 178.656 116.488V116.853C178.656 117.148 178.717 117.386 178.839 117.569C178.961 117.742 179.113 117.863 179.296 117.935C179.489 118.006 179.687 118.041 179.89 118.041ZM188.723 119.153C188.51 119.153 188.256 119.148 187.962 119.138C187.667 119.128 187.363 119.107 187.048 119.077C186.743 119.057 186.459 119.031 186.195 119.001C185.941 118.97 185.738 118.935 185.586 118.894V117.98H189.013C189.307 117.98 189.561 117.96 189.774 117.919C189.988 117.869 190.15 117.767 190.262 117.615C190.384 117.462 190.445 117.239 190.445 116.944V116.609C190.445 116.305 190.343 116.066 190.14 115.893C189.937 115.721 189.602 115.634 189.135 115.634H187.947C187.469 115.634 187.043 115.574 186.667 115.452C186.301 115.32 186.012 115.101 185.799 114.797C185.596 114.492 185.494 114.081 185.494 113.563V113.121C185.494 112.603 185.591 112.177 185.784 111.842C185.987 111.507 186.307 111.258 186.743 111.095C187.18 110.923 187.759 110.836 188.48 110.836C188.784 110.836 189.119 110.852 189.485 110.882C189.861 110.902 190.226 110.933 190.582 110.973C190.937 111.014 191.221 111.06 191.435 111.11V112.024H188.205C187.759 112.024 187.413 112.101 187.17 112.253C186.936 112.405 186.819 112.695 186.819 113.121V113.426C186.819 113.69 186.875 113.893 186.987 114.035C187.099 114.177 187.256 114.269 187.459 114.309C187.672 114.35 187.921 114.37 188.205 114.37H189.424C190.196 114.37 190.78 114.553 191.176 114.919C191.572 115.274 191.77 115.777 191.77 116.427V117.051C191.77 117.599 191.643 118.026 191.389 118.331C191.135 118.635 190.78 118.849 190.323 118.97C189.876 119.092 189.343 119.153 188.723 119.153ZM196.354 119.153C196.141 119.153 195.887 119.148 195.593 119.138C195.298 119.128 194.994 119.107 194.679 119.077C194.374 119.057 194.09 119.031 193.826 119.001C193.572 118.97 193.369 118.935 193.217 118.894V117.98H196.644C196.938 117.98 197.192 117.96 197.405 117.919C197.619 117.869 197.781 117.767 197.893 117.615C198.015 117.462 198.076 117.239 198.076 116.944V116.609C198.076 116.305 197.974 116.066 197.771 115.893C197.568 115.721 197.233 115.634 196.766 115.634H195.578C195.1 115.634 194.674 115.574 194.298 115.452C193.932 115.32 193.643 115.101 193.43 114.797C193.227 114.492 193.125 114.081 193.125 113.563V113.121C193.125 112.603 193.222 112.177 193.415 111.842C193.618 111.507 193.938 111.258 194.374 111.095C194.811 110.923 195.39 110.836 196.111 110.836C196.415 110.836 196.75 110.852 197.116 110.882C197.492 110.902 197.857 110.933 198.213 110.973C198.568 111.014 198.853 111.06 199.066 111.11V112.024H195.837C195.39 112.024 195.044 112.101 194.801 112.253C194.567 112.405 194.45 112.695 194.45 113.121V113.426C194.45 113.69 194.506 113.893 194.618 114.035C194.73 114.177 194.887 114.269 195.09 114.309C195.303 114.35 195.552 114.37 195.837 114.37H197.055C197.827 114.37 198.411 114.553 198.807 114.919C199.203 115.274 199.401 115.777 199.401 116.427V117.051C199.401 117.599 199.274 118.026 199.02 118.331C198.766 118.635 198.411 118.849 197.954 118.97C197.507 119.092 196.974 119.153 196.354 119.153ZM208.032 119.153C207.818 119.153 207.564 119.148 207.27 119.138C206.975 119.128 206.671 119.107 206.356 119.077C206.051 119.057 205.767 119.031 205.503 119.001C205.249 118.97 205.046 118.935 204.894 118.894V117.98H208.321C208.615 117.98 208.869 117.96 209.083 117.919C209.296 117.869 209.458 117.767 209.57 117.615C209.692 117.462 209.753 117.239 209.753 116.944V116.609C209.753 116.305 209.651 116.066 209.448 115.893C209.245 115.721 208.91 115.634 208.443 115.634H207.255C206.777 115.634 206.351 115.574 205.975 115.452C205.61 115.32 205.32 115.101 205.107 114.797C204.904 114.492 204.802 114.081 204.802 113.563V113.121C204.802 112.603 204.899 112.177 205.092 111.842C205.295 111.507 205.615 111.258 206.051 111.095C206.488 110.923 207.067 110.836 207.788 110.836C208.092 110.836 208.428 110.852 208.793 110.882C209.169 110.902 209.534 110.933 209.89 110.973C210.245 111.014 210.53 111.06 210.743 111.11V112.024H207.514C207.067 112.024 206.722 112.101 206.478 112.253C206.244 112.405 206.127 112.695 206.127 113.121V113.426C206.127 113.69 206.183 113.893 206.295 114.035C206.407 114.177 206.564 114.269 206.767 114.309C206.981 114.35 207.229 114.37 207.514 114.37H208.732C209.504 114.37 210.088 114.553 210.484 114.919C210.88 115.274 211.078 115.777 211.078 116.427V117.051C211.078 117.599 210.951 118.026 210.697 118.331C210.443 118.635 210.088 118.849 209.631 118.97C209.184 119.092 208.651 119.153 208.032 119.153ZM215.206 119.153C214.444 119.153 213.85 118.95 213.423 118.544C213.007 118.128 212.799 117.498 212.799 116.655V110.912H214.322V116.244C214.322 116.853 214.459 117.264 214.733 117.478C215.018 117.691 215.414 117.797 215.922 117.797C216.328 117.797 216.714 117.737 217.079 117.615C217.455 117.483 217.82 117.305 218.176 117.082V110.912H219.699V119.062H218.481L218.176 118.194C217.78 118.447 217.323 118.671 216.805 118.864C216.297 119.057 215.764 119.153 215.206 119.153ZM221.799 122.672V110.912H223.048L223.322 111.735C223.515 111.593 223.744 111.451 224.008 111.309C224.282 111.166 224.576 111.05 224.891 110.958C225.216 110.857 225.541 110.806 225.866 110.806C226.384 110.806 226.826 110.912 227.191 111.126C227.567 111.339 227.871 111.639 228.105 112.024C228.339 112.4 228.506 112.842 228.608 113.35C228.719 113.857 228.775 114.401 228.775 114.979C228.775 115.883 228.674 116.65 228.471 117.28C228.278 117.899 227.968 118.371 227.541 118.696C227.125 119.011 226.567 119.168 225.866 119.168C225.439 119.168 225.003 119.107 224.556 118.986C224.109 118.854 223.698 118.681 223.322 118.468V122.672H221.799ZM225.409 117.889C225.754 117.889 226.064 117.803 226.338 117.63C226.612 117.457 226.831 117.163 226.993 116.746C227.166 116.32 227.252 115.731 227.252 114.979C227.252 114.269 227.166 113.7 226.993 113.273C226.82 112.837 226.597 112.527 226.323 112.344C226.049 112.151 225.749 112.055 225.424 112.055C224.998 112.055 224.607 112.121 224.251 112.253C223.906 112.385 223.596 112.522 223.322 112.664V117.31C223.637 117.483 223.972 117.625 224.327 117.737C224.693 117.838 225.053 117.889 225.409 117.889ZM230.635 122.672V110.912H231.884L232.158 111.735C232.351 111.593 232.579 111.451 232.843 111.309C233.118 111.166 233.412 111.05 233.727 110.958C234.052 110.857 234.377 110.806 234.702 110.806C235.22 110.806 235.661 110.912 236.027 111.126C236.403 111.339 236.707 111.639 236.941 112.024C237.175 112.4 237.342 112.842 237.444 113.35C237.555 113.857 237.611 114.401 237.611 114.979C237.611 115.883 237.51 116.65 237.307 117.28C237.114 117.899 236.804 118.371 236.377 118.696C235.961 119.011 235.403 119.168 234.702 119.168C234.275 119.168 233.839 119.107 233.392 118.986C232.945 118.854 232.534 118.681 232.158 118.468V122.672H230.635ZM234.245 117.889C234.59 117.889 234.9 117.803 235.174 117.63C235.448 117.457 235.667 117.163 235.829 116.746C236.002 116.32 236.088 115.731 236.088 114.979C236.088 114.269 236.002 113.7 235.829 113.273C235.656 112.837 235.433 112.527 235.159 112.344C234.885 112.151 234.585 112.055 234.26 112.055C233.834 112.055 233.443 112.121 233.087 112.253C232.742 112.385 232.432 112.522 232.158 112.664V117.31C232.473 117.483 232.808 117.625 233.163 117.737C233.529 117.838 233.889 117.889 234.245 117.889ZM242.791 119.153C242.172 119.153 241.634 119.087 241.177 118.955C240.73 118.823 240.359 118.605 240.065 118.3C239.77 117.985 239.552 117.559 239.41 117.021C239.268 116.482 239.197 115.802 239.197 114.979C239.197 114.126 239.268 113.431 239.41 112.893C239.552 112.344 239.77 111.918 240.065 111.613C240.359 111.309 240.735 111.1 241.192 110.989C241.649 110.867 242.182 110.806 242.791 110.806C243.401 110.806 243.934 110.867 244.391 110.989C244.848 111.11 245.223 111.324 245.518 111.628C245.812 111.933 246.031 112.36 246.173 112.908C246.315 113.446 246.386 114.137 246.386 114.979C246.386 115.812 246.315 116.503 246.173 117.051C246.031 117.589 245.812 118.011 245.518 118.315C245.234 118.62 244.863 118.838 244.406 118.97C243.949 119.092 243.411 119.153 242.791 119.153ZM242.791 117.904C243.127 117.904 243.421 117.874 243.675 117.813C243.939 117.752 244.157 117.625 244.33 117.432C244.502 117.229 244.635 116.929 244.726 116.533C244.817 116.137 244.863 115.614 244.863 114.964C244.863 114.314 244.817 113.796 244.726 113.411C244.635 113.015 244.502 112.72 244.33 112.527C244.157 112.334 243.939 112.207 243.675 112.146C243.421 112.075 243.127 112.04 242.791 112.04C242.446 112.04 242.141 112.075 241.877 112.146C241.624 112.207 241.41 112.334 241.238 112.527C241.075 112.72 240.948 113.015 240.857 113.411C240.776 113.796 240.735 114.314 240.735 114.964C240.735 115.614 240.776 116.137 240.857 116.533C240.948 116.929 241.075 117.229 241.238 117.432C241.41 117.625 241.624 117.752 241.877 117.813C242.141 117.874 242.446 117.904 242.791 117.904ZM248.247 119.062V110.912H249.42L249.77 112.283C250.116 111.867 250.502 111.517 250.928 111.232C251.355 110.948 251.852 110.806 252.421 110.806C252.553 110.806 252.68 110.816 252.802 110.836C252.924 110.846 253.04 110.867 253.152 110.897V112.466C253.01 112.446 252.863 112.431 252.71 112.42C252.558 112.4 252.401 112.39 252.238 112.39C251.893 112.39 251.583 112.431 251.309 112.512C251.035 112.593 250.771 112.72 250.517 112.893C250.273 113.055 250.024 113.258 249.77 113.502V119.062H248.247ZM257.551 119.062C257.002 119.062 256.545 118.975 256.18 118.803C255.824 118.62 255.56 118.331 255.388 117.935C255.225 117.539 255.149 117.01 255.159 116.35L255.22 112.162H253.926V111.171L255.251 110.912L255.479 108.628H256.683V110.912H258.891V112.162H256.683V116.335C256.683 116.65 256.713 116.904 256.774 117.097C256.835 117.29 256.921 117.437 257.033 117.539C257.145 117.64 257.266 117.716 257.398 117.767C257.531 117.808 257.657 117.833 257.779 117.843L258.785 117.935V119.062H257.551ZM75.9899 141.062C75.4415 141.062 74.9846 140.975 74.619 140.803C74.2636 140.62 73.9995 140.331 73.8269 139.935C73.6644 139.539 73.5883 139.01 73.5984 138.35L73.6594 134.162H72.3646V133.171L73.6898 132.912L73.9183 130.628H75.1217V132.912H77.3303V134.162H75.1217V138.335C75.1217 138.65 75.1521 138.904 75.2131 139.097C75.274 139.29 75.3603 139.437 75.472 139.539C75.5837 139.64 75.7056 139.716 75.8376 139.767C75.9696 139.808 76.0965 139.833 76.2184 139.843L77.2237 139.935V141.062H75.9899ZM82.1898 141.153C81.5704 141.153 81.0322 141.087 80.5752 140.955C80.1284 140.823 79.7577 140.605 79.4632 140.3C79.1687 139.985 78.9504 139.559 78.8082 139.021C78.6661 138.482 78.595 137.802 78.595 136.979C78.595 136.126 78.6661 135.431 78.8082 134.893C78.9504 134.344 79.1687 133.918 79.4632 133.613C79.7577 133.309 80.1335 133.1 80.5904 132.989C81.0474 132.867 81.5805 132.806 82.1898 132.806C82.7991 132.806 83.3322 132.867 83.7892 132.989C84.2462 133.11 84.6219 133.324 84.9164 133.628C85.2109 133.933 85.4292 134.36 85.5714 134.908C85.7136 135.446 85.7847 136.137 85.7847 136.979C85.7847 137.812 85.7136 138.503 85.5714 139.051C85.4292 139.589 85.2109 140.011 84.9164 140.315C84.6321 140.62 84.2614 140.838 83.8045 140.97C83.3475 141.092 82.8093 141.153 82.1898 141.153ZM82.1898 139.904C82.5249 139.904 82.8194 139.874 83.0733 139.813C83.3373 139.752 83.5557 139.625 83.7283 139.432C83.9009 139.229 84.0329 138.929 84.1243 138.533C84.2157 138.137 84.2614 137.614 84.2614 136.964C84.2614 136.314 84.2157 135.796 84.1243 135.411C84.0329 135.015 83.9009 134.72 83.7283 134.527C83.5557 134.334 83.3373 134.207 83.0733 134.146C82.8194 134.075 82.5249 134.04 82.1898 134.04C81.8446 134.04 81.5399 134.075 81.2759 134.146C81.022 134.207 80.8088 134.334 80.6361 134.527C80.4736 134.72 80.3467 135.015 80.2553 135.411C80.1741 135.796 80.1335 136.314 80.1335 136.964C80.1335 137.614 80.1741 138.137 80.2553 138.533C80.3467 138.929 80.4736 139.229 80.6361 139.432C80.8088 139.625 81.022 139.752 81.2759 139.813C81.5399 139.874 81.8446 139.904 82.1898 139.904ZM90.9663 141.153C90.3468 141.153 89.8086 141.087 89.3516 140.955C88.9048 140.823 88.5342 140.605 88.2397 140.3C87.9452 139.985 87.7269 139.559 87.5847 139.021C87.4425 138.482 87.3714 137.802 87.3714 136.979C87.3714 136.126 87.4425 135.431 87.5847 134.893C87.7269 134.344 87.9452 133.918 88.2397 133.613C88.5342 133.309 88.9099 133.1 89.3669 132.989C89.8238 132.867 90.357 132.806 90.9663 132.806C91.5756 132.806 92.1087 132.867 92.5657 132.989C93.0226 133.11 93.3984 133.324 93.6929 133.628C93.9874 133.933 94.2057 134.36 94.3478 134.908C94.49 135.446 94.5611 136.137 94.5611 136.979C94.5611 137.812 94.49 138.503 94.3478 139.051C94.2057 139.589 93.9874 140.011 93.6929 140.315C93.4085 140.62 93.0379 140.838 92.5809 140.97C92.1239 141.092 91.5857 141.153 90.9663 141.153ZM90.9663 139.904C91.3014 139.904 91.5959 139.874 91.8497 139.813C92.1138 139.752 92.3321 139.625 92.5047 139.432C92.6774 139.229 92.8094 138.929 92.9008 138.533C92.9922 138.137 93.0379 137.614 93.0379 136.964C93.0379 136.314 92.9922 135.796 92.9008 135.411C92.8094 135.015 92.6774 134.72 92.5047 134.527C92.3321 134.334 92.1138 134.207 91.8497 134.146C91.5959 134.075 91.3014 134.04 90.9663 134.04C90.621 134.04 90.3164 134.075 90.0523 134.146C89.7985 134.207 89.5852 134.334 89.4126 134.527C89.2501 134.72 89.1232 135.015 89.0318 135.411C88.9505 135.796 88.9099 136.314 88.9099 136.964C88.9099 137.614 88.9505 138.137 89.0318 138.533C89.1232 138.929 89.2501 139.229 89.4126 139.432C89.5852 139.625 89.7985 139.752 90.0523 139.813C90.3164 139.874 90.621 139.904 90.9663 139.904ZM98.6917 141.077C98.1941 141.077 97.7727 140.991 97.4274 140.818C97.0923 140.645 96.8384 140.371 96.6658 139.996C96.5033 139.61 96.4221 139.092 96.4221 138.442V129.439H97.9453V138.244C97.9453 138.67 97.9859 139 98.0672 139.234C98.1586 139.457 98.2804 139.615 98.4327 139.706C98.5952 139.797 98.7831 139.858 98.9963 139.889L99.758 139.98V141.077H98.6917ZM103.837 141.153C103.624 141.153 103.37 141.148 103.076 141.138C102.781 141.128 102.476 141.107 102.162 141.077C101.857 141.057 101.573 141.031 101.309 141.001C101.055 140.97 100.852 140.935 100.699 140.894V139.98H104.127C104.421 139.98 104.675 139.96 104.888 139.919C105.102 139.869 105.264 139.767 105.376 139.615C105.498 139.462 105.558 139.239 105.558 138.944V138.609C105.558 138.305 105.457 138.066 105.254 137.893C105.051 137.721 104.716 137.634 104.249 137.634H103.06C102.583 137.634 102.157 137.574 101.781 137.452C101.415 137.32 101.126 137.101 100.913 136.797C100.71 136.492 100.608 136.081 100.608 135.563V135.121C100.608 134.603 100.704 134.177 100.897 133.842C101.1 133.507 101.42 133.258 101.857 133.095C102.294 132.923 102.873 132.836 103.594 132.836C103.898 132.836 104.233 132.852 104.599 132.882C104.975 132.902 105.34 132.933 105.696 132.973C106.051 133.014 106.335 133.06 106.549 133.11V134.024H103.319C102.873 134.024 102.527 134.101 102.284 134.253C102.05 134.405 101.933 134.695 101.933 135.121V135.426C101.933 135.69 101.989 135.893 102.101 136.035C102.212 136.177 102.37 136.269 102.573 136.309C102.786 136.35 103.035 136.37 103.319 136.37H104.538C105.31 136.37 105.894 136.553 106.29 136.919C106.686 137.274 106.884 137.777 106.884 138.427V139.051C106.884 139.599 106.757 140.026 106.503 140.331C106.249 140.635 105.894 140.849 105.437 140.97C104.99 141.092 104.457 141.153 103.837 141.153ZM113.153 141.062V134.162H111.935V133.171L113.153 132.912V132.105C113.153 131.496 113.23 130.988 113.382 130.582C113.534 130.166 113.788 129.856 114.143 129.653C114.499 129.45 114.986 129.348 115.606 129.348C115.961 129.348 116.266 129.368 116.52 129.409C116.784 129.45 117.012 129.485 117.205 129.516V130.612H115.88C115.555 130.612 115.306 130.663 115.134 130.765C114.961 130.866 114.839 131.024 114.768 131.237C114.707 131.45 114.677 131.714 114.677 132.029V132.912H117.068V134.162H114.677V141.062H113.153ZM121.699 141.153C121.079 141.153 120.541 141.087 120.084 140.955C119.637 140.823 119.267 140.605 118.972 140.3C118.678 139.985 118.459 139.559 118.317 139.021C118.175 138.482 118.104 137.802 118.104 136.979C118.104 136.126 118.175 135.431 118.317 134.893C118.459 134.344 118.678 133.918 118.972 133.613C119.267 133.309 119.642 133.1 120.099 132.989C120.556 132.867 121.089 132.806 121.699 132.806C122.308 132.806 122.841 132.867 123.298 132.989C123.755 133.11 124.131 133.324 124.425 133.628C124.72 133.933 124.938 134.36 125.08 134.908C125.222 135.446 125.294 136.137 125.294 136.979C125.294 137.812 125.222 138.503 125.08 139.051C124.938 139.589 124.72 140.011 124.425 140.315C124.141 140.62 123.77 140.838 123.313 140.97C122.856 141.092 122.318 141.153 121.699 141.153ZM121.699 139.904C122.034 139.904 122.328 139.874 122.582 139.813C122.846 139.752 123.065 139.625 123.237 139.432C123.41 139.229 123.542 138.929 123.633 138.533C123.725 138.137 123.77 137.614 123.77 136.964C123.77 136.314 123.725 135.796 123.633 135.411C123.542 135.015 123.41 134.72 123.237 134.527C123.065 134.334 122.846 134.207 122.582 134.146C122.328 134.075 122.034 134.04 121.699 134.04C121.353 134.04 121.049 134.075 120.785 134.146C120.531 134.207 120.318 134.334 120.145 134.527C119.983 134.72 119.856 135.015 119.764 135.411C119.683 135.796 119.642 136.314 119.642 136.964C119.642 137.614 119.683 138.137 119.764 138.533C119.856 138.929 119.983 139.229 120.145 139.432C120.318 139.625 120.531 139.752 120.785 139.813C121.049 139.874 121.353 139.904 121.699 139.904ZM127.155 141.062V132.912H128.327L128.678 134.283C129.023 133.867 129.409 133.517 129.835 133.232C130.262 132.948 130.759 132.806 131.328 132.806C131.46 132.806 131.587 132.816 131.709 132.836C131.831 132.846 131.948 132.867 132.059 132.897V134.466C131.917 134.446 131.77 134.431 131.618 134.42C131.465 134.4 131.308 134.39 131.145 134.39C130.8 134.39 130.49 134.431 130.216 134.512C129.942 134.593 129.678 134.72 129.424 134.893C129.18 135.055 128.932 135.258 128.678 135.502V141.062H127.155ZM139.563 144.809C139.045 144.809 138.583 144.733 138.177 144.58C137.781 144.438 137.466 144.215 137.233 143.91C136.999 143.616 136.883 143.25 136.883 142.813V142.478C136.883 142.021 137.009 141.636 137.263 141.321C137.527 141.016 137.857 140.783 138.253 140.62C138.649 140.458 139.061 140.376 139.487 140.376L139.899 140.94C139.624 140.94 139.365 140.981 139.122 141.062C138.888 141.153 138.695 141.29 138.543 141.473C138.401 141.666 138.33 141.91 138.33 142.204V142.494C138.33 142.92 138.472 143.23 138.756 143.423C139.051 143.616 139.452 143.712 139.959 143.712H141.742C142.28 143.712 142.706 143.606 143.021 143.392C143.336 143.189 143.493 142.869 143.493 142.433V142.143C143.493 141.9 143.437 141.686 143.326 141.504C143.224 141.321 143.057 141.179 142.823 141.077C142.59 140.986 142.27 140.94 141.863 140.94H139.609C138.888 140.94 138.34 140.793 137.964 140.498C137.588 140.204 137.4 139.833 137.4 139.386C137.4 138.98 137.517 138.655 137.751 138.411C137.994 138.157 138.335 137.985 138.771 137.893C138.406 137.731 138.116 137.523 137.903 137.269C137.7 137.015 137.558 136.741 137.477 136.446C137.395 136.142 137.355 135.837 137.355 135.532C137.355 134.913 137.482 134.41 137.736 134.024C137.989 133.639 138.355 133.354 138.832 133.171C139.32 132.989 139.899 132.897 140.569 132.897H144.956V133.765L143.295 133.933C143.417 134.024 143.549 134.146 143.691 134.299C143.834 134.441 143.955 134.639 144.057 134.893C144.158 135.147 144.209 135.482 144.209 135.898C144.209 136.335 144.113 136.741 143.92 137.117C143.737 137.492 143.432 137.797 143.006 138.031C142.59 138.264 142.021 138.381 141.3 138.381H139.959C139.574 138.381 139.269 138.437 139.045 138.548C138.822 138.66 138.71 138.858 138.71 139.142C138.71 139.376 138.797 139.539 138.969 139.63C139.142 139.721 139.325 139.767 139.518 139.767H142.092C142.711 139.767 143.229 139.848 143.646 140.011C144.072 140.173 144.392 140.422 144.605 140.757C144.819 141.092 144.925 141.529 144.925 142.067V142.357C144.925 143.128 144.671 143.727 144.164 144.154C143.666 144.591 142.909 144.809 141.894 144.809H139.563ZM140.234 137.208H141.132C141.589 137.208 141.935 137.142 142.168 137.01C142.412 136.868 142.579 136.685 142.671 136.462C142.762 136.238 142.808 135.989 142.808 135.715C142.808 135.309 142.742 134.989 142.61 134.756C142.478 134.512 142.295 134.339 142.062 134.238C141.838 134.126 141.564 134.07 141.239 134.07H140.386C139.868 134.07 139.462 134.187 139.167 134.42C138.883 134.654 138.741 135.055 138.741 135.624C138.741 136.182 138.873 136.589 139.137 136.842C139.401 137.086 139.766 137.208 140.234 137.208ZM146.344 141.062V132.912H147.517L147.867 134.283C148.212 133.867 148.598 133.517 149.025 133.232C149.451 132.948 149.949 132.806 150.517 132.806C150.649 132.806 150.776 132.816 150.898 132.836C151.02 132.846 151.137 132.867 151.249 132.897V134.466C151.106 134.446 150.959 134.431 150.807 134.42C150.654 134.4 150.497 134.39 150.335 134.39C149.989 134.39 149.68 134.431 149.405 134.512C149.131 134.593 148.867 134.72 148.613 134.893C148.37 135.055 148.121 135.258 147.867 135.502V141.062H146.344ZM156.001 141.153C155.382 141.153 154.844 141.087 154.387 140.955C153.94 140.823 153.569 140.605 153.275 140.3C152.98 139.985 152.762 139.559 152.62 139.021C152.477 138.482 152.406 137.802 152.406 136.979C152.406 136.126 152.477 135.431 152.62 134.893C152.762 134.344 152.98 133.918 153.275 133.613C153.569 133.309 153.945 133.1 154.402 132.989C154.859 132.867 155.392 132.806 156.001 132.806C156.611 132.806 157.144 132.867 157.601 132.989C158.058 133.11 158.433 133.324 158.728 133.628C159.022 133.933 159.241 134.36 159.383 134.908C159.525 135.446 159.596 136.137 159.596 136.979C159.596 137.812 159.525 138.503 159.383 139.051C159.241 139.589 159.022 140.011 158.728 140.315C158.443 140.62 158.073 140.838 157.616 140.97C157.159 141.092 156.621 141.153 156.001 141.153ZM156.001 139.904C156.336 139.904 156.631 139.874 156.885 139.813C157.149 139.752 157.367 139.625 157.54 139.432C157.712 139.229 157.844 138.929 157.936 138.533C158.027 138.137 158.073 137.614 158.073 136.964C158.073 136.314 158.027 135.796 157.936 135.411C157.844 135.015 157.712 134.72 157.54 134.527C157.367 134.334 157.149 134.207 156.885 134.146C156.631 134.075 156.336 134.04 156.001 134.04C155.656 134.04 155.351 134.075 155.087 134.146C154.833 134.207 154.62 134.334 154.448 134.527C154.285 134.72 154.158 135.015 154.067 135.411C153.985 135.796 153.945 136.314 153.945 136.964C153.945 137.614 153.985 138.137 154.067 138.533C154.158 138.929 154.285 139.229 154.448 139.432C154.62 139.625 154.833 139.752 155.087 139.813C155.351 139.874 155.656 139.904 156.001 139.904ZM162.728 141.062L160.352 132.912H161.921L163.703 139.645L165.623 132.912H166.917L168.837 139.645L170.543 132.912H172.112L169.766 141.062H168.075L166.247 135.015L164.389 141.062H162.728ZM173.645 131.542C173.462 131.542 173.371 131.455 173.371 131.283V130.003C173.371 129.82 173.462 129.729 173.645 129.729H174.772C174.853 129.729 174.914 129.754 174.955 129.805C174.996 129.856 175.016 129.922 175.016 130.003V131.283C175.016 131.455 174.935 131.542 174.772 131.542H173.645ZM173.432 141.062V132.912H174.955V141.062H173.432ZM177.091 141.062V132.912H178.31L178.614 133.796C178.98 133.532 179.411 133.298 179.909 133.095C180.417 132.882 180.94 132.775 181.478 132.775C182.087 132.775 182.575 132.907 182.94 133.171C183.316 133.425 183.585 133.765 183.748 134.192C183.91 134.618 183.991 135.081 183.991 135.578V141.062H182.468V135.761C182.468 135.436 182.402 135.157 182.27 134.923C182.148 134.679 181.976 134.492 181.752 134.36C181.529 134.228 181.255 134.162 180.93 134.162C180.625 134.162 180.341 134.192 180.077 134.253C179.823 134.314 179.579 134.4 179.345 134.512C179.112 134.613 178.868 134.74 178.614 134.893V141.062H177.091ZM188.102 144.809C187.584 144.809 187.122 144.733 186.715 144.58C186.319 144.438 186.005 144.215 185.771 143.91C185.538 143.616 185.421 143.25 185.421 142.813V142.478C185.421 142.021 185.548 141.636 185.802 141.321C186.066 141.016 186.396 140.783 186.792 140.62C187.188 140.458 187.599 140.376 188.025 140.376L188.437 140.94C188.163 140.94 187.904 140.981 187.66 141.062C187.426 141.153 187.233 141.29 187.081 141.473C186.939 141.666 186.868 141.91 186.868 142.204V142.494C186.868 142.92 187.01 143.23 187.294 143.423C187.589 143.616 187.99 143.712 188.498 143.712H190.28C190.818 143.712 191.245 143.606 191.559 143.392C191.874 143.189 192.032 142.869 192.032 142.433V142.143C192.032 141.9 191.976 141.686 191.864 141.504C191.762 141.321 191.595 141.179 191.361 141.077C191.128 140.986 190.808 140.94 190.402 140.94H188.147C187.426 140.94 186.878 140.793 186.502 140.498C186.126 140.204 185.939 139.833 185.939 139.386C185.939 138.98 186.055 138.655 186.289 138.411C186.533 138.157 186.873 137.985 187.31 137.893C186.944 137.731 186.655 137.523 186.441 137.269C186.238 137.015 186.096 136.741 186.015 136.446C185.934 136.142 185.893 135.837 185.893 135.532C185.893 134.913 186.02 134.41 186.274 134.024C186.528 133.639 186.893 133.354 187.37 133.171C187.858 132.989 188.437 132.897 189.107 132.897H193.494V133.765L191.834 133.933C191.955 134.024 192.087 134.146 192.23 134.299C192.372 134.441 192.494 134.639 192.595 134.893C192.697 135.147 192.747 135.482 192.747 135.898C192.747 136.335 192.651 136.741 192.458 137.117C192.275 137.492 191.971 137.797 191.544 138.031C191.128 138.264 190.559 138.381 189.838 138.381H188.498C188.112 138.381 187.807 138.437 187.584 138.548C187.36 138.66 187.249 138.858 187.249 139.142C187.249 139.376 187.335 139.539 187.508 139.63C187.68 139.721 187.863 139.767 188.056 139.767H190.63C191.25 139.767 191.768 139.848 192.184 140.011C192.61 140.173 192.93 140.422 193.144 140.757C193.357 141.092 193.463 141.529 193.463 142.067V142.357C193.463 143.128 193.21 143.727 192.702 144.154C192.204 144.591 191.448 144.809 190.432 144.809H188.102ZM188.772 137.208H189.671C190.128 137.208 190.473 137.142 190.706 137.01C190.95 136.868 191.118 136.685 191.209 136.462C191.3 136.238 191.346 135.989 191.346 135.715C191.346 135.309 191.28 134.989 191.148 134.756C191.016 134.512 190.833 134.339 190.6 134.238C190.376 134.126 190.102 134.07 189.777 134.07H188.924C188.406 134.07 188 134.187 187.706 134.42C187.421 134.654 187.279 135.055 187.279 135.624C187.279 136.182 187.411 136.589 187.675 136.842C187.939 137.086 188.305 137.208 188.772 137.208ZM201.746 141.062C201.198 141.062 200.741 140.975 200.375 140.803C200.02 140.62 199.756 140.331 199.583 139.935C199.421 139.539 199.344 139.01 199.355 138.35L199.415 134.162H198.121V133.171L199.446 132.912L199.674 130.628H200.878V132.912H203.086V134.162H200.878V138.335C200.878 138.65 200.908 138.904 200.969 139.097C201.03 139.29 201.116 139.437 201.228 139.539C201.34 139.64 201.462 139.716 201.594 139.767C201.726 139.808 201.853 139.833 201.974 139.843L202.98 139.935V141.062H201.746ZM207.839 141.153C206.976 141.153 206.286 141.026 205.768 140.772C205.26 140.518 204.894 140.092 204.671 139.493C204.458 138.884 204.351 138.046 204.351 136.979C204.351 135.893 204.458 135.05 204.671 134.451C204.894 133.842 205.26 133.415 205.768 133.171C206.275 132.928 206.961 132.806 207.824 132.806C208.576 132.806 209.18 132.887 209.637 133.05C210.104 133.202 210.444 133.481 210.657 133.887C210.881 134.283 210.992 134.837 210.992 135.548C210.992 136.045 210.891 136.441 210.688 136.736C210.495 137.03 210.216 137.244 209.85 137.376C209.495 137.508 209.068 137.574 208.57 137.574H205.874C205.884 138.163 205.95 138.635 206.072 138.99C206.204 139.335 206.433 139.589 206.758 139.752C207.093 139.904 207.58 139.98 208.22 139.98H210.764V140.894C210.327 140.955 209.88 141.011 209.423 141.062C208.966 141.123 208.438 141.153 207.839 141.153ZM205.859 136.614H208.433C208.84 136.614 209.139 136.538 209.332 136.385C209.525 136.233 209.621 135.954 209.621 135.548C209.621 135.141 209.561 134.822 209.439 134.588C209.327 134.354 209.139 134.187 208.875 134.085C208.611 133.984 208.261 133.933 207.824 133.933C207.326 133.933 206.93 134.009 206.636 134.162C206.352 134.314 206.149 134.583 206.027 134.969C205.915 135.355 205.859 135.903 205.859 136.614ZM214.481 141.153C213.882 141.153 213.384 140.975 212.988 140.62C212.603 140.254 212.41 139.752 212.41 139.112V138.472C212.41 137.843 212.623 137.33 213.049 136.934C213.486 136.528 214.141 136.325 215.014 136.325H217.558V135.471C217.558 135.157 217.502 134.893 217.391 134.679C217.289 134.456 217.096 134.288 216.812 134.177C216.527 134.065 216.106 134.009 215.547 134.009H213.049V133.11C213.415 133.029 213.841 132.958 214.329 132.897C214.826 132.836 215.405 132.801 216.065 132.791C216.736 132.791 217.294 132.877 217.741 133.05C218.198 133.212 218.538 133.486 218.761 133.872C218.985 134.248 219.097 134.75 219.097 135.38V141.062H217.893L217.634 140.163C217.573 140.204 217.446 140.28 217.253 140.392C217.061 140.493 216.812 140.605 216.507 140.727C216.213 140.849 215.888 140.95 215.532 141.031C215.187 141.113 214.837 141.153 214.481 141.153ZM215.182 140.041C215.334 140.051 215.512 140.036 215.715 139.996C215.928 139.955 216.136 139.909 216.34 139.858C216.553 139.797 216.746 139.737 216.918 139.676C217.101 139.615 217.248 139.564 217.36 139.523C217.482 139.473 217.548 139.442 217.558 139.432V137.086L215.426 137.178C214.898 137.208 214.517 137.34 214.283 137.574C214.06 137.807 213.948 138.112 213.948 138.488V138.853C213.948 139.148 214.009 139.386 214.131 139.569C214.253 139.742 214.405 139.863 214.588 139.935C214.781 140.006 214.979 140.041 215.182 140.041ZM221.167 141.062V132.912H222.385L222.69 133.796C223.086 133.522 223.523 133.283 224 133.08C224.477 132.877 225.025 132.775 225.645 132.775C226.153 132.775 226.584 132.887 226.94 133.11C227.295 133.334 227.564 133.618 227.747 133.963C227.991 133.781 228.285 133.598 228.63 133.415C228.976 133.232 229.346 133.08 229.742 132.958C230.138 132.836 230.519 132.775 230.885 132.775C231.494 132.775 231.987 132.902 232.362 133.156C232.748 133.4 233.022 133.74 233.185 134.177C233.358 134.603 233.444 135.091 233.444 135.639V141.062H231.921V135.761C231.921 135.436 231.855 135.157 231.723 134.923C231.601 134.679 231.423 134.492 231.19 134.36C230.966 134.228 230.692 134.162 230.367 134.162C229.961 134.162 229.544 134.243 229.118 134.405C228.691 134.558 228.3 134.745 227.945 134.969C227.986 135.101 228.016 135.238 228.036 135.38C228.057 135.512 228.067 135.644 228.067 135.776V141.062H226.544V135.761C226.544 135.436 226.478 135.157 226.346 134.923C226.224 134.679 226.051 134.492 225.828 134.36C225.604 134.228 225.33 134.162 225.005 134.162C224.701 134.162 224.416 134.192 224.152 134.253C223.898 134.314 223.655 134.4 223.421 134.512C223.187 134.613 222.944 134.74 222.69 134.893V141.062H221.167ZM238.385 141.153C238.171 141.153 237.918 141.148 237.623 141.138C237.329 141.128 237.024 141.107 236.709 141.077C236.404 141.057 236.12 141.031 235.856 141.001C235.602 140.97 235.399 140.935 235.247 140.894V139.98H238.674C238.969 139.98 239.222 139.96 239.436 139.919C239.649 139.869 239.811 139.767 239.923 139.615C240.045 139.462 240.106 139.239 240.106 138.944V138.609C240.106 138.305 240.004 138.066 239.801 137.893C239.598 137.721 239.263 137.634 238.796 137.634H237.608C237.131 137.634 236.704 137.574 236.328 137.452C235.963 137.32 235.673 137.101 235.46 136.797C235.257 136.492 235.155 136.081 235.155 135.563V135.121C235.155 134.603 235.252 134.177 235.445 133.842C235.648 133.507 235.968 133.258 236.404 133.095C236.841 132.923 237.42 132.836 238.141 132.836C238.446 132.836 238.781 132.852 239.146 132.882C239.522 132.902 239.888 132.933 240.243 132.973C240.598 133.014 240.883 133.06 241.096 133.11V134.024H237.867C237.42 134.024 237.075 134.101 236.831 134.253C236.597 134.405 236.481 134.695 236.481 135.121V135.426C236.481 135.69 236.536 135.893 236.648 136.035C236.76 136.177 236.917 136.269 237.12 136.309C237.334 136.35 237.582 136.37 237.867 136.37H239.085C239.857 136.37 240.441 136.553 240.837 136.919C241.233 137.274 241.431 137.777 241.431 138.427V139.051C241.431 139.599 241.304 140.026 241.05 140.331C240.796 140.635 240.441 140.849 239.984 140.97C239.537 141.092 239.004 141.153 238.385 141.153Z" fill="white"/>
</svg>
