<svg width="1560" height="897" viewBox="0 0 1560 897" fill="none" xmlns="http://www.w3.org/2000/svg">
<g filter="url(#filter0_d_130_360)">
<rect x="501" y="201" width="170" height="96" rx="16" fill="#EBE6FA"/>
</g>
<path fill-rule="evenodd" clip-rule="evenodd" d="M602.2 242.31L600.2 238.93L596.65 240.62L594.65 237.23L591.1 238.93L589.11 235.53L585.56 237.23L583.56 233.84L580.01 235.54L578.02 232.14L574.46 233.84L566.93 258.36L576.08 261.16C576.424 260.054 577.153 259.109 578.134 258.494C579.115 257.879 580.283 257.636 581.428 257.807C582.573 257.979 583.619 258.554 584.377 259.429C585.134 260.305 585.554 261.422 585.56 262.58V262.68C585.58 263.12 585.53 263.56 585.4 264L594.7 266.85L602.2 242.31V242.31Z" fill="#D61920"/>
<path fill-rule="evenodd" clip-rule="evenodd" d="M574.781 256.339C574.55 256.301 574.34 256.181 574.189 256.002C574.039 255.822 573.958 255.594 573.961 255.359V243.359C573.96 243.228 573.985 243.097 574.034 242.975C574.084 242.853 574.158 242.743 574.251 242.649C574.344 242.556 574.455 242.483 574.577 242.433C574.699 242.383 574.829 242.358 574.961 242.359H583.631C584.142 242.358 584.648 242.457 585.12 242.652C585.593 242.846 586.022 243.131 586.385 243.492C586.747 243.852 587.034 244.28 587.231 244.752C587.428 245.223 587.53 245.729 587.531 246.239V255.359C587.531 255.507 587.498 255.652 587.435 255.785C587.372 255.918 587.28 256.036 587.167 256.13C587.053 256.223 586.92 256.291 586.777 256.327C586.635 256.363 586.486 256.367 586.341 256.339C586.112 256.299 585.904 256.178 585.756 255.999C585.607 255.819 585.527 255.592 585.531 255.359V246.249C585.531 245.746 585.331 245.262 584.975 244.906C584.618 244.55 584.135 244.349 583.631 244.349H581.741V255.349C581.742 255.483 581.716 255.616 581.664 255.74C581.613 255.864 581.537 255.976 581.441 256.069C581.327 256.182 581.188 256.266 581.034 256.313C580.881 256.36 580.719 256.369 580.561 256.339C580.33 256.301 580.12 256.181 579.969 256.002C579.819 255.822 579.738 255.594 579.741 255.359V244.349H575.961V255.349C575.962 255.497 575.93 255.642 575.869 255.776C575.807 255.909 575.716 256.027 575.604 256.122C575.491 256.216 575.359 256.285 575.217 256.323C575.074 256.36 574.926 256.366 574.781 256.339V256.339ZM589.201 261.569C588.968 261.531 588.757 261.41 588.606 261.228C588.455 261.046 588.375 260.816 588.381 260.579C588.382 260.317 588.486 260.066 588.671 259.879C588.856 259.691 589.107 259.583 589.371 259.579C590.221 259.579 590.951 259.039 591.191 258.229L592.221 254.799L588.851 243.529C588.811 243.403 588.796 243.271 588.808 243.139C588.819 243.007 588.857 242.879 588.918 242.762C588.979 242.644 589.063 242.541 589.165 242.456C589.267 242.372 589.385 242.308 589.511 242.269C589.763 242.2 590.032 242.229 590.263 242.352C590.493 242.475 590.668 242.682 590.751 242.929L593.251 251.329L595.791 242.929C595.911 242.469 596.421 242.159 596.941 242.259L597.011 242.269C597.551 242.439 597.851 243.009 597.691 243.539L594.221 255.099L593.121 258.799C592.874 259.596 592.385 260.295 591.721 260.799C591.046 261.306 590.225 261.579 589.381 261.579C589.321 261.582 589.261 261.578 589.201 261.569" fill="#FEFEFE"/>
<path fill-rule="evenodd" clip-rule="evenodd" d="M528.08 254.149H530.04C530.563 254.149 531.064 253.942 531.433 253.572C531.803 253.203 532.01 252.702 532.01 252.179V246.409C532.011 246.151 531.962 245.894 531.864 245.655C531.766 245.415 531.622 245.197 531.44 245.013C531.258 244.83 531.042 244.683 530.803 244.583C530.565 244.483 530.309 244.431 530.05 244.429H528.08V254.129V254.149ZM526.85 256.209C526.61 256.169 526.392 256.044 526.236 255.857C526.081 255.67 525.997 255.433 526 255.189V237.269C525.998 237.132 526.024 236.996 526.075 236.869C526.127 236.742 526.203 236.627 526.3 236.529C526.417 236.408 526.562 236.317 526.723 236.265C526.883 236.212 527.054 236.2 527.22 236.229C527.72 236.329 528.08 236.749 528.08 237.259V242.359H530.04C530.571 242.358 531.098 242.462 531.589 242.664C532.081 242.866 532.527 243.164 532.903 243.539C533.279 243.914 533.578 244.36 533.782 244.851C533.985 245.342 534.09 245.868 534.09 246.399V252.169C534.087 253.24 533.661 254.266 532.904 255.023C532.147 255.78 531.121 256.207 530.05 256.209H527.04C526.973 256.213 526.906 256.21 526.84 256.199L526.85 256.209Z" fill="#333545"/>
<path fill-rule="evenodd" clip-rule="evenodd" d="M541.14 244.349C541.028 244.33 540.914 244.32 540.8 244.319C540.541 244.317 540.283 244.366 540.043 244.464C539.803 244.562 539.585 244.707 539.401 244.89C539.218 245.074 539.073 245.292 538.975 245.532C538.876 245.773 538.827 246.03 538.83 246.289V252.299C538.829 252.558 538.879 252.815 538.977 253.055C539.076 253.294 539.221 253.512 539.404 253.695C539.587 253.879 539.805 254.024 540.045 254.122C540.284 254.221 540.541 254.271 540.8 254.269C541.322 254.269 541.824 254.062 542.193 253.692C542.562 253.323 542.77 252.822 542.77 252.299V246.299C542.77 245.329 542.08 244.519 541.14 244.349V244.349ZM540.09 256.299C539.152 256.134 538.303 255.644 537.692 254.914C537.081 254.184 536.747 253.261 536.75 252.309V246.299C536.748 245.768 536.853 245.241 537.057 244.75C537.261 244.258 537.561 243.813 537.94 243.439C538.316 243.064 538.761 242.767 539.252 242.564C539.743 242.362 540.269 242.258 540.8 242.259C541.871 242.259 542.899 242.685 543.657 243.443C544.414 244.2 544.84 245.228 544.84 246.299V252.309C544.84 253.389 544.42 254.409 543.65 255.179C543.276 255.554 542.832 255.851 542.343 256.054C541.854 256.256 541.329 256.36 540.8 256.359C540.562 256.36 540.324 256.34 540.09 256.299V256.299ZM551.89 244.359C551.778 244.34 551.664 244.33 551.55 244.329C551.291 244.327 551.033 244.376 550.793 244.474C550.553 244.572 550.335 244.717 550.151 244.9C549.968 245.084 549.823 245.302 549.725 245.542C549.626 245.783 549.577 246.04 549.58 246.299V252.309C549.579 252.569 549.629 252.825 549.727 253.065C549.826 253.304 549.971 253.522 550.154 253.705C550.337 253.889 550.555 254.034 550.795 254.132C551.034 254.231 551.291 254.281 551.55 254.279C551.809 254.281 552.066 254.231 552.305 254.132C552.545 254.034 552.763 253.889 552.946 253.705C553.129 253.522 553.274 253.304 553.373 253.065C553.471 252.825 553.521 252.569 553.52 252.309V246.299C553.52 245.339 552.83 244.529 551.89 244.359V244.359ZM550.84 256.299C549.904 256.132 549.057 255.641 548.448 254.911C547.839 254.181 547.507 253.26 547.51 252.309V246.299C547.512 245.71 547.642 245.128 547.891 244.594C548.141 244.06 548.504 243.588 548.956 243.209C549.407 242.83 549.936 242.554 550.505 242.4C551.074 242.247 551.669 242.219 552.25 242.319C553.188 242.482 554.038 242.97 554.651 243.698C555.264 244.427 555.6 245.348 555.6 246.299V252.309C555.601 252.844 555.496 253.373 555.29 253.866C555.084 254.358 554.781 254.805 554.4 255.179C554.026 255.554 553.582 255.851 553.093 256.054C552.604 256.256 552.079 256.36 551.55 256.359C551.31 256.359 551.07 256.339 550.84 256.299V256.299ZM559.11 256.339C558.87 256.299 558.652 256.174 558.496 255.987C558.34 255.8 558.257 255.563 558.26 255.319V237.269C558.26 236.989 558.36 236.719 558.56 236.529C558.678 236.413 558.822 236.327 558.981 236.278C559.139 236.229 559.307 236.219 559.47 236.249C559.97 236.329 560.34 236.759 560.34 237.269V247.949L565.12 242.589C565.36 242.329 565.72 242.209 566.08 242.269C566.262 242.3 566.432 242.378 566.573 242.497C566.713 242.615 566.82 242.769 566.881 242.942C566.943 243.116 566.956 243.303 566.921 243.483C566.885 243.664 566.802 243.832 566.68 243.969L563.07 247.999L566.8 254.829C566.867 254.945 566.911 255.072 566.928 255.204C566.945 255.337 566.936 255.471 566.9 255.599C566.861 255.732 566.796 255.855 566.709 255.962C566.621 256.068 566.513 256.156 566.39 256.219C566.178 256.341 565.93 256.384 565.69 256.339C565.541 256.314 565.399 256.256 565.274 256.17C565.15 256.083 565.046 255.971 564.97 255.839L561.61 249.659L560.33 251.069V255.319C560.33 255.595 560.22 255.86 560.025 256.055C559.83 256.25 559.566 256.359 559.29 256.359C559.22 256.359 559.16 256.359 559.09 256.339H559.11ZM604.92 256.329C604.358 256.235 603.823 256.017 603.356 255.69C602.889 255.363 602.501 254.936 602.22 254.439C602.083 254.196 602.047 253.909 602.12 253.639C602.2 253.379 602.37 253.159 602.6 253.019C602.814 252.903 603.061 252.864 603.3 252.909C603.6 252.959 603.87 253.139 604.02 253.409C604.29 253.869 604.72 254.169 605.25 254.259C605.523 254.307 605.804 254.292 606.07 254.216C606.337 254.14 606.583 254.004 606.79 253.819C607.19 253.449 607.39 252.919 607.34 252.399C607.329 252.133 607.255 251.873 607.125 251.64C606.995 251.407 606.811 251.208 606.59 251.059L603.79 249.069C603.334 248.749 602.954 248.332 602.677 247.848C602.401 247.364 602.234 246.825 602.19 246.269C602.154 245.709 602.246 245.147 602.459 244.628C602.672 244.108 603.001 243.643 603.42 243.269C603.829 242.889 604.318 242.605 604.851 242.437C605.383 242.269 605.947 242.222 606.5 242.299C607.68 242.499 608.64 243.179 609.19 244.139C609.323 244.379 609.357 244.661 609.286 244.926C609.215 245.191 609.045 245.418 608.81 245.559C608.598 245.681 608.35 245.724 608.11 245.679C607.961 245.654 607.819 245.596 607.694 245.51C607.57 245.423 607.466 245.311 607.39 245.179C607.265 244.967 607.094 244.786 606.89 244.647C606.686 244.509 606.454 244.417 606.21 244.379C605.961 244.334 605.705 244.348 605.462 244.419C605.219 244.49 604.995 244.617 604.81 244.789C604.629 244.96 604.488 245.169 604.396 245.4C604.304 245.632 604.265 245.881 604.28 246.129C604.3 246.619 604.58 247.099 605 247.379L607.8 249.329C608.275 249.662 608.668 250.099 608.949 250.607C609.23 251.115 609.391 251.68 609.42 252.259C609.466 252.836 609.377 253.416 609.16 253.952C608.943 254.489 608.604 254.967 608.17 255.349C607.748 255.742 607.243 256.035 606.693 256.208C606.143 256.381 605.561 256.43 604.99 256.349L604.91 256.329H604.92ZM612.95 256.359C612.71 256.317 612.492 256.192 612.335 256.006C612.178 255.819 612.091 255.583 612.09 255.339V237.289C612.089 237.152 612.115 237.017 612.166 236.89C612.218 236.763 612.295 236.648 612.392 236.551C612.488 236.454 612.604 236.378 612.73 236.326C612.857 236.274 612.993 236.248 613.13 236.249L613.33 236.259C613.83 236.359 614.17 236.769 614.17 237.289V242.389H616.14C616.671 242.388 617.197 242.492 617.688 242.694C618.178 242.897 618.624 243.194 619 243.57C619.375 243.945 619.673 244.391 619.875 244.882C620.078 245.373 620.181 245.899 620.18 246.429V255.329C620.181 255.48 620.149 255.63 620.085 255.767C620.022 255.904 619.929 256.025 619.814 256.123C619.698 256.22 619.563 256.291 619.417 256.33C619.271 256.369 619.119 256.376 618.97 256.349C618.47 256.259 618.11 255.829 618.11 255.319V246.419C618.11 246.161 618.059 245.906 617.96 245.667C617.861 245.429 617.715 245.212 617.532 245.03C617.349 244.848 617.132 244.704 616.893 244.606C616.654 244.508 616.398 244.458 616.14 244.459H614.17V255.329C614.171 255.481 614.139 255.632 614.075 255.77C614.011 255.908 613.917 256.03 613.801 256.127C613.684 256.225 613.547 256.295 613.4 256.334C613.253 256.372 613.099 256.377 612.95 256.349V256.359ZM627.23 244.369C626.947 244.318 626.655 244.33 626.377 244.404C626.099 244.477 625.84 244.612 625.619 244.797C625.399 244.982 625.222 245.214 625.101 245.475C624.98 245.737 624.918 246.021 624.92 246.309V252.319C624.919 252.578 624.968 252.834 625.066 253.073C625.164 253.312 625.308 253.529 625.491 253.712C625.673 253.895 625.889 254.04 626.128 254.139C626.366 254.238 626.622 254.289 626.88 254.289C627.4 254.289 627.9 254.089 628.27 253.719C628.455 253.537 628.602 253.319 628.702 253.078C628.801 252.838 628.852 252.58 628.85 252.319V246.299C628.85 245.339 628.17 244.519 627.22 244.359L627.23 244.369ZM626.17 256.289C625.235 256.125 624.388 255.635 623.779 254.907C623.17 254.179 622.837 253.259 622.84 252.309V246.299C622.84 245.709 622.969 245.126 623.218 244.591C623.467 244.056 623.83 243.582 624.282 243.202C624.733 242.822 625.263 242.545 625.832 242.391C626.402 242.237 626.998 242.209 627.58 242.309C628.519 242.472 629.371 242.962 629.984 243.692C630.597 244.422 630.932 245.346 630.93 246.299V252.309C630.93 252.842 630.825 253.369 630.619 253.86C630.412 254.352 630.11 254.797 629.73 255.169C629.271 255.63 628.708 255.973 628.088 256.168C627.468 256.363 626.81 256.404 626.17 256.289" fill="#333545"/>
<path fill-rule="evenodd" clip-rule="evenodd" d="M646.901 243.539C646.935 243.412 646.943 243.28 646.926 243.149C646.909 243.019 646.866 242.893 646.801 242.779C646.725 242.658 646.626 242.553 646.509 242.47C646.392 242.388 646.26 242.33 646.121 242.299C645.863 242.251 645.596 242.302 645.375 242.443C645.154 242.585 644.995 242.805 644.931 243.059C644.931 243.109 643.811 247.619 642.931 251.049L642.911 251.119L642.891 251.049L640.891 243.069C640.852 242.874 640.755 242.696 640.612 242.559C640.469 242.421 640.287 242.33 640.091 242.299C640.031 242.288 639.971 242.281 639.911 242.279C639.451 242.279 639.051 242.599 638.921 243.059C638.911 243.109 637.791 247.619 636.921 251.049L636.901 251.119L636.881 251.049C636.031 247.619 634.881 243.109 634.881 243.059C634.833 242.868 634.732 242.694 634.588 242.559C634.444 242.424 634.265 242.334 634.071 242.299C633.904 242.27 633.733 242.282 633.572 242.335C633.412 242.389 633.267 242.481 633.151 242.604C633.035 242.727 632.951 242.877 632.908 243.04C632.864 243.203 632.862 243.375 632.901 243.539L635.911 255.569C635.968 255.79 636.095 255.985 636.274 256.126C636.453 256.267 636.673 256.346 636.901 256.349C637.391 256.349 637.781 256.029 637.881 255.569L639.881 247.579L639.911 247.509L639.931 247.579C640.811 251.049 641.931 255.579 641.931 255.579C641.99 255.795 642.118 255.987 642.294 256.125C642.47 256.264 642.686 256.342 642.911 256.349C643.141 256.356 643.367 256.282 643.548 256.14C643.729 255.997 643.854 255.795 643.901 255.569L646.901 243.539V243.539Z" fill="#333545"/>
<g filter="url(#filter1_d_130_360)">
<rect x="695" y="141" width="170" height="96" rx="16" fill="#EBE6FA"/>
</g>
<g clip-path="url(#clip0_130_360)">
<path d="M804.363 203.102L812.703 193.866L804.363 184.628H813.162L817.293 189.115L821.27 184.628H829.762L821.462 193.828L829.876 203.102H821.041L816.948 198.578L812.894 203.102H804.363Z" fill="#FF6600"/>
<path d="M804.364 180.486H794.919V184.628H804.364V190.869H794.919V196.598H804.364V203.102H787.977V174H804.364V180.486Z" fill="#FF6600"/>
<path d="M781.063 174V185.91H780.987C779.457 184.176 777.545 183.573 775.326 183.573C770.781 183.573 767.358 186.619 766.156 190.645C764.786 186.209 761.251 183.49 756.01 183.49C751.754 183.49 748.393 185.373 746.64 188.442V184.628H737.842V180.487H747.443V174H730V203.103H737.842V190.869H745.659C745.426 191.768 745.301 192.73 745.301 193.745C745.301 199.816 750.006 204.075 756.01 204.075C761.06 204.075 764.387 201.739 766.147 197.479H759.427C758.517 198.759 757.828 199.139 756.01 199.139C753.903 199.139 752.086 197.326 752.086 195.178H765.77C766.364 200 770.174 204.158 775.403 204.158C777.659 204.158 779.724 203.064 780.987 201.218H781.063V203.102H787.977V174H781.063ZM752.304 190.956C752.74 189.108 754.195 187.899 756.01 187.899C758.009 187.899 759.39 189.07 759.753 190.956C759.906 190.956 752.304 190.956 752.304 190.956ZM776.868 198.671C774.32 198.671 772.737 196.331 772.737 193.887C772.737 191.275 774.114 188.763 776.868 188.763C779.724 188.763 780.862 191.275 780.862 193.887C780.862 196.364 779.656 198.671 776.868 198.671Z" fill="#652C8F"/>
</g>
<g filter="url(#filter2_d_130_360)">
<rect x="695" y="261" width="170" height="96" rx="16" fill="#EBE6FA"/>
</g>
<g clip-path="url(#clip1_130_360)">
<path d="M762.705 304.959V306.546H762.753C763.327 305.696 764.278 304.696 766.387 304.696C768.028 304.696 769.287 305.528 769.827 306.785H769.875C770.336 306.149 770.864 305.668 771.456 305.328C772.157 304.924 772.936 304.692 773.918 304.692C776.139 304.692 778.106 306.132 778.106 309.762V316.646H774.719V310.243C774.719 308.403 774.052 307.339 772.666 307.339C771.651 307.339 770.913 307.978 770.632 308.765C770.535 309.035 770.49 309.404 770.49 309.713V316.65H767.103V309.983C767.103 308.421 766.462 307.336 765.095 307.336C764.001 307.336 763.315 308.143 763.034 308.835C762.915 309.13 762.877 309.47 762.877 309.79V316.646H759.487V304.959H762.705ZM795.587 304.959V307.164H795.68C796.302 305.479 797.778 304.696 799.074 304.696C799.4 304.696 799.58 304.72 799.842 304.77V307.831C799.531 307.789 799.243 307.747 798.838 307.747C797.37 307.747 796.347 308.547 796.089 309.8C796.032 310.06 796.014 310.341 796.014 310.664V316.65H792.537V304.959H795.587ZM804.563 301.087V304.766H807.5V307.743H804.563V312.135C804.563 313.557 804.949 314.245 806.095 314.245C806.635 314.245 807.032 314.182 807.376 314.101L807.421 316.569C806.961 316.73 805.979 316.906 804.982 316.906C803.81 316.906 802.832 316.523 802.236 315.93C801.555 315.252 801.24 314.143 801.24 312.563V301.087H804.563ZM757.126 316.646H753.755V301.087H757.126V316.646ZM748.135 312.472C748.135 312.686 748.116 312.911 748.053 313.104C747.791 313.915 746.895 314.599 745.779 314.599C744.846 314.599 744.104 314.104 744.104 313.055C744.104 311.45 745.992 311.005 748.139 311.015V312.472H748.135ZM751.503 309.674C751.503 307.023 750.297 304.696 746.217 304.696C744.123 304.696 742.459 305.247 741.553 305.739L742.216 307.866C743.044 307.375 744.366 306.971 745.618 306.971C747.689 306.967 748.027 308.07 748.027 308.775V308.944C743.512 308.937 740.661 310.401 740.661 313.385C740.661 315.207 742.111 316.913 744.636 316.913C746.191 316.913 747.487 316.334 748.266 315.403H748.341C748.341 315.403 748.858 317.422 751.698 316.65C751.548 315.807 751.499 314.912 751.499 313.834V309.674H751.503ZM723.724 301.087C724.072 302.733 725.061 307.515 725.061 307.515C725.477 309.481 725.859 311.542 726.148 313.171H726.2C726.481 311.44 726.923 309.8 727.395 307.771L729.062 301.087H732.753L734.311 307.943C734.719 309.85 735.045 311.321 735.304 313.093H735.353C735.634 311.303 736.001 309.772 736.402 307.813L737.9 301.087H741.44L737.053 316.646C734.259 317.218 733.187 316.165 732.805 314.494C732.423 312.82 731.674 309.635 731.674 309.635C731.288 307.891 730.988 306.662 730.778 304.871H730.726C730.426 306.644 730.111 307.887 729.647 309.632L727.807 316.65C724.953 317.183 723.964 316.393 723.417 314.248C722.945 312.412 720 301.09 720 301.09H723.724V301.087ZM786.918 312.472C786.918 312.686 786.899 312.911 786.835 313.104C786.573 313.915 785.677 314.599 784.561 314.599C783.628 314.599 782.886 314.104 782.886 313.055C782.886 311.45 784.775 311.005 786.921 311.015V312.472H786.918ZM790.285 309.674C790.285 307.023 789.079 304.696 784.999 304.696C782.905 304.696 781.242 305.247 780.335 305.739L780.998 307.866C781.826 307.375 783.149 306.971 784.4 306.971C786.468 306.967 786.809 308.07 786.809 308.775V308.944C782.298 308.937 779.447 310.401 779.447 313.385C779.447 315.207 780.901 316.913 783.422 316.913C784.973 316.913 786.273 316.334 787.049 315.403H787.127C787.127 315.403 787.644 317.422 790.484 316.65C790.334 315.807 790.285 314.912 790.285 313.834V309.674Z" fill="#041E42"/>
<path d="M821.168 311.288C821.5 311.856 821.478 312.49 821.123 312.78L814.991 316.999C814.353 317.362 813.397 316.922 812.855 316.002C812.31 315.078 812.407 314.048 813.046 313.685L819.835 310.584C820.26 310.422 820.835 310.719 821.168 311.288ZM829.238 311.288C829.574 310.719 830.145 310.426 830.571 310.58L837.364 313.681C838.002 314.044 838.096 315.074 837.554 315.998C837.009 316.918 836.049 317.355 835.414 316.995L829.283 312.776C828.931 312.49 828.905 311.852 829.238 311.288ZM825.201 313.575C825.869 313.575 826.418 313.912 826.493 314.356L827.154 321.68C827.154 322.406 826.291 323 825.205 323C824.122 323 823.255 322.406 823.255 321.68L823.913 314.356C823.987 313.912 824.536 313.575 825.201 313.575ZM829.283 305.224L835.414 301.001C836.049 300.638 837.009 301.074 837.554 301.998C838.096 302.922 838.002 303.952 837.364 304.315L830.571 307.42C830.145 307.574 829.57 307.281 829.238 306.712C828.905 306.144 828.931 305.51 829.283 305.224ZM819.835 307.42L813.046 304.315C812.411 303.952 812.314 302.922 812.855 301.998C813.397 301.074 814.356 300.638 814.991 301.001L821.123 305.224C821.478 305.506 821.5 306.144 821.168 306.712C820.835 307.281 820.26 307.574 819.835 307.42ZM823.913 303.644L823.255 296.32C823.255 295.594 824.118 295 825.205 295C826.291 295 827.154 295.594 827.154 296.32L826.493 303.644C826.418 304.084 825.869 304.425 825.201 304.425C824.536 304.425 823.987 304.084 823.913 303.644ZM839.212 316.97V316.786H839.38C839.436 316.786 839.473 316.823 839.473 316.878C839.473 316.929 839.436 316.97 839.38 316.97H839.212ZM839.074 317.303C839.074 317.322 839.089 317.34 839.111 317.34H839.182C839.201 317.34 839.22 317.322 839.22 317.303V317.094H839.335L839.429 317.314C839.436 317.329 839.447 317.34 839.462 317.34H839.548C839.574 317.34 839.593 317.314 839.582 317.289C839.548 317.223 839.515 317.153 839.481 317.083C839.537 317.065 839.623 317.01 839.623 316.878C839.623 316.739 839.507 316.658 839.391 316.658H839.111C839.093 316.658 839.074 316.676 839.074 316.695V317.303ZM838.771 316.999C838.771 316.702 839.018 316.46 839.32 316.46C839.623 316.46 839.869 316.698 839.869 316.999C839.869 317.296 839.627 317.538 839.32 317.538C839.014 317.538 838.771 317.296 838.771 316.999ZM838.641 316.999C838.641 317.366 838.943 317.666 839.32 317.666C839.694 317.666 840 317.366 840 316.999C840 316.632 839.694 316.332 839.32 316.332C838.943 316.332 838.641 316.632 838.641 316.999Z" fill="#FFC124"/>
</g>
<g filter="url(#filter3_d_130_360)">
<rect x="889" y="201" width="170" height="96" rx="16" fill="#EBE6FA"/>
</g>
<g clip-path="url(#clip2_130_360)">
<path fill-rule="evenodd" clip-rule="evenodd" d="M1011.38 247.841L1005.14 258.675L999.817 258.696L1011.38 238.304L1022.89 258.696H1017.49L1011.38 247.84V247.841ZM994.581 253.98H1000.54L997.773 258.696H990.005L990.026 252.954V238.429H994.603L994.582 253.98H994.581ZM978.235 238.43C983.917 238.451 988.515 242.978 988.494 248.573C988.473 254.148 983.875 258.675 978.191 258.675C972.529 258.654 967.932 254.128 967.932 248.531C967.953 242.956 972.551 238.43 978.235 238.43V238.43ZM978.213 253.96C981.257 253.96 983.704 251.549 983.704 248.573C983.726 245.598 981.257 243.166 978.235 243.166C975.211 243.145 972.742 245.577 972.742 248.553C972.721 251.528 975.19 253.96 978.212 253.96H978.213ZM959.461 246.963C959.397 246.124 959.184 245.013 958.864 243.946C958.207 241.74 957.065 239.712 955.523 238.014C954.713 237.134 953.799 236.316 952.435 235.352C951.396 234.835 950.374 234.283 949.371 233.697C948.711 233.32 947.923 232.857 946.881 232.523C945.645 232.229 944.382 232.067 943.113 232.041C941.88 231.999 940.644 232.105 939.452 232.335C938.196 232.544 937.153 232.879 935.769 233.214C932.639 234.577 930.213 236.63 928.127 239.356C920.848 249.603 927.425 263.96 939.579 265.657C941.58 265.93 943.582 265.825 945.475 265.385L946.817 265.029C946.859 265.008 946.923 264.986 946.965 264.986L948.498 264.4C948.583 264.357 948.647 264.336 948.732 264.295L949.371 264.001C950.596 263.392 951.746 262.639 952.798 261.76C951.841 262.636 950.8 263.415 949.69 264.085L949.753 264.128C949.967 264.064 950.158 264.001 950.371 263.96C950.371 263.96 950.371 264.295 950.329 264.232C949.988 264.484 950.521 264.253 951.201 263.896C951.883 263.54 952.543 263.099 953.138 262.597C954.012 261.864 954.778 261.067 955.863 259.768C956.97 257.819 958.354 256.121 958.993 253.836C959.206 253.229 959.396 252.517 959.525 251.783C959.651 251.05 959.738 250.295 959.738 249.52C959.717 248.744 959.631 247.947 959.461 246.963V246.963ZM943.709 264.191C947.434 263.603 950.563 261.529 953.117 258.7C953.82 257.672 954.373 256.729 955.054 255.702C955.905 253.606 955.842 251.741 956.118 250.422C956.46 248.031 955.65 246.104 954.97 244.05C953.926 241.66 952.543 239.879 950.116 238.496C943.985 234.682 935.641 235.75 931.661 241.451C931.64 241.451 931.533 241.598 931.32 241.891C931.597 240.718 932.3 240.026 933.002 239.355C935.088 237.637 937.515 236.273 940.282 235.604C943.412 235.268 946.518 235.604 949.307 236.966C953.48 239.355 956.247 243.107 956.949 247.549V251.657C956.076 258.385 950.329 263.499 943.709 264.191V264.191ZM959.014 248.891C958.864 239.041 949.137 232.397 939.665 233.739C936.898 234.43 933.874 235.813 931.725 237.742C930.681 238.432 930.192 239.712 929.149 240.738C924.976 246.879 925.701 254.739 930.894 259.518C931.56 260.182 932.272 260.798 933.023 261.362C928.681 258.741 926.722 254.779 926.042 249.96C926.042 248.241 926.382 246.543 926.743 244.825C929.171 237.301 936.812 231.831 945.136 233.214C946.519 233.55 947.903 233.906 949.309 234.242C951.054 234.932 952.778 235.96 954.161 237.323C955.545 238.684 956.588 240.403 957.631 242.1C958.333 243.463 958.675 245.181 959.015 246.543C959.078 247.319 959.078 248.116 959.015 248.892L959.014 248.891Z" fill="black"/>
<path fill-rule="evenodd" clip-rule="evenodd" d="M950.372 249.038C950.372 253.272 946.839 256.71 942.475 256.71C938.112 256.71 934.578 253.272 934.578 249.038C934.578 244.805 938.111 241.368 942.475 241.368C946.839 241.368 950.372 244.805 950.372 249.039V249.038Z" fill="white"/>
<path fill-rule="evenodd" clip-rule="evenodd" d="M950.416 247.738C950.31 247.152 950.139 246.691 949.969 246.041C949.287 244.615 948.287 243.505 946.967 242.562C942.029 239.272 935.239 242.436 934.516 248.054C934.24 250.275 935.027 252.413 936.431 254.048C936.006 253.607 935.538 253.147 935.219 252.622L935.176 252.665C935.219 252.79 935.389 252.874 935.431 253C935.431 253 935.261 253 935.304 252.978C935.176 252.833 935.283 253.063 935.474 253.377C935.644 253.691 935.857 253.986 936.112 254.258C936.475 254.656 936.857 255.012 937.496 255.494C938.434 255.976 939.263 256.605 940.348 256.898C940.647 256.983 940.987 257.066 941.328 257.129C941.69 257.192 942.03 257.214 942.414 257.214C942.775 257.214 943.159 257.171 943.627 257.086C944.109 257.029 944.586 256.931 945.052 256.794C946.094 256.478 947.054 255.933 947.863 255.2C948.267 254.824 948.843 254.342 949.288 253.713C949.651 253.001 949.693 252.644 949.864 252.329C950.033 252.015 950.246 251.659 950.396 251.176C950.518 250.604 950.589 250.022 950.609 249.437C950.588 248.851 950.546 248.284 950.417 247.739L950.416 247.738ZM945.349 243.841C946.073 244.26 946.18 244.322 945.796 244.05C946.351 244.176 946.691 244.49 947.031 244.805C947.862 245.748 948.542 246.858 948.883 248.137C949.075 249.583 948.925 251.029 948.308 252.308C947.202 254.257 945.435 255.556 943.327 255.912C943.093 255.912 942.838 255.912 942.603 255.933C943.2 255.828 943.583 255.451 944.669 255.052C945.838 254.634 947.159 252.685 947.798 251.553C949.671 248.471 947.457 245.622 945.349 243.841V243.841ZM941.348 255.953C938.113 255.619 935.622 252.957 935.282 249.876C935.579 251.595 936.601 252.915 937.985 254.089C938.475 254.403 939.198 254.843 939.688 255.158C940.518 255.472 941.007 255.808 941.816 255.954H941.348V255.953ZM950.053 250.358C949.906 251.009 949.756 251.636 949.607 252.287C949.287 253.084 948.82 253.901 948.181 254.55C947.542 255.2 946.733 255.703 945.925 256.185C945.286 256.52 944.477 256.688 943.817 256.854C943.434 256.897 942.987 256.729 942.603 256.709C947.329 256.582 950.565 252.161 949.863 247.781C949.521 246.502 948.841 245.391 948.01 244.281C947.67 243.798 947.009 243.505 946.52 243.023C943.561 241.158 939.645 241.535 937.41 243.988C937.097 244.31 936.805 244.653 936.537 245.014C937.73 243.253 939.645 242.018 941.944 241.661C942.753 241.639 943.583 241.787 944.392 241.934C947.968 243.023 950.629 246.502 950.053 250.359V250.358Z" fill="#D7DF23"/>
</g>
<g filter="url(#filter4_d_130_360)">
<rect x="501" y="81" width="170" height="96" rx="16" fill="#EBE6FA"/>
</g>
<g clip-path="url(#clip3_130_360)">
<path d="M579.427 129.41C579.427 133.852 575.938 137.125 571.656 137.125C567.374 137.125 563.885 133.852 563.885 129.41C563.885 124.937 567.374 121.695 571.656 121.695C575.938 121.695 579.427 124.937 579.427 129.41ZM576.025 129.41C576.025 126.634 574.003 124.735 571.656 124.735C569.309 124.735 567.287 126.634 567.287 129.41C567.287 132.158 569.309 134.085 571.656 134.085C574.003 134.085 576.025 132.154 576.025 129.41Z" fill="#EA4335"/>
<path d="M596.193 129.41C596.193 133.852 592.704 137.125 588.422 137.125C584.14 137.125 580.65 133.852 580.65 129.41C580.65 124.941 584.14 121.695 588.422 121.695C592.704 121.695 596.193 124.937 596.193 129.41ZM592.791 129.41C592.791 126.634 590.769 124.735 588.422 124.735C586.074 124.735 584.052 126.634 584.052 129.41C584.052 132.158 586.074 134.085 588.422 134.085C590.769 134.085 592.791 132.154 592.791 129.41Z" fill="#FBBC05"/>
<path d="M612.259 122.161V136.012C612.259 141.709 608.885 144.036 604.896 144.036C601.142 144.036 598.882 141.535 598.03 139.49L600.992 138.262C601.519 139.518 602.811 141 604.893 141C607.446 141 609.028 139.431 609.028 136.478V135.368H608.91C608.148 136.304 606.681 137.121 604.83 137.121C600.957 137.121 597.408 133.761 597.408 129.438C597.408 125.083 600.957 121.695 604.83 121.695C606.678 121.695 608.145 122.513 608.91 123.421H609.028V122.165H612.259V122.161ZM609.269 129.438C609.269 126.721 607.45 124.735 605.134 124.735C602.787 124.735 600.821 126.721 600.821 129.438C600.821 132.127 602.787 134.085 605.134 134.085C607.45 134.085 609.269 132.127 609.269 129.438Z" fill="#4285F4"/>
<path d="M617.584 114.043V136.652H614.266V114.043H617.584Z" fill="#34A853"/>
<path d="M630.515 131.95L633.155 133.703C632.303 134.958 630.25 137.122 626.701 137.122C622.3 137.122 619.014 133.734 619.014 129.407C619.014 124.819 622.328 121.692 626.32 121.692C630.34 121.692 632.307 124.878 632.949 126.6L633.302 127.477L622.946 131.748C623.739 133.296 624.972 134.085 626.701 134.085C628.433 134.085 629.635 133.237 630.515 131.95ZM622.388 129.174L629.31 126.312C628.929 125.348 627.784 124.677 626.436 124.677C624.707 124.677 622.3 126.197 622.388 129.174V129.174Z" fill="#EA4335"/>
<path d="M551.325 127.404V124.131H562.4C562.508 124.701 562.564 125.376 562.564 126.107C562.564 128.562 561.89 131.599 559.718 133.762C557.605 135.954 554.905 137.122 551.328 137.122C544.699 137.122 539.125 131.745 539.125 125.143C539.125 118.541 544.699 113.164 551.328 113.164C554.996 113.164 557.608 114.597 559.571 116.465L557.252 118.774C555.844 117.46 553.937 116.437 551.325 116.437C546.484 116.437 542.698 120.322 542.698 125.143C542.698 129.964 546.484 133.849 551.325 133.849C554.465 133.849 556.253 132.594 557.399 131.453C558.328 130.528 558.939 129.206 559.18 127.401L551.325 127.404V127.404Z" fill="#4285F4"/>
</g>
<g filter="url(#filter5_d_130_360)">
<rect x="695" y="21" width="170" height="96" rx="16" fill="#EBE6FA"/>
</g>
<g clip-path="url(#clip4_130_360)">
<path d="M762.064 70.9748L761.337 73.0306H761.276C761.155 72.5671 760.933 71.8616 760.569 71.0151L756.671 61.2399H752.854V76.8198H755.378V67.2058C755.378 66.6012 755.378 65.9159 755.358 65.0694C755.338 64.6461 755.298 64.3236 755.277 64.0818H755.338C755.459 64.6864 755.601 65.1299 755.702 65.412L760.388 76.7795H762.165L766.811 65.3112C766.912 65.0492 767.013 64.5252 767.114 64.0818H767.174C767.114 65.2306 767.073 66.2585 767.053 66.8833V76.7593H769.74V61.1996H766.063L762.064 70.9748V70.9748ZM772.285 65.5934H774.91V76.7593H772.285V65.5934ZM773.618 60.8771C773.173 60.8771 772.81 61.0384 772.507 61.3205C772.204 61.6027 772.042 61.9655 772.042 62.4089C772.042 62.8322 772.204 63.195 772.507 63.4771C772.81 63.7593 773.173 63.9004 773.618 63.9004C774.062 63.9004 774.446 63.7392 774.729 63.4771C775.032 63.195 775.193 62.8322 775.193 62.4089C775.193 61.9857 775.032 61.6229 774.729 61.3205C774.466 61.0384 774.082 60.8771 773.618 60.8771V60.8771ZM784.222 65.4926C783.737 65.3919 783.232 65.3314 782.748 65.3314C781.556 65.3314 780.465 65.5934 779.556 66.1174C778.647 66.6415 777.92 67.3671 777.455 68.274C776.971 69.2012 776.728 70.2694 776.728 71.4988C776.728 72.5671 776.971 73.5143 777.435 74.381C777.9 75.2275 778.546 75.9128 779.415 76.3764C780.243 76.8399 781.212 77.0818 782.303 77.0818C783.555 77.0818 784.626 76.8198 785.474 76.3361L785.495 76.3159V73.8973L785.394 73.9779C785.01 74.2601 784.565 74.5019 784.121 74.643C783.656 74.8043 783.232 74.8849 782.869 74.8849C781.818 74.8849 780.99 74.5826 780.405 73.9174C779.799 73.2725 779.496 72.3857 779.496 71.2771C779.496 70.1283 779.799 69.2213 780.425 68.5562C781.051 67.8911 781.879 67.5485 782.889 67.5485C783.737 67.5485 784.606 67.8306 785.394 68.395L785.495 68.4756V65.9159L785.474 65.8957C785.131 65.7547 784.747 65.5934 784.222 65.4926V65.4926ZM792.887 65.412C792.241 65.412 791.635 65.6136 791.11 66.0368C790.665 66.3996 790.362 66.9236 790.1 67.5485H790.08V65.5934H787.454V76.7593H790.08V71.0554C790.08 70.088 790.282 69.2818 790.726 68.6973C791.17 68.0926 791.736 67.7903 792.423 67.7903C792.665 67.7903 792.907 67.8508 793.21 67.8911C793.493 67.9717 793.695 68.0523 793.837 68.1531L793.938 68.2337V65.6136L793.877 65.5934C793.695 65.4725 793.332 65.412 792.887 65.412V65.412ZM800.038 65.3516C798.2 65.3516 796.725 65.8957 795.695 66.964C794.645 68.0322 794.14 69.5035 794.14 71.3578C794.14 73.0911 794.665 74.5019 795.675 75.5299C796.685 76.5376 798.058 77.0616 799.775 77.0616C801.573 77.0616 803.007 76.5174 804.037 75.4291C805.087 74.3407 805.592 72.8895 805.592 71.0957C805.592 69.3221 805.107 67.9112 804.118 66.8833C803.168 65.8554 801.775 65.3516 800.038 65.3516V65.3516ZM802.138 73.9376C801.654 74.5624 800.886 74.8647 799.937 74.8647C798.987 74.8647 798.22 74.5624 797.674 73.8973C797.129 73.2725 796.866 72.3655 796.866 71.2167C796.866 70.0275 797.149 69.1205 797.674 68.4756C798.22 67.8306 798.967 67.5081 799.916 67.5081C800.846 67.5081 801.573 67.8105 802.098 68.4353C802.623 69.0601 802.906 69.9671 802.906 71.1562C802.865 72.3655 802.643 73.3128 802.138 73.9376V73.9376ZM811.45 70.2291C810.622 69.8864 810.097 69.6244 809.854 69.4027C809.652 69.2012 809.551 68.919 809.551 68.5562C809.551 68.2539 809.672 67.9516 809.975 67.75C810.278 67.5485 810.622 67.4477 811.127 67.4477C811.571 67.4477 812.036 67.5283 812.48 67.6492C812.924 67.7702 813.328 67.9516 813.652 68.1934L813.753 68.274V65.8151L813.692 65.795C813.389 65.674 812.985 65.5531 812.5 65.4523C812.015 65.3717 811.571 65.3314 811.207 65.3314C809.955 65.3314 808.925 65.6337 808.117 66.2988C807.309 66.9236 806.925 67.7702 806.925 68.7578C806.925 69.2818 807.006 69.7454 807.188 70.1283C807.37 70.5112 807.632 70.874 807.996 71.1764C808.359 71.4585 808.885 71.781 809.612 72.0833C810.218 72.3454 810.682 72.5469 810.965 72.7081C811.248 72.8694 811.43 73.0508 811.571 73.1919C811.672 73.3531 811.733 73.5547 811.733 73.8167C811.733 74.5624 811.167 74.9252 810.016 74.9252C809.571 74.9252 809.107 74.8446 808.561 74.6632C808.016 74.4818 807.511 74.2198 807.087 73.9174L806.986 73.8368V76.3965L807.047 76.4167C807.43 76.5981 807.895 76.719 808.46 76.8601C809.026 76.9609 809.531 77.0415 809.975 77.0415C811.329 77.0415 812.44 76.7392 813.227 76.074C814.035 75.4291 814.459 74.6027 814.459 73.5345C814.459 72.7888 814.257 72.1237 813.813 71.6198C813.227 71.1361 812.5 70.6322 811.45 70.2291V70.2291ZM821.388 65.3516C819.55 65.3516 818.075 65.8957 817.045 66.964C816.015 68.0322 815.49 69.5035 815.49 71.3578C815.49 73.0911 816.015 74.5019 817.025 75.5299C818.035 76.5376 819.408 77.0616 821.125 77.0616C822.923 77.0616 824.357 76.5174 825.387 75.4291C826.437 74.3407 826.942 72.8895 826.942 71.0957C826.942 69.3221 826.457 67.9112 825.468 66.8833C824.518 65.8554 823.125 65.3516 821.388 65.3516V65.3516ZM823.468 73.9376C822.983 74.5624 822.216 74.8647 821.266 74.8647C820.297 74.8647 819.55 74.5624 819.004 73.8973C818.459 73.2725 818.196 72.3655 818.196 71.2167C818.196 70.0275 818.479 69.1205 819.004 68.4756C819.55 67.8306 820.297 67.5081 821.246 67.5081C822.155 67.5081 822.903 67.8105 823.428 68.4353C823.953 69.0601 824.236 69.9671 824.236 71.1562C824.236 72.3655 823.973 73.3128 823.468 73.9376V73.9376ZM840.98 67.75V65.5934H838.334V62.288L838.254 62.3081L835.749 63.0539L835.688 63.074V65.5934H831.729V64.1826C831.729 63.5376 831.891 63.0337 832.174 62.7112C832.456 62.3888 832.881 62.2275 833.406 62.2275C833.769 62.2275 834.153 62.3081 834.577 62.4895L834.678 62.55V60.2725L834.618 60.2523C834.254 60.1314 833.769 60.0508 833.143 60.0508C832.355 60.0508 831.669 60.2322 831.043 60.5345C830.416 60.8771 829.952 61.3407 829.608 61.9655C829.265 62.5702 829.083 63.2554 829.083 64.0415V65.5934H827.245V67.7299H829.083V76.7593H831.729V67.75H835.688V73.4942C835.688 75.8523 836.799 77.0415 839.021 77.0415C839.385 77.0415 839.768 76.981 840.132 76.9206C840.516 76.8399 840.799 76.7392 840.96 76.6585L840.98 76.6384V74.4818L840.879 74.5624C840.718 74.6632 840.576 74.7438 840.334 74.8043C840.132 74.8647 839.95 74.8849 839.809 74.8849C839.284 74.8849 838.92 74.764 838.657 74.4616C838.415 74.1795 838.294 73.7159 838.294 73.0306V67.75H840.98V67.75Z" fill="#737373"/>
<path d="M719 56H731.382V68.355H719V56Z" fill="#F25022"/>
<path d="M732.674 56H745.056V68.355H732.674V56Z" fill="#7FBA00"/>
<path d="M719 69.6445H731.382V81.9996H719V69.6445Z" fill="#00A4EF"/>
<path d="M732.674 69.6445H745.056V81.9996H732.674V69.6445Z" fill="#FFB900"/>
</g>
<g filter="url(#filter6_d_130_360)">
<rect x="889" y="81" width="170" height="96" rx="16" fill="#EBE6FA"/>
</g>
<path d="M1001.06 143.64C1009.04 143.64 1015.53 137.044 1015.53 128.936C1015.53 120.824 1009.04 114.232 1001.06 114.232C993.084 114.232 986.594 120.824 986.594 128.936C986.594 137.044 993.084 143.64 1001.06 143.64ZM1001.06 123.693C1003.91 123.693 1006.22 126.045 1006.22 128.935C1006.22 131.824 1003.91 134.173 1001.06 134.173C998.217 134.173 995.905 131.824 995.905 128.933C995.905 126.04 998.219 123.69 1001.06 123.69L1001.06 123.693ZM946.47 143.64C954.449 143.64 960.94 137.044 960.94 128.936C960.94 120.824 954.449 114.232 946.47 114.232C938.493 114.232 932 120.824 932 128.936C932 137.044 938.493 143.64 946.47 143.64ZM946.47 123.693C949.315 123.693 951.629 126.045 951.629 128.935C951.629 131.824 949.315 134.173 946.47 134.173C943.627 134.173 941.314 131.824 941.314 128.933C941.314 126.04 943.628 123.69 946.47 123.69V123.693ZM973.759 123.362L969.317 114.424H958.915L968.63 133.976V143.181H978.889V133.976L988.605 114.424H978.198L973.761 123.362H973.759Z" fill="#EE2E24"/>
<defs>
<filter id="filter0_d_130_360" x="461" y="191" width="250" height="176" filterUnits="userSpaceOnUse" color-interpolation-filters="sRGB">
<feFlood flood-opacity="0" result="BackgroundImageFix"/>
<feColorMatrix in="SourceAlpha" type="matrix" values="0 0 0 0 0 0 0 0 0 0 0 0 0 0 0 0 0 0 127 0" result="hardAlpha"/>
<feOffset dy="30"/>
<feGaussianBlur stdDeviation="20"/>
<feColorMatrix type="matrix" values="0 0 0 0 0.831373 0 0 0 0 0.85098 0 0 0 0 0.909804 0 0 0 0.2 0"/>
<feBlend mode="normal" in2="BackgroundImageFix" result="effect1_dropShadow_130_360"/>
<feBlend mode="normal" in="SourceGraphic" in2="effect1_dropShadow_130_360" result="shape"/>
</filter>
<filter id="filter1_d_130_360" x="655" y="131" width="250" height="176" filterUnits="userSpaceOnUse" color-interpolation-filters="sRGB">
<feFlood flood-opacity="0" result="BackgroundImageFix"/>
<feColorMatrix in="SourceAlpha" type="matrix" values="0 0 0 0 0 0 0 0 0 0 0 0 0 0 0 0 0 0 127 0" result="hardAlpha"/>
<feOffset dy="30"/>
<feGaussianBlur stdDeviation="20"/>
<feColorMatrix type="matrix" values="0 0 0 0 0.831373 0 0 0 0 0.85098 0 0 0 0 0.909804 0 0 0 0.2 0"/>
<feBlend mode="normal" in2="BackgroundImageFix" result="effect1_dropShadow_130_360"/>
<feBlend mode="normal" in="SourceGraphic" in2="effect1_dropShadow_130_360" result="shape"/>
</filter>
<filter id="filter2_d_130_360" x="655" y="251" width="250" height="176" filterUnits="userSpaceOnUse" color-interpolation-filters="sRGB">
<feFlood flood-opacity="0" result="BackgroundImageFix"/>
<feColorMatrix in="SourceAlpha" type="matrix" values="0 0 0 0 0 0 0 0 0 0 0 0 0 0 0 0 0 0 127 0" result="hardAlpha"/>
<feOffset dy="30"/>
<feGaussianBlur stdDeviation="20"/>
<feColorMatrix type="matrix" values="0 0 0 0 0.831373 0 0 0 0 0.85098 0 0 0 0 0.909804 0 0 0 0.2 0"/>
<feBlend mode="normal" in2="BackgroundImageFix" result="effect1_dropShadow_130_360"/>
<feBlend mode="normal" in="SourceGraphic" in2="effect1_dropShadow_130_360" result="shape"/>
</filter>
<filter id="filter3_d_130_360" x="849" y="191" width="250" height="176" filterUnits="userSpaceOnUse" color-interpolation-filters="sRGB">
<feFlood flood-opacity="0" result="BackgroundImageFix"/>
<feColorMatrix in="SourceAlpha" type="matrix" values="0 0 0 0 0 0 0 0 0 0 0 0 0 0 0 0 0 0 127 0" result="hardAlpha"/>
<feOffset dy="30"/>
<feGaussianBlur stdDeviation="20"/>
<feColorMatrix type="matrix" values="0 0 0 0 0.831373 0 0 0 0 0.85098 0 0 0 0 0.909804 0 0 0 0.2 0"/>
<feBlend mode="normal" in2="BackgroundImageFix" result="effect1_dropShadow_130_360"/>
<feBlend mode="normal" in="SourceGraphic" in2="effect1_dropShadow_130_360" result="shape"/>
</filter>
<filter id="filter4_d_130_360" x="461" y="71" width="250" height="176" filterUnits="userSpaceOnUse" color-interpolation-filters="sRGB">
<feFlood flood-opacity="0" result="BackgroundImageFix"/>
<feColorMatrix in="SourceAlpha" type="matrix" values="0 0 0 0 0 0 0 0 0 0 0 0 0 0 0 0 0 0 127 0" result="hardAlpha"/>
<feOffset dy="30"/>
<feGaussianBlur stdDeviation="20"/>
<feColorMatrix type="matrix" values="0 0 0 0 0.831373 0 0 0 0 0.85098 0 0 0 0 0.909804 0 0 0 0.2 0"/>
<feBlend mode="normal" in2="BackgroundImageFix" result="effect1_dropShadow_130_360"/>
<feBlend mode="normal" in="SourceGraphic" in2="effect1_dropShadow_130_360" result="shape"/>
</filter>
<filter id="filter5_d_130_360" x="655" y="11" width="250" height="176" filterUnits="userSpaceOnUse" color-interpolation-filters="sRGB">
<feFlood flood-opacity="0" result="BackgroundImageFix"/>
<feColorMatrix in="SourceAlpha" type="matrix" values="0 0 0 0 0 0 0 0 0 0 0 0 0 0 0 0 0 0 127 0" result="hardAlpha"/>
<feOffset dy="30"/>
<feGaussianBlur stdDeviation="20"/>
<feColorMatrix type="matrix" values="0 0 0 0 0.831373 0 0 0 0 0.85098 0 0 0 0 0.909804 0 0 0 0.2 0"/>
<feBlend mode="normal" in2="BackgroundImageFix" result="effect1_dropShadow_130_360"/>
<feBlend mode="normal" in="SourceGraphic" in2="effect1_dropShadow_130_360" result="shape"/>
</filter>
<filter id="filter6_d_130_360" x="849" y="71" width="250" height="176" filterUnits="userSpaceOnUse" color-interpolation-filters="sRGB">
<feFlood flood-opacity="0" result="BackgroundImageFix"/>
<feColorMatrix in="SourceAlpha" type="matrix" values="0 0 0 0 0 0 0 0 0 0 0 0 0 0 0 0 0 0 127 0" result="hardAlpha"/>
<feOffset dy="30"/>
<feGaussianBlur stdDeviation="20"/>
<feColorMatrix type="matrix" values="0 0 0 0 0.831373 0 0 0 0 0.85098 0 0 0 0 0.909804 0 0 0 0.2 0"/>
<feBlend mode="normal" in2="BackgroundImageFix" result="effect1_dropShadow_130_360"/>
<feBlend mode="normal" in="SourceGraphic" in2="effect1_dropShadow_130_360" result="shape"/>
</filter>
<clipPath id="clip0_130_360">
<rect width="100" height="30" fill="white" transform="translate(730 174)"/>
</clipPath>
<clipPath id="clip1_130_360">
<rect width="120" height="28" fill="white" transform="translate(720 295)"/>
</clipPath>
<clipPath id="clip2_130_360">
<rect width="98" height="34" fill="white" transform="translate(925 232)"/>
</clipPath>
<clipPath id="clip3_130_360">
<rect width="95" height="32" fill="white" transform="translate(539 113)"/>
</clipPath>
<clipPath id="clip4_130_360">
<rect width="122" height="26" fill="white" transform="translate(719 56)"/>
</clipPath>
</defs>
</svg>
