<svg width="670" height="102" viewBox="0 0 670 102" fill="none" xmlns="http://www.w3.org/2000/svg">
<mask id="path-1-outside-1_101_777" maskUnits="userSpaceOnUse" x="-1" y="-1" width="672" height="104" fill="black">
<rect fill="white" x="-1" y="-1" width="672" height="104"/>
<path d="M89.3311 87.8462C84.7135 92.2895 79.2465 95.7527 72.93 98.2357C66.6571 100.719 59.8179 101.96 52.4124 101.96C44.9633 101.96 38.0587 100.697 31.6987 98.1704C25.3822 95.6002 19.8716 92.0282 15.1669 87.4542C10.5058 82.8366 6.86839 77.4349 4.25468 71.2491C1.68453 65.0634 0.399452 58.3113 0.399452 50.9929C0.399452 43.6745 1.68453 36.9224 4.25468 30.7366C6.86839 24.5508 10.5058 19.1709 15.1669 14.5969C19.8716 9.97934 25.3822 6.40727 31.6987 3.88068C38.0587 1.31053 44.9633 0.0254494 52.4124 0.0254494C59.7743 0.0254494 66.57 1.28874 72.7993 3.81533C79.0722 6.29836 84.5175 9.76153 89.135 14.2048L71.1004 32.3702C68.8352 29.3208 66.0472 26.9249 62.7365 25.1824C59.4694 23.44 55.8973 22.5687 52.0203 22.5687C48.4482 22.5687 45.1375 23.2875 42.0882 24.725C39.0389 26.1626 36.3598 28.1664 34.051 30.7366C31.7858 33.3067 30.0215 36.3125 28.7582 39.7539C27.495 43.1953 26.8633 46.9198 26.8633 50.9275C26.8633 54.9788 27.495 58.7251 28.7582 62.1665C30.0215 65.6079 31.7858 68.6354 34.051 71.2491C36.3598 73.8193 39.0389 75.8231 42.0882 77.2607C45.1375 78.6982 48.4482 79.417 52.0203 79.417C55.8973 79.417 59.4694 78.5458 62.7365 76.8033C66.0037 75.0608 68.7698 72.6649 71.0351 69.6156L89.3311 87.8462ZM149.25 101.96C141.758 101.96 134.831 100.697 128.471 98.1704C122.155 95.6002 116.644 92.0282 111.94 87.4542C107.279 82.8366 103.663 77.4349 101.093 71.2491C98.5226 65.0634 97.2375 58.3113 97.2375 50.9929C97.2375 43.6745 98.5226 36.9224 101.093 30.7366C103.663 24.5508 107.279 19.1709 111.94 14.5969C116.644 9.97934 122.155 6.40727 128.471 3.88068C134.831 1.31053 141.758 0.0254494 149.25 0.0254494C156.787 0.0254494 163.713 1.31053 170.029 3.88068C176.346 6.40727 181.813 9.97934 186.431 14.5969C191.092 19.1709 194.707 24.5508 197.277 30.7366C199.848 36.9224 201.133 43.6745 201.133 50.9929C201.133 58.3113 199.848 65.0634 197.277 71.2491C194.707 77.4349 191.092 82.8366 186.431 87.4542C181.813 92.0282 176.346 95.6002 170.029 98.1704C163.713 100.697 156.787 101.96 149.25 101.96ZM149.25 79.417C152.866 79.417 156.22 78.6982 159.313 77.2607C162.406 75.8231 165.085 73.8193 167.35 71.2491C169.659 68.6354 171.445 65.6079 172.709 62.1665C174.015 58.7251 174.669 55.0006 174.669 50.9929C174.669 46.9852 174.015 43.2606 172.709 39.8192C171.445 36.3779 169.659 33.3721 167.35 30.8019C165.085 28.1882 162.406 26.1626 159.313 24.725C156.22 23.2875 152.866 22.5687 149.25 22.5687C145.635 22.5687 142.259 23.2875 139.122 24.725C136.029 26.1626 133.329 28.1882 131.02 30.8019C128.711 33.3721 126.903 36.3779 125.596 39.8192C124.333 43.2606 123.701 46.9852 123.701 50.9929C123.701 55.0006 124.333 58.7251 125.596 62.1665C126.903 65.6079 128.711 68.6354 131.02 71.2491C133.329 73.8193 136.029 75.8231 139.122 77.2607C142.259 78.6982 145.635 79.417 149.25 79.417ZM303.198 100H272.748L237.463 41.8449V100H211.588V1.98573H242.037L277.322 60.3369V1.98573H303.198V100ZM407.877 100H377.428L342.143 41.8449V100H316.267V1.98573H346.717L382.002 60.3369V1.98573H407.877V100ZM420.946 100V1.98573H486.289V24.529H446.822V39.6886H483.675V62.2318H446.822V77.4567H486.942V100H420.946ZM585.022 87.8462C580.404 92.2895 574.937 95.7527 568.621 98.2357C562.348 100.719 555.509 101.96 548.103 101.96C540.654 101.96 533.75 100.697 527.389 98.1704C521.073 95.6002 515.562 92.0282 510.858 87.4542C506.197 82.8366 502.559 77.4349 499.945 71.2491C497.375 65.0634 496.09 58.3113 496.09 50.9929C496.09 43.6745 497.375 36.9224 499.945 30.7366C502.559 24.5508 506.197 19.1709 510.858 14.5969C515.562 9.97934 521.073 6.40727 527.389 3.88068C533.75 1.31053 540.654 0.0254494 548.103 0.0254494C555.465 0.0254494 562.261 1.28874 568.49 3.81533C574.763 6.29836 580.208 9.76153 584.826 14.2048L566.791 32.3702C564.526 29.3208 561.738 26.9249 558.427 25.1824C555.16 23.44 551.588 22.5687 547.711 22.5687C544.139 22.5687 540.828 23.2875 537.779 24.725C534.73 26.1626 532.051 28.1664 529.742 30.7366C527.477 33.3067 525.712 36.3125 524.449 39.7539C523.186 43.1953 522.554 46.9198 522.554 50.9275C522.554 54.9788 523.186 58.7251 524.449 62.1665C525.712 65.6079 527.477 68.6354 529.742 71.2491C532.051 73.8193 534.73 75.8231 537.779 77.2607C540.828 78.6982 544.139 79.417 547.711 79.417C551.588 79.417 555.16 78.5458 558.427 76.8033C561.694 75.0608 564.461 72.6649 566.726 69.6156L585.022 87.8462ZM642.72 100H616.844V24.529H589.661V1.98573H669.902V24.529H642.72V100Z"/>
</mask>
<path d="M89.3311 87.8462L90.0195 88.5617L90.7501 87.8586L90.0319 87.1429L89.3311 87.8462ZM72.93 98.2357L72.5668 97.3117L72.5646 97.3126L72.93 98.2357ZM31.6987 98.1704L31.3245 99.0901L31.3321 99.0931L31.6987 98.1704ZM15.1669 87.4542L14.4681 88.1596L14.4748 88.166L15.1669 87.4542ZM4.25468 71.2491L3.33779 71.6301L3.34011 71.6356L4.25468 71.2491ZM4.25468 30.7366L3.34009 30.3501L3.33781 30.3556L4.25468 30.7366ZM15.1669 14.5969L15.8623 15.3056L15.8624 15.3055L15.1669 14.5969ZM31.6987 3.88068L32.0674 4.80253L32.0707 4.80122L31.6987 3.88068ZM72.7993 3.81533L72.4261 4.73543L72.4339 4.73851L72.7993 3.81533ZM89.135 14.2048L89.8396 14.9044L90.5502 14.1887L89.8235 13.4894L89.135 14.2048ZM71.1004 32.3702L70.3034 32.9622L70.9917 33.8888L71.805 33.0697L71.1004 32.3702ZM62.7365 25.1824L62.2693 26.0585L62.2741 26.0611L62.7365 25.1824ZM34.051 30.7366L33.3124 30.0731L33.3062 30.0801L34.051 30.7366ZM28.7582 39.7539L27.8262 39.4118L28.7582 39.7539ZM28.7582 62.1665L27.8262 62.5086L28.7582 62.1665ZM34.051 71.2491L33.3007 71.8994L33.3065 71.9061L33.3124 71.9127L34.051 71.2491ZM71.0351 69.6156L71.7359 68.9123L70.9226 68.1019L70.2381 69.0235L71.0351 69.6156ZM88.6426 87.1308C84.1242 91.4787 78.7695 94.8734 72.5668 97.3117L73.2933 99.1598C79.7235 96.632 85.3028 93.1004 90.0195 88.5617L88.6426 87.1308ZM72.5646 97.3126C66.4189 99.7453 59.705 100.967 52.4124 100.967V102.953C59.9307 102.953 66.8953 101.692 73.2954 99.1589L72.5646 97.3126ZM52.4124 100.967C45.0776 100.967 38.2987 99.724 32.0652 97.2477L31.3321 99.0931C37.8187 101.67 44.8489 102.953 52.4124 102.953V100.967ZM32.0729 97.2507C25.87 94.7268 20.4685 91.2237 15.859 86.7423L14.4748 88.166C19.2747 92.8326 24.8944 96.4737 31.3245 99.09L32.0729 97.2507ZM15.8657 86.7488C11.2988 82.2246 7.73374 76.932 5.16925 70.8627L3.34011 71.6356C6.00304 77.9379 9.71281 83.4486 14.4682 88.1595L15.8657 86.7488ZM5.17155 70.8682C2.65604 64.8139 1.39232 58.1927 1.39232 50.9929H-0.59341C-0.59341 58.4298 0.713022 65.3128 3.33781 71.6301L5.17155 70.8682ZM1.39232 50.9929C1.39232 43.793 2.65604 37.1718 5.17155 31.1175L3.33781 30.3556C0.713022 36.6729 -0.59341 43.5559 -0.59341 50.9929H1.39232ZM5.16925 31.123C7.73339 25.0546 11.2975 19.7851 15.8623 15.3056L14.4715 13.8883C9.71411 18.5567 6.0034 24.047 3.34011 30.3501L5.16925 31.123ZM15.8624 15.3055C20.4703 10.7829 25.8689 7.28194 32.0674 4.80253L31.3299 2.95883C24.8955 5.5326 19.2729 9.17579 14.4715 13.8883L15.8624 15.3055ZM32.0707 4.80122C38.3027 2.2828 45.0797 1.01831 52.4124 1.01831V-0.967415C44.8468 -0.967415 37.8147 0.338253 31.3267 2.96014L32.0707 4.80122ZM52.4124 1.01831C59.6586 1.01831 66.3262 2.26128 72.4261 4.7354L73.1725 2.89527C66.8138 0.316212 59.89 -0.967415 52.4124 -0.967415V1.01831ZM72.4339 4.73851C78.5931 7.17652 83.927 10.5713 88.4466 14.9203L89.8235 13.4894C85.1079 8.95181 79.5514 5.42021 73.1647 2.89216L72.4339 4.73851ZM88.4304 13.5053L70.3958 31.6706L71.805 33.0697L89.8396 14.9044L88.4304 13.5053ZM71.8974 31.7781C69.5449 28.6113 66.6433 26.1167 63.199 24.3038L62.2741 26.0611C65.4512 27.7332 68.1254 30.0304 70.3034 32.9622L71.8974 31.7781ZM63.2038 24.3064C59.786 22.4836 56.0523 21.5759 52.0203 21.5759V23.5616C55.7423 23.5616 59.1528 24.3964 62.2693 26.0585L63.2038 24.3064ZM52.0203 21.5759C48.3108 21.5759 44.8544 22.3233 41.6648 23.827L42.5116 25.6231C45.4206 24.2517 48.5857 23.5616 52.0203 23.5616V21.5759ZM41.6648 23.827C38.4928 25.3223 35.7073 27.407 33.3124 30.0731L34.7896 31.4001C37.0123 28.9258 39.5849 27.0028 42.5116 25.6231L41.6648 23.827ZM33.3062 30.0801C30.9541 32.7488 29.1289 35.8631 27.8262 39.4118L29.6903 40.096C30.9142 36.762 32.6175 33.8646 34.7959 31.3931L33.3062 30.0801ZM27.8262 39.4118C26.5191 42.9725 25.8704 46.814 25.8704 50.9275H27.8562C27.8562 47.0257 28.4708 43.4181 29.6903 40.096L27.8262 39.4118ZM25.8704 50.9275C25.8704 55.0833 26.5187 58.9467 27.8262 62.5086L29.6903 61.8243C28.4712 58.5035 27.8562 54.8743 27.8562 50.9275H25.8704ZM27.8262 62.5086C29.1284 66.0561 30.9521 69.1895 33.3007 71.8994L34.8013 70.5989C32.6195 68.0814 30.9147 65.1597 29.6903 61.8243L27.8262 62.5086ZM33.3124 71.9127C35.7073 74.5787 38.4928 76.6634 41.6648 78.1588L42.5116 76.3626C39.5849 74.9829 37.0123 73.0599 34.7896 70.5856L33.3124 71.9127ZM41.6648 78.1588C44.8544 79.6624 48.3108 80.4099 52.0203 80.4099V78.4241C48.5857 78.4241 45.4206 77.734 42.5116 76.3626L41.6648 78.1588ZM52.0203 80.4099C56.0523 80.4099 59.786 79.5022 63.2038 77.6793L62.2693 75.9272C59.1528 77.5894 55.7423 78.4241 52.0203 78.4241V80.4099ZM63.2038 77.6793C66.6039 75.8659 69.4816 73.3717 71.8321 70.2076L70.2381 69.0235C68.0581 71.9581 65.4034 74.2557 62.2693 75.9272L63.2038 77.6793ZM70.3343 70.3189L88.6303 88.5495L90.0319 87.1429L71.7359 68.9123L70.3343 70.3189ZM128.471 98.1704L128.097 99.0901L128.105 99.0931L128.471 98.1704ZM111.94 87.4542L111.241 88.1596L111.248 88.166L111.94 87.4542ZM111.94 14.5969L112.635 15.3056L112.635 15.3055L111.94 14.5969ZM128.471 3.88068L128.84 4.80253L128.843 4.80122L128.471 3.88068ZM170.029 3.88068L169.655 4.80034L169.661 4.80253L170.029 3.88068ZM186.431 14.5969L185.728 15.299L185.735 15.3056L186.431 14.5969ZM197.277 30.7366L196.361 31.1175L197.277 30.7366ZM197.277 71.2491L196.361 70.8682L197.277 71.2491ZM186.431 87.4542L187.129 88.1596L187.129 88.1595L186.431 87.4542ZM170.029 98.1704L170.398 99.0923L170.404 99.09L170.029 98.1704ZM159.313 77.2607L159.732 78.1611L159.313 77.2607ZM167.35 71.2491L166.606 70.5918L166.606 70.5927L167.35 71.2491ZM172.709 62.1665L171.78 61.814L171.776 61.8243L172.709 62.1665ZM172.709 39.8192L171.776 40.1614L171.78 40.1717L172.709 39.8192ZM167.35 30.8019L166.6 31.4522L166.606 31.4589L166.612 31.4654L167.35 30.8019ZM159.313 24.725L159.732 23.8247L159.313 24.725ZM139.122 24.725L138.709 23.8225L138.704 23.8247L139.122 24.725ZM131.02 30.8019L131.758 31.4655L131.764 31.4592L131.02 30.8019ZM125.596 39.8192L124.668 39.4667L124.664 39.4771L125.596 39.8192ZM125.596 62.1665L124.664 62.5087L124.668 62.519L125.596 62.1665ZM131.02 71.2491L130.276 71.9065L130.281 71.9127L131.02 71.2491ZM139.122 77.2607L138.704 78.1611L138.709 78.1633L139.122 77.2607ZM149.25 100.967C141.871 100.967 135.071 99.7237 128.838 97.2477L128.105 99.0931C134.592 101.67 141.644 102.953 149.25 102.953V100.967ZM128.846 97.2507C122.643 94.7268 117.241 91.2237 112.632 86.7423L111.248 88.166C116.047 92.8326 121.667 96.4737 128.097 99.09L128.846 97.2507ZM112.638 86.7488C108.073 82.2258 104.53 76.9351 102.01 70.8682L100.176 71.6301C102.795 77.9348 106.484 83.4474 111.241 88.1595L112.638 86.7488ZM102.01 70.8682C99.4941 64.8139 98.2304 58.1927 98.2304 50.9929H96.2447C96.2447 58.4298 97.5511 65.3128 100.176 71.6301L102.01 70.8682ZM98.2304 50.9929C98.2304 43.793 99.4941 37.1718 102.01 31.1175L100.176 30.3556C97.5511 36.6729 96.2447 43.5559 96.2447 50.9929H98.2304ZM102.01 31.1175C104.53 25.0515 108.072 19.7839 112.635 15.3056L111.244 13.8883C106.486 18.558 102.796 24.0501 100.176 30.3556L102.01 31.1175ZM112.635 15.3055C117.243 10.7829 122.642 7.28194 128.84 4.80253L128.103 2.95883C121.668 5.5326 116.046 9.17579 111.244 13.8883L112.635 15.3055ZM128.843 4.80122C135.075 2.28307 141.873 1.01831 149.25 1.01831V-0.967415C141.642 -0.967415 134.588 0.337978 128.099 2.96014L128.843 4.80122ZM149.25 1.01831C156.672 1.01831 163.47 2.28337 169.655 4.80032L170.404 2.96103C163.956 0.337681 156.901 -0.967415 149.25 -0.967415V1.01831ZM169.661 4.80253C175.858 7.28131 181.21 10.7805 185.728 15.299L187.133 13.8948C182.416 9.17823 176.834 5.53322 170.398 2.95883L169.661 4.80253ZM185.735 15.3056C190.299 19.7839 193.84 25.0515 196.361 31.1175L198.194 30.3556C195.574 24.0501 191.885 18.558 187.126 13.8883L185.735 15.3056ZM196.361 31.1175C198.876 37.1718 200.14 43.793 200.14 50.9929H202.126C202.126 43.5559 200.819 36.6729 198.194 30.3556L196.361 31.1175ZM200.14 50.9929C200.14 58.1927 198.876 64.8139 196.361 70.8682L198.194 71.6301C200.819 65.3128 202.126 58.4298 202.126 50.9929H200.14ZM196.361 70.8682C193.84 76.9351 190.297 82.2258 185.732 86.7488L187.129 88.1595C191.886 83.4474 195.575 77.9348 198.194 71.6301L196.361 70.8682ZM185.732 86.7488C181.212 91.2262 175.857 94.7275 169.655 97.2507L170.404 99.09C176.835 96.473 182.414 92.8302 187.129 88.1596L185.732 86.7488ZM169.661 97.2486C163.474 99.7234 156.674 100.967 149.25 100.967V102.953C156.899 102.953 163.952 101.671 170.398 99.0923L169.661 97.2486ZM149.25 80.4099C153.002 80.4099 156.5 79.6632 159.732 78.1611L158.895 76.3603C155.941 77.7333 152.73 78.4241 149.25 78.4241V80.4099ZM159.732 78.1611C162.95 76.6654 165.74 74.5783 168.095 71.9056L166.606 70.5927C164.431 73.0603 161.863 74.9809 158.895 76.3603L159.732 78.1611ZM168.095 71.9065C170.489 69.1956 172.337 66.0598 173.641 62.5086L171.776 61.8243C170.553 65.1559 168.829 68.0753 166.606 70.5918L168.095 71.9065ZM173.637 62.519C174.99 58.9554 175.662 55.1103 175.662 50.9929H173.676C173.676 54.8908 173.041 58.4948 171.78 61.814L173.637 62.519ZM175.662 50.9929C175.662 46.8754 174.99 43.0303 173.637 39.4668L171.78 40.1717C173.041 43.4909 173.676 47.0949 173.676 50.9929H175.662ZM173.641 39.4771C172.337 35.9246 170.487 32.8081 168.089 30.1384L166.612 31.4654C168.831 33.9361 170.554 36.8311 171.776 40.1614L173.641 39.4771ZM168.101 30.1517C165.745 27.4337 162.953 25.3221 159.732 23.8247L158.895 25.6254C161.859 27.0031 164.425 28.9428 166.6 31.4522L168.101 30.1517ZM159.732 23.8247C156.5 22.3226 153.002 21.5759 149.25 21.5759V23.5616C152.73 23.5616 155.941 24.2524 158.895 25.6254L159.732 23.8247ZM149.25 21.5759C145.499 21.5759 141.981 22.3226 138.709 23.8225L139.536 25.6276C142.536 24.2524 145.771 23.5616 149.25 23.5616V21.5759ZM138.704 23.8247C135.484 25.3212 132.673 27.4307 130.276 30.1446L131.764 31.4592C133.984 28.9458 136.575 27.0039 139.541 25.6254L138.704 23.8247ZM130.281 30.1384C127.885 32.8055 126.016 35.9185 124.668 39.4668L126.525 40.1717C127.791 36.8372 129.537 33.9387 131.758 31.4654L130.281 30.1384ZM124.664 39.4771C123.357 43.0378 122.709 46.8793 122.709 50.9929H124.694C124.694 47.091 125.309 43.4834 126.528 40.1614L124.664 39.4771ZM122.709 50.9929C122.709 55.1064 123.357 58.9479 124.664 62.5086L126.528 61.8243C125.309 58.5023 124.694 54.8947 124.694 50.9929H122.709ZM124.668 62.519C126.015 66.0659 127.883 69.1982 130.276 71.9065L131.764 70.5918C129.539 68.0727 127.791 65.1498 126.525 61.814L124.668 62.519ZM130.281 71.9127C132.678 74.5812 135.488 76.6662 138.704 78.1611L139.541 76.3603C136.571 74.9801 133.979 73.0574 131.758 70.5856L130.281 71.9127ZM138.709 78.1633C141.981 79.6632 145.499 80.4099 149.25 80.4099V78.4241C145.771 78.4241 142.536 77.7333 139.536 76.3581L138.709 78.1633ZM303.198 100V100.993H304.191V100H303.198ZM272.748 100L271.9 100.515L272.19 100.993H272.748V100ZM237.463 41.8449L238.312 41.3298L236.47 38.2944V41.8449H237.463ZM237.463 100V100.993H238.456V100H237.463ZM211.588 100H210.595V100.993H211.588V100ZM211.588 1.98573V0.99287H210.595V1.98573H211.588ZM242.037 1.98573L242.887 1.47197L242.597 0.99287H242.037V1.98573ZM277.322 60.3369L276.473 60.8507L278.315 63.8976V60.3369H277.322ZM277.322 1.98573V0.99287H276.33V1.98573H277.322ZM303.198 1.98573H304.191V0.99287H303.198V1.98573ZM303.198 99.0071H272.748V100.993H303.198V99.0071ZM273.597 99.485L238.312 41.3298L236.614 42.3599L271.9 100.515L273.597 99.485ZM236.47 41.8449V100H238.456V41.8449H236.47ZM237.463 99.0071H211.588V100.993H237.463V99.0071ZM212.58 100V1.98573H210.595V100H212.58ZM211.588 2.9786H242.037V0.99287H211.588V2.9786ZM241.188 2.49949L276.473 60.8507L278.172 59.8231L242.887 1.47197L241.188 2.49949ZM278.315 60.3369V1.98573H276.33V60.3369H278.315ZM277.322 2.9786H303.198V0.99287H277.322V2.9786ZM302.205 1.98573V100H304.191V1.98573H302.205ZM407.877 100V100.993H408.87V100H407.877ZM377.428 100L376.579 100.515L376.869 100.993H377.428V100ZM342.143 41.8449L342.991 41.3298L341.15 38.2944V41.8449H342.143ZM342.143 100V100.993H343.135V100H342.143ZM316.267 100H315.274V100.993H316.267V100ZM316.267 1.98573V0.99287H315.274V1.98573H316.267ZM346.717 1.98573L347.566 1.47197L347.276 0.99287H346.717V1.98573ZM382.002 60.3369L381.152 60.8507L382.995 63.8976V60.3369H382.002ZM382.002 1.98573V0.99287H381.009V1.98573H382.002ZM407.877 1.98573H408.87V0.99287H407.877V1.98573ZM407.877 99.0071H377.428V100.993H407.877V99.0071ZM378.277 99.485L342.991 41.3298L341.294 42.3599L376.579 100.515L378.277 99.485ZM341.15 41.8449V100H343.135V41.8449H341.15ZM342.143 99.0071H316.267V100.993H342.143V99.0071ZM317.26 100V1.98573H315.274V100H317.26ZM316.267 2.9786H346.717V0.99287H316.267V2.9786ZM345.867 2.49949L381.152 60.8507L382.851 59.8231L347.566 1.47197L345.867 2.49949ZM382.995 60.3369V1.98573H381.009V60.3369H382.995ZM382.002 2.9786H407.877V0.99287H382.002V2.9786ZM406.885 1.98573V100H408.87V1.98573H406.885ZM420.946 100H419.953V100.993H420.946V100ZM420.946 1.98573V0.99287H419.953V1.98573H420.946ZM486.289 1.98573H487.282V0.99287H486.289V1.98573ZM486.289 24.529V25.5219H487.282V24.529H486.289ZM446.822 24.529V23.5361H445.829V24.529H446.822ZM446.822 39.6886H445.829V40.6814H446.822V39.6886ZM483.675 39.6886H484.668V38.6957H483.675V39.6886ZM483.675 62.2318V63.2247H484.668V62.2318H483.675ZM446.822 62.2318V61.239H445.829V62.2318H446.822ZM446.822 77.4567H445.829V78.4496H446.822V77.4567ZM486.942 77.4567H487.935V76.4639H486.942V77.4567ZM486.942 100V100.993H487.935V100H486.942ZM421.939 100V1.98573H419.953V100H421.939ZM420.946 2.9786H486.289V0.99287H420.946V2.9786ZM485.296 1.98573V24.529H487.282V1.98573H485.296ZM486.289 23.5361H446.822V25.5219H486.289V23.5361ZM445.829 24.529V39.6886H447.815V24.529H445.829ZM446.822 40.6814H483.675V38.6957H446.822V40.6814ZM482.682 39.6886V62.2318H484.668V39.6886H482.682ZM483.675 61.239H446.822V63.2247H483.675V61.239ZM445.829 62.2318V77.4567H447.815V62.2318H445.829ZM446.822 78.4496H486.942V76.4639H446.822V78.4496ZM485.949 77.4567V100H487.935V77.4567H485.949ZM486.942 99.0071H420.946V100.993H486.942V99.0071ZM585.022 87.8462L585.71 88.5617L586.441 87.8586L585.723 87.1429L585.022 87.8462ZM568.621 98.2357L568.258 97.3117L568.255 97.3126L568.621 98.2357ZM527.389 98.1704L527.015 99.0901L527.023 99.0931L527.389 98.1704ZM510.858 87.4542L510.159 88.1596L510.166 88.166L510.858 87.4542ZM499.945 71.2491L499.029 71.6301L499.031 71.6356L499.945 71.2491ZM499.945 30.7366L499.031 30.3501L499.029 30.3556L499.945 30.7366ZM510.858 14.5969L511.553 15.3056L511.553 15.3055L510.858 14.5969ZM527.389 3.88068L527.758 4.80253L527.761 4.80122L527.389 3.88068ZM568.49 3.81533L568.117 4.73543L568.125 4.73851L568.49 3.81533ZM584.826 14.2048L585.53 14.9044L586.241 14.1887L585.514 13.4894L584.826 14.2048ZM566.791 32.3702L565.994 32.9622L566.683 33.8888L567.496 33.0697L566.791 32.3702ZM558.427 25.1824L557.96 26.0585L557.965 26.0611L558.427 25.1824ZM529.742 30.7366L529.003 30.0731L528.997 30.0801L529.742 30.7366ZM524.449 39.7539L523.517 39.4118L524.449 39.7539ZM524.449 62.1665L523.517 62.5086L524.449 62.1665ZM529.742 71.2491L528.992 71.8994L528.997 71.9061L529.003 71.9127L529.742 71.2491ZM566.726 69.6156L567.427 68.9123L566.613 68.1019L565.929 69.0235L566.726 69.6156ZM584.333 87.1308C579.815 91.4787 574.46 94.8734 568.258 97.3117L568.984 99.1598C575.414 96.632 580.994 93.1004 585.71 88.5617L584.333 87.1308ZM568.255 97.3126C562.11 99.7453 555.396 100.967 548.103 100.967V102.953C555.622 102.953 562.586 101.692 568.986 99.1589L568.255 97.3126ZM548.103 100.967C540.768 100.967 533.99 99.724 527.756 97.2477L527.023 99.0931C533.51 101.67 540.54 102.953 548.103 102.953V100.967ZM527.764 97.2507C521.561 94.7268 516.159 91.2237 511.55 86.7423L510.166 88.166C514.966 92.8326 520.585 96.4737 527.015 99.09L527.764 97.2507ZM511.556 86.7488C506.99 82.2246 503.425 76.932 500.86 70.8627L499.031 71.6356C501.694 77.9379 505.404 83.4486 510.159 88.1595L511.556 86.7488ZM500.862 70.8682C498.347 64.8139 497.083 58.1927 497.083 50.9929H495.097C495.097 58.4298 496.404 65.3128 499.029 71.6301L500.862 70.8682ZM497.083 50.9929C497.083 43.793 498.347 37.1718 500.862 31.1175L499.029 30.3556C496.404 36.6729 495.097 43.5559 495.097 50.9929H497.083ZM500.86 31.123C503.424 25.0546 506.988 19.7851 511.553 15.3056L510.162 13.8883C505.405 18.5567 501.694 24.047 499.031 30.3501L500.86 31.123ZM511.553 15.3055C516.161 10.7829 521.56 7.28194 527.758 4.80253L527.021 2.95883C520.586 5.5326 514.964 9.17579 510.162 13.8883L511.553 15.3055ZM527.761 4.80122C533.993 2.2828 540.771 1.01831 548.103 1.01831V-0.967415C540.538 -0.967415 533.505 0.338253 527.017 2.96014L527.761 4.80122ZM548.103 1.01831C555.349 1.01831 562.017 2.26128 568.117 4.7354L568.863 2.89527C562.505 0.316212 555.581 -0.967415 548.103 -0.967415V1.01831ZM568.125 4.73851C574.284 7.17652 579.618 10.5713 584.137 14.9203L585.514 13.4894C580.799 8.95181 575.242 5.42021 568.856 2.89216L568.125 4.73851ZM584.121 13.5053L566.087 31.6706L567.496 33.0697L585.53 14.9044L584.121 13.5053ZM567.588 31.7781C565.236 28.6113 562.334 26.1167 558.89 24.3038L557.965 26.0611C561.142 27.7332 563.816 30.0304 565.994 32.9622L567.588 31.7781ZM558.895 24.3064C555.477 22.4836 551.743 21.5759 547.711 21.5759V23.5616C551.433 23.5616 554.844 24.3964 557.96 26.0585L558.895 24.3064ZM547.711 21.5759C544.002 21.5759 540.545 22.3233 537.356 23.827L538.202 25.6231C541.111 24.2517 544.276 23.5616 547.711 23.5616V21.5759ZM537.356 23.827C534.184 25.3223 531.398 27.407 529.003 30.0731L530.48 31.4001C532.703 28.9258 535.276 27.0028 538.202 25.6231L537.356 23.827ZM528.997 30.0801C526.645 32.7488 524.82 35.8631 523.517 39.4118L525.381 40.096C526.605 36.762 528.308 33.8646 530.487 31.3931L528.997 30.0801ZM523.517 39.4118C522.21 42.9725 521.561 46.814 521.561 50.9275H523.547C523.547 47.0257 524.162 43.4181 525.381 40.096L523.517 39.4118ZM521.561 50.9275C521.561 55.0833 522.209 58.9467 523.517 62.5086L525.381 61.8243C524.162 58.5035 523.547 54.8743 523.547 50.9275H521.561ZM523.517 62.5086C524.819 66.0561 526.643 69.1895 528.992 71.8994L530.492 70.5989C528.31 68.0814 526.605 65.1597 525.381 61.8243L523.517 62.5086ZM529.003 71.9127C531.398 74.5787 534.184 76.6634 537.356 78.1588L538.202 76.3626C535.276 74.9829 532.703 73.0599 530.48 70.5856L529.003 71.9127ZM537.356 78.1588C540.545 79.6624 544.002 80.4099 547.711 80.4099V78.4241C544.276 78.4241 541.111 77.734 538.202 76.3626L537.356 78.1588ZM547.711 80.4099C551.743 80.4099 555.477 79.5022 558.895 77.6793L557.96 75.9272C554.844 77.5894 551.433 78.4241 547.711 78.4241V80.4099ZM558.895 77.6793C562.295 75.8659 565.172 73.3717 567.523 70.2076L565.929 69.0235C563.749 71.9581 561.094 74.2557 557.96 75.9272L558.895 77.6793ZM566.025 70.3189L584.321 88.5495L585.723 87.1429L567.427 68.9123L566.025 70.3189ZM642.72 100V100.993H643.712V100H642.72ZM616.844 100H615.851V100.993H616.844V100ZM616.844 24.529H617.837V23.5361H616.844V24.529ZM589.661 24.529H588.668V25.5219H589.661V24.529ZM589.661 1.98573V0.99287H588.668V1.98573H589.661ZM669.902 1.98573H670.895V0.99287H669.902V1.98573ZM669.902 24.529V25.5219H670.895V24.529H669.902ZM642.72 24.529V23.5361H641.727V24.529H642.72ZM642.72 99.0071H616.844V100.993H642.72V99.0071ZM617.837 100V24.529H615.851V100H617.837ZM616.844 23.5361H589.661V25.5219H616.844V23.5361ZM590.654 24.529V1.98573H588.668V24.529H590.654ZM589.661 2.9786H669.902V0.99287H589.661V2.9786ZM668.909 1.98573V24.529H670.895V1.98573H668.909ZM669.902 23.5361H642.72V25.5219H669.902V23.5361ZM641.727 24.529V100H643.712V24.529H641.727Z" fill="black" fill-opacity="0.15" mask="url(#path-1-outside-1_101_777)"/>
</svg>
