<svg width="674" height="106" viewBox="0 0 674 106" fill="none" xmlns="http://www.w3.org/2000/svg">
<mask id="path-1-outside-1_101_777" maskUnits="userSpaceOnUse" x="0" y="0" width="674" height="106" fill="black">
<rect fill="white" width="674" height="106"/>
<path d="M91.3311 89.8462C86.7135 94.2895 81.2465 97.7527 74.93 100.236C68.6571 102.719 61.8179 103.96 54.4124 103.96C46.9633 103.96 40.0587 102.697 33.6987 100.17C27.3822 97.6002 21.8716 94.0282 17.1669 89.4542C12.5058 84.8366 8.86839 79.4349 6.25468 73.2491C3.68453 67.0634 2.39945 60.3113 2.39945 52.9929C2.39945 45.6745 3.68453 38.9224 6.25468 32.7366C8.86839 26.5508 12.5058 21.1709 17.1669 16.5969C21.8716 11.9793 27.3822 8.40727 33.6987 5.88068C40.0587 3.31053 46.9633 2.02545 54.4124 2.02545C61.7743 2.02545 68.57 3.28874 74.7993 5.81533C81.0722 8.29836 86.5175 11.7615 91.135 16.2048L73.1004 34.3702C70.8352 31.3208 68.0472 28.9249 64.7365 27.1824C61.4694 25.44 57.8973 24.5687 54.0203 24.5687C50.4482 24.5687 47.1375 25.2875 44.0882 26.725C41.0389 28.1626 38.3598 30.1664 36.051 32.7366C33.7858 35.3067 32.0215 38.3125 30.7582 41.7539C29.495 45.1953 28.8633 48.9198 28.8633 52.9275C28.8633 56.9788 29.495 60.7251 30.7582 64.1665C32.0215 67.6079 33.7858 70.6354 36.051 73.2491C38.3598 75.8193 41.0389 77.8231 44.0882 79.2607C47.1375 80.6982 50.4482 81.417 54.0203 81.417C57.8973 81.417 61.4694 80.5458 64.7365 78.8033C68.0037 77.0608 70.7698 74.6649 73.0351 71.6156L91.3311 89.8462ZM151.25 103.96C143.758 103.96 136.831 102.697 130.471 100.17C124.155 97.6002 118.644 94.0282 113.94 89.4542C109.279 84.8366 105.663 79.4349 103.093 73.2491C100.523 67.0634 99.2375 60.3113 99.2375 52.9929C99.2375 45.6745 100.523 38.9224 103.093 32.7366C105.663 26.5508 109.279 21.1709 113.94 16.5969C118.644 11.9793 124.155 8.40727 130.471 5.88068C136.831 3.31053 143.758 2.02545 151.25 2.02545C158.787 2.02545 165.713 3.31053 172.029 5.88068C178.346 8.40727 183.813 11.9793 188.431 16.5969C193.092 21.1709 196.707 26.5508 199.277 32.7366C201.848 38.9224 203.133 45.6745 203.133 52.9929C203.133 60.3113 201.848 67.0634 199.277 73.2491C196.707 79.4349 193.092 84.8366 188.431 89.4542C183.813 94.0282 178.346 97.6002 172.029 100.17C165.713 102.697 158.787 103.96 151.25 103.96ZM151.25 81.417C154.866 81.417 158.22 80.6982 161.313 79.2607C164.406 77.8231 167.085 75.8193 169.35 73.2491C171.659 70.6354 173.445 67.6079 174.709 64.1665C176.015 60.7251 176.669 57.0006 176.669 52.9929C176.669 48.9852 176.015 45.2606 174.709 41.8192C173.445 38.3779 171.659 35.3721 169.35 32.8019C167.085 30.1882 164.406 28.1626 161.313 26.725C158.22 25.2875 154.866 24.5687 151.25 24.5687C147.635 24.5687 144.259 25.2875 141.122 26.725C138.029 28.1626 135.329 30.1882 133.02 32.8019C130.711 35.3721 128.903 38.3779 127.596 41.8192C126.333 45.2606 125.701 48.9852 125.701 52.9929C125.701 57.0006 126.333 60.7251 127.596 64.1665C128.903 67.6079 130.711 70.6354 133.02 73.2491C135.329 75.8193 138.029 77.8231 141.122 79.2607C144.259 80.6982 147.635 81.417 151.25 81.417ZM305.198 102H274.748L239.463 43.8449V102H213.588V3.98573H244.037L279.322 62.3369V3.98573H305.198V102ZM409.877 102H379.428L344.143 43.8449V102H318.267V3.98573H348.717L384.002 62.3369V3.98573H409.877V102ZM422.946 102V3.98573H488.289V26.529H448.822V41.6886H485.675V64.2318H448.822V79.4567H488.942V102H422.946ZM587.022 89.8462C582.404 94.2895 576.937 97.7527 570.621 100.236C564.348 102.719 557.509 103.96 550.103 103.96C542.654 103.96 535.75 102.697 529.389 100.17C523.073 97.6002 517.562 94.0282 512.858 89.4542C508.197 84.8366 504.559 79.4349 501.945 73.2491C499.375 67.0634 498.09 60.3113 498.09 52.9929C498.09 45.6745 499.375 38.9224 501.945 32.7366C504.559 26.5508 508.197 21.1709 512.858 16.5969C517.562 11.9793 523.073 8.40727 529.389 5.88068C535.75 3.31053 542.654 2.02545 550.103 2.02545C557.465 2.02545 564.261 3.28874 570.49 5.81533C576.763 8.29836 582.208 11.7615 586.826 16.2048L568.791 34.3702C566.526 31.3208 563.738 28.9249 560.427 27.1824C557.16 25.44 553.588 24.5687 549.711 24.5687C546.139 24.5687 542.828 25.2875 539.779 26.725C536.73 28.1626 534.051 30.1664 531.742 32.7366C529.477 35.3067 527.712 38.3125 526.449 41.7539C525.186 45.1953 524.554 48.9198 524.554 52.9275C524.554 56.9788 525.186 60.7251 526.449 64.1665C527.712 67.6079 529.477 70.6354 531.742 73.2491C534.051 75.8193 536.73 77.8231 539.779 79.2607C542.828 80.6982 546.139 81.417 549.711 81.417C553.588 81.417 557.16 80.5458 560.427 78.8033C563.694 77.0608 566.461 74.6649 568.726 71.6156L587.022 89.8462ZM644.72 102H618.844V26.529H591.661V3.98573H671.902V26.529H644.72V102Z"/>
</mask>
<path d="M91.3311 89.8462L92.7178 91.2874L94.1896 89.8712L92.7427 88.4295L91.3311 89.8462ZM74.93 100.236L74.1983 98.3744L74.1939 98.3761L74.93 100.236ZM33.6987 100.17L32.9449 102.023L32.9526 102.026L32.9603 102.029L33.6987 100.17ZM17.1669 89.4542L15.7594 90.875L15.766 90.8816L15.7728 90.8882L17.1669 89.4542ZM6.25468 73.2491L4.40772 74.0165L4.41239 74.0276L6.25468 73.2491ZM6.25468 32.7366L4.41235 31.9581L4.40776 31.9692L6.25468 32.7366ZM17.1669 16.5969L18.5677 18.0244L18.5679 18.0243L17.1669 16.5969ZM33.6987 5.88068L34.4415 7.73764L34.448 7.73499L33.6987 5.88068ZM74.7993 5.81533L74.0476 7.66869L74.0554 7.67185L74.0632 7.67495L74.7993 5.81533ZM91.135 16.2048L92.5543 17.6139L93.9856 16.1723L92.5218 14.7637L91.135 16.2048ZM73.1004 34.3702L71.4949 35.5628L72.8815 37.4293L74.5197 35.7793L73.1004 34.3702ZM64.7365 27.1824L63.7953 28.9472L63.805 28.9523L64.7365 27.1824ZM36.051 32.7366L34.5632 31.4001L34.5569 31.4071L34.5506 31.4142L36.051 32.7366ZM30.7582 41.7539L28.8808 41.0647L30.7582 41.7539ZM30.7582 64.1665L28.8808 64.8557L30.7582 64.1665ZM36.051 73.2491L34.5396 74.559L34.5513 74.5725L34.5632 74.5857L36.051 73.2491ZM73.0351 71.6156L74.4467 70.1988L72.8086 68.5665L71.4296 70.4229L73.0351 71.6156ZM89.9443 88.4051C85.5265 92.6562 80.2856 95.9814 74.1983 98.3744L75.6617 102.097C82.2073 99.524 87.9005 95.9229 92.7178 91.2874L89.9443 88.4051ZM74.1939 98.3761C68.1772 100.758 61.5905 101.96 54.4124 101.96V105.96C62.0452 105.96 69.137 104.68 75.6661 102.095L74.1939 98.3761ZM54.4124 101.96C47.1936 101.96 40.5421 100.737 34.4371 98.3117L32.9603 102.029C39.5753 104.657 46.7329 105.96 54.4124 105.96V101.96ZM34.4525 98.3179C28.3648 95.8409 23.074 92.4077 18.5611 88.0202L15.7728 90.8882C20.6692 95.6486 26.3996 99.3596 32.9449 102.023L34.4525 98.3179ZM18.5745 88.0333C14.1032 83.6039 10.6115 78.4218 8.09697 72.4707L4.41239 74.0276C7.12526 80.448 10.9084 86.0694 15.7594 90.875L18.5745 88.0333ZM8.1016 72.4818C5.64151 66.5609 4.39945 60.0724 4.39945 52.9929H0.399452C0.399452 60.5501 1.72755 67.5659 4.40776 74.0165L8.1016 72.4818ZM4.39945 52.9929C4.39945 45.9133 5.64151 39.4249 8.1016 33.504L4.40776 31.9692C1.72755 38.4199 0.399452 45.4356 0.399452 52.9929H4.39945ZM8.09697 33.515C10.6108 27.5656 14.1006 22.408 18.5677 18.0244L15.7661 15.1694C10.911 19.9338 7.12597 25.536 4.41239 31.9582L8.09697 33.515ZM18.5679 18.0243C23.0777 13.598 28.3626 10.1692 34.4415 7.73763L32.9559 4.02372C26.4018 6.64536 20.6656 10.3607 15.766 15.1695L18.5679 18.0243ZM34.448 7.73499C40.5502 5.26905 47.1979 4.02545 54.4124 4.02545V0.0254494C46.7287 0.0254494 39.5672 1.35201 32.9493 4.02636L34.448 7.73499ZM54.4124 4.02545C61.5413 4.02545 68.0788 5.24779 74.0476 7.66869L75.551 3.96198C69.0611 1.3297 62.0074 0.0254494 54.4124 0.0254494V4.02545ZM74.0632 7.67495C80.1071 10.0673 85.3281 13.3926 89.7483 17.646L92.5218 14.7637C87.7068 10.1305 82.0374 6.52943 75.5354 3.95572L74.0632 7.67495ZM89.7157 14.7957L71.6811 32.9611L74.5197 35.7793L92.5543 17.6139L89.7157 14.7957ZM74.7059 33.1775C72.2649 29.8916 69.2479 27.2968 65.668 25.4126L63.805 28.9523C66.8465 30.5531 69.4055 32.7501 71.4949 35.5628L74.7059 33.1775ZM65.6777 25.4177C62.1071 23.5134 58.2096 22.5687 54.0203 22.5687V26.5687C57.585 26.5687 60.8316 27.3665 63.7953 28.9472L65.6777 25.4177ZM54.0203 22.5687C50.1713 22.5687 46.5672 23.3453 43.2353 24.916L44.941 28.5341C47.7079 27.2297 50.7251 26.5687 54.0203 26.5687V22.5687ZM43.2353 24.916C39.9389 26.47 37.0455 28.6367 34.5632 31.4001L37.5389 34.0731C39.6741 31.6962 42.1388 29.8552 44.941 28.5341L43.2353 24.916ZM34.5506 31.4142C32.1104 34.1829 30.2234 37.4071 28.8808 41.0647L32.6357 42.4431C33.8197 39.2179 35.4612 36.4306 37.5514 34.059L34.5506 31.4142ZM28.8808 41.0647C27.5292 44.7465 26.8633 48.7066 26.8633 52.9275H30.8633C30.8633 49.1331 31.4607 45.6441 32.6357 42.4431L28.8808 41.0647ZM26.8633 52.9275C26.8633 57.1893 27.5283 61.1716 28.8808 64.8557L32.6357 63.4773C31.4616 60.2786 30.8633 56.7683 30.8633 52.9275H26.8633ZM28.8808 64.8557C30.2225 68.5107 32.1065 71.7515 34.5396 74.559L37.5624 71.9393C35.4651 69.5193 33.8206 66.7051 32.6357 63.4773L28.8808 64.8557ZM34.5632 74.5857C37.0455 77.349 39.9389 79.5157 43.2353 81.0697L44.941 77.4516C42.1388 76.1306 39.6741 74.2896 37.5389 71.9126L34.5632 74.5857ZM43.2353 81.0697C46.5672 82.6405 50.1713 83.417 54.0203 83.417V79.417C50.7251 79.417 47.7079 78.756 44.941 77.4516L43.2353 81.0697ZM54.0203 83.417C58.2096 83.417 62.1071 82.4723 65.6777 80.568L63.7953 77.0386C60.8316 78.6192 57.585 79.417 54.0203 79.417V83.417ZM65.6777 80.568C69.2127 78.6826 72.2036 76.0887 74.6406 72.8082L71.4296 70.4229C69.3361 73.2411 66.7946 75.439 63.7953 77.0386L65.6777 80.568ZM71.6234 73.0323L89.9194 91.263L92.7427 88.4295L74.4467 70.1988L71.6234 73.0323ZM130.471 100.17L129.718 102.023L129.725 102.026L129.733 102.029L130.471 100.17ZM113.94 89.4542L112.532 90.875L112.539 90.8816L112.546 90.8882L113.94 89.4542ZM113.94 16.5969L115.34 18.0244L115.341 18.0243L113.94 16.5969ZM130.471 5.88068L131.214 7.73764L131.221 7.73499L130.471 5.88068ZM172.029 5.88068L171.276 7.73322L171.287 7.73763L172.029 5.88068ZM188.431 16.5969L187.016 18.0111L187.023 18.0178L187.03 18.0244L188.431 16.5969ZM199.277 32.7366L197.431 33.504L199.277 32.7366ZM199.277 73.2491L197.431 72.4818L199.277 73.2491ZM188.431 89.4542L189.838 90.8751L189.838 90.875L188.431 89.4542ZM172.029 100.17L172.772 102.027L172.783 102.023L172.029 100.17ZM161.313 79.2607L162.156 81.0744L161.313 79.2607ZM169.35 73.2491L167.851 71.9251L167.85 71.9267L169.35 73.2491ZM174.709 64.1665L172.839 63.4565L172.835 63.4669L172.831 63.4773L174.709 64.1665ZM174.709 41.8192L172.831 42.5084L172.835 42.5189L172.839 42.5293L174.709 41.8192ZM169.35 32.8019L167.839 34.1118L167.851 34.1252L167.863 34.1385L169.35 32.8019ZM161.313 26.725L162.156 24.9114L161.313 26.725ZM141.122 26.725L140.289 24.9069L140.279 24.9114L141.122 26.725ZM133.02 32.8019L134.508 34.1385L134.513 34.1323L134.519 34.126L133.02 32.8019ZM127.596 41.8192L125.727 41.1092L125.723 41.1196L125.719 41.13L127.596 41.8192ZM127.596 64.1665L125.719 64.8557L125.723 64.8661L125.727 64.8765L127.596 64.1665ZM133.02 73.2491L131.521 74.5732L131.526 74.5795L131.532 74.5857L133.02 73.2491ZM141.122 79.2607L140.279 81.0744L140.289 81.0788L141.122 79.2607ZM151.25 101.96C143.987 101.96 137.314 100.736 131.21 98.3117L129.733 102.029C136.349 104.658 143.529 105.96 151.25 105.96V101.96ZM131.225 98.3179C125.138 95.8409 119.847 92.4077 115.334 88.0202L112.546 90.8882C117.442 95.6486 123.172 99.3596 129.718 102.023L131.225 98.3179ZM115.347 88.0333C110.878 83.6063 107.41 78.428 104.94 72.4818L101.246 74.0165C103.916 80.4419 107.679 86.0669 112.532 90.875L115.347 88.0333ZM104.94 72.4818C102.48 66.5609 101.238 60.0724 101.238 52.9929H97.2375C97.2375 60.5501 98.5656 67.5659 101.246 74.0165L104.94 72.4818ZM101.238 52.9929C101.238 45.9133 102.48 39.4249 104.94 33.504L101.246 31.9692C98.5656 38.4199 97.2375 45.4356 97.2375 52.9929H101.238ZM104.94 33.504C107.41 27.5594 110.876 22.4056 115.34 18.0244L112.539 15.1694C107.681 19.9362 103.916 25.5422 101.246 31.9692L104.94 33.504ZM115.341 18.0243C119.85 13.598 125.135 10.1692 131.214 7.73763L129.729 4.02372C123.175 6.64536 117.438 10.3607 112.539 15.1695L115.341 18.0243ZM131.221 7.73499C137.322 5.2696 143.991 4.02545 151.25 4.02545V0.0254494C143.525 0.0254494 136.341 1.35145 129.722 4.02636L131.221 7.73499ZM151.25 4.02545C158.555 4.02545 165.223 5.2702 171.276 7.73319L172.783 4.02816C166.203 1.35085 159.018 0.0254494 151.25 0.0254494V4.02545ZM171.287 7.73763C177.362 10.1679 182.598 13.5931 187.016 18.0111L189.845 15.1827C185.028 10.3656 179.329 6.64662 172.772 4.02372L171.287 7.73763ZM187.03 18.0244C191.494 22.4056 194.961 27.5594 197.431 33.504L201.124 31.9692C198.454 25.5422 194.689 19.9362 189.831 15.1694L187.03 18.0244ZM197.431 33.504C199.891 39.4249 201.133 45.9133 201.133 52.9929H205.133C205.133 45.4356 203.805 38.4199 201.124 31.9692L197.431 33.504ZM201.133 52.9929C201.133 60.0724 199.891 66.5609 197.431 72.4818L201.124 74.0165C203.805 67.5659 205.133 60.5501 205.133 52.9929H201.133ZM197.431 72.4818C194.96 78.428 191.492 83.6063 187.023 88.0333L189.838 90.875C194.692 86.0669 198.455 80.4419 201.124 74.0165L197.431 72.4818ZM187.023 88.0333C182.602 92.4126 177.36 95.8421 171.276 98.3179L172.783 102.023C179.332 99.3584 185.024 95.6437 189.838 90.8751L187.023 88.0333ZM171.287 98.3134C165.231 100.736 158.56 101.96 151.25 101.96V105.96C159.014 105.96 166.195 104.658 172.772 102.027L171.287 98.3134ZM151.25 83.417C155.139 83.417 158.784 82.642 162.156 81.0744L160.47 77.447C157.657 78.7545 154.593 79.417 151.25 79.417V83.417ZM162.156 81.0744C165.501 79.5197 168.404 77.3482 170.851 74.5716L167.85 71.9267C165.767 74.2904 163.311 76.1266 160.47 77.447L162.156 81.0744ZM170.849 74.5732C173.331 71.7638 175.242 68.5183 176.586 64.8557L172.831 63.4773C171.649 66.6975 169.987 69.5071 167.851 71.9251L170.849 74.5732ZM176.578 64.8765C177.979 61.189 178.669 57.2216 178.669 52.9929H174.669C174.669 56.7795 174.052 60.2612 172.839 63.4565L176.578 64.8765ZM178.669 52.9929C178.669 48.7641 177.979 44.7968 176.578 41.1092L172.839 42.5293C174.052 45.7245 174.669 49.2062 174.669 52.9929H178.669ZM176.586 41.13C175.241 37.4648 173.327 34.236 170.838 31.4654L167.863 34.1385C169.991 36.5082 171.65 39.2909 172.831 42.5084L176.586 41.13ZM170.862 31.4921C168.414 28.6683 165.509 26.4695 162.156 24.9114L160.47 28.5387C163.304 29.8556 165.756 31.7082 167.839 34.1118L170.862 31.4921ZM162.156 24.9114C158.784 23.3438 155.139 22.5687 151.25 22.5687V26.5687C154.593 26.5687 157.657 27.2312 160.47 28.5387L162.156 24.9114ZM151.25 22.5687C147.361 22.5687 143.699 23.3438 140.289 24.9069L141.956 28.5432C144.818 27.2312 147.908 26.5687 151.25 26.5687V22.5687ZM140.279 24.9114C136.931 26.4678 134.008 28.6622 131.521 31.4779L134.519 34.126C136.649 31.7142 139.128 29.8574 141.965 28.5387L140.279 24.9114ZM131.532 31.4654C129.048 34.2308 127.115 37.4525 125.727 41.1092L129.466 42.5293C130.691 39.3032 132.374 36.5134 134.508 34.1385L131.532 31.4654ZM125.719 41.13C124.367 44.8118 123.701 48.7719 123.701 52.9929H127.701C127.701 49.1984 128.299 45.7094 129.474 42.5084L125.719 41.13ZM123.701 52.9929C123.701 57.2138 124.367 61.1739 125.719 64.8557L129.474 63.4773C128.299 60.2763 127.701 56.7873 127.701 52.9929H123.701ZM125.727 64.8765C127.114 68.5306 129.044 71.769 131.521 74.5732L134.519 71.9251C132.378 69.5019 130.692 66.6852 129.466 63.4565L125.727 64.8765ZM131.532 74.5857C134.019 77.3541 136.938 79.5214 140.279 81.0744L141.965 77.447C139.121 76.1248 136.638 74.2845 134.508 71.9126L131.532 74.5857ZM140.289 81.0788C143.699 82.6419 147.361 83.417 151.25 83.417V79.417C147.908 79.417 144.818 78.7545 141.956 77.4426L140.289 81.0788ZM305.198 102V104H307.198V102H305.198ZM274.748 102L273.039 103.037L273.623 104H274.748V102ZM239.463 43.8449L241.173 42.8074L237.463 36.693V43.8449H239.463ZM239.463 102V104H241.463V102H239.463ZM213.588 102H211.588V104H213.588V102ZM213.588 3.98573V1.98573H211.588V3.98573H213.588ZM244.037 3.98573L245.749 2.95083L245.165 1.98573H244.037V3.98573ZM279.322 62.3369L277.611 63.3718L281.322 69.5094V62.3369H279.322ZM279.322 3.98573V1.98573H277.322V3.98573H279.322ZM305.198 3.98573H307.198V1.98573H305.198V3.98573ZM305.198 100H274.748V104H305.198V100ZM276.458 100.963L241.173 42.8074L237.753 44.8823L273.039 103.037L276.458 100.963ZM237.463 43.8449V102H241.463V43.8449H237.463ZM239.463 100H213.588V104H239.463V100ZM215.588 102V3.98573H211.588V102H215.588ZM213.588 5.98573H244.037V1.98573H213.588V5.98573ZM242.326 5.02064L277.611 63.3718L281.034 61.302L245.749 2.95083L242.326 5.02064ZM281.322 62.3369V3.98573H277.322V62.3369H281.322ZM279.322 5.98573H305.198V1.98573H279.322V5.98573ZM303.198 3.98573V102H307.198V3.98573H303.198ZM409.877 102V104H411.877V102H409.877ZM379.428 102L377.718 103.037L378.302 104H379.428V102ZM344.143 43.8449L345.852 42.8074L342.143 36.693V43.8449H344.143ZM344.143 102V104H346.143V102H344.143ZM318.267 102H316.267V104H318.267V102ZM318.267 3.98573V1.98573H316.267V3.98573H318.267ZM348.717 3.98573L350.428 2.95083L349.844 1.98573H348.717V3.98573ZM384.002 62.3369L382.29 63.3718L386.002 69.5094V62.3369H384.002ZM384.002 3.98573V1.98573H382.002V3.98573H384.002ZM409.877 3.98573H411.877V1.98573H409.877V3.98573ZM409.877 100H379.428V104H409.877V100ZM381.138 100.963L345.852 42.8074L342.433 44.8823L377.718 103.037L381.138 100.963ZM342.143 43.8449V102H346.143V43.8449H342.143ZM344.143 100H318.267V104H344.143V100ZM320.267 102V3.98573H316.267V102H320.267ZM318.267 5.98573H348.717V1.98573H318.267V5.98573ZM347.005 5.02064L382.29 63.3718L385.713 61.302L350.428 2.95083L347.005 5.02064ZM386.002 62.3369V3.98573H382.002V62.3369H386.002ZM384.002 5.98573H409.877V1.98573H384.002V5.98573ZM407.877 3.98573V102H411.877V3.98573H407.877ZM422.946 102H420.946V104H422.946V102ZM422.946 3.98573V1.98573H420.946V3.98573H422.946ZM488.289 3.98573H490.289V1.98573H488.289V3.98573ZM488.289 26.529V28.529H490.289V26.529H488.289ZM448.822 26.529V24.529H446.822V26.529H448.822ZM448.822 41.6886H446.822V43.6886H448.822V41.6886ZM485.675 41.6886H487.675V39.6886H485.675V41.6886ZM485.675 64.2318V66.2318H487.675V64.2318H485.675ZM448.822 64.2318V62.2318H446.822V64.2318H448.822ZM448.822 79.4567H446.822V81.4567H448.822V79.4567ZM488.942 79.4567H490.942V77.4567H488.942V79.4567ZM488.942 102V104H490.942V102H488.942ZM424.946 102V3.98573H420.946V102H424.946ZM422.946 5.98573H488.289V1.98573H422.946V5.98573ZM486.289 3.98573V26.529H490.289V3.98573H486.289ZM488.289 24.529H448.822V28.529H488.289V24.529ZM446.822 26.529V41.6886H450.822V26.529H446.822ZM448.822 43.6886H485.675V39.6886H448.822V43.6886ZM483.675 41.6886V64.2318H487.675V41.6886H483.675ZM485.675 62.2318H448.822V66.2318H485.675V62.2318ZM446.822 64.2318V79.4567H450.822V64.2318H446.822ZM448.822 81.4567H488.942V77.4567H448.822V81.4567ZM486.942 79.4567V102H490.942V79.4567H486.942ZM488.942 100H422.946V104H488.942V100ZM587.022 89.8462L588.409 91.2874L589.88 89.8712L588.434 88.4295L587.022 89.8462ZM570.621 100.236L569.889 98.3744L569.885 98.3761L570.621 100.236ZM529.389 100.17L528.636 102.023L528.643 102.026L528.651 102.029L529.389 100.17ZM512.858 89.4542L511.45 90.875L511.457 90.8816L511.464 90.8882L512.858 89.4542ZM501.945 73.2491L500.099 74.0165L500.103 74.0276L501.945 73.2491ZM501.945 32.7366L500.103 31.9581L500.099 31.9692L501.945 32.7366ZM512.858 16.5969L514.259 18.0244L514.259 18.0243L512.858 16.5969ZM529.389 5.88068L530.132 7.73764L530.139 7.73499L529.389 5.88068ZM570.49 5.81533L569.738 7.66869L569.746 7.67185L569.754 7.67495L570.49 5.81533ZM586.826 16.2048L588.245 17.6139L589.676 16.1723L588.213 14.7637L586.826 16.2048ZM568.791 34.3702L567.186 35.5628L568.572 37.4293L570.211 35.7793L568.791 34.3702ZM560.427 27.1824L559.486 28.9472L559.496 28.9523L560.427 27.1824ZM531.742 32.7366L530.254 31.4001L530.248 31.4071L530.241 31.4142L531.742 32.7366ZM526.449 41.7539L524.572 41.0647L526.449 41.7539ZM526.449 64.1665L524.572 64.8557L526.449 64.1665ZM531.742 73.2491L530.23 74.559L530.242 74.5725L530.254 74.5857L531.742 73.2491ZM568.726 71.6156L570.138 70.1988L568.499 68.5665L567.12 70.4229L568.726 71.6156ZM585.635 88.4051C581.217 92.6562 575.976 95.9814 569.889 98.3744L571.353 102.097C577.898 99.524 583.591 95.9229 588.409 91.2874L585.635 88.4051ZM569.885 98.3761C563.868 100.758 557.281 101.96 550.103 101.96V105.96C557.736 105.96 564.828 104.68 571.357 102.095L569.885 98.3761ZM550.103 101.96C542.884 101.96 536.233 100.737 530.128 98.3117L528.651 102.029C535.266 104.657 542.424 105.96 550.103 105.96V101.96ZM530.143 98.3179C524.056 95.8409 518.765 92.4077 514.252 88.0202L511.464 90.8882C516.36 95.6486 522.09 99.3596 528.636 102.023L530.143 98.3179ZM514.265 88.0333C509.794 83.6039 506.302 78.4218 503.788 72.4707L500.103 74.0276C502.816 80.448 506.599 86.0694 511.45 90.875L514.265 88.0333ZM503.792 72.4818C501.332 66.5609 500.09 60.0724 500.09 52.9929H496.09C496.09 60.5501 497.418 67.5659 500.099 74.0165L503.792 72.4818ZM500.09 52.9929C500.09 45.9133 501.332 39.4249 503.792 33.504L500.099 31.9692C497.418 38.4199 496.09 45.4356 496.09 52.9929H500.09ZM503.788 33.515C506.302 27.5656 509.791 22.408 514.259 18.0244L511.457 15.1694C506.602 19.9338 502.817 25.536 500.103 31.9582L503.788 33.515ZM514.259 18.0243C518.768 13.598 524.053 10.1692 530.132 7.73763L528.647 4.02372C522.093 6.64536 516.356 10.3607 511.457 15.1695L514.259 18.0243ZM530.139 7.73499C536.241 5.26905 542.889 4.02545 550.103 4.02545V0.0254494C542.419 0.0254494 535.258 1.35201 528.64 4.02636L530.139 7.73499ZM550.103 4.02545C557.232 4.02545 563.77 5.24779 569.738 7.66869L571.242 3.96198C564.752 1.3297 557.698 0.0254494 550.103 0.0254494V4.02545ZM569.754 7.67495C575.798 10.0673 581.019 13.3926 585.439 17.646L588.213 14.7637C583.398 10.1305 577.728 6.52943 571.226 3.95572L569.754 7.67495ZM585.407 14.7957L567.372 32.9611L570.211 35.7793L588.245 17.6139L585.407 14.7957ZM570.397 33.1775C567.956 29.8916 564.939 27.2968 561.359 25.4126L559.496 28.9523C562.537 30.5531 565.096 32.7501 567.186 35.5628L570.397 33.1775ZM561.368 25.4177C557.798 23.5134 553.9 22.5687 549.711 22.5687V26.5687C553.276 26.5687 556.522 27.3665 559.486 28.9472L561.368 25.4177ZM549.711 22.5687C545.862 22.5687 542.258 23.3453 538.926 24.916L540.632 28.5341C543.399 27.2297 546.416 26.5687 549.711 26.5687V22.5687ZM538.926 24.916C535.63 26.47 532.736 28.6367 530.254 31.4001L533.23 34.0731C535.365 31.6962 537.83 29.8552 540.632 28.5341L538.926 24.916ZM530.241 31.4142C527.801 34.1829 525.914 37.4071 524.572 41.0647L528.327 42.4431C529.51 39.2179 531.152 36.4306 533.242 34.059L530.241 31.4142ZM524.572 41.0647C523.22 44.7465 522.554 48.7066 522.554 52.9275H526.554C526.554 49.1331 527.152 45.6441 528.327 42.4431L524.572 41.0647ZM522.554 52.9275C522.554 57.1893 523.219 61.1716 524.572 64.8557L528.327 63.4773C527.152 60.2786 526.554 56.7683 526.554 52.9275H522.554ZM524.572 64.8557C525.913 68.5107 527.797 71.7515 530.23 74.559L533.253 71.9393C531.156 69.5193 529.511 66.7051 528.327 63.4773L524.572 64.8557ZM530.254 74.5857C532.736 77.349 535.63 79.5157 538.926 81.0697L540.632 77.4516C537.83 76.1306 535.365 74.2896 533.23 71.9126L530.254 74.5857ZM538.926 81.0697C542.258 82.6405 545.862 83.417 549.711 83.417V79.417C546.416 79.417 543.399 78.756 540.632 77.4516L538.926 81.0697ZM549.711 83.417C553.9 83.417 557.798 82.4723 561.368 80.568L559.486 77.0386C556.522 78.6192 553.276 79.417 549.711 79.417V83.417ZM561.368 80.568C564.904 78.6826 567.894 76.0887 570.331 72.8082L567.12 70.4229C565.027 73.2411 562.485 75.439 559.486 77.0386L561.368 80.568ZM567.314 73.0323L585.61 91.263L588.434 88.4295L570.138 70.1988L567.314 73.0323ZM644.72 102V104H646.72V102H644.72ZM618.844 102H616.844V104H618.844V102ZM618.844 26.529H620.844V24.529H618.844V26.529ZM591.661 26.529H589.661V28.529H591.661V26.529ZM591.661 3.98573V1.98573H589.661V3.98573H591.661ZM671.902 3.98573H673.902V1.98573H671.902V3.98573ZM671.902 26.529V28.529H673.902V26.529H671.902ZM644.72 26.529V24.529H642.72V26.529H644.72ZM644.72 100H618.844V104H644.72V100ZM620.844 102V26.529H616.844V102H620.844ZM618.844 24.529H591.661V28.529H618.844V24.529ZM593.661 26.529V3.98573H589.661V26.529H593.661ZM591.661 5.98573H671.902V1.98573H591.661V5.98573ZM669.902 3.98573V26.529H673.902V3.98573H669.902ZM671.902 24.529H644.72V28.529H671.902V24.529ZM642.72 26.529V102H646.72V26.529H642.72Z" fill="black" fill-opacity="0.2" mask="url(#path-1-outside-1_101_777)"/>
</svg>
