<svg width="684" height="106" viewBox="0 0 684 106" fill="none" xmlns="http://www.w3.org/2000/svg">
<mask id="path-1-outside-1_1715_2232" maskUnits="userSpaceOnUse" x="0" y="0" width="684" height="106" fill="black">
<rect fill="white" width="684" height="106"/>
<path d="M2.76011 102V3.98573H65.4892V26.529H28.6359V41.6886H62.8755V64.2318H28.6359V102H2.76011ZM77.9044 102V3.98573H143.247V26.529H103.78V41.6886H140.634V64.2318H103.78V79.4567H143.901V102H77.9044ZM177.552 102H150.435L188.726 3.98573H215.843L254.069 102H226.951L220.613 84.5535H183.89L177.552 102ZM192.124 62.0102H212.445L202.252 34.0434L192.124 62.0102ZM301.9 102H276.024V26.529H248.841V3.98573H329.082V26.529H301.9V102ZM424.091 3.98573V57.7629C424.091 67.3465 422.327 75.6015 418.798 82.5278C415.313 89.4106 410.282 94.7034 403.704 98.4061C397.17 102.109 389.328 103.96 380.18 103.96C371.076 103.96 363.235 102.109 356.657 98.4061C350.079 94.7034 345.026 89.4106 341.497 82.5278C338.012 75.6015 336.27 67.3465 336.27 57.7629V3.98573H362.146V54.2344C362.146 60.4637 362.777 65.5823 364.041 69.5899C365.348 73.5976 367.33 76.5816 369.987 78.5419C372.644 80.4586 376.042 81.417 380.18 81.417C384.319 81.417 387.717 80.4586 390.374 78.5419C393.031 76.5816 394.991 73.5976 396.255 69.5899C397.562 65.5823 398.215 60.4637 398.215 54.2344V3.98573H424.091ZM523.935 102H495.314L476.626 69.5899H463.035V102H437.159V3.98573H478.587C487.081 3.98573 494.313 5.27081 500.281 7.84096C506.249 10.4111 510.801 14.1574 513.937 19.0799C517.117 23.9589 518.707 29.8615 518.707 36.7878C518.707 43.2786 517.313 48.8763 514.525 53.581C511.737 58.2856 507.708 61.9884 502.437 64.6892L523.935 102ZM463.035 49.6604H476.561C481.745 49.6604 485.644 48.702 488.257 46.7853C490.915 44.825 492.243 41.9281 492.243 38.0947C492.243 34.2613 490.915 31.3862 488.257 29.4694C485.644 27.5092 481.745 26.529 476.561 26.529H463.035V49.6604ZM531.776 102V3.98573H597.119V26.529H557.652V41.6886H594.505V64.2318H557.652V79.4567H597.772V102H531.776ZM604.96 90.761L617.114 71.0275C620.294 73.5105 623.256 75.5361 626 77.1044C628.788 78.6726 631.489 79.827 634.103 80.5675C636.76 81.2645 639.461 81.613 642.205 81.613C644.906 81.613 647.215 81.3081 649.131 80.6982C651.048 80.0448 652.508 79.13 653.509 77.9538C654.555 76.7341 655.078 75.2966 655.078 73.6412C655.078 71.5502 654.337 69.7642 652.856 68.2831C651.375 66.802 649.393 65.4734 646.91 64.2972C644.47 63.121 641.791 61.9448 638.873 60.7687C635.736 59.5054 632.534 58.1114 629.267 56.5867C626 55.0185 622.994 53.1236 620.25 50.9019C617.506 48.6802 615.284 45.9794 613.585 42.7994C611.886 39.5758 611.037 35.6552 611.037 31.0377C611.037 24.939 612.561 19.7334 615.611 15.4207C618.704 11.0645 622.907 7.75384 628.222 5.48862C633.58 3.17984 639.635 2.02545 646.387 2.02545C651.31 2.02545 656.515 2.67888 662.004 3.98573C667.493 5.29259 673.047 7.34 678.666 10.128L668.604 30.907C665.467 28.9903 662.026 27.4656 658.279 26.333C654.577 25.1568 651.179 24.5687 648.086 24.5687C645.951 24.5687 644.078 24.8519 642.467 25.4182C640.898 25.9845 639.679 26.8122 638.807 27.9012C637.936 28.9467 637.5 30.1882 637.5 31.6258C637.5 33.5425 638.241 35.2414 639.722 36.7225C641.203 38.16 643.164 39.4887 645.603 40.7084C648.042 41.9281 650.7 43.1697 653.575 44.433C656.711 45.7834 659.913 47.2863 663.18 48.9416C666.491 50.597 669.518 52.5572 672.263 54.8225C675.051 57.0877 677.294 59.8103 678.993 62.9903C680.692 66.1268 681.542 69.8949 681.542 74.2946C681.542 80.1755 679.93 85.3594 676.706 89.8462C673.526 94.2895 669.061 97.7527 663.311 100.236C657.604 102.719 650.961 103.96 643.381 103.96C636.324 103.96 629.529 102.828 622.994 100.562C616.46 98.2972 610.449 95.0301 604.96 90.761Z"/>
</mask>
<path d="M2.76011 102H0.760115V104H2.76011V102ZM2.76011 3.98573V1.98573H0.760115V3.98573H2.76011ZM65.4892 3.98573H67.4892V1.98573H65.4892V3.98573ZM65.4892 26.529V28.529H67.4892V26.529H65.4892ZM28.6359 26.529V24.529H26.6359V26.529H28.6359ZM28.6359 41.6886H26.6359V43.6886H28.6359V41.6886ZM62.8755 41.6886H64.8755V39.6886H62.8755V41.6886ZM62.8755 64.2318V66.2318H64.8755V64.2318H62.8755ZM28.6359 64.2318V62.2318H26.6359V64.2318H28.6359ZM28.6359 102V104H30.6359V102H28.6359ZM4.76011 102V3.98573H0.760115V102H4.76011ZM2.76011 5.98573H65.4892V1.98573H2.76011V5.98573ZM63.4892 3.98573V26.529H67.4892V3.98573H63.4892ZM65.4892 24.529H28.6359V28.529H65.4892V24.529ZM26.6359 26.529V41.6886H30.6359V26.529H26.6359ZM28.6359 43.6886H62.8755V39.6886H28.6359V43.6886ZM60.8755 41.6886V64.2318H64.8755V41.6886H60.8755ZM62.8755 62.2318H28.6359V66.2318H62.8755V62.2318ZM26.6359 64.2318V102H30.6359V64.2318H26.6359ZM28.6359 100H2.76011V104H28.6359V100ZM77.9044 102H75.9044V104H77.9044V102ZM77.9044 3.98573V1.98573H75.9044V3.98573H77.9044ZM143.247 3.98573H145.247V1.98573H143.247V3.98573ZM143.247 26.529V28.529H145.247V26.529H143.247ZM103.78 26.529V24.529H101.78V26.529H103.78ZM103.78 41.6886H101.78V43.6886H103.78V41.6886ZM140.634 41.6886H142.634V39.6886H140.634V41.6886ZM140.634 64.2318V66.2318H142.634V64.2318H140.634ZM103.78 64.2318V62.2318H101.78V64.2318H103.78ZM103.78 79.4567H101.78V81.4567H103.78V79.4567ZM143.901 79.4567H145.901V77.4567H143.901V79.4567ZM143.901 102V104H145.901V102H143.901ZM79.9044 102V3.98573H75.9044V102H79.9044ZM77.9044 5.98573H143.247V1.98573H77.9044V5.98573ZM141.247 3.98573V26.529H145.247V3.98573H141.247ZM143.247 24.529H103.78V28.529H143.247V24.529ZM101.78 26.529V41.6886H105.78V26.529H101.78ZM103.78 43.6886H140.634V39.6886H103.78V43.6886ZM138.634 41.6886V64.2318H142.634V41.6886H138.634ZM140.634 62.2318H103.78V66.2318H140.634V62.2318ZM101.78 64.2318V79.4567H105.78V64.2318H101.78ZM103.78 81.4567H143.901V77.4567H103.78V81.4567ZM141.901 79.4567V102H145.901V79.4567H141.901ZM143.901 100H77.9044V104H143.901V100ZM177.552 102V104H178.954L179.432 102.683L177.552 102ZM150.435 102L148.572 101.272L147.506 104H150.435V102ZM188.726 3.98573V1.98573H187.36L186.863 3.25797L188.726 3.98573ZM215.843 3.98573L217.706 3.25904L217.21 1.98573H215.843V3.98573ZM254.069 102V104H256.995L255.932 101.273L254.069 102ZM226.951 102L225.072 102.683L225.55 104H226.951V102ZM220.613 84.5535L222.493 83.8705L222.014 82.5535H220.613V84.5535ZM183.89 84.5535V82.5535H182.489L182.011 83.8705L183.89 84.5535ZM192.124 62.0102L190.243 61.3292L189.272 64.0102H192.124V62.0102ZM212.445 62.0102V64.0102H215.303L214.324 61.3253L212.445 62.0102ZM202.252 34.0434L204.131 33.3585L202.246 28.1866L200.371 33.3624L202.252 34.0434ZM177.552 100H150.435V104H177.552V100ZM152.298 102.728L190.589 4.7135L186.863 3.25797L148.572 101.272L152.298 102.728ZM188.726 5.98573H215.843V1.98573H188.726V5.98573ZM213.98 4.71243L252.205 102.727L255.932 101.273L217.706 3.25904L213.98 4.71243ZM254.069 100H226.951V104H254.069V100ZM228.831 101.317L222.493 83.8705L218.733 85.2364L225.072 102.683L228.831 101.317ZM220.613 82.5535H183.89V86.5535H220.613V82.5535ZM182.011 83.8705L175.672 101.317L179.432 102.683L185.77 85.2364L182.011 83.8705ZM192.124 64.0102H212.445V60.0102H192.124V64.0102ZM214.324 61.3253L204.131 33.3585L200.373 34.7283L210.566 62.6951L214.324 61.3253ZM200.371 33.3624L190.243 61.3292L194.004 62.6912L204.132 34.7245L200.371 33.3624ZM301.9 102V104H303.9V102H301.9ZM276.024 102H274.024V104H276.024V102ZM276.024 26.529H278.024V24.529H276.024V26.529ZM248.841 26.529H246.841V28.529H248.841V26.529ZM248.841 3.98573V1.98573H246.841V3.98573H248.841ZM329.082 3.98573H331.082V1.98573H329.082V3.98573ZM329.082 26.529V28.529H331.082V26.529H329.082ZM301.9 26.529V24.529H299.9V26.529H301.9ZM301.9 100H276.024V104H301.9V100ZM278.024 102V26.529H274.024V102H278.024ZM276.024 24.529H248.841V28.529H276.024V24.529ZM250.841 26.529V3.98573H246.841V26.529H250.841ZM248.841 5.98573H329.082V1.98573H248.841V5.98573ZM327.082 3.98573V26.529H331.082V3.98573H327.082ZM329.082 24.529H301.9V28.529H329.082V24.529ZM299.9 26.529V102H303.9V26.529H299.9ZM424.091 3.98573H426.091V1.98573H424.091V3.98573ZM418.798 82.5278L417.016 81.62L417.014 81.6244L418.798 82.5278ZM403.704 98.4061L402.723 96.6633L402.718 96.6661L403.704 98.4061ZM341.497 82.5278L339.711 83.4268L339.714 83.4335L339.718 83.4402L341.497 82.5278ZM336.27 3.98573V1.98573H334.27V3.98573H336.27ZM362.146 3.98573H364.146V1.98573H362.146V3.98573ZM364.041 69.59L362.133 70.1912L362.136 70.2006L362.139 70.21L364.041 69.59ZM369.987 78.5419L368.8 80.1514L368.808 80.1577L368.817 80.164L369.987 78.5419ZM390.374 78.5419L391.544 80.164L391.553 80.1577L391.561 80.1514L390.374 78.5419ZM396.255 69.59L394.353 68.9699L394.35 68.9793L394.347 68.9887L396.255 69.59ZM398.215 3.98573V1.98573H396.215V3.98573H398.215ZM422.091 3.98573V57.7629H426.091V3.98573H422.091ZM422.091 57.7629C422.091 67.1032 420.372 75.0328 417.016 81.62L420.58 83.4357C424.281 76.1702 426.091 67.5899 426.091 57.7629H422.091ZM417.014 81.6244C413.703 88.1623 408.948 93.1592 402.723 96.6633L404.685 100.149C411.616 96.2476 416.923 90.6589 420.582 83.4313L417.014 81.6244ZM402.718 96.6661C396.543 100.165 389.058 101.96 380.18 101.96V105.96C389.599 105.96 397.796 104.053 404.69 100.146L402.718 96.6661ZM380.18 101.96C371.349 101.96 363.86 100.166 357.638 96.6633L355.676 100.149C362.609 104.052 370.803 105.96 380.18 105.96V101.96ZM357.638 96.6633C351.411 93.158 346.631 88.1582 343.277 81.6154L339.718 83.4402C343.421 90.6631 348.747 96.2488 355.676 100.149L357.638 96.6633ZM343.284 81.6289C339.969 75.0395 338.27 67.1066 338.27 57.7629H334.27C334.27 67.5864 336.056 76.1634 339.711 83.4268L343.284 81.6289ZM338.27 57.7629V3.98573H334.27V57.7629H338.27ZM336.27 5.98573H362.146V1.98573H336.27V5.98573ZM360.146 3.98573V54.2344H364.146V3.98573H360.146ZM360.146 54.2344C360.146 60.5792 360.787 65.9195 362.133 70.1912L365.948 68.9887C364.768 65.245 364.146 60.3482 364.146 54.2344H360.146ZM362.139 70.21C363.539 74.504 365.725 77.883 368.8 80.1514L371.174 76.9325C368.935 75.2803 367.156 72.6913 365.942 68.9699L362.139 70.21ZM368.817 80.164C371.895 82.3844 375.733 83.417 380.18 83.417V79.417C376.351 79.417 373.393 78.5329 371.157 76.9199L368.817 80.164ZM380.18 83.417C384.628 83.417 388.466 82.3844 391.544 80.164L389.204 76.9199C386.968 78.5329 384.01 79.417 380.18 79.417V83.417ZM391.561 80.1514C394.642 77.8786 396.807 74.4921 398.162 70.1912L394.347 68.9887C393.176 72.7032 391.42 75.2846 389.187 76.9325L391.561 80.1514ZM398.156 70.21C399.552 65.931 400.215 60.5836 400.215 54.2344H396.215C396.215 60.3438 395.572 65.2335 394.353 68.9699L398.156 70.21ZM400.215 54.2344V3.98573H396.215V54.2344H400.215ZM398.215 5.98573H424.091V1.98573H398.215V5.98573ZM523.935 102V104H527.395L525.668 101.002L523.935 102ZM495.314 102L493.582 102.999L494.159 104H495.314V102ZM476.626 69.59L478.359 68.5909L477.782 67.59H476.626V69.59ZM463.035 69.59V67.59H461.035V69.59H463.035ZM463.035 102V104H465.035V102H463.035ZM437.159 102H435.159V104H437.159V102ZM437.159 3.98573V1.98573H435.159V3.98573H437.159ZM500.281 7.84096L501.072 6.00406L500.281 7.84096ZM513.937 19.0799L512.25 20.1546L512.256 20.1634L512.262 20.172L513.937 19.0799ZM502.437 64.6892L501.525 62.9093L499.655 63.8673L500.704 65.6877L502.437 64.6892ZM463.035 49.6604H461.035V51.6604H463.035V49.6604ZM488.257 46.7853L489.44 48.3981L489.445 48.3947L488.257 46.7853ZM488.257 29.4694L487.057 31.0694L487.072 31.0806L487.087 31.0915L488.257 29.4694ZM463.035 26.529V24.529H461.035V26.529H463.035ZM523.935 100H495.314V104H523.935V100ZM497.047 101.001L478.359 68.5909L474.894 70.589L493.582 102.999L497.047 101.001ZM476.626 67.59H463.035V71.59H476.626V67.59ZM461.035 69.59V102H465.035V69.59H461.035ZM463.035 100H437.159V104H463.035V100ZM439.159 102V3.98573H435.159V102H439.159ZM437.159 5.98573H478.587V1.98573H437.159V5.98573ZM478.587 5.98573C486.889 5.98573 493.835 7.2429 499.489 9.67786L501.072 6.00406C494.79 3.29872 487.274 1.98573 478.587 1.98573V5.98573ZM499.489 9.67786C505.133 12.1081 509.354 15.608 512.25 20.1546L515.624 18.0052C512.248 12.7069 507.364 8.7141 501.072 6.00406L499.489 9.67786ZM512.262 20.172C515.193 24.6688 516.707 30.1747 516.707 36.7878H520.707C520.707 29.5483 519.042 23.2489 515.613 17.9879L512.262 20.172ZM516.707 36.7878C516.707 42.9873 515.378 48.2186 512.805 52.5613L516.246 54.6006C519.248 49.5339 520.707 43.5698 520.707 36.7878H516.707ZM512.805 52.5613C510.225 56.9145 506.489 60.3657 501.525 62.9093L503.349 66.4692C508.927 63.6111 513.25 59.6568 516.246 54.6006L512.805 52.5613ZM500.704 65.6877L522.202 102.998L525.668 101.002L504.17 63.6908L500.704 65.6877ZM463.035 51.6604H476.561V47.6604H463.035V51.6604ZM476.561 51.6604C481.935 51.6604 486.333 50.6769 489.44 48.3981L487.075 45.1725C484.955 46.7271 481.555 47.6604 476.561 47.6604V51.6604ZM489.445 48.3947C492.7 45.9933 494.243 42.4468 494.243 38.0947H490.243C490.243 41.4095 489.129 43.6567 487.07 45.1758L489.445 48.3947ZM494.243 38.0947C494.243 33.7433 492.699 30.2075 489.427 27.8474L487.087 31.0915C489.13 32.5648 490.243 34.7792 490.243 38.0947H494.243ZM489.457 27.8694C486.347 25.5368 481.942 24.529 476.561 24.529V28.529C481.548 28.529 484.94 29.4815 487.057 31.0694L489.457 27.8694ZM476.561 24.529H463.035V28.529H476.561V24.529ZM461.035 26.529V49.6604H465.035V26.529H461.035ZM531.776 102H529.776V104H531.776V102ZM531.776 3.98573V1.98573H529.776V3.98573H531.776ZM597.119 3.98573H599.119V1.98573H597.119V3.98573ZM597.119 26.529V28.529H599.119V26.529H597.119ZM557.652 26.529V24.529H555.652V26.529H557.652ZM557.652 41.6886H555.652V43.6886H557.652V41.6886ZM594.505 41.6886H596.505V39.6886H594.505V41.6886ZM594.505 64.2318V66.2318H596.505V64.2318H594.505ZM557.652 64.2318V62.2318H555.652V64.2318H557.652ZM557.652 79.4567H555.652V81.4567H557.652V79.4567ZM597.772 79.4567H599.772V77.4567H597.772V79.4567ZM597.772 102V104H599.772V102H597.772ZM533.776 102V3.98573H529.776V102H533.776ZM531.776 5.98573H597.119V1.98573H531.776V5.98573ZM595.119 3.98573V26.529H599.119V3.98573H595.119ZM597.119 24.529H557.652V28.529H597.119V24.529ZM555.652 26.529V41.6886H559.652V26.529H555.652ZM557.652 43.6886H594.505V39.6886H557.652V43.6886ZM592.505 41.6886V64.2318H596.505V41.6886H592.505ZM594.505 62.2318H557.652V66.2318H594.505V62.2318ZM555.652 64.2318V79.4567H559.652V64.2318H555.652ZM557.652 81.4567H597.772V77.4567H557.652V81.4567ZM595.772 79.4567V102H599.772V79.4567H595.772ZM597.772 100H531.776V104H597.772V100ZM604.96 90.761L603.257 89.7122L602.317 91.2389L603.732 92.3397L604.96 90.761ZM617.114 71.0275L618.344 69.4511L616.583 68.0756L615.411 69.9787L617.114 71.0275ZM626 77.1044L625.008 78.8409L625.02 78.8475L626 77.1044ZM634.103 80.5676L633.557 82.4918L633.576 82.4971L633.595 82.5021L634.103 80.5676ZM649.131 80.6982L649.738 82.6041L649.757 82.5979L649.777 82.5913L649.131 80.6982ZM653.509 77.9538L651.991 76.6522L651.987 76.6569L653.509 77.9538ZM652.856 68.2831L654.27 66.8689L652.856 68.2831ZM646.91 64.2972L646.041 66.0988L646.054 66.1047L646.91 64.2972ZM638.873 60.7687L639.62 58.9136L639.62 58.9135L638.873 60.7687ZM629.267 56.5867L628.402 58.3898L628.412 58.3945L628.422 58.3991L629.267 56.5867ZM613.585 42.7994L611.816 43.7319L611.821 43.7418L613.585 42.7994ZM615.611 15.4207L613.98 14.2629L613.978 14.2661L615.611 15.4207ZM628.222 5.48862L629.006 7.32848L629.013 7.32536L628.222 5.48862ZM678.666 10.128L680.466 10.9997L681.33 9.21675L679.555 8.33634L678.666 10.128ZM668.604 30.907L667.561 32.6135L669.443 33.7635L670.404 31.7787L668.604 30.907ZM658.279 26.333L657.674 28.2391L657.687 28.2434L657.701 28.2474L658.279 26.333ZM642.467 25.4182L641.804 23.5313L641.795 23.5341L641.787 23.5371L642.467 25.4182ZM638.807 27.9012L640.344 29.1816L640.357 29.1662L640.369 29.1506L638.807 27.9012ZM639.722 36.7225L638.308 38.1367L638.318 38.1473L638.329 38.1577L639.722 36.7225ZM653.575 44.433L652.77 46.264L652.777 46.267L652.784 46.2699L653.575 44.433ZM663.18 48.9416L662.276 50.7257L662.286 50.7305L663.18 48.9416ZM672.263 54.8225L670.99 56.3649L670.996 56.3698L671.002 56.3747L672.263 54.8225ZM678.993 62.9903L677.229 63.9328L677.235 63.9429L678.993 62.9903ZM676.706 89.8462L675.082 88.6793L675.08 88.6822L676.706 89.8462ZM663.311 100.236L662.518 98.3996L662.513 98.4018L663.311 100.236ZM606.663 91.8099L618.816 72.0763L615.411 69.9787L603.257 89.7122L606.663 91.8099ZM615.883 72.6039C619.119 75.1307 622.161 77.2142 625.008 78.8409L626.992 75.3679C624.35 73.8581 621.468 71.8904 618.344 69.4511L615.883 72.6039ZM625.02 78.8475C627.921 80.4798 630.768 81.7015 633.557 82.4918L634.648 78.6433C632.21 77.9525 629.655 76.8654 626.981 75.3612L625.02 78.8475ZM633.595 82.5021C636.418 83.2425 639.289 83.613 642.205 83.613V79.613C639.632 79.613 637.102 79.2866 634.61 78.633L633.595 82.5021ZM642.205 83.613C645.046 83.613 647.571 83.2936 649.738 82.6041L648.525 78.7924C646.859 79.3226 644.766 79.613 642.205 79.613V83.613ZM649.777 82.5913C651.931 81.8569 653.735 80.7735 655.032 79.2508L651.987 76.6569C651.28 77.4865 650.165 78.2327 648.486 78.8052L649.777 82.5913ZM655.028 79.2554C656.394 77.6613 657.078 75.7581 657.078 73.6412H653.078C653.078 74.835 652.716 75.8069 651.991 76.6523L655.028 79.2554ZM657.078 73.6412C657.078 71.0188 656.126 68.7243 654.27 66.8689L651.442 69.6973C652.549 70.8041 653.078 72.0817 653.078 73.6412H657.078ZM654.27 66.8689C652.585 65.184 650.395 63.7351 647.766 62.4897L646.054 66.1047C648.391 67.2116 650.164 68.42 651.442 69.6973L654.27 66.8689ZM647.778 62.4956C645.294 61.2975 642.573 60.1037 639.62 58.9136L638.125 62.6237C641.009 63.7859 643.647 64.9445 646.041 66.0987L647.778 62.4956ZM639.62 58.9135C636.519 57.6644 633.35 56.2849 630.113 54.7744L628.422 58.3991C631.719 59.9379 634.954 61.3463 638.125 62.6238L639.62 58.9135ZM630.133 54.7837C627.002 53.281 624.129 51.4687 621.508 49.3474L618.992 52.4564C621.86 54.7784 624.998 56.756 628.402 58.3898L630.133 54.7837ZM621.508 49.3474C618.976 47.2975 616.925 44.8063 615.349 41.857L611.821 43.7418C613.643 47.1525 616.035 50.063 618.992 52.4564L621.508 49.3474ZM615.354 41.8669C613.842 38.9975 613.037 35.4151 613.037 31.0377H609.037C609.037 35.8954 609.93 40.1542 611.816 43.7319L615.354 41.8669ZM613.037 31.0377C613.037 25.2865 614.469 20.5001 617.244 16.5754L613.978 14.2661C610.654 18.9666 609.037 24.5915 609.037 31.0377H613.037ZM617.241 16.5786C620.103 12.548 624.003 9.4611 629.006 7.32847L627.438 3.64877C621.812 6.04657 617.304 9.58111 613.98 14.2629L617.241 16.5786ZM629.013 7.32536C634.085 5.1399 639.865 4.02545 646.387 4.02545V0.0254478C639.405 0.0254478 633.075 1.21978 627.43 3.65188L629.013 7.32536ZM646.387 4.02545C651.133 4.02545 656.182 4.65548 661.541 5.93135L662.467 2.04012C656.848 0.702274 651.486 0.0254478 646.387 0.0254478V4.02545ZM661.541 5.93135C666.867 7.1995 672.279 9.19151 677.778 11.9196L679.555 8.33634C673.815 5.48849 668.119 3.38568 662.467 2.04012L661.541 5.93135ZM676.866 9.25625L666.804 30.0353L670.404 31.7787L680.466 10.9997L676.866 9.25625ZM669.647 29.2004C666.356 27.1894 662.757 25.5973 658.858 24.4186L657.701 28.2474C661.295 29.3339 664.579 30.7911 667.561 32.6135L669.647 29.2004ZM658.885 24.4268C655.034 23.2037 651.429 22.5687 648.086 22.5687V26.5687C650.929 26.5687 654.119 27.11 657.674 28.2391L658.885 24.4268ZM648.086 22.5687C645.78 22.5687 643.674 22.8741 641.804 23.5313L643.13 27.3051C644.483 26.8297 646.123 26.5687 648.086 26.5687V22.5687ZM641.787 23.5371C639.941 24.2039 638.389 25.223 637.246 26.6518L640.369 29.1506C640.969 28.4013 641.856 27.7651 643.146 27.2993L641.787 23.5371ZM637.271 26.6208C636.082 28.0471 635.5 29.7488 635.5 31.6258H639.5C639.5 30.6276 639.79 29.8463 640.344 29.1816L637.271 26.6208ZM635.5 31.6258C635.5 34.1247 636.49 36.3188 638.308 38.1367L641.136 35.3083C639.992 34.1639 639.5 32.9602 639.5 31.6258H635.5ZM638.329 38.1577C639.996 39.7754 642.141 41.2135 644.709 42.4973L646.497 38.9196C644.186 37.7639 642.411 36.5447 641.115 35.2873L638.329 38.1577ZM644.709 42.4973C647.182 43.7338 649.869 44.9893 652.77 46.264L654.379 42.6019C651.53 41.35 648.903 40.1225 646.497 38.9196L644.709 42.4973ZM652.784 46.2699C655.88 47.6028 659.044 49.0878 662.276 50.7257L664.084 47.1575C660.783 45.4847 657.543 43.964 654.366 42.596L652.784 46.2699ZM662.286 50.7305C665.467 52.321 668.366 54.1997 670.99 56.3649L673.536 53.28C670.67 50.9148 667.515 48.873 664.075 47.1528L662.286 50.7305ZM671.002 56.3747C673.582 58.4715 675.655 60.9865 677.229 63.9328L680.757 62.0479C678.933 58.6341 676.519 55.7039 673.524 53.2702L671.002 56.3747ZM677.235 63.9429C678.742 66.7261 679.542 70.1509 679.542 74.2946H683.542C683.542 69.6389 682.642 65.5274 680.752 62.0378L677.235 63.9429ZM679.542 74.2946C679.542 79.7854 678.045 84.555 675.082 88.6793L678.33 91.0132C681.815 86.1637 683.542 80.5656 683.542 74.2946H679.542ZM675.08 88.6822C672.141 92.7888 667.984 96.0392 662.518 98.3996L664.104 102.072C670.138 99.4662 674.911 95.7903 678.333 91.0102L675.08 88.6822ZM662.513 98.4018C657.107 100.754 650.745 101.96 643.381 101.96V105.96C651.177 105.96 658.102 104.683 664.109 102.07L662.513 98.4018ZM643.381 101.96C636.543 101.96 629.969 100.863 623.649 98.6728L622.339 102.452C629.089 104.792 636.106 105.96 643.381 105.96V101.96ZM623.649 98.6728C617.323 96.4796 611.505 93.3179 606.188 89.1823L603.732 92.3397C609.392 96.7423 615.597 100.115 622.339 102.452L623.649 98.6728Z" fill="#252735" fill-opacity="0.4" mask="url(#path-1-outside-1_1715_2232)"/>
</svg>
