<svg width="571" height="86" viewBox="0 0 571 86" fill="none" xmlns="http://www.w3.org/2000/svg">
<mask id="path-1-outside-1_158_644" maskUnits="userSpaceOnUse" x="-0.870117" y="-0.720703" width="573" height="88" fill="black">
<rect fill="white" x="-0.870117" y="-0.720703" width="573" height="88"/>
<path d="M0.614943 84.2793V2.0034H53.2715V20.9269H22.3358V33.6522H51.0775V52.5757H22.3358V84.2793H0.614943ZM63.6931 84.2793V2.0034H118.544V20.9269H85.414V33.6522H116.35V52.5757H85.414V65.3558H119.092V84.2793H63.6931ZM147.34 84.2793H124.577L156.72 2.0034H179.483L211.57 84.2793H188.807L183.487 69.6342H152.661L147.34 84.2793ZM159.572 50.7107H176.631L168.074 27.2347L159.572 50.7107ZM251.721 84.2793H230V20.9269H207.182V2.0034H274.539V20.9269H251.721V84.2793ZM354.292 2.0034V47.1454C354.292 55.1902 352.811 62.1197 349.849 67.9338C346.923 73.7114 342.7 78.1543 337.178 81.2625C331.693 84.3707 325.111 85.9248 317.432 85.9248C309.789 85.9248 303.207 84.3707 297.686 81.2625C292.164 78.1543 287.922 73.7114 284.96 67.9338C282.035 62.1197 280.572 55.1902 280.572 47.1454V2.0034H302.293V44.1835C302.293 49.4126 302.823 53.7092 303.884 57.0734C304.981 60.4376 306.645 62.9424 308.875 64.5879C311.106 66.1969 313.958 67.0014 317.432 67.0014C320.906 67.0014 323.758 66.1969 325.989 64.5879C328.219 62.9424 329.865 60.4376 330.925 57.0734C332.022 53.7092 332.571 49.4126 332.571 44.1835V2.0034H354.292ZM438.103 84.2793H414.079L398.391 57.0734H386.983V84.2793H365.262V2.0034H400.037C407.168 2.0034 413.238 3.08213 418.247 5.23959C423.257 7.39704 427.078 10.5418 429.711 14.6739C432.381 18.7694 433.715 23.7242 433.715 29.5384C433.715 34.9869 432.545 39.6858 430.205 43.635C427.865 47.5842 424.482 50.6924 420.057 52.9596L438.103 84.2793ZM386.983 40.344H398.337C402.688 40.344 405.961 39.5395 408.155 37.9305C410.385 36.285 411.501 33.8533 411.501 30.6354C411.501 27.4175 410.385 25.0041 408.155 23.3951C405.961 21.7496 402.688 20.9269 398.337 20.9269H386.983V40.344ZM444.685 84.2793V2.0034H499.536V20.9269H466.406V33.6522H497.342V52.5757H466.406V65.3558H500.084V84.2793H444.685ZM506.118 74.845L516.32 58.2801C518.99 60.3644 521.476 62.0648 523.78 63.3812C526.12 64.6976 528.387 65.6667 530.581 66.2883C532.812 66.8734 535.079 67.1659 537.383 67.1659C539.65 67.1659 541.588 66.9099 543.197 66.398C544.806 65.8495 546.031 65.0816 546.872 64.0943C547.75 63.0704 548.188 61.8637 548.188 60.4741C548.188 58.7189 547.567 57.2197 546.324 55.9764C545.08 54.7331 543.416 53.6178 541.332 52.6305C539.284 51.6432 537.036 50.6559 534.586 49.6686C531.953 48.6081 529.265 47.438 526.522 46.1581C523.78 44.8417 521.257 43.2511 518.953 41.3861C516.649 39.5212 514.784 37.2541 513.358 34.5847C511.932 31.8787 511.219 28.5877 511.219 24.7115C511.219 19.5922 512.499 15.2224 515.059 11.6023C517.655 7.94555 521.184 5.16645 525.645 3.26497C530.143 1.32691 535.225 0.357884 540.893 0.357884C545.025 0.357884 549.395 0.90639 554.003 2.0034C558.61 3.10041 563.272 4.81907 567.99 7.15936L559.543 24.6018C556.91 22.9929 554.021 21.713 550.876 20.7623C547.768 19.775 544.916 19.2813 542.319 19.2813C540.528 19.2813 538.955 19.519 537.602 19.9944C536.286 20.4698 535.262 21.1645 534.531 22.0787C533.799 22.9563 533.434 23.9985 533.434 25.2052C533.434 26.8142 534.055 28.2403 535.299 29.4836C536.542 30.6903 538.187 31.8056 540.235 32.8294C542.283 33.8533 544.513 34.8955 546.927 35.9559C549.56 37.0895 552.247 38.3511 554.99 39.7406C557.769 41.1302 560.31 42.7757 562.614 44.6772C564.954 46.5787 566.838 48.8641 568.264 51.5335C569.69 54.1663 570.403 57.3294 570.403 61.0226C570.403 65.9592 569.05 70.3107 566.344 74.0771C563.675 77.8069 559.926 80.714 555.1 82.7983C550.309 84.8827 544.733 85.9248 538.37 85.9248C532.446 85.9248 526.742 84.9741 521.257 83.0726C515.772 81.1711 510.726 78.4286 506.118 74.845Z"/>
</mask>
<path d="M0.614943 84.2793H-0.133951V85.0282H0.614943V84.2793ZM0.614943 2.0034V1.25451H-0.133951V2.0034H0.614943ZM53.2715 2.0034H54.0204V1.25451H53.2715V2.0034ZM53.2715 20.9269V21.6758H54.0204V20.9269H53.2715ZM22.3358 20.9269V20.178H21.5869V20.9269H22.3358ZM22.3358 33.6522H21.5869V34.4011H22.3358V33.6522ZM51.0775 33.6522H51.8264V32.9033H51.0775V33.6522ZM51.0775 52.5757V53.3245H51.8264V52.5757H51.0775ZM22.3358 52.5757V51.8268H21.5869V52.5757H22.3358ZM22.3358 84.2793V85.0282H23.0847V84.2793H22.3358ZM1.36384 84.2793V2.0034H-0.133951V84.2793H1.36384ZM0.614943 2.7523H53.2715V1.25451H0.614943V2.7523ZM52.5226 2.0034V20.9269H54.0204V2.0034H52.5226ZM53.2715 20.178H22.3358V21.6758H53.2715V20.178ZM21.5869 20.9269V33.6522H23.0847V20.9269H21.5869ZM22.3358 34.4011H51.0775V32.9033H22.3358V34.4011ZM50.3286 33.6522V52.5757H51.8264V33.6522H50.3286ZM51.0775 51.8268H22.3358V53.3245H51.0775V51.8268ZM21.5869 52.5757V84.2793H23.0847V52.5757H21.5869ZM22.3358 83.5304H0.614943V85.0282H22.3358V83.5304ZM63.6931 84.2793H62.9442V85.0282H63.6931V84.2793ZM63.6931 2.0034V1.25451H62.9442V2.0034H63.6931ZM118.544 2.0034H119.293V1.25451H118.544V2.0034ZM118.544 20.9269V21.6758H119.293V20.9269H118.544ZM85.414 20.9269V20.178H84.6651V20.9269H85.414ZM85.414 33.6522H84.6651V34.4011H85.414V33.6522ZM116.35 33.6522H117.099V32.9033H116.35V33.6522ZM116.35 52.5757V53.3245H117.099V52.5757H116.35ZM85.414 52.5757V51.8268H84.6651V52.5757H85.414ZM85.414 65.3558H84.6651V66.1047H85.414V65.3558ZM119.092 65.3558H119.841V64.6069H119.092V65.3558ZM119.092 84.2793V85.0282H119.841V84.2793H119.092ZM64.442 84.2793V2.0034H62.9442V84.2793H64.442ZM63.6931 2.7523H118.544V1.25451H63.6931V2.7523ZM117.795 2.0034V20.9269H119.293V2.0034H117.795ZM118.544 20.178H85.414V21.6758H118.544V20.178ZM84.6651 20.9269V33.6522H86.1629V20.9269H84.6651ZM85.414 34.4011H116.35V32.9033H85.414V34.4011ZM115.601 33.6522V52.5757H117.099V33.6522H115.601ZM116.35 51.8268H85.414V53.3245H116.35V51.8268ZM84.6651 52.5757V65.3558H86.1629V52.5757H84.6651ZM85.414 66.1047H119.092V64.6069H85.414V66.1047ZM118.343 65.3558V84.2793H119.841V65.3558H118.343ZM119.092 83.5304H63.6931V85.0282H119.092V83.5304ZM147.34 84.2793V85.0282H147.865L148.044 84.535L147.34 84.2793ZM124.577 84.2793L123.88 84.0068L123.481 85.0282H124.577V84.2793ZM156.72 2.0034V1.25451H156.208L156.022 1.73089L156.72 2.0034ZM179.483 2.0034L180.18 1.73129L179.994 1.25451H179.483V2.0034ZM211.57 84.2793V85.0282H212.666L212.268 84.0072L211.57 84.2793ZM188.807 84.2793L188.103 84.535L188.283 85.0282H188.807V84.2793ZM183.487 69.6342L184.191 69.3785L184.012 68.8853H183.487V69.6342ZM152.661 69.6342V68.8853H152.136L151.957 69.3785L152.661 69.6342ZM159.572 50.7107L158.868 50.4557L158.504 51.4596H159.572V50.7107ZM176.631 50.7107V51.4596H177.701L177.334 50.4543L176.631 50.7107ZM168.074 27.2347L168.777 26.9782L168.072 25.0416L167.37 26.9797L168.074 27.2347ZM147.34 83.5304H124.577V85.0282H147.34V83.5304ZM125.275 84.5518L157.417 2.27591L156.022 1.73089L123.88 84.0068L125.275 84.5518ZM156.72 2.7523H179.483V1.25451H156.72V2.7523ZM178.785 2.27551L210.873 84.5514L212.268 84.0072L180.18 1.73129L178.785 2.27551ZM211.57 83.5304H188.807V85.0282H211.57V83.5304ZM189.511 84.0236L184.191 69.3785L182.783 69.8899L188.103 84.535L189.511 84.0236ZM183.487 68.8853H152.661V70.3831H183.487V68.8853ZM151.957 69.3785L146.636 84.0236L148.044 84.535L153.365 69.8899L151.957 69.3785ZM159.572 51.4596H176.631V49.9618H159.572V51.4596ZM177.334 50.4543L168.777 26.9782L167.37 27.4911L175.927 50.9672L177.334 50.4543ZM167.37 26.9797L158.868 50.4557L160.276 50.9657L168.778 27.4897L167.37 26.9797ZM251.721 84.2793V85.0282H252.47V84.2793H251.721ZM230 84.2793H229.251V85.0282H230V84.2793ZM230 20.9269H230.749V20.178H230V20.9269ZM207.182 20.9269H206.433V21.6758H207.182V20.9269ZM207.182 2.0034V1.25451H206.433V2.0034H207.182ZM274.539 2.0034H275.288V1.25451H274.539V2.0034ZM274.539 20.9269V21.6758H275.288V20.9269H274.539ZM251.721 20.9269V20.178H250.972V20.9269H251.721ZM251.721 83.5304H230V85.0282H251.721V83.5304ZM230.749 84.2793V20.9269H229.251V84.2793H230.749ZM230 20.178H207.182V21.6758H230V20.178ZM207.931 20.9269V2.0034H206.433V20.9269H207.931ZM207.182 2.7523H274.539V1.25451H207.182V2.7523ZM273.79 2.0034V20.9269H275.288V2.0034H273.79ZM274.539 20.178H251.721V21.6758H274.539V20.178ZM250.972 20.9269V84.2793H252.47V20.9269H250.972ZM354.292 2.0034H355.04V1.25451H354.292V2.0034ZM349.849 67.9338L349.181 67.5939L349.181 67.5955L349.849 67.9338ZM337.178 81.2625L336.811 80.6099L336.809 80.611L337.178 81.2625ZM284.96 67.9338L284.291 68.2704L284.294 68.2755L284.96 67.9338ZM280.572 2.0034V1.25451H279.824V2.0034H280.572ZM302.293 2.0034H303.042V1.25451H302.293V2.0034ZM303.884 57.0734L303.17 57.2986L303.172 57.3056L303.884 57.0734ZM308.875 64.5879L308.431 65.1906L308.437 65.1953L308.875 64.5879ZM325.989 64.5879L326.427 65.1953L326.433 65.1906L325.989 64.5879ZM330.925 57.0734L330.213 56.8412L330.211 56.8483L330.925 57.0734ZM332.571 2.0034V1.25451H331.822V2.0034H332.571ZM353.543 2.0034V47.1454H355.04V2.0034H353.543ZM353.543 47.1454C353.543 55.0991 352.079 61.9067 349.181 67.5939L350.516 68.2738C353.543 62.3326 355.04 55.2813 355.04 47.1454H353.543ZM349.181 67.5955C346.321 73.244 342.2 77.5761 336.811 80.6099L337.546 81.9151C343.199 78.7325 347.526 74.1788 350.517 68.2721L349.181 67.5955ZM336.809 80.611C331.459 83.6428 325.01 85.1759 317.432 85.1759V86.6737C325.212 86.6737 331.928 85.0986 337.547 81.9141L336.809 80.611ZM317.432 85.1759C309.892 85.1759 303.442 83.6432 298.053 80.6099L297.318 81.9151C302.973 85.0983 309.687 86.6737 317.432 86.6737V85.1759ZM298.053 80.6099C292.663 77.5756 288.524 73.2424 285.627 67.5922L284.294 68.2755C287.321 74.1804 291.665 78.733 297.318 81.9151L298.053 80.6099ZM285.629 67.5972C282.768 61.9092 281.321 55.1004 281.321 47.1454H279.824C279.824 55.28 281.303 62.3301 284.291 68.2704L285.629 67.5972ZM281.321 47.1454V2.0034H279.824V47.1454H281.321ZM280.572 2.7523H302.293V1.25451H280.572V2.7523ZM301.544 2.0034V44.1835H303.042V2.0034H301.544ZM301.544 44.1835C301.544 49.4558 302.078 53.8355 303.17 57.2985L304.598 56.8483C303.569 53.5829 303.042 49.3694 303.042 44.1835H301.544ZM303.172 57.3056C304.304 60.777 306.044 63.4297 308.431 65.1906L309.32 63.9853C307.246 62.4551 305.658 60.0982 304.596 56.8412L303.172 57.3056ZM308.437 65.1953C310.825 66.918 313.843 67.7503 317.432 67.7503V66.2525C314.074 66.2525 311.386 65.4758 309.313 63.9806L308.437 65.1953ZM317.432 67.7503C321.021 67.7503 324.039 66.918 326.427 65.1953L325.551 63.9806C323.478 65.4758 320.79 66.2525 317.432 66.2525V67.7503ZM326.433 65.1906C328.822 63.4281 330.544 60.7725 331.639 57.2985L330.211 56.8483C329.185 60.1027 327.616 62.4568 325.544 63.9853L326.433 65.1906ZM331.637 57.3056C332.767 53.8398 333.32 49.4575 333.32 44.1835H331.822C331.822 49.3677 331.277 53.5786 330.213 56.8412L331.637 57.3056ZM333.32 44.1835V2.0034H331.822V44.1835H333.32ZM332.571 2.7523H354.292V1.25451H332.571V2.7523ZM438.103 84.2793V85.0282H439.399L438.752 83.9054L438.103 84.2793ZM414.079 84.2793L413.43 84.6534L413.646 85.0282H414.079V84.2793ZM398.391 57.0734L399.04 56.6993L398.824 56.3245H398.391V57.0734ZM386.983 57.0734V56.3245H386.234V57.0734H386.983ZM386.983 84.2793V85.0282H387.731V84.2793H386.983ZM365.262 84.2793H364.513V85.0282H365.262V84.2793ZM365.262 2.0034V1.25451H364.513V2.0034H365.262ZM429.711 14.6739L429.08 15.0763L429.084 15.0828L429.711 14.6739ZM420.057 52.9596L419.716 52.2931L419.016 52.6519L419.409 53.3335L420.057 52.9596ZM386.983 40.344H386.234V41.0929H386.983V40.344ZM408.155 37.9305L408.598 38.5345L408.599 38.5332L408.155 37.9305ZM408.155 23.3951L407.705 23.9944L407.717 24.0025L408.155 23.3951ZM386.983 20.9269V20.178H386.234V20.9269H386.983ZM438.103 83.5304H414.079V85.0282H438.103V83.5304ZM414.728 83.9052L399.04 56.6993L397.743 57.4475L413.43 84.6534L414.728 83.9052ZM398.391 56.3245H386.983V57.8223H398.391V56.3245ZM386.234 57.0734V84.2793H387.731V57.0734H386.234ZM386.983 83.5304H365.262V85.0282H386.983V83.5304ZM366.011 84.2793V2.0034H364.513V84.2793H366.011ZM365.262 2.7523H400.037V1.25451H365.262V2.7523ZM400.037 2.7523C407.096 2.7523 413.059 3.82057 417.951 5.92741L418.544 4.55177C413.416 2.34369 407.24 1.25451 400.037 1.25451V2.7523ZM417.951 5.92741C422.839 8.03249 426.536 11.085 429.08 15.0763L430.343 14.2715C427.62 9.99866 423.675 6.7616 418.544 4.55177L417.951 5.92741ZM429.084 15.0828C431.66 19.0352 432.966 23.8415 432.966 29.5384H434.464C434.464 23.6069 433.101 18.5036 430.339 14.265L429.084 15.0828ZM432.966 29.5384C432.966 34.8778 431.821 39.4395 429.561 43.2532L430.849 44.0168C433.27 39.932 434.464 35.096 434.464 29.5384H432.966ZM429.561 43.2532C427.298 47.0708 424.026 50.0848 419.716 52.2931L420.399 53.6261C424.938 51.3001 428.431 48.0977 430.849 44.0168L429.561 43.2532ZM419.409 53.3335L437.454 84.6532L438.752 83.9054L420.706 52.5857L419.409 53.3335ZM386.983 41.0929H398.337V39.5951H386.983V41.0929ZM398.337 41.0929C402.759 41.0929 406.219 40.279 408.598 38.5345L407.712 37.3266C405.703 38.8 402.617 39.5951 398.337 39.5951V41.0929ZM408.599 38.5332C411.054 36.7225 412.25 34.0475 412.25 30.6354H410.752C410.752 33.6591 409.717 35.8476 407.71 37.3279L408.599 38.5332ZM412.25 30.6354C412.25 27.2236 411.054 24.5627 408.593 22.7878L407.717 24.0025C409.717 25.4454 410.752 27.6115 410.752 30.6354H412.25ZM408.604 22.796C406.224 21.0111 402.762 20.178 398.337 20.178V21.6758C402.614 21.6758 405.697 22.4882 407.706 23.9942L408.604 22.796ZM398.337 20.178H386.983V21.6758H398.337V20.178ZM386.234 20.9269V40.344H387.731V20.9269H386.234ZM444.685 84.2793H443.936V85.0282H444.685V84.2793ZM444.685 2.0034V1.25451H443.936V2.0034H444.685ZM499.536 2.0034H500.285V1.25451H499.536V2.0034ZM499.536 20.9269V21.6758H500.285V20.9269H499.536ZM466.406 20.9269V20.178H465.657V20.9269H466.406ZM466.406 33.6522H465.657V34.4011H466.406V33.6522ZM497.342 33.6522H498.091V32.9033H497.342V33.6522ZM497.342 52.5757V53.3245H498.091V52.5757H497.342ZM466.406 52.5757V51.8268H465.657V52.5757H466.406ZM466.406 65.3558H465.657V66.1047H466.406V65.3558ZM500.084 65.3558H500.833V64.6069H500.084V65.3558ZM500.084 84.2793V85.0282H500.833V84.2793H500.084ZM445.434 84.2793V2.0034H443.936V84.2793H445.434ZM444.685 2.7523H499.536V1.25451H444.685V2.7523ZM498.787 2.0034V20.9269H500.285V2.0034H498.787ZM499.536 20.178H466.406V21.6758H499.536V20.178ZM465.657 20.9269V33.6522H467.155V20.9269H465.657ZM466.406 34.4011H497.342V32.9033H466.406V34.4011ZM496.593 33.6522V52.5757H498.091V33.6522H496.593ZM497.342 51.8268H466.406V53.3245H497.342V51.8268ZM465.657 52.5757V65.3558H467.155V52.5757H465.657ZM466.406 66.1047H500.084V64.6069H466.406V66.1047ZM499.336 65.3558V84.2793H500.833V65.3558H499.336ZM500.084 83.5304H444.685V85.0282H500.084V83.5304ZM506.118 74.845L505.48 74.4523L505.128 75.0239L505.658 75.4361L506.118 74.845ZM516.32 58.2801L516.781 57.6898L516.122 57.1748L515.683 57.8874L516.32 58.2801ZM523.78 63.3812L523.408 64.0315L523.413 64.0339L523.78 63.3812ZM530.581 66.2883L530.377 67.0088L530.384 67.0108L530.391 67.0127L530.581 66.2883ZM543.197 66.398L543.424 67.1116L543.431 67.1093L543.439 67.1068L543.197 66.398ZM546.872 64.0943L546.303 63.6069L546.302 63.6086L546.872 64.0943ZM546.324 55.9764L546.853 55.4468L546.324 55.9764ZM541.332 52.6305L541.007 53.3051L541.012 53.3073L541.332 52.6305ZM534.586 49.6686L534.865 48.974L534.865 48.9739L534.586 49.6686ZM526.522 46.1581L526.198 46.8333L526.206 46.8368L526.522 46.1581ZM513.358 34.5847L512.696 34.9338L512.698 34.9375L513.358 34.5847ZM515.059 11.6023L514.448 11.1687L514.447 11.1699L515.059 11.6023ZM525.645 3.26497L525.939 3.9539L525.941 3.95273L525.645 3.26497ZM567.99 7.15936L568.664 7.48577L568.987 6.81816L568.322 6.48849L567.99 7.15936ZM559.543 24.6018L559.152 25.2409L559.857 25.6715L560.217 24.9283L559.543 24.6018ZM550.876 20.7623L550.649 21.4761L550.659 21.4792L550.876 20.7623ZM537.602 19.9944L537.354 19.2878L537.348 19.29L537.602 19.9944ZM534.531 22.0787L535.106 22.5581L535.111 22.5524L535.115 22.5466L534.531 22.0787ZM535.299 29.4836L534.769 30.0132L534.777 30.0209L535.299 29.4836ZM546.927 35.9559L546.626 36.6416L546.631 36.6438L546.927 35.9559ZM554.99 39.7406L554.651 40.4087L554.655 40.4104L554.99 39.7406ZM562.614 44.6772L562.137 45.2547L562.142 45.2584L562.614 44.6772ZM568.264 51.5335L567.603 51.8864L567.605 51.8902L568.264 51.5335ZM566.344 74.0771L565.736 73.6401L565.735 73.6412L566.344 74.0771ZM555.1 82.7983L554.803 82.1108L554.801 82.1116L555.1 82.7983ZM506.756 75.2377L516.958 58.6728L515.683 57.8874L505.48 74.4523L506.756 75.2377ZM515.859 58.8704C518.55 60.9711 521.066 62.6931 523.408 64.0314L524.151 62.731C521.886 61.4365 519.43 59.7578 516.781 57.6898L515.859 58.8704ZM523.413 64.0339C525.796 65.3743 528.117 66.3685 530.377 67.0088L530.786 65.5678C528.657 64.9648 526.445 64.0209 524.147 62.7285L523.413 64.0339ZM530.391 67.0127C532.684 67.614 535.015 67.9148 537.383 67.9148V66.417C535.143 66.417 532.94 66.1327 530.771 65.5639L530.391 67.0127ZM537.383 67.9148C539.702 67.9148 541.721 67.6534 543.424 67.1116L542.97 65.6844C541.455 66.1665 539.598 66.417 537.383 66.417V67.9148ZM543.439 67.1068C545.137 66.528 546.491 65.697 547.442 64.5799L546.302 63.6086C545.571 64.4662 544.475 65.171 542.955 65.6892L543.439 67.1068ZM547.441 64.5817C548.438 63.4176 548.937 62.0365 548.937 60.4741H547.44C547.44 61.6909 547.061 62.7232 546.303 63.6069L547.441 64.5817ZM548.937 60.4741C548.937 58.5199 548.237 56.8303 546.853 55.4468L545.794 56.5059C546.897 57.609 547.44 58.9179 547.44 60.4741H548.937ZM546.853 55.4468C545.534 54.1273 543.792 52.9669 541.653 51.9537L541.012 53.3073C543.041 54.2687 544.627 55.339 545.794 56.5059L546.853 55.4468ZM541.657 51.9559C539.593 50.9604 537.328 49.9665 534.865 48.974L534.306 50.3632C536.743 51.3453 538.976 52.326 541.007 53.3051L541.657 51.9559ZM534.865 48.9739C532.246 47.9188 529.57 46.754 526.839 45.4795L526.206 46.8368C528.96 48.1219 531.66 49.2975 534.306 50.3632L534.865 48.9739ZM526.847 45.483C524.155 44.1911 521.682 42.6314 519.424 40.8041L518.482 41.9682C520.832 43.8707 523.405 45.4923 526.198 46.8333L526.847 45.483ZM519.424 40.8041C517.2 39.0035 515.399 36.8148 514.019 34.2318L512.698 34.9375C514.17 37.6933 516.099 40.039 518.482 41.9682L519.424 40.8041ZM514.021 34.2355C512.665 31.6621 511.968 28.4977 511.968 24.7115H510.47C510.47 28.6776 511.2 32.0953 512.696 34.9338L514.021 34.2355ZM511.968 24.7115C511.968 19.7223 513.213 15.5095 515.67 12.0346L514.447 11.1699C511.785 14.9353 510.47 19.4621 510.47 24.7115H511.968ZM515.669 12.0358C518.179 8.50102 521.594 5.80573 525.939 3.95389L525.351 2.57604C520.774 4.52717 517.131 7.39008 514.448 11.1687L515.669 12.0358ZM525.941 3.95273C530.332 2.06085 535.311 1.10678 540.893 1.10678V-0.39101C535.139 -0.39101 529.953 0.592973 525.349 2.5772L525.941 3.95273ZM540.893 1.10678C544.959 1.10678 549.27 1.64652 553.829 2.73193L554.176 1.27487C549.52 0.166257 545.092 -0.39101 540.893 -0.39101V1.10678ZM553.829 2.73193C558.376 3.81445 562.985 5.51236 567.657 7.83023L568.322 6.48849C563.56 4.12577 558.844 2.38638 554.176 1.27487L553.829 2.73193ZM567.316 6.83295L558.869 24.2754L560.217 24.9283L568.664 7.48577L567.316 6.83295ZM559.933 23.9628C557.242 22.3186 554.295 21.0135 551.093 20.0455L550.659 21.4792C553.747 22.4126 556.577 23.6672 559.152 25.2409L559.933 23.9628ZM551.103 20.0486C547.939 19.0436 545.009 18.5324 542.319 18.5324V20.0302C544.822 20.0302 547.597 20.5063 550.649 21.4761L551.103 20.0486ZM542.319 18.5324C540.463 18.5324 538.804 18.7785 537.354 19.2878L537.851 20.7009C539.107 20.2596 540.592 20.0302 542.319 20.0302V18.5324ZM537.348 19.29C535.927 19.803 534.779 20.5695 533.946 21.6109L535.115 22.5466C535.745 21.7596 536.645 21.1365 537.857 20.6988L537.348 19.29ZM533.955 21.5993C533.105 22.6195 532.685 23.834 532.685 25.2052H534.183C534.183 24.163 534.493 23.2932 535.106 22.5581L533.955 21.5993ZM532.685 25.2052C532.685 27.0322 533.4 28.6437 534.769 30.0131L535.828 28.954C534.711 27.8368 534.183 26.5961 534.183 25.2052H532.685ZM534.777 30.0209C536.09 31.2951 537.804 32.4514 539.9 33.4993L540.57 32.1596C538.57 31.1597 536.994 30.0854 535.82 28.9462L534.777 30.0209ZM539.9 33.4993C541.961 34.5294 544.203 35.5768 546.626 36.6415L547.228 35.2703C544.824 34.2141 542.605 33.1772 540.57 32.1596L539.9 33.4993ZM546.631 36.6438C549.248 37.7708 551.922 39.0256 554.651 40.4087L555.328 39.0726C552.573 37.6765 549.871 36.4082 547.223 35.2681L546.631 36.6438ZM554.655 40.4104C557.386 41.7757 559.879 43.3907 562.137 45.2547L563.091 44.0996C560.742 42.1607 558.153 40.4846 555.325 39.0708L554.655 40.4104ZM562.142 45.2584C564.405 47.0968 566.224 49.3045 567.603 51.8864L568.924 51.1806C567.451 48.4237 565.504 46.0605 563.086 44.0959L562.142 45.2584ZM567.605 51.8902C568.96 54.3907 569.654 57.4252 569.654 61.0226H571.152C571.152 57.2335 570.42 53.9419 568.922 51.1768L567.605 51.8902ZM569.654 61.0226C569.654 65.8131 568.344 70.0095 565.736 73.6401L566.952 74.514C569.756 70.6119 571.152 66.1053 571.152 61.0226H569.654ZM565.735 73.6412C563.156 77.245 559.523 80.0724 554.803 82.1108L555.397 83.4859C560.33 81.3556 564.193 78.3689 566.953 74.5129L565.735 73.6412ZM554.801 82.1116C550.123 84.147 544.652 85.1759 538.37 85.1759V86.6737C544.814 86.6737 550.496 85.6183 555.398 83.485L554.801 82.1116ZM538.37 85.1759C532.528 85.1759 526.907 84.2386 521.502 82.365L521.012 83.7802C526.577 85.7096 532.365 86.6737 538.37 86.6737V85.1759ZM521.502 82.365C516.095 80.4905 511.121 77.7874 506.578 74.2539L505.658 75.4361C510.33 79.0697 515.449 81.8517 521.012 83.7802L521.502 82.365Z" fill="black" fill-opacity="0.15" mask="url(#path-1-outside-1_158_644)"/>
</svg>
