<svg width="1438" height="512" viewBox="0 0 1438 512" fill="none" xmlns="http://www.w3.org/2000/svg">
<path fill-rule="evenodd" clip-rule="evenodd" d="M-53 41.7113C-53 41.7113 254.779 100.627 543.045 100.627C831.311 100.627 979.191 20.4929 1149.48 3.29924C1319.77 -13.8944 1512 41.7113 1512 41.7113V512H-53V41.7113Z" fill="#6A1B9A"/>
<mask id="mask0_83_557" style="mask-type:luminance" maskUnits="userSpaceOnUse" x="-53" y="0" width="1565" height="512">
<path fill-rule="evenodd" clip-rule="evenodd" d="M-53 42.4098C-53 42.4098 254.779 101.238 543.045 101.238C831.311 101.238 979.191 21.2228 1149.48 4.05473C1319.77 -13.1134 1512 42.4098 1512 42.4098V512H-53V42.4098Z" fill="white"/>
</mask>
<g mask="url(#mask0_83_557)">
<path fill-rule="evenodd" clip-rule="evenodd" d="M-364 -385H128.325C128.325 -385 60.2305 -385 145.81 -243.901C195.675 -161.686 274.791 -71.0838 274.791 13.5719C274.791 107.883 217.867 166.764 188.906 282.254C161.012 393.487 254.404 512.364 254.404 512.364H-364V-385Z" fill="#8BC34A" fill-opacity="0.15"/>
<path fill-rule="evenodd" clip-rule="evenodd" d="M1803.67 657.54L1212.49 592.003C1212.49 592.003 1459.64 220.963 1357.58 74.4357C1298.38 -10.5551 1225.12 -68.9813 1223.37 -169.659C1221.41 -281.819 1310.74 -334.501 1337.6 -472.358C1363.47 -605.135 1268.89 -758.855 1268.89 -758.855L1893.64 -769.76L1803.67 657.54Z" fill="#8BC34A" fill-opacity="0.15"/>
</g>
</svg>
