<svg width="526" height="88" viewBox="0 0 526 88" fill="none" xmlns="http://www.w3.org/2000/svg">
<mask id="path-1-outside-1_1432_1470" maskUnits="userSpaceOnUse" x="0" y="0" width="526" height="88" fill="black">
<rect fill="white" width="526" height="88"/>
<path d="M1.48506 85V2.7241H23.2059V85H1.48506ZM111.077 85H85.5162L55.8969 36.183V85H34.176V2.7241H59.7364L89.3557 51.7057V2.7241H111.077V85ZM118.207 75.5657L128.409 59.0008C131.079 61.0851 133.565 62.7855 135.869 64.1019C138.209 65.4183 140.476 66.3874 142.67 67.009C144.901 67.5941 147.168 67.8866 149.472 67.8866C151.739 67.8866 153.677 67.6306 155.286 67.1187C156.895 66.5702 158.12 65.8023 158.961 64.815C159.839 63.7911 160.278 62.5844 160.278 61.1948C160.278 59.4396 159.656 57.9404 158.413 56.6971C157.169 55.4538 155.506 54.3385 153.421 53.3512C151.373 52.3639 149.125 51.3766 146.675 50.3893C144.042 49.3288 141.354 48.1587 138.612 46.8788C135.869 45.5624 133.346 43.9718 131.042 42.1068C128.738 40.2419 126.874 37.9748 125.447 35.3054C124.021 32.5994 123.308 29.3084 123.308 25.4323C123.308 20.3129 124.588 15.9431 127.148 12.323C129.744 8.66625 133.273 5.88716 137.734 3.98567C142.232 2.04761 147.315 1.07859 152.982 1.07859C157.114 1.07859 161.484 1.62709 166.092 2.7241C170.699 3.82112 175.361 5.53977 180.079 7.88006L171.632 25.3226C168.999 23.7136 166.11 22.4338 162.965 21.483C159.857 20.4957 157.005 20.002 154.409 20.002C152.617 20.002 151.044 20.2397 149.691 20.7151C148.375 21.1905 147.351 21.8852 146.62 22.7994C145.888 23.677 145.523 24.7192 145.523 25.9259C145.523 27.5349 146.144 28.961 147.388 30.2043C148.631 31.411 150.276 32.5263 152.324 33.5501C154.372 34.574 156.603 35.6162 159.016 36.6766C161.649 37.8102 164.336 39.0718 167.079 40.4613C169.858 41.8509 172.4 43.4964 174.703 45.3979C177.044 47.2994 178.927 49.5848 180.353 52.2542C181.779 54.887 182.492 58.0501 182.492 61.7433C182.492 66.6799 181.139 71.0314 178.433 74.7978C175.764 78.5276 172.016 81.4347 167.189 83.519C162.398 85.6034 156.822 86.6455 150.459 86.6455C144.535 86.6455 138.831 85.6948 133.346 83.7933C127.861 81.8918 122.815 79.1493 118.207 75.5657ZM190.72 85V2.7241H212.44V85H190.72ZM280.949 26.4744C278.974 24.4267 276.561 22.836 273.709 21.7024C270.856 20.5688 267.785 20.002 264.494 20.002C261.312 20.002 258.424 20.5505 255.827 21.6476C253.268 22.708 251.055 24.2621 249.19 26.3099C247.362 28.3576 245.936 30.8076 244.912 33.6598C243.925 36.5121 243.431 39.73 243.431 43.3135C243.431 46.9703 243.961 50.2979 245.022 53.2964C246.082 56.2949 247.6 58.8728 249.574 61.0303C251.549 63.1512 253.889 64.7967 256.595 65.9668C259.338 67.137 262.373 67.7221 265.7 67.7221C268.187 67.7221 270.454 67.393 272.502 66.7348C274.55 66.0765 276.36 65.1075 277.932 63.8277C279.504 62.5478 280.839 60.9754 281.936 59.1105C283.033 57.209 283.874 55.0516 284.459 52.6381H264.768V36.183H303.547L304.151 44.4654C304.151 50.7184 303.2 56.4411 301.298 61.6336C299.434 66.7896 296.764 71.2325 293.29 74.9623C289.816 78.6922 285.666 81.581 280.839 83.6287C276.049 85.6399 270.71 86.6455 264.823 86.6455C258.68 86.6455 252.957 85.5668 247.655 83.4093C242.389 81.2153 237.763 78.1802 233.777 74.3041C229.828 70.3915 226.738 65.8206 224.508 60.5915C222.314 55.3624 221.217 49.7128 221.217 43.6426C221.217 37.6457 222.295 32.0692 224.453 26.9132C226.61 21.7573 229.627 17.2412 233.503 13.3651C237.379 9.48901 241.895 6.47223 247.051 4.31477C252.244 2.15732 257.857 1.07859 263.89 1.07859C269.558 1.07859 275.08 2.0659 280.455 4.04052C285.831 6.01514 290.657 8.8308 294.936 12.4875L280.949 26.4744ZM334.648 85H312.927V2.7241H334.648V35.086H363.334V2.7241H385.055V85H363.334V54.0094H334.648V85ZM435.682 85H413.962V21.6476H391.144V2.7241H458.5V21.6476H435.682V85ZM460.694 75.5657L470.896 59.0008C473.566 61.0851 476.052 62.7855 478.356 64.1019C480.696 65.4183 482.964 66.3874 485.158 67.009C487.388 67.5941 489.655 67.8866 491.959 67.8866C494.226 67.8866 496.164 67.6306 497.773 67.1187C499.382 66.5702 500.607 65.8023 501.448 64.815C502.326 63.7911 502.765 62.5844 502.765 61.1948C502.765 59.4396 502.143 57.9404 500.9 56.6971C499.656 55.4538 497.993 54.3385 495.908 53.3512C493.861 52.3639 491.612 51.3766 489.162 50.3893C486.529 49.3288 483.841 48.1587 481.099 46.8788C478.356 45.5624 475.833 43.9718 473.529 42.1068C471.226 40.2419 469.361 37.9748 467.935 35.3054C466.508 32.5994 465.795 29.3084 465.795 25.4323C465.795 20.3129 467.075 15.9431 469.635 12.323C472.231 8.66625 475.76 5.88716 480.221 3.98567C484.719 2.04761 489.802 1.07859 495.47 1.07859C499.602 1.07859 503.971 1.62709 508.579 2.7241C513.186 3.82112 517.849 5.53977 522.566 7.88006L514.119 25.3226C511.486 23.7136 508.597 22.4338 505.452 21.483C502.344 20.4957 499.492 20.002 496.896 20.002C495.104 20.002 493.531 20.2397 492.178 20.7151C490.862 21.1905 489.838 21.8852 489.107 22.7994C488.376 23.677 488.01 24.7192 488.01 25.9259C488.01 27.5349 488.631 28.961 489.875 30.2043C491.118 31.411 492.764 32.5263 494.811 33.5501C496.859 34.574 499.09 35.6162 501.503 36.6766C504.136 37.8102 506.824 39.0718 509.566 40.4613C512.345 41.8509 514.887 43.4964 517.19 45.3979C519.531 47.2994 521.414 49.5848 522.84 52.2542C524.266 54.887 524.979 58.0501 524.979 61.7433C524.979 66.6799 523.626 71.0314 520.92 74.7978C518.251 78.5276 514.503 81.4347 509.676 83.519C504.886 85.6034 499.309 86.6455 492.946 86.6455C487.023 86.6455 481.318 85.6948 475.833 83.7933C470.348 81.8918 465.302 79.1493 460.694 75.5657Z"/>
</mask>
<path d="M1.48506 85H0.48506V86H1.48506V85ZM1.48506 2.7241V1.7241H0.48506V2.7241H1.48506ZM23.2059 2.7241H24.2059V1.7241H23.2059V2.7241ZM23.2059 85V86H24.2059V85H23.2059ZM2.48506 85V2.7241H0.48506V85H2.48506ZM1.48506 3.7241H23.2059V1.7241H1.48506V3.7241ZM22.2059 2.7241V85H24.2059V2.7241H22.2059ZM23.2059 84H1.48506V86H23.2059V84ZM111.077 85V86H112.077V85H111.077ZM85.5162 85L84.6612 85.5187L84.9532 86H85.5162V85ZM55.8969 36.183L56.7518 35.6642L54.8969 32.607V36.183H55.8969ZM55.8969 85V86H56.8969V85H55.8969ZM34.176 85H33.176V86H34.176V85ZM34.176 2.7241V1.7241H33.176V2.7241H34.176ZM59.7364 2.7241L60.5921 2.20665L60.3003 1.7241H59.7364V2.7241ZM89.3557 51.7057L88.5 52.2231L90.3557 55.2919V51.7057H89.3557ZM89.3557 2.7241V1.7241H88.3557V2.7241H89.3557ZM111.077 2.7241H112.077V1.7241H111.077V2.7241ZM111.077 84H85.5162V86H111.077V84ZM86.3711 84.4813L56.7518 35.6642L55.0419 36.7017L84.6612 85.5187L86.3711 84.4813ZM54.8969 36.183V85H56.8969V36.183H54.8969ZM55.8969 84H34.176V86H55.8969V84ZM35.176 85V2.7241H33.176V85H35.176ZM34.176 3.7241H59.7364V1.7241H34.176V3.7241ZM58.8807 3.24156L88.5 52.2231L90.2114 51.1882L60.5921 2.20665L58.8807 3.24156ZM90.3557 51.7057V2.7241H88.3557V51.7057H90.3557ZM89.3557 3.7241H111.077V1.7241H89.3557V3.7241ZM110.077 2.7241V85H112.077V2.7241H110.077ZM118.207 75.5657L117.356 75.0413L116.886 75.8046L117.593 76.355L118.207 75.5657ZM128.409 59.0008L129.025 58.2126L128.144 57.5248L127.558 58.4764L128.409 59.0008ZM135.869 64.1019L135.373 64.9702L135.379 64.9735L135.869 64.1019ZM142.67 67.009L142.398 67.9711L142.407 67.9738L142.417 67.9763L142.67 67.009ZM155.286 67.1187L155.589 68.0716L155.599 68.0685L155.609 68.0652L155.286 67.1187ZM158.961 64.815L158.202 64.1642L158.2 64.1665L158.961 64.815ZM158.413 56.6971L159.12 55.99L158.413 56.6971ZM153.421 53.3512L152.987 54.252L152.993 54.2549L153.421 53.3512ZM146.675 50.3893L147.048 49.4618L147.048 49.4617L146.675 50.3893ZM138.612 46.8788L138.179 47.7804L138.189 47.785L138.612 46.8788ZM125.447 35.3054L124.563 35.7716L124.565 35.7766L125.447 35.3054ZM127.148 12.323L126.332 11.744L126.331 11.7456L127.148 12.323ZM137.734 3.98567L138.126 4.9056L138.13 4.90404L137.734 3.98567ZM180.079 7.88006L180.979 8.31592L181.41 7.42446L180.523 6.98425L180.079 7.88006ZM171.632 25.3226L171.11 26.1758L172.051 26.7508L172.532 25.7584L171.632 25.3226ZM162.965 21.483L162.662 22.4362L162.676 22.4402L162.965 21.483ZM149.691 20.7151L149.36 19.7716L149.352 19.7745L149.691 20.7151ZM146.62 22.7994L147.388 23.4396L147.394 23.4319L147.401 23.4241L146.62 22.7994ZM147.388 30.2043L146.681 30.9114L146.686 30.9166L146.691 30.9218L147.388 30.2043ZM159.016 36.6766L158.614 37.5922L158.621 37.5951L159.016 36.6766ZM167.079 40.4613L166.627 41.3534L166.632 41.3557L167.079 40.4613ZM174.703 45.3979L174.067 46.1691L174.073 46.174L174.703 45.3979ZM180.353 52.2542L179.471 52.7254L179.474 52.7305L180.353 52.2542ZM178.433 74.7978L177.621 74.2143L177.62 74.2158L178.433 74.7978ZM167.189 83.519L166.792 82.601L166.79 82.6021L167.189 83.519ZM119.059 76.0901L129.261 59.5252L127.558 58.4764L117.356 75.0413L119.059 76.0901ZM127.794 59.789C130.491 61.8952 133.018 63.6245 135.373 64.9702L136.365 63.2337C134.113 61.9465 131.666 60.2751 129.025 58.2126L127.794 59.789ZM135.379 64.9735C137.776 66.3219 140.116 67.3246 142.398 67.9711L142.943 66.0469C140.837 65.4501 138.643 64.5147 136.359 63.2303L135.379 64.9735ZM142.417 67.9763C144.73 68.5831 147.083 68.8866 149.472 68.8866V66.8866C147.254 66.8866 145.072 66.6051 142.924 66.0417L142.417 67.9763ZM149.472 68.8866C151.809 68.8866 153.855 68.6234 155.589 68.0716L154.983 66.1658C153.499 66.6379 151.669 66.8866 149.472 66.8866V68.8866ZM155.609 68.0652C157.337 67.4762 158.734 66.624 159.722 65.4634L158.2 64.1665C157.506 64.9805 156.454 65.6642 154.963 66.1722L155.609 68.0652ZM159.72 65.4658C160.758 64.2547 161.278 62.8152 161.278 61.1948H159.278C159.278 62.3536 158.919 63.3275 158.202 64.1642L159.72 65.4658ZM161.278 61.1948C161.278 59.1739 160.55 57.4204 159.12 55.99L157.706 57.4042C158.762 58.4603 159.278 59.7054 159.278 61.1948H161.278ZM159.12 55.99C157.775 54.6448 156.007 53.4694 153.849 52.4475L152.993 54.2549C155.004 55.2076 156.564 56.2628 157.706 57.4042L159.12 55.99ZM153.856 52.4504C151.785 51.4522 149.516 50.456 147.048 49.4618L146.301 51.3168C148.734 52.2971 150.962 53.2756 152.987 54.252L153.856 52.4504ZM147.048 49.4617C144.433 48.4084 141.762 47.2454 139.034 45.9727L138.189 47.785C140.946 49.0719 143.65 50.2493 146.301 51.3169L147.048 49.4617ZM139.044 45.9773C136.37 44.6937 133.913 43.1443 131.671 41.3296L130.413 42.8841C132.779 44.7992 135.368 46.4312 138.179 47.7804L139.044 45.9773ZM131.671 41.3296C129.474 39.5506 127.694 37.3882 126.329 34.8341L124.565 35.7766C126.053 38.5613 128.003 40.9333 130.413 42.8841L131.671 41.3296ZM126.332 34.8391C124.999 32.3102 124.308 29.1883 124.308 25.4323H122.308C122.308 29.4284 123.043 32.8886 124.563 35.7716L126.332 34.8391ZM124.308 25.4323C124.308 20.4866 125.542 16.3265 127.964 12.9003L126.331 11.7456C123.634 15.5597 122.308 20.1391 122.308 25.4323H124.308ZM127.963 12.9019C130.444 9.40797 133.82 6.74079 138.126 4.90559L137.342 3.06575C132.725 5.03352 129.044 7.92454 126.332 11.744L127.963 12.9019ZM138.13 4.90404C142.484 3.02764 147.429 2.07859 152.982 2.07859V0.0785867C147.2 0.0785867 141.979 1.06758 137.338 3.0673L138.13 4.90404ZM152.982 2.07859C157.026 2.07859 161.318 2.61539 165.86 3.69691L166.323 1.7513C161.651 0.638791 157.203 0.0785867 152.982 0.0785867V2.07859ZM165.86 3.69691C170.386 4.77457 174.977 6.46552 179.634 8.77587L180.523 6.98425C175.746 4.61401 171.012 2.86766 166.323 1.7513L165.86 3.69691ZM179.179 7.4442L170.732 24.8867L172.532 25.7584L180.979 8.31592L179.179 7.4442ZM172.153 24.4693C169.443 22.8132 166.476 21.4996 163.255 20.5258L162.676 22.4402C165.744 23.3679 168.554 24.614 171.11 26.1758L172.153 24.4693ZM163.268 20.5299C160.086 19.5191 157.13 19.002 154.409 19.002V21.002C156.88 21.002 159.628 21.4723 162.662 22.4361L163.268 20.5299ZM154.409 19.002C152.531 19.002 150.842 19.2508 149.36 19.7716L150.023 21.6586C151.247 21.2286 152.703 21.002 154.409 21.002V19.002ZM149.352 19.7745C147.896 20.3002 146.706 21.0907 145.839 22.1747L147.401 23.4241C147.996 22.6798 148.854 22.0808 150.031 21.6557L149.352 19.7745ZM145.852 22.1592C144.962 23.2272 144.523 24.4995 144.523 25.9259H146.523C146.523 24.9389 146.815 24.1269 147.388 23.4396L145.852 22.1592ZM144.523 25.9259C144.523 27.826 145.269 29.4997 146.681 30.9114L148.095 29.4971C147.02 28.4222 146.523 27.2437 146.523 25.9259H144.523ZM146.691 30.9218C148.027 32.2186 149.765 33.3887 151.877 34.4446L152.771 32.6557C150.788 31.6639 149.235 30.6033 148.084 29.4867L146.691 30.9218ZM151.877 34.4446C153.942 35.4769 156.187 36.526 158.614 37.5921L159.418 35.7611C157.018 34.7063 154.802 33.6712 152.771 32.6557L151.877 34.4446ZM158.621 37.5951C161.233 38.7199 163.902 39.9725 166.627 41.3534L167.531 39.5693C164.771 38.171 162.065 36.9005 159.411 35.7581L158.621 37.5951ZM166.632 41.3557C169.346 42.7129 171.824 44.3176 174.067 46.1691L175.34 44.6266C172.976 42.6752 170.37 40.9889 167.526 39.5669L166.632 41.3557ZM174.073 46.174C176.309 47.9913 178.107 50.1729 179.471 52.7254L181.235 51.783C179.746 48.9967 177.778 46.6075 175.334 44.6218L174.073 46.174ZM179.474 52.7305C180.804 55.1867 181.492 58.1781 181.492 61.7433H183.492C183.492 57.9221 182.754 54.5873 181.232 51.7779L179.474 52.7305ZM181.492 61.7433C181.492 66.4848 180.197 70.6292 177.621 74.2143L179.245 75.3813C182.081 71.4336 183.492 66.875 183.492 61.7433H181.492ZM177.62 74.2158C175.071 77.7772 171.477 80.578 166.792 82.601L167.585 84.4371C172.554 82.2915 176.456 79.278 179.246 75.3798L177.62 74.2158ZM166.79 82.6021C162.15 84.6211 156.714 85.6455 150.459 85.6455V87.6455C156.93 87.6455 162.647 86.5857 167.588 84.436L166.79 82.6021ZM150.459 85.6455C144.645 85.6455 139.051 84.7127 133.673 82.8485L133.018 84.7381C138.611 86.6769 144.426 87.6455 150.459 87.6455V85.6455ZM133.673 82.8485C128.292 80.983 123.343 78.2932 118.821 74.7763L117.593 76.355C122.286 80.0054 127.429 82.8006 133.018 84.7381L133.673 82.8485ZM190.72 85H189.72V86H190.72V85ZM190.72 2.7241V1.7241H189.72V2.7241H190.72ZM212.44 2.7241H213.44V1.7241H212.44V2.7241ZM212.44 85V86H213.44V85H212.44ZM191.72 85V2.7241H189.72V85H191.72ZM190.72 3.7241H212.44V1.7241H190.72V3.7241ZM211.44 2.7241V85H213.44V2.7241H211.44ZM212.44 84H190.72V86H212.44V84ZM280.949 26.4744L280.229 27.1685L280.936 27.9016L281.656 27.1815L280.949 26.4744ZM255.827 21.6476L256.21 22.5714L256.217 22.5687L255.827 21.6476ZM249.19 26.3099L248.451 25.6365L248.444 25.6438L249.19 26.3099ZM244.912 33.6598L243.971 33.322L243.967 33.3327L244.912 33.6598ZM245.022 53.2964L244.079 53.6298L245.022 53.2964ZM249.574 61.0303L248.837 61.7055L248.842 61.7117L249.574 61.0303ZM256.595 65.9668L256.198 66.8847L256.203 66.8866L256.595 65.9668ZM272.502 66.7348L272.808 67.6868L272.502 66.7348ZM281.936 59.1105L282.798 59.6176L282.802 59.6102L281.936 59.1105ZM284.459 52.6381L285.431 52.8737L285.731 51.6381H284.459V52.6381ZM264.768 52.6381H263.768V53.6381H264.768V52.6381ZM264.768 36.183V35.183H263.768V36.183H264.768ZM303.547 36.183L304.545 36.1103L304.477 35.183H303.547V36.183ZM304.151 44.4654H305.151V44.429L305.148 44.3928L304.151 44.4654ZM301.298 61.6336L300.359 61.2898L300.358 61.2935L301.298 61.6336ZM280.839 83.6287L281.226 84.5508L281.23 84.5493L280.839 83.6287ZM247.655 83.4093L247.27 84.3324L247.278 84.3356L247.655 83.4093ZM233.777 74.3041L233.074 75.0146L233.08 75.021L233.777 74.3041ZM224.508 60.5915L223.585 60.9784L223.588 60.9839L224.508 60.5915ZM247.051 4.31477L246.667 3.39131L246.665 3.39228L247.051 4.31477ZM294.936 12.4875L295.643 13.1946L296.408 12.4299L295.585 11.7273L294.936 12.4875ZM281.669 25.7803C279.588 23.6222 277.052 21.955 274.078 20.7731L273.339 22.6317C276.07 23.7169 278.361 25.2311 280.229 27.1685L281.669 25.7803ZM274.078 20.7731C271.1 19.5895 267.902 19.002 264.494 19.002V21.002C267.667 21.002 270.613 21.5481 273.339 22.6317L274.078 20.7731ZM264.494 19.002C261.196 19.002 258.172 19.5711 255.438 20.7264L256.217 22.5687C258.675 21.53 261.429 21.002 264.494 21.002V19.002ZM255.445 20.7237C252.749 21.8404 250.415 23.48 248.451 25.6365L249.93 26.9832C251.696 25.0442 253.786 23.5756 256.21 22.5714L255.445 20.7237ZM248.444 25.6438C246.522 27.7969 245.034 30.3614 243.971 33.322L245.853 33.9977C246.838 31.2538 248.202 28.9183 249.936 26.9759L248.444 25.6438ZM243.967 33.3327C242.937 36.3078 242.431 39.6389 242.431 43.3135H244.431C244.431 39.821 244.912 36.7164 245.857 33.987L243.967 33.3327ZM242.431 43.3135C242.431 47.0671 242.975 50.5095 244.079 53.6298L245.964 52.9629C244.947 50.0862 244.431 46.8734 244.431 43.3135H242.431ZM244.079 53.6298C245.18 56.7436 246.764 59.4406 248.837 61.7054L250.312 60.3551C248.436 58.305 246.984 55.8461 245.964 52.9629L244.079 53.6298ZM248.842 61.7117C250.913 63.9355 253.368 65.6607 256.198 66.8847L256.992 65.049C254.411 63.9327 252.185 62.3669 250.306 60.3489L248.842 61.7117ZM256.203 66.8866C259.083 68.1155 262.254 68.7221 265.7 68.7221V66.7221C262.492 66.7221 259.592 66.1585 256.988 65.0471L256.203 66.8866ZM265.7 68.7221C268.275 68.7221 270.647 68.3813 272.808 67.6868L272.196 65.7827C270.261 66.4046 268.099 66.7221 265.7 66.7221V68.7221ZM272.808 67.6868C274.967 66.9928 276.889 65.9663 278.563 64.6032L277.301 63.0521C275.831 64.2487 274.132 65.1602 272.196 65.7827L272.808 67.6868ZM278.563 64.6032C280.234 63.2434 281.645 61.578 282.798 59.6175L281.074 58.6035C280.033 60.3728 278.775 61.8523 277.301 63.0521L278.563 64.6032ZM282.802 59.6102C283.953 57.6162 284.827 55.3679 285.431 52.8737L283.487 52.4025C282.922 54.7353 282.114 56.8019 281.07 58.6108L282.802 59.6102ZM284.459 51.6381H264.768V53.6381H284.459V51.6381ZM265.768 52.6381V36.183H263.768V52.6381H265.768ZM264.768 37.183H303.547V35.183H264.768V37.183ZM302.55 36.2556L303.153 44.5381L305.148 44.3928L304.545 36.1103L302.55 36.2556ZM303.151 44.4654C303.151 50.6163 302.216 56.2208 300.359 61.2898L302.237 61.9775C304.184 56.6614 305.151 50.8205 305.151 44.4654H303.151ZM300.358 61.2935C298.535 66.3325 295.934 70.6568 292.558 74.2808L294.022 75.6439C297.594 71.8082 300.332 67.2467 302.239 61.9738L300.358 61.2935ZM292.558 74.2808C289.183 77.9049 285.15 80.7136 280.449 82.7082L281.23 84.5493C286.182 82.4483 290.45 79.4795 294.022 75.6439L292.558 74.2808ZM280.452 82.7067C275.8 84.66 270.595 85.6455 264.823 85.6455V87.6455C270.825 87.6455 276.298 86.6198 281.226 84.5508L280.452 82.7067ZM264.823 85.6455C258.799 85.6455 253.205 84.5884 248.031 82.4831L247.278 84.3356C252.708 86.5452 258.56 87.6455 264.823 87.6455V85.6455ZM248.039 82.4863C242.887 80.3394 238.368 77.3732 234.475 73.5872L233.08 75.021C237.159 78.9872 241.891 82.0912 247.27 84.3324L248.039 82.4863ZM234.481 73.5937C230.626 69.7742 227.608 65.312 225.427 60.1991L223.588 60.9839C225.868 66.3292 229.03 71.0087 233.074 75.0145L234.481 73.5937ZM225.43 60.2046C223.291 55.1064 222.217 49.5894 222.217 43.6426H220.217C220.217 49.8362 221.337 55.6183 223.585 60.9784L225.43 60.2046ZM222.217 43.6426C222.217 37.7684 223.273 32.3242 225.375 27.2992L223.53 26.5272C221.318 31.8141 220.217 37.5229 220.217 43.6426H222.217ZM225.375 27.2992C227.483 22.2609 230.428 17.8545 234.21 14.0722L232.796 12.658C228.826 16.628 225.737 21.2536 223.53 26.5272L225.375 27.2992ZM234.21 14.0722C237.992 10.2899 242.399 7.34551 247.437 5.23727L246.665 3.39228C241.392 5.59895 236.766 8.68807 232.796 12.658L234.21 14.0722ZM247.435 5.23823C252.497 3.13491 257.979 2.07859 263.89 2.07859V0.0785867C257.735 0.0785867 251.99 1.17972 246.667 3.39131L247.435 5.23823ZM263.89 2.07859C269.439 2.07859 274.844 3.04471 280.11 4.97919L280.8 3.10185C275.315 1.08709 269.677 0.0785867 263.89 0.0785867V2.07859ZM280.11 4.97919C285.376 6.91361 290.1 9.66946 294.286 13.2477L295.585 11.7273C291.215 7.99214 286.285 5.11667 280.8 3.10185L280.11 4.97919ZM294.229 11.7804L280.242 25.7673L281.656 27.1815L295.643 13.1946L294.229 11.7804ZM334.648 85V86H335.648V85H334.648ZM312.927 85H311.927V86H312.927V85ZM312.927 2.7241V1.7241H311.927V2.7241H312.927ZM334.648 2.7241H335.648V1.7241H334.648V2.7241ZM334.648 35.086H333.648V36.086H334.648V35.086ZM363.334 35.086V36.086H364.334V35.086H363.334ZM363.334 2.7241V1.7241H362.334V2.7241H363.334ZM385.055 2.7241H386.055V1.7241H385.055V2.7241ZM385.055 85V86H386.055V85H385.055ZM363.334 85H362.334V86H363.334V85ZM363.334 54.0094H364.334V53.0094H363.334V54.0094ZM334.648 54.0094V53.0094H333.648V54.0094H334.648ZM334.648 84H312.927V86H334.648V84ZM313.927 85V2.7241H311.927V85H313.927ZM312.927 3.7241H334.648V1.7241H312.927V3.7241ZM333.648 2.7241V35.086H335.648V2.7241H333.648ZM334.648 36.086H363.334V34.086H334.648V36.086ZM364.334 35.086V2.7241H362.334V35.086H364.334ZM363.334 3.7241H385.055V1.7241H363.334V3.7241ZM384.055 2.7241V85H386.055V2.7241H384.055ZM385.055 84H363.334V86H385.055V84ZM364.334 85V54.0094H362.334V85H364.334ZM363.334 53.0094H334.648V55.0094H363.334V53.0094ZM333.648 54.0094V85H335.648V54.0094H333.648ZM435.682 85V86H436.682V85H435.682ZM413.962 85H412.962V86H413.962V85ZM413.962 21.6476H414.962V20.6476H413.962V21.6476ZM391.144 21.6476H390.144V22.6476H391.144V21.6476ZM391.144 2.7241V1.7241H390.144V2.7241H391.144ZM458.5 2.7241H459.5V1.7241H458.5V2.7241ZM458.5 21.6476V22.6476H459.5V21.6476H458.5ZM435.682 21.6476V20.6476H434.682V21.6476H435.682ZM435.682 84H413.962V86H435.682V84ZM414.962 85V21.6476H412.962V85H414.962ZM413.962 20.6476H391.144V22.6476H413.962V20.6476ZM392.144 21.6476V2.7241H390.144V21.6476H392.144ZM391.144 3.7241H458.5V1.7241H391.144V3.7241ZM457.5 2.7241V21.6476H459.5V2.7241H457.5ZM458.5 20.6476H435.682V22.6476H458.5V20.6476ZM434.682 21.6476V85H436.682V21.6476H434.682ZM460.694 75.5657L459.843 75.0413L459.373 75.8046L460.08 76.355L460.694 75.5657ZM470.896 59.0008L471.512 58.2126L470.631 57.5248L470.045 58.4764L470.896 59.0008ZM478.356 64.1019L477.86 64.9702L477.866 64.9735L478.356 64.1019ZM485.158 67.009L484.885 67.9711L484.894 67.9738L484.904 67.9763L485.158 67.009ZM497.773 67.1187L498.076 68.0716L498.086 68.0685L498.096 68.0652L497.773 67.1187ZM501.448 64.815L500.689 64.1642L500.687 64.1665L501.448 64.815ZM500.9 56.6971L501.607 55.99L500.9 56.6971ZM495.908 53.3512L495.474 54.252L495.48 54.2549L495.908 53.3512ZM489.162 50.3893L489.535 49.4618L489.535 49.4617L489.162 50.3893ZM481.099 46.8788L480.666 47.7804L480.676 47.785L481.099 46.8788ZM467.935 35.3054L467.05 35.7716L467.053 35.7766L467.935 35.3054ZM469.635 12.323L468.82 11.744L468.818 11.7456L469.635 12.323ZM480.221 3.98567L480.613 4.9056L480.617 4.90404L480.221 3.98567ZM522.566 7.88006L523.466 8.31592L523.897 7.42446L523.01 6.98425L522.566 7.88006ZM514.119 25.3226L513.597 26.1758L514.538 26.7508L515.019 25.7584L514.119 25.3226ZM505.452 21.483L505.15 22.4362L505.163 22.4402L505.452 21.483ZM492.178 20.7151L491.847 19.7716L491.839 19.7745L492.178 20.7151ZM489.107 22.7994L489.875 23.4396L489.881 23.4319L489.888 23.4241L489.107 22.7994ZM489.875 30.2043L489.168 30.9114L489.173 30.9166L489.178 30.9218L489.875 30.2043ZM501.503 36.6766L501.101 37.5922L501.108 37.5951L501.503 36.6766ZM509.566 40.4613L509.114 41.3534L509.119 41.3557L509.566 40.4613ZM517.19 45.3979L516.554 46.1691L516.56 46.174L517.19 45.3979ZM522.84 52.2542L521.958 52.7254L521.961 52.7305L522.84 52.2542ZM520.92 74.7978L520.108 74.2143L520.107 74.2158L520.92 74.7978ZM509.676 83.519L509.279 82.601L509.277 82.6021L509.676 83.519ZM461.546 76.0901L471.748 59.5252L470.045 58.4764L459.843 75.0413L461.546 76.0901ZM470.281 59.789C472.978 61.8952 475.505 63.6245 477.86 64.9702L478.852 63.2337C476.6 61.9465 474.153 60.2751 471.512 58.2126L470.281 59.789ZM477.866 64.9735C480.263 66.3219 482.603 67.3246 484.885 67.9711L485.43 66.0469C483.324 65.4501 481.13 64.5147 478.846 63.2303L477.866 64.9735ZM484.904 67.9763C487.217 68.5831 489.57 68.8866 491.959 68.8866V66.8866C489.741 66.8866 487.559 66.6051 485.411 66.0417L484.904 67.9763ZM491.959 68.8866C494.296 68.8866 496.342 68.6234 498.076 68.0716L497.47 66.1658C495.986 66.6379 494.156 66.8866 491.959 66.8866V68.8866ZM498.096 68.0652C499.824 67.4762 501.221 66.624 502.209 65.4634L500.687 64.1665C499.994 64.9805 498.941 65.6642 497.451 66.1722L498.096 68.0652ZM502.208 65.4658C503.246 64.2547 503.765 62.8152 503.765 61.1948H501.765C501.765 62.3536 501.406 63.3275 500.689 64.1642L502.208 65.4658ZM503.765 61.1948C503.765 59.1739 503.037 57.4204 501.607 55.99L500.193 57.4042C501.249 58.4603 501.765 59.7054 501.765 61.1948H503.765ZM501.607 55.99C500.262 54.6448 498.494 53.4694 496.336 52.4475L495.48 54.2549C497.491 55.2076 499.051 56.2628 500.193 57.4042L501.607 55.99ZM496.343 52.4504C494.272 51.4522 492.003 50.456 489.535 49.4618L488.788 51.3168C491.221 52.2971 493.449 53.2756 495.474 54.252L496.343 52.4504ZM489.535 49.4617C486.92 48.4084 484.249 47.2454 481.522 45.9727L480.676 47.785C483.433 49.0719 486.138 50.2493 488.788 51.3169L489.535 49.4617ZM481.531 45.9773C478.857 44.6937 476.4 43.1443 474.158 41.3296L472.9 42.8841C475.266 44.7992 477.855 46.4312 480.666 47.7804L481.531 45.9773ZM474.158 41.3296C471.961 39.5506 470.181 37.3882 468.817 34.8341L467.053 35.7766C468.54 38.5613 470.49 40.9333 472.9 42.8841L474.158 41.3296ZM468.819 34.8391C467.486 32.3102 466.795 29.1883 466.795 25.4323H464.795C464.795 29.4284 465.53 32.8886 467.05 35.7716L468.819 34.8391ZM466.795 25.4323C466.795 20.4866 468.029 16.3265 470.451 12.9003L468.818 11.7456C466.122 15.5597 464.795 20.1391 464.795 25.4323H466.795ZM470.45 12.9019C472.931 9.40797 476.308 6.74079 480.613 4.90559L479.829 3.06575C475.212 5.03352 471.531 7.92454 468.82 11.744L470.45 12.9019ZM480.617 4.90404C484.971 3.02764 489.917 2.07859 495.47 2.07859V0.0785867C489.687 0.0785867 484.466 1.06758 479.825 3.0673L480.617 4.90404ZM495.47 2.07859C499.513 2.07859 503.805 2.61539 508.347 3.69691L508.81 1.7513C504.138 0.638791 499.69 0.0785867 495.47 0.0785867V2.07859ZM508.347 3.69691C512.873 4.77457 517.464 6.46552 522.121 8.77587L523.01 6.98425C518.233 4.61401 513.499 2.86766 508.81 1.7513L508.347 3.69691ZM521.666 7.4442L513.219 24.8867L515.019 25.7584L523.466 8.31592L521.666 7.4442ZM514.64 24.4693C511.93 22.8132 508.963 21.4996 505.742 20.5258L505.163 22.4402C508.232 23.3679 511.042 24.614 513.597 26.1758L514.64 24.4693ZM505.755 20.5299C502.573 19.5191 499.617 19.002 496.896 19.002V21.002C499.367 21.002 502.115 21.4723 505.15 22.4361L505.755 20.5299ZM496.896 19.002C495.018 19.002 493.329 19.2508 491.847 19.7716L492.51 21.6586C493.734 21.2286 495.19 21.002 496.896 21.002V19.002ZM491.839 19.7745C490.383 20.3002 489.193 21.0907 488.326 22.1747L489.888 23.4241C490.483 22.6798 491.341 22.0808 492.518 21.6557L491.839 19.7745ZM488.339 22.1592C487.449 23.2272 487.01 24.4995 487.01 25.9259H489.01C489.01 24.9389 489.302 24.1269 489.875 23.4396L488.339 22.1592ZM487.01 25.9259C487.01 27.826 487.756 29.4997 489.168 30.9114L490.582 29.4971C489.507 28.4222 489.01 27.2437 489.01 25.9259H487.01ZM489.178 30.9218C490.514 32.2186 492.252 33.3887 494.364 34.4446L495.259 32.6557C493.275 31.6639 491.722 30.6033 490.571 29.4867L489.178 30.9218ZM494.364 34.4446C496.429 35.4769 498.674 36.526 501.101 37.5921L501.905 35.7611C499.505 34.7063 497.289 33.6712 495.259 32.6557L494.364 34.4446ZM501.108 37.5951C503.72 38.7199 506.389 39.9725 509.114 41.3534L510.018 39.5693C507.258 38.171 504.552 36.9005 501.899 35.7581L501.108 37.5951ZM509.119 41.3557C511.833 42.7129 514.311 44.3176 516.554 46.1691L517.827 44.6266C515.463 42.6752 512.857 40.9889 510.013 39.5669L509.119 41.3557ZM516.56 46.174C518.796 47.9913 520.594 50.1729 521.958 52.7254L523.722 51.783C522.233 48.9967 520.265 46.6075 517.821 44.6218L516.56 46.174ZM521.961 52.7305C523.291 55.1867 523.979 58.1781 523.979 61.7433H525.979C525.979 57.9221 525.241 54.5873 523.719 51.7779L521.961 52.7305ZM523.979 61.7433C523.979 66.4848 522.684 70.6292 520.108 74.2143L521.732 75.3813C524.569 71.4336 525.979 66.875 525.979 61.7433H523.979ZM520.107 74.2158C517.558 77.7772 513.964 80.578 509.279 82.601L510.072 84.4371C515.041 82.2915 518.943 79.278 521.733 75.3798L520.107 74.2158ZM509.277 82.6021C504.637 84.6211 499.201 85.6455 492.946 85.6455V87.6455C499.417 87.6455 505.134 86.5857 510.075 84.436L509.277 82.6021ZM492.946 85.6455C487.132 85.6455 481.538 84.7127 476.161 82.8485L475.505 84.7381C481.098 86.6769 486.913 87.6455 492.946 87.6455V85.6455ZM476.161 82.8485C470.779 80.983 465.83 78.2932 461.308 74.7763L460.08 76.355C464.774 80.0054 469.917 82.8006 475.505 84.7381L476.161 82.8485Z" fill="#828282" fill-opacity="0.56" mask="url(#path-1-outside-1_1432_1470)"/>
</svg>
