<svg width="628" height="106" viewBox="0 0 628 106" fill="none" xmlns="http://www.w3.org/2000/svg">
<mask id="path-1-outside-1_1715_2232" maskUnits="userSpaceOnUse" x="0" y="0" width="628" height="106" fill="black">
<rect fill="white" width="628" height="106"/>
<path d="M2.33479 102V3.98573H28.2106V102H2.33479ZM132.89 102H102.44L67.1549 43.8449V102H41.2791V3.98573H71.7289L107.014 62.3369V3.98573H132.89V102ZM141.384 90.761L153.538 71.0275C156.718 73.5105 159.68 75.5361 162.425 77.1044C165.213 78.6726 167.914 79.827 170.527 80.5675C173.185 81.2645 175.885 81.613 178.63 81.613C181.331 81.613 183.639 81.3081 185.556 80.6982C187.473 80.0448 188.932 79.13 189.934 77.9538C190.98 76.7341 191.502 75.2966 191.502 73.6412C191.502 71.5502 190.762 69.7642 189.281 68.2831C187.8 66.802 185.817 65.4734 183.334 64.2972C180.895 63.121 178.216 61.9448 175.297 60.7687C172.161 59.5054 168.959 58.1114 165.692 56.5867C162.425 55.0185 159.419 53.1236 156.675 50.9019C153.93 48.6802 151.709 45.9794 150.01 42.7994C148.311 39.5758 147.461 35.6552 147.461 31.0377C147.461 24.939 148.986 19.7334 152.035 15.4207C155.128 11.0645 159.332 7.75384 164.646 5.48862C170.005 3.17984 176.06 2.02545 182.812 2.02545C187.734 2.02545 192.94 2.67888 198.429 3.98573C203.917 5.29259 209.472 7.34 215.091 10.128L205.028 30.907C201.892 28.9903 198.45 27.4656 194.704 26.333C191.001 25.1568 187.604 24.5687 184.511 24.5687C182.376 24.5687 180.503 24.8519 178.891 25.4182C177.323 25.9845 176.103 26.8122 175.232 27.9012C174.361 28.9467 173.925 30.1882 173.925 31.6258C173.925 33.5425 174.666 35.2414 176.147 36.7225C177.628 38.16 179.588 39.4887 182.028 40.7084C184.467 41.9281 187.124 43.1697 189.999 44.433C193.136 45.7834 196.338 47.2863 199.605 48.9416C202.916 50.597 205.943 52.5572 208.687 54.8225C211.475 57.0877 213.719 59.8103 215.418 62.9903C217.117 66.1268 217.966 69.8949 217.966 74.2946C217.966 80.1755 216.354 85.3594 213.131 89.8462C209.951 94.2895 205.486 97.7527 199.736 100.236C194.029 102.719 187.386 103.96 179.806 103.96C172.749 103.96 165.953 102.828 159.419 100.562C152.885 98.2972 146.873 95.0301 141.384 90.761ZM227.768 102V3.98573H253.643V102H227.768ZM335.257 32.2792C332.904 29.8397 330.029 27.9448 326.631 26.5944C323.233 25.2439 319.574 24.5687 315.654 24.5687C311.864 24.5687 308.422 25.2222 305.33 26.529C302.28 27.7923 299.645 29.6437 297.423 32.0832C295.245 34.5226 293.546 37.4413 292.326 40.8391C291.15 44.2369 290.562 48.0704 290.562 52.3394C290.562 56.6956 291.194 60.6598 292.457 64.2318C293.72 67.8039 295.528 70.875 297.88 73.4452C300.233 75.9718 303.021 77.9321 306.244 79.326C309.511 80.72 313.127 81.417 317.091 81.417C320.053 81.417 322.754 81.0249 325.194 80.2408C327.633 79.4567 329.79 78.3023 331.663 76.7777C333.536 75.253 335.126 73.3798 336.433 71.1582C337.74 68.893 338.742 66.3228 339.439 63.4477H315.98V43.8449H362.178L362.897 53.7116C362.897 61.1607 361.764 67.9782 359.499 74.1639C357.277 80.3062 354.097 85.5989 349.959 90.0423C345.82 94.4856 340.876 97.927 335.126 100.366C329.419 102.762 323.059 103.96 316.046 103.96C308.727 103.96 301.91 102.675 295.593 100.105C289.321 97.4913 283.81 93.8757 279.062 89.2581C274.357 84.597 270.676 79.1518 268.019 72.9224C265.405 66.6931 264.098 59.9628 264.098 52.7315C264.098 45.5873 265.383 38.9442 267.953 32.8019C270.524 26.6597 274.117 21.2798 278.735 16.6622C283.353 12.0447 288.732 8.45083 294.875 5.88068C301.06 3.31053 307.747 2.02545 314.935 2.02545C321.687 2.02545 328.265 3.20162 334.668 5.55396C341.072 7.90631 346.822 11.2606 351.919 15.6168L335.257 32.2792ZM399.227 102H373.351V3.98573H399.227V42.538H433.402V3.98573H459.277V102H433.402V65.0813H399.227V102ZM519.589 102H493.713V26.529H466.53V3.98573H546.771V26.529H519.589V102ZM549.385 90.761L561.539 71.0275C564.719 73.5105 567.681 75.5361 570.425 77.1044C573.213 78.6726 575.914 79.827 578.528 80.5675C581.185 81.2645 583.886 81.613 586.631 81.613C589.331 81.613 591.64 81.3081 593.557 80.6982C595.474 80.0448 596.933 79.13 597.935 77.9538C598.98 76.7341 599.503 75.2966 599.503 73.6412C599.503 71.5502 598.762 69.7642 597.281 68.2831C595.8 66.802 593.818 65.4734 591.335 64.2972C588.896 63.121 586.217 61.9448 583.298 60.7687C580.162 59.5054 576.96 58.1114 573.693 56.5867C570.425 55.0185 567.42 53.1236 564.675 50.9019C561.931 48.6802 559.709 45.9794 558.01 42.7994C556.311 39.5758 555.462 35.6552 555.462 31.0377C555.462 24.939 556.987 19.7334 560.036 15.4207C563.129 11.0645 567.333 7.75384 572.647 5.48862C578.005 3.17984 584.06 2.02545 590.812 2.02545C595.735 2.02545 600.941 2.67888 606.429 3.98573C611.918 5.29259 617.472 7.34 623.092 10.128L613.029 30.907C609.893 28.9903 606.451 27.4656 602.705 26.333C599.002 25.1568 595.604 24.5687 592.511 24.5687C590.377 24.5687 588.504 24.8519 586.892 25.4182C585.324 25.9845 584.104 26.8122 583.233 27.9012C582.361 28.9467 581.926 30.1882 581.926 31.6258C581.926 33.5425 582.666 35.2414 584.147 36.7225C585.629 38.16 587.589 39.4887 590.028 40.7084C592.468 41.9281 595.125 43.1697 598 44.433C601.137 45.7834 604.338 47.2863 607.606 48.9416C610.916 50.597 613.944 52.5572 616.688 54.8225C619.476 57.0877 621.72 59.8103 623.419 62.9903C625.117 66.1268 625.967 69.8949 625.967 74.2946C625.967 80.1755 624.355 85.3594 621.132 89.8462C617.952 94.2895 613.486 97.7527 607.736 100.236C602.03 102.719 595.386 103.96 587.807 103.96C580.75 103.96 573.954 102.828 567.42 100.562C560.885 98.2972 554.874 95.0301 549.385 90.761Z"/>
</mask>
<path d="M2.33479 102H0.334791V104H2.33479V102ZM2.33479 3.98573V1.98573H0.334791V3.98573H2.33479ZM28.2106 3.98573H30.2106V1.98573H28.2106V3.98573ZM28.2106 102V104H30.2106V102H28.2106ZM4.33479 102V3.98573H0.334791V102H4.33479ZM2.33479 5.98573H28.2106V1.98573H2.33479V5.98573ZM26.2106 3.98573V102H30.2106V3.98573H26.2106ZM28.2106 100H2.33479V104H28.2106V100ZM132.89 102V104H134.89V102H132.89ZM102.44 102L100.73 103.037L101.314 104H102.44V102ZM67.1549 43.8449L68.8648 42.8074L65.1549 36.693V43.8449H67.1549ZM67.1549 102V104H69.1549V102H67.1549ZM41.2791 102H39.2791V104H41.2791V102ZM41.2791 3.98573V1.98573H39.2791V3.98573H41.2791ZM71.7289 3.98573L73.4403 2.95083L72.8567 1.98573H71.7289V3.98573ZM107.014 62.3369L105.303 63.3718L109.014 69.5094V62.3369H107.014ZM107.014 3.98573V1.98573H105.014V3.98573H107.014ZM132.89 3.98573H134.89V1.98573H132.89V3.98573ZM132.89 100H102.44V104H132.89V100ZM104.15 100.963L68.8648 42.8074L65.445 44.8823L100.73 103.037L104.15 100.963ZM65.1549 43.8449V102H69.1549V43.8449H65.1549ZM67.1549 100H41.2791V104H67.1549V100ZM43.2791 102V3.98573H39.2791V102H43.2791ZM41.2791 5.98573H71.7289V1.98573H41.2791V5.98573ZM70.0175 5.02064L105.303 63.3718L108.725 61.302L73.4403 2.95083L70.0175 5.02064ZM109.014 62.3369V3.98573H105.014V62.3369H109.014ZM107.014 5.98573H132.89V1.98573H107.014V5.98573ZM130.89 3.98573V102H134.89V3.98573H130.89ZM141.384 90.761L139.681 89.7122L138.741 91.2389L140.156 92.3397L141.384 90.761ZM153.538 71.0275L154.769 69.4511L153.007 68.0756L151.835 69.9787L153.538 71.0275ZM162.425 77.1044L161.432 78.8409L161.444 78.8475L162.425 77.1044ZM170.527 80.5675L169.982 82.4918L170.001 82.4971L170.02 82.5021L170.527 80.5675ZM185.556 80.6982L186.163 82.6041L186.182 82.5979L186.201 82.5913L185.556 80.6982ZM189.934 77.9538L188.416 76.6522L188.412 76.6569L189.934 77.9538ZM189.281 68.2831L190.695 66.8689L189.281 68.2831ZM183.334 64.2972L182.466 66.0988L182.478 66.1047L183.334 64.2972ZM175.297 60.7687L176.045 58.9136L176.045 58.9135L175.297 60.7687ZM165.692 56.5867L164.826 58.3898L164.836 58.3945L164.846 58.3991L165.692 56.5867ZM150.01 42.7994L148.24 43.7319L148.246 43.7418L150.01 42.7994ZM152.035 15.4207L150.404 14.2629L150.402 14.2661L152.035 15.4207ZM164.646 5.48862L165.431 7.32848L165.438 7.32536L164.646 5.48862ZM215.091 10.128L216.891 10.9997L217.755 9.21676L215.98 8.33634L215.091 10.128ZM205.028 30.907L203.985 32.6135L205.867 33.7635L206.828 31.7787L205.028 30.907ZM194.704 26.333L194.099 28.2391L194.112 28.2434L194.125 28.2474L194.704 26.333ZM178.891 25.4182L178.228 23.5313L178.22 23.5341L178.212 23.5371L178.891 25.4182ZM175.232 27.9012L176.768 29.1816L176.781 29.1662L176.794 29.1506L175.232 27.9012ZM176.147 36.7225L174.733 38.1367L174.743 38.1473L174.754 38.1577L176.147 36.7225ZM189.999 44.433L189.195 46.264L189.202 46.267L189.209 46.2699L189.999 44.433ZM199.605 48.9416L198.701 50.7257L198.71 50.7305L199.605 48.9416ZM208.687 54.8225L207.414 56.3649L207.42 56.3698L207.426 56.3747L208.687 54.8225ZM215.418 62.9903L213.654 63.9328L213.659 63.9429L215.418 62.9903ZM213.131 89.8462L211.507 88.6793L211.504 88.6822L213.131 89.8462ZM199.736 100.236L198.943 98.3996L198.938 98.4018L199.736 100.236ZM143.087 91.8099L155.241 72.0763L151.835 69.9787L139.681 89.7122L143.087 91.8099ZM152.307 72.6039C155.543 75.1307 158.586 77.2142 161.432 78.8409L163.417 75.3679C160.775 73.8581 157.893 71.8904 154.769 69.4511L152.307 72.6039ZM161.444 78.8475C164.346 80.4798 167.193 81.7015 169.982 82.4918L171.072 78.6433C168.634 77.9525 166.079 76.8654 163.405 75.3612L161.444 78.8475ZM170.02 82.5021C172.843 83.2425 175.714 83.613 178.63 83.613V79.613C176.057 79.613 173.526 79.2866 171.035 78.633L170.02 82.5021ZM178.63 83.613C181.471 83.613 183.996 83.2936 186.163 82.6041L184.95 78.7924C183.283 79.3226 181.191 79.613 178.63 79.613V83.613ZM186.201 82.5913C188.356 81.8569 190.159 80.7735 191.457 79.2508L188.412 76.6569C187.705 77.4865 186.59 78.2327 184.911 78.8052L186.201 82.5913ZM191.453 79.2554C192.819 77.6613 193.502 75.7581 193.502 73.6412H189.502C189.502 74.835 189.14 75.8069 188.416 76.6523L191.453 79.2554ZM193.502 73.6412C193.502 71.0188 192.55 68.7243 190.695 66.8689L187.866 69.6973C188.973 70.8041 189.502 72.0817 189.502 73.6412H193.502ZM190.695 66.8689C189.01 65.184 186.82 63.7351 184.191 62.4897L182.478 66.1047C184.815 67.2116 186.589 68.42 187.866 69.6973L190.695 66.8689ZM184.203 62.4956C181.718 61.2975 178.998 60.1037 176.045 58.9136L174.55 62.6237C177.434 63.7859 180.072 64.9445 182.466 66.0987L184.203 62.4956ZM176.045 58.9135C172.943 57.6644 169.774 56.2849 166.538 54.7744L164.846 58.3991C168.144 59.9379 171.378 61.3463 174.55 62.6238L176.045 58.9135ZM166.557 54.7837C163.427 53.281 160.553 51.4687 157.933 49.3474L155.416 52.4564C158.285 54.7784 161.423 56.756 164.826 58.3898L166.557 54.7837ZM157.933 49.3474C155.401 47.2975 153.349 44.8063 151.774 41.857L148.246 43.7418C150.068 47.1525 152.46 50.063 155.416 52.4564L157.933 49.3474ZM151.779 41.8669C150.267 38.9975 149.461 35.4151 149.461 31.0377H145.461C145.461 35.8954 146.355 40.1542 148.24 43.7319L151.779 41.8669ZM149.461 31.0377C149.461 25.2865 150.893 20.5001 153.668 16.5754L150.402 14.2661C147.079 18.9666 145.461 24.5915 145.461 31.0377H149.461ZM153.666 16.5786C156.528 12.548 160.427 9.4611 165.431 7.32847L163.862 3.64877C158.237 6.04657 153.729 9.58111 150.404 14.2629L153.666 16.5786ZM165.438 7.32536C170.51 5.1399 176.289 4.02545 182.812 4.02545V0.0254494C175.83 0.0254494 169.499 1.21978 163.855 3.65188L165.438 7.32536ZM182.812 4.02545C187.557 4.02545 192.607 4.65548 197.965 5.93135L198.892 2.04012C193.273 0.702275 187.911 0.0254494 182.812 0.0254494V4.02545ZM197.965 5.93135C203.292 7.1995 208.703 9.19151 214.202 11.9196L215.98 8.33634C210.24 5.48849 204.543 3.38569 198.892 2.04012L197.965 5.93135ZM213.291 9.25625L203.228 30.0353L206.828 31.7787L216.891 10.9997L213.291 9.25625ZM206.071 29.2004C202.78 27.1894 199.182 25.5973 195.283 24.4186L194.125 28.2474C197.719 29.3339 201.003 30.7911 203.985 32.6135L206.071 29.2004ZM195.31 24.4268C191.459 23.2037 187.854 22.5687 184.511 22.5687V26.5687C187.353 26.5687 190.544 27.11 194.099 28.2391L195.31 24.4268ZM184.511 22.5687C182.204 22.5687 180.099 22.8741 178.228 23.5313L179.554 27.3051C180.907 26.8297 182.548 26.5687 184.511 26.5687V22.5687ZM178.212 23.5371C176.365 24.2039 174.813 25.223 173.67 26.6518L176.794 29.1506C177.393 28.4013 178.281 27.7651 179.57 27.2993L178.212 23.5371ZM173.696 26.6208C172.507 28.0471 171.925 29.7488 171.925 31.6258H175.925C175.925 30.6276 176.214 29.8463 176.768 29.1816L173.696 26.6208ZM171.925 31.6258C171.925 34.1247 172.915 36.3188 174.733 38.1367L177.561 35.3083C176.417 34.1639 175.925 32.9602 175.925 31.6258H171.925ZM174.754 38.1577C176.421 39.7754 178.566 41.2135 181.133 42.4973L182.922 38.9196C180.611 37.7639 178.835 36.5447 177.54 35.2873L174.754 38.1577ZM181.133 42.4973C183.606 43.7338 186.294 44.9893 189.195 46.264L190.804 42.6019C187.955 41.35 185.328 40.1225 182.922 38.9196L181.133 42.4973ZM189.209 46.2699C192.304 47.6028 195.468 49.0878 198.701 50.7257L200.509 47.1575C197.207 45.4847 193.968 43.964 190.79 42.596L189.209 46.2699ZM198.71 50.7305C201.891 52.321 204.791 54.1997 207.414 56.3649L209.961 53.28C207.095 50.9148 203.94 48.873 200.499 47.1528L198.71 50.7305ZM207.426 56.3747C210.007 58.4715 212.08 60.9865 213.654 63.9328L217.182 62.0479C215.358 58.6341 212.944 55.7039 209.949 53.2702L207.426 56.3747ZM213.659 63.9429C215.167 66.7261 215.966 70.1509 215.966 74.2946H219.966C219.966 69.6389 219.067 65.5274 217.176 62.0378L213.659 63.9429ZM215.966 74.2946C215.966 79.7854 214.47 84.555 211.507 88.6793L214.755 91.0132C218.239 86.1637 219.966 80.5656 219.966 74.2946H215.966ZM211.504 88.6822C208.565 92.7888 204.409 96.0392 198.943 98.3996L200.528 102.072C206.563 99.4662 211.336 95.7903 214.757 91.0102L211.504 88.6822ZM198.938 98.4018C193.531 100.754 187.17 101.96 179.806 101.96V105.96C187.602 105.96 194.527 104.683 200.533 102.07L198.938 98.4018ZM179.806 101.96C172.967 101.96 166.393 100.863 160.074 98.6728L158.764 102.452C165.513 104.792 172.531 105.96 179.806 105.96V101.96ZM160.074 98.6728C153.748 96.4796 147.929 93.3179 142.612 89.1823L140.156 92.3397C145.817 96.7423 152.022 100.115 158.764 102.452L160.074 98.6728ZM227.768 102H225.768V104H227.768V102ZM227.768 3.98573V1.98573H225.768V3.98573H227.768ZM253.643 3.98573H255.643V1.98573H253.643V3.98573ZM253.643 102V104H255.643V102H253.643ZM229.768 102V3.98573H225.768V102H229.768ZM227.768 5.98573H253.643V1.98573H227.768V5.98573ZM251.643 3.98573V102H255.643V3.98573H251.643ZM253.643 100H227.768V104H253.643V100ZM335.257 32.2792L333.817 33.6675L335.231 35.1336L336.671 33.6934L335.257 32.2792ZM305.33 26.529L306.095 28.3768L306.108 28.3713L305.33 26.529ZM297.423 32.0832L295.944 30.7365L295.938 30.7438L295.931 30.7511L297.423 32.0832ZM292.326 40.8391L290.444 40.1634L290.44 40.1741L290.436 40.1849L292.326 40.8391ZM292.457 64.2318L290.571 64.8987L292.457 64.2318ZM297.88 73.4452L296.405 74.7955L296.411 74.8018L296.417 74.808L297.88 73.4452ZM306.244 79.326L305.451 81.1618L305.459 81.1656L306.244 79.326ZM325.194 80.2408L325.806 82.1449L325.194 80.2408ZM336.433 71.1582L338.157 72.1722L338.161 72.1649L338.165 72.1576L336.433 71.1582ZM339.439 63.4477L341.382 63.9189L341.981 61.4477H339.439V63.4477ZM315.98 63.4477H313.98V65.4477H315.98V63.4477ZM315.98 43.8449V41.8449H313.98V43.8449H315.98ZM362.178 43.8449L364.173 43.6996L364.037 41.8449H362.178V43.8449ZM362.897 53.7116H364.897V53.6389L364.891 53.5663L362.897 53.7116ZM359.499 74.1639L357.621 73.4762L357.618 73.4837L359.499 74.1639ZM335.126 100.366L335.9 102.211L335.907 102.208L335.126 100.366ZM295.593 100.105L294.824 101.951L294.832 101.954L294.84 101.958L295.593 100.105ZM279.062 89.2581L277.654 90.6789L277.661 90.6855L277.667 90.692L279.062 89.2581ZM268.019 72.9224L266.175 73.6963L266.179 73.7072L268.019 72.9224ZM267.953 32.8019L266.108 32.0299L267.953 32.8019ZM278.735 16.6622L277.321 15.248L278.735 16.6622ZM294.875 5.88068L294.107 4.03375L294.103 4.03569L294.875 5.88068ZM351.919 15.6168L353.333 17.031L354.863 15.5016L353.218 14.0964L351.919 15.6168ZM336.696 30.8909C334.131 28.2308 331.011 26.1829 327.37 24.7358L325.893 28.453C329.047 29.7067 331.677 31.4486 333.817 33.6675L336.696 30.8909ZM327.37 24.7358C323.721 23.2853 319.809 22.5687 315.654 22.5687V26.5687C319.34 26.5687 322.746 27.2025 325.893 28.453L327.37 24.7358ZM315.654 22.5687C311.631 22.5687 307.92 23.2632 304.551 24.6867L306.108 28.3713C308.925 27.1811 312.097 26.5687 315.654 26.5687V22.5687ZM304.564 24.6813C301.243 26.0571 298.364 28.0795 295.944 30.7365L298.902 33.4298C300.925 31.2078 303.317 29.5275 306.095 28.3767L304.564 24.6813ZM295.931 30.7511C293.565 33.4012 291.741 36.5489 290.444 40.1634L294.209 41.5148C295.351 38.3337 296.925 35.644 298.915 33.4152L295.931 30.7511ZM290.436 40.1849C289.175 43.8284 288.562 47.8883 288.562 52.3394H292.562C292.562 48.2524 293.125 44.6455 294.216 41.4933L290.436 40.1849ZM288.562 52.3394C288.562 56.8893 289.222 61.083 290.571 64.8987L294.343 63.565C293.165 60.2365 292.562 56.5019 292.562 52.3394H288.562ZM290.571 64.8987C291.916 68.7015 293.856 72.0106 296.405 74.7955L299.356 72.0949C297.2 69.7394 295.524 66.9063 294.343 63.565L290.571 64.8987ZM296.417 74.808C298.961 77.5404 301.978 79.6601 305.451 81.1617L307.038 77.4903C304.064 76.204 301.505 74.4031 299.344 72.0823L296.417 74.808ZM305.459 81.1656C309.002 82.6771 312.889 83.417 317.091 83.417V79.417C313.366 79.417 310.021 78.7629 307.029 77.4865L305.459 81.1656ZM317.091 83.417C320.229 83.417 323.14 83.0016 325.806 82.1449L324.582 78.3368C322.368 79.0483 319.877 79.417 317.091 79.417V83.417ZM325.806 82.1449C328.468 81.2893 330.848 80.0199 332.925 78.3288L330.4 75.2265C328.732 76.5847 326.799 77.6241 324.582 78.3368L325.806 82.1449ZM332.925 78.3288C334.995 76.6441 336.737 74.585 338.157 72.1722L334.709 70.1441C333.514 72.1746 332.077 73.8619 330.4 75.2265L332.925 78.3288ZM338.165 72.1576C339.579 69.7073 340.646 66.9554 341.382 63.9189L337.495 62.9765C336.837 65.6902 335.9 68.0786 334.7 70.1587L338.165 72.1576ZM339.439 61.4477H315.98V65.4477H339.439V61.4477ZM317.98 63.4477V43.8449H313.98V63.4477H317.98ZM315.98 45.8449H362.178V41.8449H315.98V45.8449ZM360.183 43.9902L360.902 53.8569L364.891 53.5663L364.173 43.6996L360.183 43.9902ZM360.897 53.7116C360.897 60.9565 359.795 67.5376 357.621 73.4762L361.377 74.8517C363.733 68.4187 364.897 61.365 364.897 53.7116H360.897ZM357.618 73.4837C355.481 79.3919 352.436 84.4476 348.495 88.6792L351.422 91.4054C355.758 86.7503 359.073 81.2204 361.38 74.8442L357.618 73.4837ZM348.495 88.6792C344.554 92.911 339.844 96.1922 334.345 98.5253L335.907 102.208C341.908 99.6617 347.087 96.0601 351.422 91.4054L348.495 88.6792ZM334.352 98.5224C328.921 100.803 322.829 101.96 316.046 101.96V105.96C323.29 105.96 329.918 104.722 335.9 102.21L334.352 98.5224ZM316.046 101.96C308.967 101.96 302.407 100.718 296.347 98.2525L294.84 101.958C301.413 104.632 308.488 105.96 316.046 105.96V101.96ZM296.363 98.2589C290.316 95.7395 285.019 92.2617 280.456 87.8243L277.667 90.692C282.601 95.4897 288.325 99.2432 294.824 101.951L296.363 98.2589ZM280.469 87.8374C275.953 83.3625 272.417 78.1346 269.858 72.1377L266.179 73.7072C268.936 80.169 272.761 85.8316 277.654 90.6789L280.469 87.8374ZM269.863 72.1486C267.359 66.1812 266.098 59.716 266.098 52.7315H262.098C262.098 60.2095 263.451 67.205 266.175 73.6962L269.863 72.1486ZM266.098 52.7315C266.098 45.8329 267.338 39.4542 269.798 33.5739L266.108 32.0299C263.429 38.4341 262.098 45.3418 262.098 52.7315H266.098ZM269.798 33.5739C272.27 27.6669 275.719 22.5064 280.149 18.0765L277.321 15.248C272.516 20.0533 268.777 25.6525 266.108 32.0299L269.798 33.5739ZM280.149 18.0765C284.579 13.6466 289.74 10.1974 295.647 7.72567L294.103 4.03569C287.725 6.70427 282.126 10.4428 277.321 15.248L280.149 18.0765ZM295.642 7.7276C301.567 5.26571 307.991 4.02545 314.935 4.02545V0.0254494C307.503 0.0254494 300.554 1.35534 294.107 4.03375L295.642 7.7276ZM314.935 4.02545C321.449 4.02545 327.794 5.15924 333.979 7.4313L335.358 3.67662C328.736 1.244 321.925 0.0254494 314.935 0.0254494V4.02545ZM333.979 7.4313C340.164 9.70324 345.706 12.9379 350.62 17.1371L353.218 14.0964C347.938 9.58325 341.981 6.10937 335.358 3.67662L333.979 7.4313ZM350.505 14.2025L333.842 30.865L336.671 33.6934L353.333 17.031L350.505 14.2025ZM399.227 102V104H401.227V102H399.227ZM373.351 102H371.351V104H373.351V102ZM373.351 3.98573V1.98573H371.351V3.98573H373.351ZM399.227 3.98573H401.227V1.98573H399.227V3.98573ZM399.227 42.538H397.227V44.538H399.227V42.538ZM433.402 42.538V44.538H435.402V42.538H433.402ZM433.402 3.98573V1.98573H431.402V3.98573H433.402ZM459.277 3.98573H461.277V1.98573H459.277V3.98573ZM459.277 102V104H461.277V102H459.277ZM433.402 102H431.402V104H433.402V102ZM433.402 65.0813H435.402V63.0813H433.402V65.0813ZM399.227 65.0813V63.0813H397.227V65.0813H399.227ZM399.227 100H373.351V104H399.227V100ZM375.351 102V3.98573H371.351V102H375.351ZM373.351 5.98573H399.227V1.98573H373.351V5.98573ZM397.227 3.98573V42.538H401.227V3.98573H397.227ZM399.227 44.538H433.402V40.538H399.227V44.538ZM435.402 42.538V3.98573H431.402V42.538H435.402ZM433.402 5.98573H459.277V1.98573H433.402V5.98573ZM457.277 3.98573V102H461.277V3.98573H457.277ZM459.277 100H433.402V104H459.277V100ZM435.402 102V65.0813H431.402V102H435.402ZM433.402 63.0813H399.227V67.0813H433.402V63.0813ZM397.227 65.0813V102H401.227V65.0813H397.227ZM519.589 102V104H521.589V102H519.589ZM493.713 102H491.713V104H493.713V102ZM493.713 26.529H495.713V24.529H493.713V26.529ZM466.53 26.529H464.53V28.529H466.53V26.529ZM466.53 3.98573V1.98573H464.53V3.98573H466.53ZM546.771 3.98573H548.771V1.98573H546.771V3.98573ZM546.771 26.529V28.529H548.771V26.529H546.771ZM519.589 26.529V24.529H517.589V26.529H519.589ZM519.589 100H493.713V104H519.589V100ZM495.713 102V26.529H491.713V102H495.713ZM493.713 24.529H466.53V28.529H493.713V24.529ZM468.53 26.529V3.98573H464.53V26.529H468.53ZM466.53 5.98573H546.771V1.98573H466.53V5.98573ZM544.771 3.98573V26.529H548.771V3.98573H544.771ZM546.771 24.529H519.589V28.529H546.771V24.529ZM517.589 26.529V102H521.589V26.529H517.589ZM549.385 90.761L547.682 89.7122L546.742 91.2389L548.157 92.3397L549.385 90.761ZM561.539 71.0275L562.77 69.4511L561.008 68.0756L559.836 69.9787L561.539 71.0275ZM570.425 77.1044L569.433 78.8409L569.445 78.8475L570.425 77.1044ZM578.528 80.5675L577.983 82.4918L578.002 82.4971L578.021 82.5021L578.528 80.5675ZM593.557 80.6982L594.163 82.6041L594.183 82.5979L594.202 82.5913L593.557 80.6982ZM597.935 77.9538L596.416 76.6522L596.412 76.6569L597.935 77.9538ZM597.281 68.2831L598.696 66.8689L597.281 68.2831ZM591.335 64.2972L590.467 66.0988L590.479 66.1047L591.335 64.2972ZM583.298 60.7687L584.046 58.9136L584.045 58.9135L583.298 60.7687ZM573.693 56.5867L572.827 58.3898L572.837 58.3945L572.847 58.3991L573.693 56.5867ZM558.01 42.7994L556.241 43.7319L556.246 43.7418L558.01 42.7994ZM560.036 15.4207L558.405 14.2629L558.403 14.2661L560.036 15.4207ZM572.647 5.48862L573.431 7.32848L573.439 7.32536L572.647 5.48862ZM623.092 10.128L624.892 10.9997L625.755 9.21676L623.981 8.33634L623.092 10.128ZM613.029 30.907L611.986 32.6135L613.868 33.7635L614.829 31.7787L613.029 30.907ZM602.705 26.333L602.099 28.2391L602.113 28.2434L602.126 28.2474L602.705 26.333ZM586.892 25.4182L586.229 23.5313L586.221 23.5341L586.213 23.5371L586.892 25.4182ZM583.233 27.9012L584.769 29.1816L584.782 29.1662L584.794 29.1506L583.233 27.9012ZM584.147 36.7225L582.733 38.1367L582.744 38.1473L582.755 38.1577L584.147 36.7225ZM598 44.433L597.196 46.264L597.202 46.267L597.209 46.2699L598 44.433ZM607.606 48.9416L606.702 50.7257L606.711 50.7305L607.606 48.9416ZM616.688 54.8225L615.415 56.3649L615.421 56.3698L615.427 56.3747L616.688 54.8225ZM623.419 62.9903L621.654 63.9328L621.66 63.9429L623.419 62.9903ZM621.132 89.8462L619.507 88.6793L619.505 88.6822L621.132 89.8462ZM607.736 100.236L606.943 98.3996L606.938 98.4018L607.736 100.236ZM551.088 91.8099L563.242 72.0763L559.836 69.9787L547.682 89.7122L551.088 91.8099ZM560.308 72.6039C563.544 75.1307 566.586 77.2142 569.433 78.8409L571.418 75.3679C568.776 73.8581 565.894 71.8904 562.77 69.4511L560.308 72.6039ZM569.445 78.8475C572.347 80.4798 575.193 81.7015 577.983 82.4918L579.073 78.6433C576.635 77.9525 574.08 76.8654 571.406 75.3612L569.445 78.8475ZM578.021 82.5021C580.843 83.2425 583.715 83.613 586.631 83.613V79.613C584.058 79.613 581.527 79.2866 579.035 78.633L578.021 82.5021ZM586.631 83.613C589.471 83.613 591.996 83.2936 594.163 82.6041L592.95 78.7924C591.284 79.3226 589.191 79.613 586.631 79.613V83.613ZM594.202 82.5913C596.356 81.8569 598.16 80.7735 599.457 79.2508L596.412 76.6569C595.706 77.4865 594.591 78.2327 592.912 78.8052L594.202 82.5913ZM599.453 79.2554C600.82 77.6613 601.503 75.7581 601.503 73.6412H597.503C597.503 74.835 597.141 75.8069 596.416 76.6523L599.453 79.2554ZM601.503 73.6412C601.503 71.0188 600.551 68.7243 598.696 66.8689L595.867 69.6973C596.974 70.8041 597.503 72.0817 597.503 73.6412H601.503ZM598.696 66.8689C597.011 65.184 594.821 63.7351 592.191 62.4897L590.479 66.1047C592.816 67.2116 594.59 68.42 595.867 69.6973L598.696 66.8689ZM592.204 62.4956C589.719 61.2975 586.999 60.1037 584.046 58.9136L582.55 62.6237C585.435 63.7859 588.073 64.9445 590.467 66.0987L592.204 62.4956ZM584.045 58.9135C580.944 57.6644 577.775 56.2849 574.538 54.7744L572.847 58.3991C576.144 59.9379 579.379 61.3463 582.551 62.6238L584.045 58.9135ZM574.558 54.7837C571.427 53.281 568.554 51.4687 565.934 49.3474L563.417 52.4564C566.285 54.7784 569.424 56.756 572.827 58.3898L574.558 54.7837ZM565.934 49.3474C563.402 47.2975 561.35 44.8063 559.774 41.857L556.246 43.7418C558.068 47.1525 560.46 50.063 563.417 52.4564L565.934 49.3474ZM559.78 41.8669C558.267 38.9975 557.462 35.4151 557.462 31.0377H553.462C553.462 35.8954 554.355 40.1542 556.241 43.7319L559.78 41.8669ZM557.462 31.0377C557.462 25.2865 558.894 20.5001 561.669 16.5754L558.403 14.2661C555.079 18.9666 553.462 24.5915 553.462 31.0377H557.462ZM561.667 16.5786C564.528 12.548 568.428 9.4611 573.431 7.32847L571.863 3.64877C566.237 6.04657 561.729 9.58111 558.405 14.2629L561.667 16.5786ZM573.439 7.32536C578.511 5.1399 584.29 4.02545 590.812 4.02545V0.0254494C583.831 0.0254494 577.5 1.21978 571.856 3.65188L573.439 7.32536ZM590.812 4.02545C595.558 4.02545 600.608 4.65548 605.966 5.93135L606.893 2.04012C601.274 0.702275 595.912 0.0254494 590.812 0.0254494V4.02545ZM605.966 5.93135C611.292 7.1995 616.704 9.19151 622.203 11.9196L623.981 8.33634C618.24 5.48849 612.544 3.38569 606.893 2.04012L605.966 5.93135ZM621.292 9.25625L611.229 30.0353L614.829 31.7787L624.892 10.9997L621.292 9.25625ZM614.072 29.2004C610.781 27.1894 607.182 25.5973 603.284 24.4186L602.126 28.2474C605.72 29.3339 609.004 30.7911 611.986 32.6135L614.072 29.2004ZM603.31 24.4268C599.46 23.2037 595.854 22.5687 592.511 22.5687V26.5687C595.354 26.5687 598.545 27.11 602.099 28.2391L603.31 24.4268ZM592.511 22.5687C590.205 22.5687 588.099 22.8741 586.229 23.5313L587.555 27.3051C588.908 26.8297 590.549 26.5687 592.511 26.5687V22.5687ZM586.213 23.5371C584.366 24.2039 582.814 25.223 581.671 26.6518L584.794 29.1506C585.394 28.4013 586.281 27.7651 587.571 27.2993L586.213 23.5371ZM581.696 26.6208C580.508 28.0471 579.926 29.7488 579.926 31.6258H583.926C583.926 30.6276 584.215 29.8463 584.769 29.1816L581.696 26.6208ZM579.926 31.6258C579.926 34.1247 580.915 36.3188 582.733 38.1367L585.562 35.3083C584.417 34.1639 583.926 32.9602 583.926 31.6258H579.926ZM582.755 38.1577C584.421 39.7754 586.566 41.2135 589.134 42.4973L590.923 38.9196C588.611 37.7639 586.836 36.5447 585.54 35.2873L582.755 38.1577ZM589.134 42.4973C591.607 43.7338 594.295 44.9893 597.196 46.264L598.805 42.6019C595.956 41.35 593.329 40.1225 590.923 38.9196L589.134 42.4973ZM597.209 46.2699C600.305 47.6028 603.469 49.0878 606.702 50.7257L608.509 47.1575C605.208 45.4847 601.968 43.964 598.791 42.596L597.209 46.2699ZM606.711 50.7305C609.892 52.321 612.792 54.1997 615.415 56.3649L617.961 53.28C615.096 50.9148 611.94 48.873 608.5 47.1528L606.711 50.7305ZM615.427 56.3747C618.008 58.4715 620.08 60.9865 621.654 63.9328L625.183 62.0479C623.359 58.6341 620.945 55.7039 617.949 53.2702L615.427 56.3747ZM621.66 63.9429C623.168 66.7261 623.967 70.1509 623.967 74.2946H627.967C627.967 69.6389 627.067 65.5274 625.177 62.0378L621.66 63.9429ZM623.967 74.2946C623.967 79.7854 622.47 84.555 619.507 88.6793L622.756 91.0132C626.24 86.1637 627.967 80.5656 627.967 74.2946H623.967ZM619.505 88.6822C616.566 92.7888 612.41 96.0392 606.943 98.3996L608.529 102.072C614.563 99.4662 619.337 95.7903 622.758 91.0102L619.505 88.6822ZM606.938 98.4018C601.532 100.754 595.17 101.96 587.807 101.96V105.96C595.603 105.96 602.527 104.683 608.534 102.07L606.938 98.4018ZM587.807 101.96C580.968 101.96 574.394 100.863 568.075 98.6728L566.765 102.452C573.514 104.792 580.531 105.96 587.807 105.96V101.96ZM568.075 98.6728C561.748 96.4796 555.93 93.3179 550.613 89.1823L548.157 92.3397C553.818 96.7423 560.023 100.115 566.765 102.452L568.075 98.6728Z" fill="#252735" fill-opacity="0.4" mask="url(#path-1-outside-1_1715_2232)"/>
</svg>
