<svg width="545" height="102" viewBox="0 0 545 102" fill="none" xmlns="http://www.w3.org/2000/svg">
<mask id="path-1-outside-1_125_1044" maskUnits="userSpaceOnUse" x="-1" y="-1" width="547" height="104" fill="black">
<rect fill="white" x="-1" y="-1" width="547" height="104"/>
<path d="M0.239424 100V1.98573H26.1152V100H0.239424ZM130.794 100H100.345L65.0595 41.8449V100H39.1838V1.98573H69.6335L104.919 60.3369V1.98573H130.794V100ZM139.289 88.761L151.443 69.0275C154.623 71.5105 157.585 73.5361 160.329 75.1044C163.117 76.6726 165.818 77.827 168.432 78.5675C171.089 79.2645 173.79 79.613 176.534 79.613C179.235 79.613 181.544 79.3081 183.461 78.6982C185.377 78.0448 186.837 77.13 187.839 75.9538C188.884 74.7341 189.407 73.2966 189.407 71.6412C189.407 69.5502 188.666 67.7642 187.185 66.2831C185.704 64.802 183.722 63.4734 181.239 62.2972C178.8 61.121 176.121 59.9448 173.202 58.7687C170.065 57.5054 166.864 56.1114 163.597 54.5867C160.329 53.0185 157.324 51.1236 154.579 48.9019C151.835 46.6802 149.613 43.9794 147.914 40.7994C146.215 37.5758 145.366 33.6552 145.366 29.0377C145.366 22.939 146.891 17.7334 149.94 13.4207C153.033 9.06454 157.236 5.75384 162.551 3.48862C167.909 1.17984 173.964 0.0254494 180.716 0.0254494C185.639 0.0254494 190.844 0.678878 196.333 1.98573C201.822 3.29259 207.376 5.34 212.996 8.12796L202.933 28.907C199.796 26.9903 196.355 25.4656 192.609 24.333C188.906 23.1568 185.508 22.5687 182.415 22.5687C180.281 22.5687 178.408 22.8519 176.796 23.4182C175.228 23.9845 174.008 24.8122 173.137 25.9012C172.265 26.9467 171.83 28.1882 171.83 29.6258C171.83 31.5425 172.57 33.2414 174.051 34.7225C175.532 36.16 177.493 37.4887 179.932 38.7084C182.372 39.9281 185.029 41.1697 187.904 42.433C191.041 43.7834 194.242 45.2863 197.509 46.9416C200.82 48.597 203.848 50.5572 206.592 52.8225C209.38 55.0877 211.624 57.8103 213.322 60.9903C215.021 64.1268 215.871 67.8949 215.871 72.2946C215.871 78.1755 214.259 83.3594 211.035 87.8462C207.855 92.2895 203.39 95.7527 197.64 98.2357C191.934 100.719 185.29 101.96 177.711 101.96C170.654 101.96 163.858 100.828 157.324 98.5625C150.789 96.2972 144.778 93.0301 139.289 88.761ZM225.672 100V1.98573H251.548V100H225.672ZM333.161 30.2792C330.809 27.8397 327.934 25.9448 324.536 24.5944C321.138 23.2439 317.479 22.5687 313.558 22.5687C309.768 22.5687 306.327 23.2222 303.234 24.529C300.185 25.7923 297.549 27.6437 295.328 30.0832C293.15 32.5226 291.451 35.4413 290.231 38.8391C289.055 42.2369 288.467 46.0704 288.467 50.3394C288.467 54.6956 289.098 58.6598 290.362 62.2318C291.625 65.8039 293.433 68.875 295.785 71.4452C298.137 73.9718 300.925 75.9321 304.149 77.326C307.416 78.72 311.032 79.417 314.996 79.417C317.958 79.417 320.659 79.0249 323.098 78.2408C325.538 77.4567 327.694 76.3023 329.567 74.7777C331.441 73.253 333.031 71.3798 334.337 69.1582C335.644 66.893 336.646 64.3228 337.343 61.4477H313.885V41.8449H360.082L360.801 51.7116C360.801 59.1607 359.669 65.9782 357.403 72.1639C355.182 78.3062 352.002 83.5989 347.863 88.0423C343.725 92.4856 338.781 95.927 333.031 98.3664C327.324 100.762 320.964 101.96 313.95 101.96C306.632 101.96 299.815 100.675 293.498 98.1051C287.225 95.4913 281.715 91.8757 276.966 87.2581C272.262 82.597 268.581 77.1518 265.923 70.9224C263.31 64.6931 262.003 57.9628 262.003 50.7315C262.003 43.5873 263.288 36.9442 265.858 30.8019C268.428 24.6597 272.022 19.2798 276.64 14.6622C281.257 10.0447 286.637 6.45083 292.779 3.88068C298.965 1.31053 305.652 0.0254494 312.84 0.0254494C319.592 0.0254494 326.17 1.20162 332.573 3.55396C338.977 5.90631 344.727 9.26057 349.824 13.6168L333.161 30.2792ZM397.132 100H371.256V1.98573H397.132V40.538H431.306V1.98573H457.182V100H431.306V63.0813H397.132V100ZM517.493 100H491.618V24.529H464.435V1.98573H544.676V24.529H517.493V100Z"/>
</mask>
<path d="M0.239426 100H-0.753441V100.993H0.239426V100ZM0.239426 1.98573V0.99287H-0.753441V1.98573H0.239426ZM26.1152 1.98573H27.1081V0.99287H26.1152V1.98573ZM26.1152 100V100.993H27.1081V100H26.1152ZM1.23228 100V1.98573H-0.753441V100H1.23228ZM0.239426 2.9786H26.1152V0.99287H0.239426V2.9786ZM25.1223 1.98573V100H27.1081V1.98573H25.1223ZM26.1152 99.0071H0.239426V100.993H26.1152V99.0071ZM130.794 100V100.993H131.787V100H130.794ZM100.345 100L99.4958 100.515L99.7858 100.993H100.345V100ZM65.0595 41.8449L65.9084 41.3298L64.0667 38.2944V41.8449H65.0595ZM65.0595 100V100.993H66.0524V100H65.0595ZM39.1838 100H38.1909V100.993H39.1838V100ZM39.1838 1.98573V0.99287H38.1909V1.98573H39.1838ZM69.6335 1.98573L70.4831 1.47197L70.1934 0.99287H69.6335V1.98573ZM104.919 60.3369L104.069 60.8507L105.912 63.8976V60.3369H104.919ZM104.919 1.98573V0.99287H103.926V1.98573H104.919ZM130.794 1.98573H131.787V0.99287H130.794V1.98573ZM130.794 99.0071H100.345V100.993H130.794V99.0071ZM101.193 99.485L65.9084 41.3298L64.2107 42.3599L99.4958 100.515L101.193 99.485ZM64.0667 41.8449V100H66.0524V41.8449H64.0667ZM65.0595 99.0071H39.1838V100.993H65.0595V99.0071ZM40.1766 100V1.98573H38.1909V100H40.1766ZM39.1838 2.9786H69.6335V0.99287H39.1838V2.9786ZM68.7839 2.49949L104.069 60.8507L105.768 59.8231L70.4831 1.47197L68.7839 2.49949ZM105.912 60.3369V1.98573H103.926V60.3369H105.912ZM104.919 2.9786H130.794V0.99287H104.919V2.9786ZM129.802 1.98573V100H131.787V1.98573H129.802ZM139.289 88.761L138.444 88.2404L137.977 88.9983L138.679 89.5448L139.289 88.761ZM151.443 69.0275L152.054 68.2449L151.179 67.5621L150.597 68.5068L151.443 69.0275ZM160.329 75.1044L159.837 75.9664L159.843 75.9697L160.329 75.1044ZM168.432 78.5676L168.161 79.5228L168.171 79.5255L168.18 79.5279L168.432 78.5676ZM183.461 78.6982L183.762 79.6444L183.771 79.6413L183.781 79.638L183.461 78.6982ZM187.839 75.9538L187.085 75.3077L187.083 75.31L187.839 75.9538ZM187.185 66.2831L187.887 65.581L187.185 66.2831ZM181.239 62.2972L180.808 63.1915L180.814 63.1945L181.239 62.2972ZM173.202 58.7687L173.573 57.8478L173.573 57.8477L173.202 58.7687ZM163.597 54.5867L163.167 55.4819L163.177 55.4864L163.597 54.5867ZM147.914 40.7994L147.036 41.2623L147.039 41.2672L147.914 40.7994ZM149.94 13.4207L149.13 12.8459L149.129 12.8475L149.94 13.4207ZM162.551 3.48862L162.94 4.40199L162.944 4.40044L162.551 3.48862ZM212.996 8.12796L213.889 8.56071L214.318 7.67561L213.437 7.23854L212.996 8.12796ZM202.933 28.907L202.415 29.7542L203.349 30.3251L203.827 29.3397L202.933 28.907ZM192.609 24.333L192.308 25.2794L192.321 25.2834L192.609 24.333ZM176.796 23.4182L176.467 22.4814L176.459 22.4843L176.796 23.4182ZM173.137 25.9012L173.899 26.5368L173.906 26.5292L173.912 26.5215L173.137 25.9012ZM174.051 34.7225L173.349 35.4246L173.355 35.4298L173.36 35.435L174.051 34.7225ZM187.904 42.433L187.505 43.342L187.511 43.3449L187.904 42.433ZM197.509 46.9416L197.061 47.8273L197.065 47.8297L197.509 46.9416ZM206.592 52.8225L205.96 53.5882L205.966 53.593L206.592 52.8225ZM213.322 60.9903L212.447 61.4582L212.449 61.4632L213.322 60.9903ZM211.035 87.8462L210.229 87.2669L210.228 87.2684L211.035 87.8462ZM197.64 98.2357L197.247 97.3242L197.244 97.3253L197.64 98.2357ZM140.134 89.2817L152.288 69.5482L150.597 68.5068L138.444 88.2404L140.134 89.2817ZM150.832 69.8101C154.04 72.3148 157.042 74.3692 159.837 75.9664L160.822 74.2423C158.128 72.7031 155.206 70.7062 152.054 68.2449L150.832 69.8101ZM159.843 75.9697C162.687 77.5698 165.46 78.7575 168.161 79.5228L168.703 77.6123C166.176 76.8964 163.548 75.7754 160.816 74.239L159.843 75.9697ZM168.18 79.5279C170.919 80.2465 173.705 80.6059 176.534 80.6059V78.6202C173.875 78.6202 171.259 78.2826 168.684 77.6072L168.18 79.5279ZM176.534 80.6059C179.305 80.6059 181.721 80.2937 183.762 79.6444L183.16 77.7521C181.367 78.3224 179.166 78.6202 176.534 78.6202V80.6059ZM183.781 79.638C185.816 78.9444 187.446 77.9459 188.595 76.5977L187.083 75.31C186.228 76.3141 184.939 77.1452 183.14 77.7585L183.781 79.638ZM188.593 76.6C189.797 75.1944 190.4 73.5257 190.4 71.6412H188.414C188.414 73.0674 187.971 74.2738 187.085 75.3077L188.593 76.6ZM190.4 71.6412C190.4 69.2864 189.554 67.248 187.887 65.581L186.483 66.9852C187.779 68.2804 188.414 69.8141 188.414 71.6412H190.4ZM187.887 65.581C186.305 63.9988 184.22 62.6104 181.664 61.3999L180.814 63.1945C183.225 64.3363 185.103 65.6052 186.483 66.9852L187.887 65.581ZM181.67 61.4028C179.208 60.2158 176.509 59.0309 173.573 57.8478L172.831 59.6896C175.732 60.8588 178.391 62.0262 180.808 63.1915L181.67 61.4028ZM173.573 57.8477C170.454 56.5915 167.268 55.2046 164.016 53.687L163.177 55.4864C166.459 57.0181 169.677 58.4193 172.831 59.6896L173.573 57.8477ZM164.026 53.6916C160.827 52.1559 157.887 50.302 155.204 48.1302L153.955 49.6736C156.76 51.9451 159.832 53.8811 163.167 55.4818L164.026 53.6916ZM155.204 48.1302C152.565 45.9938 150.428 43.397 148.79 40.3315L147.039 41.2672C148.799 44.5618 151.105 47.3667 153.955 49.6736L155.204 48.1302ZM148.793 40.3365C147.186 37.2887 146.359 33.536 146.359 29.0377H144.373C144.373 33.7745 145.244 37.8629 147.036 41.2623L148.793 40.3365ZM146.359 29.0377C146.359 23.1115 147.837 18.114 150.751 13.9939L149.129 12.8475C145.944 17.3527 144.373 22.7665 144.373 29.0377H146.359ZM150.749 13.9955C153.728 9.80097 157.78 6.60138 162.94 4.40198L162.162 2.57526C156.693 4.9063 152.338 8.32812 149.13 12.8459L150.749 13.9955ZM162.944 4.40044C168.16 2.15288 174.078 1.01831 180.716 1.01831V-0.967415C173.85 -0.967415 167.658 0.206802 162.158 2.5768L162.944 4.40044ZM180.716 1.01831C185.551 1.01831 190.679 1.66013 196.103 2.9516L196.563 1.01987C191.01 -0.302372 185.727 -0.967415 180.716 -0.967415V1.01831ZM196.103 2.9516C201.511 4.23924 206.995 6.25915 212.554 9.01738L213.437 7.23854C207.758 4.42085 202.133 2.34594 196.563 1.01987L196.103 2.9516ZM212.102 7.69522L202.039 28.4742L203.827 29.3397L213.889 8.56071L212.102 7.69522ZM203.451 28.0598C200.238 26.0963 196.718 24.5381 192.896 23.3826L192.321 25.2834C195.992 26.3931 199.355 27.8843 202.415 29.7542L203.451 28.0598ZM192.909 23.3867C189.133 22.1872 185.632 21.5759 182.415 21.5759V23.5616C185.384 23.5616 188.679 24.1264 192.308 25.2793L192.909 23.3867ZM182.415 21.5759C180.195 21.5759 178.207 21.87 176.467 22.4815L177.125 24.3549C178.608 23.8337 180.366 23.5616 182.415 23.5616V21.5759ZM176.459 22.4843C174.752 23.1006 173.367 24.0233 172.361 25.281L173.912 26.5215C174.648 25.6011 175.703 24.8684 177.133 24.352L176.459 22.4843ZM172.374 25.2656C171.345 26.5001 170.837 27.9701 170.837 29.6258H172.823C172.823 28.4063 173.186 27.3933 173.899 26.5368L172.374 25.2656ZM170.837 29.6258C170.837 31.8315 171.701 33.7763 173.349 35.4246L174.753 34.0204C173.44 32.7065 172.823 31.2534 172.823 29.6258H170.837ZM173.36 35.435C174.933 36.962 176.985 38.3449 179.488 39.5965L180.376 37.8204C178 36.6324 176.132 35.3581 174.743 34.01L173.36 35.435ZM179.488 39.5965C181.944 40.8245 184.617 42.073 187.505 43.3419L188.303 41.524C185.441 40.2663 182.799 39.0318 180.376 37.8204L179.488 39.5965ZM187.511 43.3449C190.628 44.6866 193.811 46.1806 197.061 47.8273L197.958 46.0559C194.674 44.3919 191.453 42.8802 188.297 41.521L187.511 43.3449ZM197.065 47.8297C200.312 49.4528 203.276 51.3726 205.96 53.5882L207.224 52.0567C204.42 49.7419 201.329 47.7411 197.953 46.0536L197.065 47.8297ZM205.966 53.593C208.651 55.7747 210.81 58.3942 212.447 61.4582L214.198 60.5225C212.437 57.2264 210.109 54.4007 207.218 52.0519L205.966 53.593ZM212.449 61.4632C214.053 64.4243 214.878 68.022 214.878 72.2946H216.864C216.864 67.7678 215.989 63.8292 214.195 60.5174L212.449 61.4632ZM214.878 72.2946C214.878 77.9818 213.323 82.96 210.229 87.2669L211.842 88.4255C215.195 83.7587 216.864 78.3692 216.864 72.2946H214.878ZM210.228 87.2684C207.168 91.5445 202.856 94.9021 197.247 97.3242L198.034 99.1472C203.925 96.6033 208.543 93.0346 211.843 88.4241L210.228 87.2684ZM197.244 97.3253C191.686 99.7435 185.183 100.967 177.711 100.967V102.953C185.398 102.953 192.181 101.694 198.036 99.1462L197.244 97.3253ZM177.711 100.967C170.762 100.967 164.076 99.8526 157.649 97.6244L156.998 99.5005C163.639 101.803 170.545 102.953 177.711 102.953V100.967ZM157.649 97.6244C151.218 95.3949 145.302 92.1801 139.899 87.9773L138.679 89.5448C144.253 93.8801 150.361 97.1996 156.998 99.5005L157.649 97.6244ZM225.672 100H224.679V100.993H225.672V100ZM225.672 1.98573V0.99287H224.679V1.98573H225.672ZM251.548 1.98573H252.541V0.99287H251.548V1.98573ZM251.548 100V100.993H252.541V100H251.548ZM226.665 100V1.98573H224.679V100H226.665ZM225.672 2.9786H251.548V0.99287H225.672V2.9786ZM250.555 1.98573V100H252.541V1.98573H250.555ZM251.548 99.0071H225.672V100.993H251.548V99.0071ZM333.161 30.2792L332.447 30.9684L333.148 31.6962L333.863 30.9812L333.161 30.2792ZM303.234 24.529L303.614 25.4463L303.621 25.4436L303.234 24.529ZM295.328 30.0832L294.594 29.4146L294.587 29.4219L295.328 30.0832ZM290.231 38.8391L289.296 38.5036L289.293 38.5143L290.231 38.8391ZM290.362 62.2318L289.426 62.5629L290.362 62.2318ZM295.785 71.4452L295.053 72.1155L295.058 72.1217L295.785 71.4452ZM304.149 77.326L303.755 78.2374L303.759 78.2393L304.149 77.326ZM323.098 78.2408L323.402 79.1861L323.098 78.2408ZM334.337 69.1582L335.193 69.6616L335.197 69.6543L334.337 69.1582ZM337.343 61.4477L338.308 61.6816L338.605 60.4549H337.343V61.4477ZM313.885 61.4477H312.892V62.4406H313.885V61.4477ZM313.885 41.8449V40.852H312.892V41.8449H313.885ZM360.082 41.8449L361.073 41.7727L361.006 40.852H360.082V41.8449ZM360.801 51.7116H361.794V51.6755L361.791 51.6395L360.801 51.7116ZM357.403 72.1639L356.471 71.8225L356.47 71.8262L357.403 72.1639ZM333.031 98.3664L333.415 99.2819L333.418 99.2804L333.031 98.3664ZM293.498 98.1051L293.116 99.0216L293.124 99.0247L293.498 98.1051ZM276.966 87.2581L276.268 87.9635L276.274 87.9699L276.966 87.2581ZM265.923 70.9224L265.008 71.3066L265.01 71.312L265.923 70.9224ZM265.858 30.8019L264.942 30.4187L265.858 30.8019ZM276.64 14.6622L275.938 13.9602L276.64 14.6622ZM292.779 3.88068L292.398 2.9638L292.396 2.96476L292.779 3.88068ZM349.824 13.6168L350.526 14.3188L351.285 13.5596L350.469 12.862L349.824 13.6168ZM333.876 29.59C331.418 27.041 328.421 25.0701 324.903 23.6717L324.169 25.517C327.446 26.8194 330.2 28.6384 332.447 30.9684L333.876 29.59ZM324.903 23.6717C321.38 22.2716 317.595 21.5759 313.558 21.5759V23.5616C317.362 23.5616 320.896 24.2162 324.169 25.517L324.903 23.6717ZM313.558 21.5759C309.653 21.5759 306.078 22.2497 302.848 23.6144L303.621 25.4436C306.576 24.1946 309.884 23.5616 313.558 23.5616V21.5759ZM302.854 23.6118C299.67 24.9309 296.914 26.8672 294.594 29.4146L296.062 30.7517C298.185 28.4202 300.7 26.6537 303.614 25.4463L302.854 23.6118ZM294.587 29.4219C292.316 31.9659 290.555 34.9983 289.296 38.5036L291.165 39.1746C292.347 35.8843 293.984 33.0793 296.068 30.7444L294.587 29.4219ZM289.293 38.5143C288.074 42.0341 287.474 45.98 287.474 50.3394H289.46C289.46 46.1608 290.035 42.4398 291.169 39.1639L289.293 38.5143ZM287.474 50.3394C287.474 54.7918 288.12 58.8699 289.426 62.5629L291.298 61.9008C290.077 58.4496 289.46 54.5995 289.46 50.3394H287.474ZM289.426 62.5629C290.729 66.2495 292.603 69.4388 295.053 72.1155L296.518 70.7748C294.263 68.3113 292.52 65.3583 291.298 61.9008L289.426 62.5629ZM295.058 72.1217C297.506 74.7505 300.408 76.7899 303.755 78.2373L304.543 76.4147C301.443 75.0742 298.769 73.1931 296.512 70.7686L295.058 72.1217ZM303.759 78.2393C307.163 79.6916 310.913 80.4099 314.996 80.4099V78.4241C311.15 78.4241 307.669 77.7485 304.539 76.4128L303.759 78.2393ZM314.996 80.4099C318.045 80.4099 320.851 80.0062 323.402 79.1861L322.795 77.2956C320.467 78.0437 317.871 78.4241 314.996 78.4241V80.4099ZM323.402 79.1861C325.952 78.3665 328.219 77.155 330.194 75.5477L328.941 74.0076C327.169 75.4497 325.124 76.547 322.795 77.2956L323.402 79.1861ZM330.194 75.5477C332.165 73.9436 333.83 71.9781 335.193 69.6616L333.482 68.6548C332.231 70.7815 330.716 72.5624 328.941 74.0076L330.194 75.5477ZM335.197 69.6543C336.557 67.2972 337.592 64.6368 338.308 61.6816L336.378 61.2138C335.701 64.0088 334.731 66.4887 333.477 68.662L335.197 69.6543ZM337.343 60.4549H313.885V62.4406H337.343V60.4549ZM314.878 61.4477V41.8449H312.892V61.4477H314.878ZM313.885 42.8377H360.082V40.852H313.885V42.8377ZM359.092 41.917L359.811 51.7838L361.791 51.6395L361.073 41.7727L359.092 41.917ZM359.808 51.7116C359.808 59.0593 358.691 65.7594 356.471 71.8225L358.336 72.5054C360.646 66.1969 361.794 59.2621 361.794 51.7116H359.808ZM356.47 71.8262C354.29 77.8523 351.177 83.0274 347.137 87.3656L348.59 88.7189C352.826 84.1705 356.073 78.76 358.337 72.5017L356.47 71.8262ZM347.137 87.3656C343.096 91.7039 338.268 95.0658 332.643 97.4524L333.418 99.2804C339.293 96.7881 344.354 93.2672 348.59 88.7189L347.137 87.3656ZM332.646 97.451C327.076 99.7894 320.849 100.967 313.95 100.967V102.953C321.078 102.953 327.571 101.735 333.415 99.2819L332.646 97.451ZM313.95 100.967C306.751 100.967 300.061 99.7038 293.872 97.1854L293.124 99.0247C299.568 101.647 306.513 102.953 313.95 102.953V100.967ZM293.88 97.1886C287.719 94.6217 282.315 91.0745 277.659 86.5464L276.274 87.9699C281.114 92.6769 286.731 96.361 293.116 99.0215L293.88 97.1886ZM277.665 86.5528C273.054 81.9842 269.445 76.6468 266.837 70.5329L265.01 71.312C267.717 77.6568 271.47 83.2099 276.268 87.9635L277.665 86.5528ZM266.839 70.5383C264.28 64.439 262.996 57.8403 262.996 50.7315H261.01C261.01 58.0853 262.34 64.9472 265.008 71.3066L266.839 70.5383ZM262.996 50.7315C262.996 43.7092 264.258 37.1974 266.774 31.1852L264.942 30.4187C262.318 36.6909 261.01 43.4655 261.01 50.7315H262.996ZM266.774 31.1852C269.295 25.1597 272.817 19.8887 277.342 15.3643L275.938 13.9602C271.227 18.6709 267.561 24.1597 264.942 30.4187L266.774 31.1852ZM277.342 15.3643C281.866 10.8399 287.137 7.31788 293.163 4.79659L292.396 2.96476C286.137 5.58378 280.648 9.24946 275.938 13.9602L277.342 15.3643ZM293.16 4.79755C299.217 2.28114 305.773 1.01831 312.84 1.01831V-0.967415C305.531 -0.967415 298.714 0.339912 292.398 2.96381L293.16 4.79755ZM312.84 1.01831C319.474 1.01831 325.936 2.17345 332.231 4.48594L332.915 2.62199C326.403 0.229797 319.71 -0.967415 312.84 -0.967415V1.01831ZM332.231 4.48594C338.526 6.79836 344.173 10.0932 349.179 14.3715L350.469 12.862C345.281 8.42789 339.428 5.01425 332.915 2.62199L332.231 4.48594ZM349.122 12.9147L332.459 29.5771L333.863 30.9812L350.526 14.3188L349.122 12.9147ZM397.132 100V100.993H398.125V100H397.132ZM371.256 100H370.263V100.993H371.256V100ZM371.256 1.98573V0.99287H370.263V1.98573H371.256ZM397.132 1.98573H398.125V0.99287H397.132V1.98573ZM397.132 40.538H396.139V41.5309H397.132V40.538ZM431.306 40.538V41.5309H432.299V40.538H431.306ZM431.306 1.98573V0.99287H430.313V1.98573H431.306ZM457.182 1.98573H458.175V0.99287H457.182V1.98573ZM457.182 100V100.993H458.175V100H457.182ZM431.306 100H430.313V100.993H431.306V100ZM431.306 63.0813H432.299V62.0884H431.306V63.0813ZM397.132 63.0813V62.0884H396.139V63.0813H397.132ZM397.132 99.0071H371.256V100.993H397.132V99.0071ZM372.249 100V1.98573H370.263V100H372.249ZM371.256 2.9786H397.132V0.99287H371.256V2.9786ZM396.139 1.98573V40.538H398.125V1.98573H396.139ZM397.132 41.5309H431.306V39.5452H397.132V41.5309ZM432.299 40.538V1.98573H430.313V40.538H432.299ZM431.306 2.9786H457.182V0.99287H431.306V2.9786ZM456.189 1.98573V100H458.175V1.98573H456.189ZM457.182 99.0071H431.306V100.993H457.182V99.0071ZM432.299 100V63.0813H430.313V100H432.299ZM431.306 62.0884H397.132V64.0742H431.306V62.0884ZM396.139 63.0813V100H398.125V63.0813H396.139ZM517.493 100V100.993H518.486V100H517.493ZM491.618 100H490.625V100.993H491.618V100ZM491.618 24.529H492.61V23.5361H491.618V24.529ZM464.435 24.529H463.442V25.5219H464.435V24.529ZM464.435 1.98573V0.99287H463.442V1.98573H464.435ZM544.676 1.98573H545.669V0.99287H544.676V1.98573ZM544.676 24.529V25.5219H545.669V24.529H544.676ZM517.493 24.529V23.5361H516.5V24.529H517.493ZM517.493 99.0071H491.618V100.993H517.493V99.0071ZM492.61 100V24.529H490.625V100H492.61ZM491.618 23.5361H464.435V25.5219H491.618V23.5361ZM465.428 24.529V1.98573H463.442V24.529H465.428ZM464.435 2.9786H544.676V0.99287H464.435V2.9786ZM543.683 1.98573V24.529H545.669V1.98573H543.683ZM544.676 23.5361H517.493V25.5219H544.676V23.5361ZM516.5 24.529V100H518.486V24.529H516.5Z" fill="black" fill-opacity="0.15" mask="url(#path-1-outside-1_125_1044)"/>
</svg>
