<svg width="47" height="46" viewBox="0 0 47 46" fill="none" xmlns="http://www.w3.org/2000/svg">
<circle cx="23.3675" cy="22.9427" r="22.9231" fill="#9C27B0"/>
<circle cx="23.3679" cy="23.2458" r="4.27898" fill="white"/>
<path fill-rule="evenodd" clip-rule="evenodd" d="M19.55 18.7734C20.6584 17.665 22.132 17.048 23.6995 17.048C25.2669 17.048 26.7406 17.6682 27.8489 18.7766C28.5522 19.4799 29.0546 20.325 29.3282 21.2681H33.7332V15.3474C33.7332 13.9584 32.6596 12.8848 31.2706 12.8848H16.1807C14.7917 12.8848 13.6133 13.9584 13.6133 15.3474V21.2681H18.0707C18.3443 20.325 18.8467 19.4766 19.55 18.7734ZM32.0564 17.2471C32.0564 17.6175 31.7562 17.9178 31.3858 17.9178H29.3738C29.0034 17.9178 28.7031 17.6176 28.7031 17.2471V15.2351C28.7031 14.8647 29.0034 14.5645 29.3738 14.5645H31.3858C31.7562 14.5645 32.0564 14.8647 32.0564 15.2351V17.2471Z" fill="white"/>
<path fill-rule="evenodd" clip-rule="evenodd" d="M27.8489 27.071C26.7406 28.1794 25.2669 28.7833 23.6995 28.7833C22.132 28.7833 20.6584 28.1827 19.55 27.0743C18.4436 25.968 17.8335 24.4628 17.8312 22.9434H13.6133V30.4359C13.6133 31.825 14.7917 33.0033 16.1807 33.0033H31.2706C32.6596 33.0033 33.7332 31.825 33.7332 30.4359V22.9434H29.5677C29.5654 24.4628 28.9553 25.9647 27.8489 27.071Z" fill="white"/>
</svg>
