<svg width="66" height="65" viewBox="0 0 66 65" fill="none" xmlns="http://www.w3.org/2000/svg">
<rect width="55.7818" height="55.7818" rx="13.0739" transform="matrix(1 0 0 -1 0.956543 56.0225)" fill="url(#paint0_linear_130_472)"/>
<g filter="url(#filter0_b_130_472)">
<rect width="55.7818" height="55.7818" rx="13.0739" transform="matrix(1 0 0 -1 9.67236 64.7383)" fill="#EEEEEE" fill-opacity="0.61"/>
<rect x="0.435796" y="-0.435796" width="54.9102" height="54.9102" rx="12.6381" transform="matrix(1 0 0 -1 9.67236 63.8667)" stroke="white" stroke-width="0.871591"/>
</g>
<path d="M47.6685 38.6626L47.6684 38.663C47.4947 39.1989 47.5532 39.7644 47.643 40.2231C47.7203 40.6177 47.8441 41.0359 47.9533 41.4047C47.9732 41.4719 47.9927 41.5375 48.0112 41.601C48.141 42.0449 48.2341 42.4026 48.2618 42.6981C48.2897 42.9963 48.2359 43.0889 48.2225 43.1073L48.2224 43.1075C48.2062 43.1298 48.1313 43.2106 47.8389 43.2767C47.5486 43.3423 47.1789 43.3645 46.717 43.3779C46.6475 43.3799 46.5755 43.3817 46.5016 43.3835C46.1202 43.3931 45.6891 43.4039 45.2955 43.4505C44.8343 43.5051 44.2779 43.6217 43.8232 43.9523L43.8229 43.9525C43.3693 44.2826 43.0891 44.7771 42.8972 45.1973C42.7351 45.5522 42.5942 45.9541 42.4691 46.3106C42.4432 46.3844 42.418 46.4562 42.3935 46.5253C42.2389 46.96 42.1034 47.305 41.9506 47.5609C41.7972 47.8178 41.6951 47.8674 41.6633 47.8776L41.6629 47.8778C41.6497 47.8821 41.5512 47.9069 41.2767 47.7868C41.0058 47.6683 40.6956 47.4683 40.3127 47.2065C40.2631 47.1726 40.212 47.1374 40.1598 47.1015C39.8379 46.88 39.4711 46.6276 39.1101 46.4282C38.6968 46.1998 38.1744 45.9717 37.6076 45.9717C37.0408 45.9717 36.5184 46.1998 36.1051 46.4282C35.7441 46.6276 35.3773 46.88 35.0554 47.1015C35.0032 47.1374 34.9521 47.1726 34.9025 47.2065C34.5196 47.4683 34.2094 47.6683 33.9385 47.7868C33.664 47.9069 33.5655 47.8821 33.5523 47.8778L33.5519 47.8776C33.5201 47.8674 33.418 47.8178 33.2646 47.5609C33.1118 47.305 32.9763 46.96 32.8217 46.5253C32.7972 46.4562 32.772 46.3844 32.7461 46.3106C32.6211 45.9541 32.4801 45.5522 32.318 45.1973C32.1261 44.7771 31.8459 44.2826 31.3923 43.9525L31.392 43.9523C30.9373 43.6217 30.3809 43.5051 29.9197 43.4505C29.5261 43.4039 29.095 43.3931 28.7136 43.3835C28.6397 43.3817 28.5677 43.3799 28.4982 43.3779C28.0363 43.3645 27.6666 43.3423 27.3763 43.2767C27.0839 43.2106 27.009 43.1298 26.9929 43.1075L26.9927 43.1073C26.9793 43.0889 26.9255 42.9963 26.9534 42.6981C26.9811 42.4026 27.0742 42.0449 27.204 41.601C27.2225 41.5375 27.242 41.4719 27.2619 41.4048C27.3711 41.0359 27.4949 40.6177 27.5722 40.2231C27.662 39.7644 27.7205 39.1989 27.5468 38.663L27.5467 38.6626C27.374 38.131 26.9894 37.7142 26.6514 37.4054C26.3699 37.1483 26.0377 36.8948 25.742 36.6692C25.6753 36.6184 25.6106 36.5689 25.5487 36.5212C25.1847 36.2407 24.8993 36.0045 24.7039 35.7788C24.5085 35.5533 24.4888 35.4355 24.4888 35.3924C24.4888 35.3494 24.5085 35.2316 24.7039 35.006C24.8993 34.7804 25.1847 34.5442 25.5487 34.2636C25.6106 34.2159 25.6753 34.1665 25.742 34.1157C26.0377 33.8901 26.3699 33.6366 26.6514 33.3794C26.9894 33.0707 27.374 32.6539 27.5467 32.1223L27.5468 32.1218C27.7205 31.586 27.662 31.0205 27.5722 30.5617C27.4949 30.1671 27.3711 29.749 27.2619 29.3801C27.242 29.3129 27.2225 29.2474 27.204 29.1839C27.0742 28.74 26.9811 28.3823 26.9534 28.0868C26.9255 27.7886 26.9793 27.696 26.9927 27.6776L26.9929 27.6774C27.009 27.6551 27.0839 27.5743 27.3763 27.5082C27.6666 27.4425 28.0363 27.4204 28.4982 27.407C28.5677 27.405 28.6397 27.4032 28.7136 27.4013C29.095 27.3918 29.5261 27.381 29.9197 27.3344C30.3809 27.2797 30.9373 27.1632 31.392 26.8326L31.3923 26.8324C31.8459 26.5023 32.1261 26.0078 32.318 25.5876C32.4801 25.2327 32.6211 24.8308 32.7461 24.4743C32.772 24.4005 32.7972 24.3287 32.8217 24.2596C32.9763 23.8249 33.1118 23.4799 33.2646 23.224C33.418 22.9671 33.5201 22.9175 33.5519 22.9072L33.5523 22.9071C33.5655 22.9028 33.664 22.878 33.9385 22.998C34.2094 23.1166 34.5196 23.3165 34.9025 23.5784C34.9521 23.6123 35.0032 23.6474 35.0554 23.6834C35.3774 23.9049 35.7441 24.1572 36.1051 24.3567C36.5184 24.585 37.0408 24.8131 37.6076 24.8131C38.1744 24.8131 38.6968 24.585 39.1101 24.3567C39.4711 24.1572 39.8379 23.9049 40.1598 23.6834C40.212 23.6474 40.2631 23.6123 40.3127 23.5784C40.6956 23.3165 41.0058 23.1166 41.2767 22.998C41.5512 22.878 41.6497 22.9028 41.6629 22.9071L41.6633 22.9072C41.6951 22.9175 41.7972 22.9671 41.9506 23.224C42.1034 23.4799 42.2389 23.8249 42.3935 24.2596C42.418 24.3287 42.4432 24.4005 42.4691 24.4743C42.5942 24.8308 42.7351 25.2327 42.8972 25.5876C43.0891 26.0078 43.3693 26.5023 43.8229 26.8324L43.8232 26.8326C44.2779 27.1632 44.8343 27.2797 45.2955 27.3344C45.6891 27.381 46.1202 27.3918 46.5016 27.4013C46.5755 27.4032 46.6475 27.405 46.717 27.407C47.1789 27.4204 47.5486 27.4425 47.8389 27.5082C48.1313 27.5743 48.2062 27.6551 48.2224 27.6774L48.2225 27.6776C48.2359 27.696 48.2897 27.7886 48.2618 28.0868C48.2341 28.3823 48.141 28.74 48.0112 29.1839C47.9927 29.2474 47.9732 29.3129 47.9533 29.3801C47.8441 29.749 47.7203 30.1671 47.643 30.5617C47.5532 31.0205 47.4947 31.586 47.6684 32.1218C47.8404 32.6535 48.2253 33.0699 48.5627 33.3778C48.8435 33.6341 49.1752 33.887 49.4706 34.1122C49.5378 34.1634 49.6031 34.2131 49.6655 34.2612C50.0295 34.5416 50.3151 34.778 50.5107 35.004C50.7062 35.2297 50.7264 35.3482 50.7264 35.3924C50.7264 35.4369 50.7062 35.5552 50.5112 35.7805C50.3159 36.0061 50.0307 36.2421 49.6668 36.5223C49.6046 36.5702 49.5395 36.6199 49.4725 36.6709C49.1771 36.8961 48.8452 37.149 48.5641 37.4057C48.2261 37.7142 47.8413 38.1308 47.6685 38.6626ZM26.4289 29.6372C26.148 28.6872 25.8685 27.7418 26.2876 27.1652L26.7177 31.8531C26.9093 31.2619 26.6686 30.4479 26.4289 29.6372ZM37.5626 41.2053C40.9322 41.2053 43.6638 38.4737 43.6638 35.1041C43.6638 31.7346 40.9322 29.003 37.5626 29.003C34.1931 29.003 31.4615 31.7346 31.4615 35.1041C31.4615 38.4737 34.1931 41.2053 37.5626 41.2053ZM41.9206 35.1041C41.9206 37.511 39.9695 39.4621 37.5626 39.4621C35.1558 39.4621 33.2047 37.511 33.2047 35.1041C33.2047 32.6973 35.1558 30.7462 37.5626 30.7462C39.9695 30.7462 41.9206 32.6973 41.9206 35.1041Z" stroke="#E749EE" stroke-width="1.74318"/>
<defs>
<filter id="filter0_b_130_472" x="2.69963" y="1.98381" width="69.7272" height="69.7272" filterUnits="userSpaceOnUse" color-interpolation-filters="sRGB">
<feFlood flood-opacity="0" result="BackgroundImageFix"/>
<feGaussianBlur in="BackgroundImageFix" stdDeviation="3.48636"/>
<feComposite in2="SourceAlpha" operator="in" result="effect1_backgroundBlur_130_472"/>
<feBlend mode="normal" in="SourceGraphic" in2="effect1_backgroundBlur_130_472" result="shape"/>
</filter>
<linearGradient id="paint0_linear_130_472" x1="27.8909" y1="0" x2="27.8909" y2="55.7818" gradientUnits="userSpaceOnUse">
<stop stop-color="#E541ED"/>
<stop offset="1" stop-color="#FEEBFF"/>
</linearGradient>
</defs>
</svg>
