<svg width="47" height="46" viewBox="0 0 47 46" fill="none" xmlns="http://www.w3.org/2000/svg">
<circle cx="23.6624" cy="22.9427" r="22.9231" fill="#9C27B0"/>
<path fill-rule="evenodd" clip-rule="evenodd" d="M33.2129 12.2461H14.8467C13.8436 12.2461 12.9666 12.9684 12.9666 13.96V32.3664C12.9666 33.3638 13.8436 34.2523 14.8467 34.2523H33.2072C34.2161 34.2523 34.9727 33.3581 34.9727 32.3664V13.96C34.9784 12.9684 34.2161 12.2461 33.2129 12.2461ZM19.7863 30.5912H16.6335V20.7891H19.7863V30.5912ZM18.3188 19.2942H18.2959C17.287 19.2942 16.6335 18.5432 16.6335 17.6031C16.6335 16.6458 17.3042 15.9121 18.336 15.9121C19.3678 15.9121 19.9984 16.6401 20.0213 17.6031C20.0213 18.5432 19.3678 19.2942 18.3188 19.2942ZM31.3096 30.592H28.1569V25.2323C28.1569 23.9483 27.6983 23.0713 26.5576 23.0713C25.6863 23.0713 25.1704 23.6617 24.9411 24.2349C24.8551 24.4413 24.8322 24.7222 24.8322 25.0088V30.592H21.6794V20.7898H24.8322V22.1541C25.2908 21.5006 26.0073 20.5605 27.6754 20.5605C29.7447 20.5605 31.3096 21.9248 31.3096 24.8655V30.592Z" fill="white"/>
</svg>
