<svg width="1537" height="459" viewBox="0 0 1537 459" fill="none" xmlns="http://www.w3.org/2000/svg">
<g filter="url(#filter0_d_1102_1222)">
<g clip-path="url(#clip0_1102_1222)">
<path d="M899.5 382.217C973.782 382.217 1034 324.189 1034 252.608C1034 181.026 973.782 122.999 899.5 122.999C825.218 122.999 765 181.026 765 252.608C765 324.189 825.218 382.217 899.5 382.217Z" fill="#70319F"/>
<path d="M912.542 212.665C903.245 247.169 880.895 271.22 822.061 324.341C886.304 310.049 917.321 295.116 960.636 251.792L979.385 264.834L964.712 183.319L880.751 186.58L912.542 212.665Z" fill="white" stroke="white" stroke-width="1.6303"/>
</g>
<path d="M158.459 375.133C144.999 375.133 132.12 371.768 119.821 365.038C107.754 358.308 97.8914 348.562 90.2334 335.799C82.5755 323.035 78.7465 307.487 78.7465 289.155C78.7465 273.375 81.4152 258.871 86.7526 245.644C92.0899 232.416 99.3998 220.929 108.682 211.183C118.197 201.436 129.103 193.894 141.403 188.557C153.934 182.988 167.277 180.203 181.433 180.203C195.124 180.203 207.075 182.523 217.286 187.165C227.729 191.806 235.851 199.348 241.652 209.79C247.454 220.001 250.355 233.46 250.355 250.169C250.355 266.877 248.382 282.773 244.437 297.857C240.492 312.709 234.574 325.936 226.684 337.539C219.026 349.142 209.396 358.308 197.793 365.038C186.422 371.768 173.311 375.133 158.459 375.133ZM181.433 321.875C190.483 321.875 198.257 319.671 204.755 315.261C211.485 310.852 216.706 304.703 220.419 296.813C224.364 288.923 226.336 279.756 226.336 269.314C226.336 258.407 223.204 249.705 216.938 243.207C210.672 236.477 201.97 233.112 190.831 233.112C182.245 233.112 174.471 235.433 167.509 240.074C160.78 244.483 155.442 250.633 151.497 258.523C147.784 266.413 145.928 275.579 145.928 286.022C145.928 296.929 149.061 305.631 155.326 312.129C161.592 318.626 170.294 321.875 181.433 321.875ZM209.28 372L215.894 340.324L228.077 278.016L236.779 215.708L257.316 113.718H323.453L271.936 372H209.28ZM391.465 375.133C378.006 375.133 365.126 371.768 352.827 365.038C340.528 358.308 330.55 348.562 322.892 335.799C315.466 323.035 311.753 307.487 311.753 289.155C311.753 273.375 314.421 258.871 319.759 245.644C325.096 232.416 332.406 220.929 341.688 211.183C351.203 201.436 362.11 193.894 374.409 188.557C386.94 182.988 400.167 180.203 414.091 180.203C429.407 180.203 442.518 183.22 453.425 189.253C464.564 195.055 472.686 204.569 477.791 217.796C482.897 230.792 484.057 248.428 481.272 270.706C479.184 291.823 474.194 310.272 466.304 326.052C458.414 341.832 448.204 354.015 435.673 362.602C423.141 370.956 408.406 375.133 391.465 375.133ZM414.439 321.875C423.257 321.875 431.031 319.671 437.761 315.261C444.491 310.852 449.712 304.703 453.425 296.813C457.37 288.923 459.343 279.756 459.343 269.314C459.343 258.407 456.21 249.705 449.944 243.207C443.679 236.477 434.86 233.112 423.489 233.112C414.903 233.112 407.129 235.433 400.167 240.074C393.438 244.483 388.1 250.633 384.155 258.523C380.442 266.413 378.586 275.579 378.586 286.022C378.586 296.929 381.719 305.631 387.984 312.129C394.25 318.626 403.068 321.875 414.439 321.875ZM442.286 372L448.9 340.324L461.431 278.016L469.785 215.708L476.399 183.336H542.536L504.942 372H442.286Z" fill="#CE3A79"/>
<path d="M557.5 291L573.5 186H637.5L624 265C620.167 280.167 619.9 310.4 649.5 310C679.1 309.6 691.833 279.833 694.5 265L706 186H769.5L745.5 333.5C739.9 377.9 713.833 408.667 701.5 418.5C628.3 468.5 558.667 439.333 533 418.5L564 375.5C564.667 381.833 577.4 394.8 623 396C668.6 397.2 678 361.167 677 343C667.333 354.5 637.9 374.3 597.5 361.5C557.1 348.7 554 309.167 557.5 291Z" fill="#CE3A79"/>
<path d="M159 107V65H183.182V97.0676C183.182 103.5 185.485 116.162 197.5 116C209.515 115.838 213.5 103.5 213.5 97.0676V65H239V123.5C236.727 141.523 233 151.5 224 159C194.287 179.296 167.419 167.833 157 159.376L169.584 141.922C169.854 144.493 175.023 149.756 193.533 150.243C212.043 150.73 213.906 135.374 213.5 128C209.576 132.668 198.581 141.196 182.182 136C165.783 130.804 158.5 114.5 159 107Z" fill="#7030A0"/>
<path d="M1061.5 372.001V131.001H1126.5V159.501C1142.5 135.501 1182.83 127.168 1201 126.001C1267 126.401 1287.5 184.168 1289.5 213.001V372.001H1221.5V228.501C1221.17 212.835 1212 181.501 1178 181.501C1144 181.501 1131.83 212.835 1130 228.501V372.001H1061.5Z" fill="#7030A0"/>
<path d="M1526 144.001L1506.5 190.001C1495.33 182.668 1462 170.7 1418 181.501C1397.14 186.622 1391.97 196.5 1391 206C1389.93 216.54 1402.38 226.5 1415 226.5H1490.5V275L1406.5 275.5C1382.6 279.289 1375.33 299.9 1389 313.5C1398.78 323.233 1422.45 327.412 1438.5 326.5C1471.69 324.615 1501.67 314.833 1512.5 308L1532.5 356.5C1465 378 1419.5 384 1379.5 372.001C1339.5 360.003 1314.5 336 1315.5 301.5C1316.3 273.9 1341.5 254.333 1354 248C1329.5 231.5 1324 212 1326 197.5C1328 183 1333.5 160.5 1353 147.5C1372.5 134.5 1391 128.501 1440 126.001C1479.2 124.001 1513.67 137.168 1526 144.001Z" fill="#7030A0"/>
<path d="M110.824 60.3861C116.892 60.3861 122.287 61.6383 127.007 64.1428C131.823 66.551 135.58 70.3077 138.277 75.413C141.07 80.5183 142.467 87.1167 142.467 95.2081V140H115.014V99.6873C115.014 94.1004 113.954 90.0547 111.835 87.5502C109.716 84.9494 106.826 83.6489 103.166 83.6489C100.565 83.6489 98.205 84.2751 96.0858 85.5273C93.9666 86.7796 92.329 88.7061 91.1731 91.3069C90.0172 93.8114 89.4392 97.0865 89.4392 101.132V140H61.9862V99.6873C61.9862 94.1004 60.9266 90.0547 58.8074 87.5502C56.7845 84.9494 53.8947 83.6489 50.138 83.6489C47.4408 83.6489 45.0327 84.2751 42.9135 85.5273C40.8906 86.7796 39.2531 88.7061 38.0008 91.3069C36.8449 93.8114 36.267 97.0865 36.267 101.132V140H8.81388V61.6865H34.9666V83.5045L29.7649 77.2914C32.6547 71.7045 36.6041 67.5142 41.6131 64.7208C46.6221 61.831 52.209 60.3861 58.3739 60.3861C65.4058 60.3861 71.5707 62.2163 76.8686 65.8767C82.2629 69.4408 85.8751 75.0277 87.7054 82.6375L78.747 80.7592C81.5404 74.4016 85.7307 69.4408 91.3176 65.8767C97.0009 62.2163 103.503 60.3861 110.824 60.3861Z" fill="#7030A0"/>
</g>
<defs>
<filter id="filter0_d_1102_1222" x="4.81348" y="60.386" width="1531.69" height="393.722" filterUnits="userSpaceOnUse" color-interpolation-filters="sRGB">
<feFlood flood-opacity="0" result="BackgroundImageFix"/>
<feColorMatrix in="SourceAlpha" type="matrix" values="0 0 0 0 0 0 0 0 0 0 0 0 0 0 0 0 0 0 127 0" result="hardAlpha"/>
<feOffset dy="4"/>
<feGaussianBlur stdDeviation="2"/>
<feComposite in2="hardAlpha" operator="out"/>
<feColorMatrix type="matrix" values="0 0 0 0 0 0 0 0 0 0 0 0 0 0 0 0 0 0 0.25 0"/>
<feBlend mode="normal" in2="BackgroundImageFix" result="effect1_dropShadow_1102_1222"/>
<feBlend mode="normal" in="SourceGraphic" in2="effect1_dropShadow_1102_1222" result="shape"/>
</filter>
<clipPath id="clip0_1102_1222">
<rect width="269" height="259.218" fill="white" transform="translate(765 123)"/>
</clipPath>
</defs>
</svg>
