<svg width="705" height="96" viewBox="0 0 705 96" fill="none" xmlns="http://www.w3.org/2000/svg">
<mask id="path-1-outside-1_158_615" maskUnits="userSpaceOnUse" x="-1.07617" y="-0.75" width="708" height="97" fill="black">
<rect fill="white" x="-1.07617" y="-0.75" width="708" height="97"/>
<path d="M48.8566 95.0664C41.9139 95.0664 35.496 93.8958 29.6027 91.5547C23.7499 89.1732 18.6437 85.8633 14.2844 81.625C9.96535 77.3464 6.61509 72.3411 4.23358 66.6094C1.85207 60.8776 0.661316 54.6211 0.661316 47.8398C0.661316 41.0586 1.85207 34.8021 4.23358 29.0703C6.61509 23.3385 9.96535 18.3535 14.2844 14.1152C18.6437 9.83659 23.7499 6.52669 29.6027 4.18555C35.496 1.80404 41.9139 0.613281 48.8566 0.613281C55.8397 0.613281 62.2577 1.80404 68.1105 4.18555C73.9634 6.52669 79.0292 9.83659 83.3078 14.1152C87.6268 18.3535 90.9771 23.3385 93.3586 29.0703C95.7401 34.8021 96.9308 41.0586 96.9308 47.8398C96.9308 54.6211 95.7401 60.8776 93.3586 66.6094C90.9771 72.3411 87.6268 77.3464 83.3078 81.625C79.0292 85.8633 73.9634 89.1732 68.1105 91.5547C62.2577 93.8958 55.8397 95.0664 48.8566 95.0664ZM48.8566 74.1777C52.2069 74.1777 55.315 73.5117 58.1808 72.1797C61.0467 70.8477 63.5292 68.9909 65.6281 66.6094C67.7674 64.1875 69.4224 61.3822 70.593 58.1934C71.8039 55.0046 72.4094 51.5534 72.4094 47.8398C72.4094 44.1263 71.8039 40.6751 70.593 37.4863C69.4224 34.2975 67.7674 31.5124 65.6281 29.1309C63.5292 26.709 61.0467 24.832 58.1808 23.5C55.315 22.168 52.2069 21.502 48.8566 21.502C45.5064 21.502 42.3781 22.168 39.4719 23.5C36.606 24.832 34.1034 26.709 31.9641 29.1309C29.8247 31.5124 28.1496 34.2975 26.9387 37.4863C25.7681 40.6751 25.1828 44.1263 25.1828 47.8398C25.1828 51.5534 25.7681 55.0046 26.9387 58.1934C28.1496 61.3822 29.8247 64.1875 31.9641 66.6094C34.1034 68.9909 36.606 70.8477 39.4719 72.1797C42.3781 73.5117 45.5064 74.1777 48.8566 74.1777ZM106.618 93.25V2.42969H164.743V23.3184H130.595V37.3652H162.321V58.2539H130.595V93.25H106.618ZM176.247 93.25V2.42969H234.372V23.3184H200.224V37.3652H231.95V58.2539H200.224V93.25H176.247ZM245.876 93.25V2.42969H306.423V23.3184H269.853V37.3652H304.001V58.2539H269.853V72.3613H307.029V93.25H245.876ZM398.939 93.25H372.419L355.103 63.2188H342.509V93.25H318.532V2.42969H356.919C364.79 2.42969 371.491 3.62044 377.021 6.00195C382.551 8.38346 386.769 11.8548 389.675 16.416C392.622 20.9368 394.095 26.4062 394.095 32.8242C394.095 38.8385 392.803 44.0254 390.22 48.3848C387.637 52.7441 383.903 56.1751 379.019 58.6777L398.939 93.25ZM342.509 44.752H355.042C359.846 44.752 363.458 43.8639 365.88 42.0879C368.342 40.2715 369.573 37.5872 369.573 34.0352C369.573 30.4831 368.342 27.819 365.88 26.043C363.458 24.2266 359.846 23.3184 355.042 23.3184H342.509V44.752ZM406.204 93.25V2.42969H430.181V93.25H406.204ZM527.177 93.25H498.962L466.267 39.3633V93.25H442.29V2.42969H470.505L503.2 56.498V2.42969H527.177V93.25ZM602.8 28.6465C600.62 26.3861 597.956 24.6302 594.808 23.3789C591.659 22.1276 588.269 21.502 584.636 21.502C581.124 21.502 577.935 22.1074 575.07 23.3184C572.244 24.4889 569.802 26.2044 567.743 28.4648C565.725 30.7253 564.151 33.4297 563.021 36.5781C561.931 39.7266 561.386 43.2786 561.386 47.2344C561.386 51.2708 561.971 54.944 563.142 58.2539C564.312 61.5638 565.987 64.4095 568.167 66.791C570.347 69.1322 572.93 70.9486 575.917 72.2402C578.945 73.5319 582.295 74.1777 585.968 74.1777C588.713 74.1777 591.215 73.8145 593.476 73.0879C595.736 72.3613 597.734 71.2917 599.47 69.8789C601.206 68.4661 602.679 66.7305 603.89 64.6719C605.101 62.5729 606.029 60.1914 606.675 57.5273H584.939V39.3633H627.745L628.411 48.5059C628.411 55.4082 627.362 61.7253 625.263 67.457C623.204 73.1484 620.258 78.0527 616.423 82.1699C612.588 86.2871 608.007 89.4759 602.679 91.7363C597.391 93.9564 591.498 95.0664 584.999 95.0664C578.218 95.0664 571.901 93.8757 566.048 91.4941C560.236 89.0723 555.129 85.722 550.73 81.4434C546.37 77.1243 542.959 72.0788 540.497 66.3066C538.075 60.5345 536.864 54.2982 536.864 47.5977C536.864 40.9779 538.055 34.8223 540.437 29.1309C542.818 23.4395 546.148 18.4544 550.427 14.1758C554.706 9.89714 559.691 6.56706 565.382 4.18555C571.114 1.80404 577.31 0.613281 583.97 0.613281C590.226 0.613281 596.321 1.70312 602.255 3.88281C608.189 6.0625 613.517 9.17057 618.239 13.207L602.8 28.6465ZM633.861 82.8359L645.122 64.5508C648.069 66.8516 650.814 68.7285 653.357 70.1816C655.94 71.6348 658.443 72.7044 660.864 73.3906C663.327 74.0365 665.829 74.3594 668.372 74.3594C670.875 74.3594 673.014 74.0768 674.79 73.5117C676.566 72.9062 677.918 72.0586 678.847 70.9688C679.816 69.8385 680.3 68.5065 680.3 66.9727C680.3 65.0352 679.614 63.3802 678.241 62.0078C676.869 60.6354 675.032 59.4043 672.732 58.3145C670.471 57.2246 667.989 56.1348 665.284 55.0449C662.378 53.8743 659.411 52.5827 656.384 51.1699C653.357 49.7168 650.571 47.9609 648.029 45.9023C645.486 43.8438 643.427 41.3411 641.853 38.3945C640.279 35.4076 639.491 31.7747 639.491 27.4961C639.491 21.8451 640.904 17.0215 643.73 13.0254C646.596 8.98893 650.491 5.92122 655.415 3.82227C660.38 1.68294 665.991 0.613281 672.247 0.613281C676.808 0.613281 681.632 1.21875 686.718 2.42969C691.804 3.64062 696.95 5.53776 702.157 8.12109L692.833 27.375C689.927 25.599 686.738 24.1862 683.267 23.1367C679.836 22.0469 676.687 21.502 673.821 21.502C671.844 21.502 670.108 21.7643 668.614 22.2891C667.161 22.8138 666.031 23.5807 665.224 24.5898C664.417 25.5586 664.013 26.709 664.013 28.041C664.013 29.8171 664.699 31.3913 666.071 32.7637C667.444 34.0957 669.26 35.3268 671.521 36.457C673.781 37.5872 676.243 38.7376 678.907 39.9082C681.814 41.1595 684.78 42.5521 687.808 44.0859C690.876 45.6198 693.681 47.4362 696.224 49.5352C698.807 51.6341 700.886 54.1569 702.46 57.1035C704.034 60.0098 704.821 63.5013 704.821 67.5781C704.821 73.0273 703.328 77.8307 700.341 81.9883C697.394 86.1055 693.257 89.3145 687.929 91.6152C682.641 93.916 676.486 95.0664 669.462 95.0664C662.923 95.0664 656.626 94.0169 650.571 91.918C644.517 89.819 638.946 86.7917 633.861 82.8359Z"/>
</mask>
<path d="M29.6027 91.5547L29.1793 92.5953L29.188 92.5988L29.6027 91.5547ZM14.2844 81.625L13.4937 82.4231L13.5012 82.4305L14.2844 81.625ZM14.2844 14.1152L15.0712 14.9171L15.0713 14.917L14.2844 14.1152ZM29.6027 4.18555L30.02 5.22864L30.0236 5.22715L29.6027 4.18555ZM68.1105 4.18555L67.6871 5.22616L67.6933 5.22863L68.1105 4.18555ZM83.3078 14.1152L82.5134 14.9097L82.5209 14.9171L83.3078 14.1152ZM93.3586 29.0703L92.3211 29.5014L93.3586 29.0703ZM93.3586 66.6094L92.3211 66.1783L93.3586 66.6094ZM83.3078 81.625L84.0984 82.4231L84.0985 82.4231L83.3078 81.625ZM68.1105 91.5547L68.5278 92.5978L68.5339 92.5953L68.1105 91.5547ZM58.1808 72.1797L58.6544 73.1985L58.1808 72.1797ZM65.6281 66.6094L64.7861 65.8656L64.7853 65.8666L65.6281 66.6094ZM70.593 58.1934L69.5426 57.7945L69.5383 57.8062L70.593 58.1934ZM70.593 37.4863L69.5383 37.8735L69.5427 37.8852L70.593 37.4863ZM65.6281 29.1309L64.7791 29.8666L64.7857 29.8742L64.7924 29.8816L65.6281 29.1309ZM58.1808 23.5L58.6544 22.4812L58.1808 23.5ZM39.4719 23.5L39.0038 22.4787L38.9983 22.4812L39.4719 23.5ZM31.9641 29.1309L32.7998 29.8816L32.806 29.8746L31.9641 29.1309ZM26.9387 37.4863L25.8883 37.0875L25.884 37.0992L26.9387 37.4863ZM26.9387 58.1934L25.884 58.5805L25.8884 58.5922L26.9387 58.1934ZM31.9641 66.6094L31.122 67.3532L31.1283 67.3601L31.9641 66.6094ZM39.4719 72.1797L38.9983 73.1985L39.0038 73.201L39.4719 72.1797ZM48.8566 93.943C42.0424 93.943 35.7667 92.7946 30.0175 90.5106L29.188 92.5988C35.2252 94.9971 41.7854 96.1898 48.8566 96.1898V93.943ZM30.0261 90.5141C24.3018 88.1849 19.3191 84.953 15.0675 80.8195L13.5012 82.4305C17.9683 86.7735 23.1979 90.1615 29.1793 92.5953L30.0261 90.5141ZM15.075 80.8269C10.864 76.6553 7.59664 71.7755 5.27103 66.1783L3.19613 67.0404C5.63354 72.9067 9.06668 78.0375 13.4937 82.4231L15.075 80.8269ZM5.27103 66.1783C2.95134 60.5953 1.78475 54.4869 1.78475 47.8398H-0.462122C-0.462122 54.7553 0.752799 61.1599 3.19613 67.0404L5.27103 66.1783ZM1.78475 47.8398C1.78475 41.1928 2.95134 35.0843 5.27103 29.5014L3.19613 28.6393C0.752799 34.5198 -0.462122 40.9244 -0.462122 47.8398H1.78475ZM5.27103 29.5014C7.59625 23.9051 10.8626 19.0471 15.0712 14.9171L13.4975 13.3134C9.06814 17.66 5.63393 22.772 3.19613 28.6393L5.27103 29.5014ZM15.0713 14.917C19.3212 10.7458 24.3006 7.51639 30.02 5.22863L29.1855 3.14246C23.1992 5.53699 17.9663 8.92736 13.4974 13.3135L15.0713 14.917ZM30.0236 5.22715C35.7713 2.90448 42.0448 1.73672 48.8566 1.73672V-0.510156C41.783 -0.510156 35.2206 0.70359 29.1818 3.14394L30.0236 5.22715ZM48.8566 1.73672C55.7098 1.73672 61.9822 2.90482 67.6871 5.22614L68.5339 3.14495C62.5332 0.703253 55.9696 -0.510156 48.8566 -0.510156V1.73672ZM67.6933 5.22863C73.4109 7.51568 78.3468 10.7431 82.5134 14.9096L84.1022 13.3208C79.7115 8.93012 74.5159 5.5377 68.5278 3.14246L67.6933 5.22863ZM82.5209 14.9171C86.7296 19.0471 89.9959 23.9051 92.3211 29.5014L94.396 28.6393C91.9582 22.772 88.524 17.66 84.0947 13.3134L82.5209 14.9171ZM92.3211 29.5014C94.6408 35.0843 95.8074 41.1928 95.8074 47.8398H98.0543C98.0543 40.9244 96.8394 34.5198 94.396 28.6393L92.3211 29.5014ZM95.8074 47.8398C95.8074 54.4869 94.6408 60.5953 92.3211 66.1783L94.396 67.0404C96.8394 61.1599 98.0543 54.7553 98.0543 47.8398H95.8074ZM92.3211 66.1783C89.9955 71.7755 86.7281 76.6553 82.5171 80.8269L84.0985 82.4231C88.5255 78.0375 91.9586 72.9067 94.396 67.0404L92.3211 66.1783ZM82.5172 80.8269C78.3489 84.9558 73.4097 88.1856 67.6871 90.5141L68.5339 92.5953C74.5171 90.1607 79.7094 86.7708 84.0984 82.4231L82.5172 80.8269ZM67.6933 90.5116C61.9867 92.7942 55.7122 93.943 48.8566 93.943V96.1898C55.9672 96.1898 62.5286 94.9974 68.5278 92.5978L67.6933 90.5116ZM48.8566 75.3012C52.3604 75.3012 55.6313 74.6035 58.6544 73.1985L57.7073 71.1609C54.9986 72.4199 52.0534 73.0543 48.8566 73.0543V75.3012ZM58.6544 73.1985C61.6617 71.8007 64.2697 69.8497 66.4709 67.3522L64.7853 65.8666C62.7886 68.1321 60.4317 69.8947 57.7073 71.1609L58.6544 73.1985ZM66.4701 67.3531C68.7065 64.8213 70.4314 61.8936 71.6476 58.5805L69.5383 57.8062C68.4134 60.8708 66.8284 63.5537 64.7861 65.8656L66.4701 67.3531ZM71.6432 58.5922C72.9067 55.2651 73.5328 51.6775 73.5328 47.8398H71.2859C71.2859 51.4292 70.7011 54.744 69.5427 57.7945L71.6432 58.5922ZM73.5328 47.8398C73.5328 44.0021 72.9067 40.4146 71.6432 37.0875L69.5427 37.8852C70.7011 40.9357 71.2859 44.2505 71.2859 47.8398H73.5328ZM71.6476 37.0992C70.4309 33.7847 68.7043 30.8742 66.4639 28.3801L64.7924 29.8816C66.8306 32.1506 68.4139 34.8104 69.5383 37.8735L71.6476 37.0992ZM66.4771 28.3951C64.2758 25.8552 61.666 23.881 58.6544 22.4812L57.7073 24.5188C60.4274 25.783 62.7825 27.5628 64.7791 29.8666L66.4771 28.3951ZM58.6544 22.4812C55.6313 21.0761 52.3604 20.3785 48.8566 20.3785V22.6254C52.0534 22.6254 54.9986 23.2598 57.7073 24.5188L58.6544 22.4812ZM48.8566 20.3785C45.3527 20.3785 42.0639 21.0762 39.0038 22.4787L39.9399 24.5213C42.6923 23.2598 45.66 22.6254 48.8566 22.6254V20.3785ZM38.9983 22.4812C35.9888 23.88 33.3616 25.8518 31.1221 28.3871L32.806 29.8746C34.8452 27.5662 37.2232 25.784 39.9454 24.5188L38.9983 22.4812ZM31.1283 28.3801C28.8905 30.8713 27.1453 33.7777 25.8884 37.0875L27.9889 37.8852C29.1539 34.8173 30.759 32.1534 32.7998 29.8816L31.1283 28.3801ZM25.884 37.0992C24.6639 40.423 24.0594 44.0065 24.0594 47.8398H26.3062C26.3062 44.2461 26.8723 40.9272 27.9933 37.8735L25.884 37.0992ZM24.0594 47.8398C24.0594 51.6732 24.6639 55.2566 25.884 58.5805L27.9933 57.8062C26.8723 54.7525 26.3062 51.4336 26.3062 47.8398H24.0594ZM25.8884 58.5922C27.1447 61.9005 28.8882 64.8242 31.1221 67.3531L32.806 65.8656C30.7613 63.5508 29.1545 60.8639 27.9889 57.7945L25.8884 58.5922ZM31.1283 67.3601C33.3677 69.853 35.993 71.8016 38.9983 73.1985L39.9454 71.1609C37.2189 69.8937 34.8391 68.1287 32.7998 65.8586L31.1283 67.3601ZM39.0038 73.201C42.0639 74.6035 45.3527 75.3012 48.8566 75.3012V73.0543C45.66 73.0543 42.6923 72.4199 39.9399 71.1584L39.0038 73.201ZM106.618 93.25H105.495V94.3734H106.618V93.25ZM106.618 2.42969V1.30625H105.495V2.42969H106.618ZM164.743 2.42969H165.867V1.30625H164.743V2.42969ZM164.743 23.3184V24.4418H165.867V23.3184H164.743ZM130.595 23.3184V22.1949H129.471V23.3184H130.595ZM130.595 37.3652H129.471V38.4887H130.595V37.3652ZM162.321 37.3652H163.445V36.2418H162.321V37.3652ZM162.321 58.2539V59.3773H163.445V58.2539H162.321ZM130.595 58.2539V57.1305H129.471V58.2539H130.595ZM130.595 93.25V94.3734H131.718V93.25H130.595ZM107.742 93.25V2.42969H105.495V93.25H107.742ZM106.618 3.55313H164.743V1.30625H106.618V3.55313ZM163.62 2.42969V23.3184H165.867V2.42969H163.62ZM164.743 22.1949H130.595V24.4418H164.743V22.1949ZM129.471 23.3184V37.3652H131.718V23.3184H129.471ZM130.595 38.4887H162.321V36.2418H130.595V38.4887ZM161.198 37.3652V58.2539H163.445V37.3652H161.198ZM162.321 57.1305H130.595V59.3773H162.321V57.1305ZM129.471 58.2539V93.25H131.718V58.2539H129.471ZM130.595 92.1266H106.618V94.3734H130.595V92.1266ZM176.247 93.25H175.124V94.3734H176.247V93.25ZM176.247 2.42969V1.30625H175.124V2.42969H176.247ZM234.372 2.42969H235.496V1.30625H234.372V2.42969ZM234.372 23.3184V24.4418H235.496V23.3184H234.372ZM200.224 23.3184V22.1949H199.1V23.3184H200.224ZM200.224 37.3652H199.1V38.4887H200.224V37.3652ZM231.95 37.3652H233.074V36.2418H231.95V37.3652ZM231.95 58.2539V59.3773H233.074V58.2539H231.95ZM200.224 58.2539V57.1305H199.1V58.2539H200.224ZM200.224 93.25V94.3734H201.347V93.25H200.224ZM177.371 93.25V2.42969H175.124V93.25H177.371ZM176.247 3.55313H234.372V1.30625H176.247V3.55313ZM233.249 2.42969V23.3184H235.496V2.42969H233.249ZM234.372 22.1949H200.224V24.4418H234.372V22.1949ZM199.1 23.3184V37.3652H201.347V23.3184H199.1ZM200.224 38.4887H231.95V36.2418H200.224V38.4887ZM230.827 37.3652V58.2539H233.074V37.3652H230.827ZM231.95 57.1305H200.224V59.3773H231.95V57.1305ZM199.1 58.2539V93.25H201.347V58.2539H199.1ZM200.224 92.1266H176.247V94.3734H200.224V92.1266ZM245.876 93.25H244.753V94.3734H245.876V93.25ZM245.876 2.42969V1.30625H244.753V2.42969H245.876ZM306.423 2.42969H307.546V1.30625H306.423V2.42969ZM306.423 23.3184V24.4418H307.546V23.3184H306.423ZM269.853 23.3184V22.1949H268.729V23.3184H269.853ZM269.853 37.3652H268.729V38.4887H269.853V37.3652ZM304.001 37.3652H305.125V36.2418H304.001V37.3652ZM304.001 58.2539V59.3773H305.125V58.2539H304.001ZM269.853 58.2539V57.1305H268.729V58.2539H269.853ZM269.853 72.3613H268.729V73.4848H269.853V72.3613ZM307.029 72.3613H308.152V71.2379H307.029V72.3613ZM307.029 93.25V94.3734H308.152V93.25H307.029ZM247 93.25V2.42969H244.753V93.25H247ZM245.876 3.55313H306.423V1.30625H245.876V3.55313ZM305.3 2.42969V23.3184H307.546V2.42969H305.3ZM306.423 22.1949H269.853V24.4418H306.423V22.1949ZM268.729 23.3184V37.3652H270.976V23.3184H268.729ZM269.853 38.4887H304.001V36.2418H269.853V38.4887ZM302.878 37.3652V58.2539H305.125V37.3652H302.878ZM304.001 57.1305H269.853V59.3773H304.001V57.1305ZM268.729 58.2539V72.3613H270.976V58.2539H268.729ZM269.853 73.4848H307.029V71.2379H269.853V73.4848ZM305.905 72.3613V93.25H308.152V72.3613H305.905ZM307.029 92.1266H245.876V94.3734H307.029V92.1266ZM398.939 93.25V94.3734H400.883L399.912 92.6891L398.939 93.25ZM372.419 93.25L371.446 93.8112L371.77 94.3734H372.419V93.25ZM355.103 63.2188L356.076 62.6576L355.752 62.0953H355.103V63.2188ZM342.509 63.2188V62.0953H341.386V63.2188H342.509ZM342.509 93.25V94.3734H343.632V93.25H342.509ZM318.532 93.25H317.409V94.3734H318.532V93.25ZM318.532 2.42969V1.30625H317.409V2.42969H318.532ZM377.021 6.00195L377.465 4.97013L377.021 6.00195ZM389.675 16.416L388.727 17.0197L388.734 17.0295L389.675 16.416ZM379.019 58.6777L378.506 57.6779L377.456 58.2161L378.045 59.2386L379.019 58.6777ZM342.509 44.752H341.386V45.8754H342.509V44.752ZM365.88 42.0879L366.544 42.9938L366.547 42.9919L365.88 42.0879ZM365.88 26.043L365.206 26.9417L365.214 26.948L365.223 26.9541L365.88 26.043ZM342.509 23.3184V22.1949H341.386V23.3184H342.509ZM398.939 92.1266H372.419V94.3734H398.939V92.1266ZM373.392 92.6888L356.076 62.6576L354.129 63.7799L371.446 93.8112L373.392 92.6888ZM355.103 62.0953H342.509V64.3422H355.103V62.0953ZM341.386 63.2188V93.25H343.632V63.2188H341.386ZM342.509 92.1266H318.532V94.3734H342.509V92.1266ZM319.656 93.25V2.42969H317.409V93.25H319.656ZM318.532 3.55313H356.919V1.30625H318.532V3.55313ZM356.919 3.55313C364.682 3.55313 371.223 4.7282 376.576 7.03377L377.465 4.97013C371.759 2.51268 364.898 1.30625 356.919 1.30625V3.55313ZM376.576 7.03377C381.924 9.33671 385.956 12.6696 388.728 17.0197L390.622 15.8123C387.582 11.04 383.177 7.43022 377.465 4.97013L376.576 7.03377ZM388.734 17.0295C391.541 21.3356 392.971 26.5822 392.971 32.8242H395.218C395.218 26.2303 393.703 20.5381 390.616 15.8026L388.734 17.0295ZM392.971 32.8242C392.971 38.6749 391.716 43.656 389.253 47.812L391.186 48.9575C393.89 44.3948 395.218 39.0022 395.218 32.8242H392.971ZM389.253 47.812C386.787 51.9739 383.218 55.2636 378.506 57.6779L379.531 59.6776C384.588 57.0866 388.486 53.5144 391.186 48.9575L389.253 47.812ZM378.045 59.2386L397.965 93.8109L399.912 92.6891L379.992 58.1169L378.045 59.2386ZM342.509 45.8754H355.042V43.6285H342.509V45.8754ZM355.042 45.8754C359.952 45.8754 363.845 44.9733 366.544 42.9938L365.216 41.1819C363.071 42.7546 359.739 43.6285 355.042 43.6285V45.8754ZM366.547 42.9919C369.345 40.9277 370.697 37.8786 370.697 34.0352H368.45C368.45 37.2959 367.339 39.6152 365.213 41.1838L366.547 42.9919ZM370.697 34.0352C370.697 30.1921 369.345 27.1569 366.537 25.1318L365.223 26.9541C367.34 28.4811 368.45 30.774 368.45 34.0352H370.697ZM366.554 25.1442C363.853 23.1186 359.956 22.1949 355.042 22.1949V24.4418C359.735 24.4418 363.063 25.3345 365.206 26.9417L366.554 25.1442ZM355.042 22.1949H342.509V24.4418H355.042V22.1949ZM341.386 23.3184V44.752H343.632V23.3184H341.386ZM406.204 93.25H405.081V94.3734H406.204V93.25ZM406.204 2.42969V1.30625H405.081V2.42969H406.204ZM430.181 2.42969H431.304V1.30625H430.181V2.42969ZM430.181 93.25V94.3734H431.304V93.25H430.181ZM407.328 93.25V2.42969H405.081V93.25H407.328ZM406.204 3.55313H430.181V1.30625H406.204V3.55313ZM429.057 2.42969V93.25H431.304V2.42969H429.057ZM430.181 92.1266H406.204V94.3734H430.181V92.1266ZM527.177 93.25V94.3734H528.3V93.25H527.177ZM498.962 93.25L498.002 93.8328L498.33 94.3734H498.962V93.25ZM466.267 39.3633L467.227 38.7805L465.143 35.3459V39.3633H466.267ZM466.267 93.25V94.3734H467.39V93.25H466.267ZM442.29 93.25H441.167V94.3734H442.29V93.25ZM442.29 2.42969V1.30625H441.167V2.42969H442.29ZM470.505 2.42969L471.466 1.84836L471.139 1.30625H470.505V2.42969ZM503.2 56.498L502.239 57.0794L504.324 60.527V56.498H503.2ZM503.2 2.42969V1.30625H502.077V2.42969H503.2ZM527.177 2.42969H528.3V1.30625H527.177V2.42969ZM527.177 92.1266H498.962V94.3734H527.177V92.1266ZM499.923 92.6672L467.227 38.7805L465.306 39.946L498.002 93.8328L499.923 92.6672ZM465.143 39.3633V93.25H467.39V39.3633H465.143ZM466.267 92.1266H442.29V94.3734H466.267V92.1266ZM443.414 93.25V2.42969H441.167V93.25H443.414ZM442.29 3.55313H470.505V1.30625H442.29V3.55313ZM469.544 3.01101L502.239 57.0794L504.162 55.9167L471.466 1.84836L469.544 3.01101ZM504.324 56.498V2.42969H502.077V56.498H504.324ZM503.2 3.55313H527.177V1.30625H503.2V3.55313ZM526.054 2.42969V93.25H528.3V2.42969H526.054ZM602.8 28.6465L601.991 29.4263L602.785 30.2498L603.594 29.4409L602.8 28.6465ZM575.07 23.3184L575.5 24.3563L575.507 24.3532L575.07 23.3184ZM567.743 28.4648L566.913 27.7084L566.905 27.7166L567.743 28.4648ZM563.021 36.5781L561.963 36.1985L561.959 36.2106L563.021 36.5781ZM563.142 58.2539L562.083 58.6285L563.142 58.2539ZM568.167 66.791L567.338 67.5495L567.345 67.5565L568.167 66.791ZM575.917 72.2402L575.471 73.2714L575.476 73.2735L575.917 72.2402ZM593.476 73.0879L593.82 74.1574L593.476 73.0879ZM603.89 64.6719L604.858 65.2415L604.863 65.2333L603.89 64.6719ZM606.675 57.5273L607.767 57.792L608.103 56.4039H606.675V57.5273ZM584.939 57.5273H583.815V58.6508H584.939V57.5273ZM584.939 39.3633V38.2398H583.815V39.3633H584.939ZM627.745 39.3633L628.866 39.2817L628.79 38.2398H627.745V39.3633ZM628.411 48.5059H629.535V48.465L629.532 48.4242L628.411 48.5059ZM625.263 67.457L624.208 67.0707L624.206 67.0749L625.263 67.457ZM602.679 91.7363L603.114 92.7722L603.118 92.7705L602.679 91.7363ZM566.048 91.4941L565.616 92.5312L565.625 92.5347L566.048 91.4941ZM550.73 81.4434L549.939 82.2415L549.946 82.2488L550.73 81.4434ZM540.497 66.3066L539.461 66.7413L539.464 66.7474L540.497 66.3066ZM540.437 29.1309L539.4 28.6972L540.437 29.1309ZM550.427 14.1758L549.633 13.3814L550.427 14.1758ZM565.382 4.18555L564.951 3.14809L564.948 3.14918L565.382 4.18555ZM618.239 13.207L619.034 14.0014L619.893 13.1424L618.969 12.353L618.239 13.207ZM603.609 27.8667C601.309 25.4823 598.508 23.6405 595.223 22.3349L594.393 24.4229C597.405 25.6199 599.931 27.2898 601.991 29.4263L603.609 27.8667ZM595.223 22.3349C591.933 21.0274 588.4 20.3785 584.636 20.3785V22.6254C588.137 22.6254 591.386 23.2278 594.393 24.4229L595.223 22.3349ZM584.636 20.3785C580.993 20.3785 577.653 21.007 574.632 22.2835L575.507 24.3532C578.218 23.2078 581.255 22.6254 584.636 22.6254V20.3785ZM574.64 22.2805C571.661 23.5142 569.083 25.3258 566.913 27.7084L568.574 29.2213C570.521 27.083 572.827 25.4636 575.5 24.3563L574.64 22.2805ZM566.905 27.7166C564.781 30.0954 563.137 32.9284 561.963 36.1986L564.078 36.9577C565.165 33.931 566.669 31.3552 568.581 29.2131L566.905 27.7166ZM561.959 36.2106C560.821 39.4971 560.262 43.1764 560.262 47.2344H562.509C562.509 43.3809 563.04 39.9561 564.082 36.9456L561.959 36.2106ZM560.262 47.2344C560.262 51.3796 560.864 55.1818 562.083 58.6285L564.201 57.8793C563.079 54.7063 562.509 51.162 562.509 47.2344H560.262ZM562.083 58.6285C563.299 62.068 565.048 65.0474 567.338 67.5495L568.996 66.0325C566.927 63.7716 565.326 61.0596 564.201 57.8793L562.083 58.6285ZM567.345 67.5565C569.632 70.0133 572.344 71.9192 575.471 73.2714L576.363 71.2091C573.516 69.9779 571.061 68.251 568.989 66.0255L567.345 67.5565ZM575.476 73.2735C578.658 74.6312 582.161 75.3012 585.968 75.3012V73.0543C582.429 73.0543 579.231 72.4326 576.358 71.2069L575.476 73.2735ZM585.968 75.3012C588.812 75.3012 591.432 74.9248 593.82 74.1574L593.132 72.0183C590.998 72.7041 588.614 73.0543 585.968 73.0543V75.3012ZM593.82 74.1574C596.205 73.3907 598.329 72.2565 600.179 70.7502L598.761 69.0076C597.14 70.3269 595.268 71.3319 593.132 72.0183L593.82 74.1574ZM600.179 70.7502C602.025 69.2476 603.584 67.4075 604.858 65.2415L602.922 64.1023C601.774 66.0535 600.386 67.6847 598.761 69.0076L600.179 70.7502ZM604.863 65.2333C606.134 63.0303 607.099 60.5467 607.767 57.792L605.583 57.2627C604.959 59.8361 604.068 62.1155 602.917 64.1105L604.863 65.2333ZM606.675 56.4039H584.939V58.6508H606.675V56.4039ZM586.062 57.5273V39.3633H583.815V57.5273H586.062ZM584.939 40.4867H627.745V38.2398H584.939V40.4867ZM626.625 39.4449L627.291 48.5875L629.532 48.4242L628.866 39.2817L626.625 39.4449ZM627.288 48.5059C627.288 55.2935 626.256 61.4778 624.208 67.0707L626.318 67.8433C628.468 61.9727 629.535 55.5229 629.535 48.5059H627.288ZM624.206 67.0749C622.195 72.6349 619.325 77.406 615.601 81.4042L617.245 82.9356C621.191 78.6995 624.213 73.662 626.319 67.8392L624.206 67.0749ZM615.601 81.4042C611.877 85.4026 607.427 88.5015 602.24 90.7021L603.118 92.7705C608.587 90.4503 613.3 87.1716 617.245 82.9356L615.601 81.4042ZM602.244 90.7005C597.111 92.8555 591.368 93.943 584.999 93.943V96.1898C591.627 96.1898 597.671 95.0572 603.114 92.7722L602.244 90.7005ZM584.999 93.943C578.352 93.943 572.18 92.7764 566.471 90.4535L565.625 92.5347C571.622 94.9749 578.084 96.1898 584.999 96.1898V93.943ZM566.48 90.4571C560.795 88.0882 555.809 84.8154 551.513 80.638L549.946 82.2488C554.45 86.6286 559.676 90.0563 565.616 92.5312L566.48 90.4571ZM551.52 80.6453C547.267 76.4309 543.937 71.5074 541.531 65.8658L539.464 66.7474C541.982 72.6501 545.474 77.8178 549.939 82.2414L551.52 80.6453ZM541.533 65.872C539.173 60.247 537.988 54.1596 537.988 47.5977H535.741C535.741 54.4368 536.978 60.822 539.461 66.7413L541.533 65.872ZM537.988 47.5977C537.988 41.1158 539.153 35.1088 541.473 29.5645L539.4 28.6972C536.957 34.5357 535.741 40.84 535.741 47.5977H537.988ZM541.473 29.5645C543.799 24.0052 547.048 19.1434 551.221 14.9702L549.633 13.3814C545.248 17.7655 541.837 22.8737 539.4 28.6972L541.473 29.5645ZM551.221 14.9702C555.395 10.7969 560.256 7.54813 565.816 5.22191L564.948 3.14918C559.125 5.58598 554.017 8.99733 549.633 13.3814L551.221 14.9702ZM565.813 5.223C571.398 2.9023 577.447 1.73672 583.97 1.73672V-0.510156C577.173 -0.510156 570.829 0.705774 564.951 3.1481L565.813 5.223ZM583.97 1.73672C590.093 1.73672 596.057 2.80276 601.868 4.93735L602.642 2.82828C596.586 0.603494 590.36 -0.510156 583.97 -0.510156V1.73672ZM601.868 4.93735C607.678 7.07187 612.89 10.1128 617.51 14.061L618.969 12.353C614.144 8.22839 608.699 5.05313 602.642 2.82828L601.868 4.93735ZM617.445 12.4126L602.006 27.8521L603.594 29.4409L619.034 14.0014L617.445 12.4126ZM633.861 82.8359L632.904 82.2468L632.376 83.1044L633.171 83.7227L633.861 82.8359ZM645.122 64.5508L645.814 63.6653L644.824 62.8926L644.166 63.9616L645.122 64.5508ZM653.357 70.1816L652.799 71.1571L652.806 71.1608L653.357 70.1816ZM660.864 73.3906L660.558 74.4715L660.569 74.4745L660.579 74.4773L660.864 73.3906ZM674.79 73.5117L675.131 74.5823L675.142 74.5788L675.153 74.5751L674.79 73.5117ZM678.847 70.9688L677.994 70.2376L677.992 70.2402L678.847 70.9688ZM678.241 62.0078L679.036 61.2134L678.241 62.0078ZM672.732 58.3145L672.244 59.3264L672.251 59.3297L672.732 58.3145ZM665.284 55.0449L665.704 54.0029L665.704 54.0028L665.284 55.0449ZM656.384 51.1699L655.898 52.1828L655.909 52.188L656.384 51.1699ZM641.853 38.3945L640.859 38.9183L640.862 38.9239L641.853 38.3945ZM643.73 13.0254L642.814 12.375L642.812 12.3768L643.73 13.0254ZM655.415 3.82227L655.856 4.85575L655.86 4.854L655.415 3.82227ZM702.157 8.12109L703.169 8.61075L703.654 7.60925L702.657 7.11471L702.157 8.12109ZM692.833 27.375L692.247 28.3336L693.304 28.9796L693.844 27.8647L692.833 27.375ZM683.267 23.1367L682.927 24.2074L682.934 24.2098L682.942 24.2121L683.267 23.1367ZM668.614 22.2891L668.242 21.2291L668.233 21.2324L668.614 22.2891ZM665.224 24.5898L666.087 25.3091L666.094 25.3004L666.101 25.2916L665.224 24.5898ZM666.071 32.7637L665.277 33.5581L665.283 33.564L665.289 33.5698L666.071 32.7637ZM678.907 39.9082L678.455 40.9368L678.463 40.9401L678.907 39.9082ZM687.808 44.0859L687.3 45.0881L687.305 45.0908L687.808 44.0859ZM696.224 49.5352L695.509 50.4016L695.515 50.4071L696.224 49.5352ZM702.46 57.1035L701.469 57.6329L701.472 57.6386L702.46 57.1035ZM700.341 81.9883L699.429 81.3328L699.427 81.3344L700.341 81.9883ZM687.929 91.6152L687.484 90.5838L687.481 90.5851L687.929 91.6152ZM634.817 83.4251L646.079 65.1399L644.166 63.9616L632.904 82.2468L634.817 83.4251ZM644.431 65.4363C647.409 67.7616 650.199 69.6711 652.799 71.1571L653.914 69.2062C651.429 67.7859 648.729 65.9415 645.814 63.6653L644.431 65.4363ZM652.806 71.1608C655.453 72.6499 658.038 73.7574 660.558 74.4715L661.171 72.3097C658.848 71.6515 656.427 70.6196 653.907 69.2025L652.806 71.1608ZM660.579 74.4773C663.135 75.1475 665.733 75.4828 668.372 75.4828V73.2359C665.926 73.2359 663.519 72.9254 661.149 72.3039L660.579 74.4773ZM668.372 75.4828C670.954 75.4828 673.214 75.1921 675.131 74.5823L674.45 72.4412C672.814 72.9615 670.796 73.2359 668.372 73.2359V75.4828ZM675.153 74.5751C677.062 73.9241 678.608 72.9818 679.702 71.6973L677.992 70.2402C677.229 71.1354 676.07 71.8884 674.428 72.4484L675.153 74.5751ZM679.7 71.6999C680.849 70.3594 681.423 68.7658 681.423 66.9727H679.177C679.177 68.2473 678.782 69.3177 677.994 70.2376L679.7 71.6999ZM681.423 66.9727C681.423 64.7366 680.618 62.7961 679.036 61.2134L677.447 62.8022C678.609 63.9643 679.177 65.3337 679.177 66.9727H681.423ZM679.036 61.2134C677.549 59.7266 675.595 58.4279 673.213 57.2992L672.251 59.3297C674.469 60.3807 676.189 61.5443 677.447 62.8022L679.036 61.2134ZM673.22 57.3025C670.934 56.2003 668.428 55.1006 665.704 54.0029L664.864 56.0869C667.549 57.169 670.009 58.2489 672.244 59.3264L673.22 57.3025ZM665.704 54.0028C662.818 52.8403 659.869 51.5567 656.859 50.1519L655.909 52.188C658.953 53.6087 661.939 54.9084 664.865 56.087L665.704 54.0028ZM656.87 50.1571C653.919 48.7408 651.209 47.0314 648.735 45.0292L647.322 46.7755C649.934 48.8905 652.794 50.6928 655.898 52.1827L656.87 50.1571ZM648.735 45.0292C646.312 43.0671 644.349 40.6822 642.844 37.8652L640.862 38.9239C642.505 42.0001 644.659 44.6204 647.322 46.7755L648.735 45.0292ZM642.847 37.8707C641.377 35.0827 640.615 31.6398 640.615 27.4961H638.368C638.368 31.9096 639.18 35.7324 640.859 38.9183L642.847 37.8707ZM640.615 27.4961C640.615 22.0402 641.976 17.4522 644.647 13.674L642.812 12.3768C639.833 16.5908 638.368 21.6499 638.368 27.4961H640.615ZM644.646 13.6758C647.382 9.82221 651.106 6.88023 655.856 4.85574L654.975 2.78879C649.876 4.96222 645.809 8.15566 642.814 12.375L644.646 13.6758ZM655.86 4.854C660.664 2.78395 666.12 1.73672 672.247 1.73672V-0.510156C665.862 -0.510156 660.096 0.58194 654.971 2.79053L655.86 4.854ZM672.247 1.73672C676.709 1.73672 681.445 2.32905 686.458 3.52257L686.978 1.3368C681.819 0.108455 676.908 -0.510156 672.247 -0.510156V1.73672ZM686.458 3.52257C691.452 4.71177 696.519 6.57779 701.658 9.12748L702.657 7.11471C697.382 4.49773 692.155 2.56948 686.978 1.3368L686.458 3.52257ZM701.146 7.63144L691.822 26.8853L693.844 27.8647L703.169 8.61075L701.146 7.63144ZM693.419 26.4164C690.426 24.5874 687.149 23.1367 683.592 22.0614L682.942 24.2121C686.327 25.2357 689.428 26.6105 692.247 28.3336L693.419 26.4164ZM683.607 22.066C680.093 20.9498 676.828 20.3785 673.821 20.3785V22.6254C676.547 22.6254 679.579 23.144 682.927 24.2074L683.607 22.066ZM673.821 20.3785C671.747 20.3785 669.881 20.6534 668.242 21.2291L668.987 23.349C670.335 22.8753 671.94 22.6254 673.821 22.6254V20.3785ZM668.233 21.2324C666.623 21.8136 665.307 22.6881 664.347 23.888L666.101 25.2916C666.756 24.4734 667.699 23.814 668.996 23.3457L668.233 21.2324ZM664.361 23.8706C663.375 25.0533 662.889 26.4622 662.889 28.041H665.136C665.136 26.9558 665.458 26.0639 666.087 25.3091L664.361 23.8706ZM662.889 28.041C662.889 30.1441 663.716 31.9965 665.277 33.5581L666.866 31.9693C665.683 30.7861 665.136 29.49 665.136 28.041H662.889ZM665.289 33.5698C666.766 35.0031 668.686 36.2957 671.018 37.4619L672.023 35.4522C669.835 34.358 668.122 33.1883 666.854 31.9575L665.289 33.5698ZM671.018 37.4619C673.298 38.6015 675.777 39.7598 678.455 40.9367L679.359 38.8797C676.71 37.7155 674.265 36.573 672.023 35.4522L671.018 37.4619ZM678.463 40.9401C681.346 42.1815 684.292 43.564 687.3 45.0881L688.316 43.0838C685.269 41.5401 682.281 40.1375 679.352 38.8763L678.463 40.9401ZM687.305 45.0908C690.3 46.5882 693.034 48.3588 695.509 50.4016L696.939 48.6687C694.328 46.5136 691.451 44.6514 688.31 43.0811L687.305 45.0908ZM695.515 50.4071C697.982 52.4114 699.965 54.8176 701.469 57.6329L703.451 56.5741C701.807 53.4962 699.632 50.8568 696.932 48.6632L695.515 50.4071ZM701.472 57.6386C702.939 60.3464 703.698 63.6451 703.698 67.5781H705.945C705.945 63.3575 705.13 59.6731 703.448 56.5684L701.472 57.6386ZM703.698 67.5781C703.698 72.8082 702.269 77.3789 699.429 81.3328L701.253 82.6438C704.387 78.2826 705.945 73.2465 705.945 67.5781H703.698ZM699.427 81.3344C696.616 85.2624 692.652 88.352 687.484 90.5838L688.374 92.6466C693.862 90.2769 698.173 86.9485 701.255 82.6421L699.427 81.3344ZM687.481 90.5851C682.362 92.8125 676.364 93.943 669.462 93.943V96.1898C676.607 96.1898 682.921 95.0196 688.377 92.6454L687.481 90.5851ZM669.462 93.943C663.046 93.943 656.873 92.9136 650.939 90.8565L650.203 92.9794C656.379 95.1203 662.8 96.1898 669.462 96.1898V93.943ZM650.939 90.8565C645.001 88.798 639.54 85.8299 634.55 81.9491L633.171 83.7227C638.353 87.7535 644.032 90.84 650.203 92.9794L650.939 90.8565Z" fill="black" fill-opacity="0.15" mask="url(#path-1-outside-1_158_615)"/>
</svg>
