<svg width="765" height="106" viewBox="0 0 765 106" fill="none" xmlns="http://www.w3.org/2000/svg">
<mask id="path-1-outside-1_1715_2233" maskUnits="userSpaceOnUse" x="0" y="0" width="765" height="106" fill="black">
<rect fill="white" width="765" height="106"/>
<path d="M54.371 103.96C46.8783 103.96 39.952 102.697 33.5919 100.17C27.2755 97.6002 21.7649 94.0282 17.0602 89.4542C12.3991 84.8366 8.78345 79.4349 6.2133 73.2491C3.64315 67.0634 2.35807 60.3113 2.35807 52.9929C2.35807 45.6745 3.64315 38.9224 6.2133 32.7366C8.78345 26.5508 12.3991 21.1709 17.0602 16.5969C21.7649 11.9793 27.2755 8.40727 33.5919 5.88068C39.952 3.31053 46.8783 2.02545 54.371 2.02545C61.9072 2.02545 68.8335 3.31053 75.15 5.88068C81.4665 8.40727 86.9335 11.9793 91.5511 16.5969C96.2122 21.1709 99.8278 26.5508 102.398 32.7366C104.968 38.9224 106.253 45.6745 106.253 52.9929C106.253 60.3113 104.968 67.0634 102.398 73.2491C99.8278 79.4349 96.2122 84.8366 91.5511 89.4542C86.9335 94.0282 81.4665 97.6002 75.15 100.17C68.8335 102.697 61.9072 103.96 54.371 103.96ZM54.371 81.417C57.9866 81.417 61.3409 80.6982 64.4338 79.2607C67.5267 77.8231 70.2057 75.8193 72.4709 73.2491C74.7797 70.6354 76.5658 67.6079 77.8291 64.1665C79.1359 60.7251 79.7893 57.0006 79.7893 52.9929C79.7893 48.9852 79.1359 45.2606 77.8291 41.8192C76.5658 38.3779 74.7797 35.3721 72.4709 32.8019C70.2057 30.1882 67.5267 28.1626 64.4338 26.725C61.3409 25.2875 57.9866 24.5687 54.371 24.5687C50.7553 24.5687 47.3793 25.2875 44.2428 26.725C41.1499 28.1626 38.4491 30.1882 36.1403 32.8019C33.8315 35.3721 32.0237 38.3779 30.7169 41.8192C29.4536 45.2606 28.8219 48.9852 28.8219 52.9929C28.8219 57.0006 29.4536 60.7251 30.7169 64.1665C32.0237 67.6079 33.8315 70.6354 36.1403 73.2491C38.4491 75.8193 41.1499 77.8231 44.2428 79.2607C47.3793 80.6982 50.7553 81.417 54.371 81.417ZM116.708 102V3.98573H179.437V26.529H142.584V41.6886H176.823V64.2318H142.584V102H116.708ZM191.852 102V3.98573H254.581V26.529H217.728V41.6886H251.968V64.2318H217.728V102H191.852ZM266.997 102V3.98573H332.339V26.529H292.872V41.6886H329.726V64.2318H292.872V79.4567H332.993V102H266.997ZM432.183 102H403.563L384.875 69.5899H371.284V102H345.408V3.98573H386.835C395.33 3.98573 402.561 5.27081 408.529 7.84096C414.497 10.4111 419.049 14.1574 422.186 19.0799C425.366 23.9589 426.956 29.8615 426.956 36.7878C426.956 43.2786 425.562 48.8763 422.774 53.581C419.986 58.2856 415.956 61.9884 410.686 64.6892L432.183 102ZM371.284 49.6604H384.81C389.994 49.6604 393.892 48.702 396.506 46.7853C399.163 44.825 400.492 41.9281 400.492 38.0947C400.492 34.2613 399.163 31.3862 396.506 29.4694C393.892 27.5092 389.994 26.529 384.81 26.529H371.284V49.6604ZM440.024 102V3.98573H465.9V102H440.024ZM570.579 102H540.13L504.845 43.8449V102H478.969V3.98573H509.419L544.704 62.3369V3.98573H570.579V102ZM652.193 32.2792C649.84 29.8397 646.965 27.9448 643.567 26.5944C640.17 25.2439 636.51 24.5687 632.59 24.5687C628.8 24.5687 625.359 25.2222 622.266 26.529C619.216 27.7923 616.581 29.6437 614.359 32.0832C612.181 34.5226 610.482 37.4413 609.262 40.8391C608.086 44.2369 607.498 48.0704 607.498 52.3394C607.498 56.6956 608.13 60.6598 609.393 64.2318C610.656 67.8039 612.464 70.875 614.817 73.4452C617.169 75.9718 619.957 77.9321 623.18 79.326C626.448 80.72 630.063 81.417 634.027 81.417C636.99 81.417 639.69 81.0249 642.13 80.2408C644.569 79.4567 646.726 78.3023 648.599 76.7777C650.472 75.253 652.062 73.3798 653.369 71.1582C654.676 68.893 655.678 66.3228 656.375 63.4477H632.916V43.8449H679.114L679.833 53.7116C679.833 61.1607 678.7 67.9782 676.435 74.1639C674.213 80.3062 671.033 85.5989 666.895 90.0423C662.756 94.4856 657.812 97.927 652.062 100.366C646.355 102.762 639.995 103.96 632.982 103.96C625.663 103.96 618.846 102.675 612.53 100.105C606.257 97.4913 600.746 93.8757 595.998 89.2581C591.293 84.597 587.612 79.1518 584.955 72.9224C582.341 66.6931 581.034 59.9628 581.034 52.7315C581.034 45.5873 582.319 38.9442 584.89 32.8019C587.46 26.6597 591.054 21.2798 595.671 16.6622C600.289 12.0447 605.669 8.45083 611.811 5.88068C617.997 3.31053 624.683 2.02545 631.871 2.02545C638.623 2.02545 645.201 3.20162 651.605 5.55396C658.008 7.90631 663.758 11.2606 668.855 15.6168L652.193 32.2792ZM685.714 90.761L697.867 71.0275C701.047 73.5105 704.01 75.5361 706.754 77.1044C709.542 78.6726 712.243 79.827 714.856 80.5675C717.514 81.2645 720.215 81.613 722.959 81.613C725.66 81.613 727.969 81.3081 729.885 80.6982C731.802 80.0448 733.261 79.13 734.263 77.9538C735.309 76.7341 735.831 75.2966 735.831 73.6412C735.831 71.5502 735.091 69.7642 733.61 68.2831C732.129 66.802 730.147 65.4734 727.664 64.2972C725.224 63.121 722.545 61.9448 719.626 60.7687C716.49 59.5054 713.288 58.1114 710.021 56.5867C706.754 55.0185 703.748 53.1236 701.004 50.9019C698.259 48.6802 696.038 45.9794 694.339 42.7994C692.64 39.5758 691.79 35.6552 691.79 31.0377C691.79 24.939 693.315 19.7334 696.364 15.4207C699.457 11.0645 703.661 7.75384 708.976 5.48862C714.334 3.17984 720.389 2.02545 727.141 2.02545C732.063 2.02545 737.269 2.67888 742.758 3.98573C748.247 5.29259 753.801 7.34 759.42 10.128L749.357 30.907C746.221 28.9903 742.78 27.4656 739.033 26.333C735.331 25.1568 731.933 24.5687 728.84 24.5687C726.705 24.5687 724.832 24.8519 723.22 25.4182C721.652 25.9845 720.432 26.8122 719.561 27.9012C718.69 28.9467 718.254 30.1882 718.254 31.6258C718.254 33.5425 718.995 35.2414 720.476 36.7225C721.957 38.16 723.917 39.4887 726.357 40.7084C728.796 41.9281 731.454 43.1697 734.329 44.433C737.465 45.7834 740.667 47.2863 743.934 48.9416C747.245 50.597 750.272 52.5572 753.017 54.8225C755.805 57.0877 758.048 59.8103 759.747 62.9903C761.446 66.1268 762.295 69.8949 762.295 74.2946C762.295 80.1755 760.684 85.3594 757.46 89.8462C754.28 94.2895 749.815 97.7527 744.065 100.236C738.358 102.719 731.715 103.96 724.135 103.96C717.078 103.96 710.282 102.828 703.748 100.562C697.214 98.2972 691.202 95.0301 685.714 90.761Z"/>
</mask>
<path d="M33.5919 100.17L32.8382 102.023L32.8459 102.026L32.8536 102.029L33.5919 100.17ZM17.0602 89.4542L15.6527 90.875L15.6593 90.8816L15.6661 90.8882L17.0602 89.4542ZM17.0602 16.5969L18.461 18.0244L18.4611 18.0243L17.0602 16.5969ZM33.5919 5.88068L34.3347 7.73764L34.3413 7.73499L33.5919 5.88068ZM75.15 5.88068L74.3962 7.73322L74.4072 7.73763L75.15 5.88068ZM91.5511 16.5969L90.1368 18.0111L90.1435 18.0178L90.1502 18.0244L91.5511 16.5969ZM102.398 32.7366L100.551 33.504L102.398 32.7366ZM102.398 73.2491L100.551 72.4818L102.398 73.2491ZM91.5511 89.4542L92.9585 90.8751L92.9586 90.875L91.5511 89.4542ZM75.15 100.17L75.8928 102.027L75.9038 102.023L75.15 100.17ZM64.4338 79.2607L65.2767 81.0744L64.4338 79.2607ZM72.4709 73.2491L70.972 71.9251L70.9705 71.9267L72.4709 73.2491ZM77.8291 64.1665L75.9593 63.4565L75.9554 63.4669L75.9516 63.4773L77.8291 64.1665ZM77.8291 41.8192L75.9516 42.5084L75.9554 42.5189L75.9593 42.5293L77.8291 41.8192ZM72.4709 32.8019L70.9596 34.1118L70.9712 34.1252L70.9831 34.1385L72.4709 32.8019ZM64.4338 26.725L65.2767 24.9114L64.4338 26.725ZM44.2428 26.725L43.4095 24.9069L43.3999 24.9114L44.2428 26.725ZM36.1403 32.8019L37.6282 34.1385L37.6337 34.1323L37.6393 34.126L36.1403 32.8019ZM30.7169 41.8192L28.8471 41.1092L28.8432 41.1196L28.8394 41.13L30.7169 41.8192ZM30.7169 64.1665L28.8394 64.8557L28.8432 64.8661L28.8471 64.8765L30.7169 64.1665ZM36.1403 73.2491L34.6414 74.5732L34.6469 74.5795L34.6525 74.5857L36.1403 73.2491ZM44.2428 79.2607L43.3998 81.0744L43.4095 81.0788L44.2428 79.2607ZM54.371 101.96C47.1071 101.96 40.434 100.736 34.3303 98.3117L32.8536 102.029C39.4699 104.658 46.6495 105.96 54.371 105.96V101.96ZM34.3457 98.3179C28.2581 95.8409 22.9673 92.4077 18.4544 88.0202L15.6661 90.8882C20.5625 95.6486 26.2928 99.3596 32.8382 102.023L34.3457 98.3179ZM18.4678 88.0333C13.999 83.6063 10.5309 78.428 8.06022 72.4818L4.36638 74.0165C7.03605 80.4419 10.7992 86.0669 15.6527 90.875L18.4678 88.0333ZM8.06022 72.4818C5.60013 66.5609 4.35807 60.0724 4.35807 52.9929H0.358071C0.358071 60.5501 1.68617 67.5659 4.36638 74.0165L8.06022 72.4818ZM4.35807 52.9929C4.35807 45.9133 5.60013 39.4249 8.06022 33.504L4.36638 31.9692C1.68617 38.4199 0.358071 45.4356 0.358071 52.9929H4.35807ZM8.06022 33.504C10.5302 27.5594 13.9963 22.4056 18.461 18.0244L15.6594 15.1694C10.8018 19.9362 7.03675 25.5422 4.36638 31.9692L8.06022 33.504ZM18.4611 18.0243C22.9709 13.598 28.2559 10.1692 34.3347 7.73763L32.8492 4.02372C26.2951 6.64536 20.5588 10.3607 15.6593 15.1695L18.4611 18.0243ZM34.3413 7.73499C40.4421 5.2696 47.1113 4.02545 54.371 4.02545V0.0254494C46.6453 0.0254494 39.4619 1.35145 32.8426 4.02636L34.3413 7.73499ZM54.371 4.02545C61.676 4.02545 68.3431 5.2702 74.3962 7.73319L75.9038 4.02816C69.324 1.35085 62.1384 0.0254494 54.371 0.0254494V4.02545ZM74.4072 7.73763C80.4829 10.1679 85.7188 13.5931 90.1368 18.0111L92.9653 15.1827C88.1482 10.3656 82.45 6.64662 75.8928 4.02372L74.4072 7.73763ZM90.1502 18.0244C94.6149 22.4056 98.0811 27.5594 100.551 33.504L104.245 31.9692C101.575 25.5422 97.8094 19.9362 92.9519 15.1694L90.1502 18.0244ZM100.551 33.504C103.011 39.4249 104.253 45.9133 104.253 52.9929H108.253C108.253 45.4356 106.925 38.4199 104.245 31.9692L100.551 33.504ZM104.253 52.9929C104.253 60.0724 103.011 66.5609 100.551 72.4818L104.245 74.0165C106.925 67.5659 108.253 60.5501 108.253 52.9929H104.253ZM100.551 72.4818C98.0804 78.428 94.6123 83.6063 90.1435 88.0333L92.9586 90.875C97.812 86.0669 101.575 80.4419 104.245 74.0165L100.551 72.4818ZM90.1436 88.0333C85.7225 92.4126 80.4807 95.8421 74.3962 98.3179L75.9038 102.023C82.4523 99.3584 88.1445 95.6437 92.9585 90.8751L90.1436 88.0333ZM74.4072 98.3134C68.3512 100.736 61.6802 101.96 54.371 101.96V105.96C62.1342 105.96 69.3159 104.658 75.8928 102.027L74.4072 98.3134ZM54.371 83.417C58.2599 83.417 61.904 82.642 65.2767 81.0744L63.5908 77.447C60.7777 78.7545 57.7133 79.417 54.371 79.417V83.417ZM65.2767 81.0744C68.6215 79.5197 71.5242 77.3482 73.9714 74.5716L70.9705 71.9267C68.8873 74.2904 66.4318 76.1266 63.5908 77.447L65.2767 81.0744ZM73.9699 74.5732C76.4515 71.7638 78.3621 68.5183 79.7066 64.8557L75.9516 63.4773C74.7695 66.6975 73.1079 69.5071 70.972 71.9251L73.9699 74.5732ZM79.6988 64.8765C81.0991 61.189 81.7893 57.2216 81.7893 52.9929H77.7893C77.7893 56.7795 77.1727 60.2612 75.9593 63.4565L79.6988 64.8765ZM81.7893 52.9929C81.7893 48.7641 81.0991 44.7968 79.6988 41.1092L75.9593 42.5293C77.1727 45.7245 77.7893 49.2062 77.7893 52.9929H81.7893ZM79.7066 41.13C78.3611 37.4648 76.4476 34.236 73.9588 31.4654L70.9831 34.1385C73.1119 36.5082 74.7704 39.2909 75.9516 42.5084L79.7066 41.13ZM73.9823 31.4921C71.535 28.6683 68.6292 26.4695 65.2767 24.9114L63.5908 28.5387C66.4242 29.8556 68.8764 31.7082 70.9596 34.1118L73.9823 31.4921ZM65.2767 24.9114C61.904 23.3438 58.2599 22.5687 54.371 22.5687V26.5687C57.7133 26.5687 60.7777 27.2312 63.5908 28.5387L65.2767 24.9114ZM54.371 22.5687C50.4818 22.5687 46.82 23.3438 43.4095 24.9069L45.0761 28.5432C47.9386 27.2312 51.0288 26.5687 54.371 26.5687V22.5687ZM43.3999 24.9114C40.0512 26.4678 37.1285 28.6622 34.6414 31.4779L37.6393 34.126C39.7697 31.7142 42.2487 29.8574 45.0858 28.5387L43.3999 24.9114ZM34.6525 31.4654C32.1683 34.2308 30.2358 37.4525 28.8471 41.1092L32.5866 42.5293C33.8117 39.3032 35.4948 36.5134 37.6282 34.1385L34.6525 31.4654ZM28.8394 41.13C27.4878 44.8118 26.8219 48.7719 26.8219 52.9929H30.8219C30.8219 49.1984 31.4193 45.7094 32.5944 42.5084L28.8394 41.13ZM26.8219 52.9929C26.8219 57.2138 27.4878 61.1739 28.8394 64.8557L32.5944 63.4773C31.4193 60.2763 30.8219 56.7873 30.8219 52.9929H26.8219ZM28.8471 64.8765C30.2348 68.5306 32.1643 71.769 34.6414 74.5732L37.6393 71.9251C35.4988 69.5019 33.8127 66.6852 32.5866 63.4565L28.8471 64.8765ZM34.6525 74.5857C37.1394 77.3541 40.0587 79.5214 43.3999 81.0744L45.0858 77.447C42.2411 76.1248 39.7588 74.2845 37.6282 71.9126L34.6525 74.5857ZM43.4095 81.0788C46.82 82.6419 50.4818 83.417 54.371 83.417V79.417C51.0288 79.417 47.9386 78.7545 45.0761 77.4426L43.4095 81.0788ZM116.708 102H114.708V104H116.708V102ZM116.708 3.98573V1.98573H114.708V3.98573H116.708ZM179.437 3.98573H181.437V1.98573H179.437V3.98573ZM179.437 26.529V28.529H181.437V26.529H179.437ZM142.584 26.529V24.529H140.584V26.529H142.584ZM142.584 41.6886H140.584V43.6886H142.584V41.6886ZM176.823 41.6886H178.823V39.6886H176.823V41.6886ZM176.823 64.2318V66.2318H178.823V64.2318H176.823ZM142.584 64.2318V62.2318H140.584V64.2318H142.584ZM142.584 102V104H144.584V102H142.584ZM118.708 102V3.98573H114.708V102H118.708ZM116.708 5.98573H179.437V1.98573H116.708V5.98573ZM177.437 3.98573V26.529H181.437V3.98573H177.437ZM179.437 24.529H142.584V28.529H179.437V24.529ZM140.584 26.529V41.6886H144.584V26.529H140.584ZM142.584 43.6886H176.823V39.6886H142.584V43.6886ZM174.823 41.6886V64.2318H178.823V41.6886H174.823ZM176.823 62.2318H142.584V66.2318H176.823V62.2318ZM140.584 64.2318V102H144.584V64.2318H140.584ZM142.584 100H116.708V104H142.584V100ZM191.852 102H189.852V104H191.852V102ZM191.852 3.98573V1.98573H189.852V3.98573H191.852ZM254.581 3.98573H256.581V1.98573H254.581V3.98573ZM254.581 26.529V28.529H256.581V26.529H254.581ZM217.728 26.529V24.529H215.728V26.529H217.728ZM217.728 41.6886H215.728V43.6886H217.728V41.6886ZM251.968 41.6886H253.968V39.6886H251.968V41.6886ZM251.968 64.2318V66.2318H253.968V64.2318H251.968ZM217.728 64.2318V62.2318H215.728V64.2318H217.728ZM217.728 102V104H219.728V102H217.728ZM193.852 102V3.98573H189.852V102H193.852ZM191.852 5.98573H254.581V1.98573H191.852V5.98573ZM252.581 3.98573V26.529H256.581V3.98573H252.581ZM254.581 24.529H217.728V28.529H254.581V24.529ZM215.728 26.529V41.6886H219.728V26.529H215.728ZM217.728 43.6886H251.968V39.6886H217.728V43.6886ZM249.968 41.6886V64.2318H253.968V41.6886H249.968ZM251.968 62.2318H217.728V66.2318H251.968V62.2318ZM215.728 64.2318V102H219.728V64.2318H215.728ZM217.728 100H191.852V104H217.728V100ZM266.997 102H264.997V104H266.997V102ZM266.997 3.98573V1.98573H264.997V3.98573H266.997ZM332.339 3.98573H334.339V1.98573H332.339V3.98573ZM332.339 26.529V28.529H334.339V26.529H332.339ZM292.872 26.529V24.529H290.872V26.529H292.872ZM292.872 41.6886H290.872V43.6886H292.872V41.6886ZM329.726 41.6886H331.726V39.6886H329.726V41.6886ZM329.726 64.2318V66.2318H331.726V64.2318H329.726ZM292.872 64.2318V62.2318H290.872V64.2318H292.872ZM292.872 79.4567H290.872V81.4567H292.872V79.4567ZM332.993 79.4567H334.993V77.4567H332.993V79.4567ZM332.993 102V104H334.993V102H332.993ZM268.997 102V3.98573H264.997V102H268.997ZM266.997 5.98573H332.339V1.98573H266.997V5.98573ZM330.339 3.98573V26.529H334.339V3.98573H330.339ZM332.339 24.529H292.872V28.529H332.339V24.529ZM290.872 26.529V41.6886H294.872V26.529H290.872ZM292.872 43.6886H329.726V39.6886H292.872V43.6886ZM327.726 41.6886V64.2318H331.726V41.6886H327.726ZM329.726 62.2318H292.872V66.2318H329.726V62.2318ZM290.872 64.2318V79.4567H294.872V64.2318H290.872ZM292.872 81.4567H332.993V77.4567H292.872V81.4567ZM330.993 79.4567V102H334.993V79.4567H330.993ZM332.993 100H266.997V104H332.993V100ZM432.183 102V104H435.644L433.916 101.002L432.183 102ZM403.563 102L401.831 102.999L402.408 104H403.563V102ZM384.875 69.5899L386.608 68.5909L386.031 67.5899H384.875V69.5899ZM371.284 69.5899V67.5899H369.284V69.5899H371.284ZM371.284 102V104H373.284V102H371.284ZM345.408 102H343.408V104H345.408V102ZM345.408 3.98573V1.98573H343.408V3.98573H345.408ZM408.529 7.84096L409.32 6.00406L408.529 7.84096ZM422.186 19.0799L420.499 20.1546L420.505 20.1634L420.51 20.172L422.186 19.0799ZM410.686 64.6892L409.773 62.9093L407.904 63.8674L408.953 65.6877L410.686 64.6892ZM371.284 49.6604H369.284V51.6604H371.284V49.6604ZM396.506 46.7853L397.689 48.3981L397.693 48.3947L396.506 46.7853ZM396.506 29.4694L395.306 31.0694L395.321 31.0806L395.336 31.0915L396.506 29.4694ZM371.284 26.529V24.529H369.284V26.529H371.284ZM432.183 100H403.563V104H432.183V100ZM405.296 101.001L386.608 68.5909L383.142 70.589L401.831 102.999L405.296 101.001ZM384.875 67.5899H371.284V71.5899H384.875V67.5899ZM369.284 69.5899V102H373.284V69.5899H369.284ZM371.284 100H345.408V104H371.284V100ZM347.408 102V3.98573H343.408V102H347.408ZM345.408 5.98573H386.835V1.98573H345.408V5.98573ZM386.835 5.98573C395.138 5.98573 402.084 7.2429 407.738 9.67786L409.32 6.00406C403.038 3.29872 395.522 1.98573 386.835 1.98573V5.98573ZM407.738 9.67786C413.381 12.1081 417.602 15.608 420.499 20.1546L423.873 18.0052C420.497 12.7069 415.613 8.7141 409.32 6.00406L407.738 9.67786ZM420.51 20.172C423.441 24.6688 424.956 30.1747 424.956 36.7878H428.956C428.956 29.5483 427.29 23.2489 423.861 17.9879L420.51 20.172ZM424.956 36.7878C424.956 42.9873 423.627 48.2186 421.053 52.5613L424.495 54.6006C427.497 49.5339 428.956 43.5698 428.956 36.7878H424.956ZM421.053 52.5613C418.474 56.9144 414.738 60.3657 409.773 62.9093L411.598 66.4692C417.175 63.6111 421.498 59.6568 424.495 54.6006L421.053 52.5613ZM408.953 65.6877L430.45 102.998L433.916 101.002L412.418 63.6908L408.953 65.6877ZM371.284 51.6604H384.81V47.6604H371.284V51.6604ZM384.81 51.6604C390.183 51.6604 394.581 50.6769 397.689 48.3981L395.323 45.1725C393.203 46.7271 389.804 47.6604 384.81 47.6604V51.6604ZM397.693 48.3947C400.949 45.9933 402.492 42.4468 402.492 38.0947H398.492C398.492 41.4095 397.378 43.6567 395.319 45.1758L397.693 48.3947ZM402.492 38.0947C402.492 33.7433 400.948 30.2075 397.676 27.8474L395.336 31.0915C397.379 32.5648 398.492 34.7792 398.492 38.0947H402.492ZM397.706 27.8694C394.596 25.5368 390.19 24.529 384.81 24.529V28.529C389.797 28.529 393.189 29.4815 395.306 31.0694L397.706 27.8694ZM384.81 24.529H371.284V28.529H384.81V24.529ZM369.284 26.529V49.6604H373.284V26.529H369.284ZM440.024 102H438.024V104H440.024V102ZM440.024 3.98573V1.98573H438.024V3.98573H440.024ZM465.9 3.98573H467.9V1.98573H465.9V3.98573ZM465.9 102V104H467.9V102H465.9ZM442.024 102V3.98573H438.024V102H442.024ZM440.024 5.98573H465.9V1.98573H440.024V5.98573ZM463.9 3.98573V102H467.9V3.98573H463.9ZM465.9 100H440.024V104H465.9V100ZM570.579 102V104H572.579V102H570.579ZM540.13 102L538.42 103.037L539.004 104H540.13V102ZM504.845 43.8449L506.554 42.8074L502.845 36.693V43.8449H504.845ZM504.845 102V104H506.845V102H504.845ZM478.969 102H476.969V104H478.969V102ZM478.969 3.98573V1.98573H476.969V3.98573H478.969ZM509.419 3.98573L511.13 2.95083L510.546 1.98573H509.419V3.98573ZM544.704 62.3369L542.992 63.3718L546.704 69.5094V62.3369H544.704ZM544.704 3.98573V1.98573H542.704V3.98573H544.704ZM570.579 3.98573H572.579V1.98573H570.579V3.98573ZM570.579 100H540.13V104H570.579V100ZM541.84 100.963L506.554 42.8074L503.135 44.8823L538.42 103.037L541.84 100.963ZM502.845 43.8449V102H506.845V43.8449H502.845ZM504.845 100H478.969V104H504.845V100ZM480.969 102V3.98573H476.969V102H480.969ZM478.969 5.98573H509.419V1.98573H478.969V5.98573ZM507.707 5.02064L542.992 63.3718L546.415 61.302L511.13 2.95083L507.707 5.02064ZM546.704 62.3369V3.98573H542.704V62.3369H546.704ZM544.704 5.98573H570.579V1.98573H544.704V5.98573ZM568.579 3.98573V102H572.579V3.98573H568.579ZM652.193 32.2792L650.753 33.6675L652.167 35.1336L653.607 33.6934L652.193 32.2792ZM622.266 26.529L623.031 28.3768L623.044 28.3713L622.266 26.529ZM614.359 32.0832L612.88 30.7365L612.874 30.7438L612.867 30.7511L614.359 32.0832ZM609.262 40.8391L607.38 40.1634L607.376 40.1741L607.372 40.1849L609.262 40.8391ZM609.393 64.2318L607.508 64.8987L609.393 64.2318ZM614.817 73.4452L613.341 74.7955L613.347 74.8018L613.353 74.808L614.817 73.4452ZM623.18 79.326L622.387 81.1618L622.396 81.1656L623.18 79.326ZM642.13 80.2408L642.742 82.1449L642.13 80.2408ZM653.369 71.1582L655.093 72.1722L655.097 72.1649L655.101 72.1576L653.369 71.1582ZM656.375 63.4477L658.318 63.9189L658.917 61.4477H656.375V63.4477ZM632.916 63.4477H630.916V65.4477H632.916V63.4477ZM632.916 43.8449V41.8449H630.916V43.8449H632.916ZM679.114 43.8449L681.109 43.6996L680.973 41.8449H679.114V43.8449ZM679.833 53.7116H681.833V53.6389L681.827 53.5663L679.833 53.7116ZM676.435 74.1639L674.557 73.4762L674.554 73.4837L676.435 74.1639ZM652.062 100.366L652.836 102.211L652.843 102.208L652.062 100.366ZM612.53 100.105L611.76 101.951L611.768 101.954L611.776 101.958L612.53 100.105ZM595.998 89.2581L594.59 90.6789L594.597 90.6855L594.603 90.692L595.998 89.2581ZM584.955 72.9224L583.111 73.6963L583.115 73.7072L584.955 72.9224ZM584.89 32.8019L583.045 32.0299L584.89 32.8019ZM595.671 16.6622L594.257 15.248L595.671 16.6622ZM611.811 5.88068L611.043 4.03375L611.039 4.03569L611.811 5.88068ZM668.855 15.6168L670.269 17.031L671.799 15.5016L670.155 14.0964L668.855 15.6168ZM653.632 30.8909C651.067 28.2308 647.947 26.1829 644.306 24.7358L642.829 28.453C645.983 29.7067 648.613 31.4486 650.753 33.6675L653.632 30.8909ZM644.306 24.7358C640.657 23.2853 636.745 22.5687 632.59 22.5687V26.5687C636.276 26.5687 639.682 27.2025 642.829 28.453L644.306 24.7358ZM632.59 22.5687C628.567 22.5687 624.856 23.2632 621.487 24.6867L623.044 28.3713C625.861 27.1811 629.033 26.5687 632.59 26.5687V22.5687ZM621.5 24.6813C618.179 26.0571 615.3 28.0795 612.88 30.7365L615.838 33.4298C617.861 31.2078 620.253 29.5275 623.031 28.3767L621.5 24.6813ZM612.867 30.7511C610.501 33.4012 608.678 36.5489 607.38 40.1634L611.145 41.5148C612.287 38.3337 613.861 35.644 615.851 33.4152L612.867 30.7511ZM607.372 40.1849C606.111 43.8284 605.498 47.8883 605.498 52.3394H609.498C609.498 48.2524 610.061 44.6455 611.152 41.4933L607.372 40.1849ZM605.498 52.3394C605.498 56.8893 606.158 61.083 607.508 64.8987L611.279 63.565C610.101 60.2365 609.498 56.5019 609.498 52.3394H605.498ZM607.508 64.8987C608.852 68.7015 610.792 72.0106 613.341 74.7955L616.292 72.0949C614.136 69.7394 612.46 66.9063 611.279 63.565L607.508 64.8987ZM613.353 74.808C615.897 77.5404 618.914 79.6601 622.387 81.1617L623.974 77.4903C621 76.204 618.441 74.4031 616.28 72.0823L613.353 74.808ZM622.396 81.1656C625.938 82.6771 629.825 83.417 634.027 83.417V79.417C630.302 79.417 626.957 78.7629 623.965 77.4865L622.396 81.1656ZM634.027 83.417C637.166 83.417 640.077 83.0016 642.742 82.1449L641.518 78.3368C639.304 79.0483 636.814 79.417 634.027 79.417V83.417ZM642.742 82.1449C645.404 81.2893 647.784 80.0199 649.861 78.3288L647.336 75.2265C645.668 76.5847 643.735 77.6241 641.518 78.3368L642.742 82.1449ZM649.861 78.3288C651.931 76.6441 653.673 74.585 655.093 72.1722L651.645 70.1441C650.451 72.1746 649.013 73.8619 647.336 75.2265L649.861 78.3288ZM655.101 72.1576C656.515 69.7073 657.582 66.9554 658.318 63.9189L654.431 62.9765C653.773 65.6902 652.836 68.0786 651.636 70.1587L655.101 72.1576ZM656.375 61.4477H632.916V65.4477H656.375V61.4477ZM634.916 63.4477V43.8449H630.916V63.4477H634.916ZM632.916 45.8449H679.114V41.8449H632.916V45.8449ZM677.119 43.9902L677.838 53.8569L681.827 53.5663L681.109 43.6996L677.119 43.9902ZM677.833 53.7116C677.833 60.9565 676.732 67.5376 674.557 73.4762L678.313 74.8517C680.669 68.4187 681.833 61.365 681.833 53.7116H677.833ZM674.554 73.4837C672.417 79.3919 669.372 84.4476 665.431 88.6792L668.358 91.4054C672.694 86.7503 676.009 81.2204 678.316 74.8442L674.554 73.4837ZM665.431 88.6792C661.49 92.911 656.78 96.1922 651.281 98.5253L652.843 102.208C658.844 99.6617 664.023 96.0601 668.358 91.4054L665.431 88.6792ZM651.288 98.5224C645.857 100.803 639.765 101.96 632.982 101.96V105.96C640.226 105.96 646.854 104.722 652.836 102.21L651.288 98.5224ZM632.982 101.96C625.903 101.96 619.343 100.718 613.283 98.2525L611.776 101.958C618.349 104.632 625.424 105.96 632.982 105.96V101.96ZM613.299 98.2589C607.252 95.7395 601.955 92.2617 597.392 87.8243L594.603 90.692C599.537 95.4897 605.261 99.2432 611.76 101.951L613.299 98.2589ZM597.405 87.8374C592.889 83.3625 589.353 78.1346 586.794 72.1377L583.115 73.7072C585.872 80.169 589.698 85.8316 594.59 90.6789L597.405 87.8374ZM586.799 72.1486C584.295 66.1812 583.034 59.716 583.034 52.7315H579.034C579.034 60.2095 580.387 67.205 583.111 73.6962L586.799 72.1486ZM583.034 52.7315C583.034 45.8329 584.274 39.4542 586.734 33.5739L583.045 32.0299C580.365 38.4341 579.034 45.3418 579.034 52.7315H583.034ZM586.734 33.5739C589.206 27.6669 592.655 22.5064 597.085 18.0765L594.257 15.248C589.452 20.0533 585.713 25.6525 583.045 32.0299L586.734 33.5739ZM597.085 18.0765C601.515 13.6466 606.676 10.1974 612.583 7.72567L611.039 4.03569C604.661 6.70427 599.062 10.4428 594.257 15.248L597.085 18.0765ZM612.578 7.7276C618.503 5.26571 624.927 4.02545 631.871 4.02545V0.0254494C624.439 0.0254494 617.49 1.35534 611.043 4.03375L612.578 7.7276ZM631.871 4.02545C638.385 4.02545 644.73 5.15924 650.915 7.4313L652.294 3.67662C645.672 1.244 638.861 0.0254494 631.871 0.0254494V4.02545ZM650.915 7.4313C657.1 9.70324 662.643 12.9379 667.556 17.1371L670.155 14.0964C664.874 9.58325 658.917 6.10937 652.294 3.67662L650.915 7.4313ZM667.441 14.2025L650.778 30.865L653.607 33.6934L670.269 17.031L667.441 14.2025ZM685.714 90.761L684.011 89.7122L683.07 91.2389L684.486 92.3397L685.714 90.761ZM697.867 71.0275L699.098 69.4511L697.336 68.0756L696.164 69.9787L697.867 71.0275ZM706.754 77.1044L705.762 78.8409L705.773 78.8475L706.754 77.1044ZM714.856 80.5675L714.311 82.4918L714.33 82.4971L714.349 82.5021L714.856 80.5675ZM729.885 80.6982L730.492 82.6041L730.511 82.5979L730.531 82.5913L729.885 80.6982ZM734.263 77.9538L732.745 76.6522L732.741 76.6569L734.263 77.9538ZM733.61 68.2831L735.024 66.8689L733.61 68.2831ZM727.664 64.2972L726.795 66.0988L726.807 66.1047L727.664 64.2972ZM719.626 60.7687L720.374 58.9136L720.374 58.9135L719.626 60.7687ZM710.021 56.5867L709.156 58.3898L709.165 58.3945L709.175 58.3991L710.021 56.5867ZM694.339 42.7994L692.569 43.7319L692.575 43.7418L694.339 42.7994ZM696.364 15.4207L694.734 14.2629L694.731 14.2661L696.364 15.4207ZM708.976 5.48862L709.76 7.32848L709.767 7.32536L708.976 5.48862ZM759.42 10.128L761.22 10.9997L762.084 9.21676L760.309 8.33634L759.42 10.128ZM749.357 30.907L748.315 32.6135L750.196 33.7635L751.157 31.7787L749.357 30.907ZM739.033 26.333L738.428 28.2391L738.441 28.2434L738.455 28.2474L739.033 26.333ZM723.22 25.4182L722.557 23.5313L722.549 23.5341L722.541 23.5371L723.22 25.4182ZM719.561 27.9012L721.098 29.1816L721.11 29.1662L721.123 29.1506L719.561 27.9012ZM720.476 36.7225L719.062 38.1367L719.072 38.1473L719.083 38.1577L720.476 36.7225ZM734.329 44.433L733.524 46.264L733.531 46.267L733.538 46.2699L734.329 44.433ZM743.934 48.9416L743.03 50.7257L743.04 50.7305L743.934 48.9416ZM753.017 54.8225L751.744 56.3649L751.749 56.3698L751.755 56.3747L753.017 54.8225ZM759.747 62.9903L757.983 63.9328L757.988 63.9429L759.747 62.9903ZM757.46 89.8462L755.836 88.6793L755.834 88.6822L757.46 89.8462ZM744.065 100.236L743.272 98.3996L743.267 98.4018L744.065 100.236ZM687.416 91.8099L699.57 72.0763L696.164 69.9787L684.011 89.7122L687.416 91.8099ZM696.636 72.6039C699.872 75.1307 702.915 77.2142 705.762 78.8409L707.746 75.3679C705.104 73.8581 702.222 71.8904 699.098 69.4511L696.636 72.6039ZM705.773 78.8475C708.675 80.4798 711.522 81.7015 714.311 82.4918L715.402 78.6433C712.964 77.9525 710.409 76.8654 707.734 75.3612L705.773 78.8475ZM714.349 82.5021C717.172 83.2425 720.043 83.613 722.959 83.613V79.613C720.386 79.613 717.856 79.2866 715.364 78.633L714.349 82.5021ZM722.959 83.613C725.8 83.613 728.325 83.2936 730.492 82.6041L729.279 78.7924C727.612 79.3226 725.52 79.613 722.959 79.613V83.613ZM730.531 82.5913C732.685 81.8569 734.489 80.7735 735.786 79.2508L732.741 76.6569C732.034 77.4865 730.919 78.2327 729.24 78.8052L730.531 82.5913ZM735.782 79.2554C737.148 77.6613 737.831 75.7581 737.831 73.6412H733.831C733.831 74.835 733.469 75.8069 732.745 76.6523L735.782 79.2554ZM737.831 73.6412C737.831 71.0188 736.879 68.7243 735.024 66.8689L732.196 69.6973C733.302 70.8041 733.831 72.0817 733.831 73.6412H737.831ZM735.024 66.8689C733.339 65.184 731.149 63.7351 728.52 62.4897L726.807 66.1047C729.144 67.2116 730.918 68.42 732.196 69.6973L735.024 66.8689ZM728.532 62.4956C726.047 61.2975 723.327 60.1037 720.374 58.9136L718.879 62.6237C721.763 63.7859 724.401 64.9445 726.795 66.0987L728.532 62.4956ZM720.374 58.9135C717.273 57.6644 714.104 56.2849 710.867 54.7744L709.175 58.3991C712.473 59.9379 715.707 61.3463 718.879 62.6238L720.374 58.9135ZM710.887 54.7837C707.756 53.281 704.883 51.4687 702.262 49.3474L699.745 52.4564C702.614 54.7784 705.752 56.756 709.156 58.3898L710.887 54.7837ZM702.262 49.3474C699.73 47.2975 697.678 44.8063 696.103 41.857L692.575 43.7418C694.397 47.1525 696.789 50.063 699.745 52.4564L702.262 49.3474ZM696.108 41.8669C694.596 38.9975 693.79 35.4151 693.79 31.0377H689.79C689.79 35.8954 690.684 40.1542 692.569 43.7319L696.108 41.8669ZM693.79 31.0377C693.79 25.2865 695.222 20.5001 697.997 16.5754L694.731 14.2661C691.408 18.9666 689.79 24.5915 689.79 31.0377H693.79ZM697.995 16.5786C700.857 12.548 704.756 9.4611 709.76 7.32847L708.191 3.64877C702.566 6.04657 698.058 9.58111 694.734 14.2629L697.995 16.5786ZM709.767 7.32536C714.839 5.1399 720.619 4.02545 727.141 4.02545V0.0254494C720.159 0.0254494 713.828 1.21978 708.184 3.65188L709.767 7.32536ZM727.141 4.02545C731.887 4.02545 736.936 4.65548 742.295 5.93135L743.221 2.04012C737.602 0.702275 732.24 0.0254494 727.141 0.0254494V4.02545ZM742.295 5.93135C747.621 7.1995 753.033 9.19151 758.531 11.9196L760.309 8.33634C754.569 5.48849 748.872 3.38569 743.221 2.04012L742.295 5.93135ZM757.62 9.25625L747.557 30.0353L751.157 31.7787L761.22 10.9997L757.62 9.25625ZM750.4 29.2004C747.11 27.1894 743.511 25.5973 739.612 24.4186L738.455 28.2474C742.048 29.3339 745.332 30.7911 748.315 32.6135L750.4 29.2004ZM739.639 24.4268C735.788 23.2037 732.183 22.5687 728.84 22.5687V26.5687C731.682 26.5687 734.873 27.11 738.428 28.2391L739.639 24.4268ZM728.84 22.5687C726.533 22.5687 724.428 22.8741 722.557 23.5313L723.883 27.3051C725.236 26.8297 726.877 26.5687 728.84 26.5687V22.5687ZM722.541 23.5371C720.694 24.2039 719.142 25.223 717.999 26.6518L721.123 29.1506C721.722 28.4013 722.61 27.7651 723.9 27.2993L722.541 23.5371ZM718.025 26.6208C716.836 28.0471 716.254 29.7488 716.254 31.6258H720.254C720.254 30.6276 720.544 29.8463 721.098 29.1816L718.025 26.6208ZM716.254 31.6258C716.254 34.1247 717.244 36.3188 719.062 38.1367L721.89 35.3083C720.746 34.1639 720.254 32.9602 720.254 31.6258H716.254ZM719.083 38.1577C720.75 39.7754 722.895 41.2135 725.462 42.4973L727.251 38.9196C724.94 37.7639 723.164 36.5447 721.869 35.2873L719.083 38.1577ZM725.462 42.4973C727.935 43.7338 730.623 44.9893 733.524 46.264L735.133 42.6019C732.284 41.35 729.657 40.1225 727.251 38.9196L725.462 42.4973ZM733.538 46.2699C736.633 47.6028 739.797 49.0878 743.03 50.7257L744.838 47.1575C741.536 45.4847 738.297 43.964 735.12 42.596L733.538 46.2699ZM743.04 50.7305C746.221 52.321 749.12 54.1997 751.744 56.3649L754.29 53.28C751.424 50.9148 748.269 48.873 744.828 47.1528L743.04 50.7305ZM751.755 56.3747C754.336 58.4715 756.409 60.9865 757.983 63.9328L761.511 62.0479C759.687 58.6341 757.273 55.7039 754.278 53.2702L751.755 56.3747ZM757.988 63.9429C759.496 66.7261 760.295 70.1509 760.295 74.2946H764.295C764.295 69.6389 763.396 65.5274 761.506 62.0378L757.988 63.9429ZM760.295 74.2946C760.295 79.7854 758.799 84.555 755.836 88.6793L759.084 91.0132C762.568 86.1637 764.295 80.5656 764.295 74.2946H760.295ZM755.834 88.6822C752.895 92.7888 748.738 96.0392 743.272 98.3996L744.858 102.072C750.892 99.4662 755.665 95.7903 759.086 91.0102L755.834 88.6822ZM743.267 98.4018C737.86 100.754 731.499 101.96 724.135 101.96V105.96C731.931 105.96 738.856 104.683 744.863 102.07L743.267 98.4018ZM724.135 101.96C717.296 101.96 710.723 100.863 704.403 98.6728L703.093 102.452C709.842 104.792 716.86 105.96 724.135 105.96V101.96ZM704.403 98.6728C698.077 96.4796 692.259 93.3179 686.941 89.1823L684.486 92.3397C690.146 96.7423 696.351 100.115 703.093 102.452L704.403 98.6728Z" fill="#252735" fill-opacity="0.4" mask="url(#path-1-outside-1_1715_2233)"/>
</svg>
