<svg width="745" height="88" viewBox="0 0 745 88" fill="none" xmlns="http://www.w3.org/2000/svg">
<mask id="path-1-outside-1_1220_1708" maskUnits="userSpaceOnUse" x="-0.104492" y="0.0969238" width="746" height="88" fill="black">
<rect fill="white" x="-0.104492" y="0.0969238" width="746" height="88"/>
<path d="M44.8476 86.7424C38.5581 86.7424 32.7439 85.682 27.4051 83.5611C22.1029 81.4037 17.4772 78.4052 13.5279 74.5656C9.61525 70.6895 6.58019 66.1552 4.42273 60.9627C2.26527 55.7701 1.18654 50.1022 1.18654 43.959C1.18654 37.8157 2.26527 32.1478 4.42273 26.9553C6.58019 21.7628 9.61525 17.2467 13.5279 13.4072C17.4772 9.53108 22.1029 6.53259 27.4051 4.4117C32.7439 2.25424 38.5581 1.17551 44.8476 1.17551C51.1737 1.17551 56.9879 2.25424 62.2901 4.4117C67.5923 6.53259 72.1815 9.53108 76.0576 13.4072C79.9703 17.2467 83.0054 21.7628 85.1628 26.9553C87.3203 32.1478 88.399 37.8157 88.399 43.959C88.399 50.1022 87.3203 55.7701 85.1628 60.9627C83.0054 66.1552 79.9703 70.6895 76.0576 74.5656C72.1815 78.4052 67.5923 81.4037 62.2901 83.5611C56.9879 85.682 51.1737 86.7424 44.8476 86.7424ZM44.8476 67.819C47.8827 67.819 50.6983 67.2156 53.2946 66.0089C55.8909 64.8022 58.1397 63.1201 60.0412 60.9627C61.9793 58.7686 63.4785 56.2272 64.539 53.3384C65.636 50.4496 66.1845 47.3231 66.1845 43.959C66.1845 40.5948 65.636 37.4683 64.539 34.5795C63.4785 31.6907 61.9793 29.1676 60.0412 27.0101C58.1397 24.8161 55.8909 23.1157 53.2946 21.909C50.6983 20.7023 47.8827 20.099 44.8476 20.099C41.8126 20.099 38.9786 20.7023 36.3458 21.909C33.7495 23.1157 31.4824 24.8161 29.5443 27.0101C27.6062 29.1676 26.0887 31.6907 24.9917 34.5795C23.9313 37.4683 23.401 40.5948 23.401 43.959C23.401 47.3231 23.9313 50.4496 24.9917 53.3384C26.0887 56.2272 27.6062 58.7686 29.5443 60.9627C31.4824 63.1201 33.7495 64.8022 36.3458 66.0089C38.9786 67.2156 41.8126 67.819 44.8476 67.819ZM170.894 2.82103V47.9631C170.894 56.0078 169.413 62.9373 166.451 68.7514C163.526 74.529 159.303 78.9719 153.781 82.0801C148.296 85.1883 141.714 86.7424 134.035 86.7424C126.392 86.7424 119.81 85.1883 114.288 82.0801C108.767 78.9719 104.525 74.529 101.563 68.7514C98.6378 62.9373 97.1751 56.0078 97.1751 47.9631V2.82103H118.896V45.0011C118.896 50.2302 119.426 54.5269 120.487 57.891C121.584 61.2552 123.247 63.76 125.478 65.4056C127.709 67.0145 130.561 67.819 134.035 67.819C137.509 67.819 140.361 67.0145 142.591 65.4056C144.822 63.76 146.467 61.2552 147.528 57.891C148.625 54.5269 149.173 50.2302 149.173 45.0011V2.82103H170.894ZM254.706 85.0969H230.681L214.994 57.891H203.585V85.0969H181.864V2.82103H216.64C223.77 2.82103 229.84 3.89976 234.85 6.05721C239.86 8.21467 243.681 11.3594 246.314 15.4915C248.983 19.587 250.318 24.5419 250.318 30.356C250.318 35.8045 249.148 40.5034 246.808 44.4526C244.467 48.4019 241.085 51.5101 236.66 53.7772L254.706 85.0969ZM203.585 41.1616H214.939C219.291 41.1616 222.564 40.3571 224.758 38.7482C226.988 37.1027 228.103 34.6709 228.103 31.453C228.103 28.2351 226.988 25.8217 224.758 24.2128C222.564 22.5672 219.291 21.7445 214.939 21.7445H203.585V41.1616ZM357.88 74.8947C354.004 78.6246 349.415 81.5316 344.112 83.616C338.847 85.7003 333.106 86.7424 326.889 86.7424C320.636 86.7424 314.841 85.682 309.502 83.5611C304.2 81.4037 299.574 78.4052 295.625 74.5656C291.712 70.6895 288.659 66.1552 286.465 60.9627C284.307 55.7701 283.228 50.1022 283.228 43.959C283.228 37.8157 284.307 32.1478 286.465 26.9553C288.659 21.7628 291.712 17.2467 295.625 13.4072C299.574 9.53108 304.2 6.53259 309.502 4.4117C314.841 2.25424 320.636 1.17551 326.889 1.17551C333.069 1.17551 338.774 2.23596 344.003 4.35685C349.268 6.44117 353.839 9.34825 357.715 13.0781L342.577 28.3266C340.675 25.7669 338.335 23.7557 335.556 22.293C332.813 20.8303 329.815 20.099 326.56 20.099C323.562 20.099 320.783 20.7023 318.223 21.909C315.663 23.1157 313.414 24.7978 311.476 26.9553C309.575 29.1127 308.094 31.6359 307.033 34.5247C305.973 37.4135 305.443 40.54 305.443 43.9041C305.443 47.3049 305.973 50.4496 307.033 53.3384C308.094 56.2272 309.575 58.7686 311.476 60.9627C313.414 63.1201 315.663 64.8022 318.223 66.0089C320.783 67.2156 323.562 67.819 326.56 67.819C329.815 67.819 332.813 67.0876 335.556 65.625C338.298 64.1623 340.62 62.1511 342.522 59.5914L357.88 74.8947ZM422.11 85.0969H366.162V2.82103H387.883V66.1735H422.11V85.0969ZM428.692 85.0969V2.82103H450.413V85.0969H428.692ZM461.383 85.0969V2.82103H516.234V21.7445H483.104V34.4698H514.04V53.3933H483.104V66.1735H516.782V85.0969H461.383ZM604.104 85.0969H578.544L548.925 36.2799V85.0969H527.204V2.82103H552.764L582.383 51.8026V2.82103H604.104V85.0969ZM654.677 85.0969H632.956V21.7445H610.138V2.82103H677.494V21.7445H654.677V85.0969ZM679.688 75.6626L689.891 59.0977C692.56 61.1821 695.047 62.8824 697.35 64.1988C699.691 65.5153 701.958 66.4843 704.152 67.1059C706.382 67.691 708.65 67.9835 710.953 67.9835C713.22 67.9835 715.158 67.7276 716.767 67.2156C718.376 66.6671 719.601 65.8992 720.442 64.9119C721.32 63.888 721.759 62.6813 721.759 61.2918C721.759 59.5365 721.137 58.0373 719.894 56.794C718.651 55.5507 716.987 54.4354 714.903 53.4481C712.855 52.4608 710.606 51.4735 708.156 50.4862C705.523 49.4258 702.835 48.2556 700.093 46.9758C697.35 45.6593 694.827 44.0687 692.523 42.2038C690.22 40.3388 688.355 38.0717 686.929 35.4023C685.503 32.6963 684.79 29.4053 684.79 25.5292C684.79 20.4098 686.069 16.04 688.629 12.4199C691.225 8.76318 694.754 5.98408 699.215 4.08259C703.713 2.14454 708.796 1.17551 714.464 1.17551C718.596 1.17551 722.966 1.72402 727.573 2.82103C732.18 3.91804 736.843 5.63669 741.56 7.97698L733.113 25.4195C730.48 23.8105 727.591 22.5307 724.447 21.5799C721.338 20.5926 718.486 20.099 715.89 20.099C714.098 20.099 712.526 20.3367 711.173 20.812C709.856 21.2874 708.832 21.9822 708.101 22.8963C707.37 23.774 707.004 24.8161 707.004 26.0228C707.004 27.6318 707.626 29.0579 708.869 30.3012C710.112 31.5079 711.758 32.6232 713.805 33.6471C715.853 34.6709 718.084 35.7131 720.497 36.7735C723.13 37.9071 725.818 39.1687 728.56 40.5582C731.339 41.9478 733.881 43.5933 736.185 45.4948C738.525 47.3963 740.408 49.6817 741.834 52.3511C743.26 54.9839 743.973 58.147 743.973 61.8403C743.973 66.7768 742.62 71.1283 739.914 74.8947C737.245 78.6246 733.497 81.5316 728.67 83.616C723.88 85.7003 718.303 86.7424 711.941 86.7424C706.017 86.7424 700.312 85.7917 694.827 83.8902C689.342 81.9887 684.296 79.2462 679.688 75.6626Z"/>
</mask>
<path d="M27.4051 83.5611L27.0282 84.4874L27.0359 84.4905L27.4051 83.5611ZM13.5279 74.5656L12.8241 75.2761L12.8308 75.2826L13.5279 74.5656ZM13.5279 13.4072L14.2283 14.1209L14.2284 14.1209L13.5279 13.4072ZM27.4051 4.4117L27.7765 5.34018L27.7798 5.33885L27.4051 4.4117ZM62.2901 4.4117L61.9132 5.33797L61.9187 5.34017L62.2901 4.4117ZM76.0576 13.4072L75.3505 14.1143L75.3572 14.1209L76.0576 13.4072ZM85.1628 26.9553L84.2393 27.339L85.1628 26.9553ZM76.0576 74.5656L76.7614 75.2761L76.7614 75.276L76.0576 74.5656ZM62.2901 83.5611L62.6615 84.4896L62.667 84.4874L62.2901 83.5611ZM53.2946 66.0089L53.7161 66.9158L53.2946 66.0089ZM60.0412 60.9627L59.2918 60.3006L59.291 60.3015L60.0412 60.9627ZM64.539 53.3384L63.6041 52.9834L63.6002 52.9938L64.539 53.3384ZM64.539 34.5795L63.6002 34.9241L63.6041 34.9345L64.539 34.5795ZM60.0412 27.0101L59.2855 27.6651L59.2914 27.6718L59.2973 27.6784L60.0412 27.0101ZM53.2946 21.909L53.7161 21.0022L53.2946 21.909ZM36.3458 21.909L35.9291 21L35.9243 21.0022L36.3458 21.909ZM29.5443 27.0101L30.2882 27.6784L30.2938 27.6722L29.5443 27.0101ZM24.9917 34.5795L24.0568 34.2245L24.053 34.2349L24.9917 34.5795ZM24.9917 53.3384L24.0529 53.6831L24.0568 53.6934L24.9917 53.3384ZM29.5443 60.9627L28.7948 61.6247L28.8004 61.6309L29.5443 60.9627ZM36.3458 66.0089L35.9243 66.9158L35.9291 66.918L36.3458 66.0089ZM44.8476 85.7424C38.6725 85.7424 32.9849 84.7017 27.7743 82.6318L27.0359 84.4905C32.5029 86.6623 38.4437 87.7424 44.8476 87.7424V85.7424ZM27.782 82.6348C22.5942 80.524 18.0784 77.5949 14.225 73.8486L12.8308 75.2826C16.876 79.2154 21.6116 82.2833 27.0282 84.4874L27.782 82.6348ZM14.2317 73.8552C10.4152 70.0743 7.45389 65.6517 5.34619 60.579L3.49927 61.3464C5.70649 66.6586 8.81532 71.3047 12.8241 75.276L14.2317 73.8552ZM5.34619 60.579C3.24376 55.5189 2.18654 49.9828 2.18654 43.959H0.186544C0.186544 50.2217 1.28678 56.0214 3.49927 61.3464L5.34619 60.579ZM2.18654 43.959C2.18654 37.9351 3.24376 32.3991 5.34619 27.339L3.49927 26.5716C1.28678 31.8966 0.186544 37.6963 0.186544 43.959H2.18654ZM5.34619 27.339C7.45354 22.2671 10.4139 17.8641 14.2283 14.1209L12.8275 12.6934C8.81662 16.6294 5.70683 21.2585 3.49927 26.5716L5.34619 27.339ZM14.2284 14.1209C18.0802 10.3404 22.5931 7.41354 27.7765 5.34017L27.0337 3.48322C21.6127 5.65163 16.8741 8.72176 12.8275 12.6935L14.2284 14.1209ZM27.7798 5.33885C32.989 3.23377 38.6746 2.17551 44.8476 2.17551V0.17551C38.4416 0.17551 32.4989 1.2747 27.0305 3.48454L27.7798 5.33885ZM44.8476 2.17551C51.0581 2.17551 56.7427 3.23407 61.9132 5.33795L62.667 3.48544C57.2331 1.2744 51.2893 0.17551 44.8476 0.17551V2.17551ZM61.9187 5.34017C67.1006 7.41291 71.5742 10.338 75.3505 14.1143L76.7647 12.7001C72.7888 8.72422 68.0841 5.65226 62.6615 3.48322L61.9187 5.34017ZM75.3572 14.1209C79.1717 17.8641 82.132 22.2671 84.2393 27.339L86.0863 26.5716C83.8787 21.2585 80.7689 16.6294 76.758 12.6934L75.3572 14.1209ZM84.2393 27.339C86.3418 32.3991 87.399 37.9351 87.399 43.959H89.399C89.399 37.6963 88.2988 31.8966 86.0863 26.5716L84.2393 27.339ZM87.399 43.959C87.399 49.9828 86.3418 55.5189 84.2393 60.579L86.0863 61.3464C88.2988 56.0214 89.399 50.2217 89.399 43.959H87.399ZM84.2393 60.579C82.1317 65.6517 79.1703 70.0743 75.3538 73.8552L76.7614 75.276C80.7702 71.3047 83.8791 66.6586 86.0863 61.3464L84.2393 60.579ZM75.3539 73.8552C71.576 77.5974 67.0994 80.5246 61.9132 82.6348L62.667 84.4874C68.0852 82.2827 72.787 79.2129 76.7614 75.2761L75.3539 73.8552ZM61.9187 82.6326C56.7467 84.7014 51.0602 85.7424 44.8476 85.7424V87.7424C51.2872 87.7424 57.2291 86.6626 62.6615 84.4896L61.9187 82.6326ZM44.8476 68.819C48.0194 68.819 50.9799 68.1875 53.7161 66.9158L52.8731 65.1021C50.4168 66.2438 47.746 66.819 44.8476 66.819V68.819ZM53.7161 66.9158C56.4383 65.6505 58.799 63.8846 60.7914 61.6239L59.291 60.3015C57.4805 62.3557 55.3434 63.9539 52.8731 65.1021L53.7161 66.9158ZM60.7907 61.6247C62.8152 59.3328 64.3767 56.6824 65.4777 53.683L63.6002 52.9938C62.5804 55.772 61.1434 58.2044 59.2918 60.3006L60.7907 61.6247ZM65.4738 53.6934C66.6176 50.6816 67.1845 47.4337 67.1845 43.959H65.1845C65.1845 47.2126 64.6544 50.2177 63.6041 52.9834L65.4738 53.6934ZM67.1845 43.959C67.1845 40.4843 66.6176 37.2364 65.4738 34.2245L63.6041 34.9345C64.6544 37.7003 65.1845 40.7053 65.1845 43.959H67.1845ZM65.4777 34.2349C64.3762 31.2342 62.8132 28.5995 60.7852 26.3419L59.2973 27.6784C61.1454 29.7357 62.5809 32.1472 63.6002 34.9241L65.4777 34.2349ZM60.7969 26.3552C58.8044 24.0561 56.4421 22.2692 53.7161 21.0022L52.8731 22.8159C55.3396 23.9623 57.4751 25.5761 59.2855 27.6651L60.7969 26.3552ZM53.7161 21.0022C50.9799 19.7305 48.0194 19.099 44.8476 19.099V21.099C47.746 21.099 50.4168 21.6742 52.8731 22.8159L53.7161 21.0022ZM44.8476 19.099C41.6758 19.099 38.6989 19.7305 35.9291 21L36.7624 22.8181C39.2583 21.6742 41.9493 21.099 44.8476 21.099V19.099ZM35.9243 21.0022C33.2001 22.2684 30.8221 24.0531 28.7948 26.3481L30.2938 27.6722C32.1427 25.5791 34.2989 23.9631 36.7673 22.8159L35.9243 21.0022ZM28.8004 26.3419C26.7746 28.597 25.1947 31.228 24.0568 34.2245L25.9266 34.9345C26.9827 32.1534 28.4379 29.7382 30.2882 27.6784L28.8004 26.3419ZM24.053 34.2349C22.9484 37.2439 22.401 40.4882 22.401 43.959H24.401C24.401 40.7014 24.9141 37.6927 25.9305 34.9241L24.053 34.2349ZM22.401 43.959C22.401 47.4298 22.9484 50.674 24.053 53.683L25.9305 52.9938C24.9141 50.2252 24.401 47.2165 24.401 43.959H22.401ZM24.0568 53.6934C25.1942 56.6886 26.7726 59.3354 28.7948 61.6247L30.2938 60.3006C28.4399 58.2019 26.9832 55.7659 25.9266 52.9834L24.0568 53.6934ZM28.8004 61.6309C30.8275 63.8875 33.2039 65.6514 35.9243 66.9158L36.7673 65.1021C34.2951 63.9531 32.1372 62.3527 30.2882 60.2944L28.8004 61.6309ZM35.9291 66.918C38.6989 68.1875 41.6758 68.819 44.8476 68.819V66.819C41.9493 66.819 39.2583 66.2438 36.7624 65.0998L35.9291 66.918ZM170.894 2.82103H171.894V1.82103H170.894V2.82103ZM166.451 68.7514L165.56 68.2975L165.559 68.2997L166.451 68.7514ZM153.781 82.0801L153.29 81.2087L153.288 81.2101L153.781 82.0801ZM101.563 68.7514L100.67 69.2009L100.673 69.2076L101.563 68.7514ZM97.1751 2.82103V1.82103H96.1751V2.82103H97.1751ZM118.896 2.82103H119.896V1.82103H118.896V2.82103ZM120.487 57.891L119.533 58.1917L119.536 58.201L120.487 57.891ZM125.478 65.4056L124.884 66.2103L124.893 66.2166L125.478 65.4056ZM142.591 65.4056L143.176 66.2166L143.185 66.2103L142.591 65.4056ZM147.528 57.891L146.577 57.581L146.574 57.5904L147.528 57.891ZM149.173 2.82103V1.82103H148.173V2.82103H149.173ZM169.894 2.82103V47.9631H171.894V2.82103H169.894ZM169.894 47.9631C169.894 55.8861 168.436 62.6529 165.56 68.2975L167.342 69.2054C170.391 63.2216 171.894 56.1295 171.894 47.9631H169.894ZM165.559 68.2997C162.721 73.9049 158.636 78.1998 153.29 81.2087L154.271 82.9516C159.97 79.744 164.331 75.1532 167.344 69.2032L165.559 68.2997ZM153.288 81.2101C147.983 84.2164 141.578 85.7424 134.035 85.7424V87.7424C141.849 87.7424 148.609 86.1603 154.274 82.9502L153.288 81.2101ZM134.035 85.7424C126.529 85.7424 120.123 84.2168 114.779 81.2087L113.798 82.9516C119.497 86.1598 126.256 87.7424 134.035 87.7424V85.7424ZM114.779 81.2087C109.433 78.1992 105.328 73.9028 102.453 68.2952L100.673 69.2076C103.722 75.1553 108.101 79.7446 113.798 82.9516L114.779 81.2087ZM102.456 68.302C99.6158 62.6563 98.1751 55.8879 98.1751 47.9631H96.1751C96.1751 56.1278 97.6597 63.2183 100.67 69.2009L102.456 68.302ZM98.1751 47.9631V2.82103H96.1751V47.9631H98.1751ZM97.1751 3.82103H118.896V1.82103H97.1751V3.82103ZM117.896 2.82103V45.0011H119.896V2.82103H117.896ZM117.896 45.0011C117.896 50.288 118.431 54.6955 119.533 58.1917L121.44 57.5904C120.421 54.3582 119.896 50.1725 119.896 45.0011H117.896ZM119.536 58.201C120.68 61.7084 122.445 64.4107 124.884 66.2103L126.072 64.6008C124.05 63.1094 122.488 60.802 121.437 57.581L119.536 58.201ZM124.893 66.2166C127.334 67.9774 130.406 68.819 134.035 68.819V66.819C130.715 66.819 128.083 66.0517 126.063 64.5945L124.893 66.2166ZM134.035 68.819C137.663 68.819 140.735 67.9774 143.176 66.2166L142.006 64.5945C139.986 66.0517 137.354 66.819 134.035 66.819V68.819ZM143.185 66.2103C145.627 64.4085 147.375 61.7024 148.482 58.1917L146.574 57.5904C145.56 60.808 144.017 63.1115 141.998 64.6008L143.185 66.2103ZM148.479 58.201C149.62 54.7013 150.173 50.2902 150.173 45.0011H148.173C148.173 50.1703 147.63 54.3525 146.577 57.581L148.479 58.201ZM150.173 45.0011V2.82103H148.173V45.0011H150.173ZM149.173 3.82103H170.894V1.82103H149.173V3.82103ZM254.706 85.0969V86.0969H256.436L255.572 84.5977L254.706 85.0969ZM230.681 85.0969L229.815 85.5964L230.104 86.0969H230.681V85.0969ZM214.994 57.891L215.86 57.3915L215.572 56.891H214.994V57.891ZM203.585 57.891V56.891H202.585V57.891H203.585ZM203.585 85.0969V86.0969H204.585V85.0969H203.585ZM181.864 85.0969H180.864V86.0969H181.864V85.0969ZM181.864 2.82103V1.82103H180.864V2.82103H181.864ZM246.314 15.4915L245.47 16.0289L245.476 16.0376L246.314 15.4915ZM236.66 53.7772L236.204 52.8873L235.269 53.3663L235.794 54.2765L236.66 53.7772ZM203.585 41.1616H202.585V42.1616H203.585V41.1616ZM224.758 38.7482L225.349 39.5546L225.351 39.5529L224.758 38.7482ZM224.758 24.2128L224.158 25.0128L224.165 25.0183L224.173 25.0238L224.758 24.2128ZM203.585 21.7445V20.7445H202.585V21.7445H203.585ZM254.706 84.0969H230.681V86.0969H254.706V84.0969ZM231.548 84.5974L215.86 57.3915L214.128 58.3905L229.815 85.5964L231.548 84.5974ZM214.994 56.891H203.585V58.891H214.994V56.891ZM202.585 57.891V85.0969H204.585V57.891H202.585ZM203.585 84.0969H181.864V86.0969H203.585V84.0969ZM182.864 85.0969V2.82103H180.864V85.0969H182.864ZM181.864 3.82103H216.64V1.82103H181.864V3.82103ZM216.64 3.82103C223.674 3.82103 229.602 4.8858 234.455 6.97566L235.246 5.13876C230.079 2.91371 223.866 1.82103 216.64 1.82103V3.82103ZM234.455 6.97566C239.302 9.06318 242.957 12.0847 245.471 16.0289L247.157 14.9542C244.405 10.6342 240.418 7.36616 235.246 5.13876L234.455 6.97566ZM245.476 16.0376C248.021 19.942 249.318 24.6985 249.318 30.356H251.318C251.318 24.3852 249.946 19.2321 247.152 14.9455L245.476 16.0376ZM249.318 30.356C249.318 35.6589 248.18 40.1746 245.947 43.9428L247.668 44.9624C250.115 40.8322 251.318 35.9502 251.318 30.356H249.318ZM245.947 43.9428C243.711 47.7163 240.475 50.6987 236.204 52.8873L237.116 54.6672C241.694 52.3214 245.223 49.0875 247.668 44.9624L245.947 43.9428ZM235.794 54.2765L253.84 85.5962L255.572 84.5977L237.527 53.278L235.794 54.2765ZM203.585 42.1616H214.939V40.1616H203.585V42.1616ZM214.939 42.1616C219.386 42.1616 222.908 41.3446 225.349 39.5546L224.166 37.9418C222.219 39.3697 219.196 40.1616 214.939 40.1616V42.1616ZM225.351 39.5529C227.881 37.6868 229.103 34.9303 229.103 31.453H227.103C227.103 34.4116 226.096 36.5185 224.164 37.9434L225.351 39.5529ZM229.103 31.453C229.103 27.9762 227.881 25.2324 225.343 23.4017L224.173 25.0238C226.096 26.411 227.103 28.4941 227.103 31.453H229.103ZM225.358 23.4128C222.915 21.581 219.389 20.7445 214.939 20.7445V22.7445C219.192 22.7445 222.212 23.5534 224.158 25.0128L225.358 23.4128ZM214.939 20.7445H203.585V22.7445H214.939V20.7445ZM202.585 21.7445V41.1616H204.585V21.7445H202.585ZM357.88 74.8947L358.573 75.6153L359.309 74.9072L358.586 74.1863L357.88 74.8947ZM344.112 83.616L343.747 82.6853L343.744 82.6861L344.112 83.616ZM309.502 83.5611L309.125 84.4874L309.133 84.4905L309.502 83.5611ZM295.625 74.5656L294.921 75.2761L294.927 75.2826L295.625 74.5656ZM286.465 60.9627L285.541 61.3464L285.543 61.3519L286.465 60.9627ZM286.465 26.9553L285.543 26.5661L285.541 26.5716L286.465 26.9553ZM295.625 13.4072L296.325 14.1209L296.325 14.1209L295.625 13.4072ZM309.502 4.4117L309.873 5.34018L309.876 5.33885L309.502 4.4117ZM344.003 4.35685L343.627 5.28356L343.635 5.28665L344.003 4.35685ZM357.715 13.0781L358.425 13.7826L359.141 13.0618L358.409 12.3575L357.715 13.0781ZM342.577 28.3266L341.774 28.9229L342.467 29.8562L343.286 29.0311L342.577 28.3266ZM335.556 22.293L335.085 23.1754L335.09 23.1779L335.556 22.293ZM311.476 26.9553L310.732 26.287L310.726 26.2941L311.476 26.9553ZM307.033 34.5247L306.095 34.1801L307.033 34.5247ZM307.033 53.3384L306.095 53.683L307.033 53.3384ZM311.476 60.9627L310.721 61.6176L310.727 61.6243L310.732 61.6309L311.476 60.9627ZM342.522 59.5914L343.228 58.883L342.409 58.0669L341.719 58.9951L342.522 59.5914ZM357.187 74.1741C353.41 77.8079 348.934 80.646 343.747 82.6853L344.478 84.5466C349.895 82.4173 354.597 79.4412 358.573 75.6153L357.187 74.1741ZM343.744 82.6861C338.607 84.7198 332.992 85.7424 326.889 85.7424V87.7424C333.219 87.7424 339.087 86.6808 344.481 84.5458L343.744 82.6861ZM326.889 85.7424C320.752 85.7424 315.082 84.702 309.871 82.6318L309.133 84.4905C314.599 86.662 320.521 87.7424 326.889 87.7424V85.7424ZM309.879 82.6348C304.691 80.524 300.175 77.5949 296.322 73.8486L294.927 75.2826C298.973 79.2154 303.708 82.2833 309.125 84.4874L309.879 82.6348ZM296.328 73.8552C292.511 70.0731 289.53 65.6486 287.386 60.5734L285.543 61.3519C287.787 66.6617 290.913 71.3059 294.921 75.276L296.328 73.8552ZM287.388 60.579C285.286 55.5189 284.228 49.9828 284.228 43.959H282.228C282.228 50.2217 283.329 56.0214 285.541 61.3464L287.388 60.579ZM284.228 43.959C284.228 37.9351 285.286 32.3991 287.388 27.339L285.541 26.5716C283.329 31.8966 282.228 37.6963 282.228 43.959H284.228ZM287.386 27.3445C289.53 22.2702 292.509 17.8653 296.325 14.1209L294.924 12.6934C290.914 16.6282 287.787 21.2554 285.543 26.5661L287.386 27.3445ZM296.325 14.1209C300.177 10.3404 304.69 7.41354 309.873 5.34017L309.13 3.48322C303.709 5.65163 298.971 8.72176 294.924 12.6935L296.325 14.1209ZM309.876 5.33885C315.086 3.2335 320.754 2.17551 326.889 2.17551V0.17551C320.519 0.17551 314.595 1.27498 309.127 3.48454L309.876 5.33885ZM326.889 2.17551C332.953 2.17551 338.528 3.21548 343.627 5.28352L344.379 3.43017C339.019 1.25643 333.186 0.17551 326.889 0.17551V2.17551ZM343.635 5.28665C348.786 7.32564 353.245 10.1638 357.022 13.7987L358.409 12.3575C354.434 8.53271 349.751 5.5567 344.371 3.42704L343.635 5.28665ZM357.006 12.3735L341.867 27.622L343.286 29.0311L358.425 13.7826L357.006 12.3735ZM343.379 27.7302C341.39 25.0522 338.935 22.9416 336.022 21.4081L335.09 23.1779C337.735 24.5697 339.96 26.4815 341.774 28.9229L343.379 27.7302ZM336.026 21.4106C333.132 19.867 329.971 19.099 326.56 19.099V21.099C329.659 21.099 332.494 21.7936 335.085 23.1753L336.026 21.4106ZM326.56 19.099C323.423 19.099 320.498 19.7312 317.797 21.0045L318.649 22.8136C321.068 21.6734 323.7 21.099 326.56 21.099V19.099ZM317.797 21.0045C315.113 22.2695 312.757 24.033 310.732 26.287L312.22 27.6236C314.072 25.5627 316.213 23.962 318.649 22.8136L317.797 21.0045ZM310.726 26.2941C308.737 28.5508 307.195 31.1832 306.095 34.1801L307.972 34.8693C308.993 32.0886 310.413 29.6747 312.227 27.6165L310.726 26.2941ZM306.095 34.1801C304.99 37.1891 304.443 40.4333 304.443 43.9041H306.443C306.443 40.6466 306.956 37.6379 307.972 34.8693L306.095 34.1801ZM304.443 43.9041C304.443 47.4101 304.99 50.6729 306.095 53.683L307.972 52.9938C306.956 50.2264 306.443 47.1996 306.443 43.9041H304.443ZM306.095 53.683C307.194 56.6786 308.735 59.3267 310.721 61.6176L312.232 60.3077C310.415 58.2106 308.993 55.7758 307.972 52.9938L306.095 53.683ZM310.732 61.6309C312.757 63.885 315.113 65.6485 317.797 66.9134L318.649 65.1044C316.213 63.9559 314.072 62.3553 312.22 60.2944L310.732 61.6309ZM317.797 66.9134C320.498 68.1867 323.423 68.819 326.56 68.819V66.819C323.7 66.819 321.068 66.2445 318.649 65.1044L317.797 66.9134ZM326.56 68.819C329.971 68.819 333.132 68.0509 336.026 66.5073L335.085 64.7426C332.494 66.1244 329.659 66.819 326.56 66.819V68.819ZM336.026 66.5073C338.903 64.9732 341.337 62.863 343.325 60.1877L341.719 58.9951C339.903 61.4392 337.694 63.3514 335.085 64.7426L336.026 66.5073ZM341.816 60.2998L357.174 75.6031L358.586 74.1863L343.228 58.883L341.816 60.2998ZM422.11 85.0969V86.0969H423.11V85.0969H422.11ZM366.162 85.0969H365.162V86.0969H366.162V85.0969ZM366.162 2.82103V1.82103H365.162V2.82103H366.162ZM387.883 2.82103H388.883V1.82103H387.883V2.82103ZM387.883 66.1735H386.883V67.1735H387.883V66.1735ZM422.11 66.1735H423.11V65.1735H422.11V66.1735ZM422.11 84.0969H366.162V86.0969H422.11V84.0969ZM367.162 85.0969V2.82103H365.162V85.0969H367.162ZM366.162 3.82103H387.883V1.82103H366.162V3.82103ZM386.883 2.82103V66.1735H388.883V2.82103H386.883ZM387.883 67.1735H422.11V65.1735H387.883V67.1735ZM421.11 66.1735V85.0969H423.11V66.1735H421.11ZM428.692 85.0969H427.692V86.0969H428.692V85.0969ZM428.692 2.82103V1.82103H427.692V2.82103H428.692ZM450.413 2.82103H451.413V1.82103H450.413V2.82103ZM450.413 85.0969V86.0969H451.413V85.0969H450.413ZM429.692 85.0969V2.82103H427.692V85.0969H429.692ZM428.692 3.82103H450.413V1.82103H428.692V3.82103ZM449.413 2.82103V85.0969H451.413V2.82103H449.413ZM450.413 84.0969H428.692V86.0969H450.413V84.0969ZM461.383 85.0969H460.383V86.0969H461.383V85.0969ZM461.383 2.82103V1.82103H460.383V2.82103H461.383ZM516.234 2.82103H517.234V1.82103H516.234V2.82103ZM516.234 21.7445V22.7445H517.234V21.7445H516.234ZM483.104 21.7445V20.7445H482.104V21.7445H483.104ZM483.104 34.4698H482.104V35.4698H483.104V34.4698ZM514.04 34.4698H515.04V33.4698H514.04V34.4698ZM514.04 53.3933V54.3933H515.04V53.3933H514.04ZM483.104 53.3933V52.3933H482.104V53.3933H483.104ZM483.104 66.1735H482.104V67.1735H483.104V66.1735ZM516.782 66.1735H517.782V65.1735H516.782V66.1735ZM516.782 85.0969V86.0969H517.782V85.0969H516.782ZM462.383 85.0969V2.82103H460.383V85.0969H462.383ZM461.383 3.82103H516.234V1.82103H461.383V3.82103ZM515.234 2.82103V21.7445H517.234V2.82103H515.234ZM516.234 20.7445H483.104V22.7445H516.234V20.7445ZM482.104 21.7445V34.4698H484.104V21.7445H482.104ZM483.104 35.4698H514.04V33.4698H483.104V35.4698ZM513.04 34.4698V53.3933H515.04V34.4698H513.04ZM514.04 52.3933H483.104V54.3933H514.04V52.3933ZM482.104 53.3933V66.1735H484.104V53.3933H482.104ZM483.104 67.1735H516.782V65.1735H483.104V67.1735ZM515.782 66.1735V85.0969H517.782V66.1735H515.782ZM516.782 84.0969H461.383V86.0969H516.782V84.0969ZM604.104 85.0969V86.0969H605.104V85.0969H604.104ZM578.544 85.0969L577.689 85.6157L577.981 86.0969H578.544V85.0969ZM548.925 36.2799L549.78 35.7612L547.925 32.7039V36.2799H548.925ZM548.925 85.0969V86.0969H549.925V85.0969H548.925ZM527.204 85.0969H526.204V86.0969H527.204V85.0969ZM527.204 2.82103V1.82103H526.204V2.82103H527.204ZM552.764 2.82103L553.62 2.30358L553.328 1.82103H552.764V2.82103ZM582.383 51.8026L581.528 52.3201L583.383 55.3889V51.8026H582.383ZM582.383 2.82103V1.82103H581.383V2.82103H582.383ZM604.104 2.82103H605.104V1.82103H604.104V2.82103ZM604.104 84.0969H578.544V86.0969H604.104V84.0969ZM579.399 84.5782L549.78 35.7612L548.07 36.7986L577.689 85.6157L579.399 84.5782ZM547.925 36.2799V85.0969H549.925V36.2799H547.925ZM548.925 84.0969H527.204V86.0969H548.925V84.0969ZM528.204 85.0969V2.82103H526.204V85.0969H528.204ZM527.204 3.82103H552.764V1.82103H527.204V3.82103ZM551.908 3.33848L581.528 52.3201L583.239 51.2852L553.62 2.30358L551.908 3.33848ZM583.383 51.8026V2.82103H581.383V51.8026H583.383ZM582.383 3.82103H604.104V1.82103H582.383V3.82103ZM603.104 2.82103V85.0969H605.104V2.82103H603.104ZM654.677 85.0969V86.0969H655.677V85.0969H654.677ZM632.956 85.0969H631.956V86.0969H632.956V85.0969ZM632.956 21.7445H633.956V20.7445H632.956V21.7445ZM610.138 21.7445H609.138V22.7445H610.138V21.7445ZM610.138 2.82103V1.82103H609.138V2.82103H610.138ZM677.494 2.82103H678.494V1.82103H677.494V2.82103ZM677.494 21.7445V22.7445H678.494V21.7445H677.494ZM654.677 21.7445V20.7445H653.677V21.7445H654.677ZM654.677 84.0969H632.956V86.0969H654.677V84.0969ZM633.956 85.0969V21.7445H631.956V85.0969H633.956ZM632.956 20.7445H610.138V22.7445H632.956V20.7445ZM611.138 21.7445V2.82103H609.138V21.7445H611.138ZM610.138 3.82103H677.494V1.82103H610.138V3.82103ZM676.494 2.82103V21.7445H678.494V2.82103H676.494ZM677.494 20.7445H654.677V22.7445H677.494V20.7445ZM653.677 21.7445V85.0969H655.677V21.7445H653.677ZM679.688 75.6626L678.837 75.1382L678.367 75.9016L679.074 76.452L679.688 75.6626ZM689.891 59.0977L690.506 58.3096L689.625 57.6218L689.039 58.5733L689.891 59.0977ZM697.35 64.1988L696.854 65.0671L696.86 65.0704L697.35 64.1988ZM704.152 67.1059L703.879 68.0681L703.889 68.0707L703.898 68.0732L704.152 67.1059ZM716.767 67.2156L717.071 68.1686L717.08 68.1654L717.09 68.1621L716.767 67.2156ZM720.442 64.9119L719.683 64.2611L719.681 64.2634L720.442 64.9119ZM719.894 56.794L720.601 56.0869L719.894 56.794ZM714.903 53.4481L714.468 54.3489L714.474 54.3519L714.903 53.4481ZM708.156 50.4862L708.53 49.5587L708.529 49.5586L708.156 50.4862ZM700.093 46.9758L699.66 47.8773L699.67 47.8819L700.093 46.9758ZM686.929 35.4023L686.044 35.8685L686.047 35.8735L686.929 35.4023ZM688.629 12.4199L687.814 11.841L687.813 11.8426L688.629 12.4199ZM699.215 4.08259L699.607 5.00252L699.611 5.00096L699.215 4.08259ZM741.56 7.97698L742.46 8.41284L742.892 7.52138L742.004 7.08117L741.56 7.97698ZM733.113 25.4195L732.591 26.2728L733.532 26.8477L734.013 25.8553L733.113 25.4195ZM724.447 21.5799L724.144 22.5331L724.157 22.5371L724.447 21.5799ZM711.173 20.812L710.841 19.8685L710.833 19.8715L711.173 20.812ZM708.101 22.8963L708.869 23.5365L708.876 23.5288L708.882 23.521L708.101 22.8963ZM708.869 30.3012L708.162 31.0083L708.167 31.0136L708.172 31.0188L708.869 30.3012ZM720.497 36.7735L720.095 37.6891L720.102 37.692L720.497 36.7735ZM728.56 40.5582L728.108 41.4503L728.113 41.4527L728.56 40.5582ZM736.185 45.4948L735.548 46.266L735.554 46.2709L736.185 45.4948ZM741.834 52.3511L740.952 52.8223L740.955 52.8274L741.834 52.3511ZM739.914 74.8947L739.102 74.3112L739.101 74.3127L739.914 74.8947ZM728.67 83.616L728.274 82.6979L728.271 82.699L728.67 83.616ZM680.54 76.187L690.742 59.6222L689.039 58.5733L678.837 75.1382L680.54 76.187ZM689.275 59.8859C691.973 61.9921 694.499 63.7214 696.854 65.0671L697.846 63.3306C695.594 62.0434 693.147 60.372 690.506 58.3096L689.275 59.8859ZM696.86 65.0704C699.257 66.4189 701.597 67.4215 703.879 68.0681L704.424 66.1438C702.318 65.5471 700.124 64.6117 697.841 63.3273L696.86 65.0704ZM703.898 68.0732C706.211 68.68 708.564 68.9835 710.953 68.9835V66.9835C708.735 66.9835 706.553 66.702 704.406 66.1386L703.898 68.0732ZM710.953 68.9835C713.29 68.9835 715.337 68.7203 717.071 68.1686L716.464 66.2627C714.98 66.7348 713.15 66.9835 710.953 66.9835V68.9835ZM717.09 68.1621C718.818 67.5732 720.215 66.721 721.204 65.5604L719.681 64.2634C718.988 65.0775 717.935 65.7611 716.445 66.2691L717.09 68.1621ZM721.202 65.5627C722.24 64.3516 722.759 62.9121 722.759 61.2918H720.759C720.759 62.4505 720.4 63.4244 719.683 64.2611L721.202 65.5627ZM722.759 61.2918C722.759 59.2708 722.031 57.5174 720.601 56.0869L719.187 57.5011C720.243 58.5572 720.759 59.8023 720.759 61.2918H722.759ZM720.601 56.0869C719.256 54.7417 717.488 53.5663 715.331 52.5444L714.474 54.3519C716.486 55.3045 718.045 56.3597 719.187 57.5011L720.601 56.0869ZM715.337 52.5474C713.266 51.5491 710.997 50.553 708.53 49.5587L707.782 51.4137C710.215 52.3941 712.443 53.3726 714.468 54.3489L715.337 52.5474ZM708.529 49.5586C705.914 48.5053 703.243 47.3423 700.516 46.0696L699.67 47.8819C702.428 49.1689 705.132 50.3462 707.782 51.4138L708.529 49.5586ZM700.526 46.0742C697.851 44.7906 695.394 43.2412 693.153 41.4265L691.894 42.981C694.26 44.8961 696.849 46.5281 699.66 47.8773L700.526 46.0742ZM693.153 41.4265C690.955 39.6475 689.175 37.4851 687.811 34.9311L686.047 35.8735C687.534 38.6582 689.484 41.0302 691.894 42.981L693.153 41.4265ZM687.813 34.936C686.481 32.4071 685.79 29.2852 685.79 25.5292H683.79C683.79 29.5254 684.525 32.9855 686.044 35.8685L687.813 34.936ZM685.79 25.5292C685.79 20.5835 687.023 16.4234 689.446 12.9972L687.813 11.8426C685.116 15.6567 683.79 20.2361 683.79 25.5292H685.79ZM689.444 12.9988C691.925 9.50489 695.302 6.83771 699.607 5.00252L698.823 3.16267C694.206 5.13045 690.526 8.02146 687.814 11.841L689.444 12.9988ZM699.611 5.00096C703.966 3.12457 708.911 2.17551 714.464 2.17551V0.17551C708.681 0.17551 703.46 1.16451 698.82 3.16422L699.611 5.00096ZM714.464 2.17551C718.507 2.17551 722.799 2.71232 727.341 3.79383L727.805 1.84822C723.132 0.735714 718.684 0.17551 714.464 0.17551V2.17551ZM727.341 3.79383C731.868 4.87149 736.459 6.56245 741.115 8.8728L742.004 7.08117C737.227 4.71094 732.493 2.96459 727.805 1.84822L727.341 3.79383ZM740.66 7.54113L732.213 24.9836L734.013 25.8553L742.46 8.41284L740.66 7.54113ZM733.634 24.5662C730.924 22.9101 727.957 21.5965 724.736 20.6227L724.157 22.5371C727.226 23.4648 730.036 24.711 732.591 26.2728L733.634 24.5662ZM724.749 20.6269C721.567 19.616 718.611 19.099 715.89 19.099V21.099C718.361 21.099 721.11 21.5692 724.144 22.533L724.749 20.6269ZM715.89 19.099C714.012 19.099 712.323 19.3478 710.841 19.8686L711.504 21.7555C712.728 21.3255 714.184 21.099 715.89 21.099V19.099ZM710.833 19.8715C709.377 20.3971 708.187 21.1876 707.32 22.2717L708.882 23.521C709.477 22.7767 710.335 22.1777 711.512 21.7526L710.833 19.8715ZM707.333 22.2562C706.443 23.3241 706.004 24.5964 706.004 26.0228H708.004C708.004 25.0358 708.297 24.2238 708.869 23.5365L707.333 22.2562ZM706.004 26.0228C706.004 27.9229 706.75 29.5966 708.162 31.0083L709.576 29.5941C708.501 28.5192 708.004 27.3406 708.004 26.0228H706.004ZM708.172 31.0188C709.509 32.3156 711.246 33.4856 713.358 34.5415L714.253 32.7526C712.269 31.7608 710.716 30.7002 709.565 29.5836L708.172 31.0188ZM713.358 34.5415C715.423 35.5738 717.669 36.6229 720.095 37.6891L720.9 35.858C718.499 34.8033 716.284 33.7681 714.253 32.7526L713.358 34.5415ZM720.102 37.692C722.714 38.8168 725.383 40.0695 728.108 41.4503L729.012 39.6662C726.253 38.2679 723.546 36.9974 720.893 35.8551L720.102 37.692ZM728.113 41.4527C730.827 42.8098 733.305 44.4145 735.548 46.266L736.821 44.7236C734.457 42.7721 731.852 41.0858 729.008 39.6638L728.113 41.4527ZM735.554 46.2709C737.791 48.0882 739.589 50.2698 740.952 52.8223L742.716 51.8799C741.228 49.0936 739.259 46.7044 736.815 44.7187L735.554 46.2709ZM740.955 52.8274C742.285 55.2836 742.973 58.275 742.973 61.8403H744.973C744.973 58.019 744.235 54.6843 742.713 51.8748L740.955 52.8274ZM742.973 61.8403C742.973 66.5818 741.678 70.7261 739.102 74.3112L740.727 75.4782C743.563 71.5305 744.973 66.9719 744.973 61.8403H742.973ZM739.101 74.3127C736.552 77.8742 732.958 80.6749 728.274 82.6979L729.066 84.534C734.035 82.3884 737.938 79.3749 740.728 75.4767L739.101 74.3127ZM728.271 82.699C723.631 84.718 718.195 85.7424 711.941 85.7424V87.7424C718.411 87.7424 724.129 86.6826 729.069 84.5329L728.271 82.699ZM711.941 85.7424C706.126 85.7424 700.532 84.8096 695.155 82.9454L694.5 84.835C700.092 86.7738 705.908 87.7424 711.941 87.7424V85.7424ZM695.155 82.9454C689.774 81.0799 684.824 78.3901 680.302 74.8733L679.074 76.452C683.768 80.1023 688.911 82.8975 694.5 84.835L695.155 82.9454Z" fill="white" fill-opacity="0.6" mask="url(#path-1-outside-1_1220_1708)"/>
</svg>
