<svg width="743" height="87" viewBox="0 0 743 87" fill="none" xmlns="http://www.w3.org/2000/svg">
<mask id="path-1-outside-1_158_546" maskUnits="userSpaceOnUse" x="-1.10449" y="-0.541992" width="745" height="88" fill="black">
<rect fill="white" x="-1.10449" y="-0.541992" width="745" height="88"/>
<path d="M43.8476 86.1035C37.5581 86.1035 31.7439 85.0431 26.4051 82.9222C21.1029 80.7647 16.4772 77.7662 12.5279 73.9267C8.61525 70.0506 5.58019 65.5163 3.42273 60.3237C1.26527 55.1312 0.186544 49.4633 0.186544 43.3201C0.186544 37.1768 1.26527 31.5089 3.42273 26.3164C5.58019 21.1239 8.61525 16.6078 12.5279 12.7683C16.4772 8.89217 21.1029 5.89367 26.4051 3.77278C31.7439 1.61532 37.5581 0.536595 43.8476 0.536595C50.1737 0.536595 55.9879 1.61532 61.2901 3.77278C66.5923 5.89367 71.1815 8.89217 75.0576 12.7683C78.9703 16.6078 82.0054 21.1239 84.1628 26.3164C86.3203 31.5089 87.399 37.1768 87.399 43.3201C87.399 49.4633 86.3203 55.1312 84.1628 60.3237C82.0054 65.5163 78.9703 70.0506 75.0576 73.9267C71.1815 77.7662 66.5923 80.7647 61.2901 82.9222C55.9879 85.0431 50.1737 86.1035 43.8476 86.1035ZM43.8476 67.1801C46.8827 67.1801 49.6983 66.5767 52.2946 65.37C54.8909 64.1633 57.1397 62.4812 59.0412 60.3237C60.9793 58.1297 62.4785 55.5883 63.539 52.6995C64.636 49.8107 65.1845 46.6842 65.1845 43.3201C65.1845 39.9559 64.636 36.8294 63.539 33.9406C62.4785 31.0518 60.9793 28.5287 59.0412 26.3712C57.1397 24.1772 54.8909 22.4768 52.2946 21.2701C49.6983 20.0634 46.8827 19.4601 43.8476 19.4601C40.8126 19.4601 37.9786 20.0634 35.3458 21.2701C32.7495 22.4768 30.4824 24.1772 28.5443 26.3712C26.6062 28.5287 25.0887 31.0518 23.9917 33.9406C22.9313 36.8294 22.401 39.9559 22.401 43.3201C22.401 46.6842 22.9313 49.8107 23.9917 52.6995C25.0887 55.5883 26.6062 58.1297 28.5443 60.3237C30.4824 62.4812 32.7495 64.1633 35.3458 65.37C37.9786 66.5767 40.8126 67.1801 43.8476 67.1801ZM169.894 2.18211V47.3242C169.894 55.3689 168.413 62.2984 165.451 68.1125C162.526 73.8901 158.303 78.333 152.781 81.4412C147.296 84.5494 140.714 86.1035 133.035 86.1035C125.392 86.1035 118.81 84.5494 113.288 81.4412C107.767 78.333 103.525 73.8901 100.563 68.1125C97.6378 62.2984 96.1751 55.3689 96.1751 47.3242V2.18211H117.896V44.3622C117.896 49.5913 118.426 53.8879 119.487 57.2521C120.584 60.6163 122.247 63.1211 124.478 64.7666C126.709 66.3756 129.561 67.1801 133.035 67.1801C136.509 67.1801 139.361 66.3756 141.591 64.7666C143.822 63.1211 145.467 60.6163 146.528 57.2521C147.625 53.8879 148.173 49.5913 148.173 44.3622V2.18211H169.894ZM253.706 84.458H229.681L213.994 57.2521H202.585V84.458H180.864V2.18211H215.64C222.77 2.18211 228.84 3.26084 233.85 5.4183C238.86 7.57575 242.681 10.7205 245.314 14.8526C247.983 18.9481 249.318 23.9029 249.318 29.7171C249.318 35.1656 248.148 39.8645 245.808 43.8137C243.467 47.763 240.085 50.8712 235.66 53.1383L253.706 84.458ZM202.585 40.5227H213.939C218.291 40.5227 221.564 39.7182 223.758 38.1093C225.988 36.4637 227.103 34.032 227.103 30.8141C227.103 27.5962 225.988 25.1828 223.758 23.5738C221.564 21.9283 218.291 21.1056 213.939 21.1056H202.585V40.5227ZM356.88 74.2558C353.004 77.9856 348.415 80.8927 343.112 82.977C337.847 85.0614 332.106 86.1035 325.889 86.1035C319.636 86.1035 313.841 85.0431 308.502 82.9222C303.2 80.7647 298.574 77.7662 294.625 73.9267C290.712 70.0506 287.659 65.5163 285.465 60.3237C283.307 55.1312 282.228 49.4633 282.228 43.3201C282.228 37.1768 283.307 31.5089 285.465 26.3164C287.659 21.1239 290.712 16.6078 294.625 12.7683C298.574 8.89217 303.2 5.89367 308.502 3.77278C313.841 1.61532 319.636 0.536595 325.889 0.536595C332.069 0.536595 337.774 1.59704 343.003 3.71793C348.268 5.80225 352.839 8.70933 356.715 12.4392L341.577 27.6876C339.675 25.1279 337.335 23.1168 334.556 21.6541C331.813 20.1914 328.815 19.4601 325.56 19.4601C322.562 19.4601 319.783 20.0634 317.223 21.2701C314.663 22.4768 312.414 24.1589 310.476 26.3164C308.575 28.4738 307.094 30.997 306.033 33.8858C304.973 36.7746 304.443 39.901 304.443 43.2652C304.443 46.6659 304.973 49.8107 306.033 52.6995C307.094 55.5883 308.575 58.1297 310.476 60.3237C312.414 62.4812 314.663 64.1633 317.223 65.37C319.783 66.5767 322.562 67.1801 325.56 67.1801C328.815 67.1801 331.813 66.4487 334.556 64.986C337.298 63.5234 339.62 61.5122 341.522 58.9525L356.88 74.2558ZM421.11 84.458H365.162V2.18211H386.883V65.5346H421.11V84.458ZM427.692 84.458V2.18211H449.413V84.458H427.692ZM460.383 84.458V2.18211H515.234V21.1056H482.104V33.8309H513.04V52.7544H482.104V65.5346H515.782V84.458H460.383ZM603.104 84.458H577.544L547.925 35.641V84.458H526.204V2.18211H551.764L581.383 51.1637V2.18211H603.104V84.458ZM653.677 84.458H631.956V21.1056H609.138V2.18211H676.494V21.1056H653.677V84.458ZM678.688 75.0237L688.891 58.4588C691.56 60.5431 694.047 62.2435 696.35 63.5599C698.691 64.8763 700.958 65.8454 703.152 66.467C705.382 67.0521 707.65 67.3446 709.953 67.3446C712.22 67.3446 714.158 67.0887 715.767 66.5767C717.376 66.0282 718.601 65.2603 719.442 64.273C720.32 63.2491 720.759 62.0424 720.759 60.6528C720.759 58.8976 720.137 57.3984 718.894 56.1551C717.651 54.9118 715.987 53.7965 713.903 52.8092C711.855 51.8219 709.606 50.8346 707.156 49.8473C704.523 48.7868 701.835 47.6167 699.093 46.3368C696.35 45.0204 693.827 43.4298 691.523 41.5648C689.22 39.6999 687.355 37.4328 685.929 34.7634C684.503 32.0574 683.79 28.7664 683.79 24.8903C683.79 19.7709 685.069 15.4011 687.629 11.781C690.225 8.12426 693.754 5.34516 698.215 3.44368C702.713 1.50562 707.796 0.536595 713.464 0.536595C717.596 0.536595 721.966 1.0851 726.573 2.18211C731.18 3.27912 735.843 4.99778 740.56 7.33807L732.113 24.7806C729.48 23.1716 726.591 21.8918 723.447 20.941C720.338 19.9537 717.486 19.4601 714.89 19.4601C713.098 19.4601 711.526 19.6977 710.173 20.1731C708.856 20.6485 707.832 21.3433 707.101 22.2574C706.37 23.135 706.004 24.1772 706.004 25.3839C706.004 26.9929 706.626 28.419 707.869 29.6623C709.112 30.869 710.758 31.9843 712.805 33.0081C714.853 34.032 717.084 35.0742 719.497 36.1346C722.13 37.2682 724.818 38.5298 727.56 39.9193C730.339 41.3089 732.881 42.9544 735.185 44.8559C737.525 46.7574 739.408 49.0428 740.834 51.7122C742.26 54.345 742.973 57.5081 742.973 61.2014C742.973 66.1379 741.62 70.4894 738.914 74.2558C736.245 77.9856 732.497 80.8927 727.67 82.977C722.88 85.0614 717.303 86.1035 710.941 86.1035C705.017 86.1035 699.312 85.1528 693.827 83.2513C688.342 81.3498 683.296 78.6073 678.688 75.0237Z"/>
</mask>
<path d="M26.4051 82.9222L26.1229 83.6159L26.1286 83.6182L26.4051 82.9222ZM12.5279 73.9267L12.0008 74.4587L12.0059 74.4636L12.5279 73.9267ZM12.5279 12.7683L13.0525 13.3028L13.0525 13.3028L12.5279 12.7683ZM26.4051 3.77278L26.6833 4.46811L26.6857 4.46712L26.4051 3.77278ZM61.2901 3.77278L61.0079 4.46646L61.012 4.46811L61.2901 3.77278ZM75.0576 12.7683L74.528 13.2978L74.5331 13.3028L75.0576 12.7683ZM84.1628 26.3164L83.4712 26.6037L84.1628 26.3164ZM75.0576 73.9267L75.5846 74.4587L75.5847 74.4587L75.0576 73.9267ZM61.2901 82.9222L61.5682 83.6175L61.5724 83.6159L61.2901 82.9222ZM52.2946 65.37L52.6103 66.0491L52.2946 65.37ZM59.0412 60.3237L58.48 59.828L58.4794 59.8286L59.0412 60.3237ZM63.539 52.6995L62.8388 52.4336L62.836 52.4414L63.539 52.6995ZM63.539 33.9406L62.8359 34.1987L62.8389 34.2065L63.539 33.9406ZM59.0412 26.3712L58.4752 26.8618L58.4841 26.8717L59.0412 26.3712ZM52.2946 21.2701L52.6103 20.591L52.2946 21.2701ZM35.3458 21.2701L35.0337 20.5893L35.0301 20.591L35.3458 21.2701ZM28.5443 26.3712L29.1014 26.8717L29.1056 26.867L28.5443 26.3712ZM23.9917 33.9406L23.2915 33.6747L23.2887 33.6825L23.9917 33.9406ZM23.9917 52.6995L23.2886 52.9576L23.2916 52.9654L23.9917 52.6995ZM28.5443 60.3237L27.983 60.8196L27.9872 60.8242L28.5443 60.3237ZM35.3458 65.37L35.0301 66.0491L35.0337 66.0508L35.3458 65.37ZM43.8476 85.3546C37.6438 85.3546 31.9244 84.309 26.6816 82.2262L26.1286 83.6182C31.5634 85.7772 37.4724 86.8524 43.8476 86.8524V85.3546ZM26.6874 82.2285C21.4709 80.1059 16.9274 77.1595 13.05 73.3897L12.0059 74.4636C16.0269 78.373 20.735 81.4235 26.1229 83.6159L26.6874 82.2285ZM13.055 73.3947C9.21432 69.5899 6.23449 65.1392 4.1143 60.0364L2.73115 60.6111C4.92588 65.8933 8.01619 70.5113 12.0009 74.4587L13.055 73.3947ZM4.1143 60.0364C1.99806 54.9431 0.935437 49.3739 0.935437 43.3201H-0.56235C-0.56235 49.5528 0.532487 55.3194 2.73115 60.6111L4.1143 60.0364ZM0.935437 43.3201C0.935437 37.2662 1.99806 31.6971 4.1143 26.6037L2.73115 26.029C0.532487 31.3207 -0.56235 37.0874 -0.56235 43.3201H0.935437ZM4.1143 26.6037C6.23423 21.5015 9.21334 17.0702 13.0525 13.3028L12.0034 12.2338C8.01716 16.1455 4.92614 20.7462 2.73115 26.029L4.1143 26.6037ZM13.0525 13.3028C16.9288 9.49827 21.47 6.55341 26.6833 4.46811L26.127 3.07745C20.7358 5.23393 16.0256 8.28607 12.0034 12.2338L13.0525 13.3028ZM26.6857 4.46712C31.9274 2.34889 37.6453 1.28549 43.8476 1.28549V-0.212299C37.4708 -0.212299 31.5604 0.881755 26.1245 3.07844L26.6857 4.46712ZM43.8476 1.28549C50.0871 1.28549 55.8042 2.34912 61.0079 4.46645L61.5724 3.07911C56.1715 0.881531 50.2603 -0.212299 43.8476 -0.212299V1.28549ZM61.012 4.46811C66.2241 6.55294 70.7267 9.49643 74.5281 13.2978L75.5872 12.2387C71.6363 8.28791 66.9606 5.2344 61.5682 3.07745L61.012 4.46811ZM74.5331 13.3028C78.3722 17.0702 81.3513 21.5015 83.4712 26.6037L84.8544 26.029C82.6594 20.7462 79.5684 16.1455 75.5821 12.2338L74.5331 13.3028ZM83.4712 26.6037C85.5875 31.6971 86.6501 37.2662 86.6501 43.3201H88.1479C88.1479 37.0874 87.053 31.3207 84.8544 26.029L83.4712 26.6037ZM86.6501 43.3201C86.6501 49.3739 85.5875 54.9431 83.4712 60.0364L84.8544 60.6111C87.053 55.3194 88.1479 49.5528 88.1479 43.3201H86.6501ZM83.4712 60.0364C81.351 65.1392 78.3712 69.5899 74.5306 73.3947L75.5847 74.4587C79.5693 70.5113 82.6597 65.8933 84.8544 60.6111L83.4712 60.0364ZM74.5306 73.3946C70.728 77.1613 66.2232 80.1064 61.0079 82.2285L61.5724 83.6159C66.9615 81.4231 71.635 78.3712 75.5846 74.4587L74.5306 73.3946ZM61.012 82.2269C55.8073 84.3087 50.0887 85.3546 43.8476 85.3546V86.8524C50.2587 86.8524 56.1685 85.7774 61.5682 83.6175L61.012 82.2269ZM43.8476 67.929C46.985 67.929 49.9092 67.3045 52.6103 66.0491L51.979 64.6909C49.4875 65.8489 46.7803 66.4312 43.8476 66.4312V67.929ZM52.6103 66.0491C55.3008 64.7986 57.6334 63.0537 59.6031 60.8189L58.4794 59.8286C56.6461 61.9087 54.4809 63.528 51.979 64.6909L52.6103 66.0491ZM59.6025 60.8195C61.6053 58.5522 63.1512 55.9292 64.242 52.9576L62.836 52.4414C61.8059 55.2474 60.3533 57.7072 58.48 59.828L59.6025 60.8195ZM64.2391 52.9654C65.3711 49.9844 65.9334 46.767 65.9334 43.3201H64.4356C64.4356 46.6015 63.9009 49.637 62.8389 52.4336L64.2391 52.9654ZM65.9334 43.3201C65.9334 39.8731 65.3711 36.6557 64.2391 33.6747L62.8389 34.2065C63.9009 37.0031 64.4356 40.0387 64.4356 43.3201H65.9334ZM64.242 33.6825C63.1508 30.7099 61.6038 28.1033 59.5984 25.8708L58.4841 26.8717C60.3548 28.9541 61.8063 31.3937 62.836 34.1987L64.242 33.6825ZM59.6072 25.8808C57.6375 23.6081 55.3037 21.8429 52.6103 20.591L51.979 21.9492C54.478 23.1108 56.642 24.7463 58.4753 26.8617L59.6072 25.8808ZM52.6103 20.591C49.9092 19.3356 46.985 18.7112 43.8476 18.7112V20.2089C46.7803 20.2089 49.4875 20.7912 51.979 21.9492L52.6103 20.591ZM43.8476 18.7112C40.7101 18.7112 37.7692 19.3356 35.0337 20.5893L35.6578 21.9509C38.188 20.7912 40.915 20.2089 43.8476 20.2089V18.7112ZM35.0301 20.591C32.3381 21.8422 29.9879 23.6058 27.983 25.8754L29.1056 26.867C30.9769 24.7486 33.1609 23.1114 35.6614 21.9492L35.0301 20.591ZM27.9872 25.8708C25.9835 28.1013 24.4192 30.7053 23.2916 33.6747L24.6918 34.2065C25.7582 31.3983 27.229 28.956 29.1014 26.8717L27.9872 25.8708ZM23.2887 33.6825C22.1952 36.6614 21.6521 39.876 21.6521 43.3201H23.1499C23.1499 40.0357 23.6673 36.9975 24.6947 34.1987L23.2887 33.6825ZM21.6521 43.3201C21.6521 46.7641 22.1952 49.9788 23.2887 52.9576L24.6947 52.4414C23.6673 49.6427 23.1499 46.6044 23.1499 43.3201H21.6521ZM23.2916 52.9654C24.4188 55.9338 25.9819 58.5542 27.983 60.8195L29.1056 59.828C27.2305 57.7053 25.7586 55.2428 24.6918 52.4336L23.2916 52.9654ZM27.9872 60.8242C29.9919 63.0559 32.3409 64.7992 35.0301 66.0491L35.6614 64.6909C33.1581 63.5274 30.9728 61.9065 29.1014 59.8233L27.9872 60.8242ZM35.0337 66.0508C37.7692 67.3045 40.7101 67.929 43.8476 67.929V66.4312C40.915 66.4312 38.188 65.8489 35.6578 64.6892L35.0337 66.0508ZM169.894 2.18211H170.643V1.43322H169.894V2.18211ZM165.451 68.1125L164.784 67.7726L164.783 67.7742L165.451 68.1125ZM152.781 81.4412L152.414 80.7886L152.412 80.7897L152.781 81.4412ZM100.563 68.1125L99.8941 68.4491L99.8967 68.4542L100.563 68.1125ZM96.1751 2.18211V1.43322H95.4262V2.18211H96.1751ZM117.896 2.18211H118.645V1.43322H117.896V2.18211ZM119.487 57.2521L118.772 57.4773L118.775 57.4843L119.487 57.2521ZM124.478 64.7666L124.033 65.3693L124.04 65.374L124.478 64.7666ZM141.591 64.7666L142.03 65.3741L142.036 65.3693L141.591 64.7666ZM146.528 57.2521L145.816 57.0199L145.814 57.027L146.528 57.2521ZM148.173 2.18211V1.43322H147.425V2.18211H148.173ZM169.145 2.18211V47.3242H170.643V2.18211H169.145ZM169.145 47.3242C169.145 55.2778 167.681 62.0854 164.784 67.7726L166.119 68.4525C169.145 62.5113 170.643 55.46 170.643 47.3242H169.145ZM164.783 67.7742C161.923 73.4227 157.803 77.7548 152.414 80.7886L153.148 82.0938C158.802 78.9112 163.129 74.3575 166.12 68.4508L164.783 67.7742ZM152.412 80.7897C147.061 83.8215 140.612 85.3546 133.035 85.3546V86.8524C140.815 86.8524 147.53 85.2773 153.15 82.0928L152.412 80.7897ZM133.035 85.3546C125.494 85.3546 119.044 83.8219 113.656 80.7886L112.921 82.0938C118.576 85.277 125.29 86.8524 133.035 86.8524V85.3546ZM113.656 80.7886C108.266 77.7544 104.126 73.4212 101.23 67.7709L99.8967 68.4542C102.924 74.3591 107.268 78.9117 112.921 82.0938L113.656 80.7886ZM101.232 67.7759C98.3702 62.0879 96.924 55.2791 96.924 47.3242H95.4262C95.4262 55.4587 96.9053 62.5088 99.8941 68.4491L101.232 67.7759ZM96.924 47.3242V2.18211H95.4262V47.3242H96.924ZM96.1751 2.93101H117.896V1.43322H96.1751V2.93101ZM117.147 2.18211V44.3622H118.645V2.18211H117.147ZM117.147 44.3622C117.147 49.6346 117.681 54.0142 118.772 57.4773L120.201 57.027C119.172 53.7616 118.645 49.5481 118.645 44.3622H117.147ZM118.775 57.4843C119.907 60.9557 121.646 63.6084 124.033 65.3693L124.923 64.164C122.848 62.6338 121.261 60.2769 120.199 57.0199L118.775 57.4843ZM124.04 65.374C126.428 67.0967 129.445 67.929 133.035 67.929V66.4312C129.676 66.4312 126.989 65.6545 124.916 64.1593L124.04 65.374ZM133.035 67.929C136.624 67.929 139.641 67.0967 142.029 65.374L141.153 64.1593C139.08 65.6545 136.393 66.4312 133.035 66.4312V67.929ZM142.036 65.3693C144.425 63.6068 146.147 60.9512 147.242 57.4773L145.814 57.027C144.788 60.2814 143.219 62.6355 141.147 64.164L142.036 65.3693ZM147.24 57.4843C148.37 54.0185 148.922 49.6362 148.922 44.3622H147.425C147.425 49.5464 146.88 53.7573 145.816 57.0199L147.24 57.4843ZM148.922 44.3622V2.18211H147.425V44.3622H148.922ZM148.173 2.93101H169.894V1.43322H148.173V2.93101ZM253.706 84.458V85.2069H255.002L254.355 84.0841L253.706 84.458ZM229.681 84.458L229.033 84.8321L229.249 85.2069H229.681V84.458ZM213.994 57.2521L214.643 56.878L214.427 56.5032H213.994V57.2521ZM202.585 57.2521V56.5032H201.836V57.2521H202.585ZM202.585 84.458V85.2069H203.334V84.458H202.585ZM180.864 84.458H180.116V85.2069H180.864V84.458ZM180.864 2.18211V1.43322H180.116V2.18211H180.864ZM245.314 14.8526L244.682 15.255L244.686 15.2615L245.314 14.8526ZM235.66 53.1383L235.319 52.4718L234.619 52.8306L235.011 53.5122L235.66 53.1383ZM202.585 40.5227H201.836V41.2716H202.585V40.5227ZM223.758 38.1093L224.2 38.7132L224.202 38.7119L223.758 38.1093ZM223.758 23.5738L223.308 24.1731L223.319 24.1812L223.758 23.5738ZM202.585 21.1056V20.3567H201.836V21.1056H202.585ZM253.706 83.7091H229.681V85.2069H253.706V83.7091ZM230.33 84.0839L214.643 56.878L213.345 57.6262L229.033 84.8321L230.33 84.0839ZM213.994 56.5032H202.585V58.001H213.994V56.5032ZM201.836 57.2521V84.458H203.334V57.2521H201.836ZM202.585 83.7091H180.864V85.2069H202.585V83.7091ZM181.613 84.458V2.18211H180.116V84.458H181.613ZM180.864 2.93101H215.64V1.43322H180.864V2.93101ZM215.64 2.93101C222.698 2.93101 228.662 3.99929 233.554 6.10612L234.146 4.73048C229.019 2.5224 222.842 1.43322 215.64 1.43322V2.93101ZM233.554 6.10612C238.442 8.2112 242.139 11.2637 244.682 15.255L245.945 14.4502C243.223 10.1774 239.278 6.94031 234.146 4.73048L233.554 6.10612ZM244.686 15.2615C247.263 19.2139 248.569 24.0202 248.569 29.7171H250.067C250.067 23.7857 248.704 18.6823 245.941 14.4437L244.686 15.2615ZM248.569 29.7171C248.569 35.0565 247.423 39.6182 245.163 43.4319L246.452 44.1955C248.872 40.1107 250.067 35.2747 250.067 29.7171H248.569ZM245.163 43.4319C242.901 47.2495 239.628 50.2635 235.319 52.4718L236.002 53.8048C240.541 51.4788 244.033 48.2764 246.452 44.1955L245.163 43.4319ZM235.011 53.5122L253.057 84.8319L254.355 84.0841L236.309 52.7644L235.011 53.5122ZM202.585 41.2716H213.939V39.7738H202.585V41.2716ZM213.939 41.2716C218.362 41.2716 221.822 40.4577 224.2 38.7132L223.315 37.5053C221.306 38.9787 218.22 39.7738 213.939 39.7738V41.2716ZM224.202 38.7119C226.657 36.9012 227.852 34.2262 227.852 30.8141H226.355C226.355 33.8378 225.32 36.0263 223.313 37.5066L224.202 38.7119ZM227.852 30.8141C227.852 27.4023 226.656 24.7414 224.196 22.9665L223.319 24.1812C225.32 25.6241 226.355 27.7902 226.355 30.8141H227.852ZM224.207 22.9747C221.827 21.1898 218.365 20.3567 213.939 20.3567V21.8545C218.217 21.8545 221.3 22.6669 223.308 24.173L224.207 22.9747ZM213.939 20.3567H202.585V21.8545H213.939V20.3567ZM201.836 21.1056V40.5227H203.334V21.1056H201.836ZM356.88 74.2558L357.399 74.7954L357.95 74.2651L357.409 73.7253L356.88 74.2558ZM343.112 82.977L342.839 82.2801L342.837 82.2807L343.112 82.977ZM308.502 82.9222L308.219 83.6159L308.225 83.6182L308.502 82.9222ZM294.625 73.9267L294.097 74.4587L294.103 74.4636L294.625 73.9267ZM285.465 60.3237L284.773 60.6111L284.775 60.6152L285.465 60.3237ZM285.465 26.3164L284.775 26.0249L284.773 26.029L285.465 26.3164ZM294.625 12.7683L295.149 13.3028L295.149 13.3028L294.625 12.7683ZM308.502 3.77278L308.78 4.46811L308.782 4.46712L308.502 3.77278ZM343.003 3.71793L342.721 4.41194L342.727 4.41426L343.003 3.71793ZM356.715 12.4392L357.247 12.9668L357.783 12.427L357.235 11.8995L356.715 12.4392ZM341.577 27.6876L340.975 28.1342L341.495 28.8331L342.108 28.2153L341.577 27.6876ZM334.556 21.6541L334.203 22.3149L334.207 22.3168L334.556 21.6541ZM310.476 26.3164L309.919 25.8159L309.915 25.8212L310.476 26.3164ZM306.033 33.8858L305.33 33.6277L306.033 33.8858ZM306.033 52.6995L305.33 52.9576L306.033 52.6995ZM310.476 60.3237L309.91 60.8143L309.919 60.8242L310.476 60.3237ZM341.522 58.9525L342.05 58.422L341.437 57.8108L340.921 58.5059L341.522 58.9525ZM356.361 73.7162C352.559 77.374 348.055 80.2295 342.839 82.2801L343.386 83.674C348.774 81.556 353.448 78.5972 357.399 74.7954L356.361 73.7162ZM342.837 82.2807C337.667 84.3271 332.021 85.3546 325.889 85.3546V86.8524C332.191 86.8524 338.027 85.7957 343.388 83.6734L342.837 82.2807ZM325.889 85.3546C319.723 85.3546 314.022 84.3092 308.778 82.2262L308.225 83.6182C313.66 85.777 319.55 86.8524 325.889 86.8524V85.3546ZM308.784 82.2285C303.567 80.1059 299.024 77.1595 295.147 73.3897L294.103 74.4636C298.124 78.373 302.832 81.4235 308.22 83.6159L308.784 82.2285ZM295.152 73.3947C291.31 69.589 288.311 65.1369 286.154 60.0323L284.775 60.6152C287.006 65.8956 290.114 70.5122 294.098 74.4587L295.152 73.3947ZM286.156 60.0364C284.04 54.9431 282.977 49.3739 282.977 43.3201H281.479C281.479 49.5528 282.574 55.3194 284.773 60.6111L286.156 60.0364ZM282.977 43.3201C282.977 37.2662 284.04 31.6971 286.156 26.6037L284.773 26.029C282.574 31.3207 281.479 37.0874 281.479 43.3201H282.977ZM286.154 26.6079C288.311 21.5038 291.309 17.0711 295.149 13.3028L294.1 12.2338C290.115 16.1446 287.006 20.7439 284.775 26.0249L286.154 26.6079ZM295.149 13.3028C299.025 9.49827 303.567 6.55341 308.78 4.46811L308.224 3.07745C302.832 5.23393 298.122 8.28607 294.1 12.2338L295.149 13.3028ZM308.782 4.46712C314.025 2.34868 319.724 1.28549 325.889 1.28549V-0.212299C319.549 -0.212299 313.657 0.881961 308.221 3.07844L308.782 4.46712ZM325.889 1.28549C331.982 1.28549 337.59 2.3306 342.721 4.41191L343.284 3.02395C337.958 0.86348 332.156 -0.212299 325.889 -0.212299V1.28549ZM342.727 4.41426C347.907 6.46462 352.394 9.32009 356.196 12.9788L357.235 11.8995C353.285 8.09858 348.63 5.13988 343.278 3.0216L342.727 4.41426ZM356.184 11.9115L341.045 27.16L342.108 28.2153L357.247 12.9668L356.184 11.9115ZM342.178 27.2411C340.211 24.5928 337.784 22.5071 334.905 20.9914L334.207 22.3168C336.885 23.7264 339.14 25.6631 340.975 28.1342L342.178 27.2411ZM334.908 20.9933C332.052 19.47 328.932 18.7112 325.56 18.7112V20.2089C328.698 20.2089 331.574 20.9128 334.203 22.3149L334.908 20.9933ZM325.56 18.7112C322.458 18.7112 319.569 19.3361 316.904 20.5927L317.542 21.9475C319.996 20.7907 322.665 20.2089 325.56 20.2089V18.7112ZM316.904 20.5927C314.251 21.8431 311.922 23.5861 309.919 25.8159L311.033 26.8168C312.907 24.7317 315.075 23.1106 317.542 21.9475L316.904 20.5927ZM309.915 25.8212C307.948 28.053 306.421 30.6579 305.33 33.6277L306.737 34.1438C307.767 31.336 309.202 28.8946 311.038 26.8115L309.915 25.8212ZM305.33 33.6277C304.237 36.6065 303.694 39.8212 303.694 43.2652H305.192C305.192 39.9809 305.709 36.9426 306.737 34.1438L305.33 33.6277ZM303.694 43.2652C303.694 46.7448 304.237 49.9779 305.33 52.9576L306.737 52.4414C305.709 49.6435 305.192 46.5871 305.192 43.2652H303.694ZM305.33 52.9576C306.42 55.9264 307.946 58.5476 309.91 60.8142L311.042 59.8333C309.204 57.7118 307.768 55.2503 306.737 52.4414L305.33 52.9576ZM309.919 60.8242C311.922 63.054 314.251 64.7971 316.904 66.0474L317.542 64.6926C315.075 63.5295 312.907 61.9084 311.033 59.8233L309.919 60.8242ZM316.904 66.0474C319.569 67.304 322.458 67.929 325.56 67.929V66.4312C322.665 66.4312 319.996 65.8495 317.542 64.6926L316.904 66.0474ZM325.56 67.929C328.932 67.929 332.052 67.1701 334.908 65.6468L334.203 64.3253C331.574 65.7273 328.698 66.4312 325.56 66.4312V67.929ZM334.908 65.6468C337.751 64.1307 340.157 62.0453 342.123 59.3991L340.921 58.5059C339.083 60.979 336.846 62.9161 334.203 64.3253L334.908 65.6468ZM340.993 59.483L356.351 74.7863L357.409 73.7253L342.05 58.422L340.993 59.483ZM421.11 84.458V85.2069H421.859V84.458H421.11ZM365.162 84.458H364.414V85.2069H365.162V84.458ZM365.162 2.18211V1.43322H364.414V2.18211H365.162ZM386.883 2.18211H387.632V1.43322H386.883V2.18211ZM386.883 65.5346H386.134V66.2834H386.883V65.5346ZM421.11 65.5346H421.859V64.7857H421.11V65.5346ZM421.11 83.7091H365.162V85.2069H421.11V83.7091ZM365.911 84.458V2.18211H364.414V84.458H365.911ZM365.162 2.93101H386.883V1.43322H365.162V2.93101ZM386.134 2.18211V65.5346H387.632V2.18211H386.134ZM386.883 66.2834H421.11V64.7857H386.883V66.2834ZM420.361 65.5346V84.458H421.859V65.5346H420.361ZM427.692 84.458H426.943V85.2069H427.692V84.458ZM427.692 2.18211V1.43322H426.943V2.18211H427.692ZM449.413 2.18211H450.162V1.43322H449.413V2.18211ZM449.413 84.458V85.2069H450.162V84.458H449.413ZM428.441 84.458V2.18211H426.943V84.458H428.441ZM427.692 2.93101H449.413V1.43322H427.692V2.93101ZM448.664 2.18211V84.458H450.162V2.18211H448.664ZM449.413 83.7091H427.692V85.2069H449.413V83.7091ZM460.383 84.458H459.634V85.2069H460.383V84.458ZM460.383 2.18211V1.43322H459.634V2.18211H460.383ZM515.234 2.18211H515.983V1.43322H515.234V2.18211ZM515.234 21.1056V21.8545H515.983V21.1056H515.234ZM482.104 21.1056V20.3567H481.355V21.1056H482.104ZM482.104 33.8309H481.355V34.5798H482.104V33.8309ZM513.04 33.8309H513.789V33.082H513.04V33.8309ZM513.04 52.7544V53.5033H513.789V52.7544H513.04ZM482.104 52.7544V52.0055H481.355V52.7544H482.104ZM482.104 65.5346H481.355V66.2834H482.104V65.5346ZM515.782 65.5346H516.531V64.7857H515.782V65.5346ZM515.782 84.458V85.2069H516.531V84.458H515.782ZM461.132 84.458V2.18211H459.634V84.458H461.132ZM460.383 2.93101H515.234V1.43322H460.383V2.93101ZM514.485 2.18211V21.1056H515.983V2.18211H514.485ZM515.234 20.3567H482.104V21.8545H515.234V20.3567ZM481.355 21.1056V33.8309H482.853V21.1056H481.355ZM482.104 34.5798H513.04V33.082H482.104V34.5798ZM512.291 33.8309V52.7544H513.789V33.8309H512.291ZM513.04 52.0055H482.104V53.5033H513.04V52.0055ZM481.355 52.7544V65.5346H482.853V52.7544H481.355ZM482.104 66.2834H515.782V64.7857H482.104V66.2834ZM515.033 65.5346V84.458H516.531V65.5346H515.033ZM515.782 83.7091H460.383V85.2069H515.782V83.7091ZM603.104 84.458V85.2069H603.853V84.458H603.104ZM577.544 84.458L576.904 84.8465L577.122 85.2069H577.544V84.458ZM547.925 35.641L548.565 35.2525L547.176 32.963V35.641H547.925ZM547.925 84.458V85.2069H548.673V84.458H547.925ZM526.204 84.458H525.455V85.2069H526.204V84.458ZM526.204 2.18211V1.43322H525.455V2.18211H526.204ZM551.764 2.18211L552.405 1.7946L552.186 1.43322H551.764V2.18211ZM581.383 51.1637L580.743 51.5512L582.132 53.8494V51.1637H581.383ZM581.383 2.18211V1.43322H580.635V2.18211H581.383ZM603.104 2.18211H603.853V1.43322H603.104V2.18211ZM603.104 83.7091H577.544V85.2069H603.104V83.7091ZM578.184 84.0695L548.565 35.2525L547.284 36.0294L576.904 84.8465L578.184 84.0695ZM547.176 35.641V84.458H548.673V35.641H547.176ZM547.925 83.7091H526.204V85.2069H547.925V83.7091ZM526.953 84.458V2.18211H525.455V84.458H526.953ZM526.204 2.93101H551.764V1.43322H526.204V2.93101ZM551.123 2.56963L580.743 51.5512L582.024 50.7762L552.405 1.7946L551.123 2.56963ZM582.132 51.1637V2.18211H580.635V51.1637H582.132ZM581.383 2.93101H603.104V1.43322H581.383V2.93101ZM602.355 2.18211V84.458H603.853V2.18211H602.355ZM653.677 84.458V85.2069H654.425V84.458H653.677ZM631.956 84.458H631.207V85.2069H631.956V84.458ZM631.956 21.1056H632.705V20.3567H631.956V21.1056ZM609.138 21.1056H608.389V21.8545H609.138V21.1056ZM609.138 2.18211V1.43322H608.389V2.18211H609.138ZM676.494 2.18211H677.243V1.43322H676.494V2.18211ZM676.494 21.1056V21.8545H677.243V21.1056H676.494ZM653.677 21.1056V20.3567H652.928V21.1056H653.677ZM653.677 83.7091H631.956V85.2069H653.677V83.7091ZM632.705 84.458V21.1056H631.207V84.458H632.705ZM631.956 20.3567H609.138V21.8545H631.956V20.3567ZM609.887 21.1056V2.18211H608.389V21.1056H609.887ZM609.138 2.93101H676.494V1.43322H609.138V2.93101ZM675.746 2.18211V21.1056H677.243V2.18211H675.746ZM676.494 20.3567H653.677V21.8545H676.494V20.3567ZM652.928 21.1056V84.458H654.425V21.1056H652.928ZM678.688 75.0237L678.051 74.631L677.699 75.2026L678.229 75.6148L678.688 75.0237ZM688.891 58.4588L689.352 57.8686L688.692 57.3535L688.253 58.0661L688.891 58.4588ZM696.35 63.5599L695.979 64.2102L695.983 64.2126L696.35 63.5599ZM703.152 66.467L702.948 67.1875L702.955 67.1895L702.962 67.1914L703.152 66.467ZM715.767 66.5767L715.994 67.2904L716.002 67.288L716.009 67.2855L715.767 66.5767ZM719.442 64.273L718.874 63.7856L718.872 63.7874L719.442 64.273ZM718.894 56.1551L719.423 55.6256L718.894 56.1551ZM713.903 52.8092L713.577 53.4838L713.582 53.486L713.903 52.8092ZM707.156 49.8473L707.436 49.1527L707.436 49.1526L707.156 49.8473ZM699.093 46.3368L698.769 47.012L698.776 47.0155L699.093 46.3368ZM685.929 34.7634L685.266 35.1125L685.268 35.1163L685.929 34.7634ZM687.629 11.781L687.018 11.3474L687.018 11.3486L687.629 11.781ZM698.215 3.44368L698.509 4.13261L698.512 4.13144L698.215 3.44368ZM740.56 7.33807L741.234 7.66448L741.557 6.99687L740.893 6.6672L740.56 7.33807ZM732.113 24.7806L731.722 25.4196L732.427 25.8502L732.787 25.107L732.113 24.7806ZM723.447 20.941L723.22 21.6548L723.23 21.6579L723.447 20.941ZM710.173 20.1731L709.924 19.4665L709.918 19.4687L710.173 20.1731ZM707.101 22.2574L707.676 22.7369L707.681 22.7311L707.686 22.7253L707.101 22.2574ZM707.869 29.6623L707.339 30.1919L707.347 30.1997L707.869 29.6623ZM719.497 36.1346L719.196 36.8203L719.201 36.8225L719.497 36.1346ZM727.56 39.9193L727.222 40.5874L727.225 40.5892L727.56 39.9193ZM735.185 44.8559L734.708 45.4335L734.712 45.4371L735.185 44.8559ZM740.834 51.7122L740.174 52.0651L740.176 52.0689L740.834 51.7122ZM738.914 74.2558L738.306 73.8188L738.305 73.8199L738.914 74.2558ZM727.67 82.977L727.373 82.2895L727.371 82.2903L727.67 82.977ZM679.326 75.4164L689.528 58.8516L688.253 58.0661L678.051 74.631L679.326 75.4164ZM688.43 59.0491C691.12 61.1498 693.637 62.8718 695.979 64.2102L696.722 62.9097C694.456 61.6152 692 59.9365 689.352 57.8686L688.43 59.0491ZM695.983 64.2126C698.366 65.5531 700.688 66.5473 702.948 67.1875L703.356 65.7465C701.228 65.1435 699.015 64.1996 696.717 62.9072L695.983 64.2126ZM702.962 67.1914C705.254 67.7927 707.585 68.0935 709.953 68.0935V66.5957C707.714 66.5957 705.51 66.3114 703.342 65.7426L702.962 67.1914ZM709.953 68.0935C712.273 68.0935 714.292 67.8321 715.994 67.2904L715.54 65.8631C714.025 66.3452 712.168 66.5957 709.953 66.5957V68.0935ZM716.009 67.2855C717.707 66.7067 719.061 65.8757 720.013 64.7586L718.872 63.7874C718.142 64.6449 717.046 65.3497 715.526 65.8679L716.009 67.2855ZM720.011 64.7604C721.009 63.5963 721.508 62.2152 721.508 60.6528H720.01C720.01 61.8696 719.631 62.9019 718.874 63.7856L720.011 64.7604ZM721.508 60.6528C721.508 58.6986 720.807 57.009 719.423 55.6256L718.364 56.6846C719.467 57.7878 720.01 59.0966 720.01 60.6528H721.508ZM719.423 55.6256C718.104 54.306 716.362 53.1457 714.223 52.1324L713.582 53.486C715.611 54.4474 717.197 55.5177 718.364 56.6846L719.423 55.6256ZM714.228 52.1346C712.163 51.1391 709.899 50.1452 707.436 49.1527L706.876 50.5419C709.313 51.524 711.547 52.5047 713.577 53.4838L714.228 52.1346ZM707.436 49.1526C704.816 48.0975 702.141 46.9328 699.41 45.6582L698.776 47.0155C701.53 48.3006 704.23 49.4762 706.876 50.5419L707.436 49.1526ZM699.417 45.6617C696.725 44.3698 694.252 42.8101 691.995 40.9828L691.052 42.1469C693.402 44.0494 695.975 45.671 698.769 47.012L699.417 45.6617ZM691.995 40.9828C689.77 39.1822 687.969 36.9935 686.589 34.4105L685.268 35.1163C686.74 37.872 688.669 40.2177 691.052 42.1469L691.995 40.9828ZM686.591 34.4142C685.235 31.8408 684.538 28.6764 684.538 24.8903H683.041C683.041 28.8563 683.77 32.274 685.266 35.1125L686.591 34.4142ZM684.538 24.8903C684.538 19.901 685.784 15.6882 688.241 12.2133L687.018 11.3486C684.355 15.114 683.041 19.6408 683.041 24.8903H684.538ZM688.24 12.2145C690.749 8.67973 694.164 5.98444 698.509 4.1326L697.922 2.75475C693.344 4.70588 689.701 7.56879 687.018 11.3474L688.24 12.2145ZM698.512 4.13144C702.902 2.23956 707.882 1.28549 713.464 1.28549V-0.212299C707.71 -0.212299 702.524 0.771684 697.919 2.75591L698.512 4.13144ZM713.464 1.28549C717.53 1.28549 721.841 1.82523 726.4 2.91064L726.746 1.45358C722.09 0.344968 717.662 -0.212299 713.464 -0.212299V1.28549ZM726.4 2.91064C730.946 3.99316 735.555 5.69107 740.227 8.00894L740.893 6.6672C736.13 4.30448 731.415 2.56509 726.746 1.45358L726.4 2.91064ZM739.886 7.01166L731.439 24.4541L732.787 25.107L741.234 7.66448L739.886 7.01166ZM732.503 24.1415C729.813 22.4973 726.865 21.1922 723.663 20.2242L723.23 21.6579C726.317 22.5914 729.147 23.8459 731.722 25.4196L732.503 24.1415ZM723.673 20.2273C720.51 19.2224 717.58 18.7112 714.89 18.7112V20.2089C717.392 20.2089 720.167 20.6851 723.22 21.6548L723.673 20.2273ZM714.89 18.7112C713.034 18.7112 711.374 18.9572 709.924 19.4666L710.421 20.8797C711.677 20.4383 713.162 20.2089 714.89 20.2089V18.7112ZM709.918 19.4687C708.498 19.9818 707.349 20.7482 706.516 21.7896L707.686 22.7253C708.315 21.9383 709.215 21.3152 710.427 20.8775L709.918 19.4687ZM706.526 21.778C705.676 22.7982 705.255 24.0127 705.255 25.3839H706.753C706.753 24.3417 707.064 23.4719 707.676 22.7369L706.526 21.778ZM705.255 25.3839C705.255 27.2109 705.97 28.8224 707.339 30.1918L708.398 29.1327C707.281 28.0155 706.753 26.7748 706.753 25.3839H705.255ZM707.347 30.1997C708.66 31.4738 710.375 32.6301 712.471 33.678L713.14 32.3383C711.141 31.3384 709.564 30.2641 708.391 29.1249L707.347 30.1997ZM712.471 33.678C714.531 34.7082 716.773 35.7556 719.196 36.8203L719.799 35.449C717.395 34.3928 715.176 33.3559 713.14 32.3383L712.471 33.678ZM719.201 36.8225C721.819 37.9495 724.492 39.2044 727.222 40.5874L727.899 39.2513C725.143 37.8552 722.442 36.5869 719.793 35.4468L719.201 36.8225ZM727.225 40.5892C729.956 41.9544 732.449 43.5694 734.708 45.4334L735.661 44.2783C733.312 42.3394 730.723 40.6633 727.895 39.2495L727.225 40.5892ZM734.712 45.4371C736.975 47.2755 738.794 49.4832 740.174 52.0651L741.495 51.3593C740.022 48.6024 738.075 46.2392 735.657 44.2747L734.712 45.4371ZM740.176 52.0689C741.53 54.5695 742.224 57.6039 742.224 61.2014H743.722C743.722 57.4122 742.99 54.1206 741.493 51.3555L740.176 52.0689ZM742.224 61.2014C742.224 65.9918 740.915 70.1882 738.306 73.8188L739.523 74.6928C742.326 70.7906 743.722 66.284 743.722 61.2014H742.224ZM738.305 73.8199C735.726 77.4237 732.094 80.2511 727.373 82.2895L727.967 83.6646C732.9 81.5343 736.764 78.5476 739.523 74.6916L738.305 73.8199ZM727.371 82.2903C722.693 84.3257 717.222 85.3546 710.941 85.3546V86.8524C717.384 86.8524 723.066 85.797 727.969 83.6637L727.371 82.2903ZM710.941 85.3546C705.098 85.3546 699.477 84.4173 694.072 82.5437L693.582 83.9589C699.147 85.8883 704.935 86.8524 710.941 86.8524V85.3546ZM694.072 82.5437C688.665 80.6692 683.691 77.9661 679.148 74.4326L678.229 75.6148C682.9 79.2484 688.019 82.0304 693.582 83.9589L694.072 82.5437Z" fill="white" fill-opacity="0.15" mask="url(#path-1-outside-1_158_546)"/>
</svg>
