<svg width="26" height="22" viewBox="0 0 26 22" fill="none" xmlns="http://www.w3.org/2000/svg">
<g id="person-stalker">
<g id="Group">
<path id="Shape" fill-rule="evenodd" clip-rule="evenodd" d="M22.3657 14.9084C20.0752 14.0443 20.2135 14.391 20.2135 12.7894C20.2135 11.7546 20.728 12.1344 21.0544 10.164C21.1817 9.38795 21.2868 9.90532 21.5579 8.66143C21.7018 8.01197 21.4583 7.96244 21.4915 7.65422C21.5192 7.346 21.5468 7.0653 21.6022 6.43235C21.6686 5.63979 20.9604 3.57031 18.4265 3.57031C15.8926 3.57031 15.1844 5.63979 15.2508 6.43235C15.3006 7.0708 15.3338 7.346 15.3614 7.65422C15.3891 7.96244 15.1512 8.01197 15.295 8.66143C15.5661 9.90532 15.6712 9.38245 15.7985 10.164C16.1249 12.1344 16.6339 11.7601 16.6339 12.7894C16.6339 13.5269 16.8054 13.8351 15.8096 14.3029C16.1083 14.4075 16.4569 14.5341 16.8773 14.6937C19.8871 15.833 19.8152 16.9393 19.8926 17.4622C19.9479 17.82 19.9756 20.671 19.9867 21.6892H25.392C25.392 21.6892 25.392 17.2586 25.309 16.7412C25.2481 16.3339 24.7004 15.7945 22.3657 14.9084Z" fill="black" fill-opacity="0.54"/>
<path id="Shape_2" fill-rule="evenodd" clip-rule="evenodd" d="M18.5864 21.6835C18.5864 21.6835 18.5864 20.9075 18.5753 20.0103C18.5642 18.9866 18.5366 17.8088 18.4812 17.4565C18.3983 16.9336 17.6901 16.2346 14.6859 15.0953C14.2709 14.9412 13.9224 14.8146 13.6181 14.7045C11.7758 14.0551 11.9085 13.8404 11.9085 12.0627C11.9085 10.7252 12.5724 11.5948 12.9929 9.05753C13.1589 8.05582 13.2917 8.72179 13.6402 7.12015C13.8283 6.28355 13.513 6.21751 13.5517 5.81572C13.5904 5.41394 13.6292 5.05618 13.6956 4.2361C13.7841 3.21787 12.8712 0.542969 9.59592 0.542969C6.32063 0.542969 5.41328 3.21237 5.49627 4.2361C5.56266 5.05618 5.60139 5.41394 5.64565 5.81572C5.68438 6.21751 5.36902 6.27805 5.55713 7.12015C5.91122 8.72179 6.044 8.05582 6.20998 9.05753C6.63045 11.5948 7.28883 10.7252 7.28883 12.0627C7.28883 14.1321 7.4714 13.978 4.51147 15.0953C1.50728 16.2346 0.799109 16.9336 0.71612 17.4565C0.605469 18.1225 0.605469 21.6835 0.605469 21.6835H9.59592H18.5864Z" fill="black" fill-opacity="0.54"/>
</g>
</g>
</svg>
