<svg width="314" height="181" viewBox="0 0 314 181" fill="none" xmlns="http://www.w3.org/2000/svg">
  <g clip-path="url(#clip0_0_1)">
    <path d="M0.403595 0.903442H313.402V181.747H0.403595V0.903442Z" fill="url(#paint0_linear_0_1)" />
    <ellipse cx="67.1276" cy="66.4695" rx="67.1276" ry="66.4695" transform="matrix(0.866025 -0.5 -0.5 -0.866025 284.016 78.3379)" fill="url(#paint1_linear_0_1)" />
    <ellipse cx="67.1276" cy="66.4695" rx="67.1276" ry="66.4695" transform="matrix(-0.866025 -0.5 -0.5 0.866025 76.2004 153.675)" fill="url(#paint2_linear_0_1)" />
  </g>
  <path d="M132.22 62.9072L125.975 50.8737C125.264 50.8737 124.485 50.8737 123.639 50.8737C122.793 50.8398 121.946 50.8229 121.1 50.8229C120.254 50.7891 119.442 50.7721 118.663 50.7721V44.4761H127.295C127.87 44.4761 128.429 44.3915 128.97 44.2222C129.512 44.0191 129.986 43.6806 130.392 43.2067C130.832 42.7328 131.17 42.0897 131.407 41.2773C131.678 40.4311 131.814 39.3648 131.814 38.0785C131.814 36.5214 131.627 35.3198 131.255 34.4735C130.883 33.5934 130.392 32.9841 129.783 32.6456C129.173 32.2733 128.446 32.0871 127.599 32.0871H118.663V25.3341H128.615C129.833 25.3341 131.069 25.5203 132.321 25.8926C133.608 26.265 134.775 26.925 135.825 27.8728C136.874 28.8206 137.72 30.1238 138.364 31.7825C139.007 33.4073 139.328 35.5059 139.328 38.0785C139.328 40.1772 139.159 41.9374 138.821 43.3591C138.516 44.7469 138.093 45.8809 137.551 46.7609C137.01 47.641 136.383 48.335 135.672 48.8427C134.962 49.3166 134.251 49.7059 133.54 50.0105L140.395 62.9072H132.22ZM118.663 40.1095V36.3014H145.421V40.1095H118.663ZM127.295 29.1422V25.3341H145.421V29.1422H127.295ZM155.189 62.9072V32.1887L148.537 33.0518V28.2283L156.001 24.9787H162.704V62.9072H155.189ZM180.021 63.1611C178.363 63.1611 176.687 63.0934 174.995 62.958C173.336 62.8226 171.83 62.6195 170.476 62.3487V56.4081H179.31C181.849 56.4081 183.711 55.6296 184.896 54.0725C186.08 52.4815 186.673 50.1459 186.673 47.0656C185.928 47.3025 185.099 47.4887 184.185 47.6241C183.305 47.7595 182.374 47.8441 181.392 47.878C180.41 47.9118 179.344 47.9288 178.193 47.9288C175.722 47.9288 173.759 47.5903 172.303 46.9133C170.848 46.2024 169.799 45.2039 169.155 43.9176C168.546 42.6313 168.242 41.0911 168.242 39.2971V33.915C168.242 31.8163 168.631 30.1238 169.409 28.8376C170.188 27.5174 171.271 26.5696 172.659 25.9942C174.081 25.3849 175.705 25.0802 177.533 25.0802H182.966C184.794 25.0802 186.402 25.368 187.79 25.9434C189.211 26.485 190.396 27.4328 191.344 28.7868C192.292 30.1408 193.003 32.0363 193.476 34.4735C193.984 36.8768 194.238 39.9233 194.238 43.6129C194.238 47.2687 193.917 50.3659 193.273 52.9047C192.63 55.4095 191.699 57.4236 190.481 58.9468C189.262 60.4362 187.773 61.5194 186.013 62.1964C184.252 62.8395 182.255 63.1611 180.021 63.1611ZM180.326 41.5312H186.673C186.673 39.6017 186.571 38.0108 186.368 36.7584C186.165 35.5059 185.843 34.5243 185.403 33.8134C184.997 33.0688 184.472 32.561 183.829 32.2902C183.186 31.9856 182.408 31.8332 181.494 31.8332H179.209C178.498 31.8332 177.872 31.9517 177.33 32.1887C176.822 32.4256 176.433 32.798 176.162 33.3057C175.892 33.8134 175.756 34.5243 175.756 35.4382V37.8754C175.756 38.857 175.908 39.6187 176.213 40.1603C176.552 40.668 177.059 41.0234 177.736 41.2265C178.413 41.4296 179.277 41.5312 180.326 41.5312Z" fill="white" />
  <path d="M92.8696 90.0081V78.9021H94.0493L94.3082 79.6789C94.4904 79.5446 94.7062 79.4104 94.9556 79.2761C95.2145 79.1418 95.4927 79.0315 95.79 78.9452C96.0969 78.8493 96.4038 78.8014 96.7107 78.8014C97.1998 78.8014 97.617 78.9021 97.9623 79.1035C98.3171 79.3049 98.6049 79.5878 98.8254 79.9523C99.046 80.3071 99.2043 80.7243 99.3002 81.2038C99.4057 81.6834 99.4584 82.1965 99.4584 82.7432C99.4584 83.5967 99.3625 84.3208 99.1707 84.9155C98.9885 85.5005 98.696 85.9465 98.2932 86.2534C97.8999 86.5507 97.3724 86.6993 96.7107 86.6993C96.3079 86.6993 95.8955 86.6418 95.4735 86.5267C95.0515 86.402 94.6631 86.239 94.3082 86.0376V90.0081H92.8696ZM96.2791 85.4909C96.6052 85.4909 96.8977 85.4094 97.1567 85.2463C97.4156 85.0833 97.6218 84.8052 97.7753 84.4119C97.9383 84.0091 98.0198 83.4529 98.0198 82.7432C98.0198 82.0718 97.9383 81.5347 97.7753 81.1319C97.6122 80.7195 97.4012 80.427 97.1423 80.2544C96.8833 80.0721 96.6004 79.981 96.2935 79.981C95.8907 79.981 95.5214 80.0434 95.1858 80.168C94.8597 80.2927 94.5672 80.4222 94.3082 80.5565V84.9442C94.6055 85.1073 94.922 85.2415 95.2577 85.347C95.603 85.4429 95.9434 85.4909 96.2791 85.4909ZM104.25 86.6849C103.435 86.6849 102.783 86.5651 102.294 86.3253C101.814 86.0855 101.469 85.6827 101.258 85.1169C101.056 84.5414 100.956 83.7502 100.956 82.7432C100.956 81.7169 101.056 80.9209 101.258 80.3551C101.469 79.7796 101.814 79.3768 102.294 79.1466C102.773 78.9165 103.421 78.8014 104.236 78.8014C104.945 78.8014 105.516 78.8781 105.948 79.0315C106.389 79.1754 106.71 79.4391 106.912 79.8228C107.123 80.1968 107.228 80.7195 107.228 81.3909C107.228 81.8608 107.132 82.2348 106.94 82.513C106.758 82.7911 106.494 82.9925 106.149 83.1172C105.813 83.2419 105.411 83.3042 104.941 83.3042H102.394C102.404 83.8605 102.466 84.3064 102.581 84.6421C102.706 84.9682 102.922 85.208 103.229 85.3614C103.545 85.5053 104.006 85.5772 104.61 85.5772H107.012V86.4404C106.6 86.4979 106.178 86.5507 105.746 86.5986C105.315 86.6562 104.816 86.6849 104.25 86.6849ZM102.38 82.3979H104.811C105.195 82.3979 105.478 82.326 105.66 82.1821C105.842 82.0382 105.933 81.7745 105.933 81.3909C105.933 81.0072 105.876 80.7051 105.761 80.4845C105.655 80.264 105.478 80.1057 105.228 80.0098C104.979 79.9139 104.648 79.8659 104.236 79.8659C103.766 79.8659 103.392 79.9379 103.114 80.0817C102.845 80.2256 102.653 80.4797 102.538 80.8442C102.433 81.2086 102.38 81.7265 102.38 82.3979ZM108.984 86.5986V78.9021H110.091L110.422 80.1968C110.748 79.8036 111.113 79.4727 111.516 79.2042C111.918 78.9356 112.388 78.8014 112.926 78.8014C113.05 78.8014 113.17 78.811 113.285 78.8301C113.4 78.8397 113.511 78.8589 113.616 78.8877V80.3694C113.482 80.3503 113.343 80.3359 113.199 80.3263C113.055 80.3071 112.906 80.2975 112.753 80.2975C112.427 80.2975 112.134 80.3359 111.875 80.4126C111.616 80.4893 111.367 80.6092 111.127 80.7723C110.897 80.9257 110.662 81.1175 110.422 81.3477V86.5986H108.984ZM121.048 86.6849C120.329 86.6849 119.768 86.4931 119.365 86.1095C118.972 85.7163 118.775 85.1217 118.775 84.3256V78.9021H120.214V83.9372C120.214 84.5126 120.344 84.9011 120.603 85.1025C120.871 85.3039 121.245 85.4046 121.725 85.4046C122.108 85.4046 122.473 85.347 122.818 85.232C123.173 85.1073 123.518 84.9394 123.854 84.7284V78.9021H125.292V86.5986H124.142L123.854 85.7786C123.48 86.0184 123.048 86.2294 122.559 86.4116C122.079 86.5938 121.576 86.6849 121.048 86.6849ZM129.966 86.6849C129.764 86.6849 129.524 86.6802 129.246 86.6706C128.968 86.661 128.68 86.6418 128.383 86.613C128.095 86.5938 127.827 86.5699 127.578 86.5411C127.338 86.5123 127.146 86.4787 127.002 86.4404V85.5772H130.239C130.517 85.5772 130.757 85.558 130.958 85.5197C131.16 85.4717 131.313 85.3758 131.419 85.232C131.534 85.0881 131.591 84.8771 131.591 84.599V84.2825C131.591 83.9947 131.495 83.7694 131.304 83.6063C131.112 83.4433 130.795 83.3618 130.354 83.3618H129.232C128.781 83.3618 128.378 83.3042 128.024 83.1891C127.678 83.0644 127.405 82.8582 127.203 82.5705C127.012 82.2828 126.916 81.8944 126.916 81.4052V80.9881C126.916 80.4989 127.007 80.0961 127.189 79.7796C127.381 79.4631 127.683 79.2282 128.095 79.0747C128.508 78.9117 129.055 78.8301 129.735 78.8301C130.023 78.8301 130.34 78.8445 130.685 78.8733C131.04 78.8925 131.385 78.9212 131.721 78.9596C132.056 78.998 132.325 79.0411 132.526 79.0891V79.9523H129.476C129.055 79.9523 128.728 80.0242 128.498 80.168C128.278 80.3119 128.167 80.5852 128.167 80.9881V81.2758C128.167 81.5251 128.22 81.7169 128.326 81.8512C128.431 81.9855 128.58 82.0718 128.772 82.1102C128.973 82.1485 129.208 82.1677 129.476 82.1677H130.627C131.356 82.1677 131.908 82.3403 132.282 82.6856C132.656 83.0213 132.843 83.496 132.843 84.1098V84.6997C132.843 85.2176 132.723 85.6204 132.483 85.9081C132.243 86.1958 131.908 86.3972 131.476 86.5123C131.054 86.6274 130.551 86.6849 129.966 86.6849ZM137.518 86.6849C136.703 86.6849 136.051 86.5651 135.561 86.3253C135.082 86.0855 134.737 85.6827 134.526 85.1169C134.324 84.5414 134.224 83.7502 134.224 82.7432C134.224 81.7169 134.324 80.9209 134.526 80.3551C134.737 79.7796 135.082 79.3768 135.561 79.1466C136.041 78.9165 136.688 78.8014 137.504 78.8014C138.213 78.8014 138.784 78.8781 139.216 79.0315C139.657 79.1754 139.978 79.4391 140.179 79.8228C140.39 80.1968 140.496 80.7195 140.496 81.3909C140.496 81.8608 140.4 82.2348 140.208 82.513C140.026 82.7911 139.762 82.9925 139.417 83.1172C139.081 83.2419 138.678 83.3042 138.209 83.3042H135.662C135.672 83.8605 135.734 84.3064 135.849 84.6421C135.974 84.9682 136.19 85.208 136.497 85.3614C136.813 85.5053 137.273 85.5772 137.878 85.5772H140.28V86.4404C139.868 86.4979 139.446 86.5507 139.014 86.5986C138.583 86.6562 138.084 86.6849 137.518 86.6849ZM135.648 82.3979H138.079C138.463 82.3979 138.746 82.326 138.928 82.1821C139.11 82.0382 139.201 81.7745 139.201 81.3909C139.201 81.0072 139.144 80.7051 139.029 80.4845C138.923 80.264 138.746 80.1057 138.496 80.0098C138.247 79.9139 137.916 79.8659 137.504 79.8659C137.034 79.8659 136.66 79.9379 136.381 80.0817C136.113 80.2256 135.921 80.4797 135.806 80.8442C135.701 81.2086 135.648 81.7265 135.648 82.3979ZM142.252 86.5986V78.9021H143.359L143.69 80.1968C144.016 79.8036 144.381 79.4727 144.784 79.2042C145.186 78.9356 145.656 78.8014 146.193 78.8014C146.318 78.8014 146.438 78.811 146.553 78.8301C146.668 78.8397 146.778 78.8589 146.884 78.8877V80.3694C146.75 80.3503 146.611 80.3359 146.467 80.3263C146.323 80.3071 146.174 80.2975 146.021 80.2975C145.695 80.2975 145.402 80.3359 145.143 80.4126C144.884 80.4893 144.635 80.6092 144.395 80.7723C144.165 80.9257 143.93 81.1175 143.69 81.3477V86.5986H142.252ZM152.058 90.0081V78.9021H153.237L153.496 79.6789C153.679 79.5446 153.894 79.4104 154.144 79.2761C154.403 79.1418 154.681 79.0315 154.978 78.9452C155.285 78.8493 155.592 78.8014 155.899 78.8014C156.388 78.8014 156.805 78.9021 157.15 79.1035C157.505 79.3049 157.793 79.5878 158.014 79.9523C158.234 80.3071 158.392 80.7243 158.488 81.2038C158.594 81.6834 158.647 82.1965 158.647 82.7432C158.647 83.5967 158.551 84.3208 158.359 84.9155C158.177 85.5005 157.884 85.9465 157.481 86.2534C157.088 86.5507 156.561 86.6993 155.899 86.6993C155.496 86.6993 155.084 86.6418 154.662 86.5267C154.24 86.402 153.851 86.239 153.496 86.0376V90.0081H152.058ZM155.467 85.4909C155.793 85.4909 156.086 85.4094 156.345 85.2463C156.604 85.0833 156.81 84.8052 156.963 84.4119C157.126 84.0091 157.208 83.4529 157.208 82.7432C157.208 82.0718 157.126 81.5347 156.963 81.1319C156.8 80.7195 156.589 80.427 156.33 80.2544C156.071 80.0721 155.789 79.981 155.482 79.981C155.079 79.981 154.71 80.0434 154.374 80.168C154.048 80.2927 153.755 80.4222 153.496 80.5565V84.9442C153.794 85.1073 154.11 85.2415 154.446 85.347C154.791 85.4429 155.132 85.4909 155.467 85.4909ZM163.438 86.6849C162.623 86.6849 161.971 86.5651 161.482 86.3253C161.002 86.0855 160.657 85.6827 160.446 85.1169C160.245 84.5414 160.144 83.7502 160.144 82.7432C160.144 81.7169 160.245 80.9209 160.446 80.3551C160.657 79.7796 161.002 79.3768 161.482 79.1466C161.961 78.9165 162.609 78.8014 163.424 78.8014C164.134 78.8014 164.704 78.8781 165.136 79.0315C165.577 79.1754 165.898 79.4391 166.1 79.8228C166.311 80.1968 166.416 80.7195 166.416 81.3909C166.416 81.8608 166.32 82.2348 166.128 82.513C165.946 82.7911 165.682 82.9925 165.337 83.1172C165.002 83.2419 164.599 83.3042 164.129 83.3042H161.582C161.592 83.8605 161.654 84.3064 161.769 84.6421C161.894 84.9682 162.11 85.208 162.417 85.3614C162.733 85.5053 163.194 85.5772 163.798 85.5772H166.2V86.4404C165.788 86.4979 165.366 86.5507 164.934 86.5986C164.503 86.6562 164.004 86.6849 163.438 86.6849ZM161.568 82.3979H163.999C164.383 82.3979 164.666 82.326 164.848 82.1821C165.03 82.0382 165.121 81.7745 165.121 81.3909C165.121 81.0072 165.064 80.7051 164.949 80.4845C164.843 80.264 164.666 80.1057 164.417 80.0098C164.167 79.9139 163.836 79.8659 163.424 79.8659C162.954 79.8659 162.58 79.9379 162.302 80.0817C162.033 80.2256 161.841 80.4797 161.726 80.8442C161.621 81.2086 161.568 81.7265 161.568 82.3979ZM168.172 86.5986V78.9021H169.28L169.61 80.1968C169.937 79.8036 170.301 79.4727 170.704 79.2042C171.107 78.9356 171.577 78.8014 172.114 78.8014C172.238 78.8014 172.358 78.811 172.473 78.8301C172.588 78.8397 172.699 78.8589 172.804 78.8877V80.3694C172.67 80.3503 172.531 80.3359 172.387 80.3263C172.243 80.3071 172.094 80.2975 171.941 80.2975C171.615 80.2975 171.322 80.3359 171.063 80.4126C170.805 80.4893 170.555 80.6092 170.315 80.7723C170.085 80.9257 169.85 81.1175 169.61 81.3477V86.5986H168.172ZM177.978 86.5986V78.9021H179.129L179.417 79.7365C179.791 79.4775 180.203 79.2521 180.654 79.0603C181.105 78.8685 181.622 78.7726 182.208 78.7726C182.687 78.7726 183.095 78.8781 183.43 79.0891C183.766 79.3001 184.02 79.5686 184.193 79.8947C184.423 79.7221 184.701 79.5494 185.027 79.3768C185.353 79.2042 185.703 79.0603 186.077 78.9452C186.451 78.8301 186.811 78.7726 187.156 78.7726C187.732 78.7726 188.197 78.8925 188.552 79.1322C188.916 79.3624 189.175 79.6837 189.329 80.0961C189.492 80.4989 189.573 80.9593 189.573 81.4772V86.5986H188.135V81.5923C188.135 81.2854 188.072 81.0216 187.948 80.801C187.832 80.5709 187.665 80.3934 187.444 80.2687C187.233 80.1441 186.974 80.0817 186.667 80.0817C186.284 80.0817 185.89 80.1585 185.488 80.3119C185.085 80.4558 184.715 80.6332 184.38 80.8442C184.418 80.9689 184.447 81.0983 184.466 81.2326C184.485 81.3573 184.495 81.482 184.495 81.6067V86.5986H183.056V81.5923C183.056 81.2854 182.994 81.0216 182.869 80.801C182.754 80.5709 182.591 80.3934 182.38 80.2687C182.169 80.1441 181.91 80.0817 181.603 80.0817C181.316 80.0817 181.047 80.1105 180.798 80.168C180.558 80.2256 180.328 80.3071 180.107 80.4126C179.887 80.5085 179.656 80.6284 179.417 80.7723V86.5986H177.978ZM194.685 86.6849C194.1 86.6849 193.592 86.6226 193.161 86.4979C192.739 86.3733 192.388 86.167 192.11 85.8793C191.832 85.582 191.626 85.1792 191.492 84.6709C191.357 84.1626 191.29 83.52 191.29 82.7432C191.29 81.9375 191.357 81.2806 191.492 80.7723C191.626 80.2544 191.832 79.8516 192.11 79.5638C192.388 79.2761 192.743 79.0795 193.175 78.974C193.606 78.8589 194.11 78.8014 194.685 78.8014C195.261 78.8014 195.764 78.8589 196.196 78.974C196.628 79.0891 196.982 79.2905 197.261 79.5782C197.539 79.8659 197.745 80.2687 197.879 80.7866C198.013 81.295 198.081 81.9471 198.081 82.7432C198.081 83.5296 198.013 84.1818 197.879 84.6997C197.745 85.208 197.539 85.606 197.261 85.8937C196.992 86.1814 196.642 86.3876 196.21 86.5123C195.779 86.6274 195.27 86.6849 194.685 86.6849ZM194.685 85.5053C195.002 85.5053 195.28 85.4765 195.52 85.419C195.769 85.3614 195.975 85.2415 196.138 85.0593C196.301 84.8675 196.426 84.5846 196.512 84.2105C196.599 83.8365 196.642 83.3426 196.642 82.7288C196.642 82.115 196.599 81.6258 196.512 81.2614C196.426 80.8873 196.301 80.6092 196.138 80.427C195.975 80.2448 195.769 80.1249 195.52 80.0673C195.28 80.0002 195.002 79.9666 194.685 79.9666C194.359 79.9666 194.072 80.0002 193.822 80.0673C193.583 80.1249 193.381 80.2448 193.218 80.427C193.065 80.6092 192.945 80.8873 192.858 81.2614C192.782 81.6258 192.743 82.115 192.743 82.7288C192.743 83.3426 192.782 83.8365 192.858 84.2105C192.945 84.5846 193.065 84.8675 193.218 85.0593C193.381 85.2415 193.583 85.3614 193.822 85.419C194.072 85.4765 194.359 85.5053 194.685 85.5053ZM199.838 86.5986V78.9021H200.989L201.277 79.7365C201.622 79.4871 202.03 79.2665 202.5 79.0747C202.979 78.8733 203.473 78.7726 203.981 78.7726C204.557 78.7726 205.017 78.8973 205.362 79.1466C205.717 79.3864 205.971 79.7077 206.125 80.1105C206.278 80.5133 206.355 80.9497 206.355 81.4196V86.5986H204.916V81.5923C204.916 81.2854 204.854 81.0216 204.729 80.801C204.614 80.5709 204.451 80.3934 204.24 80.2687C204.029 80.1441 203.77 80.0817 203.463 80.0817C203.176 80.0817 202.907 80.1105 202.658 80.168C202.418 80.2256 202.188 80.3071 201.967 80.4126C201.747 80.5085 201.517 80.6284 201.277 80.7723V86.5986H199.838ZM210.985 86.5986C210.467 86.5986 210.036 86.5171 209.69 86.3541C209.355 86.1814 209.105 85.9081 208.942 85.5341C208.789 85.16 208.717 84.6613 208.727 84.0379L208.784 80.0817H207.561V79.1466L208.813 78.9021L209.029 76.7442H210.165V78.9021H212.251V80.0817H210.165V84.0235C210.165 84.3208 210.194 84.5606 210.251 84.7428C210.309 84.925 210.39 85.0641 210.496 85.16C210.601 85.2559 210.717 85.3279 210.841 85.3758C210.966 85.4142 211.086 85.4382 211.201 85.4477L212.15 85.5341V86.5986H210.985ZM213.704 86.5986V75.622H215.143V79.7365C215.479 79.4871 215.886 79.2665 216.366 79.0747C216.845 78.8733 217.339 78.7726 217.848 78.7726C218.404 78.7726 218.855 78.8877 219.2 79.1179C219.555 79.348 219.814 79.6645 219.977 80.0673C220.14 80.4606 220.221 80.9065 220.221 81.4052V86.5986H218.783V81.5779C218.783 81.2806 218.72 81.0216 218.596 80.801C218.481 80.5709 218.313 80.3934 218.092 80.2687C217.881 80.1441 217.627 80.0817 217.33 80.0817C217.042 80.0817 216.773 80.1105 216.524 80.168C216.284 80.2256 216.054 80.3071 215.834 80.4126C215.613 80.5181 215.383 80.638 215.143 80.7723V86.5986H213.704Z" fill="#E1E1E1" />
  <path d="M55.3742 121.446V110.22H56.9127V121.446H55.3742ZM59.092 121.446V113.297H60.3106L60.6152 114.18C60.9808 113.916 61.4124 113.683 61.91 113.479C62.4177 113.266 62.9407 113.16 63.4789 113.16C64.0882 113.16 64.5756 113.292 64.9412 113.556C65.3169 113.809 65.586 114.15 65.7485 114.576C65.911 115.003 65.9922 115.465 65.9922 115.962V121.446H64.469V116.145C64.469 115.82 64.403 115.541 64.271 115.307C64.1491 115.064 63.9765 114.876 63.7531 114.744C63.5297 114.612 63.2555 114.546 62.9305 114.546C62.6259 114.546 62.3416 114.576 62.0775 114.637C61.8237 114.698 61.5799 114.784 61.3464 114.896C61.1128 114.998 60.8691 115.124 60.6152 115.277V121.446H59.092ZM70.8947 121.446C70.3463 121.446 69.8893 121.36 69.5238 121.187C69.1683 121.004 68.9043 120.715 68.7317 120.319C68.5692 119.923 68.493 119.395 68.5032 118.735L68.5641 114.546H67.2694V113.556L68.5946 113.297L68.8231 111.012H70.0264V113.297H72.2351V114.546H70.0264V118.719C70.0264 119.034 70.0569 119.288 70.1178 119.481C70.1788 119.674 70.2651 119.821 70.3768 119.923C70.4885 120.024 70.6103 120.1 70.7423 120.151C70.8744 120.192 71.0013 120.217 71.1232 120.227L72.1285 120.319V121.446H70.8947ZM76.1654 121.537C75.4038 121.537 74.8097 121.334 74.3832 120.928C73.9669 120.512 73.7587 119.882 73.7587 119.039V113.297H75.2819V118.628C75.2819 119.237 75.419 119.649 75.6932 119.862C75.9776 120.075 76.3736 120.182 76.8813 120.182C77.2875 120.182 77.6734 120.121 78.039 119.999C78.4147 119.867 78.7803 119.689 79.1357 119.466V113.297H80.659V121.446H79.4404L79.1357 120.578C78.7397 120.832 78.2827 121.055 77.7648 121.248C77.2571 121.441 76.7239 121.537 76.1654 121.537ZM82.9719 111.926C82.7891 111.926 82.6977 111.839 82.6977 111.667V110.387C82.6977 110.204 82.7891 110.113 82.9719 110.113H84.0991C84.1803 110.113 84.2413 110.138 84.2819 110.189C84.3225 110.24 84.3428 110.306 84.3428 110.387V111.667C84.3428 111.839 84.2616 111.926 84.0991 111.926H82.9719ZM82.7586 121.446V113.297H84.2819V121.446H82.7586ZM89.236 121.446C88.6876 121.446 88.2306 121.36 87.8651 121.187C87.5096 121.004 87.2456 120.715 87.073 120.319C86.9105 119.923 86.8343 119.395 86.8445 118.735L86.9054 114.546H85.6107V113.556L86.9359 113.297L87.1644 111.012H88.3677V113.297H90.5764V114.546H88.3677V118.719C88.3677 119.034 88.3982 119.288 88.4591 119.481C88.52 119.674 88.6064 119.821 88.7181 119.923C88.8298 120.024 88.9516 120.1 89.0836 120.151C89.2157 120.192 89.3426 120.217 89.4644 120.227L90.4698 120.319V121.446H89.236ZM92.3285 111.926C92.1457 111.926 92.0543 111.839 92.0543 111.667V110.387C92.0543 110.204 92.1457 110.113 92.3285 110.113H93.4557C93.5369 110.113 93.5978 110.138 93.6385 110.189C93.6791 110.24 93.6994 110.306 93.6994 110.387V111.667C93.6994 111.839 93.6182 111.926 93.4557 111.926H92.3285ZM92.1152 121.446V113.297H93.6385V121.446H92.1152ZM97.9223 121.446L94.9672 113.297H96.5362L98.8363 120.029L101.182 113.297H102.751L99.6893 121.446H97.9223ZM106.992 121.537C106.128 121.537 105.438 121.41 104.92 121.157C104.412 120.903 104.047 120.476 103.823 119.877C103.61 119.268 103.503 118.43 103.503 117.364C103.503 116.277 103.61 115.434 103.823 114.835C104.047 114.226 104.412 113.799 104.92 113.556C105.428 113.312 106.113 113.19 106.976 113.19C107.728 113.19 108.332 113.271 108.789 113.434C109.256 113.586 109.596 113.865 109.81 114.271C110.033 114.668 110.145 115.221 110.145 115.932C110.145 116.429 110.043 116.825 109.84 117.12C109.647 117.414 109.368 117.628 109.002 117.76C108.647 117.892 108.22 117.958 107.723 117.958H105.027C105.037 118.547 105.103 119.019 105.225 119.374C105.357 119.72 105.585 119.973 105.91 120.136C106.245 120.288 106.733 120.364 107.372 120.364H109.916V121.278C109.479 121.339 109.033 121.395 108.576 121.446C108.119 121.507 107.591 121.537 106.992 121.537ZM105.011 116.998H107.586C107.992 116.998 108.291 116.922 108.484 116.77C108.677 116.617 108.774 116.338 108.774 115.932C108.774 115.526 108.713 115.206 108.591 114.972C108.479 114.739 108.291 114.571 108.027 114.47C107.763 114.368 107.413 114.317 106.976 114.317C106.479 114.317 106.083 114.393 105.788 114.546C105.504 114.698 105.301 114.967 105.179 115.353C105.067 115.739 105.011 116.287 105.011 116.998ZM112.384 122.695C112.252 122.695 112.136 122.68 112.034 122.649C111.943 122.629 111.897 122.619 111.897 122.619V122.147C112.019 122.147 112.105 122.126 112.156 122.086C112.217 122.045 112.247 121.974 112.247 121.872V121.355H112.11C112.039 121.355 111.978 121.329 111.927 121.278C111.877 121.228 111.851 121.157 111.851 121.065V119.907C111.851 119.704 111.938 119.603 112.11 119.603H112.963C113.065 119.603 113.131 119.633 113.161 119.694C113.202 119.745 113.222 119.816 113.222 119.907V121.827C113.222 122.07 113.176 122.253 113.085 122.375C113.004 122.507 112.897 122.593 112.765 122.634C112.633 122.675 112.506 122.695 112.384 122.695ZM120.817 121.446L118.441 113.297H120.009L121.792 120.029L123.711 113.297H125.006L126.925 120.029L128.631 113.297H130.2L127.854 121.446H126.163L124.335 115.399L122.477 121.446H120.817ZM134.543 121.537C133.924 121.537 133.385 121.471 132.929 121.339C132.482 121.207 132.111 120.989 131.817 120.684C131.522 120.37 131.304 119.943 131.162 119.405C131.019 118.867 130.948 118.186 130.948 117.364C130.948 116.511 131.019 115.815 131.162 115.277C131.304 114.728 131.522 114.302 131.817 113.997C132.111 113.693 132.487 113.484 132.944 113.373C133.401 113.251 133.934 113.19 134.543 113.19C135.152 113.19 135.686 113.251 136.143 113.373C136.6 113.495 136.975 113.708 137.27 114.013C137.564 114.317 137.783 114.744 137.925 115.292C138.067 115.83 138.138 116.521 138.138 117.364C138.138 118.196 138.067 118.887 137.925 119.435C137.783 119.973 137.564 120.395 137.27 120.7C136.985 121.004 136.615 121.223 136.158 121.355C135.701 121.476 135.163 121.537 134.543 121.537ZM134.543 120.288C134.878 120.288 135.173 120.258 135.427 120.197C135.691 120.136 135.909 120.009 136.082 119.816C136.254 119.613 136.386 119.313 136.478 118.917C136.569 118.521 136.615 117.998 136.615 117.348C136.615 116.699 136.569 116.181 136.478 115.795C136.386 115.399 136.254 115.104 136.082 114.911C135.909 114.718 135.691 114.591 135.427 114.53C135.173 114.459 134.878 114.424 134.543 114.424C134.198 114.424 133.893 114.459 133.629 114.53C133.375 114.591 133.162 114.718 132.989 114.911C132.827 115.104 132.7 115.399 132.609 115.795C132.527 116.181 132.487 116.699 132.487 117.348C132.487 117.998 132.527 118.521 132.609 118.917C132.7 119.313 132.827 119.613 132.989 119.816C133.162 120.009 133.375 120.136 133.629 120.197C133.893 120.258 134.198 120.288 134.543 120.288ZM139.999 121.446V113.297H141.172L141.522 114.668C141.867 114.251 142.253 113.901 142.68 113.616C143.106 113.332 143.604 113.19 144.173 113.19C144.305 113.19 144.432 113.2 144.553 113.22C144.675 113.231 144.792 113.251 144.904 113.281V114.85C144.762 114.83 144.614 114.815 144.462 114.805C144.31 114.784 144.152 114.774 143.99 114.774C143.645 114.774 143.335 114.815 143.061 114.896C142.786 114.977 142.522 115.104 142.269 115.277C142.025 115.439 141.776 115.642 141.522 115.886V121.446H139.999ZM148.605 121.461C148.108 121.461 147.686 121.375 147.341 121.202C147.006 121.03 146.752 120.755 146.58 120.38C146.417 119.994 146.336 119.476 146.336 118.826V109.824H147.859V118.628C147.859 119.054 147.9 119.384 147.981 119.618C148.072 119.841 148.194 119.999 148.347 120.09C148.509 120.182 148.697 120.243 148.91 120.273L149.672 120.364V121.461H148.605ZM153.553 121.537C152.893 121.537 152.345 121.395 151.908 121.111C151.481 120.826 151.162 120.385 150.948 119.786C150.735 119.176 150.628 118.394 150.628 117.44C150.628 116.434 150.725 115.622 150.918 115.003C151.121 114.373 151.446 113.916 151.893 113.632C152.339 113.337 152.944 113.19 153.705 113.19C154.132 113.19 154.553 113.236 154.97 113.327C155.396 113.418 155.767 113.52 156.082 113.632V109.824H157.605V121.446H156.356L156.082 120.639C155.919 120.781 155.696 120.923 155.411 121.065C155.127 121.197 154.822 121.309 154.497 121.4C154.172 121.492 153.858 121.537 153.553 121.537ZM154.04 120.288C154.457 120.288 154.833 120.222 155.168 120.09C155.513 119.958 155.818 119.821 156.082 119.679V114.728C155.767 114.637 155.457 114.556 155.152 114.485C154.858 114.404 154.528 114.363 154.162 114.363C153.685 114.363 153.299 114.449 153.005 114.622C152.71 114.794 152.497 115.099 152.365 115.536C152.233 115.972 152.167 116.582 152.167 117.364C152.167 118.085 152.228 118.663 152.35 119.1C152.471 119.527 152.67 119.831 152.944 120.014C153.228 120.197 153.594 120.288 154.04 120.288ZM158.993 117.653V116.404H163.517V117.653H158.993ZM167.976 121.537C167.499 121.537 167.057 121.476 166.651 121.355C166.255 121.223 165.905 121.004 165.6 120.7C165.305 120.395 165.077 119.973 164.914 119.435C164.752 118.897 164.671 118.217 164.671 117.394C164.671 116.551 164.747 115.861 164.899 115.323C165.052 114.774 165.27 114.348 165.554 114.043C165.849 113.728 166.204 113.51 166.62 113.388C167.037 113.266 167.504 113.205 168.022 113.205C168.448 113.205 168.895 113.226 169.362 113.266C169.84 113.307 170.302 113.373 170.748 113.464V114.363H168.448C167.951 114.363 167.534 114.444 167.199 114.607C166.864 114.759 166.615 115.058 166.453 115.505C166.29 115.942 166.209 116.577 166.209 117.409C166.209 118.212 166.295 118.831 166.468 119.268C166.641 119.694 166.89 119.984 167.214 120.136C167.55 120.288 167.966 120.364 168.464 120.364H170.87V121.233C170.637 121.294 170.357 121.349 170.032 121.4C169.718 121.441 169.383 121.471 169.027 121.492C168.682 121.522 168.332 121.537 167.976 121.537ZM174.682 121.461C174.184 121.461 173.763 121.375 173.418 121.202C173.083 121.03 172.829 120.755 172.656 120.38C172.494 119.994 172.412 119.476 172.412 118.826V109.824H173.936V118.628C173.936 119.054 173.976 119.384 174.057 119.618C174.149 119.841 174.271 119.999 174.423 120.09C174.585 120.182 174.773 120.243 174.987 120.273L175.748 120.364V121.461H174.682ZM178.609 121.537C178.01 121.537 177.512 121.36 177.116 121.004C176.73 120.639 176.537 120.136 176.537 119.496V118.856C176.537 118.227 176.751 117.714 177.177 117.318C177.614 116.912 178.269 116.709 179.142 116.709H181.686V115.856C181.686 115.541 181.63 115.277 181.518 115.064C181.417 114.84 181.224 114.673 180.939 114.561C180.655 114.449 180.234 114.393 179.675 114.393H177.177V113.495C177.543 113.413 177.969 113.342 178.457 113.281C178.954 113.22 179.533 113.185 180.193 113.175C180.863 113.175 181.422 113.261 181.869 113.434C182.326 113.596 182.666 113.87 182.889 114.256C183.113 114.632 183.224 115.135 183.224 115.764V121.446H182.021L181.762 120.547C181.701 120.588 181.574 120.664 181.381 120.776C181.188 120.877 180.939 120.989 180.635 121.111C180.34 121.233 180.015 121.334 179.66 121.415C179.315 121.497 178.964 121.537 178.609 121.537ZM179.31 120.425C179.462 120.436 179.64 120.42 179.843 120.38C180.056 120.339 180.264 120.293 180.467 120.243C180.68 120.182 180.873 120.121 181.046 120.06C181.229 119.999 181.376 119.948 181.488 119.907C181.61 119.857 181.676 119.826 181.686 119.816V117.47L179.553 117.562C179.025 117.592 178.644 117.724 178.411 117.958C178.187 118.191 178.076 118.496 178.076 118.872V119.237C178.076 119.532 178.137 119.77 178.259 119.953C178.38 120.126 178.533 120.248 178.716 120.319C178.908 120.39 179.106 120.425 179.31 120.425ZM188.143 121.537C187.93 121.537 187.676 121.532 187.381 121.522C187.087 121.512 186.782 121.492 186.467 121.461C186.163 121.441 185.878 121.415 185.614 121.385C185.36 121.355 185.157 121.319 185.005 121.278V120.364H188.432C188.727 120.364 188.981 120.344 189.194 120.303C189.407 120.253 189.57 120.151 189.681 119.999C189.803 119.847 189.864 119.623 189.864 119.329V118.994C189.864 118.689 189.763 118.45 189.559 118.278C189.356 118.105 189.021 118.019 188.554 118.019H187.366C186.889 118.019 186.462 117.958 186.086 117.836C185.721 117.704 185.431 117.486 185.218 117.181C185.015 116.876 184.914 116.465 184.914 115.947V115.505C184.914 114.987 185.01 114.561 185.203 114.226C185.406 113.891 185.726 113.642 186.163 113.479C186.599 113.307 187.178 113.22 187.899 113.22C188.204 113.22 188.539 113.236 188.904 113.266C189.28 113.286 189.646 113.317 190.001 113.358C190.357 113.398 190.641 113.444 190.854 113.495V114.409H187.625C187.178 114.409 186.833 114.485 186.589 114.637C186.356 114.789 186.239 115.079 186.239 115.505V115.81C186.239 116.074 186.295 116.277 186.406 116.419C186.518 116.561 186.675 116.653 186.879 116.693C187.092 116.734 187.341 116.754 187.625 116.754H188.843C189.615 116.754 190.199 116.937 190.595 117.303C190.991 117.658 191.189 118.161 191.189 118.811V119.435C191.189 119.984 191.062 120.41 190.808 120.715C190.555 121.019 190.199 121.233 189.742 121.355C189.295 121.476 188.762 121.537 188.143 121.537ZM195.774 121.537C195.561 121.537 195.307 121.532 195.012 121.522C194.718 121.512 194.413 121.492 194.098 121.461C193.794 121.441 193.509 121.415 193.245 121.385C192.991 121.355 192.788 121.319 192.636 121.278V120.364H196.063C196.358 120.364 196.612 120.344 196.825 120.303C197.038 120.253 197.201 120.151 197.312 119.999C197.434 119.847 197.495 119.623 197.495 119.329V118.994C197.495 118.689 197.394 118.45 197.19 118.278C196.987 118.105 196.652 118.019 196.185 118.019H194.997C194.52 118.019 194.093 117.958 193.717 117.836C193.352 117.704 193.062 117.486 192.849 117.181C192.646 116.876 192.545 116.465 192.545 115.947V115.505C192.545 114.987 192.641 114.561 192.834 114.226C193.037 113.891 193.357 113.642 193.794 113.479C194.23 113.307 194.809 113.22 195.53 113.22C195.835 113.22 196.17 113.236 196.535 113.266C196.911 113.286 197.277 113.317 197.632 113.358C197.988 113.398 198.272 113.444 198.485 113.495V114.409H195.256C194.809 114.409 194.464 114.485 194.22 114.637C193.987 114.789 193.87 115.079 193.87 115.505V115.81C193.87 116.074 193.926 116.277 194.037 116.419C194.149 116.561 194.306 116.653 194.51 116.693C194.723 116.734 194.972 116.754 195.256 116.754H196.475C197.246 116.754 197.83 116.937 198.226 117.303C198.622 117.658 198.82 118.161 198.82 118.811V119.435C198.82 119.984 198.693 120.41 198.44 120.715C198.186 121.019 197.83 121.233 197.373 121.355C196.926 121.476 196.393 121.537 195.774 121.537ZM207.451 121.537C207.238 121.537 206.984 121.532 206.689 121.522C206.395 121.512 206.09 121.492 205.775 121.461C205.471 121.441 205.186 121.415 204.922 121.385C204.669 121.355 204.465 121.319 204.313 121.278V120.364H207.74C208.035 120.364 208.289 120.344 208.502 120.303C208.715 120.253 208.878 120.151 208.989 119.999C209.111 119.847 209.172 119.623 209.172 119.329V118.994C209.172 118.689 209.071 118.45 208.868 118.278C208.664 118.105 208.329 118.019 207.862 118.019H206.674C206.197 118.019 205.77 117.958 205.395 117.836C205.029 117.704 204.74 117.486 204.526 117.181C204.323 116.876 204.222 116.465 204.222 115.947V115.505C204.222 114.987 204.318 114.561 204.511 114.226C204.714 113.891 205.034 113.642 205.471 113.479C205.907 113.307 206.486 113.22 207.207 113.22C207.512 113.22 207.847 113.236 208.213 113.266C208.588 113.286 208.954 113.317 209.309 113.358C209.665 113.398 209.949 113.444 210.162 113.495V114.409H206.933C206.486 114.409 206.141 114.485 205.897 114.637C205.664 114.789 205.547 115.079 205.547 115.505V115.81C205.547 116.074 205.603 116.277 205.714 116.419C205.826 116.561 205.984 116.653 206.187 116.693C206.4 116.734 206.649 116.754 206.933 116.754H208.152C208.923 116.754 209.507 116.937 209.903 117.303C210.299 117.658 210.497 118.161 210.497 118.811V119.435C210.497 119.984 210.371 120.41 210.117 120.715C209.863 121.019 209.507 121.233 209.05 121.355C208.604 121.476 208.07 121.537 207.451 121.537ZM214.625 121.537C213.863 121.537 213.269 121.334 212.843 120.928C212.427 120.512 212.218 119.882 212.218 119.039V113.297H213.742V118.628C213.742 119.237 213.879 119.649 214.153 119.862C214.437 120.075 214.833 120.182 215.341 120.182C215.747 120.182 216.133 120.121 216.499 119.999C216.874 119.867 217.24 119.689 217.595 119.466V113.297H219.119V121.446H217.9L217.595 120.578C217.199 120.832 216.742 121.055 216.224 121.248C215.717 121.441 215.184 121.537 214.625 121.537ZM221.218 125.056V113.297H222.467L222.742 114.119C222.934 113.977 223.163 113.835 223.427 113.693C223.701 113.55 223.996 113.434 224.31 113.342C224.635 113.241 224.96 113.19 225.285 113.19C225.803 113.19 226.245 113.297 226.611 113.51C226.986 113.723 227.291 114.023 227.524 114.409C227.758 114.784 227.926 115.226 228.027 115.734C228.139 116.242 228.195 116.785 228.195 117.364C228.195 118.267 228.093 119.034 227.89 119.664C227.697 120.283 227.387 120.755 226.961 121.08C226.545 121.395 225.986 121.553 225.285 121.553C224.859 121.553 224.422 121.492 223.975 121.37C223.529 121.238 223.117 121.065 222.742 120.852V125.056H221.218ZM224.828 120.273C225.174 120.273 225.483 120.187 225.758 120.014C226.032 119.841 226.25 119.547 226.413 119.131C226.585 118.704 226.671 118.115 226.671 117.364C226.671 116.653 226.585 116.084 226.413 115.658C226.24 115.221 226.016 114.911 225.742 114.728C225.468 114.536 225.169 114.439 224.844 114.439C224.417 114.439 224.026 114.505 223.671 114.637C223.325 114.769 223.016 114.906 222.742 115.048V119.694C223.056 119.867 223.391 120.009 223.747 120.121C224.112 120.222 224.473 120.273 224.828 120.273ZM230.054 125.056V113.297H231.303L231.577 114.119C231.77 113.977 231.999 113.835 232.263 113.693C232.537 113.55 232.832 113.434 233.146 113.342C233.471 113.241 233.796 113.19 234.121 113.19C234.639 113.19 235.081 113.297 235.446 113.51C235.822 113.723 236.127 114.023 236.36 114.409C236.594 114.784 236.762 115.226 236.863 115.734C236.975 116.242 237.031 116.785 237.031 117.364C237.031 118.267 236.929 119.034 236.726 119.664C236.533 120.283 236.223 120.755 235.797 121.08C235.38 121.395 234.822 121.553 234.121 121.553C233.695 121.553 233.258 121.492 232.811 121.37C232.364 121.238 231.953 121.065 231.577 120.852V125.056H230.054ZM233.664 120.273C234.01 120.273 234.319 120.187 234.593 120.014C234.868 119.841 235.086 119.547 235.248 119.131C235.421 118.704 235.507 118.115 235.507 117.364C235.507 116.653 235.421 116.084 235.248 115.658C235.076 115.221 234.852 114.911 234.578 114.728C234.304 114.536 234.004 114.439 233.68 114.439C233.253 114.439 232.862 114.505 232.507 114.637C232.161 114.769 231.852 114.906 231.577 115.048V119.694C231.892 119.867 232.227 120.009 232.583 120.121C232.948 120.222 233.309 120.273 233.664 120.273ZM242.211 121.537C241.591 121.537 241.053 121.471 240.596 121.339C240.149 121.207 239.779 120.989 239.484 120.684C239.19 120.37 238.971 119.943 238.829 119.405C238.687 118.867 238.616 118.186 238.616 117.364C238.616 116.511 238.687 115.815 238.829 115.277C238.971 114.728 239.19 114.302 239.484 113.997C239.779 113.693 240.154 113.484 240.611 113.373C241.068 113.251 241.602 113.19 242.211 113.19C242.82 113.19 243.353 113.251 243.81 113.373C244.267 113.495 244.643 113.708 244.937 114.013C245.232 114.317 245.45 114.744 245.592 115.292C245.735 115.83 245.806 116.521 245.806 117.364C245.806 118.196 245.735 118.887 245.592 119.435C245.45 119.973 245.232 120.395 244.937 120.7C244.653 121.004 244.282 121.223 243.825 121.355C243.368 121.476 242.83 121.537 242.211 121.537ZM242.211 120.288C242.546 120.288 242.84 120.258 243.094 120.197C243.358 120.136 243.577 120.009 243.749 119.816C243.922 119.613 244.054 119.313 244.145 118.917C244.237 118.521 244.282 117.998 244.282 117.348C244.282 116.699 244.237 116.181 244.145 115.795C244.054 115.399 243.922 115.104 243.749 114.911C243.577 114.718 243.358 114.591 243.094 114.53C242.84 114.459 242.546 114.424 242.211 114.424C241.866 114.424 241.561 114.459 241.297 114.53C241.043 114.591 240.83 114.718 240.657 114.911C240.495 115.104 240.368 115.399 240.276 115.795C240.195 116.181 240.154 116.699 240.154 117.348C240.154 117.998 240.195 118.521 240.276 118.917C240.368 119.313 240.495 119.613 240.657 119.816C240.83 120.009 241.043 120.136 241.297 120.197C241.561 120.258 241.866 120.288 242.211 120.288ZM247.667 121.446V113.297H248.84L249.19 114.668C249.535 114.251 249.921 113.901 250.348 113.616C250.774 113.332 251.272 113.19 251.84 113.19C251.972 113.19 252.099 113.2 252.221 113.22C252.343 113.231 252.46 113.251 252.571 113.281V114.85C252.429 114.83 252.282 114.815 252.13 114.805C251.977 114.784 251.82 114.774 251.658 114.774C251.312 114.774 251.003 114.815 250.728 114.896C250.454 114.977 250.19 115.104 249.936 115.277C249.693 115.439 249.444 115.642 249.19 115.886V121.446H247.667ZM256.97 121.446C256.422 121.446 255.965 121.36 255.599 121.187C255.244 121.004 254.98 120.715 254.807 120.319C254.645 119.923 254.569 119.395 254.579 118.735L254.64 114.546H253.345V113.556L254.67 113.297L254.899 111.012H256.102V113.297H258.311V114.546H256.102V118.719C256.102 119.034 256.132 119.288 256.193 119.481C256.254 119.674 256.341 119.821 256.452 119.923C256.564 120.024 256.686 120.1 256.818 120.151C256.95 120.192 257.077 120.217 257.199 120.227L258.204 120.319V121.446H256.97ZM75.4093 143.446C74.861 143.446 74.404 143.36 74.0384 143.187C73.683 143.004 73.419 142.715 73.2463 142.319C73.0839 141.923 73.0077 141.395 73.0179 140.735L73.0788 136.546H71.784V135.556L73.1092 135.297L73.3377 133.012H74.5411V135.297H76.7498V136.546H74.5411V140.719C74.5411 141.034 74.5716 141.288 74.6325 141.481C74.6934 141.674 74.7797 141.821 74.8914 141.923C75.0031 142.024 75.125 142.1 75.257 142.151C75.389 142.192 75.516 142.217 75.6378 142.227L76.6432 142.319V143.446H75.4093ZM81.6093 143.537C80.9898 143.537 80.4516 143.471 79.9946 143.339C79.5478 143.207 79.1772 142.989 78.8827 142.684C78.5882 142.37 78.3698 141.943 78.2277 141.405C78.0855 140.867 78.0144 140.186 78.0144 139.364C78.0144 138.511 78.0855 137.815 78.2277 137.277C78.3698 136.728 78.5882 136.302 78.8827 135.997C79.1772 135.693 79.5529 135.484 80.0099 135.373C80.4668 135.251 81 135.19 81.6093 135.19C82.2185 135.19 82.7517 135.251 83.2087 135.373C83.6656 135.495 84.0414 135.708 84.3358 136.013C84.6303 136.317 84.8487 136.744 84.9908 137.292C85.133 137.83 85.2041 138.521 85.2041 139.364C85.2041 140.196 85.133 140.887 84.9908 141.435C84.8487 141.973 84.6303 142.395 84.3358 142.7C84.0515 143.004 83.6809 143.223 83.2239 143.355C82.7669 143.476 82.2287 143.537 81.6093 143.537ZM81.6093 142.288C81.9444 142.288 82.2389 142.258 82.4927 142.197C82.7568 142.136 82.9751 142.009 83.1477 141.816C83.3204 141.613 83.4524 141.313 83.5438 140.917C83.6352 140.521 83.6809 139.998 83.6809 139.348C83.6809 138.699 83.6352 138.181 83.5438 137.795C83.4524 137.399 83.3204 137.104 83.1477 136.911C82.9751 136.718 82.7568 136.591 82.4927 136.53C82.2389 136.459 81.9444 136.424 81.6093 136.424C81.264 136.424 80.9593 136.459 80.6953 136.53C80.4414 136.591 80.2282 136.718 80.0556 136.911C79.8931 137.104 79.7661 137.399 79.6747 137.795C79.5935 138.181 79.5529 138.699 79.5529 139.348C79.5529 139.998 79.5935 140.521 79.6747 140.917C79.7661 141.313 79.8931 141.613 80.0556 141.816C80.2282 142.009 80.4414 142.136 80.6953 142.197C80.9593 142.258 81.264 142.288 81.6093 142.288ZM90.3857 143.537C89.7663 143.537 89.228 143.471 88.7711 143.339C88.3243 143.207 87.9536 142.989 87.6591 142.684C87.3646 142.37 87.1463 141.943 87.0041 141.405C86.862 140.867 86.7909 140.186 86.7909 139.364C86.7909 138.511 86.862 137.815 87.0041 137.277C87.1463 136.728 87.3646 136.302 87.6591 135.997C87.9536 135.693 88.3293 135.484 88.7863 135.373C89.2433 135.251 89.7764 135.19 90.3857 135.19C90.995 135.19 91.5281 135.251 91.9851 135.373C92.4421 135.495 92.8178 135.708 93.1123 136.013C93.4068 136.317 93.6251 136.744 93.7673 137.292C93.9095 137.83 93.9805 138.521 93.9805 139.364C93.9805 140.196 93.9095 140.887 93.7673 141.435C93.6251 141.973 93.4068 142.395 93.1123 142.7C92.828 143.004 92.4573 143.223 92.0003 143.355C91.5434 143.476 91.0052 143.537 90.3857 143.537ZM90.3857 142.288C90.7208 142.288 91.0153 142.258 91.2692 142.197C91.5332 142.136 91.7515 142.009 91.9242 141.816C92.0968 141.613 92.2288 141.313 92.3202 140.917C92.4116 140.521 92.4573 139.998 92.4573 139.348C92.4573 138.699 92.4116 138.181 92.3202 137.795C92.2288 137.399 92.0968 137.104 91.9242 136.911C91.7515 136.718 91.5332 136.591 91.2692 136.53C91.0153 136.459 90.7208 136.424 90.3857 136.424C90.0404 136.424 89.7358 136.459 89.4718 136.53C89.2179 136.591 89.0046 136.718 88.832 136.911C88.6695 137.104 88.5426 137.399 88.4512 137.795C88.37 138.181 88.3293 138.699 88.3293 139.348C88.3293 139.998 88.37 140.521 88.4512 140.917C88.5426 141.313 88.6695 141.613 88.832 141.816C89.0046 142.009 89.2179 142.136 89.4718 142.197C89.7358 142.258 90.0404 142.288 90.3857 142.288ZM98.1111 143.461C97.6135 143.461 97.1921 143.375 96.8468 143.202C96.5117 143.03 96.2579 142.755 96.0852 142.38C95.9227 141.994 95.8415 141.476 95.8415 140.826V131.824H97.3647V140.628C97.3647 141.054 97.4054 141.384 97.4866 141.618C97.578 141.841 97.6998 141.999 97.8522 142.09C98.0147 142.182 98.2025 142.243 98.4158 142.273L99.1774 142.364V143.461H98.1111ZM103.257 143.537C103.043 143.537 102.79 143.532 102.495 143.522C102.201 143.512 101.896 143.492 101.581 143.461C101.276 143.441 100.992 143.415 100.728 143.385C100.474 143.355 100.271 143.319 100.119 143.278V142.364H103.546C103.841 142.364 104.094 142.344 104.308 142.303C104.521 142.253 104.683 142.151 104.795 141.999C104.917 141.847 104.978 141.623 104.978 141.329V140.994C104.978 140.689 104.876 140.45 104.673 140.278C104.47 140.105 104.135 140.019 103.668 140.019H102.48C102.003 140.019 101.576 139.958 101.2 139.836C100.835 139.704 100.545 139.486 100.332 139.181C100.129 138.876 100.027 138.465 100.027 137.947V137.505C100.027 136.987 100.124 136.561 100.317 136.226C100.52 135.891 100.84 135.642 101.276 135.479C101.713 135.307 102.292 135.22 103.013 135.22C103.318 135.22 103.653 135.236 104.018 135.266C104.394 135.286 104.76 135.317 105.115 135.358C105.47 135.398 105.755 135.444 105.968 135.495V136.409H102.739C102.292 136.409 101.947 136.485 101.703 136.637C101.469 136.789 101.353 137.079 101.353 137.505V137.81C101.353 138.074 101.408 138.277 101.52 138.419C101.632 138.561 101.789 138.653 101.992 138.693C102.206 138.734 102.454 138.754 102.739 138.754H103.957C104.729 138.754 105.313 138.937 105.709 139.303C106.105 139.658 106.303 140.161 106.303 140.811V141.435C106.303 141.984 106.176 142.41 105.922 142.715C105.668 143.019 105.313 143.233 104.856 143.355C104.409 143.476 103.876 143.537 103.257 143.537ZM112.573 143.446V136.546H111.354V135.556L112.573 135.297V134.489C112.573 133.88 112.649 133.372 112.801 132.966C112.954 132.55 113.207 132.24 113.563 132.037C113.918 131.834 114.406 131.732 115.025 131.732C115.381 131.732 115.685 131.753 115.939 131.793C116.203 131.834 116.432 131.869 116.625 131.9V132.997H115.299C114.974 132.997 114.726 133.047 114.553 133.149C114.38 133.25 114.259 133.408 114.187 133.621C114.127 133.834 114.096 134.098 114.096 134.413V135.297H116.488V136.546H114.096V143.446H112.573ZM121.118 143.537C120.499 143.537 119.96 143.471 119.504 143.339C119.057 143.207 118.686 142.989 118.392 142.684C118.097 142.37 117.879 141.943 117.737 141.405C117.594 140.867 117.523 140.186 117.523 139.364C117.523 138.511 117.594 137.815 117.737 137.277C117.879 136.728 118.097 136.302 118.392 135.997C118.686 135.693 119.062 135.484 119.519 135.373C119.976 135.251 120.509 135.19 121.118 135.19C121.727 135.19 122.261 135.251 122.718 135.373C123.175 135.495 123.55 135.708 123.845 136.013C124.139 136.317 124.358 136.744 124.5 137.292C124.642 137.83 124.713 138.521 124.713 139.364C124.713 140.196 124.642 140.887 124.5 141.435C124.358 141.973 124.139 142.395 123.845 142.7C123.56 143.004 123.19 143.223 122.733 143.355C122.276 143.476 121.738 143.537 121.118 143.537ZM121.118 142.288C121.453 142.288 121.748 142.258 122.002 142.197C122.266 142.136 122.484 142.009 122.657 141.816C122.829 141.613 122.961 141.313 123.053 140.917C123.144 140.521 123.19 139.998 123.19 139.348C123.19 138.699 123.144 138.181 123.053 137.795C122.961 137.399 122.829 137.104 122.657 136.911C122.484 136.718 122.266 136.591 122.002 136.53C121.748 136.459 121.453 136.424 121.118 136.424C120.773 136.424 120.468 136.459 120.204 136.53C119.95 136.591 119.737 136.718 119.564 136.911C119.402 137.104 119.275 137.399 119.184 137.795C119.102 138.181 119.062 138.699 119.062 139.348C119.062 139.998 119.102 140.521 119.184 140.917C119.275 141.313 119.402 141.613 119.564 141.816C119.737 142.009 119.95 142.136 120.204 142.197C120.468 142.258 120.773 142.288 121.118 142.288ZM126.574 143.446V135.297H127.747L128.097 136.668C128.442 136.251 128.828 135.901 129.255 135.616C129.681 135.332 130.179 135.19 130.748 135.19C130.88 135.19 131.007 135.2 131.128 135.22C131.25 135.231 131.367 135.251 131.479 135.281V136.85C131.337 136.83 131.189 136.815 131.037 136.805C130.885 136.784 130.727 136.774 130.565 136.774C130.22 136.774 129.91 136.815 129.636 136.896C129.361 136.977 129.097 137.104 128.844 137.277C128.6 137.439 128.351 137.642 128.097 137.886V143.446H126.574ZM138.983 147.193C138.465 147.193 138.003 147.117 137.597 146.965C137.201 146.822 136.886 146.599 136.652 146.294C136.419 146 136.302 145.634 136.302 145.198V144.863C136.302 144.406 136.429 144.02 136.683 143.705C136.947 143.4 137.277 143.167 137.673 143.004C138.069 142.842 138.48 142.76 138.907 142.76L139.318 143.324C139.044 143.324 138.785 143.365 138.541 143.446C138.308 143.537 138.115 143.674 137.962 143.857C137.82 144.05 137.749 144.294 137.749 144.588V144.878C137.749 145.304 137.891 145.614 138.176 145.807C138.47 146 138.871 146.096 139.379 146.096H141.161C141.699 146.096 142.126 145.99 142.441 145.776C142.755 145.573 142.913 145.253 142.913 144.817V144.527C142.913 144.284 142.857 144.07 142.745 143.888C142.644 143.705 142.476 143.563 142.243 143.461C142.009 143.37 141.689 143.324 141.283 143.324H139.029C138.308 143.324 137.759 143.177 137.383 142.882C137.008 142.588 136.82 142.217 136.82 141.77C136.82 141.364 136.937 141.039 137.17 140.795C137.414 140.542 137.754 140.369 138.191 140.278C137.825 140.115 137.536 139.907 137.323 139.653C137.119 139.399 136.977 139.125 136.896 138.831C136.815 138.526 136.774 138.221 136.774 137.917C136.774 137.297 136.901 136.794 137.155 136.409C137.409 136.023 137.774 135.738 138.252 135.556C138.739 135.373 139.318 135.281 139.988 135.281H144.375V136.15L142.715 136.317C142.837 136.409 142.969 136.53 143.111 136.683C143.253 136.825 143.375 137.023 143.476 137.277C143.578 137.531 143.629 137.866 143.629 138.282C143.629 138.719 143.532 139.125 143.339 139.501C143.156 139.876 142.852 140.181 142.425 140.415C142.009 140.648 141.44 140.765 140.719 140.765H139.379C138.993 140.765 138.688 140.821 138.465 140.933C138.242 141.044 138.13 141.242 138.13 141.527C138.13 141.76 138.216 141.923 138.389 142.014C138.561 142.105 138.744 142.151 138.937 142.151H141.511C142.131 142.151 142.649 142.232 143.065 142.395C143.492 142.557 143.811 142.806 144.025 143.141C144.238 143.476 144.345 143.913 144.345 144.451V144.741C144.345 145.512 144.091 146.112 143.583 146.538C143.085 146.975 142.329 147.193 141.313 147.193H138.983ZM139.653 139.592H140.552C141.009 139.592 141.354 139.526 141.588 139.394C141.831 139.252 141.999 139.069 142.09 138.846C142.182 138.622 142.227 138.374 142.227 138.099C142.227 137.693 142.161 137.373 142.029 137.14C141.897 136.896 141.714 136.723 141.481 136.622C141.258 136.51 140.983 136.454 140.658 136.454H139.805C139.287 136.454 138.881 136.571 138.587 136.805C138.302 137.038 138.16 137.439 138.16 138.008C138.16 138.566 138.292 138.973 138.556 139.227C138.82 139.47 139.186 139.592 139.653 139.592ZM145.763 143.446V135.297H146.936L147.286 136.668C147.632 136.251 148.018 135.901 148.444 135.616C148.871 135.332 149.368 135.19 149.937 135.19C150.069 135.19 150.196 135.2 150.318 135.22C150.439 135.231 150.556 135.251 150.668 135.281V136.85C150.526 136.83 150.379 136.815 150.226 136.805C150.074 136.784 149.916 136.774 149.754 136.774C149.409 136.774 149.099 136.815 148.825 136.896C148.551 136.977 148.287 137.104 148.033 137.277C147.789 137.439 147.54 137.642 147.286 137.886V143.446H145.763ZM155.421 143.537C154.801 143.537 154.263 143.471 153.806 143.339C153.359 143.207 152.989 142.989 152.694 142.684C152.4 142.37 152.181 141.943 152.039 141.405C151.897 140.867 151.826 140.186 151.826 139.364C151.826 138.511 151.897 137.815 152.039 137.277C152.181 136.728 152.4 136.302 152.694 135.997C152.989 135.693 153.364 135.484 153.821 135.373C154.278 135.251 154.811 135.19 155.421 135.19C156.03 135.19 156.563 135.251 157.02 135.373C157.477 135.495 157.853 135.708 158.147 136.013C158.442 136.317 158.66 136.744 158.802 137.292C158.944 137.83 159.016 138.521 159.016 139.364C159.016 140.196 158.944 140.887 158.802 141.435C158.66 141.973 158.442 142.395 158.147 142.7C157.863 143.004 157.492 143.223 157.035 143.355C156.578 143.476 156.04 143.537 155.421 143.537ZM155.421 142.288C155.756 142.288 156.05 142.258 156.304 142.197C156.568 142.136 156.787 142.009 156.959 141.816C157.132 141.613 157.264 141.313 157.355 140.917C157.447 140.521 157.492 139.998 157.492 139.348C157.492 138.699 157.447 138.181 157.355 137.795C157.264 137.399 157.132 137.104 156.959 136.911C156.787 136.718 156.568 136.591 156.304 136.53C156.05 136.459 155.756 136.424 155.421 136.424C155.075 136.424 154.771 136.459 154.507 136.53C154.253 136.591 154.04 136.718 153.867 136.911C153.704 137.104 153.578 137.399 153.486 137.795C153.405 138.181 153.364 138.699 153.364 139.348C153.364 139.998 153.405 140.521 153.486 140.917C153.578 141.313 153.704 141.613 153.867 141.816C154.04 142.009 154.253 142.136 154.507 142.197C154.771 142.258 155.075 142.288 155.421 142.288ZM162.148 143.446L159.772 135.297H161.341L163.123 142.029L165.042 135.297H166.337L168.256 142.029L169.962 135.297H171.531L169.185 143.446H167.494L165.667 137.399L163.808 143.446H162.148ZM173.064 133.926C172.882 133.926 172.79 133.839 172.79 133.667V132.387C172.79 132.204 172.882 132.113 173.064 132.113H174.192C174.273 132.113 174.334 132.138 174.374 132.189C174.415 132.24 174.435 132.306 174.435 132.387V133.667C174.435 133.839 174.354 133.926 174.192 133.926H173.064ZM172.851 143.446V135.297H174.374V143.446H172.851ZM176.51 143.446V135.297H177.729L178.034 136.18C178.399 135.916 178.831 135.683 179.328 135.479C179.836 135.266 180.359 135.16 180.897 135.16C181.507 135.16 181.994 135.292 182.36 135.556C182.735 135.809 183.005 136.15 183.167 136.576C183.329 137.003 183.411 137.465 183.411 137.962V143.446H181.887V138.145C181.887 137.82 181.821 137.541 181.689 137.307C181.568 137.064 181.395 136.876 181.172 136.744C180.948 136.612 180.674 136.546 180.349 136.546C180.044 136.546 179.76 136.576 179.496 136.637C179.242 136.698 178.998 136.784 178.765 136.896C178.531 136.998 178.288 137.124 178.034 137.277V143.446H176.51ZM187.521 147.193C187.003 147.193 186.541 147.117 186.135 146.965C185.739 146.822 185.424 146.599 185.191 146.294C184.957 146 184.84 145.634 184.84 145.198V144.863C184.84 144.406 184.967 144.02 185.221 143.705C185.485 143.4 185.815 143.167 186.211 143.004C186.607 142.842 187.018 142.76 187.445 142.76L187.856 143.324C187.582 143.324 187.323 143.365 187.079 143.446C186.846 143.537 186.653 143.674 186.5 143.857C186.358 144.05 186.287 144.294 186.287 144.588V144.878C186.287 145.304 186.429 145.614 186.714 145.807C187.008 146 187.409 146.096 187.917 146.096H189.699C190.237 146.096 190.664 145.99 190.979 145.776C191.294 145.573 191.451 145.253 191.451 144.817V144.527C191.451 144.284 191.395 144.07 191.283 143.888C191.182 143.705 191.014 143.563 190.781 143.461C190.547 143.37 190.227 143.324 189.821 143.324H187.567C186.846 143.324 186.297 143.177 185.922 142.882C185.546 142.588 185.358 142.217 185.358 141.77C185.358 141.364 185.475 141.039 185.708 140.795C185.952 140.542 186.292 140.369 186.729 140.278C186.363 140.115 186.074 139.907 185.861 139.653C185.658 139.399 185.515 139.125 185.434 138.831C185.353 138.526 185.312 138.221 185.312 137.917C185.312 137.297 185.439 136.794 185.693 136.409C185.947 136.023 186.313 135.738 186.79 135.556C187.277 135.373 187.856 135.281 188.526 135.281H192.913V136.15L191.253 136.317C191.375 136.409 191.507 136.53 191.649 136.683C191.791 136.825 191.913 137.023 192.015 137.277C192.116 137.531 192.167 137.866 192.167 138.282C192.167 138.719 192.07 139.125 191.878 139.501C191.695 139.876 191.39 140.181 190.964 140.415C190.547 140.648 189.979 140.765 189.258 140.765H187.917C187.531 140.765 187.227 140.821 187.003 140.933C186.78 141.044 186.668 141.242 186.668 141.527C186.668 141.76 186.754 141.923 186.927 142.014C187.1 142.105 187.282 142.151 187.475 142.151H190.05C190.669 142.151 191.187 142.232 191.603 142.395C192.03 142.557 192.35 142.806 192.563 143.141C192.776 143.476 192.883 143.913 192.883 144.451V144.741C192.883 145.512 192.629 146.112 192.121 146.538C191.624 146.975 190.867 147.193 189.852 147.193H187.521ZM188.191 139.592H189.09C189.547 139.592 189.892 139.526 190.126 139.394C190.37 139.252 190.537 139.069 190.628 138.846C190.72 138.622 190.766 138.374 190.766 138.099C190.766 137.693 190.7 137.373 190.568 137.14C190.436 136.896 190.253 136.723 190.019 136.622C189.796 136.51 189.522 136.454 189.197 136.454H188.344C187.826 136.454 187.42 136.571 187.125 136.805C186.841 137.038 186.699 137.439 186.699 138.008C186.699 138.566 186.831 138.973 187.095 139.227C187.359 139.47 187.724 139.592 188.191 139.592ZM201.165 143.446C200.617 143.446 200.16 143.36 199.795 143.187C199.439 143.004 199.175 142.715 199.002 142.319C198.84 141.923 198.764 141.395 198.774 140.735L198.835 136.546H197.54V135.556L198.865 135.297L199.094 133.012H200.297V135.297H202.506V136.546H200.297V140.719C200.297 141.034 200.328 141.288 200.389 141.481C200.45 141.674 200.536 141.821 200.648 141.923C200.759 142.024 200.881 142.1 201.013 142.151C201.145 142.192 201.272 142.217 201.394 142.227L202.399 142.319V143.446H201.165ZM207.259 143.537C206.396 143.537 205.705 143.41 205.187 143.157C204.679 142.903 204.314 142.476 204.09 141.877C203.877 141.268 203.771 140.43 203.771 139.364C203.771 138.277 203.877 137.434 204.09 136.835C204.314 136.226 204.679 135.799 205.187 135.556C205.695 135.312 206.38 135.19 207.243 135.19C207.995 135.19 208.599 135.271 209.056 135.434C209.523 135.586 209.863 135.865 210.077 136.271C210.3 136.668 210.412 137.221 210.412 137.932C210.412 138.429 210.31 138.825 210.107 139.12C209.914 139.414 209.635 139.628 209.269 139.76C208.914 139.892 208.487 139.958 207.99 139.958H205.294C205.304 140.547 205.37 141.019 205.492 141.374C205.624 141.72 205.852 141.973 206.177 142.136C206.512 142.288 207 142.364 207.64 142.364H210.183V143.278C209.747 143.339 209.3 143.395 208.843 143.446C208.386 143.507 207.858 143.537 207.259 143.537ZM205.279 138.998H207.853C208.259 138.998 208.559 138.922 208.751 138.77C208.944 138.617 209.041 138.338 209.041 137.932C209.041 137.526 208.98 137.206 208.858 136.972C208.746 136.739 208.559 136.571 208.295 136.47C208.031 136.368 207.68 136.317 207.243 136.317C206.746 136.317 206.35 136.393 206.055 136.546C205.771 136.698 205.568 136.967 205.446 137.353C205.334 137.739 205.279 138.287 205.279 138.998ZM213.901 143.537C213.301 143.537 212.804 143.36 212.408 143.004C212.022 142.639 211.829 142.136 211.829 141.496V140.856C211.829 140.227 212.042 139.714 212.469 139.318C212.905 138.912 213.56 138.709 214.434 138.709H216.978V137.856C216.978 137.541 216.922 137.277 216.81 137.064C216.708 136.84 216.516 136.673 216.231 136.561C215.947 136.449 215.525 136.393 214.967 136.393H212.469V135.495C212.834 135.413 213.261 135.342 213.748 135.281C214.246 135.22 214.825 135.185 215.485 135.175C216.155 135.175 216.714 135.261 217.16 135.434C217.617 135.596 217.958 135.87 218.181 136.256C218.404 136.632 218.516 137.135 218.516 137.764V143.446H217.313L217.054 142.547C216.993 142.588 216.866 142.664 216.673 142.776C216.48 142.877 216.231 142.989 215.927 143.111C215.632 143.233 215.307 143.334 214.952 143.415C214.606 143.497 214.256 143.537 213.901 143.537ZM214.601 142.425C214.754 142.436 214.931 142.42 215.134 142.38C215.348 142.339 215.556 142.293 215.759 142.243C215.972 142.182 216.165 142.121 216.338 142.06C216.521 141.999 216.668 141.948 216.78 141.907C216.901 141.857 216.967 141.826 216.978 141.816V139.47L214.845 139.562C214.317 139.592 213.936 139.724 213.703 139.958C213.479 140.191 213.367 140.496 213.367 140.872V141.237C213.367 141.532 213.428 141.77 213.55 141.953C213.672 142.126 213.824 142.248 214.007 142.319C214.2 142.39 214.398 142.425 214.601 142.425ZM220.586 143.446V135.297H221.805L222.109 136.18C222.505 135.906 222.942 135.667 223.419 135.464C223.897 135.261 224.445 135.16 225.064 135.16C225.572 135.16 226.004 135.271 226.359 135.495C226.715 135.718 226.984 136.002 227.166 136.348C227.41 136.165 227.705 135.982 228.05 135.799C228.395 135.616 228.766 135.464 229.162 135.342C229.558 135.22 229.939 135.16 230.304 135.16C230.914 135.16 231.406 135.286 231.782 135.54C232.168 135.784 232.442 136.124 232.604 136.561C232.777 136.987 232.863 137.475 232.863 138.023V143.446H231.34V138.145C231.34 137.82 231.274 137.541 231.142 137.307C231.02 137.064 230.843 136.876 230.609 136.744C230.386 136.612 230.111 136.546 229.786 136.546C229.38 136.546 228.964 136.627 228.537 136.789C228.111 136.942 227.72 137.13 227.364 137.353C227.405 137.485 227.436 137.622 227.456 137.764C227.476 137.896 227.486 138.028 227.486 138.16V143.446H225.963V138.145C225.963 137.82 225.897 137.541 225.765 137.307C225.643 137.064 225.471 136.876 225.247 136.744C225.024 136.612 224.75 136.546 224.425 136.546C224.12 136.546 223.836 136.576 223.572 136.637C223.318 136.698 223.074 136.784 222.84 136.896C222.607 136.998 222.363 137.124 222.109 137.277V143.446H220.586ZM237.804 143.537C237.591 143.537 237.337 143.532 237.042 143.522C236.748 143.512 236.443 143.492 236.129 143.461C235.824 143.441 235.54 143.415 235.276 143.385C235.022 143.355 234.819 143.319 234.666 143.278V142.364H238.094C238.388 142.364 238.642 142.344 238.855 142.303C239.068 142.253 239.231 142.151 239.343 141.999C239.464 141.847 239.525 141.623 239.525 141.329V140.994C239.525 140.689 239.424 140.45 239.221 140.278C239.018 140.105 238.683 140.019 238.215 140.019H237.027C236.55 140.019 236.123 139.958 235.748 139.836C235.382 139.704 235.093 139.486 234.879 139.181C234.676 138.876 234.575 138.465 234.575 137.947V137.505C234.575 136.987 234.671 136.561 234.864 136.226C235.067 135.891 235.387 135.642 235.824 135.479C236.261 135.307 236.839 135.22 237.56 135.22C237.865 135.22 238.2 135.236 238.566 135.266C238.941 135.286 239.307 135.317 239.662 135.358C240.018 135.398 240.302 135.444 240.515 135.495V136.409H237.286C236.839 136.409 236.494 136.485 236.25 136.637C236.017 136.789 235.9 137.079 235.9 137.505V137.81C235.9 138.074 235.956 138.277 236.068 138.419C236.179 138.561 236.337 138.653 236.54 138.693C236.753 138.734 237.002 138.754 237.286 138.754H238.505C239.277 138.754 239.86 138.937 240.257 139.303C240.653 139.658 240.851 140.161 240.851 140.811V141.435C240.851 141.984 240.724 142.41 240.47 142.715C240.216 143.019 239.86 143.233 239.403 143.355C238.957 143.476 238.424 143.537 237.804 143.537Z" fill="white" />
  <defs>
    <linearGradient id="paint0_linear_0_1" x1="5.36986" y1="-133.925" x2="301.037" y2="79.6347" gradientUnits="userSpaceOnUse">
      <stop stop-color="#CE3A79" />
      <stop offset="1" stop-color="#7030A0" />
    </linearGradient>
    <linearGradient id="paint1_linear_0_1" x1="-21.2957" y1="-23.9519" x2="66.3769" y2="52.9995" gradientUnits="userSpaceOnUse">
      <stop stop-color="white" stop-opacity="0.4" />
      <stop offset="1" stop-color="white" stop-opacity="0" />
    </linearGradient>
    <linearGradient id="paint2_linear_0_1" x1="-21.2957" y1="-23.9519" x2="66.3769" y2="52.9995" gradientUnits="userSpaceOnUse">
      <stop stop-color="white" stop-opacity="0.4" />
      <stop offset="1" stop-color="white" stop-opacity="0" />
    </linearGradient>
    <clipPath id="clip0_0_1">
      <rect x="0.403595" y="0.986694" width="312.999" height="179.73" rx="17.2376" fill="white" />
    </clipPath>
  </defs>
</svg>