<svg width="564" height="106" viewBox="0 0 564 106" fill="none" xmlns="http://www.w3.org/2000/svg">
<mask id="path-1-outside-1_1715_2232" maskUnits="userSpaceOnUse" x="0" y="0" width="564" height="106" fill="black">
<rect fill="white" width="564" height="106"/>
<path d="M2.09141 102V3.98573H37.8339C46.2414 3.98573 53.5162 5.4015 59.6585 8.23302C65.8442 11.021 70.5925 15.0069 73.9032 20.1908C77.2575 25.3311 78.9346 31.4515 78.9346 38.5521C78.9346 45.6527 77.2575 51.8167 73.9032 57.0441C70.5925 62.228 65.8878 66.2357 59.7891 69.0672C53.6905 71.8987 46.481 73.3145 38.1607 73.3145H27.9672V102H2.09141ZM27.9672 50.7712H35.2856C40.8615 50.7712 45.1088 49.7257 48.0274 47.6348C50.9896 45.5438 52.4707 42.5162 52.4707 38.5521C52.4707 34.6751 50.9896 31.7129 48.0274 29.6655C45.0652 27.5745 40.8179 26.529 35.2856 26.529H27.9672V50.7712ZM178.778 102H150.158L131.47 69.5899H117.879V102H92.0032V3.98573H133.431C141.925 3.98573 149.156 5.27081 155.124 7.84096C161.092 10.4111 165.645 14.1574 168.781 19.0799C171.961 23.9589 173.551 29.8615 173.551 36.7878C173.551 43.2786 172.157 48.8763 169.369 53.581C166.581 58.2856 162.552 61.9884 157.281 64.6892L178.778 102ZM117.879 49.6604H131.405C136.589 49.6604 140.488 48.702 143.101 46.7853C145.759 44.825 147.087 41.9281 147.087 38.0947C147.087 34.2613 145.759 31.3862 143.101 29.4694C140.488 27.5092 136.589 26.529 131.405 26.529H117.879V49.6604ZM186.62 102V3.98573H212.495V102H186.62ZM311.882 89.8462C307.264 94.2895 301.797 97.7527 295.481 100.236C289.208 102.719 282.369 103.96 274.963 103.96C267.514 103.96 260.609 102.697 254.249 100.17C247.933 97.6002 242.422 94.0282 237.718 89.4542C233.057 84.8366 229.419 79.4349 226.805 73.2491C224.235 67.0634 222.95 60.3113 222.95 52.9929C222.95 45.6745 224.235 38.9224 226.805 32.7366C229.419 26.5508 233.057 21.1709 237.718 16.5969C242.422 11.9793 247.933 8.40727 254.249 5.88068C260.609 3.31053 267.514 2.02545 274.963 2.02545C282.325 2.02545 289.121 3.28874 295.35 5.81533C301.623 8.29836 307.068 11.7615 311.686 16.2048L293.651 34.3702C291.386 31.3208 288.598 28.9249 285.287 27.1824C282.02 25.44 278.448 24.5687 274.571 24.5687C270.999 24.5687 267.688 25.2875 264.639 26.725C261.59 28.1626 258.911 30.1664 256.602 32.7366C254.337 35.3067 252.572 38.3125 251.309 41.7539C250.046 45.1953 249.414 48.9198 249.414 52.9275C249.414 56.9788 250.046 60.7251 251.309 64.1665C252.572 67.6079 254.337 70.6354 256.602 73.2491C258.911 75.8193 261.59 77.8231 264.639 79.2607C267.688 80.6982 270.999 81.417 274.571 81.417C278.448 81.417 282.02 80.5458 285.287 78.8033C288.554 77.0608 291.321 74.6649 293.586 71.6156L311.882 89.8462ZM321.749 102V3.98573H347.624V102H321.749ZM452.304 102H421.854L386.569 43.8449V102H360.693V3.98573H391.143L426.428 62.3369V3.98573H452.304V102ZM533.917 32.2792C531.564 29.8397 528.689 27.9448 525.292 26.5944C521.894 25.2439 518.235 24.5687 514.314 24.5687C510.524 24.5687 507.083 25.2222 503.99 26.529C500.94 27.7923 498.305 29.6437 496.083 32.0832C493.905 34.5226 492.206 37.4413 490.987 40.8391C489.81 44.2369 489.222 48.0704 489.222 52.3394C489.222 56.6956 489.854 60.6598 491.117 64.2318C492.381 67.8039 494.188 70.875 496.541 73.4452C498.893 75.9718 501.681 77.9321 504.905 79.326C508.172 80.72 511.787 81.417 515.752 81.417C518.714 81.417 521.415 81.0249 523.854 80.2408C526.293 79.4567 528.45 78.3023 530.323 76.7777C532.196 75.253 533.786 73.3798 535.093 71.1582C536.4 68.893 537.402 66.3228 538.099 63.4477H514.641V43.8449H560.838L561.557 53.7116C561.557 61.1607 560.424 67.9782 558.159 74.1639C555.937 80.3062 552.757 85.5989 548.619 90.0423C544.481 94.4856 539.536 97.927 533.786 100.366C528.08 102.762 521.719 103.96 514.706 103.96C507.388 103.96 500.57 102.675 494.254 100.105C487.981 97.4913 482.47 93.8757 477.722 89.2581C473.017 84.597 469.336 79.1518 466.679 72.9224C464.065 66.6931 462.758 59.9628 462.758 52.7315C462.758 45.5873 464.044 38.9442 466.614 32.8019C469.184 26.6597 472.778 21.2798 477.395 16.6622C482.013 12.0447 487.393 8.45083 493.535 5.88068C499.721 3.31053 506.407 2.02545 513.595 2.02545C520.347 2.02545 526.925 3.20162 533.329 5.55396C539.732 7.90631 545.483 11.2606 550.579 15.6168L533.917 32.2792Z"/>
</mask>
<path d="M2.09141 102H0.0914133V104H2.09141V102ZM2.09141 3.98573V1.98573H0.0914133V3.98573H2.09141ZM59.6585 8.23302L58.8212 10.0493L58.8289 10.0529L58.8367 10.0564L59.6585 8.23302ZM73.9032 20.1908L72.2176 21.2673L72.2229 21.2755L72.2283 21.2837L73.9032 20.1908ZM73.9032 57.0441L72.2199 55.964L72.2176 55.9676L73.9032 57.0441ZM59.7891 69.0672L60.6314 70.8812L59.7891 69.0672ZM27.9672 73.3145V71.3145H25.9672V73.3145H27.9672ZM27.9672 102V104H29.9672V102H27.9672ZM27.9672 50.7712H25.9672V52.7712H27.9672V50.7712ZM48.0274 47.6348L46.874 46.0008L46.8627 46.0089L48.0274 47.6348ZM48.0274 29.6655L46.8741 31.2994L46.8821 31.3051L46.8903 31.3107L48.0274 29.6655ZM27.9672 26.529V24.529H25.9672V26.529H27.9672ZM4.09141 102V3.98573H0.0914133V102H4.09141ZM2.09141 5.98573H37.8339V1.98573H2.09141V5.98573ZM37.8339 5.98573C46.0207 5.98573 52.9972 7.36452 58.8212 10.0493L60.4958 6.41672C54.0353 3.43848 46.4621 1.98573 37.8339 1.98573V5.98573ZM58.8367 10.0564C64.706 12.7017 69.1375 16.4444 72.2176 21.2673L75.5888 19.1143C72.0475 13.5694 66.9825 9.34024 60.4803 6.40966L58.8367 10.0564ZM72.2283 21.2837C75.3387 26.0504 76.9346 31.7773 76.9346 38.5521H80.9346C80.9346 31.1257 79.1762 24.6117 75.5781 19.0978L72.2283 21.2837ZM76.9346 38.5521C76.9346 45.326 75.339 51.1032 72.2199 55.964L75.5865 58.1242C79.176 52.5302 80.9346 45.9794 80.9346 38.5521H76.9346ZM72.2176 55.9676C69.131 60.8006 64.7334 64.5666 58.9469 67.2532L60.6314 70.8812C67.0422 67.9048 72.054 63.6554 75.5888 58.1206L72.2176 55.9676ZM58.9469 67.2532C53.1671 69.9367 46.2574 71.3145 38.1607 71.3145V75.3145C46.7045 75.3145 54.2139 73.8608 60.6314 70.8812L58.9469 67.2532ZM38.1607 71.3145H27.9672V75.3145H38.1607V71.3145ZM25.9672 73.3145V102H29.9672V73.3145H25.9672ZM27.9672 100H2.09141V104H27.9672V100ZM27.9672 52.7712H35.2856V48.7712H27.9672V52.7712ZM35.2856 52.7712C41.0638 52.7712 45.793 51.6959 49.1922 49.2606L46.8627 46.0089C44.4246 47.7556 40.6592 48.7712 35.2856 48.7712V52.7712ZM49.1808 49.2687C52.7293 46.7639 54.4707 43.0952 54.4707 38.5521H50.4707C50.4707 41.9373 49.25 44.3237 46.8741 46.0008L49.1808 49.2687ZM54.4707 38.5521C54.4707 34.0776 52.7142 30.4736 49.1646 28.0202L46.8903 31.3107C49.2651 32.9521 50.4707 35.2726 50.4707 38.5521H54.4707ZM49.1808 28.0315C45.7461 25.6071 41.0273 24.529 35.2856 24.529V28.529C40.6085 28.529 44.3843 29.5419 46.8741 31.2994L49.1808 28.0315ZM35.2856 24.529H27.9672V28.529H35.2856V24.529ZM25.9672 26.529V50.7712H29.9672V26.529H25.9672ZM178.778 102V104H182.239L180.511 101.002L178.778 102ZM150.158 102L148.426 102.999L149.003 104H150.158V102ZM131.47 69.5899L133.203 68.5909L132.626 67.5899H131.47V69.5899ZM117.879 69.5899V67.5899H115.879V69.5899H117.879ZM117.879 102V104H119.879V102H117.879ZM92.0032 102H90.0032V104H92.0032V102ZM92.0032 3.98573V1.98573H90.0032V3.98573H92.0032ZM155.124 7.84096L155.915 6.00406L155.124 7.84096ZM168.781 19.0799L167.094 20.1546L167.1 20.1634L167.105 20.172L168.781 19.0799ZM157.281 64.6892L156.369 62.9093L154.499 63.8674L155.548 65.6877L157.281 64.6892ZM117.879 49.6604H115.879V51.6604H117.879V49.6604ZM143.101 46.7853L144.284 48.3981L144.289 48.3947L143.101 46.7853ZM143.101 29.4694L141.901 31.0694L141.916 31.0806L141.931 31.0915L143.101 29.4694ZM117.879 26.529V24.529H115.879V26.529H117.879ZM178.778 100H150.158V104H178.778V100ZM151.891 101.001L133.203 68.5909L129.738 70.589L148.426 102.999L151.891 101.001ZM131.47 67.5899H117.879V71.5899H131.47V67.5899ZM115.879 69.5899V102H119.879V69.5899H115.879ZM117.879 100H92.0032V104H117.879V100ZM94.0032 102V3.98573H90.0032V102H94.0032ZM92.0032 5.98573H133.431V1.98573H92.0032V5.98573ZM133.431 5.98573C141.733 5.98573 148.679 7.2429 154.333 9.67786L155.915 6.00406C149.634 3.29872 142.117 1.98573 133.431 1.98573V5.98573ZM154.333 9.67786C159.976 12.1081 164.197 15.608 167.094 20.1546L170.468 18.0052C167.092 12.7069 162.208 8.7141 155.915 6.00406L154.333 9.67786ZM167.105 20.172C170.036 24.6688 171.551 30.1747 171.551 36.7878H175.551C175.551 29.5483 173.886 23.2489 170.457 17.9879L167.105 20.172ZM171.551 36.7878C171.551 42.9873 170.222 48.2186 167.649 52.5613L171.09 54.6006C174.092 49.5339 175.551 43.5698 175.551 36.7878H171.551ZM167.649 52.5613C165.069 56.9144 161.333 60.3657 156.369 62.9093L158.193 66.4692C163.771 63.6111 168.093 59.6568 171.09 54.6006L167.649 52.5613ZM155.548 65.6877L177.046 102.998L180.511 101.002L159.014 63.6908L155.548 65.6877ZM117.879 51.6604H131.405V47.6604H117.879V51.6604ZM131.405 51.6604C136.779 51.6604 141.177 50.6769 144.284 48.3981L141.919 45.1725C139.799 46.7271 136.399 47.6604 131.405 47.6604V51.6604ZM144.289 48.3947C147.544 45.9933 149.087 42.4468 149.087 38.0947H145.087C145.087 41.4095 143.973 43.6567 141.914 45.1758L144.289 48.3947ZM149.087 38.0947C149.087 33.7433 147.543 30.2075 144.271 27.8474L141.931 31.0915C143.974 32.5648 145.087 34.7792 145.087 38.0947H149.087ZM144.301 27.8694C141.191 25.5368 136.786 24.529 131.405 24.529V28.529C136.392 28.529 139.784 29.4815 141.901 31.0694L144.301 27.8694ZM131.405 24.529H117.879V28.529H131.405V24.529ZM115.879 26.529V49.6604H119.879V26.529H115.879ZM186.62 102H184.62V104H186.62V102ZM186.62 3.98573V1.98573H184.62V3.98573H186.62ZM212.495 3.98573H214.495V1.98573H212.495V3.98573ZM212.495 102V104H214.495V102H212.495ZM188.62 102V3.98573H184.62V102H188.62ZM186.62 5.98573H212.495V1.98573H186.62V5.98573ZM210.495 3.98573V102H214.495V3.98573H210.495ZM212.495 100H186.62V104H212.495V100ZM311.882 89.8462L313.269 91.2874L314.74 89.8712L313.294 88.4295L311.882 89.8462ZM295.481 100.236L294.749 98.3744L294.745 98.3761L295.481 100.236ZM254.249 100.17L253.496 102.023L253.503 102.026L253.511 102.029L254.249 100.17ZM237.718 89.4542L236.31 90.875L236.317 90.8816L236.324 90.8882L237.718 89.4542ZM226.805 73.2491L224.959 74.0165L224.963 74.0276L226.805 73.2491ZM226.805 32.7366L224.963 31.9581L224.959 31.9692L226.805 32.7366ZM237.718 16.5969L239.119 18.0244L239.119 18.0243L237.718 16.5969ZM254.249 5.88068L254.992 7.73764L254.999 7.73499L254.249 5.88068ZM295.35 5.81533L294.598 7.66869L294.606 7.67185L294.614 7.67495L295.35 5.81533ZM311.686 16.2048L313.105 17.6139L314.536 16.1723L313.073 14.7637L311.686 16.2048ZM293.651 34.3702L292.046 35.5628L293.432 37.4293L295.071 35.7793L293.651 34.3702ZM285.287 27.1824L284.346 28.9472L284.356 28.9523L285.287 27.1824ZM256.602 32.7366L255.114 31.4001L255.108 31.4071L255.101 31.4142L256.602 32.7366ZM251.309 41.7539L249.432 41.0647L251.309 41.7539ZM251.309 64.1665L249.432 64.8557L251.309 64.1665ZM256.602 73.2491L255.09 74.559L255.102 74.5725L255.114 74.5857L256.602 73.2491ZM293.586 71.6156L294.998 70.1988L293.359 68.5665L291.98 70.4229L293.586 71.6156ZM310.495 88.4051C306.077 92.6562 300.836 95.9814 294.749 98.3744L296.212 102.097C302.758 99.524 308.451 95.9229 313.269 91.2874L310.495 88.4051ZM294.745 98.3761C288.728 100.758 282.141 101.96 274.963 101.96V105.96C282.596 105.96 289.688 104.68 296.217 102.095L294.745 98.3761ZM274.963 101.96C267.744 101.96 261.093 100.737 254.988 98.3117L253.511 102.029C260.126 104.657 267.284 105.96 274.963 105.96V101.96ZM255.003 98.3179C248.916 95.8409 243.625 92.4077 239.112 88.0202L236.324 90.8882C241.22 95.6486 246.95 99.3596 253.496 102.023L255.003 98.3179ZM239.125 88.0333C234.654 83.6039 231.162 78.4218 228.648 72.4707L224.963 74.0276C227.676 80.448 231.459 86.0694 236.31 90.875L239.125 88.0333ZM228.652 72.4818C226.192 66.5609 224.95 60.0724 224.95 52.9929H220.95C220.95 60.5501 222.278 67.5659 224.959 74.0165L228.652 72.4818ZM224.95 52.9929C224.95 45.9133 226.192 39.4249 228.652 33.504L224.959 31.9692C222.278 38.4199 220.95 45.4356 220.95 52.9929H224.95ZM228.648 33.515C231.162 27.5656 234.651 22.408 239.119 18.0244L236.317 15.1694C231.462 19.9338 227.677 25.536 224.963 31.9582L228.648 33.515ZM239.119 18.0243C243.628 13.598 248.913 10.1692 254.992 7.73763L253.507 4.02372C246.953 6.64536 241.216 10.3607 236.317 15.1695L239.119 18.0243ZM254.999 7.73499C261.101 5.26905 267.749 4.02545 274.963 4.02545V0.0254494C267.279 0.0254494 260.118 1.35201 253.5 4.02636L254.999 7.73499ZM274.963 4.02545C282.092 4.02545 288.63 5.24779 294.598 7.66869L296.102 3.96198C289.612 1.3297 282.558 0.0254494 274.963 0.0254494V4.02545ZM294.614 7.67495C300.658 10.0673 305.879 13.3926 310.299 17.646L313.073 14.7637C308.258 10.1305 302.588 6.52943 296.086 3.95572L294.614 7.67495ZM310.267 14.7957L292.232 32.9611L295.071 35.7793L313.105 17.6139L310.267 14.7957ZM295.257 33.1775C292.816 29.8916 289.799 27.2968 286.219 25.4126L284.356 28.9523C287.397 30.5531 289.956 32.7501 292.046 35.5628L295.257 33.1775ZM286.228 25.4177C282.658 23.5134 278.76 22.5687 274.571 22.5687V26.5687C278.136 26.5687 281.382 27.3665 284.346 28.9472L286.228 25.4177ZM274.571 22.5687C270.722 22.5687 267.118 23.3453 263.786 24.916L265.492 28.5341C268.259 27.2297 271.276 26.5687 274.571 26.5687V22.5687ZM263.786 24.916C260.49 26.47 257.596 28.6367 255.114 31.4001L258.09 34.0731C260.225 31.6962 262.69 29.8552 265.492 28.5341L263.786 24.916ZM255.101 31.4142C252.661 34.1829 250.774 37.4071 249.432 41.0647L253.187 42.4431C254.37 39.2179 256.012 36.4306 258.102 34.059L255.101 31.4142ZM249.432 41.0647C248.08 44.7465 247.414 48.7066 247.414 52.9275H251.414C251.414 49.1331 252.011 45.6441 253.187 42.4431L249.432 41.0647ZM247.414 52.9275C247.414 57.1893 248.079 61.1716 249.432 64.8557L253.187 63.4773C252.012 60.2786 251.414 56.7683 251.414 52.9275H247.414ZM249.432 64.8557C250.773 68.5107 252.657 71.7515 255.09 74.559L258.113 71.9393C256.016 69.5193 254.371 66.7051 253.187 63.4773L249.432 64.8557ZM255.114 74.5857C257.596 77.349 260.49 79.5157 263.786 81.0697L265.492 77.4516C262.69 76.1306 260.225 74.2896 258.09 71.9126L255.114 74.5857ZM263.786 81.0697C267.118 82.6405 270.722 83.417 274.571 83.417V79.417C271.276 79.417 268.259 78.756 265.492 77.4516L263.786 81.0697ZM274.571 83.417C278.76 83.417 282.658 82.4723 286.228 80.568L284.346 77.0386C281.382 78.6192 278.136 79.417 274.571 79.417V83.417ZM286.228 80.568C289.764 78.6826 292.754 76.0887 295.191 72.8082L291.98 70.4229C289.887 73.2411 287.345 75.439 284.346 77.0386L286.228 80.568ZM292.174 73.0323L310.47 91.263L313.294 88.4295L294.998 70.1988L292.174 73.0323ZM321.749 102H319.749V104H321.749V102ZM321.749 3.98573V1.98573H319.749V3.98573H321.749ZM347.624 3.98573H349.624V1.98573H347.624V3.98573ZM347.624 102V104H349.624V102H347.624ZM323.749 102V3.98573H319.749V102H323.749ZM321.749 5.98573H347.624V1.98573H321.749V5.98573ZM345.624 3.98573V102H349.624V3.98573H345.624ZM347.624 100H321.749V104H347.624V100ZM452.304 102V104H454.304V102H452.304ZM421.854 102L420.144 103.037L420.728 104H421.854V102ZM386.569 43.8449L388.279 42.8074L384.569 36.693V43.8449H386.569ZM386.569 102V104H388.569V102H386.569ZM360.693 102H358.693V104H360.693V102ZM360.693 3.98573V1.98573H358.693V3.98573H360.693ZM391.143 3.98573L392.854 2.95083L392.271 1.98573H391.143V3.98573ZM426.428 62.3369L424.716 63.3718L428.428 69.5094V62.3369H426.428ZM426.428 3.98573V1.98573H424.428V3.98573H426.428ZM452.304 3.98573H454.304V1.98573H452.304V3.98573ZM452.304 100H421.854V104H452.304V100ZM423.564 100.963L388.279 42.8074L384.859 44.8823L420.144 103.037L423.564 100.963ZM384.569 43.8449V102H388.569V43.8449H384.569ZM386.569 100H360.693V104H386.569V100ZM362.693 102V3.98573H358.693V102H362.693ZM360.693 5.98573H391.143V1.98573H360.693V5.98573ZM389.431 5.02064L424.716 63.3718L428.139 61.302L392.854 2.95083L389.431 5.02064ZM428.428 62.3369V3.98573H424.428V62.3369H428.428ZM426.428 5.98573H452.304V1.98573H426.428V5.98573ZM450.304 3.98573V102H454.304V3.98573H450.304ZM533.917 32.2792L532.477 33.6675L533.891 35.1336L535.331 33.6934L533.917 32.2792ZM503.99 26.529L504.755 28.3768L504.768 28.3713L503.99 26.529ZM496.083 32.0832L494.605 30.7365L494.598 30.7438L494.591 30.7511L496.083 32.0832ZM490.987 40.8391L489.104 40.1634L489.1 40.1741L489.097 40.1849L490.987 40.8391ZM491.117 64.2318L489.232 64.8987L491.117 64.2318ZM496.541 73.4452L495.065 74.7955L495.071 74.8018L495.077 74.808L496.541 73.4452ZM504.905 79.326L504.111 81.1618L504.12 81.1656L504.905 79.326ZM523.854 80.2408L524.466 82.1449L523.854 80.2408ZM535.093 71.1582L536.817 72.1722L536.821 72.1649L536.825 72.1576L535.093 71.1582ZM538.099 63.4477L540.042 63.9189L540.642 61.4477H538.099V63.4477ZM514.641 63.4477H512.641V65.4477H514.641V63.4477ZM514.641 43.8449V41.8449H512.641V43.8449H514.641ZM560.838 43.8449L562.833 43.6996L562.698 41.8449H560.838V43.8449ZM561.557 53.7116H563.557V53.6389L563.552 53.5663L561.557 53.7116ZM558.159 74.1639L556.281 73.4762L556.278 73.4837L558.159 74.1639ZM533.786 100.366L534.56 102.211L534.567 102.208L533.786 100.366ZM494.254 100.105L493.484 101.951L493.492 101.954L493.5 101.958L494.254 100.105ZM477.722 89.2581L476.314 90.6789L476.321 90.6855L476.328 90.692L477.722 89.2581ZM466.679 72.9224L464.835 73.6963L464.839 73.7072L466.679 72.9224ZM466.614 32.8019L464.769 32.0299L466.614 32.8019ZM477.395 16.6622L475.981 15.248L477.395 16.6622ZM493.535 5.88068L492.768 4.03375L492.763 4.03569L493.535 5.88068ZM550.579 15.6168L551.993 17.031L553.523 15.5016L551.879 14.0964L550.579 15.6168ZM535.357 30.8909C532.791 28.2308 529.671 26.1829 526.03 24.7358L524.553 28.453C527.707 29.7067 530.338 31.4486 532.477 33.6675L535.357 30.8909ZM526.03 24.7358C522.381 23.2853 518.469 22.5687 514.314 22.5687V26.5687C518 26.5687 521.407 27.2025 524.553 28.453L526.03 24.7358ZM514.314 22.5687C510.291 22.5687 506.58 23.2632 503.211 24.6867L504.768 28.3713C507.585 27.1811 510.757 26.5687 514.314 26.5687V22.5687ZM503.224 24.6813C499.903 26.0571 497.024 28.0795 494.605 30.7365L497.562 33.4298C499.586 31.2078 501.978 29.5275 504.755 28.3767L503.224 24.6813ZM494.591 30.7511C492.225 33.4012 490.402 36.5489 489.104 40.1634L492.869 41.5148C494.011 38.3337 495.585 35.644 497.575 33.4152L494.591 30.7511ZM489.097 40.1849C487.835 43.8284 487.222 47.8883 487.222 52.3394H491.222C491.222 48.2524 491.785 44.6455 492.877 41.4933L489.097 40.1849ZM487.222 52.3394C487.222 56.8893 487.882 61.083 489.232 64.8987L493.003 63.565C491.826 60.2365 491.222 56.5019 491.222 52.3394H487.222ZM489.232 64.8987C490.577 68.7015 492.516 72.0106 495.065 74.7955L498.016 72.0949C495.86 69.7394 494.185 66.9063 493.003 63.565L489.232 64.8987ZM495.077 74.808C497.621 77.5404 500.638 79.6601 504.111 81.1617L505.698 77.4903C502.724 76.204 500.165 74.4031 498.004 72.0823L495.077 74.808ZM504.12 81.1656C507.662 82.6771 511.549 83.417 515.752 83.417V79.417C512.026 79.417 508.681 78.7629 505.689 77.4865L504.12 81.1656ZM515.752 83.417C518.89 83.417 521.801 83.0016 524.466 82.1449L523.242 78.3368C521.028 79.0483 518.538 79.417 515.752 79.417V83.417ZM524.466 82.1449C527.128 81.2893 529.508 80.0199 531.586 78.3288L529.06 75.2265C527.392 76.5847 525.459 77.6241 523.242 78.3368L524.466 82.1449ZM531.586 78.3288C533.655 76.6441 535.398 74.585 536.817 72.1722L533.369 70.1441C532.175 72.1746 530.737 73.8619 529.06 75.2265L531.586 78.3288ZM536.825 72.1576C538.239 69.7073 539.306 66.9554 540.042 63.9189L536.155 62.9765C535.497 65.6902 534.561 68.0786 533.361 70.1587L536.825 72.1576ZM538.099 61.4477H514.641V65.4477H538.099V61.4477ZM516.641 63.4477V43.8449H512.641V63.4477H516.641ZM514.641 45.8449H560.838V41.8449H514.641V45.8449ZM558.843 43.9902L559.562 53.8569L563.552 53.5663L562.833 43.6996L558.843 43.9902ZM559.557 53.7116C559.557 60.9565 558.456 67.5376 556.281 73.4762L560.037 74.8517C562.393 68.4187 563.557 61.365 563.557 53.7116H559.557ZM556.278 73.4837C554.141 79.3919 551.097 84.4476 547.155 88.6792L550.082 91.4054C554.418 86.7503 557.733 81.2204 560.04 74.8442L556.278 73.4837ZM547.155 88.6792C543.214 92.911 538.504 96.1922 533.005 98.5253L534.567 102.208C540.568 99.6617 545.747 96.0601 550.082 91.4054L547.155 88.6792ZM533.012 98.5224C527.581 100.803 521.489 101.96 514.706 101.96V105.96C521.95 105.96 528.578 104.722 534.56 102.21L533.012 98.5224ZM514.706 101.96C507.627 101.96 501.068 100.718 495.007 98.2525L493.5 101.958C500.073 104.632 507.148 105.96 514.706 105.96V101.96ZM495.023 98.2589C488.976 95.7395 483.679 92.2617 479.116 87.8243L476.328 90.692C481.261 95.4897 486.985 99.2432 493.484 101.951L495.023 98.2589ZM479.13 87.8374C474.613 83.3625 471.077 78.1346 468.519 72.1377L464.839 73.7072C467.596 80.169 471.422 85.8316 476.314 90.6789L479.13 87.8374ZM468.523 72.1486C466.019 66.1812 464.758 59.716 464.758 52.7315H460.758C460.758 60.2095 462.111 67.205 464.835 73.6962L468.523 72.1486ZM464.758 52.7315C464.758 45.8329 465.998 39.4542 468.459 33.5739L464.769 32.0299C462.089 38.4341 460.758 45.3418 460.758 52.7315H464.758ZM468.459 33.5739C470.93 27.6669 474.38 22.5064 478.809 18.0765L475.981 15.248C471.176 20.0533 467.437 25.6525 464.769 32.0299L468.459 33.5739ZM478.809 18.0765C483.239 13.6466 488.4 10.1974 494.307 7.72567L492.763 4.03569C486.385 6.70427 480.786 10.4428 475.981 15.248L478.809 18.0765ZM494.302 7.7276C500.228 5.26571 506.651 4.02545 513.595 4.02545V0.0254494C506.164 0.0254494 499.214 1.35534 492.768 4.03375L494.302 7.7276ZM513.595 4.02545C520.11 4.02545 526.454 5.15924 532.639 7.4313L534.018 3.67662C527.396 1.244 520.585 0.0254494 513.595 0.0254494V4.02545ZM532.639 7.4313C538.824 9.70324 544.367 12.9379 549.28 17.1371L551.879 14.0964C546.598 9.58325 540.641 6.10937 534.018 3.67662L532.639 7.4313ZM549.165 14.2025L532.503 30.865L535.331 33.6934L551.993 17.031L549.165 14.2025Z" fill="#252735" fill-opacity="0.4" mask="url(#path-1-outside-1_1715_2232)"/>
</svg>
