<svg width="337" height="177" viewBox="0 0 337 177" fill="none" xmlns="http://www.w3.org/2000/svg">
<g filter="url(#filter0_d_1499_9368)">
<path d="M300.372 0H17.4104C7.93918 0 0.26123 7.67807 0.26123 17.1495V159.491C0.26123 168.962 7.93918 176.64 17.4104 176.64H300.372C309.843 176.64 317.521 168.962 317.521 159.491V17.1495C317.521 7.67807 309.843 0 300.372 0Z" fill="url(#paint0_linear_1499_9368)"/>
<path d="M57.1606 69.4045V48.1792H65.9376C66.7789 48.1792 67.5629 48.2844 68.2895 48.4947C69.0161 48.686 69.6568 49.0302 70.2113 49.5273C70.7658 50.0245 71.196 50.7128 71.502 51.5925C71.827 52.4721 71.9896 53.6003 71.9896 54.977C71.9896 55.9523 71.894 56.784 71.7028 57.4724C71.5115 58.1608 71.2534 58.7249 70.9284 59.1647C70.6224 59.6045 70.2687 59.9583 69.8671 60.226C69.4655 60.4937 69.0544 60.7136 68.6337 60.8857L72.592 69.4045H68.2609L64.8476 61.5454C64.6182 61.5454 64.3505 61.5454 64.0445 61.5454C63.7577 61.5262 63.4613 61.5167 63.1553 61.5167C62.8493 61.5167 62.5435 61.5167 62.2375 61.5167C61.9315 61.5167 61.6543 61.5072 61.4057 61.488V69.4045H57.1606ZM61.4057 58.1321H65.1918C65.5742 58.1321 65.9184 58.0843 66.2244 57.9887C66.5304 57.8932 66.798 57.7306 67.0275 57.5011C67.257 57.2525 67.4291 56.9275 67.5438 56.5259C67.6777 56.1244 67.7446 55.6081 67.7446 54.977C67.7446 54.3842 67.6777 53.8966 67.5438 53.5142C67.4291 53.1127 67.257 52.8067 67.0275 52.5964C66.798 52.3669 66.5304 52.214 66.2244 52.1374C65.9184 52.0419 65.5742 51.994 65.1918 51.994H61.4057V58.1321ZM81.1445 69.5479C79.443 69.5479 78.0853 69.3279 77.0719 68.8882C76.0584 68.4292 75.3222 67.6261 74.8633 66.4788C74.4235 65.3315 74.2036 63.7444 74.2036 61.7175C74.2036 59.6332 74.4139 58.0174 74.8346 56.8701C75.2553 55.7228 75.9628 54.9197 76.9572 54.4608C77.9514 54.0018 79.2996 53.7724 81.0011 53.7724C82.5315 53.7724 83.7547 53.9253 84.6725 54.2313C85.5904 54.5373 86.2501 55.0726 86.6516 55.8375C87.0726 56.6024 87.2826 57.6827 87.2826 59.0787C87.2826 60.1112 87.0726 60.9335 86.6516 61.5454C86.2501 62.1382 85.6764 62.5684 84.9307 62.8361C84.1849 63.0847 83.306 63.209 82.2918 63.209H78.42C78.4582 63.9929 78.5729 64.624 78.7642 65.102C78.9749 65.561 79.3478 65.8956 79.8825 66.1059C80.4377 66.2972 81.2306 66.3928 82.2632 66.3928H86.7663V68.8882C86.0206 69.0411 85.199 69.1941 84.2996 69.3471C83.4207 69.481 82.3687 69.5479 81.1445 69.5479ZM78.3626 60.6849H81.8616C82.4353 60.6849 82.8563 60.5702 83.1236 60.3407C83.392 60.1112 83.5252 59.7002 83.5252 59.1074C83.5252 58.5529 83.4391 58.113 83.2671 57.788C83.095 57.4438 82.8276 57.2048 82.4639 57.0709C82.1013 56.9179 81.6137 56.8414 81.0011 56.8414C80.3517 56.8414 79.8354 56.9561 79.4523 57.1856C79.0702 57.3959 78.7929 57.7784 78.6208 58.3329C78.4487 58.8874 78.3626 59.6715 78.3626 60.6849ZM95.9192 69.4045C94.734 69.4045 93.768 69.2324 93.0223 68.8882C92.296 68.544 91.7705 67.9703 91.4447 67.1672C91.12 66.3641 90.9766 65.2837 91.0145 63.9261L91.1579 57.4151H88.7485V54.6902L91.3013 54.0018L91.8749 49.6994H95.2308V54.0018H98.8449V57.4151H95.2308V63.8974C95.2308 64.3181 95.2698 64.6623 95.3456 64.93C95.4224 65.1976 95.5279 65.4176 95.6611 65.5897C95.8147 65.7426 95.9868 65.8573 96.1774 65.9338C96.3689 66.0104 96.5605 66.0581 96.751 66.0773L98.7014 66.2494V69.4045H95.9192ZM104.486 69.5765C103.319 69.5765 102.373 69.2324 101.647 68.544C100.92 67.8556 100.557 66.8995 100.557 65.6757V64.2989C100.557 63.1325 100.967 62.1764 101.79 61.4307C102.613 60.6658 103.893 60.2833 105.633 60.2833H109.563V59.2221C109.563 58.744 109.477 58.3521 109.305 58.0461C109.133 57.7211 108.808 57.4916 108.33 57.3577C107.871 57.2048 107.163 57.1282 106.207 57.1282H101.589V54.6615C102.335 54.4321 103.195 54.2313 104.171 54.0592C105.165 53.8871 106.36 53.801 107.756 53.801C109.037 53.801 110.127 53.954 111.026 54.26C111.944 54.566 112.632 55.0918 113.091 55.8375C113.569 56.5833 113.808 57.6159 113.808 58.9353V69.4045H110.452L109.764 67.7695C109.63 67.9225 109.4 68.0946 109.075 68.2858C108.751 68.4771 108.349 68.6779 107.871 68.8882C107.412 69.0794 106.886 69.2419 106.293 69.3758C105.719 69.5097 105.117 69.5765 104.486 69.5765ZM106.637 66.6222C106.829 66.6222 107.039 66.6031 107.268 66.5649C107.517 66.5075 107.765 66.4501 108.014 66.3928C108.281 66.3162 108.521 66.2494 108.731 66.192C108.961 66.1155 109.142 66.0486 109.276 65.9912C109.429 65.9338 109.525 65.8956 109.563 65.8765V62.2911L106.982 62.4632C106.236 62.5206 105.682 62.7118 105.318 63.0369C104.974 63.3619 104.802 63.8018 104.802 64.3563V64.9873C104.802 65.3697 104.878 65.6852 105.031 65.9338C105.203 66.1825 105.423 66.3641 105.691 66.4788C105.978 66.5744 106.293 66.6222 106.637 66.6222ZM117.503 51.7359C117.101 51.7359 116.901 51.5446 116.901 51.1622V48.3513C116.901 47.9498 117.101 47.749 117.503 47.749H120.773C120.945 47.749 121.078 47.8064 121.174 47.9211C121.27 48.0358 121.318 48.1792 121.318 48.3513V51.1622C121.318 51.5446 121.135 51.7359 120.773 51.7359H117.503ZM116.987 69.4045V54.0018H121.232V69.4045H116.987ZM124.493 69.4045V54.0018H127.993L128.738 55.5794C129.312 55.1013 130.029 54.6807 130.89 54.3173C131.769 53.9349 132.668 53.7437 133.586 53.7437C134.848 53.7437 135.823 53.9923 136.511 54.4894C137.2 54.9866 137.677 55.6559 137.946 56.4972C138.232 57.3195 138.376 58.2373 138.376 59.2508V69.4045H134.131V59.7957C134.131 59.2986 134.034 58.8874 133.844 58.5624C133.672 58.2373 133.423 57.9887 133.098 57.8166C132.772 57.6445 132.381 57.5585 131.922 57.5585C131.521 57.5585 131.128 57.6063 130.746 57.7019C130.383 57.7975 130.029 57.9314 129.685 58.1035C129.359 58.2756 129.044 58.4763 128.738 58.7058V69.4045H124.493ZM148.034 69.5479C146.332 69.5479 144.974 69.3279 143.961 68.8882C142.948 68.4292 142.211 67.6261 141.752 66.4788C141.313 65.3315 141.092 63.7444 141.092 61.7175C141.092 59.6332 141.302 58.0174 141.723 56.8701C142.145 55.7228 142.851 54.9197 143.846 54.4608C144.841 54.0018 146.189 53.7724 147.89 53.7724C149.42 53.7724 150.644 53.9253 151.562 54.2313C152.48 54.5373 153.139 55.0726 153.541 55.8375C153.962 56.6024 154.172 57.6827 154.172 59.0787C154.172 60.1112 153.962 60.9335 153.541 61.5454C153.139 62.1382 152.566 62.5684 151.82 62.8361C151.074 63.0847 150.194 63.209 149.181 63.209H145.309C145.347 63.9929 145.461 64.624 145.653 65.102C145.863 65.561 146.236 65.8956 146.772 66.1059C147.326 66.2972 148.12 66.3928 149.152 66.3928H153.656V68.8882C152.91 69.0411 152.087 69.1941 151.189 69.3471C150.309 69.481 149.258 69.5479 148.034 69.5479ZM145.251 60.6849H148.751C149.324 60.6849 149.745 60.5702 150.013 60.3407C150.28 60.1112 150.414 59.7002 150.414 59.1074C150.414 58.5529 150.328 58.113 150.156 57.788C149.984 57.4438 149.717 57.2048 149.353 57.0709C148.989 56.9179 148.502 56.8414 147.89 56.8414C147.24 56.8414 146.724 56.9561 146.341 57.1856C145.959 57.3959 145.682 57.7784 145.51 58.3329C145.338 58.8874 145.251 59.6715 145.251 60.6849ZM156.957 69.4045V54.0018H160.227L161.202 56.3538C161.757 55.6463 162.378 55.0439 163.067 54.5468C163.774 54.0497 164.606 53.801 165.562 53.801C165.773 53.801 165.983 53.8106 166.193 53.8297C166.422 53.8489 166.633 53.8871 166.824 53.9445V58.3042C166.537 58.266 166.232 58.2373 165.906 58.2182C165.601 58.18 165.304 58.1608 165.017 58.1608C164.463 58.1608 163.956 58.2277 163.497 58.3616C163.057 58.4763 162.647 58.658 162.263 58.9066C161.901 59.136 161.546 59.442 161.202 59.8244V69.4045H156.957ZM176.108 69.4045L178.575 48.1792H182.648L187.524 64.4423L192.371 48.1792H196.415L198.911 69.4045H194.809L192.973 53.7724L193.633 53.8297L189.474 69.4045H185.487L181.271 53.8297L181.988 53.801L180.21 69.4045H176.108ZM208.119 69.5479C206.857 69.5479 205.776 69.4236 204.878 69.175C203.979 68.9073 203.243 68.4674 202.669 67.8556C202.115 67.2437 201.703 66.431 201.436 65.4176C201.187 64.4041 201.063 63.1516 201.063 61.6601C201.063 60.0921 201.187 58.8014 201.436 57.788C201.703 56.7554 202.115 55.9523 202.669 55.3786C203.243 54.7858 203.979 54.3747 204.878 54.1452C205.796 53.8966 206.876 53.7724 208.119 53.7724C209.4 53.7724 210.49 53.8966 211.389 54.1452C212.287 54.3939 213.014 54.8145 213.569 55.4073C214.142 55.9809 214.553 56.7841 214.802 57.8166C215.069 58.8301 215.204 60.1113 215.204 61.6601C215.204 63.1898 215.08 64.471 214.831 65.5036C214.582 66.517 214.18 67.3201 213.626 67.913C213.072 68.5058 212.335 68.9264 211.417 69.175C210.519 69.4236 209.419 69.5479 208.119 69.5479ZM208.119 66.1633C208.635 66.1633 209.065 66.1155 209.41 66.0199C209.773 65.9243 210.06 65.7331 210.27 65.4462C210.5 65.1403 210.672 64.6813 210.786 64.0695C210.901 63.4576 210.958 62.6545 210.958 61.6601C210.958 60.6467 210.901 59.8436 210.786 59.2508C210.672 58.6389 210.5 58.1895 210.27 57.9027C210.06 57.5967 209.773 57.3959 209.41 57.3003C209.065 57.2048 208.635 57.1569 208.119 57.1569C207.622 57.1569 207.192 57.2048 206.828 57.3003C206.484 57.3959 206.197 57.5967 205.968 57.9027C205.738 58.1895 205.566 58.6389 205.451 59.2508C205.356 59.8436 205.308 60.6467 205.308 61.6601C205.308 62.6545 205.356 63.4576 205.451 64.0695C205.566 64.6813 205.738 65.1403 205.968 65.4462C206.197 65.7331 206.484 65.9243 206.828 66.0199C207.192 66.1155 207.622 66.1633 208.119 66.1633ZM223.069 69.5765C221.864 69.5765 220.85 69.3279 220.028 68.8308C219.206 68.3145 218.584 67.4922 218.164 66.3641C217.762 65.2168 217.562 63.7157 217.562 61.8609C217.562 59.9487 217.734 58.3998 218.078 57.2143C218.441 56.0288 219.043 55.1587 219.885 54.6042C220.726 54.0497 221.883 53.7724 223.356 53.7724C224.062 53.7724 224.761 53.8489 225.449 54.0018C226.138 54.1357 226.749 54.2982 227.285 54.4894V47.5195H231.559V69.4045H227.973L227.285 67.9416C226.959 68.2476 226.558 68.5248 226.08 68.7734C225.621 69.0221 225.134 69.2228 224.618 69.3758C224.101 69.5097 223.585 69.5765 223.069 69.5765ZM224.56 66.1633C225.134 66.1633 225.65 66.0677 226.109 65.8765C226.586 65.6852 226.979 65.4941 227.285 65.3028V57.5585C226.902 57.4246 226.5 57.2908 226.08 57.1569C225.659 57.023 225.21 56.9561 224.732 56.9561C224.025 56.9561 223.451 57.0804 223.011 57.329C222.59 57.5776 222.284 58.0461 222.094 58.7345C221.902 59.4037 221.807 60.3789 221.807 61.6601C221.807 62.8456 221.893 63.7731 222.065 64.4423C222.255 65.0925 222.552 65.5418 222.954 65.7904C223.356 66.039 223.89 66.1633 224.56 66.1633ZM241.225 69.5479C239.522 69.5479 238.165 69.3279 237.152 68.8882C236.138 68.4292 235.402 67.6261 234.943 66.4788C234.503 65.3315 234.284 63.7444 234.284 61.7175C234.284 59.6332 234.494 58.0174 234.915 56.8701C235.335 55.7228 236.043 54.9197 237.037 54.4608C238.031 54.0018 239.379 53.7724 241.081 53.7724C242.611 53.7724 243.835 53.9253 244.753 54.2313C245.671 54.5373 246.33 55.0726 246.732 55.8375C247.152 56.6024 247.363 57.6827 247.363 59.0787C247.363 60.1112 247.152 60.9335 246.732 61.5454C246.33 62.1382 245.757 62.5684 245.011 62.8361C244.265 63.0847 243.385 63.209 242.372 63.209H238.5C238.538 63.9929 238.653 64.624 238.844 65.102C239.054 65.561 239.427 65.8956 239.963 66.1059C240.517 66.2972 241.311 66.3928 242.344 66.3928H246.847V68.8882C246.101 69.0411 245.278 69.1941 244.38 69.3471C243.5 69.481 242.448 69.5479 241.225 69.5479ZM238.443 60.6849H241.942C242.516 60.6849 242.936 60.5702 243.204 60.3407C243.471 60.1112 243.606 59.7002 243.606 59.1074C243.606 58.5529 243.52 58.113 243.347 57.788C243.175 57.4438 242.907 57.2048 242.544 57.0709C242.181 56.9179 241.693 56.8414 241.081 56.8414C240.431 56.8414 239.915 56.9561 239.533 57.1856C239.15 57.3959 238.873 57.7784 238.701 58.3329C238.529 58.8874 238.443 59.6715 238.443 60.6849ZM254.967 69.4618C253.877 69.4618 252.968 69.2897 252.242 68.9455C251.534 68.5822 251.009 68.0372 250.665 67.3106C250.32 66.5649 250.148 65.6088 250.148 64.4423V47.5195H254.393V63.8113C254.393 64.385 254.451 64.8439 254.565 65.1881C254.68 65.5131 254.852 65.7522 255.082 65.9052C255.331 66.0581 255.636 66.1633 256 66.2207L257.176 66.3928V69.4618H254.967Z" fill="white"/>
<path d="M49.0957 81.707L265.241 81.7238" stroke="#D0D0D0" stroke-width="0.734753"/>
<path d="M53.4542 105.156C53.0329 105.156 52.6558 105.093 52.3226 104.966C51.9993 104.829 51.7447 104.603 51.5585 104.29C51.3724 103.966 51.2793 103.53 51.2793 102.982V94.341H52.4549V102.82C52.4549 103.172 52.5137 103.442 52.6313 103.628C52.7488 103.804 52.9056 103.927 53.1015 103.996C53.2974 104.054 53.4982 104.084 53.704 104.084H57.5835V105.156H53.4542ZM62.2011 105.245C61.6328 105.245 61.1333 105.186 60.7022 105.068C60.281 104.951 59.9283 104.745 59.6441 104.451C59.36 104.158 59.1494 103.751 59.0123 103.232C58.8751 102.702 58.8065 102.031 58.8065 101.218C58.8065 100.395 58.8751 99.7242 59.0123 99.2048C59.1494 98.6762 59.36 98.2695 59.6441 97.9848C59.9283 97.6918 60.281 97.491 60.7022 97.3824C61.1333 97.2656 61.6328 97.2062 62.2011 97.2062C62.7693 97.2062 63.2641 97.2656 63.6853 97.3824C64.1164 97.5002 64.4739 97.7061 64.758 98.0001C65.0421 98.2839 65.2527 98.6906 65.3899 99.2202C65.5369 99.7385 65.6103 100.405 65.6103 101.218C65.6103 102.041 65.5369 102.717 65.3899 103.246C65.2527 103.765 65.0421 104.172 64.758 104.466C64.4837 104.75 64.131 104.951 63.6999 105.068C63.2689 105.186 62.7693 105.245 62.2011 105.245ZM62.2011 104.29C62.5636 104.29 62.882 104.255 63.1563 104.186C63.4404 104.118 63.6755 103.98 63.8616 103.776C64.0477 103.57 64.1898 103.26 64.2877 102.85C64.3858 102.438 64.4347 101.894 64.4347 101.218C64.4347 100.532 64.3858 99.9885 64.2877 99.5869C64.1898 99.1853 64.0477 98.8821 63.8616 98.6762C63.6755 98.4703 63.4404 98.333 63.1563 98.2644C62.882 98.1958 62.5636 98.162 62.2011 98.162C61.8288 98.162 61.5055 98.1958 61.2312 98.2644C60.9568 98.333 60.7267 98.4703 60.5405 98.6762C60.3544 98.8821 60.2123 99.1853 60.1144 99.5869C60.0164 99.9885 59.9674 100.532 59.9674 101.218C59.9674 101.894 60.0164 102.438 60.1144 102.85C60.2123 103.26 60.3544 103.57 60.5405 103.776C60.7267 103.98 60.9568 104.118 61.2312 104.186C61.5055 104.255 61.8288 104.29 62.2011 104.29ZM67.567 105.156V97.3097H68.4781L68.7278 98.1763C69.1002 97.912 69.5361 97.6815 70.0358 97.4859C70.5353 97.28 71.0546 97.1775 71.5934 97.1775C72.1714 97.1775 72.6368 97.2994 72.9895 97.5443C73.3422 97.7891 73.6017 98.1128 73.7683 98.5144C73.9349 98.9159 74.018 99.3523 74.018 99.8225V105.156H72.8572V99.9546C72.8572 99.6217 72.7886 99.3277 72.6514 99.0726C72.5241 98.8084 72.338 98.6025 72.093 98.456C71.8579 98.3085 71.564 98.2347 71.2113 98.2347C70.888 98.2347 70.5843 98.2695 70.3003 98.3382C70.0259 98.3966 69.7614 98.4847 69.5067 98.6025C69.2618 98.71 69.0022 98.8422 68.7278 98.9989V105.156H67.567ZM78.1311 108.757C77.6217 108.757 77.171 108.683 76.7792 108.536C76.3971 108.4 76.0933 108.184 75.8681 107.89C75.6526 107.606 75.5448 107.248 75.5448 106.817V106.465C75.5448 106.014 75.6672 105.637 75.9121 105.333C76.1669 105.029 76.4853 104.804 76.8674 104.657C77.2494 104.5 77.6413 104.422 78.043 104.422L78.3368 104.892C78.0429 104.892 77.7686 104.941 77.514 105.039C77.2592 105.127 77.0486 105.274 76.882 105.48C76.7253 105.685 76.6469 105.95 76.6469 106.273V106.597C76.6469 107.067 76.8037 107.4 77.1171 107.596C77.4307 107.801 77.8568 107.905 78.3956 107.905H80.2176C80.8056 107.905 81.2656 107.792 81.5995 107.567C81.9417 107.341 82.1137 106.988 82.1137 106.509V106.215C82.1137 105.94 82.0595 105.706 81.9519 105.509C81.8443 105.313 81.663 105.162 81.4079 105.054C81.1631 104.945 80.8159 104.892 80.3651 104.892H77.9989C77.3914 104.892 76.9163 104.764 76.5735 104.51C76.2403 104.246 76.0738 103.908 76.0738 103.496C76.0738 103.104 76.1865 102.795 76.4118 102.57C76.6469 102.345 76.9751 102.188 77.3964 102.1C77.0338 101.953 76.7498 101.757 76.5441 101.512C76.3383 101.258 76.1963 100.988 76.1179 100.703C76.0395 100.409 76.0003 100.116 76.0003 99.8225C76.0003 99.215 76.1227 98.7254 76.3677 98.3525C76.6126 97.9807 76.9604 97.7112 77.411 97.5443C77.8715 97.3783 78.4103 97.2943 79.0275 97.2943H83.216V97.9561L81.452 98.1026C81.58 98.1907 81.7214 98.3085 81.8781 98.456C82.0349 98.5922 82.167 98.793 82.2756 99.0583C82.3924 99.3124 82.4518 99.6658 82.4518 100.116C82.4518 100.518 82.3637 100.9 82.1865 101.262C82.0205 101.624 81.7368 101.924 81.3342 102.159C80.9326 102.384 80.3795 102.497 79.6737 102.497H78.425C78.0136 102.497 77.6853 102.561 77.4404 102.688C77.2053 102.806 77.0877 103.021 77.0877 103.334C77.0877 103.57 77.1759 103.736 77.3523 103.834C77.5286 103.932 77.7147 103.98 77.9107 103.98H80.5116C81.1191 103.98 81.619 104.059 82.0103 104.216C82.4118 104.373 82.711 104.613 82.9066 104.936C83.1125 105.25 83.216 105.651 83.216 106.141V106.465C83.216 107.18 82.9712 107.738 82.4805 108.139C82.0011 108.551 81.2809 108.757 80.3211 108.757H78.1311ZM78.6748 101.6H79.5569C80.0558 101.6 80.4338 101.527 80.6878 101.38C80.9521 101.223 81.1334 101.022 81.2318 100.777C81.3301 100.532 81.3782 100.268 81.3782 99.9833C81.3782 99.5428 81.3055 99.1956 81.158 98.9405C81.0207 98.6762 80.8251 98.4898 80.57 98.3822C80.316 98.2644 80.022 98.206 79.689 98.206H78.8512C78.2928 98.206 77.8519 98.333 77.5286 98.5881C77.2151 98.8329 77.0584 99.2642 77.0584 99.8809C77.0584 100.488 77.2004 100.929 77.4846 101.203C77.7785 101.468 78.1752 101.6 78.6748 101.6ZM83.9238 101.38V100.409H88.2293V101.38H83.9238ZM92.3115 105.156C91.8013 105.156 91.3803 105.073 91.0474 104.907C90.7145 104.741 90.4696 104.471 90.3129 104.098C90.1562 103.726 90.0824 103.232 90.0916 102.614L90.1357 98.2644H88.887V97.5146L90.1511 97.3097L90.3416 95.1196H91.2379V97.3097H93.5018V98.2644H91.2379V102.614C91.2379 102.957 91.2728 103.232 91.3414 103.438C91.4192 103.642 91.5176 103.799 91.6354 103.908C91.7624 104.015 91.8946 104.093 92.0318 104.142C92.1691 104.181 92.3012 104.206 92.4283 104.216L93.384 104.304V105.156H92.3115ZM98.1033 105.245C97.2808 105.245 96.6293 105.123 96.1488 104.877C95.6786 104.632 95.3406 104.216 95.1357 103.628C94.9298 103.04 94.8263 102.237 94.8263 101.218C94.8263 100.18 94.9298 99.3718 95.1357 98.793C95.3508 98.206 95.6981 97.7942 96.1785 97.5586C96.659 97.324 97.3054 97.2062 98.1187 97.2062C98.8143 97.2062 99.3777 97.2851 99.8079 97.4418C100.249 97.5986 100.572 97.868 100.778 98.2501C100.994 98.6219 101.102 99.1413 101.102 99.8071C101.102 100.268 101.008 100.64 100.822 100.925C100.646 101.198 100.387 101.399 100.044 101.527C99.7106 101.644 99.3131 101.703 98.8532 101.703H95.988C95.9972 102.339 96.0658 102.855 96.1929 103.246C96.3209 103.628 96.5504 103.908 96.8843 104.084C97.2265 104.25 97.7264 104.334 98.383 104.334H100.91V105.039C100.459 105.098 100.019 105.146 99.5877 105.186C99.1564 105.225 98.6616 105.245 98.1033 105.245ZM95.9726 100.939H98.7651C99.2056 100.939 99.5293 100.86 99.7352 100.703C99.9503 100.538 100.058 100.244 100.058 99.8225C100.058 99.3718 99.9892 99.0235 99.852 98.7787C99.7249 98.5236 99.519 98.3474 99.2353 98.2501C98.9608 98.1425 98.5889 98.0882 98.1187 98.0882C97.5696 98.0882 97.1384 98.1712 96.8249 98.3382C96.5115 98.4949 96.2912 98.7787 96.1642 99.1905C96.0361 99.6012 95.9726 100.185 95.9726 100.939ZM103.056 105.156V97.3097H103.938L104.217 98.6762C104.569 98.2542 104.962 97.9069 105.393 97.6324C105.833 97.3578 106.338 97.2216 106.906 97.2216C107.043 97.2216 107.171 97.2257 107.288 97.2359C107.416 97.2451 107.533 97.2656 107.641 97.2943V98.4847C107.513 98.4652 107.376 98.4509 107.23 98.4406C107.083 98.4211 106.936 98.4119 106.789 98.4119C106.426 98.4119 106.103 98.456 105.819 98.5441C105.534 98.6322 105.265 98.7643 105.011 98.9405C104.756 99.1167 104.491 99.3318 104.217 99.5869V105.156H103.056ZM109.112 105.156V97.3097H110.023L110.273 98.1763C110.665 97.9018 111.101 97.6672 111.581 97.4705C112.071 97.2749 112.615 97.1775 113.212 97.1775C113.702 97.1775 114.119 97.2892 114.461 97.5146C114.814 97.7307 115.078 98.0052 115.255 98.3382C115.499 98.162 115.793 97.9858 116.137 97.8086C116.489 97.6324 116.861 97.4859 117.253 97.3681C117.655 97.2411 118.042 97.1775 118.414 97.1775C118.982 97.1775 119.447 97.2994 119.81 97.5443C120.173 97.7799 120.437 98.1026 120.604 98.5144C120.78 98.9159 120.868 99.3666 120.868 99.8665V105.156H119.708V99.9546C119.708 99.6217 119.639 99.3277 119.502 99.0726C119.375 98.8084 119.188 98.6025 118.943 98.456C118.699 98.3085 118.399 98.2347 118.047 98.2347C117.606 98.2347 117.155 98.3187 116.695 98.4847C116.234 98.6516 115.808 98.8524 115.416 99.087C115.466 99.2345 115.499 99.381 115.519 99.5285C115.549 99.6658 115.563 99.8123 115.563 99.969V105.156H114.402V99.9546C114.402 99.6217 114.334 99.3277 114.196 99.0726C114.069 98.8084 113.883 98.6025 113.638 98.456C113.404 98.3085 113.11 98.2347 112.756 98.2347C112.433 98.2347 112.129 98.2695 111.845 98.3382C111.571 98.3966 111.307 98.4847 111.052 98.6025C110.807 98.71 110.548 98.8422 110.273 98.9989V105.156H109.112ZM129.712 105.245C129.515 105.245 129.275 105.239 128.992 105.23C128.707 105.22 128.409 105.206 128.095 105.186C127.791 105.167 127.512 105.146 127.257 105.127C127.012 105.098 126.821 105.068 126.684 105.039V104.334H129.902C130.226 104.334 130.505 104.309 130.74 104.26C130.975 104.211 131.156 104.103 131.284 103.936C131.42 103.77 131.489 103.521 131.489 103.188V102.834C131.489 102.492 131.376 102.228 131.151 102.041C130.926 101.846 130.564 101.747 130.064 101.747H128.962C128.501 101.747 128.09 101.689 127.727 101.571C127.375 101.453 127.101 101.253 126.905 100.969C126.708 100.684 126.611 100.293 126.611 99.7928V99.381C126.611 98.8913 126.704 98.4898 126.89 98.1763C127.086 97.8629 127.384 97.6272 127.786 97.4705C128.198 97.3138 128.726 97.2359 129.374 97.2359C129.647 97.2359 129.961 97.2451 130.314 97.2656C130.677 97.2851 131.029 97.3138 131.372 97.3537C131.714 97.3824 131.994 97.4172 132.209 97.4562V98.162H129.182C128.682 98.162 128.296 98.2449 128.021 98.4119C127.757 98.5779 127.625 98.9016 127.625 99.381V99.7047C127.625 100.008 127.689 100.238 127.816 100.395C127.943 100.543 128.119 100.64 128.344 100.689C128.58 100.738 128.849 100.763 129.152 100.763H130.27C130.985 100.763 131.538 100.929 131.931 101.262C132.322 101.596 132.519 102.075 132.519 102.702V103.246C132.519 103.776 132.396 104.186 132.151 104.48C131.915 104.764 131.587 104.966 131.166 105.083C130.755 105.19 130.27 105.245 129.712 105.245ZM136.692 105.245C135.937 105.245 135.354 105.049 134.942 104.657C134.541 104.265 134.34 103.658 134.34 102.834V97.3097H135.502V102.541C135.502 103.197 135.648 103.642 135.942 103.878C136.245 104.103 136.667 104.216 137.206 104.216C137.666 104.216 138.087 104.153 138.469 104.025C138.851 103.888 139.244 103.702 139.645 103.466V97.3097H140.806V105.156H139.895L139.645 104.29C139.244 104.544 138.788 104.769 138.279 104.966C137.779 105.151 137.25 105.245 136.692 105.245ZM142.994 108.639V97.3097H143.934L144.154 98.1179C144.332 97.9899 144.557 97.8577 144.831 97.7205C145.115 97.574 145.419 97.4511 145.742 97.3537C146.075 97.2554 146.403 97.2062 146.727 97.2062C147.236 97.2062 147.667 97.3189 148.019 97.5443C148.382 97.7604 148.676 98.0534 148.901 98.4263C149.127 98.7981 149.289 99.2243 149.386 99.7047C149.484 100.185 149.534 100.689 149.534 101.218C149.534 102.1 149.43 102.844 149.225 103.452C149.029 104.049 148.725 104.5 148.313 104.804C147.902 105.107 147.373 105.259 146.727 105.259C146.285 105.259 145.84 105.19 145.389 105.054C144.948 104.907 144.537 104.725 144.154 104.51V108.639H142.994ZM146.403 104.274C146.776 104.274 147.109 104.181 147.403 103.996C147.697 103.809 147.931 103.496 148.108 103.055C148.284 102.605 148.373 101.992 148.373 101.218C148.373 100.483 148.28 99.8952 148.093 99.4547C147.907 99.004 147.667 98.6813 147.373 98.4847C147.079 98.2788 146.756 98.1763 146.403 98.1763C145.952 98.1763 145.536 98.2501 145.154 98.3966C144.781 98.5338 144.448 98.6813 144.154 98.8381V103.642C144.498 103.829 144.86 103.98 145.242 104.098C145.635 104.216 146.021 104.274 146.403 104.274ZM151.489 108.639V97.3097H152.43L152.651 98.1179C152.827 97.9899 153.052 97.8577 153.327 97.7205C153.611 97.574 153.914 97.4511 154.238 97.3537C154.57 97.2554 154.899 97.2062 155.222 97.2062C155.732 97.2062 156.162 97.3189 156.516 97.5443C156.877 97.7604 157.171 98.0534 157.397 98.4263C157.622 98.7981 157.784 99.2243 157.882 99.7047C157.98 100.185 158.029 100.689 158.029 101.218C158.029 102.1 157.926 102.844 157.72 103.452C157.525 104.049 157.22 104.5 156.809 104.804C156.398 105.107 155.868 105.259 155.222 105.259C154.781 105.259 154.336 105.19 153.885 105.054C153.444 104.907 153.033 104.725 152.651 104.51V108.639H151.489ZM154.899 104.274C155.271 104.274 155.604 104.181 155.898 103.996C156.192 103.809 156.428 103.496 156.604 103.055C156.78 102.605 156.868 101.992 156.868 101.218C156.868 100.483 156.775 99.8952 156.588 99.4547C156.403 99.004 156.162 98.6813 155.868 98.4847C155.574 98.2788 155.252 98.1763 154.899 98.1763C154.449 98.1763 154.032 98.2501 153.649 98.3966C153.278 98.5338 152.945 98.6813 152.651 98.8381V103.642C152.993 103.829 153.355 103.98 153.738 104.098C154.13 104.216 154.517 104.274 154.899 104.274ZM163.1 105.245C162.532 105.245 162.033 105.186 161.602 105.068C161.181 104.951 160.827 104.745 160.544 104.451C160.26 104.158 160.049 103.751 159.912 103.232C159.774 102.702 159.706 102.031 159.706 101.218C159.706 100.395 159.774 99.7242 159.912 99.2048C160.049 98.6762 160.26 98.2695 160.544 97.9848C160.827 97.6918 161.181 97.491 161.602 97.3824C162.033 97.2656 162.532 97.2062 163.1 97.2062C163.669 97.2062 164.164 97.2656 164.585 97.3824C165.016 97.5002 165.374 97.7061 165.657 98.0001C165.941 98.2839 166.152 98.6906 166.289 99.2202C166.436 99.7385 166.51 100.405 166.51 101.218C166.51 102.041 166.436 102.717 166.289 103.246C166.152 103.765 165.941 104.172 165.657 104.466C165.383 104.75 165.03 104.951 164.599 105.068C164.168 105.186 163.669 105.245 163.1 105.245ZM163.1 104.29C163.463 104.29 163.782 104.255 164.056 104.186C164.34 104.118 164.575 103.98 164.761 103.776C164.947 103.57 165.089 103.26 165.187 102.85C165.285 102.438 165.335 101.894 165.335 101.218C165.335 100.532 165.285 99.9885 165.187 99.5869C165.089 99.1853 164.947 98.8821 164.761 98.6762C164.575 98.4703 164.34 98.333 164.056 98.2644C163.782 98.1958 163.463 98.162 163.1 98.162C162.729 98.162 162.405 98.1958 162.13 98.2644C161.857 98.333 161.626 98.4703 161.44 98.6762C161.254 98.8821 161.112 99.1853 161.014 99.5869C160.915 99.9885 160.867 100.532 160.867 101.218C160.867 101.894 160.915 102.438 161.014 102.85C161.112 103.26 161.254 103.57 161.44 103.776C161.626 103.98 161.857 104.118 162.13 104.186C162.405 104.255 162.729 104.29 163.1 104.29ZM168.466 105.156V97.3097H169.348L169.628 98.6762C169.98 98.2542 170.372 97.9069 170.803 97.6324C171.243 97.3578 171.748 97.2216 172.317 97.2216C172.454 97.2216 172.581 97.2257 172.699 97.2359C172.826 97.2451 172.944 97.2656 173.051 97.2943V98.4847C172.924 98.4652 172.787 98.4509 172.64 98.4406C172.493 98.4211 172.346 98.4119 172.199 98.4119C171.836 98.4119 171.513 98.456 171.229 98.5441C170.945 98.6322 170.676 98.7643 170.421 98.9405C170.167 99.1167 169.901 99.3318 169.628 99.5869V105.156H168.466ZM177.267 105.156C176.758 105.156 176.337 105.073 176.004 104.907C175.67 104.741 175.425 104.471 175.268 104.098C175.111 103.726 175.039 103.232 175.048 102.614L175.092 98.2644H173.843V97.5146L175.106 97.3097L175.298 95.1196H176.194V97.3097H178.457V98.2644H176.194V102.614C176.194 102.957 176.229 103.232 176.297 103.438C176.375 103.642 176.474 103.799 176.591 103.908C176.719 104.015 176.851 104.093 176.988 104.142C177.125 104.181 177.257 104.206 177.384 104.216L178.339 104.304V105.156H177.267ZM184.449 105.156V98.2644H183.244V97.5146L184.449 97.3097V96.4133C184.449 95.854 184.517 95.389 184.655 95.0171C184.792 94.635 185.022 94.3461 185.345 94.1495C185.669 93.9538 186.119 93.8555 186.697 93.8555C187.04 93.8555 187.329 93.876 187.564 93.9149C187.809 93.9446 188.025 93.9733 188.21 94.003V94.8256H186.903C186.55 94.8256 186.28 94.885 186.095 95.0017C185.908 95.1103 185.781 95.2814 185.713 95.516C185.644 95.7414 185.609 96.021 185.609 96.3539V97.3097H188.049V98.2644H185.609V105.156H184.449ZM192.548 105.245C191.98 105.245 191.48 105.186 191.049 105.068C190.628 104.951 190.275 104.745 189.992 104.451C189.707 104.158 189.497 103.751 189.359 103.232C189.222 102.702 189.154 102.031 189.154 101.218C189.154 100.395 189.222 99.7242 189.359 99.2048C189.497 98.6762 189.707 98.2695 189.992 97.9848C190.275 97.6918 190.628 97.491 191.049 97.3824C191.48 97.2656 191.98 97.2062 192.548 97.2062C193.116 97.2062 193.611 97.2656 194.033 97.3824C194.463 97.5002 194.82 97.7061 195.105 98.0001C195.389 98.2839 195.6 98.6906 195.737 99.2202C195.884 99.7385 195.958 100.405 195.958 101.218C195.958 102.041 195.884 102.717 195.737 103.246C195.6 103.765 195.389 104.172 195.105 104.466C194.831 104.75 194.478 104.951 194.047 105.068C193.616 105.186 193.116 105.245 192.548 105.245ZM192.548 104.29C192.911 104.29 193.229 104.255 193.503 104.186C193.787 104.118 194.022 103.98 194.209 103.776C194.394 103.57 194.537 103.26 194.635 102.85C194.732 102.438 194.782 101.894 194.782 101.218C194.782 100.532 194.732 99.9885 194.635 99.5869C194.537 99.1853 194.394 98.8821 194.209 98.6762C194.022 98.4703 193.787 98.333 193.503 98.2644C193.229 98.1958 192.911 98.162 192.548 98.162C192.176 98.162 191.853 98.1958 191.578 98.2644C191.304 98.333 191.073 98.4703 190.888 98.6762C190.701 98.8821 190.559 99.1853 190.462 99.5869C190.363 99.9885 190.314 100.532 190.314 101.218C190.314 101.894 190.363 102.438 190.462 102.85C190.559 103.26 190.701 103.57 190.888 103.776C191.073 103.98 191.304 104.118 191.578 104.186C191.853 104.255 192.176 104.29 192.548 104.29ZM197.914 105.156V97.3097H198.796L199.075 98.6762C199.427 98.2542 199.819 97.9069 200.251 97.6324C200.691 97.3578 201.196 97.2216 201.764 97.2216C201.901 97.2216 202.029 97.2257 202.146 97.2359C202.274 97.2451 202.391 97.2656 202.499 97.2943V98.4847C202.371 98.4652 202.234 98.4509 202.087 98.4406C201.94 98.4211 201.793 98.4119 201.647 98.4119C201.284 98.4119 200.961 98.456 200.677 98.5441C200.392 98.6322 200.123 98.7643 199.869 98.9405C199.614 99.1167 199.349 99.3318 199.075 99.5869V105.156H197.914ZM210.929 105.245C210.105 105.245 209.454 105.123 208.974 104.877C208.504 104.632 208.166 104.216 207.96 103.628C207.754 103.04 207.652 102.237 207.652 101.218C207.652 100.18 207.754 99.3718 207.96 98.793C208.175 98.206 208.524 97.7942 209.003 97.5586C209.484 97.324 210.13 97.2062 210.943 97.2062C211.639 97.2062 212.202 97.2851 212.633 97.4418C213.074 97.5986 213.398 97.868 213.603 98.2501C213.819 98.6219 213.926 99.1413 213.926 99.8071C213.926 100.268 213.833 100.64 213.647 100.925C213.47 101.198 213.211 101.399 212.868 101.527C212.535 101.644 212.139 101.703 211.678 101.703H208.813C208.822 102.339 208.89 102.855 209.018 103.246C209.145 103.628 209.376 103.908 209.709 104.084C210.052 104.25 210.551 104.334 211.208 104.334H213.736V105.039C213.285 105.098 212.843 105.146 212.412 105.186C211.982 105.225 211.487 105.245 210.929 105.245ZM208.798 100.939H211.59C212.03 100.939 212.354 100.86 212.56 100.703C212.775 100.538 212.883 100.244 212.883 99.8225C212.883 99.3718 212.815 99.0235 212.678 98.7787C212.549 98.5236 212.345 98.3474 212.06 98.2501C211.785 98.1425 211.413 98.0882 210.943 98.0882C210.394 98.0882 209.964 98.1712 209.65 98.3382C209.337 98.4949 209.116 98.7787 208.989 99.1905C208.862 99.6012 208.798 100.185 208.798 100.939ZM217.854 105.156L214.899 97.3097H216.09L218.53 104.069L221.043 97.3097H222.218L219.176 105.156H217.854ZM226.444 105.245C225.876 105.245 225.377 105.186 224.946 105.068C224.525 104.951 224.171 104.745 223.887 104.451C223.604 104.158 223.393 103.751 223.255 103.232C223.118 102.702 223.049 102.031 223.049 101.218C223.049 100.395 223.118 99.7242 223.255 99.2048C223.393 98.6762 223.604 98.2695 223.887 97.9848C224.171 97.6918 224.525 97.491 224.946 97.3824C225.377 97.2656 225.876 97.2062 226.444 97.2062C227.013 97.2062 227.508 97.2656 227.929 97.3824C228.36 97.5002 228.717 97.7061 229.001 98.0001C229.286 98.2839 229.496 98.6906 229.633 99.2202C229.78 99.7385 229.853 100.405 229.853 101.218C229.853 102.041 229.78 102.717 229.633 103.246C229.496 103.765 229.286 104.172 229.001 104.466C228.727 104.75 228.374 104.951 227.943 105.068C227.513 105.186 227.013 105.245 226.444 105.245ZM226.444 104.29C226.807 104.29 227.125 104.255 227.4 104.186C227.684 104.118 227.918 103.98 228.105 103.776C228.291 103.57 228.433 103.26 228.531 102.85C228.629 102.438 228.678 101.894 228.678 101.218C228.678 100.532 228.629 99.9885 228.531 99.5869C228.433 99.1853 228.291 98.8821 228.105 98.6762C227.918 98.4703 227.684 98.333 227.4 98.2644C227.125 98.1958 226.807 98.162 226.444 98.162C226.072 98.162 225.749 98.1958 225.474 98.2644C225.201 98.333 224.97 98.4703 224.784 98.6762C224.597 98.8821 224.456 99.1853 224.358 99.5869C224.259 99.9885 224.211 100.532 224.211 101.218C224.211 101.894 224.259 102.438 224.358 102.85C224.456 103.26 224.597 103.57 224.784 103.776C224.97 103.98 225.201 104.118 225.474 104.186C225.749 104.255 226.072 104.29 226.444 104.29ZM233.868 105.171C233.417 105.171 233.039 105.093 232.736 104.936C232.433 104.769 232.202 104.505 232.046 104.142C231.889 103.77 231.81 103.271 231.81 102.644V93.9446H232.972V102.497C232.972 102.967 233.016 103.325 233.104 103.57C233.192 103.804 233.319 103.971 233.486 104.069C233.652 104.158 233.847 104.216 234.073 104.246L234.867 104.334V105.171H233.868ZM238.246 105.156L235.292 97.3097H236.482L238.922 104.069L241.435 97.3097H242.61L239.569 105.156H238.246ZM244.185 95.9135C244.028 95.9135 243.95 95.8346 243.95 95.6778V94.5316C243.95 94.3748 244.028 94.297 244.185 94.297H245.007C245.086 94.297 245.14 94.3216 245.169 94.3707C245.209 94.4097 245.228 94.4629 245.228 94.5316V95.6778C245.228 95.8346 245.155 95.9135 245.007 95.9135H244.185ZM244.008 105.156V97.3097H245.169V105.156H244.008ZM247.409 105.156V97.3097H248.321L248.57 98.1763C248.943 97.912 249.378 97.6815 249.878 97.4859C250.378 97.28 250.897 97.1775 251.436 97.1775C252.014 97.1775 252.479 97.2994 252.832 97.5443C253.185 97.7891 253.444 98.1128 253.611 98.5144C253.777 98.9159 253.861 99.3523 253.861 99.8225V105.156H252.699V99.9546C252.699 99.6217 252.631 99.3277 252.494 99.0726C252.366 98.8084 252.181 98.6025 251.935 98.456C251.7 98.3085 251.406 98.2347 251.054 98.2347C250.73 98.2347 250.427 98.2695 250.142 98.3382C249.869 98.3966 249.603 98.4847 249.349 98.6025C249.105 98.71 248.844 98.8422 248.57 98.9989V105.156H247.409ZM257.974 108.757C257.465 108.757 257.014 108.683 256.622 108.536C256.239 108.4 255.936 108.184 255.711 107.89C255.495 107.606 255.387 107.248 255.387 106.817V106.465C255.387 106.014 255.51 105.637 255.755 105.333C256.009 105.029 256.328 104.804 256.71 104.657C257.092 104.5 257.484 104.422 257.886 104.422L258.18 104.892C257.886 104.892 257.611 104.941 257.356 105.039C257.102 105.127 256.891 105.274 256.724 105.48C256.567 105.685 256.489 105.95 256.489 106.273V106.597C256.489 107.067 256.646 107.4 256.96 107.596C257.273 107.801 257.699 107.905 258.238 107.905H260.06C260.648 107.905 261.108 107.792 261.441 107.567C261.784 107.341 261.956 106.988 261.956 106.509V106.215C261.956 105.94 261.902 105.706 261.795 105.509C261.686 105.313 261.505 105.162 261.251 105.054C261.006 104.945 260.658 104.892 260.207 104.892H257.842C257.234 104.892 256.759 104.764 256.416 104.51C256.083 104.246 255.916 103.908 255.916 103.496C255.916 103.104 256.028 102.795 256.254 102.57C256.489 102.345 256.817 102.188 257.239 102.1C256.877 101.953 256.592 101.757 256.387 101.512C256.181 101.258 256.039 100.988 255.961 100.703C255.882 100.409 255.843 100.116 255.843 99.8225C255.843 99.215 255.965 98.7254 256.21 98.3525C256.455 97.9807 256.803 97.7112 257.254 97.5443C257.714 97.3783 258.252 97.2943 258.87 97.2943H263.058V97.9561L261.295 98.1026C261.422 98.1907 261.564 98.3085 261.721 98.456C261.878 98.5922 262.01 98.793 262.117 99.0583C262.235 99.3124 262.294 99.6658 262.294 100.116C262.294 100.518 262.205 100.9 262.029 101.262C261.863 101.624 261.579 101.924 261.177 102.159C260.775 102.384 260.222 102.497 259.516 102.497H258.268C257.856 102.497 257.528 102.561 257.283 102.688C257.048 102.806 256.93 103.021 256.93 103.334C256.93 103.57 257.018 103.736 257.195 103.834C257.371 103.932 257.557 103.98 257.753 103.98H260.354C260.962 103.98 261.461 104.059 261.853 104.216C262.255 104.373 262.554 104.613 262.749 104.936C262.955 105.25 263.058 105.651 263.058 106.141V106.465C263.058 107.18 262.813 107.738 262.323 108.139C261.843 108.551 261.123 108.757 260.163 108.757H257.974ZM258.518 101.6H259.399C259.899 101.6 260.276 101.527 260.531 101.38C260.795 101.223 260.976 101.022 261.075 100.777C261.172 100.532 261.221 100.268 261.221 99.9833C261.221 99.5428 261.147 99.1956 261.001 98.9405C260.864 98.6762 260.668 98.4898 260.413 98.3822C260.158 98.2644 259.865 98.206 259.531 98.206H258.694C258.136 98.206 257.694 98.333 257.371 98.5881C257.058 98.8329 256.901 99.2642 256.901 99.8809C256.901 100.488 257.043 100.929 257.327 101.203C257.621 101.468 258.018 101.6 258.518 101.6ZM136.249 126.669V118.822H137.16L137.41 119.688C137.783 119.424 138.218 119.194 138.718 118.998C139.218 118.792 139.736 118.69 140.275 118.69C140.854 118.69 141.319 118.811 141.671 119.056C142.025 119.301 142.284 119.625 142.451 120.026C142.617 120.428 142.7 120.864 142.7 121.335V126.669H141.539V121.467C141.539 121.134 141.471 120.84 141.333 120.585C141.206 120.32 141.02 120.115 140.775 119.968C140.54 119.821 140.246 119.747 139.893 119.747C139.57 119.747 139.266 119.782 138.982 119.85C138.708 119.909 138.444 119.997 138.188 120.115C137.944 120.222 137.684 120.354 137.41 120.511V126.669H136.249ZM147.886 126.757C147.063 126.757 146.411 126.635 145.932 126.389C145.462 126.144 145.124 125.728 144.918 125.14C144.712 124.552 144.609 123.749 144.609 122.73C144.609 121.692 144.712 120.884 144.918 120.305C145.133 119.718 145.481 119.306 145.962 119.071C146.441 118.836 147.087 118.718 147.901 118.718C148.596 118.718 149.16 118.797 149.591 118.954C150.031 119.111 150.355 119.38 150.561 119.762C150.776 120.134 150.884 120.653 150.884 121.319C150.884 121.78 150.79 122.152 150.605 122.437C150.428 122.71 150.169 122.911 149.825 123.039C149.493 123.156 149.096 123.215 148.635 123.215H145.77C145.78 123.851 145.849 124.367 145.976 124.758C146.103 125.14 146.333 125.42 146.666 125.596C147.009 125.762 147.509 125.846 148.165 125.846H150.693V126.551C150.242 126.61 149.801 126.658 149.371 126.698C148.939 126.737 148.445 126.757 147.886 126.757ZM145.756 122.451H148.547C148.989 122.451 149.311 122.372 149.517 122.216C149.732 122.05 149.841 121.756 149.841 121.335C149.841 120.884 149.772 120.536 149.635 120.291C149.508 120.036 149.302 119.859 149.017 119.762C148.744 119.655 148.371 119.6 147.901 119.6C147.353 119.6 146.921 119.683 146.608 119.85C146.294 120.007 146.074 120.291 145.946 120.703C145.819 121.113 145.756 121.697 145.756 122.451ZM155.837 126.757C155.013 126.757 154.361 126.635 153.882 126.389C153.412 126.144 153.074 125.728 152.868 125.14C152.662 124.552 152.56 123.749 152.56 122.73C152.56 121.692 152.662 120.884 152.868 120.305C153.083 119.718 153.431 119.306 153.912 119.071C154.391 118.836 155.038 118.718 155.851 118.718C156.546 118.718 157.11 118.797 157.541 118.954C157.982 119.111 158.305 119.38 158.511 119.762C158.726 120.134 158.834 120.653 158.834 121.319C158.834 121.78 158.741 122.152 158.555 122.437C158.379 122.71 158.119 122.911 157.776 123.039C157.443 123.156 157.046 123.215 156.585 123.215H153.72C153.73 123.851 153.799 124.367 153.926 124.758C154.053 125.14 154.284 125.42 154.617 125.596C154.96 125.762 155.46 125.846 156.115 125.846H158.643V126.551C158.193 126.61 157.751 126.658 157.321 126.698C156.89 126.737 156.395 126.757 155.837 126.757ZM153.706 122.451H156.497C156.939 122.451 157.261 122.372 157.467 122.216C157.684 122.05 157.791 121.756 157.791 121.335C157.791 120.884 157.722 120.536 157.585 120.291C157.458 120.036 157.252 119.859 156.967 119.762C156.694 119.655 156.321 119.6 155.851 119.6C155.303 119.6 154.872 119.683 154.558 119.85C154.245 120.007 154.024 120.291 153.896 120.703C153.769 121.113 153.706 121.697 153.706 122.451ZM163.331 126.757C162.685 126.757 162.151 126.619 161.729 126.345C161.318 126.061 161.01 125.63 160.804 125.052C160.607 124.464 160.51 123.715 160.51 122.804C160.51 121.833 160.607 121.05 160.804 120.453C160.999 119.845 161.313 119.405 161.744 119.13C162.175 118.856 162.753 118.718 163.478 118.718C163.919 118.718 164.35 118.767 164.771 118.866C165.192 118.963 165.565 119.071 165.888 119.188V115.457H167.048V126.669H166.108L165.888 125.875C165.741 126.003 165.521 126.135 165.227 126.272C164.942 126.409 164.629 126.526 164.287 126.624C163.953 126.713 163.635 126.757 163.331 126.757ZM163.669 125.802C164.12 125.802 164.526 125.733 164.889 125.596C165.261 125.448 165.594 125.297 165.888 125.14V120.012C165.535 119.903 165.197 119.815 164.874 119.747C164.551 119.669 164.188 119.63 163.787 119.63C163.287 119.63 162.88 119.722 162.567 119.909C162.253 120.095 162.023 120.418 161.876 120.879C161.739 121.329 161.67 121.956 161.67 122.759C161.67 123.485 161.734 124.073 161.862 124.523C161.998 124.974 162.214 125.302 162.508 125.508C162.802 125.704 163.189 125.802 163.669 125.802ZM171.945 126.757C171.749 126.757 171.51 126.751 171.225 126.742C170.941 126.732 170.642 126.718 170.329 126.698C170.025 126.679 169.746 126.658 169.492 126.639C169.246 126.61 169.055 126.58 168.918 126.551V125.846H172.137C172.459 125.846 172.739 125.821 172.973 125.772C173.209 125.723 173.39 125.615 173.517 125.448C173.655 125.283 173.723 125.033 173.723 124.7V124.346C173.723 124.004 173.611 123.74 173.385 123.553C173.16 123.358 172.797 123.259 172.298 123.259H171.196C170.735 123.259 170.323 123.201 169.962 123.083C169.608 122.965 169.335 122.765 169.138 122.481C168.943 122.196 168.844 121.805 168.844 121.305V120.893C168.844 120.403 168.937 120.002 169.124 119.688C169.319 119.375 169.619 119.139 170.02 118.983C170.432 118.826 170.961 118.748 171.607 118.748C171.881 118.748 172.195 118.757 172.547 118.778C172.91 118.797 173.263 118.826 173.606 118.866C173.949 118.894 174.228 118.929 174.443 118.968V119.674H171.416C170.917 119.674 170.529 119.757 170.256 119.924C169.99 120.09 169.858 120.414 169.858 120.893V121.217C169.858 121.52 169.922 121.75 170.05 121.907C170.177 122.055 170.353 122.152 170.578 122.201C170.814 122.25 171.083 122.275 171.387 122.275H172.503C173.219 122.275 173.772 122.441 174.164 122.774C174.556 123.108 174.752 123.587 174.752 124.214V124.758C174.752 125.288 174.63 125.698 174.385 125.992C174.149 126.276 173.822 126.478 173.4 126.595C172.989 126.702 172.503 126.757 171.945 126.757ZM176.618 126.683C176.462 126.683 176.384 126.605 176.384 126.448V125.272C176.384 125.116 176.462 125.038 176.618 125.038H177.265C177.421 125.038 177.5 125.116 177.5 125.272V126.448C177.5 126.526 177.476 126.586 177.426 126.624C177.388 126.663 177.333 126.683 177.265 126.683H176.618Z" fill="white"/>
<path d="M54.8548 178.44C54.8548 204.962 33.3546 226.462 6.83268 226.462C-19.6892 226.462 -41.1895 204.962 -41.1895 178.44C-41.1895 151.918 -19.6892 130.418 6.83268 130.418C33.3546 130.418 54.8548 151.918 54.8548 178.44Z" fill="white" fill-opacity="0.2"/>
<path d="M47.7777 -11.6263C47.7777 14.8956 26.2774 36.3958 -0.244473 36.3958C-26.7664 36.3958 -48.2666 14.8956 -48.2666 -11.6263C-48.2666 -38.1482 -26.7664 -59.6484 -0.244473 -59.6484C26.2774 -59.6484 47.7777 -38.1482 47.7777 -11.6263Z" fill="white" fill-opacity="0.2"/>
</g>
<defs>
<filter id="filter0_d_1499_9368" x="-67.4226" y="-74.7069" width="404.1" height="324.423" filterUnits="userSpaceOnUse" color-interpolation-filters="sRGB">
<feFlood flood-opacity="0" result="BackgroundImageFix"/>
<feColorMatrix in="SourceAlpha" type="matrix" values="0 0 0 0 0 0 0 0 0 0 0 0 0 0 0 0 0 0 127 0" result="hardAlpha"/>
<feOffset dy="4.09753"/>
<feGaussianBlur stdDeviation="9.57799"/>
<feComposite in2="hardAlpha" operator="out"/>
<feColorMatrix type="matrix" values="0 0 0 0 0 0 0 0 0 0 0 0 0 0 0 0 0 0 0.25 0"/>
<feBlend mode="normal" in2="BackgroundImageFix" result="effect1_dropShadow_1499_9368"/>
<feBlend mode="normal" in="SourceGraphic" in2="effect1_dropShadow_1499_9368" result="shape"/>
</filter>
<linearGradient id="paint0_linear_1499_9368" x1="158.891" y1="0" x2="158.891" y2="176.64" gradientUnits="userSpaceOnUse">
<stop stop-color="#7030A0"/>
<stop offset="1" stop-color="#B53784"/>
</linearGradient>
</defs>
</svg>
