<svg width="338" height="177" viewBox="0 0 338 177" fill="none" xmlns="http://www.w3.org/2000/svg">
<g filter="url(#filter0_d_1499_9389)">
<g clip-path="url(#clip0_1499_9389)">
<rect x="19.5361" width="317.726" height="176.64" rx="16.0743" fill="white"/>
<rect x="19.5361" width="317.726" height="176.64" rx="16.0743" fill="url(#paint0_linear_1499_9389)"/>
<path d="M84.1831 68.9663V47.8743H93.0759C93.76 47.8743 94.4535 47.9598 95.1566 48.1308C95.8787 48.2828 96.5342 48.6059 97.1233 49.0999C97.7313 49.575 98.2159 50.297 98.5769 51.2661C98.9569 52.2352 99.147 53.5178 99.147 55.114C99.147 56.7101 98.9569 58.0022 98.5769 58.9903C98.2159 59.9785 97.7409 60.729 97.1518 61.2421C96.5627 61.7551 95.9262 62.0971 95.2421 62.2682C94.5581 62.4392 93.893 62.5247 93.247 62.5247C92.9049 62.5247 92.5059 62.5152 92.0498 62.4962C91.5938 62.4582 91.1283 62.4107 90.6532 62.3537C90.1972 62.2967 89.7696 62.2491 89.3706 62.2111C88.9716 62.1541 88.6486 62.1066 88.4015 62.0686V68.9663H84.1831ZM88.4015 58.7338H92.5914C93.0854 58.7338 93.5035 58.6198 93.8455 58.3918C94.2066 58.1447 94.4726 57.7647 94.6436 57.2517C94.8146 56.7196 94.9001 56.0166 94.9001 55.1425C94.9001 54.2874 94.8051 53.6128 94.6151 53.1188C94.4441 52.6058 94.1875 52.2352 93.8455 52.0072C93.5225 51.7792 93.1329 51.6652 92.6769 51.6652H88.4015V58.7338ZM104.936 69.1373C103.777 69.1373 102.836 68.7953 102.114 68.1112C101.392 67.4271 101.031 66.4771 101.031 65.2609V63.8928C101.031 62.7337 101.439 61.7836 102.256 61.0425C103.074 60.2824 104.347 59.9024 106.076 59.9024H109.981V58.8478C109.981 58.3728 109.896 57.9833 109.725 57.6792C109.554 57.3562 109.23 57.1282 108.755 56.9952C108.299 56.8432 107.596 56.7671 106.646 56.7671H102.057V54.3159C102.798 54.0879 103.653 53.8884 104.622 53.7174C105.61 53.5463 106.798 53.4608 108.185 53.4608C109.458 53.4608 110.541 53.6128 111.435 53.9169C112.347 54.2209 113.031 54.7434 113.487 55.4845C113.961 56.2256 114.199 57.2517 114.199 58.5628V68.9663H110.865L110.181 67.3416C110.047 67.4936 109.819 67.6646 109.497 67.8547C109.173 68.0447 108.774 68.2442 108.299 68.4532C107.843 68.6433 107.32 68.8047 106.732 68.9378C106.162 69.0708 105.563 69.1373 104.936 69.1373ZM107.074 66.2015C107.263 66.2015 107.473 66.1825 107.701 66.1445C107.947 66.0875 108.195 66.0305 108.442 65.9735C108.708 65.8975 108.945 65.831 109.154 65.774C109.383 65.6979 109.563 65.6315 109.696 65.5745C109.848 65.5175 109.942 65.4795 109.981 65.4604V61.8976L107.416 62.0686C106.675 62.1256 106.123 62.3157 105.762 62.6387C105.42 62.9617 105.249 63.3988 105.249 63.9498V64.5769C105.249 64.9569 105.325 65.2704 105.477 65.5175C105.648 65.7645 105.867 65.945 106.133 66.059C106.418 66.154 106.732 66.2015 107.074 66.2015ZM117.357 68.9663V53.6603H120.606L121.576 55.9976C122.126 55.2945 122.744 54.6959 123.428 54.2019C124.132 53.7079 124.958 53.4608 125.908 53.4608C126.117 53.4608 126.326 53.4703 126.535 53.4893C126.763 53.5084 126.972 53.5463 127.162 53.6033V57.9357C126.877 57.8978 126.573 57.8693 126.25 57.8502C125.946 57.8123 125.651 57.7932 125.366 57.7932C124.816 57.7932 124.312 57.8597 123.856 57.9928C123.419 58.1068 123.01 58.2872 122.63 58.5343C122.269 58.7623 121.918 59.0664 121.576 59.4464V68.9663H117.357ZM135.502 68.9663C134.324 68.9663 133.364 68.7953 132.623 68.4532C131.902 68.1112 131.379 67.5411 131.056 66.7431C130.733 65.945 130.591 64.8714 130.628 63.5223L130.771 57.0522H128.376V54.3444L130.913 53.6603L131.483 49.385H134.818V53.6603H138.409V57.0522H134.818V63.4938C134.818 63.9118 134.857 64.2539 134.932 64.5199C135.008 64.7859 135.113 65.0044 135.246 65.1754C135.398 65.3274 135.569 65.4414 135.759 65.5175C135.949 65.5935 136.139 65.6409 136.329 65.66L138.267 65.831V68.9663H135.502ZM140.766 68.9663V53.6603H144.243L144.984 55.228C145.554 54.7529 146.267 54.3349 147.122 53.9739C147.996 53.5939 148.889 53.4038 149.801 53.4038C151.055 53.4038 152.025 53.6509 152.709 54.1449C153.393 54.6389 153.868 55.304 154.134 56.1401C154.419 56.9572 154.561 57.8693 154.561 58.8763V68.9663H150.343V59.4179C150.343 58.9239 150.248 58.5153 150.058 58.1923C149.887 57.8693 149.64 57.6222 149.317 57.4512C148.994 57.2802 148.604 57.1947 148.148 57.1947C147.749 57.1947 147.36 57.2422 146.98 57.3372C146.619 57.4322 146.267 57.5652 145.925 57.7362C145.602 57.9072 145.289 58.1068 144.984 58.3348V68.9663H140.766ZM164.16 69.1088C162.468 69.1088 161.119 68.8902 160.112 68.4532C159.104 67.9972 158.373 67.1991 157.917 66.059C157.48 64.9189 157.262 63.3418 157.262 61.3276C157.262 59.2563 157.471 57.6507 157.889 56.5106C158.306 55.3705 159.01 54.5724 159.998 54.1164C160.986 53.6604 162.325 53.4323 164.017 53.4323C165.537 53.4323 166.753 53.5843 167.665 53.8884C168.577 54.1924 169.233 54.7244 169.632 55.4845C170.049 56.2446 170.259 57.3182 170.259 58.7053C170.259 59.7314 170.049 60.5485 169.632 61.1566C169.233 61.7456 168.663 62.1732 167.922 62.4392C167.181 62.6862 166.306 62.8097 165.3 62.8097H161.452C161.489 63.5887 161.603 64.2158 161.794 64.6909C162.002 65.1469 162.373 65.4795 162.905 65.6885C163.456 65.8785 164.245 65.9735 165.271 65.9735H169.746V68.4532C169.005 68.6052 168.188 68.7573 167.295 68.9093C166.42 69.0423 165.375 69.1088 164.16 69.1088ZM161.395 60.3015H164.872C165.442 60.3015 165.86 60.1875 166.126 59.9594C166.392 59.7314 166.525 59.3229 166.525 58.7338C166.525 58.1828 166.44 57.7457 166.269 57.4227C166.098 57.0807 165.831 56.8432 165.471 56.7101C165.109 56.5582 164.625 56.4821 164.017 56.4821C163.371 56.4821 162.858 56.5961 162.478 56.8241C162.097 57.0331 161.822 57.4132 161.651 57.9643C161.48 58.5153 161.395 59.2944 161.395 60.3015ZM173.027 68.9663V53.6603H176.276L177.245 55.9976C177.796 55.2945 178.414 54.6959 179.098 54.2019C179.8 53.7079 180.627 53.4608 181.578 53.4608C181.786 53.4608 181.995 53.4703 182.205 53.4893C182.433 53.5084 182.641 53.5463 182.832 53.6033V57.9357C182.547 57.8978 182.242 57.8693 181.92 57.8502C181.615 57.8123 181.321 57.7932 181.036 57.7932C180.484 57.7932 179.982 57.8597 179.526 57.9928C179.088 58.1068 178.68 58.2872 178.3 58.5343C177.939 58.7623 177.587 59.0664 177.245 59.4464V68.9663H173.027ZM192.057 68.9663L194.508 47.8743H198.555L203.401 64.0353L208.218 47.8743H212.236L214.716 68.9663H210.64L208.816 53.4323L209.472 53.4893L205.339 68.9663H201.377L197.187 53.4893L197.9 53.4608L196.132 68.9663H192.057ZM223.868 69.1088C222.613 69.1088 221.539 68.9853 220.647 68.7383C219.753 68.4723 219.022 68.0352 218.452 67.4271C217.9 66.8191 217.492 66.0115 217.226 65.0044C216.979 63.9973 216.856 62.7527 216.856 61.2706C216.856 59.7124 216.979 58.4298 217.226 57.4227C217.492 56.3966 217.9 55.5985 218.452 55.0285C219.022 54.4394 219.753 54.0309 220.647 53.8029C221.559 53.5558 222.632 53.4323 223.868 53.4323C225.14 53.4323 226.223 53.5558 227.117 53.8029C228.01 54.0499 228.731 54.4679 229.283 55.057C229.853 55.627 230.261 56.4251 230.509 57.4512C230.774 58.4583 230.908 59.7314 230.908 61.2706C230.908 62.7907 230.783 64.0638 230.537 65.0899C230.29 66.097 229.891 66.895 229.34 67.4841C228.788 68.0732 228.057 68.4912 227.145 68.7383C226.252 68.9853 225.159 69.1088 223.868 69.1088ZM223.868 65.7455C224.381 65.7455 224.808 65.6979 225.15 65.603C225.51 65.508 225.796 65.3179 226.005 65.0329C226.233 64.7288 226.404 64.2728 226.518 63.6648C226.632 63.0568 226.689 62.2587 226.689 61.2706C226.689 60.2635 226.632 59.4654 226.518 58.8763C226.404 58.2683 226.233 57.8217 226.005 57.5367C225.796 57.2327 225.51 57.0331 225.15 56.9382C224.808 56.8432 224.381 56.7956 223.868 56.7956C223.373 56.7956 222.945 56.8432 222.585 56.9382C222.243 57.0331 221.958 57.2327 221.73 57.5367C221.502 57.8217 221.331 58.2683 221.217 58.8763C221.121 59.4654 221.074 60.2635 221.074 61.2706C221.074 62.2587 221.121 63.0568 221.217 63.6648C221.331 64.2728 221.502 64.7288 221.73 65.0329C221.958 65.3179 222.243 65.508 222.585 65.603C222.945 65.6979 223.373 65.7455 223.868 65.7455ZM238.722 69.1373C237.525 69.1373 236.519 68.8902 235.701 68.3962C234.884 67.8832 234.267 67.0661 233.849 65.945C233.449 64.8049 233.25 63.3133 233.25 61.4701C233.25 59.5699 233.421 58.0307 233.763 56.8526C234.124 55.6746 234.723 54.8099 235.559 54.2589C236.394 53.7079 237.545 53.4323 239.008 53.4323C239.711 53.4323 240.404 53.5084 241.088 53.6603C241.772 53.7934 242.38 53.9548 242.912 54.1449V47.2188H247.159V68.9663H243.596L242.912 67.5126C242.59 67.8167 242.191 68.0922 241.715 68.3392C241.259 68.5863 240.775 68.7858 240.262 68.9378C239.749 69.0708 239.236 69.1373 238.722 69.1373ZM240.205 65.7455C240.775 65.7455 241.288 65.6505 241.744 65.4604C242.219 65.2704 242.608 65.0805 242.912 64.8904V57.1947C242.533 57.0616 242.134 56.9287 241.715 56.7956C241.297 56.6626 240.851 56.5961 240.376 56.5961C239.672 56.5961 239.102 56.7196 238.665 56.9667C238.247 57.2137 237.944 57.6792 237.753 58.3633C237.563 59.0283 237.468 59.9974 237.468 61.2706C237.468 62.4486 237.554 63.3703 237.725 64.0353C237.915 64.6814 238.209 65.1279 238.608 65.3749C239.008 65.622 239.54 65.7455 240.205 65.7455ZM256.765 69.1088C255.074 69.1088 253.725 68.8902 252.717 68.4532C251.711 67.9972 250.979 67.1991 250.523 66.059C250.086 64.9189 249.867 63.3418 249.867 61.3276C249.867 59.2563 250.077 57.6507 250.494 56.5106C250.912 55.3705 251.616 54.5724 252.603 54.1164C253.592 53.6604 254.931 53.4323 256.622 53.4323C258.143 53.4323 259.358 53.5843 260.27 53.8884C261.183 54.1924 261.838 54.7244 262.237 55.4845C262.656 56.2446 262.864 57.3182 262.864 58.7053C262.864 59.7314 262.656 60.5485 262.237 61.1566C261.838 61.7456 261.268 62.1732 260.527 62.4392C259.786 62.6862 258.913 62.8097 257.905 62.8097H254.057C254.096 63.5887 254.21 64.2158 254.399 64.6909C254.609 65.1469 254.979 65.4795 255.511 65.6885C256.062 65.8785 256.85 65.9735 257.876 65.9735H262.351V68.4532C261.61 68.6052 260.794 68.7573 259.9 68.9093C259.027 69.0423 257.981 69.1088 256.765 69.1088ZM254 60.3015H257.477C258.047 60.3015 258.466 60.1875 258.731 59.9594C258.998 59.7314 259.13 59.3229 259.13 58.7338C259.13 58.1828 259.045 57.7457 258.874 57.4227C258.703 57.0807 258.437 56.8432 258.076 56.7101C257.715 56.5582 257.231 56.4821 256.622 56.4821C255.977 56.4821 255.464 56.5961 255.083 56.8241C254.703 57.0331 254.427 57.4132 254.256 57.9643C254.085 58.5153 254 59.2944 254 60.3015ZM270.421 69.0233C269.337 69.0233 268.435 68.8523 267.713 68.5102C267.01 68.1492 266.487 67.6076 266.145 66.8856C265.803 66.1445 265.632 65.1945 265.632 64.0353V47.2188H269.85V63.4083C269.85 63.9783 269.907 64.4344 270.021 64.7764C270.135 65.0994 270.306 65.337 270.535 65.489C270.782 65.6409 271.086 65.7455 271.447 65.8025L272.615 65.9735V69.0233H270.421Z" fill="white"/>
<path d="M71.0054 81.1934L285.793 81.21" stroke="#D0D0D0" stroke-width="0.73014"/>
<path d="M92.5101 104.495C91.8189 104.495 91.2104 104.432 90.6847 104.305C90.1688 104.169 89.7355 103.915 89.3851 103.546C89.0443 103.175 88.7863 102.631 88.6111 101.91C88.4456 101.189 88.3628 100.246 88.3628 99.0771C88.3628 97.9085 88.4505 96.9649 88.6258 96.2442C88.801 95.5143 89.0638 94.9595 89.4143 94.5798C89.7648 94.1899 90.198 93.9273 90.7139 93.7909C91.2299 93.6453 91.8286 93.572 92.5101 93.572C93.211 93.572 93.8195 93.6453 94.3355 93.7909C94.8611 93.9273 95.2944 94.1899 95.6351 94.5798C95.9856 94.9595 96.2435 95.5143 96.409 96.2442C96.5745 96.9649 96.6573 97.9085 96.6573 99.0771C96.6573 100.246 96.5697 101.189 96.3944 101.91C96.229 102.631 95.9709 103.175 95.6204 103.546C95.2797 103.915 94.8514 104.169 94.3355 104.305C93.8195 104.432 93.211 104.495 92.5101 104.495ZM92.5101 103.458C93.0553 103.458 93.5176 103.404 93.8973 103.298C94.277 103.191 94.5836 102.986 94.8174 102.684C95.0606 102.372 95.2359 101.929 95.343 101.355C95.4501 100.781 95.5037 100.022 95.5037 99.0771C95.5037 98.0938 95.4452 97.3049 95.3284 96.7114C95.2213 96.1179 95.0461 95.67 94.8027 95.3677C94.5691 95.0664 94.2624 94.8669 93.8828 94.7691C93.5128 94.6714 93.0553 94.6236 92.5101 94.6236C92.0038 94.6236 91.5609 94.6714 91.1812 94.7691C90.8113 94.8669 90.4997 95.0664 90.2467 95.3677C90.0033 95.67 89.8183 96.1179 89.6918 96.7114C89.5749 97.3049 89.5165 98.0938 89.5165 99.0771C89.5165 100.022 89.5651 100.781 89.6626 101.355C89.7696 101.929 89.9399 102.372 90.1737 102.684C90.4073 102.986 90.7139 103.191 91.0936 103.298C91.483 103.404 91.9552 103.458 92.5101 103.458ZM98.6221 104.407V96.6096H99.5274L99.7756 97.4708C100.146 97.2082 100.579 96.9791 101.075 96.7847C101.572 96.5801 102.088 96.4783 102.623 96.4783C103.198 96.4783 103.66 96.5994 104.011 96.8427C104.361 97.086 104.619 97.4077 104.785 97.8067C104.949 98.2057 105.033 98.6394 105.033 99.1066V104.407H103.879V99.2379C103.879 98.9071 103.811 98.615 103.675 98.3615C103.548 98.0989 103.363 97.8943 103.12 97.7487C102.886 97.6021 102.594 97.5288 102.244 97.5288C101.922 97.5288 101.621 97.5634 101.338 97.6316C101.066 97.6896 100.803 97.7772 100.55 97.8942C100.306 98.0011 100.048 98.1325 99.7756 98.2882V104.407H98.6221ZM106.462 100.654V99.6899H110.741V100.654H106.462ZM114.739 104.495C114.096 104.495 113.565 104.358 113.147 104.085C112.738 103.803 112.431 103.375 112.227 102.801C112.032 102.216 111.935 101.472 111.935 100.566C111.935 99.6024 112.032 98.8236 112.227 98.2302C112.421 97.6265 112.733 97.1888 113.161 96.916C113.59 96.6432 114.164 96.5068 114.885 96.5068C115.322 96.5068 115.751 96.5556 116.169 96.6534C116.589 96.7501 116.958 96.857 117.28 96.974V93.2656H118.433V104.407H117.499L117.28 103.618C117.133 103.745 116.914 103.877 116.622 104.013C116.34 104.15 116.029 104.266 115.688 104.363C115.357 104.451 115.04 104.495 114.739 104.495ZM115.074 103.546C115.522 103.546 115.926 103.478 116.286 103.341C116.657 103.195 116.988 103.044 117.28 102.888V97.7925C116.929 97.6846 116.593 97.597 116.272 97.5288C115.95 97.4514 115.59 97.4128 115.191 97.4128C114.695 97.4128 114.291 97.5044 113.98 97.6896C113.668 97.8749 113.439 98.1956 113.293 98.6536C113.156 99.1015 113.089 99.7245 113.089 100.523C113.089 101.243 113.152 101.828 113.278 102.276C113.415 102.723 113.629 103.049 113.921 103.254C114.213 103.448 114.598 103.546 115.074 103.546ZM123.591 104.495C122.773 104.495 122.125 104.374 121.649 104.129C121.182 103.886 120.846 103.473 120.641 102.888C120.437 102.304 120.335 101.506 120.335 100.493C120.335 99.4619 120.437 98.6587 120.641 98.0836C120.855 97.5003 121.201 97.0911 121.677 96.857C122.155 96.6238 122.797 96.5068 123.605 96.5068C124.297 96.5068 124.857 96.5852 125.285 96.7409C125.723 96.8967 126.044 97.1644 126.248 97.5441C126.463 97.9136 126.57 98.4297 126.57 99.0914C126.57 99.5494 126.477 99.919 126.292 100.202C126.117 100.474 125.859 100.673 125.518 100.801C125.187 100.917 124.793 100.976 124.335 100.976H121.488C121.497 101.608 121.565 102.12 121.693 102.509C121.819 102.888 122.048 103.166 122.379 103.341C122.72 103.506 123.216 103.59 123.868 103.59H126.38V104.29C125.932 104.349 125.494 104.397 125.065 104.437C124.638 104.475 124.146 104.495 123.591 104.495ZM121.474 100.216H124.248C124.685 100.216 125.007 100.138 125.212 99.9821C125.426 99.8172 125.533 99.525 125.533 99.1066C125.533 98.6587 125.465 98.3126 125.329 98.0693C125.202 97.8159 124.998 97.6408 124.715 97.5441C124.442 97.4372 124.073 97.3832 123.605 97.3832C123.06 97.3832 122.632 97.4657 122.321 97.6316C122.009 97.7874 121.789 98.0693 121.663 98.4786C121.537 98.8868 121.474 99.467 121.474 100.216ZM128.512 104.407V96.6096H129.418L129.665 97.4708C130.055 97.198 130.489 96.9649 130.965 96.7694C131.452 96.575 131.992 96.4783 132.587 96.4783C133.073 96.4783 133.487 96.5892 133.828 96.8132C134.178 97.028 134.441 97.3008 134.617 97.6316C134.86 97.4565 135.152 97.2814 135.492 97.1053C135.843 96.9303 136.213 96.7847 136.602 96.6676C137.002 96.5414 137.385 96.4783 137.756 96.4783C138.32 96.4783 138.783 96.5994 139.143 96.8427C139.503 97.0768 139.766 97.3975 139.931 97.8067C140.106 98.2057 140.194 98.6536 140.194 99.1504V104.407H139.041V99.2379C139.041 98.9071 138.972 98.615 138.836 98.3615C138.71 98.0989 138.525 97.8943 138.281 97.7487C138.038 97.6021 137.741 97.5288 137.391 97.5288C136.953 97.5288 136.505 97.6123 136.047 97.7772C135.59 97.9431 135.166 98.1426 134.776 98.3757C134.825 98.5223 134.86 98.6679 134.879 98.8145C134.908 98.9509 134.923 99.0965 134.923 99.2522V104.407H133.769V99.2379C133.769 98.9071 133.702 98.615 133.565 98.3615C133.438 98.0989 133.254 97.8943 133.01 97.7487C132.776 97.6021 132.484 97.5288 132.134 97.5288C131.812 97.5288 131.511 97.5634 131.228 97.6316C130.956 97.6896 130.692 97.7772 130.44 97.8942C130.197 98.0011 129.938 98.1325 129.665 98.2882V104.407H128.512ZM143.878 104.495C143.304 104.495 142.832 104.325 142.461 103.984C142.091 103.643 141.906 103.161 141.906 102.538V101.983C141.906 101.37 142.106 100.873 142.505 100.493C142.914 100.113 143.528 99.924 144.345 99.924H146.988V98.9601C146.988 98.6394 146.93 98.3666 146.813 98.1426C146.706 97.9085 146.506 97.7283 146.214 97.6021C145.932 97.4759 145.518 97.4128 144.973 97.4128H142.549V96.7256C142.89 96.6676 143.285 96.6137 143.731 96.5658C144.189 96.517 144.725 96.4925 145.338 96.4925C145.971 96.4824 146.496 96.5607 146.916 96.7256C147.334 96.8916 147.64 97.1542 147.835 97.5146C148.039 97.8647 148.142 98.3279 148.142 98.902V104.407H147.251L147.032 103.516C146.993 103.555 146.872 103.623 146.667 103.721C146.473 103.818 146.219 103.93 145.908 104.057C145.605 104.173 145.275 104.276 144.914 104.363C144.564 104.451 144.219 104.495 143.878 104.495ZM144.359 103.633C144.535 103.643 144.734 103.623 144.958 103.574C145.182 103.527 145.411 103.473 145.645 103.415C145.878 103.346 146.093 103.278 146.287 103.21C146.492 103.142 146.657 103.083 146.784 103.035C146.91 102.986 146.979 102.962 146.988 102.962V100.508L144.608 100.61C144.053 100.629 143.654 100.766 143.411 101.019C143.177 101.273 143.061 101.599 143.061 101.998V102.348C143.061 102.659 143.124 102.913 143.25 103.107C143.386 103.292 143.552 103.424 143.747 103.502C143.951 103.58 144.155 103.623 144.359 103.633ZM150.317 104.407V96.6096H151.221L151.47 97.4708C151.84 97.2082 152.273 96.9791 152.77 96.7847C153.267 96.5801 153.783 96.4783 154.318 96.4783C154.892 96.4783 155.354 96.5994 155.705 96.8427C156.056 97.086 156.313 97.4077 156.479 97.8067C156.644 98.2057 156.728 98.6394 156.728 99.1066V104.407H155.573V99.2379C155.573 98.9071 155.505 98.615 155.37 98.3615C155.242 98.0989 155.057 97.8943 154.814 97.7487C154.581 97.6021 154.289 97.5288 153.938 97.5288C153.617 97.5288 153.315 97.5634 153.032 97.6316C152.76 97.6896 152.497 97.7772 152.245 97.8942C152.001 98.0011 151.743 98.1325 151.47 98.2882V104.407H150.317ZM161.427 104.495C160.785 104.495 160.255 104.358 159.836 104.085C159.427 103.803 159.121 103.375 158.916 102.801C158.722 102.216 158.624 101.472 158.624 100.566C158.624 99.6024 158.722 98.8236 158.916 98.2302C159.111 97.6265 159.422 97.1888 159.851 96.916C160.279 96.6432 160.853 96.5068 161.574 96.5068C162.012 96.5068 162.44 96.5556 162.859 96.6534C163.277 96.7501 163.648 96.857 163.968 96.974V93.2656H165.123V104.407H164.187L163.968 103.618C163.823 103.745 163.604 103.877 163.312 104.013C163.029 104.15 162.717 104.266 162.377 104.363C162.046 104.451 161.73 104.495 161.427 104.495ZM161.763 103.546C162.211 103.546 162.615 103.478 162.976 103.341C163.345 103.195 163.676 103.044 163.968 102.888V97.7925C163.618 97.6846 163.282 97.597 162.961 97.5288C162.64 97.4514 162.279 97.4128 161.88 97.4128C161.384 97.4128 160.98 97.5044 160.668 97.6896C160.357 97.8749 160.129 98.1956 159.982 98.6536C159.846 99.1015 159.777 99.7245 159.777 100.523C159.777 101.243 159.84 101.828 159.968 102.276C160.104 102.723 160.318 103.049 160.61 103.254C160.902 103.448 161.287 103.546 161.763 103.546ZM174.069 104.495C173.632 104.495 173.222 104.437 172.843 104.32C172.463 104.203 172.132 103.998 171.85 103.706C171.568 103.415 171.348 103.01 171.193 102.494C171.037 101.978 170.96 101.321 170.96 100.523C170.96 99.7143 171.033 99.0527 171.178 98.5366C171.324 98.0113 171.534 97.6021 171.807 97.3099C172.079 97.0178 172.41 96.8132 172.799 96.6971C173.189 96.5801 173.622 96.5221 174.099 96.5221C174.489 96.5221 174.912 96.5414 175.369 96.5801C175.827 96.6096 176.265 96.6574 176.684 96.7256V97.4128H174.405C173.91 97.4128 173.49 97.4952 173.15 97.6601C172.809 97.8261 172.551 98.1375 172.376 98.5956C172.2 99.0425 172.113 99.695 172.113 100.552C172.113 101.38 172.206 102.012 172.391 102.451C172.575 102.888 172.839 103.191 173.179 103.356C173.52 103.511 173.933 103.59 174.421 103.59H176.801V104.262C176.577 104.3 176.314 104.339 176.012 104.378C175.72 104.417 175.408 104.446 175.077 104.465C174.746 104.485 174.41 104.495 174.069 104.495ZM181.491 104.495C180.926 104.495 180.431 104.437 180.002 104.32C179.584 104.203 179.232 103.998 178.95 103.706C178.669 103.415 178.459 103.01 178.322 102.494C178.186 101.968 178.118 101.301 178.118 100.493C178.118 99.6757 178.186 99.0089 178.322 98.4928C178.459 97.9675 178.669 97.5634 178.95 97.2804C179.232 96.9893 179.584 96.7898 180.002 96.6819C180.431 96.5658 180.926 96.5068 181.491 96.5068C182.056 96.5068 182.548 96.5658 182.966 96.6819C183.395 96.7989 183.75 97.0035 184.032 97.2957C184.315 97.5777 184.524 97.9818 184.66 98.5081C184.806 99.0232 184.879 99.6858 184.879 100.493C184.879 101.312 184.806 101.983 184.66 102.509C184.524 103.025 184.315 103.429 184.032 103.721C183.759 104.003 183.409 104.203 182.981 104.32C182.553 104.437 182.056 104.495 181.491 104.495ZM181.491 103.546C181.852 103.546 182.168 103.511 182.441 103.443C182.723 103.375 182.956 103.239 183.141 103.035C183.327 102.83 183.467 102.523 183.565 102.115C183.663 101.705 183.711 101.165 183.711 100.493C183.711 99.8121 183.663 99.2715 183.565 98.8725C183.467 98.4735 183.327 98.1722 183.141 97.9675C182.956 97.7629 182.723 97.6265 182.441 97.5583C182.168 97.4901 181.852 97.4565 181.491 97.4565C181.122 97.4565 180.8 97.4901 180.527 97.5583C180.255 97.6265 180.026 97.7629 179.841 97.9675C179.656 98.1722 179.515 98.4735 179.418 98.8725C179.32 99.2715 179.272 99.8121 179.272 100.493C179.272 101.165 179.32 101.705 179.418 102.115C179.515 102.523 179.656 102.83 179.841 103.035C180.026 103.239 180.255 103.375 180.527 103.443C180.8 103.511 181.122 103.546 181.491 103.546ZM186.823 104.407V96.6096H187.729L187.978 97.4708C188.347 97.2082 188.781 96.9791 189.277 96.7847C189.773 96.5801 190.289 96.4783 190.825 96.4783C191.399 96.4783 191.861 96.5994 192.212 96.8427C192.563 97.086 192.82 97.4077 192.986 97.8067C193.152 98.2057 193.234 98.6394 193.234 99.1066V104.407H192.081V99.2379C192.081 98.9071 192.013 98.615 191.876 98.3615C191.749 98.0989 191.565 97.8943 191.322 97.7487C191.088 97.6021 190.795 97.5288 190.445 97.5288C190.124 97.5288 189.822 97.5634 189.539 97.6316C189.267 97.6896 189.004 97.7772 188.751 97.8942C188.508 98.0011 188.249 98.1325 187.978 98.2882V104.407H186.823ZM198.095 104.495C197.901 104.495 197.662 104.49 197.379 104.48C197.098 104.47 196.8 104.456 196.489 104.437C196.187 104.417 195.91 104.397 195.657 104.378C195.414 104.349 195.223 104.32 195.087 104.29V103.59H198.285C198.606 103.59 198.884 103.565 199.117 103.516C199.351 103.468 199.531 103.361 199.658 103.195C199.794 103.03 199.862 102.781 199.862 102.451V102.099C199.862 101.759 199.75 101.497 199.526 101.312C199.302 101.117 198.942 101.019 198.446 101.019H197.351C196.893 101.019 196.484 100.961 196.124 100.844C195.773 100.727 195.501 100.528 195.306 100.246C195.111 99.9627 195.014 99.5739 195.014 99.0771V98.6679C195.014 98.1813 195.106 97.7823 195.292 97.4708C195.486 97.1593 195.783 96.9252 196.182 96.7694C196.592 96.6137 197.117 96.5363 197.759 96.5363C198.032 96.5363 198.343 96.5455 198.694 96.5658C199.054 96.5852 199.405 96.6137 199.745 96.6534C200.086 96.6819 200.364 96.7165 200.578 96.7552V97.4565H197.57C197.073 97.4565 196.688 97.539 196.417 97.7049C196.153 97.8698 196.022 98.1915 196.022 98.6679V98.9896C196.022 99.2909 196.085 99.5199 196.212 99.6757C196.338 99.8223 196.513 99.919 196.737 99.9678C196.971 100.017 197.239 100.041 197.54 100.041H198.65C199.361 100.041 199.911 100.206 200.3 100.537C200.69 100.869 200.884 101.345 200.884 101.968V102.509C200.884 103.035 200.763 103.443 200.52 103.735C200.286 104.017 199.96 104.218 199.541 104.334C199.132 104.441 198.65 104.495 198.095 104.495ZM205.031 104.495C204.282 104.495 203.703 104.3 203.294 103.91C202.895 103.521 202.695 102.918 202.695 102.099V96.6096H203.849V101.808C203.849 102.46 203.995 102.903 204.287 103.137C204.589 103.361 205.007 103.473 205.542 103.473C206.001 103.473 206.419 103.41 206.799 103.282C207.178 103.147 207.568 102.962 207.967 102.727V96.6096H209.121V104.407H208.216L207.967 103.546C207.568 103.798 207.115 104.022 206.609 104.218C206.113 104.402 205.586 104.495 205.031 104.495ZM213.339 104.421C212.891 104.421 212.516 104.344 212.215 104.188C211.913 104.022 211.684 103.76 211.528 103.399C211.372 103.03 211.295 102.533 211.295 101.91V93.2656H212.448V101.765C212.448 102.232 212.492 102.587 212.58 102.83C212.667 103.063 212.794 103.229 212.959 103.326C213.125 103.415 213.32 103.473 213.544 103.502L214.332 103.59V104.421H213.339ZM218.172 104.407C217.665 104.407 217.247 104.325 216.916 104.159C216.585 103.994 216.342 103.726 216.186 103.356C216.03 102.986 215.957 102.494 215.967 101.881L216.011 97.5583H214.769V96.8132L216.025 96.6096L216.215 94.4332H217.105V96.6096H219.355V97.5583H217.105V101.881C217.105 102.222 217.14 102.494 217.208 102.699C217.286 102.903 217.383 103.058 217.5 103.166C217.627 103.273 217.758 103.35 217.894 103.399C218.031 103.438 218.162 103.462 218.288 103.473L219.238 103.56V104.407H218.172ZM221.124 95.2221C220.969 95.2221 220.891 95.1437 220.891 94.988V93.8489C220.891 93.6932 220.969 93.6158 221.124 93.6158H221.942C222.02 93.6158 222.074 93.6402 222.102 93.6891C222.141 93.7278 222.162 93.7807 222.162 93.8489V94.988C222.162 95.1437 222.088 95.2221 221.942 95.2221H221.124ZM220.949 104.407V96.6096H222.102V104.407H220.949ZM224.329 104.407V96.6096H225.235L225.482 97.4708C225.853 97.2082 226.285 96.9791 226.782 96.7847C227.279 96.5801 227.795 96.4783 228.33 96.4783C228.904 96.4783 229.367 96.5994 229.718 96.8427C230.068 97.086 230.326 97.4077 230.491 97.8067C230.656 98.2057 230.74 98.6394 230.74 99.1066V104.407H229.585V99.2379C229.585 98.9071 229.517 98.615 229.382 98.3615C229.255 98.0989 229.07 97.8943 228.826 97.7487C228.593 97.6021 228.301 97.5288 227.951 97.5288C227.629 97.5288 227.328 97.5634 227.045 97.6316C226.773 97.6896 226.509 97.7772 226.257 97.8942C226.013 98.0011 225.755 98.1325 225.482 98.2882V104.407H224.329ZM234.827 107.985C234.32 107.985 233.873 107.912 233.483 107.765C233.104 107.63 232.802 107.415 232.578 107.123C232.363 106.841 232.257 106.486 232.257 106.057V105.707C232.257 105.259 232.379 104.885 232.622 104.582C232.874 104.281 233.191 104.057 233.571 103.91C233.95 103.755 234.34 103.677 234.739 103.677L235.032 104.144C234.739 104.144 234.467 104.193 234.213 104.29C233.961 104.378 233.751 104.524 233.585 104.729C233.429 104.932 233.352 105.196 233.352 105.517V105.838C233.352 106.306 233.508 106.636 233.819 106.831C234.131 107.035 234.554 107.138 235.09 107.138H236.9C237.485 107.138 237.942 107.026 238.273 106.802C238.614 106.578 238.784 106.227 238.784 105.751V105.459C238.784 105.186 238.731 104.953 238.624 104.757C238.516 104.563 238.336 104.412 238.083 104.305C237.84 104.197 237.494 104.144 237.046 104.144H234.696C234.092 104.144 233.62 104.017 233.279 103.765C232.948 103.502 232.782 103.166 232.782 102.757C232.782 102.367 232.894 102.061 233.118 101.837C233.352 101.613 233.678 101.457 234.097 101.37C233.737 101.224 233.454 101.029 233.25 100.785C233.045 100.533 232.904 100.265 232.826 99.9821C232.748 99.6899 232.71 99.3988 232.71 99.1066C232.71 98.503 232.831 98.0164 233.074 97.6459C233.317 97.2764 233.663 97.0086 234.111 96.8427C234.568 96.6778 235.104 96.5943 235.718 96.5943H239.879V97.2519L238.127 97.3975C238.253 97.485 238.395 97.6021 238.551 97.7487C238.706 97.8841 238.838 98.0836 238.945 98.3472C239.062 98.5997 239.12 98.9509 239.12 99.3988C239.12 99.7978 239.032 100.178 238.857 100.537C238.692 100.897 238.409 101.194 238.01 101.429C237.611 101.653 237.061 101.765 236.36 101.765H235.119C234.71 101.765 234.384 101.828 234.141 101.954C233.907 102.071 233.79 102.285 233.79 102.596C233.79 102.83 233.877 102.995 234.052 103.093C234.228 103.191 234.413 103.238 234.608 103.238H237.193C237.796 103.238 238.292 103.317 238.682 103.473C239.081 103.628 239.378 103.867 239.573 104.188C239.777 104.5 239.879 104.899 239.879 105.385V105.707C239.879 106.418 239.636 106.972 239.149 107.371C238.672 107.781 237.956 107.985 237.002 107.985H234.827ZM235.367 100.873H236.243C236.74 100.873 237.114 100.801 237.368 100.654C237.63 100.498 237.811 100.299 237.908 100.055C238.005 99.8121 238.054 99.5494 238.054 99.2664C238.054 98.8287 237.981 98.4836 237.835 98.2302C237.699 97.9675 237.504 97.7823 237.251 97.6754C236.997 97.5583 236.706 97.5003 236.374 97.5003H235.543C234.988 97.5003 234.549 97.6265 234.228 97.88C233.917 98.1233 233.761 98.5518 233.761 99.1647C233.761 99.7683 233.902 100.206 234.185 100.479C234.477 100.741 234.871 100.873 235.367 100.873ZM246.782 104.495C246.208 104.495 245.735 104.325 245.366 103.984C244.995 103.643 244.811 103.161 244.811 102.538V101.983C244.811 101.37 245.01 100.873 245.41 100.493C245.819 100.113 246.432 99.924 247.249 99.924H249.893V98.9601C249.893 98.6394 249.835 98.3666 249.717 98.1426C249.611 97.9085 249.41 97.7283 249.119 97.6021C248.836 97.4759 248.423 97.4128 247.877 97.4128H245.453V96.7256C245.794 96.6676 246.188 96.6137 246.636 96.5658C247.093 96.517 247.629 96.4925 248.242 96.4925C248.875 96.4824 249.401 96.5607 249.819 96.7256C250.238 96.8916 250.545 97.1542 250.74 97.5146C250.944 97.8647 251.046 98.3279 251.046 98.902V104.407H250.155L249.936 103.516C249.898 103.555 249.776 103.623 249.571 103.721C249.376 103.818 249.123 103.93 248.812 104.057C248.51 104.173 248.179 104.276 247.819 104.363C247.469 104.451 247.123 104.495 246.782 104.495ZM247.264 103.633C247.439 103.643 247.639 103.623 247.863 103.574C248.087 103.527 248.316 103.473 248.549 103.415C248.783 103.346 248.997 103.278 249.191 103.21C249.396 103.142 249.562 103.083 249.688 103.035C249.814 102.986 249.882 102.962 249.893 102.962V100.508L247.513 100.61C246.957 100.629 246.558 100.766 246.314 101.019C246.081 101.273 245.964 101.599 245.964 101.998V102.348C245.964 102.659 246.027 102.913 246.154 103.107C246.29 103.292 246.456 103.424 246.65 103.502C246.855 103.58 247.06 103.623 247.264 103.633ZM253.22 104.407V96.6096H254.126L254.375 97.4708C254.744 97.2082 255.178 96.9791 255.674 96.7847C256.17 96.5801 256.686 96.4783 257.222 96.4783C257.796 96.4783 258.259 96.5994 258.609 96.8427C258.959 97.086 259.218 97.4077 259.383 97.8067C259.549 98.2057 259.631 98.6394 259.631 99.1066V104.407H258.478V99.2379C258.478 98.9071 258.41 98.615 258.273 98.3615C258.147 98.0989 257.962 97.8943 257.719 97.7487C257.484 97.6021 257.192 97.5288 256.842 97.5288C256.521 97.5288 256.219 97.5634 255.937 97.6316C255.664 97.6896 255.402 97.7772 255.148 97.8942C254.905 98.0011 254.647 98.1325 254.375 98.2882V104.407H253.22ZM264.332 104.495C263.689 104.495 263.159 104.358 262.74 104.085C262.331 103.803 262.025 103.375 261.82 102.801C261.625 102.216 261.528 101.472 261.528 100.566C261.528 99.6024 261.625 98.8236 261.82 98.2302C262.015 97.6265 262.327 97.1888 262.754 96.916C263.183 96.6432 263.757 96.5068 264.478 96.5068C264.916 96.5068 265.344 96.5556 265.763 96.6534C266.182 96.7501 266.551 96.857 266.873 96.974V93.2656H268.026V104.407H267.092L266.873 103.618C266.726 103.745 266.508 103.877 266.215 104.013C265.933 104.15 265.622 104.266 265.281 104.363C264.95 104.451 264.634 104.495 264.332 104.495ZM264.668 103.546C265.116 103.546 265.519 103.478 265.88 103.341C266.25 103.195 266.581 103.044 266.873 102.888V97.7925C266.522 97.6846 266.187 97.597 265.865 97.5288C265.544 97.4514 265.183 97.4128 264.784 97.4128C264.288 97.4128 263.884 97.5044 263.573 97.6896C263.261 97.8749 263.032 98.1956 262.887 98.6536C262.75 99.1015 262.682 99.7245 262.682 100.523C262.682 101.243 262.745 101.828 262.871 102.276C263.008 102.723 263.222 103.049 263.514 103.254C263.806 103.448 264.191 103.546 264.668 103.546ZM63.4697 125.784V117.987H64.3751L64.6234 118.848C65.0127 118.575 65.446 118.342 65.923 118.146C66.4098 117.952 66.9501 117.855 67.544 117.855C68.0307 117.855 68.4445 117.966 68.7852 118.19C69.1357 118.405 69.3985 118.678 69.5737 119.009C69.8171 118.834 70.1091 118.658 70.4499 118.482C70.8003 118.307 71.1703 118.162 71.5597 118.045C71.9588 117.918 72.3434 117.855 72.7133 117.855C73.278 117.855 73.7404 117.976 74.1006 118.22C74.4608 118.454 74.7236 118.774 74.8891 119.184C75.0644 119.583 75.152 120.031 75.152 120.527V125.784H73.9984V120.615C73.9984 120.284 73.9302 119.992 73.7939 119.738C73.6674 119.476 73.4824 119.271 73.239 119.126C72.9956 118.979 72.6987 118.906 72.3482 118.906C71.9102 118.906 71.4624 118.989 71.0048 119.154C70.5472 119.32 70.1238 119.52 69.7343 119.753C69.7831 119.899 69.8171 120.045 69.8366 120.191C69.8658 120.328 69.8804 120.473 69.8804 120.629V125.784H68.7267V120.615C68.7267 120.284 68.6586 119.992 68.5223 119.738C68.3958 119.476 68.2108 119.271 67.9674 119.126C67.7337 118.979 67.4417 118.906 67.0912 118.906C66.7699 118.906 66.4682 118.94 66.1858 119.009C65.9133 119.067 65.6504 119.154 65.3973 119.271C65.1539 119.378 64.896 119.509 64.6234 119.665V125.784H63.4697ZM80.2958 125.872C79.4779 125.872 78.8305 125.751 78.3535 125.506C77.8863 125.263 77.5503 124.85 77.3459 124.265C77.1415 123.681 77.0393 122.883 77.0393 121.87C77.0393 120.839 77.1415 120.036 77.3459 119.461C77.5601 118.877 77.9057 118.468 78.3827 118.234C78.8597 118.001 79.5023 117.884 80.3103 117.884C81.0015 117.884 81.5613 117.962 81.9896 118.118C82.4278 118.274 82.749 118.541 82.9534 118.921C83.1676 119.291 83.2747 119.807 83.2747 120.468C83.2747 120.926 83.1822 121.296 82.9972 121.579C82.822 121.851 82.5641 122.05 82.2233 122.177C81.8923 122.294 81.4981 122.353 81.0405 122.353H78.1929C78.2027 122.985 78.2707 123.497 78.3974 123.886C78.5239 124.265 78.7526 124.543 79.0837 124.718C79.4244 124.883 79.921 124.967 80.5732 124.967H83.0849V125.667C82.6371 125.726 82.1989 125.774 81.7706 125.814C81.3422 125.852 80.8507 125.872 80.2958 125.872ZM78.1783 121.593H80.9529C81.391 121.593 81.7122 121.515 81.9167 121.359C82.1308 121.194 82.2379 120.902 82.2379 120.484C82.2379 120.036 82.1697 119.69 82.0334 119.446C81.9069 119.193 81.7025 119.018 81.4201 118.921C81.1476 118.814 80.7777 118.76 80.3103 118.76C79.7651 118.76 79.3369 118.843 79.0253 119.009C78.7138 119.164 78.4947 119.446 78.3682 119.856C78.2416 120.264 78.1783 120.844 78.1783 121.593ZM85.2171 125.784V117.987H86.1225L86.3707 118.848C86.7406 118.585 87.1739 118.356 87.6704 118.162C88.1669 117.957 88.6829 117.855 89.2183 117.855C89.7926 117.855 90.2551 117.976 90.6056 118.22C90.956 118.463 91.214 118.785 91.3795 119.184C91.5449 119.583 91.6277 120.016 91.6277 120.484V125.784H90.4741V120.615C90.4741 120.284 90.406 119.992 90.2697 119.738C90.1431 119.476 89.9582 119.271 89.7148 119.126C89.4812 118.979 89.1891 118.906 88.8386 118.906C88.5174 118.906 88.2155 118.94 87.9333 119.009C87.6607 119.067 87.3978 119.154 87.1446 119.271C86.9013 119.378 86.6433 119.509 86.3707 119.665V125.784H85.2171ZM96.3866 125.784C95.8804 125.784 95.4618 125.702 95.1308 125.536C94.7998 125.371 94.5565 125.103 94.4007 124.733C94.2449 124.363 94.1719 123.871 94.1817 123.258L94.2254 118.935H92.9842V118.19L94.2401 117.987L94.4298 115.81H95.3206V117.987H97.5695V118.935H95.3206V123.258C95.3206 123.599 95.3547 123.871 95.4228 124.076C95.5007 124.28 95.5981 124.435 95.7149 124.543C95.8415 124.65 95.9729 124.727 96.1092 124.776C96.2454 124.815 96.377 124.839 96.5035 124.85L97.4526 124.937V125.784H96.3866ZM102.26 125.872C101.695 125.872 101.198 125.814 100.77 125.697C100.352 125.579 100.001 125.375 99.7188 125.083C99.4365 124.792 99.2272 124.387 99.0909 123.871C98.9546 123.345 98.8865 122.678 98.8865 121.87C98.8865 121.053 98.9546 120.386 99.0909 119.87C99.2272 119.345 99.4365 118.94 99.7188 118.657C100.001 118.366 100.352 118.167 100.77 118.059C101.198 117.943 101.695 117.884 102.26 117.884C102.824 117.884 103.316 117.943 103.735 118.059C104.163 118.176 104.518 118.381 104.801 118.673C105.083 118.955 105.292 119.359 105.429 119.885C105.574 120.4 105.648 121.063 105.648 121.87C105.648 122.689 105.574 123.36 105.429 123.886C105.292 124.402 105.083 124.806 104.801 125.098C104.528 125.38 104.178 125.579 103.749 125.697C103.321 125.814 102.824 125.872 102.26 125.872ZM102.26 124.923C102.62 124.923 102.936 124.888 103.209 124.82C103.491 124.752 103.725 124.615 103.91 124.412C104.094 124.207 104.236 123.9 104.334 123.492C104.43 123.082 104.479 122.542 104.479 121.87C104.479 121.189 104.43 120.649 104.334 120.25C104.236 119.85 104.094 119.549 103.91 119.345C103.725 119.14 103.491 119.004 103.209 118.935C102.936 118.867 102.62 118.834 102.26 118.834C101.889 118.834 101.569 118.867 101.296 118.935C101.023 119.004 100.795 119.14 100.61 119.345C100.425 119.549 100.283 119.85 100.186 120.25C100.089 120.649 100.04 121.189 100.04 121.87C100.04 122.542 100.089 123.082 100.186 123.492C100.283 123.9 100.425 124.207 100.61 124.412C100.795 124.615 101.023 124.752 101.296 124.82C101.569 124.888 101.889 124.923 102.26 124.923ZM107.592 125.784V117.987H108.469L108.745 119.345C109.096 118.925 109.485 118.58 109.914 118.307C110.352 118.034 110.854 117.899 111.418 117.899C111.554 117.899 111.681 117.903 111.797 117.913C111.924 117.922 112.04 117.943 112.148 117.971V119.154C112.021 119.135 111.885 119.121 111.739 119.11C111.593 119.091 111.447 119.082 111.301 119.082C110.941 119.082 110.619 119.126 110.337 119.213C110.054 119.301 109.787 119.432 109.534 119.607C109.281 119.782 109.018 119.996 108.745 120.25V125.784H107.592ZM113.785 116.599C113.63 116.599 113.551 116.521 113.551 116.365V115.226C113.551 115.07 113.63 114.993 113.785 114.993H114.603C114.681 114.993 114.734 115.017 114.764 115.066C114.802 115.105 114.822 115.158 114.822 115.226V116.365C114.822 116.521 114.749 116.599 114.603 116.599H113.785ZM113.61 125.784V117.987H114.764V125.784H113.61ZM116.99 125.784V117.987H117.895L118.143 118.848C118.514 118.585 118.946 118.356 119.443 118.162C119.94 117.957 120.455 117.855 120.99 117.855C121.565 117.855 122.028 117.976 122.378 118.22C122.729 118.463 122.987 118.785 123.152 119.184C123.317 119.583 123.4 120.016 123.4 120.484V125.784H122.246V120.615C122.246 120.284 122.178 119.992 122.042 119.738C121.916 119.476 121.73 119.271 121.487 119.126C121.254 118.979 120.962 118.906 120.611 118.906C120.29 118.906 119.988 118.94 119.706 119.009C119.433 119.067 119.17 119.154 118.917 119.271C118.673 119.378 118.416 119.509 118.143 119.665V125.784H116.99ZM127.488 129.362C126.981 129.362 126.533 129.289 126.144 129.142C125.765 129.007 125.462 128.792 125.238 128.5C125.024 128.218 124.918 127.863 124.918 127.434V127.084C124.918 126.636 125.039 126.262 125.282 125.959C125.535 125.658 125.852 125.434 126.232 125.287C126.611 125.132 127 125.054 127.399 125.054L127.692 125.521C127.399 125.521 127.128 125.57 126.874 125.667C126.621 125.755 126.412 125.901 126.246 126.106C126.09 126.309 126.013 126.573 126.013 126.894V127.215C126.013 127.683 126.169 128.013 126.48 128.208C126.792 128.412 127.215 128.515 127.751 128.515H129.561C130.145 128.515 130.603 128.403 130.934 128.179C131.275 127.955 131.445 127.604 131.445 127.128V126.836C131.445 126.563 131.392 126.33 131.284 126.134C131.177 125.94 130.997 125.789 130.744 125.682C130.5 125.574 130.155 125.521 129.707 125.521H127.356C126.752 125.521 126.281 125.394 125.94 125.142C125.609 124.879 125.443 124.543 125.443 124.134C125.443 123.744 125.555 123.438 125.779 123.214C126.013 122.99 126.339 122.834 126.757 122.747C126.397 122.601 126.115 122.406 125.91 122.162C125.705 121.91 125.565 121.642 125.487 121.359C125.409 121.067 125.37 120.776 125.37 120.484C125.37 119.88 125.492 119.393 125.735 119.023C125.978 118.653 126.324 118.386 126.772 118.22C127.229 118.055 127.765 117.971 128.379 117.971H132.54V118.629L130.788 118.774C130.914 118.862 131.056 118.979 131.212 119.126C131.367 119.261 131.499 119.461 131.606 119.724C131.723 119.977 131.781 120.328 131.781 120.776C131.781 121.175 131.693 121.555 131.518 121.914C131.352 122.274 131.07 122.571 130.671 122.806C130.272 123.03 129.721 123.142 129.021 123.142H127.779C127.371 123.142 127.044 123.205 126.801 123.331C126.568 123.448 126.451 123.662 126.451 123.973C126.451 124.207 126.538 124.372 126.713 124.47C126.888 124.568 127.074 124.615 127.268 124.615H129.853C130.456 124.615 130.953 124.694 131.343 124.85C131.742 125.005 132.038 125.244 132.234 125.565C132.438 125.877 132.54 126.276 132.54 126.762V127.084C132.54 127.795 132.297 128.349 131.81 128.748C131.333 129.158 130.617 129.362 129.663 129.362H127.488ZM128.027 122.25H128.904C129.401 122.25 129.775 122.178 130.029 122.031C130.291 121.875 130.472 121.676 130.568 121.432C130.666 121.189 130.715 120.926 130.715 120.643C130.715 120.206 130.642 119.861 130.496 119.607C130.36 119.345 130.165 119.159 129.912 119.052C129.658 118.935 129.366 118.877 129.035 118.877H128.203C127.648 118.877 127.21 119.004 126.888 119.257C126.577 119.5 126.421 119.929 126.421 120.542C126.421 121.145 126.563 121.583 126.845 121.856C127.137 122.118 127.532 122.25 128.027 122.25ZM138.347 125.784V118.935H137.15V118.19L138.347 117.987V117.096C138.347 116.54 138.416 116.078 138.552 115.708C138.688 115.329 138.917 115.042 139.238 114.846C139.56 114.652 140.008 114.554 140.582 114.554C140.923 114.554 141.21 114.574 141.443 114.613C141.686 114.643 141.901 114.671 142.086 114.701V115.518H140.786C140.436 115.518 140.169 115.577 139.983 115.693C139.798 115.801 139.672 115.971 139.604 116.204C139.535 116.428 139.501 116.706 139.501 117.037V117.987H141.926V118.935H139.501V125.784H138.347ZM146.396 125.872C145.831 125.872 145.335 125.814 144.907 125.697C144.488 125.579 144.138 125.375 143.856 125.083C143.573 124.792 143.364 124.387 143.227 123.871C143.091 123.345 143.023 122.678 143.023 121.87C143.023 121.053 143.091 120.386 143.227 119.87C143.364 119.345 143.573 118.94 143.856 118.657C144.138 118.366 144.488 118.167 144.907 118.059C145.335 117.943 145.831 117.884 146.396 117.884C146.96 117.884 147.452 117.943 147.871 118.059C148.299 118.176 148.655 118.381 148.937 118.673C149.219 118.955 149.429 119.359 149.565 119.885C149.711 120.4 149.784 121.063 149.784 121.87C149.784 122.689 149.711 123.36 149.565 123.886C149.429 124.402 149.219 124.806 148.937 125.098C148.664 125.38 148.314 125.579 147.886 125.697C147.457 125.814 146.96 125.872 146.396 125.872ZM146.396 124.923C146.757 124.923 147.072 124.888 147.345 124.82C147.628 124.752 147.861 124.615 148.046 124.412C148.232 124.207 148.372 123.9 148.47 123.492C148.567 123.082 148.616 122.542 148.616 121.87C148.616 121.189 148.567 120.649 148.47 120.25C148.372 119.85 148.232 119.549 148.046 119.345C147.861 119.14 147.628 119.004 147.345 118.935C147.072 118.867 146.757 118.834 146.396 118.834C146.026 118.834 145.705 118.867 145.432 118.935C145.16 119.004 144.931 119.14 144.746 119.345C144.561 119.549 144.42 119.85 144.323 120.25C144.225 120.649 144.176 121.189 144.176 121.87C144.176 122.542 144.225 123.082 144.323 123.492C144.42 123.9 144.561 124.207 144.746 124.412C144.931 124.615 145.16 124.752 145.432 124.82C145.705 124.888 146.026 124.923 146.396 124.923ZM151.728 125.784V117.987H152.605L152.882 119.345C153.233 118.925 153.622 118.58 154.05 118.307C154.488 118.034 154.99 117.899 155.554 117.899C155.69 117.899 155.818 117.903 155.934 117.913C156.061 117.922 156.177 117.943 156.285 117.971V119.154C156.158 119.135 156.021 119.121 155.876 119.11C155.73 119.091 155.583 119.082 155.438 119.082C155.077 119.082 154.756 119.126 154.474 119.213C154.192 119.301 153.924 119.432 153.671 119.607C153.417 119.782 153.155 119.996 152.882 120.25V125.784H151.728ZM161.682 125.784V117.987H162.588L162.836 118.848C163.206 118.585 163.639 118.356 164.135 118.162C164.632 117.957 165.148 117.855 165.684 117.855C166.258 117.855 166.72 117.976 167.071 118.22C167.421 118.463 167.679 118.785 167.845 119.184C168.011 119.583 168.093 120.016 168.093 120.484V125.784H166.94V120.615C166.94 120.284 166.871 119.992 166.735 119.738C166.608 119.476 166.424 119.271 166.18 119.126C165.946 118.979 165.654 118.906 165.304 118.906C164.982 118.906 164.681 118.94 164.398 119.009C164.126 119.067 163.862 119.154 163.61 119.271C163.367 119.378 163.108 119.509 162.836 119.665V125.784H161.682ZM170.442 116.599C170.287 116.599 170.208 116.521 170.208 116.365V115.226C170.208 115.07 170.287 114.993 170.442 114.993H171.26C171.338 114.993 171.391 115.017 171.421 115.066C171.459 115.105 171.479 115.158 171.479 115.226V116.365C171.479 116.521 171.406 116.599 171.26 116.599H170.442ZM170.267 125.784V117.987H171.421V125.784H170.267ZM176.48 125.872C176.042 125.872 175.633 125.814 175.253 125.697C174.874 125.579 174.543 125.375 174.26 125.083C173.978 124.792 173.759 124.387 173.603 123.871C173.447 123.355 173.369 122.698 173.369 121.9C173.369 121.091 173.442 120.43 173.588 119.914C173.735 119.388 173.944 118.979 174.216 118.687C174.489 118.395 174.82 118.19 175.21 118.074C175.598 117.957 176.032 117.899 176.509 117.899C176.898 117.899 177.322 117.918 177.78 117.957C178.237 117.987 178.675 118.034 179.094 118.103V118.79H176.816C176.319 118.79 175.901 118.872 175.56 119.037C175.219 119.203 174.961 119.515 174.786 119.973C174.611 120.419 174.523 121.072 174.523 121.929C174.523 122.757 174.615 123.389 174.8 123.828C174.986 124.265 175.248 124.568 175.589 124.733C175.93 124.888 176.344 124.967 176.83 124.967H179.21V125.639C178.986 125.677 178.723 125.716 178.422 125.755C178.13 125.794 177.819 125.823 177.488 125.842C177.157 125.862 176.821 125.872 176.48 125.872ZM180.805 125.784V114.643H181.96V118.848C182.32 118.585 182.747 118.356 183.244 118.162C183.75 117.957 184.276 117.855 184.821 117.855C185.367 117.855 185.815 117.971 186.165 118.205C186.525 118.439 186.788 118.755 186.954 119.154C187.129 119.553 187.216 119.996 187.216 120.484V125.784H186.063V120.6C186.063 120.269 185.995 119.977 185.858 119.724C185.732 119.471 185.547 119.271 185.304 119.126C185.06 118.979 184.768 118.906 184.427 118.906C184.105 118.906 183.809 118.94 183.536 119.009C183.264 119.067 183.001 119.154 182.747 119.271C182.495 119.378 182.231 119.509 181.96 119.665V125.784H180.805ZM192.369 125.872C191.552 125.872 190.904 125.751 190.427 125.506C189.96 125.263 189.624 124.85 189.42 124.265C189.216 123.681 189.113 122.883 189.113 121.87C189.113 120.839 189.216 120.036 189.42 119.461C189.634 118.877 189.979 118.468 190.456 118.234C190.934 118.001 191.576 117.884 192.384 117.884C193.076 117.884 193.635 117.962 194.063 118.118C194.502 118.274 194.822 118.541 195.027 118.921C195.242 119.291 195.349 119.807 195.349 120.468C195.349 120.926 195.256 121.296 195.071 121.579C194.896 121.851 194.638 122.05 194.297 122.177C193.966 122.294 193.571 122.353 193.114 122.353H190.267C190.276 122.985 190.344 123.497 190.471 123.886C190.598 124.265 190.827 124.543 191.158 124.718C191.498 124.883 191.995 124.967 192.647 124.967H195.158V125.667C194.71 125.726 194.273 125.774 193.844 125.814C193.416 125.852 192.924 125.872 192.369 125.872ZM190.252 121.593H193.027C193.464 121.593 193.786 121.515 193.991 121.359C194.205 121.194 194.311 120.902 194.311 120.484C194.311 120.036 194.243 119.69 194.107 119.446C193.981 119.193 193.776 119.018 193.494 118.921C193.221 118.814 192.852 118.76 192.384 118.76C191.839 118.76 191.41 118.843 191.099 119.009C190.787 119.164 190.568 119.446 190.442 119.856C190.315 120.264 190.252 120.844 190.252 121.593ZM201.226 125.784V117.987H202.103L202.381 119.345C202.731 118.925 203.121 118.58 203.548 118.307C203.987 118.034 204.488 117.899 205.053 117.899C205.189 117.899 205.315 117.903 205.433 117.913C205.559 117.922 205.676 117.943 205.783 117.971V119.154C205.656 119.135 205.52 119.121 205.373 119.11C205.228 119.091 205.082 119.082 204.936 119.082C204.575 119.082 204.255 119.126 203.972 119.213C203.69 119.301 203.422 119.432 203.169 119.607C202.916 119.782 202.652 119.996 202.381 120.25V125.784H201.226ZM210.224 125.872C209.406 125.872 208.758 125.751 208.282 125.506C207.815 125.263 207.479 124.85 207.274 124.265C207.069 123.681 206.968 122.883 206.968 121.87C206.968 120.839 207.069 120.036 207.274 119.461C207.488 118.877 207.834 118.468 208.31 118.234C208.788 118.001 209.43 117.884 210.238 117.884C210.929 117.884 211.489 117.962 211.918 118.118C212.356 118.274 212.677 118.541 212.882 118.921C213.096 119.291 213.203 119.807 213.203 120.468C213.203 120.926 213.11 121.296 212.926 121.579C212.75 121.851 212.492 122.05 212.151 122.177C211.82 122.294 211.426 122.353 210.968 122.353H208.121C208.131 122.985 208.198 123.497 208.326 123.886C208.452 124.265 208.681 124.543 209.012 124.718C209.353 124.883 209.848 124.967 210.501 124.967H213.013V125.667C212.565 125.726 212.127 125.774 211.699 125.814C211.27 125.852 210.779 125.872 210.224 125.872ZM208.107 121.593H210.881C211.319 121.593 211.64 121.515 211.845 121.359C212.058 121.194 212.166 120.902 212.166 120.484C212.166 120.036 212.098 119.69 211.962 119.446C211.834 119.193 211.631 119.018 211.348 118.921C211.075 118.814 210.706 118.76 210.238 118.76C209.693 118.76 209.265 118.843 208.954 119.009C208.642 119.164 208.422 119.446 208.296 119.856C208.17 120.264 208.107 120.844 208.107 121.593ZM220.212 129.245V124.995C219.843 125.249 219.428 125.458 218.971 125.623C218.513 125.789 218.07 125.872 217.642 125.872C216.961 125.872 216.415 125.726 216.007 125.434C215.598 125.132 215.306 124.684 215.131 124.09C214.955 123.497 214.868 122.757 214.868 121.87C214.868 120.975 214.97 120.23 215.174 119.637C215.379 119.042 215.695 118.604 216.123 118.323C216.562 118.03 217.117 117.884 217.788 117.884C218.256 117.884 218.709 117.894 219.146 117.913C219.584 117.933 219.993 117.962 220.373 118.001C220.753 118.03 221.084 118.059 221.366 118.088V129.245H220.212ZM217.92 124.923C218.319 124.923 218.709 124.864 219.088 124.747C219.477 124.631 219.852 124.47 220.212 124.265V118.79H218.051C217.535 118.79 217.131 118.916 216.839 119.169C216.547 119.422 216.338 119.777 216.211 120.235C216.084 120.692 216.021 121.228 216.021 121.842C216.021 122.571 216.084 123.165 216.211 123.623C216.347 124.071 216.552 124.402 216.824 124.615C217.097 124.82 217.462 124.923 217.92 124.923ZM225.867 125.872C225.117 125.872 224.537 125.677 224.128 125.287C223.729 124.898 223.53 124.295 223.53 123.476V117.987H224.684V123.185C224.684 123.837 224.83 124.28 225.122 124.514C225.423 124.738 225.842 124.85 226.378 124.85C226.835 124.85 227.253 124.787 227.633 124.659C228.013 124.524 228.403 124.339 228.802 124.104V117.987H229.955V125.784H229.05L228.802 124.923C228.403 125.175 227.95 125.399 227.444 125.595C226.947 125.779 226.422 125.872 225.867 125.872ZM232.304 116.599C232.149 116.599 232.071 116.521 232.071 116.365V115.226C232.071 115.07 232.149 114.993 232.304 114.993H233.123C233.2 114.993 233.254 115.017 233.283 115.066C233.322 115.105 233.342 115.158 233.342 115.226V116.365C233.342 116.521 233.268 116.599 233.123 116.599H232.304ZM232.129 125.784V117.987H233.283V125.784H232.129ZM235.509 125.784V117.987H236.385L236.662 119.345C237.013 118.925 237.402 118.58 237.831 118.307C238.269 118.034 238.77 117.899 239.335 117.899C239.472 117.899 239.598 117.903 239.715 117.913C239.841 117.922 239.958 117.943 240.065 117.971V119.154C239.939 119.135 239.803 119.121 239.656 119.11C239.51 119.091 239.364 119.082 239.218 119.082C238.858 119.082 238.536 119.126 238.254 119.213C237.972 119.301 237.705 119.432 237.451 119.607C237.198 119.782 236.935 119.996 236.662 120.25V125.784H235.509ZM244.506 125.872C243.688 125.872 243.041 125.751 242.564 125.506C242.097 125.263 241.761 124.85 241.557 124.265C241.352 123.681 241.249 122.883 241.249 121.87C241.249 120.839 241.352 120.036 241.557 119.461C241.77 118.877 242.116 118.468 242.593 118.234C243.07 118.001 243.713 117.884 244.521 117.884C245.212 117.884 245.772 117.962 246.2 118.118C246.638 118.274 246.959 118.541 247.163 118.921C247.378 119.291 247.485 119.807 247.485 120.468C247.485 120.926 247.393 121.296 247.207 121.579C247.032 121.851 246.775 122.05 246.434 122.177C246.103 122.294 245.709 122.353 245.251 122.353H242.404C242.413 122.985 242.481 123.497 242.608 123.886C242.734 124.265 242.963 124.543 243.294 124.718C243.635 124.883 244.131 124.967 244.783 124.967H247.295V125.667C246.848 125.726 246.409 125.774 245.981 125.814C245.553 125.852 245.061 125.872 244.506 125.872ZM242.388 121.593H245.163C245.601 121.593 245.923 121.515 246.127 121.359C246.341 121.194 246.448 120.902 246.448 120.484C246.448 120.036 246.38 119.69 246.244 119.446C246.117 119.193 245.912 119.018 245.63 118.921C245.358 118.814 244.988 118.76 244.521 118.76C243.975 118.76 243.547 118.843 243.235 119.009C242.924 119.164 242.705 119.446 242.579 119.856C242.452 120.264 242.388 120.844 242.388 121.593ZM249.427 125.784V117.987H250.332L250.581 118.848C250.971 118.575 251.403 118.342 251.881 118.146C252.367 117.952 252.908 117.855 253.501 117.855C253.989 117.855 254.402 117.966 254.743 118.19C255.093 118.405 255.356 118.678 255.531 119.009C255.774 118.834 256.066 118.658 256.407 118.482C256.758 118.307 257.128 118.162 257.517 118.045C257.916 117.918 258.301 117.855 258.671 117.855C259.235 117.855 259.699 117.976 260.058 118.22C260.418 118.454 260.682 118.774 260.847 119.184C261.022 119.583 261.109 120.031 261.109 120.527V125.784H259.956V120.615C259.956 120.284 259.888 119.992 259.751 119.738C259.625 119.476 259.44 119.271 259.197 119.126C258.953 118.979 258.656 118.906 258.306 118.906C257.868 118.906 257.42 118.989 256.962 119.154C256.505 119.32 256.082 119.52 255.692 119.753C255.741 119.899 255.774 120.045 255.795 120.191C255.823 120.328 255.838 120.473 255.838 120.629V125.784H254.684V120.615C254.684 120.284 254.616 119.992 254.48 119.738C254.353 119.476 254.169 119.271 253.925 119.126C253.692 118.979 253.399 118.906 253.049 118.906C252.728 118.906 252.426 118.94 252.143 119.009C251.871 119.067 251.608 119.154 251.355 119.271C251.112 119.378 250.854 119.509 250.581 119.665V125.784H249.427ZM266.253 125.872C265.436 125.872 264.788 125.751 264.311 125.506C263.844 125.263 263.508 124.85 263.304 124.265C263.099 123.681 262.997 122.883 262.997 121.87C262.997 120.839 263.099 120.036 263.304 119.461C263.518 118.877 263.863 118.468 264.34 118.234C264.818 118.001 265.46 117.884 266.268 117.884C266.96 117.884 267.519 117.962 267.947 118.118C268.386 118.274 268.706 118.541 268.911 118.921C269.126 119.291 269.233 119.807 269.233 120.468C269.233 120.926 269.14 121.296 268.955 121.579C268.78 121.851 268.522 122.05 268.181 122.177C267.85 122.294 267.455 122.353 266.998 122.353H264.151C264.16 122.985 264.228 123.497 264.355 123.886C264.482 124.265 264.711 124.543 265.042 124.718C265.382 124.883 265.879 124.967 266.531 124.967H269.042V125.667C268.594 125.726 268.157 125.774 267.728 125.814C267.3 125.852 266.808 125.872 266.253 125.872ZM264.136 121.593H266.911C267.348 121.593 267.67 121.515 267.875 121.359C268.089 121.194 268.195 120.902 268.195 120.484C268.195 120.036 268.127 119.69 267.991 119.446C267.865 119.193 267.66 119.018 267.378 118.921C267.105 118.814 266.736 118.76 266.268 118.76C265.723 118.76 265.294 118.843 264.983 119.009C264.671 119.164 264.452 119.446 264.326 119.856C264.199 120.264 264.136 120.844 264.136 121.593ZM271.175 125.784V117.987H272.08L272.328 118.848C272.699 118.585 273.131 118.356 273.628 118.162C274.125 117.957 274.641 117.855 275.176 117.855C275.751 117.855 276.213 117.976 276.563 118.22C276.914 118.463 277.172 118.785 277.338 119.184C277.503 119.583 277.585 120.016 277.585 120.484V125.784H276.432V120.615C276.432 120.284 276.363 119.992 276.227 119.738C276.101 119.476 275.915 119.271 275.672 119.126C275.439 118.979 275.147 118.906 274.797 118.906C274.475 118.906 274.173 118.94 273.891 119.009C273.618 119.067 273.355 119.154 273.102 119.271C272.859 119.378 272.601 119.509 272.328 119.665V125.784H271.175ZM282.344 125.784C281.838 125.784 281.42 125.702 281.089 125.536C280.758 125.371 280.515 125.103 280.359 124.733C280.202 124.363 280.13 123.871 280.139 123.258L280.183 118.935H278.942V118.19L280.198 117.987L280.387 115.81H281.278V117.987H283.527V118.935H281.278V123.258C281.278 123.599 281.313 123.871 281.381 124.076C281.458 124.28 281.556 124.435 281.673 124.543C281.799 124.65 281.931 124.727 282.067 124.776C282.203 124.815 282.335 124.839 282.461 124.85L283.411 124.937V125.784H282.344ZM287.808 125.872C287.614 125.872 287.376 125.867 287.093 125.857C286.811 125.847 286.513 125.833 286.202 125.814C285.901 125.794 285.623 125.774 285.37 125.755C285.127 125.726 284.937 125.697 284.8 125.667V124.967H287.999C288.319 124.967 288.597 124.942 288.83 124.893C289.064 124.845 289.245 124.738 289.371 124.572C289.507 124.407 289.575 124.158 289.575 123.828V123.476C289.575 123.136 289.463 122.874 289.239 122.689C289.016 122.494 288.655 122.396 288.159 122.396H287.064C286.606 122.396 286.198 122.338 285.838 122.221C285.486 122.104 285.215 121.905 285.019 121.623C284.825 121.34 284.727 120.951 284.727 120.454V120.045C284.727 119.558 284.82 119.159 285.005 118.848C285.199 118.536 285.496 118.302 285.896 118.146C286.305 117.991 286.83 117.913 287.472 117.913C287.745 117.913 288.057 117.922 288.407 117.943C288.767 117.962 289.118 117.991 289.458 118.03C289.799 118.059 290.077 118.093 290.291 118.132V118.834H287.283C286.786 118.834 286.401 118.916 286.13 119.082C285.866 119.247 285.735 119.568 285.735 120.045V120.367C285.735 120.668 285.798 120.897 285.925 121.053C286.051 121.199 286.226 121.296 286.45 121.345C286.684 121.394 286.952 121.418 287.253 121.418H288.363C289.075 121.418 289.624 121.583 290.013 121.914C290.403 122.246 290.597 122.722 290.597 123.345V123.886C290.597 124.412 290.476 124.82 290.233 125.112C289.999 125.394 289.673 125.595 289.254 125.711C288.846 125.818 288.363 125.872 287.808 125.872ZM292.452 125.798C292.296 125.798 292.219 125.721 292.219 125.565V124.397C292.219 124.241 292.296 124.164 292.452 124.164H293.094C293.25 124.164 293.329 124.241 293.329 124.397V125.565C293.329 125.643 293.304 125.702 293.255 125.74C293.217 125.779 293.163 125.798 293.094 125.798H292.452Z" fill="white"/>
<circle cx="285.497" cy="-12.9981" r="47.7206" fill="white" fill-opacity="0.2"/>
<circle cx="-4.84577" cy="60.3417" r="47.7206" fill="white" fill-opacity="0.2"/>
</g>
</g>
<defs>
<filter id="filter0_d_1499_9389" x="0.500423" y="-14.9639" width="355.797" height="214.712" filterUnits="userSpaceOnUse" color-interpolation-filters="sRGB">
<feFlood flood-opacity="0" result="BackgroundImageFix"/>
<feColorMatrix in="SourceAlpha" type="matrix" values="0 0 0 0 0 0 0 0 0 0 0 0 0 0 0 0 0 0 127 0" result="hardAlpha"/>
<feOffset dy="4.07181"/>
<feGaussianBlur stdDeviation="9.51785"/>
<feComposite in2="hardAlpha" operator="out"/>
<feColorMatrix type="matrix" values="0 0 0 0 0 0 0 0 0 0 0 0 0 0 0 0 0 0 0.25 0"/>
<feBlend mode="normal" in2="BackgroundImageFix" result="effect1_dropShadow_1499_9389"/>
<feBlend mode="normal" in="SourceGraphic" in2="effect1_dropShadow_1499_9389" result="shape"/>
</filter>
<linearGradient id="paint0_linear_1499_9389" x1="178.399" y1="0" x2="178.399" y2="176.64" gradientUnits="userSpaceOnUse">
<stop stop-color="#7030A0"/>
<stop offset="1" stop-color="#B53784"/>
</linearGradient>
<clipPath id="clip0_1499_9389">
<rect x="19.5361" width="317.726" height="176.64" rx="16.0743" fill="white"/>
</clipPath>
</defs>
</svg>
