<svg width="351" height="213" viewBox="0 0 351 213" fill="none" xmlns="http://www.w3.org/2000/svg">
<g filter="url(#filter0_d_931_1215)">
<rect x="19" y="15" width="313.109" height="174.326" rx="16.9248" fill="white"/>
<mask id="mask0_931_1215" style="mask-type:alpha" maskUnits="userSpaceOnUse" x="19" y="15" width="314" height="175">
<rect x="19" y="15" width="313.109" height="174.326" rx="16.9248" fill="url(#paint0_linear_931_1215)"/>
</mask>
<g mask="url(#mask0_931_1215)">
<path d="M48.4671 42.7096C48.4671 71.6863 24.9769 95.1766 -3.99983 95.1766C-32.9765 95.1766 -56.4668 71.6863 -56.4668 42.7096C-56.4668 13.7329 -32.9765 -9.75732 -3.99983 -9.75732C24.9769 -9.75732 48.4671 13.7329 48.4671 42.7096Z" fill="#7030A0"/>
<ellipse cx="60.6938" cy="61.938" rx="60.6938" ry="61.938" transform="matrix(0.861361 -0.507994 0.492048 0.870568 288.104 52.9683)" fill="#7030A0"/>
<circle cx="-3.00179" cy="2.08903" r="52.467" fill="#B53784"/>
<ellipse cx="60.6938" cy="61.938" rx="60.6938" ry="61.938" transform="matrix(0.861361 -0.507994 0.492048 0.870568 234.792 -5.42236)" fill="#B53784"/>
</g>
<path d="M78.792 83V62.28H87.528C88.2 62.28 88.8813 62.364 89.572 62.532C90.2813 62.6813 90.9253 62.9987 91.504 63.484C92.1013 63.9507 92.5773 64.66 92.932 65.612C93.3053 66.564 93.492 67.824 93.492 69.392C93.492 70.96 93.3053 72.2293 92.932 73.2C92.5773 74.1707 92.1107 74.908 91.532 75.412C90.9533 75.916 90.328 76.252 89.656 76.42C88.984 76.588 88.3307 76.672 87.696 76.672C87.36 76.672 86.968 76.6627 86.52 76.644C86.072 76.6067 85.6147 76.56 85.148 76.504C84.7 76.448 84.28 76.4013 83.888 76.364C83.496 76.308 83.1787 76.2613 82.936 76.224V83H78.792ZM82.936 72.948H87.052C87.5373 72.948 87.948 72.836 88.284 72.612C88.6387 72.3693 88.9 71.996 89.068 71.492C89.236 70.9693 89.32 70.2787 89.32 69.42C89.32 68.58 89.2267 67.9173 89.04 67.432C88.872 66.928 88.62 66.564 88.284 66.34C87.9667 66.116 87.584 66.004 87.136 66.004H82.936V72.948ZM99.1786 83.168C98.04 83.168 97.116 82.832 96.4066 82.16C95.6973 81.488 95.3426 80.5547 95.3426 79.36V78.016C95.3426 76.8773 95.744 75.944 96.5466 75.216C97.3493 74.4693 98.6 74.096 100.299 74.096H104.135V73.06C104.135 72.5933 104.051 72.2107 103.883 71.912C103.715 71.5947 103.397 71.3707 102.931 71.24C102.483 71.0907 101.792 71.016 100.859 71.016H96.3506V68.608C97.0786 68.384 97.9186 68.188 98.8706 68.02C99.8413 67.852 101.008 67.768 102.371 67.768C103.621 67.768 104.685 67.9173 105.563 68.216C106.459 68.5147 107.131 69.028 107.579 69.756C108.045 70.484 108.279 71.492 108.279 72.78V83H105.003L104.331 81.404C104.2 81.5533 103.976 81.7213 103.659 81.908C103.341 82.0947 102.949 82.2907 102.483 82.496C102.035 82.6827 101.521 82.8413 100.943 82.972C100.383 83.1027 99.7946 83.168 99.1786 83.168ZM101.279 80.284C101.465 80.284 101.671 80.2653 101.895 80.228C102.137 80.172 102.38 80.116 102.623 80.06C102.884 79.9853 103.117 79.92 103.323 79.864C103.547 79.7893 103.724 79.724 103.855 79.668C104.004 79.612 104.097 79.5747 104.135 79.556V76.056L101.615 76.224C100.887 76.28 100.345 76.4667 99.9906 76.784C99.6546 77.1013 99.4866 77.5307 99.4866 78.072V78.688C99.4866 79.0613 99.5613 79.3693 99.7106 79.612C99.8786 79.8547 100.093 80.032 100.355 80.144C100.635 80.2373 100.943 80.284 101.279 80.284ZM111.381 83V67.964H114.573L115.525 70.26C116.066 69.5693 116.673 68.9813 117.345 68.496C118.036 68.0107 118.848 67.768 119.781 67.768C119.986 67.768 120.192 67.7773 120.397 67.796C120.621 67.8147 120.826 67.852 121.013 67.908V72.164C120.733 72.1267 120.434 72.0987 120.117 72.08C119.818 72.0427 119.529 72.024 119.249 72.024C118.708 72.024 118.213 72.0893 117.765 72.22C117.336 72.332 116.934 72.5093 116.561 72.752C116.206 72.976 115.861 73.2747 115.525 73.648V83H111.381ZM129.206 83C128.049 83 127.106 82.832 126.378 82.496C125.669 82.16 125.156 81.6 124.838 80.816C124.521 80.032 124.381 78.9773 124.418 77.652L124.558 71.296H122.206V68.636L124.698 67.964L125.258 63.764H128.534V67.964H132.062V71.296H128.534V77.624C128.534 78.0347 128.572 78.3707 128.646 78.632C128.721 78.8933 128.824 79.108 128.954 79.276C129.104 79.4253 129.272 79.5373 129.458 79.612C129.645 79.6867 129.832 79.7333 130.018 79.752L131.922 79.92V83H129.206ZM134.377 83V67.964H137.793L138.521 69.504C139.081 69.0373 139.781 68.6267 140.621 68.272C141.48 67.8987 142.357 67.712 143.253 67.712C144.485 67.712 145.437 67.9547 146.109 68.44C146.781 68.9253 147.248 69.5787 147.509 70.4C147.789 71.2027 147.929 72.0987 147.929 73.088V83H143.785V73.62C143.785 73.1347 143.692 72.7333 143.505 72.416C143.337 72.0987 143.095 71.856 142.777 71.688C142.46 71.52 142.077 71.436 141.629 71.436C141.237 71.436 140.855 71.4827 140.481 71.576C140.127 71.6693 139.781 71.8 139.445 71.968C139.128 72.136 138.82 72.332 138.521 72.556V83H134.377ZM157.358 83.14C155.696 83.14 154.371 82.9253 153.382 82.496C152.392 82.048 151.674 81.264 151.226 80.144C150.796 79.024 150.582 77.4747 150.582 75.496C150.582 73.4613 150.787 71.884 151.198 70.764C151.608 69.644 152.299 68.86 153.27 68.412C154.24 67.964 155.556 67.74 157.218 67.74C158.711 67.74 159.906 67.8893 160.802 68.188C161.698 68.4867 162.342 69.0093 162.734 69.756C163.144 70.5027 163.35 71.5573 163.35 72.92C163.35 73.928 163.144 74.7307 162.734 75.328C162.342 75.9067 161.782 76.3267 161.054 76.588C160.326 76.8307 159.467 76.952 158.478 76.952H154.698C154.735 77.7173 154.847 78.3333 155.034 78.8C155.239 79.248 155.603 79.5747 156.126 79.78C156.667 79.9667 157.442 80.06 158.45 80.06H162.846V82.496C162.118 82.6453 161.315 82.7947 160.438 82.944C159.579 83.0747 158.552 83.14 157.358 83.14ZM154.642 74.488H158.058C158.618 74.488 159.028 74.376 159.29 74.152C159.551 73.928 159.682 73.5267 159.682 72.948C159.682 72.4067 159.598 71.9773 159.43 71.66C159.262 71.324 159 71.0907 158.646 70.96C158.291 70.8107 157.815 70.736 157.218 70.736C156.583 70.736 156.079 70.848 155.706 71.072C155.332 71.2773 155.062 71.6507 154.894 72.192C154.726 72.7333 154.642 73.4987 154.642 74.488ZM166.069 83V67.964H169.261L170.213 70.26C170.754 69.5693 171.361 68.9813 172.033 68.496C172.723 68.0107 173.535 67.768 174.469 67.768C174.674 67.768 174.879 67.7773 175.085 67.796C175.309 67.8147 175.514 67.852 175.701 67.908V72.164C175.421 72.1267 175.122 72.0987 174.805 72.08C174.506 72.0427 174.217 72.024 173.937 72.024C173.395 72.024 172.901 72.0893 172.453 72.22C172.023 72.332 171.622 72.5093 171.249 72.752C170.894 72.976 170.549 73.2747 170.213 73.648V83H166.069ZM184.763 83L187.171 62.28H191.147L195.907 78.156L200.639 62.28H204.587L207.023 83H203.019L201.227 67.74L201.871 67.796L197.811 83H193.919L189.803 67.796L190.503 67.768L188.767 83H184.763ZM216.013 83.14C214.781 83.14 213.726 83.0187 212.849 82.776C211.971 82.5147 211.253 82.0853 210.693 81.488C210.151 80.8907 209.75 80.0973 209.489 79.108C209.246 78.1187 209.125 76.896 209.125 75.44C209.125 73.9093 209.246 72.6493 209.489 71.66C209.75 70.652 210.151 69.868 210.693 69.308C211.253 68.7293 211.971 68.328 212.849 68.104C213.745 67.8613 214.799 67.74 216.013 67.74C217.263 67.74 218.327 67.8613 219.205 68.104C220.082 68.3467 220.791 68.7573 221.333 69.336C221.893 69.896 222.294 70.68 222.537 71.688C222.798 72.6773 222.929 73.928 222.929 75.44C222.929 76.9333 222.807 78.184 222.565 79.192C222.322 80.1813 221.93 80.9653 221.389 81.544C220.847 82.1227 220.129 82.5333 219.233 82.776C218.355 83.0187 217.282 83.14 216.013 83.14ZM216.013 79.836C216.517 79.836 216.937 79.7893 217.273 79.696C217.627 79.6027 217.907 79.416 218.113 79.136C218.337 78.8373 218.505 78.3893 218.617 77.792C218.729 77.1947 218.785 76.4107 218.785 75.44C218.785 74.4507 218.729 73.6667 218.617 73.088C218.505 72.4907 218.337 72.052 218.113 71.772C217.907 71.4733 217.627 71.2773 217.273 71.184C216.937 71.0907 216.517 71.044 216.013 71.044C215.527 71.044 215.107 71.0907 214.753 71.184C214.417 71.2773 214.137 71.4733 213.913 71.772C213.689 72.052 213.521 72.4907 213.409 73.088C213.315 73.6667 213.269 74.4507 213.269 75.44C213.269 76.4107 213.315 77.1947 213.409 77.792C213.521 78.3893 213.689 78.8373 213.913 79.136C214.137 79.416 214.417 79.6027 214.753 79.696C215.107 79.7893 215.527 79.836 216.013 79.836ZM230.606 83.168C229.43 83.168 228.441 82.9253 227.638 82.44C226.835 81.936 226.229 81.1333 225.818 80.032C225.426 78.912 225.23 77.4467 225.23 75.636C225.23 73.7693 225.398 72.2573 225.734 71.1C226.089 69.9427 226.677 69.0933 227.498 68.552C228.319 68.0107 229.449 67.74 230.886 67.74C231.577 67.74 232.258 67.8147 232.93 67.964C233.602 68.0947 234.199 68.2533 234.722 68.44V61.636H238.894V83H235.394L234.722 81.572C234.405 81.8707 234.013 82.1413 233.546 82.384C233.098 82.6267 232.622 82.8227 232.118 82.972C231.614 83.1027 231.11 83.168 230.606 83.168ZM232.062 79.836C232.622 79.836 233.126 79.7427 233.574 79.556C234.041 79.3693 234.423 79.1827 234.722 78.996V71.436C234.349 71.3053 233.957 71.1747 233.546 71.044C233.135 70.9133 232.697 70.848 232.23 70.848C231.539 70.848 230.979 70.9693 230.55 71.212C230.139 71.4547 229.841 71.912 229.654 72.584C229.467 73.2373 229.374 74.1893 229.374 75.44C229.374 76.5973 229.458 77.5027 229.626 78.156C229.813 78.7907 230.102 79.2293 230.494 79.472C230.886 79.7147 231.409 79.836 232.062 79.836ZM248.33 83.14C246.669 83.14 245.344 82.9253 244.354 82.496C243.365 82.048 242.646 81.264 242.198 80.144C241.769 79.024 241.554 77.4747 241.554 75.496C241.554 73.4613 241.76 71.884 242.17 70.764C242.581 69.644 243.272 68.86 244.242 68.412C245.213 67.964 246.529 67.74 248.19 67.74C249.684 67.74 250.878 67.8893 251.774 68.188C252.67 68.4867 253.314 69.0093 253.706 69.756C254.117 70.5027 254.322 71.5573 254.322 72.92C254.322 73.928 254.117 74.7307 253.706 75.328C253.314 75.9067 252.754 76.3267 252.026 76.588C251.298 76.8307 250.44 76.952 249.45 76.952H245.67C245.708 77.7173 245.82 78.3333 246.006 78.8C246.212 79.248 246.576 79.5747 247.098 79.78C247.64 79.9667 248.414 80.06 249.422 80.06H253.818V82.496C253.09 82.6453 252.288 82.7947 251.41 82.944C250.552 83.0747 249.525 83.14 248.33 83.14ZM245.614 74.488H249.03C249.59 74.488 250.001 74.376 250.262 74.152C250.524 73.928 250.654 73.5267 250.654 72.948C250.654 72.4067 250.57 71.9773 250.402 71.66C250.234 71.324 249.973 71.0907 249.618 70.96C249.264 70.8107 248.788 70.736 248.19 70.736C247.556 70.736 247.052 70.848 246.678 71.072C246.305 71.2773 246.034 71.6507 245.866 72.192C245.698 72.7333 245.614 73.4987 245.614 74.488ZM261.745 83.056C260.681 83.056 259.795 82.888 259.085 82.552C258.395 82.1973 257.881 81.6653 257.545 80.956C257.209 80.228 257.041 79.2947 257.041 78.156V61.636H261.185V77.54C261.185 78.1 261.241 78.548 261.353 78.884C261.465 79.2013 261.633 79.4347 261.857 79.584C262.1 79.7333 262.399 79.836 262.753 79.892L263.901 80.06V83.056H261.745Z" fill="#5B5B5B"/>
<path d="M91.506 118.086C90.827 118.086 90.2293 118.024 89.7128 117.9C89.206 117.766 88.7804 117.517 88.4361 117.154C88.1014 116.79 87.8479 116.255 87.6758 115.547C87.5132 114.839 87.4319 113.912 87.4319 112.764C87.4319 111.616 87.518 110.689 87.6902 109.981C87.8623 109.264 88.1205 108.719 88.4648 108.346C88.8091 107.963 89.2347 107.705 89.7415 107.571C90.2484 107.428 90.8366 107.356 91.506 107.356C92.1946 107.356 92.7923 107.428 93.2992 107.571C93.8156 107.705 94.2412 107.963 94.5759 108.346C94.9202 108.719 95.1736 109.264 95.3362 109.981C95.4988 110.689 95.5801 111.616 95.5801 112.764C95.5801 113.912 95.494 114.839 95.3218 115.547C95.1593 116.255 94.9058 116.79 94.5615 117.154C94.2268 117.517 93.806 117.766 93.2992 117.9C92.7923 118.024 92.1946 118.086 91.506 118.086ZM91.506 117.068C92.0416 117.068 92.4958 117.015 92.8688 116.91C93.2418 116.805 93.543 116.604 93.7726 116.307C94.0116 116.001 94.1838 115.566 94.289 115.002C94.3942 114.438 94.4468 113.692 94.4468 112.764C94.4468 111.798 94.3894 111.023 94.2746 110.44C94.1694 109.857 93.9973 109.417 93.7582 109.12C93.5287 108.824 93.2274 108.628 92.8545 108.532C92.491 108.436 92.0416 108.389 91.506 108.389C91.0087 108.389 90.5736 108.436 90.2006 108.532C89.8372 108.628 89.5311 108.824 89.2825 109.12C89.0434 109.417 88.8617 109.857 88.7374 110.44C88.6226 111.023 88.5652 111.798 88.5652 112.764C88.5652 113.692 88.613 114.438 88.7087 115.002C88.8139 115.566 88.9812 116.001 89.2108 116.307C89.4403 116.604 89.7415 116.805 90.1145 116.91C90.497 117.015 90.9609 117.068 91.506 117.068ZM97.5102 118V110.34H98.3996L98.6434 111.186C99.0069 110.928 99.4324 110.703 99.9202 110.512C100.408 110.311 100.915 110.211 101.441 110.211C102.005 110.211 102.459 110.33 102.804 110.569C103.148 110.808 103.401 111.124 103.564 111.516C103.726 111.908 103.808 112.334 103.808 112.793V118H102.674V112.922C102.674 112.597 102.608 112.31 102.474 112.061C102.349 111.803 102.168 111.602 101.929 111.459C101.699 111.315 101.412 111.243 101.068 111.243C100.752 111.243 100.456 111.277 100.178 111.344C99.9106 111.401 99.6524 111.487 99.4037 111.602C99.1647 111.707 98.9112 111.836 98.6434 111.989V118H97.5102ZM105.212 114.313V113.366H109.415V114.313H105.212ZM113.343 118.086C112.711 118.086 112.19 117.952 111.779 117.684C111.377 117.407 111.076 116.986 110.875 116.422C110.684 115.848 110.588 115.117 110.588 114.227C110.588 113.28 110.684 112.515 110.875 111.932C111.066 111.339 111.372 110.909 111.793 110.641C112.214 110.373 112.778 110.239 113.486 110.239C113.916 110.239 114.337 110.287 114.748 110.383C115.16 110.478 115.523 110.583 115.839 110.698V107.055H116.972V118H116.054L115.839 117.225C115.695 117.35 115.48 117.479 115.193 117.613C114.916 117.747 114.61 117.861 114.275 117.957C113.95 118.043 113.639 118.086 113.343 118.086ZM113.672 117.154C114.112 117.154 114.509 117.087 114.863 116.953C115.227 116.809 115.552 116.661 115.839 116.508V111.502C115.494 111.396 115.164 111.31 114.849 111.243C114.533 111.167 114.179 111.129 113.787 111.129C113.3 111.129 112.903 111.219 112.597 111.401C112.291 111.583 112.066 111.898 111.922 112.348C111.788 112.788 111.722 113.4 111.722 114.184C111.722 114.892 111.784 115.466 111.908 115.906C112.042 116.346 112.252 116.666 112.539 116.867C112.826 117.058 113.204 117.154 113.672 117.154ZM122.039 118.086C121.235 118.086 120.599 117.967 120.131 117.727C119.672 117.488 119.342 117.082 119.141 116.508C118.94 115.934 118.84 115.15 118.84 114.155C118.84 113.142 118.94 112.353 119.141 111.788C119.351 111.215 119.691 110.813 120.159 110.583C120.628 110.354 121.259 110.239 122.053 110.239C122.732 110.239 123.282 110.316 123.703 110.469C124.133 110.622 124.449 110.885 124.649 111.258C124.86 111.621 124.965 112.128 124.965 112.778C124.965 113.228 124.874 113.591 124.692 113.869C124.52 114.136 124.267 114.332 123.932 114.457C123.607 114.571 123.22 114.629 122.77 114.629H119.973C119.982 115.25 120.049 115.753 120.174 116.135C120.298 116.508 120.523 116.781 120.848 116.953C121.183 117.115 121.67 117.197 122.311 117.197H124.779V117.885C124.339 117.943 123.908 117.99 123.487 118.029C123.067 118.067 122.584 118.086 122.039 118.086ZM119.959 113.883H122.684C123.114 113.883 123.43 113.806 123.631 113.653C123.841 113.491 123.947 113.204 123.947 112.793C123.947 112.353 123.88 112.013 123.746 111.774C123.621 111.525 123.421 111.353 123.143 111.258C122.875 111.153 122.512 111.1 122.053 111.1C121.517 111.1 121.097 111.181 120.791 111.344C120.485 111.497 120.269 111.774 120.145 112.176C120.021 112.577 119.959 113.147 119.959 113.883ZM126.873 118V110.34H127.763L128.006 111.186C128.389 110.918 128.815 110.689 129.283 110.497C129.761 110.306 130.292 110.211 130.876 110.211C131.354 110.211 131.76 110.32 132.095 110.54C132.439 110.751 132.697 111.019 132.87 111.344C133.109 111.172 133.396 111 133.73 110.827C134.075 110.655 134.438 110.512 134.82 110.397C135.213 110.273 135.59 110.211 135.954 110.211C136.508 110.211 136.963 110.33 137.317 110.569C137.67 110.799 137.929 111.114 138.091 111.516C138.263 111.908 138.349 112.348 138.349 112.836V118H137.216V112.922C137.216 112.597 137.149 112.31 137.015 112.061C136.891 111.803 136.709 111.602 136.47 111.459C136.231 111.315 135.939 111.243 135.595 111.243C135.165 111.243 134.725 111.325 134.275 111.487C133.826 111.65 133.41 111.846 133.027 112.075C133.075 112.219 133.109 112.362 133.128 112.506C133.156 112.64 133.171 112.783 133.171 112.936V118H132.037V112.922C132.037 112.597 131.971 112.31 131.837 112.061C131.712 111.803 131.531 111.602 131.292 111.459C131.062 111.315 130.775 111.243 130.431 111.243C130.115 111.243 129.819 111.277 129.541 111.344C129.274 111.401 129.015 111.487 128.767 111.602C128.528 111.707 128.274 111.836 128.006 111.989V118H126.873ZM141.968 118.086C141.404 118.086 140.94 117.919 140.576 117.584C140.213 117.249 140.031 116.776 140.031 116.164V115.619C140.031 115.016 140.227 114.528 140.619 114.155C141.021 113.782 141.624 113.596 142.427 113.596H145.023V112.649C145.023 112.334 144.966 112.066 144.851 111.846C144.746 111.616 144.55 111.439 144.263 111.315C143.986 111.191 143.579 111.129 143.044 111.129H140.662V110.454C140.997 110.397 141.385 110.344 141.824 110.297C142.274 110.249 142.8 110.225 143.402 110.225C144.024 110.215 144.54 110.292 144.952 110.454C145.363 110.617 145.664 110.875 145.855 111.229C146.056 111.573 146.157 112.028 146.157 112.592V118H145.282L145.066 117.125C145.028 117.163 144.909 117.23 144.708 117.326C144.517 117.421 144.268 117.531 143.962 117.656C143.665 117.77 143.34 117.871 142.986 117.957C142.642 118.043 142.303 118.086 141.968 118.086ZM142.441 117.24C142.613 117.249 142.809 117.23 143.029 117.182C143.249 117.135 143.474 117.082 143.704 117.025C143.933 116.958 144.144 116.891 144.335 116.824C144.536 116.757 144.698 116.699 144.823 116.652C144.947 116.604 145.014 116.58 145.023 116.58V114.17L142.685 114.27C142.14 114.289 141.748 114.423 141.509 114.672C141.279 114.921 141.165 115.241 141.165 115.633V115.977C141.165 116.283 141.227 116.532 141.351 116.723C141.485 116.905 141.648 117.034 141.839 117.111C142.04 117.187 142.24 117.23 142.441 117.24ZM148.293 118V110.34H149.182L149.426 111.186C149.79 110.928 150.215 110.703 150.703 110.512C151.191 110.311 151.698 110.211 152.224 110.211C152.788 110.211 153.242 110.33 153.586 110.569C153.931 110.808 154.184 111.124 154.347 111.516C154.509 111.908 154.591 112.334 154.591 112.793V118H153.457V112.922C153.457 112.597 153.39 112.31 153.257 112.061C153.132 111.803 152.95 111.602 152.711 111.459C152.482 111.315 152.195 111.243 151.851 111.243C151.535 111.243 151.239 111.277 150.961 111.344C150.693 111.401 150.435 111.487 150.187 111.602C149.948 111.707 149.694 111.836 149.426 111.989V118H148.293ZM159.208 118.086C158.577 118.086 158.056 117.952 157.645 117.684C157.243 117.407 156.942 116.986 156.741 116.422C156.55 115.848 156.454 115.117 156.454 114.227C156.454 113.28 156.55 112.515 156.741 111.932C156.932 111.339 157.238 110.909 157.659 110.641C158.08 110.373 158.644 110.239 159.352 110.239C159.782 110.239 160.203 110.287 160.614 110.383C161.025 110.478 161.389 110.583 161.704 110.698V107.055H162.838V118H161.919L161.704 117.225C161.561 117.35 161.346 117.479 161.059 117.613C160.781 117.747 160.475 117.861 160.141 117.957C159.816 118.043 159.505 118.086 159.208 118.086ZM159.538 117.154C159.978 117.154 160.375 117.087 160.729 116.953C161.092 116.809 161.417 116.661 161.704 116.508V111.502C161.36 111.396 161.03 111.31 160.714 111.243C160.399 111.167 160.045 111.129 159.653 111.129C159.165 111.129 158.768 111.219 158.462 111.401C158.156 111.583 157.932 111.898 157.788 112.348C157.654 112.788 157.587 113.4 157.587 114.184C157.587 114.892 157.649 115.466 157.774 115.906C157.908 116.346 158.118 116.666 158.405 116.867C158.692 117.058 159.07 117.154 159.538 117.154ZM171.627 118.086C171.197 118.086 170.795 118.029 170.422 117.914C170.049 117.799 169.724 117.598 169.447 117.311C169.17 117.025 168.954 116.628 168.801 116.121C168.648 115.614 168.572 114.968 168.572 114.184C168.572 113.39 168.644 112.74 168.787 112.233C168.93 111.717 169.136 111.315 169.404 111.028C169.672 110.741 169.997 110.54 170.379 110.426C170.762 110.311 171.187 110.254 171.656 110.254C172.039 110.254 172.455 110.273 172.904 110.311C173.354 110.34 173.784 110.387 174.195 110.454V111.129H171.957C171.47 111.129 171.058 111.21 170.724 111.372C170.389 111.535 170.135 111.841 169.963 112.291C169.791 112.73 169.705 113.371 169.705 114.213C169.705 115.026 169.796 115.647 169.978 116.078C170.159 116.508 170.418 116.805 170.752 116.967C171.087 117.12 171.493 117.197 171.972 117.197H174.31V117.857C174.09 117.895 173.832 117.933 173.535 117.971C173.248 118.01 172.942 118.038 172.617 118.057C172.292 118.077 171.962 118.086 171.627 118.086ZM178.918 118.086C178.363 118.086 177.876 118.029 177.455 117.914C177.044 117.799 176.699 117.598 176.422 117.311C176.145 117.025 175.939 116.628 175.805 116.121C175.671 115.604 175.604 114.949 175.604 114.155C175.604 113.352 175.671 112.697 175.805 112.19C175.939 111.674 176.145 111.277 176.422 110.999C176.699 110.713 177.044 110.517 177.455 110.411C177.876 110.297 178.363 110.239 178.918 110.239C179.473 110.239 179.956 110.297 180.367 110.411C180.788 110.526 181.137 110.727 181.414 111.014C181.692 111.291 181.897 111.688 182.031 112.205C182.174 112.711 182.246 113.362 182.246 114.155C182.246 114.959 182.174 115.619 182.031 116.135C181.897 116.642 181.692 117.039 181.414 117.326C181.146 117.603 180.802 117.799 180.381 117.914C179.961 118.029 179.473 118.086 178.918 118.086ZM178.918 117.154C179.272 117.154 179.583 117.12 179.851 117.053C180.128 116.986 180.357 116.852 180.539 116.652C180.721 116.451 180.859 116.149 180.955 115.748C181.051 115.346 181.099 114.815 181.099 114.155C181.099 113.486 181.051 112.955 180.955 112.563C180.859 112.171 180.721 111.875 180.539 111.674C180.357 111.473 180.128 111.339 179.851 111.272C179.583 111.205 179.272 111.172 178.918 111.172C178.555 111.172 178.239 111.205 177.971 111.272C177.704 111.339 177.479 111.473 177.297 111.674C177.115 111.875 176.977 112.171 176.881 112.563C176.785 112.955 176.738 113.486 176.738 114.155C176.738 114.815 176.785 115.346 176.881 115.748C176.977 116.149 177.115 116.451 177.297 116.652C177.479 116.852 177.704 116.986 177.971 117.053C178.239 117.12 178.555 117.154 178.918 117.154ZM184.156 118V110.34H185.046L185.29 111.186C185.653 110.928 186.079 110.703 186.566 110.512C187.054 110.311 187.561 110.211 188.087 110.211C188.651 110.211 189.105 110.33 189.45 110.569C189.794 110.808 190.047 111.124 190.21 111.516C190.373 111.908 190.454 112.334 190.454 112.793V118H189.321V112.922C189.321 112.597 189.254 112.31 189.12 112.061C188.995 111.803 188.814 111.602 188.575 111.459C188.345 111.315 188.058 111.243 187.714 111.243C187.398 111.243 187.102 111.277 186.824 111.344C186.557 111.401 186.298 111.487 186.05 111.602C185.811 111.707 185.557 111.836 185.29 111.989V118H184.156ZM195.229 118.086C195.038 118.086 194.804 118.081 194.526 118.072C194.249 118.062 193.957 118.048 193.651 118.029C193.355 118.01 193.082 117.99 192.834 117.971C192.595 117.943 192.408 117.914 192.274 117.885V117.197H195.416C195.731 117.197 196.004 117.173 196.233 117.125C196.463 117.077 196.64 116.972 196.764 116.809C196.898 116.647 196.965 116.403 196.965 116.078V115.733C196.965 115.399 196.855 115.141 196.635 114.959C196.415 114.768 196.061 114.672 195.574 114.672H194.498C194.048 114.672 193.646 114.615 193.293 114.5C192.948 114.385 192.681 114.189 192.489 113.912C192.298 113.634 192.202 113.252 192.202 112.764V112.362C192.202 111.884 192.293 111.492 192.475 111.186C192.666 110.88 192.958 110.65 193.35 110.497C193.752 110.344 194.268 110.268 194.899 110.268C195.167 110.268 195.473 110.277 195.817 110.297C196.171 110.316 196.516 110.344 196.85 110.383C197.185 110.411 197.458 110.445 197.668 110.483V111.172H194.713C194.225 111.172 193.847 111.253 193.58 111.416C193.321 111.578 193.192 111.894 193.192 112.362V112.678C193.192 112.974 193.254 113.199 193.379 113.352C193.503 113.496 193.675 113.591 193.895 113.639C194.125 113.687 194.388 113.711 194.684 113.711H195.774C196.473 113.711 197.013 113.873 197.395 114.198C197.778 114.524 197.969 114.992 197.969 115.604V116.135C197.969 116.652 197.85 117.053 197.611 117.34C197.381 117.617 197.061 117.814 196.649 117.928C196.248 118.033 195.774 118.086 195.229 118.086ZM202.043 118.086C201.307 118.086 200.738 117.895 200.336 117.512C199.944 117.13 199.748 116.537 199.748 115.733V110.34H200.881V115.447C200.881 116.087 201.025 116.522 201.312 116.752C201.608 116.972 202.019 117.082 202.545 117.082C202.995 117.082 203.406 117.02 203.779 116.895C204.152 116.762 204.535 116.58 204.927 116.35V110.34H206.06V118H205.171L204.927 117.154C204.535 117.402 204.09 117.622 203.593 117.814C203.105 117.995 202.588 118.086 202.043 118.086ZM210.204 118.014C209.764 118.014 209.396 117.938 209.1 117.785C208.803 117.622 208.578 117.364 208.425 117.01C208.272 116.647 208.196 116.159 208.196 115.547V107.055H209.329V115.404C209.329 115.863 209.372 116.212 209.458 116.451C209.544 116.68 209.669 116.843 209.831 116.938C209.994 117.025 210.185 117.082 210.405 117.111L211.18 117.197V118.014H210.204ZM214.952 118C214.454 118 214.043 117.919 213.718 117.756C213.393 117.594 213.154 117.331 213.001 116.967C212.848 116.604 212.776 116.121 212.786 115.518L212.829 111.272H211.609V110.54L212.843 110.34L213.029 108.202H213.904V110.34H216.114V111.272H213.904V115.518C213.904 115.853 213.938 116.121 214.005 116.322C214.081 116.522 214.177 116.675 214.292 116.781C214.416 116.886 214.545 116.962 214.679 117.01C214.813 117.048 214.942 117.072 215.066 117.082L215.999 117.168V118H214.952ZM217.852 108.977C217.699 108.977 217.623 108.9 217.623 108.747V107.628C217.623 107.475 217.699 107.399 217.852 107.399H218.655C218.732 107.399 218.785 107.423 218.813 107.471C218.851 107.509 218.871 107.561 218.871 107.628V108.747C218.871 108.9 218.799 108.977 218.655 108.977H217.852ZM217.68 118V110.34H218.813V118H217.68ZM221 118V110.34H221.89L222.133 111.186C222.497 110.928 222.922 110.703 223.41 110.512C223.898 110.311 224.405 110.211 224.931 110.211C225.495 110.211 225.949 110.33 226.294 110.569C226.638 110.808 226.891 111.124 227.054 111.516C227.216 111.908 227.298 112.334 227.298 112.793V118H226.164V112.922C226.164 112.597 226.097 112.31 225.964 112.061C225.839 111.803 225.658 111.602 225.418 111.459C225.189 111.315 224.902 111.243 224.558 111.243C224.242 111.243 223.946 111.277 223.668 111.344C223.401 111.401 223.142 111.487 222.894 111.602C222.655 111.707 222.401 111.836 222.133 111.989V118H221ZM231.313 121.515C230.815 121.515 230.376 121.443 229.993 121.299C229.62 121.166 229.324 120.955 229.104 120.668C228.893 120.391 228.788 120.042 228.788 119.621V119.277C228.788 118.837 228.908 118.469 229.147 118.172C229.395 117.876 229.706 117.656 230.079 117.512C230.452 117.359 230.835 117.283 231.227 117.283L231.514 117.742C231.227 117.742 230.959 117.79 230.71 117.885C230.462 117.971 230.256 118.115 230.093 118.316C229.94 118.516 229.864 118.775 229.864 119.09V119.406C229.864 119.865 230.017 120.19 230.323 120.381C230.629 120.582 231.045 120.683 231.571 120.683H233.35C233.924 120.683 234.373 120.573 234.698 120.353C235.033 120.133 235.2 119.788 235.2 119.32V119.033C235.2 118.765 235.148 118.536 235.043 118.344C234.937 118.153 234.76 118.005 234.512 117.9C234.273 117.794 233.933 117.742 233.493 117.742H231.184C230.591 117.742 230.127 117.617 229.792 117.369C229.467 117.111 229.304 116.781 229.304 116.379C229.304 115.996 229.414 115.695 229.634 115.475C229.864 115.255 230.184 115.102 230.596 115.016C230.242 114.873 229.964 114.681 229.764 114.442C229.563 114.194 229.424 113.931 229.347 113.653C229.271 113.366 229.233 113.08 229.233 112.793C229.233 112.2 229.352 111.722 229.591 111.358C229.83 110.995 230.17 110.732 230.61 110.569C231.059 110.407 231.585 110.325 232.188 110.325H236.276V110.971L234.555 111.114C234.679 111.2 234.818 111.315 234.971 111.459C235.124 111.592 235.253 111.788 235.358 112.047C235.473 112.295 235.53 112.64 235.53 113.08C235.53 113.472 235.444 113.845 235.272 114.198C235.11 114.552 234.832 114.844 234.44 115.074C234.048 115.294 233.508 115.404 232.819 115.404H231.6C231.198 115.404 230.878 115.466 230.639 115.59C230.409 115.705 230.294 115.915 230.294 116.221C230.294 116.451 230.38 116.613 230.552 116.709C230.725 116.805 230.906 116.852 231.098 116.852H233.637C234.23 116.852 234.717 116.929 235.1 117.082C235.492 117.235 235.784 117.469 235.975 117.785C236.176 118.091 236.276 118.483 236.276 118.961V119.277C236.276 119.975 236.037 120.52 235.559 120.912C235.09 121.314 234.387 121.515 233.45 121.515H231.313ZM231.844 114.528H232.704C233.192 114.528 233.56 114.457 233.809 114.313C234.067 114.16 234.244 113.964 234.34 113.725C234.435 113.486 234.483 113.228 234.483 112.95C234.483 112.52 234.411 112.181 234.268 111.932C234.134 111.674 233.943 111.492 233.694 111.387C233.445 111.272 233.159 111.215 232.833 111.215H232.016C231.471 111.215 231.04 111.339 230.725 111.588C230.419 111.827 230.266 112.248 230.266 112.85C230.266 113.443 230.404 113.873 230.682 114.141C230.969 114.399 231.356 114.528 231.844 114.528ZM243.057 118.086C242.493 118.086 242.029 117.919 241.666 117.584C241.302 117.249 241.121 116.776 241.121 116.164V115.619C241.121 115.016 241.317 114.528 241.709 114.155C242.111 113.782 242.713 113.596 243.516 113.596H246.113V112.649C246.113 112.334 246.056 112.066 245.941 111.846C245.836 111.616 245.639 111.439 245.353 111.315C245.075 111.191 244.669 111.129 244.133 111.129H241.752V110.454C242.087 110.397 242.474 110.344 242.914 110.297C243.363 110.249 243.889 110.225 244.492 110.225C245.113 110.215 245.63 110.292 246.041 110.454C246.452 110.617 246.754 110.875 246.945 111.229C247.146 111.573 247.246 112.028 247.246 112.592V118H246.371L246.156 117.125C246.118 117.163 245.998 117.23 245.797 117.326C245.606 117.421 245.357 117.531 245.051 117.656C244.755 117.77 244.43 117.871 244.076 117.957C243.732 118.043 243.392 118.086 243.057 118.086ZM243.531 117.24C243.703 117.249 243.899 117.23 244.119 117.182C244.339 117.135 244.564 117.082 244.793 117.025C245.023 116.958 245.233 116.891 245.424 116.824C245.625 116.757 245.788 116.699 245.912 116.652C246.036 116.604 246.103 116.58 246.113 116.58V114.17L243.775 114.27C243.229 114.289 242.837 114.423 242.598 114.672C242.369 114.921 242.254 115.241 242.254 115.633V115.977C242.254 116.283 242.316 116.532 242.44 116.723C242.574 116.905 242.737 117.034 242.928 117.111C243.129 117.187 243.33 117.23 243.531 117.24ZM249.382 118V110.34H250.272L250.516 111.186C250.879 110.928 251.305 110.703 251.792 110.512C252.28 110.311 252.787 110.211 253.313 110.211C253.877 110.211 254.332 110.33 254.676 110.569C255.02 110.808 255.274 111.124 255.436 111.516C255.599 111.908 255.68 112.334 255.68 112.793V118H254.547V112.922C254.547 112.597 254.48 112.31 254.346 112.061C254.222 111.803 254.04 111.602 253.801 111.459C253.571 111.315 253.284 111.243 252.94 111.243C252.625 111.243 252.328 111.277 252.051 111.344C251.783 111.401 251.525 111.487 251.276 111.602C251.037 111.707 250.784 111.836 250.516 111.989V118H249.382ZM260.298 118.086C259.666 118.086 259.145 117.952 258.734 117.684C258.332 117.407 258.031 116.986 257.83 116.422C257.639 115.848 257.543 115.117 257.543 114.227C257.543 113.28 257.639 112.515 257.83 111.932C258.022 111.339 258.328 110.909 258.748 110.641C259.169 110.373 259.733 110.239 260.441 110.239C260.871 110.239 261.292 110.287 261.704 110.383C262.115 110.478 262.478 110.583 262.794 110.698V107.055H263.927V118H263.009L262.794 117.225C262.65 117.35 262.435 117.479 262.148 117.613C261.871 117.747 261.565 117.861 261.23 117.957C260.905 118.043 260.594 118.086 260.298 118.086ZM260.628 117.154C261.068 117.154 261.464 117.087 261.818 116.953C262.182 116.809 262.507 116.661 262.794 116.508V111.502C262.449 111.396 262.12 111.31 261.804 111.243C261.488 111.167 261.134 111.129 260.742 111.129C260.255 111.129 259.858 111.219 259.552 111.401C259.246 111.583 259.021 111.898 258.878 112.348C258.744 112.788 258.677 113.4 258.677 114.184C258.677 114.892 258.739 115.466 258.863 115.906C258.997 116.346 259.207 116.666 259.494 116.867C259.781 117.058 260.159 117.154 260.628 117.154ZM62.9778 139V131.34H63.8672L64.1111 132.186C64.4936 131.918 64.9192 131.689 65.3878 131.497C65.866 131.306 66.3968 131.211 66.9802 131.211C67.4583 131.211 67.8648 131.32 68.1995 131.54C68.5438 131.751 68.802 132.019 68.9741 132.344C69.2132 132.172 69.5001 132 69.8349 131.827C70.1791 131.655 70.5426 131.512 70.9251 131.397C71.3172 131.273 71.695 131.211 72.0584 131.211C72.6131 131.211 73.0673 131.33 73.4212 131.569C73.775 131.799 74.0332 132.114 74.1958 132.516C74.368 132.908 74.454 133.348 74.454 133.836V139H73.3208V133.922C73.3208 133.597 73.2538 133.31 73.1199 133.061C72.9956 132.803 72.8139 132.602 72.5748 132.459C72.3357 132.315 72.044 132.243 71.6997 132.243C71.2694 132.243 70.8295 132.325 70.38 132.487C69.9305 132.65 69.5145 132.846 69.1319 133.075C69.1798 133.219 69.2132 133.362 69.2324 133.506C69.2611 133.64 69.2754 133.783 69.2754 133.936V139H68.1421V133.922C68.1421 133.597 68.0752 133.31 67.9413 133.061C67.817 132.803 67.6353 132.602 67.3962 132.459C67.1666 132.315 66.8797 132.243 66.5354 132.243C66.2198 132.243 65.9234 132.277 65.646 132.344C65.3783 132.401 65.12 132.487 64.8714 132.602C64.6323 132.707 64.3789 132.836 64.1111 132.989V139H62.9778ZM79.5071 139.086C78.7037 139.086 78.0677 138.967 77.5991 138.727C77.1401 138.488 76.8101 138.082 76.6093 137.508C76.4085 136.934 76.3081 136.15 76.3081 135.155C76.3081 134.142 76.4085 133.353 76.6093 132.788C76.8197 132.215 77.1592 131.813 77.6278 131.583C78.0964 131.354 78.7276 131.239 79.5214 131.239C80.2004 131.239 80.7503 131.316 81.1711 131.469C81.6015 131.622 81.9171 131.885 82.1179 132.258C82.3283 132.621 82.4335 133.128 82.4335 133.778C82.4335 134.228 82.3426 134.591 82.1609 134.869C81.9888 135.136 81.7354 135.332 81.4006 135.457C81.0755 135.571 80.6882 135.629 80.2387 135.629H77.4413C77.4509 136.25 77.5178 136.753 77.6422 137.135C77.7665 137.508 77.9912 137.781 78.3164 137.953C78.6511 138.115 79.1389 138.197 79.7796 138.197H82.247V138.885C81.8071 138.943 81.3767 138.99 80.9559 139.029C80.5351 139.067 80.0522 139.086 79.5071 139.086ZM77.427 134.883H80.1526C80.583 134.883 80.8986 134.806 81.0994 134.653C81.3098 134.491 81.415 134.204 81.415 133.793C81.415 133.353 81.348 133.013 81.2141 132.774C81.0898 132.525 80.889 132.353 80.6116 132.258C80.3439 132.153 79.9805 132.1 79.5214 132.1C78.9858 132.1 78.5651 132.181 78.259 132.344C77.953 132.497 77.7378 132.774 77.6135 133.176C77.4892 133.577 77.427 134.147 77.427 134.883ZM84.3416 139V131.34H85.2311L85.4749 132.186C85.8383 131.928 86.2639 131.703 86.7517 131.512C87.2394 131.311 87.7463 131.211 88.2723 131.211C88.8365 131.211 89.2908 131.33 89.6351 131.569C89.9793 131.808 90.2328 132.124 90.3954 132.516C90.5579 132.908 90.6392 133.334 90.6392 133.793V139H89.5059V133.922C89.5059 133.597 89.439 133.31 89.3051 133.061C89.1808 132.803 88.9991 132.602 88.76 132.459C88.5305 132.315 88.2436 132.243 87.8993 132.243C87.5837 132.243 87.2872 132.277 87.0099 132.344C86.7421 132.401 86.4839 132.487 86.2352 132.602C85.9961 132.707 85.7427 132.836 85.4749 132.989V139H84.3416ZM95.3142 139C94.8169 139 94.4057 138.919 94.0805 138.756C93.7554 138.594 93.5163 138.331 93.3633 137.967C93.2102 137.604 93.1385 137.121 93.1481 136.518L93.1911 132.272H91.9718V131.54L93.2055 131.34L93.3919 129.202H94.267V131.34H96.4762V132.272H94.267V136.518C94.267 136.853 94.3005 137.121 94.3674 137.322C94.4439 137.522 94.5396 137.675 94.6543 137.781C94.7787 137.886 94.9078 137.962 95.0417 138.01C95.1755 138.048 95.3047 138.072 95.429 138.082L96.3614 138.168V139H95.3142ZM101.084 139.086C100.529 139.086 100.041 139.029 99.6205 138.914C99.2093 138.799 98.865 138.598 98.5876 138.311C98.3103 138.025 98.1047 137.628 97.9708 137.121C97.8369 136.604 97.77 135.949 97.77 135.155C97.77 134.352 97.8369 133.697 97.9708 133.19C98.1047 132.674 98.3103 132.277 98.5876 131.999C98.865 131.713 99.2093 131.517 99.6205 131.411C100.041 131.297 100.529 131.239 101.084 131.239C101.638 131.239 102.121 131.297 102.533 131.411C102.953 131.526 103.302 131.727 103.58 132.014C103.857 132.291 104.063 132.688 104.197 133.205C104.34 133.711 104.412 134.362 104.412 135.155C104.412 135.959 104.34 136.619 104.197 137.135C104.063 137.642 103.857 138.039 103.58 138.326C103.312 138.603 102.968 138.799 102.547 138.914C102.126 139.029 101.638 139.086 101.084 139.086ZM101.084 138.154C101.438 138.154 101.748 138.12 102.016 138.053C102.293 137.986 102.523 137.852 102.705 137.652C102.886 137.451 103.025 137.149 103.121 136.748C103.216 136.346 103.264 135.815 103.264 135.155C103.264 134.486 103.216 133.955 103.121 133.563C103.025 133.171 102.886 132.875 102.705 132.674C102.523 132.473 102.293 132.339 102.016 132.272C101.748 132.205 101.438 132.172 101.084 132.172C100.72 132.172 100.405 132.205 100.137 132.272C99.8691 132.339 99.6444 132.473 99.4627 132.674C99.281 132.875 99.1423 133.171 99.0467 133.563C98.951 133.955 98.9032 134.486 98.9032 135.155C98.9032 135.815 98.951 136.346 99.0467 136.748C99.1423 137.149 99.281 137.451 99.4627 137.652C99.6444 137.852 99.8691 137.986 100.137 138.053C100.405 138.12 100.72 138.154 101.084 138.154ZM106.322 139V131.34H107.183L107.455 132.674C107.799 132.262 108.182 131.923 108.603 131.655C109.033 131.387 109.526 131.254 110.08 131.254C110.214 131.254 110.339 131.258 110.453 131.268C110.578 131.277 110.692 131.297 110.798 131.325V132.487C110.673 132.468 110.539 132.454 110.396 132.444C110.252 132.425 110.109 132.416 109.966 132.416C109.612 132.416 109.296 132.459 109.019 132.545C108.741 132.631 108.478 132.76 108.23 132.932C107.981 133.104 107.723 133.314 107.455 133.563V139H106.322ZM112.406 129.977C112.253 129.977 112.176 129.9 112.176 129.747V128.628C112.176 128.475 112.253 128.399 112.406 128.399H113.209C113.286 128.399 113.338 128.423 113.367 128.471C113.405 128.509 113.424 128.561 113.424 128.628V129.747C113.424 129.9 113.353 129.977 113.209 129.977H112.406ZM112.234 139V131.34H113.367V139H112.234ZM115.554 139V131.34H116.443L116.687 132.186C117.051 131.928 117.476 131.703 117.964 131.512C118.452 131.311 118.958 131.211 119.484 131.211C120.049 131.211 120.503 131.33 120.847 131.569C121.192 131.808 121.445 132.124 121.608 132.516C121.77 132.908 121.851 133.334 121.851 133.793V139H120.718V133.922C120.718 133.597 120.651 133.31 120.517 133.061C120.393 132.803 120.211 132.602 119.972 132.459C119.743 132.315 119.456 132.243 119.111 132.243C118.796 132.243 118.499 132.277 118.222 132.344C117.954 132.401 117.696 132.487 117.447 132.602C117.208 132.707 116.955 132.836 116.687 132.989V139H115.554ZM125.867 142.515C125.369 142.515 124.929 142.443 124.547 142.299C124.174 142.166 123.877 141.955 123.657 141.668C123.447 141.391 123.342 141.042 123.342 140.621V140.277C123.342 139.837 123.461 139.469 123.7 139.172C123.949 138.876 124.26 138.656 124.633 138.512C125.006 138.359 125.388 138.283 125.78 138.283L126.067 138.742C125.78 138.742 125.513 138.79 125.264 138.885C125.015 138.971 124.81 139.115 124.647 139.316C124.494 139.516 124.418 139.775 124.418 140.09V140.406C124.418 140.865 124.571 141.19 124.877 141.381C125.183 141.582 125.599 141.683 126.125 141.683H127.904C128.477 141.683 128.927 141.573 129.252 141.353C129.587 141.133 129.754 140.788 129.754 140.32V140.033C129.754 139.765 129.702 139.536 129.596 139.344C129.491 139.153 129.314 139.005 129.066 138.9C128.826 138.794 128.487 138.742 128.047 138.742H125.737C125.144 138.742 124.681 138.617 124.346 138.369C124.021 138.111 123.858 137.781 123.858 137.379C123.858 136.996 123.968 136.695 124.188 136.475C124.418 136.255 124.738 136.102 125.149 136.016C124.795 135.873 124.518 135.681 124.317 135.442C124.116 135.194 123.978 134.931 123.901 134.653C123.825 134.366 123.786 134.08 123.786 133.793C123.786 133.2 123.906 132.722 124.145 132.358C124.384 131.995 124.724 131.732 125.164 131.569C125.613 131.407 126.139 131.325 126.742 131.325H130.83V131.971L129.109 132.114C129.233 132.2 129.372 132.315 129.525 132.459C129.678 132.592 129.807 132.788 129.912 133.047C130.027 133.295 130.084 133.64 130.084 134.08C130.084 134.472 129.998 134.845 129.826 135.198C129.663 135.552 129.386 135.844 128.994 136.074C128.602 136.294 128.061 136.404 127.373 136.404H126.153C125.752 136.404 125.431 136.466 125.192 136.59C124.963 136.705 124.848 136.915 124.848 137.221C124.848 137.451 124.934 137.613 125.106 137.709C125.278 137.805 125.46 137.852 125.651 137.852H128.19C128.783 137.852 129.271 137.929 129.654 138.082C130.046 138.235 130.337 138.469 130.529 138.785C130.73 139.091 130.83 139.483 130.83 139.961V140.277C130.83 140.975 130.591 141.52 130.113 141.912C129.644 142.314 128.941 142.515 128.004 142.515H125.867ZM126.397 135.528H127.258C127.746 135.528 128.114 135.457 128.363 135.313C128.621 135.16 128.798 134.964 128.893 134.725C128.989 134.486 129.037 134.228 129.037 133.95C129.037 133.52 128.965 133.181 128.822 132.932C128.688 132.674 128.497 132.492 128.248 132.387C127.999 132.272 127.712 132.215 127.387 132.215H126.569C126.024 132.215 125.594 132.339 125.278 132.588C124.972 132.827 124.819 133.248 124.819 133.85C124.819 134.443 124.958 134.873 125.235 135.141C125.522 135.399 125.91 135.528 126.397 135.528ZM136.535 139V132.272H135.359V131.54L136.535 131.34V130.465C136.535 129.919 136.602 129.465 136.736 129.102C136.87 128.729 137.095 128.447 137.41 128.255C137.726 128.064 138.166 127.968 138.73 127.968C139.065 127.968 139.347 127.988 139.576 128.026C139.815 128.055 140.026 128.083 140.208 128.112V128.915H138.931C138.587 128.915 138.324 128.973 138.142 129.087C137.96 129.193 137.836 129.36 137.769 129.589C137.702 129.809 137.668 130.082 137.668 130.407V131.34H140.05V132.272H137.668V139H136.535ZM144.442 139.086C143.887 139.086 143.399 139.029 142.979 138.914C142.567 138.799 142.223 138.598 141.946 138.311C141.668 138.025 141.463 137.628 141.329 137.121C141.195 136.604 141.128 135.949 141.128 135.155C141.128 134.352 141.195 133.697 141.329 133.19C141.463 132.674 141.668 132.277 141.946 131.999C142.223 131.713 142.567 131.517 142.979 131.411C143.399 131.297 143.887 131.239 144.442 131.239C144.996 131.239 145.479 131.297 145.891 131.411C146.311 131.526 146.661 131.727 146.938 132.014C147.215 132.291 147.421 132.688 147.555 133.205C147.698 133.711 147.77 134.362 147.77 135.155C147.77 135.959 147.698 136.619 147.555 137.135C147.421 137.642 147.215 138.039 146.938 138.326C146.67 138.603 146.326 138.799 145.905 138.914C145.484 139.029 144.996 139.086 144.442 139.086ZM144.442 138.154C144.796 138.154 145.106 138.12 145.374 138.053C145.652 137.986 145.881 137.852 146.063 137.652C146.245 137.451 146.383 137.149 146.479 136.748C146.574 136.346 146.622 135.815 146.622 135.155C146.622 134.486 146.574 133.955 146.479 133.563C146.383 133.171 146.245 132.875 146.063 132.674C145.881 132.473 145.652 132.339 145.374 132.272C145.106 132.205 144.796 132.172 144.442 132.172C144.078 132.172 143.763 132.205 143.495 132.272C143.227 132.339 143.002 132.473 142.821 132.674C142.639 132.875 142.5 133.171 142.405 133.563C142.309 133.955 142.261 134.486 142.261 135.155C142.261 135.815 142.309 136.346 142.405 136.748C142.5 137.149 142.639 137.451 142.821 137.652C143.002 137.852 143.227 137.986 143.495 138.053C143.763 138.12 144.078 138.154 144.442 138.154ZM149.68 139V131.34H150.541L150.813 132.674C151.158 132.262 151.54 131.923 151.961 131.655C152.391 131.387 152.884 131.254 153.438 131.254C153.572 131.254 153.697 131.258 153.811 131.268C153.936 131.277 154.05 131.297 154.156 131.325V132.487C154.031 132.468 153.897 132.454 153.754 132.444C153.611 132.425 153.467 132.416 153.324 132.416C152.97 132.416 152.654 132.459 152.377 132.545C152.1 132.631 151.837 132.76 151.588 132.932C151.339 133.104 151.081 133.314 150.813 133.563V139H149.68ZM159.458 139V131.34H160.348L160.592 132.186C160.955 131.928 161.381 131.703 161.868 131.512C162.356 131.311 162.863 131.211 163.389 131.211C163.953 131.211 164.407 131.33 164.752 131.569C165.096 131.808 165.349 132.124 165.512 132.516C165.675 132.908 165.756 133.334 165.756 133.793V139H164.623V133.922C164.623 133.597 164.556 133.31 164.422 133.061C164.297 132.803 164.116 132.602 163.877 132.459C163.647 132.315 163.36 132.243 163.016 132.243C162.7 132.243 162.404 132.277 162.126 132.344C161.859 132.401 161.6 132.487 161.352 132.602C161.113 132.707 160.859 132.836 160.592 132.989V139H159.458ZM168.064 129.977C167.911 129.977 167.834 129.9 167.834 129.747V128.628C167.834 128.475 167.911 128.399 168.064 128.399H168.867C168.944 128.399 168.996 128.423 169.025 128.471C169.063 128.509 169.082 128.561 169.082 128.628V129.747C169.082 129.9 169.011 129.977 168.867 129.977H168.064ZM167.892 139V131.34H169.025V139H167.892ZM173.995 139.086C173.565 139.086 173.163 139.029 172.79 138.914C172.417 138.799 172.092 138.598 171.814 138.311C171.537 138.025 171.322 137.628 171.169 137.121C171.016 136.614 170.939 135.968 170.939 135.184C170.939 134.39 171.011 133.74 171.154 133.233C171.298 132.717 171.504 132.315 171.771 132.028C172.039 131.741 172.364 131.54 172.747 131.426C173.129 131.311 173.555 131.254 174.024 131.254C174.406 131.254 174.822 131.273 175.272 131.311C175.721 131.34 176.151 131.387 176.563 131.454V132.129H174.325C173.837 132.129 173.426 132.21 173.091 132.372C172.756 132.535 172.503 132.841 172.331 133.291C172.159 133.73 172.073 134.371 172.073 135.213C172.073 136.026 172.163 136.647 172.345 137.078C172.527 137.508 172.785 137.805 173.12 137.967C173.455 138.12 173.861 138.197 174.339 138.197H176.677V138.857C176.457 138.895 176.199 138.933 175.903 138.971C175.616 139.01 175.31 139.038 174.985 139.057C174.66 139.077 174.33 139.086 173.995 139.086ZM178.244 139V128.055H179.378V132.186C179.732 131.928 180.152 131.703 180.64 131.512C181.137 131.311 181.654 131.211 182.189 131.211C182.725 131.211 183.165 131.325 183.509 131.555C183.863 131.784 184.121 132.095 184.284 132.487C184.456 132.879 184.542 133.314 184.542 133.793V139H183.409V133.907C183.409 133.582 183.342 133.295 183.208 133.047C183.084 132.798 182.902 132.602 182.663 132.459C182.424 132.315 182.137 132.243 181.802 132.243C181.486 132.243 181.195 132.277 180.927 132.344C180.659 132.401 180.401 132.487 180.152 132.602C179.904 132.707 179.645 132.836 179.378 132.989V139H178.244ZM189.604 139.086C188.801 139.086 188.165 138.967 187.696 138.727C187.237 138.488 186.907 138.082 186.707 137.508C186.506 136.934 186.405 136.15 186.405 135.155C186.405 134.142 186.506 133.353 186.707 132.788C186.917 132.215 187.256 131.813 187.725 131.583C188.194 131.354 188.825 131.239 189.619 131.239C190.298 131.239 190.848 131.316 191.268 131.469C191.699 131.622 192.014 131.885 192.215 132.258C192.426 132.621 192.531 133.128 192.531 133.778C192.531 134.228 192.44 134.591 192.258 134.869C192.086 135.136 191.833 135.332 191.498 135.457C191.173 135.571 190.785 135.629 190.336 135.629H187.539C187.548 136.25 187.615 136.753 187.739 137.135C187.864 137.508 188.089 137.781 188.414 137.953C188.748 138.115 189.236 138.197 189.877 138.197H192.344V138.885C191.904 138.943 191.474 138.99 191.053 139.029C190.632 139.067 190.149 139.086 189.604 139.086ZM187.524 134.883H190.25C190.68 134.883 190.996 134.806 191.197 134.653C191.407 134.491 191.512 134.204 191.512 133.793C191.512 133.353 191.445 133.013 191.311 132.774C191.187 132.525 190.986 132.353 190.709 132.258C190.441 132.153 190.078 132.1 189.619 132.1C189.083 132.1 188.662 132.181 188.356 132.344C188.05 132.497 187.835 132.774 187.711 133.176C187.586 133.577 187.524 134.147 187.524 134.883ZM198.305 139V131.34H199.166L199.439 132.674C199.783 132.262 200.166 131.923 200.586 131.655C201.017 131.387 201.509 131.254 202.064 131.254C202.198 131.254 202.322 131.258 202.437 131.268C202.561 131.277 202.676 131.297 202.781 131.325V132.487C202.657 132.468 202.523 132.454 202.379 132.444C202.236 132.425 202.093 132.416 201.949 132.416C201.595 132.416 201.28 132.459 201.002 132.545C200.725 132.631 200.462 132.76 200.213 132.932C199.965 133.104 199.706 133.314 199.439 133.563V139H198.305ZM207.144 139.086C206.34 139.086 205.704 138.967 205.236 138.727C204.777 138.488 204.447 138.082 204.246 137.508C204.045 136.934 203.945 136.15 203.945 135.155C203.945 134.142 204.045 133.353 204.246 132.788C204.456 132.215 204.796 131.813 205.264 131.583C205.733 131.354 206.364 131.239 207.158 131.239C207.837 131.239 208.387 131.316 208.808 131.469C209.238 131.622 209.554 131.885 209.755 132.258C209.965 132.621 210.07 133.128 210.07 133.778C210.07 134.228 209.979 134.591 209.798 134.869C209.625 135.136 209.372 135.332 209.037 135.457C208.712 135.571 208.325 135.629 207.875 135.629H205.078C205.088 136.25 205.154 136.753 205.279 137.135C205.403 137.508 205.628 137.781 205.953 137.953C206.288 138.115 206.775 138.197 207.416 138.197H209.884V138.885C209.444 138.943 209.013 138.99 208.593 139.029C208.172 139.067 207.689 139.086 207.144 139.086ZM205.064 134.883H207.789C208.22 134.883 208.535 134.806 208.736 134.653C208.946 134.491 209.052 134.204 209.052 133.793C209.052 133.353 208.985 133.013 208.851 132.774C208.726 132.525 208.526 132.353 208.248 132.258C207.98 132.153 207.617 132.1 207.158 132.1C206.622 132.1 206.202 132.181 205.896 132.344C205.59 132.497 205.374 132.774 205.25 133.176C205.126 133.577 205.064 134.147 205.064 134.883ZM216.956 142.4V138.225C216.593 138.474 216.186 138.68 215.737 138.842C215.287 139.005 214.852 139.086 214.431 139.086C213.762 139.086 213.226 138.943 212.825 138.656C212.423 138.359 212.136 137.919 211.964 137.336C211.792 136.753 211.706 136.026 211.706 135.155C211.706 134.276 211.806 133.544 212.007 132.961C212.208 132.377 212.519 131.947 212.939 131.67C213.37 131.383 213.915 131.239 214.575 131.239C215.034 131.239 215.479 131.249 215.909 131.268C216.339 131.287 216.741 131.316 217.114 131.354C217.487 131.383 217.812 131.411 218.089 131.44V142.4H216.956ZM214.704 138.154C215.096 138.154 215.479 138.096 215.852 137.981C216.234 137.867 216.602 137.709 216.956 137.508V132.129H214.833C214.326 132.129 213.929 132.253 213.642 132.502C213.355 132.75 213.15 133.099 213.025 133.549C212.901 133.998 212.839 134.524 212.839 135.127C212.839 135.844 212.901 136.427 213.025 136.877C213.159 137.317 213.36 137.642 213.628 137.852C213.896 138.053 214.254 138.154 214.704 138.154ZM222.511 139.086C221.774 139.086 221.205 138.895 220.803 138.512C220.411 138.13 220.215 137.537 220.215 136.733V131.34H221.349V136.447C221.349 137.087 221.492 137.522 221.779 137.752C222.075 137.972 222.487 138.082 223.013 138.082C223.462 138.082 223.873 138.02 224.246 137.895C224.619 137.762 225.002 137.58 225.394 137.35V131.34H226.527V139H225.638L225.394 138.154C225.002 138.402 224.557 138.622 224.06 138.814C223.572 138.995 223.056 139.086 222.511 139.086ZM228.835 129.977C228.682 129.977 228.606 129.9 228.606 129.747V128.628C228.606 128.475 228.682 128.399 228.835 128.399H229.639C229.715 128.399 229.768 128.423 229.796 128.471C229.835 128.509 229.854 128.561 229.854 128.628V129.747C229.854 129.9 229.782 129.977 229.639 129.977H228.835ZM228.663 139V131.34H229.796V139H228.663ZM231.983 139V131.34H232.844L233.116 132.674C233.461 132.262 233.843 131.923 234.264 131.655C234.694 131.387 235.187 131.254 235.742 131.254C235.876 131.254 236 131.258 236.115 131.268C236.239 131.277 236.354 131.297 236.459 131.325V132.487C236.335 132.468 236.201 132.454 236.057 132.444C235.914 132.425 235.77 132.416 235.627 132.416C235.273 132.416 234.957 132.459 234.68 132.545C234.403 132.631 234.14 132.76 233.891 132.932C233.642 133.104 233.384 133.314 233.116 133.563V139H231.983ZM240.821 139.086C240.018 139.086 239.382 138.967 238.914 138.727C238.455 138.488 238.125 138.082 237.924 137.508C237.723 136.934 237.622 136.15 237.622 135.155C237.622 134.142 237.723 133.353 237.924 132.788C238.134 132.215 238.474 131.813 238.942 131.583C239.411 131.354 240.042 131.239 240.836 131.239C241.515 131.239 242.065 131.316 242.486 131.469C242.916 131.622 243.231 131.885 243.432 132.258C243.643 132.621 243.748 133.128 243.748 133.778C243.748 134.228 243.657 134.591 243.475 134.869C243.303 135.136 243.05 135.332 242.715 135.457C242.39 135.571 242.003 135.629 241.553 135.629H238.756C238.765 136.25 238.832 136.753 238.957 137.135C239.081 137.508 239.306 137.781 239.631 137.953C239.966 138.115 240.453 138.197 241.094 138.197H243.561V138.885C243.122 138.943 242.691 138.99 242.27 139.029C241.85 139.067 241.367 139.086 240.821 139.086ZM238.741 134.883H241.467C241.897 134.883 242.213 134.806 242.414 134.653C242.624 134.491 242.729 134.204 242.729 133.793C242.729 133.353 242.662 133.013 242.529 132.774C242.404 132.525 242.203 132.353 241.926 132.258C241.658 132.153 241.295 132.1 240.836 132.1C240.3 132.1 239.879 132.181 239.573 132.344C239.267 132.497 239.052 132.774 238.928 133.176C238.804 133.577 238.741 134.147 238.741 134.883ZM245.656 139V131.34H246.545L246.789 132.186C247.172 131.918 247.597 131.689 248.066 131.497C248.544 131.306 249.075 131.211 249.658 131.211C250.137 131.211 250.543 131.32 250.878 131.54C251.222 131.751 251.48 132.019 251.652 132.344C251.891 132.172 252.178 132 252.513 131.827C252.857 131.655 253.221 131.512 253.603 131.397C253.995 131.273 254.373 131.211 254.737 131.211C255.291 131.211 255.746 131.33 256.099 131.569C256.453 131.799 256.712 132.114 256.874 132.516C257.046 132.908 257.132 133.348 257.132 133.836V139H255.999V133.922C255.999 133.597 255.932 133.31 255.798 133.061C255.674 132.803 255.492 132.602 255.253 132.459C255.014 132.315 254.722 132.243 254.378 132.243C253.948 132.243 253.508 132.325 253.058 132.487C252.609 132.65 252.193 132.846 251.81 133.075C251.858 133.219 251.891 133.362 251.911 133.506C251.939 133.64 251.954 133.783 251.954 133.936V139H250.82V133.922C250.82 133.597 250.753 133.31 250.62 133.061C250.495 132.803 250.314 132.602 250.074 132.459C249.845 132.315 249.558 132.243 249.214 132.243C248.898 132.243 248.602 132.277 248.324 132.344C248.057 132.401 247.798 132.487 247.55 132.602C247.311 132.707 247.057 132.836 246.789 132.989V139H245.656ZM262.185 139.086C261.382 139.086 260.746 138.967 260.277 138.727C259.818 138.488 259.488 138.082 259.288 137.508C259.087 136.934 258.986 136.15 258.986 135.155C258.986 134.142 259.087 133.353 259.288 132.788C259.498 132.215 259.837 131.813 260.306 131.583C260.775 131.354 261.406 131.239 262.2 131.239C262.879 131.239 263.429 131.316 263.849 131.469C264.28 131.622 264.595 131.885 264.796 132.258C265.007 132.621 265.112 133.128 265.112 133.778C265.112 134.228 265.021 134.591 264.839 134.869C264.667 135.136 264.414 135.332 264.079 135.457C263.754 135.571 263.366 135.629 262.917 135.629H260.12C260.129 136.25 260.196 136.753 260.32 137.135C260.445 137.508 260.67 137.781 260.995 137.953C261.329 138.115 261.817 138.197 262.458 138.197H264.925V138.885C264.485 138.943 264.055 138.99 263.634 139.029C263.213 139.067 262.73 139.086 262.185 139.086ZM260.105 134.883H262.831C263.261 134.883 263.577 134.806 263.778 134.653C263.988 134.491 264.093 134.204 264.093 133.793C264.093 133.353 264.026 133.013 263.892 132.774C263.768 132.525 263.567 132.353 263.29 132.258C263.022 132.153 262.659 132.1 262.2 132.1C261.664 132.1 261.243 132.181 260.937 132.344C260.631 132.497 260.416 132.774 260.292 133.176C260.167 133.577 260.105 134.147 260.105 134.883ZM267.02 139V131.34H267.909L268.153 132.186C268.517 131.928 268.942 131.703 269.43 131.512C269.918 131.311 270.425 131.211 270.951 131.211C271.515 131.211 271.969 131.33 272.313 131.569C272.658 131.808 272.911 132.124 273.074 132.516C273.236 132.908 273.317 133.334 273.317 133.793V139H272.184V133.922C272.184 133.597 272.117 133.31 271.983 133.061C271.859 132.803 271.677 132.602 271.438 132.459C271.209 132.315 270.922 132.243 270.578 132.243C270.262 132.243 269.965 132.277 269.688 132.344C269.42 132.401 269.162 132.487 268.913 132.602C268.674 132.707 268.421 132.836 268.153 132.989V139H267.02ZM277.992 139C277.495 139 277.084 138.919 276.759 138.756C276.434 138.594 276.195 138.331 276.042 137.967C275.888 137.604 275.817 137.121 275.826 136.518L275.869 132.272H274.65V131.54L275.884 131.34L276.07 129.202H276.945V131.34H279.154V132.272H276.945V136.518C276.945 136.853 276.979 137.121 277.046 137.322C277.122 137.522 277.218 137.675 277.333 137.781C277.457 137.886 277.586 137.962 277.72 138.01C277.854 138.048 277.983 138.072 278.107 138.082L279.04 138.168V139H277.992ZM283.36 139.086C283.169 139.086 282.935 139.081 282.657 139.072C282.38 139.062 282.088 139.048 281.782 139.029C281.486 139.01 281.213 138.99 280.965 138.971C280.726 138.943 280.539 138.914 280.405 138.885V138.197H283.547C283.862 138.197 284.135 138.173 284.364 138.125C284.594 138.077 284.771 137.972 284.895 137.809C285.029 137.647 285.096 137.403 285.096 137.078V136.733C285.096 136.399 284.986 136.141 284.766 135.959C284.546 135.768 284.192 135.672 283.705 135.672H282.629C282.179 135.672 281.778 135.615 281.424 135.5C281.079 135.385 280.812 135.189 280.62 134.912C280.429 134.634 280.333 134.252 280.333 133.764V133.362C280.333 132.884 280.424 132.492 280.606 132.186C280.797 131.88 281.089 131.65 281.481 131.497C281.883 131.344 282.399 131.268 283.03 131.268C283.298 131.268 283.604 131.277 283.948 131.297C284.302 131.316 284.647 131.344 284.981 131.383C285.316 131.411 285.589 131.445 285.799 131.483V132.172H282.844C282.356 132.172 281.978 132.253 281.711 132.416C281.452 132.578 281.323 132.894 281.323 133.362V133.678C281.323 133.974 281.385 134.199 281.51 134.352C281.634 134.496 281.806 134.591 282.026 134.639C282.256 134.687 282.519 134.711 282.815 134.711H283.905C284.604 134.711 285.144 134.873 285.526 135.198C285.909 135.524 286.1 135.992 286.1 136.604V137.135C286.1 137.652 285.981 138.053 285.742 138.34C285.512 138.617 285.192 138.814 284.78 138.928C284.379 139.033 283.905 139.086 283.36 139.086ZM287.922 139.014C287.769 139.014 287.693 138.938 287.693 138.785V137.637C287.693 137.484 287.769 137.408 287.922 137.408H288.553C288.706 137.408 288.783 137.484 288.783 137.637V138.785C288.783 138.861 288.759 138.919 288.711 138.957C288.673 138.995 288.62 139.014 288.553 139.014H287.922Z" fill="#5B5B5B"/>
<line x1="70" y1="92.6414" x2="281" y2="92.6578" stroke="#D0D0D0" stroke-width="0.717264"/>
</g>
<defs>
<filter id="filter0_d_931_1215" x="0.299999" y="0.299999" width="350.509" height="211.726" filterUnits="userSpaceOnUse" color-interpolation-filters="sRGB">
<feFlood flood-opacity="0" result="BackgroundImageFix"/>
<feColorMatrix in="SourceAlpha" type="matrix" values="0 0 0 0 0 0 0 0 0 0 0 0 0 0 0 0 0 0 127 0" result="hardAlpha"/>
<feOffset dy="4"/>
<feGaussianBlur stdDeviation="9.35"/>
<feComposite in2="hardAlpha" operator="out"/>
<feColorMatrix type="matrix" values="0 0 0 0 0 0 0 0 0 0 0 0 0 0 0 0 0 0 0.25 0"/>
<feBlend mode="normal" in2="BackgroundImageFix" result="effect1_dropShadow_931_1215"/>
<feBlend mode="normal" in="SourceGraphic" in2="effect1_dropShadow_931_1215" result="shape"/>
</filter>
<linearGradient id="paint0_linear_931_1215" x1="19" y1="15" x2="332.109" y2="189.326" gradientUnits="userSpaceOnUse">
<stop stop-color="#CB397A"/>
<stop offset="1" stop-color="#3A3895"/>
</linearGradient>
</defs>
</svg>
