<svg width="319" height="177" viewBox="0 0 319 177" fill="none" xmlns="http://www.w3.org/2000/svg">
<g clip-path="url(#clip0_1499_9389)">
<rect x="0.40625" width="317.726" height="176.64" rx="16.0743" fill="white"/>
<rect x="0.40625" width="317.726" height="176.64" rx="16.0743" fill="url(#paint0_linear_1499_9389)"/>
<path d="M65.0532 68.9663V47.8743H73.9461C74.6301 47.8743 75.3236 47.9598 76.0267 48.1308C76.7488 48.2828 77.4043 48.6059 77.9934 49.0999C78.6014 49.575 79.086 50.297 79.4471 51.2661C79.8271 52.2352 80.0171 53.5178 80.0171 55.114C80.0171 56.7101 79.8271 58.0022 79.4471 58.9903C79.086 59.9785 78.611 60.729 78.0219 61.2421C77.4328 61.7551 76.7963 62.0971 76.1123 62.2682C75.4282 62.4392 74.7632 62.5247 74.1171 62.5247C73.775 62.5247 73.376 62.5152 72.92 62.4962C72.4639 62.4582 71.9984 62.4107 71.5233 62.3537C71.0673 62.2967 70.6397 62.2491 70.2407 62.2111C69.8417 62.1541 69.5187 62.1066 69.2716 62.0686V68.9663H65.0532ZM69.2716 58.7338H73.4615C73.9555 58.7338 74.3736 58.6198 74.7156 58.3918C75.0767 58.1447 75.3427 57.7647 75.5137 57.2517C75.6847 56.7196 75.7702 56.0166 75.7702 55.1425C75.7702 54.2874 75.6752 53.6128 75.4852 53.1188C75.3142 52.6058 75.0577 52.2352 74.7156 52.0072C74.3926 51.7792 74.0031 51.6652 73.547 51.6652H69.2716V58.7338ZM85.8058 69.1373C84.6468 69.1373 83.7062 68.7953 82.984 68.1112C82.262 67.4271 81.9009 66.4771 81.9009 65.2609V63.8928C81.9009 62.7337 82.3095 61.7836 83.1266 61.0425C83.9437 60.2824 85.2168 59.9024 86.9463 59.9024H90.8512V58.8478C90.8512 58.3728 90.7657 57.9833 90.5947 57.6792C90.4236 57.3562 90.0999 57.1282 89.6256 56.9952C89.1695 56.8432 88.4661 56.7671 87.5164 56.7671H82.927V54.3159C83.6681 54.0879 84.5232 53.8884 85.4923 53.7174C86.4804 53.5463 87.668 53.4608 89.0555 53.4608C90.328 53.4608 91.4111 53.6128 92.3048 53.9169C93.2169 54.2209 93.901 54.7434 94.357 55.4845C94.8314 56.2256 95.0696 57.2517 95.0696 58.5628V68.9663H91.7348L91.0507 67.3416C90.9174 67.4936 90.6893 67.6646 90.3666 67.8547C90.0429 68.0447 89.6439 68.2442 89.1695 68.4532C88.7135 68.6433 88.1903 68.8047 87.6019 68.9378C87.0318 69.0708 86.4329 69.1373 85.8058 69.1373ZM87.9439 66.2015C88.1332 66.2015 88.3429 66.1825 88.571 66.1445C88.8173 66.0875 89.0647 66.0305 89.312 65.9735C89.5777 65.8975 89.8149 65.831 90.0246 65.774C90.2526 65.6979 90.4328 65.6315 90.5662 65.5745C90.7178 65.5175 90.8125 65.4795 90.8512 65.4604V61.8976L88.2859 62.0686C87.5449 62.1256 86.9931 62.3157 86.6324 62.6387C86.2903 62.9617 86.1193 63.3988 86.1193 63.9498V64.5769C86.1193 64.9569 86.1954 65.2704 86.3474 65.5175C86.5184 65.7645 86.7366 65.945 87.0033 66.059C87.2884 66.154 87.6019 66.2015 87.9439 66.2015ZM98.2273 68.9663V53.6603H101.477L102.446 55.9976C102.996 55.2945 103.614 54.6959 104.298 54.2019C105.002 53.7079 105.828 53.4608 106.778 53.4608C106.987 53.4608 107.196 53.4703 107.405 53.4893C107.633 53.5084 107.842 53.5463 108.032 53.6033V57.9357C107.747 57.8978 107.443 57.8693 107.12 57.8502C106.816 57.8123 106.522 57.7932 106.237 57.7932C105.686 57.7932 105.182 57.8597 104.726 57.9928C104.289 58.1068 103.88 58.2872 103.5 58.5343C103.139 58.7623 102.788 59.0664 102.446 59.4464V68.9663H98.2273ZM116.372 68.9663C115.194 68.9663 114.235 68.7953 113.493 68.4532C112.772 68.1112 112.25 67.5411 111.926 66.7431C111.603 65.945 111.461 64.8714 111.498 63.5223L111.641 57.0522H109.247V54.3444L111.783 53.6603L112.353 49.385H115.688V53.6603H119.28V57.0522H115.688V63.4938C115.688 63.9118 115.727 64.2539 115.802 64.5199C115.879 64.7859 115.983 65.0044 116.116 65.1754C116.268 65.3274 116.439 65.4414 116.629 65.5175C116.819 65.5935 117.01 65.6409 117.199 65.66L119.137 65.831V68.9663H116.372ZM121.636 68.9663V53.6603H125.113L125.854 55.228C126.425 54.7529 127.137 54.3349 127.992 53.9739C128.867 53.5939 129.759 53.4038 130.671 53.4038C131.926 53.4038 132.895 53.6509 133.579 54.1449C134.263 54.6389 134.738 55.304 135.004 56.1401C135.289 56.9572 135.431 57.8693 135.431 58.8763V68.9663H131.213V59.4179C131.213 58.9239 131.118 58.5153 130.928 58.1923C130.757 57.8693 130.511 57.6222 130.187 57.4512C129.864 57.2802 129.474 57.1947 129.018 57.1947C128.619 57.1947 128.23 57.2422 127.85 57.3372C127.489 57.4322 127.137 57.5652 126.795 57.7362C126.472 57.9072 126.159 58.1068 125.854 58.3348V68.9663H121.636ZM145.03 69.1088C143.338 69.1088 141.989 68.8902 140.982 68.4532C139.975 67.9972 139.244 67.1991 138.788 66.059C138.35 64.9189 138.132 63.3418 138.132 61.3276C138.132 59.2563 138.341 57.6507 138.759 56.5106C139.176 55.3705 139.88 54.5724 140.868 54.1164C141.856 53.6604 143.195 53.4323 144.887 53.4323C146.407 53.4323 147.623 53.5843 148.535 53.8884C149.448 54.1924 150.103 54.7244 150.502 55.4845C150.92 56.2446 151.129 57.3182 151.129 58.7053C151.129 59.7314 150.92 60.5485 150.502 61.1566C150.103 61.7456 149.533 62.1732 148.792 62.4392C148.051 62.6862 147.177 62.8097 146.17 62.8097H142.322C142.36 63.5887 142.474 64.2158 142.664 64.6909C142.873 65.1469 143.243 65.4795 143.776 65.6885C144.326 65.8785 145.115 65.9735 146.141 65.9735H150.616V68.4532C149.875 68.6052 149.058 68.7573 148.165 68.9093C147.291 69.0423 146.245 69.1088 145.03 69.1088ZM142.265 60.3015H145.742C146.312 60.3015 146.73 60.1875 146.996 59.9594C147.262 59.7314 147.395 59.3229 147.395 58.7338C147.395 58.1828 147.31 57.7457 147.139 57.4227C146.968 57.0807 146.701 56.8432 146.341 56.7101C145.979 56.5582 145.495 56.4821 144.887 56.4821C144.241 56.4821 143.728 56.5961 143.348 56.8241C142.967 57.0331 142.692 57.4132 142.521 57.9643C142.35 58.5153 142.265 59.2944 142.265 60.3015ZM153.897 68.9663V53.6603H157.146L158.115 55.9976C158.666 55.2945 159.284 54.6959 159.968 54.2019C160.67 53.7079 161.497 53.4608 162.448 53.4608C162.657 53.4608 162.865 53.4703 163.075 53.4893C163.303 53.5084 163.512 53.5463 163.702 53.6033V57.9357C163.417 57.8978 163.113 57.8693 162.79 57.8502C162.485 57.8123 162.191 57.7932 161.906 57.7932C161.355 57.7932 160.852 57.8597 160.396 57.9928C159.958 58.1068 159.55 58.2872 159.17 58.5343C158.809 58.7623 158.457 59.0664 158.115 59.4464V68.9663H153.897ZM172.927 68.9663L175.378 47.8743H179.425L184.271 64.0353L189.088 47.8743H193.107L195.586 68.9663H191.51L189.686 53.4323L190.342 53.4893L186.209 68.9663H182.247L178.057 53.4893L178.77 53.4608L177.003 68.9663H172.927ZM204.738 69.1088C203.484 69.1088 202.41 68.9853 201.517 68.7383C200.623 68.4723 199.892 68.0352 199.322 67.4271C198.77 66.8191 198.362 66.0115 198.096 65.0044C197.849 63.9973 197.726 62.7527 197.726 61.2706C197.726 59.7124 197.849 58.4298 198.096 57.4227C198.362 56.3966 198.77 55.5985 199.322 55.0285C199.892 54.4394 200.623 54.0309 201.517 53.8029C202.429 53.5558 203.502 53.4323 204.738 53.4323C206.01 53.4323 207.093 53.5558 207.987 53.8029C208.88 54.0499 209.601 54.4679 210.153 55.057C210.723 55.627 211.131 56.4251 211.379 57.4512C211.644 58.4583 211.778 59.7314 211.778 61.2706C211.778 62.7907 211.654 64.0638 211.407 65.0899C211.16 66.097 210.761 66.895 210.21 67.4841C209.658 68.0732 208.928 68.4912 208.015 68.7383C207.122 68.9853 206.029 69.1088 204.738 69.1088ZM204.738 65.7455C205.251 65.7455 205.678 65.6979 206.02 65.603C206.381 65.508 206.666 65.3179 206.875 65.0329C207.103 64.7288 207.274 64.2728 207.388 63.6648C207.502 63.0568 207.559 62.2587 207.559 61.2706C207.559 60.2635 207.502 59.4654 207.388 58.8763C207.274 58.2683 207.103 57.8217 206.875 57.5367C206.666 57.2327 206.381 57.0331 206.02 56.9382C205.678 56.8432 205.251 56.7956 204.738 56.7956C204.243 56.7956 203.815 56.8432 203.455 56.9382C203.113 57.0331 202.828 57.2327 202.6 57.5367C202.372 57.8217 202.201 58.2683 202.087 58.8763C201.991 59.4654 201.944 60.2635 201.944 61.2706C201.944 62.2587 201.991 63.0568 202.087 63.6648C202.201 64.2728 202.372 64.7288 202.6 65.0329C202.828 65.3179 203.113 65.508 203.455 65.603C203.815 65.6979 204.243 65.7455 204.738 65.7455ZM219.593 69.1373C218.395 69.1373 217.389 68.8902 216.571 68.3962C215.754 67.8832 215.137 67.0661 214.719 65.945C214.32 64.8049 214.12 63.3133 214.12 61.4701C214.12 59.5699 214.291 58.0307 214.633 56.8526C214.994 55.6746 215.593 54.8099 216.429 54.2589C217.265 53.7079 218.415 53.4323 219.878 53.4323C220.581 53.4323 221.274 53.5084 221.958 53.6603C222.642 53.7934 223.25 53.9548 223.782 54.1449V47.2188H228.029V68.9663H224.467L223.782 67.5126C223.46 67.8167 223.061 68.0922 222.585 68.3392C222.129 68.5863 221.645 68.7858 221.132 68.9378C220.619 69.0708 220.106 69.1373 219.593 69.1373ZM221.075 65.7455C221.645 65.7455 222.158 65.6505 222.614 65.4604C223.089 65.2704 223.478 65.0805 223.782 64.8904V57.1947C223.403 57.0616 223.004 56.9287 222.585 56.7956C222.167 56.6626 221.721 56.5961 221.246 56.5961C220.542 56.5961 219.972 56.7196 219.536 56.9667C219.117 57.2137 218.814 57.6792 218.624 58.3633C218.433 59.0283 218.338 59.9974 218.338 61.2706C218.338 62.4486 218.424 63.3703 218.595 64.0353C218.785 64.6814 219.08 65.1279 219.479 65.3749C219.878 65.622 220.41 65.7455 221.075 65.7455ZM237.635 69.1088C235.944 69.1088 234.595 68.8902 233.587 68.4532C232.581 67.9972 231.849 67.1991 231.393 66.059C230.956 64.9189 230.737 63.3418 230.737 61.3276C230.737 59.2563 230.947 57.6507 231.364 56.5106C231.783 55.3705 232.486 54.5724 233.473 54.1164C234.462 53.6604 235.801 53.4323 237.492 53.4323C239.013 53.4323 240.229 53.5843 241.141 53.8884C242.053 54.1924 242.708 54.7244 243.107 55.4845C243.526 56.2446 243.734 57.3182 243.734 58.7053C243.734 59.7314 243.526 60.5485 243.107 61.1566C242.708 61.7456 242.138 62.1732 241.397 62.4392C240.656 62.6862 239.783 62.8097 238.775 62.8097H234.927C234.966 63.5887 235.08 64.2158 235.269 64.6909C235.479 65.1469 235.849 65.4795 236.381 65.6885C236.932 65.8785 237.72 65.9735 238.746 65.9735H243.221V68.4532C242.48 68.6052 241.664 68.7573 240.77 68.9093C239.897 69.0423 238.851 69.1088 237.635 69.1088ZM234.87 60.3015H238.347C238.917 60.3015 239.336 60.1875 239.601 59.9594C239.868 59.7314 240.001 59.3229 240.001 58.7338C240.001 58.1828 239.915 57.7457 239.744 57.4227C239.573 57.0807 239.307 56.8432 238.946 56.7101C238.586 56.5582 238.101 56.4821 237.492 56.4821C236.847 56.4821 236.334 56.5961 235.953 56.8241C235.573 57.0331 235.298 57.4132 235.127 57.9643C234.956 58.5153 234.87 59.2944 234.87 60.3015ZM251.291 69.0233C250.208 69.0233 249.306 68.8523 248.583 68.5102C247.88 68.1492 247.357 67.6076 247.015 66.8856C246.673 66.1445 246.502 65.1945 246.502 64.0353V47.2188H250.721V63.4083C250.721 63.9783 250.778 64.4344 250.892 64.7764C251.006 65.0994 251.177 65.337 251.405 65.489C251.652 65.6409 251.956 65.7455 252.317 65.8025L253.485 65.9735V69.0233H251.291Z" fill="white"/>
<path d="M51.8755 81.1934L266.663 81.21" stroke="#D0D0D0" stroke-width="0.73014"/>
<path d="M73.3802 104.495C72.689 104.495 72.0806 104.432 71.5548 104.305C71.0389 104.169 70.6057 103.915 70.2552 103.546C69.9145 103.175 69.6564 102.631 69.4812 101.91C69.3157 101.189 69.2329 100.246 69.2329 99.0771C69.2329 97.9085 69.3206 96.9649 69.4959 96.2442C69.6711 95.5143 69.9339 94.9595 70.2844 94.5798C70.6349 94.1899 71.0681 93.9273 71.584 93.7909C72.1 93.6453 72.6988 93.572 73.3802 93.572C74.0811 93.572 74.6896 93.6453 75.2056 93.7909C75.7313 93.9273 76.1645 94.1899 76.5052 94.5798C76.8557 94.9595 77.1136 95.5143 77.2791 96.2442C77.4447 96.9649 77.5274 97.9085 77.5274 99.0771C77.5274 100.246 77.4398 101.189 77.2645 101.91C77.0991 102.631 76.841 103.175 76.4905 103.546C76.1498 103.915 75.7215 104.169 75.2056 104.305C74.6896 104.432 74.0811 104.495 73.3802 104.495ZM73.3802 103.458C73.9254 103.458 74.3878 103.404 74.7674 103.298C75.1471 103.191 75.4538 102.986 75.6875 102.684C75.9308 102.372 76.1061 101.929 76.2131 101.355C76.3202 100.781 76.3738 100.022 76.3738 99.0771C76.3738 98.0938 76.3153 97.3049 76.1985 96.7114C76.0914 96.1179 75.9162 95.67 75.6728 95.3677C75.4392 95.0664 75.1325 94.8669 74.7529 94.7691C74.3829 94.6714 73.9254 94.6236 73.3802 94.6236C72.874 94.6236 72.431 94.6714 72.0514 94.7691C71.6814 94.8669 71.3698 95.0664 71.1168 95.3677C70.8734 95.67 70.6884 96.1179 70.5619 96.7114C70.445 97.3049 70.3866 98.0938 70.3866 99.0771C70.3866 100.022 70.4353 100.781 70.5327 101.355C70.6398 101.929 70.8101 102.372 71.0438 102.684C71.2774 102.986 71.584 103.191 71.9637 103.298C72.3531 103.404 72.8253 103.458 73.3802 103.458ZM79.4922 104.407V96.6096H80.3975L80.6457 97.4708C81.0157 97.2082 81.4489 96.9791 81.9454 96.7847C82.442 96.5801 82.9581 96.4783 83.4935 96.4783C84.0677 96.4783 84.5298 96.5994 84.881 96.8427C85.2312 97.086 85.4887 97.4077 85.6547 97.8067C85.8196 98.2057 85.903 98.6394 85.903 99.1066V104.407H84.7487V99.2379C84.7487 98.9071 84.6815 98.615 84.5451 98.3615C84.4178 98.0989 84.2336 97.8943 83.9903 97.7487C83.7562 97.6021 83.464 97.5288 83.1138 97.5288C82.7922 97.5288 82.4909 97.5634 82.2079 97.6316C81.9357 97.6896 81.6728 97.7772 81.4197 97.8942C81.1764 98.0011 80.9183 98.1325 80.6457 98.2882V104.407H79.4922ZM87.3322 100.654V99.6899H91.6107V100.654H87.3322ZM95.6092 104.495C94.9659 104.495 94.4355 104.358 94.0171 104.085C93.6079 103.803 93.3015 103.375 93.0969 102.801C92.9025 102.216 92.8047 101.472 92.8047 100.566C92.8047 99.6024 92.9025 98.8236 93.0969 98.2302C93.2913 97.6265 93.6028 97.1888 94.0314 96.916C94.4599 96.6432 95.0341 96.5068 95.7548 96.5068C96.1925 96.5068 96.6211 96.5556 97.0394 96.6534C97.4588 96.7501 97.8283 96.857 98.15 96.974V93.2656H99.3034V104.407H98.3689L98.15 103.618C98.0034 103.745 97.7846 103.877 97.4924 104.013C97.2104 104.15 96.899 104.266 96.5579 104.363C96.2271 104.451 95.9105 104.495 95.6092 104.495ZM95.9441 103.546C96.392 103.546 96.7961 103.478 97.1565 103.341C97.527 103.195 97.8579 103.044 98.15 102.888V97.7925C97.7988 97.6846 97.4629 97.597 97.1422 97.5288C96.8206 97.4514 96.4602 97.4128 96.0612 97.4128C95.5654 97.4128 95.1613 97.5044 94.8498 97.6896C94.5383 97.8749 94.3093 98.1956 94.1627 98.6536C94.0263 99.1015 93.9591 99.7245 93.9591 100.523C93.9591 101.243 94.0222 101.828 94.1484 102.276C94.2848 102.723 94.4986 103.049 94.7908 103.254C95.0829 103.448 95.4677 103.546 95.9441 103.546ZM104.461 104.495C103.643 104.495 102.995 104.374 102.519 104.129C102.052 103.886 101.716 103.473 101.511 102.888C101.307 102.304 101.205 101.506 101.205 100.493C101.205 99.4619 101.307 98.6587 101.511 98.0836C101.725 97.5003 102.071 97.0911 102.548 96.857C103.025 96.6238 103.667 96.5068 104.476 96.5068C105.167 96.5068 105.727 96.5852 106.155 96.7409C106.593 96.8967 106.915 97.1644 107.118 97.5441C107.333 97.9136 107.44 98.4297 107.44 99.0914C107.44 99.5494 107.347 99.919 107.162 100.202C106.987 100.474 106.729 100.673 106.388 100.801C106.057 100.917 105.664 100.976 105.205 100.976H102.358C102.367 101.608 102.436 102.12 102.563 102.509C102.689 102.888 102.918 103.166 103.249 103.341C103.59 103.506 104.086 103.59 104.738 103.59H107.251V104.29C106.803 104.349 106.364 104.397 105.935 104.437C105.508 104.475 105.016 104.495 104.461 104.495ZM102.344 100.216H105.118C105.556 100.216 105.877 100.138 106.082 99.9821C106.296 99.8172 106.404 99.525 106.404 99.1066C106.404 98.6587 106.335 98.3126 106.199 98.0693C106.072 97.8159 105.868 97.6408 105.585 97.5441C105.312 97.4372 104.943 97.3832 104.476 97.3832C103.93 97.3832 103.502 97.4657 103.191 97.6316C102.879 97.7874 102.66 98.0693 102.533 98.4786C102.407 98.8868 102.344 99.467 102.344 100.216ZM109.382 104.407V96.6096H110.288L110.535 97.4708C110.925 97.198 111.359 96.9649 111.835 96.7694C112.322 96.575 112.862 96.4783 113.457 96.4783C113.944 96.4783 114.357 96.5892 114.698 96.8132C115.048 97.028 115.311 97.3008 115.487 97.6316C115.73 97.4565 116.022 97.2814 116.362 97.1053C116.713 96.9303 117.083 96.7847 117.472 96.6676C117.872 96.5414 118.256 96.4783 118.626 96.4783C119.19 96.4783 119.653 96.5994 120.014 96.8427C120.373 97.0768 120.637 97.3975 120.801 97.8067C120.977 98.2057 121.064 98.6536 121.064 99.1504V104.407H119.911V99.2379C119.911 98.9071 119.843 98.615 119.706 98.3615C119.58 98.0989 119.395 97.8943 119.151 97.7487C118.908 97.6021 118.611 97.5288 118.261 97.5288C117.823 97.5288 117.375 97.6123 116.917 97.7772C116.46 97.9431 116.036 98.1426 115.647 98.3757C115.695 98.5223 115.73 98.6679 115.749 98.8145C115.778 98.9509 115.793 99.0965 115.793 99.2522V104.407H114.639V99.2379C114.639 98.9071 114.572 98.615 114.435 98.3615C114.308 98.0989 114.124 97.8943 113.88 97.7487C113.646 97.6021 113.354 97.5288 113.004 97.5288C112.682 97.5288 112.381 97.5634 112.098 97.6316C111.826 97.6896 111.563 97.7772 111.31 97.8942C111.067 98.0011 110.808 98.1325 110.535 98.2882V104.407H109.382ZM124.748 104.495C124.174 104.495 123.702 104.325 123.331 103.984C122.962 103.643 122.776 103.161 122.776 102.538V101.983C122.776 101.37 122.976 100.873 123.375 100.493C123.784 100.113 124.398 99.924 125.215 99.924H127.858V98.9601C127.858 98.6394 127.8 98.3666 127.683 98.1426C127.576 97.9085 127.376 97.7283 127.084 97.6021C126.802 97.4759 126.388 97.4128 125.843 97.4128H123.419V96.7256C123.76 96.6676 124.155 96.6137 124.602 96.5658C125.06 96.517 125.595 96.4925 126.208 96.4925C126.841 96.4824 127.366 96.5607 127.786 96.7256C128.204 96.8916 128.51 97.1542 128.705 97.5146C128.909 97.8647 129.012 98.3279 129.012 98.902V104.407H128.122L127.902 103.516C127.863 103.555 127.742 103.623 127.537 103.721C127.343 103.818 127.089 103.93 126.778 104.057C126.476 104.173 126.145 104.276 125.784 104.363C125.434 104.451 125.089 104.495 124.748 104.495ZM125.23 103.633C125.405 103.643 125.604 103.623 125.828 103.574C126.052 103.527 126.281 103.473 126.515 103.415C126.748 103.346 126.963 103.278 127.158 103.21C127.362 103.142 127.527 103.083 127.654 103.035C127.781 102.986 127.849 102.962 127.858 102.962V100.508L125.478 100.61C124.923 100.629 124.524 100.766 124.281 101.019C124.047 101.273 123.931 101.599 123.931 101.998V102.348C123.931 102.659 123.994 102.913 124.12 103.107C124.256 103.292 124.422 103.424 124.617 103.502C124.821 103.58 125.025 103.623 125.23 103.633ZM131.187 104.407V96.6096H132.092L132.34 97.4708C132.711 97.2082 133.143 96.9791 133.64 96.7847C134.137 96.5801 134.653 96.4783 135.188 96.4783C135.762 96.4783 136.224 96.5994 136.575 96.8427C136.926 97.086 137.183 97.4077 137.349 97.8067C137.514 98.2057 137.598 98.6394 137.598 99.1066V104.407H136.443V99.2379C136.443 98.9071 136.375 98.615 136.24 98.3615C136.113 98.0989 135.927 97.8943 135.684 97.7487C135.451 97.6021 135.159 97.5288 134.809 97.5288C134.487 97.5288 134.186 97.5634 133.903 97.6316C133.63 97.6896 133.367 97.7772 133.115 97.8942C132.871 98.0011 132.613 98.1325 132.34 98.2882V104.407H131.187ZM142.298 104.495C141.655 104.495 141.125 104.358 140.707 104.085C140.297 103.803 139.991 103.375 139.786 102.801C139.592 102.216 139.494 101.472 139.494 100.566C139.494 99.6024 139.592 98.8236 139.786 98.2302C139.981 97.6265 140.292 97.1888 140.721 96.916C141.149 96.6432 141.723 96.5068 142.444 96.5068C142.882 96.5068 143.31 96.5556 143.729 96.6534C144.147 96.7501 144.518 96.857 144.838 96.974V93.2656H145.993V104.407H145.057L144.838 103.618C144.693 103.745 144.474 103.877 144.182 104.013C143.899 104.15 143.587 104.266 143.247 104.363C142.916 104.451 142.6 104.495 142.298 104.495ZM142.633 103.546C143.081 103.546 143.486 103.478 143.846 103.341C144.215 103.195 144.546 103.044 144.838 102.888V97.7925C144.488 97.6846 144.152 97.597 143.831 97.5288C143.51 97.4514 143.15 97.4128 142.751 97.4128C142.254 97.4128 141.85 97.5044 141.538 97.6896C141.227 97.8749 140.999 98.1956 140.852 98.6536C140.716 99.1015 140.647 99.7245 140.647 100.523C140.647 101.243 140.711 101.828 140.838 102.276C140.974 102.723 141.188 103.049 141.48 103.254C141.772 103.448 142.157 103.546 142.633 103.546ZM154.94 104.495C154.502 104.495 154.093 104.437 153.713 104.32C153.333 104.203 153.002 103.998 152.72 103.706C152.438 103.415 152.219 103.01 152.063 102.494C151.907 101.978 151.83 101.321 151.83 100.523C151.83 99.7143 151.903 99.0527 152.049 98.5366C152.194 98.0113 152.404 97.6021 152.677 97.3099C152.949 97.0178 153.28 96.8132 153.669 96.6971C154.059 96.5801 154.492 96.5221 154.969 96.5221C155.359 96.5221 155.782 96.5414 156.239 96.5801C156.698 96.6096 157.135 96.6574 157.554 96.7256V97.4128H155.275C154.78 97.4128 154.36 97.4952 154.02 97.6601C153.679 97.8261 153.421 98.1375 153.246 98.5956C153.071 99.0425 152.983 99.695 152.983 100.552C152.983 101.38 153.076 102.012 153.261 102.451C153.445 102.888 153.709 103.191 154.049 103.356C154.39 103.511 154.803 103.59 155.291 103.59H157.671V104.262C157.447 104.3 157.184 104.339 156.882 104.378C156.59 104.417 156.278 104.446 155.947 104.465C155.616 104.485 155.281 104.495 154.94 104.495ZM162.361 104.495C161.796 104.495 161.301 104.437 160.872 104.32C160.454 104.203 160.103 103.998 159.821 103.706C159.539 103.415 159.329 103.01 159.193 102.494C159.056 101.968 158.988 101.301 158.988 100.493C158.988 99.6757 159.056 99.0089 159.193 98.4928C159.329 97.9675 159.539 97.5634 159.821 97.2804C160.103 96.9893 160.454 96.7898 160.872 96.6819C161.301 96.5658 161.796 96.5068 162.361 96.5068C162.926 96.5068 163.418 96.5658 163.836 96.6819C164.265 96.7989 164.62 97.0035 164.902 97.2957C165.185 97.5777 165.394 97.9818 165.53 98.5081C165.676 99.0232 165.749 99.6858 165.749 100.493C165.749 101.312 165.676 101.983 165.53 102.509C165.394 103.025 165.185 103.429 164.902 103.721C164.629 104.003 164.279 104.203 163.851 104.32C163.423 104.437 162.926 104.495 162.361 104.495ZM162.361 103.546C162.722 103.546 163.038 103.511 163.311 103.443C163.593 103.375 163.826 103.239 164.012 103.035C164.197 102.83 164.337 102.523 164.435 102.115C164.533 101.705 164.582 101.165 164.582 100.493C164.582 99.8121 164.533 99.2715 164.435 98.8725C164.337 98.4735 164.197 98.1722 164.012 97.9675C163.826 97.7629 163.593 97.6265 163.311 97.5583C163.038 97.4901 162.722 97.4565 162.361 97.4565C161.992 97.4565 161.67 97.4901 161.397 97.5583C161.126 97.6265 160.897 97.7629 160.711 97.9675C160.526 98.1722 160.386 98.4735 160.288 98.8725C160.19 99.2715 160.142 99.8121 160.142 100.493C160.142 101.165 160.19 101.705 160.288 102.115C160.386 102.523 160.526 102.83 160.711 103.035C160.897 103.239 161.126 103.375 161.397 103.443C161.67 103.511 161.992 103.546 162.361 103.546ZM167.693 104.407V96.6096H168.599L168.848 97.4708C169.217 97.2082 169.651 96.9791 170.147 96.7847C170.643 96.5801 171.16 96.4783 171.695 96.4783C172.269 96.4783 172.731 96.5994 173.082 96.8427C173.433 97.086 173.69 97.4077 173.856 97.8067C174.022 98.2057 174.105 98.6394 174.105 99.1066V104.407H172.951V99.2379C172.951 98.9071 172.883 98.615 172.747 98.3615C172.619 98.0989 172.435 97.8943 172.192 97.7487C171.958 97.6021 171.665 97.5288 171.315 97.5288C170.994 97.5288 170.692 97.5634 170.409 97.6316C170.138 97.6896 169.874 97.7772 169.621 97.8942C169.378 98.0011 169.12 98.1325 168.848 98.2882V104.407H167.693ZM178.965 104.495C178.771 104.495 178.533 104.49 178.25 104.48C177.968 104.47 177.67 104.456 177.359 104.437C177.058 104.417 176.78 104.397 176.527 104.378C176.284 104.349 176.094 104.32 175.957 104.29V103.59H179.156C179.476 103.59 179.754 103.565 179.987 103.516C180.221 103.468 180.402 103.361 180.528 103.195C180.664 103.03 180.732 102.781 180.732 102.451V102.099C180.732 101.759 180.62 101.497 180.396 101.312C180.173 101.117 179.812 101.019 179.316 101.019H178.221C177.763 101.019 177.354 100.961 176.994 100.844C176.643 100.727 176.371 100.528 176.176 100.246C175.982 99.9627 175.884 99.5739 175.884 99.0771V98.6679C175.884 98.1813 175.977 97.7823 176.162 97.4708C176.356 97.1593 176.653 96.9252 177.053 96.7694C177.462 96.6137 177.987 96.5363 178.629 96.5363C178.902 96.5363 179.214 96.5455 179.564 96.5658C179.924 96.5852 180.275 96.6137 180.615 96.6534C180.956 96.6819 181.234 96.7165 181.448 96.7552V97.4565H178.44C177.943 97.4565 177.558 97.539 177.287 97.7049C177.023 97.8698 176.892 98.1915 176.892 98.6679V98.9896C176.892 99.2909 176.955 99.5199 177.082 99.6757C177.208 99.8223 177.383 99.919 177.607 99.9678C177.841 100.017 178.109 100.041 178.41 100.041H179.52C180.232 100.041 180.781 100.206 181.17 100.537C181.56 100.869 181.754 101.345 181.754 101.968V102.509C181.754 103.035 181.633 103.443 181.39 103.735C181.156 104.017 180.83 104.218 180.411 104.334C180.003 104.441 179.52 104.495 178.965 104.495ZM185.902 104.495C185.152 104.495 184.573 104.3 184.164 103.91C183.765 103.521 183.565 102.918 183.565 102.099V96.6096H184.719V101.808C184.719 102.46 184.865 102.903 185.157 103.137C185.459 103.361 185.877 103.473 186.413 103.473C186.871 103.473 187.289 103.41 187.669 103.282C188.048 103.147 188.438 102.962 188.837 102.727V96.6096H189.991V104.407H189.086L188.837 103.546C188.438 103.798 187.985 104.022 187.479 104.218C186.983 104.402 186.456 104.495 185.902 104.495ZM194.209 104.421C193.761 104.421 193.387 104.344 193.085 104.188C192.783 104.022 192.554 103.76 192.398 103.399C192.242 103.03 192.165 102.533 192.165 101.91V93.2656H193.318V101.765C193.318 102.232 193.362 102.587 193.45 102.83C193.537 103.063 193.664 103.229 193.829 103.326C193.995 103.415 194.19 103.473 194.414 103.502L195.203 103.59V104.421H194.209ZM199.042 104.407C198.535 104.407 198.117 104.325 197.786 104.159C197.455 103.994 197.212 103.726 197.056 103.356C196.901 102.986 196.827 102.494 196.837 101.881L196.881 97.5583H195.639V96.8132L196.895 96.6096L197.085 94.4332H197.975V96.6096H200.225V97.5583H197.975V101.881C197.975 102.222 198.01 102.494 198.078 102.699C198.156 102.903 198.253 103.058 198.37 103.166C198.497 103.273 198.628 103.35 198.764 103.399C198.901 103.438 199.032 103.462 199.158 103.473L200.108 103.56V104.407H199.042ZM201.994 95.2221C201.839 95.2221 201.761 95.1437 201.761 94.988V93.8489C201.761 93.6932 201.839 93.6158 201.994 93.6158H202.812C202.89 93.6158 202.944 93.6402 202.973 93.6891C203.011 93.7278 203.032 93.7807 203.032 93.8489V94.988C203.032 95.1437 202.958 95.2221 202.812 95.2221H201.994ZM201.819 104.407V96.6096H202.973V104.407H201.819ZM205.199 104.407V96.6096H206.105L206.352 97.4708C206.723 97.2082 207.155 96.9791 207.652 96.7847C208.149 96.5801 208.665 96.4783 209.2 96.4783C209.775 96.4783 210.237 96.5994 210.588 96.8427C210.938 97.086 211.196 97.4077 211.362 97.8067C211.526 98.2057 211.61 98.6394 211.61 99.1066V104.407H210.456V99.2379C210.456 98.9071 210.387 98.615 210.252 98.3615C210.125 98.0989 209.94 97.8943 209.696 97.7487C209.463 97.6021 209.171 97.5288 208.821 97.5288C208.499 97.5288 208.198 97.5634 207.915 97.6316C207.643 97.6896 207.379 97.7772 207.127 97.8942C206.884 98.0011 206.625 98.1325 206.352 98.2882V104.407H205.199ZM215.697 107.985C215.19 107.985 214.743 107.912 214.353 107.765C213.974 107.63 213.672 107.415 213.448 107.123C213.234 106.841 213.127 106.486 213.127 106.057V105.707C213.127 105.259 213.249 104.885 213.492 104.582C213.745 104.281 214.061 104.057 214.441 103.91C214.821 103.755 215.21 103.677 215.609 103.677L215.902 104.144C215.609 104.144 215.337 104.193 215.083 104.29C214.831 104.378 214.621 104.524 214.455 104.729C214.299 104.932 214.222 105.196 214.222 105.517V105.838C214.222 106.306 214.378 106.636 214.689 106.831C215.001 107.035 215.424 107.138 215.96 107.138H217.771C218.355 107.138 218.812 107.026 219.143 106.802C219.484 106.578 219.654 106.227 219.654 105.751V105.459C219.654 105.186 219.601 104.953 219.494 104.757C219.386 104.563 219.206 104.412 218.953 104.305C218.71 104.197 218.364 104.144 217.916 104.144H215.566C214.962 104.144 214.49 104.017 214.149 103.765C213.818 103.502 213.652 103.166 213.652 102.757C213.652 102.367 213.764 102.061 213.988 101.837C214.222 101.613 214.548 101.457 214.967 101.37C214.607 101.224 214.324 101.029 214.12 100.785C213.916 100.533 213.774 100.265 213.696 99.9821C213.618 99.6899 213.58 99.3988 213.58 99.1066C213.58 98.503 213.701 98.0164 213.944 97.6459C214.187 97.2764 214.533 97.0086 214.981 96.8427C215.438 96.6778 215.974 96.5943 216.588 96.5943H220.749V97.2519L218.997 97.3975C219.123 97.485 219.265 97.6021 219.421 97.7487C219.576 97.8841 219.708 98.0836 219.815 98.3472C219.932 98.5997 219.99 98.9509 219.99 99.3988C219.99 99.7978 219.902 100.178 219.727 100.537C219.562 100.897 219.279 101.194 218.88 101.429C218.481 101.653 217.931 101.765 217.23 101.765H215.989C215.58 101.765 215.254 101.828 215.011 101.954C214.777 102.071 214.66 102.285 214.66 102.596C214.66 102.83 214.747 102.995 214.922 103.093C215.098 103.191 215.283 103.238 215.478 103.238H218.063C218.666 103.238 219.162 103.317 219.552 103.473C219.951 103.628 220.248 103.867 220.443 104.188C220.647 104.5 220.749 104.899 220.749 105.385V105.707C220.749 106.418 220.506 106.972 220.019 107.371C219.542 107.781 218.826 107.985 217.872 107.985H215.697ZM216.238 100.873H217.113C217.61 100.873 217.984 100.801 218.238 100.654C218.5 100.498 218.681 100.299 218.778 100.055C218.875 99.8121 218.924 99.5494 218.924 99.2664C218.924 98.8287 218.851 98.4836 218.705 98.2302C218.569 97.9675 218.374 97.7823 218.121 97.6754C217.867 97.5583 217.576 97.5003 217.244 97.5003H216.413C215.858 97.5003 215.419 97.6265 215.098 97.88C214.787 98.1233 214.631 98.5518 214.631 99.1647C214.631 99.7683 214.772 100.206 215.055 100.479C215.347 100.741 215.741 100.873 216.238 100.873ZM227.652 104.495C227.078 104.495 226.605 104.325 226.236 103.984C225.865 103.643 225.681 103.161 225.681 102.538V101.983C225.681 101.37 225.881 100.873 226.28 100.493C226.689 100.113 227.302 99.924 228.119 99.924H230.763V98.9601C230.763 98.6394 230.705 98.3666 230.588 98.1426C230.481 97.9085 230.28 97.7283 229.989 97.6021C229.706 97.4759 229.293 97.4128 228.747 97.4128H226.323V96.7256C226.664 96.6676 227.058 96.6137 227.506 96.5658C227.963 96.517 228.499 96.4925 229.113 96.4925C229.745 96.4824 230.271 96.5607 230.689 96.7256C231.108 96.8916 231.415 97.1542 231.61 97.5146C231.814 97.8647 231.916 98.3279 231.916 98.902V104.407H231.025L230.806 103.516C230.768 103.555 230.646 103.623 230.441 103.721C230.247 103.818 229.993 103.93 229.682 104.057C229.38 104.173 229.049 104.276 228.689 104.363C228.339 104.451 227.993 104.495 227.652 104.495ZM228.134 103.633C228.309 103.643 228.509 103.623 228.733 103.574C228.957 103.527 229.186 103.473 229.419 103.415C229.653 103.346 229.867 103.278 230.061 103.21C230.266 103.142 230.432 103.083 230.558 103.035C230.684 102.986 230.753 102.962 230.763 102.962V100.508L228.383 100.61C227.827 100.629 227.428 100.766 227.185 101.019C226.951 101.273 226.834 101.599 226.834 101.998V102.348C226.834 102.659 226.898 102.913 227.024 103.107C227.16 103.292 227.326 103.424 227.521 103.502C227.725 103.58 227.93 103.623 228.134 103.633ZM234.09 104.407V96.6096H234.996L235.245 97.4708C235.614 97.2082 236.048 96.9791 236.544 96.7847C237.04 96.5801 237.557 96.4783 238.092 96.4783C238.666 96.4783 239.129 96.5994 239.479 96.8427C239.83 97.086 240.088 97.4077 240.253 97.8067C240.419 98.2057 240.501 98.6394 240.501 99.1066V104.407H239.348V99.2379C239.348 98.9071 239.28 98.615 239.143 98.3615C239.017 98.0989 238.832 97.8943 238.589 97.7487C238.355 97.6021 238.062 97.5288 237.712 97.5288C237.392 97.5288 237.089 97.5634 236.807 97.6316C236.534 97.6896 236.272 97.7772 236.018 97.8942C235.775 98.0011 235.518 98.1325 235.245 98.2882V104.407H234.09ZM245.202 104.495C244.559 104.495 244.029 104.358 243.61 104.085C243.201 103.803 242.895 103.375 242.69 102.801C242.496 102.216 242.398 101.472 242.398 100.566C242.398 99.6024 242.496 98.8236 242.69 98.2302C242.885 97.6265 243.197 97.1888 243.625 96.916C244.053 96.6432 244.627 96.5068 245.348 96.5068C245.786 96.5068 246.214 96.5556 246.634 96.6534C247.052 96.7501 247.421 96.857 247.743 96.974V93.2656H248.896V104.407H247.962L247.743 103.618C247.597 103.745 247.378 103.877 247.086 104.013C246.804 104.15 246.492 104.266 246.151 104.363C245.82 104.451 245.504 104.495 245.202 104.495ZM245.538 103.546C245.986 103.546 246.389 103.478 246.75 103.341C247.12 103.195 247.451 103.044 247.743 102.888V97.7925C247.392 97.6846 247.057 97.597 246.735 97.5288C246.414 97.4514 246.053 97.4128 245.654 97.4128C245.159 97.4128 244.754 97.5044 244.443 97.6896C244.131 97.8749 243.902 98.1956 243.757 98.6536C243.62 99.1015 243.552 99.7245 243.552 100.523C243.552 101.243 243.615 101.828 243.742 102.276C243.878 102.723 244.092 103.049 244.384 103.254C244.676 103.448 245.061 103.546 245.538 103.546ZM44.3398 125.784V117.987H45.2452L45.4935 118.848C45.8829 118.575 46.3161 118.342 46.7931 118.146C47.2799 117.952 47.8202 117.855 48.4141 117.855C48.9008 117.855 49.3146 117.966 49.6553 118.19C50.0058 118.405 50.2686 118.678 50.4438 119.009C50.6872 118.834 50.9792 118.658 51.32 118.482C51.6704 118.307 52.0405 118.162 52.4298 118.045C52.829 117.918 53.2135 117.855 53.5835 117.855C54.1481 117.855 54.6105 117.976 54.9707 118.22C55.3309 118.454 55.5937 118.774 55.7592 119.184C55.9345 119.583 56.0221 120.031 56.0221 120.527V125.784H54.8685V120.615C54.8685 120.284 54.8003 119.992 54.664 119.738C54.5375 119.476 54.3525 119.271 54.1091 119.126C53.8657 118.979 53.5688 118.906 53.2183 118.906C52.7803 118.906 52.3325 118.989 51.8749 119.154C51.4174 119.32 50.9939 119.52 50.6044 119.753C50.6532 119.899 50.6872 120.045 50.7067 120.191C50.7359 120.328 50.7505 120.473 50.7505 120.629V125.784H49.5969V120.615C49.5969 120.284 49.5288 119.992 49.3924 119.738C49.2659 119.476 49.081 119.271 48.8376 119.126C48.6038 118.979 48.3118 118.906 47.9613 118.906C47.64 118.906 47.3383 118.94 47.0559 119.009C46.7834 119.067 46.5205 119.154 46.2674 119.271C46.024 119.378 45.7661 119.509 45.4935 119.665V125.784H44.3398ZM61.1659 125.872C60.3481 125.872 59.7006 125.751 59.2236 125.506C58.7564 125.263 58.4205 124.85 58.2161 124.265C58.0117 123.681 57.9094 122.883 57.9094 121.87C57.9094 120.839 58.0117 120.036 58.2161 119.461C58.4302 118.877 58.7758 118.468 59.2528 118.234C59.7299 118.001 60.3724 117.884 61.1804 117.884C61.8716 117.884 62.4314 117.962 62.8597 118.118C63.2979 118.274 63.6191 118.541 63.8235 118.921C64.0377 119.291 64.1448 119.807 64.1448 120.468C64.1448 120.926 64.0523 121.296 63.8673 121.579C63.6921 121.851 63.4342 122.05 63.0934 122.177C62.7624 122.294 62.3682 122.353 61.9106 122.353H59.063C59.0728 122.985 59.1409 123.497 59.2675 123.886C59.394 124.265 59.6228 124.543 59.9538 124.718C60.2945 124.883 60.7911 124.967 61.4433 124.967H63.955V125.667C63.5072 125.726 63.069 125.774 62.6407 125.814C62.2123 125.852 61.7208 125.872 61.1659 125.872ZM59.0484 121.593H61.823C62.2611 121.593 62.5824 121.515 62.7868 121.359C63.0009 121.194 63.108 120.902 63.108 120.484C63.108 120.036 63.0398 119.69 62.9035 119.446C62.777 119.193 62.5726 119.018 62.2902 118.921C62.0177 118.814 61.6478 118.76 61.1804 118.76C60.6352 118.76 60.207 118.843 59.8954 119.009C59.5839 119.164 59.3648 119.446 59.2383 119.856C59.1118 120.264 59.0484 120.844 59.0484 121.593ZM66.0872 125.784V117.987H66.9926L67.2408 118.848C67.6107 118.585 68.044 118.356 68.5405 118.162C69.037 117.957 69.553 117.855 70.0884 117.855C70.6628 117.855 71.1252 117.976 71.4757 118.22C71.8261 118.463 72.0841 118.785 72.2496 119.184C72.4151 119.583 72.4978 120.016 72.4978 120.484V125.784H71.3442V120.615C71.3442 120.284 71.2761 119.992 71.1398 119.738C71.0132 119.476 70.8283 119.271 70.5849 119.126C70.3513 118.979 70.0592 118.906 69.7087 118.906C69.3875 118.906 69.0857 118.94 68.8034 119.009C68.5308 119.067 68.2679 119.154 68.0148 119.271C67.7714 119.378 67.5134 119.509 67.2408 119.665V125.784H66.0872ZM77.2568 125.784C76.7505 125.784 76.3319 125.702 76.0009 125.536C75.67 125.371 75.4266 125.103 75.2708 124.733C75.115 124.363 75.042 123.871 75.0518 123.258L75.0955 118.935H73.8543V118.19L75.1102 117.987L75.2999 115.81H76.1908V117.987H78.4396V118.935H76.1908V123.258C76.1908 123.599 76.2249 123.871 76.293 124.076C76.3708 124.28 76.4682 124.435 76.585 124.543C76.7116 124.65 76.8431 124.727 76.9794 124.776C77.1156 124.815 77.2471 124.839 77.3736 124.85L78.3227 124.937V125.784H77.2568ZM83.1301 125.872C82.5652 125.872 82.0684 125.814 81.6404 125.697C81.2218 125.579 80.8713 125.375 80.5889 125.083C80.3066 124.792 80.0973 124.387 79.961 123.871C79.8247 123.345 79.7566 122.678 79.7566 121.87C79.7566 121.053 79.8247 120.386 79.961 119.87C80.0973 119.345 80.3066 118.94 80.5889 118.657C80.8713 118.366 81.2218 118.167 81.6404 118.059C82.0684 117.943 82.5652 117.884 83.1301 117.884C83.6941 117.884 84.1857 117.943 84.6051 118.059C85.0327 118.176 85.388 118.381 85.6709 118.673C85.9529 118.955 86.1626 119.359 86.299 119.885C86.4446 120.4 86.5179 121.063 86.5179 121.87C86.5179 122.689 86.4446 123.36 86.299 123.886C86.1626 124.402 85.9529 124.806 85.6709 125.098C85.3981 125.38 85.048 125.579 84.6194 125.697C84.1908 125.814 83.6941 125.872 83.1301 125.872ZM83.1301 124.923C83.4905 124.923 83.806 124.888 84.0789 124.82C84.3608 124.752 84.595 124.615 84.7802 124.412C84.9645 124.207 85.106 123.9 85.2037 123.492C85.3004 123.082 85.3493 122.542 85.3493 121.87C85.3493 121.189 85.3004 120.649 85.2037 120.25C85.106 119.85 84.9645 119.549 84.7802 119.345C84.595 119.14 84.3608 119.004 84.0789 118.935C83.806 118.867 83.4905 118.834 83.1301 118.834C82.7596 118.834 82.4389 118.867 82.1661 118.935C81.8934 119.004 81.6647 119.14 81.4797 119.345C81.2948 119.549 81.1536 119.85 81.0563 120.25C80.9588 120.649 80.9102 121.189 80.9102 121.87C80.9102 122.542 80.9588 123.082 81.0563 123.492C81.1536 123.9 81.2948 124.207 81.4797 124.412C81.6647 124.615 81.8934 124.752 82.1661 124.82C82.4389 124.888 82.7596 124.923 83.1301 124.923ZM88.4622 125.784V117.987H89.3386L89.6155 119.345C89.9657 118.925 90.3556 118.58 90.7841 118.307C91.2218 118.034 91.7237 117.899 92.2876 117.899C92.424 117.899 92.5513 117.903 92.6673 117.913C92.7946 117.922 92.9106 117.943 93.0185 117.971V119.154C92.8913 119.135 92.7549 119.121 92.6093 119.11C92.4627 119.091 92.3172 119.082 92.1716 119.082C91.8112 119.082 91.4896 119.126 91.2076 119.213C90.9246 119.301 90.6569 119.432 90.4044 119.607C90.151 119.782 89.8883 119.996 89.6155 120.25V125.784H88.4622ZM94.6554 116.599C94.4996 116.599 94.4213 116.521 94.4213 116.365V115.226C94.4213 115.07 94.4996 114.993 94.6554 114.993H95.4728C95.5512 114.993 95.6041 115.017 95.6336 115.066C95.6723 115.105 95.6917 115.158 95.6917 115.226V116.365C95.6917 116.521 95.6194 116.599 95.4728 116.599H94.6554ZM94.4803 125.784V117.987H95.6336V125.784H94.4803ZM97.8599 125.784V117.987H98.7649L99.0132 118.848C99.3838 118.585 99.8164 118.356 100.313 118.162C100.81 117.957 101.325 117.855 101.86 117.855C102.436 117.855 102.898 117.976 103.248 118.22C103.599 118.463 103.857 118.785 104.023 119.184C104.187 119.583 104.27 120.016 104.27 120.484V125.784H103.117V120.615C103.117 120.284 103.048 119.992 102.912 119.738C102.786 119.476 102.601 119.271 102.357 119.126C102.124 118.979 101.832 118.906 101.481 118.906C101.16 118.906 100.858 118.94 100.576 119.009C100.303 119.067 100.04 119.154 99.7869 119.271C99.5436 119.378 99.286 119.509 99.0132 119.665V125.784H97.8599ZM108.358 129.362C107.851 129.362 107.403 129.289 107.014 129.142C106.635 129.007 106.332 128.792 106.108 128.5C105.895 128.218 105.788 127.863 105.788 127.434V127.084C105.788 126.636 105.909 126.262 106.152 125.959C106.406 125.658 106.722 125.434 107.102 125.287C107.482 125.132 107.87 125.054 108.269 125.054L108.562 125.521C108.269 125.521 107.998 125.57 107.744 125.667C107.491 125.755 107.282 125.901 107.116 126.106C106.96 126.309 106.883 126.573 106.883 126.894V127.215C106.883 127.683 107.039 128.013 107.35 128.208C107.662 128.412 108.085 128.515 108.621 128.515H110.432C111.015 128.515 111.473 128.403 111.804 128.179C112.145 127.955 112.315 127.604 112.315 127.128V126.836C112.315 126.563 112.262 126.33 112.154 126.134C112.047 125.94 111.867 125.789 111.614 125.682C111.37 125.574 111.025 125.521 110.577 125.521H108.226C107.622 125.521 107.151 125.394 106.81 125.142C106.479 124.879 106.313 124.543 106.313 124.134C106.313 123.744 106.425 123.438 106.649 123.214C106.883 122.99 107.209 122.834 107.627 122.747C107.267 122.601 106.985 122.406 106.78 122.162C106.576 121.91 106.435 121.642 106.357 121.359C106.279 121.067 106.24 120.776 106.24 120.484C106.24 119.88 106.362 119.393 106.605 119.023C106.848 118.653 107.195 118.386 107.642 118.22C108.099 118.055 108.635 117.971 109.249 117.971H113.41V118.629L111.658 118.774C111.784 118.862 111.926 118.979 112.082 119.126C112.237 119.261 112.369 119.461 112.476 119.724C112.593 119.977 112.651 120.328 112.651 120.776C112.651 121.175 112.563 121.555 112.388 121.914C112.222 122.274 111.94 122.571 111.541 122.806C111.142 123.03 110.591 123.142 109.891 123.142H108.649C108.241 123.142 107.914 123.205 107.671 123.331C107.438 123.448 107.321 123.662 107.321 123.973C107.321 124.207 107.408 124.372 107.583 124.47C107.758 124.568 107.944 124.615 108.138 124.615H110.723C111.326 124.615 111.823 124.694 112.213 124.85C112.612 125.005 112.908 125.244 113.104 125.565C113.308 125.877 113.41 126.276 113.41 126.762V127.084C113.41 127.795 113.167 128.349 112.68 128.748C112.203 129.158 111.487 129.362 110.533 129.362H108.358ZM108.898 122.25H109.774C110.271 122.25 110.645 122.178 110.899 122.031C111.161 121.875 111.342 121.676 111.438 121.432C111.536 121.189 111.585 120.926 111.585 120.643C111.585 120.206 111.512 119.861 111.366 119.607C111.23 119.345 111.035 119.159 110.782 119.052C110.528 118.935 110.236 118.877 109.905 118.877H109.073C108.518 118.877 108.08 119.004 107.758 119.257C107.447 119.5 107.291 119.929 107.291 120.542C107.291 121.145 107.433 121.583 107.715 121.856C108.007 122.118 108.402 122.25 108.898 122.25ZM119.218 125.784V118.935H118.02V118.19L119.218 117.987V117.096C119.218 116.54 119.286 116.078 119.422 115.708C119.559 115.329 119.788 115.042 120.108 114.846C120.43 114.652 120.878 114.554 121.452 114.554C121.793 114.554 122.08 114.574 122.313 114.613C122.556 114.643 122.771 114.671 122.956 114.701V115.518H121.657C121.306 115.518 121.039 115.577 120.853 115.693C120.668 115.801 120.542 115.971 120.474 116.204C120.405 116.428 120.371 116.706 120.371 117.037V117.987H122.796V118.935H120.371V125.784H119.218ZM127.267 125.872C126.702 125.872 126.205 125.814 125.777 125.697C125.358 125.579 125.008 125.375 124.726 125.083C124.443 124.792 124.234 124.387 124.098 123.871C123.961 123.345 123.893 122.678 123.893 121.87C123.893 121.053 123.961 120.386 124.098 119.87C124.234 119.345 124.443 118.94 124.726 118.657C125.008 118.366 125.358 118.167 125.777 118.059C126.205 117.943 126.702 117.884 127.267 117.884C127.83 117.884 128.322 117.943 128.742 118.059C129.169 118.176 129.525 118.381 129.807 118.673C130.089 118.955 130.299 119.359 130.435 119.885C130.581 120.4 130.654 121.063 130.654 121.87C130.654 122.689 130.581 123.36 130.435 123.886C130.299 124.402 130.089 124.806 129.807 125.098C129.535 125.38 129.184 125.579 128.756 125.697C128.327 125.814 127.83 125.872 127.267 125.872ZM127.267 124.923C127.627 124.923 127.942 124.888 128.215 124.82C128.498 124.752 128.731 124.615 128.917 124.412C129.102 124.207 129.242 123.9 129.34 123.492C129.437 123.082 129.486 122.542 129.486 121.87C129.486 121.189 129.437 120.649 129.34 120.25C129.242 119.85 129.102 119.549 128.917 119.345C128.731 119.14 128.498 119.004 128.215 118.935C127.942 118.867 127.627 118.834 127.267 118.834C126.896 118.834 126.575 118.867 126.302 118.935C126.03 119.004 125.801 119.14 125.616 119.345C125.431 119.549 125.29 119.85 125.193 120.25C125.095 120.649 125.046 121.189 125.046 121.87C125.046 122.542 125.095 123.082 125.193 123.492C125.29 123.9 125.431 124.207 125.616 124.412C125.801 124.615 126.03 124.752 126.302 124.82C126.575 124.888 126.896 124.923 127.267 124.923ZM132.599 125.784V117.987H133.475L133.752 119.345C134.103 118.925 134.492 118.58 134.92 118.307C135.358 118.034 135.86 117.899 136.424 117.899C136.56 117.899 136.688 117.903 136.804 117.913C136.931 117.922 137.047 117.943 137.155 117.971V119.154C137.028 119.135 136.891 119.121 136.746 119.11C136.6 119.091 136.454 119.082 136.308 119.082C135.948 119.082 135.626 119.126 135.344 119.213C135.062 119.301 134.794 119.432 134.541 119.607C134.287 119.782 134.025 119.996 133.752 120.25V125.784H132.599ZM142.552 125.784V117.987H143.458L143.706 118.848C144.076 118.585 144.51 118.356 145.005 118.162C145.502 117.957 146.018 117.855 146.554 117.855C147.128 117.855 147.59 117.976 147.941 118.22C148.291 118.463 148.549 118.785 148.715 119.184C148.881 119.583 148.963 120.016 148.963 120.484V125.784H147.81V120.615C147.81 120.284 147.742 119.992 147.605 119.738C147.478 119.476 147.294 119.271 147.05 119.126C146.816 118.979 146.524 118.906 146.174 118.906C145.852 118.906 145.551 118.94 145.268 119.009C144.996 119.067 144.733 119.154 144.48 119.271C144.237 119.378 143.978 119.509 143.706 119.665V125.784H142.552ZM151.313 116.599C151.157 116.599 151.078 116.521 151.078 116.365V115.226C151.078 115.07 151.157 114.993 151.313 114.993H152.13C152.208 114.993 152.261 115.017 152.291 115.066C152.329 115.105 152.349 115.158 152.349 115.226V116.365C152.349 116.521 152.277 116.599 152.13 116.599H151.313ZM151.137 125.784V117.987H152.291V125.784H151.137ZM157.35 125.872C156.912 125.872 156.503 125.814 156.123 125.697C155.744 125.579 155.413 125.375 155.13 125.083C154.848 124.792 154.629 124.387 154.473 123.871C154.318 123.355 154.239 122.698 154.239 121.9C154.239 121.091 154.312 120.43 154.458 119.914C154.605 119.388 154.814 118.979 155.086 118.687C155.359 118.395 155.69 118.19 156.08 118.074C156.468 117.957 156.902 117.899 157.38 117.899C157.768 117.899 158.192 117.918 158.65 117.957C159.107 117.987 159.545 118.034 159.964 118.103V118.79H157.686C157.189 118.79 156.771 118.872 156.43 119.037C156.089 119.203 155.831 119.515 155.656 119.973C155.481 120.419 155.394 121.072 155.394 121.929C155.394 122.757 155.485 123.389 155.67 123.828C155.856 124.265 156.118 124.568 156.459 124.733C156.8 124.888 157.214 124.967 157.7 124.967H160.08V125.639C159.856 125.677 159.594 125.716 159.292 125.755C159 125.794 158.689 125.823 158.358 125.842C158.027 125.862 157.691 125.872 157.35 125.872ZM161.675 125.784V114.643H162.83V118.848C163.19 118.585 163.618 118.356 164.114 118.162C164.62 117.957 165.147 117.855 165.691 117.855C166.237 117.855 166.685 117.971 167.035 118.205C167.395 118.439 167.658 118.755 167.824 119.154C167.999 119.553 168.086 119.996 168.086 120.484V125.784H166.933V120.6C166.933 120.269 166.865 119.977 166.728 119.724C166.602 119.471 166.417 119.271 166.174 119.126C165.93 118.979 165.638 118.906 165.297 118.906C164.976 118.906 164.679 118.94 164.406 119.009C164.134 119.067 163.871 119.154 163.618 119.271C163.365 119.378 163.101 119.509 162.83 119.665V125.784H161.675ZM173.239 125.872C172.422 125.872 171.774 125.751 171.297 125.506C170.83 125.263 170.494 124.85 170.29 124.265C170.086 123.681 169.983 122.883 169.983 121.87C169.983 120.839 170.086 120.036 170.29 119.461C170.504 118.877 170.849 118.468 171.327 118.234C171.804 118.001 172.446 117.884 173.255 117.884C173.946 117.884 174.506 117.962 174.933 118.118C175.372 118.274 175.693 118.541 175.897 118.921C176.112 119.291 176.219 119.807 176.219 120.468C176.219 120.926 176.126 121.296 175.941 121.579C175.766 121.851 175.508 122.05 175.167 122.177C174.836 122.294 174.441 122.353 173.984 122.353H171.137C171.146 122.985 171.215 123.497 171.341 123.886C171.468 124.265 171.697 124.543 172.028 124.718C172.368 124.883 172.865 124.967 173.517 124.967H176.028V125.667C175.581 125.726 175.143 125.774 174.714 125.814C174.286 125.852 173.794 125.872 173.239 125.872ZM171.122 121.593H173.897C174.335 121.593 174.656 121.515 174.861 121.359C175.075 121.194 175.181 120.902 175.181 120.484C175.181 120.036 175.113 119.69 174.977 119.446C174.851 119.193 174.646 119.018 174.364 118.921C174.091 118.814 173.722 118.76 173.255 118.76C172.709 118.76 172.28 118.843 171.969 119.009C171.657 119.164 171.438 119.446 171.312 119.856C171.185 120.264 171.122 120.844 171.122 121.593ZM182.096 125.784V117.987H182.973L183.251 119.345C183.601 118.925 183.991 118.58 184.418 118.307C184.857 118.034 185.358 117.899 185.923 117.899C186.059 117.899 186.186 117.903 186.303 117.913C186.429 117.922 186.546 117.943 186.653 117.971V119.154C186.527 119.135 186.39 119.121 186.244 119.11C186.098 119.091 185.952 119.082 185.806 119.082C185.446 119.082 185.125 119.126 184.842 119.213C184.56 119.301 184.292 119.432 184.039 119.607C183.786 119.782 183.523 119.996 183.251 120.25V125.784H182.096ZM191.094 125.872C190.276 125.872 189.628 125.751 189.152 125.506C188.685 125.263 188.349 124.85 188.144 124.265C187.939 123.681 187.838 122.883 187.838 121.87C187.838 120.839 187.939 120.036 188.144 119.461C188.358 118.877 188.704 118.468 189.18 118.234C189.658 118.001 190.3 117.884 191.108 117.884C191.8 117.884 192.359 117.962 192.788 118.118C193.226 118.274 193.547 118.541 193.752 118.921C193.966 119.291 194.073 119.807 194.073 120.468C194.073 120.926 193.98 121.296 193.796 121.579C193.62 121.851 193.362 122.05 193.021 122.177C192.69 122.294 192.296 122.353 191.838 122.353H188.991C189.001 122.985 189.068 123.497 189.196 123.886C189.322 124.265 189.551 124.543 189.882 124.718C190.223 124.883 190.719 124.967 191.371 124.967H193.883V125.667C193.435 125.726 192.997 125.774 192.569 125.814C192.141 125.852 191.649 125.872 191.094 125.872ZM188.977 121.593H191.751C192.189 121.593 192.51 121.515 192.715 121.359C192.928 121.194 193.036 120.902 193.036 120.484C193.036 120.036 192.968 119.69 192.832 119.446C192.705 119.193 192.501 119.018 192.218 118.921C191.945 118.814 191.576 118.76 191.108 118.76C190.563 118.76 190.135 118.843 189.824 119.009C189.512 119.164 189.292 119.446 189.166 119.856C189.04 120.264 188.977 120.844 188.977 121.593ZM201.082 129.245V124.995C200.713 125.249 200.298 125.458 199.841 125.623C199.383 125.789 198.941 125.872 198.512 125.872C197.831 125.872 197.285 125.726 196.877 125.434C196.468 125.132 196.176 124.684 196.001 124.09C195.826 123.497 195.738 122.757 195.738 121.87C195.738 120.975 195.84 120.23 196.044 119.637C196.249 119.042 196.566 118.604 196.993 118.323C197.432 118.03 197.987 117.884 198.659 117.884C199.126 117.884 199.579 117.894 200.016 117.913C200.454 117.933 200.863 117.962 201.243 118.001C201.623 118.03 201.954 118.059 202.236 118.088V129.245H201.082ZM198.79 124.923C199.189 124.923 199.579 124.864 199.958 124.747C200.347 124.631 200.722 124.47 201.082 124.265V118.79H198.921C198.405 118.79 198.001 118.916 197.709 119.169C197.417 119.422 197.208 119.777 197.081 120.235C196.954 120.692 196.891 121.228 196.891 121.842C196.891 122.571 196.954 123.165 197.081 123.623C197.217 124.071 197.422 124.402 197.695 124.615C197.967 124.82 198.332 124.923 198.79 124.923ZM206.737 125.872C205.987 125.872 205.408 125.677 204.998 125.287C204.599 124.898 204.4 124.295 204.4 123.476V117.987H205.554V123.185C205.554 123.837 205.7 124.28 205.992 124.514C206.293 124.738 206.713 124.85 207.248 124.85C207.705 124.85 208.123 124.787 208.503 124.659C208.883 124.524 209.273 124.339 209.672 124.104V117.987H210.825V125.784H209.92L209.672 124.923C209.273 125.175 208.82 125.399 208.314 125.595C207.817 125.779 207.292 125.872 206.737 125.872ZM213.175 116.599C213.019 116.599 212.941 116.521 212.941 116.365V115.226C212.941 115.07 213.019 114.993 213.175 114.993H213.993C214.07 114.993 214.124 115.017 214.153 115.066C214.192 115.105 214.212 115.158 214.212 115.226V116.365C214.212 116.521 214.139 116.599 213.993 116.599H213.175ZM212.999 125.784V117.987H214.153V125.784H212.999ZM216.379 125.784V117.987H217.255L217.532 119.345C217.884 118.925 218.272 118.58 218.701 118.307C219.139 118.034 219.641 117.899 220.206 117.899C220.342 117.899 220.468 117.903 220.585 117.913C220.711 117.922 220.829 117.943 220.935 117.971V119.154C220.809 119.135 220.673 119.121 220.526 119.11C220.381 119.091 220.234 119.082 220.088 119.082C219.728 119.082 219.406 119.126 219.124 119.213C218.842 119.301 218.575 119.432 218.321 119.607C218.068 119.782 217.805 119.996 217.532 120.25V125.784H216.379ZM225.376 125.872C224.558 125.872 223.911 125.751 223.434 125.506C222.967 125.263 222.631 124.85 222.427 124.265C222.222 123.681 222.119 122.883 222.119 121.87C222.119 120.839 222.222 120.036 222.427 119.461C222.64 118.877 222.987 118.468 223.463 118.234C223.94 118.001 224.583 117.884 225.391 117.884C226.082 117.884 226.642 117.962 227.071 118.118C227.508 118.274 227.829 118.541 228.034 118.921C228.248 119.291 228.355 119.807 228.355 120.468C228.355 120.926 228.263 121.296 228.077 121.579C227.902 121.851 227.645 122.05 227.304 122.177C226.973 122.294 226.579 122.353 226.121 122.353H223.274C223.283 122.985 223.351 123.497 223.478 123.886C223.604 124.265 223.833 124.543 224.164 124.718C224.505 124.883 225.001 124.967 225.654 124.967H228.165V125.667C227.718 125.726 227.279 125.774 226.851 125.814C226.423 125.852 225.932 125.872 225.376 125.872ZM223.258 121.593H226.033C226.471 121.593 226.793 121.515 226.997 121.359C227.211 121.194 227.318 120.902 227.318 120.484C227.318 120.036 227.25 119.69 227.114 119.446C226.987 119.193 226.783 119.018 226.501 118.921C226.228 118.814 225.858 118.76 225.391 118.76C224.845 118.76 224.417 118.843 224.105 119.009C223.794 119.164 223.575 119.446 223.449 119.856C223.322 120.264 223.258 120.844 223.258 121.593ZM230.298 125.784V117.987H231.202L231.451 118.848C231.841 118.575 232.273 118.342 232.751 118.146C233.237 117.952 233.778 117.855 234.371 117.855C234.859 117.855 235.272 117.966 235.613 118.19C235.963 118.405 236.226 118.678 236.401 119.009C236.644 118.834 236.937 118.658 237.278 118.482C237.628 118.307 237.998 118.162 238.387 118.045C238.786 117.918 239.171 117.855 239.542 117.855C240.105 117.855 240.569 117.976 240.928 118.22C241.288 118.454 241.552 118.774 241.717 119.184C241.892 119.583 241.98 120.031 241.98 120.527V125.784H240.826V120.615C240.826 120.284 240.758 119.992 240.622 119.738C240.495 119.476 240.31 119.271 240.067 119.126C239.824 118.979 239.526 118.906 239.176 118.906C238.738 118.906 238.29 118.989 237.832 119.154C237.375 119.32 236.952 119.52 236.562 119.753C236.611 119.899 236.644 120.045 236.665 120.191C236.693 120.328 236.709 120.473 236.709 120.629V125.784H235.554V120.615C235.554 120.284 235.486 119.992 235.351 119.738C235.223 119.476 235.039 119.271 234.795 119.126C234.562 118.979 234.27 118.906 233.919 118.906C233.598 118.906 233.296 118.94 233.013 119.009C232.742 119.067 232.478 119.154 232.226 119.271C231.982 119.378 231.724 119.509 231.451 119.665V125.784H230.298ZM247.123 125.872C246.306 125.872 245.658 125.751 245.181 125.506C244.714 125.263 244.378 124.85 244.174 124.265C243.97 123.681 243.867 122.883 243.867 121.87C243.867 120.839 243.97 120.036 244.174 119.461C244.388 118.877 244.733 118.468 245.21 118.234C245.688 118.001 246.33 117.884 247.139 117.884C247.83 117.884 248.39 117.962 248.817 118.118C249.256 118.274 249.576 118.541 249.781 118.921C249.996 119.291 250.103 119.807 250.103 120.468C250.103 120.926 250.01 121.296 249.825 121.579C249.65 121.851 249.392 122.05 249.051 122.177C248.72 122.294 248.325 122.353 247.868 122.353H245.021C245.03 122.985 245.099 123.497 245.225 123.886C245.352 124.265 245.581 124.543 245.912 124.718C246.252 124.883 246.749 124.967 247.401 124.967H249.912V125.667C249.465 125.726 249.027 125.774 248.598 125.814C248.17 125.852 247.678 125.872 247.123 125.872ZM245.006 121.593H247.781C248.219 121.593 248.54 121.515 248.745 121.359C248.959 121.194 249.065 120.902 249.065 120.484C249.065 120.036 248.997 119.69 248.861 119.446C248.735 119.193 248.53 119.018 248.248 118.921C247.975 118.814 247.606 118.76 247.139 118.76C246.593 118.76 246.164 118.843 245.853 119.009C245.541 119.164 245.322 119.446 245.196 119.856C245.069 120.264 245.006 120.844 245.006 121.593ZM252.045 125.784V117.987H252.95L253.198 118.848C253.569 118.585 254.002 118.356 254.498 118.162C254.995 117.957 255.511 117.855 256.047 117.855C256.621 117.855 257.083 117.976 257.433 118.22C257.784 118.463 258.042 118.785 258.208 119.184C258.373 119.583 258.455 120.016 258.455 120.484V125.784H257.302V120.615C257.302 120.284 257.234 119.992 257.097 119.738C256.971 119.476 256.786 119.271 256.542 119.126C256.309 118.979 256.017 118.906 255.667 118.906C255.345 118.906 255.043 118.94 254.761 119.009C254.488 119.067 254.225 119.154 253.972 119.271C253.729 119.378 253.471 119.509 253.198 119.665V125.784H252.045ZM263.214 125.784C262.708 125.784 262.29 125.702 261.959 125.536C261.628 125.371 261.385 125.103 261.229 124.733C261.072 124.363 261 123.871 261.009 123.258L261.053 118.935H259.812V118.19L261.068 117.987L261.258 115.81H262.148V117.987H264.397V118.935H262.148V123.258C262.148 123.599 262.183 123.871 262.251 124.076C262.328 124.28 262.426 124.435 262.543 124.543C262.669 124.65 262.801 124.727 262.937 124.776C263.074 124.815 263.205 124.839 263.331 124.85L264.281 124.937V125.784H263.214ZM268.678 125.872C268.484 125.872 268.246 125.867 267.963 125.857C267.681 125.847 267.384 125.833 267.072 125.814C266.771 125.794 266.493 125.774 266.24 125.755C265.997 125.726 265.807 125.697 265.67 125.667V124.967H268.869C269.189 124.967 269.467 124.942 269.7 124.893C269.935 124.845 270.115 124.738 270.241 124.572C270.377 124.407 270.446 124.158 270.446 123.828V123.476C270.446 123.136 270.334 122.874 270.11 122.689C269.886 122.494 269.525 122.396 269.03 122.396H267.934C267.476 122.396 267.068 122.338 266.708 122.221C266.356 122.104 266.085 121.905 265.889 121.623C265.695 121.34 265.597 120.951 265.597 120.454V120.045C265.597 119.558 265.69 119.159 265.875 118.848C266.069 118.536 266.367 118.302 266.766 118.146C267.175 117.991 267.7 117.913 268.342 117.913C268.615 117.913 268.927 117.922 269.277 117.943C269.637 117.962 269.988 117.991 270.328 118.03C270.669 118.059 270.947 118.093 271.161 118.132V118.834H268.153C267.656 118.834 267.272 118.916 267 119.082C266.736 119.247 266.605 119.568 266.605 120.045V120.367C266.605 120.668 266.668 120.897 266.795 121.053C266.921 121.199 267.096 121.296 267.32 121.345C267.555 121.394 267.822 121.418 268.124 121.418H269.233C269.945 121.418 270.494 121.583 270.883 121.914C271.273 122.246 271.468 122.722 271.468 123.345V123.886C271.468 124.412 271.346 124.82 271.103 125.112C270.869 125.394 270.543 125.595 270.124 125.711C269.716 125.818 269.233 125.872 268.678 125.872ZM273.322 125.798C273.167 125.798 273.089 125.721 273.089 125.565V124.397C273.089 124.241 273.167 124.164 273.322 124.164H273.965C274.12 124.164 274.199 124.241 274.199 124.397V125.565C274.199 125.643 274.174 125.702 274.125 125.74C274.087 125.779 274.033 125.798 273.965 125.798H273.322Z" fill="white"/>
<circle cx="266.367" cy="-12.9981" r="47.7206" fill="white" fill-opacity="0.2"/>
<circle cx="-23.9757" cy="60.3417" r="47.7206" fill="white" fill-opacity="0.2"/>
</g>
<defs>
<linearGradient id="paint0_linear_1499_9389" x1="159.269" y1="0" x2="159.269" y2="176.64" gradientUnits="userSpaceOnUse">
<stop stop-color="#7030A0"/>
<stop offset="1" stop-color="#B53784"/>
</linearGradient>
<clipPath id="clip0_1499_9389">
<rect x="0.40625" width="317.726" height="176.64" rx="16.0743" fill="white"/>
</clipPath>
</defs>
</svg>
