<svg width="338" height="177" viewBox="0 0 338 177" fill="none" xmlns="http://www.w3.org/2000/svg">
<g filter="url(#filter0_d_1499_9389)">
<g clip-path="url(#clip0_1499_9389)">
<rect x="19.769" y="0.4375" width="317.256" height="175.764" rx="16" fill="white"/>
<rect x="19.769" y="0.4375" width="317.256" height="175.764" rx="16" fill="url(#paint0_linear_1499_9389)"/>
<path d="M84.6167 69.0845V48.09H93.4684C94.1493 48.09 94.8396 48.1751 95.5395 48.3454C96.2582 48.4966 96.9107 48.8182 97.4971 49.31C98.1023 49.7829 98.5846 50.5016 98.944 51.4662C99.3222 52.4308 99.5114 53.7075 99.5114 55.2962C99.5114 56.885 99.3222 58.1711 98.944 59.1547C98.5846 60.1382 98.1118 60.8853 97.5254 61.396C96.9391 61.9066 96.3055 62.2471 95.6246 62.4173C94.9437 62.5875 94.2817 62.6727 93.6386 62.6727C93.2982 62.6727 92.901 62.6632 92.4471 62.6443C91.9931 62.6065 91.5298 62.5592 91.0569 62.5024C90.603 62.4457 90.1774 62.3984 89.7802 62.3606C89.383 62.3038 89.0615 62.2565 88.8156 62.2187V69.0845H84.6167ZM88.8156 58.8993H92.9861C93.4778 58.8993 93.894 58.7858 94.2344 58.5589C94.5938 58.313 94.8586 57.9347 95.0288 57.424C95.199 56.8944 95.2842 56.1947 95.2842 55.3246C95.2842 54.4735 95.1896 53.802 95.0004 53.3103C94.8302 52.7996 94.5749 52.4308 94.2344 52.2038C93.9129 51.9768 93.5252 51.8634 93.0712 51.8634H88.8156V58.8993ZM105.273 69.2547C104.12 69.2547 103.183 68.9143 102.465 68.2334C101.746 67.5525 101.387 66.6068 101.387 65.3963V64.0345C101.387 62.8807 101.793 61.935 102.606 61.1974C103.42 60.4408 104.687 60.0625 106.409 60.0625H110.295V59.0128C110.295 58.5399 110.21 58.1523 110.04 57.8496C109.87 57.5281 109.548 57.3011 109.075 57.1687C108.622 57.0174 107.921 56.9417 106.976 56.9417H102.408V54.5018C103.146 54.2749 103.997 54.0763 104.961 53.9061C105.945 53.7358 107.127 53.6507 108.508 53.6507C109.775 53.6507 110.853 53.802 111.742 54.1047C112.65 54.4073 113.331 54.9274 113.785 55.6651C114.257 56.4027 114.494 57.424 114.494 58.7291V69.0845H111.175L110.494 67.4673C110.361 67.6186 110.134 67.7888 109.813 67.978C109.491 68.1672 109.094 68.3658 108.622 68.5738C108.168 68.763 107.647 68.9237 107.061 69.0561C106.494 69.1885 105.897 69.2547 105.273 69.2547ZM107.402 66.3325C107.59 66.3325 107.799 66.3136 108.026 66.2758C108.271 66.219 108.517 66.1623 108.763 66.1055C109.028 66.0298 109.264 65.9637 109.473 65.9069C109.7 65.8312 109.879 65.7651 110.012 65.7083C110.163 65.6516 110.257 65.6138 110.295 65.5949V62.0485L107.742 62.2187C107.004 62.2755 106.455 62.4646 106.096 62.7861C105.756 63.1076 105.585 63.5427 105.585 64.0912V64.7154C105.585 65.0936 105.661 65.4057 105.812 65.6516C105.983 65.8975 106.2 66.0772 106.465 66.1906C106.749 66.2852 107.061 66.3325 107.402 66.3325ZM117.637 69.0845V53.8493H120.872L121.836 56.1757C122.384 55.4759 122.999 54.8801 123.68 54.3884C124.381 53.8966 125.203 53.6507 126.149 53.6507C126.356 53.6507 126.565 53.6601 126.773 53.6791C127 53.698 127.207 53.7358 127.397 53.7926V58.105C127.113 58.0672 126.81 58.0388 126.489 58.0198C126.186 57.982 125.893 57.9631 125.61 57.9631C125.061 57.9631 124.56 58.0293 124.106 58.1617C123.671 58.2752 123.264 58.4548 122.886 58.7007C122.526 58.9277 122.177 59.2304 121.836 59.6086V69.0845H117.637ZM135.698 69.0845C134.526 69.0845 133.571 68.9143 132.833 68.5738C132.115 68.2334 131.595 67.6659 131.273 66.8716C130.951 66.0772 130.81 65.0085 130.847 63.6656L130.989 57.2254H128.606V54.5302L131.131 53.8493L131.698 49.5937H135.018V53.8493H138.592V57.2254H135.018V63.6373C135.018 64.0534 135.056 64.3939 135.131 64.6586C135.207 64.9234 135.311 65.1409 135.443 65.3112C135.595 65.4624 135.765 65.5759 135.954 65.6516C136.143 65.7273 136.333 65.7745 136.521 65.7935L138.45 65.9637V69.0845H135.698ZM140.938 69.0845V53.8493H144.399L145.137 55.4097C145.704 54.9368 146.414 54.5208 147.265 54.1614C148.135 53.7832 149.024 53.594 149.932 53.594C151.18 53.594 152.144 53.8399 152.825 54.3316C153.506 54.8234 153.979 55.4854 154.244 56.3176C154.528 57.1309 154.669 58.0388 154.669 59.0412V69.0845H150.471V59.5802C150.471 59.0885 150.376 58.6818 150.187 58.3603C150.017 58.0388 149.771 57.7929 149.449 57.6226C149.128 57.4524 148.74 57.3673 148.286 57.3673C147.889 57.3673 147.502 57.4146 147.123 57.5092C146.764 57.6037 146.414 57.7361 146.073 57.9064C145.752 58.0766 145.44 58.2752 145.137 58.5021V69.0845H140.938ZM164.223 69.2263C162.539 69.2263 161.197 69.0088 160.195 68.5738C159.192 68.1199 158.464 67.3255 158.01 66.1906C157.574 65.0558 157.358 63.486 157.358 61.4811C157.358 59.4194 157.565 57.8212 157.982 56.6864C158.397 55.5516 159.097 54.7572 160.081 54.3033C161.064 53.8493 162.397 53.6223 164.082 53.6223C165.594 53.6223 166.805 53.7736 167.713 54.0763C168.621 54.3789 169.273 54.9085 169.671 55.6651C170.086 56.4216 170.295 57.4902 170.295 58.871C170.295 59.8923 170.086 60.7057 169.671 61.3109C169.273 61.8972 168.706 62.3228 167.968 62.5875C167.231 62.8335 166.36 62.9564 165.358 62.9564H161.528C161.566 63.7318 161.679 64.356 161.869 64.8288C162.076 65.2828 162.445 65.6138 162.975 65.8218C163.523 66.011 164.308 66.1055 165.33 66.1055H169.784V68.5738C169.046 68.7251 168.233 68.8765 167.344 69.0277C166.474 69.1602 165.433 69.2263 164.223 69.2263ZM161.471 60.4597H164.933C165.5 60.4597 165.915 60.3462 166.181 60.1193C166.445 59.8923 166.578 59.4857 166.578 58.8993C166.578 58.3509 166.493 57.9158 166.323 57.5943C166.153 57.2538 165.887 57.0174 165.528 56.885C165.169 56.7337 164.686 56.658 164.082 56.658C163.438 56.658 162.927 56.7715 162.549 56.9985C162.171 57.2065 161.897 57.5849 161.727 58.1333C161.556 58.6818 161.471 59.4573 161.471 60.4597ZM173.05 69.0845V53.8493H176.284L177.249 56.1757C177.797 55.4759 178.412 54.8801 179.093 54.3884C179.792 53.8966 180.615 53.6507 181.561 53.6507C181.769 53.6507 181.976 53.6601 182.185 53.6791C182.412 53.698 182.62 53.7358 182.809 53.7926V58.105C182.526 58.0672 182.223 58.0388 181.901 58.0198C181.598 57.982 181.306 57.9631 181.022 57.9631C180.473 57.9631 179.972 58.0293 179.518 58.1617C179.083 58.2752 178.676 58.4548 178.298 58.7007C177.939 58.9277 177.589 59.2304 177.249 59.6086V69.0845H173.05ZM191.991 69.0845L194.431 48.09H198.46L203.283 64.1763L208.078 48.09H212.078L214.546 69.0845H210.489L208.673 53.6223L209.326 53.6791L205.212 69.0845H201.269L197.098 53.6791L197.807 53.6507L196.048 69.0845H191.991ZM223.655 69.2263C222.407 69.2263 221.338 69.1034 220.449 68.8575C219.56 68.5928 218.832 68.1577 218.265 67.5525C217.716 66.9472 217.309 66.1433 217.045 65.1409C216.799 64.1385 216.676 62.8996 216.676 61.4243C216.676 59.8734 216.799 58.5967 217.045 57.5943C217.309 56.5729 217.716 55.7785 218.265 55.2111C218.832 54.6248 219.56 54.2181 220.449 53.9912C221.357 53.7453 222.425 53.6223 223.655 53.6223C224.922 53.6223 226 53.7453 226.89 53.9912C227.778 54.2371 228.497 54.6531 229.046 55.2395C229.613 55.8069 230.019 56.6013 230.266 57.6226C230.53 58.6251 230.663 59.8923 230.663 61.4243C230.663 62.9374 230.539 64.2047 230.294 65.226C230.048 66.2284 229.651 67.0228 229.103 67.6092C228.553 68.1956 227.826 68.6116 226.918 68.8575C226.028 69.1034 224.941 69.2263 223.655 69.2263ZM223.655 65.8786C224.166 65.8786 224.592 65.8313 224.932 65.7367C225.291 65.6422 225.574 65.453 225.783 65.1693C226.01 64.8666 226.18 64.4127 226.294 63.8075C226.407 63.2023 226.464 62.4079 226.464 61.4243C226.464 60.4219 226.407 59.6276 226.294 59.0412C226.18 58.436 226.01 57.9915 225.783 57.7078C225.574 57.4051 225.291 57.2065 224.932 57.112C224.592 57.0174 224.166 56.9701 223.655 56.9701C223.163 56.9701 222.737 57.0174 222.379 57.112C222.038 57.2065 221.754 57.4051 221.527 57.7078C221.301 57.9915 221.13 58.436 221.017 59.0412C220.922 59.6276 220.875 60.4219 220.875 61.4243C220.875 62.4079 220.922 63.2023 221.017 63.8075C221.13 64.4127 221.301 64.8666 221.527 65.1693C221.754 65.453 222.038 65.6422 222.379 65.7367C222.737 65.8313 223.163 65.8786 223.655 65.8786ZM238.442 69.2547C237.25 69.2547 236.248 69.0088 235.434 68.5171C234.621 68.0064 234.007 67.1931 233.59 66.0772C233.193 64.9423 232.994 63.4576 232.994 61.6229C232.994 59.7315 233.165 58.1995 233.505 57.0269C233.865 55.8542 234.461 54.9936 235.292 54.4451C236.124 53.8966 237.269 53.6223 238.725 53.6223C239.425 53.6223 240.115 53.698 240.796 53.8493C241.477 53.9817 242.082 54.1425 242.612 54.3316V47.4375H246.839V69.0845H243.293L242.612 67.6376C242.291 67.9402 241.894 68.2144 241.421 68.4603C240.967 68.7062 240.484 68.9048 239.974 69.0561C239.463 69.1885 238.952 69.2547 238.442 69.2547ZM239.917 65.8786C240.484 65.8786 240.995 65.784 241.449 65.5949C241.922 65.4057 242.309 65.2166 242.612 65.0274V57.3673C242.234 57.2349 241.837 57.1025 241.421 56.9701C241.004 56.8377 240.56 56.7715 240.087 56.7715C239.387 56.7715 238.82 56.8944 238.385 57.1403C237.968 57.3863 237.666 57.8496 237.477 58.5305C237.287 59.1925 237.193 60.1571 237.193 61.4243C237.193 62.597 237.278 63.5144 237.449 64.1763C237.638 64.8194 237.931 65.2638 238.328 65.5097C238.725 65.7557 239.255 65.8786 239.917 65.8786ZM256.4 69.2263C254.717 69.2263 253.375 69.0088 252.372 68.5738C251.37 68.1199 250.641 67.3255 250.187 66.1906C249.752 65.0558 249.535 63.486 249.535 61.4811C249.535 59.4194 249.743 57.8212 250.159 56.6864C250.575 55.5516 251.275 54.7572 252.258 54.3033C253.242 53.8493 254.576 53.6223 256.258 53.6223C257.772 53.6223 258.982 53.7736 259.89 54.0763C260.798 54.3789 261.45 54.9085 261.848 55.6651C262.264 56.4216 262.472 57.4902 262.472 58.871C262.472 59.8923 262.264 60.7057 261.848 61.3109C261.45 61.8972 260.883 62.3228 260.145 62.5875C259.408 62.8335 258.538 62.9564 257.535 62.9564H253.705C253.744 63.7318 253.857 64.356 254.046 64.8288C254.254 65.2828 254.623 65.6138 255.152 65.8218C255.701 66.011 256.485 66.1055 257.507 66.1055H261.961V68.5738C261.223 68.7251 260.411 68.8765 259.521 69.0277C258.652 69.1602 257.611 69.2263 256.4 69.2263ZM253.648 60.4597H257.11C257.677 60.4597 258.093 60.3462 258.358 60.1193C258.623 59.8923 258.755 59.4857 258.755 58.8993C258.755 58.3509 258.67 57.9158 258.5 57.5943C258.33 57.2538 258.065 57.0174 257.705 56.885C257.347 56.7337 256.864 56.658 256.258 56.658C255.616 56.658 255.105 56.7715 254.726 56.9985C254.349 57.2065 254.074 57.5849 253.904 58.1333C253.733 58.6818 253.648 59.4573 253.648 60.4597ZM269.993 69.1412C268.915 69.1412 268.017 68.971 267.298 68.6305C266.599 68.2711 266.078 67.7321 265.737 67.0134C265.397 66.2758 265.227 65.3301 265.227 64.1763V47.4375H269.426V63.5522C269.426 64.1196 269.482 64.5735 269.596 64.914C269.709 65.2355 269.88 65.472 270.107 65.6232C270.353 65.7745 270.656 65.8786 271.014 65.9353L272.178 66.1055V69.1412H269.993Z" fill="white"/>
<path d="M71.5 81.2539L285.295 81.2705" stroke="#D0D0D0" stroke-width="0.726765"/>
<path d="M92.9051 104.449C92.2171 104.449 91.6115 104.386 91.0881 104.26C90.5746 104.124 90.1434 103.872 89.7945 103.504C89.4554 103.135 89.1985 102.593 89.0242 101.876C88.8594 101.159 88.777 100.219 88.777 99.0561C88.777 97.8929 88.8643 96.9536 89.0388 96.2362C89.2131 95.5097 89.4748 94.9575 89.8236 94.5796C90.1725 94.1915 90.6037 93.9301 91.1172 93.7943C91.6308 93.6494 92.2268 93.5765 92.9051 93.5765C93.6028 93.5765 94.2084 93.6494 94.7221 93.7943C95.2453 93.9301 95.6765 94.1915 96.0157 94.5796C96.3645 94.9575 96.6213 95.5097 96.786 96.2362C96.9508 96.9536 97.0332 97.8929 97.0332 99.0561C97.0332 100.219 96.9459 101.159 96.7714 101.876C96.6068 102.593 96.3499 103.135 96.0011 103.504C95.6619 103.872 95.2356 104.124 94.7221 104.26C94.2084 104.386 93.6028 104.449 92.9051 104.449ZM92.9051 103.417C93.4478 103.417 93.908 103.363 94.2859 103.257C94.6639 103.151 94.9691 102.947 95.2017 102.646C95.4439 102.336 95.6184 101.895 95.725 101.324C95.8316 100.752 95.8849 99.9964 95.8849 99.0561C95.8849 98.0773 95.8267 97.292 95.7104 96.7013C95.6038 96.1106 95.4294 95.6648 95.1871 95.3638C94.9546 95.0639 94.6493 94.8653 94.2715 94.768C93.9031 94.6708 93.4478 94.6232 92.9051 94.6232C92.4012 94.6232 91.9604 94.6708 91.5824 94.768C91.2142 94.8653 90.904 95.0639 90.6522 95.3638C90.4099 95.6648 90.2258 96.1106 90.0998 96.7013C89.9835 97.292 89.9253 98.0773 89.9253 99.0561C89.9253 99.9964 89.9738 100.752 90.0708 101.324C90.1773 101.895 90.3469 102.336 90.5795 102.646C90.812 102.947 91.1172 103.151 91.4952 103.257C91.8827 103.363 92.3528 103.417 92.9051 103.417ZM98.9888 104.361V96.6H99.89L100.137 97.4572C100.505 97.1958 100.936 96.9678 101.431 96.7743C101.925 96.5706 102.439 96.4693 102.972 96.4693C103.543 96.4693 104.003 96.5899 104.353 96.832C104.701 97.0742 104.958 97.3944 105.123 97.7916C105.287 98.1888 105.37 98.6204 105.37 99.0855V104.361H104.221V99.2162C104.221 98.8869 104.154 98.5961 104.018 98.3438C103.892 98.0824 103.708 97.8787 103.466 97.7338C103.233 97.5879 102.942 97.515 102.594 97.515C102.274 97.515 101.974 97.5494 101.692 97.6173C101.421 97.6751 101.159 97.7622 100.907 97.8787C100.665 97.9851 100.408 98.1158 100.137 98.2708V104.361H98.9888ZM106.793 100.626V99.6661H111.051V100.626H106.793ZM115.031 104.449C114.391 104.449 113.863 104.313 113.447 104.041C113.039 103.761 112.734 103.334 112.531 102.763C112.337 102.181 112.24 101.44 112.24 100.538C112.24 99.5789 112.337 98.8038 112.531 98.2131C112.724 97.6122 113.034 97.1765 113.461 96.905C113.887 96.6334 114.459 96.4977 115.176 96.4977C115.612 96.4977 116.039 96.5463 116.455 96.6436C116.872 96.7398 117.24 96.8462 117.56 96.9627V93.2715H118.708V104.361H117.778L117.56 103.576C117.414 103.703 117.197 103.834 116.906 103.969C116.625 104.105 116.315 104.221 115.976 104.318C115.646 104.405 115.331 104.449 115.031 104.449ZM115.365 103.504C115.811 103.504 116.213 103.436 116.571 103.301C116.94 103.155 117.27 103.005 117.56 102.85V97.7774C117.211 97.67 116.876 97.5828 116.557 97.515C116.237 97.4379 115.878 97.3994 115.481 97.3994C114.988 97.3994 114.586 97.4906 114.275 97.6751C113.965 97.8595 113.737 98.1786 113.592 98.6346C113.456 99.0804 113.389 99.7005 113.389 100.495C113.389 101.212 113.452 101.794 113.577 102.24C113.713 102.686 113.926 103.01 114.217 103.213C114.507 103.407 114.891 103.504 115.365 103.504ZM123.843 104.449C123.028 104.449 122.383 104.328 121.909 104.085C121.444 103.843 121.11 103.431 120.906 102.85C120.702 102.268 120.601 101.474 120.601 100.466C120.601 99.4391 120.702 98.6397 120.906 98.0672C121.119 97.4866 121.463 97.0793 121.938 96.8462C122.413 96.6142 123.052 96.4977 123.857 96.4977C124.545 96.4977 125.102 96.5757 125.529 96.7307C125.964 96.8857 126.284 97.1522 126.487 97.5302C126.701 97.898 126.807 98.4117 126.807 99.0703C126.807 99.5262 126.715 99.8941 126.531 100.176C126.356 100.446 126.1 100.645 125.761 100.772C125.431 100.887 125.039 100.946 124.583 100.946H121.749C121.758 101.575 121.826 102.085 121.953 102.472C122.078 102.85 122.306 103.126 122.636 103.301C122.975 103.465 123.469 103.548 124.118 103.548H126.619V104.245C126.173 104.304 125.736 104.351 125.31 104.391C124.884 104.429 124.395 104.449 123.843 104.449ZM121.735 100.19H124.496C124.932 100.19 125.252 100.112 125.456 99.9569C125.668 99.7927 125.776 99.5019 125.776 99.0855C125.776 98.6397 125.708 98.2952 125.572 98.053C125.445 97.8007 125.243 97.6264 124.961 97.5302C124.69 97.4238 124.322 97.3701 123.857 97.3701C123.314 97.3701 122.888 97.4521 122.578 97.6173C122.268 97.7723 122.049 98.053 121.923 98.4603C121.798 98.8666 121.735 99.4442 121.735 100.19ZM128.741 104.361V96.6H129.642L129.889 97.4572C130.277 97.1856 130.708 96.9536 131.182 96.7591C131.667 96.5655 132.205 96.4693 132.797 96.4693C133.281 96.4693 133.692 96.5797 134.032 96.8026C134.38 97.0164 134.642 97.288 134.817 97.6173C135.059 97.443 135.35 97.2687 135.688 97.0935C136.038 96.9192 136.406 96.7743 136.793 96.6578C137.191 96.5321 137.573 96.4693 137.942 96.4693C138.503 96.4693 138.964 96.5899 139.323 96.832C139.681 97.0651 139.943 97.3842 140.107 97.7916C140.281 98.1888 140.369 98.6346 140.369 99.1291V104.361H139.221V99.2162C139.221 98.8869 139.153 98.5961 139.017 98.3438C138.891 98.0824 138.707 97.8787 138.465 97.7338C138.223 97.5879 137.927 97.515 137.578 97.515C137.142 97.515 136.697 97.598 136.241 97.7622C135.786 97.9273 135.364 98.1259 134.976 98.358C135.025 98.5039 135.059 98.6488 135.078 98.7947C135.107 98.9305 135.122 99.0754 135.122 99.2304V104.361H133.973V99.2162C133.973 98.8869 133.906 98.5961 133.77 98.3438C133.644 98.0824 133.46 97.8787 133.218 97.7338C132.985 97.5879 132.694 97.515 132.346 97.515C132.026 97.515 131.726 97.5494 131.444 97.6173C131.173 97.6751 130.911 97.7622 130.66 97.8787C130.417 97.9851 130.16 98.1158 129.889 98.2708V104.361H128.741ZM144.036 104.449C143.464 104.449 142.994 104.279 142.625 103.94C142.257 103.601 142.073 103.121 142.073 102.501V101.949C142.073 101.338 142.271 100.843 142.669 100.466C143.076 100.088 143.687 99.8991 144.501 99.8991H147.131V98.9396C147.131 98.6204 147.073 98.3489 146.957 98.1259C146.85 97.8929 146.652 97.7136 146.361 97.5879C146.08 97.4623 145.668 97.3994 145.126 97.3994H142.712V96.7155C143.052 96.6578 143.445 96.604 143.89 96.5564C144.346 96.5078 144.879 96.4835 145.488 96.4835C146.119 96.4733 146.642 96.5514 147.059 96.7155C147.475 96.8807 147.78 97.1421 147.974 97.5008C148.178 97.8493 148.28 98.3104 148.28 98.8818V104.361H147.393L147.175 103.475C147.136 103.513 147.015 103.581 146.812 103.679C146.618 103.775 146.366 103.886 146.056 104.013C145.755 104.128 145.426 104.231 145.067 104.318C144.718 104.405 144.375 104.449 144.036 104.449ZM144.515 103.591C144.689 103.601 144.888 103.581 145.111 103.533C145.333 103.485 145.561 103.431 145.794 103.374C146.027 103.306 146.24 103.238 146.434 103.17C146.638 103.102 146.802 103.043 146.928 102.996C147.054 102.947 147.122 102.923 147.131 102.923V100.481L144.762 100.582C144.21 100.601 143.813 100.737 143.57 100.989C143.337 101.242 143.222 101.566 143.222 101.963V102.312C143.222 102.622 143.285 102.874 143.41 103.068C143.546 103.252 143.711 103.383 143.905 103.461C144.108 103.538 144.311 103.581 144.515 103.591ZM150.444 104.361V96.6H151.345L151.592 97.4572C151.961 97.1958 152.392 96.9678 152.886 96.7743C153.381 96.5706 153.894 96.4693 154.427 96.4693C154.999 96.4693 155.459 96.5899 155.807 96.832C156.157 97.0742 156.413 97.3944 156.578 97.7916C156.743 98.1888 156.826 98.6204 156.826 99.0855V104.361H155.677V99.2162C155.677 98.8869 155.609 98.5961 155.474 98.3438C155.347 98.0824 155.163 97.8787 154.921 97.7338C154.689 97.5879 154.398 97.515 154.049 97.515C153.729 97.515 153.429 97.5494 153.148 97.6173C152.876 97.6751 152.615 97.7622 152.363 97.8787C152.121 97.9851 151.864 98.1158 151.592 98.2708V104.361H150.444ZM161.504 104.449C160.864 104.449 160.337 104.313 159.92 104.041C159.513 103.761 159.208 103.334 159.004 102.763C158.811 102.181 158.713 101.44 158.713 100.538C158.713 99.5789 158.811 98.8038 159.004 98.2131C159.198 97.6122 159.508 97.1765 159.934 96.905C160.361 96.6334 160.932 96.4977 161.65 96.4977C162.085 96.4977 162.512 96.5463 162.928 96.6436C163.345 96.7398 163.714 96.8462 164.033 96.9627V93.2715H165.182V104.361H164.251L164.033 103.576C163.888 103.703 163.67 103.834 163.379 103.969C163.098 104.105 162.788 104.221 162.449 104.318C162.12 104.405 161.805 104.449 161.504 104.449ZM161.838 103.504C162.284 103.504 162.686 103.436 163.045 103.301C163.413 103.155 163.742 103.005 164.033 102.85V97.7774C163.684 97.67 163.35 97.5828 163.03 97.515C162.711 97.4379 162.352 97.3994 161.955 97.3994C161.46 97.3994 161.058 97.4906 160.748 97.6751C160.438 97.8595 160.211 98.1786 160.065 98.6346C159.929 99.0804 159.861 99.7005 159.861 100.495C159.861 101.212 159.924 101.794 160.051 102.24C160.187 102.686 160.399 103.01 160.69 103.213C160.981 103.407 161.364 103.504 161.838 103.504ZM174.087 104.449C173.652 104.449 173.244 104.391 172.866 104.274C172.488 104.158 172.159 103.954 171.878 103.663C171.598 103.374 171.379 102.971 171.224 102.458C171.069 101.944 170.992 101.289 170.992 100.495C170.992 99.6904 171.065 99.0318 171.21 98.5181C171.355 97.9952 171.563 97.5879 171.835 97.2971C172.106 97.0063 172.436 96.8026 172.823 96.6871C173.211 96.5706 173.642 96.5129 174.117 96.5129C174.505 96.5129 174.926 96.5321 175.381 96.5706C175.837 96.6 176.273 96.6476 176.689 96.7155V97.3994H174.422C173.928 97.3994 173.511 97.4815 173.172 97.6457C172.833 97.8108 172.576 98.1209 172.401 98.5768C172.227 99.0217 172.14 99.6711 172.14 100.524C172.14 101.348 172.232 101.977 172.417 102.414C172.6 102.85 172.862 103.151 173.201 103.315C173.54 103.47 173.952 103.548 174.437 103.548H176.806V104.217C176.583 104.255 176.322 104.294 176.021 104.332C175.73 104.372 175.42 104.4 175.09 104.419C174.761 104.439 174.427 104.449 174.087 104.449ZM181.475 104.449C180.913 104.449 180.419 104.391 179.993 104.274C179.576 104.158 179.227 103.954 178.946 103.663C178.665 103.374 178.456 102.971 178.321 102.458C178.185 101.934 178.117 101.27 178.117 100.466C178.117 99.6519 178.185 98.9882 178.321 98.4745C178.456 97.9517 178.665 97.5494 178.946 97.2677C179.227 96.9779 179.576 96.7793 179.993 96.6719C180.419 96.5564 180.913 96.4977 181.475 96.4977C182.037 96.4977 182.527 96.5564 182.943 96.6719C183.37 96.7885 183.723 96.9921 184.004 97.2829C184.286 97.5636 184.493 97.9659 184.629 98.4897C184.774 99.0024 184.847 99.662 184.847 100.466C184.847 101.28 184.774 101.949 184.629 102.472C184.493 102.985 184.286 103.388 184.004 103.679C183.732 103.959 183.384 104.158 182.957 104.274C182.532 104.391 182.037 104.449 181.475 104.449ZM181.475 103.504C181.834 103.504 182.149 103.47 182.42 103.402C182.701 103.334 182.933 103.198 183.117 102.996C183.302 102.792 183.442 102.486 183.539 102.08C183.636 101.672 183.685 101.134 183.685 100.466C183.685 99.7877 183.636 99.2496 183.539 98.8524C183.442 98.4553 183.302 98.1553 183.117 97.9517C182.933 97.748 182.701 97.6122 182.42 97.5443C182.149 97.4765 181.834 97.443 181.475 97.443C181.107 97.443 180.787 97.4765 180.515 97.5443C180.245 97.6122 180.017 97.748 179.832 97.9517C179.648 98.1553 179.508 98.4553 179.411 98.8524C179.314 99.2496 179.266 99.7877 179.266 100.466C179.266 101.134 179.314 101.672 179.411 102.08C179.508 102.486 179.648 102.792 179.832 102.996C180.017 103.198 180.245 103.334 180.515 103.402C180.787 103.47 181.107 103.504 181.475 103.504ZM186.782 104.361V96.6H187.684L187.931 97.4572C188.299 97.1958 188.731 96.9678 189.224 96.7743C189.719 96.5706 190.232 96.4693 190.765 96.4693C191.337 96.4693 191.797 96.5899 192.146 96.832C192.495 97.0742 192.751 97.3944 192.917 97.7916C193.082 98.1888 193.164 98.6204 193.164 99.0855V104.361H192.016V99.2162C192.016 98.8869 191.948 98.5961 191.812 98.3438C191.685 98.0824 191.502 97.8787 191.26 97.7338C191.027 97.5879 190.736 97.515 190.387 97.515C190.067 97.515 189.767 97.5494 189.486 97.6173C189.215 97.6751 188.953 97.7622 188.701 97.8787C188.459 97.9851 188.202 98.1158 187.931 98.2708V104.361H186.782ZM198.002 104.449C197.808 104.449 197.571 104.444 197.29 104.434C197.009 104.424 196.713 104.41 196.403 104.391C196.103 104.372 195.827 104.351 195.575 104.332C195.333 104.304 195.144 104.274 195.008 104.245V103.548H198.191C198.511 103.548 198.787 103.524 199.019 103.475C199.252 103.426 199.432 103.32 199.557 103.155C199.693 102.991 199.761 102.743 199.761 102.414V102.064C199.761 101.726 199.65 101.465 199.427 101.28C199.204 101.087 198.845 100.989 198.352 100.989H197.261C196.805 100.989 196.398 100.932 196.04 100.815C195.691 100.699 195.42 100.5 195.226 100.219C195.032 99.9376 194.935 99.5506 194.935 99.0561V98.6488C194.935 98.1644 195.027 97.7673 195.212 97.4572C195.405 97.1471 195.701 96.9141 196.098 96.7591C196.505 96.6041 197.028 96.527 197.668 96.527C197.939 96.527 198.249 96.5362 198.598 96.5564C198.956 96.5757 199.306 96.6041 199.644 96.6436C199.984 96.6719 200.261 96.7064 200.473 96.7449V97.443H197.479C196.985 97.443 196.602 97.5251 196.331 97.6902C196.069 97.8544 195.938 98.1746 195.938 98.6488V98.969C195.938 99.2689 196.001 99.4969 196.127 99.6519C196.253 99.7978 196.427 99.8941 196.65 99.9427C196.883 99.9913 197.15 100.016 197.45 100.016H198.554C199.262 100.016 199.81 100.18 200.197 100.509C200.585 100.839 200.778 101.314 200.778 101.934V102.472C200.778 102.996 200.658 103.402 200.416 103.693C200.182 103.973 199.858 104.173 199.441 104.289C199.034 104.395 198.554 104.449 198.002 104.449ZM204.906 104.449C204.16 104.449 203.584 104.255 203.177 103.867C202.779 103.48 202.581 102.879 202.581 102.064V96.6H203.729V101.775C203.729 102.423 203.875 102.864 204.166 103.097C204.465 103.32 204.882 103.431 205.415 103.431C205.871 103.431 206.287 103.368 206.665 103.242C207.043 103.107 207.431 102.923 207.828 102.69V96.6H208.976V104.361H208.076L207.828 103.504C207.431 103.756 206.98 103.978 206.477 104.173C205.982 104.356 205.458 104.449 204.906 104.449ZM213.175 104.376C212.73 104.376 212.357 104.299 212.057 104.144C211.756 103.978 211.528 103.717 211.373 103.358C211.218 102.991 211.141 102.496 211.141 101.876V93.2715H212.289V101.731C212.289 102.196 212.332 102.55 212.419 102.792C212.507 103.024 212.633 103.189 212.797 103.285C212.963 103.374 213.156 103.431 213.379 103.461L214.164 103.548V104.376H213.175ZM217.986 104.361C217.482 104.361 217.065 104.279 216.736 104.114C216.407 103.95 216.164 103.684 216.009 103.315C215.854 102.947 215.781 102.458 215.792 101.847L215.835 97.5443H214.599V96.8026L215.849 96.6L216.038 94.4337H216.924V96.6H219.164V97.5443H216.924V101.847C216.924 102.186 216.959 102.458 217.027 102.661C217.104 102.864 217.201 103.019 217.317 103.126C217.443 103.233 217.574 103.31 217.71 103.358C217.845 103.397 217.976 103.421 218.102 103.431L219.047 103.518V104.361H217.986ZM220.925 95.2189C220.77 95.2189 220.693 95.1409 220.693 94.9859V93.8521C220.693 93.697 220.77 93.62 220.925 93.62H221.738C221.816 93.62 221.87 93.6444 221.898 93.693C221.937 93.7315 221.957 93.7842 221.957 93.8521V94.9859C221.957 95.1409 221.884 95.2189 221.738 95.2189H220.925ZM220.75 104.361V96.6H221.898V104.361H220.75ZM224.114 104.361V96.6H225.016L225.262 97.4572C225.631 97.1958 226.062 96.9678 226.556 96.7743C227.051 96.5706 227.564 96.4693 228.097 96.4693C228.669 96.4693 229.129 96.5899 229.478 96.832C229.827 97.0742 230.083 97.3944 230.249 97.7916C230.413 98.1888 230.496 98.6204 230.496 99.0855V104.361H229.347V99.2162C229.347 98.8869 229.279 98.5961 229.144 98.3438C229.017 98.0824 228.834 97.8787 228.591 97.7338C228.359 97.5879 228.068 97.515 227.719 97.515C227.399 97.515 227.099 97.5494 226.818 97.6173C226.547 97.6751 226.285 97.7622 226.033 97.8787C225.791 97.9851 225.534 98.1158 225.262 98.2708V104.361H224.114ZM234.564 107.923C234.059 107.923 233.615 107.85 233.226 107.704C232.849 107.569 232.549 107.356 232.326 107.065C232.112 106.784 232.005 106.431 232.005 106.004V105.655C232.005 105.21 232.127 104.837 232.369 104.536C232.621 104.236 232.936 104.013 233.314 103.867C233.692 103.712 234.08 103.635 234.477 103.635L234.768 104.1C234.477 104.1 234.205 104.149 233.953 104.245C233.702 104.332 233.493 104.478 233.328 104.682C233.173 104.884 233.096 105.147 233.096 105.466V105.786C233.096 106.251 233.251 106.58 233.561 106.774C233.871 106.978 234.292 107.08 234.825 107.08H236.628C237.21 107.08 237.664 106.969 237.994 106.746C238.333 106.523 238.502 106.173 238.502 105.699V105.408C238.502 105.137 238.45 104.905 238.343 104.71C238.236 104.516 238.057 104.367 237.805 104.26C237.563 104.153 237.219 104.1 236.773 104.1H234.433C233.832 104.1 233.362 103.973 233.023 103.722C232.693 103.461 232.528 103.126 232.528 102.719C232.528 102.331 232.64 102.026 232.863 101.803C233.096 101.58 233.42 101.425 233.837 101.338C233.479 101.193 233.197 100.998 232.994 100.756C232.791 100.505 232.65 100.239 232.572 99.9569C232.495 99.6661 232.456 99.3763 232.456 99.0855C232.456 98.4846 232.577 98.0003 232.819 97.6315C233.061 97.2637 233.406 96.9972 233.852 96.832C234.307 96.6679 234.84 96.5848 235.451 96.5848H239.593V97.2394L237.849 97.3842C237.975 97.4714 238.115 97.5879 238.27 97.7338C238.425 97.8686 238.556 98.0672 238.663 98.3296C238.779 98.5809 238.837 98.9305 238.837 99.3763C238.837 99.7735 238.75 100.151 238.575 100.509C238.411 100.868 238.13 101.164 237.732 101.397C237.335 101.62 236.788 101.731 236.09 101.731H234.855C234.447 101.731 234.123 101.794 233.881 101.92C233.648 102.036 233.531 102.249 233.531 102.559C233.531 102.792 233.619 102.956 233.793 103.053C233.968 103.151 234.152 103.198 234.346 103.198H236.919C237.52 103.198 238.013 103.276 238.401 103.431C238.798 103.586 239.094 103.823 239.288 104.144C239.491 104.454 239.593 104.851 239.593 105.335V105.655C239.593 106.363 239.351 106.915 238.866 107.312C238.391 107.719 237.679 107.923 236.729 107.923H234.564ZM235.102 100.843H235.973C236.468 100.843 236.841 100.772 237.093 100.626C237.354 100.471 237.534 100.272 237.631 100.03C237.727 99.7877 237.776 99.5262 237.776 99.2446C237.776 98.8089 237.703 98.4654 237.558 98.2131C237.422 97.9517 237.229 97.7673 236.976 97.6609C236.724 97.5443 236.434 97.4866 236.104 97.4866H235.276C234.724 97.4866 234.287 97.6122 233.968 97.8645C233.658 98.1067 233.503 98.5333 233.503 99.1432C233.503 99.7441 233.643 100.18 233.925 100.451C234.215 100.713 234.608 100.843 235.102 100.843ZM246.464 104.449C245.892 104.449 245.422 104.279 245.054 103.94C244.685 103.601 244.502 103.121 244.502 102.501V101.949C244.502 101.338 244.7 100.843 245.098 100.466C245.505 100.088 246.115 99.8991 246.929 99.8991H249.56V98.9396C249.56 98.6204 249.502 98.3489 249.386 98.1259C249.279 97.8929 249.08 97.7136 248.79 97.5879C248.508 97.4623 248.097 97.3994 247.554 97.3994H245.141V96.7155C245.481 96.6578 245.873 96.604 246.319 96.5564C246.774 96.5078 247.307 96.4835 247.918 96.4835C248.547 96.4733 249.071 96.5514 249.487 96.7155C249.903 96.8807 250.209 97.1421 250.403 97.5008C250.607 97.8493 250.708 98.3104 250.708 98.8818V104.361H249.821L249.604 103.475C249.565 103.513 249.443 103.581 249.24 103.679C249.046 103.775 248.794 103.886 248.484 104.013C248.184 104.128 247.855 104.231 247.496 104.318C247.147 104.405 246.803 104.449 246.464 104.449ZM246.944 103.591C247.118 103.601 247.317 103.581 247.54 103.533C247.762 103.485 247.99 103.431 248.222 103.374C248.456 103.306 248.668 103.238 248.862 103.17C249.066 103.102 249.231 103.043 249.356 102.996C249.482 102.947 249.55 102.923 249.56 102.923V100.481L247.191 100.582C246.638 100.601 246.241 100.737 245.998 100.989C245.766 101.242 245.65 101.566 245.65 101.963V102.312C245.65 102.622 245.713 102.874 245.838 103.068C245.974 103.252 246.139 103.383 246.333 103.461C246.536 103.538 246.74 103.581 246.944 103.591ZM252.872 104.361V96.6H253.774L254.021 97.4572C254.389 97.1958 254.821 96.9678 255.314 96.7743C255.809 96.5706 256.322 96.4693 256.855 96.4693C257.427 96.4693 257.888 96.5899 258.236 96.832C258.585 97.0742 258.842 97.3944 259.006 97.7916C259.172 98.1888 259.254 98.6204 259.254 99.0855V104.361H258.106V99.2162C258.106 98.8869 258.038 98.5961 257.902 98.3438C257.776 98.0824 257.592 97.8787 257.35 97.7338C257.117 97.5879 256.826 97.515 256.477 97.515C256.158 97.515 255.857 97.5494 255.577 97.6173C255.305 97.6751 255.044 97.7622 254.791 97.8787C254.549 97.9851 254.293 98.1158 254.021 98.2708V104.361H252.872ZM263.933 104.449C263.292 104.449 262.765 104.313 262.348 104.041C261.941 103.761 261.636 103.334 261.432 102.763C261.239 102.181 261.141 101.44 261.141 100.538C261.141 99.5789 261.239 98.8038 261.432 98.2131C261.627 97.6122 261.937 97.1765 262.362 96.905C262.789 96.6334 263.36 96.4977 264.078 96.4977C264.513 96.4977 264.94 96.5463 265.357 96.6436C265.774 96.7398 266.142 96.8462 266.462 96.9627V93.2715H267.61V104.361H266.68L266.462 103.576C266.316 103.703 266.098 103.834 265.807 103.969C265.527 104.105 265.217 104.221 264.877 104.318C264.548 104.405 264.233 104.449 263.933 104.449ZM264.267 103.504C264.713 103.504 265.114 103.436 265.473 103.301C265.842 103.155 266.171 103.005 266.462 102.85V97.7774C266.112 97.67 265.779 97.5828 265.459 97.515C265.139 97.4379 264.78 97.3994 264.383 97.3994C263.889 97.3994 263.487 97.4906 263.177 97.6751C262.867 97.8595 262.639 98.1786 262.494 98.6346C262.358 99.0804 262.29 99.7005 262.29 100.495C262.29 101.212 262.353 101.794 262.479 102.24C262.615 102.686 262.827 103.01 263.118 103.213C263.409 103.407 263.792 103.504 264.267 103.504ZM63.999 125.64V117.878H64.9002L65.1473 118.735C65.5349 118.464 65.9661 118.232 66.4409 118.037C66.9255 117.844 67.4633 117.747 68.0544 117.747C68.5389 117.747 68.9508 117.858 69.2899 118.081C69.6388 118.295 69.9004 118.566 70.0747 118.895C70.317 118.721 70.6077 118.547 70.947 118.372C71.2957 118.197 71.664 118.052 72.0516 117.936C72.4489 117.81 72.8317 117.747 73.1999 117.747C73.762 117.747 74.2222 117.868 74.5808 118.11C74.9392 118.343 75.2009 118.662 75.3656 119.07C75.5401 119.467 75.6272 119.913 75.6272 120.407V125.64H74.479V120.494C74.479 120.165 74.4111 119.874 74.2755 119.622C74.1495 119.361 73.9654 119.157 73.7231 119.012C73.4809 118.866 73.1853 118.793 72.8365 118.793C72.4005 118.793 71.9547 118.876 71.4993 119.04C71.0438 119.206 70.6223 119.404 70.2346 119.636C70.2832 119.782 70.317 119.927 70.3365 120.073C70.3656 120.209 70.38 120.354 70.38 120.509V125.64H69.2317V120.494C69.2317 120.165 69.1639 119.874 69.0283 119.622C68.9023 119.361 68.7182 119.157 68.476 119.012C68.2433 118.866 67.9526 118.793 67.6037 118.793C67.284 118.793 66.9836 118.828 66.7026 118.895C66.4313 118.953 66.1696 119.04 65.9177 119.157C65.6754 119.263 65.4187 119.394 65.1473 119.549V125.64H63.999ZM80.7473 125.727C79.9332 125.727 79.2888 125.606 78.814 125.363C78.3489 125.121 78.0145 124.709 77.8111 124.128C77.6076 123.546 77.5059 122.752 77.5059 121.744C77.5059 120.717 77.6076 119.918 77.8111 119.345C78.0243 118.765 78.3683 118.357 78.8431 118.124C79.3179 117.892 79.9574 117.776 80.7618 117.776C81.4498 117.776 82.0069 117.854 82.4333 118.009C82.8694 118.164 83.1892 118.43 83.3926 118.808C83.6058 119.176 83.7124 119.69 83.7124 120.348C83.7124 120.804 83.6203 121.172 83.4362 121.454C83.2618 121.724 83.0051 121.923 82.6658 122.05C82.3364 122.165 81.944 122.224 81.4886 122.224H78.6541C78.6638 122.853 78.7316 123.363 78.8577 123.75C78.9836 124.128 79.2113 124.404 79.5408 124.579C79.8799 124.743 80.3742 124.826 81.0234 124.826H83.5235V125.523C83.0777 125.582 82.6416 125.629 82.2153 125.669C81.7889 125.708 81.2996 125.727 80.7473 125.727ZM78.6396 121.468H81.4013C81.8374 121.468 82.1572 121.39 82.3607 121.235C82.5738 121.071 82.6804 120.78 82.6804 120.364C82.6804 119.918 82.6126 119.573 82.4769 119.331C82.3509 119.079 82.1475 118.905 81.8664 118.808C81.5952 118.702 81.2269 118.648 80.7618 118.648C80.2191 118.648 79.7928 118.73 79.4826 118.895C79.1726 119.05 78.9545 119.331 78.8286 119.738C78.7026 120.145 78.6396 120.722 78.6396 121.468ZM85.6458 125.64V117.878H86.5471L86.7941 118.735C87.1623 118.474 87.5936 118.246 88.0878 118.052C88.582 117.849 89.0956 117.747 89.6286 117.747C90.2002 117.747 90.6606 117.868 91.0094 118.11C91.3582 118.352 91.615 118.673 91.7798 119.07C91.9444 119.467 92.0268 119.899 92.0268 120.364V125.64H90.8785V120.494C90.8785 120.165 90.8107 119.874 90.675 119.622C90.5491 119.361 90.365 119.157 90.1227 119.012C89.8902 118.866 89.5995 118.793 89.2506 118.793C88.9308 118.793 88.6304 118.828 88.3494 118.895C88.0781 118.953 87.8165 119.04 87.5645 119.157C87.3222 119.263 87.0655 119.394 86.7941 119.549V125.64H85.6458ZM96.7637 125.64C96.2599 125.64 95.8432 125.558 95.5137 125.392C95.1843 125.228 94.942 124.962 94.787 124.593C94.6319 124.225 94.5592 123.736 94.569 123.125L94.6125 118.823H93.3771V118.081L94.6271 117.878L94.816 115.712H95.7027V117.878H97.9411V118.823H95.7027V123.125C95.7027 123.464 95.7366 123.736 95.8044 123.939C95.8819 124.142 95.9789 124.297 96.0951 124.404C96.2211 124.511 96.352 124.588 96.4876 124.636C96.6232 124.675 96.7541 124.699 96.8801 124.709L97.8248 124.797V125.64H96.7637ZM102.61 125.727C102.048 125.727 101.553 125.669 101.127 125.552C100.71 125.436 100.362 125.232 100.081 124.941C99.7995 124.652 99.5912 124.249 99.4555 123.736C99.3199 123.212 99.2521 122.548 99.2521 121.744C99.2521 120.93 99.3199 120.266 99.4555 119.753C99.5912 119.23 99.7995 118.828 100.081 118.546C100.362 118.256 100.71 118.057 101.127 117.95C101.553 117.835 102.048 117.776 102.61 117.776C103.171 117.776 103.661 117.835 104.078 117.95C104.504 118.067 104.857 118.27 105.139 118.561C105.42 118.842 105.628 119.244 105.764 119.768C105.909 120.281 105.982 120.94 105.982 121.744C105.982 122.558 105.909 123.227 105.764 123.75C105.628 124.264 105.42 124.666 105.139 124.957C104.867 125.237 104.519 125.436 104.092 125.552C103.666 125.669 103.171 125.727 102.61 125.727ZM102.61 124.782C102.969 124.782 103.283 124.748 103.554 124.68C103.835 124.612 104.068 124.476 104.252 124.274C104.436 124.07 104.577 123.764 104.674 123.358C104.77 122.95 104.819 122.412 104.819 121.744C104.819 121.066 104.77 120.528 104.674 120.131C104.577 119.733 104.436 119.433 104.252 119.23C104.068 119.026 103.835 118.89 103.554 118.823C103.283 118.755 102.969 118.721 102.61 118.721C102.241 118.721 101.922 118.755 101.65 118.823C101.379 118.89 101.151 119.026 100.967 119.23C100.783 119.433 100.643 119.733 100.546 120.131C100.449 120.528 100.4 121.066 100.4 121.744C100.4 122.412 100.449 122.95 100.546 123.358C100.643 123.764 100.783 124.07 100.967 124.274C101.151 124.476 101.379 124.612 101.65 124.68C101.922 124.748 102.241 124.782 102.61 124.782ZM107.917 125.64V117.878H108.79L109.065 119.23C109.414 118.812 109.802 118.469 110.229 118.197C110.664 117.926 111.164 117.791 111.725 117.791C111.861 117.791 111.988 117.795 112.103 117.805C112.23 117.814 112.345 117.835 112.453 117.863V119.04C112.326 119.021 112.19 119.007 112.045 118.997C111.899 118.978 111.755 118.968 111.61 118.968C111.251 118.968 110.931 119.012 110.65 119.099C110.368 119.186 110.102 119.317 109.851 119.491C109.598 119.666 109.337 119.878 109.065 120.131V125.64H107.917ZM114.082 116.497C113.927 116.497 113.849 116.419 113.849 116.264V115.13C113.849 114.975 113.927 114.898 114.082 114.898H114.896C114.974 114.898 115.026 114.923 115.056 114.971C115.094 115.01 115.113 115.062 115.113 115.13V116.264C115.113 116.419 115.041 116.497 114.896 116.497H114.082ZM113.908 125.64V117.878H115.056V125.64H113.908ZM117.272 125.64V117.878H118.172L118.42 118.735C118.788 118.474 119.219 118.246 119.714 118.052C120.208 117.849 120.721 117.747 121.254 117.747C121.826 117.747 122.286 117.868 122.635 118.11C122.984 118.352 123.241 118.673 123.406 119.07C123.57 119.467 123.652 119.899 123.652 120.364V125.64H122.504V120.494C122.504 120.165 122.436 119.874 122.3 119.622C122.175 119.361 121.99 119.157 121.748 119.012C121.516 118.866 121.225 118.793 120.876 118.793C120.557 118.793 120.256 118.828 119.975 118.895C119.703 118.953 119.442 119.04 119.19 119.157C118.948 119.263 118.691 119.394 118.42 119.549V125.64H117.272ZM127.721 129.201C127.217 129.201 126.771 129.128 126.384 128.982C126.006 128.848 125.705 128.634 125.482 128.343C125.269 128.062 125.163 127.709 125.163 127.282V126.934C125.163 126.488 125.283 126.115 125.526 125.814C125.778 125.514 126.093 125.291 126.471 125.145C126.849 124.99 127.236 124.913 127.633 124.913L127.924 125.378C127.633 125.378 127.363 125.427 127.11 125.523C126.858 125.61 126.65 125.756 126.485 125.96C126.33 126.162 126.253 126.425 126.253 126.744V127.064C126.253 127.529 126.408 127.859 126.718 128.052C127.028 128.256 127.45 128.358 127.983 128.358H129.785C130.366 128.358 130.822 128.247 131.151 128.024C131.491 127.801 131.66 127.451 131.66 126.977V126.686C131.66 126.415 131.607 126.183 131.5 125.988C131.393 125.795 131.214 125.645 130.963 125.538C130.719 125.431 130.376 125.378 129.93 125.378H127.59C126.989 125.378 126.52 125.252 126.18 125C125.851 124.739 125.686 124.404 125.686 123.997C125.686 123.609 125.797 123.304 126.02 123.081C126.253 122.858 126.577 122.703 126.994 122.616C126.635 122.471 126.354 122.277 126.151 122.034C125.947 121.783 125.807 121.517 125.729 121.235C125.652 120.944 125.613 120.654 125.613 120.364C125.613 119.763 125.734 119.278 125.976 118.91C126.219 118.542 126.563 118.275 127.009 118.11C127.464 117.946 127.997 117.863 128.608 117.863H132.75V118.518L131.006 118.662C131.132 118.75 131.273 118.866 131.428 119.012C131.583 119.147 131.713 119.345 131.82 119.608C131.936 119.859 131.994 120.209 131.994 120.654C131.994 121.052 131.907 121.43 131.733 121.787C131.568 122.146 131.287 122.442 130.89 122.675C130.492 122.898 129.944 123.009 129.247 123.009H128.011C127.605 123.009 127.279 123.072 127.037 123.198C126.805 123.314 126.689 123.527 126.689 123.837C126.689 124.07 126.776 124.234 126.95 124.332C127.124 124.429 127.309 124.476 127.502 124.476H130.075C130.676 124.476 131.17 124.554 131.558 124.709C131.956 124.864 132.25 125.102 132.445 125.422C132.649 125.732 132.75 126.129 132.75 126.613V126.934C132.75 127.641 132.508 128.193 132.023 128.59C131.548 128.998 130.836 129.201 129.887 129.201H127.721ZM128.258 122.122H129.131C129.625 122.122 129.998 122.05 130.25 121.904C130.512 121.749 130.691 121.55 130.787 121.308C130.885 121.066 130.933 120.804 130.933 120.523C130.933 120.087 130.86 119.744 130.715 119.491C130.58 119.23 130.386 119.045 130.134 118.939C129.881 118.822 129.591 118.765 129.261 118.765H128.433C127.88 118.765 127.445 118.89 127.124 119.143C126.814 119.385 126.659 119.811 126.659 120.421C126.659 121.022 126.8 121.458 127.081 121.73C127.372 121.991 127.765 122.122 128.258 122.122ZM138.531 125.64V118.823H137.339V118.081L138.531 117.878V116.992C138.531 116.438 138.598 115.978 138.734 115.611C138.87 115.233 139.098 114.947 139.417 114.752C139.737 114.559 140.183 114.461 140.755 114.461C141.094 114.461 141.38 114.482 141.612 114.52C141.854 114.55 142.068 114.578 142.252 114.607V115.421H140.958C140.61 115.421 140.343 115.48 140.159 115.595C139.974 115.703 139.849 115.872 139.781 116.104C139.713 116.327 139.679 116.603 139.679 116.933V117.878H142.092V118.823H139.679V125.64H138.531ZM146.542 125.727C145.98 125.727 145.485 125.669 145.06 125.552C144.642 125.436 144.294 125.232 144.013 124.941C143.732 124.652 143.524 124.249 143.388 123.736C143.252 123.212 143.184 122.548 143.184 121.744C143.184 120.93 143.252 120.266 143.388 119.753C143.524 119.23 143.732 118.828 144.013 118.546C144.294 118.256 144.642 118.057 145.06 117.95C145.485 117.835 145.98 117.776 146.542 117.776C147.104 117.776 147.593 117.835 148.01 117.95C148.436 118.067 148.791 118.27 149.071 118.561C149.352 118.842 149.561 119.244 149.697 119.768C149.841 120.281 149.914 120.94 149.914 121.744C149.914 122.558 149.841 123.227 149.697 123.75C149.561 124.264 149.352 124.666 149.071 124.957C148.8 125.237 148.451 125.436 148.025 125.552C147.598 125.669 147.104 125.727 146.542 125.727ZM146.542 124.782C146.901 124.782 147.215 124.748 147.487 124.68C147.768 124.612 148 124.476 148.185 124.274C148.369 124.07 148.509 123.764 148.606 123.358C148.703 122.95 148.751 122.412 148.751 121.744C148.751 121.066 148.703 120.528 148.606 120.131C148.509 119.733 148.369 119.433 148.185 119.23C148 119.026 147.768 118.89 147.487 118.823C147.215 118.755 146.901 118.721 146.542 118.721C146.173 118.721 145.854 118.755 145.583 118.823C145.311 118.89 145.083 119.026 144.9 119.23C144.715 119.433 144.575 119.733 144.478 120.131C144.381 120.528 144.332 121.066 144.332 121.744C144.332 122.412 144.381 122.95 144.478 123.358C144.575 123.764 144.715 124.07 144.9 124.274C145.083 124.476 145.311 124.612 145.583 124.68C145.854 124.748 146.173 124.782 146.542 124.782ZM151.85 125.64V117.878H152.722L152.998 119.23C153.347 118.812 153.734 118.469 154.161 118.197C154.597 117.926 155.096 117.791 155.657 117.791C155.793 117.791 155.92 117.795 156.035 117.805C156.162 117.814 156.278 117.835 156.385 117.863V119.04C156.258 119.021 156.123 119.007 155.978 118.997C155.833 118.978 155.687 118.968 155.542 118.968C155.183 118.968 154.863 119.012 154.582 119.099C154.302 119.186 154.035 119.317 153.783 119.491C153.531 119.666 153.269 119.878 152.998 120.131V125.64H151.85ZM161.757 125.64V117.878H162.659L162.906 118.735C163.274 118.474 163.706 118.246 164.199 118.052C164.694 117.849 165.207 117.747 165.74 117.747C166.312 117.747 166.772 117.868 167.121 118.11C167.47 118.352 167.726 118.673 167.891 119.07C168.057 119.467 168.139 119.899 168.139 120.364V125.64H166.991V120.494C166.991 120.165 166.923 119.874 166.787 119.622C166.66 119.361 166.477 119.157 166.235 119.012C166.002 118.866 165.711 118.793 165.362 118.793C165.042 118.793 164.742 118.828 164.461 118.895C164.19 118.953 163.928 119.04 163.676 119.157C163.434 119.263 163.177 119.394 162.906 119.549V125.64H161.757ZM170.477 116.497C170.322 116.497 170.244 116.419 170.244 116.264V115.13C170.244 114.975 170.322 114.898 170.477 114.898H171.291C171.369 114.898 171.422 114.923 171.451 114.971C171.489 115.01 171.509 115.062 171.509 115.13V116.264C171.509 116.419 171.437 116.497 171.291 116.497H170.477ZM170.303 125.64V117.878H171.451V125.64H170.303ZM176.487 125.727C176.051 125.727 175.644 125.669 175.266 125.552C174.888 125.436 174.559 125.232 174.277 124.941C173.996 124.652 173.778 124.249 173.623 123.736C173.468 123.222 173.39 122.567 173.39 121.773C173.39 120.969 173.463 120.31 173.608 119.796C173.754 119.273 173.963 118.866 174.233 118.575C174.505 118.284 174.834 118.081 175.222 117.965C175.609 117.849 176.041 117.791 176.516 117.791C176.903 117.791 177.325 117.81 177.781 117.849C178.236 117.878 178.671 117.926 179.089 117.994V118.678H176.821C176.327 118.678 175.91 118.76 175.571 118.924C175.231 119.089 174.975 119.399 174.801 119.855C174.626 120.3 174.539 120.949 174.539 121.802C174.539 122.626 174.63 123.255 174.815 123.692C174.999 124.128 175.261 124.429 175.6 124.593C175.94 124.748 176.351 124.826 176.835 124.826H179.204V125.495C178.981 125.533 178.72 125.572 178.42 125.61C178.129 125.65 177.819 125.678 177.49 125.697C177.161 125.718 176.826 125.727 176.487 125.727ZM180.792 125.64V114.55H181.941V118.735C182.3 118.474 182.725 118.246 183.22 118.052C183.723 117.849 184.247 117.747 184.789 117.747C185.332 117.747 185.778 117.863 186.127 118.096C186.485 118.328 186.747 118.643 186.912 119.04C187.086 119.438 187.173 119.878 187.173 120.364V125.64H186.025V120.479C186.025 120.15 185.958 119.859 185.822 119.608C185.696 119.355 185.512 119.157 185.27 119.012C185.027 118.866 184.737 118.793 184.397 118.793C184.077 118.793 183.782 118.828 183.511 118.895C183.239 118.953 182.978 119.04 182.725 119.157C182.474 119.263 182.212 119.394 181.941 119.549V125.64H180.792ZM192.302 125.727C191.489 125.727 190.844 125.606 190.369 125.363C189.904 125.121 189.57 124.709 189.367 124.128C189.163 123.546 189.061 122.752 189.061 121.744C189.061 120.717 189.163 119.918 189.367 119.345C189.58 118.765 189.923 118.357 190.399 118.124C190.874 117.892 191.513 117.776 192.318 117.776C193.006 117.776 193.563 117.854 193.989 118.009C194.425 118.164 194.744 118.43 194.948 118.808C195.162 119.176 195.268 119.69 195.268 120.348C195.268 120.804 195.176 121.172 194.992 121.454C194.817 121.724 194.561 121.923 194.222 122.05C193.892 122.165 193.499 122.224 193.044 122.224H190.21C190.219 122.853 190.287 123.363 190.413 123.75C190.539 124.128 190.767 124.404 191.097 124.579C191.435 124.743 191.93 124.826 192.579 124.826H195.079V125.523C194.633 125.582 194.197 125.629 193.771 125.669C193.344 125.708 192.855 125.727 192.302 125.727ZM190.195 121.468H192.957C193.393 121.468 193.713 121.39 193.917 121.235C194.129 121.071 194.236 120.78 194.236 120.364C194.236 119.918 194.168 119.573 194.032 119.331C193.906 119.079 193.703 118.905 193.422 118.808C193.151 118.702 192.783 118.648 192.318 118.648C191.775 118.648 191.348 118.73 191.038 118.895C190.728 119.05 190.51 119.331 190.384 119.738C190.258 120.145 190.195 120.722 190.195 121.468ZM201.119 125.64V117.878H201.991L202.268 119.23C202.616 118.812 203.004 118.469 203.43 118.197C203.867 117.926 204.365 117.791 204.928 117.791C205.063 117.791 205.189 117.795 205.305 117.805C205.431 117.814 205.548 117.835 205.654 117.863V119.04C205.528 119.021 205.393 119.007 205.247 118.997C205.102 118.978 204.957 118.968 204.811 118.968C204.452 118.968 204.133 119.012 203.851 119.099C203.571 119.186 203.304 119.317 203.052 119.491C202.801 119.666 202.538 119.878 202.268 120.131V125.64H201.119ZM210.075 125.727C209.26 125.727 208.616 125.606 208.142 125.363C207.676 125.121 207.342 124.709 207.138 124.128C206.935 123.546 206.833 122.752 206.833 121.744C206.833 120.717 206.935 119.918 207.138 119.345C207.351 118.765 207.696 118.357 208.17 118.124C208.645 117.892 209.284 117.776 210.089 117.776C210.777 117.776 211.334 117.854 211.761 118.009C212.197 118.164 212.517 118.43 212.72 118.808C212.933 119.176 213.04 119.69 213.04 120.348C213.04 120.804 212.947 121.172 212.764 121.454C212.589 121.724 212.332 121.923 211.993 122.05C211.664 122.165 211.271 122.224 210.815 122.224H207.981C207.992 122.853 208.058 123.363 208.185 123.75C208.311 124.128 208.539 124.404 208.868 124.579C209.207 124.743 209.701 124.826 210.35 124.826H212.851V125.523C212.405 125.582 211.969 125.629 211.543 125.669C211.116 125.708 210.627 125.727 210.075 125.727ZM207.967 121.468H210.728C211.165 121.468 211.484 121.39 211.688 121.235C211.901 121.071 212.008 120.78 212.008 120.364C212.008 119.918 211.94 119.573 211.804 119.331C211.678 119.079 211.475 118.905 211.193 118.808C210.922 118.702 210.554 118.648 210.089 118.648C209.546 118.648 209.12 118.73 208.81 118.895C208.5 119.05 208.281 119.331 208.156 119.738C208.03 120.145 207.967 120.722 207.967 121.468ZM220.017 129.085V124.854C219.649 125.107 219.237 125.315 218.782 125.48C218.326 125.645 217.885 125.727 217.458 125.727C216.78 125.727 216.237 125.582 215.831 125.291C215.424 124.99 215.133 124.544 214.959 123.954C214.784 123.363 214.697 122.626 214.697 121.744C214.697 120.853 214.799 120.111 215.002 119.521C215.206 118.929 215.521 118.493 215.947 118.213C216.383 117.922 216.935 117.776 217.604 117.776C218.069 117.776 218.52 117.786 218.956 117.805C219.392 117.824 219.799 117.854 220.177 117.892C220.555 117.922 220.884 117.95 221.165 117.979V129.085H220.017ZM217.735 124.782C218.132 124.782 218.52 124.724 218.898 124.607C219.285 124.492 219.658 124.332 220.017 124.128V118.678H217.866C217.352 118.678 216.95 118.803 216.659 119.056C216.368 119.307 216.16 119.66 216.034 120.116C215.908 120.571 215.845 121.104 215.845 121.715C215.845 122.442 215.908 123.033 216.034 123.488C216.169 123.934 216.373 124.264 216.645 124.476C216.916 124.68 217.279 124.782 217.735 124.782ZM225.645 125.727C224.899 125.727 224.322 125.533 223.915 125.145C223.518 124.758 223.319 124.157 223.319 123.343V117.878H224.468V123.053C224.468 123.701 224.613 124.142 224.904 124.375C225.204 124.598 225.621 124.709 226.154 124.709C226.609 124.709 227.025 124.647 227.403 124.52C227.781 124.385 228.169 124.201 228.567 123.968V117.878H229.715V125.64H228.814L228.567 124.782C228.169 125.034 227.718 125.257 227.215 125.451C226.72 125.635 226.198 125.727 225.645 125.727ZM232.053 116.497C231.898 116.497 231.821 116.419 231.821 116.264V115.13C231.821 114.975 231.898 114.898 232.053 114.898H232.868C232.945 114.898 232.998 114.923 233.027 114.971C233.066 115.01 233.086 115.062 233.086 115.13V116.264C233.086 116.419 233.013 116.497 232.868 116.497H232.053ZM231.879 125.64V117.878H233.027V125.64H231.879ZM235.243 125.64V117.878H236.115L236.391 119.23C236.74 118.812 237.127 118.469 237.554 118.197C237.99 117.926 238.489 117.791 239.052 117.791C239.187 117.791 239.313 117.795 239.43 117.805C239.555 117.814 239.672 117.835 239.778 117.863V119.04C239.652 119.021 239.517 119.007 239.371 118.997C239.226 118.978 239.08 118.968 238.935 118.968C238.576 118.968 238.256 119.012 237.976 119.099C237.695 119.186 237.428 119.317 237.176 119.491C236.924 119.666 236.662 119.878 236.391 120.131V125.64H235.243ZM244.198 125.727C243.384 125.727 242.74 125.606 242.266 125.363C241.801 125.121 241.466 124.709 241.263 124.128C241.059 123.546 240.956 122.752 240.956 121.744C240.956 120.717 241.059 119.918 241.263 119.345C241.475 118.765 241.82 118.357 242.294 118.124C242.769 117.892 243.409 117.776 244.213 117.776C244.901 117.776 245.458 117.854 245.885 118.009C246.321 118.164 246.64 118.43 246.843 118.808C247.057 119.176 247.164 119.69 247.164 120.348C247.164 120.804 247.071 121.172 246.887 121.454C246.713 121.724 246.456 121.923 246.117 122.05C245.788 122.165 245.396 122.224 244.94 122.224H242.106C242.115 122.853 242.183 123.363 242.309 123.75C242.435 124.128 242.663 124.404 242.992 124.579C243.332 124.743 243.825 124.826 244.474 124.826H246.974V125.523C246.529 125.582 246.093 125.629 245.666 125.669C245.241 125.708 244.751 125.727 244.198 125.727ZM242.09 121.468H244.852C245.288 121.468 245.608 121.39 245.812 121.235C246.025 121.071 246.131 120.78 246.131 120.364C246.131 119.918 246.063 119.573 245.929 119.331C245.802 119.079 245.598 118.905 245.318 118.808C245.046 118.702 244.678 118.648 244.213 118.648C243.67 118.648 243.243 118.73 242.933 118.895C242.623 119.05 242.405 119.331 242.28 119.738C242.154 120.145 242.09 120.722 242.09 121.468ZM249.097 125.64V117.878H249.998L250.245 118.735C250.633 118.464 251.064 118.232 251.539 118.037C252.023 117.844 252.561 117.747 253.152 117.747C253.637 117.747 254.049 117.858 254.388 118.081C254.737 118.295 254.998 118.566 255.172 118.895C255.415 118.721 255.705 118.547 256.045 118.372C256.393 118.197 256.762 118.052 257.149 117.936C257.546 117.81 257.929 117.747 258.298 117.747C258.86 117.747 259.321 117.868 259.678 118.11C260.037 118.343 260.299 118.662 260.464 119.07C260.638 119.467 260.725 119.913 260.725 120.407V125.64H259.577V120.494C259.577 120.165 259.509 119.874 259.373 119.622C259.248 119.361 259.063 119.157 258.821 119.012C258.579 118.866 258.283 118.793 257.934 118.793C257.499 118.793 257.053 118.876 256.597 119.04C256.142 119.206 255.721 119.404 255.332 119.636C255.381 119.782 255.415 119.927 255.435 120.073C255.463 120.209 255.478 120.354 255.478 120.509V125.64H254.329V120.494C254.329 120.165 254.261 119.874 254.127 119.622C254 119.361 253.817 119.157 253.573 119.012C253.341 118.866 253.051 118.793 252.702 118.793C252.382 118.793 252.082 118.828 251.8 118.895C251.53 118.953 251.267 119.04 251.016 119.157C250.774 119.263 250.516 119.394 250.245 119.549V125.64H249.097ZM265.845 125.727C265.031 125.727 264.387 125.606 263.912 125.363C263.447 125.121 263.112 124.709 262.909 124.128C262.706 123.546 262.603 122.752 262.603 121.744C262.603 120.717 262.706 119.918 262.909 119.345C263.122 118.765 263.466 118.357 263.941 118.124C264.416 117.892 265.056 117.776 265.86 117.776C266.548 117.776 267.105 117.854 267.531 118.009C267.968 118.164 268.287 118.43 268.49 118.808C268.704 119.176 268.811 119.69 268.811 120.348C268.811 120.804 268.718 121.172 268.534 121.454C268.36 121.724 268.103 121.923 267.764 122.05C267.435 122.165 267.042 122.224 266.587 122.224H263.753C263.762 122.853 263.83 123.363 263.955 123.75C264.082 124.128 264.31 124.404 264.639 124.579C264.978 124.743 265.472 124.826 266.121 124.826H268.621V125.523C268.175 125.582 267.74 125.629 267.313 125.669C266.886 125.708 266.397 125.727 265.845 125.727ZM263.737 121.468H266.499C266.935 121.468 267.255 121.39 267.459 121.235C267.672 121.071 267.778 120.78 267.778 120.364C267.778 119.918 267.71 119.573 267.574 119.331C267.449 119.079 267.245 118.905 266.965 118.808C266.693 118.702 266.325 118.648 265.86 118.648C265.317 118.648 264.89 118.73 264.58 118.895C264.27 119.05 264.052 119.331 263.927 119.738C263.8 120.145 263.737 120.722 263.737 121.468ZM270.744 125.64V117.878H271.645L271.892 118.735C272.261 118.474 272.691 118.246 273.186 118.052C273.68 117.849 274.194 117.747 274.727 117.747C275.298 117.747 275.758 117.868 276.107 118.11C276.457 118.352 276.713 118.673 276.878 119.07C277.042 119.467 277.124 119.899 277.124 120.364V125.64H275.976V120.494C275.976 120.165 275.908 119.874 275.773 119.622C275.647 119.361 275.463 119.157 275.22 119.012C274.988 118.866 274.698 118.793 274.349 118.793C274.029 118.793 273.728 118.828 273.447 118.895C273.176 118.953 272.914 119.04 272.662 119.157C272.42 119.263 272.163 119.394 271.892 119.549V125.64H270.744ZM281.861 125.64C281.358 125.64 280.941 125.558 280.612 125.392C280.283 125.228 280.04 124.962 279.885 124.593C279.729 124.225 279.657 123.736 279.667 123.125L279.71 118.823H278.475V118.081L279.725 117.878L279.914 115.712H280.8V117.878H283.039V118.823H280.8V123.125C280.8 123.464 280.835 123.736 280.903 123.939C280.98 124.142 281.077 124.297 281.194 124.404C281.319 124.511 281.45 124.588 281.586 124.636C281.721 124.675 281.852 124.699 281.978 124.709L282.923 124.797V125.64H281.861ZM287.3 125.727C287.107 125.727 286.87 125.722 286.588 125.713C286.307 125.702 286.012 125.688 285.701 125.669C285.402 125.65 285.125 125.629 284.874 125.61C284.631 125.582 284.442 125.552 284.306 125.523V124.826H287.49C287.809 124.826 288.086 124.802 288.318 124.753C288.551 124.704 288.73 124.598 288.856 124.433C288.991 124.269 289.059 124.021 289.059 123.692V123.343C289.059 123.004 288.948 122.743 288.725 122.558C288.502 122.365 288.143 122.268 287.65 122.268H286.56C286.104 122.268 285.697 122.21 285.339 122.093C284.989 121.977 284.719 121.778 284.524 121.497C284.331 121.216 284.233 120.829 284.233 120.334V119.927C284.233 119.443 284.325 119.045 284.51 118.735C284.703 118.425 284.999 118.192 285.396 118.037C285.804 117.882 286.327 117.805 286.966 117.805C287.238 117.805 287.548 117.814 287.896 117.835C288.255 117.854 288.604 117.882 288.943 117.922C289.282 117.95 289.559 117.985 289.772 118.023V118.721H286.777C286.283 118.721 285.9 118.803 285.63 118.968C285.367 119.133 285.236 119.453 285.236 119.927V120.247C285.236 120.547 285.299 120.775 285.426 120.93C285.551 121.076 285.726 121.172 285.949 121.221C286.182 121.269 286.448 121.294 286.748 121.294H287.853C288.561 121.294 289.108 121.458 289.495 121.787C289.883 122.118 290.077 122.592 290.077 123.212V123.75C290.077 124.274 289.956 124.68 289.714 124.971C289.481 125.252 289.157 125.451 288.739 125.567C288.333 125.673 287.853 125.727 287.3 125.727ZM291.923 125.654C291.768 125.654 291.691 125.577 291.691 125.422V124.259C291.691 124.104 291.768 124.027 291.923 124.027H292.562C292.717 124.027 292.795 124.104 292.795 124.259V125.422C292.795 125.499 292.771 125.558 292.722 125.596C292.684 125.635 292.63 125.654 292.562 125.654H291.923Z" fill="white"/>
<circle cx="284.5" cy="-12.5" r="47.5" fill="white" fill-opacity="0.2"/>
<circle cx="-4.5" cy="60.5" r="47.5" fill="white" fill-opacity="0.2"/>
</g>
</g>
<defs>
<filter id="filter0_d_1499_9389" x="0.821346" y="-14.4572" width="355.152" height="213.659" filterUnits="userSpaceOnUse" color-interpolation-filters="sRGB">
<feFlood flood-opacity="0" result="BackgroundImageFix"/>
<feColorMatrix in="SourceAlpha" type="matrix" values="0 0 0 0 0 0 0 0 0 0 0 0 0 0 0 0 0 0 127 0" result="hardAlpha"/>
<feOffset dy="4.05298"/>
<feGaussianBlur stdDeviation="9.47385"/>
<feComposite in2="hardAlpha" operator="out"/>
<feColorMatrix type="matrix" values="0 0 0 0 0 0 0 0 0 0 0 0 0 0 0 0 0 0 0.25 0"/>
<feBlend mode="normal" in2="BackgroundImageFix" result="effect1_dropShadow_1499_9389"/>
<feBlend mode="normal" in="SourceGraphic" in2="effect1_dropShadow_1499_9389" result="shape"/>
</filter>
<linearGradient id="paint0_linear_1499_9389" x1="178.397" y1="0.4375" x2="178.397" y2="176.201" gradientUnits="userSpaceOnUse">
<stop stop-color="#7030A0"/>
<stop offset="1" stop-color="#B53784"/>
</linearGradient>
<clipPath id="clip0_1499_9389">
<rect x="19.769" y="0.4375" width="317.256" height="175.764" rx="16" fill="white"/>
</clipPath>
</defs>
</svg>
