<svg width="351" height="213" viewBox="0 0 351 213" fill="none" xmlns="http://www.w3.org/2000/svg">
<g filter="url(#filter0_d_931_1187)">
<rect x="19" y="15" width="313.109" height="174.326" rx="16.9248" fill="white"/>
<mask id="mask0_931_1187" style="mask-type:alpha" maskUnits="userSpaceOnUse" x="19" y="15" width="314" height="175">
<rect x="19" y="15" width="313.109" height="174.326" rx="16.9248" fill="url(#paint0_linear_931_1187)"/>
</mask>
<g mask="url(#mask0_931_1187)">
<path d="M142.967 -13.533C142.967 15.4437 119.477 38.9339 90.5 38.9339C61.5233 38.9339 38.033 15.4437 38.033 -13.533C38.033 -42.5097 61.5233 -66 90.5 -66C119.477 -66 142.967 -42.5097 142.967 -13.533Z" fill="#7030A0"/>
<path d="M71.9339 24.467C71.9339 53.4437 48.4437 76.9339 19.467 76.9339C-9.50974 76.9339 -33 53.4437 -33 24.467C-33 -4.50974 -9.50974 -28 19.467 -28C48.4437 -28 71.9339 -4.50974 71.9339 24.467Z" fill="#B53784"/>
<ellipse cx="60.6938" cy="61.938" rx="60.6938" ry="61.938" transform="matrix(0.861361 -0.507994 0.492048 0.870568 227 180.664)" fill="#B53784"/>
<ellipse cx="60.6938" cy="61.938" rx="60.6938" ry="61.938" transform="matrix(0.861361 -0.507994 0.492048 0.870568 271 134.664)" fill="#7030A0"/>
</g>
<path d="M86.792 83V62.28H95.528C96.2 62.28 96.8813 62.364 97.572 62.532C98.2813 62.6813 98.9253 62.9987 99.504 63.484C100.101 63.9507 100.577 64.66 100.932 65.612C101.305 66.564 101.492 67.824 101.492 69.392C101.492 70.96 101.305 72.2293 100.932 73.2C100.577 74.1707 100.111 74.908 99.532 75.412C98.9533 75.916 98.328 76.252 97.656 76.42C96.984 76.588 96.3307 76.672 95.696 76.672C95.36 76.672 94.968 76.6627 94.52 76.644C94.072 76.6067 93.6147 76.56 93.148 76.504C92.7 76.448 92.28 76.4013 91.888 76.364C91.496 76.308 91.1787 76.2613 90.936 76.224V83H86.792ZM90.936 72.948H95.052C95.5373 72.948 95.948 72.836 96.284 72.612C96.6387 72.3693 96.9 71.996 97.068 71.492C97.236 70.9693 97.32 70.2787 97.32 69.42C97.32 68.58 97.2267 67.9173 97.04 67.432C96.872 66.928 96.62 66.564 96.284 66.34C95.9667 66.116 95.584 66.004 95.136 66.004H90.936V72.948ZM103.987 83V67.964H107.179L108.131 70.26C108.672 69.5693 109.279 68.9813 109.951 68.496C110.641 68.0107 111.453 67.768 112.387 67.768C112.592 67.768 112.797 67.7773 113.003 67.796C113.227 67.8147 113.432 67.852 113.619 67.908V72.164C113.339 72.1267 113.04 72.0987 112.723 72.08C112.424 72.0427 112.135 72.024 111.855 72.024C111.313 72.024 110.819 72.0893 110.371 72.22C109.941 72.332 109.54 72.5093 109.167 72.752C108.812 72.976 108.467 73.2747 108.131 73.648V83H103.987ZM122.266 83.14C121.034 83.14 119.98 83.0187 119.102 82.776C118.225 82.5147 117.506 82.0853 116.946 81.488C116.405 80.8907 116.004 80.0973 115.742 79.108C115.5 78.1187 115.378 76.896 115.378 75.44C115.378 73.9093 115.5 72.6493 115.742 71.66C116.004 70.652 116.405 69.868 116.946 69.308C117.506 68.7293 118.225 68.328 119.102 68.104C119.998 67.8613 121.053 67.74 122.266 67.74C123.517 67.74 124.581 67.8613 125.458 68.104C126.336 68.3467 127.045 68.7573 127.586 69.336C128.146 69.896 128.548 70.68 128.79 71.688C129.052 72.6773 129.182 73.928 129.182 75.44C129.182 76.9333 129.061 78.184 128.818 79.192C128.576 80.1813 128.184 80.9653 127.642 81.544C127.101 82.1227 126.382 82.5333 125.486 82.776C124.609 83.0187 123.536 83.14 122.266 83.14ZM122.266 79.836C122.77 79.836 123.19 79.7893 123.526 79.696C123.881 79.6027 124.161 79.416 124.366 79.136C124.59 78.8373 124.758 78.3893 124.87 77.792C124.982 77.1947 125.038 76.4107 125.038 75.44C125.038 74.4507 124.982 73.6667 124.87 73.088C124.758 72.4907 124.59 72.052 124.366 71.772C124.161 71.4733 123.881 71.2773 123.526 71.184C123.19 71.0907 122.77 71.044 122.266 71.044C121.781 71.044 121.361 71.0907 121.006 71.184C120.67 71.2773 120.39 71.4733 120.166 71.772C119.942 72.052 119.774 72.4907 119.662 73.088C119.569 73.6667 119.522 74.4507 119.522 75.44C119.522 76.4107 119.569 77.1947 119.662 77.792C119.774 78.3893 119.942 78.8373 120.166 79.136C120.39 79.416 120.67 79.6027 121.006 79.696C121.361 79.7893 121.781 79.836 122.266 79.836ZM132.408 65.752C132.016 65.752 131.82 65.5653 131.82 65.192V62.448C131.82 62.056 132.016 61.86 132.408 61.86H135.6C135.787 61.86 135.917 61.916 135.992 62.028C136.085 62.14 136.132 62.28 136.132 62.448V65.192C136.132 65.5653 135.955 65.752 135.6 65.752H132.408ZM131.932 89.636V67.964H136.076V82.888C136.076 84.064 135.983 85.2587 135.796 86.472C135.628 87.704 135.385 88.7587 135.068 89.636H131.932ZM145.588 83.14C143.927 83.14 142.601 82.9253 141.612 82.496C140.623 82.048 139.904 81.264 139.456 80.144C139.027 79.024 138.812 77.4747 138.812 75.496C138.812 73.4613 139.017 71.884 139.428 70.764C139.839 69.644 140.529 68.86 141.5 68.412C142.471 67.964 143.787 67.74 145.448 67.74C146.941 67.74 148.136 67.8893 149.032 68.188C149.928 68.4867 150.572 69.0093 150.964 69.756C151.375 70.5027 151.58 71.5573 151.58 72.92C151.58 73.928 151.375 74.7307 150.964 75.328C150.572 75.9067 150.012 76.3267 149.284 76.588C148.556 76.8307 147.697 76.952 146.708 76.952H142.928C142.965 77.7173 143.077 78.3333 143.264 78.8C143.469 79.248 143.833 79.5747 144.356 79.78C144.897 79.9667 145.672 80.06 146.68 80.06H151.076V82.496C150.348 82.6453 149.545 82.7947 148.668 82.944C147.809 83.0747 146.783 83.14 145.588 83.14ZM142.872 74.488H146.288C146.848 74.488 147.259 74.376 147.52 74.152C147.781 73.928 147.912 73.5267 147.912 72.948C147.912 72.4067 147.828 71.9773 147.66 71.66C147.492 71.324 147.231 71.0907 146.876 70.96C146.521 70.8107 146.045 70.736 145.448 70.736C144.813 70.736 144.309 70.848 143.936 71.072C143.563 71.2773 143.292 71.6507 143.124 72.192C142.956 72.7333 142.872 73.4987 142.872 74.488ZM160.151 83.168C159.236 83.168 158.387 83.0467 157.603 82.804C156.838 82.5613 156.175 82.16 155.615 81.6C155.055 81.0213 154.616 80.2467 154.299 79.276C154 78.2867 153.851 77.0453 153.851 75.552C153.851 74.0213 153.991 72.752 154.271 71.744C154.551 70.736 154.962 69.9427 155.503 69.364C156.063 68.7667 156.744 68.3467 157.547 68.104C158.35 67.8613 159.255 67.74 160.263 67.74C161.178 67.74 162.046 67.796 162.867 67.908C163.707 68.0013 164.584 68.1787 165.499 68.44V70.82H161.551C160.692 70.82 160.002 70.9507 159.479 71.212C158.956 71.4547 158.574 71.9213 158.331 72.612C158.107 73.284 157.995 74.2547 157.995 75.524C157.995 76.7747 158.107 77.7267 158.331 78.38C158.574 79.0333 158.956 79.472 159.479 79.696C160.02 79.92 160.73 80.032 161.607 80.032H165.723V82.384C165.256 82.5333 164.715 82.6733 164.099 82.804C163.483 82.916 162.83 83 162.139 83.056C161.467 83.1307 160.804 83.168 160.151 83.168ZM173.738 83C172.58 83 171.638 82.832 170.91 82.496C170.2 82.16 169.687 81.6 169.37 80.816C169.052 80.032 168.912 78.9773 168.95 77.652L169.09 71.296H166.738V68.636L169.23 67.964L169.79 63.764H173.066V67.964H176.594V71.296H173.066V77.624C173.066 78.0347 173.103 78.3707 173.178 78.632C173.252 78.8933 173.355 79.108 173.486 79.276C173.635 79.4253 173.803 79.5373 173.99 79.612C174.176 79.6867 174.363 79.7333 174.55 79.752L176.454 79.92V83H173.738ZM185.763 83L188.171 62.28H192.147L196.907 78.156L201.639 62.28H205.587L208.023 83H204.019L202.227 67.74L202.871 67.796L198.811 83H194.919L190.803 67.796L191.503 67.768L189.767 83H185.763ZM217.013 83.14C215.781 83.14 214.726 83.0187 213.849 82.776C212.971 82.5147 212.253 82.0853 211.693 81.488C211.151 80.8907 210.75 80.0973 210.489 79.108C210.246 78.1187 210.125 76.896 210.125 75.44C210.125 73.9093 210.246 72.6493 210.489 71.66C210.75 70.652 211.151 69.868 211.693 69.308C212.253 68.7293 212.971 68.328 213.849 68.104C214.745 67.8613 215.799 67.74 217.013 67.74C218.263 67.74 219.327 67.8613 220.205 68.104C221.082 68.3467 221.791 68.7573 222.333 69.336C222.893 69.896 223.294 70.68 223.537 71.688C223.798 72.6773 223.929 73.928 223.929 75.44C223.929 76.9333 223.807 78.184 223.565 79.192C223.322 80.1813 222.93 80.9653 222.389 81.544C221.847 82.1227 221.129 82.5333 220.233 82.776C219.355 83.0187 218.282 83.14 217.013 83.14ZM217.013 79.836C217.517 79.836 217.937 79.7893 218.273 79.696C218.627 79.6027 218.907 79.416 219.113 79.136C219.337 78.8373 219.505 78.3893 219.617 77.792C219.729 77.1947 219.785 76.4107 219.785 75.44C219.785 74.4507 219.729 73.6667 219.617 73.088C219.505 72.4907 219.337 72.052 219.113 71.772C218.907 71.4733 218.627 71.2773 218.273 71.184C217.937 71.0907 217.517 71.044 217.013 71.044C216.527 71.044 216.107 71.0907 215.753 71.184C215.417 71.2773 215.137 71.4733 214.913 71.772C214.689 72.052 214.521 72.4907 214.409 73.088C214.315 73.6667 214.269 74.4507 214.269 75.44C214.269 76.4107 214.315 77.1947 214.409 77.792C214.521 78.3893 214.689 78.8373 214.913 79.136C215.137 79.416 215.417 79.6027 215.753 79.696C216.107 79.7893 216.527 79.836 217.013 79.836ZM231.606 83.168C230.43 83.168 229.441 82.9253 228.638 82.44C227.835 81.936 227.229 81.1333 226.818 80.032C226.426 78.912 226.23 77.4467 226.23 75.636C226.23 73.7693 226.398 72.2573 226.734 71.1C227.089 69.9427 227.677 69.0933 228.498 68.552C229.319 68.0107 230.449 67.74 231.886 67.74C232.577 67.74 233.258 67.8147 233.93 67.964C234.602 68.0947 235.199 68.2533 235.722 68.44V61.636H239.894V83H236.394L235.722 81.572C235.405 81.8707 235.013 82.1413 234.546 82.384C234.098 82.6267 233.622 82.8227 233.118 82.972C232.614 83.1027 232.11 83.168 231.606 83.168ZM233.062 79.836C233.622 79.836 234.126 79.7427 234.574 79.556C235.041 79.3693 235.423 79.1827 235.722 78.996V71.436C235.349 71.3053 234.957 71.1747 234.546 71.044C234.135 70.9133 233.697 70.848 233.23 70.848C232.539 70.848 231.979 70.9693 231.55 71.212C231.139 71.4547 230.841 71.912 230.654 72.584C230.467 73.2373 230.374 74.1893 230.374 75.44C230.374 76.5973 230.458 77.5027 230.626 78.156C230.813 78.7907 231.102 79.2293 231.494 79.472C231.886 79.7147 232.409 79.836 233.062 79.836ZM249.33 83.14C247.669 83.14 246.344 82.9253 245.354 82.496C244.365 82.048 243.646 81.264 243.198 80.144C242.769 79.024 242.554 77.4747 242.554 75.496C242.554 73.4613 242.76 71.884 243.17 70.764C243.581 69.644 244.272 68.86 245.242 68.412C246.213 67.964 247.529 67.74 249.19 67.74C250.684 67.74 251.878 67.8893 252.774 68.188C253.67 68.4867 254.314 69.0093 254.706 69.756C255.117 70.5027 255.322 71.5573 255.322 72.92C255.322 73.928 255.117 74.7307 254.706 75.328C254.314 75.9067 253.754 76.3267 253.026 76.588C252.298 76.8307 251.44 76.952 250.45 76.952H246.67C246.708 77.7173 246.82 78.3333 247.006 78.8C247.212 79.248 247.576 79.5747 248.098 79.78C248.64 79.9667 249.414 80.06 250.422 80.06H254.818V82.496C254.09 82.6453 253.288 82.7947 252.41 82.944C251.552 83.0747 250.525 83.14 249.33 83.14ZM246.614 74.488H250.03C250.59 74.488 251.001 74.376 251.262 74.152C251.524 73.928 251.654 73.5267 251.654 72.948C251.654 72.4067 251.57 71.9773 251.402 71.66C251.234 71.324 250.973 71.0907 250.618 70.96C250.264 70.8107 249.788 70.736 249.19 70.736C248.556 70.736 248.052 70.848 247.678 71.072C247.305 71.2773 247.034 71.6507 246.866 72.192C246.698 72.7333 246.614 73.4987 246.614 74.488ZM262.745 83.056C261.681 83.056 260.795 82.888 260.085 82.552C259.395 82.1973 258.881 81.6653 258.545 80.956C258.209 80.228 258.041 79.2947 258.041 78.156V61.636H262.185V77.54C262.185 78.1 262.241 78.548 262.353 78.884C262.465 79.2013 262.633 79.4347 262.857 79.584C263.1 79.7333 263.399 79.836 263.753 79.892L264.901 80.06V83.056H262.745Z" fill="#5B5B5B"/>
<path d="M71.5937 118V107.442H75.7682C76.409 107.442 76.9493 107.561 77.3892 107.801C77.8291 108.03 78.183 108.37 78.4508 108.819C78.7281 109.269 78.929 109.823 79.0533 110.483C79.1776 111.133 79.2398 111.879 79.2398 112.721C79.2398 113.83 79.1107 114.777 78.8524 115.561C78.5942 116.346 78.2069 116.948 77.6905 117.369C77.174 117.79 76.5333 118 75.7682 118H71.5937ZM72.7414 116.981H75.6821C76.2464 116.981 76.7054 116.809 77.0593 116.465C77.4131 116.111 77.6761 115.619 77.8483 114.987C78.0204 114.347 78.1065 113.591 78.1065 112.721C78.1065 111.937 78.0587 111.277 77.963 110.741C77.8674 110.196 77.7192 109.756 77.5183 109.422C77.3271 109.087 77.0784 108.848 76.7724 108.704C76.4663 108.551 76.1029 108.475 75.6821 108.475H72.7414V116.981ZM83.9619 118.086C83.1586 118.086 82.5226 117.967 82.054 117.727C81.595 117.488 81.265 117.082 81.0642 116.508C80.8634 115.934 80.7629 115.15 80.7629 114.155C80.7629 113.142 80.8634 112.353 81.0642 111.788C81.2746 111.215 81.6141 110.813 82.0827 110.583C82.5513 110.354 83.1825 110.239 83.9763 110.239C84.6553 110.239 85.2052 110.316 85.626 110.469C86.0564 110.622 86.372 110.885 86.5728 111.258C86.7832 111.621 86.8884 112.128 86.8884 112.778C86.8884 113.228 86.7975 113.591 86.6158 113.869C86.4437 114.136 86.1902 114.332 85.8555 114.457C85.5304 114.571 85.143 114.629 84.6936 114.629H81.8962C81.9058 115.25 81.9727 115.753 82.0971 116.135C82.2214 116.508 82.4461 116.781 82.7713 116.953C83.106 117.115 83.5937 117.197 84.2345 117.197H86.7019V117.885C86.262 117.943 85.8316 117.99 85.4108 118.029C84.99 118.067 84.5071 118.086 83.9619 118.086ZM81.8819 113.883H84.6075C85.0378 113.883 85.3534 113.806 85.5543 113.653C85.7647 113.491 85.8699 113.204 85.8699 112.793C85.8699 112.353 85.8029 112.013 85.669 111.774C85.5447 111.525 85.3439 111.353 85.0665 111.258C84.7988 111.153 84.4353 111.1 83.9763 111.1C83.4407 111.1 83.0199 111.181 82.7139 111.344C82.4079 111.497 82.1927 111.774 82.0684 112.176C81.944 112.577 81.8819 113.147 81.8819 113.883ZM89.1695 118V111.272H87.9932V110.54L89.1695 110.34V109.321C89.1695 108.795 89.2317 108.36 89.356 108.016C89.4899 107.662 89.7098 107.399 90.0159 107.227C90.3315 107.055 90.7523 106.968 91.2783 106.968C91.6417 106.968 91.9525 106.992 92.2107 107.04C92.4689 107.078 92.6984 107.126 92.8993 107.184V107.987C92.6984 107.968 92.4833 107.954 92.2537 107.944C92.0338 107.925 91.8186 107.915 91.6082 107.915C91.2544 107.915 90.9818 107.973 90.7905 108.087C90.6088 108.202 90.4797 108.374 90.4032 108.604C90.3363 108.833 90.3028 109.12 90.3028 109.465V110.34H94.8359V111.272H90.3028V118H89.1695ZM94.2908 118V110.34H95.4241V118H94.2908ZM94.4629 108.977C94.3099 108.977 94.2334 108.9 94.2334 108.747V107.628C94.2334 107.475 94.3099 107.399 94.4629 107.399H95.2806C95.3475 107.399 95.3954 107.423 95.4241 107.471C95.4623 107.509 95.4814 107.561 95.4814 107.628V108.747C95.4814 108.9 95.4145 108.977 95.2806 108.977H94.4629ZM97.6082 118V110.34H98.4976L98.7415 111.186C99.1049 110.928 99.5305 110.703 100.018 110.512C100.506 110.311 101.013 110.211 101.539 110.211C102.103 110.211 102.557 110.33 102.902 110.569C103.246 110.808 103.499 111.124 103.662 111.516C103.825 111.908 103.906 112.334 103.906 112.793V118H102.773V112.922C102.773 112.597 102.706 112.31 102.572 112.061C102.447 111.803 102.266 111.602 102.027 111.459C101.797 111.315 101.51 111.243 101.166 111.243C100.85 111.243 100.554 111.277 100.276 111.344C100.009 111.401 99.7505 111.487 99.5018 111.602C99.2627 111.707 99.0093 111.836 98.7415 111.989V118H97.6082ZM108.968 118.086C108.165 118.086 107.529 117.967 107.06 117.727C106.601 117.488 106.271 117.082 106.07 116.508C105.87 115.934 105.769 115.15 105.769 114.155C105.769 113.142 105.87 112.353 106.07 111.788C106.281 111.215 106.62 110.813 107.089 110.583C107.558 110.354 108.189 110.239 108.982 110.239C109.661 110.239 110.211 110.316 110.632 110.469C111.063 110.622 111.378 110.885 111.579 111.258C111.789 111.621 111.895 112.128 111.895 112.778C111.895 113.228 111.804 113.591 111.622 113.869C111.45 114.136 111.196 114.332 110.862 114.457C110.537 114.571 110.149 114.629 109.7 114.629H106.902C106.912 115.25 106.979 115.753 107.103 116.135C107.228 116.508 107.452 116.781 107.777 116.953C108.112 117.115 108.6 117.197 109.241 117.197H111.708V117.885C111.268 117.943 110.838 117.99 110.417 118.029C109.996 118.067 109.513 118.086 108.968 118.086ZM106.888 113.883H109.614C110.044 113.883 110.36 113.806 110.56 113.653C110.771 113.491 110.876 113.204 110.876 112.793C110.876 112.353 110.809 112.013 110.675 111.774C110.551 111.525 110.35 111.353 110.073 111.258C109.805 111.153 109.442 111.1 108.982 111.1C108.447 111.1 108.026 111.181 107.72 111.344C107.414 111.497 107.199 111.774 107.075 112.176C106.95 112.577 106.888 113.147 106.888 113.883ZM116.284 118.086C115.653 118.086 115.132 117.952 114.721 117.684C114.319 117.407 114.018 116.986 113.817 116.422C113.626 115.848 113.53 115.117 113.53 114.227C113.53 113.28 113.626 112.515 113.817 111.932C114.008 111.339 114.314 110.909 114.735 110.641C115.156 110.373 115.72 110.239 116.428 110.239C116.858 110.239 117.279 110.287 117.69 110.383C118.102 110.478 118.465 110.583 118.781 110.698V107.055H119.914V118H118.996L118.781 117.225C118.637 117.35 118.422 117.479 118.135 117.613C117.858 117.747 117.552 117.861 117.217 117.957C116.892 118.043 116.581 118.086 116.284 118.086ZM116.614 117.154C117.054 117.154 117.451 117.087 117.805 116.953C118.168 116.809 118.494 116.661 118.781 116.508V111.502C118.436 111.396 118.106 111.31 117.791 111.243C117.475 111.167 117.121 111.129 116.729 111.129C116.241 111.129 115.845 111.219 115.539 111.401C115.232 111.583 115.008 111.898 114.864 112.348C114.73 112.788 114.663 113.4 114.663 114.184C114.663 114.892 114.726 115.466 114.85 115.906C114.984 116.346 115.194 116.666 115.481 116.867C115.768 117.058 116.146 117.154 116.614 117.154ZM128.402 118.086C127.771 118.086 127.25 117.952 126.839 117.684C126.437 117.407 126.136 116.986 125.935 116.422C125.744 115.848 125.648 115.117 125.648 114.227C125.648 113.28 125.744 112.515 125.935 111.932C126.126 111.339 126.432 110.909 126.853 110.641C127.274 110.373 127.838 110.239 128.546 110.239C128.976 110.239 129.397 110.287 129.808 110.383C130.219 110.478 130.583 110.583 130.898 110.698V107.055H132.032V118H131.114L130.898 117.225C130.755 117.35 130.54 117.479 130.253 117.613C129.975 117.747 129.669 117.861 129.335 117.957C129.01 118.043 128.699 118.086 128.402 118.086ZM128.732 117.154C129.172 117.154 129.569 117.087 129.923 116.953C130.286 116.809 130.611 116.661 130.898 116.508V111.502C130.554 111.396 130.224 111.31 129.909 111.243C129.593 111.167 129.239 111.129 128.847 111.129C128.359 111.129 127.962 111.219 127.656 111.401C127.35 111.583 127.126 111.898 126.982 112.348C126.848 112.788 126.781 113.4 126.781 114.184C126.781 114.892 126.843 115.466 126.968 115.906C127.102 116.346 127.312 116.666 127.599 116.867C127.886 117.058 128.264 117.154 128.732 117.154ZM137.098 118.086C136.295 118.086 135.659 117.967 135.19 117.727C134.731 117.488 134.401 117.082 134.201 116.508C134 115.934 133.899 115.15 133.899 114.155C133.899 113.142 134 112.353 134.201 111.788C134.411 111.215 134.751 110.813 135.219 110.583C135.688 110.354 136.319 110.239 137.113 110.239C137.792 110.239 138.342 110.316 138.762 110.469C139.193 110.622 139.508 110.885 139.709 111.258C139.92 111.621 140.025 112.128 140.025 112.778C140.025 113.228 139.934 113.591 139.752 113.869C139.58 114.136 139.327 114.332 138.992 114.457C138.667 114.571 138.279 114.629 137.83 114.629H135.033C135.042 115.25 135.109 115.753 135.233 116.135C135.358 116.508 135.583 116.781 135.908 116.953C136.242 117.115 136.73 117.197 137.371 117.197H139.838V117.885C139.398 117.943 138.968 117.99 138.547 118.029C138.126 118.067 137.643 118.086 137.098 118.086ZM135.018 113.883H137.744C138.174 113.883 138.49 113.806 138.691 113.653C138.901 113.491 139.006 113.204 139.006 112.793C139.006 112.353 138.939 112.013 138.805 111.774C138.681 111.525 138.48 111.353 138.203 111.258C137.935 111.153 137.572 111.1 137.113 111.1C136.577 111.1 136.156 111.181 135.85 111.344C135.544 111.497 135.329 111.774 135.205 112.176C135.08 112.577 135.018 113.147 135.018 113.883ZM143.941 118.014C143.501 118.014 143.133 117.938 142.837 117.785C142.54 117.622 142.315 117.364 142.162 117.01C142.009 116.647 141.933 116.159 141.933 115.547V107.055H143.066V115.404C143.066 115.863 143.109 116.212 143.195 116.451C143.281 116.68 143.406 116.843 143.568 116.938C143.731 117.025 143.922 117.082 144.142 117.111L144.917 117.197V118.014H143.941ZM146.322 108.977C146.169 108.977 146.092 108.9 146.092 108.747V107.628C146.092 107.475 146.169 107.399 146.322 107.399H147.125C147.202 107.399 147.254 107.423 147.283 107.471C147.321 107.509 147.34 107.561 147.34 107.628V108.747C147.34 108.9 147.269 108.977 147.125 108.977H146.322ZM146.15 118V110.34H147.283V118H146.15ZM151.536 118L148.652 110.34H149.814L152.195 116.938L154.648 110.34H155.796L152.827 118H151.536ZM159.807 118.086C159.004 118.086 158.368 117.967 157.899 117.727C157.44 117.488 157.11 117.082 156.909 116.508C156.708 115.934 156.608 115.15 156.608 114.155C156.608 113.142 156.708 112.353 156.909 111.788C157.12 111.215 157.459 110.813 157.928 110.583C158.396 110.354 159.028 110.239 159.821 110.239C160.5 110.239 161.05 110.316 161.471 110.469C161.901 110.622 162.217 110.885 162.418 111.258C162.628 111.621 162.733 112.128 162.733 112.778C162.733 113.228 162.643 113.591 162.461 113.869C162.289 114.136 162.035 114.332 161.701 114.457C161.375 114.571 160.988 114.629 160.539 114.629H157.741C157.751 115.25 157.818 115.753 157.942 116.135C158.066 116.508 158.291 116.781 158.616 116.953C158.951 117.115 159.439 117.197 160.08 117.197H162.547V117.885C162.107 117.943 161.677 117.99 161.256 118.029C160.835 118.067 160.352 118.086 159.807 118.086ZM157.727 113.883H160.453C160.883 113.883 161.199 113.806 161.399 113.653C161.61 113.491 161.715 113.204 161.715 112.793C161.715 112.353 161.648 112.013 161.514 111.774C161.39 111.525 161.189 111.353 160.912 111.258C160.644 111.153 160.28 111.1 159.821 111.1C159.286 111.1 158.865 111.181 158.559 111.344C158.253 111.497 158.038 111.774 157.913 112.176C157.789 112.577 157.727 113.147 157.727 113.883ZM164.642 118V110.34H165.502L165.775 111.674C166.119 111.262 166.502 110.923 166.923 110.655C167.353 110.387 167.845 110.254 168.4 110.254C168.534 110.254 168.658 110.258 168.773 110.268C168.897 110.277 169.012 110.297 169.117 110.325V111.487C168.993 111.468 168.859 111.454 168.716 111.444C168.572 111.425 168.429 111.416 168.285 111.416C167.931 111.416 167.616 111.459 167.339 111.545C167.061 111.631 166.798 111.76 166.55 111.932C166.301 112.104 166.043 112.314 165.775 112.563V118H164.642ZM171.765 118.086C171.201 118.086 170.737 117.919 170.374 117.584C170.01 117.249 169.829 116.776 169.829 116.164V115.619C169.829 115.016 170.025 114.528 170.417 114.155C170.818 113.782 171.421 113.596 172.224 113.596H174.821V112.649C174.821 112.334 174.763 112.066 174.649 111.846C174.543 111.616 174.347 111.439 174.06 111.315C173.783 111.191 173.377 111.129 172.841 111.129H170.46V110.454C170.794 110.397 171.182 110.344 171.622 110.297C172.071 110.249 172.597 110.225 173.2 110.225C173.821 110.215 174.338 110.292 174.749 110.454C175.16 110.617 175.461 110.875 175.653 111.229C175.854 111.573 175.954 112.028 175.954 112.592V118H175.079L174.864 117.125C174.826 117.163 174.706 117.23 174.505 117.326C174.314 117.421 174.065 117.531 173.759 117.656C173.463 117.77 173.138 117.871 172.784 117.957C172.439 118.043 172.1 118.086 171.765 118.086ZM172.239 117.24C172.411 117.249 172.607 117.23 172.827 117.182C173.047 117.135 173.271 117.082 173.501 117.025C173.73 116.958 173.941 116.891 174.132 116.824C174.333 116.757 174.496 116.699 174.62 116.652C174.744 116.604 174.811 116.58 174.821 116.58V114.17L172.482 114.27C171.937 114.289 171.545 114.423 171.306 114.672C171.077 114.921 170.962 115.241 170.962 115.633V115.977C170.962 116.283 171.024 116.532 171.148 116.723C171.282 116.905 171.445 117.034 171.636 117.111C171.837 117.187 172.038 117.23 172.239 117.24ZM181.777 118.086C181.414 118.086 181.074 118.043 180.759 117.957C180.453 117.861 180.17 117.751 179.912 117.627C179.654 117.493 179.424 117.359 179.224 117.225L179.008 118H178.09V107.055H179.224V111.043C179.587 110.832 179.998 110.646 180.457 110.483C180.916 110.32 181.342 110.239 181.734 110.239C182.346 110.239 182.853 110.368 183.255 110.627C183.656 110.885 183.958 111.306 184.158 111.889C184.369 112.472 184.474 113.252 184.474 114.227C184.474 115.021 184.383 115.71 184.201 116.293C184.02 116.867 183.728 117.311 183.326 117.627C182.934 117.933 182.418 118.086 181.777 118.086ZM181.418 117.139C181.839 117.139 182.188 117.034 182.466 116.824C182.753 116.604 182.968 116.274 183.111 115.834C183.264 115.394 183.341 114.844 183.341 114.184C183.341 113.343 183.255 112.711 183.082 112.291C182.92 111.86 182.695 111.569 182.408 111.416C182.121 111.262 181.791 111.186 181.418 111.186C180.988 111.186 180.601 111.248 180.256 111.372C179.922 111.487 179.577 111.64 179.224 111.832V116.522C179.52 116.666 179.845 116.805 180.199 116.938C180.563 117.072 180.969 117.139 181.418 117.139ZM188.392 118.014C187.952 118.014 187.584 117.938 187.287 117.785C186.991 117.622 186.766 117.364 186.613 117.01C186.46 116.647 186.384 116.159 186.384 115.547V107.055H187.517V115.404C187.517 115.863 187.56 116.212 187.646 116.451C187.732 116.68 187.856 116.843 188.019 116.938C188.182 117.025 188.373 117.082 188.593 117.111L189.368 117.197V118.014H188.392ZM193.527 118.086C192.724 118.086 192.088 117.967 191.619 117.727C191.16 117.488 190.83 117.082 190.629 116.508C190.428 115.934 190.328 115.15 190.328 114.155C190.328 113.142 190.428 112.353 190.629 111.788C190.84 111.215 191.179 110.813 191.648 110.583C192.116 110.354 192.747 110.239 193.541 110.239C194.22 110.239 194.77 110.316 195.191 110.469C195.621 110.622 195.937 110.885 196.138 111.258C196.348 111.621 196.453 112.128 196.453 112.778C196.453 113.228 196.362 113.591 196.181 113.869C196.009 114.136 195.755 114.332 195.42 114.457C195.095 114.571 194.708 114.629 194.258 114.629H191.461C191.471 115.25 191.538 115.753 191.662 116.135C191.786 116.508 192.011 116.781 192.336 116.953C192.671 117.115 193.159 117.197 193.799 117.197H196.267V117.885C195.827 117.943 195.397 117.99 194.976 118.029C194.555 118.067 194.072 118.086 193.527 118.086ZM191.447 113.883H194.172C194.603 113.883 194.918 113.806 195.119 113.653C195.33 113.491 195.435 113.204 195.435 112.793C195.435 112.353 195.368 112.013 195.234 111.774C195.11 111.525 194.909 111.353 194.631 111.258C194.364 111.153 194 111.1 193.541 111.1C193.006 111.1 192.585 111.181 192.279 111.344C191.973 111.497 191.758 111.774 191.633 112.176C191.509 112.577 191.447 113.147 191.447 113.883ZM201.001 118.086C200.81 118.086 200.575 118.081 200.298 118.072C200.021 118.062 199.729 118.048 199.423 118.029C199.127 118.01 198.854 117.99 198.605 117.971C198.366 117.943 198.18 117.914 198.046 117.885V117.197H201.187C201.503 117.197 201.776 117.173 202.005 117.125C202.235 117.077 202.412 116.972 202.536 116.809C202.67 116.647 202.737 116.403 202.737 116.078V115.733C202.737 115.399 202.627 115.141 202.407 114.959C202.187 114.768 201.833 114.672 201.345 114.672H200.269C199.82 114.672 199.418 114.615 199.064 114.5C198.72 114.385 198.452 114.189 198.261 113.912C198.07 113.634 197.974 113.252 197.974 112.764V112.362C197.974 111.884 198.065 111.492 198.247 111.186C198.438 110.88 198.73 110.65 199.122 110.497C199.523 110.344 200.04 110.268 200.671 110.268C200.939 110.268 201.245 110.277 201.589 110.297C201.943 110.316 202.287 110.344 202.622 110.383C202.957 110.411 203.229 110.445 203.44 110.483V111.172H200.485C199.997 111.172 199.619 111.253 199.351 111.416C199.093 111.578 198.964 111.894 198.964 112.362V112.678C198.964 112.974 199.026 113.199 199.15 113.352C199.275 113.496 199.447 113.591 199.667 113.639C199.896 113.687 200.159 113.711 200.456 113.711H201.546C202.244 113.711 202.785 113.873 203.167 114.198C203.55 114.524 203.741 114.992 203.741 115.604V116.135C203.741 116.652 203.621 117.053 203.382 117.34C203.153 117.617 202.832 117.814 202.421 117.928C202.019 118.033 201.546 118.086 201.001 118.086ZM209.817 118V111.272H208.64V110.54L209.817 110.34V109.465C209.817 108.919 209.884 108.465 210.017 108.102C210.151 107.729 210.376 107.447 210.692 107.255C211.007 107.064 211.447 106.968 212.011 106.968C212.346 106.968 212.628 106.988 212.858 107.026C213.097 107.055 213.307 107.083 213.489 107.112V107.915H212.212C211.868 107.915 211.605 107.973 211.423 108.087C211.242 108.193 211.117 108.36 211.05 108.589C210.983 108.809 210.95 109.082 210.95 109.407V110.34H213.331V111.272H210.95V118H209.817ZM217.723 118.086C217.169 118.086 216.681 118.029 216.26 117.914C215.849 117.799 215.504 117.598 215.227 117.311C214.95 117.025 214.744 116.628 214.61 116.121C214.476 115.604 214.409 114.949 214.409 114.155C214.409 113.352 214.476 112.697 214.61 112.19C214.744 111.674 214.95 111.277 215.227 110.999C215.504 110.713 215.849 110.517 216.26 110.411C216.681 110.297 217.169 110.239 217.723 110.239C218.278 110.239 218.761 110.297 219.172 110.411C219.593 110.526 219.942 110.727 220.219 111.014C220.497 111.291 220.702 111.688 220.836 112.205C220.98 112.711 221.051 113.362 221.051 114.155C221.051 114.959 220.98 115.619 220.836 116.135C220.702 116.642 220.497 117.039 220.219 117.326C219.952 117.603 219.607 117.799 219.186 117.914C218.766 118.029 218.278 118.086 217.723 118.086ZM217.723 117.154C218.077 117.154 218.388 117.12 218.656 117.053C218.933 116.986 219.163 116.852 219.344 116.652C219.526 116.451 219.665 116.149 219.76 115.748C219.856 115.346 219.904 114.815 219.904 114.155C219.904 113.486 219.856 112.955 219.76 112.563C219.665 112.171 219.526 111.875 219.344 111.674C219.163 111.473 218.933 111.339 218.656 111.272C218.388 111.205 218.077 111.172 217.723 111.172C217.36 111.172 217.044 111.205 216.776 111.272C216.509 111.339 216.284 111.473 216.102 111.674C215.92 111.875 215.782 112.171 215.686 112.563C215.591 112.955 215.543 113.486 215.543 114.155C215.543 114.815 215.591 115.346 215.686 115.748C215.782 116.149 215.92 116.451 216.102 116.652C216.284 116.852 216.509 116.986 216.776 117.053C217.044 117.12 217.36 117.154 217.723 117.154ZM222.961 118V110.34H223.822L224.095 111.674C224.439 111.262 224.822 110.923 225.242 110.655C225.673 110.387 226.165 110.254 226.72 110.254C226.854 110.254 226.978 110.258 227.093 110.268C227.217 110.277 227.332 110.297 227.437 110.325V111.487C227.313 111.468 227.179 111.454 227.035 111.444C226.892 111.425 226.749 111.416 226.605 111.416C226.251 111.416 225.936 111.459 225.658 111.545C225.381 111.631 225.118 111.76 224.869 111.932C224.621 112.104 224.362 112.314 224.095 112.563V118H222.961ZM235.379 118.086C235.188 118.086 234.954 118.081 234.676 118.072C234.399 118.062 234.107 118.048 233.801 118.029C233.505 118.01 233.232 117.99 232.984 117.971C232.744 117.943 232.558 117.914 232.424 117.885V117.197H235.566C235.881 117.197 236.154 117.173 236.383 117.125C236.613 117.077 236.79 116.972 236.914 116.809C237.048 116.647 237.115 116.403 237.115 116.078V115.733C237.115 115.399 237.005 115.141 236.785 114.959C236.565 114.768 236.211 114.672 235.724 114.672H234.648C234.198 114.672 233.796 114.615 233.443 114.5C233.098 114.385 232.831 114.189 232.639 113.912C232.448 113.634 232.352 113.252 232.352 112.764V112.362C232.352 111.884 232.443 111.492 232.625 111.186C232.816 110.88 233.108 110.65 233.5 110.497C233.902 110.344 234.418 110.268 235.049 110.268C235.317 110.268 235.623 110.277 235.967 110.297C236.321 110.316 236.666 110.344 237 110.383C237.335 110.411 237.608 110.445 237.818 110.483V111.172H234.863C234.375 111.172 233.997 111.253 233.73 111.416C233.471 111.578 233.342 111.894 233.342 112.362V112.678C233.342 112.974 233.404 113.199 233.529 113.352C233.653 113.496 233.825 113.591 234.045 113.639C234.275 113.687 234.538 113.711 234.834 113.711H235.924C236.623 113.711 237.163 113.873 237.545 114.198C237.928 114.524 238.119 114.992 238.119 115.604V116.135C238.119 116.652 238 117.053 237.761 117.34C237.531 117.617 237.211 117.814 236.799 117.928C236.398 118.033 235.924 118.086 235.379 118.086ZM239.912 121.4V110.34H240.83L241.046 111.129C241.218 111.004 241.438 110.875 241.706 110.741C241.983 110.598 242.279 110.478 242.595 110.383C242.92 110.287 243.24 110.239 243.556 110.239C244.053 110.239 244.474 110.349 244.818 110.569C245.172 110.78 245.459 111.066 245.679 111.43C245.899 111.793 246.057 112.209 246.153 112.678C246.248 113.147 246.296 113.639 246.296 114.155C246.296 115.016 246.196 115.743 245.995 116.336C245.803 116.919 245.507 117.359 245.105 117.656C244.704 117.952 244.187 118.1 243.556 118.1C243.126 118.1 242.691 118.033 242.251 117.9C241.82 117.756 241.419 117.579 241.046 117.369V121.4H239.912ZM243.24 117.139C243.604 117.139 243.929 117.048 244.216 116.867C244.503 116.685 244.732 116.379 244.905 115.949C245.077 115.509 245.163 114.911 245.163 114.155C245.163 113.438 245.072 112.864 244.89 112.434C244.708 111.994 244.474 111.679 244.187 111.487C243.9 111.286 243.585 111.186 243.24 111.186C242.801 111.186 242.394 111.258 242.021 111.401C241.658 111.535 241.333 111.679 241.046 111.832V116.522C241.38 116.704 241.734 116.852 242.107 116.967C242.49 117.082 242.867 117.139 243.24 117.139ZM251.132 118.086C250.329 118.086 249.693 117.967 249.224 117.727C248.765 117.488 248.435 117.082 248.234 116.508C248.034 115.934 247.933 115.15 247.933 114.155C247.933 113.142 248.034 112.353 248.234 111.788C248.445 111.215 248.784 110.813 249.253 110.583C249.722 110.354 250.353 110.239 251.147 110.239C251.826 110.239 252.375 110.316 252.796 110.469C253.227 110.622 253.542 110.885 253.743 111.258C253.953 111.621 254.059 112.128 254.059 112.778C254.059 113.228 253.968 113.591 253.786 113.869C253.614 114.136 253.36 114.332 253.026 114.457C252.701 114.571 252.313 114.629 251.864 114.629H249.066C249.076 115.25 249.143 115.753 249.267 116.135C249.392 116.508 249.616 116.781 249.942 116.953C250.276 117.115 250.764 117.197 251.405 117.197H253.872V117.885C253.432 117.943 253.002 117.99 252.581 118.029C252.16 118.067 251.677 118.086 251.132 118.086ZM249.052 113.883H251.778C252.208 113.883 252.524 113.806 252.724 113.653C252.935 113.491 253.04 113.204 253.04 112.793C253.04 112.353 252.973 112.013 252.839 111.774C252.715 111.525 252.514 111.353 252.237 111.258C251.969 111.153 251.606 111.1 251.147 111.1C250.611 111.1 250.19 111.181 249.884 111.344C249.578 111.497 249.363 111.774 249.239 112.176C249.114 112.577 249.052 113.147 249.052 113.883ZM258.75 118.086C258.319 118.086 257.918 118.029 257.545 117.914C257.172 117.799 256.847 117.598 256.569 117.311C256.292 117.025 256.077 116.628 255.924 116.121C255.771 115.614 255.694 114.968 255.694 114.184C255.694 113.39 255.766 112.74 255.909 112.233C256.053 111.717 256.258 111.315 256.526 111.028C256.794 110.741 257.119 110.54 257.502 110.426C257.884 110.311 258.31 110.254 258.778 110.254C259.161 110.254 259.577 110.273 260.026 110.311C260.476 110.34 260.906 110.387 261.318 110.454V111.129H259.08C258.592 111.129 258.181 111.21 257.846 111.372C257.511 111.535 257.258 111.841 257.086 112.291C256.914 112.73 256.827 113.371 256.827 114.213C256.827 115.026 256.918 115.647 257.1 116.078C257.282 116.508 257.54 116.805 257.875 116.967C258.209 117.12 258.616 117.197 259.094 117.197H261.432V117.857C261.212 117.895 260.954 117.933 260.658 117.971C260.371 118.01 260.065 118.038 259.74 118.057C259.414 118.077 259.084 118.086 258.75 118.086ZM263.171 108.977C263.018 108.977 262.942 108.9 262.942 108.747V107.628C262.942 107.475 263.018 107.399 263.171 107.399H263.975C264.051 107.399 264.104 107.423 264.133 107.471C264.171 107.509 264.19 107.561 264.19 107.628V108.747C264.19 108.9 264.118 108.977 263.975 108.977H263.171ZM262.999 118V110.34H264.133V118H262.999ZM266.692 118V111.272H265.516V110.54L266.692 110.34V109.321C266.692 108.795 266.755 108.36 266.879 108.016C267.013 107.662 267.233 107.399 267.539 107.227C267.854 107.055 268.275 106.968 268.801 106.968C269.165 106.968 269.475 106.992 269.734 107.04C269.992 107.078 270.221 107.126 270.422 107.184V107.987C270.221 107.968 270.006 107.954 269.777 107.944C269.557 107.925 269.342 107.915 269.131 107.915C268.777 107.915 268.505 107.973 268.313 108.087C268.132 108.202 268.003 108.374 267.926 108.604C267.859 108.833 267.826 109.12 267.826 109.465V110.34H272.359V111.272H267.826V118H266.692ZM271.814 118V110.34H272.947V118H271.814ZM271.986 108.977C271.833 108.977 271.756 108.9 271.756 108.747V107.628C271.756 107.475 271.833 107.399 271.986 107.399H272.804C272.87 107.399 272.918 107.423 272.947 107.471C272.985 107.509 273.004 107.561 273.004 107.628V108.747C273.004 108.9 272.937 108.977 272.804 108.977H271.986ZM277.914 118.086C277.484 118.086 277.082 118.029 276.709 117.914C276.336 117.799 276.011 117.598 275.734 117.311C275.456 117.025 275.241 116.628 275.088 116.121C274.935 115.614 274.859 114.968 274.859 114.184C274.859 113.39 274.93 112.74 275.074 112.233C275.217 111.717 275.423 111.315 275.691 111.028C275.958 110.741 276.284 110.54 276.666 110.426C277.049 110.311 277.474 110.254 277.943 110.254C278.325 110.254 278.741 110.273 279.191 110.311C279.64 110.34 280.071 110.387 280.482 110.454V111.129H278.244C277.756 111.129 277.345 111.21 277.01 111.372C276.676 111.535 276.422 111.841 276.25 112.291C276.078 112.73 275.992 113.371 275.992 114.213C275.992 115.026 276.083 115.647 276.264 116.078C276.446 116.508 276.704 116.805 277.039 116.967C277.374 117.12 277.78 117.197 278.258 117.197H280.597V117.857C280.377 117.895 280.119 117.933 279.822 117.971C279.535 118.01 279.229 118.038 278.904 118.057C278.579 118.077 278.249 118.086 277.914 118.086ZM144.403 129.977C144.25 129.977 144.173 129.9 144.173 129.747V128.628C144.173 128.475 144.25 128.399 144.403 128.399H145.206C145.282 128.399 145.335 128.423 145.364 128.471C145.402 128.509 145.421 128.561 145.421 128.628V129.747C145.421 129.9 145.349 129.977 145.206 129.977H144.403ZM144.23 139V131.34H145.364V139H144.23ZM147.551 139V131.34H148.44L148.684 132.186C149.047 131.928 149.473 131.703 149.961 131.512C150.448 131.311 150.955 131.211 151.481 131.211C152.045 131.211 152.5 131.33 152.844 131.569C153.188 131.808 153.442 132.124 153.604 132.516C153.767 132.908 153.848 133.334 153.848 133.793V139H152.715V133.922C152.715 133.597 152.648 133.31 152.514 133.061C152.39 132.803 152.208 132.602 151.969 132.459C151.739 132.315 151.452 132.243 151.108 132.243C150.793 132.243 150.496 132.277 150.219 132.344C149.951 132.401 149.693 132.487 149.444 132.602C149.205 132.707 148.952 132.836 148.684 132.989V139H147.551ZM156.156 129.977C156.003 129.977 155.927 129.9 155.927 129.747V128.628C155.927 128.475 156.003 128.399 156.156 128.399H156.96C157.036 128.399 157.089 128.423 157.117 128.471C157.156 128.509 157.175 128.561 157.175 128.628V129.747C157.175 129.9 157.103 129.977 156.96 129.977H156.156ZM155.984 139V131.34H157.117V139H155.984ZM161.843 139C161.346 139 160.935 138.919 160.61 138.756C160.284 138.594 160.045 138.331 159.892 137.967C159.739 137.604 159.668 137.121 159.677 136.518L159.72 132.272H158.501V131.54L159.735 131.34L159.921 129.202H160.796V131.34H163.005V132.272H160.796V136.518C160.796 136.853 160.83 137.121 160.896 137.322C160.973 137.522 161.069 137.675 161.183 137.781C161.308 137.886 161.437 137.962 161.571 138.01C161.705 138.048 161.834 138.072 161.958 138.082L162.89 138.168V139H161.843ZM164.744 129.977C164.591 129.977 164.514 129.9 164.514 129.747V128.628C164.514 128.475 164.591 128.399 164.744 128.399H165.547C165.624 128.399 165.676 128.423 165.705 128.471C165.743 128.509 165.762 128.561 165.762 128.628V129.747C165.762 129.9 165.691 129.977 165.547 129.977H164.744ZM164.572 139V131.34H165.705V139H164.572ZM169.384 139.086C168.819 139.086 168.356 138.919 167.992 138.584C167.629 138.249 167.447 137.776 167.447 137.164V136.619C167.447 136.016 167.643 135.528 168.035 135.155C168.437 134.782 169.039 134.596 169.843 134.596H172.439V133.649C172.439 133.334 172.382 133.066 172.267 132.846C172.162 132.616 171.966 132.439 171.679 132.315C171.402 132.191 170.995 132.129 170.46 132.129H168.078V131.454C168.413 131.397 168.8 131.344 169.24 131.297C169.69 131.249 170.216 131.225 170.818 131.225C171.44 131.215 171.956 131.292 172.367 131.454C172.779 131.617 173.08 131.875 173.271 132.229C173.472 132.573 173.572 133.028 173.572 133.592V139H172.697L172.482 138.125C172.444 138.163 172.324 138.23 172.124 138.326C171.932 138.421 171.684 138.531 171.378 138.656C171.081 138.77 170.756 138.871 170.402 138.957C170.058 139.043 169.718 139.086 169.384 139.086ZM169.857 138.24C170.029 138.249 170.225 138.23 170.445 138.182C170.665 138.135 170.89 138.082 171.119 138.025C171.349 137.958 171.559 137.891 171.751 137.824C171.951 137.757 172.114 137.699 172.238 137.652C172.363 137.604 172.43 137.58 172.439 137.58V135.17L170.101 135.27C169.556 135.289 169.164 135.423 168.925 135.672C168.695 135.921 168.58 136.241 168.58 136.633V136.977C168.58 137.283 168.642 137.532 168.767 137.723C168.901 137.905 169.063 138.034 169.255 138.111C169.455 138.187 169.656 138.23 169.857 138.24ZM178.248 139C177.751 139 177.339 138.919 177.014 138.756C176.689 138.594 176.45 138.331 176.297 137.967C176.144 137.604 176.072 137.121 176.082 136.518L176.125 132.272H174.905V131.54L176.139 131.34L176.326 129.202H177.201V131.34H179.41V132.272H177.201V136.518C177.201 136.853 177.234 137.121 177.301 137.322C177.378 137.522 177.473 137.675 177.588 137.781C177.712 137.886 177.841 137.962 177.975 138.01C178.109 138.048 178.238 138.072 178.363 138.082L179.295 138.168V139H178.248ZM181.148 129.977C180.995 129.977 180.919 129.9 180.919 129.747V128.628C180.919 128.475 180.995 128.399 181.148 128.399H181.952C182.028 128.399 182.081 128.423 182.109 128.471C182.148 128.509 182.167 128.561 182.167 128.628V129.747C182.167 129.9 182.095 129.977 181.952 129.977H181.148ZM180.976 139V131.34H182.109V139H180.976ZM186.362 139L183.479 131.34H184.641L187.022 137.938L189.475 131.34H190.623L187.653 139H186.362ZM194.634 139.086C193.83 139.086 193.194 138.967 192.726 138.727C192.267 138.488 191.937 138.082 191.736 137.508C191.535 136.934 191.435 136.15 191.435 135.155C191.435 134.142 191.535 133.353 191.736 132.788C191.946 132.215 192.286 131.813 192.754 131.583C193.223 131.354 193.854 131.239 194.648 131.239C195.327 131.239 195.877 131.316 196.298 131.469C196.728 131.622 197.044 131.885 197.244 132.258C197.455 132.621 197.56 133.128 197.56 133.778C197.56 134.228 197.469 134.591 197.287 134.869C197.115 135.136 196.862 135.332 196.527 135.457C196.202 135.571 195.815 135.629 195.365 135.629H192.568C192.577 136.25 192.644 136.753 192.769 137.135C192.893 137.508 193.118 137.781 193.443 137.953C193.778 138.115 194.265 138.197 194.906 138.197H197.374V138.885C196.934 138.943 196.503 138.99 196.082 139.029C195.662 139.067 195.179 139.086 194.634 139.086ZM192.554 134.883H195.279C195.709 134.883 196.025 134.806 196.226 134.653C196.436 134.491 196.542 134.204 196.542 133.793C196.542 133.353 196.475 133.013 196.341 132.774C196.216 132.525 196.016 132.353 195.738 132.258C195.47 132.153 195.107 132.1 194.648 132.1C194.112 132.1 193.692 132.181 193.386 132.344C193.08 132.497 192.864 132.774 192.74 133.176C192.616 133.577 192.554 134.147 192.554 134.883ZM202.108 139.086C201.916 139.086 201.682 139.081 201.405 139.072C201.127 139.062 200.836 139.048 200.53 139.029C200.233 139.01 199.961 138.99 199.712 138.971C199.473 138.943 199.286 138.914 199.153 138.885V138.197H202.294C202.61 138.197 202.882 138.173 203.112 138.125C203.341 138.077 203.518 137.972 203.643 137.809C203.777 137.647 203.843 137.403 203.843 137.078V136.733C203.843 136.399 203.734 136.141 203.514 135.959C203.294 135.768 202.94 135.672 202.452 135.672H201.376C200.927 135.672 200.525 135.615 200.171 135.5C199.827 135.385 199.559 135.189 199.368 134.912C199.176 134.634 199.081 134.252 199.081 133.764V133.362C199.081 132.884 199.172 132.492 199.353 132.186C199.545 131.88 199.836 131.65 200.228 131.497C200.63 131.344 201.147 131.268 201.778 131.268C202.046 131.268 202.352 131.277 202.696 131.297C203.05 131.316 203.394 131.344 203.729 131.383C204.063 131.411 204.336 131.445 204.546 131.483V132.172H201.591C201.104 132.172 200.726 132.253 200.458 132.416C200.2 132.578 200.071 132.894 200.071 133.362V133.678C200.071 133.974 200.133 134.199 200.257 134.352C200.381 134.496 200.554 134.591 200.774 134.639C201.003 134.687 201.266 134.711 201.563 134.711H202.653C203.351 134.711 203.891 134.873 204.274 135.198C204.656 135.524 204.848 135.992 204.848 136.604V137.135C204.848 137.652 204.728 138.053 204.489 138.34C204.259 138.617 203.939 138.814 203.528 138.928C203.126 139.033 202.653 139.086 202.108 139.086ZM206.669 139.014C206.516 139.014 206.44 138.938 206.44 138.785V137.637C206.44 137.484 206.516 137.408 206.669 137.408H207.301C207.454 137.408 207.53 137.484 207.53 137.637V138.785C207.53 138.861 207.506 138.919 207.458 138.957C207.42 138.995 207.368 139.014 207.301 139.014H206.669Z" fill="#5B5B5B"/>
<line x1="70" y1="92.6414" x2="281" y2="92.6578" stroke="#D0D0D0" stroke-width="0.717264"/>
</g>
<defs>
<filter id="filter0_d_931_1187" x="0.299999" y="0.299999" width="350.509" height="211.726" filterUnits="userSpaceOnUse" color-interpolation-filters="sRGB">
<feFlood flood-opacity="0" result="BackgroundImageFix"/>
<feColorMatrix in="SourceAlpha" type="matrix" values="0 0 0 0 0 0 0 0 0 0 0 0 0 0 0 0 0 0 127 0" result="hardAlpha"/>
<feOffset dy="4"/>
<feGaussianBlur stdDeviation="9.35"/>
<feComposite in2="hardAlpha" operator="out"/>
<feColorMatrix type="matrix" values="0 0 0 0 0 0 0 0 0 0 0 0 0 0 0 0 0 0 0.25 0"/>
<feBlend mode="normal" in2="BackgroundImageFix" result="effect1_dropShadow_931_1187"/>
<feBlend mode="normal" in="SourceGraphic" in2="effect1_dropShadow_931_1187" result="shape"/>
</filter>
<linearGradient id="paint0_linear_931_1187" x1="19" y1="15" x2="332.109" y2="189.326" gradientUnits="userSpaceOnUse">
<stop stop-color="#CB397A"/>
<stop offset="1" stop-color="#3A3895"/>
</linearGradient>
</defs>
</svg>
