<svg width="351" height="213" viewBox="0 0 351 213" fill="none" xmlns="http://www.w3.org/2000/svg">
<g filter="url(#filter0_d_931_1201)">
<rect x="19" y="15" width="313.109" height="174.326" rx="16.9248" fill="white"/>
<mask id="mask0_931_1201" style="mask-type:alpha" maskUnits="userSpaceOnUse" x="19" y="15" width="314" height="175">
<rect x="19" y="15" width="313.109" height="174.326" rx="16.9248" fill="url(#paint0_linear_931_1201)"/>
</mask>
<g mask="url(#mask0_931_1201)">
<ellipse cx="60.6938" cy="61.938" rx="60.6938" ry="61.938" transform="matrix(0.861361 -0.507994 0.492048 0.870568 283.104 18.9683)" fill="#7030A0"/>
<circle cx="50.9982" cy="210.089" r="52.467" fill="#B53784"/>
<path d="M368.827 -37.1653C385.659 -7.38545 375.897 30.5599 347.024 47.588C318.151 64.6161 281.1 54.2787 264.268 24.4989C247.437 -5.28101 257.198 -43.2264 286.071 -60.2545C314.944 -77.2826 351.995 -66.9452 368.827 -37.1653Z" fill="#B53784"/>
<path d="M58.9339 154.467C58.9339 183.444 35.4437 206.934 6.46696 206.934C-22.5097 206.934 -46 183.444 -46 154.467C-46 125.49 -22.5097 102 6.46696 102C35.4437 102 58.9339 125.49 58.9339 154.467Z" fill="#7030A0"/>
</g>
<path d="M62.036 83.168C61.4947 83.168 60.9347 83.1493 60.356 83.112C59.796 83.0933 59.2173 83.056 58.62 83C58.0413 82.9253 57.4907 82.8507 56.968 82.776C56.4453 82.6827 55.9693 82.58 55.54 82.468V79.192C56.1 79.248 56.7347 79.2947 57.444 79.332C58.1533 79.3693 58.8907 79.3973 59.656 79.416C60.4213 79.4347 61.1493 79.444 61.84 79.444C62.5493 79.444 63.156 79.388 63.66 79.276C64.1827 79.1453 64.584 78.9307 64.864 78.632C65.144 78.3147 65.284 77.8853 65.284 77.344V76.588C65.284 75.972 65.0973 75.5053 64.724 75.188C64.3693 74.852 63.856 74.684 63.184 74.684H61.42C59.4413 74.684 57.92 74.2547 56.856 73.396C55.8107 72.5187 55.288 71.0347 55.288 68.944V67.936C55.288 65.92 55.8667 64.4453 57.024 63.512C58.1813 62.5787 59.8333 62.112 61.98 62.112C62.7453 62.112 63.5013 62.1493 64.248 62.224C65.0133 62.2987 65.7413 62.392 66.432 62.504C67.1413 62.5973 67.748 62.7 68.252 62.812V66.088C67.3933 66.032 66.432 65.976 65.368 65.92C64.3227 65.864 63.352 65.836 62.456 65.836C61.8213 65.836 61.252 65.9013 60.748 66.032C60.2627 66.144 59.8893 66.368 59.628 66.704C59.3667 67.04 59.236 67.516 59.236 68.132V68.692C59.236 69.42 59.4413 69.9427 59.852 70.26C60.2627 70.5773 60.8693 70.736 61.672 70.736H63.716C64.9667 70.736 65.9933 70.9693 66.796 71.436C67.6173 71.884 68.224 72.5093 68.616 73.312C69.0267 74.1147 69.232 75.0293 69.232 76.056V77.232C69.232 78.856 68.924 80.0973 68.308 80.956C67.7107 81.8147 66.8707 82.4027 65.788 82.72C64.724 83.0187 63.4733 83.168 62.036 83.168ZM76.3403 83.168C74.9963 83.168 73.9416 82.776 73.1763 81.992C72.4109 81.1893 72.0283 80.06 72.0283 78.604V67.964H76.1723V77.372C76.1723 78.212 76.3683 78.7813 76.7603 79.08C77.1709 79.36 77.7029 79.5 78.3563 79.5C78.8789 79.5 79.4109 79.4067 79.9523 79.22C80.5123 79.0147 81.0069 78.744 81.4363 78.408V67.964H85.6083V83H82.1643L81.4363 81.46C80.7643 81.908 79.9896 82.3093 79.1123 82.664C78.2349 83 77.3109 83.168 76.3403 83.168ZM97.2486 83.168C96.5953 83.168 96.0073 83.0933 95.4846 82.944C94.962 82.7947 94.486 82.5987 94.0566 82.356C93.646 82.1133 93.254 81.852 92.8806 81.572L92.2086 83H88.7366V61.636H92.8806V69C93.478 68.6827 94.15 68.3933 94.8966 68.132C95.6433 67.8707 96.362 67.74 97.0526 67.74C98.3406 67.74 99.3673 68.0107 100.133 68.552C100.917 69.0933 101.486 69.9427 101.841 71.1C102.195 72.2387 102.373 73.7507 102.373 75.636C102.373 77.316 102.186 78.716 101.813 79.836C101.458 80.956 100.898 81.796 100.133 82.356C99.386 82.8973 98.4246 83.168 97.2486 83.168ZM95.7086 79.78C96.194 79.78 96.6233 79.6587 96.9966 79.416C97.3886 79.1547 97.6873 78.7067 97.8926 78.072C98.1166 77.4373 98.2286 76.56 98.2286 75.44C98.2286 74.1333 98.1073 73.1813 97.8646 72.584C97.6406 71.968 97.3326 71.5667 96.9406 71.38C96.5673 71.1747 96.1566 71.072 95.7086 71.072C95.1486 71.072 94.626 71.1653 94.1406 71.352C93.674 71.52 93.254 71.7067 92.8806 71.912V79.052C93.2353 79.2387 93.6366 79.4067 94.0846 79.556C94.5513 79.7053 95.0926 79.78 95.7086 79.78ZM110.576 83.168C110.109 83.168 109.605 83.1493 109.064 83.112C108.522 83.0933 107.981 83.056 107.44 83C106.898 82.944 106.394 82.8787 105.928 82.804C105.461 82.7107 105.069 82.608 104.752 82.496V80.06H111.416C111.808 80.06 112.125 80.032 112.368 79.976C112.629 79.9013 112.816 79.78 112.928 79.612C113.058 79.4253 113.124 79.164 113.124 78.828V78.352C113.124 77.9787 113.002 77.6893 112.76 77.484C112.517 77.2787 112.069 77.176 111.416 77.176H109.064C108.205 77.176 107.43 77.0453 106.74 76.784C106.049 76.5227 105.498 76.0933 105.088 75.496C104.696 74.8987 104.5 74.096 104.5 73.088V72.22C104.5 71.268 104.686 70.4653 105.06 69.812C105.433 69.1587 106.058 68.664 106.936 68.328C107.813 67.992 109.017 67.824 110.548 67.824C111.164 67.824 111.817 67.8613 112.508 67.936C113.217 67.992 113.88 68.076 114.496 68.188C115.13 68.2813 115.634 68.3933 116.008 68.524V70.96H109.708C109.166 70.96 108.756 71.0533 108.476 71.24C108.196 71.408 108.056 71.7347 108.056 72.22V72.668C108.056 73.004 108.121 73.256 108.252 73.424C108.382 73.5733 108.578 73.6853 108.84 73.76C109.12 73.816 109.465 73.844 109.876 73.844H112.284C113.814 73.844 114.925 74.1987 115.616 74.908C116.325 75.5987 116.68 76.56 116.68 77.792V79.136C116.68 80.144 116.437 80.9467 115.952 81.544C115.485 82.1227 114.794 82.5427 113.88 82.804C112.984 83.0467 111.882 83.168 110.576 83.168ZM125.104 83.168C124.19 83.168 123.34 83.0467 122.556 82.804C121.791 82.5613 121.128 82.16 120.568 81.6C120.008 81.0213 119.57 80.2467 119.252 79.276C118.954 78.2867 118.804 77.0453 118.804 75.552C118.804 74.0213 118.944 72.752 119.224 71.744C119.504 70.736 119.915 69.9427 120.456 69.364C121.016 68.7667 121.698 68.3467 122.5 68.104C123.303 67.8613 124.208 67.74 125.216 67.74C126.131 67.74 126.999 67.796 127.82 67.908C128.66 68.0013 129.538 68.1787 130.452 68.44V70.82H126.504C125.646 70.82 124.955 70.9507 124.432 71.212C123.91 71.4547 123.527 71.9213 123.284 72.612C123.06 73.284 122.948 74.2547 122.948 75.524C122.948 76.7747 123.06 77.7267 123.284 78.38C123.527 79.0333 123.91 79.472 124.432 79.696C124.974 79.92 125.683 80.032 126.56 80.032H130.676V82.384C130.21 82.5333 129.668 82.6733 129.052 82.804C128.436 82.916 127.783 83 127.092 83.056C126.42 83.1307 125.758 83.168 125.104 83.168ZM132.979 83V67.964H136.171L137.123 70.26C137.664 69.5693 138.271 68.9813 138.943 68.496C139.633 68.0107 140.445 67.768 141.379 67.768C141.584 67.768 141.789 67.7773 141.995 67.796C142.219 67.8147 142.424 67.852 142.611 67.908V72.164C142.331 72.1267 142.032 72.0987 141.715 72.08C141.416 72.0427 141.127 72.024 140.847 72.024C140.305 72.024 139.811 72.0893 139.363 72.22C138.933 72.332 138.532 72.5093 138.159 72.752C137.804 72.976 137.459 73.2747 137.123 73.648V83H132.979ZM145.323 65.752C144.931 65.752 144.735 65.5653 144.735 65.192V62.448C144.735 62.056 144.931 61.86 145.323 61.86H148.515C148.683 61.86 148.813 61.916 148.907 62.028C149 62.14 149.047 62.28 149.047 62.448V65.192C149.047 65.5653 148.869 65.752 148.515 65.752H145.323ZM144.819 83V67.964H148.963V83H144.819ZM152.147 89.636V67.964H155.619L156.291 69.392C156.645 69.112 157.037 68.8507 157.467 68.608C157.896 68.3467 158.363 68.1413 158.867 67.992C159.371 67.824 159.903 67.74 160.463 67.74C161.377 67.74 162.171 67.9173 162.843 68.272C163.533 68.6267 164.093 69.14 164.523 69.812C164.952 70.484 165.269 71.3053 165.475 72.276C165.68 73.228 165.783 74.3013 165.783 75.496C165.783 77.1013 165.624 78.4827 165.307 79.64C164.989 80.7973 164.439 81.684 163.655 82.3C162.889 82.8973 161.825 83.196 160.463 83.196C159.753 83.196 159.025 83.112 158.279 82.944C157.551 82.776 156.888 82.5333 156.291 82.216V89.636H152.147ZM159.119 79.78C159.548 79.78 159.959 79.668 160.351 79.444C160.743 79.2013 161.051 78.772 161.275 78.156C161.517 77.54 161.639 76.6533 161.639 75.496C161.639 74.376 161.527 73.4987 161.303 72.864C161.097 72.2107 160.808 71.7533 160.435 71.492C160.061 71.212 159.623 71.072 159.119 71.072C158.54 71.072 158.008 71.1653 157.523 71.352C157.037 71.5387 156.627 71.7253 156.291 71.912V79.052C156.664 79.276 157.103 79.4533 157.607 79.584C158.111 79.7147 158.615 79.78 159.119 79.78ZM174.238 83C173.08 83 172.138 82.832 171.41 82.496C170.7 82.16 170.187 81.6 169.87 80.816C169.552 80.032 169.412 78.9773 169.45 77.652L169.59 71.296H167.238V68.636L169.73 67.964L170.29 63.764H173.566V67.964H177.094V71.296H173.566V77.624C173.566 78.0347 173.603 78.3707 173.678 78.632C173.752 78.8933 173.855 79.108 173.986 79.276C174.135 79.4253 174.303 79.5373 174.49 79.612C174.676 79.6867 174.863 79.7333 175.05 79.752L176.954 79.92V83H174.238ZM179.913 65.752C179.521 65.752 179.325 65.5653 179.325 65.192V62.448C179.325 62.056 179.521 61.86 179.913 61.86H183.105C183.273 61.86 183.403 61.916 183.497 62.028C183.59 62.14 183.637 62.28 183.637 62.448V65.192C183.637 65.5653 183.459 65.752 183.105 65.752H179.913ZM179.409 83V67.964H183.553V83H179.409ZM193.177 83.14C191.945 83.14 190.89 83.0187 190.013 82.776C189.135 82.5147 188.417 82.0853 187.857 81.488C187.315 80.8907 186.914 80.0973 186.653 79.108C186.41 78.1187 186.289 76.896 186.289 75.44C186.289 73.9093 186.41 72.6493 186.653 71.66C186.914 70.652 187.315 69.868 187.857 69.308C188.417 68.7293 189.135 68.328 190.013 68.104C190.909 67.8613 191.963 67.74 193.177 67.74C194.427 67.74 195.491 67.8613 196.369 68.104C197.246 68.3467 197.955 68.7573 198.497 69.336C199.057 69.896 199.458 70.68 199.701 71.688C199.962 72.6773 200.093 73.928 200.093 75.44C200.093 76.9333 199.971 78.184 199.729 79.192C199.486 80.1813 199.094 80.9653 198.553 81.544C198.011 82.1227 197.293 82.5333 196.397 82.776C195.519 83.0187 194.446 83.14 193.177 83.14ZM193.177 79.836C193.681 79.836 194.101 79.7893 194.437 79.696C194.791 79.6027 195.071 79.416 195.277 79.136C195.501 78.8373 195.669 78.3893 195.781 77.792C195.893 77.1947 195.949 76.4107 195.949 75.44C195.949 74.4507 195.893 73.6667 195.781 73.088C195.669 72.4907 195.501 72.052 195.277 71.772C195.071 71.4733 194.791 71.2773 194.437 71.184C194.101 71.0907 193.681 71.044 193.177 71.044C192.691 71.044 192.271 71.0907 191.917 71.184C191.581 71.2773 191.301 71.4733 191.077 71.772C190.853 72.052 190.685 72.4907 190.573 73.088C190.479 73.6667 190.433 74.4507 190.433 75.44C190.433 76.4107 190.479 77.1947 190.573 77.792C190.685 78.3893 190.853 78.8373 191.077 79.136C191.301 79.416 191.581 79.6027 191.917 79.696C192.271 79.7893 192.691 79.836 193.177 79.836ZM202.842 83V67.964H206.258L206.986 69.504C207.546 69.0373 208.246 68.6267 209.086 68.272C209.945 67.8987 210.822 67.712 211.718 67.712C212.95 67.712 213.902 67.9547 214.574 68.44C215.246 68.9253 215.713 69.5787 215.974 70.4C216.254 71.2027 216.394 72.0987 216.394 73.088V83H212.25V73.62C212.25 73.1347 212.157 72.7333 211.97 72.416C211.802 72.0987 211.559 71.856 211.242 71.688C210.925 71.52 210.542 71.436 210.094 71.436C209.702 71.436 209.319 71.4827 208.946 71.576C208.591 71.6693 208.246 71.8 207.91 71.968C207.593 72.136 207.285 72.332 206.986 72.556V83H202.842ZM226.349 83L228.757 62.28H232.733L237.493 78.156L242.225 62.28H246.173L248.609 83H244.605L242.813 67.74L243.457 67.796L239.397 83H235.505L231.389 67.796L232.089 67.768L230.353 83H226.349ZM257.599 83.14C256.367 83.14 255.312 83.0187 254.435 82.776C253.557 82.5147 252.839 82.0853 252.279 81.488C251.737 80.8907 251.336 80.0973 251.075 79.108C250.832 78.1187 250.711 76.896 250.711 75.44C250.711 73.9093 250.832 72.6493 251.075 71.66C251.336 70.652 251.737 69.868 252.279 69.308C252.839 68.7293 253.557 68.328 254.435 68.104C255.331 67.8613 256.385 67.74 257.599 67.74C258.849 67.74 259.913 67.8613 260.791 68.104C261.668 68.3467 262.377 68.7573 262.919 69.336C263.479 69.896 263.88 70.68 264.123 71.688C264.384 72.6773 264.515 73.928 264.515 75.44C264.515 76.9333 264.393 78.184 264.151 79.192C263.908 80.1813 263.516 80.9653 262.975 81.544C262.433 82.1227 261.715 82.5333 260.819 82.776C259.941 83.0187 258.868 83.14 257.599 83.14ZM257.599 79.836C258.103 79.836 258.523 79.7893 258.859 79.696C259.213 79.6027 259.493 79.416 259.699 79.136C259.923 78.8373 260.091 78.3893 260.203 77.792C260.315 77.1947 260.371 76.4107 260.371 75.44C260.371 74.4507 260.315 73.6667 260.203 73.088C260.091 72.4907 259.923 72.052 259.699 71.772C259.493 71.4733 259.213 71.2773 258.859 71.184C258.523 71.0907 258.103 71.044 257.599 71.044C257.113 71.044 256.693 71.0907 256.339 71.184C256.003 71.2773 255.723 71.4733 255.499 71.772C255.275 72.052 255.107 72.4907 254.995 73.088C254.901 73.6667 254.855 74.4507 254.855 75.44C254.855 76.4107 254.901 77.1947 254.995 77.792C255.107 78.3893 255.275 78.8373 255.499 79.136C255.723 79.416 256.003 79.6027 256.339 79.696C256.693 79.7893 257.113 79.836 257.599 79.836ZM272.192 83.168C271.016 83.168 270.027 82.9253 269.224 82.44C268.421 81.936 267.815 81.1333 267.404 80.032C267.012 78.912 266.816 77.4467 266.816 75.636C266.816 73.7693 266.984 72.2573 267.32 71.1C267.675 69.9427 268.263 69.0933 269.084 68.552C269.905 68.0107 271.035 67.74 272.472 67.74C273.163 67.74 273.844 67.8147 274.516 67.964C275.188 68.0947 275.785 68.2533 276.308 68.44V61.636H280.48V83H276.98L276.308 81.572C275.991 81.8707 275.599 82.1413 275.132 82.384C274.684 82.6267 274.208 82.8227 273.704 82.972C273.2 83.1027 272.696 83.168 272.192 83.168ZM273.648 79.836C274.208 79.836 274.712 79.7427 275.16 79.556C275.627 79.3693 276.009 79.1827 276.308 78.996V71.436C275.935 71.3053 275.543 71.1747 275.132 71.044C274.721 70.9133 274.283 70.848 273.816 70.848C273.125 70.848 272.565 70.9693 272.136 71.212C271.725 71.4547 271.427 71.912 271.24 72.584C271.053 73.2373 270.96 74.1893 270.96 75.44C270.96 76.5973 271.044 77.5027 271.212 78.156C271.399 78.7907 271.688 79.2293 272.08 79.472C272.472 79.7147 272.995 79.836 273.648 79.836ZM289.916 83.14C288.255 83.14 286.93 82.9253 285.94 82.496C284.951 82.048 284.232 81.264 283.784 80.144C283.355 79.024 283.14 77.4747 283.14 75.496C283.14 73.4613 283.346 71.884 283.756 70.764C284.167 69.644 284.858 68.86 285.828 68.412C286.799 67.964 288.115 67.74 289.776 67.74C291.27 67.74 292.464 67.8893 293.36 68.188C294.256 68.4867 294.9 69.0093 295.292 69.756C295.703 70.5027 295.908 71.5573 295.908 72.92C295.908 73.928 295.703 74.7307 295.292 75.328C294.9 75.9067 294.34 76.3267 293.612 76.588C292.884 76.8307 292.026 76.952 291.036 76.952H287.256C287.294 77.7173 287.406 78.3333 287.592 78.8C287.798 79.248 288.162 79.5747 288.684 79.78C289.226 79.9667 290 80.06 291.008 80.06H295.404V82.496C294.676 82.6453 293.874 82.7947 292.996 82.944C292.138 83.0747 291.111 83.14 289.916 83.14ZM287.2 74.488H290.616C291.176 74.488 291.587 74.376 291.848 74.152C292.11 73.928 292.24 73.5267 292.24 72.948C292.24 72.4067 292.156 71.9773 291.988 71.66C291.82 71.324 291.559 71.0907 291.204 70.96C290.85 70.8107 290.374 70.736 289.776 70.736C289.142 70.736 288.638 70.848 288.264 71.072C287.891 71.2773 287.62 71.6507 287.452 72.192C287.284 72.7333 287.2 73.4987 287.2 74.488ZM303.331 83.056C302.267 83.056 301.381 82.888 300.671 82.552C299.981 82.1973 299.467 81.6653 299.131 80.956C298.795 80.228 298.627 79.2947 298.627 78.156V61.636H302.771V77.54C302.771 78.1 302.827 78.548 302.939 78.884C303.051 79.2013 303.219 79.4347 303.443 79.584C303.686 79.7333 303.985 79.836 304.339 79.892L305.487 80.06V83.056H303.331Z" fill="#5B5B5B"/>
<path d="M79.4314 118L83.0464 107.442H84.5096L88.1246 118H86.9483L85.8867 114.987H81.6405L80.6077 118H79.4314ZM81.9274 113.955H85.5998L83.778 108.446L81.9274 113.955ZM89.7001 118V110.34H90.5895L90.8334 111.186C91.1968 110.928 91.6224 110.703 92.1101 110.512C92.5979 110.311 93.1047 110.211 93.6307 110.211C94.195 110.211 94.6492 110.33 94.9935 110.569C95.3378 110.808 95.5912 111.124 95.7538 111.516C95.9164 111.908 95.9977 112.334 95.9977 112.793V118H94.8644V112.922C94.8644 112.597 94.7975 112.31 94.6636 112.061C94.5393 111.803 94.3576 111.602 94.1185 111.459C93.8889 111.315 93.602 111.243 93.2577 111.243C92.9422 111.243 92.6457 111.277 92.3683 111.344C92.1006 111.401 91.8423 111.487 91.5937 111.602C91.3546 111.707 91.1012 111.836 90.8334 111.989V118H89.7001ZM98.1336 118V110.34H99.023L99.2669 111.186C99.6303 110.928 100.056 110.703 100.544 110.512C101.031 110.311 101.538 110.211 102.064 110.211C102.628 110.211 103.083 110.33 103.427 110.569C103.771 110.808 104.025 111.124 104.187 111.516C104.35 111.908 104.431 112.334 104.431 112.793V118H103.298V112.922C103.298 112.597 103.231 112.31 103.097 112.061C102.973 111.803 102.791 111.602 102.552 111.459C102.322 111.315 102.035 111.243 101.691 111.243C101.376 111.243 101.079 111.277 100.802 111.344C100.534 111.401 100.276 111.487 100.027 111.602C99.7881 111.707 99.5346 111.836 99.2669 111.989V118H98.1336ZM108.848 118.086C108.112 118.086 107.543 117.895 107.141 117.512C106.749 117.13 106.553 116.537 106.553 115.733V110.34H107.686V115.447C107.686 116.087 107.829 116.522 108.116 116.752C108.413 116.972 108.824 117.082 109.35 117.082C109.8 117.082 110.211 117.02 110.584 116.895C110.957 116.762 111.339 116.58 111.731 116.35V110.34H112.865V118H111.975L111.731 117.154C111.339 117.402 110.895 117.622 110.397 117.814C109.909 117.995 109.393 118.086 108.848 118.086ZM116.492 118.086C115.928 118.086 115.464 117.919 115.101 117.584C114.738 117.249 114.556 116.776 114.556 116.164V115.619C114.556 115.016 114.752 114.528 115.144 114.155C115.546 113.782 116.148 113.596 116.951 113.596H119.548V112.649C119.548 112.334 119.491 112.066 119.376 111.846C119.271 111.616 119.075 111.439 118.788 111.315C118.51 111.191 118.104 111.129 117.568 111.129H115.187V110.454C115.522 110.397 115.909 110.344 116.349 110.297C116.798 110.249 117.324 110.225 117.927 110.225C118.549 110.215 119.065 110.292 119.476 110.454C119.887 110.617 120.189 110.875 120.38 111.229C120.581 111.573 120.681 112.028 120.681 112.592V118H119.806L119.591 117.125C119.553 117.163 119.433 117.23 119.232 117.326C119.041 117.421 118.792 117.531 118.486 117.656C118.19 117.77 117.865 117.871 117.511 117.957C117.167 118.043 116.827 118.086 116.492 118.086ZM116.966 117.24C117.138 117.249 117.334 117.23 117.554 117.182C117.774 117.135 117.999 117.082 118.228 117.025C118.458 116.958 118.668 116.891 118.859 116.824C119.06 116.757 119.223 116.699 119.347 116.652C119.471 116.604 119.538 116.58 119.548 116.58V114.17L117.21 114.27C116.665 114.289 116.272 114.423 116.033 114.672C115.804 114.921 115.689 115.241 115.689 115.633V115.977C115.689 116.283 115.751 116.532 115.876 116.723C116.009 116.905 116.172 117.034 116.363 117.111C116.564 117.187 116.765 117.23 116.966 117.24ZM124.826 118.014C124.386 118.014 124.018 117.938 123.721 117.785C123.425 117.622 123.2 117.364 123.047 117.01C122.894 116.647 122.818 116.159 122.818 115.547V107.055H123.951V115.404C123.951 115.863 123.994 116.212 124.08 116.451C124.166 116.68 124.29 116.843 124.453 116.938C124.615 117.025 124.807 117.082 125.027 117.111L125.801 117.197V118.014H124.826ZM132.393 118.086C131.828 118.086 131.365 117.919 131.001 117.584C130.638 117.249 130.456 116.776 130.456 116.164V115.619C130.456 115.016 130.652 114.528 131.044 114.155C131.446 113.782 132.048 113.596 132.852 113.596H135.448V112.649C135.448 112.334 135.391 112.066 135.276 111.846C135.171 111.616 134.975 111.439 134.688 111.315C134.411 111.191 134.004 111.129 133.469 111.129H131.087V110.454C131.422 110.397 131.809 110.344 132.249 110.297C132.699 110.249 133.225 110.225 133.827 110.225C134.449 110.215 134.965 110.292 135.377 110.454C135.788 110.617 136.089 110.875 136.28 111.229C136.481 111.573 136.582 112.028 136.582 112.592V118H135.706L135.491 117.125C135.453 117.163 135.333 117.23 135.133 117.326C134.941 117.421 134.693 117.531 134.387 117.656C134.09 117.77 133.765 117.871 133.411 117.957C133.067 118.043 132.727 118.086 132.393 118.086ZM132.866 117.24C133.038 117.249 133.234 117.23 133.454 117.182C133.674 117.135 133.899 117.082 134.128 117.025C134.358 116.958 134.568 116.891 134.76 116.824C134.961 116.757 135.123 116.699 135.247 116.652C135.372 116.604 135.439 116.58 135.448 116.58V114.17L133.11 114.27C132.565 114.289 132.173 114.423 131.934 114.672C131.704 114.921 131.589 115.241 131.589 115.633V115.977C131.589 116.283 131.652 116.532 131.776 116.723C131.91 116.905 132.072 117.034 132.264 117.111C132.464 117.187 132.665 117.23 132.866 117.24ZM141.501 118.086C141.07 118.086 140.669 118.029 140.296 117.914C139.923 117.799 139.598 117.598 139.32 117.311C139.043 117.025 138.828 116.628 138.675 116.121C138.522 115.614 138.445 114.968 138.445 114.184C138.445 113.39 138.517 112.74 138.66 112.233C138.804 111.717 139.01 111.315 139.277 111.028C139.545 110.741 139.87 110.54 140.253 110.426C140.635 110.311 141.061 110.254 141.53 110.254C141.912 110.254 142.328 110.273 142.778 110.311C143.227 110.34 143.657 110.387 144.069 110.454V111.129H141.831C141.343 111.129 140.932 111.21 140.597 111.372C140.262 111.535 140.009 111.841 139.837 112.291C139.665 112.73 139.579 113.371 139.579 114.213C139.579 115.026 139.669 115.647 139.851 116.078C140.033 116.508 140.291 116.805 140.626 116.967C140.96 117.12 141.367 117.197 141.845 117.197H144.183V117.857C143.963 117.895 143.705 117.933 143.409 117.971C143.122 118.01 142.816 118.038 142.491 118.057C142.166 118.077 141.836 118.086 141.501 118.086ZM148.533 118.086C148.103 118.086 147.701 118.029 147.328 117.914C146.955 117.799 146.63 117.598 146.353 117.311C146.076 117.025 145.86 116.628 145.707 116.121C145.554 115.614 145.478 114.968 145.478 114.184C145.478 113.39 145.55 112.74 145.693 112.233C145.836 111.717 146.042 111.315 146.31 111.028C146.578 110.741 146.903 110.54 147.285 110.426C147.668 110.311 148.093 110.254 148.562 110.254C148.945 110.254 149.361 110.273 149.81 110.311C150.26 110.34 150.69 110.387 151.101 110.454V111.129H148.863C148.376 111.129 147.964 111.21 147.63 111.372C147.295 111.535 147.041 111.841 146.869 112.291C146.697 112.73 146.611 113.371 146.611 114.213C146.611 115.026 146.702 115.647 146.884 116.078C147.065 116.508 147.324 116.805 147.658 116.967C147.993 117.12 148.4 117.197 148.878 117.197H151.216V117.857C150.996 117.895 150.738 117.933 150.441 117.971C150.154 118.01 149.848 118.038 149.523 118.057C149.198 118.077 148.868 118.086 148.533 118.086ZM155.709 118.086C154.906 118.086 154.27 117.967 153.801 117.727C153.342 117.488 153.012 117.082 152.812 116.508C152.611 115.934 152.51 115.15 152.51 114.155C152.51 113.142 152.611 112.353 152.812 111.788C153.022 111.215 153.362 110.813 153.83 110.583C154.299 110.354 154.93 110.239 155.724 110.239C156.403 110.239 156.953 110.316 157.373 110.469C157.804 110.622 158.119 110.885 158.32 111.258C158.531 111.621 158.636 112.128 158.636 112.778C158.636 113.228 158.545 113.591 158.363 113.869C158.191 114.136 157.938 114.332 157.603 114.457C157.278 114.571 156.89 114.629 156.441 114.629H153.644C153.653 115.25 153.72 115.753 153.845 116.135C153.969 116.508 154.194 116.781 154.519 116.953C154.853 117.115 155.341 117.197 155.982 117.197H158.449V117.885C158.009 117.943 157.579 117.99 157.158 118.029C156.737 118.067 156.255 118.086 155.709 118.086ZM153.629 113.883H156.355C156.785 113.883 157.101 113.806 157.302 113.653C157.512 113.491 157.617 113.204 157.617 112.793C157.617 112.353 157.55 112.013 157.416 111.774C157.292 111.525 157.091 111.353 156.814 111.258C156.546 111.153 156.183 111.1 155.724 111.1C155.188 111.1 154.767 111.181 154.461 111.344C154.155 111.497 153.94 111.774 153.816 112.176C153.691 112.577 153.629 113.147 153.629 113.883ZM163.184 118.086C162.992 118.086 162.758 118.081 162.481 118.072C162.203 118.062 161.912 118.048 161.606 118.029C161.309 118.01 161.036 117.99 160.788 117.971C160.549 117.943 160.362 117.914 160.228 117.885V117.197H163.37C163.686 117.197 163.958 117.173 164.188 117.125C164.417 117.077 164.594 116.972 164.718 116.809C164.852 116.647 164.919 116.403 164.919 116.078V115.733C164.919 115.399 164.809 115.141 164.589 114.959C164.369 114.768 164.016 114.672 163.528 114.672H162.452C162.002 114.672 161.601 114.615 161.247 114.5C160.903 114.385 160.635 114.189 160.444 113.912C160.252 113.634 160.157 113.252 160.157 112.764V112.362C160.157 111.884 160.248 111.492 160.429 111.186C160.62 110.88 160.912 110.65 161.304 110.497C161.706 110.344 162.222 110.268 162.854 110.268C163.121 110.268 163.427 110.277 163.772 110.297C164.126 110.316 164.47 110.344 164.805 110.383C165.139 110.411 165.412 110.445 165.622 110.483V111.172H162.667C162.179 111.172 161.802 111.253 161.534 111.416C161.276 111.578 161.146 111.894 161.146 112.362V112.678C161.146 112.974 161.209 113.199 161.333 113.352C161.457 113.496 161.629 113.591 161.849 113.639C162.079 113.687 162.342 113.711 162.638 113.711H163.729C164.427 113.711 164.967 113.873 165.35 114.198C165.732 114.524 165.923 114.992 165.923 115.604V116.135C165.923 116.652 165.804 117.053 165.565 117.34C165.335 117.617 165.015 117.814 164.604 117.928C164.202 118.033 163.729 118.086 163.184 118.086ZM170.356 118.086C170.165 118.086 169.931 118.081 169.653 118.072C169.376 118.062 169.084 118.048 168.778 118.029C168.482 118.01 168.209 117.99 167.96 117.971C167.721 117.943 167.535 117.914 167.401 117.885V117.197H170.543C170.858 117.197 171.131 117.173 171.36 117.125C171.59 117.077 171.767 116.972 171.891 116.809C172.025 116.647 172.092 116.403 172.092 116.078V115.733C172.092 115.399 171.982 115.141 171.762 114.959C171.542 114.768 171.188 114.672 170.7 114.672H169.625C169.175 114.672 168.773 114.615 168.42 114.5C168.075 114.385 167.807 114.189 167.616 113.912C167.425 113.634 167.329 113.252 167.329 112.764V112.362C167.329 111.884 167.42 111.492 167.602 111.186C167.793 110.88 168.085 110.65 168.477 110.497C168.879 110.344 169.395 110.268 170.026 110.268C170.294 110.268 170.6 110.277 170.944 110.297C171.298 110.316 171.642 110.344 171.977 110.383C172.312 110.411 172.584 110.445 172.795 110.483V111.172H169.84C169.352 111.172 168.974 111.253 168.706 111.416C168.448 111.578 168.319 111.894 168.319 112.362V112.678C168.319 112.974 168.381 113.199 168.506 113.352C168.63 113.496 168.802 113.591 169.022 113.639C169.252 113.687 169.515 113.711 169.811 113.711H170.901C171.599 113.711 172.14 113.873 172.522 114.198C172.905 114.524 173.096 114.992 173.096 115.604V116.135C173.096 116.652 172.977 117.053 172.737 117.34C172.508 117.617 172.188 117.814 171.776 117.928C171.375 118.033 170.901 118.086 170.356 118.086ZM181.295 118C180.798 118 180.386 117.919 180.061 117.756C179.736 117.594 179.497 117.331 179.344 116.967C179.191 116.604 179.119 116.121 179.129 115.518L179.172 111.272H177.952V110.54L179.186 110.34L179.373 108.202H180.248V110.34H182.457V111.272H180.248V115.518C180.248 115.853 180.281 116.121 180.348 116.322C180.425 116.522 180.52 116.675 180.635 116.781C180.759 116.886 180.888 116.962 181.022 117.01C181.156 117.048 181.285 117.072 181.41 117.082L182.342 117.168V118H181.295ZM187.064 118.086C186.51 118.086 186.022 118.029 185.601 117.914C185.19 117.799 184.846 117.598 184.568 117.311C184.291 117.025 184.085 116.628 183.951 116.121C183.818 115.604 183.751 114.949 183.751 114.155C183.751 113.352 183.818 112.697 183.951 112.19C184.085 111.674 184.291 111.277 184.568 110.999C184.846 110.713 185.19 110.517 185.601 110.411C186.022 110.297 186.51 110.239 187.064 110.239C187.619 110.239 188.102 110.297 188.513 110.411C188.934 110.526 189.283 110.727 189.56 111.014C189.838 111.291 190.043 111.688 190.177 112.205C190.321 112.711 190.392 113.362 190.392 114.155C190.392 114.959 190.321 115.619 190.177 116.135C190.043 116.642 189.838 117.039 189.56 117.326C189.293 117.603 188.948 117.799 188.528 117.914C188.107 118.029 187.619 118.086 187.064 118.086ZM187.064 117.154C187.418 117.154 187.729 117.12 187.997 117.053C188.274 116.986 188.504 116.852 188.685 116.652C188.867 116.451 189.006 116.149 189.101 115.748C189.197 115.346 189.245 114.815 189.245 114.155C189.245 113.486 189.197 112.955 189.101 112.563C189.006 112.171 188.867 111.875 188.685 111.674C188.504 111.473 188.274 111.339 187.997 111.272C187.729 111.205 187.418 111.172 187.064 111.172C186.701 111.172 186.385 111.205 186.118 111.272C185.85 111.339 185.625 111.473 185.443 111.674C185.262 111.875 185.123 112.171 185.027 112.563C184.932 112.955 184.884 113.486 184.884 114.155C184.884 114.815 184.932 115.346 185.027 115.748C185.123 116.149 185.262 116.451 185.443 116.652C185.625 116.852 185.85 116.986 186.118 117.053C186.385 117.12 186.701 117.154 187.064 117.154ZM198.651 118.086C198.02 118.086 197.498 117.952 197.087 117.684C196.685 117.407 196.384 116.986 196.183 116.422C195.992 115.848 195.896 115.117 195.896 114.227C195.896 113.28 195.992 112.515 196.183 111.932C196.375 111.339 196.681 110.909 197.101 110.641C197.522 110.373 198.087 110.239 198.794 110.239C199.225 110.239 199.645 110.287 200.057 110.383C200.468 110.478 200.831 110.583 201.147 110.698V107.055H202.28V118H201.362L201.147 117.225C201.003 117.35 200.788 117.479 200.501 117.613C200.224 117.747 199.918 117.861 199.583 117.957C199.258 118.043 198.947 118.086 198.651 118.086ZM198.981 117.154C199.421 117.154 199.818 117.087 200.171 116.953C200.535 116.809 200.86 116.661 201.147 116.508V111.502C200.803 111.396 200.473 111.31 200.157 111.243C199.841 111.167 199.488 111.129 199.095 111.129C198.608 111.129 198.211 111.219 197.905 111.401C197.599 111.583 197.374 111.898 197.231 112.348C197.097 112.788 197.03 113.4 197.03 114.184C197.03 114.892 197.092 115.466 197.216 115.906C197.35 116.346 197.561 116.666 197.847 116.867C198.134 117.058 198.512 117.154 198.981 117.154ZM204.593 108.977C204.44 108.977 204.363 108.9 204.363 108.747V107.628C204.363 107.475 204.44 107.399 204.593 107.399H205.396C205.472 107.399 205.525 107.423 205.554 107.471C205.592 107.509 205.611 107.561 205.611 107.628V108.747C205.611 108.9 205.539 108.977 205.396 108.977H204.593ZM204.42 118V110.34H205.554V118H204.42ZM209.62 121.515C209.122 121.515 208.683 121.443 208.3 121.299C207.927 121.166 207.631 120.955 207.411 120.668C207.2 120.391 207.095 120.042 207.095 119.621V119.277C207.095 118.837 207.215 118.469 207.454 118.172C207.702 117.876 208.013 117.656 208.386 117.512C208.759 117.359 209.142 117.283 209.534 117.283L209.821 117.742C209.534 117.742 209.266 117.79 209.017 117.885C208.769 117.971 208.563 118.115 208.4 118.316C208.247 118.516 208.171 118.775 208.171 119.09V119.406C208.171 119.865 208.324 120.19 208.63 120.381C208.936 120.582 209.352 120.683 209.878 120.683H211.657C212.231 120.683 212.68 120.573 213.005 120.353C213.34 120.133 213.507 119.788 213.507 119.32V119.033C213.507 118.765 213.455 118.536 213.35 118.344C213.244 118.153 213.067 118.005 212.819 117.9C212.58 117.794 212.24 117.742 211.8 117.742H209.491C208.898 117.742 208.434 117.617 208.099 117.369C207.774 117.111 207.611 116.781 207.611 116.379C207.611 115.996 207.721 115.695 207.941 115.475C208.171 115.255 208.491 115.102 208.903 115.016C208.549 114.873 208.271 114.681 208.07 114.442C207.87 114.194 207.731 113.931 207.654 113.653C207.578 113.366 207.54 113.08 207.54 112.793C207.54 112.2 207.659 111.722 207.898 111.358C208.137 110.995 208.477 110.732 208.917 110.569C209.366 110.407 209.892 110.325 210.495 110.325H214.583V110.971L212.862 111.114C212.986 111.2 213.125 111.315 213.278 111.459C213.431 111.592 213.56 111.788 213.665 112.047C213.78 112.295 213.837 112.64 213.837 113.08C213.837 113.472 213.751 113.845 213.579 114.198C213.416 114.552 213.139 114.844 212.747 115.074C212.355 115.294 211.815 115.404 211.126 115.404H209.907C209.505 115.404 209.185 115.466 208.946 115.59C208.716 115.705 208.601 115.915 208.601 116.221C208.601 116.451 208.687 116.613 208.859 116.709C209.032 116.805 209.213 116.852 209.405 116.852H211.944C212.537 116.852 213.024 116.929 213.407 117.082C213.799 117.235 214.091 117.469 214.282 117.785C214.483 118.091 214.583 118.483 214.583 118.961V119.277C214.583 119.975 214.344 120.52 213.866 120.912C213.397 121.314 212.694 121.515 211.757 121.515H209.62ZM210.151 114.528H211.011C211.499 114.528 211.867 114.457 212.116 114.313C212.374 114.16 212.551 113.964 212.647 113.725C212.742 113.486 212.79 113.228 212.79 112.95C212.79 112.52 212.718 112.181 212.575 111.932C212.441 111.674 212.25 111.492 212.001 111.387C211.752 111.272 211.466 111.215 211.14 111.215H210.323C209.778 111.215 209.347 111.339 209.032 111.588C208.726 111.827 208.573 112.248 208.573 112.85C208.573 113.443 208.711 113.873 208.989 114.141C209.275 114.399 209.663 114.528 210.151 114.528ZM216.178 108.977C216.025 108.977 215.948 108.9 215.948 108.747V107.628C215.948 107.475 216.025 107.399 216.178 107.399H216.981C217.058 107.399 217.11 107.423 217.139 107.471C217.177 107.509 217.197 107.561 217.197 107.628V108.747C217.197 108.9 217.125 108.977 216.981 108.977H216.178ZM216.006 118V110.34H217.139V118H216.006ZM221.865 118C221.368 118 220.957 117.919 220.631 117.756C220.306 117.594 220.067 117.331 219.914 116.967C219.761 116.604 219.689 116.121 219.699 115.518L219.742 111.272H218.523V110.54L219.756 110.34L219.943 108.202H220.818V110.34H223.027V111.272H220.818V115.518C220.818 115.853 220.851 116.121 220.918 116.322C220.995 116.522 221.091 116.675 221.205 116.781C221.33 116.886 221.459 116.962 221.593 117.01C221.726 117.048 221.856 117.072 221.98 117.082L222.912 117.168V118H221.865ZM226.085 118.086C225.521 118.086 225.057 117.919 224.694 117.584C224.33 117.249 224.149 116.776 224.149 116.164V115.619C224.149 115.016 224.345 114.528 224.737 114.155C225.139 113.782 225.741 113.596 226.544 113.596H229.141V112.649C229.141 112.334 229.084 112.066 228.969 111.846C228.864 111.616 228.668 111.439 228.381 111.315C228.103 111.191 227.697 111.129 227.161 111.129H224.78V110.454C225.115 110.397 225.502 110.344 225.942 110.297C226.391 110.249 226.917 110.225 227.52 110.225C228.142 110.215 228.658 110.292 229.069 110.454C229.48 110.617 229.782 110.875 229.973 111.229C230.174 111.573 230.274 112.028 230.274 112.592V118H229.399L229.184 117.125C229.146 117.163 229.026 117.23 228.825 117.326C228.634 117.421 228.385 117.531 228.079 117.656C227.783 117.77 227.458 117.871 227.104 117.957C226.76 118.043 226.42 118.086 226.085 118.086ZM226.559 117.24C226.731 117.249 226.927 117.23 227.147 117.182C227.367 117.135 227.592 117.082 227.821 117.025C228.051 116.958 228.261 116.891 228.452 116.824C228.653 116.757 228.816 116.699 228.94 116.652C229.064 116.604 229.131 116.58 229.141 116.58V114.17L226.803 114.27C226.257 114.289 225.865 114.423 225.626 114.672C225.397 114.921 225.282 115.241 225.282 115.633V115.977C225.282 116.283 225.344 116.532 225.469 116.723C225.602 116.905 225.765 117.034 225.956 117.111C226.157 117.187 226.358 117.23 226.559 117.24ZM234.419 118.014C233.979 118.014 233.611 117.938 233.314 117.785C233.018 117.622 232.793 117.364 232.64 117.01C232.487 116.647 232.411 116.159 232.411 115.547V107.055H233.544V115.404C233.544 115.863 233.587 116.212 233.673 116.451C233.759 116.68 233.883 116.843 234.046 116.938C234.208 117.025 234.4 117.082 234.62 117.111L235.394 117.197V118.014H234.419ZM243.033 118C242.536 118 242.124 117.919 241.799 117.756C241.474 117.594 241.235 117.331 241.082 116.967C240.929 116.604 240.857 116.121 240.867 115.518L240.91 111.272H239.69V110.54L240.924 110.34L241.111 108.202H241.986V110.34H244.195V111.272H241.986V115.518C241.986 115.853 242.019 116.121 242.086 116.322C242.163 116.522 242.258 116.675 242.373 116.781C242.497 116.886 242.626 116.962 242.76 117.01C242.894 117.048 243.023 117.072 243.148 117.082L244.08 117.168V118H243.033ZM248.802 118.086C248.248 118.086 247.76 118.029 247.339 117.914C246.928 117.799 246.584 117.598 246.306 117.311C246.029 117.025 245.823 116.628 245.689 116.121C245.556 115.604 245.489 114.949 245.489 114.155C245.489 113.352 245.556 112.697 245.689 112.19C245.823 111.674 246.029 111.277 246.306 110.999C246.584 110.713 246.928 110.517 247.339 110.411C247.76 110.297 248.248 110.239 248.802 110.239C249.357 110.239 249.84 110.297 250.251 110.411C250.672 110.526 251.021 110.727 251.298 111.014C251.576 111.291 251.781 111.688 251.915 112.205C252.059 112.711 252.13 113.362 252.13 114.155C252.13 114.959 252.059 115.619 251.915 116.135C251.781 116.642 251.576 117.039 251.298 117.326C251.031 117.603 250.686 117.799 250.266 117.914C249.845 118.029 249.357 118.086 248.802 118.086ZM248.802 117.154C249.156 117.154 249.467 117.12 249.735 117.053C250.012 116.986 250.242 116.852 250.423 116.652C250.605 116.451 250.744 116.149 250.839 115.748C250.935 115.346 250.983 114.815 250.983 114.155C250.983 113.486 250.935 112.955 250.839 112.563C250.744 112.171 250.605 111.875 250.423 111.674C250.242 111.473 250.012 111.339 249.735 111.272C249.467 111.205 249.156 111.172 248.802 111.172C248.439 111.172 248.123 111.205 247.856 111.272C247.588 111.339 247.363 111.473 247.181 111.674C247 111.875 246.861 112.171 246.765 112.563C246.67 112.955 246.622 113.486 246.622 114.155C246.622 114.815 246.67 115.346 246.765 115.748C246.861 116.149 247 116.451 247.181 116.652C247.363 116.852 247.588 116.986 247.856 117.053C248.123 117.12 248.439 117.154 248.802 117.154ZM257.082 118.086C256.527 118.086 256.039 118.029 255.618 117.914C255.207 117.799 254.863 117.598 254.586 117.311C254.308 117.025 254.103 116.628 253.969 116.121C253.835 115.604 253.768 114.949 253.768 114.155C253.768 113.352 253.835 112.697 253.969 112.19C254.103 111.674 254.308 111.277 254.586 110.999C254.863 110.713 255.207 110.517 255.618 110.411C256.039 110.297 256.527 110.239 257.082 110.239C257.636 110.239 258.119 110.297 258.531 110.411C258.951 110.526 259.3 110.727 259.578 111.014C259.855 111.291 260.061 111.688 260.195 112.205C260.338 112.711 260.41 113.362 260.41 114.155C260.41 114.959 260.338 115.619 260.195 116.135C260.061 116.642 259.855 117.039 259.578 117.326C259.31 117.603 258.966 117.799 258.545 117.914C258.124 118.029 257.636 118.086 257.082 118.086ZM257.082 117.154C257.436 117.154 257.746 117.12 258.014 117.053C258.291 116.986 258.521 116.852 258.703 116.652C258.884 116.451 259.023 116.149 259.119 115.748C259.214 115.346 259.262 114.815 259.262 114.155C259.262 113.486 259.214 112.955 259.119 112.563C259.023 112.171 258.884 111.875 258.703 111.674C258.521 111.473 258.291 111.339 258.014 111.272C257.746 111.205 257.436 111.172 257.082 111.172C256.718 111.172 256.403 111.205 256.135 111.272C255.867 111.339 255.642 111.473 255.461 111.674C255.279 111.875 255.14 112.171 255.045 112.563C254.949 112.955 254.901 113.486 254.901 114.155C254.901 114.815 254.949 115.346 255.045 115.748C255.14 116.149 255.279 116.451 255.461 116.652C255.642 116.852 255.867 116.986 256.135 117.053C256.403 117.12 256.718 117.154 257.082 117.154ZM264.328 118.014C263.888 118.014 263.52 117.938 263.224 117.785C262.927 117.622 262.702 117.364 262.549 117.01C262.396 116.647 262.32 116.159 262.32 115.547V107.055H263.453V115.404C263.453 115.863 263.496 116.212 263.582 116.451C263.668 116.68 263.793 116.843 263.955 116.938C264.118 117.025 264.309 117.082 264.529 117.111L265.304 117.197V118.014H264.328ZM269.176 118.086C268.985 118.086 268.751 118.081 268.473 118.072C268.196 118.062 267.904 118.048 267.598 118.029C267.302 118.01 267.029 117.99 266.78 117.971C266.541 117.943 266.355 117.914 266.221 117.885V117.197H269.363C269.678 117.197 269.951 117.173 270.18 117.125C270.41 117.077 270.587 116.972 270.711 116.809C270.845 116.647 270.912 116.403 270.912 116.078V115.733C270.912 115.399 270.802 115.141 270.582 114.959C270.362 114.768 270.008 114.672 269.52 114.672H268.445C267.995 114.672 267.593 114.615 267.24 114.5C266.895 114.385 266.627 114.189 266.436 113.912C266.245 113.634 266.149 113.252 266.149 112.764V112.362C266.149 111.884 266.24 111.492 266.422 111.186C266.613 110.88 266.905 110.65 267.297 110.497C267.699 110.344 268.215 110.268 268.846 110.268C269.114 110.268 269.42 110.277 269.764 110.297C270.118 110.316 270.462 110.344 270.797 110.383C271.132 110.411 271.404 110.445 271.615 110.483V111.172H268.66C268.172 111.172 267.794 111.253 267.526 111.416C267.268 111.578 267.139 111.894 267.139 112.362V112.678C267.139 112.974 267.201 113.199 267.326 113.352C267.45 113.496 267.622 113.591 267.842 113.639C268.072 113.687 268.335 113.711 268.631 113.711H269.721C270.419 113.711 270.96 113.873 271.342 114.198C271.725 114.524 271.916 114.992 271.916 115.604V116.135C271.916 116.652 271.797 117.053 271.557 117.34C271.328 117.617 271.008 117.814 270.596 117.928C270.195 118.033 269.721 118.086 269.176 118.086ZM106.507 139C106.01 139 105.599 138.919 105.274 138.756C104.949 138.594 104.71 138.331 104.557 137.967C104.403 137.604 104.332 137.121 104.341 136.518L104.384 132.272H103.165V131.54L104.399 131.34L104.585 129.202H105.46V131.34H107.669V132.272H105.46V136.518C105.46 136.853 105.494 137.121 105.561 137.322C105.637 137.522 105.733 137.675 105.848 137.781C105.972 137.886 106.101 137.962 106.235 138.01C106.369 138.048 106.498 138.072 106.622 138.082L107.555 138.168V139H106.507ZM110.728 139.086C110.163 139.086 109.7 138.919 109.336 138.584C108.973 138.249 108.791 137.776 108.791 137.164V136.619C108.791 136.016 108.987 135.528 109.379 135.155C109.781 134.782 110.383 134.596 111.187 134.596H113.783V133.649C113.783 133.334 113.726 133.066 113.611 132.846C113.506 132.616 113.31 132.439 113.023 132.315C112.746 132.191 112.339 132.129 111.804 132.129H109.422V131.454C109.757 131.397 110.144 131.344 110.584 131.297C111.034 131.249 111.56 131.225 112.162 131.225C112.784 131.215 113.3 131.292 113.711 131.454C114.123 131.617 114.424 131.875 114.615 132.229C114.816 132.573 114.916 133.028 114.916 133.592V139H114.041L113.826 138.125C113.788 138.163 113.668 138.23 113.468 138.326C113.276 138.421 113.028 138.531 112.722 138.656C112.425 138.77 112.1 138.871 111.746 138.957C111.402 139.043 111.062 139.086 110.728 139.086ZM111.201 138.24C111.373 138.249 111.569 138.23 111.789 138.182C112.009 138.135 112.234 138.082 112.463 138.025C112.693 137.958 112.903 137.891 113.095 137.824C113.295 137.757 113.458 137.699 113.582 137.652C113.707 137.604 113.774 137.58 113.783 137.58V135.17L111.445 135.27C110.9 135.289 110.508 135.423 110.269 135.672C110.039 135.921 109.924 136.241 109.924 136.633V136.977C109.924 137.283 109.987 137.532 110.111 137.723C110.245 137.905 110.407 138.034 110.599 138.111C110.799 138.187 111 138.23 111.201 138.24ZM117.225 129.977C117.072 129.977 116.995 129.9 116.995 129.747V128.628C116.995 128.475 117.072 128.399 117.225 128.399H118.028C118.105 128.399 118.157 128.423 118.186 128.471C118.224 128.509 118.243 128.561 118.243 128.628V129.747C118.243 129.9 118.172 129.977 118.028 129.977H117.225ZM117.053 139V131.34H118.186V139H117.053ZM122.381 139.014C121.941 139.014 121.573 138.938 121.277 138.785C120.98 138.622 120.756 138.364 120.602 138.01C120.449 137.647 120.373 137.159 120.373 136.547V128.055H121.506V136.404C121.506 136.863 121.549 137.212 121.635 137.451C121.721 137.68 121.846 137.843 122.008 137.938C122.171 138.025 122.362 138.082 122.582 138.111L123.357 138.197V139.014H122.381ZM127.631 139.086C127.076 139.086 126.588 139.029 126.168 138.914C125.756 138.799 125.412 138.598 125.135 138.311C124.857 138.025 124.652 137.628 124.518 137.121C124.384 136.604 124.317 135.949 124.317 135.155C124.317 134.352 124.384 133.697 124.518 133.19C124.652 132.674 124.857 132.277 125.135 131.999C125.412 131.713 125.756 131.517 126.168 131.411C126.588 131.297 127.076 131.239 127.631 131.239C128.186 131.239 128.669 131.297 129.08 131.411C129.501 131.526 129.85 131.727 130.127 132.014C130.404 132.291 130.61 132.688 130.744 133.205C130.887 133.711 130.959 134.362 130.959 135.155C130.959 135.959 130.887 136.619 130.744 137.135C130.61 137.642 130.404 138.039 130.127 138.326C129.859 138.603 129.515 138.799 129.094 138.914C128.673 139.029 128.186 139.086 127.631 139.086ZM127.631 138.154C127.985 138.154 128.296 138.12 128.563 138.053C128.841 137.986 129.07 137.852 129.252 137.652C129.434 137.451 129.572 137.149 129.668 136.748C129.764 136.346 129.811 135.815 129.811 135.155C129.811 134.486 129.764 133.955 129.668 133.563C129.572 133.171 129.434 132.875 129.252 132.674C129.07 132.473 128.841 132.339 128.563 132.272C128.296 132.205 127.985 132.172 127.631 132.172C127.267 132.172 126.952 132.205 126.684 132.272C126.416 132.339 126.192 132.473 126.01 132.674C125.828 132.875 125.69 133.171 125.594 133.563C125.498 133.955 125.45 134.486 125.45 135.155C125.45 135.815 125.498 136.346 125.594 136.748C125.69 137.149 125.828 137.451 126.01 137.652C126.192 137.852 126.416 137.986 126.684 138.053C126.952 138.12 127.267 138.154 127.631 138.154ZM132.869 139V131.34H133.73L134.002 132.674C134.347 132.262 134.729 131.923 135.15 131.655C135.58 131.387 136.073 131.254 136.628 131.254C136.761 131.254 136.886 131.258 137.001 131.268C137.125 131.277 137.24 131.297 137.345 131.325V132.487C137.22 132.468 137.087 132.454 136.943 132.444C136.8 132.425 136.656 132.416 136.513 132.416C136.159 132.416 135.843 132.459 135.566 132.545C135.289 132.631 135.026 132.76 134.777 132.932C134.528 133.104 134.27 133.314 134.002 133.563V139H132.869ZM141.707 139.086C140.904 139.086 140.268 138.967 139.799 138.727C139.34 138.488 139.01 138.082 138.81 137.508C138.609 136.934 138.508 136.15 138.508 135.155C138.508 134.142 138.609 133.353 138.81 132.788C139.02 132.215 139.359 131.813 139.828 131.583C140.297 131.354 140.928 131.239 141.722 131.239C142.401 131.239 142.951 131.316 143.371 131.469C143.802 131.622 144.117 131.885 144.318 132.258C144.529 132.621 144.634 133.128 144.634 133.778C144.634 134.228 144.543 134.591 144.361 134.869C144.189 135.136 143.936 135.332 143.601 135.457C143.276 135.571 142.888 135.629 142.439 135.629H139.642C139.651 136.25 139.718 136.753 139.842 137.135C139.967 137.508 140.192 137.781 140.517 137.953C140.851 138.115 141.339 138.197 141.98 138.197H144.447V138.885C144.007 138.943 143.577 138.99 143.156 139.029C142.735 139.067 142.252 139.086 141.707 139.086ZM139.627 134.883H142.353C142.783 134.883 143.099 134.806 143.3 134.653C143.51 134.491 143.615 134.204 143.615 133.793C143.615 133.353 143.548 133.013 143.414 132.774C143.29 132.525 143.089 132.353 142.812 132.258C142.544 132.153 142.181 132.1 141.722 132.1C141.186 132.1 140.765 132.181 140.459 132.344C140.153 132.497 139.938 132.774 139.814 133.176C139.689 133.577 139.627 134.147 139.627 134.883ZM149.024 139.086C148.392 139.086 147.871 138.952 147.46 138.684C147.058 138.407 146.757 137.986 146.556 137.422C146.365 136.848 146.269 136.117 146.269 135.227C146.269 134.28 146.365 133.515 146.556 132.932C146.748 132.339 147.054 131.909 147.474 131.641C147.895 131.373 148.459 131.239 149.167 131.239C149.597 131.239 150.018 131.287 150.429 131.383C150.841 131.478 151.204 131.583 151.52 131.698V128.055H152.653V139H151.735L151.52 138.225C151.376 138.35 151.161 138.479 150.874 138.613C150.597 138.747 150.291 138.861 149.956 138.957C149.631 139.043 149.32 139.086 149.024 139.086ZM149.354 138.154C149.794 138.154 150.19 138.087 150.544 137.953C150.908 137.809 151.233 137.661 151.52 137.508V132.502C151.175 132.396 150.846 132.31 150.53 132.243C150.214 132.167 149.86 132.129 149.468 132.129C148.981 132.129 148.584 132.219 148.278 132.401C147.972 132.583 147.747 132.898 147.603 133.348C147.47 133.788 147.403 134.4 147.403 135.184C147.403 135.892 147.465 136.466 147.589 136.906C147.723 137.346 147.933 137.666 148.22 137.867C148.507 138.058 148.885 138.154 149.354 138.154ZM161.199 139C160.702 139 160.29 138.919 159.965 138.756C159.64 138.594 159.401 138.331 159.248 137.967C159.095 137.604 159.023 137.121 159.033 136.518L159.076 132.272H157.856V131.54L159.09 131.34L159.277 129.202H160.152V131.34H162.361V132.272H160.152V136.518C160.152 136.853 160.185 137.121 160.252 137.322C160.329 137.522 160.424 137.675 160.539 137.781C160.663 137.886 160.792 137.962 160.926 138.01C161.06 138.048 161.189 138.072 161.314 138.082L162.246 138.168V139H161.199ZM166.968 139.086C166.414 139.086 165.926 139.029 165.505 138.914C165.094 138.799 164.75 138.598 164.472 138.311C164.195 138.025 163.989 137.628 163.855 137.121C163.722 136.604 163.655 135.949 163.655 135.155C163.655 134.352 163.722 133.697 163.855 133.19C163.989 132.674 164.195 132.277 164.472 131.999C164.75 131.713 165.094 131.517 165.505 131.411C165.926 131.297 166.414 131.239 166.968 131.239C167.523 131.239 168.006 131.297 168.417 131.411C168.838 131.526 169.187 131.727 169.464 132.014C169.742 132.291 169.947 132.688 170.081 133.205C170.225 133.711 170.296 134.362 170.296 135.155C170.296 135.959 170.225 136.619 170.081 137.135C169.947 137.642 169.742 138.039 169.464 138.326C169.197 138.603 168.852 138.799 168.432 138.914C168.011 139.029 167.523 139.086 166.968 139.086ZM166.968 138.154C167.322 138.154 167.633 138.12 167.901 138.053C168.178 137.986 168.408 137.852 168.589 137.652C168.771 137.451 168.91 137.149 169.005 136.748C169.101 136.346 169.149 135.815 169.149 135.155C169.149 134.486 169.101 133.955 169.005 133.563C168.91 133.171 168.771 132.875 168.589 132.674C168.408 132.473 168.178 132.339 167.901 132.272C167.633 132.205 167.322 132.172 166.968 132.172C166.605 132.172 166.289 132.205 166.022 132.272C165.754 132.339 165.529 132.473 165.347 132.674C165.166 132.875 165.027 133.171 164.931 133.563C164.836 133.955 164.788 134.486 164.788 135.155C164.788 135.815 164.836 136.346 164.931 136.748C165.027 137.149 165.166 137.451 165.347 137.652C165.529 137.852 165.754 137.986 166.022 138.053C166.289 138.12 166.605 138.154 166.968 138.154ZM178.612 139C178.115 139 177.704 138.919 177.378 138.756C177.053 138.594 176.814 138.331 176.661 137.967C176.508 137.604 176.436 137.121 176.446 136.518L176.489 132.272H175.27V131.54L176.503 131.34L176.69 129.202H177.565V131.34H179.774V132.272H177.565V136.518C177.565 136.853 177.598 137.121 177.665 137.322C177.742 137.522 177.838 137.675 177.952 137.781C178.077 137.886 178.206 137.962 178.34 138.01C178.473 138.048 178.603 138.072 178.727 138.082L179.659 138.168V139H178.612ZM184.267 139.086C183.464 139.086 182.828 138.967 182.359 138.727C181.9 138.488 181.57 138.082 181.369 137.508C181.168 136.934 181.068 136.15 181.068 135.155C181.068 134.142 181.168 133.353 181.369 132.788C181.58 132.215 181.919 131.813 182.388 131.583C182.856 131.354 183.487 131.239 184.281 131.239C184.96 131.239 185.51 131.316 185.931 131.469C186.361 131.622 186.677 131.885 186.878 132.258C187.088 132.621 187.193 133.128 187.193 133.778C187.193 134.228 187.102 134.591 186.921 134.869C186.749 135.136 186.495 135.332 186.16 135.457C185.835 135.571 185.448 135.629 184.998 135.629H182.201C182.211 136.25 182.278 136.753 182.402 137.135C182.526 137.508 182.751 137.781 183.076 137.953C183.411 138.115 183.899 138.197 184.539 138.197H187.007V138.885C186.567 138.943 186.137 138.99 185.716 139.029C185.295 139.067 184.812 139.086 184.267 139.086ZM182.187 134.883H184.912C185.343 134.883 185.658 134.806 185.859 134.653C186.07 134.491 186.175 134.204 186.175 133.793C186.175 133.353 186.108 133.013 185.974 132.774C185.85 132.525 185.649 132.353 185.371 132.258C185.104 132.153 184.74 132.1 184.281 132.1C183.746 132.1 183.325 132.181 183.019 132.344C182.713 132.497 182.498 132.774 182.373 133.176C182.249 133.577 182.187 134.147 182.187 134.883ZM190.593 139.086C190.029 139.086 189.565 138.919 189.202 138.584C188.838 138.249 188.657 137.776 188.657 137.164V136.619C188.657 136.016 188.853 135.528 189.245 135.155C189.647 134.782 190.249 134.596 191.052 134.596H193.649V133.649C193.649 133.334 193.592 133.066 193.477 132.846C193.372 132.616 193.176 132.439 192.889 132.315C192.611 132.191 192.205 132.129 191.669 132.129H189.288V131.454C189.623 131.397 190.01 131.344 190.45 131.297C190.899 131.249 191.425 131.225 192.028 131.225C192.65 131.215 193.166 131.292 193.577 131.454C193.988 131.617 194.29 131.875 194.481 132.229C194.682 132.573 194.782 133.028 194.782 133.592V139H193.907L193.692 138.125C193.654 138.163 193.534 138.23 193.333 138.326C193.142 138.421 192.893 138.531 192.587 138.656C192.291 138.77 191.966 138.871 191.612 138.957C191.268 139.043 190.928 139.086 190.593 139.086ZM191.067 138.24C191.239 138.249 191.435 138.23 191.655 138.182C191.875 138.135 192.1 138.082 192.329 138.025C192.559 137.958 192.769 137.891 192.96 137.824C193.161 137.757 193.324 137.699 193.448 137.652C193.572 137.604 193.639 137.58 193.649 137.58V135.17L191.311 135.27C190.766 135.289 190.373 135.423 190.134 135.672C189.905 135.921 189.79 136.241 189.79 136.633V136.977C189.79 137.283 189.852 137.532 189.977 137.723C190.11 137.905 190.273 138.034 190.464 138.111C190.665 138.187 190.866 138.23 191.067 138.24ZM196.919 139V131.34H197.808L198.052 132.186C198.434 131.918 198.86 131.689 199.329 131.497C199.807 131.306 200.337 131.211 200.921 131.211C201.399 131.211 201.805 131.32 202.14 131.54C202.484 131.751 202.743 132.019 202.915 132.344C203.154 132.172 203.441 132 203.776 131.827C204.12 131.655 204.483 131.512 204.866 131.397C205.258 131.273 205.636 131.211 205.999 131.211C206.554 131.211 207.008 131.33 207.362 131.569C207.716 131.799 207.974 132.114 208.137 132.516C208.309 132.908 208.395 133.348 208.395 133.836V139H207.261V133.922C207.261 133.597 207.195 133.31 207.061 133.061C206.936 132.803 206.755 132.602 206.516 132.459C206.276 132.315 205.985 132.243 205.64 132.243C205.21 132.243 204.77 132.325 204.321 132.487C203.871 132.65 203.455 132.846 203.073 133.075C203.12 133.219 203.154 133.362 203.173 133.506C203.202 133.64 203.216 133.783 203.216 133.936V139H202.083V133.922C202.083 133.597 202.016 133.31 201.882 133.061C201.758 132.803 201.576 132.602 201.337 132.459C201.107 132.315 200.82 132.243 200.476 132.243C200.161 132.243 199.864 132.277 199.587 132.344C199.319 132.401 199.061 132.487 198.812 132.602C198.573 132.707 198.32 132.836 198.052 132.989V139H196.919ZM217.027 139.086C216.836 139.086 216.602 139.081 216.324 139.072C216.047 139.062 215.755 139.048 215.449 139.029C215.153 139.01 214.88 138.99 214.632 138.971C214.393 138.943 214.206 138.914 214.072 138.885V138.197H217.214C217.529 138.197 217.802 138.173 218.032 138.125C218.261 138.077 218.438 137.972 218.562 137.809C218.696 137.647 218.763 137.403 218.763 137.078V136.733C218.763 136.399 218.653 136.141 218.433 135.959C218.213 135.768 217.859 135.672 217.372 135.672H216.296C215.846 135.672 215.445 135.615 215.091 135.5C214.746 135.385 214.479 135.189 214.287 134.912C214.096 134.634 214.001 134.252 214.001 133.764V133.362C214.001 132.884 214.091 132.492 214.273 132.186C214.464 131.88 214.756 131.65 215.148 131.497C215.55 131.344 216.066 131.268 216.697 131.268C216.965 131.268 217.271 131.277 217.616 131.297C217.969 131.316 218.314 131.344 218.648 131.383C218.983 131.411 219.256 131.445 219.466 131.483V132.172H216.511C216.023 132.172 215.645 132.253 215.378 132.416C215.119 132.578 214.99 132.894 214.99 133.362V133.678C214.99 133.974 215.052 134.199 215.177 134.352C215.301 134.496 215.473 134.591 215.693 134.639C215.923 134.687 216.186 134.711 216.482 134.711H217.572C218.271 134.711 218.811 134.873 219.194 135.198C219.576 135.524 219.767 135.992 219.767 136.604V137.135C219.767 137.652 219.648 138.053 219.409 138.34C219.179 138.617 218.859 138.814 218.448 138.928C218.046 139.033 217.572 139.086 217.027 139.086ZM221.733 129.977C221.58 129.977 221.503 129.9 221.503 129.747V128.628C221.503 128.475 221.58 128.399 221.733 128.399H222.536C222.612 128.399 222.665 128.423 222.694 128.471C222.732 128.509 222.751 128.561 222.751 128.628V129.747C222.751 129.9 222.679 129.977 222.536 129.977H221.733ZM221.56 139V131.34H222.694V139H221.56ZM224.522 139V138.139L228.94 132.272H224.407V131.34H230.26V132.2L225.827 138.068H230.26V139H224.522ZM234.896 139.086C234.092 139.086 233.456 138.967 232.988 138.727C232.529 138.488 232.199 138.082 231.998 137.508C231.797 136.934 231.697 136.15 231.697 135.155C231.697 134.142 231.797 133.353 231.998 132.788C232.208 132.215 232.548 131.813 233.016 131.583C233.485 131.354 234.116 131.239 234.91 131.239C235.589 131.239 236.139 131.316 236.56 131.469C236.99 131.622 237.306 131.885 237.506 132.258C237.717 132.621 237.822 133.128 237.822 133.778C237.822 134.228 237.731 134.591 237.55 134.869C237.377 135.136 237.124 135.332 236.789 135.457C236.464 135.571 236.077 135.629 235.627 135.629H232.83C232.839 136.25 232.906 136.753 233.031 137.135C233.155 137.508 233.38 137.781 233.705 137.953C234.04 138.115 234.527 138.197 235.168 138.197H237.636V138.885C237.196 138.943 236.765 138.99 236.345 139.029C235.924 139.067 235.441 139.086 234.896 139.086ZM232.816 134.883H235.541C235.972 134.883 236.287 134.806 236.488 134.653C236.698 134.491 236.804 134.204 236.804 133.793C236.804 133.353 236.737 133.013 236.603 132.774C236.478 132.525 236.278 132.353 236 132.258C235.732 132.153 235.369 132.1 234.91 132.1C234.374 132.1 233.954 132.181 233.648 132.344C233.342 132.497 233.126 132.774 233.002 133.176C232.878 133.577 232.816 134.147 232.816 134.883ZM242.37 139.086C242.179 139.086 241.944 139.081 241.667 139.072C241.39 139.062 241.098 139.048 240.792 139.029C240.495 139.01 240.223 138.99 239.974 138.971C239.735 138.943 239.549 138.914 239.415 138.885V138.197H242.556C242.872 138.197 243.144 138.173 243.374 138.125C243.603 138.077 243.78 137.972 243.905 137.809C244.039 137.647 244.106 137.403 244.106 137.078V136.733C244.106 136.399 243.996 136.141 243.776 135.959C243.556 135.768 243.202 135.672 242.714 135.672H241.638C241.189 135.672 240.787 135.615 240.433 135.5C240.089 135.385 239.821 135.189 239.63 134.912C239.439 134.634 239.343 134.252 239.343 133.764V133.362C239.343 132.884 239.434 132.492 239.615 132.186C239.807 131.88 240.098 131.65 240.491 131.497C240.892 131.344 241.409 131.268 242.04 131.268C242.308 131.268 242.614 131.277 242.958 131.297C243.312 131.316 243.656 131.344 243.991 131.383C244.326 131.411 244.598 131.445 244.808 131.483V132.172H241.853C241.366 132.172 240.988 132.253 240.72 132.416C240.462 132.578 240.333 132.894 240.333 133.362V133.678C240.333 133.974 240.395 134.199 240.519 134.352C240.644 134.496 240.816 134.591 241.036 134.639C241.265 134.687 241.528 134.711 241.825 134.711H242.915C243.613 134.711 244.153 134.873 244.536 135.198C244.918 135.524 245.11 135.992 245.11 136.604V137.135C245.11 137.652 244.99 138.053 244.751 138.34C244.522 138.617 244.201 138.814 243.79 138.928C243.388 139.033 242.915 139.086 242.37 139.086ZM246.932 139.014C246.779 139.014 246.702 138.938 246.702 138.785V137.637C246.702 137.484 246.779 137.408 246.932 137.408H247.563C247.716 137.408 247.792 137.484 247.792 137.637V138.785C247.792 138.861 247.768 138.919 247.721 138.957C247.682 138.995 247.63 139.014 247.563 139.014H246.932Z" fill="#5B5B5B"/>
<line x1="70" y1="92.6414" x2="281" y2="92.6578" stroke="#D0D0D0" stroke-width="0.717264"/>
</g>
<defs>
<filter id="filter0_d_931_1201" x="0.299999" y="0.299999" width="350.509" height="211.726" filterUnits="userSpaceOnUse" color-interpolation-filters="sRGB">
<feFlood flood-opacity="0" result="BackgroundImageFix"/>
<feColorMatrix in="SourceAlpha" type="matrix" values="0 0 0 0 0 0 0 0 0 0 0 0 0 0 0 0 0 0 127 0" result="hardAlpha"/>
<feOffset dy="4"/>
<feGaussianBlur stdDeviation="9.35"/>
<feComposite in2="hardAlpha" operator="out"/>
<feColorMatrix type="matrix" values="0 0 0 0 0 0 0 0 0 0 0 0 0 0 0 0 0 0 0.25 0"/>
<feBlend mode="normal" in2="BackgroundImageFix" result="effect1_dropShadow_931_1201"/>
<feBlend mode="normal" in="SourceGraphic" in2="effect1_dropShadow_931_1201" result="shape"/>
</filter>
<linearGradient id="paint0_linear_931_1201" x1="19" y1="15" x2="332.109" y2="189.326" gradientUnits="userSpaceOnUse">
<stop stop-color="#CB397A"/>
<stop offset="1" stop-color="#3A3895"/>
</linearGradient>
</defs>
</svg>
