<svg width="318" height="177" viewBox="0 0 318 177" fill="none" xmlns="http://www.w3.org/2000/svg">
<g clip-path="url(#clip0_1499_9384)">
<rect x="0.149902" y="0.00195312" width="317.256" height="176.635" rx="16" fill="url(#paint0_linear_1499_9384)"/>
<path d="M38.8589 68.8192C38.3104 68.8192 37.743 68.8002 37.1566 68.7624C36.5892 68.7435 36.0028 68.7057 35.3976 68.6489C34.8113 68.5732 34.2534 68.4977 33.7237 68.422C33.1941 68.3274 32.7118 68.2234 32.2768 68.1099V64.7905C32.8442 64.8472 33.4873 64.8946 34.206 64.9323C34.9247 64.9701 35.6719 64.9985 36.4473 65.0175C37.2228 65.0364 37.9604 65.0458 38.6603 65.0458C39.379 65.0458 39.9937 64.9891 40.5044 64.8756C41.034 64.7432 41.4406 64.5257 41.7243 64.2231C42.008 63.9016 42.1499 63.4665 42.1499 62.918V62.152C42.1499 61.5278 41.9607 61.055 41.5825 60.7335C41.2231 60.393 40.703 60.2228 40.0221 60.2228H38.2347C36.2298 60.2228 34.6883 59.7878 33.6103 58.9177C32.5511 58.0288 32.0215 56.5251 32.0215 54.4068V53.3854C32.0215 51.3427 32.6078 49.8485 33.7805 48.9028C34.9531 47.9571 36.627 47.4843 38.8021 47.4843C39.5776 47.4843 40.3436 47.522 41.1002 47.5977C41.8756 47.6734 42.6132 47.768 43.3131 47.8815C44.0318 47.976 44.6465 48.08 45.1572 48.1935V51.5129C44.2871 51.4562 43.3131 51.3994 42.235 51.3427C41.1759 51.286 40.1923 51.2576 39.2844 51.2576C38.6413 51.2576 38.0645 51.3237 37.5538 51.4562C37.0621 51.5697 36.6837 51.7966 36.419 52.1371C36.1542 52.4775 36.0218 52.9598 36.0218 53.584V54.1514C36.0218 54.8891 36.2298 55.4187 36.6459 55.7402C37.0621 56.0617 37.6767 56.2225 38.49 56.2225H40.5611C41.8284 56.2225 42.8686 56.4589 43.6819 56.9318C44.5141 57.3857 45.1288 58.0193 45.526 58.8326C45.9422 59.6459 46.1502 60.5727 46.1502 61.613V62.8045C46.1502 64.45 45.8381 65.7078 45.2139 66.5779C44.6087 67.4479 43.7576 68.0437 42.6606 68.3652C41.5825 68.6679 40.3152 68.8192 38.8589 68.8192ZM53.3526 68.8192C51.9908 68.8192 50.9222 68.422 50.1467 67.6276C49.3712 66.8142 48.9835 65.67 48.9835 64.1947V53.4138H53.1824V62.9464C53.1824 63.7975 53.381 64.3744 53.7782 64.677C54.1942 64.9607 54.7333 65.1026 55.3953 65.1026C55.9249 65.1026 56.4639 65.008 57.0125 64.8189C57.5799 64.6108 58.0811 64.3366 58.5161 63.9961V53.4138H62.7434V68.6489H59.2538L58.5161 67.0885C57.8352 67.5425 57.0503 67.9491 56.1614 68.3085C55.2723 68.6489 54.3361 68.8192 53.3526 68.8192ZM74.5379 68.8192C73.8759 68.8192 73.2801 68.7435 72.7505 68.5922C72.221 68.4409 71.7387 68.2423 71.3036 67.9964C70.8876 67.7505 70.4904 67.4857 70.112 67.202L69.4311 68.6489H65.9131V47.002H70.112V54.4635C70.7173 54.142 71.3982 53.8488 72.1547 53.584C72.9113 53.3192 73.6395 53.1868 74.3393 53.1868C75.6443 53.1868 76.6847 53.4611 77.4605 54.0096C78.2549 54.558 78.8314 55.4187 79.1911 56.5913C79.5498 57.7451 79.7302 59.2771 79.7302 61.1874C79.7302 62.8896 79.5407 64.3082 79.1627 65.443C78.803 66.5779 78.2356 67.429 77.4605 67.9964C76.7036 68.5449 75.7295 68.8192 74.5379 68.8192ZM72.9775 65.3863C73.4693 65.3863 73.9043 65.2634 74.2825 65.0175C74.6797 64.7527 74.9824 64.2988 75.1904 63.6557C75.4174 63.0126 75.5309 62.1236 75.5309 60.9888C75.5309 59.6648 75.408 58.7002 75.162 58.095C74.9351 57.4708 74.623 57.0642 74.2258 56.875C73.8476 56.667 73.4314 56.5629 72.9775 56.5629C72.4101 56.5629 71.8805 56.6575 71.3887 56.8466C70.9159 57.0169 70.4904 57.206 70.112 57.4141V64.6486C70.4714 64.8378 70.878 65.008 71.332 65.1593C71.8049 65.3106 72.3533 65.3863 72.9775 65.3863ZM88.0418 68.8192C87.5686 68.8192 87.058 68.8002 86.5098 68.7624C85.9606 68.7435 85.4124 68.7057 84.8643 68.6489C84.3151 68.5922 83.8044 68.526 83.3322 68.4503C82.8591 68.3558 82.4619 68.2517 82.1407 68.1383V65.67H88.8929C89.2901 65.67 89.6113 65.6416 89.8575 65.5849C90.122 65.5092 90.3115 65.3863 90.425 65.2161C90.5567 65.0269 90.6236 64.7621 90.6236 64.4217V63.9394C90.6236 63.5611 90.5 63.2679 90.2547 63.0599C90.0085 62.8519 89.5546 62.7478 88.8929 62.7478H86.5098C85.6394 62.7478 84.8541 62.6154 84.155 62.3506C83.4548 62.0858 82.8965 61.6508 82.4811 61.0455C82.0839 60.4403 81.8853 59.627 81.8853 58.6056V57.7261C81.8853 56.7615 82.0738 55.9482 82.4527 55.2862C82.8307 54.6243 83.464 54.123 84.3536 53.7826C85.2422 53.4421 86.4622 53.2719 88.0134 53.2719C88.6376 53.2719 89.2993 53.3097 89.9994 53.3854C90.7178 53.4421 91.3896 53.5273 92.0137 53.6407C92.6561 53.7353 93.1668 53.8488 93.5458 53.9812V56.4495H87.1623C86.6131 56.4495 86.1977 56.544 85.914 56.7332C85.6303 56.9034 85.4884 57.2344 85.4884 57.7261V58.1801C85.4884 58.5205 85.5543 58.7759 85.687 58.9461C85.8188 59.0974 86.0173 59.2109 86.2828 59.2865C86.5665 59.3433 86.9161 59.3717 87.3325 59.3717H89.7724C91.3227 59.3717 92.4484 59.7311 93.1486 60.4497C93.867 61.1496 94.2267 62.1236 94.2267 63.3719V64.7338C94.2267 65.7551 93.9804 66.5684 93.489 67.1736C93.0158 67.76 92.3157 68.1856 91.3896 68.4503C90.4817 68.6963 89.3651 68.8192 88.0418 68.8192ZM102.762 68.8192C101.836 68.8192 100.975 68.6963 100.181 68.4503C99.4054 68.2044 98.7336 67.7978 98.1662 67.2304C97.5987 66.644 97.1549 65.8592 96.8327 64.8756C96.5308 63.8732 96.3788 62.6154 96.3788 61.1023C96.3788 59.5513 96.5207 58.2652 96.8044 57.2438C97.0881 56.2225 97.5045 55.4187 98.0527 54.8323C98.6201 54.2271 99.3111 53.8015 100.124 53.5556C100.937 53.3097 101.854 53.1868 102.876 53.1868C103.803 53.1868 104.682 53.2435 105.514 53.357C106.365 53.4516 107.255 53.6313 108.181 53.8961V56.3076H104.181C103.311 56.3076 102.611 56.44 102.081 56.7048C101.552 56.9507 101.164 57.4235 100.918 58.1233C100.691 58.8042 100.578 59.7878 100.578 61.0739C100.578 62.3412 100.691 63.3058 100.918 63.9677C101.164 64.6297 101.552 65.0742 102.081 65.3012C102.631 65.5281 103.349 65.6416 104.238 65.6416H108.408V68.0248C107.936 68.1761 107.387 68.3179 106.763 68.4503C106.138 68.5638 105.477 68.6489 104.777 68.7057C104.096 68.7814 103.425 68.8192 102.762 68.8192ZM110.742 68.6489V53.4138H113.976L114.94 55.7402C115.489 55.0403 116.104 54.4445 116.785 53.9528C117.484 53.4611 118.306 53.2152 119.253 53.2152C119.461 53.2152 119.668 53.2246 119.877 53.2435C120.104 53.2625 120.312 53.3003 120.501 53.357V57.6694C120.217 57.6316 119.914 57.6032 119.593 57.5843C119.29 57.5465 118.997 57.5275 118.714 57.5275C118.165 57.5275 117.664 57.5937 117.21 57.7261C116.774 57.8396 116.368 58.0193 115.99 58.2652C115.63 58.4922 115.281 58.7948 114.94 59.1731V68.6489H110.742ZM123.249 51.1725C122.852 51.1725 122.653 50.9833 122.653 50.6051V47.8247C122.653 47.4275 122.852 47.2289 123.249 47.2289H126.483C126.654 47.2289 126.785 47.2857 126.881 47.3991C126.975 47.5126 127.022 47.6545 127.022 47.8247V50.6051C127.022 50.9833 126.842 51.1725 126.483 51.1725H123.249ZM122.738 68.6489V53.4138H126.937V68.6489H122.738ZM130.163 75.3728V53.4138H133.681L134.362 54.8607C134.721 54.577 135.118 54.3122 135.554 54.0663C135.989 53.8015 136.462 53.5934 136.972 53.4421C137.483 53.2719 138.022 53.1868 138.59 53.1868C139.516 53.1868 140.32 53.3665 141.001 53.7259C141.7 54.0853 142.268 54.6053 142.703 55.2862C143.138 55.9671 143.459 56.7993 143.668 57.7829C143.876 58.7475 143.98 59.835 143.98 61.0455C143.98 62.6721 143.819 64.0718 143.498 65.2444C143.176 66.4171 142.618 67.3155 141.824 67.9397C141.048 68.5449 139.97 68.8475 138.59 68.8475C137.87 68.8475 137.133 68.7624 136.377 68.5922C135.639 68.422 134.967 68.1761 134.362 67.8546V75.3728H130.163ZM137.228 65.3863C137.662 65.3863 138.079 65.2728 138.476 65.0458C138.873 64.7999 139.185 64.3649 139.412 63.7408C139.658 63.1166 139.781 62.2182 139.781 61.0455C139.781 59.9107 139.668 59.0218 139.441 58.3787C139.232 57.7167 138.939 57.2533 138.561 56.9885C138.182 56.7048 137.738 56.5629 137.228 56.5629C136.641 56.5629 136.102 56.6575 135.611 56.8466C135.118 57.0358 134.703 57.2249 134.362 57.4141V64.6486C134.74 64.8756 135.185 65.0553 135.696 65.1877C136.206 65.3201 136.717 65.3863 137.228 65.3863ZM152.547 68.6489C151.374 68.6489 150.419 68.4787 149.682 68.1383C148.962 67.7978 148.442 67.2304 148.121 66.436C147.799 65.6416 147.657 64.573 147.696 63.2301L147.837 56.7899H145.454V54.0947L147.979 53.4138L148.547 49.1581H151.866V53.4138H155.441V56.7899H151.866V63.2017C151.866 63.6179 151.904 63.9583 151.98 64.2231C152.055 64.4878 152.159 64.7054 152.292 64.8756C152.443 65.0269 152.613 65.1404 152.802 65.2161C152.991 65.2917 153.18 65.339 153.37 65.3579L155.299 65.5281V68.6489H152.547ZM158.297 51.1725C157.9 51.1725 157.701 50.9833 157.701 50.6051V47.8247C157.701 47.4275 157.9 47.2289 158.297 47.2289H161.532C161.702 47.2289 161.833 47.2857 161.929 47.3991C162.023 47.5126 162.071 47.6545 162.071 47.8247V50.6051C162.071 50.9833 161.89 51.1725 161.532 51.1725H158.297ZM157.787 68.6489V53.4138H161.985V68.6489H157.787ZM171.737 68.7908C170.489 68.7908 169.42 68.6679 168.531 68.422C167.641 68.1572 166.914 67.7221 166.346 67.1169C165.797 66.5117 165.391 65.7078 165.127 64.7054C164.88 63.703 164.758 62.4641 164.758 60.9888C164.758 59.4378 164.88 58.1611 165.127 57.1587C165.391 56.1374 165.797 55.343 166.346 54.7756C166.914 54.1892 167.641 53.7826 168.531 53.5556C169.439 53.3097 170.507 53.1868 171.737 53.1868C173.003 53.1868 174.082 53.3097 174.971 53.5556C175.86 53.8015 176.578 54.2176 177.127 54.8039C177.695 55.3714 178.101 56.1657 178.347 57.1871C178.612 58.1895 178.745 59.4568 178.745 60.9888C178.745 62.5019 178.621 63.7691 178.376 64.7905C178.13 65.7929 177.732 66.5873 177.184 67.1736C176.635 67.76 175.907 68.1761 175 68.422C174.11 68.6679 173.023 68.7908 171.737 68.7908ZM171.737 65.443C172.248 65.443 172.673 65.3957 173.014 65.3012C173.372 65.2066 173.656 65.0175 173.865 64.7338C174.092 64.4311 174.262 63.9772 174.375 63.3719C174.489 62.7667 174.546 61.9724 174.546 60.9888C174.546 59.9864 174.489 59.192 174.375 58.6056C174.262 58.0004 174.092 57.5559 173.865 57.2722C173.656 56.9696 173.372 56.771 173.014 56.6764C172.673 56.5819 172.248 56.5346 171.737 56.5346C171.244 56.5346 170.819 56.5819 170.46 56.6764C170.12 56.771 169.836 56.9696 169.609 57.2722C169.382 57.5559 169.212 58.0004 169.098 58.6056C169.003 59.192 168.957 59.9864 168.957 60.9888C168.957 61.9724 169.003 62.7667 169.098 63.3719C169.212 63.9772 169.382 64.4311 169.609 64.7338C169.836 65.0175 170.12 65.2066 170.46 65.3012C170.819 65.3957 171.244 65.443 171.737 65.443ZM181.53 68.6489V53.4138H184.991L185.729 54.9742C186.296 54.5013 187.006 54.0853 187.857 53.7259C188.727 53.3476 189.616 53.1584 190.524 53.1584C191.772 53.1584 192.736 53.4043 193.417 53.8961C194.098 54.3878 194.571 55.0499 194.836 55.882C195.12 56.6954 195.261 57.6032 195.261 58.6056V68.6489H191.063V59.1447C191.063 58.653 190.968 58.2462 190.779 57.9247C190.609 57.6032 190.362 57.3573 190.041 57.1871C189.72 57.0169 189.332 56.9318 188.878 56.9318C188.481 56.9318 188.093 56.9791 187.715 57.0736C187.355 57.1681 187.006 57.3006 186.665 57.4708C186.344 57.641 186.032 57.8396 185.729 58.0666V68.6489H181.53ZM205.348 68.6489L207.788 47.6545H211.817L216.64 63.7408L221.435 47.6545H225.435L227.903 68.6489H223.846L222.03 53.1868L222.683 53.2435L218.569 68.6489H214.626L210.455 53.2435L211.164 53.2152L209.405 68.6489H205.348ZM237.012 68.7908C235.764 68.7908 234.695 68.6679 233.806 68.422C232.917 68.1572 232.189 67.7221 231.622 67.1169C231.073 66.5117 230.666 65.7078 230.402 64.7054C230.156 63.703 230.033 62.4641 230.033 60.9888C230.033 59.4378 230.156 58.1611 230.402 57.1587C230.666 56.1374 231.073 55.343 231.622 54.7756C232.189 54.1892 232.917 53.7826 233.806 53.5556C234.714 53.3097 235.782 53.1868 237.012 53.1868C238.279 53.1868 239.357 53.3097 240.247 53.5556C241.135 53.8015 241.854 54.2176 242.403 54.8039C242.97 55.3714 243.376 56.1657 243.623 57.1871C243.887 58.1895 244.02 59.4568 244.02 60.9888C244.02 62.5019 243.896 63.7691 243.651 64.7905C243.405 65.7929 243.008 66.5873 242.459 67.1736C241.91 67.76 241.183 68.1761 240.275 68.422C239.385 68.6679 238.298 68.7908 237.012 68.7908ZM237.012 65.443C237.523 65.443 237.948 65.3957 238.289 65.3012C238.648 65.2066 238.931 65.0175 239.14 64.7338C239.367 64.4311 239.537 63.9772 239.651 63.3719C239.764 62.7667 239.821 61.9724 239.821 60.9888C239.821 59.9864 239.764 59.192 239.651 58.6056C239.537 58.0004 239.367 57.5559 239.14 57.2722C238.931 56.9696 238.648 56.771 238.289 56.6764C237.948 56.5819 237.523 56.5346 237.012 56.5346C236.52 56.5346 236.094 56.5819 235.736 56.6764C235.395 56.771 235.111 56.9696 234.884 57.2722C234.657 57.5559 234.487 58.0004 234.374 58.6056C234.279 59.192 234.232 59.9864 234.232 60.9888C234.232 61.9724 234.279 62.7667 234.374 63.3719C234.487 63.9772 234.657 64.4311 234.884 64.7338C235.111 65.0175 235.395 65.2066 235.736 65.3012C236.094 65.3957 236.52 65.443 237.012 65.443ZM251.799 68.8192C250.607 68.8192 249.605 68.5732 248.791 68.0815C247.978 67.5708 247.364 66.7575 246.947 65.6416C246.55 64.5068 246.351 63.0221 246.351 61.1874C246.351 59.296 246.522 57.7639 246.862 56.5913C247.222 55.4187 247.818 54.558 248.649 54.0096C249.481 53.4611 250.626 53.1868 252.082 53.1868C252.782 53.1868 253.472 53.2625 254.153 53.4138C254.834 53.5462 255.439 53.7069 255.969 53.8961V47.002H260.196V68.6489H256.65L255.969 67.202C255.648 67.5047 255.251 67.7789 254.777 68.0248C254.324 68.2707 253.841 68.4693 253.331 68.6206C252.82 68.753 252.309 68.8192 251.799 68.8192ZM253.274 65.443C253.841 65.443 254.352 65.3485 254.806 65.1593C255.279 64.9701 255.666 64.7811 255.969 64.5919V56.9318C255.591 56.7993 255.194 56.667 254.777 56.5346C254.361 56.4021 253.917 56.336 253.444 56.336C252.744 56.336 252.176 56.4589 251.742 56.7048C251.325 56.9507 251.023 57.4141 250.834 58.095C250.644 58.7569 250.55 59.7215 250.55 60.9888C250.55 62.1614 250.635 63.0788 250.806 63.7408C250.995 64.3839 251.288 64.8283 251.685 65.0742C252.082 65.3201 252.612 65.443 253.274 65.443ZM269.757 68.7908C268.074 68.7908 266.732 68.5732 265.729 68.1383C264.727 67.6843 263.998 66.8899 263.544 65.7551C263.109 64.6203 262.892 63.0504 262.892 61.0455C262.892 58.9839 263.1 57.3857 263.516 56.2509C263.932 55.116 264.632 54.3216 265.615 53.8677C266.599 53.4138 267.932 53.1868 269.615 53.1868C271.129 53.1868 272.339 53.3381 273.247 53.6407C274.155 53.9434 274.807 54.4729 275.204 55.2295C275.621 55.9861 275.829 57.0547 275.829 58.4354C275.829 59.4568 275.621 60.2701 275.204 60.8753C274.807 61.4617 274.24 61.8872 273.502 62.152C272.765 62.3979 271.895 62.5208 270.892 62.5208H267.062C267.101 63.2963 267.214 63.9204 267.403 64.3933C267.611 64.8472 267.98 65.1783 268.509 65.3863C269.058 65.5755 269.842 65.67 270.864 65.67H275.318V68.1383C274.58 68.2895 273.768 68.4409 272.878 68.5922C272.009 68.7246 270.968 68.7908 269.757 68.7908ZM267.005 60.0242H270.467C271.034 60.0242 271.45 59.9107 271.715 59.6837C271.98 59.4568 272.112 59.0501 272.112 58.4638C272.112 57.9153 272.027 57.4802 271.857 57.1587C271.687 56.8183 271.422 56.5819 271.062 56.4495C270.704 56.2982 270.221 56.2225 269.615 56.2225C268.973 56.2225 268.462 56.336 268.083 56.5629C267.705 56.771 267.431 57.1493 267.261 57.6978C267.09 58.2462 267.005 59.0218 267.005 60.0242ZM283.35 68.7057C282.272 68.7057 281.374 68.5355 280.655 68.195C279.956 67.8356 279.435 67.2966 279.094 66.5779C278.754 65.8402 278.584 64.8946 278.584 63.7408V47.002H282.783V63.1166C282.783 63.684 282.839 64.138 282.953 64.4784C283.066 64.7999 283.236 65.0364 283.463 65.1877C283.71 65.339 284.013 65.443 284.371 65.4998L285.535 65.67V68.7057H283.35Z" fill="white"/>
<path d="M51.8809 84.373L265.676 84.3897" stroke="#D0D0D0" stroke-width="0.726765"/>
<path d="M61.2607 104.479L64.9236 93.7808H66.4062L70.0691 104.479H68.8772L67.8016 101.426H63.4991L62.4526 104.479H61.2607ZM63.7898 100.38H67.5109L65.6649 94.7981L63.7898 100.38ZM71.6655 104.479V96.7172H72.5666L72.8138 97.5744C73.182 97.313 73.6132 97.085 74.1074 96.8915C74.6016 96.6878 75.1152 96.5865 75.6481 96.5865C76.2199 96.5865 76.6801 96.7071 77.029 96.9492C77.3778 97.1914 77.6346 97.5116 77.7993 97.9088C77.9641 98.306 78.0465 98.7376 78.0465 99.2027V104.479H76.8982V99.3334C76.8982 99.0041 76.8304 98.7133 76.6947 98.461C76.5688 98.1996 76.3847 97.9959 76.1424 97.851C75.9097 97.7051 75.619 97.6321 75.2702 97.6321C74.9505 97.6321 74.6501 97.6666 74.369 97.7345C74.0978 97.7922 73.836 97.8794 73.5841 97.9959C73.3419 98.1023 73.0851 98.233 72.8138 98.388V104.479H71.6655ZM80.2107 104.479V96.7172H81.1119L81.359 97.5744C81.7272 97.313 82.1585 97.085 82.653 96.8915C83.1464 96.6878 83.6602 96.5865 84.1931 96.5865C84.7646 96.5865 85.2256 96.7071 85.5742 96.9492C85.9227 97.1914 86.1801 97.5116 86.3442 97.9088C86.5094 98.306 86.5915 98.7376 86.5915 99.2027V104.479H85.4435V99.3334C85.4435 99.0041 85.3756 98.7133 85.2398 98.461C85.1142 98.1996 84.9298 97.9959 84.6876 97.851C84.4545 97.7051 84.1637 97.6321 83.8152 97.6321C83.496 97.6321 83.1951 97.6666 82.9144 97.7345C82.6429 97.7922 82.3814 97.8794 82.1291 97.9959C81.8871 98.1023 81.6302 98.233 81.359 98.388V104.479H80.2107ZM91.067 104.566C90.3212 104.566 89.7447 104.372 89.3374 103.984C88.9402 103.597 88.7416 102.996 88.7416 102.182V96.7172H89.8896V101.892C89.8896 102.54 90.0345 102.981 90.3253 103.214C90.6262 103.437 91.0427 103.548 91.5756 103.548C92.0316 103.548 92.448 103.486 92.826 103.359C93.2039 103.224 93.591 103.04 93.9882 102.807V96.7172H95.1372V104.479H94.2354L93.9882 103.621C93.591 103.873 93.1411 104.096 92.6365 104.29C92.142 104.474 91.6192 104.566 91.067 104.566ZM98.8122 104.566C98.2408 104.566 97.7706 104.397 97.4028 104.057C97.035 103.718 96.8506 103.238 96.8506 102.618V102.066C96.8506 101.455 97.0492 100.961 97.4464 100.583C97.8537 100.205 98.4637 100.016 99.2773 100.016H101.909V99.0568C101.909 98.7376 101.851 98.466 101.734 98.2431C101.628 98.0101 101.429 97.8307 101.139 97.7051C100.857 97.5795 100.446 97.5166 99.9025 97.5166H97.4899V96.8327C97.8294 96.7749 98.2215 96.7212 98.6673 96.6736C99.1223 96.625 99.6553 96.6007 100.266 96.6007C100.896 96.5905 101.419 96.6686 101.836 96.8327C102.252 96.9979 102.558 97.2593 102.752 97.618C102.955 97.9665 103.057 98.4275 103.057 98.999V104.479H102.17L101.952 103.592C101.914 103.631 101.792 103.698 101.589 103.796C101.395 103.892 101.143 104.003 100.833 104.13C100.533 104.246 100.203 104.348 99.8447 104.435C99.4962 104.522 99.1517 104.566 98.8122 104.566ZM99.2925 103.709C99.4668 103.718 99.6654 103.698 99.8883 103.65C100.111 103.602 100.339 103.548 100.571 103.491C100.804 103.423 101.017 103.355 101.211 103.287C101.414 103.219 101.579 103.16 101.705 103.113C101.831 103.064 101.899 103.04 101.909 103.04V100.598L99.5397 100.699C98.9875 100.718 98.5893 100.854 98.3472 101.107C98.1151 101.359 97.9986 101.683 97.9986 102.08V102.429C97.9986 102.739 98.0614 102.991 98.1881 103.185C98.3228 103.369 98.488 103.5 98.6815 103.578C98.8852 103.655 99.0889 103.698 99.2925 103.709ZM107.257 104.493C106.811 104.493 106.438 104.416 106.137 104.261C105.837 104.096 105.609 103.834 105.454 103.476C105.299 103.108 105.222 102.613 105.222 101.993V93.3887H106.37V101.848C106.37 102.313 106.414 102.667 106.501 102.909C106.588 103.141 106.714 103.306 106.879 103.403C107.043 103.491 107.237 103.548 107.46 103.578L108.245 103.665V104.493H107.257ZM114.924 104.566C114.351 104.566 113.882 104.397 113.513 104.057C113.146 103.718 112.961 103.238 112.961 102.618V102.066C112.961 101.455 113.16 100.961 113.557 100.583C113.964 100.205 114.574 100.016 115.389 100.016H118.019V99.0568C118.019 98.7376 117.962 98.466 117.845 98.2431C117.739 98.0101 117.54 97.8307 117.249 97.7051C116.969 97.5795 116.556 97.5166 116.014 97.5166H113.601V96.8327C113.94 96.7749 114.332 96.7212 114.778 96.6736C115.234 96.625 115.767 96.6007 116.377 96.6007C117.007 96.5905 117.53 96.6686 117.947 96.8327C118.364 96.9979 118.669 97.2593 118.862 97.618C119.066 97.9665 119.168 98.4275 119.168 98.999V104.479H118.281L118.063 103.592C118.024 103.631 117.903 103.698 117.7 103.796C117.506 103.892 117.254 104.003 116.944 104.13C116.643 104.246 116.314 104.348 115.955 104.435C115.607 104.522 115.262 104.566 114.924 104.566ZM115.403 103.709C115.577 103.718 115.776 103.698 115.999 103.65C116.222 103.602 116.45 103.548 116.682 103.491C116.915 103.423 117.128 103.355 117.322 103.287C117.526 103.219 117.69 103.16 117.816 103.113C117.942 103.064 118.01 103.04 118.019 103.04V100.598L115.65 100.699C115.098 100.718 114.701 100.854 114.459 101.107C114.226 101.359 114.109 101.683 114.109 102.08V102.429C114.109 102.739 114.173 102.991 114.299 103.185C114.434 103.369 114.599 103.5 114.793 103.578C114.996 103.655 115.199 103.698 115.403 103.709ZM124.153 104.566C123.716 104.566 123.309 104.508 122.932 104.392C122.554 104.275 122.224 104.071 121.943 103.781C121.662 103.491 121.444 103.088 121.289 102.575C121.134 102.061 121.056 101.406 121.056 100.612C121.056 99.8076 121.129 99.149 121.274 98.6353C121.42 98.1124 121.628 97.7051 121.899 97.4143C122.171 97.1235 122.5 96.9198 122.888 96.8043C123.275 96.6878 123.707 96.63 124.182 96.63C124.569 96.63 124.99 96.6493 125.446 96.6878C125.901 96.7172 126.337 96.7648 126.755 96.8327V97.5166H124.487C123.992 97.5166 123.576 97.5987 123.237 97.7629C122.897 97.928 122.641 98.2381 122.466 98.694C122.292 99.1388 122.205 99.7883 122.205 100.641C122.205 101.465 122.296 102.094 122.481 102.531C122.665 102.967 122.926 103.268 123.266 103.432C123.604 103.587 124.017 103.665 124.501 103.665H126.87V104.334C126.647 104.372 126.386 104.411 126.086 104.449C125.795 104.489 125.485 104.517 125.156 104.536C124.826 104.557 124.492 104.566 124.153 104.566ZM131.278 104.566C130.842 104.566 130.435 104.508 130.057 104.392C129.679 104.275 129.349 104.071 129.069 103.781C128.788 103.491 128.569 103.088 128.414 102.575C128.259 102.061 128.182 101.406 128.182 100.612C128.182 99.8076 128.255 99.149 128.4 98.6353C128.545 98.1124 128.754 97.7051 129.025 97.4143C129.297 97.1235 129.626 96.9198 130.013 96.8043C130.401 96.6878 130.832 96.63 131.307 96.63C131.695 96.63 132.117 96.6493 132.572 96.6878C133.028 96.7172 133.463 96.7648 133.88 96.8327V97.5166H131.612C131.119 97.5166 130.701 97.5987 130.363 97.7629C130.023 97.928 129.766 98.2381 129.592 98.694C129.417 99.1388 129.33 99.7883 129.33 100.641C129.33 101.465 129.422 102.094 129.607 102.531C129.79 102.967 130.053 103.268 130.391 103.432C130.73 103.587 131.143 103.665 131.627 103.665H133.996V104.334C133.773 104.372 133.512 104.411 133.211 104.449C132.92 104.489 132.61 104.517 132.281 104.536C131.951 104.557 131.617 104.566 131.278 104.566ZM138.549 104.566C137.735 104.566 137.091 104.445 136.615 104.202C136.15 103.96 135.816 103.548 135.613 102.967C135.41 102.385 135.307 101.591 135.307 100.583C135.307 99.5563 135.41 98.7568 135.613 98.1844C135.826 97.6038 136.171 97.1964 136.645 96.9634C137.12 96.7314 137.759 96.6148 138.564 96.6148C139.252 96.6148 139.809 96.6929 140.235 96.8479C140.671 97.0029 140.991 97.2694 141.194 97.6473C141.408 98.0152 141.514 98.5289 141.514 99.1875C141.514 99.6434 141.422 100.011 141.238 100.293C141.064 100.563 140.807 100.762 140.468 100.889C140.138 101.004 139.745 101.063 139.29 101.063H136.456C136.465 101.692 136.533 102.202 136.66 102.589C136.786 102.967 137.014 103.244 137.343 103.418C137.681 103.582 138.176 103.665 138.825 103.665H141.325V104.362C140.879 104.421 140.443 104.469 140.017 104.508C139.59 104.547 139.102 104.566 138.549 104.566ZM136.441 100.307H139.203C139.639 100.307 139.959 100.229 140.163 100.074C140.376 99.9099 140.482 99.6191 140.482 99.2027C140.482 98.7568 140.414 98.4123 140.278 98.1702C140.153 97.9179 139.949 97.7436 139.668 97.6473C139.397 97.541 139.029 97.4872 138.564 97.4872C138.021 97.4872 137.594 97.5693 137.284 97.7345C136.974 97.8895 136.756 98.1702 136.631 98.5775C136.504 98.9838 136.441 99.5614 136.441 100.307ZM146.123 104.566C145.928 104.566 145.691 104.561 145.41 104.552C145.129 104.541 144.834 104.527 144.524 104.508C144.223 104.489 143.946 104.469 143.695 104.449C143.453 104.421 143.263 104.392 143.128 104.362V103.665H146.311C146.631 103.665 146.907 103.641 147.14 103.592C147.372 103.543 147.551 103.437 147.677 103.272C147.813 103.108 147.881 102.86 147.881 102.531V102.182C147.881 101.843 147.769 101.582 147.546 101.397C147.323 101.204 146.966 101.107 146.471 101.107H145.381C144.925 101.107 144.519 101.049 144.16 100.932C143.811 100.816 143.54 100.617 143.346 100.337C143.152 100.055 143.056 99.6678 143.056 99.1733V98.766C143.056 98.2816 143.148 97.8844 143.331 97.5744C143.525 97.2643 143.821 97.0313 144.218 96.8763C144.625 96.7212 145.148 96.6442 145.788 96.6442C146.059 96.6442 146.369 96.6533 146.718 96.6736C147.077 96.6929 147.426 96.7212 147.765 96.7608C148.104 96.7891 148.38 96.8236 148.593 96.8621V97.5602H145.599C145.104 97.5602 144.722 97.6423 144.451 97.8074C144.189 97.9716 144.058 98.2918 144.058 98.766V99.0862C144.058 99.3861 144.122 99.6141 144.247 99.7691C144.373 99.915 144.547 100.011 144.77 100.06C145.003 100.109 145.27 100.133 145.569 100.133H146.675C147.382 100.133 147.929 100.297 148.317 100.626C148.704 100.957 148.898 101.431 148.898 102.051V102.589C148.898 103.113 148.777 103.519 148.535 103.81C148.302 104.091 147.978 104.29 147.562 104.406C147.154 104.512 146.675 104.566 146.123 104.566ZM153.39 104.566C153.196 104.566 152.959 104.561 152.677 104.552C152.397 104.541 152.101 104.527 151.791 104.508C151.491 104.489 151.214 104.469 150.962 104.449C150.72 104.421 150.531 104.392 150.396 104.362V103.665H153.579C153.898 103.665 154.175 103.641 154.407 103.592C154.64 103.543 154.819 103.437 154.945 103.272C155.081 103.108 155.149 102.86 155.149 102.531V102.182C155.149 101.843 155.037 101.582 154.814 101.397C154.591 101.204 154.233 101.107 153.738 101.107H152.649C152.193 101.107 151.786 101.049 151.428 100.932C151.078 100.816 150.807 100.617 150.613 100.337C150.42 100.055 150.323 99.6678 150.323 99.1733V98.766C150.323 98.2816 150.415 97.8844 150.599 97.5744C150.793 97.2643 151.089 97.0313 151.486 96.8763C151.893 96.7212 152.416 96.6442 153.055 96.6442C153.327 96.6442 153.637 96.6533 153.985 96.6736C154.344 96.6929 154.693 96.7212 155.032 96.7608C155.372 96.7891 155.647 96.8236 155.861 96.8621V97.5602H152.867C152.372 97.5602 151.989 97.6423 151.718 97.8074C151.456 97.9716 151.326 98.2918 151.326 98.766V99.0862C151.326 99.3861 151.389 99.6141 151.515 99.7691C151.641 99.915 151.815 100.011 152.038 100.06C152.271 100.109 152.538 100.133 152.837 100.133H153.942C154.649 100.133 155.197 100.297 155.584 100.626C155.972 100.957 156.166 101.431 156.166 102.051V102.589C156.166 103.113 156.045 103.519 155.802 103.81C155.57 104.091 155.246 104.29 154.829 104.406C154.422 104.512 153.942 104.566 153.39 104.566ZM164.474 104.479C163.97 104.479 163.553 104.397 163.223 104.231C162.894 104.067 162.652 103.801 162.497 103.432C162.342 103.064 162.269 102.575 162.279 101.964L162.322 97.6615H161.086V96.9198L162.337 96.7172L162.526 94.5509H163.413V96.7172H165.651V97.6615H163.413V101.964C163.413 102.303 163.446 102.575 163.514 102.778C163.592 102.981 163.688 103.136 163.805 103.243C163.93 103.35 164.061 103.427 164.197 103.476C164.333 103.514 164.463 103.538 164.59 103.548L165.534 103.636V104.479H164.474ZM170.319 104.566C169.758 104.566 169.263 104.508 168.837 104.392C168.42 104.275 168.072 104.071 167.79 103.781C167.509 103.491 167.301 103.088 167.165 102.575C167.03 102.051 166.962 101.387 166.962 100.583C166.962 99.7691 167.03 99.1054 167.165 98.5917C167.301 98.0689 167.509 97.6666 167.79 97.3849C168.072 97.0951 168.42 96.8965 168.837 96.7891C169.263 96.6736 169.758 96.6148 170.319 96.6148C170.881 96.6148 171.371 96.6736 171.787 96.7891C172.214 96.9057 172.567 97.1093 172.848 97.4001C173.13 97.6808 173.337 98.083 173.473 98.6069C173.619 99.1196 173.691 99.7792 173.691 100.583C173.691 101.397 173.619 102.066 173.473 102.589C173.337 103.103 173.13 103.505 172.848 103.796C172.578 104.076 172.228 104.275 171.802 104.392C171.376 104.508 170.881 104.566 170.319 104.566ZM170.319 103.621C170.678 103.621 170.993 103.587 171.264 103.519C171.545 103.451 171.778 103.315 171.961 103.113C172.146 102.909 172.287 102.603 172.383 102.197C172.48 101.789 172.529 101.251 172.529 100.583C172.529 99.9049 172.48 99.3668 172.383 98.9696C172.287 98.5724 172.146 98.2725 171.961 98.0689C171.778 97.8652 171.545 97.7294 171.264 97.6615C170.993 97.5936 170.678 97.5602 170.319 97.5602C169.951 97.5602 169.631 97.5936 169.36 97.6615C169.089 97.7294 168.861 97.8652 168.677 98.0689C168.493 98.2725 168.352 98.5724 168.255 98.9696C168.159 99.3668 168.11 99.9049 168.11 100.583C168.11 101.251 168.159 101.789 168.255 102.197C168.352 102.603 168.493 102.909 168.677 103.113C168.861 103.315 169.089 103.451 169.36 103.519C169.631 103.587 169.951 103.621 170.319 103.621ZM182.059 104.566C181.42 104.566 180.891 104.43 180.475 104.158C180.067 103.878 179.762 103.451 179.559 102.88C179.365 102.298 179.268 101.557 179.268 100.656C179.268 99.6961 179.365 98.921 179.559 98.3303C179.753 97.7294 180.063 97.2937 180.489 97.0222C180.916 96.7506 181.488 96.6148 182.204 96.6148C182.641 96.6148 183.067 96.6635 183.484 96.7608C183.901 96.857 184.268 96.9634 184.589 97.0799V93.3887H185.737V104.479H184.806L184.589 103.693C184.443 103.82 184.225 103.951 183.934 104.087C183.653 104.222 183.343 104.338 183.004 104.435C182.675 104.522 182.359 104.566 182.059 104.566ZM182.394 103.621C182.84 103.621 183.242 103.554 183.6 103.418C183.968 103.272 184.298 103.122 184.589 102.967V97.8946C184.24 97.7872 183.906 97.7 183.585 97.6321C183.265 97.5551 182.908 97.5166 182.509 97.5166C182.016 97.5166 181.614 97.6078 181.304 97.7922C180.994 97.9766 180.766 98.2958 180.621 98.7518C180.485 99.1976 180.417 99.8177 180.417 100.612C180.417 101.329 180.48 101.911 180.605 102.357C180.741 102.803 180.955 103.127 181.245 103.331C181.536 103.524 181.919 103.621 182.394 103.621ZM188.08 95.3361C187.925 95.3361 187.847 95.2581 187.847 95.1031V93.9693C187.847 93.8142 187.925 93.7372 188.08 93.7372H188.894C188.971 93.7372 189.025 93.7615 189.054 93.8102C189.092 93.8487 189.112 93.9014 189.112 93.9693V95.1031C189.112 95.2581 189.039 95.3361 188.894 95.3361H188.08ZM187.905 104.479V96.7172H189.054V104.479H187.905ZM193.174 108.04C192.669 108.04 192.224 107.967 191.836 107.821C191.458 107.687 191.158 107.473 190.936 107.182C190.722 106.901 190.615 106.548 190.615 106.121V105.773C190.615 105.327 190.737 104.954 190.979 104.653C191.23 104.353 191.546 104.13 191.923 103.984C192.301 103.829 192.689 103.752 193.087 103.752L193.377 104.217C193.087 104.217 192.815 104.266 192.563 104.362C192.312 104.449 192.103 104.595 191.938 104.799C191.783 105.001 191.706 105.264 191.706 105.583V105.903C191.706 106.368 191.861 106.698 192.171 106.891C192.481 107.095 192.902 107.197 193.435 107.197H195.238C195.819 107.197 196.274 107.086 196.604 106.863C196.943 106.64 197.112 106.29 197.112 105.816V105.525C197.112 105.254 197.06 105.022 196.953 104.827C196.846 104.634 196.666 104.484 196.415 104.377C196.173 104.27 195.828 104.217 195.383 104.217H193.043C192.442 104.217 191.972 104.091 191.633 103.839C191.303 103.578 191.138 103.243 191.138 102.836C191.138 102.448 191.25 102.143 191.473 101.92C191.706 101.697 192.03 101.542 192.447 101.455C192.089 101.31 191.807 101.116 191.603 100.874C191.401 100.622 191.26 100.356 191.182 100.074C191.105 99.7833 191.066 99.4935 191.066 99.2027C191.066 98.6018 191.187 98.1175 191.429 97.7487C191.671 97.3809 192.016 97.1144 192.461 96.9492C192.916 96.7851 193.449 96.702 194.06 96.702H198.203V97.3565L196.459 97.5014C196.584 97.5886 196.725 97.7051 196.88 97.851C197.035 97.9858 197.166 98.1844 197.272 98.4468C197.389 98.6981 197.447 99.0477 197.447 99.4935C197.447 99.8907 197.359 100.269 197.185 100.626C197.02 100.985 196.739 101.281 196.342 101.514C195.945 101.737 195.398 101.848 194.7 101.848H193.465C193.057 101.848 192.733 101.911 192.491 102.037C192.258 102.153 192.141 102.366 192.141 102.676C192.141 102.909 192.228 103.073 192.403 103.171C192.578 103.268 192.761 103.315 192.956 103.315H195.529C196.129 103.315 196.623 103.393 197.011 103.548C197.408 103.704 197.704 103.941 197.898 104.261C198.101 104.571 198.203 104.968 198.203 105.452V105.773C198.203 106.48 197.96 107.032 197.476 107.429C197.001 107.837 196.289 108.04 195.339 108.04H193.174ZM193.712 100.961H194.583C195.078 100.961 195.451 100.889 195.703 100.743C195.964 100.588 196.144 100.389 196.241 100.147C196.337 99.9049 196.386 99.6434 196.386 99.3618C196.386 98.9261 196.313 98.5826 196.168 98.3303C196.032 98.0689 195.839 97.8844 195.586 97.7781C195.334 97.6615 195.044 97.6038 194.714 97.6038H193.886C193.334 97.6038 192.897 97.7294 192.578 97.9817C192.268 98.2239 192.113 98.6505 192.113 99.2604C192.113 99.8613 192.253 100.297 192.534 100.569C192.824 100.83 193.217 100.961 193.712 100.961ZM199.819 95.3361C199.664 95.3361 199.586 95.2581 199.586 95.1031V93.9693C199.586 93.8142 199.664 93.7372 199.819 93.7372H200.632C200.71 93.7372 200.763 93.7615 200.792 93.8102C200.831 93.8487 200.851 93.9014 200.851 93.9693V95.1031C200.851 95.2581 200.778 95.3361 200.632 95.3361H199.819ZM199.644 104.479V96.7172H200.792V104.479H199.644ZM205.581 104.479C205.077 104.479 204.661 104.397 204.331 104.231C204.001 104.067 203.759 103.801 203.604 103.432C203.449 103.064 203.376 102.575 203.386 101.964L203.43 97.6615H202.195V96.9198L203.444 96.7172L203.634 94.5509H204.52V96.7172H206.758V97.6615H204.52V101.964C204.52 102.303 204.554 102.575 204.621 102.778C204.699 102.981 204.797 103.136 204.912 103.243C205.039 103.35 205.17 103.427 205.305 103.476C205.44 103.514 205.572 103.538 205.697 103.548L206.642 103.636V104.479H205.581ZM209.857 104.566C209.285 104.566 208.815 104.397 208.447 104.057C208.079 103.718 207.895 103.238 207.895 102.618V102.066C207.895 101.455 208.094 100.961 208.491 100.583C208.898 100.205 209.508 100.016 210.322 100.016H212.953V99.0568C212.953 98.7376 212.896 98.466 212.779 98.2431C212.673 98.0101 212.474 97.8307 212.183 97.7051C211.902 97.5795 211.49 97.5166 210.947 97.5166H208.535V96.8327C208.874 96.7749 209.266 96.7212 209.712 96.6736C210.167 96.625 210.7 96.6007 211.311 96.6007C211.941 96.5905 212.464 96.6686 212.88 96.8327C213.297 96.9979 213.603 97.2593 213.796 97.618C214 97.9665 214.101 98.4275 214.101 98.999V104.479H213.215L212.997 103.592C212.958 103.631 212.837 103.698 212.633 103.796C212.44 103.892 212.187 104.003 211.877 104.13C211.577 104.246 211.248 104.348 210.889 104.435C210.541 104.522 210.196 104.566 209.857 104.566ZM210.337 103.709C210.511 103.718 210.71 103.698 210.933 103.65C211.156 103.602 211.384 103.548 211.616 103.491C211.849 103.423 212.062 103.355 212.255 103.287C212.459 103.219 212.624 103.16 212.75 103.113C212.875 103.064 212.943 103.04 212.953 103.04V100.598L210.584 100.699C210.031 100.718 209.634 100.854 209.392 101.107C209.16 101.359 209.043 101.683 209.043 102.08V102.429C209.043 102.739 209.106 102.991 209.233 103.185C209.367 103.369 209.533 103.5 209.726 103.578C209.93 103.655 210.133 103.698 210.337 103.709ZM218.301 104.493C217.855 104.493 217.483 104.416 217.182 104.261C216.882 104.096 216.654 103.834 216.499 103.476C216.344 103.108 216.267 102.613 216.267 101.993V93.3887H217.415V101.848C217.415 102.313 217.458 102.667 217.545 102.909C217.633 103.141 217.758 103.306 217.923 103.403C218.087 103.491 218.282 103.548 218.505 103.578L219.289 103.665V104.493H218.301ZM227.029 104.479C226.526 104.479 226.108 104.397 225.779 104.231C225.45 104.067 225.208 103.801 225.053 103.432C224.897 103.064 224.825 102.575 224.835 101.964L224.878 97.6615H223.642V96.9198L224.892 96.7172L225.082 94.5509H225.968V96.7172H228.207V97.6615H225.968V101.964C225.968 102.303 226.002 102.575 226.07 102.778C226.148 102.981 226.244 103.136 226.361 103.243C226.486 103.35 226.617 103.427 226.753 103.476C226.889 103.514 227.019 103.538 227.146 103.548L228.09 103.636V104.479H227.029ZM232.875 104.566C232.313 104.566 231.819 104.508 231.392 104.392C230.976 104.275 230.627 104.071 230.346 103.781C230.065 103.491 229.856 103.088 229.721 102.575C229.586 102.051 229.518 101.387 229.518 100.583C229.518 99.7691 229.586 99.1054 229.721 98.5917C229.856 98.0689 230.065 97.6666 230.346 97.3849C230.627 97.0951 230.976 96.8965 231.392 96.7891C231.819 96.6736 232.313 96.6148 232.875 96.6148C233.437 96.6148 233.927 96.6736 234.343 96.7891C234.77 96.9057 235.123 97.1093 235.404 97.4001C235.686 97.6808 235.893 98.083 236.029 98.6069C236.175 99.1196 236.247 99.7792 236.247 100.583C236.247 101.397 236.175 102.066 236.029 102.589C235.893 103.103 235.686 103.505 235.404 103.796C235.133 104.076 234.784 104.275 234.358 104.392C233.932 104.508 233.437 104.566 232.875 104.566ZM232.875 103.621C233.233 103.621 233.549 103.587 233.82 103.519C234.101 103.451 234.334 103.315 234.517 103.113C234.702 102.909 234.842 102.603 234.939 102.197C235.036 101.789 235.085 101.251 235.085 100.583C235.085 99.9049 235.036 99.3668 234.939 98.9696C234.842 98.5724 234.702 98.2725 234.517 98.0689C234.334 97.8652 234.101 97.7294 233.82 97.6615C233.549 97.5936 233.233 97.5602 232.875 97.5602C232.507 97.5602 232.187 97.5936 231.916 97.6615C231.645 97.7294 231.417 97.8652 231.232 98.0689C231.049 98.2725 230.908 98.5724 230.811 98.9696C230.715 99.3668 230.666 99.9049 230.666 100.583C230.666 101.251 230.715 101.789 230.811 102.197C230.908 102.603 231.049 102.909 231.232 103.113C231.417 103.315 231.645 103.451 231.916 103.519C232.187 103.587 232.507 103.621 232.875 103.621ZM241.264 104.566C240.702 104.566 240.208 104.508 239.781 104.392C239.365 104.275 239.016 104.071 238.735 103.781C238.454 103.491 238.246 103.088 238.11 102.575C237.974 102.051 237.907 101.387 237.907 100.583C237.907 99.7691 237.974 99.1054 238.11 98.5917C238.246 98.0689 238.454 97.6666 238.735 97.3849C239.016 97.0951 239.365 96.8965 239.781 96.7891C240.208 96.6736 240.702 96.6148 241.264 96.6148C241.826 96.6148 242.315 96.6736 242.733 96.7891C243.158 96.9057 243.512 97.1093 243.794 97.4001C244.074 97.6808 244.283 98.083 244.419 98.6069C244.564 99.1196 244.637 99.7792 244.637 100.583C244.637 101.397 244.564 102.066 244.419 102.589C244.283 103.103 244.074 103.505 243.794 103.796C243.522 104.076 243.173 104.275 242.747 104.392C242.32 104.508 241.826 104.566 241.264 104.566ZM241.264 103.621C241.623 103.621 241.937 103.587 242.209 103.519C242.489 103.451 242.723 103.315 242.907 103.113C243.09 102.909 243.231 102.603 243.328 102.197C243.425 101.789 243.473 101.251 243.473 100.583C243.473 99.9049 243.425 99.3668 243.328 98.9696C243.231 98.5724 243.09 98.2725 242.907 98.0689C242.723 97.8652 242.489 97.7294 242.209 97.6615C241.937 97.5936 241.623 97.5602 241.264 97.5602C240.896 97.5602 240.576 97.5936 240.305 97.6615C240.033 97.7294 239.805 97.8652 239.622 98.0689C239.438 98.2725 239.297 98.5724 239.2 98.9696C239.103 99.3668 239.055 99.9049 239.055 100.583C239.055 101.251 239.103 101.789 239.2 102.197C239.297 102.603 239.438 102.909 239.622 103.113C239.805 103.315 240.033 103.451 240.305 103.519C240.576 103.587 240.896 103.621 241.264 103.621ZM248.606 104.493C248.161 104.493 247.788 104.416 247.488 104.261C247.187 104.096 246.959 103.834 246.804 103.476C246.649 103.108 246.572 102.613 246.572 101.993V93.3887H247.72V101.848C247.72 102.313 247.763 102.667 247.851 102.909C247.938 103.141 248.064 103.306 248.228 103.403C248.394 103.491 248.587 103.548 248.81 103.578L249.595 103.665V104.493H248.606ZM253.519 104.566C253.325 104.566 253.088 104.561 252.806 104.552C252.526 104.541 252.23 104.527 251.92 104.508C251.62 104.489 251.343 104.469 251.091 104.449C250.849 104.421 250.66 104.392 250.525 104.362V103.665H253.708C254.027 103.665 254.304 103.641 254.536 103.592C254.769 103.543 254.948 103.437 255.074 103.272C255.21 103.108 255.278 102.86 255.278 102.531V102.182C255.278 101.843 255.166 101.582 254.943 101.397C254.72 101.204 254.362 101.107 253.867 101.107H252.778C252.322 101.107 251.915 101.049 251.557 100.932C251.207 100.816 250.936 100.617 250.742 100.337C250.549 100.055 250.452 99.6678 250.452 99.1733V98.766C250.452 98.2816 250.544 97.8844 250.728 97.5744C250.922 97.2643 251.218 97.0313 251.615 96.8763C252.022 96.7212 252.545 96.6442 253.184 96.6442C253.456 96.6442 253.766 96.6533 254.114 96.6736C254.473 96.6929 254.822 96.7212 255.161 96.7608C255.501 96.7891 255.776 96.8236 255.99 96.8621V97.5602H252.996C252.501 97.5602 252.118 97.6423 251.847 97.8074C251.585 97.9716 251.455 98.2918 251.455 98.766V99.0862C251.455 99.3861 251.517 99.6141 251.644 99.7691C251.77 99.915 251.944 100.011 252.167 100.06C252.4 100.109 252.667 100.133 252.966 100.133H254.071C254.778 100.133 255.326 100.297 255.713 100.626C256.101 100.957 256.295 101.431 256.295 102.051V102.589C256.295 103.113 256.174 103.519 255.931 103.81C255.699 104.091 255.375 104.29 254.957 104.406C254.551 104.512 254.071 104.566 253.519 104.566ZM88.695 125.757C88.1914 125.757 87.775 125.675 87.4457 125.51C87.1163 125.345 86.8742 125.079 86.7192 124.71C86.5631 124.342 86.4912 123.853 86.5003 123.242L86.5439 118.94H85.3087V118.198L86.5591 117.995L86.7475 115.829H87.6341V117.995H89.8724V118.94H87.6341V123.242C87.6341 123.581 87.6686 123.853 87.7364 124.057C87.8135 124.259 87.9107 124.414 88.0273 124.522C88.1529 124.628 88.2836 124.705 88.4194 124.754C88.5552 124.792 88.6859 124.817 88.8115 124.827L89.7569 124.914V125.757H88.695ZM92.9719 125.844C92.3994 125.844 91.9303 125.675 91.5615 125.335C91.1936 124.996 91.0092 124.517 91.0092 123.896V123.344C91.0092 122.733 91.2078 122.239 91.605 121.861C92.0123 121.483 92.6223 121.294 93.437 121.294H96.0674V120.335C96.0674 120.016 96.0096 119.744 95.8931 119.521C95.7867 119.288 95.5881 119.109 95.2973 118.983C95.0166 118.858 94.6042 118.795 94.0621 118.795H91.6486V118.111C91.988 118.053 92.3802 117.999 92.826 117.952C93.2819 117.903 93.8149 117.879 94.4249 117.879C95.0551 117.869 95.578 117.947 95.9944 118.111C96.4119 118.276 96.7168 118.537 96.9104 118.896C97.114 119.245 97.2154 119.706 97.2154 120.277V125.757H96.3288L96.1109 124.87C96.0724 124.909 95.9508 124.977 95.7482 125.074C95.5536 125.17 95.3024 125.282 94.9923 125.408C94.6914 125.524 94.3621 125.626 94.0034 125.713C93.6548 125.8 93.3103 125.844 92.9719 125.844ZM93.4512 124.987C93.6254 124.996 93.824 124.977 94.0469 124.928C94.2699 124.88 94.4978 124.827 94.7299 124.769C94.9629 124.701 95.1757 124.633 95.3702 124.565C95.5729 124.497 95.7381 124.439 95.8637 124.391C95.9904 124.342 96.0582 124.318 96.0674 124.318V121.876L93.6984 121.977C93.1462 121.997 92.749 122.132 92.5068 122.385C92.2738 122.637 92.1572 122.961 92.1572 123.358V123.707C92.1572 124.017 92.2211 124.269 92.3467 124.463C92.4825 124.647 92.6466 124.778 92.8412 124.856C93.0438 124.933 93.2475 124.977 93.4512 124.987ZM99.5549 116.614C99.3999 116.614 99.3219 116.536 99.3219 116.381V115.247C99.3219 115.092 99.3999 115.015 99.5549 115.015H100.369C100.447 115.015 100.499 115.04 100.529 115.088C100.567 115.127 100.586 115.18 100.586 115.247V116.381C100.586 116.536 100.514 116.614 100.369 116.614H99.5549ZM99.3807 125.757V117.995H100.529V125.757H99.3807ZM104.779 125.771C104.333 125.771 103.961 125.694 103.661 125.539C103.36 125.374 103.133 125.112 102.977 124.754C102.822 124.386 102.745 123.891 102.745 123.271V114.667H103.893V123.126C103.893 123.592 103.936 123.945 104.023 124.187C104.111 124.419 104.237 124.584 104.401 124.681C104.566 124.769 104.76 124.827 104.983 124.856L105.768 124.943V125.771H104.779ZM110.099 125.844C109.536 125.844 109.042 125.786 108.616 125.67C108.199 125.553 107.85 125.349 107.57 125.059C107.288 124.769 107.08 124.367 106.945 123.853C106.809 123.329 106.741 122.665 106.741 121.861C106.741 121.047 106.809 120.384 106.945 119.87C107.08 119.347 107.288 118.945 107.57 118.663C107.85 118.373 108.199 118.175 108.616 118.067C109.042 117.952 109.536 117.893 110.099 117.893C110.661 117.893 111.151 117.952 111.567 118.067C111.994 118.184 112.347 118.387 112.628 118.678C112.909 118.959 113.117 119.361 113.253 119.885C113.398 120.398 113.471 121.057 113.471 121.861C113.471 122.676 113.398 123.344 113.253 123.867C113.117 124.381 112.909 124.783 112.628 125.074C112.356 125.355 112.008 125.553 111.581 125.67C111.155 125.786 110.661 125.844 110.099 125.844ZM110.099 124.9C110.457 124.9 110.773 124.865 111.043 124.797C111.325 124.729 111.557 124.594 111.741 124.391C111.926 124.187 112.065 123.881 112.163 123.475C112.26 123.068 112.308 122.53 112.308 121.861C112.308 121.183 112.26 120.645 112.163 120.248C112.065 119.851 111.926 119.551 111.741 119.347C111.557 119.143 111.325 119.008 111.043 118.94C110.773 118.872 110.457 118.838 110.099 118.838C109.73 118.838 109.411 118.872 109.139 118.94C108.868 119.008 108.641 119.143 108.456 119.347C108.272 119.551 108.132 119.851 108.035 120.248C107.938 120.645 107.889 121.183 107.889 121.861C107.889 122.53 107.938 123.068 108.035 123.475C108.132 123.881 108.272 124.187 108.456 124.391C108.641 124.594 108.868 124.729 109.139 124.797C109.411 124.865 109.73 124.9 110.099 124.9ZM115.406 125.757V117.995H116.279L116.554 119.347C116.904 118.93 117.291 118.586 117.717 118.315C118.153 118.043 118.653 117.908 119.215 117.908C119.35 117.908 119.476 117.912 119.593 117.922C119.719 117.932 119.835 117.952 119.941 117.98V119.158C119.815 119.138 119.68 119.124 119.534 119.114C119.389 119.095 119.243 119.086 119.098 119.086C118.74 119.086 118.42 119.129 118.139 119.216C117.858 119.303 117.592 119.434 117.339 119.608C117.087 119.783 116.826 119.995 116.554 120.248V125.757H115.406ZM124.361 125.844C123.548 125.844 122.903 125.723 122.428 125.48C121.963 125.238 121.629 124.827 121.426 124.245C121.222 123.663 121.12 122.869 121.12 121.861C121.12 120.834 121.222 120.035 121.426 119.463C121.639 118.882 121.982 118.475 122.457 118.242C122.933 118.01 123.572 117.893 124.376 117.893C125.064 117.893 125.622 117.971 126.047 118.126C126.484 118.281 126.803 118.548 127.007 118.925C127.221 119.293 127.327 119.807 127.327 120.466C127.327 120.922 127.235 121.289 127.05 121.571C126.876 121.842 126.62 122.04 126.28 122.167C125.951 122.282 125.558 122.341 125.103 122.341H122.269C122.278 122.97 122.346 123.48 122.472 123.867C122.598 124.245 122.826 124.522 123.155 124.696C123.494 124.86 123.988 124.943 124.638 124.943H127.138V125.64C126.692 125.699 126.256 125.747 125.829 125.786C125.403 125.825 124.913 125.844 124.361 125.844ZM122.254 121.585H125.016C125.451 121.585 125.772 121.507 125.975 121.352C126.188 121.188 126.295 120.897 126.295 120.481C126.295 120.035 126.227 119.691 126.091 119.448C125.965 119.196 125.762 119.022 125.481 118.925C125.209 118.819 124.842 118.765 124.376 118.765C123.833 118.765 123.407 118.847 123.097 119.013C122.787 119.168 122.569 119.448 122.443 119.856C122.316 120.262 122.254 120.84 122.254 121.585ZM131.775 125.844C131.135 125.844 130.607 125.708 130.19 125.437C129.783 125.156 129.478 124.729 129.274 124.158C129.081 123.576 128.984 122.836 128.984 121.934C128.984 120.974 129.081 120.199 129.274 119.608C129.469 119.008 129.779 118.572 130.205 118.3C130.631 118.029 131.203 117.893 131.92 117.893C132.356 117.893 132.782 117.942 133.199 118.039C133.616 118.135 133.984 118.242 134.304 118.358V114.667H135.452V125.757H134.522L134.304 124.972C134.158 125.098 133.94 125.229 133.65 125.365C133.369 125.5 133.059 125.616 132.719 125.713C132.39 125.8 132.075 125.844 131.775 125.844ZM132.11 124.9C132.555 124.9 132.957 124.832 133.315 124.696C133.684 124.55 134.013 124.4 134.304 124.245V119.173C133.955 119.065 133.621 118.978 133.301 118.91C132.981 118.833 132.622 118.795 132.225 118.795C131.732 118.795 131.329 118.886 131.019 119.07C130.709 119.255 130.481 119.574 130.335 120.03C130.201 120.476 130.133 121.096 130.133 121.89C130.133 122.608 130.196 123.189 130.321 123.635C130.457 124.081 130.67 124.405 130.961 124.609C131.251 124.802 131.634 124.9 132.11 124.9ZM144.111 125.757C143.608 125.757 143.19 125.675 142.861 125.51C142.532 125.345 142.29 125.079 142.135 124.71C141.98 124.342 141.907 123.853 141.917 123.242L141.96 118.94H140.724V118.198L141.974 117.995L142.164 115.829H143.051V117.995H145.289V118.94H143.051V123.242C143.051 123.581 143.084 123.853 143.152 124.057C143.23 124.259 143.326 124.414 143.443 124.522C143.568 124.628 143.699 124.705 143.835 124.754C143.971 124.792 144.101 124.817 144.228 124.827L145.172 124.914V125.757H144.111ZM149.957 125.844C149.395 125.844 148.901 125.786 148.474 125.67C148.058 125.553 147.709 125.349 147.428 125.059C147.147 124.769 146.938 124.367 146.803 123.853C146.668 123.329 146.6 122.665 146.6 121.861C146.6 121.047 146.668 120.384 146.803 119.87C146.938 119.347 147.147 118.945 147.428 118.663C147.709 118.373 148.058 118.175 148.474 118.067C148.901 117.952 149.395 117.893 149.957 117.893C150.519 117.893 151.009 117.952 151.425 118.067C151.852 118.184 152.205 118.387 152.486 118.678C152.768 118.959 152.975 119.361 153.111 119.885C153.257 120.398 153.329 121.057 153.329 121.861C153.329 122.676 153.257 123.344 153.111 123.867C152.975 124.381 152.768 124.783 152.486 125.074C152.215 125.355 151.866 125.553 151.44 125.67C151.014 125.786 150.519 125.844 149.957 125.844ZM149.957 124.9C150.316 124.9 150.631 124.865 150.902 124.797C151.183 124.729 151.416 124.594 151.599 124.391C151.784 124.187 151.925 123.881 152.021 123.475C152.118 123.068 152.167 122.53 152.167 121.861C152.167 121.183 152.118 120.645 152.021 120.248C151.925 119.851 151.784 119.551 151.599 119.347C151.416 119.143 151.183 119.008 150.902 118.94C150.631 118.872 150.316 118.838 149.957 118.838C149.589 118.838 149.269 118.872 148.998 118.94C148.727 119.008 148.499 119.143 148.314 119.347C148.131 119.551 147.99 119.851 147.893 120.248C147.797 120.645 147.748 121.183 147.748 121.861C147.748 122.53 147.797 123.068 147.893 123.475C147.99 123.881 148.131 124.187 148.314 124.391C148.499 124.594 148.727 124.729 148.998 124.797C149.269 124.865 149.589 124.9 149.957 124.9ZM161.755 125.757C161.251 125.757 160.835 125.675 160.505 125.51C160.175 125.345 159.933 125.079 159.778 124.71C159.623 124.342 159.55 123.853 159.56 123.242L159.604 118.94H158.369V118.198L159.618 117.995L159.808 115.829H160.694V117.995H162.932V118.94H160.694V123.242C160.694 123.581 160.728 123.853 160.796 124.057C160.874 124.259 160.971 124.414 161.086 124.522C161.213 124.628 161.344 124.705 161.479 124.754C161.614 124.792 161.746 124.817 161.872 124.827L162.816 124.914V125.757H161.755ZM167.485 125.844C166.671 125.844 166.027 125.723 165.552 125.48C165.087 125.238 164.752 124.827 164.549 124.245C164.345 123.663 164.244 122.869 164.244 121.861C164.244 120.834 164.345 120.035 164.549 119.463C164.762 118.882 165.106 118.475 165.581 118.242C166.055 118.01 166.695 117.893 167.499 117.893C168.187 117.893 168.744 117.971 169.171 118.126C169.607 118.281 169.927 118.548 170.131 118.925C170.343 119.293 170.45 119.807 170.45 120.466C170.45 120.922 170.358 121.289 170.174 121.571C170 121.842 169.742 122.04 169.403 122.167C169.074 122.282 168.682 122.341 168.226 122.341H165.392C165.402 122.97 165.47 123.48 165.595 123.867C165.721 124.245 165.949 124.522 166.278 124.696C166.618 124.86 167.112 124.943 167.761 124.943H170.261V125.64C169.815 125.699 169.38 125.747 168.953 125.786C168.527 125.825 168.037 125.844 167.485 125.844ZM165.377 121.585H168.139C168.575 121.585 168.894 121.507 169.098 121.352C169.312 121.188 169.418 120.897 169.418 120.481C169.418 120.035 169.35 119.691 169.215 119.448C169.089 119.196 168.885 119.022 168.604 118.925C168.333 118.819 167.964 118.765 167.499 118.765C166.957 118.765 166.53 118.847 166.22 119.013C165.91 119.168 165.693 119.448 165.566 119.856C165.44 120.262 165.377 120.84 165.377 121.585ZM173.895 125.844C173.323 125.844 172.853 125.675 172.485 125.335C172.117 124.996 171.933 124.517 171.933 123.896V123.344C171.933 122.733 172.132 122.239 172.529 121.861C172.936 121.483 173.546 121.294 174.36 121.294H176.991V120.335C176.991 120.016 176.933 119.744 176.817 119.521C176.711 119.288 176.512 119.109 176.221 118.983C175.939 118.858 175.528 118.795 174.985 118.795H172.572V118.111C172.912 118.053 173.304 117.999 173.75 117.952C174.205 117.903 174.738 117.879 175.349 117.879C175.979 117.869 176.502 117.947 176.918 118.111C177.335 118.276 177.641 118.537 177.834 118.896C178.038 119.245 178.139 119.706 178.139 120.277V125.757H177.253L177.035 124.87C176.996 124.909 176.875 124.977 176.671 125.074C176.478 125.17 176.225 125.282 175.915 125.408C175.615 125.524 175.286 125.626 174.927 125.713C174.579 125.8 174.234 125.844 173.895 125.844ZM174.375 124.987C174.549 124.996 174.748 124.977 174.971 124.928C175.194 124.88 175.422 124.827 175.654 124.769C175.887 124.701 176.1 124.633 176.293 124.565C176.497 124.497 176.662 124.439 176.788 124.391C176.913 124.342 176.981 124.318 176.991 124.318V121.876L174.622 121.977C174.07 121.997 173.672 122.132 173.43 122.385C173.198 122.637 173.081 122.961 173.081 123.358V123.707C173.081 124.017 173.144 124.269 173.271 124.463C173.405 124.647 173.571 124.778 173.764 124.856C173.968 124.933 174.171 124.977 174.375 124.987ZM180.305 125.757V117.995H181.205L181.453 118.853C181.84 118.581 182.271 118.349 182.746 118.154C183.231 117.961 183.768 117.865 184.36 117.865C184.844 117.865 185.255 117.975 185.595 118.198C185.943 118.412 186.206 118.683 186.38 119.013C186.622 118.838 186.913 118.664 187.252 118.489C187.601 118.315 187.969 118.17 188.357 118.053C188.754 117.927 189.137 117.865 189.505 117.865C190.067 117.865 190.527 117.985 190.886 118.227C191.245 118.46 191.506 118.78 191.671 119.187C191.845 119.584 191.933 120.03 191.933 120.524V125.757H190.784V120.612C190.784 120.282 190.717 119.991 190.581 119.739C190.454 119.478 190.271 119.274 190.029 119.129C189.785 118.983 189.491 118.91 189.141 118.91C188.705 118.91 188.26 118.993 187.805 119.158C187.349 119.323 186.927 119.521 186.54 119.753C186.588 119.899 186.622 120.044 186.641 120.19C186.671 120.326 186.685 120.471 186.685 120.626V125.757H185.537V120.612C185.537 120.282 185.469 119.991 185.333 119.739C185.208 119.478 185.023 119.274 184.781 119.129C184.548 118.983 184.257 118.91 183.909 118.91C183.589 118.91 183.289 118.945 183.008 119.013C182.736 119.07 182.475 119.158 182.223 119.274C181.98 119.38 181.724 119.511 181.453 119.666V125.757H180.305ZM200.679 125.844C200.485 125.844 200.248 125.839 199.967 125.83C199.686 125.82 199.39 125.805 199.08 125.786C198.78 125.767 198.503 125.747 198.252 125.727C198.01 125.699 197.821 125.67 197.685 125.64V124.943H200.868C201.188 124.943 201.464 124.919 201.697 124.87C201.929 124.822 202.109 124.715 202.234 124.55C202.37 124.386 202.438 124.139 202.438 123.809V123.46C202.438 123.121 202.326 122.86 202.104 122.676C201.881 122.482 201.522 122.385 201.028 122.385H199.938C199.482 122.385 199.076 122.327 198.717 122.21C198.368 122.094 198.097 121.895 197.903 121.615C197.709 121.333 197.613 120.946 197.613 120.451V120.044C197.613 119.56 197.704 119.163 197.888 118.853C198.082 118.543 198.378 118.309 198.775 118.154C199.182 117.999 199.705 117.922 200.345 117.922C200.616 117.922 200.926 117.932 201.276 117.952C201.633 117.971 201.983 117.999 202.321 118.039C202.661 118.067 202.937 118.102 203.15 118.14V118.838H200.156C199.662 118.838 199.279 118.92 199.008 119.086C198.746 119.25 198.615 119.57 198.615 120.044V120.364C198.615 120.664 198.678 120.892 198.804 121.047C198.93 121.193 199.104 121.289 199.327 121.338C199.56 121.387 199.827 121.411 200.127 121.411H201.231C201.939 121.411 202.487 121.575 202.875 121.904C203.262 122.235 203.455 122.709 203.455 123.329V123.867C203.455 124.391 203.335 124.797 203.092 125.088C202.859 125.369 202.535 125.568 202.119 125.684C201.711 125.79 201.231 125.844 200.679 125.844ZM205.447 116.614C205.292 116.614 205.214 116.536 205.214 116.381V115.247C205.214 115.092 205.292 115.015 205.447 115.015H206.261C206.338 115.015 206.392 115.04 206.421 115.088C206.459 115.127 206.479 115.18 206.479 115.247V116.381C206.479 116.536 206.406 116.614 206.261 116.614H205.447ZM205.272 125.757V117.995H206.421V125.757H205.272ZM208.273 125.757V124.884L212.75 118.94H208.157V117.995H214.087V118.867L209.595 124.812H214.087V125.757H208.273ZM218.785 125.844C217.97 125.844 217.326 125.723 216.851 125.48C216.386 125.238 216.052 124.827 215.848 124.245C215.645 123.663 215.543 122.869 215.543 121.861C215.543 120.834 215.645 120.035 215.848 119.463C216.061 118.882 216.405 118.475 216.88 118.242C217.355 118.01 217.994 117.893 218.799 117.893C219.487 117.893 220.044 117.971 220.471 118.126C220.906 118.281 221.227 118.548 221.429 118.925C221.643 119.293 221.749 119.807 221.749 120.466C221.749 120.922 221.657 121.289 221.474 121.571C221.298 121.842 221.042 122.04 220.703 122.167C220.373 122.282 219.981 122.341 219.525 122.341H216.691C216.7 122.97 216.768 123.48 216.895 123.867C217.021 124.245 217.249 124.522 217.578 124.696C217.917 124.86 218.411 124.943 219.06 124.943H221.561V125.64C221.115 125.699 220.678 125.747 220.253 125.786C219.826 125.825 219.337 125.844 218.785 125.844ZM216.677 121.585H219.438C219.875 121.585 220.194 121.507 220.398 121.352C220.61 121.188 220.718 120.897 220.718 120.481C220.718 120.035 220.65 119.691 220.514 119.448C220.388 119.196 220.185 119.022 219.903 118.925C219.632 118.819 219.264 118.765 218.799 118.765C218.256 118.765 217.83 118.847 217.52 119.013C217.21 119.168 216.991 119.448 216.865 119.856C216.74 120.262 216.677 120.84 216.677 121.585ZM226.358 125.844C226.164 125.844 225.926 125.839 225.645 125.83C225.365 125.82 225.069 125.805 224.759 125.786C224.458 125.767 224.182 125.747 223.93 125.727C223.688 125.699 223.499 125.67 223.363 125.64V124.943H226.546C226.866 124.943 227.142 124.919 227.375 124.87C227.607 124.822 227.786 124.715 227.913 124.55C228.049 124.386 228.117 124.139 228.117 123.809V123.46C228.117 123.121 228.005 122.86 227.782 122.676C227.559 122.482 227.201 122.385 226.706 122.385H225.616C225.161 122.385 224.754 122.327 224.395 122.21C224.046 122.094 223.775 121.895 223.581 121.615C223.388 121.333 223.29 120.946 223.29 120.451V120.044C223.29 119.56 223.383 119.163 223.566 118.853C223.761 118.543 224.055 118.309 224.454 118.154C224.86 117.999 225.384 117.922 226.023 117.922C226.295 117.922 226.605 117.932 226.953 117.952C227.312 117.971 227.661 117.999 228 118.039C228.339 118.067 228.615 118.102 228.828 118.14V118.838H225.834C225.34 118.838 224.957 118.92 224.686 119.086C224.424 119.25 224.294 119.57 224.294 120.044V120.364C224.294 120.664 224.356 120.892 224.482 121.047C224.609 121.193 224.783 121.289 225.006 121.338C225.238 121.387 225.504 121.411 225.805 121.411H226.91C227.617 121.411 228.164 121.575 228.552 121.904C228.939 122.235 229.134 122.709 229.134 123.329V123.867C229.134 124.391 229.012 124.797 228.77 125.088C228.538 125.369 228.213 125.568 227.796 125.684C227.389 125.79 226.91 125.844 226.358 125.844ZM230.98 125.771C230.825 125.771 230.747 125.694 230.747 125.539V124.376C230.747 124.221 230.825 124.144 230.98 124.144H231.619C231.774 124.144 231.851 124.221 231.851 124.376V125.539C231.851 125.616 231.827 125.675 231.779 125.713C231.74 125.752 231.687 125.771 231.619 125.771H230.98Z" fill="white"/>
<circle cx="313.137" cy="60.502" r="47.5" fill="white" fill-opacity="0.2"/>
</g>
<defs>
<linearGradient id="paint0_linear_1499_9384" x1="158.778" y1="0.00195312" x2="158.778" y2="176.637" gradientUnits="userSpaceOnUse">
<stop stop-color="#7030A0"/>
<stop offset="1" stop-color="#B53784"/>
</linearGradient>
<clipPath id="clip0_1499_9384">
<rect x="0.149902" y="0.00195312" width="317.256" height="176.635" rx="16" fill="white"/>
</clipPath>
</defs>
</svg>
