<svg width="314" height="175" viewBox="0 0 314 175" fill="none" xmlns="http://www.w3.org/2000/svg">
<rect x="0.387238" y="0.216431" width="313.109" height="174.326" rx="16.9248" fill="#303030"/>
<mask id="mask0_83_449" style="mask-type:alpha" maskUnits="userSpaceOnUse" x="0" y="0" width="314" height="175">
<rect x="0.387238" y="0.216431" width="313.109" height="174.326" rx="16.9248" fill="url(#paint0_linear_83_449)"/>
</mask>
<g mask="url(#mask0_83_449)">
<path d="M52.8542 166.926C52.8542 195.903 29.3639 219.393 0.387234 219.393C-28.5895 219.393 -52.0797 195.903 -52.0797 166.926C-52.0797 137.949 -28.5895 114.459 0.387234 114.459C29.3639 114.459 52.8542 137.949 52.8542 166.926Z" fill="#7030A0"/>
<ellipse cx="60.6938" cy="61.938" rx="60.6938" ry="61.938" transform="matrix(0.861361 -0.507994 0.492048 0.870568 269.492 38.1848)" fill="#7030A0"/>
<circle cx="-21.615" cy="115.305" r="52.467" fill="#545454"/>
<ellipse cx="60.6938" cy="61.938" rx="60.6938" ry="61.938" transform="matrix(0.861361 -0.507994 0.492048 0.870568 216.179 -20.2058)" fill="#545454"/>
</g>
<path d="M142.139 60.5231L135.894 48.4895C135.183 48.4895 134.404 48.4895 133.558 48.4895C132.712 48.4557 131.866 48.4387 131.019 48.4387C130.173 48.4049 129.361 48.388 128.582 48.388V42.0919H137.214C137.789 42.0919 138.348 42.0073 138.89 41.8381C139.431 41.635 139.905 41.2965 140.311 40.8226C140.751 40.3487 141.09 39.7055 141.327 38.8931C141.597 38.0469 141.733 36.9806 141.733 35.6943C141.733 34.1373 141.547 32.9356 141.174 32.0894C140.802 31.2093 140.311 30.6 139.702 30.2615C139.093 29.8891 138.365 29.703 137.519 29.703H128.582V22.95H138.534C139.753 22.95 140.988 23.1361 142.241 23.5085C143.527 23.8808 144.695 24.5409 145.744 25.4887C146.793 26.4365 147.64 27.7397 148.283 29.3983C148.926 31.0231 149.248 33.1218 149.248 35.6943C149.248 37.793 149.078 39.5532 148.74 40.9749C148.435 42.3627 148.012 43.4967 147.47 44.3768C146.929 45.2569 146.303 45.9508 145.592 46.4585C144.881 46.9324 144.17 47.3217 143.459 47.6264L150.314 60.5231H142.139ZM128.582 37.7253V33.9172H155.34V37.7253H128.582ZM137.214 26.758V22.95H155.34V26.758H137.214ZM171.049 60.7769C169.39 60.7769 167.715 60.7092 166.022 60.5738C164.363 60.4384 162.857 60.2353 161.503 59.9646V54.0239H170.338C172.877 54.0239 174.738 53.2454 175.923 51.6883C177.108 50.0974 177.7 47.7618 177.7 44.6814C176.956 44.9184 176.126 45.1046 175.212 45.24C174.332 45.3754 173.401 45.46 172.42 45.4938C171.438 45.5277 170.372 45.5446 169.221 45.5446C166.75 45.5446 164.787 45.2061 163.331 44.5291C161.876 43.8183 160.826 42.8197 160.183 41.5334C159.574 40.2471 159.269 38.707 159.269 36.9129V31.5308C159.269 29.4322 159.658 27.7397 160.437 26.4534C161.215 25.1333 162.299 24.1855 163.687 23.61C165.108 23.0007 166.733 22.6961 168.561 22.6961H173.994C175.822 22.6961 177.429 22.9838 178.817 23.5592C180.239 24.1008 181.424 25.0486 182.372 26.4026C183.319 27.7566 184.03 29.6522 184.504 32.0894C185.012 34.4927 185.266 37.5392 185.266 41.2288C185.266 44.8845 184.944 47.9818 184.301 50.5205C183.658 53.0254 182.727 55.0394 181.508 56.5627C180.29 58.052 178.8 59.1352 177.04 59.8122C175.28 60.4554 173.283 60.7769 171.049 60.7769ZM171.353 39.147H177.7C177.7 37.2176 177.599 35.6267 177.396 34.3742C177.193 33.1218 176.871 32.1401 176.431 31.4293C176.025 30.6846 175.5 30.1769 174.857 29.9061C174.214 29.6014 173.435 29.4491 172.521 29.4491H170.236C169.526 29.4491 168.899 29.5676 168.358 29.8045C167.85 30.0415 167.461 30.4138 167.19 30.9215C166.919 31.4293 166.784 32.1401 166.784 33.0541V35.4913C166.784 36.4729 166.936 37.2345 167.241 37.7761C167.579 38.2838 168.087 38.6393 168.764 38.8424C169.441 39.0455 170.304 39.147 171.353 39.147Z" fill="white"/>
<path d="M93.2889 87.6239V76.5178H94.4685L94.7275 77.2946C94.9097 77.1604 95.1255 77.0261 95.3748 76.8918C95.6338 76.7576 95.9119 76.6473 96.2092 76.5609C96.5161 76.465 96.823 76.4171 97.1299 76.4171C97.6191 76.4171 98.0363 76.5178 98.3815 76.7192C98.7364 76.9206 99.0241 77.2035 99.2447 77.568C99.4653 77.9228 99.6235 78.34 99.7194 78.8196C99.8249 79.2991 99.8777 79.8122 99.8777 80.3589C99.8777 81.2125 99.7818 81.9366 99.59 82.5312C99.4077 83.1162 99.1152 83.5622 98.7124 83.8691C98.3192 84.1664 97.7917 84.3151 97.1299 84.3151C96.7271 84.3151 96.3147 84.2575 95.8927 84.1424C95.4707 84.0177 95.0823 83.8547 94.7275 83.6533V87.6239H93.2889ZM96.6984 83.1066C97.0244 83.1066 97.317 83.0251 97.5759 82.8621C97.8349 82.699 98.0411 82.4209 98.1945 82.0277C98.3576 81.6249 98.4391 81.0686 98.4391 80.3589C98.4391 79.6875 98.3576 79.1504 98.1945 78.7476C98.0315 78.3352 97.8205 78.0427 97.5615 77.8701C97.3026 77.6879 97.0197 77.5967 96.7127 77.5967C96.3099 77.5967 95.9407 77.6591 95.605 77.7838C95.2789 77.9084 94.9864 78.0379 94.7275 78.1722V82.56C95.0248 82.723 95.3413 82.8573 95.677 82.9628C96.0222 83.0587 96.3627 83.1066 96.6984 83.1066ZM104.669 84.3007C103.854 84.3007 103.202 84.1808 102.713 83.941C102.233 83.7013 101.888 83.2984 101.677 82.7326C101.476 82.1571 101.375 81.3659 101.375 80.3589C101.375 79.3327 101.476 78.5366 101.677 77.9708C101.888 77.3953 102.233 76.9925 102.713 76.7624C103.192 76.5322 103.84 76.4171 104.655 76.4171C105.365 76.4171 105.935 76.4938 106.367 76.6473C106.808 76.7911 107.129 77.0549 107.331 77.4385C107.542 77.8125 107.647 78.3352 107.647 79.0066C107.647 79.4765 107.551 79.8506 107.36 80.1287C107.177 80.4068 106.914 80.6082 106.568 80.7329C106.233 80.8576 105.83 80.9199 105.36 80.9199H102.814C102.823 81.4762 102.886 81.9222 103.001 82.2578C103.125 82.5839 103.341 82.8237 103.648 82.9772C103.964 83.121 104.425 83.1929 105.029 83.1929H107.432V84.0561C107.019 84.1137 106.597 84.1664 106.166 84.2144C105.734 84.2719 105.235 84.3007 104.669 84.3007ZM102.799 80.0136H105.23C105.614 80.0136 105.897 79.9417 106.079 79.7978C106.261 79.654 106.353 79.3902 106.353 79.0066C106.353 78.623 106.295 78.3208 106.18 78.1003C106.074 77.8797 105.897 77.7214 105.648 77.6255C105.398 77.5296 105.067 77.4817 104.655 77.4817C104.185 77.4817 103.811 77.5536 103.533 77.6975C103.264 77.8413 103.073 78.0955 102.957 78.4599C102.852 78.8244 102.799 79.3423 102.799 80.0136ZM109.403 84.2144V76.5178H110.511L110.842 77.8125C111.168 77.4193 111.532 77.0884 111.935 76.8199C112.338 76.5514 112.808 76.4171 113.345 76.4171C113.469 76.4171 113.589 76.4267 113.704 76.4459C113.82 76.4555 113.93 76.4746 114.035 76.5034V77.9852C113.901 77.966 113.762 77.9516 113.618 77.942C113.474 77.9228 113.326 77.9132 113.172 77.9132C112.846 77.9132 112.554 77.9516 112.295 78.0283C112.036 78.1051 111.786 78.2249 111.547 78.388C111.316 78.5414 111.081 78.7333 110.842 78.9634V84.2144H109.403ZM121.468 84.3007C120.748 84.3007 120.187 84.1089 119.785 83.7252C119.391 83.332 119.195 82.7374 119.195 81.9414V76.5178H120.633V81.5529C120.633 82.1284 120.763 82.5168 121.022 82.7182C121.29 82.9196 121.664 83.0203 122.144 83.0203C122.528 83.0203 122.892 82.9628 123.237 82.8477C123.592 82.723 123.937 82.5552 124.273 82.3442V76.5178H125.712V84.2144H124.561L124.273 83.3943C123.899 83.6341 123.467 83.8451 122.978 84.0273C122.499 84.2096 121.995 84.3007 121.468 84.3007ZM130.385 84.3007C130.183 84.3007 129.944 84.2959 129.666 84.2863C129.387 84.2767 129.1 84.2575 128.802 84.2287C128.515 84.2096 128.246 84.1856 127.997 84.1568C127.757 84.128 127.565 84.0945 127.421 84.0561V83.1929H130.658C130.936 83.1929 131.176 83.1738 131.378 83.1354C131.579 83.0874 131.732 82.9915 131.838 82.8477C131.953 82.7038 132.011 82.4928 132.011 82.2147V81.8982C132.011 81.6105 131.915 81.3851 131.723 81.222C131.531 81.059 131.214 80.9775 130.773 80.9775H129.651C129.2 80.9775 128.798 80.9199 128.443 80.8048C128.097 80.6802 127.824 80.474 127.623 80.1862C127.431 79.8985 127.335 79.5101 127.335 79.021V78.6038C127.335 78.1146 127.426 77.7118 127.608 77.3953C127.8 77.0788 128.102 76.8439 128.515 76.6904C128.927 76.5274 129.474 76.4459 130.155 76.4459C130.442 76.4459 130.759 76.4602 131.104 76.489C131.459 76.5082 131.804 76.537 132.14 76.5753C132.476 76.6137 132.744 76.6569 132.946 76.7048V77.568H129.896C129.474 77.568 129.148 77.6399 128.918 77.7838C128.697 77.9276 128.587 78.201 128.587 78.6038V78.8915C128.587 79.1409 128.639 79.3327 128.745 79.4669C128.85 79.6012 128.999 79.6875 129.191 79.7259C129.392 79.7643 129.627 79.7834 129.896 79.7834H131.047C131.776 79.7834 132.327 79.9561 132.701 80.3013C133.075 80.637 133.262 81.1118 133.262 81.7256V82.3154C133.262 82.8333 133.142 83.2361 132.902 83.5238C132.663 83.8115 132.327 84.013 131.895 84.128C131.473 84.2431 130.97 84.3007 130.385 84.3007ZM137.937 84.3007C137.122 84.3007 136.47 84.1808 135.981 83.941C135.501 83.7013 135.156 83.2984 134.945 82.7326C134.744 82.1571 134.643 81.3659 134.643 80.3589C134.643 79.3327 134.744 78.5366 134.945 77.9708C135.156 77.3953 135.501 76.9925 135.981 76.7624C136.46 76.5322 137.108 76.4171 137.923 76.4171C138.633 76.4171 139.203 76.4938 139.635 76.6473C140.076 76.7911 140.397 77.0549 140.599 77.4385C140.81 77.8125 140.915 78.3352 140.915 79.0066C140.915 79.4765 140.819 79.8506 140.627 80.1287C140.445 80.4068 140.181 80.6082 139.836 80.7329C139.501 80.8576 139.098 80.9199 138.628 80.9199H136.081C136.091 81.4762 136.153 81.9222 136.268 82.2578C136.393 82.5839 136.609 82.8237 136.916 82.9772C137.232 83.121 137.693 83.1929 138.297 83.1929H140.699V84.0561C140.287 84.1137 139.865 84.1664 139.433 84.2144C139.002 84.2719 138.503 84.3007 137.937 84.3007ZM136.067 80.0136H138.498C138.882 80.0136 139.165 79.9417 139.347 79.7978C139.529 79.654 139.62 79.3902 139.62 79.0066C139.62 78.623 139.563 78.3208 139.448 78.1003C139.342 77.8797 139.165 77.7214 138.916 77.6255C138.666 77.5296 138.335 77.4817 137.923 77.4817C137.453 77.4817 137.079 77.5536 136.801 77.6975C136.532 77.8413 136.34 78.0955 136.225 78.4599C136.12 78.8244 136.067 79.3423 136.067 80.0136ZM142.671 84.2144V76.5178H143.779L144.109 77.8125C144.436 77.4193 144.8 77.0884 145.203 76.8199C145.606 76.5514 146.076 76.4171 146.613 76.4171C146.737 76.4171 146.857 76.4267 146.972 76.4459C147.087 76.4555 147.198 76.4746 147.303 76.5034V77.9852C147.169 77.966 147.03 77.9516 146.886 77.942C146.742 77.9228 146.593 77.9132 146.44 77.9132C146.114 77.9132 145.821 77.9516 145.562 78.0283C145.303 78.1051 145.054 78.2249 144.814 78.388C144.584 78.5414 144.349 78.7333 144.109 78.9634V84.2144H142.671ZM152.477 87.6239V76.5178H153.657L153.916 77.2946C154.098 77.1604 154.314 77.0261 154.563 76.8918C154.822 76.7576 155.1 76.6473 155.397 76.5609C155.704 76.465 156.011 76.4171 156.318 76.4171C156.807 76.4171 157.224 76.5178 157.57 76.7192C157.925 76.9206 158.212 77.2035 158.433 77.568C158.653 77.9228 158.812 78.34 158.908 78.8196C159.013 79.2991 159.066 79.8122 159.066 80.3589C159.066 81.2125 158.97 81.9366 158.778 82.5312C158.596 83.1162 158.303 83.5622 157.901 83.8691C157.507 84.1664 156.98 84.3151 156.318 84.3151C155.915 84.3151 155.503 84.2575 155.081 84.1424C154.659 84.0177 154.27 83.8547 153.916 83.6533V87.6239H152.477ZM155.887 83.1066C156.213 83.1066 156.505 83.0251 156.764 82.8621C157.023 82.699 157.229 82.4209 157.383 82.0277C157.546 81.6249 157.627 81.0686 157.627 80.3589C157.627 79.6875 157.546 79.1504 157.383 78.7476C157.22 78.3352 157.009 78.0427 156.75 77.8701C156.491 77.6879 156.208 77.5967 155.901 77.5967C155.498 77.5967 155.129 77.6591 154.793 77.7838C154.467 77.9084 154.175 78.0379 153.916 78.1722V82.56C154.213 82.723 154.529 82.8573 154.865 82.9628C155.21 83.0587 155.551 83.1066 155.887 83.1066ZM163.858 84.3007C163.042 84.3007 162.39 84.1808 161.901 83.941C161.421 83.7013 161.076 83.2984 160.865 82.7326C160.664 82.1571 160.563 81.3659 160.563 80.3589C160.563 79.3327 160.664 78.5366 160.865 77.9708C161.076 77.3953 161.421 76.9925 161.901 76.7624C162.381 76.5322 163.028 76.4171 163.843 76.4171C164.553 76.4171 165.123 76.4938 165.555 76.6473C165.996 76.7911 166.318 77.0549 166.519 77.4385C166.73 77.8125 166.835 78.3352 166.835 79.0066C166.835 79.4765 166.74 79.8506 166.548 80.1287C166.365 80.4068 166.102 80.6082 165.756 80.7329C165.421 80.8576 165.018 80.9199 164.548 80.9199H162.002C162.011 81.4762 162.074 81.9222 162.189 82.2578C162.313 82.5839 162.529 82.8237 162.836 82.9772C163.153 83.121 163.613 83.1929 164.217 83.1929H166.62V84.0561C166.207 84.1137 165.785 84.1664 165.354 84.2144C164.922 84.2719 164.423 84.3007 163.858 84.3007ZM161.987 80.0136H164.419C164.802 80.0136 165.085 79.9417 165.267 79.7978C165.45 79.654 165.541 79.3902 165.541 79.0066C165.541 78.623 165.483 78.3208 165.368 78.1003C165.263 77.8797 165.085 77.7214 164.836 77.6255C164.586 77.5296 164.256 77.4817 163.843 77.4817C163.373 77.4817 162.999 77.5536 162.721 77.6975C162.452 77.8413 162.261 78.0955 162.146 78.4599C162.04 78.8244 161.987 79.3423 161.987 80.0136ZM168.591 84.2144V76.5178H169.699L170.03 77.8125C170.356 77.4193 170.72 77.0884 171.123 76.8199C171.526 76.5514 171.996 76.4171 172.533 76.4171C172.658 76.4171 172.777 76.4267 172.893 76.4459C173.008 76.4555 173.118 76.4746 173.223 76.5034V77.9852C173.089 77.966 172.95 77.9516 172.806 77.942C172.662 77.9228 172.514 77.9132 172.36 77.9132C172.034 77.9132 171.742 77.9516 171.483 78.0283C171.224 78.1051 170.974 78.2249 170.735 78.388C170.504 78.5414 170.269 78.7333 170.03 78.9634V84.2144H168.591ZM178.397 84.2144V76.5178H179.548L179.836 77.3522C180.21 77.0932 180.622 76.8679 181.073 76.676C181.524 76.4842 182.042 76.3883 182.627 76.3883C183.106 76.3883 183.514 76.4938 183.85 76.7048C184.185 76.9158 184.439 77.1843 184.612 77.5104C184.842 77.3378 185.12 77.1652 185.446 76.9925C185.773 76.8199 186.123 76.676 186.497 76.5609C186.871 76.4459 187.23 76.3883 187.576 76.3883C188.151 76.3883 188.616 76.5082 188.971 76.748C189.335 76.9781 189.594 77.2994 189.748 77.7118C189.911 78.1146 189.992 78.575 189.992 79.0929V84.2144H188.554V79.208C188.554 78.9011 188.492 78.6373 188.367 78.4168C188.252 78.1866 188.084 78.0091 187.863 77.8845C187.652 77.7598 187.393 77.6975 187.086 77.6975C186.703 77.6975 186.31 77.7742 185.907 77.9276C185.504 78.0715 185.135 78.2489 184.799 78.4599C184.837 78.5846 184.866 78.7141 184.885 78.8483C184.905 78.973 184.914 79.0977 184.914 79.2224V84.2144H183.476V79.208C183.476 78.9011 183.413 78.6373 183.289 78.4168C183.173 78.1866 183.01 78.0091 182.799 77.8845C182.588 77.7598 182.329 77.6975 182.023 77.6975C181.735 77.6975 181.466 77.7262 181.217 77.7838C180.977 77.8413 180.747 77.9228 180.526 78.0283C180.306 78.1242 180.076 78.2441 179.836 78.388V84.2144H178.397ZM195.105 84.3007C194.52 84.3007 194.011 84.2383 193.58 84.1137C193.158 83.989 192.808 83.7828 192.53 83.4951C192.251 83.1977 192.045 82.7949 191.911 82.2866C191.777 81.7783 191.71 81.1357 191.71 80.3589C191.71 79.5533 191.777 78.8963 191.911 78.388C192.045 77.8701 192.251 77.4673 192.53 77.1796C192.808 76.8918 193.163 76.6952 193.594 76.5897C194.026 76.4746 194.529 76.4171 195.105 76.4171C195.68 76.4171 196.184 76.4746 196.615 76.5897C197.047 76.7048 197.402 76.9062 197.68 77.1939C197.958 77.4817 198.164 77.8845 198.298 78.4024C198.433 78.9107 198.5 79.5628 198.5 80.3589C198.5 81.1453 198.433 81.7975 198.298 82.3154C198.164 82.8237 197.958 83.2217 197.68 83.5094C197.411 83.7972 197.061 84.0034 196.63 84.128C196.198 84.2431 195.69 84.3007 195.105 84.3007ZM195.105 83.121C195.421 83.121 195.699 83.0922 195.939 83.0347C196.188 82.9772 196.395 82.8573 196.558 82.675C196.721 82.4832 196.845 82.2003 196.932 81.8263C197.018 81.4522 197.061 80.9583 197.061 80.3445C197.061 79.7307 197.018 79.2416 196.932 78.8771C196.845 78.5031 196.721 78.2249 196.558 78.0427C196.395 77.8605 196.188 77.7406 195.939 77.6831C195.699 77.6159 195.421 77.5824 195.105 77.5824C194.779 77.5824 194.491 77.6159 194.242 77.6831C194.002 77.7406 193.8 77.8605 193.637 78.0427C193.484 78.2249 193.364 78.5031 193.278 78.8771C193.201 79.2416 193.163 79.7307 193.163 80.3445C193.163 80.9583 193.201 81.4522 193.278 81.8263C193.364 82.2003 193.484 82.4832 193.637 82.675C193.8 82.8573 194.002 82.9772 194.242 83.0347C194.491 83.0922 194.779 83.121 195.105 83.121ZM200.257 84.2144V76.5178H201.408L201.696 77.3522C202.041 77.1028 202.449 76.8822 202.919 76.6904C203.398 76.489 203.892 76.3883 204.401 76.3883C204.976 76.3883 205.436 76.513 205.782 76.7624C206.137 77.0021 206.391 77.3234 206.544 77.7262C206.698 78.129 206.774 78.5654 206.774 79.0354V84.2144H205.336V79.208C205.336 78.9011 205.273 78.6373 205.149 78.4168C205.034 78.1866 204.871 78.0091 204.66 77.8845C204.449 77.7598 204.19 77.6975 203.883 77.6975C203.595 77.6975 203.326 77.7262 203.077 77.7838C202.837 77.8413 202.607 77.9228 202.387 78.0283C202.166 78.1242 201.936 78.2441 201.696 78.388V84.2144H200.257ZM211.404 84.2144C210.886 84.2144 210.455 84.1328 210.11 83.9698C209.774 83.7972 209.525 83.5238 209.362 83.1498C209.208 82.7757 209.136 82.277 209.146 81.6536L209.203 77.6975H207.98V76.7624L209.232 76.5178L209.448 74.3599H210.584V76.5178H212.67V77.6975H210.584V81.6392C210.584 81.9366 210.613 82.1763 210.671 82.3585C210.728 82.5408 210.81 82.6798 210.915 82.7757C211.021 82.8717 211.136 82.9436 211.261 82.9915C211.385 83.0299 211.505 83.0539 211.62 83.0635L212.57 83.1498V84.2144H211.404ZM214.124 84.2144V73.2378H215.562V77.3522C215.898 77.1028 216.306 76.8822 216.785 76.6904C217.265 76.489 217.759 76.3883 218.267 76.3883C218.823 76.3883 219.274 76.5034 219.619 76.7336C219.974 76.9638 220.233 77.2803 220.396 77.6831C220.559 78.0763 220.641 78.5223 220.641 79.021V84.2144H219.202V79.1936C219.202 78.8963 219.14 78.6373 219.015 78.4168C218.9 78.1866 218.732 78.0091 218.511 77.8845C218.3 77.7598 218.046 77.6975 217.749 77.6975C217.461 77.6975 217.193 77.7262 216.943 77.7838C216.704 77.8413 216.473 77.9228 216.253 78.0283C216.032 78.1338 215.802 78.2537 215.562 78.388V84.2144H214.124Z" fill="#878787"/>
<path d="M55.7935 119.062V107.836H57.332V119.062H55.7935ZM59.5113 119.062V110.912H60.7298L61.0345 111.796C61.4001 111.532 61.8316 111.298 62.3292 111.095C62.837 110.882 63.36 110.775 63.8982 110.775C64.5075 110.775 64.9949 110.907 65.3605 111.171C65.7362 111.425 66.0053 111.765 66.1678 112.192C66.3303 112.618 66.4115 113.081 66.4115 113.578V119.062H64.8883V113.761C64.8883 113.436 64.8223 113.157 64.6903 112.923C64.5684 112.679 64.3958 112.492 64.1724 112.36C63.9489 112.228 63.6748 112.162 63.3498 112.162C63.0452 112.162 62.7608 112.192 62.4968 112.253C62.2429 112.314 61.9992 112.4 61.7656 112.512C61.5321 112.613 61.2884 112.74 61.0345 112.893V119.062H59.5113ZM71.3139 119.062C70.7656 119.062 70.3086 118.975 69.943 118.803C69.5876 118.62 69.3236 118.331 69.1509 117.935C68.9885 117.539 68.9123 117.01 68.9225 116.35L68.9834 112.162H67.6886V111.171L69.0139 110.912L69.2423 108.628H70.4457V110.912H72.6544V112.162H70.4457V116.335C70.4457 116.65 70.4762 116.904 70.5371 117.097C70.598 117.29 70.6843 117.437 70.796 117.539C70.9077 117.64 71.0296 117.716 71.1616 117.767C71.2936 117.808 71.4206 117.833 71.5424 117.843L72.5478 117.935V119.062H71.3139ZM76.5847 119.153C75.8231 119.153 75.229 118.95 74.8025 118.544C74.3862 118.128 74.178 117.498 74.178 116.655V110.912H75.7012V116.244C75.7012 116.853 75.8383 117.264 76.1125 117.478C76.3968 117.691 76.7929 117.797 77.3006 117.797C77.7068 117.797 78.0927 117.737 78.4583 117.615C78.834 117.483 79.1996 117.305 79.555 117.082V110.912H81.0782V119.062H79.8596L79.555 118.194C79.159 118.447 78.702 118.671 78.1841 118.864C77.6763 119.057 77.1432 119.153 76.5847 119.153ZM83.3912 109.542C83.2084 109.542 83.117 109.455 83.117 109.283V108.003C83.117 107.82 83.2084 107.729 83.3912 107.729H84.5184C84.5996 107.729 84.6605 107.754 84.7012 107.805C84.7418 107.856 84.7621 107.922 84.7621 108.003V109.283C84.7621 109.455 84.6808 109.542 84.5184 109.542H83.3912ZM83.1779 119.062V110.912H84.7012V119.062H83.1779ZM89.6552 119.062C89.1069 119.062 88.6499 118.975 88.2843 118.803C87.9289 118.62 87.6649 118.331 87.4922 117.935C87.3298 117.539 87.2536 117.01 87.2638 116.35L87.3247 112.162H86.0299V111.171L87.3551 110.912L87.5836 108.628H88.787V110.912H90.9957V112.162H88.787V116.335C88.787 116.65 88.8175 116.904 88.8784 117.097C88.9393 117.29 89.0256 117.437 89.1373 117.539C89.249 117.64 89.3709 117.716 89.5029 117.767C89.6349 117.808 89.7619 117.833 89.8837 117.843L90.8891 117.935V119.062H89.6552ZM92.7478 109.542C92.565 109.542 92.4736 109.455 92.4736 109.283V108.003C92.4736 107.82 92.565 107.729 92.7478 107.729H93.8749C93.9562 107.729 94.0171 107.754 94.0577 107.805C94.0984 107.856 94.1187 107.922 94.1187 108.003V109.283C94.1187 109.455 94.0374 109.542 93.8749 109.542H92.7478ZM92.5345 119.062V110.912H94.0577V119.062H92.5345ZM98.3416 119.062L95.3865 110.912H96.9554L99.2555 117.645L101.601 110.912H103.17L100.109 119.062H98.3416ZM107.411 119.153C106.548 119.153 105.857 119.026 105.339 118.772C104.831 118.518 104.466 118.092 104.242 117.493C104.029 116.884 103.923 116.046 103.923 114.979C103.923 113.893 104.029 113.05 104.242 112.451C104.466 111.842 104.831 111.415 105.339 111.171C105.847 110.928 106.532 110.806 107.396 110.806C108.147 110.806 108.751 110.887 109.208 111.05C109.675 111.202 110.016 111.481 110.229 111.887C110.452 112.283 110.564 112.837 110.564 113.548C110.564 114.045 110.462 114.441 110.259 114.736C110.066 115.03 109.787 115.244 109.421 115.376C109.066 115.508 108.64 115.574 108.142 115.574H105.446C105.456 116.163 105.522 116.635 105.644 116.99C105.776 117.335 106.004 117.589 106.329 117.752C106.664 117.904 107.152 117.98 107.792 117.98H110.335V118.894C109.899 118.955 109.452 119.011 108.995 119.062C108.538 119.123 108.01 119.153 107.411 119.153ZM105.431 114.614H108.005C108.411 114.614 108.711 114.538 108.904 114.385C109.097 114.233 109.193 113.954 109.193 113.548C109.193 113.141 109.132 112.822 109.01 112.588C108.898 112.354 108.711 112.187 108.447 112.085C108.183 111.984 107.832 111.933 107.396 111.933C106.898 111.933 106.502 112.009 106.207 112.162C105.923 112.314 105.72 112.583 105.598 112.969C105.486 113.355 105.431 113.903 105.431 114.614ZM112.804 120.311C112.672 120.311 112.555 120.296 112.453 120.265C112.362 120.245 112.316 120.235 112.316 120.235V119.762C112.438 119.762 112.524 119.742 112.575 119.702C112.636 119.661 112.667 119.59 112.667 119.488V118.97H112.529C112.458 118.97 112.397 118.945 112.347 118.894C112.296 118.843 112.27 118.772 112.27 118.681V117.523C112.27 117.32 112.357 117.219 112.529 117.219H113.382C113.484 117.219 113.55 117.249 113.58 117.31C113.621 117.361 113.641 117.432 113.641 117.523V119.443C113.641 119.686 113.596 119.869 113.504 119.991C113.423 120.123 113.316 120.209 113.184 120.25C113.052 120.291 112.925 120.311 112.804 120.311ZM121.236 119.062L118.86 110.912H120.429L122.211 117.645L124.13 110.912H125.425L127.344 117.645L129.05 110.912H130.619L128.273 119.062H126.583L124.755 113.015L122.896 119.062H121.236ZM134.962 119.153C134.343 119.153 133.805 119.087 133.348 118.955C132.901 118.823 132.53 118.605 132.236 118.3C131.941 117.985 131.723 117.559 131.581 117.021C131.439 116.482 131.368 115.802 131.368 114.979C131.368 114.126 131.439 113.431 131.581 112.893C131.723 112.344 131.941 111.918 132.236 111.613C132.53 111.309 132.906 111.1 133.363 110.989C133.82 110.867 134.353 110.806 134.962 110.806C135.572 110.806 136.105 110.867 136.562 110.989C137.019 111.11 137.395 111.324 137.689 111.628C137.983 111.933 138.202 112.36 138.344 112.908C138.486 113.446 138.557 114.137 138.557 114.979C138.557 115.812 138.486 116.503 138.344 117.051C138.202 117.589 137.983 118.011 137.689 118.315C137.405 118.62 137.034 118.838 136.577 118.97C136.12 119.092 135.582 119.153 134.962 119.153ZM134.962 117.904C135.298 117.904 135.592 117.874 135.846 117.813C136.11 117.752 136.328 117.625 136.501 117.432C136.674 117.229 136.806 116.929 136.897 116.533C136.988 116.137 137.034 115.614 137.034 114.964C137.034 114.314 136.988 113.796 136.897 113.411C136.806 113.015 136.674 112.72 136.501 112.527C136.328 112.334 136.11 112.207 135.846 112.146C135.592 112.075 135.298 112.04 134.962 112.04C134.617 112.04 134.312 112.075 134.048 112.146C133.795 112.207 133.581 112.334 133.409 112.527C133.246 112.72 133.119 113.015 133.028 113.411C132.947 113.796 132.906 114.314 132.906 114.964C132.906 115.614 132.947 116.137 133.028 116.533C133.119 116.929 133.246 117.229 133.409 117.432C133.581 117.625 133.795 117.752 134.048 117.813C134.312 117.874 134.617 117.904 134.962 117.904ZM140.418 119.062V110.912H141.591L141.941 112.283C142.287 111.867 142.673 111.517 143.099 111.232C143.526 110.948 144.023 110.806 144.592 110.806C144.724 110.806 144.851 110.816 144.973 110.836C145.095 110.846 145.211 110.867 145.323 110.897V112.466C145.181 112.446 145.034 112.431 144.881 112.42C144.729 112.4 144.572 112.39 144.409 112.39C144.064 112.39 143.754 112.431 143.48 112.512C143.206 112.593 142.942 112.72 142.688 112.893C142.444 113.055 142.195 113.258 141.941 113.502V119.062H140.418ZM149.025 119.077C148.527 119.077 148.106 118.991 147.76 118.818C147.425 118.645 147.171 118.371 146.999 117.996C146.836 117.61 146.755 117.092 146.755 116.442V107.439H148.278V116.244C148.278 116.67 148.319 117 148.4 117.234C148.492 117.457 148.613 117.615 148.766 117.706C148.928 117.797 149.116 117.858 149.329 117.889L150.091 117.98V119.077H149.025ZM153.972 119.153C153.312 119.153 152.764 119.011 152.327 118.727C151.901 118.442 151.581 118.001 151.368 117.401C151.154 116.792 151.048 116.01 151.048 115.056C151.048 114.05 151.144 113.238 151.337 112.618C151.54 111.989 151.865 111.532 152.312 111.248C152.759 110.953 153.363 110.806 154.125 110.806C154.551 110.806 154.973 110.852 155.389 110.943C155.815 111.034 156.186 111.136 156.501 111.248V107.439H158.024V119.062H156.775L156.501 118.254C156.338 118.397 156.115 118.539 155.831 118.681C155.546 118.813 155.242 118.925 154.917 119.016C154.592 119.107 154.277 119.153 153.972 119.153ZM154.46 117.904C154.876 117.904 155.252 117.838 155.587 117.706C155.932 117.574 156.237 117.437 156.501 117.295V112.344C156.186 112.253 155.876 112.172 155.572 112.101C155.277 112.019 154.947 111.979 154.582 111.979C154.104 111.979 153.718 112.065 153.424 112.238C153.129 112.41 152.916 112.715 152.784 113.152C152.652 113.588 152.586 114.198 152.586 114.979C152.586 115.7 152.647 116.279 152.769 116.716C152.891 117.142 153.089 117.447 153.363 117.63C153.647 117.813 154.013 117.904 154.46 117.904ZM159.412 115.269V114.02H163.936V115.269H159.412ZM168.395 119.153C167.918 119.153 167.476 119.092 167.07 118.97C166.674 118.838 166.324 118.62 166.019 118.315C165.725 118.011 165.496 117.589 165.334 117.051C165.171 116.513 165.09 115.833 165.09 115.01C165.09 114.167 165.166 113.477 165.318 112.938C165.471 112.39 165.689 111.963 165.973 111.659C166.268 111.344 166.623 111.126 167.04 111.004C167.456 110.882 167.923 110.821 168.441 110.821C168.868 110.821 169.314 110.841 169.782 110.882C170.259 110.923 170.721 110.989 171.168 111.08V111.979H168.868C168.37 111.979 167.954 112.06 167.619 112.222C167.283 112.375 167.035 112.674 166.872 113.121C166.71 113.558 166.628 114.192 166.628 115.025C166.628 115.827 166.715 116.447 166.887 116.884C167.06 117.31 167.309 117.599 167.634 117.752C167.969 117.904 168.385 117.98 168.883 117.98H171.29V118.849C171.056 118.909 170.777 118.965 170.452 119.016C170.137 119.057 169.802 119.087 169.446 119.107C169.101 119.138 168.751 119.153 168.395 119.153ZM175.101 119.077C174.604 119.077 174.182 118.991 173.837 118.818C173.502 118.645 173.248 118.371 173.075 117.996C172.913 117.61 172.832 117.092 172.832 116.442V107.439H174.355V116.244C174.355 116.67 174.395 117 174.477 117.234C174.568 117.457 174.69 117.615 174.842 117.706C175.005 117.797 175.193 117.858 175.406 117.889L176.167 117.98V119.077H175.101ZM179.028 119.153C178.429 119.153 177.931 118.975 177.535 118.62C177.149 118.254 176.957 117.752 176.957 117.112V116.472C176.957 115.843 177.17 115.33 177.596 114.934C178.033 114.528 178.688 114.325 179.561 114.325H182.105V113.471C182.105 113.157 182.049 112.893 181.938 112.679C181.836 112.456 181.643 112.288 181.359 112.177C181.074 112.065 180.653 112.009 180.094 112.009H177.596V111.11C177.962 111.029 178.388 110.958 178.876 110.897C179.373 110.836 179.952 110.801 180.612 110.791C181.283 110.791 181.841 110.877 182.288 111.05C182.745 111.212 183.085 111.486 183.308 111.872C183.532 112.248 183.644 112.75 183.644 113.38V119.062H182.44L182.181 118.163C182.12 118.204 181.993 118.28 181.8 118.392C181.607 118.493 181.359 118.605 181.054 118.727C180.76 118.849 180.435 118.95 180.079 119.031C179.734 119.113 179.384 119.153 179.028 119.153ZM179.729 118.041C179.881 118.051 180.059 118.036 180.262 117.996C180.475 117.955 180.683 117.909 180.886 117.858C181.1 117.797 181.293 117.737 181.465 117.676C181.648 117.615 181.795 117.564 181.907 117.523C182.029 117.473 182.095 117.442 182.105 117.432V115.086L179.973 115.178C179.444 115.208 179.064 115.34 178.83 115.574C178.607 115.807 178.495 116.112 178.495 116.488V116.853C178.495 117.148 178.556 117.386 178.678 117.569C178.8 117.742 178.952 117.863 179.135 117.935C179.328 118.006 179.526 118.041 179.729 118.041ZM188.562 119.153C188.349 119.153 188.095 119.148 187.8 119.138C187.506 119.128 187.201 119.107 186.887 119.077C186.582 119.057 186.298 119.031 186.034 119.001C185.78 118.97 185.577 118.935 185.424 118.894V117.98H188.851C189.146 117.98 189.4 117.96 189.613 117.919C189.826 117.869 189.989 117.767 190.101 117.615C190.222 117.462 190.283 117.239 190.283 116.944V116.609C190.283 116.305 190.182 116.066 189.979 115.893C189.776 115.721 189.44 115.634 188.973 115.634H187.785C187.308 115.634 186.881 115.574 186.506 115.452C186.14 115.32 185.851 115.101 185.637 114.797C185.434 114.492 185.333 114.081 185.333 113.563V113.121C185.333 112.603 185.429 112.177 185.622 111.842C185.825 111.507 186.145 111.258 186.582 111.095C187.019 110.923 187.597 110.836 188.318 110.836C188.623 110.836 188.958 110.852 189.324 110.882C189.699 110.902 190.065 110.933 190.42 110.973C190.776 111.014 191.06 111.06 191.273 111.11V112.024H188.044C187.597 112.024 187.252 112.101 187.008 112.253C186.775 112.405 186.658 112.695 186.658 113.121V113.426C186.658 113.69 186.714 113.893 186.826 114.035C186.937 114.177 187.095 114.269 187.298 114.309C187.511 114.35 187.76 114.37 188.044 114.37H189.263C190.035 114.37 190.618 114.553 191.014 114.919C191.411 115.274 191.609 115.777 191.609 116.427V117.051C191.609 117.599 191.482 118.026 191.228 118.331C190.974 118.635 190.618 118.849 190.161 118.97C189.715 119.092 189.182 119.153 188.562 119.153ZM196.193 119.153C195.98 119.153 195.726 119.148 195.431 119.138C195.137 119.128 194.832 119.107 194.518 119.077C194.213 119.057 193.929 119.031 193.665 119.001C193.411 118.97 193.208 118.935 193.055 118.894V117.98H196.483C196.777 117.98 197.031 117.96 197.244 117.919C197.457 117.869 197.62 117.767 197.732 117.615C197.853 117.462 197.914 117.239 197.914 116.944V116.609C197.914 116.305 197.813 116.066 197.61 115.893C197.407 115.721 197.072 115.634 196.604 115.634H195.416C194.939 115.634 194.512 115.574 194.137 115.452C193.771 115.32 193.482 115.101 193.269 114.797C193.065 114.492 192.964 114.081 192.964 113.563V113.121C192.964 112.603 193.06 112.177 193.253 111.842C193.456 111.507 193.776 111.258 194.213 111.095C194.65 110.923 195.228 110.836 195.949 110.836C196.254 110.836 196.589 110.852 196.955 110.882C197.33 110.902 197.696 110.933 198.051 110.973C198.407 111.014 198.691 111.06 198.904 111.11V112.024H195.675C195.228 112.024 194.883 112.101 194.639 112.253C194.406 112.405 194.289 112.695 194.289 113.121V113.426C194.289 113.69 194.345 113.893 194.457 114.035C194.568 114.177 194.726 114.269 194.929 114.309C195.142 114.35 195.391 114.37 195.675 114.37H196.894C197.666 114.37 198.249 114.553 198.646 114.919C199.042 115.274 199.24 115.777 199.24 116.427V117.051C199.24 117.599 199.113 118.026 198.859 118.331C198.605 118.635 198.249 118.849 197.793 118.97C197.346 119.092 196.813 119.153 196.193 119.153ZM207.87 119.153C207.657 119.153 207.403 119.148 207.109 119.138C206.814 119.128 206.509 119.107 206.195 119.077C205.89 119.057 205.606 119.031 205.342 119.001C205.088 118.97 204.885 118.935 204.732 118.894V117.98H208.16C208.454 117.98 208.708 117.96 208.921 117.919C209.135 117.869 209.297 117.767 209.409 117.615C209.531 117.462 209.591 117.239 209.591 116.944V116.609C209.591 116.305 209.49 116.066 209.287 115.893C209.084 115.721 208.749 115.634 208.282 115.634H207.093C206.616 115.634 206.19 115.574 205.814 115.452C205.448 115.32 205.159 115.101 204.946 114.797C204.743 114.492 204.641 114.081 204.641 113.563V113.121C204.641 112.603 204.737 112.177 204.93 111.842C205.133 111.507 205.453 111.258 205.89 111.095C206.327 110.923 206.906 110.836 207.627 110.836C207.931 110.836 208.266 110.852 208.632 110.882C209.008 110.902 209.373 110.933 209.729 110.973C210.084 111.014 210.368 111.06 210.582 111.11V112.024H207.352C206.906 112.024 206.56 112.101 206.317 112.253C206.083 112.405 205.966 112.695 205.966 113.121V113.426C205.966 113.69 206.022 113.893 206.134 114.035C206.245 114.177 206.403 114.269 206.606 114.309C206.819 114.35 207.068 114.37 207.352 114.37H208.571C209.343 114.37 209.927 114.553 210.323 114.919C210.719 115.274 210.917 115.777 210.917 116.427V117.051C210.917 117.599 210.79 118.026 210.536 118.331C210.282 118.635 209.927 118.849 209.47 118.97C209.023 119.092 208.49 119.153 207.87 119.153ZM215.044 119.153C214.283 119.153 213.689 118.95 213.262 118.544C212.846 118.128 212.638 117.498 212.638 116.655V110.912H214.161V116.244C214.161 116.853 214.298 117.264 214.572 117.478C214.856 117.691 215.252 117.797 215.76 117.797C216.166 117.797 216.552 117.737 216.918 117.615C217.294 117.483 217.659 117.305 218.015 117.082V110.912H219.538V119.062H218.319L218.015 118.194C217.619 118.447 217.162 118.671 216.644 118.864C216.136 119.057 215.603 119.153 215.044 119.153ZM221.638 122.672V110.912H222.887L223.161 111.735C223.354 111.593 223.582 111.451 223.846 111.309C224.12 111.166 224.415 111.05 224.73 110.958C225.055 110.857 225.38 110.806 225.705 110.806C226.222 110.806 226.664 110.912 227.03 111.126C227.406 111.339 227.71 111.639 227.944 112.024C228.177 112.4 228.345 112.842 228.446 113.35C228.558 113.857 228.614 114.401 228.614 114.979C228.614 115.883 228.512 116.65 228.309 117.28C228.116 117.899 227.807 118.371 227.38 118.696C226.964 119.011 226.405 119.168 225.705 119.168C225.278 119.168 224.841 119.107 224.395 118.986C223.948 118.854 223.537 118.681 223.161 118.468V122.672H221.638ZM225.248 117.889C225.593 117.889 225.903 117.803 226.177 117.63C226.451 117.457 226.669 117.163 226.832 116.746C227.004 116.32 227.091 115.731 227.091 114.979C227.091 114.269 227.004 113.7 226.832 113.273C226.659 112.837 226.436 112.527 226.162 112.344C225.887 112.151 225.588 112.055 225.263 112.055C224.836 112.055 224.445 112.121 224.09 112.253C223.745 112.385 223.435 112.522 223.161 112.664V117.31C223.476 117.483 223.811 117.625 224.166 117.737C224.532 117.838 224.892 117.889 225.248 117.889ZM230.474 122.672V110.912H231.723L231.997 111.735C232.19 111.593 232.418 111.451 232.682 111.309C232.956 111.166 233.251 111.05 233.566 110.958C233.891 110.857 234.216 110.806 234.541 110.806C235.058 110.806 235.5 110.912 235.866 111.126C236.241 111.339 236.546 111.639 236.78 112.024C237.013 112.4 237.181 112.842 237.282 113.35C237.394 113.857 237.45 114.401 237.45 114.979C237.45 115.883 237.348 116.65 237.145 117.28C236.952 117.899 236.643 118.371 236.216 118.696C235.8 119.011 235.241 119.168 234.541 119.168C234.114 119.168 233.677 119.107 233.231 118.986C232.784 118.854 232.372 118.681 231.997 118.468V122.672H230.474ZM234.084 117.889C234.429 117.889 234.739 117.803 235.013 117.63C235.287 117.457 235.505 117.163 235.668 116.746C235.84 116.32 235.927 115.731 235.927 114.979C235.927 114.269 235.84 113.7 235.668 113.273C235.495 112.837 235.272 112.527 234.998 112.344C234.723 112.151 234.424 112.055 234.099 112.055C233.672 112.055 233.281 112.121 232.926 112.253C232.581 112.385 232.271 112.522 231.997 112.664V117.31C232.312 117.483 232.647 117.625 233.002 117.737C233.368 117.838 233.728 117.889 234.084 117.889ZM242.63 119.153C242.011 119.153 241.472 119.087 241.015 118.955C240.569 118.823 240.198 118.605 239.904 118.3C239.609 117.985 239.391 117.559 239.249 117.021C239.106 116.482 239.035 115.802 239.035 114.979C239.035 114.126 239.106 113.431 239.249 112.893C239.391 112.344 239.609 111.918 239.904 111.613C240.198 111.309 240.574 111.1 241.031 110.989C241.488 110.867 242.021 110.806 242.63 110.806C243.239 110.806 243.773 110.867 244.229 110.989C244.686 111.11 245.062 111.324 245.357 111.628C245.651 111.933 245.87 112.36 246.012 112.908C246.154 113.446 246.225 114.137 246.225 114.979C246.225 115.812 246.154 116.503 246.012 117.051C245.87 117.589 245.651 118.011 245.357 118.315C245.072 118.62 244.702 118.838 244.245 118.97C243.788 119.092 243.25 119.153 242.63 119.153ZM242.63 117.904C242.965 117.904 243.26 117.874 243.514 117.813C243.778 117.752 243.996 117.625 244.169 117.432C244.341 117.229 244.473 116.929 244.565 116.533C244.656 116.137 244.702 115.614 244.702 114.964C244.702 114.314 244.656 113.796 244.565 113.411C244.473 113.015 244.341 112.72 244.169 112.527C243.996 112.334 243.778 112.207 243.514 112.146C243.26 112.075 242.965 112.04 242.63 112.04C242.285 112.04 241.98 112.075 241.716 112.146C241.462 112.207 241.249 112.334 241.076 112.527C240.914 112.72 240.787 113.015 240.696 113.411C240.614 113.796 240.574 114.314 240.574 114.964C240.574 115.614 240.614 116.137 240.696 116.533C240.787 116.929 240.914 117.229 241.076 117.432C241.249 117.625 241.462 117.752 241.716 117.813C241.98 117.874 242.285 117.904 242.63 117.904ZM248.086 119.062V110.912H249.259L249.609 112.283C249.954 111.867 250.34 111.517 250.767 111.232C251.193 110.948 251.691 110.806 252.26 110.806C252.392 110.806 252.519 110.816 252.64 110.836C252.762 110.846 252.879 110.867 252.991 110.897V112.466C252.849 112.446 252.701 112.431 252.549 112.42C252.397 112.4 252.239 112.39 252.077 112.39C251.732 112.39 251.422 112.431 251.148 112.512C250.873 112.593 250.609 112.72 250.356 112.893C250.112 113.055 249.863 113.258 249.609 113.502V119.062H248.086ZM257.39 119.062C256.841 119.062 256.384 118.975 256.019 118.803C255.663 118.62 255.399 118.331 255.227 117.935C255.064 117.539 254.988 117.01 254.998 116.35L255.059 112.162H253.764V111.171L255.089 110.912L255.318 108.628H256.521V110.912H258.73V112.162H256.521V116.335C256.521 116.65 256.552 116.904 256.613 117.097C256.674 117.29 256.76 117.437 256.872 117.539C256.983 117.64 257.105 117.716 257.237 117.767C257.369 117.808 257.496 117.833 257.618 117.843L258.623 117.935V119.062H257.39ZM75.8286 141.062C75.2802 141.062 74.8233 140.975 74.4577 140.803C74.1023 140.62 73.8382 140.331 73.6656 139.935C73.5031 139.539 73.427 139.01 73.4371 138.35L73.4981 134.162H72.2033V133.171L73.5285 132.912L73.757 130.628H74.9604V132.912H77.169V134.162H74.9604V138.335C74.9604 138.65 74.9908 138.904 75.0518 139.097C75.1127 139.29 75.199 139.437 75.3107 139.539C75.4224 139.64 75.5443 139.716 75.6763 139.767C75.8083 139.808 75.9352 139.833 76.0571 139.843L77.0624 139.935V141.062H75.8286ZM82.0285 141.153C81.4091 141.153 80.8709 141.087 80.4139 140.955C79.9671 140.823 79.5964 140.605 79.3019 140.3C79.0074 139.985 78.7891 139.559 78.6469 139.021C78.5048 138.482 78.4337 137.802 78.4337 136.979C78.4337 136.126 78.5048 135.431 78.6469 134.893C78.7891 134.344 79.0074 133.918 79.3019 133.613C79.5964 133.309 79.9722 133.1 80.4291 132.989C80.8861 132.867 81.4192 132.806 82.0285 132.806C82.6378 132.806 83.171 132.867 83.6279 132.989C84.0849 133.11 84.4606 133.324 84.7551 133.628C85.0496 133.933 85.2679 134.36 85.4101 134.908C85.5523 135.446 85.6234 136.137 85.6234 136.979C85.6234 137.812 85.5523 138.503 85.4101 139.051C85.2679 139.589 85.0496 140.011 84.7551 140.315C84.4708 140.62 84.1001 140.838 83.6432 140.97C83.1862 141.092 82.648 141.153 82.0285 141.153ZM82.0285 139.904C82.3636 139.904 82.6581 139.874 82.912 139.813C83.176 139.752 83.3944 139.625 83.567 139.432C83.7396 139.229 83.8716 138.929 83.963 138.533C84.0544 138.137 84.1001 137.614 84.1001 136.964C84.1001 136.314 84.0544 135.796 83.963 135.411C83.8716 135.015 83.7396 134.72 83.567 134.527C83.3944 134.334 83.176 134.207 82.912 134.146C82.6581 134.075 82.3636 134.04 82.0285 134.04C81.6833 134.04 81.3786 134.075 81.1146 134.146C80.8607 134.207 80.6475 134.334 80.4748 134.527C80.3123 134.72 80.1854 135.015 80.094 135.411C80.0128 135.796 79.9722 136.314 79.9722 136.964C79.9722 137.614 80.0128 138.137 80.094 138.533C80.1854 138.929 80.3123 139.229 80.4748 139.432C80.6475 139.625 80.8607 139.752 81.1146 139.813C81.3786 139.874 81.6833 139.904 82.0285 139.904ZM90.805 141.153C90.1855 141.153 89.6473 141.087 89.1903 140.955C88.7435 140.823 88.3729 140.605 88.0784 140.3C87.7839 139.985 87.5656 139.559 87.4234 139.021C87.2812 138.482 87.2101 137.802 87.2101 136.979C87.2101 136.126 87.2812 135.431 87.4234 134.893C87.5656 134.344 87.7839 133.918 88.0784 133.613C88.3729 133.309 88.7486 133.1 89.2056 132.989C89.6625 132.867 90.1957 132.806 90.805 132.806C91.4143 132.806 91.9474 132.867 92.4044 132.989C92.8613 133.11 93.2371 133.324 93.5316 133.628C93.8261 133.933 94.0444 134.36 94.1866 134.908C94.3287 135.446 94.3998 136.137 94.3998 136.979C94.3998 137.812 94.3287 138.503 94.1866 139.051C94.0444 139.589 93.8261 140.011 93.5316 140.315C93.2472 140.62 92.8766 140.838 92.4196 140.97C91.9626 141.092 91.4244 141.153 90.805 141.153ZM90.805 139.904C91.1401 139.904 91.4346 139.874 91.6884 139.813C91.9525 139.752 92.1708 139.625 92.3434 139.432C92.5161 139.229 92.6481 138.929 92.7395 138.533C92.8309 138.137 92.8766 137.614 92.8766 136.964C92.8766 136.314 92.8309 135.796 92.7395 135.411C92.6481 135.015 92.5161 134.72 92.3434 134.527C92.1708 134.334 91.9525 134.207 91.6884 134.146C91.4346 134.075 91.1401 134.04 90.805 134.04C90.4597 134.04 90.1551 134.075 89.891 134.146C89.6372 134.207 89.4239 134.334 89.2513 134.527C89.0888 134.72 88.9619 135.015 88.8705 135.411C88.7892 135.796 88.7486 136.314 88.7486 136.964C88.7486 137.614 88.7892 138.137 88.8705 138.533C88.9619 138.929 89.0888 139.229 89.2513 139.432C89.4239 139.625 89.6372 139.752 89.891 139.813C90.1551 139.874 90.4597 139.904 90.805 139.904ZM98.5304 141.077C98.0328 141.077 97.6114 140.991 97.2661 140.818C96.931 140.645 96.6771 140.371 96.5045 139.996C96.342 139.61 96.2608 139.092 96.2608 138.442V129.439H97.784V138.244C97.784 138.67 97.8246 139 97.9059 139.234C97.9973 139.457 98.1191 139.615 98.2714 139.706C98.4339 139.797 98.6218 139.858 98.835 139.889L99.5967 139.98V141.077H98.5304ZM103.676 141.153C103.463 141.153 103.209 141.148 102.914 141.138C102.62 141.128 102.315 141.107 102 141.077C101.696 141.057 101.411 141.031 101.147 141.001C100.894 140.97 100.69 140.935 100.538 140.894V139.98H103.965C104.26 139.98 104.514 139.96 104.727 139.919C104.94 139.869 105.103 139.767 105.214 139.615C105.336 139.462 105.397 139.239 105.397 138.944V138.609C105.397 138.305 105.296 138.066 105.093 137.893C104.889 137.721 104.554 137.634 104.087 137.634H102.899C102.422 137.634 101.995 137.574 101.62 137.452C101.254 137.32 100.965 137.101 100.751 136.797C100.548 136.492 100.447 136.081 100.447 135.563V135.121C100.447 134.603 100.543 134.177 100.736 133.842C100.939 133.507 101.259 133.258 101.696 133.095C102.132 132.923 102.711 132.836 103.432 132.836C103.737 132.836 104.072 132.852 104.438 132.882C104.813 132.902 105.179 132.933 105.534 132.973C105.89 133.014 106.174 133.06 106.387 133.11V134.024H103.158C102.711 134.024 102.366 134.101 102.122 134.253C101.889 134.405 101.772 134.695 101.772 135.121V135.426C101.772 135.69 101.828 135.893 101.939 136.035C102.051 136.177 102.209 136.269 102.412 136.309C102.625 136.35 102.874 136.37 103.158 136.37H104.377C105.148 136.37 105.732 136.553 106.128 136.919C106.524 137.274 106.722 137.777 106.722 138.427V139.051C106.722 139.599 106.595 140.026 106.342 140.331C106.088 140.635 105.732 140.849 105.275 140.97C104.829 141.092 104.295 141.153 103.676 141.153ZM112.992 141.062V134.162H111.773V133.171L112.992 132.912V132.105C112.992 131.496 113.068 130.988 113.221 130.582C113.373 130.166 113.627 129.856 113.982 129.653C114.338 129.45 114.825 129.348 115.444 129.348C115.8 129.348 116.105 129.368 116.358 129.409C116.622 129.45 116.851 129.485 117.044 129.516V130.612H115.719C115.394 130.612 115.145 130.663 114.972 130.765C114.8 130.866 114.678 131.024 114.607 131.237C114.546 131.45 114.515 131.714 114.515 132.029V132.912H116.907V134.162H114.515V141.062H112.992ZM121.537 141.153C120.918 141.153 120.38 141.087 119.923 140.955C119.476 140.823 119.105 140.605 118.811 140.3C118.516 139.985 118.298 139.559 118.156 139.021C118.014 138.482 117.943 137.802 117.943 136.979C117.943 136.126 118.014 135.431 118.156 134.893C118.298 134.344 118.516 133.918 118.811 133.613C119.105 133.309 119.481 133.1 119.938 132.989C120.395 132.867 120.928 132.806 121.537 132.806C122.147 132.806 122.68 132.867 123.137 132.989C123.594 133.11 123.97 133.324 124.264 133.628C124.558 133.933 124.777 134.36 124.919 134.908C125.061 135.446 125.132 136.137 125.132 136.979C125.132 137.812 125.061 138.503 124.919 139.051C124.777 139.589 124.558 140.011 124.264 140.315C123.98 140.62 123.609 140.838 123.152 140.97C122.695 141.092 122.157 141.153 121.537 141.153ZM121.537 139.904C121.873 139.904 122.167 139.874 122.421 139.813C122.685 139.752 122.903 139.625 123.076 139.432C123.249 139.229 123.381 138.929 123.472 138.533C123.563 138.137 123.609 137.614 123.609 136.964C123.609 136.314 123.563 135.796 123.472 135.411C123.381 135.015 123.249 134.72 123.076 134.527C122.903 134.334 122.685 134.207 122.421 134.146C122.167 134.075 121.873 134.04 121.537 134.04C121.192 134.04 120.888 134.075 120.623 134.146C120.37 134.207 120.156 134.334 119.984 134.527C119.821 134.72 119.694 135.015 119.603 135.411C119.522 135.796 119.481 136.314 119.481 136.964C119.481 137.614 119.522 138.137 119.603 138.533C119.694 138.929 119.821 139.229 119.984 139.432C120.156 139.625 120.37 139.752 120.623 139.813C120.888 139.874 121.192 139.904 121.537 139.904ZM126.993 141.062V132.912H128.166L128.516 134.283C128.862 133.867 129.248 133.517 129.674 133.232C130.101 132.948 130.598 132.806 131.167 132.806C131.299 132.806 131.426 132.816 131.548 132.836C131.67 132.846 131.786 132.867 131.898 132.897V134.466C131.756 134.446 131.609 134.431 131.456 134.42C131.304 134.4 131.147 134.39 130.984 134.39C130.639 134.39 130.329 134.431 130.055 134.512C129.781 134.593 129.517 134.72 129.263 134.893C129.019 135.055 128.77 135.258 128.516 135.502V141.062H126.993ZM139.402 144.809C138.884 144.809 138.422 144.733 138.016 144.58C137.62 144.438 137.305 144.215 137.072 143.91C136.838 143.616 136.721 143.25 136.721 142.813V142.478C136.721 142.021 136.848 141.636 137.102 141.321C137.366 141.016 137.696 140.783 138.092 140.62C138.488 140.458 138.899 140.376 139.326 140.376L139.737 140.94C139.463 140.94 139.204 140.981 138.96 141.062C138.727 141.153 138.534 141.29 138.382 141.473C138.239 141.666 138.168 141.91 138.168 142.204V142.494C138.168 142.92 138.31 143.23 138.595 143.423C138.889 143.616 139.29 143.712 139.798 143.712H141.58C142.119 143.712 142.545 143.606 142.86 143.392C143.175 143.189 143.332 142.869 143.332 142.433V142.143C143.332 141.9 143.276 141.686 143.164 141.504C143.063 141.321 142.895 141.179 142.662 141.077C142.428 140.986 142.108 140.94 141.702 140.94H139.448C138.727 140.94 138.178 140.793 137.803 140.498C137.427 140.204 137.239 139.833 137.239 139.386C137.239 138.98 137.356 138.655 137.589 138.411C137.833 138.157 138.173 137.985 138.61 137.893C138.244 137.731 137.955 137.523 137.742 137.269C137.539 137.015 137.397 136.741 137.315 136.446C137.234 136.142 137.193 135.837 137.193 135.532C137.193 134.913 137.32 134.41 137.574 134.024C137.828 133.639 138.194 133.354 138.671 133.171C139.158 132.989 139.737 132.897 140.407 132.897H144.794V133.765L143.134 133.933C143.256 134.024 143.388 134.146 143.53 134.299C143.672 134.441 143.794 134.639 143.896 134.893C143.997 135.147 144.048 135.482 144.048 135.898C144.048 136.335 143.951 136.741 143.759 137.117C143.576 137.492 143.271 137.797 142.845 138.031C142.428 138.264 141.86 138.381 141.139 138.381H139.798C139.412 138.381 139.108 138.437 138.884 138.548C138.661 138.66 138.549 138.858 138.549 139.142C138.549 139.376 138.635 139.539 138.808 139.63C138.981 139.721 139.163 139.767 139.356 139.767H141.931C142.55 139.767 143.068 139.848 143.484 140.011C143.911 140.173 144.231 140.422 144.444 140.757C144.657 141.092 144.764 141.529 144.764 142.067V142.357C144.764 143.128 144.51 143.727 144.002 144.154C143.505 144.591 142.748 144.809 141.733 144.809H139.402ZM140.072 137.208H140.971C141.428 137.208 141.773 137.142 142.007 137.01C142.251 136.868 142.418 136.685 142.509 136.462C142.601 136.238 142.647 135.989 142.647 135.715C142.647 135.309 142.581 134.989 142.449 134.756C142.317 134.512 142.134 134.339 141.9 134.238C141.677 134.126 141.403 134.07 141.078 134.07H140.225C139.707 134.07 139.301 134.187 139.006 134.42C138.722 134.654 138.58 135.055 138.58 135.624C138.58 136.182 138.712 136.589 138.976 136.842C139.24 137.086 139.605 137.208 140.072 137.208ZM146.182 141.062V132.912H147.355L147.706 134.283C148.051 133.867 148.437 133.517 148.863 133.232C149.29 132.948 149.787 132.806 150.356 132.806C150.488 132.806 150.615 132.816 150.737 132.836C150.859 132.846 150.976 132.867 151.087 132.897V134.466C150.945 134.446 150.798 134.431 150.645 134.42C150.493 134.4 150.336 134.39 150.173 134.39C149.828 134.39 149.518 134.431 149.244 134.512C148.97 134.593 148.706 134.72 148.452 134.893C148.208 135.055 147.96 135.258 147.706 135.502V141.062H146.182ZM155.84 141.153C155.22 141.153 154.682 141.087 154.225 140.955C153.779 140.823 153.408 140.605 153.113 140.3C152.819 139.985 152.601 139.559 152.458 139.021C152.316 138.482 152.245 137.802 152.245 136.979C152.245 136.126 152.316 135.431 152.458 134.893C152.601 134.344 152.819 133.918 153.113 133.613C153.408 133.309 153.784 133.1 154.241 132.989C154.698 132.867 155.231 132.806 155.84 132.806C156.449 132.806 156.982 132.867 157.439 132.989C157.896 133.11 158.272 133.324 158.567 133.628C158.861 133.933 159.079 134.36 159.222 134.908C159.364 135.446 159.435 136.137 159.435 136.979C159.435 137.812 159.364 138.503 159.222 139.051C159.079 139.589 158.861 140.011 158.567 140.315C158.282 140.62 157.912 140.838 157.455 140.97C156.998 141.092 156.459 141.153 155.84 141.153ZM155.84 139.904C156.175 139.904 156.47 139.874 156.723 139.813C156.987 139.752 157.206 139.625 157.378 139.432C157.551 139.229 157.683 138.929 157.774 138.533C157.866 138.137 157.912 137.614 157.912 136.964C157.912 136.314 157.866 135.796 157.774 135.411C157.683 135.015 157.551 134.72 157.378 134.527C157.206 134.334 156.987 134.207 156.723 134.146C156.47 134.075 156.175 134.04 155.84 134.04C155.495 134.04 155.19 134.075 154.926 134.146C154.672 134.207 154.459 134.334 154.286 134.527C154.124 134.72 153.997 135.015 153.905 135.411C153.824 135.796 153.784 136.314 153.784 136.964C153.784 137.614 153.824 138.137 153.905 138.533C153.997 138.929 154.124 139.229 154.286 139.432C154.459 139.625 154.672 139.752 154.926 139.813C155.19 139.874 155.495 139.904 155.84 139.904ZM162.567 141.062L160.191 132.912H161.76L163.542 139.645L165.461 132.912H166.756L168.675 139.645L170.381 132.912H171.95L169.605 141.062H167.914L166.086 135.015L164.227 141.062H162.567ZM173.484 131.542C173.301 131.542 173.209 131.455 173.209 131.283V130.003C173.209 129.82 173.301 129.729 173.484 129.729H174.611C174.692 129.729 174.753 129.754 174.794 129.805C174.834 129.856 174.855 129.922 174.855 130.003V131.283C174.855 131.455 174.773 131.542 174.611 131.542H173.484ZM173.27 141.062V132.912H174.794V141.062H173.27ZM176.93 141.062V132.912H178.148L178.453 133.796C178.819 133.532 179.25 133.298 179.748 133.095C180.255 132.882 180.778 132.775 181.317 132.775C181.926 132.775 182.413 132.907 182.779 133.171C183.155 133.425 183.424 133.765 183.586 134.192C183.749 134.618 183.83 135.081 183.83 135.578V141.062H182.307V135.761C182.307 135.436 182.241 135.157 182.109 134.923C181.987 134.679 181.814 134.492 181.591 134.36C181.367 134.228 181.093 134.162 180.768 134.162C180.464 134.162 180.179 134.192 179.915 134.253C179.661 134.314 179.418 134.4 179.184 134.512C178.951 134.613 178.707 134.74 178.453 134.893V141.062H176.93ZM187.94 144.809C187.422 144.809 186.96 144.733 186.554 144.58C186.158 144.438 185.843 144.215 185.61 143.91C185.376 143.616 185.259 143.25 185.259 142.813V142.478C185.259 142.021 185.386 141.636 185.64 141.321C185.904 141.016 186.234 140.783 186.63 140.62C187.026 140.458 187.438 140.376 187.864 140.376L188.275 140.94C188.001 140.94 187.742 140.981 187.499 141.062C187.265 141.153 187.072 141.29 186.92 141.473C186.778 141.666 186.707 141.91 186.707 142.204V142.494C186.707 142.92 186.849 143.23 187.133 143.423C187.428 143.616 187.829 143.712 188.336 143.712H190.119C190.657 143.712 191.083 143.606 191.398 143.392C191.713 143.189 191.87 142.869 191.87 142.433V142.143C191.87 141.9 191.814 141.686 191.703 141.504C191.601 141.321 191.434 141.179 191.2 141.077C190.966 140.986 190.647 140.94 190.24 140.94H187.986C187.265 140.94 186.717 140.793 186.341 140.498C185.965 140.204 185.777 139.833 185.777 139.386C185.777 138.98 185.894 138.655 186.128 138.411C186.371 138.157 186.712 137.985 187.148 137.893C186.783 137.731 186.493 137.523 186.28 137.269C186.077 137.015 185.935 136.741 185.853 136.446C185.772 136.142 185.732 135.837 185.732 135.532C185.732 134.913 185.859 134.41 186.112 134.024C186.366 133.639 186.732 133.354 187.209 133.171C187.697 132.989 188.275 132.897 188.946 132.897H193.333V133.765L191.672 133.933C191.794 134.024 191.926 134.146 192.068 134.299C192.21 134.441 192.332 134.639 192.434 134.893C192.535 135.147 192.586 135.482 192.586 135.898C192.586 136.335 192.49 136.741 192.297 137.117C192.114 137.492 191.809 137.797 191.383 138.031C190.966 138.264 190.398 138.381 189.677 138.381H188.336C187.95 138.381 187.646 138.437 187.422 138.548C187.199 138.66 187.087 138.858 187.087 139.142C187.087 139.376 187.174 139.539 187.346 139.63C187.519 139.721 187.702 139.767 187.895 139.767H190.469C191.088 139.767 191.606 139.848 192.023 140.011C192.449 140.173 192.769 140.422 192.982 140.757C193.195 141.092 193.302 141.529 193.302 142.067V142.357C193.302 143.128 193.048 143.727 192.54 144.154C192.043 144.591 191.286 144.809 190.271 144.809H187.94ZM188.611 137.208H189.509C189.966 137.208 190.311 137.142 190.545 137.01C190.789 136.868 190.956 136.685 191.048 136.462C191.139 136.238 191.185 135.989 191.185 135.715C191.185 135.309 191.119 134.989 190.987 134.756C190.855 134.512 190.672 134.339 190.438 134.238C190.215 134.126 189.941 134.07 189.616 134.07H188.763C188.245 134.07 187.839 134.187 187.544 134.42C187.26 134.654 187.118 135.055 187.118 135.624C187.118 136.182 187.25 136.589 187.514 136.842C187.778 137.086 188.143 137.208 188.611 137.208ZM201.585 141.062C201.036 141.062 200.579 140.975 200.214 140.803C199.858 140.62 199.594 140.331 199.422 139.935C199.259 139.539 199.183 139.01 199.193 138.35L199.254 134.162H197.959V133.171L199.285 132.912L199.513 130.628H200.716V132.912H202.925V134.162H200.716V138.335C200.716 138.65 200.747 138.904 200.808 139.097C200.869 139.29 200.955 139.437 201.067 139.539C201.179 139.64 201.3 139.716 201.432 139.767C201.564 139.808 201.691 139.833 201.813 139.843L202.819 139.935V141.062H201.585ZM207.678 141.153C206.815 141.153 206.124 141.026 205.606 140.772C205.099 140.518 204.733 140.092 204.51 139.493C204.296 138.884 204.19 138.046 204.19 136.979C204.19 135.893 204.296 135.05 204.51 134.451C204.733 133.842 205.099 133.415 205.606 133.171C206.114 132.928 206.8 132.806 207.663 132.806C208.414 132.806 209.018 132.887 209.475 133.05C209.943 133.202 210.283 133.481 210.496 133.887C210.719 134.283 210.831 134.837 210.831 135.548C210.831 136.045 210.73 136.441 210.526 136.736C210.334 137.03 210.054 137.244 209.689 137.376C209.333 137.508 208.907 137.574 208.409 137.574H205.713C205.723 138.163 205.789 138.635 205.911 138.99C206.043 139.335 206.272 139.589 206.597 139.752C206.932 139.904 207.419 139.98 208.059 139.98H210.603V140.894C210.166 140.955 209.719 141.011 209.262 141.062C208.805 141.123 208.277 141.153 207.678 141.153ZM205.698 136.614H208.272C208.678 136.614 208.978 136.538 209.171 136.385C209.364 136.233 209.46 135.954 209.46 135.548C209.46 135.141 209.399 134.822 209.277 134.588C209.166 134.354 208.978 134.187 208.714 134.085C208.45 133.984 208.099 133.933 207.663 133.933C207.165 133.933 206.769 134.009 206.475 134.162C206.19 134.314 205.987 134.583 205.865 134.969C205.754 135.355 205.698 135.903 205.698 136.614ZM214.32 141.153C213.721 141.153 213.223 140.975 212.827 140.62C212.441 140.254 212.248 139.752 212.248 139.112V138.472C212.248 137.843 212.462 137.33 212.888 136.934C213.325 136.528 213.98 136.325 214.853 136.325H217.397V135.471C217.397 135.157 217.341 134.893 217.229 134.679C217.128 134.456 216.935 134.288 216.65 134.177C216.366 134.065 215.945 134.009 215.386 134.009H212.888V133.11C213.254 133.029 213.68 132.958 214.168 132.897C214.665 132.836 215.244 132.801 215.904 132.791C216.574 132.791 217.133 132.877 217.58 133.05C218.037 133.212 218.377 133.486 218.6 133.872C218.824 134.248 218.935 134.75 218.935 135.38V141.062H217.732L217.473 140.163C217.412 140.204 217.285 140.28 217.092 140.392C216.899 140.493 216.65 140.605 216.346 140.727C216.051 140.849 215.726 140.95 215.371 141.031C215.026 141.113 214.675 141.153 214.32 141.153ZM215.021 140.041C215.173 140.051 215.351 140.036 215.554 139.996C215.767 139.955 215.975 139.909 216.178 139.858C216.391 139.797 216.584 139.737 216.757 139.676C216.94 139.615 217.087 139.564 217.199 139.523C217.321 139.473 217.387 139.442 217.397 139.432V137.086L215.264 137.178C214.736 137.208 214.355 137.34 214.122 137.574C213.898 137.807 213.787 138.112 213.787 138.488V138.853C213.787 139.148 213.848 139.386 213.97 139.569C214.091 139.742 214.244 139.863 214.427 139.935C214.619 140.006 214.817 140.041 215.021 140.041ZM221.005 141.062V132.912H222.224L222.529 133.796C222.925 133.522 223.361 133.283 223.839 133.08C224.316 132.877 224.864 132.775 225.484 132.775C225.991 132.775 226.423 132.887 226.778 133.11C227.134 133.334 227.403 133.618 227.586 133.963C227.829 133.781 228.124 133.598 228.469 133.415C228.814 133.232 229.185 133.08 229.581 132.958C229.977 132.836 230.358 132.775 230.724 132.775C231.333 132.775 231.825 132.902 232.201 133.156C232.587 133.4 232.861 133.74 233.024 134.177C233.196 134.603 233.283 135.091 233.283 135.639V141.062H231.759V135.761C231.759 135.436 231.693 135.157 231.561 134.923C231.439 134.679 231.262 134.492 231.028 134.36C230.805 134.228 230.531 134.162 230.206 134.162C229.799 134.162 229.383 134.243 228.957 134.405C228.53 134.558 228.139 134.745 227.784 134.969C227.824 135.101 227.855 135.238 227.875 135.38C227.895 135.512 227.906 135.644 227.906 135.776V141.062H226.382V135.761C226.382 135.436 226.316 135.157 226.184 134.923C226.062 134.679 225.89 134.492 225.666 134.36C225.443 134.228 225.169 134.162 224.844 134.162C224.539 134.162 224.255 134.192 223.991 134.253C223.737 134.314 223.493 134.4 223.26 134.512C223.026 134.613 222.782 134.74 222.529 134.893V141.062H221.005ZM238.223 141.153C238.01 141.153 237.756 141.148 237.462 141.138C237.167 141.128 236.863 141.107 236.548 141.077C236.243 141.057 235.959 141.031 235.695 141.001C235.441 140.97 235.238 140.935 235.086 140.894V139.98H238.513C238.807 139.98 239.061 139.96 239.274 139.919C239.488 139.869 239.65 139.767 239.762 139.615C239.884 139.462 239.945 139.239 239.945 138.944V138.609C239.945 138.305 239.843 138.066 239.64 137.893C239.437 137.721 239.102 137.634 238.635 137.634H237.447C236.969 137.634 236.543 137.574 236.167 137.452C235.801 137.32 235.512 137.101 235.299 136.797C235.096 136.492 234.994 136.081 234.994 135.563V135.121C234.994 134.603 235.091 134.177 235.284 133.842C235.487 133.507 235.807 133.258 236.243 133.095C236.68 132.923 237.259 132.836 237.98 132.836C238.284 132.836 238.619 132.852 238.985 132.882C239.361 132.902 239.726 132.933 240.082 132.973C240.437 133.014 240.721 133.06 240.935 133.11V134.024H237.705C237.259 134.024 236.913 134.101 236.67 134.253C236.436 134.405 236.319 134.695 236.319 135.121V135.426C236.319 135.69 236.375 135.893 236.487 136.035C236.599 136.177 236.756 136.269 236.959 136.309C237.172 136.35 237.421 136.37 237.705 136.37H238.924C239.696 136.37 240.28 136.553 240.676 136.919C241.072 137.274 241.27 137.777 241.27 138.427V139.051C241.27 139.599 241.143 140.026 240.889 140.331C240.635 140.635 240.28 140.849 239.823 140.97C239.376 141.092 238.843 141.153 238.223 141.153Z" fill="white"/>
<defs>
<linearGradient id="paint0_linear_83_449" x1="0.387238" y1="0.216431" x2="313.497" y2="174.542" gradientUnits="userSpaceOnUse">
<stop stop-color="#CB397A"/>
<stop offset="1" stop-color="#3A3895"/>
</linearGradient>
</defs>
</svg>
