<svg width="319" height="177" viewBox="0 0 319 177" fill="none" xmlns="http://www.w3.org/2000/svg">
<g clip-path="url(#clip0_1499_9379)">
<rect x="0.893555" y="0.00195312" width="317.256" height="176.635" rx="16" fill="url(#paint0_linear_1499_9379)"/>
<path d="M69.2876 68.6489V47.6545H78.1393C78.8202 47.6545 79.5105 47.7396 80.2104 47.9098C80.9291 48.0611 81.5816 48.3827 82.168 48.8744C82.7729 49.3473 83.2552 50.066 83.6149 51.0306C83.9928 51.9952 84.1823 53.2719 84.1823 54.8607C84.1823 56.4495 83.9928 57.7356 83.6149 58.7191C83.2552 59.7027 82.783 60.4498 82.1963 60.9604C81.61 61.4711 80.9764 61.8115 80.2955 61.9818C79.6146 62.152 78.9526 62.2371 78.3095 62.2371C77.9691 62.2371 77.5719 62.2277 77.118 62.2087C76.664 62.1709 76.2007 62.1236 75.7278 62.0669C75.2739 62.0101 74.8483 61.9628 74.4511 61.925C74.0539 61.8683 73.7324 61.821 73.4865 61.7832V68.6489H69.2876ZM73.4865 58.4638H77.657C78.1487 58.4638 78.5649 58.3503 78.9053 58.1233C79.2647 57.8774 79.5295 57.4992 79.6997 56.9885C79.8699 56.4589 79.955 55.7591 79.955 54.8891C79.955 54.0379 79.8605 53.3665 79.6713 52.8747C79.5011 52.364 79.2458 51.9952 78.9053 51.7683C78.5838 51.5413 78.1961 51.4278 77.7421 51.4278H73.4865V58.4638ZM86.7104 68.6489V53.4138H89.9446L90.9092 55.7402C91.4574 55.0403 92.0725 54.4445 92.7534 53.9528C93.4525 53.4611 94.2753 53.2152 95.2216 53.2152C95.4293 53.2152 95.6371 53.2246 95.8458 53.2435C96.0727 53.2625 96.2805 53.3003 96.4699 53.357V57.6694C96.1862 57.6316 95.8833 57.6032 95.5621 57.5843C95.2591 57.5465 94.9663 57.5275 94.6826 57.5275C94.1334 57.5275 93.6329 57.5937 93.1789 57.7261C92.7432 57.8396 92.3369 58.0193 91.959 58.2652C91.5993 58.4922 91.2497 58.7948 90.9092 59.1731V68.6489H86.7104ZM105.231 68.7908C103.983 68.7908 102.915 68.6679 102.026 68.422C101.137 68.1572 100.408 67.7221 99.841 67.1169C99.2928 66.5117 98.8865 65.7078 98.6211 64.7054C98.3759 63.703 98.2522 62.4641 98.2522 60.9888C98.2522 59.4378 98.3759 58.1611 98.6211 57.1587C98.8865 56.1374 99.2928 55.343 99.841 54.7756C100.408 54.1892 101.137 53.7826 102.026 53.5556C102.933 53.3097 104.002 53.1868 105.231 53.1868C106.499 53.1868 107.577 53.3097 108.466 53.5556C109.355 53.8015 110.074 54.2176 110.622 54.8039C111.189 55.3714 111.597 56.1657 111.842 57.1871C112.107 58.1895 112.239 59.4568 112.239 60.9888C112.239 62.5019 112.116 63.7691 111.87 64.7905C111.625 65.7929 111.228 66.5873 110.679 67.1736C110.131 67.76 109.402 68.1761 108.494 68.422C107.606 68.6679 106.518 68.7908 105.231 68.7908ZM105.231 65.443C105.742 65.443 106.168 65.3957 106.508 65.3012C106.868 65.2066 107.152 65.0175 107.359 64.7338C107.586 64.4311 107.756 63.9772 107.87 63.3719C107.983 62.7667 108.04 61.9724 108.04 60.9888C108.04 59.9864 107.983 59.192 107.87 58.6056C107.756 58.0004 107.586 57.5559 107.359 57.2722C107.152 56.9696 106.868 56.771 106.508 56.6764C106.168 56.5819 105.742 56.5346 105.231 56.5346C104.74 56.5346 104.314 56.5819 103.955 56.6764C103.614 56.771 103.331 56.9696 103.104 57.2722C102.877 57.5559 102.706 58.0004 102.593 58.6056C102.499 59.192 102.451 59.9864 102.451 60.9888C102.451 61.9724 102.499 62.7667 102.593 63.3719C102.706 63.9772 102.877 64.4311 103.104 64.7338C103.331 65.0175 103.614 65.2066 103.955 65.3012C104.314 65.3957 104.74 65.443 105.231 65.443ZM115.508 51.1725C115.111 51.1725 114.912 50.9833 114.912 50.6051V47.8247C114.912 47.4275 115.111 47.2289 115.508 47.2289H118.742C118.932 47.2289 119.063 47.2857 119.139 47.3991C119.234 47.5126 119.281 47.6545 119.281 47.8247V50.6051C119.281 50.9833 119.102 51.1725 118.742 51.1725H115.508ZM115.026 75.3728V53.4138H119.224V68.5354C119.224 69.727 119.13 70.9376 118.941 72.1669C118.77 73.4152 118.524 74.4839 118.203 75.3728H115.026ZM128.862 68.7908C127.179 68.7908 125.836 68.5732 124.834 68.1383C123.832 67.6843 123.103 66.8899 122.649 65.7551C122.214 64.6203 121.997 63.0504 121.997 61.0455C121.997 58.9839 122.204 57.3857 122.621 56.2509C123.037 55.116 123.736 54.3216 124.72 53.8677C125.704 53.4138 127.038 53.1868 128.721 53.1868C130.233 53.1868 131.444 53.3381 132.352 53.6407C133.26 53.9434 133.912 54.4729 134.31 55.2295C134.726 55.9861 134.934 57.0547 134.934 58.4354C134.934 59.4568 134.726 60.2701 134.31 60.8753C133.912 61.4617 133.345 61.8872 132.607 62.152C131.87 62.3979 130.999 62.5208 129.997 62.5208H126.167C126.205 63.2963 126.318 63.9204 126.508 64.3933C126.715 64.8472 127.084 65.1783 127.614 65.3863C128.162 65.5755 128.947 65.67 129.969 65.67H134.423V68.1383C133.685 68.2895 132.872 68.4409 131.983 68.5922C131.113 68.7246 130.073 68.7908 128.862 68.7908ZM126.11 60.0242H129.572C130.139 60.0242 130.556 59.9107 130.82 59.6837C131.084 59.4568 131.217 59.0501 131.217 58.4638C131.217 57.9153 131.132 57.4802 130.962 57.1587C130.792 56.8183 130.527 56.5819 130.167 56.4495C129.808 56.2982 129.325 56.2225 128.721 56.2225C128.077 56.2225 127.566 56.336 127.189 56.5629C126.811 56.771 126.536 57.1493 126.366 57.6978C126.196 58.2462 126.11 59.0218 126.11 60.0242ZM143.618 68.8192C142.691 68.8192 141.831 68.6963 141.037 68.4503C140.261 68.2044 139.59 67.7978 139.022 67.2304C138.455 66.644 138.01 65.8592 137.689 64.8756C137.386 63.8732 137.235 62.6154 137.235 61.1023C137.235 59.5513 137.377 58.2652 137.66 57.2438C137.944 56.2225 138.361 55.4187 138.909 54.8323C139.476 54.2271 140.166 53.8015 140.98 53.5556C141.793 53.3097 142.71 53.1868 143.732 53.1868C144.659 53.1868 145.538 53.2435 146.37 53.357C147.221 53.4516 148.11 53.6313 149.037 53.8961V56.3076H145.037C144.166 56.3076 143.467 56.44 142.937 56.7048C142.407 56.9507 142.02 57.4235 141.774 58.1233C141.547 58.8042 141.434 59.7878 141.434 61.0739C141.434 62.3412 141.547 63.3058 141.774 63.9677C142.02 64.6297 142.407 65.0742 142.937 65.3012C143.486 65.5281 144.205 65.6416 145.094 65.6416H149.264V68.0248C148.791 68.1761 148.243 68.3179 147.619 68.4503C146.994 68.5638 146.333 68.6489 145.633 68.7057C144.952 68.7814 144.28 68.8192 143.618 68.8192ZM157.385 68.6489C156.212 68.6489 155.257 68.4787 154.52 68.1383C153.8 67.7978 153.281 67.2304 152.959 66.436C152.637 65.6416 152.495 64.573 152.534 63.2301L152.676 56.7899H150.293V54.0947L152.818 53.4138L153.385 49.1581H156.704V53.4138H160.279V56.7899H156.704V63.2017C156.704 63.6179 156.742 63.9583 156.818 64.2231C156.893 64.4878 156.997 64.7054 157.13 64.8756C157.281 65.0269 157.451 65.1404 157.641 65.2161C157.829 65.2917 158.019 65.339 158.208 65.3579L160.137 65.5281V68.6489H157.385ZM169.57 68.6489L172.009 47.6545H176.038L180.861 63.7408L185.656 47.6545H189.656L192.124 68.6489H188.067L186.252 53.1868L186.904 53.2435L182.79 68.6489H178.847L174.676 53.2435L175.386 53.2152L173.627 68.6489H169.57ZM201.233 68.7908C199.985 68.7908 198.916 68.6679 198.028 68.422C197.138 68.1572 196.41 67.7221 195.843 67.1169C195.294 66.5117 194.888 65.7078 194.623 64.7054C194.377 63.703 194.254 62.4641 194.254 60.9888C194.254 59.4378 194.377 58.1611 194.623 57.1587C194.888 56.1374 195.294 55.343 195.843 54.7756C196.41 54.1892 197.138 53.7826 198.028 53.5556C198.935 53.3097 200.003 53.1868 201.233 53.1868C202.5 53.1868 203.578 53.3097 204.468 53.5556C205.356 53.8015 206.075 54.2176 206.624 54.8039C207.191 55.3714 207.598 56.1657 207.844 57.1871C208.108 58.1895 208.241 59.4568 208.241 60.9888C208.241 62.5019 208.117 63.7691 207.872 64.7905C207.626 65.7929 207.229 66.5873 206.681 67.1736C206.132 67.76 205.404 68.1761 204.496 68.422C203.606 68.6679 202.519 68.7908 201.233 68.7908ZM201.233 65.443C201.744 65.443 202.17 65.3957 202.51 65.3012C202.869 65.2066 203.153 65.0175 203.361 64.7338C203.588 64.4311 203.758 63.9772 203.872 63.3719C203.985 62.7667 204.042 61.9724 204.042 60.9888C204.042 59.9864 203.985 59.192 203.872 58.6056C203.758 58.0004 203.588 57.5559 203.361 57.2722C203.153 56.9696 202.869 56.771 202.51 56.6764C202.17 56.5819 201.744 56.5346 201.233 56.5346C200.741 56.5346 200.315 56.5819 199.957 56.6764C199.616 56.771 199.333 56.9696 199.106 57.2722C198.879 57.5559 198.708 58.0004 198.595 58.6056C198.5 59.192 198.453 59.9864 198.453 60.9888C198.453 61.9724 198.5 62.7667 198.595 63.3719C198.708 63.9772 198.879 64.4311 199.106 64.7338C199.333 65.0175 199.616 65.2066 199.957 65.3012C200.315 65.3957 200.741 65.443 201.233 65.443ZM216.02 68.8192C214.828 68.8192 213.826 68.5732 213.012 68.0815C212.199 67.5708 211.585 66.7575 211.168 65.6416C210.771 64.5068 210.573 63.0221 210.573 61.1874C210.573 59.296 210.743 57.7639 211.083 56.5913C211.443 55.4187 212.039 54.558 212.871 54.0096C213.702 53.4611 214.847 53.1868 216.303 53.1868C217.004 53.1868 217.694 53.2625 218.375 53.4138C219.055 53.5462 219.66 53.7069 220.19 53.8961V47.002H224.418V68.6489H220.871L220.19 67.202C219.869 67.5047 219.472 67.7789 218.999 68.0248C218.545 68.2707 218.062 68.4693 217.552 68.6206C217.041 68.753 216.53 68.8192 216.02 68.8192ZM217.495 65.443C218.062 65.443 218.573 65.3485 219.027 65.1593C219.5 64.9701 219.887 64.7811 220.19 64.5919V56.9318C219.812 56.7993 219.415 56.667 218.999 56.5346C218.582 56.4021 218.138 56.336 217.665 56.336C216.965 56.336 216.398 56.4589 215.963 56.7048C215.547 56.9507 215.245 57.4141 215.055 58.095C214.866 58.7569 214.771 59.7215 214.771 60.9888C214.771 62.1614 214.857 63.0788 215.027 63.7408C215.216 64.3839 215.509 64.8283 215.906 65.0742C216.303 65.3201 216.833 65.443 217.495 65.443ZM233.979 68.7908C232.296 68.7908 230.953 68.5732 229.95 68.1383C228.948 67.6843 228.219 66.8899 227.765 65.7551C227.331 64.6203 227.113 63.0504 227.113 61.0455C227.113 58.9839 227.321 57.3857 227.737 56.2509C228.153 55.116 228.854 54.3216 229.836 53.8677C230.82 53.4138 232.154 53.1868 233.837 53.1868C235.35 53.1868 236.56 53.3381 237.468 53.6407C238.376 53.9434 239.029 54.4729 239.426 55.2295C239.842 55.9861 240.05 57.0547 240.05 58.4354C240.05 59.4568 239.842 60.2701 239.426 60.8753C239.029 61.4617 238.461 61.8872 237.723 62.152C236.986 62.3979 236.116 62.5208 235.113 62.5208H231.283C231.322 63.2963 231.435 63.9204 231.624 64.3933C231.832 64.8472 232.201 65.1783 232.73 65.3863C233.279 65.5755 234.064 65.67 235.085 65.67H239.539V68.1383C238.802 68.2895 237.989 68.4409 237.099 68.5922C236.23 68.7246 235.189 68.7908 233.979 68.7908ZM231.227 60.0242H234.688C235.255 60.0242 235.672 59.9107 235.936 59.6837C236.202 59.4568 236.333 59.0501 236.333 58.4638C236.333 57.9153 236.248 57.4802 236.078 57.1587C235.908 56.8183 235.643 56.5819 235.284 56.4495C234.925 56.2982 234.443 56.2225 233.837 56.2225C233.194 56.2225 232.684 56.336 232.305 56.5629C231.927 56.771 231.652 57.1493 231.482 57.6978C231.312 58.2462 231.227 59.0218 231.227 60.0242ZM247.571 68.7057C246.493 68.7057 245.595 68.5355 244.876 68.195C244.177 67.8356 243.656 67.2966 243.316 66.5779C242.975 65.8402 242.805 64.8946 242.805 63.7408V47.002H247.004V63.1166C247.004 63.684 247.061 64.138 247.174 64.4784C247.288 64.7999 247.458 65.0364 247.685 65.1877C247.931 65.339 248.234 65.443 248.593 65.4998L249.756 65.67V68.7057H247.571Z" fill="white"/>
<path d="M52.6245 84.373L266.419 84.3897" stroke="#D0D0D0" stroke-width="0.726765"/>
<path d="M53.6357 104.567V93.8689H57.8655C58.5148 93.8689 59.0623 93.9895 59.508 94.2327C59.9537 94.4647 60.3123 94.8092 60.5837 95.2642C60.8646 95.7201 61.0682 96.2815 61.1942 96.9502C61.3201 97.6088 61.3831 98.3647 61.3831 99.2179C61.3831 100.342 61.2523 101.301 60.9906 102.095C60.729 102.891 60.3365 103.501 59.8133 103.927C59.29 104.354 58.6408 104.567 57.8655 104.567H53.6357ZM54.7986 103.534H57.7783C58.3501 103.534 58.8152 103.36 59.1737 103.011C59.5322 102.653 59.7987 102.154 59.9732 101.514C60.1476 100.865 60.2348 100.099 60.2348 99.2179C60.2348 98.4235 60.1864 97.7547 60.0894 97.2116C59.9925 96.6594 59.8424 96.2136 59.6388 95.8752C59.4451 95.5357 59.1931 95.2936 58.883 95.1477C58.5729 94.9926 58.2047 94.9156 57.7783 94.9156H54.7986V103.534ZM66.1678 104.654C65.3538 104.654 64.7094 104.533 64.2346 104.29C63.7695 104.048 63.4352 103.637 63.2317 103.055C63.0282 102.473 62.9264 101.679 62.9264 100.671C62.9264 99.6444 63.0282 98.845 63.2317 98.2725C63.4449 97.6919 63.7889 97.2846 64.2637 97.0516C64.7385 96.8195 65.3781 96.703 66.1824 96.703C66.8704 96.703 67.4275 96.781 67.8539 96.936C68.29 97.0911 68.6098 97.3576 68.8133 97.7355C69.0264 98.1033 69.133 98.617 69.133 99.2756C69.133 99.7316 69.0409 100.099 68.8568 100.381C68.6824 100.652 68.4256 100.85 68.0865 100.977C67.757 101.092 67.3645 101.151 66.9092 101.151H64.0747C64.0844 101.78 64.1522 102.29 64.2783 102.677C64.4042 103.055 64.6319 103.332 64.9614 103.506C65.3005 103.67 65.7947 103.753 66.444 103.753H68.9441V104.45C68.4983 104.509 68.0622 104.557 67.6359 104.596C67.2095 104.635 66.7202 104.654 66.1678 104.654ZM64.0602 100.395H66.8219C67.2579 100.395 67.5777 100.317 67.7813 100.162C67.9944 99.9981 68.101 99.7073 68.101 99.2908C68.101 98.845 68.0332 98.5005 67.8975 98.2583C67.7715 98.006 67.5681 97.8318 67.287 97.7355C67.0158 97.6291 66.6474 97.5754 66.1824 97.5754C65.6397 97.5754 65.2133 97.6575 64.9032 97.8226C64.5932 97.9777 64.3751 98.2583 64.2492 98.6657C64.1231 99.072 64.0602 99.6495 64.0602 100.395ZM71.4444 104.567V97.7497H70.2525V97.008L71.4444 96.8053V95.7728C71.4444 95.2399 71.5074 94.7991 71.6333 94.4505C71.769 94.0919 71.9918 93.8254 72.302 93.6511C72.6217 93.4768 73.0481 93.3887 73.5811 93.3887C73.9493 93.3887 74.2642 93.413 74.5258 93.4616C74.7875 93.5001 75.02 93.5488 75.2236 93.6075V94.4212C75.02 94.4019 74.802 94.3877 74.5694 94.3776C74.3466 94.3583 74.1285 94.3482 73.9154 94.3482C73.5569 94.3482 73.2807 94.407 73.0868 94.5225C72.9027 94.639 72.7719 94.8133 72.6944 95.0463C72.6266 95.2784 72.5927 95.5692 72.5927 95.9187V96.8053H77.1858V97.7497H72.5927V104.567H71.4444ZM76.6335 104.567V96.8053H77.7818V104.567H76.6335ZM76.8079 95.4243C76.6528 95.4243 76.5753 95.3463 76.5753 95.1912V94.0574C76.5753 93.9024 76.6528 93.8254 76.8079 93.8254H77.6364C77.7042 93.8254 77.7527 93.8497 77.7818 93.8983C77.8205 93.9368 77.8399 93.9895 77.8399 94.0574V95.1912C77.8399 95.3463 77.7721 95.4243 77.6364 95.4243H76.8079ZM79.9948 104.567V96.8053H80.896L81.1431 97.6625C81.5114 97.4011 81.9426 97.1731 82.4365 96.9796C82.931 96.776 83.4447 96.6746 83.9777 96.6746C84.5492 96.6746 85.0092 96.7952 85.3587 97.0374C85.7073 97.2795 85.9637 97.5997 86.1288 97.9969C86.294 98.3941 86.376 98.8257 86.376 99.2908V104.567H85.228V99.4215C85.228 99.0922 85.1601 98.8014 85.0244 98.5491C84.8977 98.2877 84.7143 98.084 84.4722 97.9392C84.2391 97.7932 83.9483 97.7203 83.5998 97.7203C83.2796 97.7203 82.9796 97.7547 82.698 97.8226C82.4274 97.8804 82.1655 97.9675 81.9135 98.084C81.6712 98.1904 81.4145 98.3211 81.1431 98.4762V104.567H79.9948ZM91.5051 104.654C90.6915 104.654 90.047 104.533 89.5718 104.29C89.1067 104.048 88.7724 103.637 88.5687 103.055C88.3661 102.473 88.2637 101.679 88.2637 100.671C88.2637 99.6444 88.3661 98.845 88.5687 98.2725C88.7825 97.6919 89.126 97.2846 89.6012 97.0516C90.0764 96.8195 90.7158 96.703 91.5193 96.703C92.2073 96.703 92.7646 96.781 93.1911 96.936C93.6278 97.0911 93.947 97.3576 94.1507 97.7355C94.3635 98.1033 94.4709 98.617 94.4709 99.2756C94.4709 99.7316 94.3787 100.099 94.1943 100.381C94.02 100.652 93.7626 100.85 93.4242 100.977C93.0949 101.092 92.7017 101.151 92.2468 101.151H89.4117C89.4219 101.78 89.4897 102.29 89.6154 102.677C89.742 103.055 89.969 103.332 90.2983 103.506C90.6378 103.67 91.1322 103.753 91.7817 103.753H94.2814V104.45C93.8356 104.509 93.3999 104.557 92.9733 104.596C92.5467 104.635 92.0573 104.654 91.5051 104.654ZM89.3975 100.395H92.1596C92.5953 100.395 92.9155 100.317 93.1182 100.162C93.332 99.9981 93.4384 99.7073 93.4384 99.2908C93.4384 98.845 93.3705 98.5005 93.2347 98.2583C93.1091 98.006 92.9054 97.8318 92.6247 97.7355C92.3532 97.6291 91.9854 97.5754 91.5193 97.5754C90.9772 97.5754 90.5506 97.6575 90.2406 97.8226C89.9305 97.9777 89.7127 98.2583 89.587 98.6657C89.4604 99.072 89.3975 99.6495 89.3975 100.395ZM98.918 104.654C98.2786 104.654 97.7507 104.518 97.3343 104.247C96.927 103.966 96.622 103.539 96.4183 102.968C96.2248 102.386 96.1275 101.646 96.1275 100.744C96.1275 99.7843 96.2248 99.0091 96.4183 98.4184C96.6119 97.8176 96.9219 97.3819 97.3485 97.1103C97.7751 96.8388 98.3465 96.703 99.0639 96.703C99.4996 96.703 99.9262 96.7516 100.343 96.8489C100.76 96.9452 101.128 97.0516 101.448 97.1681V93.4768H102.596V104.567H101.666L101.448 103.782C101.302 103.908 101.084 104.039 100.794 104.175C100.513 104.31 100.203 104.426 99.8634 104.523C99.5341 104.61 99.2189 104.654 98.918 104.654ZM99.2524 103.71C99.6982 103.71 100.1 103.642 100.459 103.506C100.827 103.36 101.157 103.21 101.448 103.055V97.9827C101.099 97.8753 100.764 97.7882 100.445 97.7203C100.125 97.6433 99.7661 97.6048 99.3689 97.6048C98.8744 97.6048 98.4732 97.696 98.1631 97.8804C97.8521 98.0648 97.6251 98.384 97.4792 98.8399C97.3434 99.2858 97.2755 99.9059 97.2755 100.7C97.2755 101.418 97.3394 101.999 97.465 102.445C97.6008 102.891 97.8136 103.215 98.1044 103.419C98.3952 103.612 98.7782 103.71 99.2524 103.71ZM111.197 104.654C110.557 104.654 110.029 104.518 109.613 104.247C109.205 103.966 108.9 103.539 108.697 102.968C108.503 102.386 108.406 101.646 108.406 100.744C108.406 99.7843 108.503 99.0091 108.697 98.4184C108.89 97.8176 109.2 97.3819 109.627 97.1103C110.054 96.8388 110.625 96.703 111.342 96.703C111.778 96.703 112.205 96.7516 112.621 96.8489C113.038 96.9452 113.406 97.0516 113.726 97.1681V93.4768H114.875V104.567H113.944L113.726 103.782C113.581 103.908 113.363 104.039 113.072 104.175C112.79 104.31 112.48 104.426 112.142 104.523C111.813 104.61 111.497 104.654 111.197 104.654ZM111.531 103.71C111.977 103.71 112.379 103.642 112.738 103.506C113.105 103.36 113.435 103.21 113.726 103.055V97.9827C113.377 97.8753 113.043 97.7882 112.723 97.7203C112.403 97.6433 112.045 97.6048 111.647 97.6048C111.153 97.6048 110.751 97.696 110.441 97.8804C110.131 98.0648 109.904 98.384 109.758 98.8399C109.622 99.2858 109.554 99.9059 109.554 100.7C109.554 101.418 109.617 101.999 109.744 102.445C109.879 102.891 110.092 103.215 110.383 103.419C110.674 103.612 111.057 103.71 111.531 103.71ZM120.008 104.654C119.194 104.654 118.55 104.533 118.074 104.29C117.609 104.048 117.275 103.637 117.072 103.055C116.869 102.473 116.766 101.679 116.766 100.671C116.766 99.6444 116.869 98.845 117.072 98.2725C117.285 97.6919 117.63 97.2846 118.104 97.0516C118.579 96.8195 119.218 96.703 120.023 96.703C120.711 96.703 121.268 96.781 121.694 96.936C122.13 97.0911 122.45 97.3576 122.653 97.7355C122.867 98.1033 122.973 98.617 122.973 99.2756C122.973 99.7316 122.881 100.099 122.697 100.381C122.523 100.652 122.266 100.85 121.927 100.977C121.597 101.092 121.204 101.151 120.749 101.151H117.915C117.924 101.78 117.992 102.29 118.118 102.677C118.245 103.055 118.473 103.332 118.802 103.506C119.14 103.67 119.635 103.753 120.284 103.753H122.784V104.45C122.338 104.509 121.902 104.557 121.476 104.596C121.049 104.635 120.56 104.654 120.008 104.654ZM117.9 100.395H120.662C121.098 100.395 121.418 100.317 121.622 100.162C121.835 99.9981 121.941 99.7073 121.941 99.2908C121.941 98.845 121.873 98.5005 121.737 98.2583C121.612 98.006 121.408 97.8318 121.127 97.7355C120.856 97.6291 120.488 97.5754 120.023 97.5754C119.48 97.5754 119.053 97.6575 118.743 97.8226C118.433 97.9777 118.215 98.2583 118.09 98.6657C117.963 99.072 117.9 99.6495 117.9 100.395ZM126.941 104.581C126.496 104.581 126.123 104.504 125.823 104.349C125.522 104.184 125.294 103.922 125.139 103.564C124.984 103.196 124.907 102.701 124.907 102.081V93.4768H126.055V101.936C126.055 102.401 126.098 102.755 126.185 102.997C126.273 103.229 126.399 103.394 126.563 103.491C126.729 103.579 126.922 103.637 127.145 103.666L127.93 103.753V104.581H126.941ZM129.354 95.4243C129.199 95.4243 129.121 95.3463 129.121 95.1912V94.0574C129.121 93.9024 129.199 93.8254 129.354 93.8254H130.168C130.246 93.8254 130.298 93.8497 130.328 93.8983C130.366 93.9368 130.385 93.9895 130.385 94.0574V95.1912C130.385 95.3463 130.313 95.4243 130.168 95.4243H129.354ZM129.18 104.567V96.8053H130.328V104.567H129.18ZM134.637 104.567L131.715 96.8053H132.892L135.305 103.491L137.79 96.8053H138.953L135.945 104.567H134.637ZM143.018 104.654C142.204 104.654 141.559 104.533 141.084 104.29C140.619 104.048 140.285 103.637 140.081 103.055C139.877 102.473 139.776 101.679 139.776 100.671C139.776 99.6444 139.877 98.845 140.081 98.2725C140.295 97.6919 140.638 97.2846 141.114 97.0516C141.588 96.8195 142.228 96.703 143.032 96.703C143.72 96.703 144.277 96.781 144.704 96.936C145.139 97.0911 145.459 97.3576 145.663 97.7355C145.876 98.1033 145.982 98.617 145.982 99.2756C145.982 99.7316 145.891 100.099 145.707 100.381C145.532 100.652 145.275 100.85 144.937 100.977C144.606 101.092 144.214 101.151 143.759 101.151H140.924C140.934 101.78 141.002 102.29 141.128 102.677C141.253 103.055 141.481 103.332 141.811 103.506C142.15 103.67 142.645 103.753 143.294 103.753H145.794V104.45C145.348 104.509 144.912 104.557 144.486 104.596C144.059 104.635 143.57 104.654 143.018 104.654ZM140.91 100.395H143.672C144.108 100.395 144.428 100.317 144.631 100.162C144.844 99.9981 144.951 99.7073 144.951 99.2908C144.951 98.845 144.883 98.5005 144.747 98.2583C144.621 98.006 144.418 97.8318 144.137 97.7355C143.866 97.6291 143.497 97.5754 143.032 97.5754C142.49 97.5754 142.063 97.6575 141.753 97.8226C141.443 97.9777 141.225 98.2583 141.098 98.6657C140.973 99.072 140.91 99.6495 140.91 100.395ZM147.917 104.567V96.8053H148.788L149.065 98.157C149.413 97.7396 149.801 97.3961 150.228 97.1245C150.663 96.853 151.162 96.7182 151.724 96.7182C151.86 96.7182 151.986 96.7222 152.102 96.7324C152.228 96.7415 152.344 96.7618 152.451 96.7901V97.9675C152.325 97.9483 152.189 97.9341 152.045 97.924C151.899 97.9047 151.754 97.8956 151.608 97.8956C151.249 97.8956 150.93 97.9392 150.649 98.0263C150.368 98.1134 150.101 98.2441 149.85 98.4184C149.598 98.5927 149.336 98.8055 149.065 99.0578V104.567H147.917ZM155.134 104.654C154.562 104.654 154.092 104.485 153.724 104.145C153.356 103.806 153.172 103.327 153.172 102.706V102.154C153.172 101.543 153.371 101.049 153.768 100.671C154.174 100.293 154.785 100.104 155.599 100.104H158.23V99.1449C158.23 98.8257 158.172 98.5542 158.056 98.3313C157.949 98.0982 157.75 97.9189 157.459 97.7933C157.179 97.6676 156.767 97.6048 156.224 97.6048H153.812V96.9208C154.15 96.8631 154.543 96.8094 154.989 96.7618C155.444 96.7131 155.977 96.6888 156.588 96.6888C157.217 96.6787 157.741 96.7567 158.157 96.9208C158.574 97.086 158.879 97.3474 159.073 97.7061C159.277 98.0547 159.378 98.5157 159.378 99.0872V104.567H158.492L158.274 103.68C158.235 103.719 158.114 103.787 157.91 103.884C157.717 103.98 157.464 104.092 157.154 104.218C156.854 104.334 156.525 104.436 156.166 104.523C155.817 104.61 155.473 104.654 155.134 104.654ZM155.614 103.797C155.788 103.806 155.987 103.787 156.21 103.738C156.433 103.69 156.66 103.637 156.893 103.579C157.125 103.511 157.339 103.443 157.532 103.375C157.736 103.307 157.901 103.249 158.027 103.201C158.152 103.152 158.22 103.128 158.23 103.128V100.686L155.86 100.787C155.308 100.807 154.911 100.942 154.669 101.195C154.437 101.447 154.32 101.771 154.32 102.168V102.517C154.32 102.827 154.383 103.079 154.509 103.273C154.644 103.457 154.81 103.588 155.003 103.666C155.207 103.743 155.41 103.787 155.614 103.797ZM165.278 104.654C164.911 104.654 164.566 104.61 164.247 104.523C163.937 104.426 163.65 104.314 163.389 104.189C163.127 104.053 162.894 103.917 162.692 103.782L162.473 104.567H161.543V93.4768H162.692V97.5176C163.059 97.3039 163.476 97.1154 163.941 96.9502C164.406 96.7851 164.838 96.703 165.235 96.703C165.855 96.703 166.369 96.8337 166.776 97.0961C167.182 97.3576 167.488 97.7841 167.691 98.3749C167.905 98.9656 168.011 99.7559 168.011 100.744C168.011 101.548 167.919 102.246 167.735 102.837C167.551 103.419 167.255 103.869 166.848 104.189C166.451 104.499 165.928 104.654 165.278 104.654ZM164.915 103.694C165.341 103.694 165.695 103.588 165.977 103.375C166.267 103.152 166.485 102.818 166.63 102.372C166.785 101.926 166.863 101.369 166.863 100.7C166.863 99.8481 166.776 99.2077 166.601 98.7822C166.437 98.3455 166.209 98.0506 165.918 97.8956C165.627 97.7395 165.293 97.6625 164.915 97.6625C164.479 97.6625 164.087 97.7254 163.737 97.851C163.399 97.9675 163.049 98.1226 162.692 98.3171V103.069C162.992 103.215 163.321 103.356 163.68 103.491C164.048 103.627 164.46 103.694 164.915 103.694ZM171.981 104.581C171.535 104.581 171.162 104.504 170.861 104.349C170.562 104.184 170.334 103.922 170.179 103.564C170.024 103.196 169.947 102.701 169.947 102.081V93.4768H171.095V101.936C171.095 102.401 171.138 102.755 171.225 102.997C171.312 103.229 171.438 103.394 171.603 103.491C171.768 103.579 171.962 103.637 172.185 103.666L172.97 103.753V104.581H171.981ZM177.184 104.654C176.37 104.654 175.726 104.533 175.251 104.29C174.786 104.048 174.451 103.637 174.248 103.055C174.044 102.473 173.943 101.679 173.943 100.671C173.943 99.6444 174.044 98.845 174.248 98.2725C174.462 97.6919 174.805 97.2846 175.28 97.0516C175.754 96.8195 176.394 96.703 177.198 96.703C177.886 96.703 178.444 96.781 178.87 96.936C179.306 97.0911 179.626 97.3576 179.83 97.7355C180.043 98.1033 180.149 98.617 180.149 99.2756C180.149 99.7316 180.057 100.099 179.873 100.381C179.699 100.652 179.442 100.85 179.102 100.977C178.773 101.092 178.381 101.151 177.925 101.151H175.091C175.101 101.78 175.169 102.29 175.294 102.677C175.42 103.055 175.648 103.332 175.977 103.506C176.317 103.67 176.811 103.753 177.46 103.753H179.96V104.45C179.515 104.509 179.079 104.557 178.652 104.596C178.226 104.635 177.736 104.654 177.184 104.654ZM175.077 100.395H177.838C178.274 100.395 178.594 100.317 178.797 100.162C179.011 99.9981 179.117 99.7073 179.117 99.2908C179.117 98.845 179.05 98.5005 178.914 98.2583C178.788 98.006 178.584 97.8318 178.303 97.7355C178.032 97.6291 177.663 97.5754 177.198 97.5754C176.656 97.5754 176.23 97.6575 175.92 97.8226C175.61 97.9777 175.392 98.2583 175.265 98.6657C175.139 99.072 175.077 99.6495 175.077 100.395ZM184.757 104.654C184.564 104.654 184.326 104.649 184.045 104.64C183.764 104.63 183.468 104.615 183.158 104.596C182.858 104.577 182.582 104.557 182.329 104.537C182.087 104.509 181.899 104.48 181.763 104.45V103.753H184.946C185.266 103.753 185.542 103.729 185.774 103.68C186.007 103.632 186.187 103.525 186.312 103.36C186.448 103.196 186.516 102.949 186.516 102.619V102.27C186.516 101.931 186.405 101.67 186.182 101.486C185.959 101.292 185.6 101.195 185.106 101.195H184.015C183.56 101.195 183.153 101.137 182.794 101.02C182.446 100.904 182.174 100.705 181.981 100.425C181.787 100.143 181.69 99.7559 181.69 99.2614V98.8541C181.69 98.3698 181.782 97.9726 181.967 97.6625C182.16 97.3525 182.456 97.1194 182.853 96.9644C183.26 96.8094 183.783 96.7324 184.423 96.7324C184.694 96.7324 185.004 96.7415 185.353 96.7618C185.712 96.781 186.06 96.8094 186.4 96.8489C186.739 96.8773 187.015 96.9117 187.228 96.9502V97.6484H184.234C183.74 97.6484 183.357 97.7304 183.085 97.8956C182.824 98.0597 182.693 98.3799 182.693 98.8541V99.1743C182.693 99.4742 182.756 99.7022 182.882 99.8572C183.008 100.003 183.183 100.099 183.405 100.148C183.637 100.197 183.904 100.221 184.205 100.221H185.309C186.017 100.221 186.565 100.385 186.952 100.714C187.34 101.045 187.533 101.519 187.533 102.139V102.677C187.533 103.201 187.412 103.607 187.17 103.898C186.938 104.179 186.612 104.378 186.196 104.494C185.789 104.6 185.309 104.654 184.757 104.654ZM193.69 104.567V97.7497H192.497V97.008L193.69 96.8053V95.9187C193.69 95.3655 193.758 94.9055 193.893 94.5377C194.028 94.1597 194.256 93.874 194.576 93.6795C194.896 93.4859 195.341 93.3887 195.913 93.3887C196.252 93.3887 196.538 93.4089 196.771 93.4474C197.013 93.4768 197.226 93.5052 197.411 93.5346V94.3482H196.117C195.768 94.3482 195.502 94.407 195.317 94.5225C195.134 94.6299 195.007 94.7991 194.939 95.0311C194.871 95.2541 194.838 95.5307 194.838 95.86V96.8053H197.25V97.7497H194.838V104.567H193.69ZM201.701 104.654C201.139 104.654 200.645 104.596 200.218 104.48C199.802 104.363 199.452 104.159 199.172 103.869C198.891 103.579 198.682 103.177 198.546 102.663C198.411 102.139 198.343 101.475 198.343 100.671C198.343 99.8572 198.411 99.1936 198.546 98.6798C198.682 98.157 198.891 97.7547 199.172 97.4731C199.452 97.1833 199.802 96.9847 200.218 96.8773C200.645 96.7618 201.139 96.703 201.701 96.703C202.263 96.703 202.752 96.7618 203.169 96.8773C203.595 96.9938 203.949 97.1975 204.23 97.4883C204.511 97.7689 204.719 98.1712 204.855 98.695C205.001 99.2077 205.073 99.8674 205.073 100.671C205.073 101.486 205.001 102.154 204.855 102.677C204.719 103.191 204.511 103.593 204.23 103.884C203.959 104.165 203.61 104.363 203.183 104.48C202.757 104.596 202.263 104.654 201.701 104.654ZM201.701 103.71C202.059 103.71 202.374 103.675 202.646 103.607C202.927 103.539 203.16 103.404 203.343 103.201C203.528 102.997 203.668 102.691 203.765 102.285C203.862 101.878 203.911 101.34 203.911 100.671C203.911 99.993 203.862 99.455 203.765 99.0578C203.668 98.6606 203.528 98.3607 203.343 98.157C203.16 97.9533 202.927 97.8176 202.646 97.7497C202.374 97.6818 202.059 97.6484 201.701 97.6484C201.333 97.6484 201.013 97.6818 200.741 97.7497C200.471 97.8176 200.243 97.9533 200.058 98.157C199.874 98.3607 199.734 98.6606 199.637 99.0578C199.54 99.455 199.492 99.993 199.492 100.671C199.492 101.34 199.54 101.878 199.637 102.285C199.734 102.691 199.874 102.997 200.058 103.201C200.243 103.404 200.471 103.539 200.741 103.607C201.013 103.675 201.333 103.71 201.701 103.71ZM207.008 104.567V96.8053H207.88L208.157 98.157C208.506 97.7396 208.894 97.3961 209.319 97.1245C209.756 96.853 210.254 96.7182 210.817 96.7182C210.953 96.7182 211.078 96.7222 211.195 96.7324C211.32 96.7415 211.437 96.7618 211.543 96.7901V97.9675C211.418 97.9483 211.282 97.9341 211.136 97.924C210.991 97.9047 210.846 97.8956 210.7 97.8956C210.342 97.8956 210.022 97.9392 209.741 98.0263C209.46 98.1134 209.194 98.2441 208.941 98.4184C208.69 98.5927 208.428 98.8055 208.157 99.0578V104.567H207.008ZM219.59 104.654C219.397 104.654 219.16 104.649 218.878 104.64C218.598 104.63 218.302 104.615 217.992 104.596C217.692 104.577 217.415 104.557 217.164 104.537C216.921 104.509 216.732 104.48 216.596 104.45V103.753H219.78C220.099 103.753 220.376 103.729 220.608 103.68C220.841 103.632 221.02 103.525 221.146 103.36C221.282 103.196 221.349 102.949 221.349 102.619V102.27C221.349 101.931 221.238 101.67 221.015 101.486C220.792 101.292 220.434 101.195 219.94 101.195H218.85C218.394 101.195 217.987 101.137 217.629 101.02C217.279 100.904 217.009 100.705 216.814 100.425C216.621 100.143 216.523 99.7559 216.523 99.2614V98.8541C216.523 98.3698 216.616 97.9726 216.8 97.6625C216.994 97.3525 217.289 97.1194 217.687 96.9644C218.094 96.8094 218.617 96.7324 219.256 96.7324C219.528 96.7324 219.838 96.7415 220.186 96.7618C220.545 96.781 220.895 96.8094 221.233 96.8489C221.572 96.8773 221.849 96.9117 222.062 96.9502V97.6484H219.068C218.573 97.6484 218.19 97.7304 217.92 97.8956C217.657 98.0597 217.527 98.3799 217.527 98.8541V99.1743C217.527 99.4742 217.589 99.7022 217.716 99.8572C217.842 100.003 218.016 100.099 218.239 100.148C218.472 100.197 218.738 100.221 219.038 100.221H220.143C220.851 100.221 221.398 100.385 221.785 100.714C222.173 101.045 222.367 101.519 222.367 102.139V102.677C222.367 103.201 222.246 103.607 222.004 103.898C221.771 104.179 221.447 104.378 221.029 104.494C220.623 104.6 220.143 104.654 219.59 104.654ZM224.184 108.012V96.8053H225.114L225.333 97.6048C225.507 97.4781 225.73 97.3474 226.001 97.2116C226.282 97.0667 226.582 96.9452 226.902 96.8489C227.231 96.7516 227.556 96.703 227.876 96.703C228.379 96.703 228.806 96.8145 229.155 97.0374C229.513 97.2512 229.804 97.541 230.027 97.9098C230.25 98.2776 230.41 98.6991 230.507 99.1743C230.603 99.6495 230.652 100.148 230.652 100.671C230.652 101.543 230.551 102.28 230.347 102.881C230.153 103.471 229.853 103.917 229.445 104.218C229.039 104.518 228.515 104.668 227.876 104.668C227.44 104.668 226.999 104.6 226.554 104.465C226.117 104.32 225.71 104.14 225.333 103.927V108.012H224.184ZM227.556 103.694C227.924 103.694 228.254 103.602 228.545 103.419C228.835 103.234 229.067 102.924 229.243 102.489C229.417 102.043 229.504 101.437 229.504 100.671C229.504 99.9444 229.412 99.3628 229.227 98.9271C229.043 98.4812 228.806 98.1621 228.515 97.9675C228.224 97.7639 227.905 97.6625 227.556 97.6625C227.111 97.6625 226.698 97.7355 226.32 97.8804C225.953 98.0162 225.623 98.1621 225.333 98.3171V103.069C225.671 103.254 226.03 103.404 226.408 103.52C226.796 103.637 227.178 103.694 227.556 103.694ZM235.552 104.654C234.739 104.654 234.094 104.533 233.619 104.29C233.154 104.048 232.819 103.637 232.616 103.055C232.413 102.473 232.311 101.679 232.311 100.671C232.311 99.6444 232.413 98.845 232.616 98.2725C232.83 97.6919 233.173 97.2846 233.648 97.0516C234.123 96.8195 234.763 96.703 235.567 96.703C236.255 96.703 236.812 96.781 237.238 96.936C237.675 97.0911 237.994 97.3576 238.198 97.7355C238.411 98.1033 238.518 98.617 238.518 99.2756C238.518 99.7316 238.426 100.099 238.241 100.381C238.067 100.652 237.81 100.85 237.471 100.977C237.142 101.092 236.749 101.151 236.294 101.151H233.459C233.469 101.78 233.537 102.29 233.662 102.677C233.789 103.055 234.016 103.332 234.346 103.506C234.685 103.67 235.179 103.753 235.829 103.753H238.328V104.45C237.883 104.509 237.447 104.557 237.02 104.596C236.594 104.635 236.104 104.654 235.552 104.654ZM233.445 100.395H236.207C236.642 100.395 236.963 100.317 237.165 100.162C237.379 99.9981 237.485 99.7073 237.485 99.2908C237.485 98.845 237.418 98.5005 237.282 98.2583C237.156 98.006 236.952 97.8318 236.672 97.7355C236.4 97.6291 236.032 97.5754 235.567 97.5754C235.024 97.5754 234.598 97.6575 234.288 97.8226C233.978 97.9777 233.76 98.2583 233.634 98.6657C233.507 99.072 233.445 99.6495 233.445 100.395ZM243.271 104.654C242.834 104.654 242.428 104.596 242.05 104.48C241.672 104.363 241.343 104.159 241.061 103.869C240.781 103.579 240.563 103.177 240.408 102.663C240.253 102.149 240.175 101.495 240.175 100.7C240.175 99.8957 240.248 99.2371 240.392 98.7234C240.538 98.2006 240.746 97.7932 241.018 97.5024C241.289 97.2116 241.618 97.008 242.007 96.8925C242.394 96.776 242.825 96.7182 243.299 96.7182C243.688 96.7182 244.109 96.7374 244.564 96.7759C245.02 96.8053 245.456 96.853 245.873 96.9208V97.6048H243.605C243.111 97.6048 242.695 97.6869 242.355 97.851C242.016 98.0162 241.759 98.3262 241.585 98.7822C241.411 99.227 241.323 99.8765 241.323 100.73C241.323 101.553 241.415 102.183 241.599 102.619C241.784 103.055 242.045 103.356 242.384 103.52C242.723 103.675 243.135 103.753 243.62 103.753H245.989V104.422C245.766 104.46 245.504 104.499 245.204 104.537C244.914 104.577 244.603 104.605 244.274 104.625C243.944 104.645 243.609 104.654 243.271 104.654ZM247.751 95.4243C247.596 95.4243 247.519 95.3463 247.519 95.1912V94.0574C247.519 93.9024 247.596 93.8254 247.751 93.8254H248.565C248.642 93.8254 248.696 93.8497 248.725 93.8983C248.764 93.9368 248.783 93.9895 248.783 94.0574V95.1912C248.783 95.3463 248.71 95.4243 248.565 95.4243H247.751ZM247.576 104.567V96.8053H248.725V104.567H247.576ZM251.318 104.567V97.7497H250.127V97.008L251.318 96.8053V95.7728C251.318 95.2399 251.382 94.7991 251.508 94.4505C251.644 94.0919 251.866 93.8254 252.176 93.6511C252.496 93.4768 252.922 93.3887 253.455 93.3887C253.824 93.3887 254.138 93.413 254.401 93.4616C254.662 93.5001 254.894 93.5488 255.098 93.6075V94.4212C254.894 94.4019 254.676 94.3877 254.444 94.3776C254.221 94.3583 254.003 94.3482 253.79 94.3482C253.431 94.3482 253.155 94.407 252.961 94.5225C252.777 94.639 252.647 94.8133 252.569 95.0463C252.501 95.2784 252.467 95.5692 252.467 95.9187V96.8053H257.06V97.7497H252.467V104.567H251.318ZM256.508 104.567V96.8053H257.656V104.567H256.508ZM256.682 95.4243C256.527 95.4243 256.449 95.3463 256.449 95.1912V94.0574C256.449 93.9024 256.527 93.8254 256.682 93.8254H257.511C257.578 93.8254 257.627 93.8497 257.656 93.8983C257.695 93.9368 257.714 93.9895 257.714 94.0574V95.1912C257.714 95.3463 257.646 95.4243 257.511 95.4243H256.682ZM262.689 104.654C262.253 104.654 261.846 104.596 261.468 104.48C261.09 104.363 260.761 104.159 260.48 103.869C260.198 103.579 259.981 103.177 259.825 102.663C259.67 102.149 259.593 101.495 259.593 100.7C259.593 99.8957 259.665 99.2371 259.811 98.7234C259.956 98.2006 260.165 97.7932 260.436 97.5024C260.707 97.2116 261.037 97.008 261.424 96.8925C261.812 96.776 262.243 96.7182 262.718 96.7182C263.105 96.7182 263.527 96.7374 263.983 96.7759C264.438 96.8053 264.874 96.853 265.291 96.9208V97.6048H263.023C262.529 97.6048 262.112 97.6869 261.773 97.851C261.435 98.0162 261.177 98.3262 261.003 98.7822C260.829 99.227 260.741 99.8765 260.741 100.73C260.741 101.553 260.834 102.183 261.017 102.619C261.201 103.055 261.463 103.356 261.802 103.52C262.142 103.675 262.553 103.753 263.037 103.753H265.407V104.422C265.185 104.46 264.923 104.499 264.622 104.537C264.331 104.577 264.021 104.605 263.692 104.625C263.363 104.645 263.028 104.654 262.689 104.654ZM127.409 116.702C127.254 116.702 127.176 116.624 127.176 116.469V115.336C127.176 115.181 127.254 115.104 127.409 115.104H128.223C128.3 115.104 128.354 115.128 128.383 115.176C128.422 115.215 128.441 115.268 128.441 115.336V116.469C128.441 116.624 128.368 116.702 128.223 116.702H127.409ZM127.234 125.845V118.083H128.383V125.845H127.234ZM130.599 125.845V118.083H131.5L131.747 118.941C132.115 118.679 132.547 118.451 133.041 118.258C133.535 118.054 134.048 117.953 134.581 117.953C135.153 117.953 135.614 118.073 135.962 118.316C136.311 118.558 136.568 118.878 136.732 119.275C136.897 119.672 136.98 120.104 136.98 120.569V125.845H135.832V120.7C135.832 120.37 135.764 120.08 135.628 119.827C135.502 119.566 135.318 119.362 135.076 119.217C134.843 119.071 134.552 118.998 134.203 118.998C133.884 118.998 133.583 119.033 133.302 119.101C133.031 119.159 132.77 119.246 132.517 119.362C132.275 119.469 132.019 119.599 131.747 119.754V125.845H130.599ZM139.318 116.702C139.163 116.702 139.086 116.624 139.086 116.469V115.336C139.086 115.181 139.163 115.104 139.318 115.104H140.133C140.21 115.104 140.263 115.128 140.292 115.176C140.331 115.215 140.351 115.268 140.351 115.336V116.469C140.351 116.624 140.278 116.702 140.133 116.702H139.318ZM139.144 125.845V118.083H140.292V125.845H139.144ZM145.08 125.845C144.577 125.845 144.16 125.763 143.831 125.598C143.501 125.434 143.259 125.167 143.104 124.798C142.949 124.43 142.877 123.941 142.886 123.33L142.929 119.028H141.694V118.286L142.945 118.083L143.133 115.917H144.02V118.083H146.258V119.028H144.02V123.33C144.02 123.67 144.054 123.941 144.121 124.145C144.199 124.347 144.296 124.502 144.412 124.61C144.538 124.716 144.669 124.793 144.805 124.842C144.941 124.88 145.071 124.905 145.197 124.915L146.141 125.002V125.845H145.08ZM148.02 116.702C147.865 116.702 147.787 116.624 147.787 116.469V115.336C147.787 115.181 147.865 115.104 148.02 115.104H148.834C148.912 115.104 148.964 115.128 148.994 115.176C149.032 115.215 149.051 115.268 149.051 115.336V116.469C149.051 116.624 148.979 116.702 148.834 116.702H148.02ZM147.846 125.845V118.083H148.994V125.845H147.846ZM152.721 125.932C152.149 125.932 151.68 125.763 151.311 125.423C150.943 125.084 150.759 124.605 150.759 123.985V123.432C150.759 122.821 150.957 122.327 151.354 121.949C151.762 121.571 152.372 121.383 153.186 121.383H155.817V120.423C155.817 120.104 155.759 119.832 155.643 119.609C155.536 119.376 155.338 119.197 155.047 119.071C154.766 118.946 154.354 118.883 153.812 118.883H151.398V118.199C151.737 118.141 152.13 118.088 152.575 118.04C153.031 117.991 153.564 117.967 154.174 117.967C154.805 117.957 155.327 118.035 155.744 118.199C156.161 118.364 156.466 118.626 156.66 118.984C156.863 119.333 156.965 119.794 156.965 120.365V125.845H156.078L155.86 124.958C155.822 124.997 155.7 125.065 155.498 125.162C155.303 125.258 155.052 125.37 154.742 125.496C154.441 125.612 154.112 125.714 153.753 125.801C153.404 125.889 153.06 125.932 152.721 125.932ZM153.201 125.075C153.375 125.084 153.573 125.065 153.796 125.016C154.019 124.969 154.247 124.915 154.479 124.857C154.712 124.789 154.925 124.721 155.12 124.653C155.322 124.585 155.488 124.527 155.613 124.479C155.74 124.43 155.808 124.406 155.817 124.406V121.964L153.448 122.066C152.896 122.085 152.498 122.221 152.256 122.473C152.023 122.725 151.907 123.049 151.907 123.447V123.795C151.907 124.105 151.97 124.358 152.096 124.551C152.232 124.735 152.396 124.866 152.591 124.944C152.793 125.021 152.997 125.065 153.201 125.075ZM161.703 125.845C161.199 125.845 160.782 125.763 160.452 125.598C160.123 125.434 159.881 125.167 159.726 124.798C159.571 124.43 159.498 123.941 159.508 123.33L159.552 119.028H158.315V118.286L159.566 118.083L159.755 115.917H160.642V118.083H162.88V119.028H160.642V123.33C160.642 123.67 160.675 123.941 160.743 124.145C160.821 124.347 160.917 124.502 161.034 124.61C161.16 124.716 161.29 124.793 161.426 124.842C161.562 124.88 161.693 124.905 161.819 124.915L162.764 125.002V125.845H161.703ZM164.641 116.702C164.486 116.702 164.409 116.624 164.409 116.469V115.336C164.409 115.181 164.486 115.104 164.641 115.104H165.456C165.533 115.104 165.587 115.128 165.615 115.176C165.654 115.215 165.674 115.268 165.674 115.336V116.469C165.674 116.624 165.601 116.702 165.456 116.702H164.641ZM164.467 125.845V118.083H165.615V125.845H164.467ZM169.924 125.845L167.003 118.083H168.18L170.593 124.769L173.078 118.083H174.242L171.232 125.845H169.924ZM178.306 125.932C177.491 125.932 176.847 125.812 176.373 125.568C175.907 125.326 175.573 124.915 175.369 124.333C175.166 123.752 175.064 122.957 175.064 121.949C175.064 120.923 175.166 120.123 175.369 119.551C175.582 118.97 175.927 118.563 176.401 118.33C176.876 118.098 177.515 117.981 178.32 117.981C179.008 117.981 179.565 118.059 179.992 118.214C180.428 118.369 180.748 118.636 180.95 119.014C181.164 119.381 181.271 119.895 181.271 120.554C181.271 121.01 181.178 121.378 180.994 121.659C180.82 121.93 180.563 122.128 180.224 122.255C179.895 122.371 179.502 122.429 179.046 122.429H176.212C176.222 123.059 176.289 123.568 176.416 123.955C176.542 124.333 176.77 124.61 177.099 124.784C177.438 124.948 177.932 125.031 178.581 125.031H181.082V125.728C180.636 125.787 180.2 125.835 179.773 125.874C179.347 125.913 178.858 125.932 178.306 125.932ZM176.198 121.673H178.959C179.395 121.673 179.715 121.595 179.919 121.44C180.132 121.276 180.239 120.985 180.239 120.569C180.239 120.123 180.171 119.779 180.035 119.536C179.909 119.284 179.706 119.11 179.424 119.014C179.153 118.907 178.785 118.854 178.32 118.854C177.777 118.854 177.351 118.936 177.041 119.101C176.731 119.256 176.512 119.536 176.387 119.944C176.261 120.35 176.198 120.928 176.198 121.673ZM185.879 125.932C185.684 125.932 185.447 125.927 185.166 125.918C184.885 125.908 184.59 125.894 184.28 125.874C183.979 125.855 183.703 125.835 183.451 125.816C183.209 125.787 183.019 125.758 182.885 125.728V125.031H186.067C186.387 125.031 186.663 125.007 186.896 124.958C187.128 124.91 187.307 124.803 187.434 124.638C187.57 124.474 187.637 124.227 187.637 123.898V123.548C187.637 123.21 187.526 122.948 187.303 122.764C187.081 122.57 186.722 122.473 186.227 122.473H185.137C184.682 122.473 184.275 122.415 183.916 122.299C183.568 122.182 183.296 121.983 183.103 121.703C182.908 121.421 182.812 121.034 182.812 120.54V120.132C182.812 119.648 182.904 119.251 183.087 118.941C183.282 118.631 183.577 118.398 183.974 118.243C184.381 118.088 184.905 118.011 185.544 118.011C185.816 118.011 186.126 118.02 186.475 118.04C186.833 118.059 187.182 118.088 187.521 118.127C187.86 118.155 188.136 118.19 188.349 118.228V118.927H185.355C184.862 118.927 184.478 119.009 184.207 119.174C183.946 119.338 183.815 119.658 183.815 120.132V120.452C183.815 120.752 183.878 120.98 184.003 121.135C184.129 121.281 184.304 121.378 184.527 121.426C184.759 121.475 185.026 121.499 185.327 121.499H186.431C187.138 121.499 187.685 121.663 188.073 121.993C188.461 122.323 188.655 122.797 188.655 123.417V123.955C188.655 124.479 188.533 124.885 188.291 125.176C188.058 125.457 187.734 125.656 187.318 125.772C186.91 125.878 186.431 125.932 185.879 125.932ZM190.5 125.859C190.345 125.859 190.268 125.782 190.268 125.627V124.464C190.268 124.309 190.345 124.232 190.5 124.232H191.141C191.296 124.232 191.373 124.309 191.373 124.464V125.627C191.373 125.704 191.348 125.763 191.3 125.801C191.261 125.84 191.208 125.859 191.141 125.859H190.5Z" fill="white"/>
<circle cx="249.137" cy="182.502" r="47.5" fill="white" fill-opacity="0.2"/>
</g>
<defs>
<linearGradient id="paint0_linear_1499_9379" x1="159.522" y1="0.00195312" x2="159.522" y2="176.637" gradientUnits="userSpaceOnUse">
<stop stop-color="#7030A0"/>
<stop offset="1" stop-color="#B53784"/>
</linearGradient>
<clipPath id="clip0_1499_9379">
<rect x="0.893555" y="0.00195312" width="317.256" height="176.635" rx="16" fill="white"/>
</clipPath>
</defs>
</svg>
