<svg width="545" height="100" viewBox="0 0 545 100" fill="none" xmlns="http://www.w3.org/2000/svg">
<mask id="path-1-outside-1_83_541" maskUnits="userSpaceOnUse" x="-1" y="-1" width="547" height="103" fill="black">
<rect fill="white" x="-1" y="-1" width="547" height="103"/>
<path d="M0.403178 98V2.65409H35.1727C43.3512 2.65409 50.428 4.0313 56.403 6.78574C62.4204 9.4978 67.0394 13.3752 70.26 18.4179C73.5229 23.4183 75.1544 29.3721 75.1544 36.2794C75.1544 43.1867 73.5229 49.1829 70.26 54.268C67.0394 59.3107 62.4628 63.2093 56.5301 65.9638C50.5975 68.7182 43.5843 70.0954 35.4905 70.0954H25.5745V98H0.403178ZM25.5745 48.1659H32.6937C38.1178 48.1659 42.2494 47.1488 45.0886 45.1148C47.9702 43.0808 49.411 40.1356 49.411 36.2794C49.411 32.508 47.9702 29.6264 45.0886 27.6347C42.2071 25.6007 38.0754 24.5836 32.6937 24.5836H25.5745V48.1659ZM172.28 98H144.439L126.26 66.4723H113.038V98H87.8672V2.65409H128.167C136.43 2.65409 143.464 3.90418 149.27 6.40436C155.075 8.90454 159.504 12.5489 162.555 17.3374C165.648 22.0835 167.195 27.8254 167.195 34.5632C167.195 40.8772 165.839 46.3225 163.127 50.8991C160.415 55.4757 156.495 59.0777 151.368 61.705L172.28 98ZM113.038 47.0853H126.196C131.239 47.0853 135.032 46.153 137.574 44.2885C140.159 42.3815 141.452 39.5635 141.452 35.8345C141.452 32.1054 140.159 29.3086 137.574 27.444C135.032 25.5371 131.239 24.5836 126.196 24.5836H113.038V47.0853ZM179.908 98V2.65409H205.079V98H179.908ZM301.76 86.1771C297.268 90.4995 291.95 93.8683 285.805 96.2838C279.703 98.6992 273.05 99.9069 265.846 99.9069C258.6 99.9069 251.883 98.678 245.696 96.2202C239.552 93.72 234.191 90.2452 229.615 85.7957C225.081 81.3039 221.542 76.0493 219 70.0319C216.499 64.0145 215.249 57.4462 215.249 50.327C215.249 43.2079 216.499 36.6396 219 30.6222C221.542 24.6048 225.081 19.3714 229.615 14.9219C234.191 10.4301 239.552 6.95525 245.696 4.49744C251.883 1.99726 258.6 0.747167 265.846 0.747167C273.008 0.747167 279.618 1.97607 285.678 4.43388C291.78 6.84931 297.077 10.2182 301.569 14.5405L284.026 32.2113C281.822 29.245 279.11 26.9143 275.889 25.2193C272.711 23.5242 269.236 22.6767 265.465 22.6767C261.99 22.6767 258.769 23.3759 255.803 24.7743C252.837 26.1727 250.231 28.122 247.985 30.6222C245.781 33.1224 244.065 36.0463 242.836 39.394C241.607 42.7417 240.993 46.3649 240.993 50.2635C240.993 54.2044 241.607 57.8488 242.836 61.1965C244.065 64.5442 245.781 67.4893 247.985 70.0319C250.231 72.532 252.837 74.4813 255.803 75.8797C258.769 77.2782 261.99 77.9774 265.465 77.9774C269.236 77.9774 272.711 77.1298 275.889 75.4348C279.068 73.7398 281.758 71.4091 283.962 68.4428L301.76 86.1771ZM311.358 98V2.65409H336.529V98H311.358ZM438.359 98H408.738L374.413 41.4281V98H349.242V2.65409H378.863L413.187 59.4167V2.65409H438.359V98ZM517.75 30.1773C515.462 27.8042 512.665 25.9609 509.36 24.6472C506.054 23.3336 502.495 22.6767 498.681 22.6767C494.994 22.6767 491.647 23.3124 488.638 24.5836C485.672 25.8125 483.108 27.6135 480.947 29.9866C478.828 32.3596 477.175 35.1988 475.989 38.5041C474.844 41.8095 474.272 45.5386 474.272 49.6914C474.272 53.929 474.887 57.7852 476.116 61.26C477.345 64.7349 479.103 67.7224 481.392 70.2226C483.68 72.6804 486.392 74.5873 489.528 75.9433C492.706 77.2993 496.223 77.9774 500.079 77.9774C502.961 77.9774 505.588 77.596 507.961 76.8332C510.334 76.0704 512.432 74.9475 514.254 73.4643C516.076 71.9812 517.623 70.159 518.894 67.9978C520.166 65.7943 521.14 63.2941 521.818 60.4973H498.999V41.4281H543.938L544.638 51.0262C544.638 58.2725 543.536 64.9044 541.332 70.9218C539.171 76.8968 536.078 82.0455 532.052 86.3678C528.026 90.6901 523.217 94.0378 517.623 96.4109C512.072 98.7416 505.885 99.9069 499.062 99.9069C491.943 99.9069 485.311 98.6568 479.167 96.1566C473.065 93.6141 467.704 90.0969 463.085 85.605C458.509 81.0708 454.928 75.7738 452.343 69.714C449.8 63.6543 448.529 57.1072 448.529 50.0728C448.529 43.1231 449.779 36.6608 452.279 30.6858C454.779 24.7108 458.275 19.4773 462.767 14.9855C467.259 10.4936 472.493 6.99762 478.468 4.49744C484.485 1.99726 490.99 0.747167 497.982 0.747167C504.55 0.747167 510.949 1.89132 517.178 4.17962C523.407 6.46792 529.001 9.73087 533.959 13.9685L517.75 30.1773Z"/>
</mask>
<path d="M0.403168 98H-0.78241V99.1856H0.403168V98ZM0.403168 2.65409V1.46849H-0.78241V2.65409H0.403168ZM56.403 6.78574L55.9066 7.86248L55.9159 7.86663L56.403 6.78574ZM70.2599 18.4179L69.2607 19.0561L69.2671 19.0659L70.2599 18.4179ZM70.2599 54.268L69.2621 53.6277L69.2607 53.6299L70.2599 54.268ZM56.5302 65.9638L57.0294 67.0391L56.5302 65.9638ZM25.5745 70.0954V68.9098H24.3889V70.0954H25.5745ZM25.5745 98V99.1856H26.7601V98H25.5745ZM25.5745 48.1659H24.3889V49.3515H25.5745V48.1659ZM45.0886 45.1148L44.4049 44.1462L44.3982 44.151L45.0886 45.1148ZM45.0886 27.6347L44.4049 28.6034L44.4145 28.61L45.0886 27.6347ZM25.5745 24.5836V23.398H24.3889V24.5836H25.5745ZM1.58878 98V2.65409H-0.78241V98H1.58878ZM0.403168 3.83969H35.1727V1.46849H0.403168V3.83969ZM35.1727 3.83969C43.2204 3.83969 50.1203 5.19498 55.9066 7.86244L56.8994 5.70904C50.7357 2.86763 43.4821 1.46849 35.1727 1.46849V3.83969ZM55.9159 7.86663C61.7456 10.4941 66.1768 14.2274 69.2607 19.0561L71.2592 17.7798C67.9019 12.523 63.0952 8.50146 56.8902 5.70485L55.9159 7.86663ZM69.2671 19.0659C72.3855 23.8447 73.9688 29.5653 73.9688 36.2794H76.34C76.34 29.179 74.6603 22.9919 71.2529 17.77L69.2671 19.0659ZM73.9688 36.2794C73.9688 42.993 72.3856 48.7599 69.2621 53.6277L71.2578 54.9083C74.6602 49.6059 76.34 43.3803 76.34 36.2794H73.9688ZM69.2607 53.6299C66.173 58.4646 61.7784 62.2199 56.0309 64.8884L57.0294 67.0391C63.1471 64.1988 67.9057 60.1569 71.2592 54.9062L69.2607 53.6299ZM56.0309 64.8884C50.2872 67.5551 43.4518 68.9098 35.4905 68.9098V71.281C43.7168 71.281 50.9078 69.8813 57.0294 67.0391L56.0309 64.8884ZM35.4905 68.9098H25.5745V71.281H35.4905V68.9098ZM24.3889 70.0954V98H26.7601V70.0954H24.3889ZM25.5745 96.8144H0.403168V99.1856H25.5745V96.8144ZM25.5745 49.3515H32.6937V46.9803H25.5745V49.3515ZM32.6937 49.3515C38.2377 49.3515 42.655 48.3167 45.7791 46.0786L44.3982 44.151C41.8439 45.9809 37.9978 46.9803 32.6937 46.9803V49.3515ZM45.7723 46.0834C49.0015 43.804 50.5966 40.4788 50.5966 36.2794H48.2254C48.2254 39.7924 46.9389 42.3575 44.4049 44.1462L45.7723 46.0834ZM50.5966 36.2794C50.5966 32.1538 48.9925 28.8918 45.7627 26.6594L44.4145 28.61C46.9479 30.361 48.2254 32.8621 48.2254 36.2794H50.5966ZM45.7723 26.6661C42.6107 24.4344 38.1996 23.398 32.6937 23.398V25.7692C37.9513 25.7692 41.8034 26.767 44.4049 28.6033L45.7723 26.6661ZM32.6937 23.398H25.5745V25.7692H32.6937V23.398ZM24.3889 24.5836V48.1659H26.7601V24.5836H24.3889ZM172.28 98V99.1856H174.332L173.307 97.4081L172.28 98ZM144.439 98L143.412 98.5922L143.754 99.1856H144.439V98ZM126.26 66.4723L127.287 65.8801L126.945 65.2867H126.26V66.4723ZM113.038 66.4723V65.2867H111.853V66.4723H113.038ZM113.038 98V99.1856H114.224V98H113.038ZM87.8672 98H86.6816V99.1856H87.8672V98ZM87.8672 2.65409V1.46849H86.6816V2.65409H87.8672ZM162.555 17.3374L161.555 17.9745L161.562 17.9847L162.555 17.3374ZM151.368 61.705L150.827 60.6498L149.719 61.2178L150.34 62.2969L151.368 61.705ZM113.038 47.0853H111.853V48.2709H113.038V47.0853ZM137.574 44.2885L138.275 45.2445L138.278 45.2425L137.574 44.2885ZM137.574 27.444L136.863 28.3925L136.872 28.3991L136.881 28.4056L137.574 27.444ZM113.038 24.5836V23.398H111.853V24.5836H113.038ZM172.28 96.8144H144.439V99.1856H172.28V96.8144ZM145.466 97.4078L127.287 65.8801L125.233 67.0645L143.412 98.5922L145.466 97.4078ZM126.26 65.2867H113.038V67.6579H126.26V65.2867ZM111.853 66.4723V98H114.224V66.4723H111.853ZM113.038 96.8144H87.8672V99.1856H113.038V96.8144ZM89.0528 98V2.65409H86.6816V98H89.0528ZM87.8672 3.83969H128.167V1.46849H87.8672V3.83969ZM128.167 3.83969C136.316 3.83969 143.182 5.07323 148.801 7.49327L149.739 5.31544C143.747 2.73512 136.544 1.46849 128.167 1.46849V3.83969ZM148.801 7.49327C154.414 9.91053 158.646 13.4088 161.555 17.9744L163.555 16.7003C160.362 11.689 155.737 7.89854 149.739 5.31544L148.801 7.49327ZM161.562 17.9847C164.507 22.5043 166.009 28.0111 166.009 34.5632H168.381C168.381 27.6397 166.789 21.6626 163.548 16.69L161.562 17.9847ZM166.009 34.5632C166.009 40.7045 164.692 45.9327 162.107 50.2947L164.147 51.5035C166.986 46.7124 168.381 41.0499 168.381 34.5632H166.009ZM162.107 50.2947C159.518 54.6629 155.772 58.1157 150.827 60.6498L151.908 62.7601C157.218 60.0396 161.311 56.2886 164.147 51.5035L162.107 50.2947ZM150.34 62.2969L171.253 98.5919L173.307 97.4081L152.395 61.1131L150.34 62.2969ZM113.038 48.2709H126.196V45.8997H113.038V48.2709ZM126.196 48.2709C131.352 48.2709 135.44 47.3237 138.275 45.2445L136.873 43.3324C134.623 44.9823 131.126 45.8997 126.196 45.8997V48.2709ZM138.278 45.2425C141.217 43.0741 142.637 39.871 142.637 35.8345H140.266C140.266 39.2561 139.101 41.689 136.87 43.3344L138.278 45.2425ZM142.637 35.8345C142.637 31.7983 141.217 28.6098 138.268 26.4825L136.881 28.4056C139.101 30.0073 140.266 32.4124 140.266 35.8345H142.637ZM138.286 26.4955C135.449 24.3679 131.356 23.398 126.196 23.398V25.7692C131.122 25.7692 134.615 26.7063 136.863 28.3925L138.286 26.4955ZM126.196 23.398H113.038V25.7692H126.196V23.398ZM111.853 24.5836V47.0853H114.224V24.5836H111.853ZM179.908 98H178.722V99.1856H179.908V98ZM179.908 2.65409V1.46849H178.722V2.65409H179.908ZM205.079 2.65409H206.265V1.46849H205.079V2.65409ZM205.079 98V99.1856H206.265V98H205.079ZM181.093 98V2.65409H178.722V98H181.093ZM179.908 3.83969H205.079V1.46849H179.908V3.83969ZM203.893 2.65409V98H206.265V2.65409H203.893ZM205.079 96.8144H179.908V99.1856H205.079V96.8144ZM301.76 86.1771L302.582 87.0314L303.454 86.1919L302.597 85.3373L301.76 86.1771ZM285.805 96.2838L285.372 95.1804L285.369 95.1814L285.805 96.2838ZM245.696 96.2202L245.25 97.3184L245.259 97.3221L245.696 96.2202ZM229.615 85.7957L228.78 86.638L228.788 86.6458L229.615 85.7957ZM219 70.0319L217.905 70.4868L217.907 70.4933L219 70.0319ZM219 30.6222L217.907 30.1608L217.905 30.1673L219 30.6222ZM229.615 14.9219L230.445 15.7681L230.445 15.7681L229.615 14.9219ZM245.696 4.49744L246.137 5.59825L246.141 5.59668L245.696 4.49744ZM285.678 4.43388L285.233 5.53259L285.242 5.53625L285.678 4.43388ZM301.569 14.5405L302.411 15.3759L303.259 14.5212L302.391 13.6862L301.569 14.5405ZM284.026 32.2113L283.074 32.9183L283.896 34.0248L284.867 33.0466L284.026 32.2113ZM275.889 25.2193L275.331 26.2654L275.337 26.2684L275.889 25.2193ZM247.985 30.6222L247.103 29.8299L247.095 29.8383L247.985 30.6222ZM242.836 39.394L241.723 38.9855L242.836 39.394ZM242.836 61.1965L241.723 61.605L242.836 61.1965ZM247.985 70.0319L247.089 70.8083L247.096 70.8163L247.103 70.8242L247.985 70.0319ZM283.962 68.4428L284.799 67.6029L283.828 66.6353L283.01 67.7358L283.962 68.4428ZM300.938 85.3228C296.564 89.5312 291.38 92.8183 285.372 95.1804L286.239 97.3872C292.519 94.9184 297.972 91.4677 302.582 87.0314L300.938 85.3228ZM285.369 95.1814C279.419 97.5367 272.915 98.7213 265.846 98.7213V101.093C273.185 101.093 279.988 99.8617 286.242 97.3862L285.369 95.1814ZM265.846 98.7213C258.737 98.7213 252.17 97.5161 246.134 95.1184L245.259 97.3221C251.597 99.8399 258.463 101.093 265.846 101.093V98.7213ZM246.143 95.122C240.134 92.6771 234.904 89.2846 230.441 84.9456L228.788 86.6458C233.479 91.2058 238.969 94.763 245.25 97.3184L246.143 95.122ZM230.449 84.9534C226.027 80.5731 222.576 75.4487 220.092 69.5704L217.907 70.4933C220.509 76.6498 224.134 82.0347 228.78 86.638L230.449 84.9534ZM220.094 69.577C217.659 63.7166 216.435 57.3046 216.435 50.327H214.064C214.064 57.5878 215.339 64.3124 217.905 70.4868L220.094 69.577ZM216.435 50.327C216.435 43.3495 217.659 36.9375 220.094 31.0771L217.905 30.1673C215.339 36.3417 214.064 43.0663 214.064 50.327H216.435ZM220.092 31.0837C222.575 25.2064 226.026 20.1048 230.445 15.7681L228.784 14.0757C224.135 18.638 220.509 24.0033 217.907 30.1608L220.092 31.0837ZM230.445 15.7681C234.906 11.3896 240.133 7.99971 246.137 5.59824L245.256 3.39664C238.971 5.91078 233.476 9.47054 228.784 14.0758L230.445 15.7681ZM246.141 5.59668C252.175 3.15827 258.739 1.93277 265.846 1.93277V-0.438435C258.461 -0.438435 251.592 0.836246 245.252 3.3982L246.141 5.59668ZM265.846 1.93277C272.87 1.93277 279.327 3.13739 285.233 5.53255L286.124 3.33521C279.91 0.814747 273.146 -0.438435 265.846 -0.438435V1.93277ZM285.242 5.53625C291.208 7.89793 296.372 11.1851 300.747 15.3949L302.391 13.6862C297.782 9.25129 292.352 5.80068 286.115 3.3315L285.242 5.53625ZM300.728 13.7052L283.184 31.376L284.867 33.0466L302.411 15.3759L300.728 13.7052ZM284.977 31.5043C282.669 28.3977 279.822 25.9492 276.442 24.1701L275.337 26.2684C278.398 27.8795 280.974 30.0923 283.074 32.9183L284.977 31.5043ZM276.447 24.1732C273.089 22.3822 269.421 21.4911 265.465 21.4911V23.8623C269.051 23.8623 272.333 24.6663 275.331 26.2654L276.447 24.1732ZM265.465 21.4911C261.826 21.4911 258.431 22.2246 255.298 23.7019L256.309 25.8467C259.108 24.5273 262.154 23.8623 265.465 23.8623V21.4911ZM255.298 23.7019C252.185 25.1694 249.452 27.2152 247.103 29.8299L248.867 31.4145C251.01 29.0289 253.489 27.1761 256.309 25.8467L255.298 23.7019ZM247.095 29.8383C244.788 32.4562 242.999 35.5096 241.723 38.9855L243.949 39.8026C245.131 36.5831 246.774 33.7886 248.874 31.4061L247.095 29.8383ZM241.723 38.9855C240.442 42.4757 239.807 46.2385 239.807 50.2635H242.178C242.178 46.4913 242.772 43.0078 243.949 39.8026L241.723 38.9855ZM239.807 50.2635C239.807 54.3292 240.441 58.1134 241.723 61.605L243.949 60.7879C242.773 57.5841 242.178 54.0797 242.178 50.2635H239.807ZM241.723 61.605C242.998 65.0794 244.786 68.1509 247.089 70.8083L248.881 69.2554C246.777 66.8277 245.131 64.009 243.949 60.7879L241.723 61.605ZM247.103 70.8242C249.452 73.4389 252.185 75.4847 255.298 76.9521L256.309 74.8073C253.489 73.478 251.01 71.6252 248.867 69.2396L247.103 70.8242ZM255.298 76.9521C258.431 78.4295 261.826 79.163 265.465 79.163V76.7918C262.154 76.7918 259.108 76.1268 256.309 74.8073L255.298 76.9521ZM265.465 79.163C269.421 79.163 273.089 78.2719 276.447 76.4809L275.331 74.3887C272.333 75.9878 269.051 76.7918 265.465 76.7918V79.163ZM276.447 76.4809C279.784 74.7012 282.608 72.2531 284.914 69.1498L283.01 67.7358C280.908 70.5651 278.351 72.7783 275.331 74.3887L276.447 76.4809ZM283.125 69.2826L300.923 87.017L302.597 85.3373L284.799 67.6029L283.125 69.2826ZM311.358 98H310.172V99.1856H311.358V98ZM311.358 2.65409V1.46849H310.172V2.65409H311.358ZM336.529 2.65409H337.715V1.46849H336.529V2.65409ZM336.529 98V99.1856H337.715V98H336.529ZM312.544 98V2.65409H310.172V98H312.544ZM311.358 3.83969H336.529V1.46849H311.358V3.83969ZM335.344 2.65409V98H337.715V2.65409H335.344ZM336.529 96.8144H311.358V99.1856H336.529V96.8144ZM438.359 98V99.1856H439.544V98H438.359ZM408.738 98L407.724 98.615L408.071 99.1856H408.738V98ZM374.413 41.4281L375.427 40.8131L373.228 37.1885V41.4281H374.413ZM374.413 98V99.1856H375.599V98H374.413ZM349.242 98H348.057V99.1856H349.242V98ZM349.242 2.65409V1.46849H348.057V2.65409H349.242ZM378.863 2.65409L379.877 2.0406L379.531 1.46849H378.863V2.65409ZM413.187 59.4167L412.173 60.0302L414.373 63.6685V59.4167H413.187ZM413.187 2.65409V1.46849H412.002V2.65409H413.187ZM438.359 2.65409H439.544V1.46849H438.359V2.65409ZM438.359 96.8144H408.738V99.1856H438.359V96.8144ZM409.752 97.385L375.427 40.8131L373.4 42.0431L407.724 98.615L409.752 97.385ZM373.228 41.4281V98H375.599V41.4281H373.228ZM374.413 96.8144H349.242V99.1856H374.413V96.8144ZM350.428 98V2.65409H348.057V98H350.428ZM349.242 3.83969H378.863V1.46849H349.242V3.83969ZM377.848 3.26758L412.173 60.0302L414.202 58.8032L379.877 2.0406L377.848 3.26758ZM414.373 59.4167V2.65409H412.002V59.4167H414.373ZM413.187 3.83969H438.359V1.46849H413.187V3.83969ZM437.173 2.65409V98H439.544V2.65409H437.173ZM517.75 30.1773L516.897 31.0002L517.735 31.8693L518.588 31.0156L517.75 30.1773ZM488.638 24.5836L489.092 25.679L489.099 25.6758L488.638 24.5836ZM480.947 29.9866L480.07 29.1882L480.062 29.197L480.947 29.9866ZM475.989 38.5042L474.873 38.1036L474.868 38.1163L475.989 38.5042ZM476.116 61.26L474.998 61.6553L476.116 61.26ZM481.392 70.2225L480.517 71.0231L480.524 71.0304L481.392 70.2225ZM489.528 75.9433L489.057 77.0315L489.062 77.0338L489.528 75.9433ZM507.961 76.8332L508.324 77.9619L507.961 76.8332ZM518.894 67.9978L519.916 68.599L519.921 68.5903L518.894 67.9978ZM521.818 60.4973L522.97 60.7766L523.326 59.3117H521.818V60.4973ZM498.999 60.4973H497.813V61.6829H498.999V60.4973ZM498.999 41.4281V40.2425H497.813V41.4281H498.999ZM543.938 41.4281L545.121 41.3419L545.041 40.2425H543.938V41.4281ZM544.638 51.0262H545.823V50.9831L545.82 50.9401L544.638 51.0262ZM541.332 70.9218L540.219 70.5141L540.217 70.5185L541.332 70.9218ZM517.623 96.4109L518.082 97.5041L518.086 97.5023L517.623 96.4109ZM479.167 96.1566L478.711 97.2511L478.72 97.2548L479.167 96.1566ZM463.085 85.605L462.251 86.4473L462.259 86.455L463.085 85.605ZM452.343 69.7141L451.25 70.1728L451.252 70.1792L452.343 69.7141ZM478.468 4.49744L478.013 3.40258L478.01 3.40373L478.468 4.49744ZM533.959 13.9685L534.797 14.8068L535.704 13.9002L534.729 13.0672L533.959 13.9685ZM518.604 29.3543C516.189 26.8504 513.247 24.9164 509.798 23.5454L508.922 25.749C512.083 27.0053 514.734 28.758 516.897 31.0002L518.604 29.3543ZM509.798 23.5454C506.343 22.1725 502.634 21.4911 498.681 21.4911V23.8623C502.356 23.8623 505.766 24.4946 508.922 25.749L509.798 23.5454ZM498.681 21.4911C494.856 21.4911 491.349 22.1511 488.176 23.4915L489.099 25.6758C491.944 24.4736 495.132 23.8623 498.681 23.8623V21.4911ZM488.184 23.4883C485.057 24.7839 482.349 26.6863 480.07 29.1883L481.823 30.7849C483.867 28.5408 486.286 26.8412 489.092 25.679L488.184 23.4883ZM480.062 29.197C477.832 31.6949 476.105 34.6698 474.873 38.1036L477.104 38.9047C478.245 35.7278 479.824 33.0244 481.831 30.7762L480.062 29.197ZM474.868 38.1163C473.674 41.5673 473.087 45.4306 473.087 49.6914H475.458C475.458 45.6465 476.015 42.0517 477.109 38.892L474.868 38.1163ZM473.087 49.6914C473.087 54.0438 473.718 58.0361 474.998 61.6553L477.234 60.8647C476.056 57.5343 475.458 53.8142 475.458 49.6914H473.087ZM474.998 61.6553C476.275 65.2669 478.112 68.3956 480.517 71.023L482.266 69.4221C480.094 67.0492 478.414 64.2028 477.234 60.8647L474.998 61.6553ZM480.524 71.0304C482.926 73.6102 485.774 75.6116 489.057 77.0315L489.998 74.8551C487.01 73.5629 484.434 71.7505 482.259 69.4147L480.524 71.0304ZM489.062 77.0338C492.404 78.4595 496.082 79.163 500.079 79.163V76.7918C496.365 76.7918 493.008 76.1392 489.993 74.8528L489.062 77.0338ZM500.079 79.163C503.065 79.163 505.817 78.7677 508.324 77.9619L507.598 75.7045C505.359 76.4242 502.857 76.7918 500.079 76.7918V79.163ZM508.324 77.9619C510.829 77.1568 513.059 75.9657 515.003 74.3838L513.506 72.5448C511.805 73.9293 509.84 74.9841 507.598 75.7045L508.324 77.9619ZM515.003 74.3838C516.941 72.8058 518.578 70.8734 519.916 68.5989L517.872 67.3967C516.668 69.4445 515.211 71.1565 513.506 72.5448L515.003 74.3838ZM519.921 68.5903C521.256 66.277 522.269 63.6691 522.97 60.7766L520.666 60.2179C520.011 62.9191 519.075 65.3115 517.867 67.4053L519.921 68.5903ZM521.818 59.3117H498.999V61.6829H521.818V59.3117ZM500.184 60.4973V41.4281H497.813V60.4973H500.184ZM498.999 42.6137H543.938V40.2425H498.999V42.6137ZM542.756 41.5142L543.455 51.1124L545.82 50.9401L545.121 41.3419L542.756 41.5142ZM543.452 51.0262C543.452 58.1515 542.369 64.6432 540.219 70.5141L542.446 71.3295C544.703 65.1656 545.823 58.3936 545.823 51.0262H543.452ZM540.217 70.5185C538.106 76.3548 535.093 81.3629 531.184 85.5598L532.92 87.1758C537.062 82.728 540.236 77.4387 542.447 71.325L540.217 70.5185ZM531.184 85.5598C527.275 89.7567 522.605 93.0095 517.16 95.3195L518.086 97.5023C523.828 95.0662 528.777 91.6236 532.92 87.1758L531.184 85.5598ZM517.164 95.3177C511.776 97.5798 505.748 98.7213 499.062 98.7213V101.093C506.022 101.093 512.367 99.9034 518.082 97.5041L517.164 95.3177ZM499.062 98.7213C492.085 98.7213 485.606 97.4968 479.614 95.0585L478.72 97.2548C485.016 99.8169 491.801 101.093 499.062 101.093V98.7213ZM479.623 95.0622C473.655 92.5756 468.421 89.1401 463.912 84.7551L462.259 86.455C466.987 91.0537 472.474 94.6526 478.711 97.2511L479.623 95.0622ZM463.92 84.7628C459.454 80.339 455.959 75.1708 453.433 69.2489L451.252 70.1792C453.896 76.3768 457.563 81.8026 462.251 86.4473L463.92 84.7628ZM453.436 69.2553C450.959 63.3508 449.715 56.9609 449.715 50.0728H447.343C447.343 57.2535 448.642 63.9577 451.25 70.1728L453.436 69.2553ZM449.715 50.0728C449.715 43.2687 450.938 36.9632 453.373 31.1434L451.186 30.2281C448.62 36.3584 447.343 42.9776 447.343 50.0728H449.715ZM453.373 31.1434C455.815 25.3079 459.225 20.2044 463.606 15.8238L461.929 14.1471C457.326 18.7502 453.744 24.1137 451.186 30.2281L453.373 31.1434ZM463.606 15.8238C467.986 11.4432 473.09 8.03298 478.925 5.59115L478.01 3.40373C471.896 5.96226 466.532 9.54404 461.929 14.1471L463.606 15.8238ZM478.922 5.59229C484.785 3.15629 491.134 1.93277 497.982 1.93277V-0.438435C490.845 -0.438435 484.185 0.838226 478.013 3.40258L478.922 5.59229ZM497.982 1.93277C504.409 1.93277 510.669 3.0518 516.769 5.29251L517.587 3.06673C511.228 0.730843 504.691 -0.438435 497.982 -0.438435V1.93277ZM516.769 5.29251C522.869 7.53315 528.339 10.7252 533.189 14.8697L534.729 13.0672C529.662 8.73656 523.946 5.40269 517.587 3.06673L516.769 5.29251ZM533.121 13.1301L516.912 29.3389L518.588 31.0156L534.797 14.8068L533.121 13.1301Z" fill="black" fill-opacity="0.15" mask="url(#path-1-outside-1_83_541)"/>
</svg>
