<svg width="356" height="177" viewBox="0 0 356 177" fill="none" xmlns="http://www.w3.org/2000/svg">
<g filter="url(#filter0_d_1499_9384)">
<g clip-path="url(#clip0_1499_9384)">
<rect x="19.5127" width="317.256" height="176.635" rx="16" fill="url(#paint0_linear_1499_9384)"/>
<path d="M58.2217 68.8172C57.6732 68.8172 57.1058 68.7983 56.5194 68.7605C55.952 68.7415 55.3656 68.7037 54.7604 68.647C54.174 68.5713 53.6162 68.4957 53.0865 68.42C52.5569 68.3255 52.0746 68.2214 51.6396 68.1079V64.7885C52.207 64.8453 52.8501 64.8926 53.5688 64.9304C54.2875 64.9682 55.0347 64.9966 55.8101 65.0155C56.5856 65.0345 57.3232 65.0439 58.0231 65.0439C58.7418 65.0439 59.3565 64.9871 59.8672 64.8737C60.3968 64.7412 60.8034 64.5238 61.0871 64.2211C61.3708 63.8996 61.5127 63.4645 61.5127 62.9161V62.15C61.5127 61.5259 61.3235 61.053 60.9453 60.7315C60.5859 60.3911 60.0658 60.2208 59.3849 60.2208H57.5975C55.5926 60.2208 54.0511 59.7858 52.973 58.9158C51.9139 58.0269 51.3843 56.5232 51.3843 54.4048V53.3834C51.3843 51.3407 51.9706 49.8465 53.1433 48.9008C54.3159 47.9552 55.9898 47.4823 58.1649 47.4823C58.9404 47.4823 59.7064 47.5201 60.463 47.5958C61.2384 47.6715 61.976 47.766 62.6759 47.8795C63.3946 47.974 64.0093 48.0781 64.52 48.1916V51.511C63.6499 51.4542 62.6759 51.3975 61.5978 51.3407C60.5386 51.284 59.5551 51.2556 58.6472 51.2556C58.0041 51.2556 57.4273 51.3218 56.9166 51.4542C56.4249 51.5677 56.0465 51.7947 55.7818 52.1351C55.517 52.4756 55.3846 52.9579 55.3846 53.582V54.1495C55.3846 54.8871 55.5926 55.4167 56.0087 55.7382C56.4249 56.0597 57.0395 56.2205 57.8528 56.2205H59.9239C61.1912 56.2205 62.2314 56.4569 63.0447 56.9298C63.8769 57.3837 64.4916 58.0173 64.8888 58.8307C65.305 59.644 65.513 60.5707 65.513 61.611V62.8026C65.513 64.4481 65.2009 65.7058 64.5767 66.5759C63.9715 67.446 63.1204 68.0418 62.0234 68.3633C60.9453 68.6659 59.678 68.8172 58.2217 68.8172ZM72.7154 68.8172C71.3536 68.8172 70.285 68.42 69.5095 67.6256C68.734 66.8123 68.3463 65.668 68.3463 64.1927V53.4118H72.5452V62.9444C72.5452 63.7956 72.7438 64.3724 73.141 64.6751C73.557 64.9588 74.0961 65.1006 74.7581 65.1006C75.2877 65.1006 75.8267 65.0061 76.3753 64.8169C76.9427 64.6089 77.4438 64.3346 77.8789 63.9942V53.4118H82.1062V68.647H78.6166L77.8789 67.0866C77.198 67.5405 76.4131 67.9471 75.5241 68.3065C74.6351 68.647 73.6989 68.8172 72.7154 68.8172ZM93.9007 68.8172C93.2387 68.8172 92.6429 68.7415 92.1133 68.5902C91.5838 68.439 91.1015 68.2404 90.6664 67.9945C90.2504 67.7485 89.8532 67.4838 89.4748 67.2001L88.7939 68.647H85.2759V47H89.4748V54.4615C90.0801 54.14 90.761 53.8468 91.5175 53.582C92.2741 53.3173 93.0023 53.1848 93.7021 53.1848C95.0071 53.1848 96.0474 53.4591 96.8233 54.0076C97.6177 54.5561 98.1942 55.4167 98.5539 56.5894C98.9126 57.7431 99.093 59.2752 99.093 61.1854C99.093 62.8877 98.9035 64.3062 98.5255 65.4411C98.1658 66.5759 97.5984 67.427 96.8233 67.9945C96.0664 68.5429 95.0923 68.8172 93.9007 68.8172ZM92.3403 65.3843C92.8321 65.3843 93.2671 65.2614 93.6453 65.0155C94.0425 64.7507 94.3452 64.2968 94.5532 63.6537C94.7802 63.0106 94.8937 62.1217 94.8937 60.9868C94.8937 59.6628 94.7708 58.6982 94.5248 58.093C94.2979 57.4689 93.9858 57.0622 93.5886 56.8731C93.2104 56.665 92.7942 56.561 92.3403 56.561C91.7729 56.561 91.2433 56.6555 90.7515 56.8447C90.2787 57.0149 89.8532 57.2041 89.4748 57.4121V64.6467C89.8342 64.8359 90.2408 65.0061 90.6948 65.1574C91.1677 65.3086 91.7161 65.3843 92.3403 65.3843ZM107.405 68.8172C106.931 68.8172 106.421 68.7983 105.873 68.7605C105.323 68.7415 104.775 68.7037 104.227 68.647C103.678 68.5902 103.167 68.5241 102.695 68.4484C102.222 68.3538 101.825 68.2498 101.503 68.1363V65.668H108.256C108.653 65.668 108.974 65.6397 109.22 65.5829C109.485 65.5072 109.674 65.3843 109.788 65.2141C109.919 65.0249 109.986 64.7602 109.986 64.4197V63.9374C109.986 63.5592 109.863 63.2659 109.618 63.0579C109.371 62.8499 108.917 62.7458 108.256 62.7458H105.873C105.002 62.7458 104.217 62.6134 103.518 62.3486C102.818 62.0839 102.259 61.6488 101.844 61.0436C101.447 60.4384 101.248 59.625 101.248 58.6037V57.7242C101.248 56.7596 101.437 55.9462 101.816 55.2843C102.193 54.6223 102.827 54.1211 103.716 53.7806C104.605 53.4402 105.825 53.27 107.376 53.27C108 53.27 108.662 53.3078 109.362 53.3834C110.081 53.4402 110.752 53.5253 111.377 53.6388C112.019 53.7333 112.53 53.8468 112.909 53.9792V56.4475H106.525C105.976 56.4475 105.56 56.542 105.277 56.7312C104.993 56.9014 104.851 57.2325 104.851 57.7242V58.1781C104.851 58.5186 104.917 58.7739 105.05 58.9441C105.182 59.0954 105.38 59.2089 105.646 59.2846C105.929 59.3413 106.279 59.3697 106.695 59.3697H109.135C110.685 59.3697 111.811 59.7291 112.511 60.4478C113.23 61.1476 113.589 62.1217 113.589 63.37V64.7318C113.589 65.7532 113.343 66.5665 112.852 67.1717C112.379 67.7581 111.678 68.1836 110.752 68.4484C109.845 68.6943 108.728 68.8172 107.405 68.8172ZM122.125 68.8172C121.199 68.8172 120.338 68.6943 119.543 68.4484C118.768 68.2025 118.096 67.7959 117.529 67.2284C116.962 66.6421 116.518 65.8572 116.196 64.8737C115.894 63.8713 115.742 62.6134 115.742 61.1003C115.742 59.5494 115.883 58.2632 116.167 57.2419C116.451 56.2205 116.867 55.4167 117.415 54.8304C117.983 54.2251 118.674 53.7996 119.487 53.5537C120.3 53.3078 121.217 53.1848 122.239 53.1848C123.166 53.1848 124.045 53.2416 124.877 53.3551C125.728 53.4496 126.618 53.6294 127.544 53.8941V56.3056H123.544C122.674 56.3056 121.974 56.4381 121.444 56.7028C120.915 56.9488 120.527 57.4215 120.281 58.1214C120.054 58.8023 119.94 59.7858 119.94 61.072C119.94 62.3392 120.054 63.3038 120.281 63.9658C120.527 64.6277 120.915 65.0722 121.444 65.2992C121.993 65.5262 122.712 65.6397 123.6 65.6397H127.771V68.0228C127.299 68.1741 126.75 68.316 126.125 68.4484C125.501 68.5619 124.84 68.647 124.139 68.7037C123.458 68.7794 122.788 68.8172 122.125 68.8172ZM130.104 68.647V53.4118H133.339L134.303 55.7382C134.851 55.0384 135.466 54.4426 136.147 53.9509C136.846 53.4591 137.669 53.2132 138.616 53.2132C138.823 53.2132 139.031 53.2226 139.24 53.2416C139.467 53.2605 139.674 53.2983 139.864 53.3551V57.6675C139.58 57.6297 139.277 57.6013 138.956 57.5823C138.653 57.5445 138.36 57.5256 138.077 57.5256C137.527 57.5256 137.027 57.5918 136.573 57.7242C136.137 57.8377 135.731 58.0173 135.353 58.2632C134.993 58.4902 134.644 58.7929 134.303 59.1711V68.647H130.104ZM142.612 51.1705C142.215 51.1705 142.016 50.9813 142.016 50.6031V47.8228C142.016 47.4256 142.215 47.227 142.612 47.227H145.846C146.016 47.227 146.148 47.2837 146.243 47.3972C146.338 47.5107 146.385 47.6525 146.385 47.8228V50.6031C146.385 50.9813 146.205 51.1705 145.846 51.1705H142.612ZM142.101 68.647V53.4118H146.3V68.647H142.101ZM149.526 75.3709V53.4118H153.044L153.725 54.8587C154.084 54.575 154.481 54.3103 154.917 54.0643C155.351 53.7996 155.825 53.5915 156.335 53.4402C156.846 53.27 157.385 53.1848 157.952 53.1848C158.879 53.1848 159.683 53.3645 160.364 53.7239C161.063 54.0833 161.63 54.6034 162.066 55.2843C162.501 55.9652 162.822 56.7974 163.031 57.7809C163.239 58.7455 163.343 59.8331 163.343 61.0436C163.343 62.6701 163.182 64.0698 162.861 65.2425C162.538 66.4151 161.981 67.3136 161.187 67.9377C160.411 68.5429 159.332 68.8456 157.952 68.8456C157.233 68.8456 156.495 68.7605 155.739 68.5902C155.002 68.42 154.33 68.1741 153.725 67.8526V75.3709H149.526ZM156.591 65.3843C157.025 65.3843 157.442 65.2708 157.839 65.0439C158.236 64.798 158.548 64.363 158.775 63.7388C159.02 63.1147 159.144 62.2162 159.144 61.0436C159.144 59.9088 159.03 59.0198 158.804 58.3767C158.595 57.7148 158.302 57.2513 157.924 56.9865C157.545 56.7028 157.101 56.561 156.591 56.561C156.004 56.561 155.465 56.6555 154.973 56.8447C154.481 57.0339 154.066 57.2229 153.725 57.4121V64.6467C154.103 64.8737 154.548 65.0533 155.059 65.1857C155.569 65.3182 156.08 65.3843 156.591 65.3843ZM171.91 68.647C170.737 68.647 169.782 68.4768 169.044 68.1363C168.325 67.7959 167.805 67.2284 167.484 66.4341C167.162 65.6397 167.02 64.571 167.058 63.2281L167.2 56.7879H164.817V54.0927L167.342 53.4118L167.91 49.1562H171.229V53.4118H174.804V56.7879H171.229V63.1998C171.229 63.6159 171.266 63.9564 171.342 64.2211C171.417 64.4859 171.522 64.7034 171.655 64.8737C171.805 65.0249 171.976 65.1384 172.165 65.2141C172.354 65.2898 172.543 65.337 172.733 65.356L174.662 65.5262V68.647H171.91ZM177.66 51.1705C177.263 51.1705 177.064 50.9813 177.064 50.6031V47.8228C177.064 47.4256 177.263 47.227 177.66 47.227H180.894C181.065 47.227 181.196 47.2837 181.291 47.3972C181.386 47.5107 181.433 47.6525 181.433 47.8228V50.6031C181.433 50.9813 181.253 51.1705 180.894 51.1705H177.66ZM177.149 68.647V53.4118H181.348V68.647H177.149ZM191.1 68.7888C189.851 68.7888 188.782 68.6659 187.894 68.42C187.004 68.1553 186.277 67.7202 185.709 67.115C185.16 66.5097 184.754 65.7058 184.489 64.7034C184.243 63.701 184.12 62.4621 184.12 60.9868C184.12 59.4359 184.243 58.1592 184.489 57.1568C184.754 56.1354 185.16 55.341 185.709 54.7736C186.277 54.1873 187.004 53.7806 187.894 53.5537C188.802 53.3078 189.87 53.1848 191.1 53.1848C192.366 53.1848 193.444 53.3078 194.334 53.5537C195.223 53.7996 195.941 54.2156 196.49 54.802C197.058 55.3694 197.464 56.1638 197.71 57.1851C197.975 58.1876 198.107 59.4548 198.107 60.9868C198.107 62.4999 197.984 63.7672 197.739 64.7885C197.492 65.7909 197.095 66.5853 196.547 67.1717C195.998 67.7581 195.27 68.1741 194.362 68.42C193.473 68.6659 192.386 68.7888 191.1 68.7888ZM191.1 65.4411C191.61 65.4411 192.036 65.3938 192.376 65.2992C192.735 65.2047 193.019 65.0155 193.228 64.7318C193.454 64.4291 193.625 63.9752 193.738 63.37C193.852 62.7648 193.908 61.9704 193.908 60.9868C193.908 59.9844 193.852 59.1901 193.738 58.6037C193.625 57.9985 193.454 57.554 193.228 57.2703C193.019 56.9676 192.735 56.769 192.376 56.6745C192.036 56.5799 191.61 56.5326 191.1 56.5326C190.607 56.5326 190.182 56.5799 189.823 56.6745C189.483 56.769 189.199 56.9676 188.972 57.2703C188.745 57.554 188.575 57.9985 188.461 58.6037C188.366 59.1901 188.319 59.9844 188.319 60.9868C188.319 61.9704 188.366 62.7648 188.461 63.37C188.575 63.9752 188.745 64.4291 188.972 64.7318C189.199 65.0155 189.483 65.2047 189.823 65.2992C190.182 65.3938 190.607 65.4411 191.1 65.4411ZM200.893 68.647V53.4118H204.354L205.092 54.9722C205.659 54.4993 206.368 54.0833 207.219 53.7239C208.09 53.3457 208.978 53.1565 209.886 53.1565C211.135 53.1565 212.099 53.4024 212.78 53.8941C213.461 54.3859 213.934 55.0479 214.199 55.8801C214.482 56.6934 214.624 57.6013 214.624 58.6037V68.647H210.425V59.1427C210.425 58.651 210.331 58.2443 210.142 57.9228C209.971 57.6013 209.725 57.3554 209.404 57.1851C209.083 57.0149 208.695 56.9298 208.241 56.9298C207.844 56.9298 207.456 56.9771 207.078 57.0717C206.718 57.1662 206.368 57.2986 206.028 57.4689C205.707 57.6391 205.395 57.8377 205.092 58.0646V68.647H200.893ZM224.711 68.647L227.151 47.6525H231.18L236.003 63.7388L240.797 47.6525H244.798L247.266 68.647H243.209L241.393 53.1848L242.046 53.2416L237.932 68.647H233.988L229.818 53.2416L230.527 53.2132L228.768 68.647H224.711ZM256.375 68.7888C255.127 68.7888 254.058 68.6659 253.169 68.42C252.279 68.1553 251.552 67.7202 250.985 67.115C250.435 66.5097 250.029 65.7058 249.765 64.7034C249.518 63.701 249.396 62.4621 249.396 60.9868C249.396 59.4359 249.518 58.1592 249.765 57.1568C250.029 56.1354 250.435 55.341 250.985 54.7736C251.552 54.1873 252.279 53.7806 253.169 53.5537C254.077 53.3078 255.145 53.1848 256.375 53.1848C257.642 53.1848 258.72 53.3078 259.609 53.5537C260.498 53.7996 261.216 54.2156 261.766 54.802C262.333 55.3694 262.739 56.1638 262.985 57.1851C263.25 58.1876 263.383 59.4548 263.383 60.9868C263.383 62.4999 263.259 63.7672 263.014 64.7885C262.768 65.7909 262.37 66.5853 261.822 67.1717C261.273 67.7581 260.546 68.1741 259.638 68.42C258.748 68.6659 257.661 68.7888 256.375 68.7888ZM256.375 65.4411C256.886 65.4411 257.311 65.3938 257.652 65.2992C258.01 65.2047 258.294 65.0155 258.503 64.7318C258.73 64.4291 258.9 63.9752 259.014 63.37C259.127 62.7648 259.184 61.9704 259.184 60.9868C259.184 59.9844 259.127 59.1901 259.014 58.6037C258.9 57.9985 258.73 57.554 258.503 57.2703C258.294 56.9676 258.01 56.769 257.652 56.6745C257.311 56.5799 256.886 56.5326 256.375 56.5326C255.883 56.5326 255.457 56.5799 255.098 56.6745C254.758 56.769 254.474 56.9676 254.247 57.2703C254.02 57.554 253.85 57.9985 253.737 58.6037C253.641 59.1901 253.595 59.9844 253.595 60.9868C253.595 61.9704 253.641 62.7648 253.737 63.37C253.85 63.9752 254.02 64.4291 254.247 64.7318C254.474 65.0155 254.758 65.2047 255.098 65.2992C255.457 65.3938 255.883 65.4411 256.375 65.4411ZM271.161 68.8172C269.97 68.8172 268.968 68.5713 268.154 68.0796C267.34 67.5689 266.726 66.7556 266.31 65.6397C265.913 64.5048 265.714 63.0201 265.714 61.1854C265.714 59.294 265.884 57.762 266.225 56.5894C266.585 55.4167 267.18 54.5561 268.012 54.0076C268.844 53.4591 269.989 53.1848 271.445 53.1848C272.145 53.1848 272.835 53.2605 273.516 53.4118C274.197 53.5442 274.802 53.705 275.332 53.8941V47H279.559V68.647H276.013L275.332 67.2001C275.011 67.5027 274.613 67.7769 274.14 68.0228C273.686 68.2687 273.204 68.4673 272.693 68.6186C272.183 68.751 271.672 68.8172 271.161 68.8172ZM272.637 65.4411C273.204 65.4411 273.715 65.3465 274.169 65.1574C274.642 64.9682 275.029 64.7791 275.332 64.5899V56.9298C274.954 56.7974 274.557 56.665 274.14 56.5326C273.724 56.4002 273.28 56.334 272.807 56.334C272.107 56.334 271.539 56.4569 271.105 56.7028C270.688 56.9488 270.386 57.4121 270.197 58.093C270.007 58.755 269.913 59.7196 269.913 60.9868C269.913 62.1595 269.998 63.0769 270.168 63.7388C270.358 64.3819 270.651 64.8263 271.048 65.0722C271.445 65.3182 271.975 65.4411 272.637 65.4411ZM289.12 68.7888C287.437 68.7888 286.095 68.5713 285.091 68.1363C284.089 67.6824 283.361 66.888 282.907 65.7531C282.472 64.6183 282.254 63.0485 282.254 61.0436C282.254 58.9819 282.463 57.3837 282.879 56.2489C283.295 55.1141 283.995 54.3197 284.978 53.8658C285.962 53.4118 287.295 53.1848 288.978 53.1848C290.492 53.1848 291.702 53.3361 292.61 53.6388C293.518 53.9414 294.17 54.471 294.567 55.2276C294.984 55.9841 295.191 57.0527 295.191 58.4335C295.191 59.4548 294.984 60.2682 294.567 60.8734C294.17 61.4597 293.603 61.8853 292.865 62.15C292.127 62.396 291.258 62.5189 290.255 62.5189H286.425C286.463 63.2943 286.577 63.9185 286.765 64.3913C286.974 64.8453 287.343 65.1763 287.872 65.3843C288.421 65.5735 289.205 65.668 290.227 65.668H294.681V68.1363C293.943 68.2876 293.131 68.439 292.241 68.5902C291.372 68.7227 290.331 68.7888 289.12 68.7888ZM286.368 60.0222H289.829C290.397 60.0222 290.813 59.9087 291.078 59.6818C291.343 59.4548 291.475 59.0482 291.475 58.4618C291.475 57.9134 291.39 57.4783 291.22 57.1568C291.049 56.8163 290.785 56.5799 290.425 56.4475C290.066 56.2962 289.584 56.2205 288.978 56.2205C288.336 56.2205 287.825 56.334 287.446 56.561C287.068 56.769 286.794 57.1474 286.623 57.6958C286.453 58.2443 286.368 59.0198 286.368 60.0222ZM302.713 68.7037C301.635 68.7037 300.737 68.5335 300.018 68.193C299.318 67.8336 298.798 67.2946 298.457 66.5759C298.117 65.8383 297.946 64.8926 297.946 63.7388V47H302.145V63.1147C302.145 63.6821 302.202 64.136 302.316 64.4765C302.429 64.798 302.599 65.0345 302.826 65.1857C303.072 65.337 303.375 65.4411 303.734 65.4978L304.897 65.668V68.7037H302.713Z" fill="white"/>
<path d="M71.2437 84.3711L285.038 84.3877" stroke="#D0D0D0" stroke-width="0.726765"/>
<path d="M80.624 104.477L84.2869 93.7788H85.7695L89.4324 104.477H88.2405L87.1648 101.424H82.8624L81.8159 104.477H80.624ZM83.1531 100.378H86.8741L85.0282 94.7961L83.1531 100.378ZM91.0287 104.477V96.7152H91.9299L92.1771 97.5724C92.5453 97.311 92.9765 97.083 93.4707 96.8895C93.9649 96.6858 94.4784 96.5845 95.0114 96.5845C95.5832 96.5845 96.0434 96.7051 96.3923 96.9473C96.7411 97.1894 96.9979 97.5096 97.1626 97.9068C97.3274 98.304 97.4098 98.7356 97.4098 99.2007V104.477H96.2615V99.3314C96.2615 99.0021 96.1937 98.7113 96.058 98.459C95.932 98.1976 95.7479 97.9939 95.5057 97.8491C95.273 97.7031 94.9823 97.6302 94.6335 97.6302C94.3138 97.6302 94.0134 97.6646 93.7323 97.7325C93.461 97.7903 93.1993 97.8774 92.9474 97.9939C92.7052 98.1003 92.4484 98.231 92.1771 98.3861V104.477H91.0287ZM99.5739 104.477V96.7152H100.475L100.722 97.5724C101.09 97.311 101.522 97.083 102.016 96.8895C102.51 96.6858 103.023 96.5845 103.556 96.5845C104.128 96.5845 104.589 96.7051 104.937 96.9473C105.286 97.1894 105.543 97.5096 105.708 97.9068C105.873 98.304 105.955 98.7356 105.955 99.2007V104.477H104.807V99.3314C104.807 99.0021 104.739 98.7113 104.603 98.459C104.477 98.1976 104.293 97.9939 104.051 97.8491C103.818 97.7031 103.527 97.6302 103.178 97.6302C102.859 97.6302 102.558 97.6646 102.278 97.7325C102.006 97.7903 101.745 97.8774 101.492 97.9939C101.25 98.1003 100.994 98.231 100.722 98.3861V104.477H99.5739ZM110.43 104.564C109.685 104.564 109.108 104.37 108.701 103.982C108.303 103.595 108.105 102.994 108.105 102.18V96.7152H109.253V101.89C109.253 102.538 109.398 102.979 109.689 103.212C109.99 103.435 110.406 103.547 110.939 103.547C111.395 103.547 111.811 103.484 112.189 103.357C112.567 103.222 112.954 103.038 113.351 102.805V96.7152H114.5V104.477H113.599L113.351 103.619C112.954 103.871 112.504 104.094 112 104.288C111.505 104.472 110.982 104.564 110.43 104.564ZM118.176 104.564C117.604 104.564 117.134 104.395 116.766 104.055C116.398 103.716 116.214 103.236 116.214 102.616V102.064C116.214 101.453 116.412 100.959 116.81 100.581C117.217 100.203 117.827 100.014 118.641 100.014H121.272V99.0548C121.272 98.7356 121.214 98.4641 121.098 98.2412C120.991 98.0081 120.793 97.8288 120.502 97.7031C120.22 97.5775 119.809 97.5147 119.266 97.5147H116.853V96.8307C117.193 96.773 117.585 96.7193 118.031 96.6717C118.486 96.623 119.019 96.5987 119.63 96.5987C120.26 96.5886 120.783 96.6666 121.199 96.8307C121.615 96.9959 121.921 97.2573 122.115 97.616C122.319 97.9646 122.42 98.4256 122.42 98.9971V104.477H121.533L121.316 103.59C121.277 103.629 121.155 103.696 120.952 103.794C120.758 103.89 120.506 104.001 120.196 104.128C119.896 104.244 119.567 104.346 119.208 104.433C118.859 104.52 118.515 104.564 118.176 104.564ZM118.656 103.707C118.83 103.716 119.029 103.696 119.252 103.648C119.475 103.6 119.702 103.547 119.935 103.489C120.168 103.421 120.38 103.353 120.574 103.285C120.778 103.217 120.943 103.158 121.068 103.111C121.194 103.062 121.262 103.038 121.272 103.038V100.596L118.903 100.697C118.351 100.717 117.953 100.852 117.71 101.105C117.478 101.357 117.362 101.681 117.362 102.078V102.427C117.362 102.737 117.425 102.989 117.551 103.183C117.686 103.367 117.851 103.498 118.045 103.576C118.248 103.653 118.452 103.696 118.656 103.707ZM126.62 104.491C126.174 104.491 125.801 104.414 125.5 104.259C125.2 104.094 124.972 103.832 124.817 103.474C124.662 103.106 124.585 102.611 124.585 101.991V93.3867H125.733V101.846C125.733 102.311 125.777 102.665 125.864 102.907C125.951 103.139 126.077 103.304 126.242 103.401C126.406 103.489 126.601 103.547 126.824 103.576L127.608 103.663V104.491H126.62ZM134.287 104.564C133.715 104.564 133.246 104.395 132.877 104.055C132.509 103.716 132.324 103.236 132.324 102.616V102.064C132.324 101.453 132.523 100.959 132.92 100.581C133.328 100.203 133.938 100.014 134.752 100.014H137.383V99.0548C137.383 98.7356 137.325 98.4641 137.208 98.2412C137.102 98.0081 136.903 97.8288 136.613 97.7031C136.332 97.5775 135.919 97.5147 135.377 97.5147H132.964V96.8307C133.303 96.773 133.695 96.7193 134.141 96.6717C134.597 96.623 135.13 96.5987 135.74 96.5987C136.37 96.5886 136.893 96.6666 137.311 96.8307C137.727 96.9959 138.032 97.2573 138.226 97.616C138.429 97.9646 138.532 98.4256 138.532 98.9971V104.477H137.644L137.426 103.59C137.388 103.629 137.266 103.696 137.063 103.794C136.869 103.89 136.618 104.001 136.308 104.128C136.007 104.244 135.677 104.346 135.319 104.433C134.97 104.52 134.626 104.564 134.287 104.564ZM134.766 103.707C134.941 103.716 135.139 103.696 135.362 103.648C135.585 103.6 135.813 103.547 136.045 103.489C136.278 103.421 136.491 103.353 136.685 103.285C136.889 103.217 137.053 103.158 137.179 103.111C137.306 103.062 137.373 103.038 137.383 103.038V100.596L135.014 100.697C134.461 100.717 134.064 100.852 133.822 101.105C133.589 101.357 133.472 101.681 133.472 102.078V102.427C133.472 102.737 133.536 102.989 133.662 103.183C133.798 103.367 133.962 103.498 134.156 103.576C134.359 103.653 134.563 103.696 134.766 103.707ZM143.516 104.564C143.079 104.564 142.673 104.506 142.295 104.39C141.917 104.273 141.588 104.069 141.306 103.779C141.025 103.489 140.807 103.087 140.652 102.573C140.497 102.059 140.419 101.405 140.419 100.61C140.419 99.8056 140.492 99.147 140.637 98.6333C140.783 98.1105 140.992 97.7031 141.262 97.4123C141.534 97.1215 141.863 96.9179 142.251 96.8024C142.638 96.6858 143.07 96.6281 143.545 96.6281C143.932 96.6281 144.354 96.6473 144.81 96.6858C145.265 96.7152 145.7 96.7629 146.118 96.8307V97.5147H143.85C143.356 97.5147 142.939 97.5968 142.6 97.7609C142.26 97.9261 142.004 98.2361 141.83 98.6921C141.655 99.1369 141.568 99.7864 141.568 100.64C141.568 101.463 141.66 102.093 141.844 102.529C142.028 102.965 142.29 103.266 142.629 103.43C142.968 103.585 143.38 103.663 143.864 103.663H146.233V104.332C146.01 104.37 145.749 104.409 145.449 104.447C145.158 104.487 144.848 104.515 144.519 104.534C144.19 104.555 143.855 104.564 143.516 104.564ZM150.641 104.564C150.205 104.564 149.798 104.506 149.42 104.39C149.042 104.273 148.713 104.069 148.432 103.779C148.151 103.489 147.933 103.087 147.777 102.573C147.622 102.059 147.545 101.405 147.545 100.61C147.545 99.8056 147.618 99.147 147.763 98.6333C147.908 98.1105 148.117 97.7031 148.388 97.4123C148.66 97.1215 148.989 96.9179 149.376 96.8024C149.764 96.6858 150.195 96.6281 150.67 96.6281C151.058 96.6281 151.48 96.6473 151.935 96.6858C152.391 96.7152 152.826 96.7629 153.243 96.8307V97.5147H150.975C150.482 97.5147 150.064 97.5968 149.726 97.7609C149.387 97.9261 149.129 98.2361 148.955 98.6921C148.781 99.1369 148.693 99.7864 148.693 100.64C148.693 101.463 148.786 102.093 148.97 102.529C149.153 102.965 149.416 103.266 149.754 103.43C150.094 103.585 150.506 103.663 150.991 103.663H153.359V104.332C153.137 104.37 152.875 104.409 152.574 104.447C152.283 104.487 151.973 104.515 151.644 104.534C151.315 104.555 150.98 104.564 150.641 104.564ZM157.912 104.564C157.098 104.564 156.454 104.443 155.979 104.2C155.514 103.958 155.179 103.547 154.977 102.965C154.773 102.383 154.671 101.589 154.671 100.581C154.671 99.5543 154.773 98.7549 154.977 98.1824C155.189 97.6018 155.534 97.1945 156.008 96.9614C156.483 96.7294 157.123 96.6129 157.927 96.6129C158.615 96.6129 159.172 96.6909 159.598 96.8459C160.035 97.001 160.354 97.2675 160.558 97.6454C160.771 98.0132 160.878 98.5269 160.878 99.1855C160.878 99.6415 160.786 100.009 160.601 100.291C160.427 100.562 160.171 100.76 159.831 100.887C159.502 101.002 159.109 101.061 158.654 101.061H155.82C155.829 101.69 155.897 102.2 156.023 102.587C156.149 102.965 156.377 103.242 156.706 103.416C157.045 103.58 157.539 103.663 158.189 103.663H160.688V104.36C160.242 104.419 159.807 104.467 159.38 104.506C158.954 104.545 158.465 104.564 157.912 104.564ZM155.804 100.305H158.567C159.002 100.305 159.322 100.227 159.526 100.072C159.739 99.908 159.845 99.6172 159.845 99.2007C159.845 98.7549 159.777 98.4104 159.642 98.1682C159.516 97.9159 159.312 97.7417 159.032 97.6454C158.76 97.539 158.392 97.4853 157.927 97.4853C157.384 97.4853 156.957 97.5674 156.647 97.7325C156.337 97.8876 156.12 98.1682 155.994 98.5756C155.867 98.9819 155.804 99.5594 155.804 100.305ZM165.486 104.564C165.291 104.564 165.054 104.559 164.774 104.55C164.492 104.54 164.197 104.525 163.887 104.506C163.586 104.487 163.31 104.467 163.058 104.447C162.816 104.419 162.627 104.39 162.491 104.36V103.663H165.674C165.995 103.663 166.27 103.639 166.503 103.59C166.735 103.541 166.915 103.435 167.04 103.27C167.176 103.106 167.244 102.859 167.244 102.529V102.18C167.244 101.841 167.133 101.58 166.91 101.395C166.687 101.202 166.329 101.105 165.835 101.105H164.744C164.288 101.105 163.882 101.047 163.523 100.93C163.175 100.814 162.903 100.615 162.71 100.335C162.515 100.053 162.419 99.6658 162.419 99.1713V98.764C162.419 98.2797 162.511 97.8825 162.694 97.5724C162.888 97.2624 163.184 97.0293 163.581 96.8743C163.988 96.7193 164.511 96.6423 165.152 96.6423C165.422 96.6423 165.732 96.6514 166.082 96.6717C166.44 96.6909 166.789 96.7193 167.128 96.7588C167.467 96.7872 167.743 96.8216 167.956 96.8601V97.5582H164.962C164.468 97.5582 164.086 97.6403 163.814 97.8055C163.553 97.9696 163.421 98.2898 163.421 98.764V99.0842C163.421 99.3841 163.485 99.6121 163.61 99.7671C163.736 99.913 163.91 100.009 164.133 100.058C164.366 100.107 164.633 100.131 164.933 100.131H166.038C166.745 100.131 167.293 100.295 167.681 100.624C168.068 100.955 168.261 101.429 168.261 102.049V102.587C168.261 103.111 168.141 103.517 167.899 103.808C167.665 104.089 167.341 104.288 166.925 104.404C166.517 104.51 166.038 104.564 165.486 104.564ZM172.753 104.564C172.559 104.564 172.322 104.559 172.041 104.55C171.76 104.54 171.464 104.525 171.154 104.506C170.854 104.487 170.578 104.467 170.325 104.447C170.083 104.419 169.895 104.39 169.759 104.36V103.663H172.942C173.262 103.663 173.538 103.639 173.77 103.59C174.003 103.541 174.183 103.435 174.308 103.27C174.444 103.106 174.512 102.859 174.512 102.529V102.18C174.512 101.841 174.401 101.58 174.178 101.395C173.955 101.202 173.596 101.105 173.102 101.105H172.012C171.556 101.105 171.149 101.047 170.791 100.93C170.442 100.814 170.17 100.615 169.977 100.335C169.783 100.053 169.686 99.6658 169.686 99.1713V98.764C169.686 98.2797 169.778 97.8825 169.963 97.5724C170.156 97.2624 170.452 97.0293 170.849 96.8743C171.256 96.7193 171.779 96.6423 172.419 96.6423C172.69 96.6423 173 96.6514 173.349 96.6717C173.707 96.6909 174.056 96.7193 174.395 96.7588C174.735 96.7872 175.01 96.8216 175.224 96.8601V97.5582H172.23C171.736 97.5582 171.353 97.6403 171.081 97.8055C170.82 97.9696 170.689 98.2898 170.689 98.764V99.0842C170.689 99.3841 170.752 99.6121 170.878 99.7671C171.004 99.913 171.178 100.009 171.401 100.058C171.634 100.107 171.901 100.131 172.201 100.131H173.305C174.012 100.131 174.561 100.295 174.948 100.624C175.336 100.955 175.529 101.429 175.529 102.049V102.587C175.529 103.111 175.409 103.517 175.166 103.808C174.933 104.089 174.609 104.288 174.192 104.404C173.785 104.51 173.305 104.564 172.753 104.564ZM183.837 104.477C183.333 104.477 182.916 104.395 182.587 104.229C182.257 104.065 182.015 103.799 181.86 103.43C181.705 103.062 181.632 102.573 181.642 101.962L181.686 97.6596H180.45V96.9179L181.7 96.7152L181.889 94.5489H182.776V96.7152H185.014V97.6596H182.776V101.962C182.776 102.301 182.809 102.573 182.877 102.776C182.955 102.979 183.052 103.134 183.168 103.242C183.294 103.348 183.424 103.425 183.56 103.474C183.696 103.512 183.827 103.536 183.953 103.547L184.898 103.634V104.477H183.837ZM189.682 104.564C189.121 104.564 188.626 104.506 188.2 104.39C187.783 104.273 187.435 104.069 187.153 103.779C186.873 103.489 186.664 103.087 186.528 102.573C186.393 102.049 186.325 101.385 186.325 100.581C186.325 99.7671 186.393 99.1035 186.528 98.5897C186.664 98.0669 186.873 97.6646 187.153 97.383C187.435 97.0932 187.783 96.8946 188.2 96.7872C188.626 96.6717 189.121 96.6129 189.682 96.6129C190.245 96.6129 190.734 96.6717 191.15 96.7872C191.577 96.9037 191.931 97.1074 192.211 97.3982C192.493 97.6788 192.701 98.0811 192.837 98.6049C192.982 99.1176 193.054 99.7773 193.054 100.581C193.054 101.395 192.982 102.064 192.837 102.587C192.701 103.101 192.493 103.503 192.211 103.794C191.941 104.074 191.591 104.273 191.166 104.39C190.739 104.506 190.245 104.564 189.682 104.564ZM189.682 103.619C190.041 103.619 190.356 103.585 190.628 103.517C190.908 103.449 191.141 103.313 191.325 103.111C191.509 102.907 191.65 102.601 191.746 102.195C191.844 101.788 191.892 101.25 191.892 100.581C191.892 99.9029 191.844 99.3649 191.746 98.9677C191.65 98.5705 191.509 98.2706 191.325 98.0669C191.141 97.8632 190.908 97.7275 190.628 97.6596C190.356 97.5917 190.041 97.5582 189.682 97.5582C189.314 97.5582 188.994 97.5917 188.724 97.6596C188.452 97.7275 188.224 97.8632 188.04 98.0669C187.856 98.2706 187.716 98.5705 187.618 98.9677C187.522 99.3649 187.473 99.9029 187.473 100.581C187.473 101.25 187.522 101.788 187.618 102.195C187.716 102.601 187.856 102.907 188.04 103.111C188.224 103.313 188.452 103.449 188.724 103.517C188.994 103.585 189.314 103.619 189.682 103.619ZM201.423 104.564C200.783 104.564 200.255 104.428 199.838 104.157C199.431 103.876 199.126 103.449 198.922 102.878C198.729 102.296 198.631 101.556 198.631 100.654C198.631 99.6942 198.729 98.919 198.922 98.3283C199.117 97.7275 199.427 97.2918 199.852 97.0202C200.279 96.7487 200.851 96.6129 201.568 96.6129C202.004 96.6129 202.43 96.6615 202.847 96.7588C203.264 96.8551 203.632 96.9614 203.952 97.078V93.3867H205.1V104.477H204.17L203.952 103.691C203.806 103.818 203.588 103.949 203.297 104.085C203.017 104.22 202.707 104.336 202.367 104.433C202.038 104.52 201.723 104.564 201.423 104.564ZM201.757 103.619C202.203 103.619 202.605 103.552 202.963 103.416C203.332 103.27 203.661 103.12 203.952 102.965V97.8926C203.603 97.7852 203.269 97.6981 202.949 97.6302C202.629 97.5532 202.271 97.5147 201.873 97.5147C201.379 97.5147 200.977 97.6059 200.667 97.7903C200.357 97.9747 200.129 98.2939 199.984 98.7498C199.848 99.1957 199.78 99.8158 199.78 100.61C199.78 101.328 199.843 101.909 199.969 102.355C200.105 102.801 200.318 103.125 200.608 103.329C200.899 103.522 201.282 103.619 201.757 103.619ZM207.443 95.3342C207.288 95.3342 207.21 95.2562 207.21 95.1011V93.9673C207.21 93.8123 207.288 93.7353 207.443 93.7353H208.257C208.334 93.7353 208.388 93.7596 208.417 93.8082C208.456 93.8467 208.475 93.8994 208.475 93.9673V95.1011C208.475 95.2562 208.402 95.3342 208.257 95.3342H207.443ZM207.268 104.477V96.7152H208.417V104.477H207.268ZM212.537 108.038C212.032 108.038 211.588 107.965 211.2 107.819C210.822 107.685 210.522 107.471 210.299 107.18C210.085 106.899 209.979 106.546 209.979 106.119V105.771C209.979 105.325 210.1 104.952 210.342 104.651C210.594 104.351 210.909 104.128 211.287 103.982C211.665 103.827 212.053 103.75 212.45 103.75L212.741 104.215C212.45 104.215 212.178 104.264 211.926 104.36C211.675 104.447 211.466 104.593 211.301 104.797C211.146 105 211.069 105.262 211.069 105.581V105.901C211.069 106.366 211.224 106.696 211.534 106.889C211.844 107.093 212.266 107.195 212.798 107.195H214.601C215.183 107.195 215.638 107.084 215.967 106.861C216.306 106.638 216.476 106.288 216.476 105.814V105.523C216.476 105.252 216.423 105.02 216.316 104.825C216.209 104.632 216.03 104.482 215.778 104.375C215.536 104.268 215.192 104.215 214.746 104.215H212.406C211.805 104.215 211.335 104.089 210.996 103.837C210.667 103.576 210.501 103.242 210.501 102.834C210.501 102.446 210.613 102.141 210.836 101.918C211.069 101.695 211.393 101.54 211.811 101.453C211.452 101.308 211.17 101.114 210.967 100.872C210.764 100.62 210.623 100.354 210.545 100.072C210.468 99.7813 210.43 99.4915 210.43 99.2007C210.43 98.5999 210.55 98.1155 210.792 97.7467C211.034 97.3789 211.379 97.1124 211.825 96.9473C212.28 96.7831 212.813 96.7 213.424 96.7H217.566V97.3546L215.822 97.4995C215.948 97.5866 216.088 97.7031 216.244 97.8491C216.399 97.9838 216.529 98.1824 216.636 98.4448C216.752 98.6961 216.81 99.0457 216.81 99.4915C216.81 99.8887 216.723 100.267 216.549 100.624C216.383 100.983 216.103 101.279 215.705 101.512C215.308 101.735 214.761 101.846 214.063 101.846H212.828C212.421 101.846 212.096 101.909 211.854 102.035C211.621 102.151 211.505 102.364 211.505 102.674C211.505 102.907 211.592 103.071 211.766 103.169C211.941 103.266 212.125 103.313 212.319 103.313H214.892C215.493 103.313 215.986 103.392 216.374 103.547C216.771 103.702 217.067 103.939 217.261 104.259C217.464 104.569 217.566 104.966 217.566 105.45V105.771C217.566 106.478 217.324 107.03 216.839 107.427C216.364 107.835 215.652 108.038 214.702 108.038H212.537ZM213.075 100.959H213.946C214.441 100.959 214.814 100.887 215.066 100.741C215.328 100.586 215.507 100.387 215.604 100.145C215.7 99.9029 215.749 99.6415 215.749 99.3598C215.749 98.9241 215.676 98.5806 215.531 98.3283C215.395 98.0669 215.202 97.8825 214.95 97.7761C214.697 97.6596 214.408 97.6018 214.077 97.6018H213.249C212.697 97.6018 212.26 97.7275 211.941 97.9798C211.631 98.2219 211.476 98.6485 211.476 99.2585C211.476 99.8593 211.616 100.295 211.898 100.567C212.188 100.828 212.581 100.959 213.075 100.959ZM219.182 95.3342C219.027 95.3342 218.949 95.2562 218.949 95.1011V93.9673C218.949 93.8123 219.027 93.7353 219.182 93.7353H219.996C220.074 93.7353 220.126 93.7596 220.156 93.8082C220.194 93.8467 220.214 93.8994 220.214 93.9673V95.1011C220.214 95.2562 220.141 95.3342 219.996 95.3342H219.182ZM219.008 104.477V96.7152H220.156V104.477H219.008ZM224.944 104.477C224.441 104.477 224.024 104.395 223.694 104.229C223.365 104.065 223.122 103.799 222.967 103.43C222.812 103.062 222.739 102.573 222.75 101.962L222.793 97.6596H221.558V96.9179L222.807 96.7152L222.997 94.5489H223.883V96.7152H226.122V97.6596H223.883V101.962C223.883 102.301 223.917 102.573 223.985 102.776C224.063 102.979 224.16 103.134 224.276 103.242C224.402 103.348 224.533 103.425 224.669 103.474C224.803 103.512 224.935 103.536 225.061 103.547L226.005 103.634V104.477H224.944ZM229.22 104.564C228.649 104.564 228.179 104.395 227.811 104.055C227.442 103.716 227.259 103.236 227.259 102.616V102.064C227.259 101.453 227.457 100.959 227.854 100.581C228.262 100.203 228.872 100.014 229.685 100.014H232.317V99.0548C232.317 98.7356 232.259 98.4641 232.142 98.2412C232.036 98.0081 231.837 97.8288 231.547 97.7031C231.265 97.5775 230.854 97.5147 230.31 97.5147H227.898V96.8307C228.237 96.773 228.629 96.7193 229.075 96.6717C229.53 96.623 230.063 96.5987 230.674 96.5987C231.304 96.5886 231.827 96.6666 232.244 96.8307C232.66 96.9959 232.966 97.2573 233.16 97.616C233.363 97.9646 233.465 98.4256 233.465 98.9971V104.477H232.578L232.36 103.59C232.322 103.629 232.2 103.696 231.996 103.794C231.803 103.89 231.551 104.001 231.241 104.128C230.941 104.244 230.611 104.346 230.253 104.433C229.904 104.52 229.56 104.564 229.22 104.564ZM229.7 103.707C229.875 103.716 230.073 103.696 230.296 103.648C230.519 103.6 230.747 103.547 230.979 103.489C231.212 103.421 231.425 103.353 231.618 103.285C231.822 103.217 231.987 103.158 232.113 103.111C232.239 103.062 232.307 103.038 232.317 103.038V100.596L229.948 100.697C229.394 100.717 228.997 100.852 228.755 101.105C228.523 101.357 228.407 101.681 228.407 102.078V102.427C228.407 102.737 228.469 102.989 228.596 103.183C228.731 103.367 228.896 103.498 229.089 103.576C229.293 103.653 229.497 103.696 229.7 103.707ZM237.665 104.491C237.219 104.491 236.846 104.414 236.545 104.259C236.245 104.094 236.017 103.832 235.862 103.474C235.707 103.106 235.63 102.611 235.63 101.991V93.3867H236.778V101.846C236.778 102.311 236.822 102.665 236.909 102.907C236.996 103.139 237.121 103.304 237.287 103.401C237.451 103.489 237.645 103.547 237.868 103.576L238.652 103.663V104.491H237.665ZM246.393 104.477C245.889 104.477 245.472 104.395 245.142 104.229C244.813 104.065 244.571 103.799 244.416 103.43C244.261 103.062 244.188 102.573 244.198 101.962L244.242 97.6596H243.005V96.9179L244.256 96.7152L244.445 94.5489H245.332V96.7152H247.57V97.6596H245.332V101.962C245.332 102.301 245.365 102.573 245.433 102.776C245.511 102.979 245.607 103.134 245.724 103.242C245.85 103.348 245.98 103.425 246.116 103.474C246.252 103.512 246.383 103.536 246.509 103.547L247.454 103.634V104.477H246.393ZM252.238 104.564C251.677 104.564 251.182 104.506 250.756 104.39C250.339 104.273 249.991 104.069 249.709 103.779C249.428 103.489 249.22 103.087 249.084 102.573C248.949 102.049 248.881 101.385 248.881 100.581C248.881 99.7671 248.949 99.1035 249.084 98.5897C249.22 98.0669 249.428 97.6646 249.709 97.383C249.991 97.0932 250.339 96.8946 250.756 96.7872C251.182 96.6717 251.677 96.6129 252.238 96.6129C252.8 96.6129 253.29 96.6717 253.706 96.7872C254.133 96.9037 254.486 97.1074 254.767 97.3982C255.049 97.6788 255.257 98.0811 255.392 98.6049C255.538 99.1176 255.61 99.7773 255.61 100.581C255.61 101.395 255.538 102.064 255.392 102.587C255.257 103.101 255.049 103.503 254.767 103.794C254.497 104.074 254.147 104.273 253.721 104.39C253.295 104.506 252.8 104.564 252.238 104.564ZM252.238 103.619C252.597 103.619 252.912 103.585 253.183 103.517C253.464 103.449 253.697 103.313 253.881 103.111C254.065 102.907 254.206 102.601 254.302 102.195C254.399 101.788 254.448 101.25 254.448 100.581C254.448 99.9029 254.399 99.3649 254.302 98.9677C254.206 98.5705 254.065 98.2706 253.881 98.0669C253.697 97.8632 253.464 97.7275 253.183 97.6596C252.912 97.5917 252.597 97.5582 252.238 97.5582C251.87 97.5582 251.55 97.5917 251.28 97.6596C251.008 97.7275 250.78 97.8632 250.596 98.0669C250.412 98.2706 250.271 98.5705 250.174 98.9677C250.078 99.3649 250.029 99.9029 250.029 100.581C250.029 101.25 250.078 101.788 250.174 102.195C250.271 102.601 250.412 102.907 250.596 103.111C250.78 103.313 251.008 103.449 251.28 103.517C251.55 103.585 251.87 103.619 252.238 103.619ZM260.628 104.564C260.065 104.564 259.571 104.506 259.144 104.39C258.728 104.273 258.379 104.069 258.099 103.779C257.817 103.489 257.609 103.087 257.473 102.573C257.338 102.049 257.27 101.385 257.27 100.581C257.27 99.7671 257.338 99.1035 257.473 98.5897C257.609 98.0669 257.817 97.6646 258.099 97.383C258.379 97.0932 258.728 96.8946 259.144 96.7872C259.571 96.6717 260.065 96.6129 260.628 96.6129C261.189 96.6129 261.678 96.6717 262.096 96.7872C262.521 96.9037 262.875 97.1074 263.157 97.3982C263.437 97.6788 263.646 98.0811 263.782 98.6049C263.927 99.1176 264 99.7773 264 100.581C264 101.395 263.927 102.064 263.782 102.587C263.646 103.101 263.437 103.503 263.157 103.794C262.885 104.074 262.537 104.273 262.11 104.39C261.684 104.506 261.189 104.564 260.628 104.564ZM260.628 103.619C260.986 103.619 261.301 103.585 261.572 103.517C261.853 103.449 262.086 103.313 262.27 103.111C262.454 102.907 262.594 102.601 262.692 102.195C262.788 101.788 262.837 101.25 262.837 100.581C262.837 99.9029 262.788 99.3649 262.692 98.9677C262.594 98.5705 262.454 98.2706 262.27 98.0669C262.086 97.8632 261.853 97.7275 261.572 97.6596C261.301 97.5917 260.986 97.5582 260.628 97.5582C260.259 97.5582 259.94 97.5917 259.668 97.6596C259.397 97.7275 259.169 97.8632 258.985 98.0669C258.801 98.2706 258.66 98.5705 258.564 98.9677C258.466 99.3649 258.418 99.9029 258.418 100.581C258.418 101.25 258.466 101.788 258.564 102.195C258.66 102.601 258.801 102.907 258.985 103.111C259.169 103.313 259.397 103.449 259.668 103.517C259.94 103.585 260.259 103.619 260.628 103.619ZM267.97 104.491C267.524 104.491 267.151 104.414 266.851 104.259C266.55 104.094 266.322 103.832 266.167 103.474C266.012 103.106 265.935 102.611 265.935 101.991V93.3867H267.083V101.846C267.083 102.311 267.127 102.665 267.214 102.907C267.301 103.139 267.428 103.304 267.592 103.401C267.757 103.489 267.95 103.547 268.173 103.576L268.959 103.663V104.491H267.97ZM272.882 104.564C272.688 104.564 272.451 104.559 272.17 104.55C271.889 104.54 271.593 104.525 271.283 104.506C270.983 104.487 270.706 104.467 270.454 104.447C270.212 104.419 270.024 104.39 269.888 104.36V103.663H273.071C273.391 103.663 273.667 103.639 273.899 103.59C274.132 103.541 274.312 103.435 274.437 103.27C274.573 103.106 274.641 102.859 274.641 102.529V102.18C274.641 101.841 274.529 101.58 274.307 101.395C274.084 101.202 273.725 101.105 273.23 101.105H272.141C271.685 101.105 271.278 101.047 270.92 100.93C270.571 100.814 270.299 100.615 270.106 100.335C269.912 100.053 269.815 99.6658 269.815 99.1713V98.764C269.815 98.2797 269.907 97.8825 270.091 97.5724C270.285 97.2624 270.581 97.0293 270.978 96.8743C271.385 96.7193 271.908 96.6423 272.548 96.6423C272.819 96.6423 273.129 96.6514 273.478 96.6717C273.836 96.6909 274.185 96.7193 274.524 96.7588C274.864 96.7872 275.139 96.8216 275.353 96.8601V97.5582H272.359C271.865 97.5582 271.482 97.6403 271.21 97.8055C270.949 97.9696 270.818 98.2898 270.818 98.764V99.0842C270.818 99.3841 270.881 99.6121 271.007 99.7671C271.133 99.913 271.307 100.009 271.53 100.058C271.763 100.107 272.03 100.131 272.33 100.131H273.434C274.141 100.131 274.69 100.295 275.077 100.624C275.465 100.955 275.658 101.429 275.658 102.049V102.587C275.658 103.111 275.538 103.517 275.294 103.808C275.062 104.089 274.738 104.288 274.321 104.404C273.914 104.51 273.434 104.564 272.882 104.564ZM108.058 125.755C107.555 125.755 107.138 125.673 106.809 125.508C106.48 125.343 106.237 125.077 106.082 124.708C105.926 124.34 105.854 123.851 105.864 123.24L105.907 118.938H104.672V118.196L105.922 117.993L106.111 115.827H106.997V117.993H109.236V118.938H106.997V123.24C106.997 123.579 107.032 123.851 107.1 124.055C107.177 124.257 107.274 124.412 107.391 124.52C107.516 124.626 107.647 124.703 107.783 124.752C107.918 124.79 108.049 124.815 108.175 124.825L109.12 124.912V125.755H108.058ZM112.335 125.842C111.763 125.842 111.294 125.673 110.925 125.333C110.557 124.994 110.373 124.515 110.373 123.895V123.342C110.373 122.731 110.571 122.237 110.968 121.859C111.376 121.481 111.986 121.293 112.8 121.293H115.431V120.333C115.431 120.014 115.373 119.742 115.256 119.519C115.15 119.286 114.951 119.107 114.661 118.981C114.38 118.856 113.968 118.793 113.425 118.793H111.012V118.109C111.351 118.051 111.743 117.997 112.189 117.95C112.645 117.901 113.178 117.877 113.788 117.877C114.418 117.867 114.941 117.945 115.358 118.109C115.775 118.274 116.08 118.535 116.274 118.894C116.477 119.243 116.579 119.704 116.579 120.275V125.755H115.692L115.474 124.868C115.436 124.907 115.314 124.975 115.111 125.072C114.917 125.168 114.666 125.28 114.356 125.406C114.055 125.522 113.725 125.624 113.367 125.711C113.018 125.798 112.674 125.842 112.335 125.842ZM112.814 124.985C112.989 124.994 113.187 124.975 113.41 124.926C113.633 124.878 113.861 124.825 114.093 124.767C114.326 124.699 114.539 124.631 114.734 124.563C114.936 124.495 115.101 124.437 115.227 124.389C115.354 124.34 115.422 124.316 115.431 124.316V121.874L113.062 121.975C112.509 121.995 112.112 122.13 111.87 122.383C111.637 122.635 111.521 122.959 111.521 123.356V123.705C111.521 124.015 111.584 124.267 111.71 124.461C111.846 124.645 112.01 124.776 112.204 124.854C112.407 124.931 112.611 124.975 112.814 124.985ZM118.918 116.612C118.763 116.612 118.685 116.534 118.685 116.379V115.245C118.685 115.09 118.763 115.013 118.918 115.013H119.732C119.81 115.013 119.863 115.038 119.892 115.086C119.93 115.125 119.95 115.178 119.95 115.245V116.379C119.95 116.534 119.878 116.612 119.732 116.612H118.918ZM118.744 125.755V117.993H119.892V125.755H118.744ZM124.143 125.769C123.697 125.769 123.324 125.692 123.024 125.537C122.723 125.372 122.496 125.11 122.34 124.752C122.185 124.384 122.108 123.889 122.108 123.269V114.665H123.256V123.124C123.256 123.59 123.3 123.943 123.387 124.185C123.474 124.417 123.6 124.583 123.765 124.679C123.93 124.767 124.123 124.825 124.346 124.854L125.131 124.941V125.769H124.143ZM129.462 125.842C128.9 125.842 128.405 125.784 127.98 125.668C127.562 125.551 127.214 125.348 126.933 125.057C126.651 124.767 126.444 124.365 126.308 123.851C126.172 123.327 126.104 122.663 126.104 121.859C126.104 121.045 126.172 120.382 126.308 119.868C126.444 119.345 126.651 118.943 126.933 118.661C127.214 118.371 127.562 118.173 127.98 118.065C128.405 117.95 128.9 117.891 129.462 117.891C130.024 117.891 130.514 117.95 130.93 118.065C131.357 118.182 131.71 118.386 131.991 118.676C132.272 118.957 132.481 119.359 132.616 119.883C132.761 120.396 132.834 121.055 132.834 121.859C132.834 122.674 132.761 123.342 132.616 123.865C132.481 124.379 132.272 124.781 131.991 125.072C131.72 125.353 131.371 125.551 130.944 125.668C130.518 125.784 130.024 125.842 129.462 125.842ZM129.462 124.898C129.821 124.898 130.136 124.863 130.406 124.795C130.688 124.727 130.92 124.592 131.105 124.389C131.289 124.185 131.429 123.879 131.526 123.473C131.623 123.066 131.671 122.528 131.671 121.859C131.671 121.181 131.623 120.643 131.526 120.246C131.429 119.849 131.289 119.549 131.105 119.345C130.92 119.141 130.688 119.006 130.406 118.938C130.136 118.87 129.821 118.836 129.462 118.836C129.093 118.836 128.774 118.87 128.503 118.938C128.231 119.006 128.004 119.141 127.82 119.345C127.635 119.549 127.495 119.849 127.398 120.246C127.301 120.643 127.252 121.181 127.252 121.859C127.252 122.528 127.301 123.066 127.398 123.473C127.495 123.879 127.635 124.185 127.82 124.389C128.004 124.592 128.231 124.727 128.503 124.795C128.774 124.863 129.093 124.898 129.462 124.898ZM134.769 125.755V117.993H135.642L135.917 119.345C136.267 118.928 136.654 118.584 137.081 118.313C137.516 118.041 138.016 117.906 138.578 117.906C138.713 117.906 138.84 117.91 138.956 117.92C139.082 117.93 139.198 117.95 139.305 117.978V119.156C139.178 119.136 139.043 119.122 138.897 119.112C138.753 119.093 138.607 119.084 138.462 119.084C138.103 119.084 137.783 119.127 137.502 119.214C137.221 119.301 136.955 119.432 136.703 119.606C136.45 119.781 136.189 119.994 135.917 120.246V125.755H134.769ZM143.725 125.842C142.911 125.842 142.266 125.721 141.791 125.478C141.326 125.236 140.992 124.825 140.789 124.243C140.585 123.661 140.483 122.867 140.483 121.859C140.483 120.833 140.585 120.033 140.789 119.461C141.002 118.88 141.345 118.473 141.821 118.24C142.296 118.008 142.935 117.891 143.74 117.891C144.428 117.891 144.985 117.969 145.411 118.124C145.847 118.279 146.166 118.546 146.37 118.924C146.584 119.291 146.69 119.805 146.69 120.464C146.69 120.92 146.598 121.287 146.414 121.569C146.239 121.84 145.983 122.038 145.644 122.165C145.314 122.28 144.921 122.339 144.466 122.339H141.632C141.641 122.968 141.709 123.478 141.835 123.865C141.961 124.243 142.189 124.52 142.519 124.694C142.857 124.858 143.352 124.941 144.001 124.941H146.501V125.638C146.055 125.697 145.619 125.745 145.193 125.784C144.766 125.823 144.277 125.842 143.725 125.842ZM141.617 121.583H144.379C144.815 121.583 145.135 121.505 145.339 121.35C145.551 121.186 145.658 120.895 145.658 120.479C145.658 120.033 145.59 119.689 145.454 119.446C145.328 119.194 145.125 119.02 144.844 118.924C144.573 118.817 144.205 118.763 143.74 118.763C143.197 118.763 142.77 118.846 142.46 119.011C142.15 119.166 141.932 119.446 141.806 119.854C141.68 120.26 141.617 120.838 141.617 121.583ZM151.138 125.842C150.498 125.842 149.97 125.706 149.554 125.435C149.146 125.154 148.841 124.727 148.638 124.156C148.444 123.574 148.347 122.834 148.347 121.932C148.347 120.972 148.444 120.197 148.638 119.606C148.832 119.006 149.142 118.57 149.568 118.298C149.994 118.027 150.566 117.891 151.283 117.891C151.719 117.891 152.146 117.94 152.562 118.037C152.979 118.133 153.347 118.24 153.667 118.356V114.665H154.815V125.755H153.885L153.667 124.97C153.522 125.096 153.304 125.227 153.013 125.363C152.732 125.499 152.422 125.614 152.083 125.711C151.753 125.798 151.438 125.842 151.138 125.842ZM151.473 124.898C151.919 124.898 152.32 124.83 152.679 124.694C153.047 124.548 153.377 124.398 153.667 124.243V119.171C153.318 119.063 152.985 118.976 152.664 118.908C152.344 118.831 151.986 118.793 151.588 118.793C151.095 118.793 150.693 118.884 150.383 119.068C150.072 119.253 149.845 119.572 149.699 120.028C149.564 120.474 149.496 121.094 149.496 121.888C149.496 122.606 149.559 123.187 149.684 123.633C149.82 124.079 150.033 124.403 150.324 124.607C150.615 124.8 150.998 124.898 151.473 124.898ZM163.475 125.755C162.971 125.755 162.554 125.673 162.224 125.508C161.895 125.343 161.653 125.077 161.498 124.708C161.343 124.34 161.27 123.851 161.28 123.24L161.324 118.938H160.087V118.196L161.338 117.993L161.527 115.827H162.414V117.993H164.652V118.938H162.414V123.24C162.414 123.579 162.447 123.851 162.515 124.055C162.593 124.257 162.689 124.412 162.806 124.52C162.932 124.626 163.062 124.703 163.198 124.752C163.334 124.79 163.465 124.815 163.591 124.825L164.536 124.912V125.755H163.475ZM169.32 125.842C168.759 125.842 168.264 125.784 167.838 125.668C167.421 125.551 167.073 125.348 166.791 125.057C166.51 124.767 166.302 124.365 166.166 123.851C166.031 123.327 165.963 122.663 165.963 121.859C165.963 121.045 166.031 120.382 166.166 119.868C166.302 119.345 166.51 118.943 166.791 118.661C167.073 118.371 167.421 118.173 167.838 118.065C168.264 117.95 168.759 117.891 169.32 117.891C169.882 117.891 170.372 117.95 170.788 118.065C171.215 118.182 171.569 118.386 171.849 118.676C172.131 118.957 172.339 119.359 172.474 119.883C172.62 120.396 172.692 121.055 172.692 121.859C172.692 122.674 172.62 123.342 172.474 123.865C172.339 124.379 172.131 124.781 171.849 125.072C171.579 125.353 171.229 125.551 170.804 125.668C170.377 125.784 169.882 125.842 169.32 125.842ZM169.32 124.898C169.679 124.898 169.994 124.863 170.265 124.795C170.546 124.727 170.779 124.592 170.963 124.389C171.147 124.185 171.288 123.879 171.384 123.473C171.481 123.066 171.53 122.528 171.53 121.859C171.53 121.181 171.481 120.643 171.384 120.246C171.288 119.849 171.147 119.549 170.963 119.345C170.779 119.141 170.546 119.006 170.265 118.938C169.994 118.87 169.679 118.836 169.32 118.836C168.952 118.836 168.632 118.87 168.362 118.938C168.09 119.006 167.862 119.141 167.678 119.345C167.494 119.549 167.353 119.849 167.256 120.246C167.16 120.643 167.111 121.181 167.111 121.859C167.111 122.528 167.16 123.066 167.256 123.473C167.353 123.879 167.494 124.185 167.678 124.389C167.862 124.592 168.09 124.727 168.362 124.795C168.632 124.863 168.952 124.898 169.32 124.898ZM181.118 125.755C180.615 125.755 180.198 125.673 179.868 125.508C179.539 125.343 179.297 125.077 179.141 124.708C178.986 124.34 178.914 123.851 178.924 123.24L178.967 118.938H177.732V118.196L178.981 117.993L179.171 115.827H180.057V117.993H182.296V118.938H180.057V123.24C180.057 123.579 180.091 123.851 180.159 124.055C180.237 124.257 180.334 124.412 180.45 124.52C180.576 124.626 180.707 124.703 180.843 124.752C180.978 124.79 181.109 124.815 181.235 124.825L182.179 124.912V125.755H181.118ZM186.848 125.842C186.035 125.842 185.39 125.721 184.915 125.478C184.45 125.236 184.116 124.825 183.912 124.243C183.708 123.661 183.607 122.867 183.607 121.859C183.607 120.833 183.708 120.033 183.912 119.461C184.126 118.88 184.469 118.473 184.944 118.24C185.419 118.008 186.058 117.891 186.862 117.891C187.55 117.891 188.108 117.969 188.534 118.124C188.97 118.279 189.29 118.546 189.494 118.924C189.707 119.291 189.813 119.805 189.813 120.464C189.813 120.92 189.721 121.287 189.537 121.569C189.363 121.84 189.106 122.038 188.766 122.165C188.437 122.28 188.045 122.339 187.589 122.339H184.755C184.765 122.968 184.833 123.478 184.959 123.865C185.084 124.243 185.312 124.52 185.641 124.694C185.981 124.858 186.475 124.941 187.124 124.941H189.625V125.638C189.179 125.697 188.743 125.745 188.316 125.784C187.89 125.823 187.4 125.842 186.848 125.842ZM184.741 121.583H187.502C187.938 121.583 188.258 121.505 188.461 121.35C188.675 121.186 188.782 120.895 188.782 120.479C188.782 120.033 188.714 119.689 188.578 119.446C188.452 119.194 188.249 119.02 187.967 118.924C187.696 118.817 187.328 118.763 186.862 118.763C186.32 118.763 185.894 118.846 185.584 119.011C185.274 119.166 185.056 119.446 184.929 119.854C184.804 120.26 184.741 120.838 184.741 121.583ZM193.258 125.842C192.687 125.842 192.216 125.673 191.849 125.333C191.48 124.994 191.296 124.515 191.296 123.895V123.342C191.296 122.731 191.495 122.237 191.892 121.859C192.3 121.481 192.909 121.293 193.723 121.293H196.355V120.333C196.355 120.014 196.297 119.742 196.18 119.519C196.074 119.286 195.875 119.107 195.584 118.981C195.303 118.856 194.891 118.793 194.348 118.793H191.936V118.109C192.275 118.051 192.667 117.997 193.113 117.95C193.568 117.901 194.101 117.877 194.712 117.877C195.342 117.867 195.865 117.945 196.282 118.109C196.698 118.274 197.004 118.535 197.198 118.894C197.401 119.243 197.503 119.704 197.503 120.275V125.755H196.616L196.398 124.868C196.36 124.907 196.238 124.975 196.034 125.072C195.841 125.168 195.589 125.28 195.278 125.406C194.979 125.522 194.649 125.624 194.291 125.711C193.942 125.798 193.597 125.842 193.258 125.842ZM193.738 124.985C193.913 124.994 194.111 124.975 194.334 124.926C194.557 124.878 194.785 124.825 195.017 124.767C195.25 124.699 195.463 124.631 195.656 124.563C195.86 124.495 196.025 124.437 196.151 124.389C196.276 124.34 196.344 124.316 196.355 124.316V121.874L193.986 121.975C193.433 121.995 193.035 122.13 192.793 122.383C192.561 122.635 192.444 122.959 192.444 123.356V123.705C192.444 124.015 192.507 124.267 192.634 124.461C192.769 124.645 192.934 124.776 193.127 124.854C193.331 124.931 193.535 124.975 193.738 124.985ZM199.668 125.755V117.993H200.569L200.816 118.851C201.203 118.579 201.635 118.347 202.11 118.152C202.594 117.959 203.131 117.863 203.723 117.863C204.207 117.863 204.619 117.973 204.958 118.196C205.307 118.41 205.569 118.681 205.743 119.011C205.985 118.836 206.276 118.662 206.616 118.487C206.964 118.313 207.332 118.168 207.72 118.051C208.117 117.926 208.5 117.863 208.868 117.863C209.43 117.863 209.89 117.983 210.249 118.225C210.608 118.458 210.869 118.778 211.034 119.185C211.209 119.582 211.296 120.028 211.296 120.522V125.755H210.147V120.61C210.147 120.28 210.08 119.989 209.944 119.737C209.818 119.476 209.634 119.272 209.392 119.127C209.149 118.981 208.854 118.908 208.504 118.908C208.069 118.908 207.623 118.991 207.168 119.156C206.712 119.321 206.29 119.519 205.903 119.751C205.951 119.897 205.985 120.042 206.005 120.188C206.034 120.324 206.048 120.469 206.048 120.624V125.755H204.9V120.61C204.9 120.28 204.832 119.989 204.697 119.737C204.571 119.476 204.387 119.272 204.144 119.127C203.911 118.981 203.62 118.908 203.272 118.908C202.953 118.908 202.652 118.943 202.371 119.011C202.1 119.068 201.838 119.156 201.586 119.272C201.344 119.379 201.087 119.509 200.816 119.664V125.755H199.668ZM220.042 125.842C219.849 125.842 219.612 125.837 219.33 125.828C219.049 125.818 218.753 125.803 218.443 125.784C218.143 125.765 217.867 125.745 217.615 125.725C217.373 125.697 217.184 125.668 217.048 125.638V124.941H220.232C220.551 124.941 220.827 124.917 221.06 124.868C221.293 124.82 221.472 124.713 221.598 124.548C221.733 124.384 221.801 124.137 221.801 123.807V123.458C221.801 123.119 221.69 122.858 221.467 122.674C221.244 122.48 220.885 122.383 220.392 122.383H219.301C218.846 122.383 218.439 122.325 218.081 122.208C217.731 122.092 217.46 121.893 217.266 121.613C217.072 121.331 216.976 120.944 216.976 120.45V120.042C216.976 119.558 217.067 119.161 217.252 118.851C217.445 118.541 217.741 118.307 218.138 118.152C218.546 117.997 219.068 117.92 219.708 117.92C219.979 117.92 220.289 117.93 220.639 117.95C220.997 117.969 221.346 117.997 221.685 118.037C222.024 118.065 222.301 118.1 222.513 118.138V118.836H219.519C219.025 118.836 218.642 118.918 218.371 119.084C218.109 119.248 217.978 119.568 217.978 120.042V120.362C217.978 120.662 218.041 120.89 218.168 121.045C218.293 121.191 218.468 121.287 218.691 121.336C218.924 121.385 219.19 121.409 219.49 121.409H220.594C221.303 121.409 221.85 121.573 222.238 121.902C222.625 122.233 222.818 122.707 222.818 123.327V123.865C222.818 124.389 222.698 124.795 222.456 125.086C222.223 125.367 221.898 125.566 221.482 125.682C221.075 125.788 220.594 125.842 220.042 125.842ZM224.811 116.612C224.655 116.612 224.577 116.534 224.577 116.379V115.245C224.577 115.09 224.655 115.013 224.811 115.013H225.624C225.701 115.013 225.755 115.038 225.784 115.086C225.823 115.125 225.842 115.178 225.842 115.245V116.379C225.842 116.534 225.769 116.612 225.624 116.612H224.811ZM224.635 125.755V117.993H225.784V125.755H224.635ZM227.636 125.755V124.882L232.113 118.938H227.52V117.993H233.45V118.865L228.959 124.811H233.45V125.755H227.636ZM238.148 125.842C237.333 125.842 236.689 125.721 236.215 125.478C235.75 125.236 235.415 124.825 235.211 124.243C235.008 123.661 234.906 122.867 234.906 121.859C234.906 120.833 235.008 120.033 235.211 119.461C235.424 118.88 235.769 118.473 236.243 118.24C236.718 118.008 237.358 117.891 238.162 117.891C238.85 117.891 239.407 117.969 239.834 118.124C240.27 118.279 240.59 118.546 240.792 118.924C241.006 119.291 241.113 119.805 241.113 120.464C241.113 120.92 241.02 121.287 240.837 121.569C240.662 121.84 240.405 122.038 240.066 122.165C239.737 122.28 239.345 122.339 238.889 122.339H236.055C236.064 122.968 236.132 123.478 236.258 123.865C236.384 124.243 236.612 124.52 236.941 124.694C237.281 124.858 237.774 124.941 238.423 124.941H240.924V125.638C240.478 125.697 240.042 125.745 239.616 125.784C239.189 125.823 238.7 125.842 238.148 125.842ZM236.04 121.583H238.801C239.238 121.583 239.557 121.505 239.761 121.35C239.974 121.186 240.081 120.895 240.081 120.479C240.081 120.033 240.013 119.689 239.877 119.446C239.751 119.194 239.548 119.02 239.266 118.924C238.995 118.817 238.627 118.763 238.162 118.763C237.619 118.763 237.193 118.846 236.883 119.011C236.573 119.166 236.354 119.446 236.229 119.854C236.103 120.26 236.04 120.838 236.04 121.583ZM245.721 125.842C245.527 125.842 245.289 125.837 245.009 125.828C244.728 125.818 244.432 125.803 244.122 125.784C243.821 125.765 243.545 125.745 243.293 125.725C243.051 125.697 242.862 125.668 242.727 125.638V124.941H245.909C246.23 124.941 246.505 124.917 246.738 124.868C246.97 124.82 247.15 124.713 247.276 124.548C247.412 124.384 247.48 124.137 247.48 123.807V123.458C247.48 123.119 247.368 122.858 247.145 122.674C246.923 122.48 246.564 122.383 246.069 122.383H244.979C244.524 122.383 244.117 122.325 243.758 122.208C243.41 122.092 243.138 121.893 242.945 121.613C242.751 121.331 242.654 120.944 242.654 120.45V120.042C242.654 119.558 242.746 119.161 242.929 118.851C243.124 118.541 243.419 118.307 243.817 118.152C244.223 117.997 244.747 117.92 245.386 117.92C245.658 117.92 245.968 117.93 246.317 117.95C246.675 117.969 247.024 117.997 247.363 118.037C247.703 118.065 247.978 118.1 248.191 118.138V118.836H245.197C244.704 118.836 244.321 118.918 244.049 119.084C243.788 119.248 243.657 119.568 243.657 120.042V120.362C243.657 120.662 243.72 120.89 243.845 121.045C243.972 121.191 244.146 121.287 244.369 121.336C244.601 121.385 244.868 121.409 245.169 121.409H246.273C246.98 121.409 247.527 121.573 247.916 121.902C248.303 122.233 248.497 122.707 248.497 123.327V123.865C248.497 124.389 248.376 124.795 248.133 125.086C247.901 125.367 247.576 125.566 247.16 125.682C246.752 125.788 246.273 125.842 245.721 125.842ZM250.343 125.769C250.188 125.769 250.11 125.692 250.11 125.537V124.374C250.11 124.219 250.188 124.142 250.343 124.142H250.983C251.138 124.142 251.215 124.219 251.215 124.374V125.537C251.215 125.614 251.19 125.673 251.143 125.711C251.103 125.75 251.051 125.769 250.983 125.769H250.343Z" fill="white"/>
<circle cx="332.5" cy="60.5" r="47.5" fill="white" fill-opacity="0.2"/>
</g>
</g>
<defs>
<filter id="filter0_d_1499_9384" x="0.564999" y="-14.8947" width="355.152" height="214.53" filterUnits="userSpaceOnUse" color-interpolation-filters="sRGB">
<feFlood flood-opacity="0" result="BackgroundImageFix"/>
<feColorMatrix in="SourceAlpha" type="matrix" values="0 0 0 0 0 0 0 0 0 0 0 0 0 0 0 0 0 0 127 0" result="hardAlpha"/>
<feOffset dy="4.05298"/>
<feGaussianBlur stdDeviation="9.47385"/>
<feComposite in2="hardAlpha" operator="out"/>
<feColorMatrix type="matrix" values="0 0 0 0 0 0 0 0 0 0 0 0 0 0 0 0 0 0 0.25 0"/>
<feBlend mode="normal" in2="BackgroundImageFix" result="effect1_dropShadow_1499_9384"/>
<feBlend mode="normal" in="SourceGraphic" in2="effect1_dropShadow_1499_9384" result="shape"/>
</filter>
<linearGradient id="paint0_linear_1499_9384" x1="178.141" y1="0" x2="178.141" y2="176.635" gradientUnits="userSpaceOnUse">
<stop stop-color="#7030A0"/>
<stop offset="1" stop-color="#B53784"/>
</linearGradient>
<clipPath id="clip0_1499_9384">
<rect x="19.5127" width="317.256" height="176.635" rx="16" fill="white"/>
</clipPath>
</defs>
</svg>
