<svg width="351" height="213" viewBox="0 0 351 213" fill="none" xmlns="http://www.w3.org/2000/svg">
<g filter="url(#filter0_d_931_1173)">
<rect x="19" y="15" width="313.109" height="174.326" rx="16.9248" fill="white"/>
<mask id="mask0_931_1173" style="mask-type:alpha" maskUnits="userSpaceOnUse" x="19" y="15" width="314" height="175">
<rect x="19" y="15" width="313.109" height="174.326" rx="16.9248" fill="url(#paint0_linear_931_1173)"/>
</mask>
<g mask="url(#mask0_931_1173)">
<path d="M71.4671 181.71C71.4671 210.686 47.9769 234.177 19.0002 234.177C-9.97654 234.177 -33.4668 210.686 -33.4668 181.71C-33.4668 152.733 -9.97654 129.243 19.0002 129.243C47.9769 129.243 71.4671 152.733 71.4671 181.71Z" fill="#7030A0"/>
<ellipse cx="60.6938" cy="61.938" rx="60.6938" ry="61.938" transform="matrix(0.861361 -0.507994 0.492048 0.870568 288.104 52.9683)" fill="#7030A0"/>
<circle cx="-3.00179" cy="130.089" r="52.467" fill="#B53784"/>
<ellipse cx="60.6938" cy="61.938" rx="60.6938" ry="61.938" transform="matrix(0.861361 -0.507994 0.492048 0.870568 234.792 -5.42236)" fill="#B53784"/>
</g>
<path d="M78.792 83V62.28H87.36C88.1813 62.28 88.9467 62.3827 89.656 62.588C90.3653 62.7747 90.9907 63.1107 91.532 63.596C92.0733 64.0813 92.4933 64.7533 92.792 65.612C93.1093 66.4707 93.268 67.572 93.268 68.916C93.268 69.868 93.1747 70.68 92.988 71.352C92.8013 72.024 92.5493 72.5747 92.232 73.004C91.9333 73.4333 91.588 73.7787 91.196 74.04C90.804 74.3013 90.4027 74.516 89.992 74.684L93.856 83H89.628L86.296 75.328C86.072 75.328 85.8107 75.328 85.512 75.328C85.232 75.3093 84.9427 75.3 84.644 75.3C84.3453 75.3 84.0467 75.3 83.748 75.3C83.4493 75.3 83.1787 75.2907 82.936 75.272V83H78.792ZM82.936 71.996H86.632C87.0053 71.996 87.3413 71.9493 87.64 71.856C87.9387 71.7627 88.2 71.604 88.424 71.38C88.648 71.1373 88.816 70.82 88.928 70.428C89.0587 70.036 89.124 69.532 89.124 68.916C89.124 68.3373 89.0587 67.8613 88.928 67.488C88.816 67.096 88.648 66.7973 88.424 66.592C88.2 66.368 87.9387 66.2187 87.64 66.144C87.3413 66.0507 87.0053 66.004 86.632 66.004H82.936V71.996ZM102.205 83.14C100.544 83.14 99.2186 82.9253 98.2293 82.496C97.2399 82.048 96.5213 81.264 96.0733 80.144C95.6439 79.024 95.4293 77.4747 95.4293 75.496C95.4293 73.4613 95.6346 71.884 96.0453 70.764C96.4559 69.644 97.1466 68.86 98.1173 68.412C99.0879 67.964 100.404 67.74 102.065 67.74C103.559 67.74 104.753 67.8893 105.649 68.188C106.545 68.4867 107.189 69.0093 107.581 69.756C107.992 70.5027 108.197 71.5573 108.197 72.92C108.197 73.928 107.992 74.7307 107.581 75.328C107.189 75.9067 106.629 76.3267 105.901 76.588C105.173 76.8307 104.315 76.952 103.325 76.952H99.5453C99.5826 77.7173 99.6946 78.3333 99.8813 78.8C100.087 79.248 100.451 79.5747 100.973 79.78C101.515 79.9667 102.289 80.06 103.297 80.06H107.693V82.496C106.965 82.6453 106.163 82.7947 105.285 82.944C104.427 83.0747 103.4 83.14 102.205 83.14ZM99.4893 74.488H102.905C103.465 74.488 103.876 74.376 104.137 74.152C104.399 73.928 104.529 73.5267 104.529 72.948C104.529 72.4067 104.445 71.9773 104.277 71.66C104.109 71.324 103.848 71.0907 103.493 70.96C103.139 70.8107 102.663 70.736 102.065 70.736C101.431 70.736 100.927 70.848 100.553 71.072C100.18 71.2773 99.9093 71.6507 99.7413 72.192C99.5733 72.7333 99.4893 73.4987 99.4893 74.488ZM116.628 83C115.471 83 114.528 82.832 113.8 82.496C113.091 82.16 112.578 81.6 112.26 80.816C111.943 80.032 111.803 78.9773 111.84 77.652L111.98 71.296H109.628V68.636L112.12 67.964L112.68 63.764H115.956V67.964H119.484V71.296H115.956V77.624C115.956 78.0347 115.994 78.3707 116.068 78.632C116.143 78.8933 116.246 79.108 116.376 79.276C116.526 79.4253 116.694 79.5373 116.88 79.612C117.067 79.6867 117.254 79.7333 117.44 79.752L119.344 79.92V83H116.628ZM124.991 83.168C123.852 83.168 122.928 82.832 122.219 82.16C121.51 81.488 121.155 80.5547 121.155 79.36V78.016C121.155 76.8773 121.556 75.944 122.359 75.216C123.162 74.4693 124.412 74.096 126.111 74.096H129.947V73.06C129.947 72.5933 129.863 72.2107 129.695 71.912C129.527 71.5947 129.21 71.3707 128.743 71.24C128.295 71.0907 127.604 71.016 126.671 71.016H122.163V68.608C122.891 68.384 123.731 68.188 124.683 68.02C125.654 67.852 126.82 67.768 128.183 67.768C129.434 67.768 130.498 67.9173 131.375 68.216C132.271 68.5147 132.943 69.028 133.391 69.756C133.858 70.484 134.091 71.492 134.091 72.78V83H130.815L130.143 81.404C130.012 81.5533 129.788 81.7213 129.471 81.908C129.154 82.0947 128.762 82.2907 128.295 82.496C127.847 82.6827 127.334 82.8413 126.755 82.972C126.195 83.1027 125.607 83.168 124.991 83.168ZM127.091 80.284C127.278 80.284 127.483 80.2653 127.707 80.228C127.95 80.172 128.192 80.116 128.435 80.06C128.696 79.9853 128.93 79.92 129.135 79.864C129.359 79.7893 129.536 79.724 129.667 79.668C129.816 79.612 129.91 79.5747 129.947 79.556V76.056L127.427 76.224C126.699 76.28 126.158 76.4667 125.803 76.784C125.467 77.1013 125.299 77.5307 125.299 78.072V78.688C125.299 79.0613 125.374 79.3693 125.523 79.612C125.691 79.8547 125.906 80.032 126.167 80.144C126.447 80.2373 126.755 80.284 127.091 80.284ZM137.698 65.752C137.306 65.752 137.11 65.5653 137.11 65.192V62.448C137.11 62.056 137.306 61.86 137.698 61.86H140.89C141.058 61.86 141.188 61.916 141.282 62.028C141.375 62.14 141.422 62.28 141.422 62.448V65.192C141.422 65.5653 141.244 65.752 140.89 65.752H137.698ZM137.194 83V67.964H141.338V83H137.194ZM144.522 83V67.964H147.938L148.666 69.504C149.226 69.0373 149.926 68.6267 150.766 68.272C151.624 67.8987 152.502 67.712 153.398 67.712C154.63 67.712 155.582 67.9547 156.254 68.44C156.926 68.9253 157.392 69.5787 157.654 70.4C157.934 71.2027 158.074 72.0987 158.074 73.088V83H153.93V73.62C153.93 73.1347 153.836 72.7333 153.65 72.416C153.482 72.0987 153.239 71.856 152.922 71.688C152.604 71.52 152.222 71.436 151.774 71.436C151.382 71.436 150.999 71.4827 150.626 71.576C150.271 71.6693 149.926 71.8 149.59 71.968C149.272 72.136 148.964 72.332 148.666 72.556V83H144.522ZM167.502 83.14C165.841 83.14 164.515 82.9253 163.526 82.496C162.537 82.048 161.818 81.264 161.37 80.144C160.941 79.024 160.726 77.4747 160.726 75.496C160.726 73.4613 160.931 71.884 161.342 70.764C161.753 69.644 162.443 68.86 163.414 68.412C164.385 67.964 165.701 67.74 167.362 67.74C168.855 67.74 170.05 67.8893 170.946 68.188C171.842 68.4867 172.486 69.0093 172.878 69.756C173.289 70.5027 173.494 71.5573 173.494 72.92C173.494 73.928 173.289 74.7307 172.878 75.328C172.486 75.9067 171.926 76.3267 171.198 76.588C170.47 76.8307 169.611 76.952 168.622 76.952H164.842C164.879 77.7173 164.991 78.3333 165.178 78.8C165.383 79.248 165.747 79.5747 166.27 79.78C166.811 79.9667 167.586 80.06 168.594 80.06H172.99V82.496C172.262 82.6453 171.459 82.7947 170.582 82.944C169.723 83.0747 168.697 83.14 167.502 83.14ZM164.786 74.488H168.202C168.762 74.488 169.173 74.376 169.434 74.152C169.695 73.928 169.826 73.5267 169.826 72.948C169.826 72.4067 169.742 71.9773 169.574 71.66C169.406 71.324 169.145 71.0907 168.79 70.96C168.435 70.8107 167.959 70.736 167.362 70.736C166.727 70.736 166.223 70.848 165.85 71.072C165.477 71.2773 165.206 71.6507 165.038 72.192C164.87 72.7333 164.786 73.4987 164.786 74.488ZM176.213 83V67.964H179.405L180.357 70.26C180.899 69.5693 181.505 68.9813 182.177 68.496C182.868 68.0107 183.68 67.768 184.613 67.768C184.819 67.768 185.024 67.7773 185.229 67.796C185.453 67.8147 185.659 67.852 185.845 67.908V72.164C185.565 72.1267 185.267 72.0987 184.949 72.08C184.651 72.0427 184.361 72.024 184.081 72.024C183.54 72.024 183.045 72.0893 182.597 72.22C182.168 72.332 181.767 72.5093 181.393 72.752C181.039 72.976 180.693 73.2747 180.357 73.648V83H176.213ZM194.908 83L197.316 62.28H201.292L206.052 78.156L210.784 62.28H214.732L217.168 83H213.164L211.372 67.74L212.016 67.796L207.956 83H204.064L199.948 67.796L200.648 67.768L198.912 83H194.908ZM226.157 83.14C224.925 83.14 223.87 83.0187 222.993 82.776C222.116 82.5147 221.397 82.0853 220.837 81.488C220.296 80.8907 219.894 80.0973 219.633 79.108C219.39 78.1187 219.269 76.896 219.269 75.44C219.269 73.9093 219.39 72.6493 219.633 71.66C219.894 70.652 220.296 69.868 220.837 69.308C221.397 68.7293 222.116 68.328 222.993 68.104C223.889 67.8613 224.944 67.74 226.157 67.74C227.408 67.74 228.472 67.8613 229.349 68.104C230.226 68.3467 230.936 68.7573 231.477 69.336C232.037 69.896 232.438 70.68 232.681 71.688C232.942 72.6773 233.073 73.928 233.073 75.44C233.073 76.9333 232.952 78.184 232.709 79.192C232.466 80.1813 232.074 80.9653 231.533 81.544C230.992 82.1227 230.273 82.5333 229.377 82.776C228.5 83.0187 227.426 83.14 226.157 83.14ZM226.157 79.836C226.661 79.836 227.081 79.7893 227.417 79.696C227.772 79.6027 228.052 79.416 228.257 79.136C228.481 78.8373 228.649 78.3893 228.761 77.792C228.873 77.1947 228.929 76.4107 228.929 75.44C228.929 74.4507 228.873 73.6667 228.761 73.088C228.649 72.4907 228.481 72.052 228.257 71.772C228.052 71.4733 227.772 71.2773 227.417 71.184C227.081 71.0907 226.661 71.044 226.157 71.044C225.672 71.044 225.252 71.0907 224.897 71.184C224.561 71.2773 224.281 71.4733 224.057 71.772C223.833 72.052 223.665 72.4907 223.553 73.088C223.46 73.6667 223.413 74.4507 223.413 75.44C223.413 76.4107 223.46 77.1947 223.553 77.792C223.665 78.3893 223.833 78.8373 224.057 79.136C224.281 79.416 224.561 79.6027 224.897 79.696C225.252 79.7893 225.672 79.836 226.157 79.836ZM240.751 83.168C239.575 83.168 238.585 82.9253 237.783 82.44C236.98 81.936 236.373 81.1333 235.963 80.032C235.571 78.912 235.375 77.4467 235.375 75.636C235.375 73.7693 235.543 72.2573 235.879 71.1C236.233 69.9427 236.821 69.0933 237.643 68.552C238.464 68.0107 239.593 67.74 241.031 67.74C241.721 67.74 242.403 67.8147 243.075 67.964C243.747 68.0947 244.344 68.2533 244.867 68.44V61.636H249.039V83H245.539L244.867 81.572C244.549 81.8707 244.157 82.1413 243.691 82.384C243.243 82.6267 242.767 82.8227 242.263 82.972C241.759 83.1027 241.255 83.168 240.751 83.168ZM242.207 79.836C242.767 79.836 243.271 79.7427 243.719 79.556C244.185 79.3693 244.568 79.1827 244.867 78.996V71.436C244.493 71.3053 244.101 71.1747 243.691 71.044C243.28 70.9133 242.841 70.848 242.375 70.848C241.684 70.848 241.124 70.9693 240.695 71.212C240.284 71.4547 239.985 71.912 239.799 72.584C239.612 73.2373 239.519 74.1893 239.519 75.44C239.519 76.5973 239.603 77.5027 239.771 78.156C239.957 78.7907 240.247 79.2293 240.639 79.472C241.031 79.7147 241.553 79.836 242.207 79.836ZM258.475 83.14C256.813 83.14 255.488 82.9253 254.499 82.496C253.509 82.048 252.791 81.264 252.343 80.144C251.913 79.024 251.699 77.4747 251.699 75.496C251.699 73.4613 251.904 71.884 252.315 70.764C252.725 69.644 253.416 68.86 254.387 68.412C255.357 67.964 256.673 67.74 258.335 67.74C259.828 67.74 261.023 67.8893 261.919 68.188C262.815 68.4867 263.459 69.0093 263.851 69.756C264.261 70.5027 264.467 71.5573 264.467 72.92C264.467 73.928 264.261 74.7307 263.851 75.328C263.459 75.9067 262.899 76.3267 262.171 76.588C261.443 76.8307 260.584 76.952 259.595 76.952H255.815C255.852 77.7173 255.964 78.3333 256.151 78.8C256.356 79.248 256.72 79.5747 257.243 79.78C257.784 79.9667 258.559 80.06 259.567 80.06H263.963V82.496C263.235 82.6453 262.432 82.7947 261.555 82.944C260.696 83.0747 259.669 83.14 258.475 83.14ZM255.759 74.488H259.175C259.735 74.488 260.145 74.376 260.407 74.152C260.668 73.928 260.799 73.5267 260.799 72.948C260.799 72.4067 260.715 71.9773 260.547 71.66C260.379 71.324 260.117 71.0907 259.763 70.96C259.408 70.8107 258.932 70.736 258.335 70.736C257.7 70.736 257.196 70.848 256.823 71.072C256.449 71.2773 256.179 71.6507 256.011 72.192C255.843 72.7333 255.759 73.4987 255.759 74.488ZM271.89 83.056C270.826 83.056 269.939 82.888 269.23 82.552C268.539 82.1973 268.026 81.6653 267.69 80.956C267.354 80.228 267.186 79.2947 267.186 78.156V61.636H271.33V77.54C271.33 78.1 271.386 78.548 271.498 78.884C271.61 79.2013 271.778 79.4347 272.002 79.584C272.245 79.7333 272.543 79.836 272.898 79.892L274.046 80.06V83.056H271.89Z" fill="#5B5B5B"/>
<path d="M74.9216 118C74.5104 118 74.1422 117.938 73.817 117.814C73.5014 117.68 73.2528 117.46 73.0711 117.154C72.8894 116.838 72.7985 116.412 72.7985 115.877V107.442H73.9461V115.719C73.9461 116.063 74.0035 116.326 74.1183 116.508C74.233 116.68 74.3861 116.8 74.5773 116.867C74.7686 116.924 74.9646 116.953 75.1655 116.953H78.9526V118H74.9216ZM83.4603 118.086C82.9056 118.086 82.4179 118.029 81.9971 117.914C81.5859 117.799 81.2416 117.598 80.9642 117.311C80.6869 117.025 80.4813 116.628 80.3474 116.121C80.2135 115.604 80.1465 114.949 80.1465 114.155C80.1465 113.352 80.2135 112.697 80.3474 112.19C80.4813 111.674 80.6869 111.277 80.9642 110.999C81.2416 110.713 81.5859 110.517 81.9971 110.411C82.4179 110.297 82.9056 110.239 83.4603 110.239C84.015 110.239 84.498 110.297 84.9092 110.411C85.33 110.526 85.679 110.727 85.9564 111.014C86.2337 111.291 86.4393 111.688 86.5732 112.205C86.7167 112.711 86.7884 113.362 86.7884 114.155C86.7884 114.959 86.7167 115.619 86.5732 116.135C86.4393 116.642 86.2337 117.039 85.9564 117.326C85.6886 117.603 85.3443 117.799 84.9235 117.914C84.5027 118.029 84.015 118.086 83.4603 118.086ZM83.4603 117.154C83.8142 117.154 84.125 117.12 84.3928 117.053C84.6701 116.986 84.8996 116.852 85.0813 116.652C85.263 116.451 85.4017 116.149 85.4973 115.748C85.593 115.346 85.6408 114.815 85.6408 114.155C85.6408 113.486 85.593 112.955 85.4973 112.563C85.4017 112.171 85.263 111.875 85.0813 111.674C84.8996 111.473 84.6701 111.339 84.3928 111.272C84.125 111.205 83.8142 111.172 83.4603 111.172C83.0969 111.172 82.7813 111.205 82.5135 111.272C82.2457 111.339 82.021 111.473 81.8393 111.674C81.6576 111.875 81.5189 112.171 81.4233 112.563C81.3276 112.955 81.2798 113.486 81.2798 114.155C81.2798 114.815 81.3276 115.346 81.4233 115.748C81.5189 116.149 81.6576 116.451 81.8393 116.652C82.021 116.852 82.2457 116.986 82.5135 117.053C82.7813 117.12 83.0969 117.154 83.4603 117.154ZM88.6985 118V110.34H89.5879L89.8317 111.186C90.1952 110.928 90.6207 110.703 91.1085 110.512C91.5962 110.311 92.1031 110.211 92.6291 110.211C93.1933 110.211 93.6476 110.33 93.9919 110.569C94.3362 110.808 94.5896 111.124 94.7522 111.516C94.9148 111.908 94.996 112.334 94.996 112.793V118H93.8628V112.922C93.8628 112.597 93.7958 112.31 93.6619 112.061C93.5376 111.803 93.3559 111.602 93.1168 111.459C92.8873 111.315 92.6004 111.243 92.2561 111.243C91.9405 111.243 91.644 111.277 91.3667 111.344C91.0989 111.401 90.8407 111.487 90.592 111.602C90.353 111.707 90.0995 111.836 89.8317 111.989V118H88.6985ZM99.0112 121.515C98.5139 121.515 98.0739 121.443 97.6914 121.299C97.3184 121.166 97.0219 120.955 96.802 120.668C96.5916 120.391 96.4864 120.042 96.4864 119.621V119.277C96.4864 118.837 96.6059 118.469 96.845 118.172C97.0937 117.876 97.4045 117.656 97.7775 117.512C98.1504 117.359 98.533 117.283 98.9251 117.283L99.212 117.742C98.9251 117.742 98.6573 117.79 98.4087 117.885C98.16 117.971 97.9544 118.115 97.7918 118.316C97.6388 118.516 97.5623 118.775 97.5623 119.09V119.406C97.5623 119.865 97.7153 120.19 98.0213 120.381C98.3274 120.582 98.7434 120.683 99.2694 120.683H101.048C101.622 120.683 102.071 120.573 102.397 120.353C102.731 120.133 102.899 119.788 102.899 119.32V119.033C102.899 118.765 102.846 118.536 102.741 118.344C102.636 118.153 102.459 118.005 102.21 117.9C101.971 117.794 101.632 117.742 101.192 117.742H98.8821C98.2891 117.742 97.8253 117.617 97.4906 117.369C97.1654 117.111 97.0028 116.781 97.0028 116.379C97.0028 115.996 97.1128 115.695 97.3328 115.475C97.5623 115.255 97.8827 115.102 98.2939 115.016C97.94 114.873 97.6627 114.681 97.4619 114.442C97.261 114.194 97.1224 113.931 97.0459 113.653C96.9693 113.366 96.9311 113.08 96.9311 112.793C96.9311 112.2 97.0506 111.722 97.2897 111.358C97.5288 110.995 97.8683 110.732 98.3082 110.569C98.7577 110.407 99.2837 110.325 99.8862 110.325H103.975V110.971L102.253 111.114C102.378 111.2 102.516 111.315 102.669 111.459C102.822 111.592 102.951 111.788 103.057 112.047C103.171 112.295 103.229 112.64 103.229 113.08C103.229 113.472 103.143 113.845 102.97 114.198C102.808 114.552 102.531 114.844 102.138 115.074C101.746 115.294 101.206 115.404 100.517 115.404H99.2981C98.8964 115.404 98.576 115.466 98.3369 115.59C98.1074 115.705 97.9926 115.915 97.9926 116.221C97.9926 116.451 98.0787 116.613 98.2509 116.709C98.423 116.805 98.6047 116.852 98.796 116.852H101.335C101.928 116.852 102.416 116.929 102.798 117.082C103.19 117.235 103.482 117.469 103.673 117.785C103.874 118.091 103.975 118.483 103.975 118.961V119.277C103.975 119.975 103.736 120.52 103.257 120.912C102.789 121.314 102.086 121.515 101.149 121.515H99.0112ZM99.5419 114.528H100.403C100.89 114.528 101.259 114.457 101.507 114.313C101.765 114.16 101.942 113.964 102.038 113.725C102.134 113.486 102.181 113.228 102.181 112.95C102.181 112.52 102.11 112.181 101.966 111.932C101.832 111.674 101.641 111.492 101.392 111.387C101.144 111.272 100.857 111.215 100.532 111.215H99.7141C99.169 111.215 98.7386 111.339 98.423 111.588C98.117 111.827 97.964 112.248 97.964 112.85C97.964 113.443 98.1026 113.873 98.38 114.141C98.6669 114.399 99.0542 114.528 99.5419 114.528ZM104.666 114.313V113.366H108.869V114.313H104.666ZM112.854 118C112.356 118 111.945 117.919 111.62 117.756C111.295 117.594 111.056 117.331 110.903 116.967C110.75 116.604 110.678 116.121 110.687 115.518L110.73 111.272H109.511V110.54L110.745 110.34L110.931 108.202H111.806V110.34H114.016V111.272H111.806V115.518C111.806 115.853 111.84 116.121 111.907 116.322C111.983 116.522 112.079 116.675 112.194 116.781C112.318 116.886 112.447 116.962 112.581 117.01C112.715 117.048 112.844 117.072 112.968 117.082L113.901 117.168V118H112.854ZM118.508 118.086C117.705 118.086 117.069 117.967 116.6 117.727C116.141 117.488 115.811 117.082 115.611 116.508C115.41 115.934 115.309 115.15 115.309 114.155C115.309 113.142 115.41 112.353 115.611 111.788C115.821 111.215 116.16 110.813 116.629 110.583C117.098 110.354 117.729 110.239 118.523 110.239C119.202 110.239 119.752 110.316 120.172 110.469C120.603 110.622 120.918 110.885 121.119 111.258C121.33 111.621 121.435 112.128 121.435 112.778C121.435 113.228 121.344 113.591 121.162 113.869C120.99 114.136 120.737 114.332 120.402 114.457C120.077 114.571 119.689 114.629 119.24 114.629H116.443C116.452 115.25 116.519 115.753 116.643 116.135C116.768 116.508 116.992 116.781 117.318 116.953C117.652 117.115 118.14 117.197 118.781 117.197H121.248V117.885C120.808 117.943 120.378 117.99 119.957 118.029C119.536 118.067 119.053 118.086 118.508 118.086ZM116.428 113.883H119.154C119.584 113.883 119.9 113.806 120.101 113.653C120.311 113.491 120.416 113.204 120.416 112.793C120.416 112.353 120.349 112.013 120.215 111.774C120.091 111.525 119.89 111.353 119.613 111.258C119.345 111.153 118.982 111.1 118.523 111.1C117.987 111.1 117.566 111.181 117.26 111.344C116.954 111.497 116.739 111.774 116.615 112.176C116.49 112.577 116.428 113.147 116.428 113.883ZM123.343 118V110.34H124.204L124.476 111.674C124.82 111.262 125.203 110.923 125.624 110.655C126.054 110.387 126.547 110.254 127.101 110.254C127.235 110.254 127.36 110.258 127.474 110.268C127.599 110.277 127.713 110.297 127.819 110.325V111.487C127.694 111.468 127.56 111.454 127.417 111.444C127.274 111.425 127.13 111.416 126.987 111.416C126.633 111.416 126.317 111.459 126.04 111.545C125.762 111.631 125.499 111.76 125.251 111.932C125.002 112.104 124.744 112.314 124.476 112.563V118H123.343ZM129.255 118V110.34H130.144L130.388 111.186C130.771 110.918 131.196 110.689 131.665 110.497C132.143 110.306 132.674 110.211 133.257 110.211C133.735 110.211 134.142 110.32 134.476 110.54C134.821 110.751 135.079 111.019 135.251 111.344C135.49 111.172 135.777 111 136.112 110.827C136.456 110.655 136.819 110.512 137.202 110.397C137.594 110.273 137.972 110.211 138.335 110.211C138.89 110.211 139.344 110.33 139.698 110.569C140.052 110.799 140.31 111.114 140.473 111.516C140.645 111.908 140.731 112.348 140.731 112.836V118H139.598V112.922C139.598 112.597 139.531 112.31 139.397 112.061C139.273 111.803 139.091 111.602 138.852 111.459C138.613 111.315 138.321 111.243 137.977 111.243C137.546 111.243 137.106 111.325 136.657 111.487C136.207 111.65 135.791 111.846 135.409 112.075C135.457 112.219 135.49 112.362 135.509 112.506C135.538 112.64 135.552 112.783 135.552 112.936V118H134.419V112.922C134.419 112.597 134.352 112.31 134.218 112.061C134.094 111.803 133.912 111.602 133.673 111.459C133.444 111.315 133.157 111.243 132.812 111.243C132.497 111.243 132.2 111.277 131.923 111.344C131.655 111.401 131.397 111.487 131.148 111.602C130.909 111.707 130.656 111.836 130.388 111.989V118H129.255ZM149.364 118.086C149.172 118.086 148.938 118.081 148.661 118.072C148.383 118.062 148.092 118.048 147.786 118.029C147.489 118.01 147.217 117.99 146.968 117.971C146.729 117.943 146.542 117.914 146.408 117.885V117.197H149.55C149.866 117.197 150.138 117.173 150.368 117.125C150.597 117.077 150.774 116.972 150.899 116.809C151.032 116.647 151.099 116.403 151.099 116.078V115.733C151.099 115.399 150.989 115.141 150.769 114.959C150.549 114.768 150.196 114.672 149.708 114.672H148.632C148.182 114.672 147.781 114.615 147.427 114.5C147.083 114.385 146.815 114.189 146.624 113.912C146.432 113.634 146.337 113.252 146.337 112.764V112.362C146.337 111.884 146.428 111.492 146.609 111.186C146.801 110.88 147.092 110.65 147.484 110.497C147.886 110.344 148.402 110.268 149.034 110.268C149.301 110.268 149.607 110.277 149.952 110.297C150.306 110.316 150.65 110.344 150.985 110.383C151.319 110.411 151.592 110.445 151.802 110.483V111.172H148.847C148.359 111.172 147.982 111.253 147.714 111.416C147.456 111.578 147.327 111.894 147.327 112.362V112.678C147.327 112.974 147.389 113.199 147.513 113.352C147.637 113.496 147.809 113.591 148.029 113.639C148.259 113.687 148.522 113.711 148.818 113.711H149.909C150.607 113.711 151.147 113.873 151.53 114.198C151.912 114.524 152.104 114.992 152.104 115.604V116.135C152.104 116.652 151.984 117.053 151.745 117.34C151.515 117.617 151.195 117.814 150.784 117.928C150.382 118.033 149.909 118.086 149.364 118.086ZM156.178 118.086C155.441 118.086 154.872 117.895 154.47 117.512C154.078 117.13 153.882 116.537 153.882 115.733V110.34H155.016V115.447C155.016 116.087 155.159 116.522 155.446 116.752C155.742 116.972 156.154 117.082 156.68 117.082C157.129 117.082 157.54 117.02 157.913 116.895C158.286 116.762 158.669 116.58 159.061 116.35V110.34H160.194V118H159.305L159.061 117.154C158.669 117.402 158.224 117.622 157.727 117.814C157.239 117.995 156.723 118.086 156.178 118.086ZM162.33 121.4V110.34H163.248L163.463 111.129C163.636 111.004 163.856 110.875 164.123 110.741C164.401 110.598 164.697 110.478 165.013 110.383C165.338 110.287 165.658 110.239 165.974 110.239C166.471 110.239 166.892 110.349 167.236 110.569C167.59 110.78 167.877 111.066 168.097 111.43C168.317 111.793 168.475 112.209 168.57 112.678C168.666 113.147 168.714 113.639 168.714 114.155C168.714 115.016 168.613 115.743 168.413 116.336C168.221 116.919 167.925 117.359 167.523 117.656C167.121 117.952 166.605 118.1 165.974 118.1C165.543 118.1 165.108 118.033 164.668 117.9C164.238 117.756 163.836 117.579 163.463 117.369V121.4H162.33ZM165.658 117.139C166.022 117.139 166.347 117.048 166.634 116.867C166.921 116.685 167.15 116.379 167.322 115.949C167.494 115.509 167.581 114.911 167.581 114.155C167.581 113.438 167.49 112.864 167.308 112.434C167.126 111.994 166.892 111.679 166.605 111.487C166.318 111.286 166.003 111.186 165.658 111.186C165.218 111.186 164.812 111.258 164.439 111.401C164.075 111.535 163.75 111.679 163.463 111.832V116.522C163.798 116.704 164.152 116.852 164.525 116.967C164.908 117.082 165.285 117.139 165.658 117.139ZM170.623 121.4V110.34H171.542L171.757 111.129C171.929 111.004 172.149 110.875 172.417 110.741C172.694 110.598 172.99 110.478 173.306 110.383C173.631 110.287 173.952 110.239 174.267 110.239C174.765 110.239 175.185 110.349 175.53 110.569C175.883 110.78 176.17 111.066 176.39 111.43C176.61 111.793 176.768 112.209 176.864 112.678C176.959 113.147 177.007 113.639 177.007 114.155C177.007 115.016 176.907 115.743 176.706 116.336C176.515 116.919 176.218 117.359 175.816 117.656C175.415 117.952 174.898 118.1 174.267 118.1C173.837 118.1 173.402 118.033 172.962 117.9C172.531 117.756 172.13 117.579 171.757 117.369V121.4H170.623ZM173.952 117.139C174.315 117.139 174.64 117.048 174.927 116.867C175.214 116.685 175.444 116.379 175.616 115.949C175.788 115.509 175.874 114.911 175.874 114.155C175.874 113.438 175.783 112.864 175.601 112.434C175.42 111.994 175.185 111.679 174.898 111.487C174.611 111.286 174.296 111.186 173.952 111.186C173.512 111.186 173.105 111.258 172.732 111.401C172.369 111.535 172.044 111.679 171.757 111.832V116.522C172.091 116.704 172.445 116.852 172.818 116.967C173.201 117.082 173.579 117.139 173.952 117.139ZM181.958 118.086C181.403 118.086 180.916 118.029 180.495 117.914C180.084 117.799 179.739 117.598 179.462 117.311C179.185 117.025 178.979 116.628 178.845 116.121C178.711 115.604 178.644 114.949 178.644 114.155C178.644 113.352 178.711 112.697 178.845 112.19C178.979 111.674 179.185 111.277 179.462 110.999C179.739 110.713 180.084 110.517 180.495 110.411C180.916 110.297 181.403 110.239 181.958 110.239C182.513 110.239 182.996 110.297 183.407 110.411C183.828 110.526 184.177 110.727 184.454 111.014C184.731 111.291 184.937 111.688 185.071 112.205C185.214 112.711 185.286 113.362 185.286 114.155C185.286 114.959 185.214 115.619 185.071 116.135C184.937 116.642 184.731 117.039 184.454 117.326C184.186 117.603 183.842 117.799 183.421 117.914C183 118.029 182.513 118.086 181.958 118.086ZM181.958 117.154C182.312 117.154 182.623 117.12 182.891 117.053C183.168 116.986 183.397 116.852 183.579 116.652C183.761 116.451 183.899 116.149 183.995 115.748C184.091 115.346 184.139 114.815 184.139 114.155C184.139 113.486 184.091 112.955 183.995 112.563C183.899 112.171 183.761 111.875 183.579 111.674C183.397 111.473 183.168 111.339 182.891 111.272C182.623 111.205 182.312 111.172 181.958 111.172C181.595 111.172 181.279 111.205 181.011 111.272C180.744 111.339 180.519 111.473 180.337 111.674C180.155 111.875 180.017 112.171 179.921 112.563C179.825 112.955 179.778 113.486 179.778 114.155C179.778 114.815 179.825 115.346 179.921 115.748C180.017 116.149 180.155 116.451 180.337 116.652C180.519 116.852 180.744 116.986 181.011 117.053C181.279 117.12 181.595 117.154 181.958 117.154ZM187.196 118V110.34H188.057L188.33 111.674C188.674 111.262 189.056 110.923 189.477 110.655C189.907 110.387 190.4 110.254 190.955 110.254C191.089 110.254 191.213 110.258 191.328 110.268C191.452 110.277 191.567 110.297 191.672 110.325V111.487C191.548 111.468 191.414 111.454 191.27 111.444C191.127 111.425 190.983 111.416 190.84 111.416C190.486 111.416 190.17 111.459 189.893 111.545C189.616 111.631 189.353 111.76 189.104 111.932C188.856 112.104 188.597 112.314 188.33 112.563V118H187.196ZM195.787 118C195.29 118 194.879 117.919 194.554 117.756C194.228 117.594 193.989 117.331 193.836 116.967C193.683 116.604 193.612 116.121 193.621 115.518L193.664 111.272H192.445V110.54L193.678 110.34L193.865 108.202H194.74V110.34H196.949V111.272H194.74V115.518C194.74 115.853 194.774 116.121 194.84 116.322C194.917 116.522 195.013 116.675 195.127 116.781C195.252 116.886 195.381 116.962 195.515 117.01C195.649 117.048 195.778 117.072 195.902 117.082L196.834 117.168V118H195.787ZM202.798 118V111.272H201.622V110.54L202.798 110.34V109.465C202.798 108.919 202.865 108.465 202.999 108.102C203.133 107.729 203.358 107.447 203.673 107.255C203.989 107.064 204.429 106.968 204.993 106.968C205.328 106.968 205.61 106.988 205.839 107.026C206.078 107.055 206.289 107.083 206.47 107.112V107.915H205.194C204.849 107.915 204.586 107.973 204.405 108.087C204.223 108.193 204.099 108.36 204.032 108.589C203.965 108.809 203.931 109.082 203.931 109.407V110.34H206.313V111.272H203.931V118H202.798ZM210.705 118.086C210.15 118.086 209.662 118.029 209.241 117.914C208.83 117.799 208.486 117.598 208.209 117.311C207.931 117.025 207.726 116.628 207.592 116.121C207.458 115.604 207.391 114.949 207.391 114.155C207.391 113.352 207.458 112.697 207.592 112.19C207.726 111.674 207.931 111.277 208.209 110.999C208.486 110.713 208.83 110.517 209.241 110.411C209.662 110.297 210.15 110.239 210.705 110.239C211.259 110.239 211.742 110.297 212.154 110.411C212.574 110.526 212.923 110.727 213.201 111.014C213.478 111.291 213.684 111.688 213.818 112.205C213.961 112.711 214.033 113.362 214.033 114.155C214.033 114.959 213.961 115.619 213.818 116.135C213.684 116.642 213.478 117.039 213.201 117.326C212.933 117.603 212.589 117.799 212.168 117.914C211.747 118.029 211.259 118.086 210.705 118.086ZM210.705 117.154C211.059 117.154 211.369 117.12 211.637 117.053C211.914 116.986 212.144 116.852 212.326 116.652C212.507 116.451 212.646 116.149 212.742 115.748C212.837 115.346 212.885 114.815 212.885 114.155C212.885 113.486 212.837 112.955 212.742 112.563C212.646 112.171 212.507 111.875 212.326 111.674C212.144 111.473 211.914 111.339 211.637 111.272C211.369 111.205 211.059 111.172 210.705 111.172C210.341 111.172 210.026 111.205 209.758 111.272C209.49 111.339 209.265 111.473 209.084 111.674C208.902 111.875 208.763 112.171 208.668 112.563C208.572 112.955 208.524 113.486 208.524 114.155C208.524 114.815 208.572 115.346 208.668 115.748C208.763 116.149 208.902 116.451 209.084 116.652C209.265 116.852 209.49 116.986 209.758 117.053C210.026 117.12 210.341 117.154 210.705 117.154ZM215.943 118V110.34H216.804L217.076 111.674C217.42 111.262 217.803 110.923 218.224 110.655C218.654 110.387 219.147 110.254 219.701 110.254C219.835 110.254 219.96 110.258 220.074 110.268C220.199 110.277 220.313 110.297 220.419 110.325V111.487C220.294 111.468 220.16 111.454 220.017 111.444C219.873 111.425 219.73 111.416 219.587 111.416C219.233 111.416 218.917 111.459 218.64 111.545C218.362 111.631 218.099 111.76 217.851 111.932C217.602 112.104 217.344 112.314 217.076 112.563V118H215.943ZM228.648 118.086C227.844 118.086 227.208 117.967 226.74 117.727C226.281 117.488 225.951 117.082 225.75 116.508C225.549 115.934 225.449 115.15 225.449 114.155C225.449 113.142 225.549 112.353 225.75 111.788C225.96 111.215 226.3 110.813 226.768 110.583C227.237 110.354 227.868 110.239 228.662 110.239C229.341 110.239 229.891 110.316 230.312 110.469C230.742 110.622 231.058 110.885 231.258 111.258C231.469 111.621 231.574 112.128 231.574 112.778C231.574 113.228 231.483 113.591 231.301 113.869C231.129 114.136 230.876 114.332 230.541 114.457C230.216 114.571 229.829 114.629 229.379 114.629H226.582C226.591 115.25 226.658 115.753 226.783 116.135C226.907 116.508 227.132 116.781 227.457 116.953C227.792 117.115 228.279 117.197 228.92 117.197H231.388V117.885C230.948 117.943 230.517 117.99 230.096 118.029C229.676 118.067 229.193 118.086 228.648 118.086ZM226.568 113.883H229.293C229.723 113.883 230.039 113.806 230.24 113.653C230.45 113.491 230.556 113.204 230.556 112.793C230.556 112.353 230.489 112.013 230.355 111.774C230.23 111.525 230.03 111.353 229.752 111.258C229.484 111.153 229.121 111.1 228.662 111.1C228.126 111.1 227.706 111.181 227.4 111.344C227.094 111.497 226.878 111.774 226.754 112.176C226.63 112.577 226.568 113.147 226.568 113.883ZM235.408 118L232.524 110.34H233.686L236.068 116.938L238.521 110.34H239.668L236.699 118H235.408ZM243.794 118.086C243.239 118.086 242.752 118.029 242.331 117.914C241.92 117.799 241.575 117.598 241.298 117.311C241.021 117.025 240.815 116.628 240.681 116.121C240.547 115.604 240.48 114.949 240.48 114.155C240.48 113.352 240.547 112.697 240.681 112.19C240.815 111.674 241.021 111.277 241.298 110.999C241.575 110.713 241.92 110.517 242.331 110.411C242.752 110.297 243.239 110.239 243.794 110.239C244.349 110.239 244.832 110.297 245.243 110.411C245.664 110.526 246.013 110.727 246.29 111.014C246.568 111.291 246.773 111.688 246.907 112.205C247.05 112.711 247.122 113.362 247.122 114.155C247.122 114.959 247.05 115.619 246.907 116.135C246.773 116.642 246.568 117.039 246.29 117.326C246.022 117.603 245.678 117.799 245.257 117.914C244.837 118.029 244.349 118.086 243.794 118.086ZM243.794 117.154C244.148 117.154 244.459 117.12 244.727 117.053C245.004 116.986 245.233 116.852 245.415 116.652C245.597 116.451 245.735 116.149 245.831 115.748C245.927 115.346 245.975 114.815 245.975 114.155C245.975 113.486 245.927 112.955 245.831 112.563C245.735 112.171 245.597 111.875 245.415 111.674C245.233 111.473 245.004 111.339 244.727 111.272C244.459 111.205 244.148 111.172 243.794 111.172C243.431 111.172 243.115 111.205 242.847 111.272C242.58 111.339 242.355 111.473 242.173 111.674C241.991 111.875 241.853 112.171 241.757 112.563C241.661 112.955 241.614 113.486 241.614 114.155C241.614 114.815 241.661 115.346 241.757 115.748C241.853 116.149 241.991 116.451 242.173 116.652C242.355 116.852 242.58 116.986 242.847 117.053C243.115 117.12 243.431 117.154 243.794 117.154ZM251.041 118.014C250.601 118.014 250.232 117.938 249.936 117.785C249.64 117.622 249.415 117.364 249.262 117.01C249.109 116.647 249.032 116.159 249.032 115.547V107.055H250.166V115.404C250.166 115.863 250.209 116.212 250.295 116.451C250.381 116.68 250.505 116.843 250.668 116.938C250.83 117.025 251.021 117.082 251.241 117.111L252.016 117.197V118.014H251.041ZM255.315 118L252.431 110.34H253.593L255.975 116.938L258.428 110.34H259.575L256.606 118H255.315ZM261.112 108.977C260.959 108.977 260.883 108.9 260.883 108.747V107.628C260.883 107.475 260.959 107.399 261.112 107.399H261.915C261.992 107.399 262.045 107.423 262.073 107.471C262.112 107.509 262.131 107.561 262.131 107.628V108.747C262.131 108.9 262.059 108.977 261.915 108.977H261.112ZM260.94 118V110.34H262.073V118H260.94ZM264.26 118V110.34H265.15L265.393 111.186C265.757 110.928 266.182 110.703 266.67 110.512C267.158 110.311 267.665 110.211 268.191 110.211C268.755 110.211 269.209 110.33 269.554 110.569C269.898 110.808 270.151 111.124 270.314 111.516C270.476 111.908 270.558 112.334 270.558 112.793V118H269.424V112.922C269.424 112.597 269.357 112.31 269.224 112.061C269.099 111.803 268.918 111.602 268.678 111.459C268.449 111.315 268.162 111.243 267.818 111.243C267.502 111.243 267.206 111.277 266.928 111.344C266.661 111.401 266.402 111.487 266.154 111.602C265.915 111.707 265.661 111.836 265.393 111.989V118H264.26ZM274.573 121.515C274.076 121.515 273.636 121.443 273.253 121.299C272.88 121.166 272.584 120.955 272.364 120.668C272.153 120.391 272.048 120.042 272.048 119.621V119.277C272.048 118.837 272.168 118.469 272.407 118.172C272.655 117.876 272.966 117.656 273.339 117.512C273.712 117.359 274.095 117.283 274.487 117.283L274.774 117.742C274.487 117.742 274.219 117.79 273.97 117.885C273.722 117.971 273.516 118.115 273.353 118.316C273.2 118.516 273.124 118.775 273.124 119.09V119.406C273.124 119.865 273.277 120.19 273.583 120.381C273.889 120.582 274.305 120.683 274.831 120.683H276.61C277.184 120.683 277.633 120.573 277.958 120.353C278.293 120.133 278.46 119.788 278.46 119.32V119.033C278.46 118.765 278.408 118.536 278.303 118.344C278.197 118.153 278.02 118.005 277.772 117.9C277.533 117.794 277.193 117.742 276.753 117.742H274.444C273.851 117.742 273.387 117.617 273.052 117.369C272.727 117.111 272.564 116.781 272.564 116.379C272.564 115.996 272.674 115.695 272.894 115.475C273.124 115.255 273.444 115.102 273.856 115.016C273.502 114.873 273.224 114.681 273.024 114.442C272.823 114.194 272.684 113.931 272.608 113.653C272.531 113.366 272.493 113.08 272.493 112.793C272.493 112.2 272.612 111.722 272.851 111.358C273.09 110.995 273.43 110.732 273.87 110.569C274.319 110.407 274.845 110.325 275.448 110.325H279.536V110.971L277.815 111.114C277.939 111.2 278.078 111.315 278.231 111.459C278.384 111.592 278.513 111.788 278.618 112.047C278.733 112.295 278.79 112.64 278.79 113.08C278.79 113.472 278.704 113.845 278.532 114.198C278.37 114.552 278.092 114.844 277.7 115.074C277.308 115.294 276.768 115.404 276.079 115.404H274.86C274.458 115.404 274.138 115.466 273.899 115.59C273.669 115.705 273.554 115.915 273.554 116.221C273.554 116.451 273.64 116.613 273.813 116.709C273.985 116.805 274.166 116.852 274.358 116.852H276.897C277.49 116.852 277.977 116.929 278.36 117.082C278.752 117.235 279.044 117.469 279.235 117.785C279.436 118.091 279.536 118.483 279.536 118.961V119.277C279.536 119.975 279.297 120.52 278.819 120.912C278.35 121.314 277.647 121.515 276.71 121.515H274.573ZM275.104 114.528H275.964C276.452 114.528 276.82 114.457 277.069 114.313C277.327 114.16 277.504 113.964 277.6 113.725C277.695 113.486 277.743 113.228 277.743 112.95C277.743 112.52 277.671 112.181 277.528 111.932C277.394 111.674 277.203 111.492 276.954 111.387C276.705 111.272 276.419 111.215 276.093 111.215H275.276C274.731 111.215 274.3 111.339 273.985 111.588C273.679 111.827 273.526 112.248 273.526 112.85C273.526 113.443 273.664 113.873 273.942 114.141C274.229 114.399 274.616 114.528 275.104 114.528ZM155.746 139V131.34H156.635L156.879 132.186C157.243 131.928 157.668 131.703 158.156 131.512C158.644 131.311 159.15 131.211 159.676 131.211C160.241 131.211 160.695 131.33 161.039 131.569C161.384 131.808 161.637 132.124 161.8 132.516C161.962 132.908 162.043 133.334 162.043 133.793V139H160.91V133.922C160.91 133.597 160.843 133.31 160.709 133.061C160.585 132.803 160.403 132.602 160.164 132.459C159.935 132.315 159.648 132.243 159.303 132.243C158.988 132.243 158.691 132.277 158.414 132.344C158.146 132.401 157.888 132.487 157.639 132.602C157.4 132.707 157.147 132.836 156.879 132.989V139H155.746ZM167.106 139.086C166.302 139.086 165.666 138.967 165.198 138.727C164.739 138.488 164.409 138.082 164.208 137.508C164.007 136.934 163.907 136.15 163.907 135.155C163.907 134.142 164.007 133.353 164.208 132.788C164.418 132.215 164.758 131.813 165.227 131.583C165.695 131.354 166.326 131.239 167.12 131.239C167.799 131.239 168.349 131.316 168.77 131.469C169.2 131.622 169.516 131.885 169.717 132.258C169.927 132.621 170.032 133.128 170.032 133.778C170.032 134.228 169.941 134.591 169.76 134.869C169.587 135.136 169.334 135.332 168.999 135.457C168.674 135.571 168.287 135.629 167.837 135.629H165.04C165.05 136.25 165.117 136.753 165.241 137.135C165.365 137.508 165.59 137.781 165.915 137.953C166.25 138.115 166.738 138.197 167.378 138.197H169.846V138.885C169.406 138.943 168.975 138.99 168.555 139.029C168.134 139.067 167.651 139.086 167.106 139.086ZM165.026 134.883H167.751C168.182 134.883 168.497 134.806 168.698 134.653C168.908 134.491 169.014 134.204 169.014 133.793C169.014 133.353 168.947 133.013 168.813 132.774C168.689 132.525 168.488 132.353 168.21 132.258C167.943 132.153 167.579 132.1 167.12 132.1C166.585 132.1 166.164 132.181 165.858 132.344C165.552 132.497 165.337 132.774 165.212 133.176C165.088 133.577 165.026 134.147 165.026 134.883ZM174.867 139.086C174.063 139.086 173.427 138.967 172.959 138.727C172.5 138.488 172.17 138.082 171.969 137.508C171.768 136.934 171.668 136.15 171.668 135.155C171.668 134.142 171.768 133.353 171.969 132.788C172.179 132.215 172.519 131.813 172.988 131.583C173.456 131.354 174.087 131.239 174.881 131.239C175.56 131.239 176.11 131.316 176.531 131.469C176.961 131.622 177.277 131.885 177.478 132.258C177.688 132.621 177.793 133.128 177.793 133.778C177.793 134.228 177.702 134.591 177.521 134.869C177.349 135.136 177.095 135.332 176.76 135.457C176.435 135.571 176.048 135.629 175.598 135.629H172.801C172.811 136.25 172.878 136.753 173.002 137.135C173.126 137.508 173.351 137.781 173.676 137.953C174.011 138.115 174.499 138.197 175.139 138.197H177.607V138.885C177.167 138.943 176.736 138.99 176.316 139.029C175.895 139.067 175.412 139.086 174.867 139.086ZM172.787 134.883H175.512C175.943 134.883 176.258 134.806 176.459 134.653C176.67 134.491 176.775 134.204 176.775 133.793C176.775 133.353 176.708 133.013 176.574 132.774C176.45 132.525 176.249 132.353 175.971 132.258C175.704 132.153 175.34 132.1 174.881 132.1C174.346 132.1 173.925 132.181 173.619 132.344C173.313 132.497 173.098 132.774 172.973 133.176C172.849 133.577 172.787 134.147 172.787 134.883ZM182.183 139.086C181.552 139.086 181.031 138.952 180.619 138.684C180.218 138.407 179.917 137.986 179.716 137.422C179.524 136.848 179.429 136.117 179.429 135.227C179.429 134.28 179.524 133.515 179.716 132.932C179.907 132.339 180.213 131.909 180.634 131.641C181.055 131.373 181.619 131.239 182.327 131.239C182.757 131.239 183.178 131.287 183.589 131.383C184 131.478 184.364 131.583 184.679 131.698V128.055H185.812V139H184.894L184.679 138.225C184.536 138.35 184.321 138.479 184.034 138.613C183.756 138.747 183.45 138.861 183.116 138.957C182.79 139.043 182.48 139.086 182.183 139.086ZM182.513 138.154C182.953 138.154 183.35 138.087 183.704 137.953C184.067 137.809 184.392 137.661 184.679 137.508V132.502C184.335 132.396 184.005 132.31 183.689 132.243C183.374 132.167 183.02 132.129 182.628 132.129C182.14 132.129 181.743 132.219 181.437 132.401C181.131 132.583 180.906 132.898 180.763 133.348C180.629 133.788 180.562 134.4 180.562 135.184C180.562 135.892 180.624 136.466 180.749 136.906C180.882 137.346 181.093 137.666 181.38 137.867C181.667 138.058 182.044 138.154 182.513 138.154ZM190.592 139.086C190.401 139.086 190.167 139.081 189.889 139.072C189.612 139.062 189.32 139.048 189.014 139.029C188.718 139.01 188.445 138.99 188.197 138.971C187.957 138.943 187.771 138.914 187.637 138.885V138.197H190.779C191.094 138.197 191.367 138.173 191.596 138.125C191.826 138.077 192.003 137.972 192.127 137.809C192.261 137.647 192.328 137.403 192.328 137.078V136.733C192.328 136.399 192.218 136.141 191.998 135.959C191.778 135.768 191.424 135.672 190.937 135.672H189.861C189.411 135.672 189.009 135.615 188.656 135.5C188.311 135.385 188.044 135.189 187.852 134.912C187.661 134.634 187.565 134.252 187.565 133.764V133.362C187.565 132.884 187.656 132.492 187.838 132.186C188.029 131.88 188.321 131.65 188.713 131.497C189.115 131.344 189.631 131.268 190.262 131.268C190.53 131.268 190.836 131.277 191.18 131.297C191.534 131.316 191.879 131.344 192.213 131.383C192.548 131.411 192.821 131.445 193.031 131.483V132.172H190.076C189.588 132.172 189.21 132.253 188.943 132.416C188.684 132.578 188.555 132.894 188.555 133.362V133.678C188.555 133.974 188.617 134.199 188.742 134.352C188.866 134.496 189.038 134.591 189.258 134.639C189.488 134.687 189.751 134.711 190.047 134.711H191.137C191.836 134.711 192.376 134.873 192.758 135.198C193.141 135.524 193.332 135.992 193.332 136.604V137.135C193.332 137.652 193.213 138.053 192.974 138.34C192.744 138.617 192.424 138.814 192.012 138.928C191.611 139.033 191.137 139.086 190.592 139.086ZM195.154 139.014C195.001 139.014 194.925 138.938 194.925 138.785V137.637C194.925 137.484 195.001 137.408 195.154 137.408H195.785C195.938 137.408 196.015 137.484 196.015 137.637V138.785C196.015 138.861 195.991 138.919 195.943 138.957C195.905 138.995 195.852 139.014 195.785 139.014H195.154Z" fill="#5B5B5B"/>
<line x1="70" y1="92.6414" x2="281" y2="92.6578" stroke="#D0D0D0" stroke-width="0.717264"/>
</g>
<defs>
<filter id="filter0_d_931_1173" x="0.299999" y="0.299999" width="350.509" height="211.726" filterUnits="userSpaceOnUse" color-interpolation-filters="sRGB">
<feFlood flood-opacity="0" result="BackgroundImageFix"/>
<feColorMatrix in="SourceAlpha" type="matrix" values="0 0 0 0 0 0 0 0 0 0 0 0 0 0 0 0 0 0 127 0" result="hardAlpha"/>
<feOffset dy="4"/>
<feGaussianBlur stdDeviation="9.35"/>
<feComposite in2="hardAlpha" operator="out"/>
<feColorMatrix type="matrix" values="0 0 0 0 0 0 0 0 0 0 0 0 0 0 0 0 0 0 0.25 0"/>
<feBlend mode="normal" in2="BackgroundImageFix" result="effect1_dropShadow_931_1173"/>
<feBlend mode="normal" in="SourceGraphic" in2="effect1_dropShadow_931_1173" result="shape"/>
</filter>
<linearGradient id="paint0_linear_931_1173" x1="19" y1="15" x2="332.109" y2="189.326" gradientUnits="userSpaceOnUse">
<stop stop-color="#CB397A"/>
<stop offset="1" stop-color="#3A3895"/>
</linearGradient>
</defs>
</svg>
