<svg width="318" height="177" viewBox="0 0 318 177" fill="none" xmlns="http://www.w3.org/2000/svg">
<path d="M300.768 0.320312H17.8059C8.33469 0.320312 0.656738 7.99839 0.656738 17.4698V159.811C0.656738 169.282 8.33469 176.96 17.8059 176.96H300.768C310.239 176.96 317.917 169.282 317.917 159.811V17.4698C317.917 7.99839 310.239 0.320312 300.768 0.320312Z" fill="url(#paint0_linear_1499_9370)"/>
<path d="M59.3862 69.7228V48.4976H68.1631C69.0045 48.4976 69.7885 48.6028 70.5151 48.8131C71.2417 49.0044 71.8824 49.3485 72.4369 49.8457C72.9914 50.3428 73.4216 51.0312 73.7276 51.9108C74.0526 52.7905 74.2152 53.9186 74.2152 55.2954C74.2152 56.2706 74.1196 57.1024 73.9284 57.7908C73.7371 58.4792 73.479 59.0433 73.1539 59.4831C72.848 59.9228 72.4942 60.2767 72.0927 60.5443C71.6911 60.812 71.28 61.0319 70.8593 61.204L74.8175 69.7228H70.4864L67.0732 61.8637C66.8437 61.8637 66.5761 61.8637 66.2701 61.8637C65.9833 61.8446 65.6869 61.8351 65.3809 61.8351C65.0749 61.8351 64.7691 61.8351 64.4631 61.8351C64.1571 61.8351 63.8799 61.8255 63.6313 61.8064V69.7228H59.3862ZM63.6313 58.4505H67.4174C67.7998 58.4505 68.144 58.4027 68.45 58.3071C68.756 58.2115 69.0236 58.0489 69.2531 57.8195C69.4826 57.5709 69.6547 57.2458 69.7694 56.8443C69.9033 56.4427 69.9702 55.9264 69.9702 55.2954C69.9702 54.7026 69.9033 54.215 69.7694 53.8326C69.6547 53.431 69.4826 53.125 69.2531 52.9147C69.0236 52.6853 68.756 52.5323 68.45 52.4558C68.144 52.3602 67.7998 52.3124 67.4174 52.3124H63.6313V58.4505ZM83.3701 69.8662C81.6686 69.8662 80.3109 69.6463 79.2975 69.2065C78.284 68.7476 77.5478 67.9445 77.0889 66.7972C76.649 65.6499 76.4292 64.0628 76.4292 62.0358C76.4292 59.9515 76.6395 58.3358 77.0602 57.1885C77.4808 56.0412 78.1884 55.238 79.1827 54.7791C80.177 54.3202 81.5252 54.0907 83.2267 54.0907C84.7571 54.0907 85.9802 54.2437 86.8981 54.5497C87.8159 54.8556 88.4756 55.391 88.8772 56.1559C89.2982 56.9208 89.5082 58.0011 89.5082 59.397C89.5082 60.4296 89.2982 61.2519 88.8772 61.8637C88.4756 62.4566 87.902 62.8868 87.1562 63.1545C86.4105 63.4031 85.5316 63.5273 84.5174 63.5273H80.6456C80.6838 64.3113 80.7985 64.9423 80.9898 65.4204C81.2005 65.8793 81.5733 66.214 82.1081 66.4243C82.6633 66.6156 83.4562 66.7111 84.4887 66.7111H88.9919V69.2065C88.2462 69.3595 87.4246 69.5125 86.5252 69.6654C85.6463 69.7993 84.5943 69.8662 83.3701 69.8662ZM80.5882 61.0033H84.0872C84.6608 61.0033 85.0819 60.8885 85.3492 60.6591C85.6176 60.4296 85.7508 60.0185 85.7508 59.4257C85.7508 58.8712 85.6647 58.4313 85.4926 58.1063C85.3205 57.7621 85.0532 57.5231 84.6895 57.3892C84.3269 57.2363 83.8393 57.1598 83.2267 57.1598C82.5772 57.1598 82.061 57.2745 81.6778 57.504C81.2957 57.7143 81.0184 58.0968 80.8463 58.6513C80.6742 59.2058 80.5882 59.9898 80.5882 61.0033ZM98.1448 69.7228C96.9596 69.7228 95.9936 69.5507 95.2478 69.2065C94.5216 68.8623 93.996 68.2887 93.6703 67.4856C93.3456 66.6824 93.2021 65.602 93.24 64.2444L93.3835 57.7334H90.9741V55.0086L93.5269 54.3202L94.1005 50.0178H97.4564V54.3202H101.07V57.7334H97.4564V64.2157C97.4564 64.6364 97.4953 64.9806 97.5711 65.2483C97.648 65.516 97.7535 65.7359 97.8867 65.908C98.0403 66.061 98.2124 66.1757 98.4029 66.2522C98.5945 66.3287 98.7861 66.3765 98.9766 66.3956L100.927 66.5677V69.7228H98.1448ZM106.712 69.8949C105.545 69.8949 104.598 69.5507 103.872 68.8623C103.146 68.174 102.782 67.2179 102.782 65.9941V64.6173C102.782 63.4508 103.193 62.4948 104.016 61.749C104.838 60.9841 106.119 60.6017 107.859 60.6017H111.789V59.5404C111.789 59.0624 111.703 58.6704 111.53 58.3645C111.358 58.0394 111.034 57.81 110.555 57.6761C110.096 57.5231 109.388 57.4466 108.433 57.4466H103.815V54.9799C104.561 54.7504 105.421 54.5496 106.396 54.3775C107.391 54.2055 108.585 54.1194 109.982 54.1194C111.263 54.1194 112.353 54.2724 113.251 54.5783C114.169 54.8843 114.858 55.4101 115.317 56.1559C115.795 56.9016 116.034 57.9342 116.034 59.2536V69.7228H112.678L111.989 68.0879C111.855 68.2408 111.626 68.4129 111.301 68.6042C110.976 68.7954 110.575 68.9962 110.096 69.2065C109.637 69.3978 109.112 69.5602 108.519 69.6941C107.945 69.828 107.343 69.8949 106.712 69.8949ZM108.863 66.9406C109.054 66.9406 109.264 66.9214 109.494 66.8832C109.743 66.8259 109.991 66.7685 110.24 66.7111C110.507 66.6346 110.747 66.5677 110.957 66.5103C111.186 66.4338 111.368 66.3669 111.502 66.3096C111.654 66.2522 111.751 66.214 111.789 66.1948V62.6095L109.207 62.7816C108.461 62.839 107.907 63.0302 107.544 63.3552C107.199 63.6803 107.027 64.1202 107.027 64.6747V65.3057C107.027 65.6881 107.104 66.0036 107.257 66.2522C107.429 66.5008 107.649 66.6824 107.916 66.7972C108.203 66.8927 108.519 66.9406 108.863 66.9406ZM119.729 52.0542C119.327 52.0542 119.126 51.863 119.126 51.4806V48.6697C119.126 48.2681 119.327 48.0674 119.729 48.0674H122.998C123.17 48.0674 123.304 48.1247 123.4 48.2394C123.495 48.3542 123.543 48.4976 123.543 48.6697V51.4806C123.543 51.863 123.361 52.0542 122.998 52.0542H119.729ZM119.212 69.7228V54.3202H123.457V69.7228H119.212ZM126.719 69.7228V54.3202H130.218L130.964 55.8977C131.538 55.4197 132.255 54.999 133.115 54.6357C133.994 54.2533 134.894 54.062 135.811 54.062C137.073 54.062 138.049 54.3107 138.737 54.8078C139.425 55.3049 139.903 55.9743 140.171 56.8156C140.458 57.6379 140.601 58.5557 140.601 59.5691V69.7228H136.356V60.1141C136.356 59.617 136.26 59.2058 136.07 58.8807C135.897 58.5557 135.648 58.3071 135.324 58.135C134.998 57.9629 134.607 57.8768 134.148 57.8768C133.746 57.8768 133.354 57.9247 132.972 58.0203C132.608 58.1158 132.255 58.2497 131.911 58.4218C131.585 58.5939 131.269 58.7947 130.964 59.0242V69.7228H126.719ZM150.259 69.8662C148.558 69.8662 147.199 69.6463 146.186 69.2065C145.173 68.7476 144.437 67.9445 143.978 66.7972C143.538 65.6499 143.318 64.0628 143.318 62.0358C143.318 59.9515 143.528 58.3358 143.949 57.1885C144.37 56.0412 145.077 55.238 146.072 54.7791C147.066 54.3202 148.414 54.0907 150.116 54.0907C151.645 54.0907 152.869 54.2437 153.787 54.5497C154.705 54.8556 155.365 55.391 155.766 56.1559C156.187 56.9208 156.397 58.0011 156.397 59.397C156.397 60.4296 156.187 61.2519 155.766 61.8637C155.365 62.4566 154.791 62.8868 154.045 63.1545C153.3 63.4031 152.42 63.5273 151.407 63.5273H147.534C147.572 64.3113 147.687 64.9423 147.879 65.4204C148.089 65.8793 148.461 66.214 148.997 66.4243C149.551 66.6156 150.345 66.7111 151.378 66.7111H155.881V69.2065C155.135 69.3595 154.313 69.5125 153.414 69.6654C152.534 69.7993 151.483 69.8662 150.259 69.8662ZM147.477 61.0033H150.976C151.55 61.0033 151.971 60.8885 152.238 60.6591C152.506 60.4296 152.64 60.0185 152.64 59.4257C152.64 58.8712 152.554 58.4313 152.382 58.1063C152.21 57.7621 151.942 57.5231 151.579 57.3892C151.215 57.2363 150.727 57.1598 150.116 57.1598C149.465 57.1598 148.949 57.2745 148.567 57.504C148.185 57.7143 147.907 58.0968 147.735 58.6513C147.563 59.2058 147.477 59.9898 147.477 61.0033ZM159.183 69.7228V54.3202H162.453L163.428 56.6722C163.983 55.9646 164.604 55.3623 165.292 54.8652C166 54.368 166.832 54.1194 167.788 54.1194C167.999 54.1194 168.209 54.1289 168.419 54.1481C168.648 54.1672 168.859 54.2055 169.05 54.2628V58.6226C168.763 58.5844 168.457 58.5557 168.132 58.5366C167.826 58.4983 167.529 58.4792 167.243 58.4792C166.688 58.4792 166.181 58.5461 165.722 58.68C165.283 58.7947 164.872 58.9763 164.489 59.2249C164.126 59.4544 163.772 59.7604 163.428 60.1428V69.7228H159.183ZM178.334 69.7228L180.8 48.4976H184.873L189.749 64.7607L194.597 48.4976H198.641L201.136 69.7228H197.035L195.199 54.0907L195.859 54.1481L191.7 69.7228H187.713L183.496 54.1481L184.213 54.1194L182.435 69.7228H178.334ZM210.344 69.8662C209.082 69.8662 208.002 69.742 207.103 69.4934C206.205 69.2257 205.468 68.7858 204.895 68.1739C204.341 67.5621 203.929 66.7493 203.661 65.7359C203.412 64.7225 203.289 63.47 203.289 61.9785C203.289 60.4105 203.412 59.1197 203.661 58.1063C203.929 57.0737 204.341 56.2706 204.895 55.697C205.468 55.1041 206.205 54.6931 207.103 54.4636C208.021 54.215 209.102 54.0907 210.344 54.0907C211.626 54.0907 212.716 54.215 213.614 54.4636C214.513 54.7122 215.24 55.1328 215.794 55.7256C216.368 56.2993 216.779 57.1024 217.028 58.135C217.295 59.1484 217.429 60.4296 217.429 61.9785C217.429 63.5082 217.305 64.7894 217.056 65.822C216.807 66.8354 216.406 67.6385 215.852 68.2313C215.297 68.8241 214.561 69.2447 213.643 69.4934C212.745 69.742 211.644 69.8662 210.344 69.8662ZM210.344 66.4817C210.861 66.4817 211.291 66.4338 211.635 66.3383C211.999 66.2427 212.286 66.0514 212.496 65.7646C212.725 65.4586 212.897 64.9997 213.012 64.3878C213.127 63.776 213.184 62.9728 213.184 61.9785C213.184 60.9651 213.127 60.1619 213.012 59.5691C212.897 58.9573 212.725 58.5079 212.496 58.221C212.286 57.9151 211.999 57.7143 211.635 57.6187C211.291 57.5231 210.861 57.4753 210.344 57.4753C209.848 57.4753 209.417 57.5231 209.054 57.6187C208.71 57.7143 208.423 57.9151 208.193 58.221C207.964 58.5079 207.792 58.9573 207.677 59.5691C207.582 60.1619 207.534 60.9651 207.534 61.9785C207.534 62.9728 207.582 63.776 207.677 64.3878C207.792 64.9997 207.964 65.4586 208.193 65.7646C208.423 66.0514 208.71 66.2427 209.054 66.3383C209.417 66.4338 209.848 66.4817 210.344 66.4817ZM225.294 69.8949C224.09 69.8949 223.076 69.6463 222.254 69.1492C221.431 68.6329 220.81 67.8106 220.39 66.6824C219.988 65.5351 219.787 64.0341 219.787 62.1793C219.787 60.267 219.959 58.7182 220.304 57.5327C220.666 56.3471 221.269 55.477 222.111 54.9225C222.952 54.368 224.108 54.0907 225.581 54.0907C226.288 54.0907 226.987 54.1672 227.675 54.3202C228.363 54.4541 228.975 54.6165 229.511 54.8078V47.8379H233.784V69.7228H230.199L229.511 68.26C229.185 68.566 228.783 68.8432 228.306 69.0918C227.847 69.3404 227.359 69.5412 226.843 69.6941C226.327 69.828 225.811 69.8949 225.294 69.8949ZM226.786 66.4817C227.359 66.4817 227.876 66.3861 228.335 66.1948C228.812 66.0036 229.204 65.8124 229.511 65.6212V57.8768C229.128 57.743 228.726 57.6092 228.306 57.4753C227.885 57.3414 227.435 57.2745 226.958 57.2745C226.25 57.2745 225.676 57.3988 225.237 57.6474C224.816 57.896 224.51 58.3645 224.319 59.0528C224.128 59.7221 224.032 60.6973 224.032 61.9785C224.032 63.164 224.118 64.0915 224.29 64.7607C224.481 65.4109 224.778 65.8602 225.18 66.1088C225.581 66.3574 226.116 66.4817 226.786 66.4817ZM243.451 69.8662C241.748 69.8662 240.391 69.6463 239.378 69.2065C238.363 68.7476 237.628 67.9445 237.169 66.7972C236.728 65.6499 236.509 64.0628 236.509 62.0358C236.509 59.9515 236.719 58.3358 237.14 57.1885C237.56 56.0412 238.268 55.238 239.263 54.7791C240.256 54.3202 241.605 54.0907 243.307 54.0907C244.836 54.0907 246.061 54.2437 246.978 54.5497C247.896 54.8556 248.556 55.391 248.958 56.1559C249.378 56.9208 249.589 58.0011 249.589 59.397C249.589 60.4296 249.378 61.2519 248.958 61.8637C248.556 62.4566 247.982 62.8868 247.237 63.1545C246.491 63.4031 245.611 63.5273 244.598 63.5273H240.726C240.764 64.3113 240.878 64.9423 241.07 65.4204C241.28 65.8793 241.653 66.214 242.188 66.4243C242.743 66.6156 243.537 66.7111 244.569 66.7111H249.072V69.2065C248.327 69.3595 247.504 69.5125 246.606 69.6654C245.726 69.7993 244.674 69.8662 243.451 69.8662ZM240.668 61.0033H244.168C244.741 61.0033 245.161 60.8885 245.43 60.6591C245.697 60.4296 245.831 60.0185 245.831 59.4257C245.831 58.8712 245.745 58.4313 245.573 58.1063C245.401 57.7621 245.133 57.5231 244.77 57.3892C244.406 57.2363 243.919 57.1598 243.307 57.1598C242.657 57.1598 242.14 57.2745 241.758 57.504C241.375 57.7143 241.099 58.0968 240.926 58.6513C240.754 59.2058 240.668 59.9898 240.668 61.0033ZM257.193 69.7802C256.103 69.7802 255.194 69.6081 254.468 69.2639C253.76 68.9005 253.234 68.3556 252.89 67.629C252.546 66.8832 252.374 65.9272 252.374 64.7607V47.8379H256.619V64.1297C256.619 64.7033 256.676 65.1623 256.791 65.5065C256.906 65.8315 257.078 66.0706 257.307 66.2235C257.556 66.3765 257.862 66.4817 258.225 66.539L259.401 66.7111V69.7802H257.193Z" fill="white"/>
<path d="M51.3213 82.0254L267.466 82.0422" stroke="#D0D0D0" stroke-width="0.734753"/>
<path d="M55.6793 105.475C55.258 105.475 54.8809 105.411 54.5477 105.284C54.2244 105.147 53.9698 104.922 53.7836 104.608C53.5975 104.284 53.5044 103.848 53.5044 103.3V94.6594H54.68V103.138C54.68 103.491 54.7388 103.76 54.8564 103.946C54.9739 104.123 55.1307 104.246 55.3266 104.314C55.5225 104.373 55.7233 104.402 55.9291 104.402H59.8086V105.475H55.6793ZM64.4262 105.563C63.8579 105.563 63.3583 105.505 62.9273 105.387C62.5061 105.269 62.1534 105.063 61.8692 104.769C61.5851 104.476 61.3745 104.069 61.2374 103.55C61.1002 103.02 61.0316 102.349 61.0316 101.536C61.0316 100.713 61.1002 100.043 61.2374 99.5232C61.3745 98.9946 61.5851 98.5879 61.8692 98.3031C62.1534 98.0101 62.5061 97.8094 62.9273 97.7008C63.3583 97.584 63.8579 97.5246 64.4262 97.5246C64.9944 97.5246 65.4892 97.584 65.9104 97.7008C66.3415 97.8186 66.699 98.0245 66.9831 98.3185C67.2672 98.6022 67.4778 99.0089 67.615 99.5385C67.762 100.057 67.8354 100.724 67.8354 101.536C67.8354 102.36 67.762 103.036 67.615 103.564C67.4778 104.084 67.2672 104.49 66.9831 104.784C66.7088 105.068 66.3561 105.269 65.925 105.387C65.494 105.505 64.9944 105.563 64.4262 105.563ZM64.4262 104.608C64.7887 104.608 65.1071 104.573 65.3814 104.505C65.6655 104.436 65.9006 104.299 66.0867 104.094C66.2728 103.888 66.4149 103.579 66.5128 103.168C66.6109 102.756 66.6598 102.212 66.6598 101.536C66.6598 100.851 66.6109 100.307 66.5128 99.9053C66.4149 99.5037 66.2728 99.2005 66.0867 98.9946C65.9006 98.7887 65.6655 98.6514 65.3814 98.5828C65.1071 98.5141 64.7887 98.4803 64.4262 98.4803C64.0539 98.4803 63.7306 98.5141 63.4563 98.5828C63.1819 98.6514 62.9518 98.7887 62.7656 98.9946C62.5795 99.2005 62.4374 99.5037 62.3395 99.9053C62.2415 100.307 62.1925 100.851 62.1925 101.536C62.1925 102.212 62.2415 102.756 62.3395 103.168C62.4374 103.579 62.5795 103.888 62.7656 104.094C62.9518 104.299 63.1819 104.436 63.4563 104.505C63.7306 104.573 64.0539 104.608 64.4262 104.608ZM69.7921 105.475V97.628H70.7032L70.9529 98.4947C71.3253 98.2304 71.7612 97.9999 72.2609 97.8042C72.7604 97.5983 73.2797 97.4959 73.8185 97.4959C74.3965 97.4959 74.8619 97.6178 75.2146 97.8626C75.5673 98.1075 75.8268 98.4312 75.9934 98.8327C76.16 99.2343 76.2431 99.6707 76.2431 100.141V105.475H75.0823V100.273C75.0823 99.9401 75.0137 99.6461 74.8765 99.391C74.7492 99.1267 74.563 98.9208 74.3181 98.7743C74.083 98.6268 73.7891 98.5531 73.4364 98.5531C73.1131 98.5531 72.8094 98.5879 72.5253 98.6565C72.251 98.7149 71.9865 98.803 71.7318 98.9208C71.4869 99.0284 71.2273 99.1605 70.9529 99.3173V105.475H69.7921ZM80.3562 109.076C79.8468 109.076 79.3961 109.002 79.0043 108.854C78.6222 108.718 78.3184 108.502 78.0932 108.208C77.8777 107.924 77.7699 107.567 77.7699 107.135V106.783C77.7699 106.332 77.8923 105.955 78.1372 105.651C78.392 105.348 78.7104 105.122 79.0925 104.975C79.4745 104.818 79.8664 104.74 80.268 104.74L80.5619 105.211C80.268 105.211 79.9937 105.26 79.7391 105.357C79.4843 105.445 79.2737 105.593 79.1071 105.799C78.9504 106.003 78.872 106.269 78.872 106.591V106.915C78.872 107.385 79.0287 107.718 79.3422 107.914C79.6558 108.12 80.0819 108.223 80.6207 108.223H82.4427C83.0307 108.223 83.4907 108.111 83.8246 107.885C84.1668 107.66 84.3388 107.306 84.3388 106.827V106.533C84.3388 106.258 84.2845 106.024 84.177 105.827C84.0694 105.632 83.8881 105.48 83.633 105.372C83.3882 105.264 83.041 105.211 82.5902 105.211H80.224C79.6165 105.211 79.1414 105.082 78.7986 104.828C78.4654 104.564 78.2989 104.226 78.2989 103.814C78.2989 103.422 78.4116 103.114 78.6369 102.888C78.872 102.663 79.2002 102.506 79.6215 102.418C79.2589 102.272 78.9749 102.075 78.7692 101.83C78.5634 101.576 78.4214 101.307 78.343 101.022C78.2646 100.728 78.2254 100.435 78.2254 100.141C78.2254 99.5334 78.3478 99.0437 78.5928 98.6709C78.8377 98.299 79.1855 98.0296 79.6361 97.8626C80.0966 97.6967 80.6354 97.6127 81.2526 97.6127H85.4411V98.2744L83.6771 98.4209C83.8051 98.509 83.9465 98.6268 84.1032 98.7743C84.26 98.9106 84.3921 99.1114 84.5007 99.3767C84.6175 99.6307 84.6769 99.9841 84.6769 100.435C84.6769 100.836 84.5888 101.219 84.4116 101.58C84.2456 101.943 83.9619 102.242 83.5593 102.477C83.1577 102.703 82.6046 102.816 81.8988 102.816H80.6501C80.2387 102.816 79.9104 102.879 79.6655 103.006C79.4304 103.124 79.3128 103.339 79.3128 103.652C79.3128 103.888 79.401 104.054 79.5774 104.152C79.7537 104.251 79.9398 104.299 80.1358 104.299H82.7367C83.3442 104.299 83.8441 104.378 84.2354 104.534C84.6369 104.691 84.9361 104.931 85.1317 105.255C85.3376 105.568 85.4411 105.97 85.4411 106.459V106.783C85.4411 107.498 85.1963 108.056 84.7056 108.458C84.2262 108.87 83.506 109.076 82.5462 109.076H80.3562ZM80.8999 101.918H81.782C82.2809 101.918 82.6589 101.845 82.9129 101.698C83.1772 101.541 83.3585 101.34 83.4569 101.096C83.5552 100.851 83.6033 100.586 83.6033 100.302C83.6033 99.8612 83.5306 99.5139 83.3831 99.2589C83.2458 98.9946 83.0502 98.8081 82.7951 98.7006C82.541 98.5828 82.2471 98.5244 81.9141 98.5244H81.0763C80.5179 98.5244 80.077 98.6514 79.7537 98.9065C79.4402 99.1513 79.2835 99.5826 79.2835 100.199C79.2835 100.807 79.4255 101.247 79.7097 101.522C80.0035 101.786 80.4003 101.918 80.8999 101.918ZM86.1489 101.698V100.728H90.4544V101.698H86.1489ZM94.5366 105.475C94.0264 105.475 93.6054 105.392 93.2725 105.225C92.9396 105.059 92.6947 104.79 92.538 104.417C92.3813 104.045 92.3075 103.55 92.3167 102.932L92.3608 98.5828H91.1121V97.8329L92.3762 97.628L92.5667 95.4379H93.463V97.628H95.7269V98.5828H93.463V102.932C93.463 103.275 93.4979 103.55 93.5665 103.756C93.6443 103.961 93.7427 104.118 93.8605 104.226C93.9875 104.334 94.1197 104.412 94.2569 104.461C94.3942 104.5 94.5263 104.524 94.6534 104.534L95.6091 104.623V105.475H94.5366ZM100.328 105.563C99.5059 105.563 98.8544 105.441 98.3739 105.195C97.9037 104.95 97.5657 104.534 97.3608 103.946C97.1549 103.358 97.0514 102.555 97.0514 101.536C97.0514 100.498 97.1549 99.6901 97.3608 99.1114C97.5759 98.5244 97.9232 98.1126 98.4036 97.877C98.8841 97.6424 99.5305 97.5246 100.344 97.5246C101.039 97.5246 101.603 97.6035 102.033 97.7602C102.475 97.9169 102.797 98.1863 103.003 98.5684C103.219 98.9403 103.327 99.4596 103.327 100.125C103.327 100.586 103.234 100.958 103.047 101.243C102.871 101.517 102.612 101.717 102.269 101.845C101.936 101.962 101.538 102.022 101.078 102.022H98.2131C98.2223 102.658 98.2909 103.173 98.418 103.564C98.546 103.946 98.7755 104.226 99.1094 104.402C99.4516 104.568 99.9515 104.652 100.608 104.652H103.135V105.357C102.685 105.416 102.244 105.465 101.813 105.505C101.382 105.543 100.887 105.563 100.328 105.563ZM98.1977 101.257H100.99C101.431 101.257 101.754 101.179 101.96 101.022C102.175 100.856 102.283 100.562 102.283 100.141C102.283 99.6901 102.214 99.3418 102.077 99.097C101.95 98.8419 101.744 98.6658 101.46 98.5684C101.186 98.4609 100.814 98.4066 100.344 98.4066C99.7947 98.4066 99.3635 98.4896 99.05 98.6565C98.7366 98.8133 98.5163 99.097 98.3893 99.5088C98.2612 99.9196 98.1977 100.503 98.1977 101.257ZM105.281 105.475V97.628H106.163L106.442 98.9946C106.794 98.5725 107.187 98.2253 107.618 97.9507C108.058 97.6762 108.563 97.5399 109.131 97.5399C109.268 97.5399 109.396 97.544 109.513 97.5543C109.641 97.5635 109.758 97.584 109.866 97.6127V98.803C109.738 98.7836 109.601 98.7692 109.455 98.759C109.308 98.7395 109.161 98.7303 109.014 98.7303C108.652 98.7303 108.328 98.7743 108.044 98.8624C107.759 98.9505 107.49 99.0827 107.236 99.2589C106.981 99.4351 106.716 99.6502 106.442 99.9053V105.475H105.281ZM111.337 105.475V97.628H112.248L112.498 98.4947C112.89 98.2201 113.326 97.9856 113.806 97.7889C114.296 97.5932 114.84 97.4959 115.437 97.4959C115.927 97.4959 116.344 97.6076 116.686 97.8329C117.039 98.0491 117.304 98.3236 117.48 98.6565C117.725 98.4803 118.019 98.3041 118.362 98.1269C118.714 97.9507 119.086 97.8042 119.478 97.6864C119.88 97.5594 120.267 97.4959 120.639 97.4959C121.207 97.4959 121.672 97.6178 122.035 97.8626C122.398 98.0982 122.662 98.4209 122.829 98.8327C123.005 99.2343 123.093 99.685 123.093 100.185V105.475H121.933V100.273C121.933 99.9401 121.864 99.6461 121.727 99.391C121.6 99.1267 121.413 98.9208 121.169 98.7743C120.924 98.6268 120.625 98.5531 120.272 98.5531C119.831 98.5531 119.38 98.6371 118.92 98.803C118.459 98.97 118.033 99.1708 117.642 99.4053C117.691 99.5529 117.725 99.6993 117.744 99.8469C117.774 99.9841 117.788 100.131 117.788 100.287V105.475H116.627V100.273C116.627 99.9401 116.559 99.6461 116.422 99.391C116.294 99.1267 116.108 98.9208 115.863 98.7743C115.629 98.6268 115.335 98.5531 114.981 98.5531C114.659 98.5531 114.354 98.5879 114.071 98.6565C113.796 98.7149 113.532 98.803 113.277 98.9208C113.032 99.0284 112.773 99.1605 112.498 99.3173V105.475H111.337ZM131.937 105.563C131.74 105.563 131.5 105.558 131.217 105.549C130.932 105.538 130.634 105.524 130.32 105.505C130.016 105.485 129.737 105.465 129.482 105.445C129.238 105.416 129.046 105.387 128.909 105.357V104.652H132.127C132.451 104.652 132.73 104.628 132.965 104.578C133.2 104.529 133.381 104.422 133.509 104.255C133.645 104.089 133.714 103.839 133.714 103.506V103.153C133.714 102.81 133.601 102.546 133.376 102.36C133.151 102.164 132.789 102.066 132.289 102.066H131.187C130.726 102.066 130.315 102.007 129.953 101.889C129.6 101.772 129.326 101.571 129.13 101.287C128.933 101.002 128.836 100.611 128.836 100.111V99.6993C128.836 99.2097 128.929 98.8081 129.115 98.4947C129.311 98.1812 129.609 97.9456 130.011 97.7889C130.423 97.6321 130.951 97.5543 131.599 97.5543C131.872 97.5543 132.186 97.5635 132.539 97.584C132.902 97.6035 133.254 97.6321 133.597 97.6721C133.939 97.7008 134.219 97.7356 134.434 97.7745V98.4803H131.407C130.907 98.4803 130.521 98.5633 130.247 98.7303C129.982 98.8962 129.85 99.2199 129.85 99.6993V100.023C129.85 100.326 129.914 100.557 130.041 100.713C130.168 100.861 130.344 100.958 130.569 101.007C130.805 101.057 131.074 101.081 131.377 101.081H132.495C133.21 101.081 133.763 101.247 134.156 101.58C134.547 101.914 134.744 102.393 134.744 103.02V103.564C134.744 104.094 134.621 104.505 134.376 104.799C134.14 105.082 133.812 105.284 133.391 105.401C132.98 105.509 132.495 105.563 131.937 105.563ZM138.917 105.563C138.162 105.563 137.579 105.367 137.167 104.975C136.766 104.584 136.565 103.976 136.565 103.153V97.628H137.727V102.86C137.727 103.515 137.873 103.961 138.167 104.196C138.47 104.422 138.892 104.534 139.431 104.534C139.891 104.534 140.312 104.471 140.694 104.343C141.076 104.207 141.469 104.02 141.87 103.785V97.628H143.031V105.475H142.12L141.87 104.608C141.469 104.862 141.013 105.088 140.504 105.284C140.004 105.47 139.475 105.563 138.917 105.563ZM145.219 108.958V97.628H146.159L146.38 98.4363C146.557 98.3082 146.782 98.1761 147.056 98.0388C147.34 97.8923 147.644 97.7694 147.967 97.6721C148.3 97.5738 148.628 97.5246 148.952 97.5246C149.461 97.5246 149.892 97.6373 150.245 97.8626C150.607 98.0788 150.901 98.3717 151.127 98.7446C151.352 99.1165 151.514 99.5426 151.611 100.023C151.709 100.503 151.759 101.007 151.759 101.536C151.759 102.418 151.655 103.163 151.45 103.77C151.254 104.367 150.95 104.818 150.539 105.122C150.127 105.426 149.598 105.577 148.952 105.577C148.51 105.577 148.065 105.509 147.614 105.372C147.173 105.225 146.762 105.044 146.38 104.828V108.958H145.219ZM148.628 104.593C149.001 104.593 149.334 104.5 149.628 104.314C149.922 104.128 150.157 103.814 150.333 103.374C150.509 102.923 150.598 102.311 150.598 101.536C150.598 100.802 150.505 100.214 150.318 99.7731C150.132 99.3224 149.892 98.9997 149.598 98.803C149.304 98.5971 148.982 98.4947 148.628 98.4947C148.177 98.4947 147.761 98.5684 147.379 98.7149C147.007 98.8522 146.674 98.9997 146.38 99.1564V103.961C146.723 104.147 147.085 104.299 147.467 104.417C147.86 104.534 148.246 104.593 148.628 104.593ZM153.714 108.958V97.628H154.656L154.876 98.4363C155.052 98.3082 155.277 98.1761 155.552 98.0388C155.836 97.8923 156.139 97.7694 156.463 97.6721C156.796 97.5738 157.124 97.5246 157.447 97.5246C157.957 97.5246 158.387 97.6373 158.741 97.8626C159.102 98.0788 159.396 98.3717 159.622 98.7446C159.847 99.1165 160.009 99.5426 160.107 100.023C160.205 100.503 160.254 101.007 160.254 101.536C160.254 102.418 160.151 103.163 159.945 103.77C159.75 104.367 159.446 104.818 159.034 105.122C158.623 105.426 158.093 105.577 157.447 105.577C157.007 105.577 156.561 105.509 156.11 105.372C155.669 105.225 155.258 105.044 154.876 104.828V108.958H153.714ZM157.124 104.593C157.496 104.593 157.829 104.5 158.123 104.314C158.417 104.128 158.653 103.814 158.829 103.374C159.005 102.923 159.093 102.311 159.093 101.536C159.093 100.802 159 100.214 158.814 99.7731C158.628 99.3224 158.387 98.9997 158.093 98.803C157.799 98.5971 157.477 98.4947 157.124 98.4947C156.674 98.4947 156.257 98.5684 155.875 98.7149C155.503 98.8522 155.17 98.9997 154.876 99.1564V103.961C155.218 104.147 155.581 104.299 155.963 104.417C156.355 104.534 156.742 104.593 157.124 104.593ZM165.326 105.563C164.757 105.563 164.258 105.505 163.827 105.387C163.406 105.269 163.052 105.063 162.769 104.769C162.485 104.476 162.274 104.069 162.137 103.55C161.999 103.02 161.931 102.349 161.931 101.536C161.931 100.713 161.999 100.043 162.137 99.5232C162.274 98.9946 162.485 98.5879 162.769 98.3031C163.052 98.0101 163.406 97.8094 163.827 97.7008C164.258 97.584 164.757 97.5246 165.326 97.5246C165.894 97.5246 166.389 97.584 166.81 97.7008C167.241 97.8186 167.599 98.0245 167.882 98.3185C168.166 98.6022 168.377 99.0089 168.514 99.5385C168.661 100.057 168.735 100.724 168.735 101.536C168.735 102.36 168.661 103.036 168.514 103.564C168.377 104.084 168.166 104.49 167.882 104.784C167.608 105.068 167.256 105.269 166.824 105.387C166.393 105.505 165.894 105.563 165.326 105.563ZM165.326 104.608C165.688 104.608 166.007 104.573 166.281 104.505C166.565 104.436 166.8 104.299 166.986 104.094C167.173 103.888 167.314 103.579 167.412 103.168C167.511 102.756 167.56 102.212 167.56 101.536C167.56 100.851 167.511 100.307 167.412 99.9053C167.314 99.5037 167.173 99.2005 166.986 98.9946C166.8 98.7887 166.565 98.6514 166.281 98.5828C166.007 98.5141 165.688 98.4803 165.326 98.4803C164.954 98.4803 164.63 98.5141 164.355 98.5828C164.082 98.6514 163.851 98.7887 163.665 98.9946C163.479 99.2005 163.337 99.5037 163.239 99.9053C163.141 100.307 163.092 100.851 163.092 101.536C163.092 102.212 163.141 102.756 163.239 103.168C163.337 103.579 163.479 103.888 163.665 104.094C163.851 104.299 164.082 104.436 164.355 104.505C164.63 104.573 164.954 104.608 165.326 104.608ZM170.691 105.475V97.628H171.573L171.853 98.9946C172.205 98.5725 172.597 98.2253 173.028 97.9507C173.468 97.6762 173.973 97.5399 174.542 97.5399C174.679 97.5399 174.806 97.544 174.924 97.5543C175.051 97.5635 175.169 97.584 175.276 97.6127V98.803C175.149 98.7836 175.012 98.7692 174.865 98.759C174.718 98.7395 174.571 98.7303 174.424 98.7303C174.062 98.7303 173.738 98.7743 173.454 98.8624C173.17 98.9505 172.901 99.0827 172.646 99.2589C172.392 99.4351 172.126 99.6502 171.853 99.9053V105.475H170.691ZM179.492 105.475C178.983 105.475 178.562 105.392 178.229 105.225C177.895 105.059 177.65 104.79 177.493 104.417C177.336 104.045 177.264 103.55 177.273 102.932L177.317 98.5828H176.068V97.8329L177.331 97.628L177.523 95.4379H178.419V97.628H180.682V98.5828H178.419V102.932C178.419 103.275 178.454 103.55 178.522 103.756C178.601 103.961 178.699 104.118 178.816 104.226C178.944 104.334 179.076 104.412 179.213 104.461C179.35 104.5 179.483 104.524 179.61 104.534L180.564 104.623V105.475H179.492ZM186.674 105.475V98.5828H185.469V97.8329L186.674 97.628V96.7317C186.674 96.1724 186.742 95.7073 186.88 95.3355C187.017 94.9534 187.247 94.6645 187.57 94.4678C187.894 94.2722 188.344 94.1738 188.922 94.1738C189.265 94.1738 189.554 94.1943 189.789 94.2332C190.034 94.2629 190.25 94.2916 190.435 94.3213V95.1439H189.128C188.775 95.1439 188.505 95.2033 188.32 95.3201C188.133 95.4287 188.006 95.5998 187.938 95.8343C187.869 96.0597 187.834 96.3394 187.834 96.6723V97.628H190.274V98.5828H187.834V105.475H186.674ZM194.773 105.563C194.205 105.563 193.705 105.505 193.274 105.387C192.853 105.269 192.5 105.063 192.217 104.769C191.932 104.476 191.722 104.069 191.585 103.55C191.447 103.02 191.379 102.349 191.379 101.536C191.379 100.713 191.447 100.043 191.585 99.5232C191.722 98.9946 191.932 98.5879 192.217 98.3031C192.5 98.0101 192.853 97.8094 193.274 97.7008C193.705 97.584 194.205 97.5246 194.773 97.5246C195.341 97.5246 195.836 97.584 196.258 97.7008C196.688 97.8186 197.046 98.0245 197.33 98.3185C197.614 98.6022 197.825 99.0089 197.962 99.5385C198.109 100.057 198.183 100.724 198.183 101.536C198.183 102.36 198.109 103.036 197.962 103.564C197.825 104.084 197.614 104.49 197.33 104.784C197.056 105.068 196.703 105.269 196.272 105.387C195.841 105.505 195.341 105.563 194.773 105.563ZM194.773 104.608C195.136 104.608 195.454 104.573 195.728 104.505C196.012 104.436 196.248 104.299 196.434 104.094C196.619 103.888 196.762 103.579 196.86 103.168C196.958 102.756 197.007 102.212 197.007 101.536C197.007 100.851 196.958 100.307 196.86 99.9053C196.762 99.5037 196.619 99.2005 196.434 98.9946C196.248 98.7887 196.012 98.6514 195.728 98.5828C195.454 98.5141 195.136 98.4803 194.773 98.4803C194.401 98.4803 194.078 98.5141 193.803 98.5828C193.529 98.6514 193.298 98.7887 193.113 98.9946C192.927 99.2005 192.784 99.5037 192.687 99.9053C192.589 100.307 192.539 100.851 192.539 101.536C192.539 102.212 192.589 102.756 192.687 103.168C192.784 103.579 192.927 103.888 193.113 104.094C193.298 104.299 193.529 104.436 193.803 104.505C194.078 104.573 194.401 104.608 194.773 104.608ZM200.139 105.475V97.628H201.021L201.3 98.9946C201.652 98.5725 202.045 98.2253 202.476 97.9507C202.916 97.6762 203.421 97.5399 203.989 97.5399C204.126 97.5399 204.254 97.544 204.371 97.5543C204.499 97.5635 204.616 97.584 204.724 97.6127V98.803C204.596 98.7836 204.459 98.7692 204.313 98.759C204.165 98.7395 204.019 98.7303 203.872 98.7303C203.509 98.7303 203.186 98.7743 202.902 98.8624C202.617 98.9505 202.348 99.0827 202.094 99.2589C201.839 99.4351 201.574 99.6502 201.3 99.9053V105.475H200.139ZM213.154 105.563C212.33 105.563 211.679 105.441 211.199 105.195C210.729 104.95 210.391 104.534 210.185 103.946C209.979 103.358 209.877 102.555 209.877 101.536C209.877 100.498 209.979 99.6901 210.185 99.1114C210.4 98.5244 210.749 98.1126 211.228 97.877C211.709 97.6424 212.355 97.5246 213.168 97.5246C213.864 97.5246 214.427 97.6035 214.859 97.7602C215.299 97.9169 215.623 98.1863 215.828 98.5684C216.044 98.9403 216.151 99.4596 216.151 100.125C216.151 100.586 216.058 100.958 215.872 101.243C215.696 101.517 215.436 101.717 215.093 101.845C214.76 101.962 214.364 102.022 213.903 102.022H211.038C211.047 102.658 211.115 103.173 211.244 103.564C211.371 103.946 211.601 104.226 211.934 104.402C212.277 104.568 212.776 104.652 213.433 104.652H215.961V105.357C215.51 105.416 215.069 105.465 214.637 105.505C214.207 105.543 213.712 105.563 213.154 105.563ZM211.023 101.257H213.815C214.255 101.257 214.579 101.179 214.785 101.022C215 100.856 215.109 100.562 215.109 100.141C215.109 99.6901 215.04 99.3418 214.903 99.097C214.775 98.8419 214.57 98.6658 214.285 98.5684C214.01 98.4609 213.639 98.4066 213.168 98.4066C212.619 98.4066 212.189 98.4896 211.876 98.6565C211.562 98.8133 211.341 99.097 211.214 99.5088C211.087 99.9196 211.023 100.503 211.023 101.257ZM220.079 105.475L217.125 97.628H218.315L220.755 104.387L223.268 97.628H224.443L221.401 105.475H220.079ZM228.669 105.563C228.101 105.563 227.602 105.505 227.171 105.387C226.75 105.269 226.396 105.063 226.112 104.769C225.829 104.476 225.618 104.069 225.48 103.55C225.343 103.02 225.275 102.349 225.275 101.536C225.275 100.713 225.343 100.043 225.48 99.5232C225.618 98.9946 225.829 98.5879 226.112 98.3031C226.396 98.0101 226.75 97.8094 227.171 97.7008C227.602 97.584 228.101 97.5246 228.669 97.5246C229.238 97.5246 229.733 97.584 230.154 97.7008C230.585 97.8186 230.942 98.0245 231.226 98.3185C231.511 98.6022 231.721 99.0089 231.858 99.5385C232.005 100.057 232.078 100.724 232.078 101.536C232.078 102.36 232.005 103.036 231.858 103.564C231.721 104.084 231.511 104.49 231.226 104.784C230.952 105.068 230.599 105.269 230.168 105.387C229.738 105.505 229.238 105.563 228.669 105.563ZM228.669 104.608C229.032 104.608 229.351 104.573 229.625 104.505C229.909 104.436 230.143 104.299 230.33 104.094C230.516 103.888 230.658 103.579 230.756 103.168C230.854 102.756 230.904 102.212 230.904 101.536C230.904 100.851 230.854 100.307 230.756 99.9053C230.658 99.5037 230.516 99.2005 230.33 98.9946C230.143 98.7887 229.909 98.6514 229.625 98.5828C229.351 98.5141 229.032 98.4803 228.669 98.4803C228.298 98.4803 227.974 98.5141 227.699 98.5828C227.426 98.6514 227.195 98.7887 227.009 98.9946C226.822 99.2005 226.681 99.5037 226.583 99.9053C226.484 100.307 226.436 100.851 226.436 101.536C226.436 102.212 226.484 102.756 226.583 103.168C226.681 103.579 226.822 103.888 227.009 104.094C227.195 104.299 227.426 104.436 227.699 104.505C227.974 104.573 228.298 104.608 228.669 104.608ZM236.093 105.489C235.642 105.489 235.264 105.411 234.961 105.255C234.658 105.088 234.427 104.823 234.271 104.461C234.114 104.089 234.035 103.589 234.035 102.962V94.2629H235.197V102.816C235.197 103.286 235.241 103.643 235.329 103.888C235.417 104.123 235.544 104.29 235.711 104.387C235.877 104.476 236.073 104.534 236.298 104.564L237.092 104.652V105.489H236.093ZM240.471 105.475L237.517 97.628H238.707L241.147 104.387L243.66 97.628H244.835L241.794 105.475H240.471ZM246.41 96.2318C246.253 96.2318 246.175 96.1529 246.175 95.9962V94.8499C246.175 94.6932 246.253 94.6153 246.41 94.6153H247.232C247.311 94.6153 247.365 94.6399 247.394 94.6891C247.434 94.728 247.453 94.7813 247.453 94.8499V95.9962C247.453 96.1529 247.38 96.2318 247.232 96.2318H246.41ZM246.233 105.475V97.628H247.394V105.475H246.233ZM249.634 105.475V97.628H250.546L250.795 98.4947C251.168 98.2304 251.603 97.9999 252.103 97.8042C252.603 97.5983 253.122 97.4959 253.661 97.4959C254.239 97.4959 254.704 97.6178 255.057 97.8626C255.41 98.1075 255.669 98.4312 255.836 98.8327C256.002 99.2343 256.086 99.6707 256.086 100.141V105.475H254.924V100.273C254.924 99.9401 254.856 99.6461 254.719 99.391C254.591 99.1267 254.406 98.9208 254.16 98.7743C253.926 98.6268 253.632 98.5531 253.279 98.5531C252.955 98.5531 252.652 98.5879 252.367 98.6565C252.094 98.7149 251.829 98.803 251.575 98.9208C251.33 99.0284 251.07 99.1605 250.795 99.3173V105.475H249.634ZM260.199 109.076C259.69 109.076 259.239 109.002 258.847 108.854C258.465 108.718 258.161 108.502 257.936 108.208C257.72 107.924 257.612 107.567 257.612 107.135V106.783C257.612 106.332 257.735 105.955 257.98 105.651C258.234 105.348 258.553 105.122 258.935 104.975C259.317 104.818 259.709 104.74 260.111 104.74L260.405 105.211C260.111 105.211 259.836 105.26 259.581 105.357C259.327 105.445 259.116 105.593 258.949 105.799C258.792 106.003 258.714 106.269 258.714 106.591V106.915C258.714 107.385 258.871 107.718 259.185 107.914C259.498 108.12 259.924 108.223 260.463 108.223H262.285C262.873 108.223 263.333 108.111 263.666 107.885C264.01 107.66 264.181 107.306 264.181 106.827V106.533C264.181 106.258 264.127 106.024 264.02 105.827C263.911 105.632 263.73 105.48 263.476 105.372C263.231 105.264 262.883 105.211 262.432 105.211H260.067C259.459 105.211 258.984 105.082 258.641 104.828C258.308 104.564 258.141 104.226 258.141 103.814C258.141 103.422 258.254 103.114 258.479 102.888C258.715 102.663 259.042 102.506 259.464 102.418C259.102 102.272 258.817 102.075 258.612 101.83C258.406 101.576 258.264 101.307 258.186 101.022C258.107 100.728 258.068 100.435 258.068 100.141C258.068 99.5334 258.19 99.0437 258.435 98.6709C258.68 98.299 259.028 98.0296 259.479 97.8626C259.939 97.6967 260.477 97.6127 261.095 97.6127H265.283V98.2744L263.52 98.4209C263.647 98.509 263.789 98.6268 263.946 98.7743C264.103 98.9106 264.235 99.1114 264.342 99.3767C264.46 99.6307 264.519 99.9841 264.519 100.435C264.519 100.836 264.431 101.219 264.254 101.58C264.088 101.943 263.804 102.242 263.402 102.477C263.001 102.703 262.447 102.816 261.742 102.816H260.493C260.081 102.816 259.753 102.879 259.508 103.006C259.273 103.124 259.155 103.339 259.155 103.652C259.155 103.888 259.243 104.054 259.42 104.152C259.596 104.251 259.782 104.299 259.979 104.299H262.579C263.187 104.299 263.686 104.378 264.078 104.534C264.48 104.691 264.779 104.931 264.974 105.255C265.18 105.568 265.283 105.97 265.283 106.459V106.783C265.283 107.498 265.038 108.056 264.548 108.458C264.068 108.87 263.348 109.076 262.388 109.076H260.199ZM260.743 101.918H261.624C262.124 101.918 262.501 101.845 262.756 101.698C263.02 101.541 263.201 101.34 263.3 101.096C263.397 100.851 263.446 100.586 263.446 100.302C263.446 99.8612 263.372 99.5139 263.226 99.2589C263.089 98.9946 262.893 98.8081 262.638 98.7006C262.383 98.5828 262.09 98.5244 261.756 98.5244H260.919C260.361 98.5244 259.919 98.6514 259.596 98.9065C259.283 99.1513 259.126 99.5826 259.126 100.199C259.126 100.807 259.268 101.247 259.552 101.522C259.846 101.786 260.243 101.918 260.743 101.918ZM138.474 126.987V119.14H139.385L139.635 120.007C140.008 119.742 140.443 119.512 140.943 119.316C141.443 119.11 141.961 119.008 142.5 119.008C143.079 119.008 143.544 119.13 143.896 119.375C144.25 119.62 144.509 119.943 144.676 120.345C144.842 120.746 144.925 121.183 144.925 121.653V126.987H143.764V121.785C143.764 121.452 143.696 121.158 143.558 120.903C143.431 120.639 143.245 120.433 143 120.286C142.766 120.139 142.472 120.065 142.118 120.065C141.795 120.065 141.491 120.1 141.207 120.169C140.933 120.227 140.669 120.315 140.414 120.433C140.169 120.54 139.91 120.673 139.635 120.829V126.987H138.474ZM150.111 127.075C149.288 127.075 148.636 126.953 148.157 126.707C147.687 126.462 147.349 126.046 147.143 125.458C146.937 124.87 146.834 124.067 146.834 123.048C146.834 122.01 146.937 121.202 147.143 120.623C147.358 120.036 147.706 119.625 148.187 119.389C148.666 119.154 149.312 119.037 150.126 119.037C150.821 119.037 151.385 119.116 151.816 119.272C152.256 119.429 152.58 119.698 152.786 120.08C153.001 120.452 153.109 120.972 153.109 121.638C153.109 122.099 153.016 122.47 152.83 122.755C152.653 123.029 152.394 123.229 152.051 123.357C151.718 123.474 151.321 123.534 150.86 123.534H147.995C148.005 124.17 148.074 124.685 148.201 125.076C148.328 125.458 148.558 125.738 148.891 125.914C149.235 126.08 149.734 126.164 150.39 126.164H152.918V126.869C152.467 126.928 152.026 126.977 151.596 127.017C151.164 127.056 150.67 127.075 150.111 127.075ZM147.981 122.769H150.772C151.214 122.769 151.536 122.691 151.742 122.534C151.957 122.368 152.066 122.074 152.066 121.653C152.066 121.202 151.997 120.854 151.86 120.609C151.733 120.354 151.527 120.178 151.242 120.08C150.969 119.973 150.596 119.919 150.126 119.919C149.578 119.919 149.146 120.002 148.833 120.169C148.52 120.325 148.299 120.609 148.171 121.021C148.044 121.432 147.981 122.016 147.981 122.769ZM158.062 127.075C157.238 127.075 156.587 126.953 156.107 126.707C155.637 126.462 155.299 126.046 155.093 125.458C154.887 124.87 154.785 124.067 154.785 123.048C154.785 122.01 154.887 121.202 155.093 120.623C155.308 120.036 155.656 119.625 156.137 119.389C156.616 119.154 157.263 119.037 158.076 119.037C158.772 119.037 159.335 119.116 159.766 119.272C160.207 119.429 160.53 119.698 160.736 120.08C160.951 120.452 161.059 120.972 161.059 121.638C161.059 122.099 160.966 122.47 160.78 122.755C160.604 123.029 160.344 123.229 160.001 123.357C159.668 123.474 159.271 123.534 158.81 123.534H155.945C155.956 124.17 156.024 124.685 156.151 125.076C156.278 125.458 156.509 125.738 156.842 125.914C157.185 126.08 157.685 126.164 158.34 126.164H160.868V126.869C160.418 126.928 159.976 126.977 159.546 127.017C159.115 127.056 158.62 127.075 158.062 127.075ZM155.931 122.769H158.722C159.164 122.769 159.487 122.691 159.692 122.534C159.909 122.368 160.016 122.074 160.016 121.653C160.016 121.202 159.948 120.854 159.81 120.609C159.683 120.354 159.477 120.178 159.193 120.08C158.919 119.973 158.546 119.919 158.076 119.919C157.528 119.919 157.097 120.002 156.783 120.169C156.47 120.325 156.25 120.609 156.121 121.021C155.994 121.432 155.931 122.016 155.931 122.769ZM165.556 127.075C164.91 127.075 164.376 126.938 163.954 126.663C163.543 126.379 163.235 125.948 163.029 125.37C162.832 124.782 162.735 124.034 162.735 123.122C162.735 122.152 162.832 121.368 163.029 120.771C163.225 120.163 163.538 119.723 163.969 119.448C164.401 119.174 164.978 119.037 165.704 119.037C166.144 119.037 166.575 119.086 166.996 119.184C167.417 119.281 167.79 119.389 168.113 119.507V115.775H169.274V126.987H168.333L168.113 126.193C167.966 126.321 167.746 126.453 167.452 126.59C167.167 126.728 166.854 126.844 166.512 126.943C166.178 127.031 165.86 127.075 165.556 127.075ZM165.894 126.12C166.345 126.12 166.752 126.052 167.114 125.914C167.486 125.767 167.819 125.615 168.113 125.458V120.33C167.761 120.222 167.422 120.134 167.099 120.065C166.776 119.987 166.413 119.948 166.012 119.948C165.512 119.948 165.105 120.041 164.792 120.227C164.478 120.413 164.248 120.736 164.101 121.197C163.964 121.648 163.896 122.275 163.896 123.078C163.896 123.803 163.959 124.391 164.087 124.842C164.223 125.293 164.439 125.62 164.733 125.826C165.027 126.022 165.414 126.12 165.894 126.12ZM174.17 127.075C173.974 127.075 173.735 127.07 173.45 127.061C173.166 127.05 172.867 127.036 172.554 127.017C172.25 126.997 171.971 126.977 171.717 126.957C171.471 126.928 171.28 126.899 171.143 126.869V126.164H174.362C174.684 126.164 174.964 126.14 175.199 126.091C175.434 126.041 175.615 125.934 175.743 125.767C175.88 125.601 175.948 125.351 175.948 125.018V124.665C175.948 124.322 175.836 124.058 175.61 123.872C175.385 123.676 175.022 123.578 174.523 123.578H173.421C172.96 123.578 172.549 123.519 172.187 123.402C171.833 123.284 171.56 123.083 171.363 122.799C171.168 122.514 171.069 122.123 171.069 121.623V121.211C171.069 120.722 171.162 120.32 171.349 120.007C171.545 119.693 171.844 119.458 172.245 119.301C172.657 119.144 173.186 119.066 173.832 119.066C174.107 119.066 174.42 119.076 174.772 119.096C175.135 119.116 175.488 119.144 175.831 119.184C176.174 119.213 176.453 119.248 176.669 119.287V119.992H173.642C173.142 119.992 172.754 120.075 172.481 120.242C172.216 120.408 172.083 120.732 172.083 121.211V121.535C172.083 121.838 172.147 122.069 172.275 122.226C172.402 122.373 172.578 122.47 172.804 122.52C173.039 122.569 173.309 122.593 173.612 122.593H174.728C175.444 122.593 175.998 122.759 176.389 123.092C176.781 123.426 176.977 123.906 176.977 124.532V125.076C176.977 125.606 176.855 126.017 176.61 126.311C176.375 126.595 176.047 126.796 175.625 126.913C175.214 127.021 174.728 127.075 174.17 127.075ZM178.843 127.001C178.687 127.001 178.609 126.923 178.609 126.767V125.591C178.609 125.434 178.687 125.356 178.843 125.356H179.49C179.646 125.356 179.725 125.434 179.725 125.591V126.767C179.725 126.844 179.701 126.904 179.652 126.943C179.613 126.982 179.558 127.001 179.49 127.001H178.843Z" fill="white"/>
<path d="M55.2503 178.76C55.2503 205.282 33.7501 226.783 7.22818 226.783C-19.2937 226.783 -40.7939 205.282 -40.7939 178.76C-40.7939 152.239 -19.2937 130.738 7.22818 130.738C33.7501 130.738 55.2503 152.239 55.2503 178.76Z" fill="white" fill-opacity="0.2"/>
<path d="M48.1732 -11.306C48.1732 15.2159 26.6729 36.7161 0.151032 36.7161C-26.3709 36.7161 -47.8711 15.2159 -47.8711 -11.306C-47.8711 -37.8279 -26.3709 -59.3281 0.151032 -59.3281C26.6729 -59.3281 48.1732 -37.8279 48.1732 -11.306Z" fill="white" fill-opacity="0.2"/>
<defs>
<linearGradient id="paint0_linear_1499_9370" x1="159.287" y1="0.320312" x2="159.287" y2="176.96" gradientUnits="userSpaceOnUse">
<stop stop-color="#7030A0"/>
<stop offset="1" stop-color="#B53784"/>
</linearGradient>
</defs>
</svg>
