<svg width="356" height="177" viewBox="0 0 356 177" fill="none" xmlns="http://www.w3.org/2000/svg">
<g filter="url(#filter0_d_1499_9379)">
<g clip-path="url(#clip0_1499_9379)">
<rect x="19.2563" width="317.256" height="176.635" rx="16" fill="url(#paint0_linear_1499_9379)"/>
<path d="M87.6504 68.647V47.6525H96.5021C97.183 47.6525 97.8733 47.7376 98.5732 47.9079C99.2919 48.0591 99.9444 48.3807 100.531 48.8725C101.136 49.3454 101.618 50.0641 101.978 51.0287C102.356 51.9933 102.545 53.27 102.545 54.8587C102.545 56.4475 102.356 57.7336 101.978 58.7172C101.618 59.7007 101.146 60.4478 100.559 60.9585C99.9728 61.4691 99.3392 61.8096 98.6583 61.9798C97.9774 62.15 97.3154 62.2352 96.6723 62.2352C96.3319 62.2352 95.9347 62.2257 95.4808 62.2068C95.0268 62.169 94.5635 62.1217 94.0906 62.0649C93.6366 62.0082 93.2111 61.9609 92.8139 61.9231C92.4167 61.8663 92.0952 61.819 91.8493 61.7812V68.647H87.6504ZM91.8493 58.4618H96.0198C96.5115 58.4618 96.9277 58.3483 97.2681 58.1214C97.6275 57.8755 97.8923 57.4972 98.0625 56.9865C98.2327 56.4569 98.3178 55.7572 98.3178 54.8871C98.3178 54.036 98.2233 53.3645 98.0341 52.8728C97.8639 52.3621 97.6086 51.9933 97.2681 51.7663C96.9466 51.5393 96.5588 51.4259 96.1049 51.4259H91.8493V58.4618ZM105.073 68.647V53.4118H108.307L109.272 55.7382C109.82 55.0384 110.435 54.4426 111.116 53.9509C111.815 53.4591 112.638 53.2132 113.584 53.2132C113.792 53.2132 114 53.2226 114.209 53.2416C114.436 53.2605 114.643 53.2983 114.833 53.3551V57.6675C114.549 57.6297 114.246 57.6013 113.925 57.5823C113.622 57.5445 113.329 57.5256 113.045 57.5256C112.496 57.5256 111.996 57.5918 111.542 57.7242C111.106 57.8377 110.7 58.0173 110.322 58.2632C109.962 58.4902 109.612 58.7929 109.272 59.1711V68.647H105.073ZM123.594 68.7888C122.346 68.7888 121.278 68.6659 120.388 68.42C119.5 68.1553 118.771 67.7202 118.204 67.115C117.656 66.5097 117.249 65.7058 116.984 64.7034C116.739 63.701 116.615 62.4621 116.615 60.9868C116.615 59.4359 116.739 58.1592 116.984 57.1568C117.249 56.1354 117.656 55.341 118.204 54.7736C118.771 54.1873 119.5 53.7806 120.388 53.5537C121.296 53.3078 122.365 53.1848 123.594 53.1848C124.862 53.1848 125.94 53.3078 126.829 53.5537C127.718 53.7996 128.437 54.2156 128.985 54.802C129.552 55.3694 129.959 56.1638 130.205 57.1851C130.47 58.1876 130.602 59.4548 130.602 60.9868C130.602 62.4999 130.479 63.7672 130.233 64.7885C129.988 65.7909 129.591 66.5853 129.041 67.1717C128.493 67.7581 127.765 68.1741 126.857 68.42C125.968 68.6659 124.881 68.7888 123.594 68.7888ZM123.594 65.4411C124.105 65.4411 124.531 65.3938 124.871 65.2992C125.231 65.2047 125.514 65.0155 125.722 64.7318C125.949 64.4291 126.119 63.9752 126.233 63.37C126.346 62.7648 126.403 61.9704 126.403 60.9868C126.403 59.9844 126.346 59.1901 126.233 58.6037C126.119 57.9985 125.949 57.554 125.722 57.2703C125.514 56.9676 125.231 56.769 124.871 56.6745C124.531 56.5799 124.105 56.5326 123.594 56.5326C123.103 56.5326 122.677 56.5799 122.318 56.6745C121.977 56.769 121.693 56.9676 121.466 57.2703C121.239 57.554 121.069 57.9985 120.956 58.6037C120.862 59.1901 120.814 59.9844 120.814 60.9868C120.814 61.9704 120.862 62.7648 120.956 63.37C121.069 63.9752 121.239 64.4291 121.466 64.7318C121.693 65.0155 121.977 65.2047 122.318 65.2992C122.677 65.3938 123.103 65.4411 123.594 65.4411ZM133.871 51.1705C133.473 51.1705 133.275 50.9813 133.275 50.6031V47.8228C133.275 47.4256 133.473 47.227 133.871 47.227H137.105C137.294 47.227 137.426 47.2837 137.502 47.3972C137.596 47.5107 137.644 47.6525 137.644 47.8228V50.6031C137.644 50.9813 137.465 51.1705 137.105 51.1705H133.871ZM133.388 75.3709V53.4118H137.587V68.5335C137.587 69.7251 137.493 70.9356 137.303 72.165C137.133 73.4133 136.887 74.482 136.566 75.3709H133.388ZM147.225 68.7888C145.542 68.7888 144.199 68.5713 143.197 68.1363C142.194 67.6824 141.466 66.888 141.012 65.7531C140.577 64.6183 140.359 63.0485 140.359 61.0436C140.359 58.9819 140.567 57.3837 140.984 56.2489C141.4 55.1141 142.099 54.3197 143.083 53.8658C144.067 53.4118 145.4 53.1848 147.083 53.1848C148.596 53.1848 149.807 53.3361 150.715 53.6388C151.623 53.9414 152.275 54.471 152.672 55.2276C153.089 55.9841 153.297 57.0527 153.297 58.4335C153.297 59.4548 153.089 60.2682 152.672 60.8734C152.275 61.4597 151.708 61.8853 150.97 62.15C150.232 62.396 149.362 62.5189 148.36 62.5189H144.53C144.567 63.2943 144.681 63.9185 144.87 64.3913C145.078 64.8453 145.447 65.1763 145.977 65.3843C146.525 65.5735 147.31 65.668 148.332 65.668H152.786V68.1363C152.048 68.2876 151.235 68.439 150.346 68.5902C149.476 68.7227 148.436 68.7888 147.225 68.7888ZM144.473 60.0222H147.934C148.502 60.0222 148.918 59.9087 149.183 59.6818C149.447 59.4548 149.58 59.0482 149.58 58.4618C149.58 57.9134 149.495 57.4783 149.325 57.1568C149.154 56.8163 148.89 56.5799 148.53 56.4475C148.171 56.2962 147.688 56.2205 147.083 56.2205C146.44 56.2205 145.929 56.334 145.551 56.561C145.173 56.769 144.899 57.1474 144.729 57.6958C144.558 58.2443 144.473 59.0198 144.473 60.0222ZM161.981 68.8172C161.054 68.8172 160.194 68.6943 159.399 68.4484C158.624 68.2025 157.952 67.7959 157.385 67.2284C156.818 66.6421 156.373 65.8572 156.052 64.8737C155.749 63.8713 155.598 62.6134 155.598 61.1003C155.598 59.5494 155.739 58.2632 156.023 57.2419C156.307 56.2205 156.723 55.4167 157.272 54.8304C157.839 54.2251 158.529 53.7996 159.343 53.5537C160.156 53.3078 161.073 53.1848 162.095 53.1848C163.022 53.1848 163.901 53.2416 164.733 53.3551C165.584 53.4496 166.473 53.6294 167.4 53.8941V56.3056H163.4C162.529 56.3056 161.83 56.4381 161.3 56.7028C160.77 56.9488 160.383 57.4215 160.137 58.1214C159.91 58.8023 159.797 59.7858 159.797 61.072C159.797 62.3392 159.91 63.3038 160.137 63.9658C160.383 64.6277 160.77 65.0722 161.3 65.2992C161.848 65.5262 162.568 65.6397 163.456 65.6397H167.627V68.0228C167.154 68.1741 166.606 68.316 165.981 68.4484C165.357 68.5619 164.696 68.647 163.995 68.7037C163.315 68.7794 162.643 68.8172 161.981 68.8172ZM175.748 68.647C174.575 68.647 173.62 68.4768 172.883 68.1363C172.163 67.7959 171.643 67.2284 171.322 66.4341C171 65.6397 170.858 64.571 170.897 63.2281L171.038 56.7879H168.655V54.0927L171.18 53.4118L171.748 49.1562H175.067V53.4118H178.642V56.7879H175.067V63.1998C175.067 63.6159 175.105 63.9564 175.181 64.2211C175.256 64.4859 175.36 64.7034 175.493 64.8737C175.644 65.0249 175.814 65.1384 176.003 65.2141C176.192 65.2898 176.381 65.337 176.571 65.356L178.5 65.5262V68.647H175.748ZM187.932 68.647L190.372 47.6525H194.401L199.224 63.7388L204.019 47.6525H208.019L210.487 68.647H206.43L204.614 53.1848L205.267 53.2416L201.153 68.647H197.21L193.039 53.2416L193.748 53.2132L191.989 68.647H187.932ZM219.596 68.7888C218.348 68.7888 217.279 68.6659 216.39 68.42C215.501 68.1553 214.773 67.7202 214.206 67.115C213.657 66.5097 213.25 65.7058 212.986 64.7034C212.74 63.701 212.617 62.4621 212.617 60.9868C212.617 59.4359 212.74 58.1592 212.986 57.1568C213.25 56.1354 213.657 55.341 214.206 54.7736C214.773 54.1873 215.501 53.7806 216.39 53.5537C217.298 53.3078 218.366 53.1848 219.596 53.1848C220.863 53.1848 221.941 53.3078 222.831 53.5537C223.719 53.7996 224.438 54.2156 224.987 54.802C225.554 55.3694 225.96 56.1638 226.207 57.1851C226.471 58.1876 226.604 59.4548 226.604 60.9868C226.604 62.4999 226.48 63.7672 226.235 64.7885C225.989 65.7909 225.592 66.5853 225.043 67.1717C224.494 67.7581 223.767 68.1741 222.859 68.42C221.969 68.6659 220.882 68.7888 219.596 68.7888ZM219.596 65.4411C220.107 65.4411 220.532 65.3938 220.873 65.2992C221.232 65.2047 221.515 65.0155 221.724 64.7318C221.951 64.4291 222.121 63.9752 222.235 63.37C222.348 62.7648 222.405 61.9704 222.405 60.9868C222.405 59.9844 222.348 59.1901 222.235 58.6037C222.121 57.9985 221.951 57.554 221.724 57.2703C221.515 56.9676 221.232 56.769 220.873 56.6745C220.532 56.5799 220.107 56.5326 219.596 56.5326C219.104 56.5326 218.678 56.5799 218.32 56.6745C217.979 56.769 217.695 56.9676 217.468 57.2703C217.241 57.554 217.071 57.9985 216.958 58.6037C216.863 59.1901 216.816 59.9844 216.816 60.9868C216.816 61.9704 216.863 62.7648 216.958 63.37C217.071 63.9752 217.241 64.4291 217.468 64.7318C217.695 65.0155 217.979 65.2047 218.32 65.2992C218.678 65.3938 219.104 65.4411 219.596 65.4411ZM234.383 68.8172C233.191 68.8172 232.189 68.5713 231.375 68.0796C230.562 67.5689 229.948 66.7556 229.531 65.6397C229.134 64.5048 228.935 63.0201 228.935 61.1854C228.935 59.294 229.106 57.762 229.446 56.5894C229.806 55.4167 230.402 54.5561 231.233 54.0076C232.065 53.4591 233.21 53.1848 234.666 53.1848C235.366 53.1848 236.056 53.2605 236.737 53.4118C237.418 53.5442 238.023 53.705 238.553 53.8941V47H242.78V68.647H239.234L238.553 67.2001C238.232 67.5027 237.835 67.7769 237.361 68.0228C236.908 68.2687 236.425 68.4673 235.915 68.6186C235.404 68.751 234.893 68.8172 234.383 68.8172ZM235.858 65.4411C236.425 65.4411 236.936 65.3465 237.39 65.1574C237.863 64.9682 238.25 64.7791 238.553 64.5899V56.9298C238.175 56.7974 237.778 56.665 237.361 56.5326C236.945 56.4002 236.501 56.334 236.028 56.334C235.328 56.334 234.76 56.4569 234.326 56.7028C233.909 56.9488 233.607 57.4121 233.418 58.093C233.228 58.755 233.134 59.7196 233.134 60.9868C233.134 62.1595 233.219 63.0769 233.39 63.7388C233.579 64.3819 233.872 64.8263 234.269 65.0722C234.666 65.3182 235.196 65.4411 235.858 65.4411ZM252.341 68.7888C250.658 68.7888 249.316 68.5713 248.313 68.1363C247.311 67.6824 246.582 66.888 246.128 65.7531C245.693 64.6183 245.476 63.0485 245.476 61.0436C245.476 58.9819 245.684 57.3837 246.1 56.2489C246.516 55.1141 247.216 54.3197 248.199 53.8658C249.183 53.4118 250.516 53.1848 252.199 53.1848C253.713 53.1848 254.923 53.3361 255.831 53.6388C256.739 53.9414 257.391 54.471 257.789 55.2276C258.205 55.9841 258.413 57.0527 258.413 58.4335C258.413 59.4548 258.205 60.2682 257.789 60.8734C257.391 61.4597 256.824 61.8853 256.086 62.15C255.349 62.396 254.479 62.5189 253.476 62.5189H249.646C249.685 63.2943 249.798 63.9185 249.987 64.3913C250.195 64.8453 250.564 65.1763 251.093 65.3843C251.642 65.5735 252.426 65.668 253.448 65.668H257.902V68.1363C257.164 68.2876 256.352 68.439 255.462 68.5902C254.593 68.7227 253.552 68.7888 252.341 68.7888ZM249.589 60.0222H253.051C253.618 60.0222 254.034 59.9087 254.299 59.6818C254.564 59.4548 254.696 59.0482 254.696 58.4618C254.696 57.9134 254.611 57.4783 254.441 57.1568C254.271 56.8163 254.006 56.5799 253.646 56.4475C253.288 56.2962 252.805 56.2205 252.199 56.2205C251.557 56.2205 251.046 56.334 250.667 56.561C250.289 56.769 250.015 57.1474 249.845 57.6958C249.674 58.2443 249.589 59.0198 249.589 60.0222ZM265.934 68.7037C264.856 68.7037 263.958 68.5335 263.239 68.193C262.54 67.8336 262.019 67.2946 261.678 66.5759C261.338 65.8383 261.168 64.8926 261.168 63.7388V47H265.367V63.1147C265.367 63.6821 265.423 64.136 265.537 64.4765C265.65 64.798 265.821 65.0345 266.048 65.1857C266.294 65.337 266.597 65.4411 266.955 65.4978L268.119 65.668V68.7037H265.934Z" fill="white"/>
<path d="M70.9873 84.3711L284.782 84.3877" stroke="#D0D0D0" stroke-width="0.726765"/>
<path d="M71.9985 104.565V93.867H76.2283C76.8776 93.867 77.4251 93.9876 77.8708 94.2308C78.3165 94.4628 78.6751 94.8073 78.9465 95.2622C79.2274 95.7182 79.431 96.2795 79.5569 96.9483C79.6829 97.6069 79.7459 98.3628 79.7459 99.2159C79.7459 100.34 79.6151 101.299 79.3534 102.094C79.0918 102.889 78.6993 103.499 78.1761 103.925C77.6528 104.352 77.0036 104.565 76.2283 104.565H71.9985ZM73.1614 103.532H76.1411C76.7129 103.532 77.1779 103.358 77.5365 103.01C77.895 102.651 78.1615 102.152 78.336 101.512C78.5104 100.863 78.5976 100.097 78.5976 99.2159C78.5976 98.4215 78.5492 97.7528 78.4522 97.2097C78.3553 96.6575 78.2052 96.2116 78.0016 95.8732C77.8079 95.5338 77.5559 95.2916 77.2458 95.1457C76.9357 94.9907 76.5675 94.9137 76.1411 94.9137H73.1614V103.532ZM84.5306 104.652C83.7166 104.652 83.0722 104.531 82.5974 104.288C82.1323 104.046 81.7979 103.635 81.5945 103.053C81.391 102.471 81.2892 101.677 81.2892 100.669C81.2892 99.6425 81.391 98.843 81.5945 98.2706C81.8077 97.69 82.1517 97.2826 82.6265 97.0496C83.1013 96.8176 83.7408 96.701 84.5452 96.701C85.2332 96.701 85.7903 96.7791 86.2167 96.9341C86.6528 97.0891 86.9726 97.3556 87.176 97.7335C87.3892 98.1014 87.4958 98.6151 87.4958 99.2737C87.4958 99.7296 87.4037 100.097 87.2196 100.379C87.0452 100.65 86.7884 100.848 86.4492 100.975C86.1198 101.09 85.7273 101.149 85.272 101.149H82.4375C82.4472 101.778 82.515 102.288 82.6411 102.675C82.767 103.053 82.9947 103.33 83.3242 103.504C83.6633 103.668 84.1575 103.751 84.8068 103.751H87.3069V104.448C86.8611 104.507 86.425 104.555 85.9987 104.594C85.5723 104.633 85.083 104.652 84.5306 104.652ZM82.423 100.393H85.1847C85.6207 100.393 85.9405 100.315 86.1441 100.16C86.3572 99.9961 86.4638 99.7053 86.4638 99.2889C86.4638 98.843 86.3959 98.4985 86.2603 98.2564C86.1343 98.0041 85.9309 97.8298 85.6498 97.7335C85.3785 97.6272 85.0102 97.5734 84.5452 97.5734C84.0025 97.5734 83.5761 97.6555 83.266 97.8207C82.956 97.9757 82.7379 98.2564 82.612 98.6637C82.4859 99.07 82.423 99.6476 82.423 100.393ZM89.8071 104.565V97.7477H88.6153V97.006L89.8071 96.8034V95.7709C89.8071 95.2379 89.8702 94.7972 89.9961 94.4486C90.1318 94.0899 90.3546 93.8234 90.6648 93.6491C90.9845 93.4749 91.4109 93.3867 91.9439 93.3867C92.3121 93.3867 92.627 93.411 92.8886 93.4597C93.1502 93.4982 93.3828 93.5468 93.5863 93.6056V94.4192C93.3828 94.4 93.1648 94.3858 92.9322 94.3756C92.7094 94.3564 92.4913 94.3463 92.2781 94.3463C91.9197 94.3463 91.6434 94.405 91.4496 94.5205C91.2655 94.6371 91.1347 94.8113 91.0572 95.0444C90.9894 95.2764 90.9555 95.5672 90.9555 95.9168V96.8034H95.5486V97.7477H90.9555V104.565H89.8071ZM94.9963 104.565V96.8034H96.1446V104.565H94.9963ZM95.1707 95.4223C95.0156 95.4223 94.9381 95.3443 94.9381 95.1893V94.0555C94.9381 93.9004 95.0156 93.8234 95.1707 93.8234H95.9992C96.067 93.8234 96.1155 93.8477 96.1446 93.8964C96.1833 93.9349 96.2026 93.9876 96.2026 94.0555V95.1893C96.2026 95.3443 96.1349 95.4223 95.9992 95.4223H95.1707ZM98.3576 104.565V96.8034H99.2588L99.5059 97.6606C99.8741 97.3992 100.305 97.1712 100.799 96.9777C101.294 96.774 101.808 96.6727 102.34 96.6727C102.912 96.6727 103.372 96.7932 103.722 97.0354C104.07 97.2776 104.326 97.5978 104.492 97.995C104.657 98.3921 104.739 98.8238 104.739 99.2889V104.565H103.591V99.4196C103.591 99.0903 103.523 98.7995 103.387 98.5472C103.261 98.2858 103.077 98.0821 102.835 97.9372C102.602 97.7913 102.311 97.7183 101.963 97.7183C101.642 97.7183 101.342 97.7528 101.061 97.8207C100.79 97.8784 100.528 97.9656 100.276 98.0821C100.034 98.1885 99.7773 98.3192 99.5059 98.4742V104.565H98.3576ZM109.868 104.652C109.054 104.652 108.41 104.531 107.935 104.288C107.47 104.046 107.135 103.635 106.931 103.053C106.729 102.471 106.627 101.677 106.627 100.669C106.627 99.6425 106.729 98.843 106.931 98.2706C107.145 97.69 107.489 97.2826 107.964 97.0496C108.439 96.8176 109.079 96.701 109.882 96.701C110.57 96.701 111.127 96.7791 111.554 96.9341C111.991 97.0891 112.31 97.3556 112.513 97.7335C112.726 98.1014 112.834 98.6151 112.834 99.2737C112.834 99.7296 112.741 100.097 112.557 100.379C112.383 100.65 112.125 100.848 111.787 100.975C111.458 101.09 111.065 101.149 110.61 101.149H107.775C107.785 101.778 107.853 102.288 107.978 102.675C108.105 103.053 108.332 103.33 108.661 103.504C109.001 103.668 109.495 103.751 110.145 103.751H112.644V104.448C112.198 104.507 111.763 104.555 111.336 104.594C110.91 104.633 110.42 104.652 109.868 104.652ZM107.76 100.393H110.522C110.958 100.393 111.278 100.315 111.481 100.16C111.695 99.9961 111.801 99.7053 111.801 99.2889C111.801 98.843 111.733 98.4985 111.597 98.2564C111.472 98.0041 111.268 97.8298 110.988 97.7335C110.716 97.6272 110.348 97.5734 109.882 97.5734C109.34 97.5734 108.913 97.6555 108.603 97.8207C108.293 97.9757 108.075 98.2564 107.95 98.6637C107.823 99.07 107.76 99.6476 107.76 100.393ZM117.281 104.652C116.641 104.652 116.114 104.516 115.697 104.245C115.29 103.964 114.985 103.537 114.781 102.966C114.588 102.384 114.49 101.644 114.49 100.742C114.49 99.7823 114.588 99.0072 114.781 98.4165C114.975 97.8156 115.285 97.3799 115.711 97.1084C116.138 96.8368 116.709 96.701 117.427 96.701C117.862 96.701 118.289 96.7497 118.705 96.847C119.123 96.9432 119.491 97.0496 119.811 97.1661V93.4749H120.959V104.565H120.029L119.811 103.78C119.665 103.906 119.447 104.037 119.156 104.173C118.876 104.308 118.566 104.424 118.226 104.521C117.897 104.608 117.582 104.652 117.281 104.652ZM117.615 103.708C118.061 103.708 118.463 103.64 118.822 103.504C119.19 103.358 119.52 103.208 119.811 103.053V97.9808C119.461 97.8734 119.127 97.7862 118.808 97.7183C118.488 97.6413 118.129 97.6028 117.732 97.6028C117.237 97.6028 116.836 97.694 116.526 97.8784C116.215 98.0628 115.988 98.382 115.842 98.838C115.706 99.2838 115.638 99.9039 115.638 100.698C115.638 101.416 115.702 101.997 115.828 102.443C115.964 102.889 116.176 103.213 116.467 103.417C116.758 103.61 117.141 103.708 117.615 103.708ZM129.559 104.652C128.92 104.652 128.392 104.516 127.976 104.245C127.568 103.964 127.263 103.537 127.06 102.966C126.866 102.384 126.769 101.644 126.769 100.742C126.769 99.7823 126.866 99.0072 127.06 98.4165C127.253 97.8156 127.563 97.3799 127.99 97.1084C128.416 96.8368 128.988 96.701 129.705 96.701C130.141 96.701 130.567 96.7497 130.984 96.847C131.4 96.9432 131.769 97.0496 132.088 97.1661V93.4749H133.237V104.565H132.307L132.088 103.78C131.943 103.906 131.726 104.037 131.435 104.173C131.153 104.308 130.843 104.424 130.505 104.521C130.175 104.608 129.86 104.652 129.559 104.652ZM129.894 103.708C130.339 103.708 130.742 103.64 131.1 103.504C131.468 103.358 131.798 103.208 132.088 103.053V97.9808C131.74 97.8734 131.405 97.7862 131.086 97.7183C130.766 97.6413 130.407 97.6028 130.01 97.6028C129.516 97.6028 129.113 97.694 128.803 97.8784C128.493 98.0628 128.266 98.382 128.12 98.838C127.985 99.2838 127.917 99.9039 127.917 100.698C127.917 101.416 127.98 101.997 128.106 102.443C128.242 102.889 128.455 103.213 128.746 103.417C129.036 103.61 129.419 103.708 129.894 103.708ZM138.37 104.652C137.557 104.652 136.912 104.531 136.437 104.288C135.972 104.046 135.638 103.635 135.435 103.053C135.231 102.471 135.129 101.677 135.129 100.669C135.129 99.6425 135.231 98.843 135.435 98.2706C135.648 97.69 135.992 97.2826 136.467 97.0496C136.942 96.8176 137.581 96.701 138.386 96.701C139.074 96.701 139.631 96.7791 140.057 96.9341C140.493 97.0891 140.812 97.3556 141.016 97.7335C141.23 98.1014 141.336 98.6151 141.336 99.2737C141.336 99.7296 141.244 100.097 141.06 100.379C140.885 100.65 140.629 100.848 140.29 100.975C139.96 101.09 139.567 101.149 139.112 101.149H136.278C136.287 101.778 136.355 102.288 136.481 102.675C136.607 103.053 136.835 103.33 137.165 103.504C137.503 103.668 137.998 103.751 138.647 103.751H141.147V104.448C140.701 104.507 140.265 104.555 139.839 104.594C139.412 104.633 138.923 104.652 138.37 104.652ZM136.263 100.393H139.025C139.461 100.393 139.781 100.315 139.985 100.16C140.197 99.9961 140.304 99.7053 140.304 99.2889C140.304 98.843 140.236 98.4985 140.1 98.2564C139.974 98.0041 139.771 97.8298 139.49 97.7335C139.219 97.6272 138.851 97.5734 138.386 97.5734C137.843 97.5734 137.416 97.6555 137.106 97.8207C136.796 97.9757 136.578 98.2564 136.452 98.6637C136.326 99.07 136.263 99.6476 136.263 100.393ZM145.304 104.579C144.858 104.579 144.485 104.502 144.186 104.347C143.885 104.182 143.657 103.92 143.502 103.562C143.347 103.194 143.27 102.699 143.27 102.079V93.4749H144.418V101.934C144.418 102.4 144.461 102.753 144.548 102.995C144.635 103.227 144.762 103.393 144.926 103.489C145.091 103.577 145.285 103.635 145.508 103.664L146.293 103.751V104.579H145.304ZM147.717 95.4223C147.562 95.4223 147.484 95.3443 147.484 95.1893V94.0555C147.484 93.9004 147.562 93.8234 147.717 93.8234H148.53C148.608 93.8234 148.661 93.8477 148.69 93.8964C148.729 93.9349 148.748 93.9876 148.748 94.0555V95.1893C148.748 95.3443 148.676 95.4223 148.53 95.4223H147.717ZM147.542 104.565V96.8034H148.69V104.565H147.542ZM153 104.565L150.078 96.8034H151.255L153.667 103.489L156.153 96.8034H157.316L154.308 104.565H153ZM161.38 104.652C160.567 104.652 159.922 104.531 159.447 104.288C158.982 104.046 158.648 103.635 158.444 103.053C158.24 102.471 158.139 101.677 158.139 100.669C158.139 99.6425 158.24 98.843 158.444 98.2706C158.658 97.69 159.001 97.2826 159.476 97.0496C159.951 96.8176 160.591 96.701 161.394 96.701C162.082 96.701 162.64 96.7791 163.066 96.9341C163.502 97.0891 163.822 97.3556 164.026 97.7335C164.239 98.1014 164.345 98.6151 164.345 99.2737C164.345 99.7296 164.254 100.097 164.069 100.379C163.895 100.65 163.638 100.848 163.299 100.975C162.969 101.09 162.577 101.149 162.122 101.149H159.287C159.297 101.778 159.365 102.288 159.491 102.675C159.616 103.053 159.844 103.33 160.174 103.504C160.513 103.668 161.007 103.751 161.657 103.751H164.157V104.448C163.711 104.507 163.275 104.555 162.848 104.594C162.422 104.633 161.933 104.652 161.38 104.652ZM159.273 100.393H162.035C162.471 100.393 162.791 100.315 162.993 100.16C163.207 99.9961 163.314 99.7053 163.314 99.2889C163.314 98.843 163.246 98.4985 163.11 98.2564C162.984 98.0041 162.781 97.8298 162.5 97.7335C162.228 97.6272 161.86 97.5734 161.394 97.5734C160.852 97.5734 160.426 97.6555 160.116 97.8207C159.806 97.9757 159.588 98.2564 159.461 98.6637C159.336 99.07 159.273 99.6476 159.273 100.393ZM166.279 104.565V96.8034H167.151L167.427 98.1551C167.776 97.7376 168.164 97.3941 168.591 97.1226C169.026 96.851 169.525 96.7162 170.087 96.7162C170.223 96.7162 170.349 96.7203 170.465 96.7304C170.591 96.7395 170.707 96.7598 170.814 96.7882V97.9656C170.688 97.9463 170.552 97.9321 170.407 97.922C170.261 97.9028 170.116 97.8936 169.971 97.8936C169.612 97.8936 169.293 97.9372 169.012 98.0243C168.73 98.1115 168.464 98.2422 168.213 98.4165C167.96 98.5907 167.699 98.8035 167.427 99.0558V104.565H166.279ZM173.497 104.652C172.925 104.652 172.455 104.483 172.087 104.143C171.718 103.804 171.535 103.325 171.535 102.705V102.152C171.535 101.541 171.734 101.047 172.131 100.669C172.537 100.291 173.148 100.103 173.962 100.103H176.593V99.143C176.593 98.8238 176.534 98.5522 176.419 98.3293C176.311 98.0963 176.113 97.9169 175.822 97.7913C175.541 97.6657 175.13 97.6028 174.587 97.6028H172.174V96.9189C172.513 96.8611 172.906 96.8074 173.352 96.7598C173.807 96.7112 174.34 96.6869 174.951 96.6869C175.58 96.6767 176.104 96.7547 176.52 96.9189C176.937 97.0841 177.242 97.3455 177.436 97.7042C177.64 98.0527 177.741 98.5137 177.741 99.0852V104.565H176.855L176.637 103.678C176.598 103.717 176.477 103.785 176.273 103.882C176.079 103.978 175.827 104.09 175.517 104.216C175.217 104.332 174.888 104.434 174.529 104.521C174.18 104.608 173.836 104.652 173.497 104.652ZM173.977 103.795C174.151 103.804 174.35 103.785 174.573 103.736C174.796 103.688 175.023 103.635 175.256 103.577C175.488 103.509 175.702 103.441 175.895 103.373C176.099 103.305 176.264 103.247 176.389 103.199C176.515 103.15 176.583 103.126 176.593 103.126V100.684L174.223 100.785C173.671 100.805 173.274 100.94 173.032 101.193C172.8 101.445 172.683 101.769 172.683 102.166V102.515C172.683 102.825 172.746 103.077 172.871 103.271C173.007 103.455 173.172 103.586 173.366 103.664C173.57 103.741 173.773 103.785 173.977 103.795ZM183.641 104.652C183.273 104.652 182.929 104.608 182.61 104.521C182.3 104.424 182.013 104.313 181.752 104.187C181.49 104.051 181.257 103.915 181.054 103.78L180.836 104.565H179.905V93.4749H181.054V97.5157C181.422 97.3019 181.839 97.1134 182.304 96.9483C182.769 96.7831 183.201 96.701 183.598 96.701C184.218 96.701 184.732 96.8318 185.139 97.0942C185.545 97.3556 185.851 97.7822 186.054 98.3729C186.268 98.9636 186.374 99.7539 186.374 100.742C186.374 101.546 186.282 102.245 186.097 102.835C185.914 103.417 185.618 103.867 185.211 104.187C184.814 104.497 184.291 104.652 183.641 104.652ZM183.278 103.692C183.704 103.692 184.058 103.586 184.339 103.373C184.63 103.15 184.848 102.816 184.993 102.37C185.148 101.924 185.226 101.367 185.226 100.698C185.226 99.8462 185.139 99.2058 184.964 98.7802C184.799 98.3435 184.571 98.0487 184.281 97.8936C183.99 97.7376 183.655 97.6606 183.278 97.6606C182.842 97.6606 182.45 97.7234 182.1 97.8491C181.762 97.9656 181.412 98.1206 181.054 98.3151V103.067C181.354 103.213 181.684 103.354 182.042 103.489C182.411 103.625 182.823 103.692 183.278 103.692ZM190.344 104.579C189.898 104.579 189.525 104.502 189.224 104.347C188.924 104.182 188.696 103.92 188.541 103.562C188.386 103.194 188.309 102.699 188.309 102.079V93.4749H189.457V101.934C189.457 102.4 189.501 102.753 189.588 102.995C189.675 103.227 189.801 103.393 189.966 103.489C190.131 103.577 190.325 103.635 190.548 103.664L191.333 103.751V104.579H190.344ZM195.547 104.652C194.733 104.652 194.089 104.531 193.614 104.288C193.149 104.046 192.814 103.635 192.611 103.053C192.407 102.471 192.306 101.677 192.306 100.669C192.306 99.6425 192.407 98.843 192.611 98.2706C192.824 97.69 193.168 97.2826 193.643 97.0496C194.117 96.8176 194.757 96.701 195.561 96.701C196.249 96.701 196.806 96.7791 197.233 96.9341C197.669 97.0891 197.989 97.3556 198.193 97.7335C198.405 98.1014 198.512 98.6151 198.512 99.2737C198.512 99.7296 198.419 100.097 198.236 100.379C198.062 100.65 197.804 100.848 197.465 100.975C197.136 101.09 196.744 101.149 196.288 101.149H193.454C193.464 101.778 193.532 102.288 193.657 102.675C193.783 103.053 194.011 103.33 194.34 103.504C194.68 103.668 195.174 103.751 195.823 103.751H198.323V104.448C197.877 104.507 197.442 104.555 197.015 104.594C196.589 104.633 196.099 104.652 195.547 104.652ZM193.439 100.393H196.2C196.637 100.393 196.956 100.315 197.16 100.16C197.374 99.9961 197.48 99.7053 197.48 99.2889C197.48 98.843 197.412 98.4985 197.277 98.2564C197.151 98.0041 196.947 97.8298 196.666 97.7335C196.395 97.6272 196.026 97.5734 195.561 97.5734C195.019 97.5734 194.592 97.6555 194.282 97.8207C193.972 97.9757 193.754 98.2564 193.628 98.6637C193.502 99.07 193.439 99.6476 193.439 100.393ZM203.12 104.652C202.926 104.652 202.688 104.647 202.408 104.638C202.127 104.628 201.831 104.613 201.521 104.594C201.221 104.575 200.944 104.555 200.692 104.535C200.45 104.507 200.262 104.478 200.126 104.448V103.751H203.308C203.629 103.751 203.905 103.727 204.137 103.678C204.37 103.63 204.55 103.523 204.675 103.358C204.811 103.194 204.879 102.947 204.879 102.617V102.268C204.879 101.929 204.767 101.668 204.545 101.484C204.322 101.29 203.963 101.193 203.468 101.193H202.378C201.923 101.193 201.516 101.135 201.157 101.018C200.809 100.902 200.537 100.703 200.344 100.423C200.15 100.141 200.053 99.754 200.053 99.2595V98.8522C200.053 98.3678 200.145 97.9706 200.329 97.6606C200.523 97.3505 200.819 97.1175 201.216 96.9625C201.622 96.8074 202.146 96.7304 202.786 96.7304C203.057 96.7304 203.367 96.7395 203.716 96.7598C204.074 96.7791 204.423 96.8074 204.762 96.847C205.102 96.8753 205.377 96.9098 205.591 96.9483V97.6464H202.597C202.103 97.6464 201.72 97.7285 201.448 97.8936C201.187 98.0578 201.056 98.378 201.056 98.8522V99.1724C201.056 99.4723 201.119 99.7002 201.244 99.8553C201.371 100.001 201.545 100.097 201.768 100.146C202 100.195 202.267 100.219 202.568 100.219H203.672C204.379 100.219 204.928 100.383 205.315 100.712C205.703 101.043 205.896 101.517 205.896 102.137V102.675C205.896 103.199 205.775 103.605 205.532 103.896C205.3 104.177 204.975 104.376 204.559 104.492C204.151 104.598 203.672 104.652 203.12 104.652ZM212.053 104.565V97.7477H210.86V97.006L212.053 96.8034V95.9168C212.053 95.3636 212.121 94.9035 212.255 94.5357C212.391 94.1578 212.619 93.8721 212.939 93.6775C213.258 93.484 213.704 93.3867 214.276 93.3867C214.615 93.3867 214.901 93.407 215.134 93.4455C215.376 93.4749 215.589 93.5032 215.773 93.5326V94.3463H214.479C214.131 94.3463 213.864 94.405 213.68 94.5205C213.497 94.6279 213.37 94.7972 213.302 95.0292C213.234 95.2521 213.201 95.5287 213.201 95.858V96.8034H215.613V97.7477H213.201V104.565H212.053ZM220.063 104.652C219.502 104.652 219.008 104.594 218.581 104.478C218.165 104.361 217.815 104.158 217.534 103.867C217.254 103.577 217.045 103.175 216.909 102.661C216.773 102.137 216.706 101.473 216.706 100.669C216.706 99.8553 216.773 99.1916 216.909 98.6779C217.045 98.1551 217.254 97.7528 217.534 97.4711C217.815 97.1813 218.165 96.9827 218.581 96.8753C219.008 96.7598 219.502 96.701 220.063 96.701C220.626 96.701 221.115 96.7598 221.532 96.8753C221.958 96.9918 222.312 97.1955 222.592 97.4863C222.874 97.767 223.082 98.1692 223.218 98.6931C223.364 99.2058 223.436 99.8654 223.436 100.669C223.436 101.484 223.364 102.152 223.218 102.675C223.082 103.189 222.874 103.591 222.592 103.882C222.322 104.163 221.972 104.361 221.546 104.478C221.12 104.594 220.626 104.652 220.063 104.652ZM220.063 103.708C220.422 103.708 220.737 103.673 221.009 103.605C221.289 103.537 221.523 103.402 221.706 103.199C221.89 102.995 222.031 102.689 222.127 102.283C222.225 101.876 222.273 101.338 222.273 100.669C222.273 99.9911 222.225 99.453 222.127 99.0558C222.031 98.6586 221.89 98.3587 221.706 98.1551C221.523 97.9514 221.289 97.8156 221.009 97.7477C220.737 97.6798 220.422 97.6464 220.063 97.6464C219.696 97.6464 219.375 97.6798 219.104 97.7477C218.833 97.8156 218.605 97.9514 218.421 98.1551C218.237 98.3587 218.097 98.6586 217.999 99.0558C217.903 99.453 217.855 99.9911 217.855 100.669C217.855 101.338 217.903 101.876 217.999 102.283C218.097 102.689 218.237 102.995 218.421 103.199C218.605 103.402 218.833 103.537 219.104 103.605C219.375 103.673 219.696 103.708 220.063 103.708ZM225.371 104.565V96.8034H226.243L226.52 98.1551C226.868 97.7376 227.256 97.3941 227.682 97.1226C228.119 96.851 228.617 96.7162 229.18 96.7162C229.315 96.7162 229.441 96.7203 229.558 96.7304C229.683 96.7395 229.8 96.7598 229.906 96.7882V97.9656C229.78 97.9463 229.645 97.9321 229.499 97.922C229.354 97.9028 229.209 97.8936 229.063 97.8936C228.704 97.8936 228.385 97.9372 228.104 98.0243C227.823 98.1115 227.556 98.2422 227.304 98.4165C227.053 98.5907 226.79 98.8035 226.52 99.0558V104.565H225.371ZM237.953 104.652C237.76 104.652 237.523 104.647 237.241 104.638C236.96 104.628 236.664 104.613 236.354 104.594C236.054 104.575 235.778 104.555 235.527 104.535C235.283 104.507 235.095 104.478 234.959 104.448V103.751H238.143C238.462 103.751 238.739 103.727 238.971 103.678C239.204 103.63 239.383 103.523 239.509 103.358C239.644 103.194 239.712 102.947 239.712 102.617V102.268C239.712 101.929 239.601 101.668 239.378 101.484C239.155 101.29 238.796 101.193 238.303 101.193H237.213C236.757 101.193 236.349 101.135 235.992 101.018C235.642 100.902 235.372 100.703 235.177 100.423C234.983 100.141 234.886 99.754 234.886 99.2595V98.8522C234.886 98.3678 234.978 97.9706 235.163 97.6606C235.356 97.3505 235.652 97.1175 236.049 96.9625C236.457 96.8074 236.98 96.7304 237.619 96.7304C237.89 96.7304 238.201 96.7395 238.549 96.7598C238.908 96.7791 239.257 96.8074 239.596 96.847C239.935 96.8753 240.212 96.9098 240.425 96.9483V97.6464H237.43C236.936 97.6464 236.553 97.7285 236.282 97.8936C236.02 98.0578 235.889 98.378 235.889 98.8522V99.1724C235.889 99.4723 235.952 99.7002 236.079 99.8553C236.204 100.001 236.379 100.097 236.602 100.146C236.835 100.195 237.101 100.219 237.401 100.219H238.505C239.214 100.219 239.761 100.383 240.148 100.712C240.536 101.043 240.73 101.517 240.73 102.137V102.675C240.73 103.199 240.609 103.605 240.367 103.896C240.134 104.177 239.81 104.376 239.392 104.492C238.986 104.598 238.506 104.652 237.953 104.652ZM242.546 108.01V96.8034H243.476L243.695 97.6028C243.87 97.4762 244.093 97.3455 244.364 97.2097C244.645 97.0648 244.945 96.9432 245.265 96.847C245.594 96.7497 245.918 96.701 246.239 96.701C246.742 96.701 247.169 96.8125 247.517 97.0354C247.876 97.2492 248.167 97.539 248.39 97.9078C248.613 98.2756 248.773 98.6971 248.87 99.1724C248.966 99.6476 249.015 100.146 249.015 100.669C249.015 101.541 248.914 102.278 248.71 102.879C248.515 103.47 248.215 103.915 247.808 104.216C247.402 104.516 246.878 104.666 246.239 104.666C245.803 104.666 245.362 104.598 244.916 104.464C244.48 104.318 244.073 104.138 243.695 103.925V108.01H242.546ZM245.918 103.692C246.287 103.692 246.617 103.6 246.907 103.417C247.198 103.232 247.43 102.922 247.605 102.487C247.78 102.041 247.867 101.435 247.867 100.669C247.867 99.9424 247.775 99.3608 247.59 98.9251C247.406 98.4793 247.169 98.1601 246.878 97.9656C246.587 97.7619 246.268 97.6606 245.918 97.6606C245.474 97.6606 245.061 97.7335 244.683 97.8784C244.315 98.0142 243.986 98.1601 243.695 98.3151V103.067C244.034 103.252 244.392 103.402 244.77 103.518C245.158 103.635 245.54 103.692 245.918 103.692ZM253.915 104.652C253.101 104.652 252.457 104.531 251.982 104.288C251.517 104.046 251.182 103.635 250.979 103.053C250.776 102.471 250.674 101.677 250.674 100.669C250.674 99.6425 250.776 98.843 250.979 98.2706C251.192 97.69 251.536 97.2826 252.011 97.0496C252.486 96.8176 253.126 96.701 253.93 96.701C254.618 96.701 255.174 96.7791 255.601 96.9341C256.038 97.0891 256.357 97.3556 256.561 97.7335C256.773 98.1014 256.881 98.6151 256.881 99.2737C256.881 99.7296 256.788 100.097 256.604 100.379C256.43 100.65 256.172 100.848 255.834 100.975C255.505 101.09 255.112 101.149 254.657 101.149H251.822C251.832 101.778 251.9 102.288 252.025 102.675C252.152 103.053 252.379 103.33 252.709 103.504C253.048 103.668 253.542 103.751 254.192 103.751H256.691V104.448C256.245 104.507 255.81 104.555 255.383 104.594C254.957 104.633 254.467 104.652 253.915 104.652ZM251.807 100.393H254.57C255.005 100.393 255.325 100.315 255.528 100.16C255.742 99.9961 255.848 99.7053 255.848 99.2889C255.848 98.843 255.78 98.4985 255.645 98.2564C255.519 98.0041 255.315 97.8298 255.035 97.7335C254.763 97.6272 254.395 97.5734 253.93 97.5734C253.387 97.5734 252.96 97.6555 252.65 97.8207C252.34 97.9757 252.123 98.2564 251.997 98.6637C251.87 99.07 251.807 99.6476 251.807 100.393ZM261.634 104.652C261.197 104.652 260.791 104.594 260.413 104.478C260.035 104.361 259.706 104.158 259.424 103.867C259.143 103.577 258.925 103.175 258.77 102.661C258.615 102.147 258.537 101.493 258.537 100.698C258.537 99.8938 258.61 99.2352 258.755 98.7215C258.901 98.1986 259.109 97.7913 259.38 97.5005C259.652 97.2097 259.981 97.006 260.369 96.8905C260.756 96.774 261.188 96.7162 261.662 96.7162C262.05 96.7162 262.472 96.7355 262.927 96.774C263.383 96.8034 263.818 96.851 264.236 96.9189V97.6028H261.968C261.474 97.6028 261.057 97.6849 260.718 97.8491C260.378 98.0142 260.122 98.3243 259.948 98.7802C259.774 99.225 259.685 99.8745 259.685 100.728C259.685 101.551 259.778 102.181 259.962 102.617C260.146 103.053 260.408 103.354 260.747 103.518C261.086 103.673 261.498 103.751 261.982 103.751H264.351V104.42C264.128 104.458 263.867 104.497 263.567 104.535C263.276 104.575 262.966 104.603 262.637 104.623C262.307 104.643 261.972 104.652 261.634 104.652ZM266.113 95.4223C265.958 95.4223 265.881 95.3443 265.881 95.1893V94.0555C265.881 93.9004 265.958 93.8234 266.113 93.8234H266.928C267.005 93.8234 267.059 93.8477 267.088 93.8964C267.127 93.9349 267.146 93.9876 267.146 94.0555V95.1893C267.146 95.3443 267.073 95.4223 266.928 95.4223H266.113ZM265.939 104.565V96.8034H267.088V104.565H265.939ZM269.681 104.565V97.7477H268.489V97.006L269.681 96.8034V95.7709C269.681 95.2379 269.745 94.7972 269.871 94.4486C270.006 94.0899 270.229 93.8234 270.539 93.6491C270.858 93.4749 271.285 93.3867 271.818 93.3867C272.187 93.3867 272.501 93.411 272.763 93.4597C273.025 93.4982 273.257 93.5468 273.46 93.6056V94.4192C273.257 94.4 273.039 94.3858 272.807 94.3756C272.584 94.3564 272.366 94.3463 272.152 94.3463C271.794 94.3463 271.518 94.405 271.324 94.5205C271.14 94.6371 271.009 94.8113 270.931 95.0444C270.864 95.2764 270.83 95.5672 270.83 95.9168V96.8034H275.423V97.7477H270.83V104.565H269.681ZM274.871 104.565V96.8034H276.019V104.565H274.871ZM275.045 95.4223C274.89 95.4223 274.812 95.3443 274.812 95.1893V94.0555C274.812 93.9004 274.89 93.8234 275.045 93.8234H275.874C275.941 93.8234 275.99 93.8477 276.019 93.8964C276.057 93.9349 276.077 93.9876 276.077 94.0555V95.1893C276.077 95.3443 276.009 95.4223 275.874 95.4223H275.045ZM281.052 104.652C280.616 104.652 280.209 104.594 279.831 104.478C279.453 104.361 279.124 104.158 278.843 103.867C278.561 103.577 278.343 103.175 278.188 102.661C278.033 102.147 277.956 101.493 277.956 100.698C277.956 99.8938 278.028 99.2352 278.174 98.7215C278.319 98.1986 278.528 97.7913 278.799 97.5005C279.07 97.2097 279.4 97.006 279.787 96.8905C280.175 96.774 280.606 96.7162 281.081 96.7162C281.468 96.7162 281.89 96.7355 282.346 96.774C282.801 96.8034 283.237 96.851 283.654 96.9189V97.6028H281.386C280.892 97.6028 280.475 97.6849 280.136 97.8491C279.797 98.0142 279.54 98.3243 279.366 98.7802C279.191 99.225 279.104 99.8745 279.104 100.728C279.104 101.551 279.196 102.181 279.38 102.617C279.564 103.053 279.826 103.354 280.165 103.518C280.505 103.673 280.916 103.751 281.4 103.751H283.77V104.42C283.547 104.458 283.286 104.497 282.985 104.535C282.694 104.575 282.384 104.603 282.055 104.623C281.726 104.643 281.391 104.652 281.052 104.652ZM145.772 116.7C145.617 116.7 145.539 116.622 145.539 116.467V115.334C145.539 115.179 145.617 115.102 145.772 115.102H146.586C146.663 115.102 146.717 115.126 146.746 115.175C146.784 115.213 146.804 115.266 146.804 115.334V116.467C146.804 116.622 146.731 116.7 146.586 116.7H145.772ZM145.597 125.843V118.082H146.746V125.843H145.597ZM148.962 125.843V118.082H149.863L150.11 118.939C150.478 118.677 150.909 118.449 151.404 118.256C151.897 118.052 152.411 117.951 152.944 117.951C153.515 117.951 153.976 118.071 154.325 118.314C154.674 118.556 154.931 118.876 155.095 119.273C155.26 119.67 155.342 120.102 155.342 120.567V125.843H154.194V120.698C154.194 120.368 154.126 120.078 153.991 119.825C153.865 119.564 153.681 119.36 153.438 119.215C153.205 119.069 152.915 118.996 152.566 118.996C152.247 118.996 151.946 119.031 151.665 119.099C151.394 119.157 151.132 119.244 150.88 119.36C150.638 119.467 150.382 119.597 150.11 119.752V125.843H148.962ZM157.681 116.7C157.526 116.7 157.449 116.622 157.449 116.467V115.334C157.449 115.179 157.526 115.102 157.681 115.102H158.496C158.573 115.102 158.626 115.126 158.655 115.175C158.694 115.213 158.713 115.266 158.713 115.334V116.467C158.713 116.622 158.64 116.7 158.496 116.7H157.681ZM157.507 125.843V118.082H158.655V125.843H157.507ZM163.443 125.843C162.94 125.843 162.523 125.761 162.194 125.596C161.864 125.432 161.621 125.165 161.466 124.796C161.311 124.429 161.239 123.939 161.249 123.328L161.292 119.026H160.057V118.284L161.307 118.082L161.496 115.915H162.382V118.082H164.621V119.026H162.382V123.328C162.382 123.668 162.417 123.939 162.484 124.143C162.562 124.345 162.659 124.5 162.775 124.608C162.901 124.714 163.032 124.791 163.168 124.84C163.303 124.878 163.434 124.903 163.56 124.913L164.504 125V125.843H163.443ZM166.383 116.7C166.228 116.7 166.15 116.622 166.15 116.467V115.334C166.15 115.179 166.228 115.102 166.383 115.102H167.196C167.274 115.102 167.327 115.126 167.356 115.175C167.395 115.213 167.414 115.266 167.414 115.334V116.467C167.414 116.622 167.342 116.7 167.196 116.7H166.383ZM166.208 125.843V118.082H167.356V125.843H166.208ZM171.084 125.93C170.512 125.93 170.043 125.761 169.674 125.421C169.306 125.082 169.121 124.603 169.121 123.983V123.43C169.121 122.819 169.32 122.325 169.717 121.947C170.125 121.569 170.735 121.381 171.549 121.381H174.18V120.421C174.18 120.102 174.122 119.83 174.005 119.607C173.899 119.374 173.7 119.195 173.41 119.069C173.129 118.944 172.716 118.881 172.174 118.881H169.761V118.197C170.1 118.139 170.492 118.086 170.938 118.038C171.394 117.989 171.927 117.965 172.537 117.965C173.167 117.955 173.69 118.033 174.107 118.197C174.524 118.362 174.829 118.624 175.023 118.982C175.226 119.331 175.328 119.792 175.328 120.363V125.843H174.441L174.223 124.956C174.185 124.995 174.063 125.063 173.86 125.16C173.666 125.256 173.415 125.368 173.105 125.494C172.804 125.61 172.474 125.712 172.116 125.799C171.767 125.887 171.423 125.93 171.084 125.93ZM171.563 125.073C171.738 125.082 171.936 125.063 172.159 125.014C172.382 124.967 172.61 124.913 172.842 124.855C173.075 124.787 173.288 124.719 173.482 124.651C173.685 124.584 173.85 124.525 173.976 124.477C174.103 124.429 174.17 124.404 174.18 124.404V121.962L171.811 122.064C171.258 122.083 170.861 122.219 170.619 122.471C170.386 122.723 170.269 123.047 170.269 123.445V123.793C170.269 124.103 170.332 124.356 170.459 124.549C170.595 124.734 170.759 124.864 170.953 124.942C171.156 125.019 171.36 125.063 171.563 125.073ZM180.066 125.843C179.562 125.843 179.145 125.761 178.815 125.596C178.486 125.432 178.244 125.165 178.089 124.796C177.934 124.429 177.861 123.939 177.871 123.328L177.914 119.026H176.678V118.284L177.929 118.082L178.118 115.915H179.005V118.082H181.243V119.026H179.005V123.328C179.005 123.668 179.038 123.939 179.106 124.143C179.184 124.345 179.28 124.5 179.397 124.608C179.522 124.714 179.653 124.791 179.789 124.84C179.925 124.878 180.055 124.903 180.182 124.913L181.126 125V125.843H180.066ZM183.004 116.7C182.849 116.7 182.772 116.622 182.772 116.467V115.334C182.772 115.179 182.849 115.102 183.004 115.102H183.819C183.896 115.102 183.949 115.126 183.978 115.175C184.017 115.213 184.036 115.266 184.036 115.334V116.467C184.036 116.622 183.964 116.7 183.819 116.7H183.004ZM182.83 125.843V118.082H183.978V125.843H182.83ZM188.287 125.843L185.366 118.082H186.543L188.956 124.767L191.441 118.082H192.604L189.595 125.843H188.287ZM196.669 125.93C195.854 125.93 195.21 125.81 194.735 125.566C194.27 125.324 193.936 124.913 193.732 124.331C193.529 123.75 193.427 122.955 193.427 121.947C193.427 120.921 193.529 120.121 193.732 119.549C193.945 118.968 194.289 118.561 194.764 118.328C195.239 118.096 195.878 117.979 196.683 117.979C197.371 117.979 197.928 118.057 198.355 118.212C198.79 118.367 199.111 118.634 199.313 119.012C199.527 119.38 199.633 119.893 199.633 120.552C199.633 121.008 199.541 121.376 199.357 121.657C199.182 121.928 198.926 122.126 198.587 122.253C198.257 122.369 197.865 122.427 197.409 122.427H194.575C194.584 123.057 194.652 123.566 194.779 123.953C194.905 124.331 195.133 124.608 195.462 124.782C195.801 124.946 196.295 125.029 196.944 125.029H199.445V125.726C198.999 125.785 198.562 125.833 198.136 125.872C197.71 125.911 197.221 125.93 196.669 125.93ZM194.561 121.671H197.322C197.758 121.671 198.078 121.593 198.282 121.438C198.494 121.274 198.602 120.983 198.602 120.567C198.602 120.121 198.534 119.777 198.398 119.535C198.272 119.282 198.069 119.108 197.787 119.012C197.516 118.905 197.148 118.852 196.683 118.852C196.14 118.852 195.714 118.934 195.404 119.099C195.094 119.254 194.875 119.535 194.75 119.942C194.624 120.348 194.561 120.926 194.561 121.671ZM204.242 125.93C204.047 125.93 203.81 125.925 203.529 125.916C203.248 125.906 202.953 125.892 202.643 125.872C202.342 125.853 202.066 125.833 201.814 125.814C201.572 125.785 201.382 125.756 201.247 125.726V125.029H204.43C204.75 125.029 205.026 125.005 205.259 124.956C205.491 124.908 205.67 124.801 205.797 124.636C205.933 124.472 206 124.225 206 123.896V123.546C206 123.208 205.889 122.946 205.666 122.762C205.443 122.568 205.085 122.471 204.59 122.471H203.5C203.045 122.471 202.638 122.413 202.279 122.297C201.93 122.18 201.659 121.982 201.465 121.701C201.271 121.419 201.174 121.032 201.174 120.538V120.13C201.174 119.646 201.267 119.249 201.45 118.939C201.645 118.629 201.939 118.396 202.337 118.241C202.744 118.086 203.268 118.009 203.907 118.009C204.179 118.009 204.489 118.018 204.837 118.038C205.196 118.057 205.545 118.086 205.884 118.125C206.223 118.153 206.499 118.188 206.712 118.226V118.925H203.718C203.224 118.925 202.841 119.007 202.57 119.172C202.308 119.336 202.178 119.656 202.178 120.13V120.451C202.178 120.75 202.24 120.978 202.366 121.133C202.492 121.279 202.667 121.376 202.89 121.424C203.122 121.473 203.388 121.497 203.689 121.497H204.794C205.501 121.497 206.048 121.661 206.436 121.991C206.823 122.321 207.018 122.795 207.018 123.415V123.953C207.018 124.477 206.896 124.883 206.654 125.174C206.421 125.455 206.097 125.655 205.68 125.77C205.273 125.876 204.794 125.93 204.242 125.93ZM208.863 125.857C208.708 125.857 208.631 125.78 208.631 125.625V124.462C208.631 124.307 208.708 124.23 208.863 124.23H209.503C209.658 124.23 209.735 124.307 209.735 124.462V125.625C209.735 125.702 209.711 125.761 209.662 125.799C209.624 125.838 209.571 125.857 209.503 125.857H208.863Z" fill="white"/>
<circle cx="267.5" cy="182.5" r="47.5" fill="white" fill-opacity="0.2"/>
</g>
</g>
<defs>
<filter id="filter0_d_1499_9379" x="0.308651" y="-14.8947" width="355.152" height="214.53" filterUnits="userSpaceOnUse" color-interpolation-filters="sRGB">
<feFlood flood-opacity="0" result="BackgroundImageFix"/>
<feColorMatrix in="SourceAlpha" type="matrix" values="0 0 0 0 0 0 0 0 0 0 0 0 0 0 0 0 0 0 127 0" result="hardAlpha"/>
<feOffset dy="4.05298"/>
<feGaussianBlur stdDeviation="9.47385"/>
<feComposite in2="hardAlpha" operator="out"/>
<feColorMatrix type="matrix" values="0 0 0 0 0 0 0 0 0 0 0 0 0 0 0 0 0 0 0.25 0"/>
<feBlend mode="normal" in2="BackgroundImageFix" result="effect1_dropShadow_1499_9379"/>
<feBlend mode="normal" in="SourceGraphic" in2="effect1_dropShadow_1499_9379" result="shape"/>
</filter>
<linearGradient id="paint0_linear_1499_9379" x1="177.885" y1="0" x2="177.885" y2="176.635" gradientUnits="userSpaceOnUse">
<stop stop-color="#7030A0"/>
<stop offset="1" stop-color="#B53784"/>
</linearGradient>
<clipPath id="clip0_1499_9379">
<rect x="19.2563" width="317.256" height="176.635" rx="16" fill="white"/>
</clipPath>
</defs>
</svg>
