<svg width="628" height="106" viewBox="0 0 628 106" fill="none" xmlns="http://www.w3.org/2000/svg">
<mask id="path-1-outside-1_1715_2232" maskUnits="userSpaceOnUse" x="0" y="0" width="628" height="106" fill="black">
<rect fill="white" width="628" height="106"/>
<path d="M2.79219 102V3.98573H38.5347C46.9422 3.98573 54.217 5.4015 60.3592 8.23302C66.545 11.021 71.2933 15.0069 74.604 20.1908C77.9582 25.3311 79.6354 31.4515 79.6354 38.5521C79.6354 45.6527 77.9582 51.8167 74.604 57.0441C71.2933 62.228 66.5886 66.2357 60.4899 69.0672C54.3913 71.8987 47.1818 73.3145 38.8614 73.3145H28.668V102H2.79219ZM28.668 50.7712H35.9864C41.5623 50.7712 45.8096 49.7257 48.7282 47.6348C51.6904 45.5438 53.1715 42.5162 53.1715 38.5521C53.1715 34.6751 51.6904 31.7129 48.7282 29.6655C45.766 27.5745 41.5187 26.529 35.9864 26.529H28.668V50.7712ZM179.479 102H150.859L132.171 69.5899H118.58V102H92.7039V3.98573H134.131C142.626 3.98573 149.857 5.27081 155.825 7.84096C161.793 10.4111 166.345 14.1574 169.482 19.0799C172.662 23.9589 174.252 29.8615 174.252 36.7878C174.252 43.2786 172.858 48.8763 170.07 53.581C167.282 58.2856 163.252 61.9884 157.981 64.6892L179.479 102ZM118.58 49.6604H132.106C137.29 49.6604 141.188 48.702 143.802 46.7853C146.459 44.825 147.788 41.9281 147.788 38.0947C147.788 34.2613 146.459 31.3862 143.802 29.4694C141.188 27.5092 137.29 26.529 132.106 26.529H118.58V49.6604ZM236.72 103.96C229.227 103.96 222.301 102.697 215.941 100.17C209.624 97.6002 204.113 94.0282 199.409 89.4542C194.748 84.8366 191.132 79.4349 188.562 73.2491C185.992 67.0634 184.707 60.3113 184.707 52.9929C184.707 45.6745 185.992 38.9224 188.562 32.7366C191.132 26.5508 194.748 21.1709 199.409 16.5969C204.113 11.9793 209.624 8.40727 215.941 5.88068C222.301 3.31053 229.227 2.02545 236.72 2.02545C244.256 2.02545 251.182 3.31053 257.499 5.88068C263.815 8.40727 269.282 11.9793 273.9 16.5969C278.561 21.1709 282.176 26.5508 284.747 32.7366C287.317 38.9224 288.602 45.6745 288.602 52.9929C288.602 60.3113 287.317 67.0634 284.747 73.2491C282.176 79.4349 278.561 84.8366 273.9 89.4542C269.282 94.0282 263.815 97.6002 257.499 100.17C251.182 102.697 244.256 103.96 236.72 103.96ZM236.72 81.417C240.335 81.417 243.689 80.6982 246.782 79.2607C249.875 77.8231 252.554 75.8193 254.82 73.2491C257.128 70.6354 258.914 67.6079 260.178 64.1665C261.485 60.7251 262.138 57.0006 262.138 52.9929C262.138 48.9852 261.485 45.2606 260.178 41.8192C258.914 38.3779 257.128 35.3721 254.82 32.8019C252.554 30.1882 249.875 28.1626 246.782 26.725C243.689 25.2875 240.335 24.5687 236.72 24.5687C233.104 24.5687 229.728 25.2875 226.591 26.725C223.499 28.1626 220.798 30.1882 218.489 32.8019C216.18 35.3721 214.372 38.3779 213.065 41.8192C211.802 45.2606 211.171 48.9852 211.171 52.9929C211.171 57.0006 211.802 60.7251 213.065 64.1665C214.372 67.6079 216.18 70.6354 218.489 73.2491C220.798 75.8193 223.499 77.8231 226.591 79.2607C229.728 80.6982 233.104 81.417 236.72 81.417ZM385.375 89.8462C380.757 94.2895 375.29 97.7527 368.973 100.236C362.701 102.719 355.861 103.96 348.456 103.96C341.007 103.96 334.102 102.697 327.742 100.17C321.426 97.6002 315.915 94.0282 311.21 89.4542C306.549 84.8366 302.912 79.4349 300.298 73.2491C297.728 67.0634 296.443 60.3113 296.443 52.9929C296.443 45.6745 297.728 38.9224 300.298 32.7366C302.912 26.5508 306.549 21.1709 311.21 16.5969C315.915 11.9793 321.426 8.40727 327.742 5.88068C334.102 3.31053 341.007 2.02545 348.456 2.02545C355.818 2.02545 362.613 3.28874 368.843 5.81533C375.116 8.29836 380.561 11.7615 385.179 16.2048L367.144 34.3702C364.879 31.3208 362.091 28.9249 358.78 27.1824C355.513 25.44 351.941 24.5687 348.064 24.5687C344.492 24.5687 341.181 25.2875 338.132 26.725C335.082 28.1626 332.403 30.1664 330.095 32.7366C327.829 35.3067 326.065 38.3125 324.802 41.7539C323.538 45.1953 322.907 48.9198 322.907 52.9275C322.907 56.9788 323.538 60.7251 324.802 64.1665C326.065 67.6079 327.829 70.6354 330.095 73.2491C332.403 75.8193 335.082 77.8231 338.132 79.2607C341.181 80.6982 344.492 81.417 348.064 81.417C351.941 81.417 355.513 80.5458 358.78 78.8033C362.047 77.0608 364.813 74.6649 367.079 71.6156L385.375 89.8462ZM395.241 102V3.98573H460.584V26.529H421.117V41.6886H457.97V64.2318H421.117V79.4567H461.238V102H395.241ZM468.425 90.761L480.579 71.0275C483.759 73.5105 486.721 75.5361 489.466 77.1044C492.254 78.6726 494.954 79.827 497.568 80.5675C500.225 81.2645 502.926 81.613 505.671 81.613C508.372 81.613 510.68 81.3081 512.597 80.6982C514.514 80.0448 515.973 79.13 516.975 77.9538C518.02 76.7341 518.543 75.2966 518.543 73.6412C518.543 71.5502 517.803 69.7642 516.322 68.2831C514.84 66.802 512.858 65.4734 510.375 64.2972C507.936 63.121 505.257 61.9448 502.338 60.7687C499.202 59.5054 496 58.1114 492.733 56.5867C489.466 55.0185 486.46 53.1236 483.715 50.9019C480.971 48.6802 478.749 45.9794 477.051 42.7994C475.352 39.5758 474.502 35.6552 474.502 31.0377C474.502 24.939 476.027 19.7334 479.076 15.4207C482.169 11.0645 486.373 7.75384 491.687 5.48862C497.045 3.17984 503.101 2.02545 509.853 2.02545C514.775 2.02545 519.981 2.67888 525.47 3.98573C530.958 5.29259 536.512 7.34 542.132 10.128L532.069 30.907C528.933 28.9903 525.491 27.4656 521.745 26.333C518.042 25.1568 514.644 24.5687 511.552 24.5687C509.417 24.5687 507.544 24.8519 505.932 25.4182C504.364 25.9845 503.144 26.8122 502.273 27.9012C501.402 28.9467 500.966 30.1882 500.966 31.6258C500.966 33.5425 501.707 35.2414 503.188 36.7225C504.669 38.16 506.629 39.4887 509.068 40.7084C511.508 41.9281 514.165 43.1697 517.04 44.433C520.177 45.7834 523.379 47.2863 526.646 48.9416C529.956 50.597 532.984 52.5572 535.728 54.8225C538.516 57.0877 540.76 59.8103 542.459 62.9903C544.158 66.1268 545.007 69.8949 545.007 74.2946C545.007 80.1755 543.395 85.3594 540.172 89.8462C536.992 94.2895 532.527 97.7527 526.776 100.236C521.07 102.719 514.427 103.96 506.847 103.96C499.79 103.96 492.994 102.828 486.46 100.562C479.926 98.2972 473.914 95.0301 468.425 90.761ZM548.928 90.761L561.081 71.0275C564.261 73.5105 567.224 75.5361 569.968 77.1044C572.756 78.6726 575.457 79.827 578.071 80.5675C580.728 81.2645 583.429 81.613 586.173 81.613C588.874 81.613 591.183 81.3081 593.099 80.6982C595.016 80.0448 596.476 79.13 597.477 77.9538C598.523 76.7341 599.046 75.2966 599.046 73.6412C599.046 71.5502 598.305 69.7642 596.824 68.2831C595.343 66.802 593.361 65.4734 590.878 64.2972C588.438 63.121 585.759 61.9448 582.841 60.7687C579.704 59.5054 576.502 58.1114 573.235 56.5867C569.968 55.0185 566.962 53.1236 564.218 50.9019C561.474 48.6802 559.252 45.9794 557.553 42.7994C555.854 39.5758 555.005 35.6552 555.005 31.0377C555.005 24.939 556.529 19.7334 559.579 15.4207C562.671 11.0645 566.875 7.75384 572.19 5.48862C577.548 3.17984 583.603 2.02545 590.355 2.02545C595.278 2.02545 600.483 2.67888 605.972 3.98573C611.461 5.29259 617.015 7.34 622.634 10.128L612.572 30.907C609.435 28.9903 605.994 27.4656 602.247 26.333C598.545 25.1568 595.147 24.5687 592.054 24.5687C589.919 24.5687 588.046 24.8519 586.434 25.4182C584.866 25.9845 583.647 26.8122 582.775 27.9012C581.904 28.9467 581.468 30.1882 581.468 31.6258C581.468 33.5425 582.209 35.2414 583.69 36.7225C585.171 38.16 587.131 39.4887 589.571 40.7084C592.01 41.9281 594.668 43.1697 597.543 44.433C600.679 45.7834 603.881 47.2863 607.148 48.9416C610.459 50.597 613.486 52.5572 616.231 54.8225C619.019 57.0877 621.262 59.8103 622.961 62.9903C624.66 66.1268 625.51 69.8949 625.51 74.2946C625.51 80.1755 623.898 85.3594 620.674 89.8462C617.494 94.2895 613.029 97.7527 607.279 100.236C601.572 102.719 594.929 103.96 587.349 103.96C580.292 103.96 573.497 102.828 566.962 100.562C560.428 98.2972 554.416 95.0301 548.928 90.761Z"/>
</mask>
<path d="M2.79219 102H0.792188V104H2.79219V102ZM2.79219 3.98573V1.98573H0.792188V3.98573H2.79219ZM60.3592 8.23302L59.5219 10.0493L59.5297 10.0529L59.5374 10.0564L60.3592 8.23302ZM74.604 20.1908L72.9184 21.2673L72.9237 21.2755L72.929 21.2837L74.604 20.1908ZM74.604 57.0441L72.9207 55.964L72.9184 55.9676L74.604 57.0441ZM60.4899 69.0672L61.3321 70.8812L60.4899 69.0672ZM28.668 73.3145V71.3145H26.668V73.3145H28.668ZM28.668 102V104H30.668V102H28.668ZM28.668 50.7712H26.668V52.7712H28.668V50.7712ZM48.7282 47.6348L47.5748 46.0008L47.5634 46.0089L48.7282 47.6348ZM48.7282 29.6655L47.5748 31.2994L47.5829 31.3051L47.591 31.3107L48.7282 29.6655ZM28.668 26.529V24.529H26.668V26.529H28.668ZM4.79219 102V3.98573H0.792188V102H4.79219ZM2.79219 5.98573H38.5347V1.98573H2.79219V5.98573ZM38.5347 5.98573C46.7215 5.98573 53.698 7.36452 59.5219 10.0493L61.1965 6.41672C54.736 3.43848 47.1629 1.98573 38.5347 1.98573V5.98573ZM59.5374 10.0564C65.4068 12.7017 69.8383 16.4444 72.9184 21.2673L76.2895 19.1143C72.7483 13.5694 67.6833 9.34024 61.181 6.40966L59.5374 10.0564ZM72.929 21.2837C76.0395 26.0504 77.6354 31.7773 77.6354 38.5521H81.6354C81.6354 31.1257 79.877 24.6117 76.2789 19.0978L72.929 21.2837ZM77.6354 38.5521C77.6354 45.326 76.0397 51.1032 72.9207 55.964L76.2872 58.1242C79.8767 52.5302 81.6354 45.9794 81.6354 38.5521H77.6354ZM72.9184 55.9676C69.8318 60.8006 65.4342 64.5666 59.6477 67.2532L61.3321 70.8812C67.743 67.9048 72.7547 63.6554 76.2895 58.1206L72.9184 55.9676ZM59.6477 67.2532C53.8679 69.9367 46.9582 71.3145 38.8614 71.3145V75.3145C47.4053 75.3145 54.9147 73.8608 61.3321 70.8812L59.6477 67.2532ZM38.8614 71.3145H28.668V75.3145H38.8614V71.3145ZM26.668 73.3145V102H30.668V73.3145H26.668ZM28.668 100H2.79219V104H28.668V100ZM28.668 52.7712H35.9864V48.7712H28.668V52.7712ZM35.9864 52.7712C41.7646 52.7712 46.4937 51.6959 49.893 49.2606L47.5634 46.0089C45.1254 47.7556 41.3599 48.7712 35.9864 48.7712V52.7712ZM49.8816 49.2687C53.4301 46.7639 55.1715 43.0952 55.1715 38.5521H51.1715C51.1715 41.9373 49.9508 44.3237 47.5748 46.0008L49.8816 49.2687ZM55.1715 38.5521C55.1715 34.0776 53.415 30.4736 49.8654 28.0202L47.591 31.3107C49.9659 32.9521 51.1715 35.2726 51.1715 38.5521H55.1715ZM49.8816 28.0315C46.4469 25.6071 41.7281 24.529 35.9864 24.529V28.529C41.3093 28.529 45.0851 29.5419 47.5748 31.2994L49.8816 28.0315ZM35.9864 24.529H28.668V28.529H35.9864V24.529ZM26.668 26.529V50.7712H30.668V26.529H26.668ZM179.479 102V104H182.94L181.212 101.002L179.479 102ZM150.859 102L149.126 102.999L149.704 104H150.859V102ZM132.171 69.5899L133.904 68.5909L133.326 67.5899H132.171V69.5899ZM118.58 69.5899V67.5899H116.58V69.5899H118.58ZM118.58 102V104H120.58V102H118.58ZM92.7039 102H90.7039V104H92.7039V102ZM92.7039 3.98573V1.98573H90.7039V3.98573H92.7039ZM155.825 7.84096L156.616 6.00406L155.825 7.84096ZM169.482 19.0799L167.795 20.1546L167.801 20.1634L167.806 20.172L169.482 19.0799ZM157.981 64.6892L157.069 62.9093L155.2 63.8674L156.249 65.6877L157.981 64.6892ZM118.58 49.6604H116.58V51.6604H118.58V49.6604ZM143.802 46.7853L144.985 48.3981L144.989 48.3947L143.802 46.7853ZM143.802 29.4694L142.602 31.0694L142.617 31.0806L142.632 31.0915L143.802 29.4694ZM118.58 26.529V24.529H116.58V26.529H118.58ZM179.479 100H150.859V104H179.479V100ZM152.592 101.001L133.904 68.5909L130.438 70.589L149.126 102.999L152.592 101.001ZM132.171 67.5899H118.58V71.5899H132.171V67.5899ZM116.58 69.5899V102H120.58V69.5899H116.58ZM118.58 100H92.7039V104H118.58V100ZM94.7039 102V3.98573H90.7039V102H94.7039ZM92.7039 5.98573H134.131V1.98573H92.7039V5.98573ZM134.131 5.98573C142.434 5.98573 149.38 7.2429 155.034 9.67786L156.616 6.00406C150.334 3.29872 142.818 1.98573 134.131 1.98573V5.98573ZM155.034 9.67786C160.677 12.1081 164.898 15.608 167.795 20.1546L171.168 18.0052C167.793 12.7069 162.909 8.7141 156.616 6.00406L155.034 9.67786ZM167.806 20.172C170.737 24.6688 172.252 30.1747 172.252 36.7878H176.252C176.252 29.5483 174.586 23.2489 171.157 17.9879L167.806 20.172ZM172.252 36.7878C172.252 42.9873 170.923 48.2186 168.349 52.5613L171.79 54.6006C174.793 49.5339 176.252 43.5698 176.252 36.7878H172.252ZM168.349 52.5613C165.77 56.9144 162.034 60.3657 157.069 62.9093L158.893 66.4692C164.471 63.6111 168.794 59.6568 171.79 54.6006L168.349 52.5613ZM156.249 65.6877L177.746 102.998L181.212 101.002L159.714 63.6908L156.249 65.6877ZM118.58 51.6604H132.106V47.6604H118.58V51.6604ZM132.106 51.6604C137.479 51.6604 141.877 50.6769 144.985 48.3981L142.619 45.1725C140.499 46.7271 137.1 47.6604 132.106 47.6604V51.6604ZM144.989 48.3947C148.245 45.9933 149.788 42.4468 149.788 38.0947H145.788C145.788 41.4095 144.674 43.6567 142.615 45.1758L144.989 48.3947ZM149.788 38.0947C149.788 33.7433 148.244 30.2075 144.972 27.8474L142.632 31.0915C144.675 32.5648 145.788 34.7792 145.788 38.0947H149.788ZM145.002 27.8694C141.892 25.5368 137.486 24.529 132.106 24.529V28.529C137.093 28.529 140.485 29.4815 142.602 31.0694L145.002 27.8694ZM132.106 24.529H118.58V28.529H132.106V24.529ZM116.58 26.529V49.6604H120.58V26.529H116.58ZM215.941 100.17L215.187 102.023L215.194 102.026L215.202 102.029L215.941 100.17ZM199.409 89.4542L198.001 90.875L198.008 90.8816L198.015 90.8882L199.409 89.4542ZM199.409 16.5969L200.81 18.0244L200.81 18.0243L199.409 16.5969ZM215.941 5.88068L216.683 7.73764L216.69 7.73499L215.941 5.88068ZM257.499 5.88068L256.745 7.73322L256.756 7.73763L257.499 5.88068ZM273.9 16.5969L272.485 18.0111L272.492 18.0178L272.499 18.0244L273.9 16.5969ZM284.747 32.7366L282.9 33.504L284.747 32.7366ZM284.747 73.2491L282.9 72.4818L284.747 73.2491ZM273.9 89.4542L275.307 90.8751L275.307 90.875L273.9 89.4542ZM257.499 100.17L258.241 102.027L258.252 102.023L257.499 100.17ZM246.782 79.2607L247.625 81.0744L246.782 79.2607ZM254.82 73.2491L253.321 71.9251L253.319 71.9267L254.82 73.2491ZM260.178 64.1665L258.308 63.4565L258.304 63.4669L258.3 63.4773L260.178 64.1665ZM260.178 41.8192L258.3 42.5084L258.304 42.5189L258.308 42.5293L260.178 41.8192ZM254.82 32.8019L253.308 34.1118L253.32 34.1252L253.332 34.1385L254.82 32.8019ZM246.782 26.725L247.625 24.9114L246.782 26.725ZM226.591 26.725L225.758 24.9069L225.748 24.9114L226.591 26.725ZM218.489 32.8019L219.977 34.1385L219.982 34.1323L219.988 34.126L218.489 32.8019ZM213.065 41.8192L211.196 41.1092L211.192 41.1196L211.188 41.13L213.065 41.8192ZM213.065 64.1665L211.188 64.8557L211.192 64.8661L211.196 64.8765L213.065 64.1665ZM218.489 73.2491L216.99 74.5732L216.996 74.5795L217.001 74.5857L218.489 73.2491ZM226.591 79.2607L225.748 81.0744L225.758 81.0788L226.591 79.2607ZM236.72 101.96C229.456 101.96 222.783 100.736 216.679 98.3117L215.202 102.029C221.819 104.658 228.998 105.96 236.72 105.96V101.96ZM216.694 98.3179C210.607 95.8409 205.316 92.4077 200.803 88.0202L198.015 90.8882C202.911 95.6486 208.641 99.3596 215.187 102.023L216.694 98.3179ZM200.816 88.0333C196.348 83.6063 192.879 78.428 190.409 72.4818L186.715 74.0165C189.385 80.4419 193.148 86.0669 198.001 90.875L200.816 88.0333ZM190.409 72.4818C187.949 66.5609 186.707 60.0724 186.707 52.9929H182.707C182.707 60.5501 184.035 67.5659 186.715 74.0165L190.409 72.4818ZM186.707 52.9929C186.707 45.9133 187.949 39.4249 190.409 33.504L186.715 31.9692C184.035 38.4199 182.707 45.4356 182.707 52.9929H186.707ZM190.409 33.504C192.879 27.5594 196.345 22.4056 200.81 18.0244L198.008 15.1694C193.15 19.9362 189.385 25.5422 186.715 31.9692L190.409 33.504ZM200.81 18.0243C205.32 13.598 210.604 10.1692 216.683 7.73763L215.198 4.02372C208.644 6.64536 202.907 10.3607 198.008 15.1695L200.81 18.0243ZM216.69 7.73499C222.791 5.2696 229.46 4.02545 236.72 4.02545V0.0254494C228.994 0.0254494 221.81 1.35145 215.191 4.02636L216.69 7.73499ZM236.72 4.02545C244.025 4.02545 250.692 5.2702 256.745 7.73319L258.252 4.02816C251.673 1.35085 244.487 0.0254494 236.72 0.0254494V4.02545ZM256.756 7.73763C262.832 10.1679 268.067 13.5931 272.485 18.0111L275.314 15.1827C270.497 10.3656 264.799 6.64662 258.241 4.02372L256.756 7.73763ZM272.499 18.0244C276.964 22.4056 280.43 27.5594 282.9 33.504L286.593 31.9692C283.923 25.5422 280.158 19.9362 275.3 15.1694L272.499 18.0244ZM282.9 33.504C285.36 39.4249 286.602 45.9133 286.602 52.9929H290.602C290.602 45.4356 289.274 38.4199 286.593 31.9692L282.9 33.504ZM286.602 52.9929C286.602 60.0724 285.36 66.5609 282.9 72.4818L286.593 74.0165C289.274 67.5659 290.602 60.5501 290.602 52.9929H286.602ZM282.9 72.4818C280.429 78.428 276.961 83.6063 272.492 88.0333L275.307 90.875C280.161 86.0669 283.924 80.4419 286.593 74.0165L282.9 72.4818ZM272.492 88.0333C268.071 92.4126 262.829 95.8421 256.745 98.3179L258.252 102.023C264.801 99.3584 270.493 95.6437 275.307 90.8751L272.492 88.0333ZM256.756 98.3134C250.7 100.736 244.029 101.96 236.72 101.96V105.96C244.483 105.96 251.664 104.658 258.241 102.027L256.756 98.3134ZM236.72 83.417C240.609 83.417 244.253 82.642 247.625 81.0744L245.939 77.447C243.126 78.7545 240.062 79.417 236.72 79.417V83.417ZM247.625 81.0744C250.97 79.5197 253.873 77.3482 256.32 74.5716L253.319 71.9267C251.236 74.2904 248.78 76.1266 245.939 77.447L247.625 81.0744ZM256.318 74.5732C258.8 71.7638 260.711 68.5183 262.055 64.8557L258.3 63.4773C257.118 66.6975 255.457 69.5071 253.321 71.9251L256.318 74.5732ZM262.047 64.8765C263.448 61.189 264.138 57.2216 264.138 52.9929H260.138C260.138 56.7795 259.521 60.2612 258.308 63.4565L262.047 64.8765ZM264.138 52.9929C264.138 48.7641 263.448 44.7968 262.047 41.1092L258.308 42.5293C259.521 45.7245 260.138 49.2062 260.138 52.9929H264.138ZM262.055 41.13C260.71 37.4648 258.796 34.236 256.307 31.4654L253.332 34.1385C255.46 36.5082 257.119 39.2909 258.3 42.5084L262.055 41.13ZM256.331 31.4921C253.884 28.6683 250.978 26.4695 247.625 24.9114L245.939 28.5387C248.773 29.8556 251.225 31.7082 253.308 34.1118L256.331 31.4921ZM247.625 24.9114C244.253 23.3438 240.609 22.5687 236.72 22.5687V26.5687C240.062 26.5687 243.126 27.2312 245.939 28.5387L247.625 24.9114ZM236.72 22.5687C232.83 22.5687 229.169 23.3438 225.758 24.9069L227.425 28.5432C230.287 27.2312 233.377 26.5687 236.72 26.5687V22.5687ZM225.748 24.9114C222.4 26.4678 219.477 28.6622 216.99 31.4779L219.988 34.126C222.118 31.7142 224.597 29.8574 227.434 28.5387L225.748 24.9114ZM217.001 31.4654C214.517 34.2308 212.584 37.4525 211.196 41.1092L214.935 42.5293C216.16 39.3032 217.843 36.5134 219.977 34.1385L217.001 31.4654ZM211.188 41.13C209.836 44.8118 209.171 48.7719 209.171 52.9929H213.171C213.171 49.1984 213.768 45.7094 214.943 42.5084L211.188 41.13ZM209.171 52.9929C209.171 57.2138 209.836 61.1739 211.188 64.8557L214.943 63.4773C213.768 60.2763 213.171 56.7873 213.171 52.9929H209.171ZM211.196 64.8765C212.583 68.5306 214.513 71.769 216.99 74.5732L219.988 71.9251C217.847 69.5019 216.161 66.6852 214.935 63.4565L211.196 64.8765ZM217.001 74.5857C219.488 77.3541 222.407 79.5214 225.748 81.0744L227.434 77.447C224.59 76.1248 222.107 74.2845 219.977 71.9126L217.001 74.5857ZM225.758 81.0788C229.169 82.6419 232.83 83.417 236.72 83.417V79.417C233.377 79.417 230.287 78.7545 227.425 77.4426L225.758 81.0788ZM385.375 89.8462L386.761 91.2874L388.233 89.8712L386.786 88.4295L385.375 89.8462ZM368.973 100.236L368.242 98.3744L368.237 98.3761L368.973 100.236ZM327.742 100.17L326.988 102.023L326.996 102.026L327.004 102.029L327.742 100.17ZM311.21 89.4542L309.803 90.875L309.81 90.8816L309.816 90.8882L311.21 89.4542ZM300.298 73.2491L298.451 74.0165L298.456 74.0276L300.298 73.2491ZM300.298 32.7366L298.456 31.9581L298.451 31.9692L300.298 32.7366ZM311.21 16.5969L312.611 18.0244L312.611 18.0243L311.21 16.5969ZM327.742 5.88068L328.485 7.73764L328.492 7.73499L327.742 5.88068ZM368.843 5.81533L368.091 7.66869L368.099 7.67185L368.107 7.67495L368.843 5.81533ZM385.179 16.2048L386.598 17.6139L388.029 16.1723L386.565 14.7637L385.179 16.2048ZM367.144 34.3702L365.538 35.5628L366.925 37.4293L368.563 35.7793L367.144 34.3702ZM358.78 27.1824L357.839 28.9472L357.849 28.9523L358.78 27.1824ZM330.095 32.7366L328.607 31.4001L328.6 31.4071L328.594 31.4142L330.095 32.7366ZM324.802 41.7539L322.924 41.0647L324.802 41.7539ZM324.802 64.1665L322.924 64.8557L324.802 64.1665ZM330.095 73.2491L328.583 74.559L328.595 74.5725L328.607 74.5857L330.095 73.2491ZM367.079 71.6156L368.49 70.1988L366.852 68.5665L365.473 70.4229L367.079 71.6156ZM383.988 88.4051C379.57 92.6562 374.329 95.9814 368.242 98.3744L369.705 102.097C376.251 99.524 381.944 95.9229 386.761 91.2874L383.988 88.4051ZM368.237 98.3761C362.221 100.758 355.634 101.96 348.456 101.96V105.96C356.089 105.96 363.18 104.68 369.71 102.095L368.237 98.3761ZM348.456 101.96C341.237 101.96 334.586 100.737 328.481 98.3117L327.004 102.029C333.619 104.657 340.776 105.96 348.456 105.96V101.96ZM328.496 98.3179C322.408 95.8409 317.117 92.4077 312.605 88.0202L309.816 90.8882C314.713 95.6486 320.443 99.3596 326.988 102.023L328.496 98.3179ZM312.618 88.0333C308.147 83.6039 304.655 78.4218 302.14 72.4707L298.456 74.0276C301.169 80.448 304.952 86.0694 309.803 90.875L312.618 88.0333ZM302.145 72.4818C299.685 66.5609 298.443 60.0724 298.443 52.9929H294.443C294.443 60.5501 295.771 67.5659 298.451 74.0165L302.145 72.4818ZM298.443 52.9929C298.443 45.9133 299.685 39.4249 302.145 33.504L298.451 31.9692C295.771 38.4199 294.443 45.4356 294.443 52.9929H298.443ZM302.14 33.515C304.654 27.5656 308.144 22.408 312.611 18.0244L309.81 15.1694C304.955 19.9338 301.169 25.536 298.456 31.9582L302.14 33.515ZM312.611 18.0243C317.121 13.598 322.406 10.1692 328.485 7.73763L326.999 4.02372C320.445 6.64536 314.709 10.3607 309.809 15.1695L312.611 18.0243ZM328.492 7.73499C334.594 5.26905 341.241 4.02545 348.456 4.02545V0.0254494C340.772 0.0254494 333.611 1.35201 326.993 4.02636L328.492 7.73499ZM348.456 4.02545C355.585 4.02545 362.122 5.24779 368.091 7.66869L369.595 3.96198C363.105 1.3297 356.051 0.0254494 348.456 0.0254494V4.02545ZM368.107 7.67495C374.151 10.0673 379.372 13.3926 383.792 17.646L386.565 14.7637C381.75 10.1305 376.081 6.52943 369.579 3.95572L368.107 7.67495ZM383.759 14.7957L365.725 32.9611L368.563 35.7793L386.598 17.6139L383.759 14.7957ZM368.749 33.1775C366.308 29.8916 363.291 27.2968 359.712 25.4126L357.849 28.9523C360.89 30.5531 363.449 32.7501 365.538 35.5628L368.749 33.1775ZM359.721 25.4177C356.151 23.5134 352.253 22.5687 348.064 22.5687V26.5687C351.628 26.5687 354.875 27.3665 357.839 28.9472L359.721 25.4177ZM348.064 22.5687C344.215 22.5687 340.611 23.3453 337.279 24.916L338.985 28.5341C341.751 27.2297 344.769 26.5687 348.064 26.5687V22.5687ZM337.279 24.916C333.982 26.47 331.089 28.6367 328.607 31.4001L331.582 34.0731C333.718 31.6962 336.182 29.8552 338.985 28.5341L337.279 24.916ZM328.594 31.4142C326.154 34.1829 324.267 37.4071 322.924 41.0647L326.679 42.4431C327.863 39.2179 329.505 36.4306 331.595 34.059L328.594 31.4142ZM322.924 41.0647C321.573 44.7465 320.907 48.7066 320.907 52.9275H324.907C324.907 49.1331 325.504 45.6441 326.679 42.4431L322.924 41.0647ZM320.907 52.9275C320.907 57.1893 321.572 61.1716 322.924 64.8557L326.679 63.4773C325.505 60.2786 324.907 56.7683 324.907 52.9275H320.907ZM322.924 64.8557C324.266 68.5107 326.15 71.7515 328.583 74.559L331.606 71.9393C329.509 69.5193 327.864 66.7051 326.679 63.4773L322.924 64.8557ZM328.607 74.5857C331.089 77.349 333.982 79.5157 337.279 81.0697L338.985 77.4516C336.182 76.1306 333.718 74.2896 331.582 71.9126L328.607 74.5857ZM337.279 81.0697C340.611 82.6405 344.215 83.417 348.064 83.417V79.417C344.769 79.417 341.751 78.756 338.985 77.4516L337.279 81.0697ZM348.064 83.417C352.253 83.417 356.151 82.4723 359.721 80.568L357.839 77.0386C354.875 78.6192 351.628 79.417 348.064 79.417V83.417ZM359.721 80.568C363.256 78.6826 366.247 76.0887 368.684 72.8082L365.473 70.4229C363.38 73.2411 360.838 75.439 357.839 77.0386L359.721 80.568ZM365.667 73.0323L383.963 91.263L386.786 88.4295L368.49 70.1988L365.667 73.0323ZM395.241 102H393.241V104H395.241V102ZM395.241 3.98573V1.98573H393.241V3.98573H395.241ZM460.584 3.98573H462.584V1.98573H460.584V3.98573ZM460.584 26.529V28.529H462.584V26.529H460.584ZM421.117 26.529V24.529H419.117V26.529H421.117ZM421.117 41.6886H419.117V43.6886H421.117V41.6886ZM457.97 41.6886H459.97V39.6886H457.97V41.6886ZM457.97 64.2318V66.2318H459.97V64.2318H457.97ZM421.117 64.2318V62.2318H419.117V64.2318H421.117ZM421.117 79.4567H419.117V81.4567H421.117V79.4567ZM461.238 79.4567H463.238V77.4567H461.238V79.4567ZM461.238 102V104H463.238V102H461.238ZM397.241 102V3.98573H393.241V102H397.241ZM395.241 5.98573H460.584V1.98573H395.241V5.98573ZM458.584 3.98573V26.529H462.584V3.98573H458.584ZM460.584 24.529H421.117V28.529H460.584V24.529ZM419.117 26.529V41.6886H423.117V26.529H419.117ZM421.117 43.6886H457.97V39.6886H421.117V43.6886ZM455.97 41.6886V64.2318H459.97V41.6886H455.97ZM457.97 62.2318H421.117V66.2318H457.97V62.2318ZM419.117 64.2318V79.4567H423.117V64.2318H419.117ZM421.117 81.4567H461.238V77.4567H421.117V81.4567ZM459.238 79.4567V102H463.238V79.4567H459.238ZM461.238 100H395.241V104H461.238V100ZM468.425 90.761L466.722 89.7122L465.782 91.2389L467.197 92.3397L468.425 90.761ZM480.579 71.0275L481.81 69.4511L480.048 68.0756L478.876 69.9787L480.579 71.0275ZM489.466 77.1044L488.473 78.8409L488.485 78.8475L489.466 77.1044ZM497.568 80.5675L497.023 82.4918L497.042 82.4971L497.061 82.5021L497.568 80.5675ZM512.597 80.6982L513.203 82.6041L513.223 82.5979L513.242 82.5913L512.597 80.6982ZM516.975 77.9538L515.456 76.6522L515.452 76.6569L516.975 77.9538ZM516.322 68.2831L517.736 66.8689L516.322 68.2831ZM510.375 64.2972L509.507 66.0988L509.519 66.1047L510.375 64.2972ZM502.338 60.7687L503.086 58.9136L503.085 58.9135L502.338 60.7687ZM492.733 56.5867L491.867 58.3898L491.877 58.3945L491.887 58.3991L492.733 56.5867ZM477.051 42.7994L475.281 43.7319L475.286 43.7418L477.051 42.7994ZM479.076 15.4207L477.445 14.2629L477.443 14.2661L479.076 15.4207ZM491.687 5.48862L492.472 7.32848L492.479 7.32536L491.687 5.48862ZM542.132 10.128L543.932 10.9997L544.795 9.21676L543.021 8.33634L542.132 10.128ZM532.069 30.907L531.026 32.6135L532.908 33.7635L533.869 31.7787L532.069 30.907ZM521.745 26.333L521.14 28.2391L521.153 28.2434L521.166 28.2474L521.745 26.333ZM505.932 25.4182L505.269 23.5313L505.261 23.5341L505.253 23.5371L505.932 25.4182ZM502.273 27.9012L503.809 29.1816L503.822 29.1662L503.835 29.1506L502.273 27.9012ZM503.188 36.7225L501.773 38.1367L501.784 38.1473L501.795 38.1577L503.188 36.7225ZM517.04 44.433L516.236 46.264L516.243 46.267L516.249 46.2699L517.04 44.433ZM526.646 48.9416L525.742 50.7257L525.751 50.7305L526.646 48.9416ZM535.728 54.8225L534.455 56.3649L534.461 56.3698L534.467 56.3747L535.728 54.8225ZM542.459 62.9903L540.695 63.9328L540.7 63.9429L542.459 62.9903ZM540.172 89.8462L538.547 88.6793L538.545 88.6822L540.172 89.8462ZM526.776 100.236L525.984 98.3996L525.978 98.4018L526.776 100.236ZM470.128 91.8099L482.282 72.0763L478.876 69.9787L466.722 89.7122L470.128 91.8099ZM479.348 72.6039C482.584 75.1307 485.627 77.2142 488.473 78.8409L490.458 75.3679C487.816 73.8581 484.934 71.8904 481.81 69.4511L479.348 72.6039ZM488.485 78.8475C491.387 80.4798 494.234 81.7015 497.023 82.4918L498.113 78.6433C495.675 77.9525 493.12 76.8654 490.446 75.3612L488.485 78.8475ZM497.061 82.5021C499.883 83.2425 502.755 83.613 505.671 83.613V79.613C503.098 79.613 500.567 79.2866 498.076 78.633L497.061 82.5021ZM505.671 83.613C508.512 83.613 511.036 83.2936 513.203 82.6041L511.991 78.7924C510.324 79.3226 508.231 79.613 505.671 79.613V83.613ZM513.242 82.5913C515.397 81.8569 517.2 80.7735 518.497 79.2508L515.452 76.6569C514.746 77.4865 513.631 78.2327 511.952 78.8052L513.242 82.5913ZM518.493 79.2554C519.86 77.6613 520.543 75.7581 520.543 73.6412H516.543C516.543 74.835 516.181 75.8069 515.456 76.6523L518.493 79.2554ZM520.543 73.6412C520.543 71.0188 519.591 68.7243 517.736 66.8689L514.907 69.6973C516.014 70.8041 516.543 72.0817 516.543 73.6412H520.543ZM517.736 66.8689C516.051 65.184 513.861 63.7351 511.232 62.4897L509.519 66.1047C511.856 67.2116 513.63 68.42 514.907 69.6973L517.736 66.8689ZM511.244 62.4956C508.759 61.2975 506.039 60.1037 503.086 58.9136L501.591 62.6237C504.475 63.7859 507.113 64.9445 509.507 66.0987L511.244 62.4956ZM503.085 58.9135C499.984 57.6644 496.815 56.2849 493.579 54.7744L491.887 58.3991C495.185 59.9379 498.419 61.3463 501.591 62.6238L503.085 58.9135ZM493.598 54.7837C490.468 53.281 487.594 51.4687 484.974 49.3474L482.457 52.4564C485.326 54.7784 488.464 56.756 491.867 58.3898L493.598 54.7837ZM484.974 49.3474C482.442 47.2975 480.39 44.8063 478.815 41.857L475.286 43.7418C477.109 47.1525 479.5 50.063 482.457 52.4564L484.974 49.3474ZM478.82 41.8669C477.308 38.9975 476.502 35.4151 476.502 31.0377H472.502C472.502 35.8954 473.396 40.1542 475.281 43.7319L478.82 41.8669ZM476.502 31.0377C476.502 25.2865 477.934 20.5001 480.709 16.5754L477.443 14.2661C474.119 18.9666 472.502 24.5915 472.502 31.0377H476.502ZM480.707 16.5786C483.569 12.548 487.468 9.4611 492.472 7.32847L490.903 3.64877C485.277 6.04657 480.769 9.58111 477.445 14.2629L480.707 16.5786ZM492.479 7.32536C497.551 5.1399 503.33 4.02545 509.853 4.02545V0.0254494C502.871 0.0254494 496.54 1.21978 490.896 3.65188L492.479 7.32536ZM509.853 4.02545C514.598 4.02545 519.648 4.65548 525.006 5.93135L525.933 2.04012C520.314 0.702275 514.952 0.0254494 509.853 0.0254494V4.02545ZM525.006 5.93135C530.333 7.1995 535.744 9.19151 541.243 11.9196L543.021 8.33634C537.281 5.48849 531.584 3.38569 525.933 2.04012L525.006 5.93135ZM540.332 9.25625L530.269 30.0353L533.869 31.7787L543.932 10.9997L540.332 9.25625ZM533.112 29.2004C529.821 27.1894 526.223 25.5973 522.324 24.4186L521.166 28.2474C524.76 29.3339 528.044 30.7911 531.026 32.6135L533.112 29.2004ZM522.35 24.4268C518.5 23.2037 514.895 22.5687 511.552 22.5687V26.5687C514.394 26.5687 517.585 27.11 521.14 28.2391L522.35 24.4268ZM511.552 22.5687C509.245 22.5687 507.139 22.8741 505.269 23.5313L506.595 27.3051C507.948 26.8297 509.589 26.5687 511.552 26.5687V22.5687ZM505.253 23.5371C503.406 24.2039 501.854 25.223 500.711 26.6518L503.835 29.1506C504.434 28.4013 505.322 27.7651 506.611 27.2993L505.253 23.5371ZM500.736 26.6208C499.548 28.0471 498.966 29.7488 498.966 31.6258H502.966C502.966 30.6276 503.255 29.8463 503.809 29.1816L500.736 26.6208ZM498.966 31.6258C498.966 34.1247 499.956 36.3188 501.773 38.1367L504.602 35.3083C503.458 34.1639 502.966 32.9602 502.966 31.6258H498.966ZM501.795 38.1577C503.461 39.7754 505.607 41.2135 508.174 42.4973L509.963 38.9196C507.652 37.7639 505.876 36.5447 504.581 35.2873L501.795 38.1577ZM508.174 42.4973C510.647 43.7338 513.335 44.9893 516.236 46.264L517.845 42.6019C514.996 41.35 512.369 40.1225 509.963 38.9196L508.174 42.4973ZM516.249 46.2699C519.345 47.6028 522.509 49.0878 525.742 50.7257L527.55 47.1575C524.248 45.4847 521.009 43.964 517.831 42.596L516.249 46.2699ZM525.751 50.7305C528.932 52.321 531.832 54.1997 534.455 56.3649L537.002 53.28C534.136 50.9148 530.981 48.873 527.54 47.1528L525.751 50.7305ZM534.467 56.3747C537.048 58.4715 539.121 60.9865 540.695 63.9328L544.223 62.0479C542.399 58.6341 539.985 55.7039 536.99 53.2702L534.467 56.3747ZM540.7 63.9429C542.208 66.7261 543.007 70.1509 543.007 74.2946H547.007C547.007 69.6389 546.108 65.5274 544.217 62.0378L540.7 63.9429ZM543.007 74.2946C543.007 79.7854 541.511 84.555 538.547 88.6793L541.796 91.0132C545.28 86.1637 547.007 80.5656 547.007 74.2946H543.007ZM538.545 88.6822C535.606 92.7888 531.45 96.0392 525.984 98.3996L527.569 102.072C533.603 99.4662 538.377 95.7903 541.798 91.0102L538.545 88.6822ZM525.978 98.4018C520.572 100.754 514.21 101.96 506.847 101.96V105.96C514.643 105.96 521.567 104.683 527.574 102.07L525.978 98.4018ZM506.847 101.96C500.008 101.96 493.434 100.863 487.115 98.6728L485.805 102.452C492.554 104.792 499.571 105.96 506.847 105.96V101.96ZM487.115 98.6728C480.788 96.4796 474.97 93.3179 469.653 89.1823L467.197 92.3397C472.858 96.7423 479.063 100.115 485.805 102.452L487.115 98.6728ZM548.928 90.761L547.225 89.7122L546.284 91.2389L547.7 92.3397L548.928 90.761ZM561.081 71.0275L562.312 69.4511L560.551 68.0756L559.379 69.9787L561.081 71.0275ZM569.968 77.1044L568.976 78.8409L568.988 78.8475L569.968 77.1044ZM578.071 80.5675L577.525 82.4918L577.544 82.4971L577.563 82.5021L578.071 80.5675ZM593.099 80.6982L593.706 82.6041L593.725 82.5979L593.745 82.5913L593.099 80.6982ZM597.477 77.9538L595.959 76.6522L595.955 76.6569L597.477 77.9538ZM596.824 68.2831L598.238 66.8689L596.824 68.2831ZM590.878 64.2972L590.009 66.0988L590.022 66.1047L590.878 64.2972ZM582.841 60.7687L583.588 58.9136L583.588 58.9135L582.841 60.7687ZM573.235 56.5867L572.37 58.3898L572.38 58.3945L572.389 58.3991L573.235 56.5867ZM557.553 42.7994L555.784 43.7319L555.789 43.7418L557.553 42.7994ZM559.579 15.4207L557.948 14.2629L557.946 14.2661L559.579 15.4207ZM572.19 5.48862L572.974 7.32848L572.981 7.32536L572.19 5.48862ZM622.634 10.128L624.434 10.9997L625.298 9.21676L623.523 8.33634L622.634 10.128ZM612.572 30.907L611.529 32.6135L613.41 33.7635L614.372 31.7787L612.572 30.907ZM602.247 26.333L601.642 28.2391L601.655 28.2434L601.669 28.2474L602.247 26.333ZM586.434 25.4182L585.772 23.5313L585.763 23.5341L585.755 23.5371L586.434 25.4182ZM582.775 27.9012L584.312 29.1816L584.325 29.1662L584.337 29.1506L582.775 27.9012ZM583.69 36.7225L582.276 38.1367L582.286 38.1473L582.297 38.1577L583.69 36.7225ZM597.543 44.433L596.738 46.264L596.745 46.267L596.752 46.2699L597.543 44.433ZM607.148 48.9416L606.244 50.7257L606.254 50.7305L607.148 48.9416ZM616.231 54.8225L614.958 56.3649L614.964 56.3698L614.97 56.3747L616.231 54.8225ZM622.961 62.9903L621.197 63.9328L621.203 63.9429L622.961 62.9903ZM620.674 89.8462L619.05 88.6793L619.048 88.6822L620.674 89.8462ZM607.279 100.236L606.486 98.3996L606.481 98.4018L607.279 100.236ZM550.631 91.8099L562.784 72.0763L559.379 69.9787L547.225 89.7122L550.631 91.8099ZM559.851 72.6039C563.087 75.1307 566.129 77.2142 568.976 78.8409L570.96 75.3679C568.318 73.8581 565.436 71.8904 562.312 69.4511L559.851 72.6039ZM568.988 78.8475C571.889 80.4798 574.736 81.7015 577.525 82.4918L578.616 78.6433C576.178 77.9525 573.623 76.8654 570.949 75.3612L568.988 78.8475ZM577.563 82.5021C580.386 83.2425 583.257 83.613 586.173 83.613V79.613C583.6 79.613 581.07 79.2866 578.578 78.633L577.563 82.5021ZM586.173 83.613C589.014 83.613 591.539 83.2936 593.706 82.6041L592.493 78.7924C590.827 79.3226 588.734 79.613 586.173 79.613V83.613ZM593.745 82.5913C595.899 81.8569 597.703 80.7735 599 79.2508L595.955 76.6569C595.248 77.4865 594.133 78.2327 592.454 78.8052L593.745 82.5913ZM598.996 79.2554C600.362 77.6613 601.046 75.7581 601.046 73.6412H597.046C597.046 74.835 596.684 75.8069 595.959 76.6523L598.996 79.2554ZM601.046 73.6412C601.046 71.0188 600.094 68.7243 598.238 66.8689L595.41 69.6973C596.517 70.8041 597.046 72.0817 597.046 73.6412H601.046ZM598.238 66.8689C596.553 65.184 594.363 63.7351 591.734 62.4897L590.022 66.1047C592.358 67.2116 594.132 68.42 595.41 69.6973L598.238 66.8689ZM591.746 62.4956C589.261 61.2975 586.541 60.1037 583.588 58.9136L582.093 62.6237C584.977 63.7859 587.615 64.9445 590.009 66.0987L591.746 62.4956ZM583.588 58.9135C580.487 57.6644 577.318 56.2849 574.081 54.7744L572.389 58.3991C575.687 59.9379 578.922 61.3463 582.093 62.6238L583.588 58.9135ZM574.101 54.7837C570.97 53.281 568.097 51.4687 565.476 49.3474L562.96 52.4564C565.828 54.7784 568.966 56.756 572.37 58.3898L574.101 54.7837ZM565.476 49.3474C562.944 47.2975 560.893 44.8063 559.317 41.857L555.789 43.7418C557.611 47.1525 560.003 50.063 562.96 52.4564L565.476 49.3474ZM559.322 41.8669C557.81 38.9975 557.005 35.4151 557.005 31.0377H553.005C553.005 35.8954 553.898 40.1542 555.784 43.7319L559.322 41.8669ZM557.005 31.0377C557.005 25.2865 558.437 20.5001 561.212 16.5754L557.946 14.2661C554.622 18.9666 553.005 24.5915 553.005 31.0377H557.005ZM561.209 16.5786C564.071 12.548 567.97 9.4611 572.974 7.32847L571.406 3.64877C565.78 6.04657 561.272 9.58111 557.948 14.2629L561.209 16.5786ZM572.981 7.32536C578.053 5.1399 583.833 4.02545 590.355 4.02545V0.0254494C583.373 0.0254494 577.043 1.21978 571.398 3.65188L572.981 7.32536ZM590.355 4.02545C595.101 4.02545 600.15 4.65548 605.509 5.93135L606.435 2.04012C600.816 0.702275 595.454 0.0254494 590.355 0.0254494V4.02545ZM605.509 5.93135C610.835 7.1995 616.247 9.19151 621.746 11.9196L623.523 8.33634C617.783 5.48849 612.087 3.38569 606.435 2.04012L605.509 5.93135ZM620.834 9.25625L610.772 30.0353L614.372 31.7787L624.434 10.9997L620.834 9.25625ZM613.615 29.2004C610.324 27.1894 606.725 25.5973 602.826 24.4186L601.669 28.2474C605.263 29.3339 608.547 30.7911 611.529 32.6135L613.615 29.2004ZM602.853 24.4268C599.002 23.2037 595.397 22.5687 592.054 22.5687V26.5687C594.897 26.5687 598.087 27.11 601.642 28.2391L602.853 24.4268ZM592.054 22.5687C589.748 22.5687 587.642 22.8741 585.772 23.5313L587.097 27.3051C588.451 26.8297 590.091 26.5687 592.054 26.5687V22.5687ZM585.755 23.5371C583.909 24.2039 582.357 25.223 581.214 26.6518L584.337 29.1506C584.936 28.4013 585.824 27.7651 587.114 27.2993L585.755 23.5371ZM581.239 26.6208C580.05 28.0471 579.468 29.7488 579.468 31.6258H583.468C583.468 30.6276 583.758 29.8463 584.312 29.1816L581.239 26.6208ZM579.468 31.6258C579.468 34.1247 580.458 36.3188 582.276 38.1367L585.104 35.3083C583.96 34.1639 583.468 32.9602 583.468 31.6258H579.468ZM582.297 38.1577C583.964 39.7754 586.109 41.2135 588.677 42.4973L590.465 38.9196C588.154 37.7639 586.378 36.5447 585.083 35.2873L582.297 38.1577ZM588.677 42.4973C591.15 43.7338 593.837 44.9893 596.738 46.264L598.347 42.6019C595.498 41.35 592.871 40.1225 590.465 38.9196L588.677 42.4973ZM596.752 46.2699C599.847 47.6028 603.012 49.0878 606.244 50.7257L608.052 47.1575C604.75 45.4847 601.511 43.964 598.334 42.596L596.752 46.2699ZM606.254 50.7305C609.435 52.321 612.334 54.1997 614.958 56.3649L617.504 53.28C614.638 50.9148 611.483 48.873 608.043 47.1528L606.254 50.7305ZM614.97 56.3747C617.55 58.4715 619.623 60.9865 621.197 63.9328L624.725 62.0479C622.901 58.6341 620.487 55.7039 617.492 53.2702L614.97 56.3747ZM621.203 63.9429C622.71 66.7261 623.51 70.1509 623.51 74.2946H627.51C627.51 69.6389 626.61 65.5274 624.72 62.0378L621.203 63.9429ZM623.51 74.2946C623.51 79.7854 622.013 84.555 619.05 88.6793L622.298 91.0132C625.782 86.1637 627.51 80.5656 627.51 74.2946H623.51ZM619.048 88.6822C616.109 92.7888 611.952 96.0392 606.486 98.3996L608.072 102.072C614.106 99.4662 618.879 95.7903 622.301 91.0102L619.048 88.6822ZM606.481 98.4018C601.075 100.754 594.713 101.96 587.349 101.96V105.96C595.145 105.96 602.07 104.683 608.077 102.07L606.481 98.4018ZM587.349 101.96C580.511 101.96 573.937 100.863 567.617 98.6728L566.307 102.452C573.057 104.792 580.074 105.96 587.349 105.96V101.96ZM567.617 98.6728C561.291 96.4796 555.473 93.3179 550.156 89.1823L547.7 92.3397C553.36 96.7423 559.565 100.115 566.307 102.452L567.617 98.6728Z" fill="#252735" fill-opacity="0.4" mask="url(#path-1-outside-1_1715_2232)"/>
</svg>
