<svg width="526" height="88" viewBox="0 0 526 88" fill="none" xmlns="http://www.w3.org/2000/svg">
<mask id="path-1-outside-1_1432_1470" maskUnits="userSpaceOnUse" x="0" y="0" width="526" height="88" fill="black">
<rect fill="white" width="526" height="88"/>
<path d="M1.48506 85V2.7241H31.4883C38.5458 2.7241 44.6525 3.91253 49.8084 6.28939C55.001 8.62969 58.9868 11.9756 61.7659 16.3271C64.5815 20.642 65.9894 25.7796 65.9894 31.7401C65.9894 37.7005 64.5815 42.8747 61.7659 47.2628C58.9868 51.6143 55.0375 54.9784 49.9181 57.3553C44.7987 59.7322 38.7469 60.9206 31.7626 60.9206H23.2059V85H1.48506ZM23.2059 41.9971H29.3492C34.0297 41.9971 37.595 41.1195 40.045 39.3643C42.5316 37.6091 43.7749 35.0677 43.7749 31.7401C43.7749 28.4856 42.5316 25.999 40.045 24.2804C37.5585 22.5252 33.9932 21.6476 29.3492 21.6476H23.2059V41.9971ZM149.801 85H125.777L110.089 57.7941H98.6803V85H76.9595V2.7241H111.735C118.865 2.7241 124.935 3.80283 129.945 5.96029C134.955 8.11775 138.776 11.2625 141.409 15.3946C144.078 19.4901 145.413 24.4449 145.413 30.2591C145.413 35.7076 144.243 40.4065 141.903 44.3557C139.562 48.305 136.18 51.4132 131.755 53.6803L149.801 85ZM98.6803 41.0647H110.034C114.386 41.0647 117.659 40.2602 119.853 38.6512C122.083 37.0057 123.199 34.574 123.199 31.3561C123.199 28.1382 122.083 25.7248 119.853 24.1158C117.659 22.4703 114.386 21.6476 110.034 21.6476H98.6803V41.0647ZM197.85 86.6455C191.561 86.6455 185.746 85.5851 180.408 83.4642C175.105 81.3067 170.48 78.3082 166.531 74.4687C162.618 70.5926 159.583 66.0583 157.425 60.8657C155.268 55.6732 154.189 50.0053 154.189 43.8621C154.189 37.7188 155.268 32.0509 157.425 26.8584C159.583 21.6658 162.618 17.1498 166.531 13.3103C170.48 9.43416 175.105 6.43566 180.408 4.31477C185.746 2.15732 191.561 1.07859 197.85 1.07859C204.176 1.07859 209.99 2.15732 215.293 4.31477C220.595 6.43566 225.184 9.43416 229.06 13.3103C232.973 17.1498 236.008 21.6658 238.165 26.8584C240.323 32.0509 241.402 37.7188 241.402 43.8621C241.402 50.0053 240.323 55.6732 238.165 60.8657C236.008 66.0583 232.973 70.5926 229.06 74.4687C225.184 78.3082 220.595 81.3067 215.293 83.4642C209.99 85.5851 204.176 86.6455 197.85 86.6455ZM197.85 67.7221C200.885 67.7221 203.701 67.1187 206.297 65.912C208.893 64.7053 211.142 63.0232 213.044 60.8657C214.982 58.6717 216.481 56.1303 217.542 53.2415C218.639 50.3527 219.187 47.2262 219.187 43.8621C219.187 40.4979 218.639 37.3714 217.542 34.4826C216.481 31.5938 214.982 29.0707 213.044 26.9132C211.142 24.7192 208.893 23.0188 206.297 21.8121C203.701 20.6054 200.885 20.002 197.85 20.002C194.815 20.002 191.981 20.6054 189.348 21.8121C186.752 23.0188 184.485 24.7192 182.547 26.9132C180.609 29.0707 179.091 31.5938 177.994 34.4826C176.934 37.3714 176.404 40.4979 176.404 43.8621C176.404 47.2262 176.934 50.3527 177.994 53.2415C179.091 56.1303 180.609 58.6717 182.547 60.8657C184.485 63.0232 186.752 64.7053 189.348 65.912C191.981 67.1187 194.815 67.7221 197.85 67.7221ZM322.635 74.7978C318.759 78.5276 314.17 81.4347 308.868 83.519C303.602 85.6034 297.861 86.6455 291.645 86.6455C285.392 86.6455 279.596 85.5851 274.257 83.4642C268.955 81.3067 264.329 78.3082 260.38 74.4687C256.467 70.5926 253.414 66.0583 251.22 60.8657C249.062 55.6732 247.984 50.0053 247.984 43.8621C247.984 37.7188 249.062 32.0509 251.22 26.8584C253.414 21.6658 256.467 17.1498 260.38 13.3103C264.329 9.43416 268.955 6.43566 274.257 4.31477C279.596 2.15732 285.392 1.07859 291.645 1.07859C297.825 1.07859 303.529 2.13903 308.758 4.25992C314.024 6.34424 318.595 9.25133 322.471 12.9812L307.332 28.2296C305.43 25.6699 303.09 23.6587 300.311 22.1961C297.569 20.7334 294.57 20.002 291.316 20.002C288.317 20.002 285.538 20.6054 282.978 21.8121C280.419 23.0188 278.17 24.7009 276.232 26.8584C274.33 29.0158 272.849 31.539 271.789 34.4277C270.728 37.3165 270.198 40.443 270.198 43.8072C270.198 47.2079 270.728 50.3527 271.789 53.2415C272.849 56.1303 274.33 58.6717 276.232 60.8657C278.17 63.0232 280.419 64.7053 282.978 65.912C285.538 67.1187 288.317 67.7221 291.316 67.7221C294.57 67.7221 297.569 66.9907 300.311 65.528C303.054 64.0654 305.376 62.0542 307.277 59.4945L322.635 74.7978ZM330.918 85V2.7241H385.768V21.6476H352.639V34.3729H383.574V53.2964H352.639V66.0765H386.317V85H330.918ZM392.35 75.5657L402.553 59.0008C405.222 61.0851 407.709 62.7855 410.012 64.1019C412.353 65.4183 414.62 66.3874 416.814 67.009C419.044 67.5941 421.312 67.8866 423.615 67.8866C425.882 67.8866 427.82 67.6306 429.429 67.1187C431.038 66.5702 432.263 65.8023 433.104 64.815C433.982 63.7911 434.421 62.5844 434.421 61.1948C434.421 59.4396 433.799 57.9404 432.556 56.6971C431.313 55.4538 429.649 54.3385 427.564 53.3512C425.517 52.3639 423.268 51.3766 420.818 50.3893C418.185 49.3288 415.497 48.1587 412.755 46.8788C410.012 45.5624 407.489 43.9718 405.185 42.1068C402.882 40.2419 401.017 37.9748 399.591 35.3054C398.165 32.5994 397.452 29.3084 397.452 25.4323C397.452 20.3129 398.731 15.9431 401.291 12.323C403.887 8.66625 407.416 5.88716 411.877 3.98567C416.375 2.04761 421.458 1.07859 427.126 1.07859C431.258 1.07859 435.628 1.62709 440.235 2.7241C444.842 3.82112 449.505 5.53977 454.222 7.88006L445.775 25.3226C443.142 23.7136 440.253 22.4338 437.109 21.483C434 20.4957 431.148 20.002 428.552 20.002C426.76 20.002 425.188 20.2397 423.835 20.7151C422.518 21.1905 421.494 21.8852 420.763 22.7994C420.032 23.677 419.666 24.7192 419.666 25.9259C419.666 27.5349 420.288 28.961 421.531 30.2043C422.774 31.411 424.42 32.5263 426.467 33.5501C428.515 34.574 430.746 35.6162 433.159 36.6766C435.792 37.8102 438.48 39.0718 441.222 40.4613C444.001 41.8509 446.543 43.4964 448.847 45.3979C451.187 47.2994 453.07 49.5848 454.496 52.2542C455.922 54.887 456.635 58.0501 456.635 61.7433C456.635 66.6799 455.282 71.0314 452.576 74.7978C449.907 78.5276 446.159 81.4347 441.332 83.519C436.542 85.6034 430.965 86.6455 424.603 86.6455C418.679 86.6455 412.974 85.6948 407.489 83.7933C402.004 81.8918 396.958 79.1493 392.35 75.5657ZM459.926 75.5657L470.129 59.0008C472.798 61.0851 475.285 62.7855 477.588 64.1019C479.929 65.4183 482.196 66.3874 484.39 67.009C486.62 67.5941 488.887 67.8866 491.191 67.8866C493.458 67.8866 495.396 67.6306 497.005 67.1187C498.614 66.5702 499.839 65.8023 500.68 64.815C501.558 63.7911 501.997 62.5844 501.997 61.1948C501.997 59.4396 501.375 57.9404 500.132 56.6971C498.889 55.4538 497.225 54.3385 495.14 53.3512C493.093 52.3639 490.844 51.3766 488.394 50.3893C485.761 49.3288 483.073 48.1587 480.331 46.8788C477.588 45.5624 475.065 43.9718 472.761 42.1068C470.458 40.2419 468.593 37.9748 467.167 35.3054C465.741 32.5994 465.027 29.3084 465.027 25.4323C465.027 20.3129 466.307 15.9431 468.867 12.323C471.463 8.66625 474.992 5.88716 479.453 3.98567C483.951 2.04761 489.034 1.07859 494.702 1.07859C498.834 1.07859 503.203 1.62709 507.811 2.7241C512.418 3.82112 517.081 5.53977 521.798 7.88006L513.351 25.3226C510.718 23.7136 507.829 22.4338 504.684 21.483C501.576 20.4957 498.724 20.002 496.128 20.002C494.336 20.002 492.764 20.2397 491.411 20.7151C490.094 21.1905 489.07 21.8852 488.339 22.7994C487.608 23.677 487.242 24.7192 487.242 25.9259C487.242 27.5349 487.864 28.961 489.107 30.2043C490.35 31.411 491.996 32.5263 494.043 33.5501C496.091 34.574 498.322 35.6162 500.735 36.6766C503.368 37.8102 506.056 39.0718 508.798 40.4613C511.577 41.8509 514.119 43.4964 516.422 45.3979C518.763 47.2994 520.646 49.5848 522.072 52.2542C523.498 54.887 524.211 58.0501 524.211 61.7433C524.211 66.6799 522.858 71.0314 520.152 74.7978C517.483 78.5276 513.735 81.4347 508.908 83.519C504.118 85.6034 498.541 86.6455 492.178 86.6455C486.255 86.6455 480.55 85.6948 475.065 83.7933C469.58 81.8918 464.534 79.1493 459.926 75.5657Z"/>
</mask>
<path d="M1.48506 85H0.48506V86H1.48506V85ZM1.48506 2.7241V1.7241H0.48506V2.7241H1.48506ZM49.8084 6.28939L49.3898 7.19757L49.3975 7.20107L49.8084 6.28939ZM61.7659 16.3271L60.923 16.8653L60.9284 16.8735L61.7659 16.3271ZM61.7659 47.2628L60.9242 46.7227L60.9231 46.7245L61.7659 47.2628ZM49.9181 57.3553L50.3392 58.2623L49.9181 57.3553ZM23.2059 60.9206V59.9206H22.2059V60.9206H23.2059ZM23.2059 85V86H24.2059V85H23.2059ZM23.2059 41.9971H22.2059V42.9971H23.2059V41.9971ZM40.045 39.3643L39.4683 38.5473L39.4626 38.5514L40.045 39.3643ZM40.045 24.2804L39.4683 25.0974L39.4764 25.103L40.045 24.2804ZM23.2059 21.6476V20.6476H22.2059V21.6476H23.2059ZM2.48506 85V2.7241H0.48506V85H2.48506ZM1.48506 3.7241H31.4883V1.7241H1.48506V3.7241ZM31.4883 3.7241C38.4354 3.7241 44.393 4.89404 49.3898 7.19754L50.2271 5.38125C44.912 2.93102 38.6561 1.7241 31.4883 1.7241V3.7241ZM49.3975 7.20107C54.4318 9.47006 58.2593 12.6943 60.9231 16.8653L62.6087 15.7888C59.7143 11.2568 55.5701 7.78931 50.2193 5.37771L49.3975 7.20107ZM60.9284 16.8735C63.6222 21.0016 64.9894 25.9425 64.9894 31.7401H66.9894C66.9894 25.6167 65.5409 20.2823 62.6033 15.7806L60.9284 16.8735ZM64.9894 31.7401C64.9894 37.5372 63.6223 42.518 60.9242 46.7227L62.6075 47.8028C65.5408 43.2315 66.9894 37.8638 66.9894 31.7401H64.9894ZM60.9231 46.7245C58.256 50.9006 54.4603 54.1439 49.497 56.4483L50.3392 58.2623C55.6147 55.813 59.7175 52.328 62.6087 47.801L60.9231 46.7245ZM49.497 56.4483C44.537 58.7511 38.6351 59.9206 31.7626 59.9206V61.9206C38.8587 61.9206 45.0604 60.7132 50.3392 58.2623L49.497 56.4483ZM31.7626 59.9206H23.2059V61.9206H31.7626V59.9206ZM22.2059 60.9206V85H24.2059V60.9206H22.2059ZM23.2059 84H1.48506V86H23.2059V84ZM23.2059 42.9971H29.3492V40.9971H23.2059V42.9971ZM29.3492 42.9971C34.1309 42.9971 37.9371 42.1046 40.6274 40.1772L39.4626 38.5514C37.253 40.1345 33.9286 40.9971 29.3492 40.9971V42.9971ZM40.6217 40.1813C43.4014 38.2191 44.7749 35.3572 44.7749 31.7401H42.7749C42.7749 34.7782 41.6618 36.999 39.4683 38.5473L40.6217 40.1813ZM44.7749 31.7401C44.7749 28.1869 43.3939 25.3794 40.6136 23.4578L39.4764 25.103C41.6693 26.6187 42.7749 28.7843 42.7749 31.7401H44.7749ZM40.6217 23.4634C37.8989 21.5415 34.0979 20.6476 29.3492 20.6476V22.6476C33.8885 22.6476 37.218 23.5089 39.4683 25.0974L40.6217 23.4634ZM29.3492 20.6476H23.2059V22.6476H29.3492V20.6476ZM22.2059 21.6476V41.9971H24.2059V21.6476H22.2059ZM149.801 85V86H151.531L150.668 84.5008L149.801 85ZM125.777 85L124.91 85.4995L125.199 86H125.777V85ZM110.089 57.7941L110.956 57.2946L110.667 56.7941H110.089V57.7941ZM98.6803 57.7941V56.7941H97.6803V57.7941H98.6803ZM98.6803 85V86H99.6803V85H98.6803ZM76.9595 85H75.9595V86H76.9595V85ZM76.9595 2.7241V1.7241H75.9595V2.7241H76.9595ZM141.409 15.3946L140.566 15.932L140.571 15.9406L141.409 15.3946ZM131.755 53.6803L131.299 52.7903L130.364 53.2694L130.889 54.1795L131.755 53.6803ZM98.6803 41.0647H97.6803V42.0647H98.6803V41.0647ZM119.853 38.6512L120.444 39.4577L120.446 39.456L119.853 38.6512ZM119.853 24.1158L119.253 24.9158L119.26 24.9214L119.268 24.9269L119.853 24.1158ZM98.6803 21.6476V20.6476H97.6803V21.6476H98.6803ZM149.801 84H125.777V86H149.801V84ZM126.643 84.5005L110.956 57.2946L109.223 58.2936L124.91 85.4995L126.643 84.5005ZM110.089 56.7941H98.6803V58.7941H110.089V56.7941ZM97.6803 57.7941V85H99.6803V57.7941H97.6803ZM98.6803 84H76.9595V86H98.6803V84ZM77.9595 85V2.7241H75.9595V85H77.9595ZM76.9595 3.7241H111.735V1.7241H76.9595V3.7241ZM111.735 3.7241C118.769 3.7241 124.697 4.78888 129.55 6.87874L130.341 5.04184C125.174 2.81679 118.961 1.7241 111.735 1.7241V3.7241ZM129.55 6.87874C134.397 8.96626 138.052 11.9878 140.566 15.932L142.252 14.8572C139.5 10.5372 135.513 7.26924 130.341 5.04184L129.55 6.87874ZM140.571 15.9406C143.116 19.8451 144.413 24.6016 144.413 30.2591H146.413C146.413 24.2883 145.041 19.1351 142.247 14.8486L140.571 15.9406ZM144.413 30.2591C144.413 35.562 143.275 40.0776 141.042 43.8459L142.763 44.8655C145.21 40.7353 146.413 35.8532 146.413 30.2591H144.413ZM141.042 43.8459C138.806 47.6194 135.57 50.6018 131.299 52.7903L132.211 54.5703C136.789 52.2245 140.318 48.9905 142.763 44.8655L141.042 43.8459ZM130.889 54.1795L148.935 85.4992L150.668 84.5008L132.622 53.1811L130.889 54.1795ZM98.6803 42.0647H110.034V40.0647H98.6803V42.0647ZM110.034 42.0647C114.481 42.0647 118.003 41.2476 120.444 39.4577L119.261 37.8448C117.314 39.2728 114.291 40.0647 110.034 40.0647V42.0647ZM120.446 39.456C122.976 37.5899 124.199 34.8333 124.199 31.3561H122.199C122.199 34.3147 121.191 36.4216 119.259 37.8465L120.446 39.456ZM124.199 31.3561C124.199 27.8792 122.976 25.1355 120.438 23.3048L119.268 24.9269C121.191 26.3141 122.199 28.3972 122.199 31.3561H124.199ZM120.453 23.3158C118.01 21.4841 114.484 20.6476 110.034 20.6476V22.6476C114.287 22.6476 117.307 23.4565 119.253 24.9158L120.453 23.3158ZM110.034 20.6476H98.6803V22.6476H110.034V20.6476ZM97.6803 21.6476V41.0647H99.6803V21.6476H97.6803ZM180.408 83.4642L180.031 84.3905L180.039 84.3935L180.408 83.4642ZM166.531 74.4687L165.827 75.1791L165.833 75.1857L166.531 74.4687ZM166.531 13.3103L167.231 14.024L167.231 14.024L166.531 13.3103ZM180.408 4.31477L180.779 5.24325L180.782 5.24193L180.408 4.31477ZM215.293 4.31477L214.916 5.24105L214.921 5.24325L215.293 4.31477ZM229.06 13.3103L228.353 14.0174L228.36 14.024L229.06 13.3103ZM238.165 26.8584L237.242 27.2421L238.165 26.8584ZM229.06 74.4687L229.764 75.1791L229.764 75.1791L229.06 74.4687ZM215.293 83.4642L215.664 84.3927L215.67 84.3904L215.293 83.4642ZM206.297 65.912L206.719 66.8188L206.297 65.912ZM213.044 60.8657L212.294 60.2037L212.294 60.2045L213.044 60.8657ZM217.542 53.2415L216.607 52.8865L216.603 52.8969L217.542 53.2415ZM217.542 34.4826L216.603 34.8272L216.607 34.8376L217.542 34.4826ZM213.044 26.9132L212.288 27.5681L212.294 27.5749L212.3 27.5815L213.044 26.9132ZM206.297 21.8121L206.719 20.9053L206.297 21.8121ZM189.348 21.8121L188.932 20.903L188.927 20.9053L189.348 21.8121ZM182.547 26.9132L183.291 27.5815L183.296 27.5753L182.547 26.9132ZM177.994 34.4826L177.059 34.1276L177.056 34.138L177.994 34.4826ZM177.994 53.2415L177.055 53.5861L177.059 53.5965L177.994 53.2415ZM182.547 60.8657L181.797 61.5278L181.803 61.534L182.547 60.8657ZM189.348 65.912L188.927 66.8188L188.932 66.8211L189.348 65.912ZM197.85 85.6455C191.675 85.6455 185.988 84.6048 180.777 82.5348L180.039 84.3935C185.505 86.5653 191.446 87.6455 197.85 87.6455V85.6455ZM180.785 82.5379C175.597 80.427 171.081 77.498 167.228 73.7517L165.833 75.1857C169.879 79.1184 174.614 82.1864 180.031 84.3904L180.785 82.5379ZM167.234 73.7583C163.418 69.9774 160.456 65.5548 158.349 60.482L156.502 61.2494C158.709 66.5617 161.818 71.2077 165.827 75.1791L167.234 73.7583ZM158.349 60.482C156.246 55.422 155.189 49.8859 155.189 43.8621H153.189C153.189 50.1247 154.289 55.9245 156.502 61.2494L158.349 60.482ZM155.189 43.8621C155.189 37.8382 156.246 32.3021 158.349 27.2421L156.502 26.4747C154.289 31.7996 153.189 37.5994 153.189 43.8621H155.189ZM158.349 27.2421C160.456 22.1701 163.416 17.7672 167.231 14.024L165.83 12.5965C161.819 16.5325 158.709 21.1616 156.502 26.4747L158.349 27.2421ZM167.231 14.024C171.083 10.2435 175.596 7.31662 180.779 5.24325L180.036 3.3863C174.615 5.55471 169.877 8.62484 165.83 12.5966L167.231 14.024ZM180.782 5.24193C185.992 3.13685 191.677 2.07859 197.85 2.07859V0.0785867C191.444 0.0785867 185.501 1.17778 180.033 3.38761L180.782 5.24193ZM197.85 2.07859C204.061 2.07859 209.745 3.13715 214.916 5.24103L215.67 3.38851C210.236 1.17748 204.292 0.0785867 197.85 0.0785867V2.07859ZM214.921 5.24325C220.103 7.31599 224.577 10.241 228.353 14.0174L229.767 12.6032C225.791 8.62729 221.087 5.55534 215.664 3.3863L214.921 5.24325ZM228.36 14.024C232.174 17.7672 235.135 22.1701 237.242 27.2421L239.089 26.4747C236.881 21.1616 233.771 16.5325 229.761 12.5965L228.36 14.024ZM237.242 27.2421C239.344 32.3021 240.402 37.8382 240.402 43.8621H242.402C242.402 37.5994 241.301 31.7996 239.089 26.4747L237.242 27.2421ZM240.402 43.8621C240.402 49.8859 239.344 55.422 237.242 60.482L239.089 61.2494C241.301 55.9245 242.402 50.1247 242.402 43.8621H240.402ZM237.242 60.482C235.134 65.5548 232.173 69.9774 228.356 73.7583L229.764 75.1791C233.773 71.2077 236.882 66.5617 239.089 61.2494L237.242 60.482ZM228.356 73.7582C224.579 77.5005 220.102 80.4277 214.916 82.5379L215.67 84.3904C221.088 82.1858 225.79 79.116 229.764 75.1791L228.356 73.7582ZM214.921 82.5357C209.749 84.6045 204.063 85.6455 197.85 85.6455V87.6455C204.29 87.6455 210.232 86.5656 215.664 84.3927L214.921 82.5357ZM197.85 68.7221C201.022 68.7221 203.983 68.0906 206.719 66.8188L205.876 65.0052C203.419 66.1468 200.749 66.7221 197.85 66.7221V68.7221ZM206.719 66.8188C209.441 65.5536 211.802 63.7876 213.794 61.5269L212.294 60.2045C210.483 62.2588 208.346 63.857 205.876 65.0052L206.719 66.8188ZM213.793 61.5278C215.818 59.2359 217.379 56.5855 218.48 53.5861L216.603 52.8969C215.583 55.6751 214.146 58.1075 212.294 60.2037L213.793 61.5278ZM218.476 53.5965C219.62 50.5846 220.187 47.3367 220.187 43.8621H218.187C218.187 47.1157 217.657 50.1208 216.607 52.8865L218.476 53.5965ZM220.187 43.8621C220.187 40.3874 219.62 37.1395 218.476 34.1276L216.607 34.8376C217.657 37.6033 218.187 40.6084 218.187 43.8621H220.187ZM218.48 34.138C217.379 31.1373 215.816 28.5026 213.788 26.245L212.3 27.5815C214.148 29.6387 215.583 32.0503 216.603 34.8272L218.48 34.138ZM213.8 26.2583C211.807 23.9592 209.445 22.1723 206.719 20.9053L205.876 22.7189C208.342 23.8653 210.478 25.4792 212.288 27.5681L213.8 26.2583ZM206.719 20.9053C203.983 19.6335 201.022 19.002 197.85 19.002V21.002C200.749 21.002 203.419 21.5773 205.876 22.7189L206.719 20.9053ZM197.85 19.002C194.678 19.002 191.702 19.6335 188.932 20.903L189.765 22.7212C192.261 21.5773 194.952 21.002 197.85 21.002V19.002ZM188.927 20.9053C186.203 22.1714 183.825 23.9562 181.797 26.2512L183.296 27.5753C185.145 25.4822 187.301 23.8662 189.77 22.7189L188.927 20.9053ZM181.803 26.245C179.777 28.5 178.197 31.1311 177.059 34.1276L178.929 34.8376C179.985 32.0565 181.44 29.6413 183.291 27.5815L181.803 26.245ZM177.056 34.138C175.951 37.147 175.404 40.3913 175.404 43.8621H177.404C177.404 40.6045 177.917 37.5958 178.933 34.8272L177.056 34.138ZM175.404 43.8621C175.404 47.3328 175.951 50.5771 177.056 53.5861L178.933 52.8969C177.917 50.1283 177.404 47.1196 177.404 43.8621H175.404ZM177.059 53.5965C178.197 56.5917 179.775 59.2385 181.797 61.5278L183.296 60.2037C181.442 58.1049 179.986 55.6689 178.929 52.8865L177.059 53.5965ZM181.803 61.534C183.83 63.7906 186.206 65.5544 188.927 66.8188L189.77 65.0052C187.298 63.8561 185.14 62.2558 183.291 60.1975L181.803 61.534ZM188.932 66.8211C191.702 68.0906 194.678 68.7221 197.85 68.7221V66.7221C194.952 66.7221 192.261 66.1469 189.765 65.0029L188.932 66.8211ZM322.635 74.7978L323.329 75.5184L324.065 74.8103L323.341 74.0894L322.635 74.7978ZM308.868 83.519L308.502 82.5884L308.5 82.5892L308.868 83.519ZM274.257 83.4642L273.88 84.3905L273.888 84.3935L274.257 83.4642ZM260.38 74.4687L259.676 75.1791L259.683 75.1857L260.38 74.4687ZM251.22 60.8657L250.296 61.2494L250.299 61.255L251.22 60.8657ZM251.22 26.8584L250.299 26.4691L250.296 26.4747L251.22 26.8584ZM260.38 13.3103L261.08 14.024L261.08 14.024L260.38 13.3103ZM274.257 4.31477L274.628 5.24325L274.632 5.24193L274.257 4.31477ZM308.758 4.25992L308.382 5.18663L308.39 5.18973L308.758 4.25992ZM322.471 12.9812L323.18 13.6857L323.896 12.9649L323.164 12.2606L322.471 12.9812ZM307.332 28.2296L306.529 28.826L307.223 29.7592L308.042 28.9342L307.332 28.2296ZM300.311 22.1961L299.841 23.0784L299.845 23.081L300.311 22.1961ZM276.232 26.8584L275.488 26.1901L275.481 26.1972L276.232 26.8584ZM271.789 34.4277L270.85 34.0831L271.789 34.4277ZM271.789 53.2415L270.85 53.5861L271.789 53.2415ZM276.232 60.8657L275.476 61.5207L275.482 61.5274L275.488 61.534L276.232 60.8657ZM307.277 59.4945L307.983 58.7861L307.164 57.97L306.474 58.8981L307.277 59.4945ZM321.942 74.0772C318.166 77.711 313.69 80.5491 308.502 82.5884L309.234 84.4497C314.65 82.3203 319.353 79.3443 323.329 75.5184L321.942 74.0772ZM308.5 82.5892C303.362 84.6228 297.747 85.6455 291.645 85.6455V87.6455C297.975 87.6455 303.842 86.5839 309.236 84.4488L308.5 82.5892ZM291.645 85.6455C285.507 85.6455 279.838 84.6051 274.626 82.5348L273.888 84.3935C279.354 86.5651 285.277 87.6455 291.645 87.6455V85.6455ZM274.634 82.5379C269.446 80.427 264.93 77.498 261.077 73.7517L259.683 75.1857C263.728 79.1184 268.464 82.1864 273.88 84.3904L274.634 82.5379ZM261.084 73.7583C257.266 69.9762 254.285 65.5517 252.141 60.4765L250.299 61.255C252.542 66.5648 255.668 71.209 259.676 75.1791L261.084 73.7583ZM252.143 60.482C250.041 55.422 248.984 49.8859 248.984 43.8621H246.984C246.984 50.1247 248.084 55.9245 250.296 61.2494L252.143 60.482ZM248.984 43.8621C248.984 37.8382 250.041 32.3021 252.143 27.2421L250.296 26.4747C248.084 31.7996 246.984 37.5994 246.984 43.8621H248.984ZM252.141 27.2476C254.285 22.1732 257.265 17.7684 261.08 14.024L259.679 12.5965C255.67 16.5312 252.543 21.1585 250.299 26.4692L252.141 27.2476ZM261.08 14.024C264.932 10.2435 269.445 7.31662 274.628 5.24325L273.886 3.3863C268.465 5.55471 263.726 8.62484 259.679 12.5966L261.08 14.024ZM274.632 5.24193C279.842 3.13657 285.509 2.07859 291.645 2.07859V0.0785867C285.274 0.0785867 279.35 1.17806 273.882 3.38761L274.632 5.24193ZM291.645 2.07859C297.708 2.07859 303.283 3.11856 308.382 5.1866L309.134 3.33324C303.775 1.15951 297.941 0.0785867 291.645 0.0785867V2.07859ZM308.39 5.18973C313.541 7.22871 318 10.0669 321.777 13.7017L323.164 12.2606C319.189 8.43579 314.506 5.45978 309.126 3.33011L308.39 5.18973ZM321.761 12.2766L306.622 27.5251L308.042 28.9342L323.18 13.6857L321.761 12.2766ZM308.135 27.6333C306.145 24.9553 303.691 22.8447 300.777 21.3111L299.845 23.081C302.49 24.4728 304.716 26.3846 306.529 28.826L308.135 27.6333ZM300.782 21.3137C297.887 19.7701 294.726 19.002 291.316 19.002V21.002C294.414 21.002 297.25 21.6967 299.841 23.0784L300.782 21.3137ZM291.316 19.002C288.179 19.002 285.253 19.6343 282.552 20.9076L283.405 22.7166C285.823 21.5765 288.456 21.002 291.316 21.002V19.002ZM282.552 20.9076C279.869 22.1725 277.513 23.936 275.488 26.1901L276.976 27.5266C278.827 25.4658 280.969 23.8651 283.405 22.7166L282.552 20.9076ZM275.481 26.1972C273.492 28.4539 271.95 31.0863 270.85 34.0831L272.728 34.7724C273.748 31.9916 275.168 29.5777 276.982 27.5196L275.481 26.1972ZM270.85 34.0831C269.745 37.0922 269.198 40.3364 269.198 43.8072H271.198C271.198 40.5496 271.711 37.5409 272.728 34.7724L270.85 34.0831ZM269.198 43.8072C269.198 47.3132 269.745 50.5759 270.85 53.5861L272.728 52.8969C271.712 50.1295 271.198 47.1027 271.198 43.8072H269.198ZM270.85 53.5861C271.95 56.5817 273.491 59.2298 275.476 61.5207L276.987 60.2108C275.17 58.1137 273.749 55.6789 272.728 52.8969L270.85 53.5861ZM275.488 61.534C277.513 63.7881 279.869 65.5516 282.552 66.8165L283.405 65.0075C280.969 63.859 278.827 62.2583 276.976 60.1975L275.488 61.534ZM282.552 66.8165C285.253 68.0898 288.179 68.7221 291.316 68.7221V66.7221C288.456 66.7221 285.823 66.1476 283.405 65.0075L282.552 66.8165ZM291.316 68.7221C294.726 68.7221 297.887 67.954 300.782 66.4104L299.841 64.6457C297.25 66.0275 294.414 66.7221 291.316 66.7221V68.7221ZM300.782 66.4104C303.658 64.8763 306.093 62.7661 308.08 60.0908L306.474 58.8981C304.659 61.3423 302.449 63.2544 299.841 64.6457L300.782 66.4104ZM306.571 60.2028L321.929 75.5062L323.341 74.0894L307.983 58.7861L306.571 60.2028ZM330.918 85H329.918V86H330.918V85ZM330.918 2.7241V1.7241H329.918V2.7241H330.918ZM385.768 2.7241H386.768V1.7241H385.768V2.7241ZM385.768 21.6476V22.6476H386.768V21.6476H385.768ZM352.639 21.6476V20.6476H351.639V21.6476H352.639ZM352.639 34.3729H351.639V35.3729H352.639V34.3729ZM383.574 34.3729H384.574V33.3729H383.574V34.3729ZM383.574 53.2964V54.2964H384.574V53.2964H383.574ZM352.639 53.2964V52.2964H351.639V53.2964H352.639ZM352.639 66.0765H351.639V67.0765H352.639V66.0765ZM386.317 66.0765H387.317V65.0765H386.317V66.0765ZM386.317 85V86H387.317V85H386.317ZM331.918 85V2.7241H329.918V85H331.918ZM330.918 3.7241H385.768V1.7241H330.918V3.7241ZM384.768 2.7241V21.6476H386.768V2.7241H384.768ZM385.768 20.6476H352.639V22.6476H385.768V20.6476ZM351.639 21.6476V34.3729H353.639V21.6476H351.639ZM352.639 35.3729H383.574V33.3729H352.639V35.3729ZM382.574 34.3729V53.2964H384.574V34.3729H382.574ZM383.574 52.2964H352.639V54.2964H383.574V52.2964ZM351.639 53.2964V66.0765H353.639V53.2964H351.639ZM352.639 67.0765H386.317V65.0765H352.639V67.0765ZM385.317 66.0765V85H387.317V66.0765H385.317ZM386.317 84H330.918V86H386.317V84ZM392.35 75.5657L391.499 75.0413L391.029 75.8046L391.736 76.355L392.35 75.5657ZM402.553 59.0008L403.168 58.2126L402.287 57.5248L401.701 58.4764L402.553 59.0008ZM410.012 64.1019L409.516 64.9702L409.522 64.9735L410.012 64.1019ZM416.814 67.009L416.541 67.9711L416.551 67.9738L416.56 67.9763L416.814 67.009ZM429.429 67.1187L429.733 68.0716L429.742 68.0685L429.752 68.0652L429.429 67.1187ZM433.104 64.815L432.345 64.1642L432.343 64.1665L433.104 64.815ZM432.556 56.6971L433.263 55.99L432.556 56.6971ZM427.564 53.3512L427.13 54.252L427.136 54.2549L427.564 53.3512ZM420.818 50.3893L421.192 49.4618L421.191 49.4617L420.818 50.3893ZM412.755 46.8788L412.322 47.7804L412.332 47.785L412.755 46.8788ZM399.591 35.3054L398.706 35.7716L398.709 35.7766L399.591 35.3054ZM401.291 12.323L400.476 11.744L400.475 11.7456L401.291 12.323ZM411.877 3.98567L412.269 4.9056L412.273 4.90404L411.877 3.98567ZM454.222 7.88006L455.122 8.31592L455.554 7.42446L454.666 6.98425L454.222 7.88006ZM445.775 25.3226L445.253 26.1758L446.194 26.7508L446.675 25.7584L445.775 25.3226ZM437.109 21.483L436.806 22.4362L436.819 22.4402L437.109 21.483ZM423.835 20.7151L423.503 19.7716L423.495 19.7745L423.835 20.7151ZM420.763 22.7994L421.531 23.4396L421.538 23.4319L421.544 23.4241L420.763 22.7994ZM421.531 30.2043L420.824 30.9114L420.829 30.9166L420.834 30.9218L421.531 30.2043ZM433.159 36.6766L432.757 37.5922L432.764 37.5951L433.159 36.6766ZM441.222 40.4613L440.77 41.3534L440.775 41.3557L441.222 40.4613ZM448.847 45.3979L448.21 46.1691L448.216 46.174L448.847 45.3979ZM454.496 52.2542L453.614 52.7254L453.617 52.7305L454.496 52.2542ZM452.576 74.7978L451.764 74.2143L451.763 74.2158L452.576 74.7978ZM441.332 83.519L440.936 82.601L440.933 82.6021L441.332 83.519ZM393.202 76.0901L403.404 59.5252L401.701 58.4764L391.499 75.0413L393.202 76.0901ZM401.937 59.789C404.635 61.8952 407.161 63.6245 409.516 64.9702L410.508 63.2337C408.256 61.9465 405.809 60.2751 403.168 58.2126L401.937 59.789ZM409.522 64.9735C411.919 66.3219 414.259 67.3246 416.541 67.9711L417.086 66.0469C414.98 65.4501 412.786 64.5147 410.503 63.2303L409.522 64.9735ZM416.56 67.9763C418.873 68.5831 421.226 68.8866 423.615 68.8866V66.8866C421.397 66.8866 419.215 66.6051 417.067 66.0417L416.56 67.9763ZM423.615 68.8866C425.952 68.8866 427.999 68.6234 429.733 68.0716L429.126 66.1658C427.642 66.6379 425.812 66.8866 423.615 66.8866V68.8866ZM429.752 68.0652C431.48 67.4762 432.877 66.624 433.866 65.4634L432.343 64.1665C431.65 64.9805 430.597 65.6642 429.107 66.1722L429.752 68.0652ZM433.864 65.4658C434.902 64.2547 435.421 62.8152 435.421 61.1948H433.421C433.421 62.3536 433.062 63.3275 432.345 64.1642L433.864 65.4658ZM435.421 61.1948C435.421 59.1739 434.693 57.4204 433.263 55.99L431.849 57.4042C432.905 58.4603 433.421 59.7054 433.421 61.1948H435.421ZM433.263 55.99C431.918 54.6448 430.15 53.4694 427.993 52.4475L427.136 54.2549C429.148 55.2076 430.707 56.2628 431.849 57.4042L433.263 55.99ZM427.999 52.4504C425.928 51.4522 423.659 50.456 421.192 49.4618L420.444 51.3168C422.877 52.2971 425.105 53.2756 427.13 54.252L427.999 52.4504ZM421.191 49.4617C418.576 48.4084 415.905 47.2454 413.178 45.9727L412.332 47.785C415.09 49.0719 417.794 50.2493 420.444 51.3169L421.191 49.4617ZM413.188 45.9773C410.513 44.6937 408.056 43.1443 405.815 41.3296L404.556 42.8841C406.922 44.7992 409.511 46.4312 412.322 47.7804L413.188 45.9773ZM405.815 41.3296C403.617 39.5506 401.837 37.3882 400.473 34.8341L398.709 35.7766C400.196 38.5613 402.146 40.9333 404.556 42.8841L405.815 41.3296ZM400.475 34.8391C399.143 32.3102 398.452 29.1883 398.452 25.4323H396.452C396.452 29.4284 397.187 32.8886 398.706 35.7716L400.475 34.8391ZM398.452 25.4323C398.452 20.4866 399.685 16.3265 402.108 12.9003L400.475 11.7456C397.778 15.5597 396.452 20.1391 396.452 25.4323H398.452ZM402.106 12.9019C404.587 9.40797 407.964 6.74079 412.269 4.90559L411.485 3.06575C406.868 5.03352 403.188 7.92454 400.476 11.744L402.106 12.9019ZM412.273 4.90404C416.628 3.02764 421.573 2.07859 427.126 2.07859V0.0785867C421.343 0.0785867 416.122 1.06758 411.482 3.0673L412.273 4.90404ZM427.126 2.07859C431.169 2.07859 435.461 2.61539 440.003 3.69691L440.467 1.7513C435.794 0.638791 431.346 0.0785867 427.126 0.0785867V2.07859ZM440.003 3.69691C444.53 4.77457 449.121 6.46552 453.777 8.77587L454.666 6.98425C449.889 4.61401 445.155 2.86766 440.467 1.7513L440.003 3.69691ZM453.322 7.4442L444.875 24.8867L446.675 25.7584L455.122 8.31592L453.322 7.4442ZM446.296 24.4693C443.586 22.8132 440.619 21.4996 437.398 20.5258L436.819 22.4402C439.888 23.3679 442.698 24.614 445.253 26.1758L446.296 24.4693ZM437.411 20.5299C434.229 19.5191 431.273 19.002 428.552 19.002V21.002C431.023 21.002 433.772 21.4723 436.806 22.4361L437.411 20.5299ZM428.552 19.002C426.674 19.002 424.985 19.2508 423.503 19.7716L424.166 21.6586C425.39 21.2286 426.846 21.002 428.552 21.002V19.002ZM423.495 19.7745C422.039 20.3002 420.849 21.0907 419.982 22.1747L421.544 23.4241C422.139 22.6798 422.997 22.0808 424.174 21.6557L423.495 19.7745ZM419.995 22.1592C419.105 23.2272 418.666 24.4995 418.666 25.9259H420.666C420.666 24.9389 420.959 24.1269 421.531 23.4396L419.995 22.1592ZM418.666 25.9259C418.666 27.826 419.412 29.4997 420.824 30.9114L422.238 29.4971C421.163 28.4222 420.666 27.2437 420.666 25.9259H418.666ZM420.834 30.9218C422.171 32.2186 423.908 33.3887 426.02 34.4446L426.915 32.6557C424.931 31.6639 423.378 30.6033 422.227 29.4867L420.834 30.9218ZM426.02 34.4446C428.085 35.4769 430.331 36.526 432.757 37.5921L433.562 35.7611C431.161 34.7063 428.946 33.6712 426.915 32.6557L426.02 34.4446ZM432.764 37.5951C435.376 38.7199 438.045 39.9725 440.77 41.3534L441.674 39.5693C438.914 38.171 436.208 36.9005 433.555 35.7581L432.764 37.5951ZM440.775 41.3557C443.489 42.7129 445.967 44.3176 448.21 46.1691L449.483 44.6266C447.119 42.6752 444.513 40.9889 441.67 39.5669L440.775 41.3557ZM448.216 46.174C450.453 47.9913 452.25 50.1729 453.614 52.7254L455.378 51.783C453.89 48.9967 451.921 46.6075 449.477 44.6218L448.216 46.174ZM453.617 52.7305C454.947 55.1867 455.635 58.1781 455.635 61.7433H457.635C457.635 57.9221 456.897 54.5873 455.375 51.7779L453.617 52.7305ZM455.635 61.7433C455.635 66.4848 454.34 70.6292 451.764 74.2143L453.389 75.3813C456.225 71.4336 457.635 66.875 457.635 61.7433H455.635ZM451.763 74.2158C449.214 77.7772 445.62 80.578 440.936 82.601L441.728 84.4371C446.697 82.2915 450.6 79.278 453.39 75.3798L451.763 74.2158ZM440.933 82.6021C436.293 84.6211 430.857 85.6455 424.603 85.6455V87.6455C431.073 87.6455 436.791 86.5857 441.731 84.436L440.933 82.6021ZM424.603 85.6455C418.788 85.6455 413.194 84.7127 407.817 82.8485L407.162 84.7381C412.754 86.6769 418.57 87.6455 424.603 87.6455V85.6455ZM407.817 82.8485C402.436 80.983 397.486 78.2932 392.964 74.7763L391.736 76.355C396.43 80.0054 401.573 82.8006 407.162 84.7381L407.817 82.8485ZM459.926 75.5657L459.075 75.0413L458.605 75.8046L459.312 76.355L459.926 75.5657ZM470.129 59.0008L470.744 58.2126L469.863 57.5248L469.277 58.4764L470.129 59.0008ZM477.588 64.1019L477.092 64.9702L477.098 64.9735L477.588 64.1019ZM484.39 67.009L484.117 67.9711L484.127 67.9738L484.136 67.9763L484.39 67.009ZM497.005 67.1187L497.309 68.0716L497.318 68.0685L497.328 68.0652L497.005 67.1187ZM500.68 64.815L499.921 64.1642L499.919 64.1665L500.68 64.815ZM500.132 56.6971L500.839 55.99L500.132 56.6971ZM495.14 53.3512L494.706 54.252L494.712 54.2549L495.14 53.3512ZM488.394 50.3893L488.768 49.4618L488.767 49.4617L488.394 50.3893ZM480.331 46.8788L479.898 47.7804L479.908 47.785L480.331 46.8788ZM467.167 35.3054L466.282 35.7716L466.285 35.7766L467.167 35.3054ZM468.867 12.323L468.052 11.744L468.05 11.7456L468.867 12.323ZM479.453 3.98567L479.845 4.9056L479.849 4.90404L479.453 3.98567ZM521.798 7.88006L522.698 8.31592L523.13 7.42446L522.242 6.98425L521.798 7.88006ZM513.351 25.3226L512.829 26.1758L513.77 26.7508L514.251 25.7584L513.351 25.3226ZM504.684 21.483L504.382 22.4362L504.395 22.4402L504.684 21.483ZM491.411 20.7151L491.079 19.7716L491.071 19.7745L491.411 20.7151ZM488.339 22.7994L489.107 23.4396L489.114 23.4319L489.12 23.4241L488.339 22.7994ZM489.107 30.2043L488.4 30.9114L488.405 30.9166L488.41 30.9218L489.107 30.2043ZM500.735 36.6766L500.333 37.5922L500.34 37.5951L500.735 36.6766ZM508.798 40.4613L508.346 41.3534L508.351 41.3557L508.798 40.4613ZM516.422 45.3979L515.786 46.1691L515.792 46.174L516.422 45.3979ZM522.072 52.2542L521.19 52.7254L521.193 52.7305L522.072 52.2542ZM520.152 74.7978L519.34 74.2143L519.339 74.2158L520.152 74.7978ZM508.908 83.519L508.511 82.601L508.509 82.6021L508.908 83.519ZM460.778 76.0901L470.98 59.5252L469.277 58.4764L459.075 75.0413L460.778 76.0901ZM469.513 59.789C472.211 61.8952 474.737 63.6245 477.092 64.9702L478.084 63.2337C475.832 61.9465 473.385 60.2751 470.744 58.2126L469.513 59.789ZM477.098 64.9735C479.495 66.3219 481.835 67.3246 484.117 67.9711L484.662 66.0469C482.556 65.4501 480.362 64.5147 478.078 63.2303L477.098 64.9735ZM484.136 67.9763C486.449 68.5831 488.802 68.8866 491.191 68.8866V66.8866C488.973 66.8866 486.791 66.6051 484.643 66.0417L484.136 67.9763ZM491.191 68.8866C493.528 68.8866 495.574 68.6234 497.309 68.0716L496.702 66.1658C495.218 66.6379 493.388 66.8866 491.191 66.8866V68.8866ZM497.328 68.0652C499.056 67.4762 500.453 66.624 501.442 65.4634L499.919 64.1665C499.226 64.9805 498.173 65.6642 496.683 66.1722L497.328 68.0652ZM501.44 65.4658C502.478 64.2547 502.997 62.8152 502.997 61.1948H500.997C500.997 62.3536 500.638 63.3275 499.921 64.1642L501.44 65.4658ZM502.997 61.1948C502.997 59.1739 502.269 57.4204 500.839 55.99L499.425 57.4042C500.481 58.4603 500.997 59.7054 500.997 61.1948H502.997ZM500.839 55.99C499.494 54.6448 497.726 53.4694 495.569 52.4475L494.712 54.2549C496.724 55.2076 498.283 56.2628 499.425 57.4042L500.839 55.99ZM495.575 52.4504C493.504 51.4522 491.235 50.456 488.768 49.4618L488.02 51.3168C490.453 52.2971 492.681 53.2756 494.706 54.252L495.575 52.4504ZM488.767 49.4617C486.152 48.4084 483.481 47.2454 480.754 45.9727L479.908 47.785C482.666 49.0719 485.37 50.2493 488.02 51.3169L488.767 49.4617ZM480.763 45.9773C478.089 44.6937 475.632 43.1443 473.391 41.3296L472.132 42.8841C474.498 44.7992 477.087 46.4312 479.898 47.7804L480.763 45.9773ZM473.391 41.3296C471.193 39.5506 469.413 37.3882 468.049 34.8341L466.285 35.7766C467.772 38.5613 469.722 40.9333 472.132 42.8841L473.391 41.3296ZM468.051 34.8391C466.718 32.3102 466.027 29.1883 466.027 25.4323H464.027C464.027 29.4284 464.763 32.8886 466.282 35.7716L468.051 34.8391ZM466.027 25.4323C466.027 20.4866 467.261 16.3265 469.683 12.9003L468.05 11.7456C465.354 15.5597 464.027 20.1391 464.027 25.4323H466.027ZM469.682 12.9019C472.163 9.40797 475.54 6.74079 479.845 4.90559L479.061 3.06575C474.444 5.03352 470.763 7.92454 468.052 11.744L469.682 12.9019ZM479.849 4.90404C484.204 3.02764 489.149 2.07859 494.702 2.07859V0.0785867C488.919 0.0785867 483.698 1.06758 479.057 3.0673L479.849 4.90404ZM494.702 2.07859C498.745 2.07859 503.037 2.61539 507.579 3.69691L508.043 1.7513C503.37 0.638791 498.922 0.0785867 494.702 0.0785867V2.07859ZM507.579 3.69691C512.105 4.77457 516.697 6.46552 521.353 8.77587L522.242 6.98425C517.465 4.61401 512.731 2.86766 508.043 1.7513L507.579 3.69691ZM520.898 7.4442L512.451 24.8867L514.251 25.7584L522.698 8.31592L520.898 7.4442ZM513.872 24.4693C511.162 22.8132 508.195 21.4996 504.974 20.5258L504.395 22.4402C507.464 23.3679 510.274 24.614 512.829 26.1758L513.872 24.4693ZM504.987 20.5299C501.805 19.5191 498.849 19.002 496.128 19.002V21.002C498.599 21.002 501.347 21.4723 504.382 22.4361L504.987 20.5299ZM496.128 19.002C494.25 19.002 492.561 19.2508 491.079 19.7716L491.742 21.6586C492.966 21.2286 494.422 21.002 496.128 21.002V19.002ZM491.071 19.7745C489.615 20.3002 488.425 21.0907 487.558 22.1747L489.12 23.4241C489.715 22.6798 490.573 22.0808 491.75 21.6557L491.071 19.7745ZM487.571 22.1592C486.681 23.2272 486.242 24.4995 486.242 25.9259H488.242C488.242 24.9389 488.534 24.1269 489.107 23.4396L487.571 22.1592ZM486.242 25.9259C486.242 27.826 486.988 29.4997 488.4 30.9114L489.814 29.4971C488.739 28.4222 488.242 27.2437 488.242 25.9259H486.242ZM488.41 30.9218C489.746 32.2186 491.484 33.3887 493.596 34.4446L494.491 32.6557C492.507 31.6639 490.954 30.6033 489.803 29.4867L488.41 30.9218ZM493.596 34.4446C495.661 35.4769 497.907 36.526 500.333 37.5921L501.137 35.7611C498.737 34.7063 496.522 33.6712 494.491 32.6557L493.596 34.4446ZM500.34 37.5951C502.952 38.7199 505.621 39.9725 508.346 41.3534L509.25 39.5693C506.49 38.171 503.784 36.9005 501.131 35.7581L500.34 37.5951ZM508.351 41.3557C511.065 42.7129 513.543 44.3176 515.786 46.1691L517.059 44.6266C514.695 42.6752 512.089 40.9889 509.245 39.5669L508.351 41.3557ZM515.792 46.174C518.029 47.9913 519.826 50.1729 521.19 52.7254L522.954 51.783C521.466 48.9967 519.497 46.6075 517.053 44.6218L515.792 46.174ZM521.193 52.7305C522.523 55.1867 523.211 58.1781 523.211 61.7433H525.211C525.211 57.9221 524.473 54.5873 522.951 51.7779L521.193 52.7305ZM523.211 61.7433C523.211 66.4848 521.916 70.6292 519.34 74.2143L520.964 75.3813C523.801 71.4336 525.211 66.875 525.211 61.7433H523.211ZM519.339 74.2158C516.79 77.7772 513.196 80.578 508.511 82.601L509.304 84.4371C514.273 82.2915 518.176 79.278 520.965 75.3798L519.339 74.2158ZM508.509 82.6021C503.869 84.6211 498.433 85.6455 492.178 85.6455V87.6455C498.649 87.6455 504.366 86.5857 509.307 84.436L508.509 82.6021ZM492.178 85.6455C486.364 85.6455 480.77 84.7127 475.393 82.8485L474.738 84.7381C480.33 86.6769 486.145 87.6455 492.178 87.6455V85.6455ZM475.393 82.8485C470.011 80.983 465.062 78.2932 460.54 74.7763L459.312 76.355C464.006 80.0054 469.149 82.8006 474.738 84.7381L475.393 82.8485Z" fill="#828282" fill-opacity="0.56" mask="url(#path-1-outside-1_1432_1470)"/>
</svg>
