<svg width="526" height="442" viewBox="0 0 526 442" fill="none" xmlns="http://www.w3.org/2000/svg">
<rect x="0.682407" y="0.682407" width="524.089" height="440.153" rx="33.438" fill="url(#paint0_linear_1259_1243)" stroke="url(#paint1_linear_1259_1243)" stroke-width="1.36481"/>
<rect x="0.682407" y="0.682407" width="524.089" height="440.153" rx="33.438" fill="url(#paint2_linear_1259_1243)" stroke="url(#paint3_linear_1259_1243)" stroke-width="1.36481"/>
<path d="M47.7082 40.7294V71.2139H41.5938V40.7294H47.7082ZM67.1572 46.669C70.0396 46.669 72.3689 47.5862 74.145 49.4205C75.9211 51.2257 76.8091 53.7588 76.8091 57.0198V71.2139H70.6948V57.8496C70.6948 55.9279 70.2143 54.4576 69.2535 53.4385C68.2927 52.3903 66.9825 51.8663 65.3228 51.8663C63.6341 51.8663 62.2948 52.3903 61.3048 53.4385C60.344 54.4576 59.8636 55.9279 59.8636 57.8496V71.2139H53.7492V47.0184H59.8636V50.0319C60.6788 48.9838 61.7125 48.1685 62.9644 47.5862C64.2455 46.9748 65.6431 46.669 67.1572 46.669ZM89.7425 52.0409V63.7456C89.7425 64.5608 89.9317 65.1577 90.3102 65.5362C90.7178 65.8856 91.3875 66.0603 92.3192 66.0603H95.158V71.2139H91.3147C86.1612 71.2139 83.5844 68.7099 83.5844 63.7019V52.0409H80.7019V47.0184H83.5844V41.0351H89.7425V47.0184H95.158V52.0409H89.7425ZM122.048 58.5921C122.048 59.4655 121.99 60.2517 121.873 60.9505H104.185C104.331 62.6974 104.942 64.0659 106.02 65.0558C107.097 66.0458 108.422 66.5407 109.994 66.5407C112.265 66.5407 113.881 65.5654 114.842 63.6146H121.437C120.738 65.9439 119.398 67.8655 117.419 69.3796C115.439 70.8645 113.007 71.6069 110.125 71.6069C107.796 71.6069 105.699 71.0974 103.836 70.0783C102.002 69.0302 100.56 67.5598 99.5121 65.6673C98.4931 63.7747 97.9835 61.591 97.9835 59.1161C97.9835 56.6122 98.4931 54.4139 99.5121 52.5214C100.531 50.6288 101.958 49.173 103.792 48.154C105.627 47.1349 107.737 46.6254 110.125 46.6254C112.425 46.6254 114.478 47.1203 116.283 48.1103C118.117 49.1002 119.529 50.5124 120.519 52.3467C121.538 54.1519 122.048 56.2337 122.048 58.5921ZM115.715 56.8451C115.686 55.2728 115.118 54.0208 114.012 53.0891C112.906 52.1283 111.552 51.6479 109.95 51.6479C108.436 51.6479 107.155 52.1137 106.107 53.0455C105.088 53.948 104.462 55.2146 104.229 56.8451H115.715ZM132.625 38.8951V71.2139H126.511V38.8951H132.625ZM144.781 38.8951V71.2139H138.666V38.8951H144.781ZM153.923 44.1359C152.845 44.1359 151.943 43.8011 151.215 43.1314C150.516 42.4327 150.167 41.5737 150.167 40.5547C150.167 39.5356 150.516 38.6912 151.215 38.0216C151.943 37.3228 152.845 36.9734 153.923 36.9734C155 36.9734 155.888 37.3228 156.587 38.0216C157.315 38.6912 157.678 39.5356 157.678 40.5547C157.678 41.5737 157.315 42.4327 156.587 43.1314C155.888 43.8011 155 44.1359 153.923 44.1359ZM156.936 47.0184V71.2139H150.822V47.0184H156.936ZM172.454 46.6254C174.26 46.6254 175.846 46.9893 177.215 47.7172C178.583 48.416 179.661 49.3332 180.447 50.4687V47.0184H186.605V71.3886C186.605 73.6305 186.153 75.6249 185.251 77.3719C184.348 79.148 182.994 80.5456 181.189 81.5646C179.384 82.6128 177.2 83.1369 174.638 83.1369C171.202 83.1369 168.378 82.3362 166.165 80.7348C163.982 79.1334 162.744 76.9497 162.453 74.1837H168.524C168.844 75.2901 169.528 76.1636 170.576 76.8041C171.654 77.4738 172.949 77.8087 174.463 77.8087C176.239 77.8087 177.681 77.27 178.787 76.1927C179.893 75.1445 180.447 73.5432 180.447 71.3886V67.6326C179.661 68.7681 178.569 69.7144 177.171 70.4714C175.803 71.2284 174.23 71.6069 172.454 71.6069C170.416 71.6069 168.553 71.0828 166.864 70.0347C165.175 68.9865 163.836 67.5161 162.846 65.6236C161.885 63.7019 161.405 61.5037 161.405 59.0288C161.405 56.5831 161.885 54.4139 162.846 52.5214C163.836 50.6288 165.161 49.173 166.82 48.154C168.509 47.1349 170.387 46.6254 172.454 46.6254ZM180.447 59.1161C180.447 57.6312 180.156 56.3647 179.573 55.3165C178.991 54.2392 178.205 53.424 177.215 52.8708C176.225 52.2884 175.162 51.9973 174.027 51.9973C172.891 51.9973 171.843 52.2739 170.882 52.8271C169.921 53.3803 169.135 54.1955 168.524 55.2728C167.941 56.321 167.65 57.573 167.65 59.0288C167.65 60.4846 167.941 61.7657 168.524 62.8721C169.135 63.9494 169.921 64.7792 170.882 65.3615C171.872 65.9439 172.92 66.235 174.027 66.235C175.162 66.235 176.225 65.9584 177.215 65.4052C178.205 64.8229 178.991 64.0076 179.573 62.9595C180.156 61.8822 180.447 60.6011 180.447 59.1161ZM215.069 58.5921C215.069 59.4655 215.01 60.2517 214.894 60.9505H197.206C197.352 62.6974 197.963 64.0659 199.04 65.0558C200.118 66.0458 201.442 66.5407 203.015 66.5407C205.286 66.5407 206.902 65.5654 207.862 63.6146H214.457C213.758 65.9439 212.419 67.8655 210.439 69.3796C208.459 70.8645 206.028 71.6069 203.146 71.6069C200.816 71.6069 198.72 71.0974 196.857 70.0783C195.022 69.0302 193.581 67.5598 192.533 65.6673C191.514 63.7747 191.004 61.591 191.004 59.1161C191.004 56.6122 191.514 54.4139 192.533 52.5214C193.552 50.6288 194.979 49.173 196.813 48.154C198.647 47.1349 200.758 46.6254 203.146 46.6254C205.446 46.6254 207.498 47.1203 209.304 48.1103C211.138 49.1002 212.55 50.5124 213.54 52.3467C214.559 54.1519 215.069 56.2337 215.069 58.5921ZM208.736 56.8451C208.707 55.2728 208.139 54.0208 207.033 53.0891C205.926 52.1283 204.572 51.6479 202.971 51.6479C201.457 51.6479 200.176 52.1137 199.128 53.0455C198.109 53.948 197.483 55.2146 197.25 56.8451H208.736ZM232.94 46.669C235.822 46.669 238.151 47.5862 239.927 49.4205C241.703 51.2257 242.591 53.7588 242.591 57.0198V71.2139H236.477V57.8496C236.477 55.9279 235.997 54.4576 235.036 53.4385C234.075 52.3903 232.765 51.8663 231.105 51.8663C229.416 51.8663 228.077 52.3903 227.087 53.4385C226.126 54.4576 225.646 55.9279 225.646 57.8496V71.2139H219.532V47.0184H225.646V50.0319C226.461 48.9838 227.495 48.1685 228.747 47.5862C230.028 46.9748 231.425 46.669 232.94 46.669ZM255.525 52.0409V63.7456C255.525 64.5608 255.714 65.1577 256.093 65.5362C256.5 65.8856 257.17 66.0603 258.102 66.0603H260.94V71.2139H257.097C251.944 71.2139 249.367 68.7099 249.367 63.7019V52.0409H246.484V47.0184H249.367V41.0351H255.525V47.0184H260.94V52.0409H255.525ZM62.339 89.7294V94.6645H54.2156V120.214H48.1013V94.6645H39.9779V89.7294H62.339ZM65.228 108.029C65.228 105.583 65.7084 103.414 66.6692 101.521C67.6592 99.6288 68.984 98.173 70.6436 97.154C72.3323 96.1349 74.2103 95.6254 76.2775 95.6254C78.0827 95.6254 79.655 95.9893 80.9943 96.7172C82.3628 97.4451 83.4546 98.3623 84.2699 99.4687V96.0184H90.4279V120.214H84.2699V116.676C83.4838 117.812 82.3919 118.758 80.9943 119.515C79.6259 120.243 78.0391 120.607 76.2339 120.607C74.1957 120.607 72.3323 120.083 70.6436 119.035C68.984 117.986 67.6592 116.516 66.6692 114.624C65.7084 112.702 65.228 110.504 65.228 108.029ZM84.2699 108.116C84.2699 106.631 83.9787 105.365 83.3964 104.317C82.8141 103.239 82.0279 102.424 81.038 101.871C80.0481 101.288 78.9853 100.997 77.8498 100.997C76.7143 100.997 75.6661 101.274 74.7053 101.827C73.7444 102.38 72.9583 103.196 72.3469 104.273C71.7645 105.321 71.4734 106.573 71.4734 108.029C71.4734 109.485 71.7645 110.766 72.3469 111.872C72.9583 112.949 73.7444 113.779 74.7053 114.362C75.6952 114.944 76.7434 115.235 77.8498 115.235C78.9853 115.235 80.0481 114.958 81.038 114.405C82.0279 113.823 82.8141 113.008 83.3964 111.959C83.9787 110.882 84.2699 109.601 84.2699 108.116ZM102.514 87.8951V120.214H96.3997V87.8951H102.514ZM131.047 107.592C131.047 108.466 130.989 109.252 130.873 109.95H113.185C113.33 111.697 113.942 113.066 115.019 114.056C116.096 115.046 117.421 115.541 118.993 115.541C121.264 115.541 122.88 114.565 123.841 112.615H130.436C129.737 114.944 128.398 116.866 126.418 118.38C124.438 119.864 122.007 120.607 119.124 120.607C116.795 120.607 114.699 120.097 112.835 119.078C111.001 118.03 109.56 116.56 108.511 114.667C107.492 112.775 106.983 110.591 106.983 108.116C106.983 105.612 107.492 103.414 108.511 101.521C109.53 99.6288 110.957 98.173 112.791 97.154C114.626 96.1349 116.737 95.6254 119.124 95.6254C121.424 95.6254 123.477 96.1203 125.282 97.1103C127.117 98.1002 128.529 99.5124 129.519 101.347C130.538 103.152 131.047 105.234 131.047 107.592ZM124.714 105.845C124.685 104.273 124.118 103.021 123.011 102.089C121.905 101.128 120.551 100.648 118.949 100.648C117.435 100.648 116.154 101.114 115.106 102.045C114.087 102.948 113.461 104.215 113.228 105.845H124.714ZM148.918 95.669C151.801 95.669 154.13 96.5862 155.906 98.4205C157.682 100.226 158.57 102.759 158.57 106.02V120.214H152.456V106.85C152.456 104.928 151.975 103.458 151.014 102.439C150.054 101.39 148.743 100.866 147.084 100.866C145.395 100.866 144.056 101.39 143.066 102.439C142.105 103.458 141.625 104.928 141.625 106.85V120.214H135.51V96.0184H141.625V99.0319C142.44 97.9838 143.473 97.1685 144.725 96.5862C146.006 95.9748 147.404 95.669 148.918 95.669ZM171.503 101.041V112.746C171.503 113.561 171.693 114.158 172.071 114.536C172.479 114.886 173.148 115.06 174.08 115.06H176.919V120.214H173.076C167.922 120.214 165.345 117.71 165.345 112.702V101.041H162.463V96.0184H165.345V90.0351H171.503V96.0184H176.919V101.041H171.503ZM202.249 120.52C200.123 120.52 198.202 120.156 196.484 119.428C194.795 118.7 193.456 117.652 192.466 116.283C191.476 114.915 190.966 113.299 190.937 111.435H197.488C197.576 112.687 198.013 113.677 198.799 114.405C199.614 115.133 200.72 115.497 202.118 115.497C203.545 115.497 204.666 115.162 205.481 114.493C206.296 113.794 206.704 112.891 206.704 111.785C206.704 110.882 206.427 110.14 205.874 109.557C205.321 108.975 204.622 108.524 203.778 108.203C202.962 107.854 201.827 107.476 200.371 107.068C198.391 106.486 196.775 105.918 195.523 105.365C194.3 104.782 193.237 103.923 192.335 102.788C191.461 101.623 191.025 100.08 191.025 98.1585C191.025 96.3533 191.476 94.781 192.379 93.4417C193.281 92.1023 194.548 91.0833 196.178 90.3845C197.809 89.6566 199.672 89.2926 201.768 89.2926C204.913 89.2926 207.461 90.0642 209.411 91.6073C211.391 93.1214 212.483 95.2469 212.687 97.9838H205.961C205.903 96.9356 205.452 96.0767 204.607 95.407C203.792 94.7082 202.7 94.3588 201.332 94.3588C200.138 94.3588 199.177 94.6645 198.449 95.276C197.75 95.8874 197.401 96.7754 197.401 97.9401C197.401 98.7553 197.663 99.4396 198.187 99.9928C198.74 100.517 199.41 100.954 200.196 101.303C201.011 101.623 202.147 102.002 203.603 102.439C205.583 103.021 207.199 103.603 208.451 104.185C209.703 104.768 210.78 105.641 211.683 106.806C212.585 107.971 213.036 109.499 213.036 111.392C213.036 113.022 212.614 114.536 211.77 115.934C210.925 117.331 209.688 118.452 208.058 119.297C206.427 120.112 204.491 120.52 202.249 120.52ZM229.081 120.607C226.752 120.607 224.656 120.097 222.792 119.078C220.929 118.03 219.458 116.56 218.381 114.667C217.333 112.775 216.809 110.591 216.809 108.116C216.809 105.641 217.347 103.458 218.425 101.565C219.531 99.6725 221.031 98.2167 222.923 97.1976C224.816 96.1495 226.927 95.6254 229.256 95.6254C231.585 95.6254 233.696 96.1495 235.589 97.1976C237.481 98.2167 238.966 99.6725 240.043 101.565C241.15 103.458 241.703 105.641 241.703 108.116C241.703 110.591 241.135 112.775 240 114.667C238.893 116.56 237.379 118.03 235.458 119.078C233.565 120.097 231.44 120.607 229.081 120.607ZM229.081 115.279C230.188 115.279 231.221 115.017 232.182 114.493C233.172 113.939 233.958 113.124 234.54 112.047C235.123 110.97 235.414 109.659 235.414 108.116C235.414 105.816 234.802 104.054 233.58 102.832C232.386 101.58 230.915 100.954 229.169 100.954C227.422 100.954 225.951 101.58 224.757 102.832C223.593 104.054 223.01 105.816 223.01 108.116C223.01 110.416 223.578 112.192 224.714 113.444C225.878 114.667 227.334 115.279 229.081 115.279ZM252.302 87.8951V120.214H246.188V87.8951H252.302ZM281.185 96.0184V120.214H275.027V117.157C274.241 118.205 273.207 119.035 271.926 119.646C270.674 120.228 269.306 120.52 267.821 120.52C265.928 120.52 264.254 120.127 262.798 119.34C261.342 118.525 260.192 117.346 259.348 115.803C258.533 114.231 258.125 112.367 258.125 110.213V96.0184H264.239V109.339C264.239 111.261 264.72 112.746 265.681 113.794C266.642 114.813 267.952 115.322 269.611 115.322C271.3 115.322 272.625 114.813 273.586 113.794C274.547 112.746 275.027 111.261 275.027 109.339V96.0184H281.185ZM294.337 101.041V112.746C294.337 113.561 294.526 114.158 294.904 114.536C295.312 114.886 295.982 115.06 296.913 115.06H299.752V120.214H295.909C290.755 120.214 288.179 117.71 288.179 112.702V101.041H285.296V96.0184H288.179V90.0351H294.337V96.0184H299.752V101.041H294.337ZM307.251 93.1359C306.174 93.1359 305.271 92.8011 304.543 92.1314C303.844 91.4327 303.495 90.5737 303.495 89.5547C303.495 88.5356 303.844 87.6912 304.543 87.0216C305.271 86.3228 306.174 85.9734 307.251 85.9734C308.328 85.9734 309.216 86.3228 309.915 87.0216C310.643 87.6912 311.007 88.5356 311.007 89.5547C311.007 90.5737 310.643 91.4327 309.915 92.1314C309.216 92.8011 308.328 93.1359 307.251 93.1359ZM310.264 96.0184V120.214H304.15V96.0184H310.264ZM327.049 120.607C324.72 120.607 322.624 120.097 320.76 119.078C318.897 118.03 317.426 116.56 316.349 114.667C315.301 112.775 314.777 110.591 314.777 108.116C314.777 105.641 315.315 103.458 316.393 101.565C317.499 99.6725 318.999 98.2167 320.891 97.1976C322.784 96.1495 324.895 95.6254 327.224 95.6254C329.553 95.6254 331.664 96.1495 333.557 97.1976C335.449 98.2167 336.934 99.6725 338.011 101.565C339.118 103.458 339.671 105.641 339.671 108.116C339.671 110.591 339.103 112.775 337.968 114.667C336.861 116.56 335.347 118.03 333.426 119.078C331.533 120.097 329.408 120.607 327.049 120.607ZM327.049 115.279C328.156 115.279 329.189 115.017 330.15 114.493C331.14 113.939 331.926 113.124 332.509 112.047C333.091 110.97 333.382 109.659 333.382 108.116C333.382 105.816 332.771 104.054 331.548 102.832C330.354 101.58 328.884 100.954 327.137 100.954C325.39 100.954 323.919 101.58 322.726 102.832C321.561 104.054 320.979 105.816 320.979 108.116C320.979 110.416 321.546 112.192 322.682 113.444C323.846 114.667 325.302 115.279 327.049 115.279ZM357.564 95.669C360.447 95.669 362.776 96.5862 364.552 98.4205C366.328 100.226 367.216 102.759 367.216 106.02V120.214H361.102V106.85C361.102 104.928 360.621 103.458 359.661 102.439C358.7 101.39 357.389 100.866 355.73 100.866C354.041 100.866 352.702 101.39 351.712 102.439C350.751 103.458 350.271 104.928 350.271 106.85V120.214H344.156V96.0184H350.271V99.0319C351.086 97.9838 352.119 97.1685 353.371 96.5862C354.653 95.9748 356.05 95.669 357.564 95.669ZM382.289 120.607C380.31 120.607 378.534 120.258 376.961 119.559C375.389 118.831 374.137 117.855 373.205 116.633C372.303 115.41 371.808 114.056 371.72 112.571H377.878C377.995 113.503 378.446 114.274 379.232 114.886C380.048 115.497 381.052 115.803 382.246 115.803C383.41 115.803 384.313 115.57 384.954 115.104C385.623 114.638 385.958 114.041 385.958 113.313C385.958 112.527 385.55 111.945 384.735 111.566C383.949 111.159 382.683 110.722 380.936 110.256C379.13 109.819 377.645 109.368 376.481 108.902C375.345 108.436 374.355 107.723 373.511 106.762C372.696 105.801 372.288 104.506 372.288 102.875C372.288 101.536 372.667 100.313 373.424 99.2066C374.21 98.1002 375.316 97.2267 376.743 96.5862C378.199 95.9456 379.902 95.6254 381.853 95.6254C384.735 95.6254 387.035 96.3533 388.753 97.8091C390.471 99.2358 391.417 101.172 391.592 103.618H385.74C385.652 102.657 385.245 101.9 384.517 101.347C383.818 100.764 382.872 100.473 381.678 100.473C380.572 100.473 379.713 100.677 379.101 101.085C378.519 101.492 378.228 102.06 378.228 102.788C378.228 103.603 378.635 104.229 379.451 104.666C380.266 105.074 381.532 105.496 383.25 105.932C384.997 106.369 386.439 106.82 387.574 107.286C388.71 107.752 389.685 108.48 390.5 109.47C391.345 110.431 391.781 111.712 391.81 113.313C391.81 114.711 391.417 115.963 390.631 117.069C389.874 118.176 388.768 119.049 387.312 119.69C385.885 120.301 384.211 120.607 382.289 120.607Z" fill="white"/>
<path d="M49.6936 149.868V151.899H45.6537V165.044H43.1643V151.899H39.1026V149.868H49.6936ZM57.4338 165.241C56.2983 165.241 55.2719 164.986 54.3548 164.477C53.4376 163.953 52.717 163.225 52.1929 162.293C51.6688 161.347 51.4068 160.255 51.4068 159.017C51.4068 157.795 51.6761 156.71 52.2147 155.764C52.7534 154.817 53.4886 154.09 54.4203 153.58C55.352 153.07 56.3929 152.816 57.543 152.816C58.6931 152.816 59.734 153.07 60.6657 153.58C61.5974 154.09 62.3326 154.817 62.8712 155.764C63.4099 156.71 63.6792 157.795 63.6792 159.017C63.6792 160.24 63.4026 161.325 62.8494 162.271C62.2962 163.217 61.5392 163.953 60.5783 164.477C59.6321 164.986 58.5839 165.241 57.4338 165.241ZM57.4338 163.079C58.0743 163.079 58.6712 162.926 59.2244 162.621C59.7922 162.315 60.2508 161.856 60.6002 161.245C60.9496 160.633 61.1242 159.891 61.1242 159.017C61.1242 158.144 60.9568 157.409 60.622 156.812C60.2872 156.2 59.8431 155.742 59.2899 155.436C58.7367 155.13 58.1399 154.978 57.4993 154.978C56.8587 154.978 56.2619 155.13 55.7087 155.436C55.17 155.742 54.7406 156.2 54.4203 156.812C54.1 157.409 53.9399 158.144 53.9399 159.017C53.9399 160.313 54.2674 161.318 54.9225 162.031C55.5922 162.73 56.4293 163.079 57.4338 163.079ZM70.9828 158.974C70.9828 157.765 71.2303 156.695 71.7253 155.764C72.2348 154.832 72.919 154.111 73.778 153.602C74.6514 153.078 75.6195 152.816 76.6823 152.816C77.4684 152.816 78.24 152.99 78.997 153.34C79.7686 153.675 80.38 154.126 80.8313 154.694V148.885H83.3426V165.044H80.8313V163.232C80.4237 163.814 79.8559 164.295 79.128 164.673C78.4147 165.052 77.5922 165.241 76.6604 165.241C75.6123 165.241 74.6514 164.979 73.778 164.455C72.919 163.916 72.2348 163.174 71.7253 162.227C71.2303 161.267 70.9828 160.182 70.9828 158.974ZM80.8313 159.017C80.8313 158.188 80.6566 157.467 80.3072 156.856C79.9724 156.244 79.5284 155.778 78.9752 155.458C78.422 155.138 77.8251 154.978 77.1845 154.978C76.544 154.978 75.9471 155.138 75.3939 155.458C74.8407 155.764 74.3894 156.222 74.04 156.834C73.7052 157.431 73.5378 158.144 73.5378 158.974C73.5378 159.804 73.7052 160.531 74.04 161.157C74.3894 161.783 74.8407 162.264 75.3939 162.599C75.9617 162.919 76.5585 163.079 77.1845 163.079C77.8251 163.079 78.422 162.919 78.9752 162.599C79.5284 162.278 79.9724 161.813 80.3072 161.201C80.6566 160.575 80.8313 159.847 80.8313 159.017ZM89.1018 154.759C89.4657 154.148 89.9461 153.675 90.543 153.34C91.1544 152.99 91.8751 152.816 92.7049 152.816V155.392H92.0716C91.0962 155.392 90.3537 155.64 89.8442 156.135C89.3492 156.63 89.1018 157.489 89.1018 158.712V165.044H86.6123V153.012H89.1018V154.759ZM96.2597 151.418C95.8084 151.418 95.4299 151.265 95.1242 150.96C94.8185 150.654 94.6656 150.275 94.6656 149.824C94.6656 149.373 94.8185 148.994 95.1242 148.688C95.4299 148.383 95.8084 148.23 96.2597 148.23C96.6964 148.23 97.0677 148.383 97.3734 148.688C97.6791 148.994 97.832 149.373 97.832 149.824C97.832 150.275 97.6791 150.654 97.3734 150.96C97.0677 151.265 96.6964 151.418 96.2597 151.418ZM97.4826 153.012V165.044H94.9932V153.012H97.4826ZM105.402 162.817L108.809 153.012H111.451L106.865 165.044H103.895L99.3316 153.012H101.996L105.402 162.817ZM124.361 158.734C124.361 159.185 124.331 159.592 124.273 159.956H115.08C115.153 160.917 115.509 161.689 116.15 162.271C116.79 162.853 117.577 163.145 118.508 163.145C119.848 163.145 120.794 162.584 121.347 161.463H124.033C123.669 162.57 123.007 163.479 122.046 164.193C121.1 164.892 119.92 165.241 118.508 165.241C117.358 165.241 116.325 164.986 115.407 164.477C114.505 163.953 113.791 163.225 113.267 162.293C112.758 161.347 112.503 160.255 112.503 159.017C112.503 157.78 112.751 156.695 113.245 155.764C113.755 154.817 114.461 154.09 115.364 153.58C116.281 153.07 117.329 152.816 118.508 152.816C119.644 152.816 120.656 153.063 121.544 153.558C122.432 154.053 123.123 154.752 123.618 155.655C124.113 156.543 124.361 157.569 124.361 158.734ZM121.762 157.947C121.747 157.03 121.42 156.295 120.779 155.742C120.139 155.189 119.345 154.912 118.399 154.912C117.54 154.912 116.805 155.189 116.193 155.742C115.582 156.281 115.218 157.016 115.102 157.947H121.762ZM137.331 152.816C138.262 152.816 139.085 153.005 139.798 153.383C140.526 153.747 141.094 154.206 141.502 154.759V153.012H144.013V165.241C144.013 166.347 143.78 167.33 143.314 168.189C142.848 169.062 142.171 169.747 141.283 170.242C140.41 170.737 139.362 170.984 138.139 170.984C136.508 170.984 135.154 170.598 134.077 169.827C133 169.07 132.388 168.036 132.243 166.726H134.71C134.9 167.352 135.3 167.854 135.911 168.233C136.537 168.626 137.28 168.822 138.139 168.822C139.143 168.822 139.951 168.517 140.563 167.905C141.189 167.294 141.502 166.406 141.502 165.241V163.232C141.079 163.8 140.504 164.28 139.776 164.673C139.063 165.052 138.248 165.241 137.331 165.241C136.283 165.241 135.322 164.979 134.448 164.455C133.589 163.916 132.905 163.174 132.396 162.227C131.901 161.267 131.653 160.182 131.653 158.974C131.653 157.765 131.901 156.695 132.396 155.764C132.905 154.832 133.589 154.111 134.448 153.602C135.322 153.078 136.283 152.816 137.331 152.816ZM141.502 159.017C141.502 158.188 141.327 157.467 140.978 156.856C140.643 156.244 140.199 155.778 139.645 155.458C139.092 155.138 138.495 154.978 137.855 154.978C137.214 154.978 136.617 155.138 136.064 155.458C135.511 155.764 135.06 156.222 134.71 156.834C134.375 157.431 134.208 158.144 134.208 158.974C134.208 159.804 134.375 160.531 134.71 161.157C135.06 161.783 135.511 162.264 136.064 162.599C136.632 162.919 137.229 163.079 137.855 163.079C138.495 163.079 139.092 162.919 139.645 162.599C140.199 162.278 140.643 161.813 140.978 161.201C141.327 160.575 141.502 159.847 141.502 159.017ZM149.772 154.759C150.136 154.148 150.616 153.675 151.213 153.34C151.825 152.99 152.545 152.816 153.375 152.816V155.392H152.742C151.766 155.392 151.024 155.64 150.514 156.135C150.02 156.63 149.772 157.489 149.772 158.712V165.044H147.283V153.012H149.772V154.759ZM160.882 165.241C159.747 165.241 158.721 164.986 157.803 164.477C156.886 163.953 156.166 163.225 155.642 162.293C155.118 161.347 154.855 160.255 154.855 159.017C154.855 157.795 155.125 156.71 155.663 155.764C156.202 154.817 156.937 154.09 157.869 153.58C158.801 153.07 159.842 152.816 160.992 152.816C162.142 152.816 163.183 153.07 164.114 153.58C165.046 154.09 165.781 154.817 166.32 155.764C166.859 156.71 167.128 157.795 167.128 159.017C167.128 160.24 166.851 161.325 166.298 162.271C165.745 163.217 164.988 163.953 164.027 164.477C163.081 164.986 162.033 165.241 160.882 165.241ZM160.882 163.079C161.523 163.079 162.12 162.926 162.673 162.621C163.241 162.315 163.699 161.856 164.049 161.245C164.398 160.633 164.573 159.891 164.573 159.017C164.573 158.144 164.406 157.409 164.071 156.812C163.736 156.2 163.292 155.742 162.739 155.436C162.185 155.13 161.589 154.978 160.948 154.978C160.307 154.978 159.711 155.13 159.157 155.436C158.619 155.742 158.189 156.2 157.869 156.812C157.549 157.409 157.389 158.144 157.389 159.017C157.389 160.313 157.716 161.318 158.371 162.031C159.041 162.73 159.878 163.079 160.882 163.079ZM185.748 153.012L182.014 165.044H179.394L176.97 156.157L174.546 165.044H171.925L168.169 153.012H170.703L173.214 162.686L175.769 153.012H178.367L180.813 162.642L183.302 153.012H185.748ZM190.513 155.043V161.703C190.513 162.155 190.615 162.482 190.819 162.686C191.037 162.875 191.401 162.97 191.911 162.97H193.439V165.044H191.474C190.353 165.044 189.494 164.782 188.897 164.258C188.3 163.734 188.002 162.883 188.002 161.703V155.043H186.582V153.012H188.002V150.021H190.513V153.012H193.439V155.043H190.513ZM201.957 152.816C202.874 152.816 203.69 153.012 204.403 153.405C205.131 153.798 205.699 154.381 206.106 155.152C206.528 155.924 206.739 156.856 206.739 157.947V165.044H204.272V158.319C204.272 157.241 204.002 156.419 203.464 155.851C202.925 155.269 202.19 154.978 201.258 154.978C200.327 154.978 199.584 155.269 199.031 155.851C198.492 156.419 198.223 157.241 198.223 158.319V165.044H195.734V148.885H198.223V154.41C198.645 153.9 199.177 153.507 199.817 153.231C200.472 152.954 201.186 152.816 201.957 152.816ZM218.077 154.803C218.499 154.221 219.074 153.747 219.802 153.383C220.544 153.005 221.367 152.816 222.269 152.816C223.332 152.816 224.293 153.07 225.152 153.58C226.011 154.09 226.688 154.817 227.183 155.764C227.678 156.695 227.925 157.765 227.925 158.974C227.925 160.182 227.678 161.267 227.183 162.227C226.688 163.174 226.004 163.916 225.13 164.455C224.271 164.979 223.318 165.241 222.269 165.241C221.338 165.241 220.508 165.059 219.78 164.695C219.067 164.331 218.499 163.865 218.077 163.297V165.044H215.587V148.885H218.077V154.803ZM225.392 158.974C225.392 158.144 225.217 157.431 224.868 156.834C224.533 156.222 224.082 155.764 223.514 155.458C222.961 155.138 222.364 154.978 221.724 154.978C221.098 154.978 220.501 155.138 219.933 155.458C219.38 155.778 218.928 156.244 218.579 156.856C218.244 157.467 218.077 158.188 218.077 159.017C218.077 159.847 218.244 160.575 218.579 161.201C218.928 161.813 219.38 162.278 219.933 162.599C220.501 162.919 221.098 163.079 221.724 163.079C222.364 163.079 222.961 162.919 223.514 162.599C224.082 162.264 224.533 161.783 224.868 161.157C225.217 160.531 225.392 159.804 225.392 158.974ZM241.218 153.012L233.837 170.7H231.261L233.706 164.848L228.968 153.012H231.741L235.126 162.184L238.641 153.012H241.218ZM259.797 158.734C259.797 159.185 259.768 159.592 259.71 159.956H250.516C250.589 160.917 250.946 161.689 251.586 162.271C252.227 162.853 253.013 163.145 253.945 163.145C255.284 163.145 256.23 162.584 256.784 161.463H259.47C259.106 162.57 258.443 163.479 257.482 164.193C256.536 164.892 255.357 165.241 253.945 165.241C252.795 165.241 251.761 164.986 250.844 164.477C249.941 163.953 249.228 163.225 248.704 162.293C248.194 161.347 247.94 160.255 247.94 159.017C247.94 157.78 248.187 156.695 248.682 155.764C249.192 154.817 249.898 154.09 250.8 153.58C251.717 153.07 252.766 152.816 253.945 152.816C255.08 152.816 256.092 153.063 256.98 153.558C257.868 154.053 258.56 154.752 259.055 155.655C259.55 156.543 259.797 157.569 259.797 158.734ZM257.198 157.947C257.184 157.03 256.856 156.295 256.216 155.742C255.575 155.189 254.782 154.912 253.836 154.912C252.977 154.912 252.241 155.189 251.63 155.742C251.019 156.281 250.655 157.016 250.538 157.947H257.198ZM276.812 152.816C277.759 152.816 278.603 153.012 279.345 153.405C280.102 153.798 280.692 154.381 281.114 155.152C281.551 155.924 281.769 156.856 281.769 157.947V165.044H279.302V158.319C279.302 157.241 279.032 156.419 278.494 155.851C277.955 155.269 277.22 154.978 276.288 154.978C275.356 154.978 274.614 155.269 274.061 155.851C273.522 156.419 273.253 157.241 273.253 158.319V165.044H270.785V158.319C270.785 157.241 270.516 156.419 269.977 155.851C269.439 155.269 268.703 154.978 267.772 154.978C266.84 154.978 266.098 155.269 265.544 155.851C265.006 156.419 264.736 157.241 264.736 158.319V165.044H262.247V153.012H264.736V154.388C265.144 153.893 265.661 153.507 266.287 153.231C266.913 152.954 267.582 152.816 268.296 152.816C269.257 152.816 270.116 153.02 270.873 153.427C271.63 153.835 272.212 154.424 272.62 155.196C272.983 154.468 273.551 153.893 274.323 153.471C275.094 153.034 275.924 152.816 276.812 152.816ZM287.426 154.781C287.849 154.228 288.424 153.762 289.152 153.383C289.879 153.005 290.702 152.816 291.619 152.816C292.667 152.816 293.621 153.078 294.48 153.602C295.353 154.111 296.037 154.832 296.532 155.764C297.027 156.695 297.275 157.765 297.275 158.974C297.275 160.182 297.027 161.267 296.532 162.227C296.037 163.174 295.353 163.916 294.48 164.455C293.621 164.979 292.667 165.241 291.619 165.241C290.702 165.241 289.887 165.059 289.173 164.695C288.46 164.317 287.878 163.851 287.426 163.297V170.766H284.937V153.012H287.426V154.781ZM294.742 158.974C294.742 158.144 294.567 157.431 294.218 156.834C293.883 156.222 293.432 155.764 292.864 155.458C292.311 155.138 291.714 154.978 291.073 154.978C290.447 154.978 289.85 155.138 289.283 155.458C288.729 155.778 288.278 156.244 287.929 156.856C287.594 157.467 287.426 158.188 287.426 159.017C287.426 159.847 287.594 160.575 287.929 161.201C288.278 161.813 288.729 162.278 289.283 162.599C289.85 162.919 290.447 163.079 291.073 163.079C291.714 163.079 292.311 162.919 292.864 162.599C293.432 162.264 293.883 161.783 294.218 161.157C294.567 160.531 294.742 159.804 294.742 158.974ZM304.956 165.241C303.82 165.241 302.794 164.986 301.877 164.477C300.96 163.953 300.239 163.225 299.715 162.293C299.191 161.347 298.929 160.255 298.929 159.017C298.929 157.795 299.198 156.71 299.737 155.764C300.275 154.817 301.011 154.09 301.942 153.58C302.874 153.07 303.915 152.816 305.065 152.816C306.215 152.816 307.256 153.07 308.188 153.58C309.119 154.09 309.855 154.817 310.393 155.764C310.932 156.71 311.201 157.795 311.201 159.017C311.201 160.24 310.925 161.325 310.371 162.271C309.818 163.217 309.061 163.953 308.1 164.477C307.154 164.986 306.106 165.241 304.956 165.241ZM304.956 163.079C305.596 163.079 306.193 162.926 306.746 162.621C307.314 162.315 307.773 161.856 308.122 161.245C308.471 160.633 308.646 159.891 308.646 159.017C308.646 158.144 308.479 157.409 308.144 156.812C307.809 156.2 307.365 155.742 306.812 155.436C306.259 155.13 305.662 154.978 305.021 154.978C304.381 154.978 303.784 155.13 303.231 155.436C302.692 155.742 302.263 156.2 301.942 156.812C301.622 157.409 301.462 158.144 301.462 159.017C301.462 160.313 301.789 161.318 302.444 162.031C303.114 162.73 303.951 163.079 304.956 163.079ZM329.821 153.012L326.087 165.044H323.467L321.043 156.157L318.619 165.044H315.999L312.243 153.012H314.776L317.287 162.686L319.842 153.012H322.441L324.886 162.642L327.376 153.012H329.821ZM342.71 158.734C342.71 159.185 342.68 159.592 342.622 159.956H333.429C333.502 160.917 333.858 161.689 334.499 162.271C335.139 162.853 335.926 163.145 336.857 163.145C338.197 163.145 339.143 162.584 339.696 161.463H342.382C342.018 162.57 341.356 163.479 340.395 164.193C339.449 164.892 338.269 165.241 336.857 165.241C335.707 165.241 334.674 164.986 333.756 164.477C332.854 163.953 332.14 163.225 331.616 162.293C331.107 161.347 330.852 160.255 330.852 159.017C330.852 157.78 331.1 156.695 331.595 155.764C332.104 154.817 332.81 154.09 333.713 153.58C334.63 153.07 335.678 152.816 336.857 152.816C337.993 152.816 339.005 153.063 339.893 153.558C340.781 154.053 341.472 154.752 341.967 155.655C342.462 156.543 342.71 157.569 342.71 158.734ZM340.111 157.947C340.096 157.03 339.769 156.295 339.128 155.742C338.488 155.189 337.694 154.912 336.748 154.912C335.889 154.912 335.154 155.189 334.543 155.742C333.931 156.281 333.567 157.016 333.451 157.947H340.111ZM347.649 154.759C348.013 154.148 348.493 153.675 349.09 153.34C349.702 152.99 350.422 152.816 351.252 152.816V155.392H350.619C349.643 155.392 348.901 155.64 348.391 156.135C347.896 156.63 347.649 157.489 347.649 158.712V165.044H345.159V153.012H347.649V154.759ZM354.807 151.418C354.355 151.418 353.977 151.265 353.671 150.96C353.366 150.654 353.213 150.275 353.213 149.824C353.213 149.373 353.366 148.994 353.671 148.688C353.977 148.383 354.355 148.23 354.807 148.23C355.244 148.23 355.615 148.383 355.92 148.688C356.226 148.994 356.379 149.373 356.379 149.824C356.379 150.275 356.226 150.654 355.92 150.96C355.615 151.265 355.244 151.418 354.807 151.418ZM356.03 153.012V165.044H353.54V153.012H356.03ZM365.369 152.816C366.315 152.816 367.159 153.012 367.902 153.405C368.659 153.798 369.248 154.381 369.671 155.152C370.093 155.924 370.304 156.856 370.304 157.947V165.044H367.836V158.319C367.836 157.241 367.567 156.419 367.028 155.851C366.49 155.269 365.755 154.978 364.823 154.978C363.891 154.978 363.149 155.269 362.595 155.851C362.057 156.419 361.787 157.241 361.787 158.319V165.044H359.298V153.012H361.787V154.388C362.195 153.893 362.712 153.507 363.338 153.231C363.978 152.954 364.655 152.816 365.369 152.816ZM378.327 152.816C379.259 152.816 380.081 153.005 380.795 153.383C381.523 153.747 382.09 154.206 382.498 154.759V153.012H385.009V165.241C385.009 166.347 384.776 167.33 384.311 168.189C383.845 169.062 383.168 169.747 382.28 170.242C381.406 170.737 380.358 170.984 379.135 170.984C377.505 170.984 376.151 170.598 375.073 169.827C373.996 169.07 373.385 168.036 373.239 166.726H375.707C375.896 167.352 376.296 167.854 376.908 168.233C377.534 168.626 378.276 168.822 379.135 168.822C380.14 168.822 380.948 168.517 381.559 167.905C382.185 167.294 382.498 166.406 382.498 165.241V163.232C382.076 163.8 381.501 164.28 380.773 164.673C380.06 165.052 379.244 165.241 378.327 165.241C377.279 165.241 376.318 164.979 375.445 164.455C374.586 163.916 373.902 163.174 373.392 162.227C372.897 161.267 372.65 160.182 372.65 158.974C372.65 157.765 372.897 156.695 373.392 155.764C373.902 154.832 374.586 154.111 375.445 153.602C376.318 153.078 377.279 152.816 378.327 152.816ZM382.498 159.017C382.498 158.188 382.323 157.467 381.974 156.856C381.639 156.244 381.195 155.778 380.642 155.458C380.089 155.138 379.492 154.978 378.851 154.978C378.211 154.978 377.614 155.138 377.061 155.458C376.507 155.764 376.056 156.222 375.707 156.834C375.372 157.431 375.204 158.144 375.204 158.974C375.204 159.804 375.372 160.531 375.707 161.157C376.056 161.783 376.507 162.264 377.061 162.599C377.628 162.919 378.225 163.079 378.851 163.079C379.492 163.079 380.089 162.919 380.642 162.599C381.195 162.278 381.639 161.813 381.974 161.201C382.323 160.575 382.498 159.847 382.498 159.017ZM42.7931 185.043V191.703C42.7931 192.155 42.895 192.482 43.0988 192.686C43.3172 192.875 43.6811 192.97 44.1907 192.97H45.7192V195.044H43.7539C42.6329 195.044 41.774 194.782 41.1771 194.258C40.5803 193.734 40.2818 192.883 40.2818 191.703V185.043H38.8624V183.012H40.2818V180.021H42.7931V183.012H45.7192V185.043H42.7931ZM47.1839 188.974C47.1839 187.765 47.4313 186.695 47.9263 185.764C48.4359 184.832 49.1201 184.111 49.979 183.602C50.8525 183.078 51.8133 182.816 52.8615 182.816C53.8078 182.816 54.6303 183.005 55.3291 183.383C56.0424 183.747 56.6102 184.206 57.0324 184.759V183.012H59.5436V195.044H57.0324V193.254C56.6102 193.822 56.0351 194.295 55.3072 194.673C54.5793 195.052 53.7495 195.241 52.8178 195.241C51.7842 195.241 50.8379 194.979 49.979 194.455C49.1201 193.916 48.4359 193.174 47.9263 192.227C47.4313 191.267 47.1839 190.182 47.1839 188.974ZM57.0324 189.017C57.0324 188.188 56.8577 187.467 56.5083 186.856C56.1734 186.244 55.7294 185.778 55.1762 185.458C54.623 185.138 54.0261 184.978 53.3856 184.978C52.745 184.978 52.1481 185.138 51.5949 185.458C51.0417 185.764 50.5904 186.222 50.241 186.834C49.9062 187.431 49.7388 188.144 49.7388 188.974C49.7388 189.804 49.9062 190.531 50.241 191.157C50.5904 191.783 51.0417 192.264 51.5949 192.599C52.1627 192.919 52.7596 193.079 53.3856 193.079C54.0261 193.079 54.623 192.919 55.1762 192.599C55.7294 192.278 56.1734 191.813 56.5083 191.201C56.8577 190.575 57.0324 189.847 57.0324 189.017ZM65.3028 178.885V195.044H62.8134V178.885H65.3028ZM79.5989 188.734C79.5989 189.185 79.5698 189.592 79.5115 189.956H70.3182C70.3909 190.917 70.7476 191.689 71.3882 192.271C72.0287 192.853 72.8149 193.145 73.7466 193.145C75.0859 193.145 76.0322 192.584 76.5854 191.463H79.2713C78.9074 192.57 78.245 193.479 77.2842 194.193C76.3379 194.892 75.1587 195.241 73.7466 195.241C72.5965 195.241 71.5629 194.986 70.6457 194.477C69.7431 193.953 69.0298 193.225 68.5057 192.293C67.9961 191.347 67.7414 190.255 67.7414 189.017C67.7414 187.78 67.9889 186.695 68.4838 185.764C68.9934 184.817 69.6994 184.09 70.602 183.58C71.5192 183.07 72.5674 182.816 73.7466 182.816C74.8821 182.816 75.8939 183.063 76.7819 183.558C77.67 184.053 78.3615 184.752 78.8564 185.655C79.3514 186.543 79.5989 187.569 79.5989 188.734ZM77.0003 187.947C76.9857 187.03 76.6582 186.295 76.0176 185.742C75.3771 185.189 74.5837 184.912 73.6374 184.912C72.7785 184.912 72.0433 185.189 71.4318 185.742C70.8204 186.281 70.4565 187.016 70.34 187.947H77.0003ZM88.1194 182.816C89.0657 182.816 89.9101 183.012 90.6525 183.405C91.4095 183.798 91.9991 184.381 92.4213 185.152C92.8435 185.924 93.0546 186.856 93.0546 187.947V195.044H90.587V188.319C90.587 187.241 90.3177 186.419 89.779 185.851C89.2404 185.269 88.5052 184.978 87.5735 184.978C86.6418 184.978 85.8993 185.269 85.3461 185.851C84.8075 186.419 84.5382 187.241 84.5382 188.319V195.044H82.0487V183.012H84.5382V184.388C84.9458 183.893 85.4626 183.507 86.0886 183.231C86.7291 182.954 87.4061 182.816 88.1194 182.816ZM99.1343 185.043V191.703C99.1343 192.155 99.2362 192.482 99.4401 192.686C99.6584 192.875 100.022 192.97 100.532 192.97H102.061V195.044H100.095C98.9742 195.044 98.1153 194.782 97.5184 194.258C96.9215 193.734 96.6231 192.883 96.6231 191.703V185.043H95.2037V183.012H96.6231V180.021H99.1343V183.012H102.061V185.043H99.1343ZM112.932 185.043V191.703C112.932 192.155 113.034 192.482 113.237 192.686C113.456 192.875 113.82 192.97 114.329 192.97H115.858V195.044H113.893C112.772 195.044 111.913 194.782 111.316 194.258C110.719 193.734 110.421 192.883 110.421 191.703V185.043H109.001V183.012H110.421V180.021H112.932V183.012H115.858V185.043H112.932ZM123.371 195.241C122.236 195.241 121.21 194.986 120.292 194.477C119.375 193.953 118.655 193.225 118.131 192.293C117.606 191.347 117.344 190.255 117.344 189.017C117.344 187.795 117.614 186.71 118.152 185.764C118.691 184.817 119.426 184.09 120.358 183.58C121.29 183.07 122.331 182.816 123.481 182.816C124.631 182.816 125.672 183.07 126.603 183.58C127.535 184.09 128.27 184.817 128.809 185.764C129.347 186.71 129.617 187.795 129.617 189.017C129.617 190.24 129.34 191.325 128.787 192.271C128.234 193.217 127.477 193.953 126.516 194.477C125.57 194.986 124.521 195.241 123.371 195.241ZM123.371 193.079C124.012 193.079 124.609 192.926 125.162 192.621C125.73 192.315 126.188 191.856 126.538 191.245C126.887 190.633 127.062 189.891 127.062 189.017C127.062 188.144 126.894 187.409 126.56 186.812C126.225 186.2 125.781 185.742 125.228 185.436C124.674 185.13 124.077 184.978 123.437 184.978C122.796 184.978 122.199 185.13 121.646 185.436C121.108 185.742 120.678 186.2 120.358 186.812C120.038 187.409 119.877 188.144 119.877 189.017C119.877 190.313 120.205 191.318 120.86 192.031C121.53 192.73 122.367 193.079 123.371 193.079ZM140.24 184.759C140.604 184.148 141.084 183.675 141.681 183.34C142.292 182.99 143.013 182.816 143.843 182.816V185.392H143.209C142.234 185.392 141.492 185.64 140.982 186.135C140.487 186.63 140.24 187.489 140.24 188.712V195.044H137.75V183.012H140.24V184.759ZM157.159 188.734C157.159 189.185 157.13 189.592 157.071 189.956H147.878C147.951 190.917 148.307 191.689 148.948 192.271C149.589 192.853 150.375 193.145 151.306 193.145C152.646 193.145 153.592 192.584 154.145 191.463H156.831C156.467 192.57 155.805 193.479 154.844 194.193C153.898 194.892 152.719 195.241 151.306 195.241C150.156 195.241 149.123 194.986 148.206 194.477C147.303 193.953 146.59 193.225 146.066 192.293C145.556 191.347 145.301 190.255 145.301 189.017C145.301 187.78 145.549 186.695 146.044 185.764C146.553 184.817 147.259 184.09 148.162 183.58C149.079 183.07 150.127 182.816 151.306 182.816C152.442 182.816 153.454 183.063 154.342 183.558C155.23 184.053 155.921 184.752 156.416 185.655C156.911 186.543 157.159 187.569 157.159 188.734ZM154.56 187.947C154.546 187.03 154.218 186.295 153.577 185.742C152.937 185.189 152.144 184.912 151.197 184.912C150.338 184.912 149.603 185.189 148.992 185.742C148.38 186.281 148.016 187.016 147.9 187.947H154.56ZM158.779 188.974C158.779 187.765 159.026 186.695 159.521 185.764C160.031 184.832 160.715 184.111 161.574 183.602C162.447 183.078 163.408 182.816 164.456 182.816C165.403 182.816 166.225 183.005 166.924 183.383C167.637 183.747 168.205 184.206 168.627 184.759V183.012H171.139V195.044H168.627V193.254C168.205 193.822 167.63 194.295 166.902 194.673C166.174 195.052 165.344 195.241 164.413 195.241C163.379 195.241 162.433 194.979 161.574 194.455C160.715 193.916 160.031 193.174 159.521 192.227C159.026 191.267 158.779 190.182 158.779 188.974ZM168.627 189.017C168.627 188.188 168.453 187.467 168.103 186.856C167.768 186.244 167.324 185.778 166.771 185.458C166.218 185.138 165.621 184.978 164.981 184.978C164.34 184.978 163.743 185.138 163.19 185.458C162.637 185.764 162.185 186.222 161.836 186.834C161.501 187.431 161.334 188.144 161.334 188.974C161.334 189.804 161.501 190.531 161.836 191.157C162.185 191.783 162.637 192.264 163.19 192.599C163.758 192.919 164.355 193.079 164.981 193.079C165.621 193.079 166.218 192.919 166.771 192.599C167.324 192.278 167.768 191.813 168.103 191.201C168.453 190.575 168.627 189.847 168.627 189.017ZM173.579 189.017C173.579 187.78 173.826 186.695 174.321 185.764C174.83 184.817 175.529 184.09 176.417 183.58C177.305 183.07 178.324 182.816 179.475 182.816C180.93 182.816 182.131 183.165 183.078 183.864C184.038 184.548 184.686 185.531 185.021 186.812H182.335C182.117 186.215 181.767 185.749 181.287 185.414C180.807 185.079 180.202 184.912 179.475 184.912C178.455 184.912 177.64 185.276 177.029 186.004C176.432 186.717 176.133 187.722 176.133 189.017C176.133 190.313 176.432 191.325 177.029 192.053C177.64 192.781 178.455 193.145 179.475 193.145C180.916 193.145 181.869 192.511 182.335 191.245H185.021C184.672 192.468 184.017 193.443 183.056 194.171C182.095 194.884 180.901 195.241 179.475 195.241C178.324 195.241 177.305 194.986 176.417 194.477C175.529 193.953 174.83 193.225 174.321 192.293C173.826 191.347 173.579 190.255 173.579 189.017ZM193.726 182.816C194.643 182.816 195.458 183.012 196.171 183.405C196.899 183.798 197.467 184.381 197.875 185.152C198.297 185.924 198.508 186.856 198.508 187.947V195.044H196.04V188.319C196.04 187.241 195.771 186.419 195.232 185.851C194.694 185.269 193.958 184.978 193.027 184.978C192.095 184.978 191.353 185.269 190.799 185.851C190.261 186.419 189.991 187.241 189.991 188.319V195.044H187.502V178.885H189.991V184.41C190.414 183.9 190.945 183.507 191.586 183.231C192.241 182.954 192.954 182.816 193.726 182.816ZM210.26 185.043V191.703C210.26 192.155 210.362 192.482 210.566 192.686C210.784 192.875 211.148 192.97 211.658 192.97H213.186V195.044H211.221C210.1 195.044 209.241 194.782 208.644 194.258C208.047 193.734 207.749 192.883 207.749 191.703V185.043H206.329V183.012H207.749V180.021H210.26V183.012H213.186V185.043H210.26ZM221.704 182.816C222.621 182.816 223.437 183.012 224.15 183.405C224.878 183.798 225.446 184.381 225.853 185.152C226.275 185.924 226.487 186.856 226.487 187.947V195.044H224.019V188.319C224.019 187.241 223.75 186.419 223.211 185.851C222.672 185.269 221.937 184.978 221.005 184.978C220.074 184.978 219.331 185.269 218.778 185.851C218.239 186.419 217.97 187.241 217.97 188.319V195.044H215.481V178.885H217.97V184.41C218.392 183.9 218.924 183.507 219.564 183.231C220.219 182.954 220.933 182.816 221.704 182.816ZM240.69 188.734C240.69 189.185 240.661 189.592 240.602 189.956H231.409C231.482 190.917 231.838 191.689 232.479 192.271C233.12 192.853 233.906 193.145 234.837 193.145C236.177 193.145 237.123 192.584 237.676 191.463H240.362C239.998 192.57 239.336 193.479 238.375 194.193C237.429 194.892 236.249 195.241 234.837 195.241C233.687 195.241 232.654 194.986 231.736 194.477C230.834 193.953 230.121 193.225 229.596 192.293C229.087 191.347 228.832 190.255 228.832 189.017C228.832 187.78 229.08 186.695 229.575 185.764C230.084 184.817 230.79 184.09 231.693 183.58C232.61 183.07 233.658 182.816 234.837 182.816C235.973 182.816 236.985 183.063 237.873 183.558C238.761 184.053 239.452 184.752 239.947 185.655C240.442 186.543 240.69 187.569 240.69 188.734ZM238.091 187.947C238.077 187.03 237.749 186.295 237.108 185.742C236.468 185.189 235.674 184.912 234.728 184.912C233.869 184.912 233.134 185.189 232.523 185.742C231.911 186.281 231.547 187.016 231.431 187.947H238.091ZM244.406 181.418C243.955 181.418 243.576 181.265 243.271 180.96C242.965 180.654 242.812 180.275 242.812 179.824C242.812 179.373 242.965 178.994 243.271 178.688C243.576 178.383 243.955 178.23 244.406 178.23C244.843 178.23 245.214 178.383 245.52 178.688C245.825 178.994 245.978 179.373 245.978 179.824C245.978 180.275 245.825 180.654 245.52 180.96C245.214 181.265 244.843 181.418 244.406 181.418ZM245.629 183.012V195.044H243.14V183.012H245.629ZM251.387 184.759C251.751 184.148 252.231 183.675 252.828 183.34C253.439 182.99 254.16 182.816 254.99 182.816V185.392H254.357C253.381 185.392 252.639 185.64 252.129 186.135C251.634 186.63 251.387 187.489 251.387 188.712V195.044H248.897V183.012H251.387V184.759ZM267.995 185.043H265.768V195.044H263.256V185.043H261.837V183.012H263.256V182.161C263.256 180.778 263.62 179.773 264.348 179.147C265.091 178.507 266.248 178.186 267.82 178.186V180.261C267.063 180.261 266.532 180.406 266.226 180.698C265.921 180.974 265.768 181.462 265.768 182.161V183.012H267.995V185.043ZM281.098 183.012V195.044H278.608V193.625C278.215 194.12 277.699 194.513 277.058 194.804C276.432 195.081 275.762 195.219 275.049 195.219C274.103 195.219 273.251 195.023 272.494 194.63C271.752 194.236 271.162 193.654 270.725 192.883C270.303 192.111 270.092 191.179 270.092 190.087V183.012H272.56V189.716C272.56 190.793 272.829 191.623 273.368 192.206C273.906 192.773 274.641 193.057 275.573 193.057C276.505 193.057 277.24 192.773 277.779 192.206C278.332 191.623 278.608 190.793 278.608 189.716V183.012H281.098ZM286.872 178.885V195.044H284.383V178.885H286.872ZM292.63 178.885V195.044H290.14V178.885H292.63ZM42.3782 214.781C42.8004 214.228 43.3754 213.762 44.1033 213.383C44.8312 213.005 45.6537 212.816 46.5709 212.816C47.6191 212.816 48.5726 213.078 49.4315 213.602C50.305 214.111 50.9892 214.832 51.4842 215.764C51.9792 216.695 52.2267 217.765 52.2267 218.974C52.2267 220.182 51.9792 221.267 51.4842 222.227C50.9892 223.174 50.305 223.916 49.4315 224.455C48.5726 224.979 47.6191 225.241 46.5709 225.241C45.6537 225.241 44.8385 225.059 44.1251 224.695C43.4118 224.317 42.8295 223.851 42.3782 223.297V230.766H39.8888V213.012H42.3782V214.781ZM49.6936 218.974C49.6936 218.144 49.5189 217.431 49.1695 216.834C48.8347 216.222 48.3834 215.764 47.8156 215.458C47.2624 215.138 46.6655 214.978 46.025 214.978C45.399 214.978 44.8021 215.138 44.2343 215.458C43.6811 215.778 43.2298 216.244 42.8804 216.856C42.5456 217.467 42.3782 218.188 42.3782 219.017C42.3782 219.847 42.5456 220.575 42.8804 221.201C43.2298 221.813 43.6811 222.278 44.2343 222.599C44.8021 222.919 45.399 223.079 46.025 223.079C46.6655 223.079 47.2624 222.919 47.8156 222.599C48.3834 222.264 48.8347 221.783 49.1695 221.157C49.5189 220.531 49.6936 219.804 49.6936 218.974ZM59.9075 225.241C58.772 225.241 57.7456 224.986 56.8285 224.477C55.9113 223.953 55.1907 223.225 54.6666 222.293C54.1425 221.347 53.8805 220.255 53.8805 219.017C53.8805 217.795 54.1498 216.71 54.6885 215.764C55.2271 214.817 55.9623 214.09 56.894 213.58C57.8257 213.07 58.8666 212.816 60.0167 212.816C61.1668 212.816 62.2077 213.07 63.1394 213.58C64.0711 214.09 64.8063 214.817 65.3449 215.764C65.8836 216.71 66.1529 217.795 66.1529 219.017C66.1529 220.24 65.8763 221.325 65.3231 222.271C64.7699 223.217 64.0129 223.953 63.0521 224.477C62.1058 224.986 61.0576 225.241 59.9075 225.241ZM59.9075 223.079C60.5481 223.079 61.1449 222.926 61.6982 222.621C62.2659 222.315 62.7245 221.856 63.0739 221.245C63.4233 220.633 63.598 219.891 63.598 219.017C63.598 218.144 63.4306 217.409 63.0957 216.812C62.7609 216.2 62.3169 215.742 61.7637 215.436C61.2105 215.13 60.6136 214.978 59.973 214.978C59.3325 214.978 58.7356 215.13 58.1824 215.436C57.6437 215.742 57.2143 216.2 56.894 216.812C56.5737 217.409 56.4136 218.144 56.4136 219.017C56.4136 220.313 56.7411 221.318 57.3963 222.031C58.0659 222.73 58.903 223.079 59.9075 223.079ZM71.5182 215.043V221.703C71.5182 222.155 71.6201 222.482 71.8239 222.686C72.0423 222.875 72.4062 222.97 72.9157 222.97H74.4443V225.044H72.479C71.358 225.044 70.4991 224.782 69.9022 224.258C69.3053 223.734 69.0069 222.883 69.0069 221.703V215.043H67.5875V213.012H69.0069V210.021H71.5182V213.012H74.4443V215.043H71.5182ZM87.7665 218.734C87.7665 219.185 87.7373 219.592 87.6791 219.956H78.4857C78.5585 220.917 78.9152 221.689 79.5557 222.271C80.1963 222.853 80.9824 223.145 81.9141 223.145C83.2535 223.145 84.1997 222.584 84.7529 221.463H87.4389C87.075 222.57 86.4126 223.479 85.4517 224.193C84.5055 224.892 83.3263 225.241 81.9141 225.241C80.764 225.241 79.7304 224.986 78.8133 224.477C77.9107 223.953 77.1973 223.225 76.6732 222.293C76.1637 221.347 75.9089 220.255 75.9089 219.017C75.9089 217.78 76.1564 216.695 76.6514 215.764C77.1609 214.817 77.867 214.09 78.7696 213.58C79.6868 213.07 80.7349 212.816 81.9141 212.816C83.0497 212.816 84.0614 213.063 84.9495 213.558C85.8375 214.053 86.529 214.752 87.024 215.655C87.519 216.543 87.7665 217.569 87.7665 218.734ZM85.1678 217.947C85.1533 217.03 84.8257 216.295 84.1852 215.742C83.5446 215.189 82.7512 214.912 81.8049 214.912C80.946 214.912 80.2108 215.189 79.5994 215.742C78.988 216.281 78.624 217.016 78.5076 217.947H85.1678ZM96.287 212.816C97.2333 212.816 98.0776 213.012 98.8201 213.405C99.5771 213.798 100.167 214.381 100.589 215.152C101.011 215.924 101.222 216.856 101.222 217.947V225.044H98.7546V218.319C98.7546 217.241 98.4853 216.419 97.9466 215.851C97.408 215.269 96.6728 214.978 95.7411 214.978C94.8094 214.978 94.0669 215.269 93.5137 215.851C92.975 216.419 92.7057 217.241 92.7057 218.319V225.044H90.2163V213.012H92.7057V214.388C93.1133 213.893 93.6302 213.507 94.2562 213.231C94.8967 212.954 95.5737 212.816 96.287 212.816ZM107.302 215.043V221.703C107.302 222.155 107.404 222.482 107.608 222.686C107.826 222.875 108.19 222.97 108.699 222.97H110.228V225.044H108.263C107.142 225.044 106.283 224.782 105.686 224.258C105.089 223.734 104.791 222.883 104.791 221.703V215.043H103.371V213.012H104.791V210.021H107.302V213.012H110.228V215.043H107.302ZM113.789 211.418C113.338 211.418 112.959 211.265 112.654 210.96C112.348 210.654 112.195 210.275 112.195 209.824C112.195 209.373 112.348 208.994 112.654 208.688C112.959 208.383 113.338 208.23 113.789 208.23C114.226 208.23 114.597 208.383 114.903 208.688C115.208 208.994 115.361 209.373 115.361 209.824C115.361 210.275 115.208 210.654 114.903 210.96C114.597 211.265 114.226 211.418 113.789 211.418ZM115.012 213.012V225.044H112.522V213.012H115.012ZM117.45 218.974C117.45 217.765 117.698 216.695 118.193 215.764C118.702 214.832 119.387 214.111 120.246 213.602C121.119 213.078 122.08 212.816 123.128 212.816C124.074 212.816 124.897 213.005 125.596 213.383C126.309 213.747 126.877 214.206 127.299 214.759V213.012H129.81V225.044H127.299V223.254C126.877 223.822 126.302 224.295 125.574 224.673C124.846 225.052 124.016 225.241 123.084 225.241C122.051 225.241 121.105 224.979 120.246 224.455C119.387 223.916 118.702 223.174 118.193 222.227C117.698 221.267 117.45 220.182 117.45 218.974ZM127.299 219.017C127.299 218.188 127.124 217.467 126.775 216.856C126.44 216.244 125.996 215.778 125.443 215.458C124.89 215.138 124.293 214.978 123.652 214.978C123.012 214.978 122.415 215.138 121.862 215.458C121.308 215.764 120.857 216.222 120.508 216.834C120.173 217.431 120.005 218.144 120.005 218.974C120.005 219.804 120.173 220.531 120.508 221.157C120.857 221.783 121.308 222.264 121.862 222.599C122.429 222.919 123.026 223.079 123.652 223.079C124.293 223.079 124.89 222.919 125.443 222.599C125.996 222.278 126.44 221.813 126.775 221.201C127.124 220.575 127.299 219.847 127.299 219.017ZM135.569 208.885V225.044H133.08V208.885H135.569Z" fill="white" fill-opacity="0.66"/>
<rect x="403.668" y="31.2139" width="94.8546" height="53.2278" rx="26.6139" fill="url(#paint4_radial_1259_1243)"/>
<rect x="404.35" y="31.8963" width="93.4898" height="51.863" rx="25.9315" stroke="url(#paint5_linear_1259_1243)" stroke-opacity="0.3" stroke-width="1.36481"/>
<path d="M427.872 66.2773V52.8557H430.911V66.2773H427.872ZM422.687 61.0926V58.0404H436.096V61.0926H422.687ZM447.145 47.5911V67.4502H443.573V51.0964H443.453L438.814 54.0686V50.7632L443.746 47.5911H447.145ZM457.647 47.5911V67.4502H454.075V51.0964H453.955L449.317 54.0686V50.7632L454.249 47.5911H457.647ZM470.962 63.7183V62.6787C470.962 61.9056 471.122 61.1948 471.442 60.5462C471.762 59.8975 472.237 59.3777 472.868 58.9867C473.499 58.5958 474.263 58.4003 475.161 58.4003C476.076 58.4003 476.844 58.5958 477.466 58.9867C478.088 59.3777 478.555 59.8975 478.866 60.5462C479.186 61.1859 479.346 61.8967 479.346 62.6787V63.7183C479.346 64.4913 479.186 65.2022 478.866 65.8508C478.546 66.4994 478.075 67.0192 477.453 67.4102C476.831 67.8012 476.067 67.9967 475.161 67.9967C474.254 67.9967 473.486 67.8012 472.855 67.4102C472.224 67.0192 471.749 66.4994 471.429 65.8508C471.118 65.2022 470.962 64.4913 470.962 63.7183ZM473.481 62.6787V63.7183C473.481 64.2336 473.606 64.7046 473.855 65.1311C474.103 65.5576 474.539 65.7708 475.161 65.7708C475.774 65.7708 476.2 65.5576 476.44 65.1311C476.68 64.7046 476.8 64.2336 476.8 63.7183V62.6787C476.8 62.1633 476.685 61.6924 476.454 61.2659C476.231 60.8394 475.8 60.6261 475.161 60.6261C474.548 60.6261 474.112 60.8394 473.855 61.2659C473.606 61.6924 473.481 62.1633 473.481 62.6787ZM460.873 52.3626V51.323C460.873 50.5411 461.037 49.8302 461.366 49.1905C461.695 48.5418 462.17 48.022 462.792 47.6311C463.414 47.2401 464.169 47.0446 465.058 47.0446C465.982 47.0446 466.755 47.2401 467.377 47.6311C467.999 48.022 468.47 48.5418 468.79 49.1905C469.11 49.8302 469.265 50.5411 469.256 51.323V52.3626C469.265 53.1356 469.105 53.8465 468.776 54.4951C468.448 55.1438 467.972 55.6636 467.35 56.0545C466.728 56.4366 465.964 56.6276 465.058 56.6276C464.152 56.6276 463.387 56.4322 462.765 56.0412C462.143 55.6502 461.672 55.1304 461.353 54.4818C461.033 53.8331 460.873 53.1267 460.873 52.3626ZM463.418 51.323V52.3626C463.418 52.878 463.538 53.3489 463.778 53.7754C464.018 54.2019 464.445 54.4107 465.058 54.4018C465.689 54.4107 466.12 54.2019 466.351 53.7754C466.591 53.3489 466.711 52.878 466.711 52.3626V51.323C466.711 50.8076 466.595 50.3367 466.364 49.9102C466.142 49.4748 465.706 49.2571 465.058 49.2571C464.454 49.2571 464.027 49.4748 463.778 49.9102C463.538 50.3456 463.418 50.8165 463.418 51.323ZM461.966 67.4502L475.614 47.5911H478.053L464.405 67.4502H461.966Z" fill="#222222"/>
<path d="M41.938 342.297H65.6899C68.8054 342.297 71.331 344.822 71.331 347.938V413.703H36.2969V347.938C36.2969 344.823 38.8225 342.297 41.938 342.297Z" fill="url(#paint6_linear_1259_1243)" fill-opacity="0.25" stroke="url(#paint7_linear_1259_1243)" stroke-width="0.593799"/>
<path d="M94.1924 328.297H117.944C121.06 328.297 123.585 330.822 123.585 333.938V413.703H88.5513V333.938C88.5513 330.823 91.0769 328.297 94.1924 328.297Z" fill="url(#paint8_linear_1259_1243)" fill-opacity="0.25" stroke="url(#paint9_linear_1259_1243)" stroke-width="0.593799"/>
<path d="M146.447 314.297H170.198C173.314 314.297 175.84 316.822 175.84 319.938V413.703H140.805V319.938C140.805 316.823 143.331 314.297 146.447 314.297Z" fill="url(#paint10_linear_1259_1243)" fill-opacity="0.25" stroke="url(#paint11_linear_1259_1243)" stroke-width="0.593799"/>
<path d="M198.701 299.297H222.453C225.568 299.297 228.094 301.822 228.094 304.938V413.703H193.06V304.938C193.06 301.823 195.585 299.297 198.701 299.297Z" fill="url(#paint12_linear_1259_1243)" fill-opacity="0.25" stroke="url(#paint13_linear_1259_1243)" stroke-width="0.593799"/>
<path d="M250.955 281.297H274.707C277.823 281.297 280.348 283.822 280.348 286.938V413.703H245.314V286.938C245.314 283.822 247.84 281.297 250.955 281.297Z" fill="url(#paint14_linear_1259_1243)" fill-opacity="0.25" stroke="url(#paint15_linear_1259_1243)" stroke-width="0.593799"/>
<path d="M303.209 257.297H326.961C330.077 257.297 332.603 259.822 332.603 262.938V413.703H297.568V262.938C297.568 259.823 300.094 257.297 303.209 257.297Z" fill="url(#paint16_linear_1259_1243)" fill-opacity="0.25" stroke="url(#paint17_linear_1259_1243)" stroke-width="0.593799"/>
<path d="M355.464 240.297H379.216C382.331 240.297 384.857 242.822 384.857 245.938V413.703H349.823V245.938C349.823 242.822 352.348 240.297 355.464 240.297Z" fill="url(#paint18_linear_1259_1243)" fill-opacity="0.25" stroke="url(#paint19_linear_1259_1243)" stroke-width="0.593799"/>
<path d="M407.718 220.297H431.47C434.585 220.297 437.111 222.822 437.111 225.938V413.703H402.077V225.938C402.077 222.823 404.602 220.297 407.718 220.297Z" fill="url(#paint20_linear_1259_1243)" fill-opacity="0.25" stroke="url(#paint21_linear_1259_1243)" stroke-width="0.593799"/>
<path d="M459.972 182.297H483.724C486.84 182.297 489.365 184.822 489.365 187.938V413.703H454.331V187.938C454.331 184.823 456.857 182.297 459.972 182.297Z" fill="url(#paint22_linear_1259_1243)" fill-opacity="0.25" stroke="url(#paint23_linear_1259_1243)" stroke-width="0.593799"/>
<path d="M14 314C98.8333 304.167 306.8 257.1 460 147.5" stroke="white" stroke-width="2.5"/>
<g clip-path="url(#clip0_1259_1243)">
<path d="M465.225 150.727L472.662 138.491L458.75 141.885L462.675 144.736L459.64 146.959L460.659 148.348L463.694 146.128L465.225 150.727Z" fill="white"/>
<mask id="mask0_1259_1243" style="mask-type:luminance" maskUnits="userSpaceOnUse" x="457" y="138" width="19" height="15">
<path d="M472.97 138.001L475.564 148.634L460.526 152.302L457.932 141.67L472.97 138.001Z" fill="white"/>
</mask>
<g mask="url(#mask0_1259_1243)">
<path d="M458.813 147.045C458.775 146.893 458.831 146.724 458.965 146.624L461.557 144.729L458.079 142.203C457.954 142.111 457.893 141.952 457.92 141.8C457.95 141.648 458.069 141.526 458.221 141.489L472.133 138.095C472.287 138.054 472.453 138.113 472.55 138.245C472.646 138.376 472.653 138.551 472.568 138.691L465.131 150.927C465.051 151.059 464.899 151.135 464.743 151.118C464.588 151.101 464.455 150.995 464.406 150.846L463.05 146.768L460.458 148.664C460.37 148.727 460.264 148.753 460.16 148.737C460.056 148.72 459.961 148.663 459.898 148.575L458.879 147.183C458.846 147.143 458.824 147.093 458.813 147.045ZM462.632 144.631C462.639 144.661 462.644 144.692 462.642 144.725C462.641 144.854 462.581 144.975 462.476 145.049L459.764 147.035L460.306 147.776L463.022 145.792C463.125 145.716 463.259 145.696 463.381 145.734C463.503 145.772 463.601 145.867 463.64 145.99L464.897 149.766L471.38 139.104L459.256 142.061L462.479 144.401C462.554 144.456 462.61 144.54 462.632 144.631Z" fill="white"/>
</g>
<mask id="mask1_1259_1243" style="mask-type:luminance" maskUnits="userSpaceOnUse" x="457" y="138" width="19" height="15">
<path d="M472.97 138.001L475.564 148.634L460.526 152.302L457.932 141.67L472.97 138.001Z" fill="white"/>
</mask>
<g mask="url(#mask1_1259_1243)">
<path d="M458.813 147.045C458.775 146.893 458.831 146.724 458.965 146.624L461.557 144.729L458.079 142.203C457.954 142.111 457.893 141.952 457.92 141.8C457.95 141.648 458.069 141.526 458.221 141.489L472.133 138.095C472.287 138.054 472.453 138.113 472.55 138.245C472.646 138.376 472.653 138.551 472.568 138.691L465.131 150.927C465.051 151.059 464.899 151.135 464.743 151.118C464.588 151.101 464.455 150.995 464.406 150.846L463.05 146.768L460.458 148.664C460.37 148.727 460.264 148.753 460.16 148.737C460.056 148.72 459.961 148.663 459.898 148.575L458.879 147.183C458.846 147.143 458.824 147.093 458.813 147.045ZM462.632 144.631C462.639 144.661 462.644 144.692 462.642 144.725C462.641 144.854 462.581 144.975 462.476 145.049L459.764 147.035L460.306 147.776L463.022 145.792C463.125 145.716 463.259 145.696 463.381 145.734C463.503 145.772 463.601 145.867 463.64 145.99L464.897 149.766L471.38 139.104L459.256 142.061L462.479 144.401C462.554 144.456 462.61 144.54 462.632 144.631Z" fill="white"/>
</g>
</g>
<defs>
<linearGradient id="paint0_linear_1259_1243" x1="0" y1="220.759" x2="525.454" y2="220.759" gradientUnits="userSpaceOnUse">
<stop stop-color="#CC2B5E"/>
<stop offset="1" stop-color="#753A88"/>
</linearGradient>
<linearGradient id="paint1_linear_1259_1243" x1="-3.15199e-07" y1="16.2152" x2="593.632" y2="200.065" gradientUnits="userSpaceOnUse">
<stop stop-color="#7A3A86"/>
<stop offset="0.325893" stop-color="#90357B"/>
<stop offset="0.695684" stop-color="#B22F6B"/>
<stop offset="1" stop-color="#C52C60"/>
</linearGradient>
<linearGradient id="paint2_linear_1259_1243" x1="0" y1="220.759" x2="525.454" y2="220.759" gradientUnits="userSpaceOnUse">
<stop stop-color="#CC2B5E"/>
<stop offset="1" stop-color="#753A88"/>
</linearGradient>
<linearGradient id="paint3_linear_1259_1243" x1="-3.15199e-07" y1="16.2152" x2="593.632" y2="200.065" gradientUnits="userSpaceOnUse">
<stop stop-color="#7A3A86"/>
<stop offset="0.325893" stop-color="#90357B"/>
<stop offset="0.695684" stop-color="#B22F6B"/>
<stop offset="1" stop-color="#C52C60"/>
</linearGradient>
<radialGradient id="paint4_radial_1259_1243" cx="0" cy="0" r="1" gradientUnits="userSpaceOnUse" gradientTransform="translate(409.085 7.72422) rotate(41.4119) scale(108.896 119.879)">
<stop stop-color="white"/>
<stop offset="1" stop-color="white" stop-opacity="0.27"/>
</radialGradient>
<linearGradient id="paint5_linear_1259_1243" x1="403.668" y1="33.1687" x2="500.322" y2="77.9918" gradientUnits="userSpaceOnUse">
<stop stop-color="#222222"/>
<stop offset="0.325893" stop-color="#222222" stop-opacity="0.256139"/>
<stop offset="0.695684" stop-color="#222222" stop-opacity="0.735087"/>
<stop offset="1" stop-color="#222222" stop-opacity="0.07"/>
</linearGradient>
<linearGradient id="paint6_linear_1259_1243" x1="53.814" y1="342" x2="53.814" y2="414" gradientUnits="userSpaceOnUse">
<stop stop-color="white"/>
<stop offset="1" stop-color="white" stop-opacity="0"/>
</linearGradient>
<linearGradient id="paint7_linear_1259_1243" x1="53.814" y1="342" x2="53.814" y2="414" gradientUnits="userSpaceOnUse">
<stop stop-color="white"/>
<stop offset="1" stop-color="white" stop-opacity="0.07"/>
</linearGradient>
<linearGradient id="paint8_linear_1259_1243" x1="106.068" y1="328" x2="106.068" y2="414" gradientUnits="userSpaceOnUse">
<stop stop-color="white"/>
<stop offset="1" stop-color="white" stop-opacity="0"/>
</linearGradient>
<linearGradient id="paint9_linear_1259_1243" x1="106.068" y1="328" x2="106.068" y2="414" gradientUnits="userSpaceOnUse">
<stop stop-color="white"/>
<stop offset="1" stop-color="white" stop-opacity="0.07"/>
</linearGradient>
<linearGradient id="paint10_linear_1259_1243" x1="158.323" y1="314" x2="158.323" y2="414" gradientUnits="userSpaceOnUse">
<stop stop-color="white"/>
<stop offset="1" stop-color="white" stop-opacity="0"/>
</linearGradient>
<linearGradient id="paint11_linear_1259_1243" x1="158.323" y1="314" x2="158.323" y2="414" gradientUnits="userSpaceOnUse">
<stop stop-color="white"/>
<stop offset="1" stop-color="white" stop-opacity="0.07"/>
</linearGradient>
<linearGradient id="paint12_linear_1259_1243" x1="210.577" y1="299" x2="210.577" y2="414" gradientUnits="userSpaceOnUse">
<stop stop-color="white"/>
<stop offset="1" stop-color="white" stop-opacity="0"/>
</linearGradient>
<linearGradient id="paint13_linear_1259_1243" x1="210.577" y1="299" x2="210.577" y2="414" gradientUnits="userSpaceOnUse">
<stop stop-color="white"/>
<stop offset="1" stop-color="white" stop-opacity="0.07"/>
</linearGradient>
<linearGradient id="paint14_linear_1259_1243" x1="262.831" y1="281" x2="262.831" y2="414" gradientUnits="userSpaceOnUse">
<stop stop-color="white"/>
<stop offset="1" stop-color="white" stop-opacity="0"/>
</linearGradient>
<linearGradient id="paint15_linear_1259_1243" x1="262.831" y1="281" x2="262.831" y2="414" gradientUnits="userSpaceOnUse">
<stop stop-color="white"/>
<stop offset="1" stop-color="white" stop-opacity="0.07"/>
</linearGradient>
<linearGradient id="paint16_linear_1259_1243" x1="315.085" y1="257" x2="315.085" y2="414" gradientUnits="userSpaceOnUse">
<stop stop-color="white"/>
<stop offset="1" stop-color="white" stop-opacity="0"/>
</linearGradient>
<linearGradient id="paint17_linear_1259_1243" x1="315.085" y1="257" x2="315.085" y2="414" gradientUnits="userSpaceOnUse">
<stop stop-color="white"/>
<stop offset="1" stop-color="white" stop-opacity="0.07"/>
</linearGradient>
<linearGradient id="paint18_linear_1259_1243" x1="367.34" y1="240" x2="367.34" y2="414" gradientUnits="userSpaceOnUse">
<stop stop-color="white"/>
<stop offset="1" stop-color="white" stop-opacity="0"/>
</linearGradient>
<linearGradient id="paint19_linear_1259_1243" x1="367.34" y1="240" x2="367.34" y2="414" gradientUnits="userSpaceOnUse">
<stop stop-color="white"/>
<stop offset="1" stop-color="white" stop-opacity="0.07"/>
</linearGradient>
<linearGradient id="paint20_linear_1259_1243" x1="419.594" y1="220" x2="419.594" y2="414" gradientUnits="userSpaceOnUse">
<stop stop-color="white"/>
<stop offset="1" stop-color="white" stop-opacity="0"/>
</linearGradient>
<linearGradient id="paint21_linear_1259_1243" x1="419.594" y1="220" x2="419.594" y2="414" gradientUnits="userSpaceOnUse">
<stop stop-color="white"/>
<stop offset="1" stop-color="white" stop-opacity="0.07"/>
</linearGradient>
<linearGradient id="paint22_linear_1259_1243" x1="471.848" y1="182" x2="471.848" y2="414" gradientUnits="userSpaceOnUse">
<stop stop-color="white"/>
<stop offset="1" stop-color="white" stop-opacity="0"/>
</linearGradient>
<linearGradient id="paint23_linear_1259_1243" x1="471.848" y1="182" x2="471.848" y2="414" gradientUnits="userSpaceOnUse">
<stop stop-color="white"/>
<stop offset="1" stop-color="white" stop-opacity="0.07"/>
</linearGradient>
<clipPath id="clip0_1259_1243">
<rect width="16.7017" height="16.7017" fill="white" transform="translate(472.726 135) rotate(76.2912)"/>
</clipPath>
</defs>
</svg>
