<svg width="607" height="78" viewBox="0 0 607 78" fill="none" xmlns="http://www.w3.org/2000/svg">
<mask id="path-1-outside-1_78_756" maskUnits="userSpaceOnUse" x="-1" y="0" width="609" height="79" fill="black">
<rect fill="white" x="-1" width="609" height="79"/>
<path d="M65.399 76H43.9211L29.8966 51.6779H19.6971V76H0.278616V2.4453H31.3677C37.7425 2.4453 43.1692 3.40968 47.6478 5.33845C52.1265 7.26722 55.5427 10.0786 57.8965 13.7727C60.2829 17.4341 61.4761 21.8637 61.4761 27.0616C61.4761 31.9326 60.43 36.1334 58.3378 39.664C56.2456 43.1946 53.2217 45.9733 49.266 48.0002L65.399 76ZM19.6971 36.7218H29.8476C33.7378 36.7218 36.6637 36.0026 38.6251 34.5642C40.6193 33.0931 41.6164 30.9191 41.6164 28.0423C41.6164 25.1655 40.6193 23.0079 38.6251 21.5695C36.6637 20.0984 33.7378 19.3629 29.8476 19.3629H19.6971V36.7218ZM71.2834 76V2.4453H120.32V19.3629H90.7019V30.7393H118.358V47.6569H90.7019V59.0824H120.81V76H71.2834ZM126.204 67.5657L135.325 52.7567C137.711 54.6201 139.934 56.1402 141.994 57.3171C144.086 58.494 146.113 59.3603 148.075 59.916C150.069 60.4391 152.096 60.7006 154.155 60.7006C156.182 60.7006 157.915 60.4718 159.353 60.0141C160.791 59.5237 161.886 58.8372 162.638 57.9546C163.423 57.0392 163.815 55.9604 163.815 54.7182C163.815 53.149 163.259 51.8087 162.148 50.6972C161.037 49.5857 159.549 48.5886 157.686 47.706C155.855 46.8233 153.844 45.9406 151.654 45.058C149.3 44.1099 146.898 43.0638 144.446 41.9197C141.994 40.7428 139.738 39.3207 137.679 37.6535C135.619 35.9862 133.952 33.9594 132.677 31.573C131.402 29.1538 130.765 26.2116 130.765 22.7464C130.765 18.1697 131.909 14.2631 134.197 11.0267C136.518 7.75758 139.673 5.27307 143.661 3.57313C147.682 1.84051 152.226 0.974202 157.293 0.974202C160.987 0.974202 164.894 1.46457 169.013 2.4453C173.132 3.42603 177.3 4.9625 181.517 7.05472L173.966 22.6483C171.612 21.2099 169.029 20.0657 166.218 19.2158C163.439 18.3331 160.889 17.8918 158.568 17.8918C156.966 17.8918 155.561 18.1043 154.351 18.5293C153.174 18.9542 152.259 19.5754 151.605 20.3926C150.951 21.1772 150.624 22.1089 150.624 23.1877C150.624 24.6261 151.18 25.9011 152.292 27.0126C153.403 28.0914 154.874 29.0884 156.705 30.0038C158.536 30.9191 160.53 31.8508 162.687 32.7989C165.041 33.8123 167.444 34.9401 169.896 36.1824C172.38 37.4246 174.652 38.8957 176.712 40.5957C178.804 42.2956 180.488 44.3388 181.763 46.7252C183.038 49.079 183.675 51.9067 183.675 55.2085C183.675 59.6218 182.465 63.512 180.046 66.8792C177.66 70.2137 174.309 72.8126 169.994 74.676C165.711 76.5394 160.726 77.4711 155.038 77.4711C149.742 77.4711 144.642 76.6211 139.738 74.9212C134.835 73.2213 130.323 70.7694 126.204 67.5657ZM228.102 77.4711C222.479 77.4711 217.281 76.5231 212.508 74.627C207.768 72.6982 203.633 70.0176 200.102 66.585C196.604 63.1198 193.891 59.0661 191.962 54.424C190.033 49.7818 189.069 44.7147 189.069 39.2226C189.069 33.7306 190.033 28.6635 191.962 24.0213C193.891 19.3792 196.604 15.3419 200.102 11.9093C203.633 8.44409 207.768 5.76343 212.508 3.86735C217.281 1.93859 222.479 0.974202 228.102 0.974202C233.758 0.974202 238.955 1.93859 243.696 3.86735C248.436 5.76343 252.539 8.44409 256.004 11.9093C259.502 15.3419 262.215 19.3792 264.144 24.0213C266.073 28.6635 267.037 33.7306 267.037 39.2226C267.037 44.7147 266.073 49.7818 264.144 54.424C262.215 59.0661 259.502 63.1198 256.004 66.585C252.539 70.0176 248.436 72.6982 243.696 74.627C238.955 76.5231 233.758 77.4711 228.102 77.4711ZM228.102 60.5535C230.815 60.5535 233.333 60.0141 235.654 58.9353C237.975 57.8565 239.985 56.3527 241.685 54.424C243.418 52.4625 244.758 50.1905 245.706 47.6079C246.687 45.0253 247.177 42.2302 247.177 39.2226C247.177 36.2151 246.687 33.42 245.706 30.8374C244.758 28.2548 243.418 25.9991 241.685 24.0704C239.985 22.1089 237.975 20.5888 235.654 19.51C233.333 18.4312 230.815 17.8918 228.102 17.8918C225.389 17.8918 222.855 18.4312 220.501 19.51C218.18 20.5888 216.153 22.1089 214.421 24.0704C212.688 25.9991 211.332 28.2548 210.351 30.8374C209.403 33.42 208.929 36.2151 208.929 39.2226C208.929 42.2302 209.403 45.0253 210.351 47.6079C211.332 50.1905 212.688 52.4625 214.421 54.424C216.153 56.3527 218.18 57.8565 220.501 58.9353C222.855 60.0141 225.389 60.5535 228.102 60.5535ZM340.788 2.4453V42.8023C340.788 49.9943 339.464 56.1893 336.816 61.3871C334.201 66.5523 330.425 70.5243 325.488 73.303C320.585 76.0817 314.7 77.4711 307.835 77.4711C301.003 77.4711 295.119 76.0817 290.182 73.303C285.246 70.5243 281.454 66.5523 278.806 61.3871C276.19 56.1893 274.883 49.9943 274.883 42.8023V2.4453H294.301V40.1543C294.301 44.8292 294.775 48.6703 295.723 51.6779C296.704 54.6855 298.192 56.9248 300.186 58.3959C302.18 59.8343 304.73 60.5535 307.835 60.5535C310.941 60.5535 313.491 59.8343 315.485 58.3959C317.479 56.9248 318.95 54.6855 319.898 51.6779C320.879 48.6703 321.369 44.8292 321.369 40.1543V2.4453H340.788ZM415.716 76H394.238L380.213 51.6779H370.014V76H350.595V2.4453H381.684C388.059 2.4453 393.486 3.40968 397.964 5.33845C402.443 7.26722 405.859 10.0786 408.213 13.7727C410.599 17.4341 411.793 21.8637 411.793 27.0616C411.793 31.9326 410.747 36.1334 408.654 39.664C406.562 43.1946 403.538 45.9733 399.583 48.0002L415.716 76ZM370.014 36.7218H380.164C384.054 36.7218 386.98 36.0026 388.942 34.5642C390.936 33.0931 391.933 30.9191 391.933 28.0423C391.933 25.1655 390.936 23.0079 388.942 21.5695C386.98 20.0984 384.054 19.3629 380.164 19.3629H370.014V36.7218ZM486.377 66.8792C482.912 70.2137 478.809 72.8126 474.069 74.676C469.361 76.5394 464.229 77.4711 458.672 77.4711C453.081 77.4711 447.9 76.5231 443.127 74.627C438.387 72.6982 434.251 70.0176 430.721 66.585C427.223 63.1198 424.493 59.0661 422.532 54.424C420.603 49.7818 419.639 44.7147 419.639 39.2226C419.639 33.7306 420.603 28.6635 422.532 24.0213C424.493 19.3792 427.223 15.3419 430.721 11.9093C434.251 8.44409 438.387 5.76343 443.127 3.86735C447.9 1.93859 453.081 0.974202 458.672 0.974202C464.196 0.974202 469.296 1.92224 473.971 3.81832C478.678 5.6817 482.765 8.28064 486.23 11.6151L472.696 25.2473C470.996 22.9589 468.904 21.1609 466.419 19.8532C463.967 18.5456 461.287 17.8918 458.377 17.8918C455.697 17.8918 453.212 18.4312 450.924 19.51C448.635 20.5888 446.625 22.0926 444.892 24.0213C443.192 25.9501 441.868 28.2058 440.92 30.7884C439.972 33.371 439.498 36.166 439.498 39.1736C439.498 42.2139 439.972 45.0253 440.92 47.6079C441.868 50.1905 443.192 52.4625 444.892 54.424C446.625 56.3527 448.635 57.8565 450.924 58.9353C453.212 60.0141 455.697 60.5535 458.377 60.5535C461.287 60.5535 463.967 59.8997 466.419 58.5921C468.871 57.2844 470.947 55.4864 472.647 53.198L486.377 66.8792ZM493.782 76V2.4453H542.818V19.3629H513.2V30.7393H540.857V47.6569H513.2V59.0824H543.308V76H493.782ZM548.703 67.5657L557.823 52.7567C560.21 54.6201 562.433 56.1402 564.492 57.3171C566.585 58.494 568.611 59.3603 570.573 59.916C572.567 60.4391 574.594 60.7006 576.653 60.7006C578.68 60.7006 580.413 60.4718 581.851 60.0141C583.29 59.5237 584.385 58.8372 585.137 57.9546C585.921 57.0392 586.314 55.9604 586.314 54.7182C586.314 53.149 585.758 51.8087 584.646 50.6972C583.535 49.5857 582.047 48.5886 580.184 47.706C578.353 46.8233 576.343 45.9406 574.152 45.058C571.799 44.1099 569.396 43.0638 566.944 41.9197C564.492 40.7428 562.237 39.3207 560.177 37.6535C558.118 35.9862 556.45 33.9594 555.175 31.573C553.9 29.1538 553.263 26.2116 553.263 22.7464C553.263 18.1697 554.407 14.2631 556.695 11.0267C559.017 7.75758 562.171 5.27307 566.16 3.57313C570.181 1.84051 574.725 0.974202 579.792 0.974202C583.486 0.974202 587.392 1.46457 591.511 2.4453C595.63 3.42603 599.799 4.9625 604.016 7.05472L596.464 22.6483C594.11 21.2099 591.528 20.0657 588.716 19.2158C585.938 18.3331 583.388 17.8918 581.067 17.8918C579.465 17.8918 578.059 18.1043 576.849 18.5293C575.673 18.9542 574.757 19.5754 574.103 20.3926C573.45 21.1772 573.123 22.1089 573.123 23.1877C573.123 24.6261 573.678 25.9011 574.79 27.0126C575.901 28.0914 577.373 29.0884 579.203 30.0038C581.034 30.9191 583.028 31.8508 585.186 32.7989C587.539 33.8123 589.942 34.9401 592.394 36.1824C594.879 37.4246 597.151 38.8957 599.21 40.5957C601.302 42.2956 602.986 44.3388 604.261 46.7252C605.536 49.079 606.173 51.9067 606.173 55.2085C606.173 59.6218 604.964 63.512 602.545 66.8792C600.158 70.2137 596.807 72.8126 592.492 74.676C588.21 76.5394 583.224 77.4711 577.536 77.4711C572.24 77.4711 567.14 76.6211 562.237 74.9212C557.333 73.2213 552.822 70.7694 548.703 67.5657Z"/>
</mask>
<path d="M65.399 76V76.9146H66.9816L66.1915 75.5434L65.399 76ZM43.9211 76L43.1287 76.4569L43.3927 76.9146H43.9211V76ZM29.8966 51.6779L30.689 51.221L30.425 50.7633H29.8966V51.6779ZM19.6971 51.6779V50.7633H18.7824V51.6779H19.6971ZM19.6971 76V76.9146H20.6117V76H19.6971ZM0.278616 76H-0.636016V76.9146H0.278616V76ZM0.278616 2.4453V1.53066H-0.636016V2.4453H0.278616ZM57.8965 13.7727L57.1251 14.2642L57.1302 14.2721L57.8965 13.7727ZM49.266 48.0002L48.849 47.1862L47.9939 47.6243L48.4736 48.4568L49.266 48.0002ZM19.6971 36.7218H18.7824V37.6364H19.6971V36.7218ZM38.6251 34.5642L39.166 35.3018L39.1681 35.3002L38.6251 34.5642ZM38.6251 21.5695L38.0764 22.3012L38.0832 22.3063L38.0901 22.3113L38.6251 21.5695ZM19.6971 19.3629V18.4482H18.7824V19.3629H19.6971ZM65.399 75.0854H43.9211V76.9146H65.399V75.0854ZM44.7134 75.5431L30.689 51.221L29.1043 52.1348L43.1287 76.4569L44.7134 75.5431ZM29.8966 50.7633H19.6971V52.5925H29.8966V50.7633ZM18.7824 51.6779V76H20.6117V51.6779H18.7824ZM19.6971 75.0854H0.278616V76.9146H19.6971V75.0854ZM1.19325 76V2.4453H-0.636016V76H1.19325ZM0.278616 3.35993H31.3677V1.53066H0.278616V3.35993ZM31.3677 3.35993C37.6545 3.35993 42.951 4.31155 47.2861 6.17849L48.0096 4.4984C43.3874 2.50781 37.8304 1.53066 31.3677 1.53066V3.35993ZM47.2861 6.17849C51.6162 8.04329 54.8809 10.742 57.1251 14.2642L58.6678 13.2812C56.2046 9.41528 52.6368 6.49114 48.0096 4.4984L47.2861 6.17849ZM57.1302 14.2721C59.4028 17.7588 60.5615 22.007 60.5615 27.0616H62.3908C62.3908 21.7205 61.1631 17.1094 58.6627 13.2733L57.1302 14.2721ZM60.5615 27.0616C60.5615 31.7994 59.5451 35.8326 57.5509 39.1977L59.1246 40.1303C61.315 36.4341 62.3908 32.0658 62.3908 27.0616H60.5615ZM57.5509 39.1977C55.554 42.5675 52.6642 45.2312 48.849 47.1862L49.6831 48.8142C53.7791 46.7154 56.9371 43.8217 59.1246 40.1303L57.5509 39.1977ZM48.4736 48.4568L64.6066 76.4566L66.1915 75.5434L50.0585 47.5436L48.4736 48.4568ZM19.6971 37.6364H29.8476V35.8072H19.6971V37.6364ZM29.8476 37.6364C33.8247 37.6364 36.9788 36.9057 39.166 35.3017L38.0843 33.8266C36.3486 35.0994 33.651 35.8072 29.8476 35.8072V37.6364ZM39.1681 35.3002C41.4357 33.6274 42.531 31.1563 42.531 28.0423H40.7017C40.7017 30.6819 39.8028 32.5588 38.0822 33.8282L39.1681 35.3002ZM42.531 28.0423C42.531 24.9287 41.4355 22.4689 39.1602 20.8277L38.0901 22.3113C39.8031 23.5469 40.7017 25.4024 40.7017 28.0423H42.531ZM39.1739 20.8378C36.9854 19.1964 33.8279 18.4482 29.8476 18.4482V20.2775C33.6478 20.2775 36.342 21.0004 38.0764 22.3012L39.1739 20.8378ZM29.8476 18.4482H19.6971V20.2775H29.8476V18.4482ZM18.7824 19.3629V36.7218H20.6117V19.3629H18.7824ZM71.2834 76H70.3688V76.9146H71.2834V76ZM71.2834 2.4453V1.53066H70.3688V2.4453H71.2834ZM120.32 2.4453H121.235V1.53066H120.32V2.4453ZM120.32 19.3629V20.2775H121.235V19.3629H120.32ZM90.7019 19.3629V18.4482H89.7872V19.3629H90.7019ZM90.7019 30.7393H89.7872V31.654H90.7019V30.7393ZM118.358 30.7393H119.273V29.8247H118.358V30.7393ZM118.358 47.6569V48.5716H119.273V47.6569H118.358ZM90.7019 47.6569V46.7423H89.7872V47.6569H90.7019ZM90.7019 59.0824H89.7872V59.9971H90.7019V59.0824ZM120.81 59.0824H121.725V58.1678H120.81V59.0824ZM120.81 76V76.9146H121.725V76H120.81ZM72.1981 76V2.4453H70.3688V76H72.1981ZM71.2834 3.35993H120.32V1.53066H71.2834V3.35993ZM119.405 2.4453V19.3629H121.235V2.4453H119.405ZM120.32 18.4482H90.7019V20.2775H120.32V18.4482ZM89.7872 19.3629V30.7393H91.6165V19.3629H89.7872ZM90.7019 31.654H118.358V29.8247H90.7019V31.654ZM117.444 30.7393V47.6569H119.273V30.7393H117.444ZM118.358 46.7423H90.7019V48.5716H118.358V46.7423ZM89.7872 47.6569V59.0824H91.6165V47.6569H89.7872ZM90.7019 59.9971H120.81V58.1678H90.7019V59.9971ZM119.896 59.0824V76H121.725V59.0824H119.896ZM120.81 75.0854H71.2834V76.9146H120.81V75.0854ZM126.204 67.5657L125.425 67.0861L124.995 67.7843L125.643 68.2877L126.204 67.5657ZM135.325 52.7567L135.888 52.0358L135.082 51.4067L134.546 52.2771L135.325 52.7567ZM141.994 57.3171L141.54 58.1112L141.546 58.1143L141.994 57.3171ZM148.075 59.916L147.825 60.796L147.834 60.7985L147.842 60.8007L148.075 59.916ZM159.353 60.0141L159.63 60.8857L159.639 60.8828L159.648 60.8798L159.353 60.0141ZM162.638 57.9546L161.944 57.3593L161.942 57.3615L162.638 57.9546ZM157.686 47.706L157.288 48.5298L157.294 48.5325L157.686 47.706ZM151.654 45.058L151.996 44.2096L151.996 44.2096L151.654 45.058ZM144.446 41.9197L144.05 42.7443L144.059 42.7485L144.446 41.9197ZM132.677 31.573L131.868 31.9994L131.87 32.0039L132.677 31.573ZM134.197 11.0267L133.451 10.4972L133.45 10.4986L134.197 11.0267ZM143.661 3.57313L144.02 4.41453L144.023 4.41311L143.661 3.57313ZM181.517 7.05472L182.341 7.45337L182.735 6.63801L181.924 6.23539L181.517 7.05472ZM173.966 22.6483L173.489 23.4288L174.349 23.9547L174.789 23.047L173.966 22.6483ZM166.218 19.2158L165.941 20.0876L165.953 20.0913L166.218 19.2158ZM154.351 18.5293L154.048 17.6663L154.041 17.669L154.351 18.5293ZM151.605 20.3926L152.308 20.9782L152.314 20.9712L152.319 20.964L151.605 20.3926ZM152.292 27.0126L151.645 27.6594L151.655 27.6689L152.292 27.0126ZM162.687 32.7989L162.319 33.6363L162.326 33.6389L162.687 32.7989ZM169.896 36.1824L169.482 36.9983L169.487 37.0005L169.896 36.1824ZM176.712 40.5957L176.13 41.3011L176.135 41.3055L176.712 40.5957ZM181.763 46.7252L180.956 47.1562L180.958 47.1609L181.763 46.7252ZM180.046 66.8792L179.304 66.3456L179.303 66.3469L180.046 66.8792ZM169.994 74.676L169.631 73.8363L169.629 73.8373L169.994 74.676ZM126.983 68.0454L136.104 53.2364L134.546 52.2771L125.425 67.0861L126.983 68.0454ZM134.762 53.4776C137.174 55.361 139.434 56.9076 141.54 58.1112L142.448 56.523C140.435 55.3728 138.249 53.8792 135.888 52.0358L134.762 53.4776ZM141.546 58.1143C143.69 59.3204 145.783 60.2175 147.825 60.796L148.324 59.036C146.443 58.5031 144.483 57.6675 142.442 56.5199L141.546 58.1143ZM147.842 60.8007C149.912 61.3436 152.017 61.6153 154.155 61.6153V59.786C152.174 59.786 150.225 59.5345 148.307 59.0313L147.842 60.8007ZM154.155 61.6153C156.246 61.6153 158.077 61.3798 159.63 60.8857L159.076 59.1425C157.752 59.5638 156.118 59.786 154.155 59.786V61.6153ZM159.648 60.8798C161.195 60.3524 162.448 59.5888 163.335 58.5477L161.942 57.3615C161.325 58.0856 160.388 58.6951 159.058 59.1484L159.648 60.8798ZM163.333 58.5498C164.264 57.4633 164.73 56.1715 164.73 54.7182H162.901C162.901 55.7494 162.582 56.6152 161.944 57.3593L163.333 58.5498ZM164.73 54.7182C164.73 52.906 164.077 51.3331 162.795 50.0504L161.501 51.3439C162.442 52.2842 162.901 53.3921 162.901 54.7182H164.73ZM162.795 50.0504C161.59 48.8458 160.007 47.7937 158.077 46.8794L157.294 48.5325C159.091 49.3835 160.483 50.3256 161.501 51.3439L162.795 50.0504ZM158.083 46.8821C156.231 45.9894 154.202 45.0987 151.996 44.2096L151.312 45.9063C153.487 46.7826 155.479 47.6572 157.288 48.5298L158.083 46.8821ZM151.996 44.2096C149.658 43.2681 147.271 42.2285 144.833 41.0908L144.059 42.7485C146.525 43.8991 148.943 44.9518 151.312 45.9064L151.996 44.2096ZM144.842 41.0951C142.452 39.9482 140.257 38.5639 138.254 36.9426L137.103 38.3644C139.22 40.0775 141.536 41.5374 144.05 42.7442L144.842 41.0951ZM138.254 36.9426C136.292 35.3539 134.702 33.4229 133.484 31.142L131.87 32.0039C133.202 34.4959 134.947 36.6186 137.103 38.3644L138.254 36.9426ZM133.486 31.1465C132.297 28.8893 131.679 26.1018 131.679 22.7464H129.85C129.85 26.3215 130.508 29.4183 131.868 31.9994L133.486 31.1465ZM131.679 22.7464C131.679 18.3286 132.781 14.6137 134.944 11.5547L133.45 10.4986C131.037 13.9124 129.85 18.0108 129.85 22.7464H131.679ZM134.943 11.5562C137.158 8.43598 140.174 6.05383 144.02 4.41453L143.303 2.73174C139.172 4.49231 135.878 7.07918 133.451 10.4972L134.943 11.5562ZM144.023 4.41311C147.913 2.73688 152.331 1.88883 157.293 1.88883V0.0595691C152.121 0.0595691 147.451 0.944145 143.299 2.73316L144.023 4.41311ZM157.293 1.88883C160.907 1.88883 164.742 2.3685 168.801 3.33506L169.225 1.55554C165.046 0.560634 161.068 0.0595691 157.293 0.0595691V1.88883ZM168.801 3.33506C172.846 4.29808 176.949 5.80923 181.111 7.87406L181.924 6.23539C177.652 4.11577 173.418 2.55397 169.225 1.55554L168.801 3.33506ZM180.694 6.65608L173.143 22.2497L174.789 23.047L182.341 7.45337L180.694 6.65608ZM174.443 21.8679C172.018 20.3864 169.364 19.2113 166.483 18.3403L165.953 20.0913C168.695 20.9202 171.206 22.0335 173.489 23.4288L174.443 21.8679ZM166.495 18.3441C163.649 17.4399 161.004 16.9772 158.568 16.9772V18.8064C160.775 18.8064 163.23 19.2263 165.941 20.0875L166.495 18.3441ZM158.568 16.9772C156.888 16.9772 155.376 17.1998 154.048 17.6663L154.654 19.3922C155.746 19.0087 157.045 18.8064 158.568 18.8064V16.9772ZM154.041 17.669C152.736 18.14 151.669 18.8486 150.891 19.8213L152.319 20.964C152.849 20.3021 153.612 19.7685 154.662 19.3895L154.041 17.669ZM150.903 19.8071C150.104 20.7658 149.71 21.908 149.71 23.1877H151.539C151.539 22.3099 151.799 21.5886 152.308 20.9782L150.903 19.8071ZM149.71 23.1877C149.71 24.8924 150.379 26.3938 151.645 27.6593L152.938 26.3658C151.981 25.4083 151.539 24.3598 151.539 23.1877H149.71ZM151.655 27.6689C152.851 28.8301 154.407 29.8772 156.296 30.8219L157.114 29.1857C155.342 28.2997 153.955 27.3526 152.929 26.3562L151.655 27.6689ZM156.296 30.8219C158.142 31.7449 160.15 32.683 162.319 33.6362L163.055 31.9615C160.91 31.0187 158.929 30.0934 157.114 29.1857L156.296 30.8219ZM162.326 33.6389C164.661 34.6443 167.046 35.764 169.482 36.9983L170.309 35.3665C167.842 34.1163 165.422 32.9803 163.049 31.9588L162.326 33.6389ZM169.487 37.0005C171.912 38.2131 174.125 39.6468 176.13 41.3011L177.294 39.8903C175.179 38.1446 172.849 36.6362 170.305 35.3643L169.487 37.0005ZM176.135 41.3055C178.132 42.9284 179.738 44.8767 180.956 47.1562L182.569 46.2942C181.237 43.8009 179.476 41.6628 177.289 39.8858L176.135 41.3055ZM180.958 47.1609C182.146 49.3531 182.76 52.0238 182.76 55.2085H184.59C184.59 51.7897 183.929 48.8049 182.567 46.2896L180.958 47.1609ZM182.76 55.2085C182.76 59.4434 181.604 63.1442 179.304 66.3456L180.789 67.4129C183.327 63.8799 184.59 59.8002 184.59 55.2085H182.76ZM179.303 66.3469C177.026 69.5274 173.817 72.029 169.631 73.8363L170.356 75.5157C174.802 73.5962 178.293 70.9 180.79 67.4115L179.303 66.3469ZM169.629 73.8373C165.484 75.641 160.627 76.5565 155.038 76.5565V78.3857C160.825 78.3857 165.939 77.4378 170.359 75.5147L169.629 73.8373ZM155.038 76.5565C149.842 76.5565 144.843 75.7229 140.038 74.057L139.439 75.7854C144.441 77.5194 149.642 78.3857 155.038 78.3857V76.5565ZM140.038 74.057C135.229 72.39 130.806 69.9864 126.766 66.8438L125.643 68.2877C129.84 71.5525 134.44 74.0525 139.439 75.7854L140.038 74.057ZM212.508 74.627L212.164 75.4742L212.171 75.477L212.508 74.627ZM200.102 66.585L199.458 67.2348L199.465 67.2408L200.102 66.585ZM200.102 11.9093L200.743 12.5622L200.743 12.5621L200.102 11.9093ZM212.508 3.86735L212.848 4.71657L212.851 4.71536L212.508 3.86735ZM243.696 3.86735L243.351 4.71455L243.356 4.71657L243.696 3.86735ZM256.004 11.9093L255.357 12.5561L255.363 12.5622L256.004 11.9093ZM256.004 66.585L256.647 67.2348L256.647 67.2348L256.004 66.585ZM243.696 74.627L244.035 75.4762L244.04 75.4742L243.696 74.627ZM241.685 54.424L241 53.8184L240.999 53.8192L241.685 54.424ZM245.706 47.6079L244.851 47.2832L244.848 47.2927L245.706 47.6079ZM245.706 30.8374L244.847 31.1526L244.851 31.1621L245.706 30.8374ZM241.685 24.0704L240.994 24.6694L240.999 24.6755L241.005 24.6816L241.685 24.0704ZM220.501 19.51L220.12 18.6785L220.116 18.6806L220.501 19.51ZM214.421 24.0704L215.101 24.6816L215.106 24.6759L214.421 24.0704ZM210.351 30.8374L209.496 30.5127L209.492 30.5222L210.351 30.8374ZM210.351 47.6079L209.492 47.9231L209.496 47.9326L210.351 47.6079ZM214.421 54.424L213.735 55.0295L213.74 55.0352L214.421 54.424ZM220.501 58.9353L220.116 59.7647L220.12 59.7668L220.501 58.9353ZM228.102 76.5565C222.584 76.5565 217.502 75.6265 212.846 73.777L212.171 75.477C217.061 77.4196 222.375 78.3857 228.102 78.3857V76.5565ZM212.853 73.7798C208.218 71.8936 204.183 69.2765 200.74 65.9292L199.465 67.2408C203.083 70.7586 207.319 73.5028 212.164 75.4742L212.853 73.7798ZM200.746 65.9352C197.336 62.5571 194.69 58.6056 192.807 54.073L191.118 54.7749C193.092 59.5266 195.873 63.6824 199.459 67.2348L200.746 65.9352ZM192.807 54.073C190.928 49.552 189.984 44.6055 189.984 39.2226H188.154C188.154 44.824 189.138 50.0116 191.118 54.7749L192.807 54.073ZM189.984 39.2226C189.984 33.8398 190.928 28.8933 192.807 24.3723L191.118 23.6704C189.138 28.4337 188.154 33.6213 188.154 39.2226H189.984ZM192.807 24.3723C194.69 19.8405 197.335 15.9065 200.743 12.5622L199.462 11.2565C195.874 14.7772 193.092 18.918 191.118 23.6704L192.807 24.3723ZM200.743 12.5621C204.184 9.18433 208.217 6.56918 212.848 4.71657L212.169 3.01814C207.32 4.95768 203.081 7.70386 199.462 11.2566L200.743 12.5621ZM212.851 4.71536C217.505 2.8345 222.586 1.88883 228.102 1.88883V0.0595691C222.373 0.0595691 217.057 1.04267 212.166 3.01935L212.851 4.71536ZM228.102 1.88883C233.652 1.88883 238.731 2.83478 243.351 4.71454L244.04 3.02017C239.18 1.0424 233.863 0.0595691 228.102 0.0595691V1.88883ZM243.356 4.71657C247.986 6.5686 251.983 9.18208 255.357 12.5561L256.651 11.2626C253.094 7.7061 248.886 4.95826 244.035 3.01814L243.356 4.71657ZM255.363 12.5622C258.771 15.9065 261.416 19.8405 263.299 24.3723L264.988 23.6704C263.014 18.918 260.232 14.7772 256.644 11.2565L255.363 12.5622ZM263.299 24.3723C265.178 28.8933 266.122 33.8398 266.122 39.2226H267.952C267.952 33.6213 266.968 28.4337 264.988 23.6704L263.299 24.3723ZM266.122 39.2226C266.122 44.6055 265.178 49.552 263.299 54.073L264.988 54.7749C266.968 50.0116 267.952 44.824 267.952 39.2226H266.122ZM263.299 54.073C261.416 58.6056 258.77 62.5571 255.36 65.9352L256.647 67.2348C260.233 63.6824 263.014 59.5266 264.988 54.7749L263.299 54.073ZM255.36 65.9352C251.985 69.2787 247.985 71.8942 243.351 73.7798L244.04 75.4742C248.887 73.5022 253.092 70.7564 256.647 67.2348L255.36 65.9352ZM243.356 73.7778C238.735 75.6262 233.654 76.5565 228.102 76.5565V78.3857C233.861 78.3857 239.176 77.4199 244.035 75.4762L243.356 73.7778ZM228.102 61.4681C230.94 61.4681 233.59 60.903 236.039 59.7647L235.268 58.1059C233.075 59.1252 230.69 59.6389 228.102 59.6389V61.4681ZM236.039 59.7647C238.475 58.6324 240.588 57.0519 242.371 55.0287L240.999 53.8192C239.382 55.6535 237.474 57.0806 235.268 58.1059L236.039 59.7647ZM242.371 55.0295C244.182 52.9785 245.58 50.6068 246.565 47.9231L244.848 47.2927C243.937 49.7741 242.653 51.9465 241 53.8184L242.371 55.0295ZM246.561 47.9326C247.585 45.2374 248.092 42.3313 248.092 39.2226H246.263C246.263 42.1291 245.789 44.8132 244.851 47.2832L246.561 47.9326ZM248.092 39.2226C248.092 36.114 247.585 33.2079 246.561 30.5127L244.851 31.1621C245.789 33.6321 246.263 36.3162 246.263 39.2226H248.092ZM246.565 30.5222C245.579 27.8373 244.181 25.4796 242.366 23.4592L241.005 24.6816C242.655 26.5187 243.937 28.6724 244.848 31.1526L246.565 30.5222ZM242.376 23.4714C240.593 21.4138 238.479 19.8145 236.039 18.6806L235.268 20.3394C237.471 21.363 239.377 22.804 240.994 24.6694L242.376 23.4714ZM236.039 18.6806C233.59 17.5423 230.94 16.9772 228.102 16.9772V18.8064C230.69 18.8064 233.075 19.3201 235.268 20.3394L236.039 18.6806ZM228.102 16.9772C225.264 16.9772 222.599 17.5423 220.12 18.6785L220.882 20.3414C223.111 19.3201 225.514 18.8064 228.102 18.8064V16.9772ZM220.116 18.6806C217.678 19.8137 215.55 21.4111 213.735 23.4649L215.106 24.6759C216.757 22.8068 218.683 21.3638 220.887 20.3394L220.116 18.6806ZM213.74 23.4592C211.928 25.4772 210.514 27.8316 209.496 30.5127L211.206 31.1621C212.149 28.678 213.449 26.5211 215.101 24.6816L213.74 23.4592ZM209.492 30.5222C208.504 33.2148 208.014 36.1176 208.014 39.2226H209.843C209.843 36.3126 210.302 33.6252 211.209 31.1526L209.492 30.5222ZM208.014 39.2226C208.014 42.3277 208.504 45.2305 209.492 47.9231L211.209 47.2927C210.302 44.8201 209.843 42.1327 209.843 39.2226H208.014ZM209.496 47.9326C210.513 50.6124 211.926 52.9809 213.735 55.0295L215.106 53.8184C213.451 51.9441 212.15 49.7685 211.206 47.2832L209.496 47.9326ZM213.74 55.0352C215.555 57.0546 217.681 58.6332 220.116 59.7647L220.887 58.1059C218.679 57.0798 216.752 55.6508 215.101 53.8127L213.74 55.0352ZM220.12 59.7668C222.599 60.903 225.264 61.4681 228.102 61.4681V59.6389C225.514 59.6389 223.111 59.1252 220.882 58.1038L220.12 59.7668ZM340.788 2.4453H341.702V1.53066H340.788V2.4453ZM336.816 61.3871L336.001 60.972L336 60.974L336.816 61.3871ZM325.488 73.303L325.04 72.506L325.038 72.5072L325.488 73.303ZM278.806 61.3871L277.989 61.7982L277.992 61.8044L278.806 61.3871ZM274.883 2.4453V1.53066H273.968V2.4453H274.883ZM294.301 2.4453H295.216V1.53066H294.301V2.4453ZM295.723 51.6779L294.851 51.9529L294.854 51.9615L295.723 51.6779ZM300.186 58.3959L299.643 59.132L299.651 59.1377L300.186 58.3959ZM315.485 58.3959L316.02 59.1377L316.028 59.1319L315.485 58.3959ZM319.898 51.6779L319.029 51.3943L319.026 51.4029L319.898 51.6779ZM321.369 2.4453V1.53066H320.455V2.4453H321.369ZM339.873 2.4453V42.8023H341.702V2.4453H339.873ZM339.873 42.8023C339.873 49.883 338.57 55.9292 336.001 60.972L337.631 61.8023C340.358 56.4493 341.702 50.1056 341.702 42.8023H339.873ZM336 60.974C333.464 65.9814 329.815 69.8181 325.04 72.506L325.937 74.1C331.035 71.2304 334.937 67.1232 337.632 61.8003L336 60.974ZM325.038 72.5072C320.298 75.1927 314.577 76.5565 307.835 76.5565V78.3857C314.824 78.3857 320.871 76.9707 325.939 74.0987L325.038 72.5072ZM307.835 76.5565C301.128 76.5565 295.405 75.1932 290.631 72.506L289.734 74.1C294.832 76.9703 300.878 78.3857 307.835 78.3857V76.5565ZM290.631 72.506C285.855 69.8175 282.188 65.9795 279.62 60.9699L277.992 61.8044C280.72 67.1251 284.637 71.231 289.734 74.1L290.631 72.506ZM279.623 60.976C277.085 55.9323 275.797 49.8846 275.797 42.8023H273.968C273.968 50.104 275.296 56.4463 277.989 61.7982L279.623 60.976ZM275.797 42.8023V2.4453H273.968V42.8023H275.797ZM274.883 3.35993H294.301V1.53066H274.883V3.35993ZM293.387 2.4453V40.1543H295.216V2.4453H293.387ZM293.387 40.1543C293.387 44.882 293.865 48.8246 294.851 51.9529L296.596 51.4029C295.686 48.5161 295.216 44.7763 295.216 40.1543H293.387ZM294.854 51.9615C295.877 55.1 297.458 57.52 299.643 59.1319L300.729 57.6599C298.925 56.3297 297.531 54.271 296.593 51.3944L294.854 51.9615ZM299.651 59.1377C301.837 60.715 304.589 61.4681 307.835 61.4681V59.6389C304.871 59.6389 302.522 58.9537 300.721 57.6541L299.651 59.1377ZM307.835 61.4681C311.082 61.4681 313.833 60.715 316.02 59.1377L314.95 57.6541C313.148 58.9537 310.8 59.6389 307.835 59.6389V61.4681ZM316.028 59.1319C318.216 57.5179 319.78 55.0945 320.771 51.9529L319.026 51.4029C318.12 54.2765 316.743 56.3317 314.942 57.6599L316.028 59.1319ZM320.768 51.9615C321.789 48.8298 322.284 44.884 322.284 40.1543H320.455C320.455 44.7743 319.969 48.5108 319.029 51.3944L320.768 51.9615ZM322.284 40.1543V2.4453H320.455V40.1543H322.284ZM321.369 3.35993H340.788V1.53066H321.369V3.35993ZM415.716 76V76.9146H417.298L416.508 75.5434L415.716 76ZM394.238 76L393.445 76.4569L393.709 76.9146H394.238V76ZM380.213 51.6779L381.006 51.221L380.742 50.7633H380.213V51.6779ZM370.014 51.6779V50.7633H369.099V51.6779H370.014ZM370.014 76V76.9146H370.928V76H370.014ZM350.595 76H349.681V76.9146H350.595V76ZM350.595 2.4453V1.53066H349.681V2.4453H350.595ZM408.213 13.7727L407.442 14.2642L407.447 14.2721L408.213 13.7727ZM399.583 48.0002L399.165 47.1862L398.31 47.6243L398.79 48.4568L399.583 48.0002ZM370.014 36.7218H369.099V37.6364H370.014V36.7218ZM388.942 34.5642L389.483 35.3018L389.485 35.3002L388.942 34.5642ZM388.942 21.5695L388.393 22.3012L388.4 22.3063L388.407 22.3113L388.942 21.5695ZM370.014 19.3629V18.4482H369.099V19.3629H370.014ZM415.716 75.0854H394.238V76.9146H415.716V75.0854ZM395.03 75.5431L381.006 51.221L379.421 52.1348L393.445 76.4569L395.03 75.5431ZM380.213 50.7633H370.014V52.5925H380.213V50.7633ZM369.099 51.6779V76H370.928V51.6779H369.099ZM370.014 75.0854H350.595V76.9146H370.014V75.0854ZM351.51 76V2.4453H349.681V76H351.51ZM350.595 3.35993H381.684V1.53066H350.595V3.35993ZM381.684 3.35993C387.971 3.35993 393.268 4.31155 397.603 6.17849L398.326 4.4984C393.704 2.50781 388.147 1.53066 381.684 1.53066V3.35993ZM397.603 6.17849C401.933 8.04329 405.197 10.742 407.442 14.2642L408.984 13.2812C406.521 9.41528 402.953 6.49114 398.326 4.4984L397.603 6.17849ZM407.447 14.2721C409.719 17.7588 410.878 22.007 410.878 27.0616H412.707C412.707 21.7205 411.48 17.1094 408.979 13.2733L407.447 14.2721ZM410.878 27.0616C410.878 31.7994 409.862 35.8326 407.867 39.1977L409.441 40.1303C411.631 36.4341 412.707 32.0658 412.707 27.0616H410.878ZM407.867 39.1977C405.871 42.5675 402.981 45.2312 399.165 47.1862L400 48.8142C404.096 46.7154 407.254 43.8217 409.441 40.1303L407.867 39.1977ZM398.79 48.4568L414.923 76.4566L416.508 75.5434L400.375 47.5436L398.79 48.4568ZM370.014 37.6364H380.164V35.8072H370.014V37.6364ZM380.164 37.6364C384.141 37.6364 387.295 36.9057 389.483 35.3017L388.401 33.8266C386.665 35.0994 383.968 35.8072 380.164 35.8072V37.6364ZM389.485 35.3002C391.752 33.6274 392.848 31.1563 392.848 28.0423H391.018C391.018 30.6819 390.119 32.5588 388.399 33.8282L389.485 35.3002ZM392.848 28.0423C392.848 24.9287 391.752 22.4689 389.477 20.8277L388.407 22.3113C390.12 23.5469 391.018 25.4024 391.018 28.0423H392.848ZM389.49 20.8378C387.302 19.1964 384.144 18.4482 380.164 18.4482V20.2775C383.964 20.2775 386.658 21.0004 388.393 22.3012L389.49 20.8378ZM380.164 18.4482H370.014V20.2775H380.164V18.4482ZM369.099 19.3629V36.7218H370.928V19.3629H369.099ZM486.377 66.8792L487.011 67.5383L487.684 66.8906L487.023 66.2313L486.377 66.8792ZM474.069 74.676L473.734 73.8248L473.732 73.8256L474.069 74.676ZM443.127 74.627L442.782 75.4742L442.789 75.477L443.127 74.627ZM430.721 66.585L430.077 67.2348L430.083 67.2408L430.721 66.585ZM422.532 54.424L421.687 54.7749L421.689 54.7799L422.532 54.424ZM422.532 24.0213L421.689 23.6653L421.687 23.6704L422.532 24.0213ZM430.721 11.9093L431.361 12.5622L431.361 12.5621L430.721 11.9093ZM443.127 3.86735L443.467 4.71657L443.47 4.71536L443.127 3.86735ZM473.971 3.81832L473.627 4.66592L473.634 4.66875L473.971 3.81832ZM486.23 11.6151L486.879 12.2595L487.534 11.6002L486.864 10.9561L486.23 11.6151ZM472.696 25.2473L471.962 25.7927L472.596 26.6463L473.345 25.8917L472.696 25.2473ZM466.419 19.8532L465.989 20.6603L465.993 20.6626L466.419 19.8532ZM444.892 24.0213L444.212 23.4101L444.206 23.4166L444.892 24.0213ZM440.92 30.7884L440.062 30.4732L440.92 30.7884ZM440.92 47.6079L440.062 47.9231L440.92 47.6079ZM444.892 54.424L444.201 55.023L444.206 55.0291L444.212 55.0352L444.892 54.424ZM472.647 53.198L473.293 52.5501L472.543 51.8037L471.913 52.6526L472.647 53.198ZM485.743 66.2202C482.369 69.4667 478.37 72.0026 473.734 73.8248L474.404 75.5272C479.249 73.6227 483.455 70.9606 487.011 67.5383L485.743 66.2202ZM473.732 73.8256C469.142 75.6426 464.125 76.5565 458.672 76.5565V78.3857C464.333 78.3857 469.581 77.4362 474.406 75.5264L473.732 73.8256ZM458.672 76.5565C453.187 76.5565 448.121 75.6267 443.465 73.777L442.789 75.477C447.679 77.4194 452.976 78.3857 458.672 78.3857V76.5565ZM443.472 73.7798C438.836 71.8936 434.801 69.2765 431.358 65.9292L430.083 67.2408C433.702 70.7586 437.937 73.5028 442.782 75.4742L443.472 73.7798ZM431.364 65.9352C427.953 62.556 425.29 58.6028 423.374 54.068L421.689 54.7799C423.696 59.5294 426.492 63.6835 430.077 67.2348L431.364 65.9352ZM423.376 54.073C421.498 49.552 420.553 44.6055 420.553 39.2226H418.724C418.724 44.824 419.708 50.0116 421.687 54.7749L423.376 54.073ZM420.553 39.2226C420.553 33.8398 421.498 28.8933 423.376 24.3723L421.687 23.6704C419.708 28.4337 418.724 33.6213 418.724 39.2226H420.553ZM423.374 24.3773C425.29 19.8433 427.952 15.9077 431.361 12.5622L430.08 11.2565C426.493 14.7761 423.696 18.9151 421.689 23.6654L423.374 24.3773ZM431.361 12.5621C434.803 9.18433 438.835 6.56918 443.467 4.71657L442.787 3.01814C437.938 4.95768 433.7 7.70386 430.08 11.2566L431.361 12.5621ZM443.47 4.71536C448.125 2.83425 453.189 1.88883 458.672 1.88883V0.0595691C452.974 0.0595691 447.675 1.04292 442.784 3.01935L443.47 4.71536ZM458.672 1.88883C464.09 1.88883 469.072 2.81815 473.627 4.66589L474.315 2.97075C469.521 1.02634 464.303 0.0595691 458.672 0.0595691V1.88883ZM473.634 4.66875C478.237 6.49067 482.221 9.02656 485.596 12.2742L486.864 10.9561C483.309 7.53472 479.12 4.87274 474.308 2.96789L473.634 4.66875ZM485.581 10.9707L472.047 24.6029L473.345 25.8917L486.879 12.2595L485.581 10.9707ZM473.43 24.7018C471.65 22.3053 469.453 20.4163 466.845 19.0439L465.993 20.6626C468.355 21.9055 470.342 23.6125 471.962 25.7927L473.43 24.7018ZM466.85 19.0462C464.259 17.6646 461.43 16.9772 458.377 16.9772V18.8064C461.144 18.8064 463.676 19.4266 465.989 20.6603L466.85 19.0462ZM458.377 16.9772C455.57 16.9772 452.951 17.543 450.534 18.6827L451.314 20.3373C453.473 19.3194 455.823 18.8064 458.377 18.8064V16.9772ZM450.534 18.6827C448.132 19.8148 446.024 21.393 444.212 23.4101L445.573 24.6326C447.226 22.7921 449.138 21.3628 451.314 20.3373L450.534 18.6827ZM444.206 23.4166C442.426 25.4362 441.046 27.7917 440.062 30.4732L441.779 31.1036C442.691 28.6198 443.959 26.4641 445.578 24.6261L444.206 23.4166ZM440.062 30.4732C439.073 33.1657 438.584 36.0685 438.584 39.1736H440.413C440.413 36.2636 440.871 33.5762 441.779 31.1036L440.062 30.4732ZM438.584 39.1736C438.584 42.3101 439.073 45.2295 440.062 47.9231L441.779 47.2927C440.872 44.8211 440.413 42.1176 440.413 39.1736H438.584ZM440.062 47.9231C441.046 50.6033 442.424 52.9729 444.201 55.023L445.583 53.8249C443.96 51.9521 442.691 49.7776 441.779 47.2927L440.062 47.9231ZM444.212 55.0352C446.024 57.0523 448.132 58.6305 450.534 59.7626L451.314 58.108C449.138 57.0825 447.226 55.6531 445.573 53.8127L444.212 55.0352ZM450.534 59.7626C452.951 60.9023 455.57 61.4681 458.377 61.4681V59.6389C455.823 59.6389 453.473 59.1259 451.314 58.108L450.534 59.7626ZM458.377 61.4681C461.43 61.4681 464.259 60.7807 466.85 59.3991L465.989 57.785C463.676 59.0187 461.144 59.6389 458.377 59.6389V61.4681ZM466.85 59.3991C469.424 58.0261 471.603 56.1375 473.381 53.7435L471.913 52.6526C470.291 54.8353 468.318 56.5427 465.989 57.785L466.85 59.3991ZM472.001 53.8459L485.732 67.5271L487.023 66.2313L473.293 52.5501L472.001 53.8459ZM493.782 76H492.867V76.9146H493.782V76ZM493.782 2.4453V1.53066H492.867V2.4453H493.782ZM542.818 2.4453H543.733V1.53066H542.818V2.4453ZM542.818 19.3629V20.2775H543.733V19.3629H542.818ZM513.2 19.3629V18.4482H512.285V19.3629H513.2ZM513.2 30.7393H512.285V31.654H513.2V30.7393ZM540.857 30.7393H541.771V29.8247H540.857V30.7393ZM540.857 47.6569V48.5716H541.771V47.6569H540.857ZM513.2 47.6569V46.7423H512.285V47.6569H513.2ZM513.2 59.0824H512.285V59.9971H513.2V59.0824ZM543.308 59.0824H544.223V58.1678H543.308V59.0824ZM543.308 76V76.9146H544.223V76H543.308ZM494.696 76V2.4453H492.867V76H494.696ZM493.782 3.35993H542.818V1.53066H493.782V3.35993ZM541.903 2.4453V19.3629H543.733V2.4453H541.903ZM542.818 18.4482H513.2V20.2775H542.818V18.4482ZM512.285 19.3629V30.7393H514.115V19.3629H512.285ZM513.2 31.654H540.857V29.8247H513.2V31.654ZM539.942 30.7393V47.6569H541.771V30.7393H539.942ZM540.857 46.7423H513.2V48.5716H540.857V46.7423ZM512.285 47.6569V59.0824H514.115V47.6569H512.285ZM513.2 59.9971H543.308V58.1678H513.2V59.9971ZM542.394 59.0824V76H544.223V59.0824H542.394ZM543.308 75.0854H493.782V76.9146H543.308V75.0854ZM548.703 67.5657L547.924 67.0861L547.494 67.7843L548.141 68.2877L548.703 67.5657ZM557.823 52.7567L558.386 52.0358L557.581 51.4067L557.045 52.2771L557.823 52.7567ZM564.492 57.3171L564.038 58.1112L564.044 58.1143L564.492 57.3171ZM570.573 59.916L570.323 60.796L570.332 60.7985L570.341 60.8007L570.573 59.916ZM581.851 60.0141L582.129 60.8857L582.137 60.8828L582.146 60.8798L581.851 60.0141ZM585.137 57.9546L584.442 57.3593L584.44 57.3615L585.137 57.9546ZM580.184 47.706L579.787 48.5298L579.792 48.5325L580.184 47.706ZM574.152 45.058L574.494 44.2096L574.494 44.2096L574.152 45.058ZM566.944 41.9197L566.548 42.7443L566.557 42.7485L566.944 41.9197ZM555.175 31.573L554.366 31.9994L554.369 32.0039L555.175 31.573ZM556.695 11.0267L555.95 10.4972L555.949 10.4986L556.695 11.0267ZM566.16 3.57313L566.518 4.41453L566.521 4.41311L566.16 3.57313ZM604.016 7.05472L604.839 7.45337L605.234 6.63801L604.422 6.23539L604.016 7.05472ZM596.464 22.6483L595.987 23.4288L596.848 23.9547L597.287 23.047L596.464 22.6483ZM588.716 19.2158L588.439 20.0876L588.452 20.0913L588.716 19.2158ZM576.849 18.5293L576.546 17.6663L576.539 17.669L576.849 18.5293ZM574.103 20.3926L574.806 20.9782L574.812 20.9712L574.818 20.964L574.103 20.3926ZM574.79 27.0126L574.143 27.6594L574.153 27.6689L574.79 27.0126ZM585.186 32.7989L584.818 33.6363L584.824 33.6389L585.186 32.7989ZM592.394 36.1824L591.981 36.9983L591.985 37.0005L592.394 36.1824ZM599.21 40.5957L598.628 41.3011L598.633 41.3055L599.21 40.5957ZM604.261 46.7252L603.454 47.1562L603.457 47.1609L604.261 46.7252ZM602.545 66.8792L601.802 66.3456L601.801 66.3469L602.545 66.8792ZM592.492 74.676L592.13 73.8363L592.127 73.8373L592.492 74.676ZM549.481 68.0454L558.602 53.2364L557.045 52.2771L547.924 67.0861L549.481 68.0454ZM557.26 53.4776C559.672 55.361 561.932 56.9076 564.038 58.1112L564.946 56.523C562.933 55.3728 560.747 53.8792 558.386 52.0358L557.26 53.4776ZM564.044 58.1143C566.188 59.3204 568.282 60.2175 570.323 60.796L570.822 59.036C568.941 58.5031 566.981 57.6675 564.941 56.5199L564.044 58.1143ZM570.341 60.8007C572.411 61.3436 574.515 61.6153 576.653 61.6153V59.786C574.672 59.786 572.723 59.5345 570.805 59.0313L570.341 60.8007ZM576.653 61.6153C578.744 61.6153 580.576 61.3798 582.129 60.8857L581.574 59.1425C580.25 59.5638 578.616 59.786 576.653 59.786V61.6153ZM582.146 60.8798C583.693 60.3524 584.946 59.5888 585.833 58.5477L584.44 57.3615C583.823 58.0856 582.886 58.6951 581.556 59.1484L582.146 60.8798ZM585.831 58.5498C586.762 57.4633 587.228 56.1715 587.228 54.7182H585.399C585.399 55.7494 585.08 56.6152 584.442 57.3593L585.831 58.5498ZM587.228 54.7182C587.228 52.906 586.576 51.3331 585.293 50.0504L584 51.3439C584.94 52.2842 585.399 53.3921 585.399 54.7182H587.228ZM585.293 50.0504C584.088 48.8458 582.506 47.7937 580.575 46.8794L579.792 48.5325C581.589 49.3835 582.981 50.3256 584 51.3439L585.293 50.0504ZM580.581 46.8821C578.73 45.9894 576.7 45.0987 574.494 44.2096L573.811 45.9063C575.985 46.7826 577.977 47.6572 579.787 48.5298L580.581 46.8821ZM574.494 44.2096C572.157 43.2681 569.769 42.2285 567.331 41.0908L566.557 42.7485C569.023 43.8991 571.441 44.9518 573.811 45.9064L574.494 44.2096ZM567.34 41.0951C564.95 39.9482 562.755 38.5639 560.753 36.9426L559.602 38.3644C561.718 40.0775 564.034 41.5374 566.548 42.7442L567.34 41.0951ZM560.753 36.9426C558.79 35.3539 557.201 33.4229 555.982 31.142L554.369 32.0039C555.7 34.4959 557.445 36.6186 559.602 38.3644L560.753 36.9426ZM555.984 31.1465C554.795 28.8893 554.178 26.1018 554.178 22.7464H552.348C552.348 26.3215 553.006 29.4183 554.366 31.9994L555.984 31.1465ZM554.178 22.7464C554.178 18.3286 555.279 14.6137 557.442 11.5547L555.949 10.4986C553.535 13.9124 552.348 18.0108 552.348 22.7464H554.178ZM557.441 11.5562C559.657 8.43598 562.672 6.05383 566.518 4.41453L565.801 2.73174C561.67 4.49231 558.376 7.07918 555.95 10.4972L557.441 11.5562ZM566.521 4.41311C570.412 2.73688 574.83 1.88883 579.792 1.88883V0.0595691C574.619 0.0595691 569.949 0.944145 565.798 2.73316L566.521 4.41311ZM579.792 1.88883C583.405 1.88883 587.24 2.3685 591.3 3.33506L591.723 1.55554C587.545 0.560634 583.567 0.0595691 579.792 0.0595691V1.88883ZM591.3 3.33506C595.344 4.29808 599.447 5.80923 603.609 7.87406L604.422 6.23539C600.15 4.11577 595.917 2.55397 591.723 1.55554L591.3 3.33506ZM603.192 6.65608L595.641 22.2497L597.287 23.047L604.839 7.45337L603.192 6.65608ZM596.941 21.8679C594.517 20.3864 591.862 19.2113 588.981 18.3403L588.452 20.0913C591.193 20.9202 593.704 22.0335 595.987 23.4288L596.941 21.8679ZM588.993 18.3441C586.147 17.4399 583.502 16.9772 581.067 16.9772V18.8064C583.273 18.8064 585.728 19.2263 588.439 20.0875L588.993 18.3441ZM581.067 16.9772C579.386 16.9772 577.874 17.1998 576.546 17.6663L577.153 19.3922C578.244 19.0087 579.543 18.8064 581.067 18.8064V16.9772ZM576.539 17.669C575.235 18.14 574.167 18.8486 573.389 19.8213L574.818 20.964C575.347 20.3021 576.111 19.7685 577.16 19.3895L576.539 17.669ZM573.401 19.8071C572.602 20.7658 572.208 21.908 572.208 23.1877H574.037C574.037 22.3099 574.297 21.5886 574.806 20.9782L573.401 19.8071ZM572.208 23.1877C572.208 24.8924 572.878 26.3938 574.143 27.6593L575.437 26.3658C574.479 25.4083 574.037 24.3598 574.037 23.1877H572.208ZM574.153 27.6689C575.349 28.8301 576.905 29.8772 578.794 30.8219L579.612 29.1857C577.84 28.2997 576.454 27.3526 575.427 26.3562L574.153 27.6689ZM578.794 30.8219C580.64 31.7449 582.648 32.683 584.818 33.6362L585.554 31.9615C583.408 31.0187 581.428 30.0934 579.612 29.1857L578.794 30.8219ZM584.824 33.6389C587.159 34.6443 589.545 35.764 591.981 36.9983L592.807 35.3665C590.34 34.1163 587.92 32.9803 585.547 31.9588L584.824 33.6389ZM591.985 37.0005C594.41 38.2131 596.624 39.6468 598.628 41.3011L599.792 39.8903C597.677 38.1446 595.347 36.6362 592.803 35.3643L591.985 37.0005ZM598.633 41.3055C600.631 42.9284 602.236 44.8767 603.454 47.1562L605.068 46.2942C603.736 43.8009 601.974 41.6628 599.787 39.8858L598.633 41.3055ZM603.457 47.1609C604.644 49.3531 605.259 52.0238 605.259 55.2085H607.088C607.088 51.7897 606.428 48.8049 605.065 46.2896L603.457 47.1609ZM605.259 55.2085C605.259 59.4434 604.102 63.1442 601.802 66.3456L603.287 67.4129C605.826 63.8799 607.088 59.8002 607.088 55.2085H605.259ZM601.801 66.3469C599.525 69.5274 596.315 72.029 592.13 73.8363L592.855 75.5157C597.3 73.5962 600.792 70.9 603.288 67.4115L601.801 66.3469ZM592.127 73.8373C587.982 75.641 583.125 76.5565 577.536 76.5565V78.3857C583.323 78.3857 588.437 77.4378 592.857 75.5147L592.127 73.8373ZM577.536 76.5565C572.34 76.5565 567.342 75.7229 562.536 74.057L561.937 75.7854C566.939 77.5194 572.14 78.3857 577.536 78.3857V76.5565ZM562.536 74.057C557.728 72.39 553.305 69.9864 549.264 66.8438L548.141 68.2877C552.339 71.5525 556.938 74.0525 561.937 75.7854L562.536 74.057Z" fill="black" fill-opacity="0.15" mask="url(#path-1-outside-1_78_756)"/>
</svg>
