<svg width="572" height="106" viewBox="0 0 572 106" fill="none" xmlns="http://www.w3.org/2000/svg">
<mask id="path-1-outside-1_1715_2232" maskUnits="userSpaceOnUse" x="0" y="0" width="572" height="106" fill="black">
<rect fill="white" width="572" height="106"/>
<path d="M89.2075 102H60.5873L41.8993 69.5899H28.308V102H2.4322V3.98573H43.8596C52.3541 3.98573 59.5854 5.27081 65.5534 7.84096C71.5214 10.4111 76.0736 14.1574 79.21 19.0799C82.3901 23.9589 83.9801 29.8615 83.9801 36.7878C83.9801 43.2786 82.5861 48.8763 79.7981 53.581C77.0102 58.2856 72.9807 61.9884 67.7097 64.6892L89.2075 102ZM28.308 49.6604H41.8339C47.0178 49.6604 50.9166 48.702 53.5303 46.7853C56.1876 44.825 57.5162 41.9281 57.5162 38.0947C57.5162 34.2613 56.1876 31.3862 53.5303 29.4694C50.9166 27.5092 47.0178 26.529 41.8339 26.529H28.308V49.6604ZM97.0486 102V3.98573H162.391V26.529H122.924V41.6886H159.778V64.2318H122.924V79.4567H163.045V102H97.0486ZM170.233 90.761L182.386 71.0275C185.566 73.5105 188.529 75.5361 191.273 77.1044C194.061 78.6726 196.762 79.827 199.376 80.5675C202.033 81.2645 204.734 81.613 207.478 81.613C210.179 81.613 212.488 81.3081 214.404 80.6982C216.321 80.0448 217.78 79.13 218.782 77.9538C219.828 76.7341 220.351 75.2966 220.351 73.6412C220.351 71.5502 219.61 69.7642 218.129 68.2831C216.648 66.802 214.666 65.4734 212.183 64.2972C209.743 63.121 207.064 61.9448 204.146 60.7687C201.009 59.5054 197.807 58.1114 194.54 56.5867C191.273 55.0185 188.267 53.1236 185.523 50.9019C182.778 48.6802 180.557 45.9794 178.858 42.7994C177.159 39.5758 176.31 35.6552 176.31 31.0377C176.31 24.939 177.834 19.7334 180.884 15.4207C183.976 11.0645 188.18 7.75384 193.495 5.48862C198.853 3.17984 204.908 2.02545 211.66 2.02545C216.582 2.02545 221.788 2.67888 227.277 3.98573C232.766 5.29259 238.32 7.34 243.939 10.128L233.877 30.907C230.74 28.9903 227.299 27.4656 223.552 26.333C219.85 25.1568 216.452 24.5687 213.359 24.5687C211.224 24.5687 209.351 24.8519 207.739 25.4182C206.171 25.9845 204.951 26.8122 204.08 27.9012C203.209 28.9467 202.773 30.1882 202.773 31.6258C202.773 33.5425 203.514 35.2414 204.995 36.7225C206.476 38.16 208.436 39.4887 210.876 40.7084C213.315 41.9281 215.973 43.1697 218.848 44.433C221.984 45.7834 225.186 47.2863 228.453 48.9416C231.764 50.597 234.791 52.5572 237.536 54.8225C240.324 57.0877 242.567 59.8103 244.266 62.9903C245.965 66.1268 246.814 69.8949 246.814 74.2946C246.814 80.1755 245.203 85.3594 241.979 89.8462C238.799 94.2895 234.334 97.7527 228.584 100.236C222.877 102.719 216.234 103.96 208.654 103.96C201.597 103.96 194.802 102.828 188.267 100.562C181.733 98.2972 175.721 95.0301 170.233 90.761ZM344.437 3.98573V57.7629C344.437 67.3465 342.672 75.6015 339.144 82.5278C335.659 89.4106 330.628 94.7034 324.05 98.4061C317.515 102.109 309.674 103.96 300.526 103.96C291.422 103.96 283.581 102.109 277.003 98.4061C270.425 94.7034 265.372 89.4106 261.843 82.5278C258.358 75.6015 256.616 67.3465 256.616 57.7629V3.98573H282.492V54.2344C282.492 60.4637 283.123 65.5823 284.387 69.5899C285.693 73.5976 287.675 76.5816 290.333 78.5419C292.99 80.4586 296.388 81.417 300.526 81.417C304.665 81.417 308.062 80.4586 310.72 78.5419C313.377 76.5816 315.337 73.5976 316.601 69.5899C317.907 65.5823 318.561 60.4637 318.561 54.2344V3.98573H344.437ZM424.155 102H357.505V3.98573H383.381V79.4567H424.155V102ZM463.491 102H437.616V26.529H410.433V3.98573H490.674V26.529H463.491V102ZM493.288 90.761L505.441 71.0275C508.621 73.5105 511.584 75.5361 514.328 77.1044C517.116 78.6726 519.817 79.827 522.431 80.5675C525.088 81.2645 527.789 81.613 530.533 81.613C533.234 81.613 535.543 81.3081 537.459 80.6982C539.376 80.0448 540.835 79.13 541.837 77.9538C542.883 76.7341 543.406 75.2966 543.406 73.6412C543.406 71.5502 542.665 69.7642 541.184 68.2831C539.703 66.802 537.721 65.4734 535.238 64.2972C532.798 63.121 530.119 61.9448 527.201 60.7687C524.064 59.5054 520.862 58.1114 517.595 56.5867C514.328 55.0185 511.322 53.1236 508.578 50.9019C505.834 48.6802 503.612 45.9794 501.913 42.7994C500.214 39.5758 499.365 35.6552 499.365 31.0377C499.365 24.939 500.889 19.7334 503.939 15.4207C507.031 11.0645 511.235 7.75384 516.55 5.48862C521.908 3.17984 527.963 2.02545 534.715 2.02545C539.638 2.02545 544.843 2.67888 550.332 3.98573C555.821 5.29259 561.375 7.34 566.994 10.128L556.932 30.907C553.795 28.9903 550.354 27.4656 546.607 26.333C542.905 25.1568 539.507 24.5687 536.414 24.5687C534.279 24.5687 532.406 24.8519 530.794 25.4182C529.226 25.9845 528.007 26.8122 527.135 27.9012C526.264 28.9467 525.828 30.1882 525.828 31.6258C525.828 33.5425 526.569 35.2414 528.05 36.7225C529.531 38.16 531.491 39.4887 533.931 40.7084C536.37 41.9281 539.028 43.1697 541.903 44.433C545.039 45.7834 548.241 47.2863 551.508 48.9416C554.819 50.597 557.846 52.5572 560.591 54.8225C563.379 57.0877 565.622 59.8103 567.321 62.9903C569.02 66.1268 569.869 69.8949 569.869 74.2946C569.869 80.1755 568.258 85.3594 565.034 89.8462C561.854 94.2895 557.389 97.7527 551.639 100.236C545.932 102.719 539.289 103.96 531.709 103.96C524.652 103.96 517.857 102.828 511.322 100.562C504.788 98.2972 498.776 95.0301 493.288 90.761Z"/>
</mask>
<path d="M89.2075 102V104H92.6681L90.9404 101.002L89.2075 102ZM60.5873 102L58.8547 102.999L59.4319 104H60.5873V102ZM41.8993 69.5899L43.6319 68.5909L43.0547 67.5899H41.8993V69.5899ZM28.308 69.5899V67.5899H26.308V69.5899H28.308ZM28.308 102V104H30.308V102H28.308ZM2.4322 102H0.432203V104H2.4322V102ZM2.4322 3.98573V1.98573H0.432203V3.98573H2.4322ZM65.5534 7.84096L66.3445 6.00406L65.5534 7.84096ZM79.21 19.0799L77.5233 20.1546L77.5289 20.1634L77.5345 20.172L79.21 19.0799ZM67.7097 64.6892L66.7977 62.9093L64.9279 63.8674L65.9768 65.6877L67.7097 64.6892ZM28.308 49.6604H26.308V51.6604H28.308V49.6604ZM53.5303 46.7853L54.713 48.3981L54.7176 48.3947L53.5303 46.7853ZM53.5303 29.4694L52.3303 31.0694L52.3452 31.0806L52.3603 31.0915L53.5303 29.4694ZM28.308 26.529V24.529H26.308V26.529H28.308ZM89.2075 100H60.5873V104H89.2075V100ZM62.3199 101.001L43.6319 68.5909L40.1667 70.589L58.8547 102.999L62.3199 101.001ZM41.8993 67.5899H28.308V71.5899H41.8993V67.5899ZM26.308 69.5899V102H30.308V69.5899H26.308ZM28.308 100H2.4322V104H28.308V100ZM4.4322 102V3.98573H0.432203V102H4.4322ZM2.4322 5.98573H43.8596V1.98573H2.4322V5.98573ZM43.8596 5.98573C52.1618 5.98573 59.1083 7.2429 64.7623 9.67786L66.3445 6.00406C60.0626 3.29872 52.5465 1.98573 43.8596 1.98573V5.98573ZM64.7623 9.67786C70.4055 12.1081 74.6263 15.608 77.5233 20.1546L80.8968 18.0052C77.5208 12.7069 72.6373 8.7141 66.3445 6.00406L64.7623 9.67786ZM77.5345 20.172C80.4655 24.6688 81.9801 30.1747 81.9801 36.7878H85.9801C85.9801 29.5483 84.3147 23.2489 80.8856 17.9879L77.5345 20.172ZM81.9801 36.7878C81.9801 42.9873 80.651 48.2186 78.0775 52.5613L81.5187 54.6006C84.5212 49.5339 85.9801 43.5698 85.9801 36.7878H81.9801ZM78.0775 52.5613C75.4979 56.9144 71.7618 60.3657 66.7977 62.9093L68.6217 66.4692C74.1996 63.6111 78.5224 59.6568 81.5187 54.6006L78.0775 52.5613ZM65.9768 65.6877L87.4746 102.998L90.9404 101.002L69.4426 63.6908L65.9768 65.6877ZM28.308 51.6604H41.8339V47.6604H28.308V51.6604ZM41.8339 51.6604C47.2077 51.6604 51.6056 50.6769 54.713 48.3981L52.3476 45.1725C50.2276 46.7271 46.8279 47.6604 41.8339 47.6604V51.6604ZM54.7176 48.3947C57.9729 45.9933 59.5162 42.4468 59.5162 38.0947H55.5162C55.5162 41.4095 54.4022 43.6567 52.343 45.1758L54.7176 48.3947ZM59.5162 38.0947C59.5162 33.7433 57.9723 30.2075 54.7003 27.8474L52.3603 31.0915C54.4029 32.5648 55.5162 34.7792 55.5162 38.0947H59.5162ZM54.7303 27.8694C51.6201 25.5368 47.2146 24.529 41.8339 24.529V28.529C46.821 28.529 50.2131 29.4815 52.3303 31.0694L54.7303 27.8694ZM41.8339 24.529H28.308V28.529H41.8339V24.529ZM26.308 26.529V49.6604H30.308V26.529H26.308ZM97.0486 102H95.0486V104H97.0486V102ZM97.0486 3.98573V1.98573H95.0486V3.98573H97.0486ZM162.391 3.98573H164.391V1.98573H162.391V3.98573ZM162.391 26.529V28.529H164.391V26.529H162.391ZM122.924 26.529V24.529H120.924V26.529H122.924ZM122.924 41.6886H120.924V43.6886H122.924V41.6886ZM159.778 41.6886H161.778V39.6886H159.778V41.6886ZM159.778 64.2318V66.2318H161.778V64.2318H159.778ZM122.924 64.2318V62.2318H120.924V64.2318H122.924ZM122.924 79.4567H120.924V81.4567H122.924V79.4567ZM163.045 79.4567H165.045V77.4567H163.045V79.4567ZM163.045 102V104H165.045V102H163.045ZM99.0486 102V3.98573H95.0486V102H99.0486ZM97.0486 5.98573H162.391V1.98573H97.0486V5.98573ZM160.391 3.98573V26.529H164.391V3.98573H160.391ZM162.391 24.529H122.924V28.529H162.391V24.529ZM120.924 26.529V41.6886H124.924V26.529H120.924ZM122.924 43.6886H159.778V39.6886H122.924V43.6886ZM157.778 41.6886V64.2318H161.778V41.6886H157.778ZM159.778 62.2318H122.924V66.2318H159.778V62.2318ZM120.924 64.2318V79.4567H124.924V64.2318H120.924ZM122.924 81.4567H163.045V77.4567H122.924V81.4567ZM161.045 79.4567V102H165.045V79.4567H161.045ZM163.045 100H97.0486V104H163.045V100ZM170.233 90.761L168.53 89.7122L167.589 91.2389L169.005 92.3397L170.233 90.761ZM182.386 71.0275L183.617 69.4511L181.856 68.0756L180.683 69.9787L182.386 71.0275ZM191.273 77.1044L190.281 78.8409L190.292 78.8475L191.273 77.1044ZM199.376 80.5675L198.83 82.4918L198.849 82.4971L198.868 82.5021L199.376 80.5675ZM214.404 80.6982L215.011 82.6041L215.03 82.5979L215.05 82.5913L214.404 80.6982ZM218.782 77.9538L217.264 76.6522L217.26 76.6569L218.782 77.9538ZM218.129 68.2831L219.543 66.8689L218.129 68.2831ZM212.183 64.2972L211.314 66.0988L211.327 66.1047L212.183 64.2972ZM204.146 60.7687L204.893 58.9136L204.893 58.9135L204.146 60.7687ZM194.54 56.5867L193.675 58.3898L193.685 58.3945L193.694 58.3991L194.54 56.5867ZM178.858 42.7994L177.089 43.7319L177.094 43.7418L178.858 42.7994ZM180.884 15.4207L179.253 14.2629L179.25 14.2661L180.884 15.4207ZM193.495 5.48862L194.279 7.32848L194.286 7.32536L193.495 5.48862ZM243.939 10.128L245.739 10.9997L246.603 9.21676L244.828 8.33634L243.939 10.128ZM233.877 30.907L232.834 32.6135L234.715 33.7635L235.677 31.7787L233.877 30.907ZM223.552 26.333L222.947 28.2391L222.96 28.2434L222.974 28.2474L223.552 26.333ZM207.739 25.4182L207.076 23.5313L207.068 23.5341L207.06 23.5371L207.739 25.4182ZM204.08 27.9012L205.617 29.1816L205.629 29.1662L205.642 29.1506L204.08 27.9012ZM204.995 36.7225L203.581 38.1367L203.591 38.1473L203.602 38.1577L204.995 36.7225ZM218.848 44.433L218.043 46.264L218.05 46.267L218.057 46.2699L218.848 44.433ZM228.453 48.9416L227.549 50.7257L227.559 50.7305L228.453 48.9416ZM237.536 54.8225L236.263 56.3649L236.269 56.3698L236.275 56.3747L237.536 54.8225ZM244.266 62.9903L242.502 63.9328L242.507 63.9429L244.266 62.9903ZM241.979 89.8462L240.355 88.6793L240.353 88.6822L241.979 89.8462ZM228.584 100.236L227.791 98.3996L227.786 98.4018L228.584 100.236ZM171.936 91.8099L184.089 72.0763L180.683 69.9787L168.53 89.7122L171.936 91.8099ZM181.156 72.6039C184.392 75.1307 187.434 77.2142 190.281 78.8409L192.265 75.3679C189.623 73.8581 186.741 71.8904 183.617 69.4511L181.156 72.6039ZM190.292 78.8475C193.194 80.4798 196.041 81.7015 198.83 82.4918L199.921 78.6433C197.483 77.9525 194.928 76.8654 192.254 75.3612L190.292 78.8475ZM198.868 82.5021C201.691 83.2425 204.562 83.613 207.478 83.613V79.613C204.905 79.613 202.375 79.2866 199.883 78.633L198.868 82.5021ZM207.478 83.613C210.319 83.613 212.844 83.2936 215.011 82.6041L213.798 78.7924C212.131 79.3226 210.039 79.613 207.478 79.613V83.613ZM215.05 82.5913C217.204 81.8569 219.008 80.7735 220.305 79.2508L217.26 76.6569C216.553 77.4865 215.438 78.2327 213.759 78.8052L215.05 82.5913ZM220.301 79.2554C221.667 77.6613 222.351 75.7581 222.351 73.6412H218.351C218.351 74.835 217.988 75.8069 217.264 76.6523L220.301 79.2554ZM222.351 73.6412C222.351 71.0188 221.399 68.7243 219.543 66.8689L216.715 69.6973C217.821 70.8041 218.351 72.0817 218.351 73.6412H222.351ZM219.543 66.8689C217.858 65.184 215.668 63.7351 213.039 62.4897L211.327 66.1047C213.663 67.2116 215.437 68.42 216.715 69.6973L219.543 66.8689ZM213.051 62.4956C210.566 61.2975 207.846 60.1037 204.893 58.9136L203.398 62.6237C206.282 63.7859 208.92 64.9445 211.314 66.0987L213.051 62.4956ZM204.893 58.9135C201.792 57.6644 198.623 56.2849 195.386 54.7744L193.694 58.3991C196.992 59.9379 200.227 61.3463 203.398 62.6238L204.893 58.9135ZM195.406 54.7837C192.275 53.281 189.402 51.4687 186.781 49.3474L184.264 52.4564C187.133 54.7784 190.271 56.756 193.675 58.3898L195.406 54.7837ZM186.781 49.3474C184.249 47.2975 182.198 44.8063 180.622 41.857L177.094 43.7418C178.916 47.1525 181.308 50.063 184.264 52.4564L186.781 49.3474ZM180.627 41.8669C179.115 38.9975 178.31 35.4151 178.31 31.0377H174.31C174.31 35.8954 175.203 40.1542 177.089 43.7319L180.627 41.8669ZM178.31 31.0377C178.31 25.2865 179.741 20.5001 182.517 16.5754L179.25 14.2661C175.927 18.9666 174.31 24.5915 174.31 31.0377H178.31ZM182.514 16.5786C185.376 12.548 189.275 9.4611 194.279 7.32847L192.71 3.64877C187.085 6.04657 182.577 9.58111 179.253 14.2629L182.514 16.5786ZM194.286 7.32536C199.358 5.1399 205.138 4.02545 211.66 4.02545V0.0254494C204.678 0.0254494 198.348 1.21978 192.703 3.65188L194.286 7.32536ZM211.66 4.02545C216.406 4.02545 221.455 4.65548 226.814 5.93135L227.74 2.04012C222.121 0.702275 216.759 0.0254494 211.66 0.0254494V4.02545ZM226.814 5.93135C232.14 7.1995 237.552 9.19151 243.05 11.9196L244.828 8.33634C239.088 5.48849 233.392 3.38569 227.74 2.04012L226.814 5.93135ZM242.139 9.25625L232.077 30.0353L235.677 31.7787L245.739 10.9997L242.139 9.25625ZM234.919 29.2004C231.629 27.1894 228.03 25.5973 224.131 24.4186L222.974 28.2474C226.568 29.3339 229.852 30.7911 232.834 32.6135L234.919 29.2004ZM224.158 24.4268C220.307 23.2037 216.702 22.5687 213.359 22.5687V26.5687C216.202 26.5687 219.392 27.11 222.947 28.2391L224.158 24.4268ZM213.359 22.5687C211.053 22.5687 208.947 22.8741 207.076 23.5313L208.402 27.3051C209.756 26.8297 211.396 26.5687 213.359 26.5687V22.5687ZM207.06 23.5371C205.213 24.2039 203.662 25.223 202.518 26.6518L205.642 29.1506C206.241 28.4013 207.129 27.7651 208.419 27.2993L207.06 23.5371ZM202.544 26.6208C201.355 28.0471 200.773 29.7488 200.773 31.6258H204.773C204.773 30.6276 205.063 29.8463 205.617 29.1816L202.544 26.6208ZM200.773 31.6258C200.773 34.1247 201.763 36.3188 203.581 38.1367L206.409 35.3083C205.265 34.1639 204.773 32.9602 204.773 31.6258H200.773ZM203.602 38.1577C205.269 39.7754 207.414 41.2135 209.981 42.4973L211.77 38.9196C209.459 37.7639 207.683 36.5447 206.388 35.2873L203.602 38.1577ZM209.981 42.4973C212.455 43.7338 215.142 44.9893 218.043 46.264L219.652 42.6019C216.803 41.35 214.176 40.1225 211.77 38.9196L209.981 42.4973ZM218.057 46.2699C221.152 47.6028 224.316 49.0878 227.549 50.7257L229.357 47.1575C226.055 45.4847 222.816 43.964 219.639 42.596L218.057 46.2699ZM227.559 50.7305C230.74 52.321 233.639 54.1997 236.263 56.3649L238.809 53.28C235.943 50.9148 232.788 48.873 229.348 47.1528L227.559 50.7305ZM236.275 56.3747C238.855 58.4715 240.928 60.9865 242.502 63.9328L246.03 62.0479C244.206 58.6341 241.792 55.7039 238.797 53.2702L236.275 56.3747ZM242.507 63.9429C244.015 66.7261 244.814 70.1509 244.814 74.2946H248.814C248.814 69.6389 247.915 65.5274 246.025 62.0378L242.507 63.9429ZM244.814 74.2946C244.814 79.7854 243.318 84.555 240.355 88.6793L243.603 91.0132C247.087 86.1637 248.814 80.5656 248.814 74.2946H244.814ZM240.353 88.6822C237.414 92.7888 233.257 96.0392 227.791 98.3996L229.377 102.072C235.411 99.4662 240.184 95.7903 243.605 91.0102L240.353 88.6822ZM227.786 98.4018C222.38 100.754 216.018 101.96 208.654 101.96V105.96C216.45 105.96 223.375 104.683 229.382 102.07L227.786 98.4018ZM208.654 101.96C201.816 101.96 195.242 100.863 188.922 98.6728L187.612 102.452C194.361 104.792 201.379 105.96 208.654 105.96V101.96ZM188.922 98.6728C182.596 96.4796 176.778 93.3179 171.461 89.1823L169.005 92.3397C174.665 96.7423 180.87 100.115 187.612 102.452L188.922 98.6728ZM344.437 3.98573H346.437V1.98573H344.437V3.98573ZM339.144 82.5278L337.362 81.62L337.36 81.6244L339.144 82.5278ZM324.05 98.4061L323.069 96.6633L323.064 96.6661L324.05 98.4061ZM261.843 82.5278L260.057 83.4268L260.06 83.4335L260.064 83.4402L261.843 82.5278ZM256.616 3.98573V1.98573H254.616V3.98573H256.616ZM282.492 3.98573H284.492V1.98573H282.492V3.98573ZM284.387 69.5899L282.479 70.1912L282.482 70.2006L282.485 70.21L284.387 69.5899ZM290.333 78.5419L289.145 80.1514L289.154 80.1577L289.163 80.164L290.333 78.5419ZM310.72 78.5419L311.89 80.164L311.898 80.1577L311.907 80.1514L310.72 78.5419ZM316.601 69.5899L314.699 68.9699L314.696 68.9793L314.693 68.9887L316.601 69.5899ZM318.561 3.98573V1.98573H316.561V3.98573H318.561ZM342.437 3.98573V57.7629H346.437V3.98573H342.437ZM342.437 57.7629C342.437 67.1032 340.718 75.0328 337.362 81.62L340.926 83.4357C344.627 76.1702 346.437 67.5899 346.437 57.7629H342.437ZM337.36 81.6244C334.049 88.1623 329.294 93.1592 323.069 96.6633L325.031 100.149C331.961 96.2476 337.269 90.6589 340.928 83.4313L337.36 81.6244ZM323.064 96.6661C316.889 100.165 309.404 101.96 300.526 101.96V105.96C309.945 105.96 318.142 104.053 325.036 100.146L323.064 96.6661ZM300.526 101.96C291.695 101.96 284.206 100.166 277.984 96.6633L276.022 100.149C282.955 104.052 291.149 105.96 300.526 105.96V101.96ZM277.984 96.6633C271.757 93.158 266.977 88.1582 263.623 81.6154L260.064 83.4402C263.766 90.663 269.093 96.2488 276.022 100.149L277.984 96.6633ZM263.63 81.6289C260.314 75.0395 258.616 67.1066 258.616 57.7629H254.616C254.616 67.5864 256.402 76.1634 260.057 83.4268L263.63 81.6289ZM258.616 57.7629V3.98573H254.616V57.7629H258.616ZM256.616 5.98573H282.492V1.98573H256.616V5.98573ZM280.492 3.98573V54.2344H284.492V3.98573H280.492ZM280.492 54.2344C280.492 60.5792 281.133 65.9195 282.479 70.1912L286.294 68.9887C285.114 65.245 284.492 60.3482 284.492 54.2344H280.492ZM282.485 70.21C283.885 74.504 286.071 77.883 289.145 80.1514L291.52 76.9325C289.28 75.2803 287.502 72.6913 286.288 68.9699L282.485 70.21ZM289.163 80.164C292.241 82.3844 296.079 83.417 300.526 83.417V79.417C296.697 79.417 293.739 78.5329 291.503 76.9199L289.163 80.164ZM300.526 83.417C304.973 83.417 308.811 82.3844 311.89 80.164L309.55 76.9199C307.313 78.5329 304.356 79.417 300.526 79.417V83.417ZM311.907 80.1514C314.988 77.8786 317.152 74.492 318.508 70.1912L314.693 68.9887C313.522 72.7032 311.766 75.2846 309.532 76.9325L311.907 80.1514ZM318.502 70.21C319.897 65.931 320.561 60.5836 320.561 54.2344H316.561C316.561 60.3438 315.918 65.2335 314.699 68.9699L318.502 70.21ZM320.561 54.2344V3.98573H316.561V54.2344H320.561ZM318.561 5.98573H344.437V1.98573H318.561V5.98573ZM424.155 102V104H426.155V102H424.155ZM357.505 102H355.505V104H357.505V102ZM357.505 3.98573V1.98573H355.505V3.98573H357.505ZM383.381 3.98573H385.381V1.98573H383.381V3.98573ZM383.381 79.4567H381.381V81.4567H383.381V79.4567ZM424.155 79.4567H426.155V77.4567H424.155V79.4567ZM424.155 100H357.505V104H424.155V100ZM359.505 102V3.98573H355.505V102H359.505ZM357.505 5.98573H383.381V1.98573H357.505V5.98573ZM381.381 3.98573V79.4567H385.381V3.98573H381.381ZM383.381 81.4567H424.155V77.4567H383.381V81.4567ZM422.155 79.4567V102H426.155V79.4567H422.155ZM463.491 102V104H465.491V102H463.491ZM437.616 102H435.616V104H437.616V102ZM437.616 26.529H439.616V24.529H437.616V26.529ZM410.433 26.529H408.433V28.529H410.433V26.529ZM410.433 3.98573V1.98573H408.433V3.98573H410.433ZM490.674 3.98573H492.674V1.98573H490.674V3.98573ZM490.674 26.529V28.529H492.674V26.529H490.674ZM463.491 26.529V24.529H461.491V26.529H463.491ZM463.491 100H437.616V104H463.491V100ZM439.616 102V26.529H435.616V102H439.616ZM437.616 24.529H410.433V28.529H437.616V24.529ZM412.433 26.529V3.98573H408.433V26.529H412.433ZM410.433 5.98573H490.674V1.98573H410.433V5.98573ZM488.674 3.98573V26.529H492.674V3.98573H488.674ZM490.674 24.529H463.491V28.529H490.674V24.529ZM461.491 26.529V102H465.491V26.529H461.491ZM493.288 90.761L491.585 89.7122L490.644 91.2389L492.06 92.3397L493.288 90.761ZM505.441 71.0275L506.672 69.4511L504.911 68.0756L503.739 69.9787L505.441 71.0275ZM514.328 77.1044L513.336 78.8409L513.348 78.8475L514.328 77.1044ZM522.431 80.5675L521.885 82.4918L521.904 82.4971L521.923 82.5021L522.431 80.5675ZM537.459 80.6982L538.066 82.6041L538.085 82.5979L538.105 82.5913L537.459 80.6982ZM541.837 77.9538L540.319 76.6522L540.315 76.6569L541.837 77.9538ZM541.184 68.2831L542.598 66.8689L541.184 68.2831ZM535.238 64.2972L534.369 66.0988L534.382 66.1047L535.238 64.2972ZM527.201 60.7687L527.948 58.9136L527.948 58.9135L527.201 60.7687ZM517.595 56.5867L516.73 58.3898L516.74 58.3945L516.749 58.3991L517.595 56.5867ZM501.913 42.7994L500.144 43.7319L500.149 43.7418L501.913 42.7994ZM503.939 15.4207L502.308 14.2629L502.306 14.2661L503.939 15.4207ZM516.55 5.48862L517.334 7.32848L517.341 7.32536L516.55 5.48862ZM566.994 10.128L568.794 10.9997L569.658 9.21676L567.883 8.33634L566.994 10.128ZM556.932 30.907L555.889 32.6135L557.77 33.7635L558.732 31.7787L556.932 30.907ZM546.607 26.333L546.002 28.2391L546.015 28.2434L546.029 28.2474L546.607 26.333ZM530.794 25.4182L530.131 23.5313L530.123 23.5341L530.115 23.5371L530.794 25.4182ZM527.135 27.9012L528.672 29.1816L528.685 29.1662L528.697 29.1506L527.135 27.9012ZM528.05 36.7225L526.636 38.1367L526.646 38.1473L526.657 38.1577L528.05 36.7225ZM541.903 44.433L541.098 46.264L541.105 46.267L541.112 46.2699L541.903 44.433ZM551.508 48.9416L550.604 50.7257L550.614 50.7305L551.508 48.9416ZM560.591 54.8225L559.318 56.3649L559.324 56.3698L559.33 56.3747L560.591 54.8225ZM567.321 62.9903L565.557 63.9328L565.563 63.9429L567.321 62.9903ZM565.034 89.8462L563.41 88.6793L563.408 88.6822L565.034 89.8462ZM551.639 100.236L550.846 98.3996L550.841 98.4018L551.639 100.236ZM494.991 91.8099L507.144 72.0763L503.739 69.9787L491.585 89.7122L494.991 91.8099ZM504.211 72.6039C507.447 75.1307 510.489 77.2142 513.336 78.8409L515.32 75.3679C512.678 73.8581 509.796 71.8904 506.672 69.4511L504.211 72.6039ZM513.348 78.8475C516.249 80.4798 519.096 81.7015 521.885 82.4918L522.976 78.6433C520.538 77.9525 517.983 76.8654 515.309 75.3612L513.348 78.8475ZM521.923 82.5021C524.746 83.2425 527.617 83.613 530.533 83.613V79.613C527.96 79.613 525.43 79.2866 522.938 78.633L521.923 82.5021ZM530.533 83.613C533.374 83.613 535.899 83.2936 538.066 82.6041L536.853 78.7924C535.187 79.3226 533.094 79.613 530.533 79.613V83.613ZM538.105 82.5913C540.259 81.8569 542.063 80.7735 543.36 79.2508L540.315 76.6569C539.608 77.4865 538.493 78.2327 536.814 78.8052L538.105 82.5913ZM543.356 79.2554C544.722 77.6613 545.406 75.7581 545.406 73.6412H541.406C541.406 74.835 541.044 75.8069 540.319 76.6523L543.356 79.2554ZM545.406 73.6412C545.406 71.0188 544.454 68.7243 542.598 66.8689L539.77 69.6973C540.877 70.8041 541.406 72.0817 541.406 73.6412H545.406ZM542.598 66.8689C540.913 65.184 538.723 63.7351 536.094 62.4897L534.382 66.1047C536.718 67.2116 538.492 68.42 539.77 69.6973L542.598 66.8689ZM536.106 62.4956C533.621 61.2975 530.901 60.1037 527.948 58.9136L526.453 62.6237C529.337 63.7859 531.975 64.9445 534.369 66.0987L536.106 62.4956ZM527.948 58.9135C524.847 57.6644 521.678 56.2849 518.441 54.7744L516.749 58.3991C520.047 59.9379 523.282 61.3463 526.453 62.6238L527.948 58.9135ZM518.461 54.7837C515.33 53.281 512.457 51.4687 509.836 49.3474L507.32 52.4564C510.188 54.7784 513.326 56.756 516.73 58.3898L518.461 54.7837ZM509.836 49.3474C507.304 47.2975 505.253 44.8063 503.677 41.857L500.149 43.7418C501.971 47.1525 504.363 50.063 507.32 52.4564L509.836 49.3474ZM503.682 41.8669C502.17 38.9975 501.365 35.4151 501.365 31.0377H497.365C497.365 35.8954 498.258 40.1542 500.144 43.7319L503.682 41.8669ZM501.365 31.0377C501.365 25.2865 502.797 20.5001 505.572 16.5754L502.306 14.2661C498.982 18.9666 497.365 24.5915 497.365 31.0377H501.365ZM505.569 16.5786C508.431 12.548 512.33 9.4611 517.334 7.32847L515.766 3.64877C510.14 6.04657 505.632 9.58111 502.308 14.2629L505.569 16.5786ZM517.341 7.32536C522.413 5.1399 528.193 4.02545 534.715 4.02545V0.0254494C527.733 0.0254494 521.403 1.21978 515.758 3.65188L517.341 7.32536ZM534.715 4.02545C539.461 4.02545 544.51 4.65548 549.869 5.93135L550.795 2.04012C545.176 0.702275 539.814 0.0254494 534.715 0.0254494V4.02545ZM549.869 5.93135C555.195 7.1995 560.607 9.19151 566.106 11.9196L567.883 8.33634C562.143 5.48849 556.447 3.38569 550.795 2.04012L549.869 5.93135ZM565.194 9.25625L555.132 30.0353L558.732 31.7787L568.794 10.9997L565.194 9.25625ZM557.975 29.2004C554.684 27.1894 551.085 25.5973 547.186 24.4186L546.029 28.2474C549.623 29.3339 552.907 30.7911 555.889 32.6135L557.975 29.2004ZM547.213 24.4268C543.362 23.2037 539.757 22.5687 536.414 22.5687V26.5687C539.257 26.5687 542.447 27.11 546.002 28.2391L547.213 24.4268ZM536.414 22.5687C534.108 22.5687 532.002 22.8741 530.131 23.5313L531.457 27.3051C532.811 26.8297 534.451 26.5687 536.414 26.5687V22.5687ZM530.115 23.5371C528.269 24.2039 526.717 25.223 525.574 26.6518L528.697 29.1506C529.296 28.4013 530.184 27.7651 531.474 27.2993L530.115 23.5371ZM525.599 26.6208C524.41 28.0471 523.828 29.7488 523.828 31.6258H527.828C527.828 30.6276 528.118 29.8463 528.672 29.1816L525.599 26.6208ZM523.828 31.6258C523.828 34.1247 524.818 36.3188 526.636 38.1367L529.464 35.3083C528.32 34.1639 527.828 32.9602 527.828 31.6258H523.828ZM526.657 38.1577C528.324 39.7754 530.469 41.2135 533.036 42.4973L534.825 38.9196C532.514 37.7639 530.738 36.5447 529.443 35.2873L526.657 38.1577ZM533.036 42.4973C535.51 43.7338 538.197 44.9893 541.098 46.264L542.707 42.6019C539.858 41.35 537.231 40.1225 534.825 38.9196L533.036 42.4973ZM541.112 46.2699C544.207 47.6028 547.372 49.0878 550.604 50.7257L552.412 47.1575C549.11 45.4847 545.871 43.964 542.694 42.596L541.112 46.2699ZM550.614 50.7305C553.795 52.321 556.694 54.1997 559.318 56.3649L561.864 53.28C558.998 50.9148 555.843 48.873 552.403 47.1528L550.614 50.7305ZM559.33 56.3747C561.91 58.4715 563.983 60.9865 565.557 63.9328L569.085 62.0479C567.261 58.6341 564.847 55.7039 561.852 53.2702L559.33 56.3747ZM565.563 63.9429C567.07 66.7261 567.869 70.1509 567.869 74.2946H571.869C571.869 69.6389 570.97 65.5274 569.08 62.0378L565.563 63.9429ZM567.869 74.2946C567.869 79.7854 566.373 84.555 563.41 88.6793L566.658 91.0132C570.142 86.1637 571.869 80.5656 571.869 74.2946H567.869ZM563.408 88.6822C560.469 92.7888 556.312 96.0392 550.846 98.3996L552.432 102.072C558.466 99.4662 563.239 95.7903 566.661 91.0102L563.408 88.6822ZM550.841 98.4018C545.435 100.754 539.073 101.96 531.709 101.96V105.96C539.505 105.96 546.43 104.683 552.437 102.07L550.841 98.4018ZM531.709 101.96C524.871 101.96 518.297 100.863 511.977 98.6728L510.667 102.452C517.417 104.792 524.434 105.96 531.709 105.96V101.96ZM511.977 98.6728C505.651 96.4796 499.833 93.3179 494.516 89.1823L492.06 92.3397C497.72 96.7423 503.925 100.115 510.667 102.452L511.977 98.6728Z" fill="#252735" fill-opacity="0.4" mask="url(#path-1-outside-1_1715_2232)"/>
</svg>
