<svg width="526" height="97" viewBox="0 0 526 97" fill="none" xmlns="http://www.w3.org/2000/svg">
<mask id="path-1-outside-1_932_1112" maskUnits="userSpaceOnUse" x="0" y="0" width="526" height="97" fill="black">
<rect fill="white" width="526" height="97"/>
<path d="M81.6042 94H55.2013L37.961 64.1008H25.4226V94H1.55152V3.5791H39.7694C47.6059 3.5791 54.277 4.76461 59.7826 7.13565C65.2882 9.50669 69.4878 12.9628 72.3812 17.5039C75.3149 22.0049 76.7817 27.4502 76.7817 33.84C76.7817 39.8278 75.4957 44.9919 72.9238 49.3321C70.3518 53.6723 66.6345 57.0882 61.7718 59.5798L81.6042 94ZM25.4226 45.7152H37.9007C42.683 45.7152 46.2797 44.8311 48.691 43.0629C51.1424 41.2545 52.3681 38.582 52.3681 35.0456C52.3681 31.5091 51.1424 28.8568 48.691 27.0885C46.2797 25.2801 42.683 24.3759 37.9007 24.3759H25.4226V45.7152ZM88.8378 94V3.5791H149.118V24.3759H112.709V38.361H146.707V59.1578H112.709V73.2032H149.721V94H88.8378ZM156.352 83.6317L167.564 65.427C170.498 67.7177 173.231 69.5864 175.762 71.0331C178.334 72.4798 180.826 73.5448 183.237 74.228C185.689 74.871 188.18 75.1925 190.712 75.1925C193.204 75.1925 195.334 74.9111 197.102 74.3485C198.87 73.7457 200.216 72.9018 201.141 71.8167C202.105 70.6915 202.587 69.3653 202.587 67.8382C202.587 65.9092 201.904 64.2616 200.538 62.8952C199.171 61.5288 197.343 60.3031 195.052 59.2181C192.802 58.133 190.33 57.048 187.638 55.9629C184.744 54.7975 181.791 53.5115 178.777 52.105C175.762 50.6582 172.99 48.9101 170.458 46.8606C167.926 44.811 165.876 42.3194 164.309 39.3858C162.742 36.4119 161.958 32.7951 161.958 28.5353C161.958 22.9091 163.365 18.1067 166.178 14.1282C169.031 10.1095 172.909 7.05528 177.812 4.96555C182.755 2.83564 188.341 1.77068 194.57 1.77068C199.111 1.77068 203.914 2.37348 208.977 3.5791C214.041 4.78471 219.165 6.6735 224.349 9.24547L215.065 28.4147C212.172 26.6465 208.997 25.2399 205.541 24.1951C202.125 23.11 198.991 22.5675 196.137 22.5675C194.168 22.5675 192.44 22.8287 190.953 23.3511C189.506 23.8736 188.381 24.6371 187.577 25.6418C186.774 26.6063 186.372 27.7516 186.372 29.0778C186.372 30.846 187.055 32.4133 188.421 33.7797C189.788 35.1059 191.596 36.3316 193.847 37.4568C196.097 38.582 198.549 39.7274 201.201 40.8928C204.094 42.1386 207.048 43.525 210.062 45.0522C213.116 46.5793 215.909 48.3877 218.441 50.4774C221.013 52.5671 223.083 55.0788 224.65 58.0125C226.217 60.9059 227.001 64.3821 227.001 68.441C227.001 73.8663 225.514 78.6485 222.54 82.7878C219.607 86.8869 215.487 90.0818 210.183 92.3724C204.918 94.6631 198.79 95.8084 191.797 95.8084C185.287 95.8084 179.018 94.7636 172.99 92.6738C166.962 90.5841 161.416 87.5701 156.352 83.6317ZM317.06 3.5791V53.19C317.06 62.0312 315.433 69.6466 312.177 76.0364C308.963 82.3859 304.321 87.2687 298.253 90.6846C292.225 94.1005 284.991 95.8084 276.552 95.8084C268.153 95.8084 260.919 94.1005 254.851 90.6846C248.782 87.2687 244.121 82.3859 240.866 76.0364C237.651 69.6466 236.043 62.0312 236.043 53.19V3.5791H259.914V49.9349C259.914 55.6816 260.497 60.4036 261.662 64.1008C262.868 67.798 264.696 70.5508 267.148 72.3593C269.599 74.1275 272.734 75.0116 276.552 75.0116C280.369 75.0116 283.504 74.1275 285.955 72.3593C288.407 70.5508 290.215 67.798 291.381 64.1008C292.586 60.4036 293.189 55.6816 293.189 49.9349V3.5791H317.06ZM390.603 94H329.116V3.5791H352.987V73.2032H390.603V94ZM426.891 94H403.02V24.3759H377.944V3.5791H451.968V24.3759H426.891V94ZM454.379 83.6317L465.592 65.427C468.525 67.7177 471.258 69.5864 473.79 71.0331C476.362 72.4798 478.853 73.5448 481.265 74.228C483.716 74.871 486.208 75.1925 488.739 75.1925C491.231 75.1925 493.361 74.9111 495.129 74.3485C496.897 73.7457 498.244 72.9018 499.168 71.8167C500.132 70.6915 500.615 69.3653 500.615 67.8382C500.615 65.9092 499.931 64.2616 498.565 62.8952C497.199 61.5288 495.37 60.3031 493.08 59.2181C490.829 58.133 488.358 57.048 485.665 55.9629C482.772 54.7975 479.818 53.5115 476.804 52.105C473.79 50.6582 471.017 48.9101 468.485 46.8606C465.953 44.811 463.904 42.3194 462.336 39.3858C460.769 36.4119 459.985 32.7951 459.985 28.5353C459.985 22.9091 461.392 18.1067 464.205 14.1282C467.058 10.1095 470.936 7.05528 475.839 4.96555C480.782 2.83564 486.368 1.77068 492.597 1.77068C497.138 1.77068 501.941 2.37348 507.004 3.5791C512.068 4.78471 517.192 6.6735 522.376 9.24547L513.093 28.4147C510.199 26.6465 507.024 25.2399 503.568 24.1951C500.152 23.11 497.018 22.5675 494.165 22.5675C492.195 22.5675 490.467 22.8287 488.98 23.3511C487.534 23.8736 486.408 24.6371 485.605 25.6418C484.801 26.6063 484.399 27.7516 484.399 29.0778C484.399 30.846 485.082 32.4133 486.449 33.7797C487.815 35.1059 489.623 36.3316 491.874 37.4568C494.124 38.582 496.576 39.7274 499.228 40.8928C502.122 42.1386 505.075 43.525 508.089 45.0522C511.144 46.5793 513.937 48.3877 516.468 50.4774C519.04 52.5671 521.11 55.0788 522.677 58.0125C524.245 60.9059 525.028 64.3821 525.028 68.441C525.028 73.8663 523.541 78.6485 520.568 82.7878C517.634 86.8869 513.515 90.0818 508.21 92.3724C502.945 94.6631 496.817 95.8084 489.824 95.8084C483.314 95.8084 477.045 94.7636 471.017 92.6738C464.989 90.5841 459.443 87.5701 454.379 83.6317Z"/>
</mask>
<path d="M81.6042 94V94.823H83.0283L82.3173 93.5891L81.6042 94ZM55.2013 94L54.4883 94.4111L54.7258 94.823H55.2013V94ZM37.961 64.1008L38.674 63.6897L38.4365 63.2778H37.961V64.1008ZM25.4226 64.1008V63.2778H24.5996V64.1008H25.4226ZM25.4226 94V94.823H26.2457V94H25.4226ZM1.55152 94H0.728493V94.823H1.55152V94ZM1.55152 3.5791V2.75607H0.728493V3.5791H1.55152ZM72.3812 17.5039L71.6871 17.9462L71.6917 17.9533L72.3812 17.5039ZM61.7718 59.5798L61.3965 58.8473L60.6271 59.2416L61.0587 59.9907L61.7718 59.5798ZM25.4226 45.7152H24.5996V46.5383H25.4226V45.7152ZM48.691 43.0629L49.1777 43.7266L49.1795 43.7252L48.691 43.0629ZM48.691 27.0885L48.1971 27.747L48.2033 27.7516L48.2095 27.756L48.691 27.0885ZM25.4226 24.3759V23.5529H24.5996V24.3759H25.4226ZM81.6042 93.177H55.2013V94.823H81.6042V93.177ZM55.9143 93.5889L38.674 63.6897L37.248 64.5119L54.4883 94.4111L55.9143 93.5889ZM37.961 63.2778H25.4226V64.9239H37.961V63.2778ZM24.5996 64.1008V94H26.2457V64.1008H24.5996ZM25.4226 93.177H1.55152V94.823H25.4226V93.177ZM2.37456 94V3.5791H0.728493V94H2.37456ZM1.55152 4.40213H39.7694V2.75607H1.55152V4.40213ZM39.7694 4.40213C47.5268 4.40213 54.0806 5.57616 59.457 7.89156L60.1081 6.37974C54.4733 3.95307 47.6851 2.75607 39.7694 2.75607V4.40213ZM59.457 7.89156C64.829 10.205 68.8922 13.5597 71.6871 17.9462L73.0753 17.0617C70.0833 12.3659 65.7474 8.80834 60.1081 6.37974L59.457 7.89156ZM71.6917 17.9533C74.5229 22.297 75.9587 27.5791 75.9587 33.84H77.6047C77.6047 27.3213 76.1069 21.7127 73.0707 17.0545L71.6917 17.9533ZM75.9587 33.84C75.9587 39.708 74.6994 44.7212 72.2157 48.9125L73.6318 49.7517C76.292 45.2625 77.6047 39.9477 77.6047 33.84H75.9587ZM72.2157 48.9125C69.7295 53.108 66.1329 56.4204 61.3965 58.8473L62.1472 60.3122C67.1361 57.7559 70.9741 54.2365 73.6318 49.7517L72.2157 48.9125ZM61.0587 59.9907L80.891 94.4109L82.3173 93.5891L62.485 59.1689L61.0587 59.9907ZM25.4226 46.5383H37.9007V44.8922H25.4226V46.5383ZM37.9007 46.5383C42.7611 46.5383 46.5633 45.6438 49.1777 43.7266L48.2042 42.3992C45.9962 44.0184 42.6049 44.8922 37.9007 44.8922V46.5383ZM49.1795 43.7252C51.8771 41.7352 53.1911 38.7955 53.1911 35.0456H51.545C51.545 38.3686 50.4077 40.7737 48.2024 42.4006L49.1795 43.7252ZM53.1911 35.0456C53.1911 31.296 51.8768 28.3717 49.1724 26.421L48.2095 27.756C50.4079 29.3418 51.545 31.7223 51.545 35.0456H53.1911ZM49.1848 26.4301C46.5692 24.4684 42.764 23.5529 37.9007 23.5529V25.1989C42.602 25.1989 45.9902 26.0918 48.1971 27.747L49.1848 26.4301ZM37.9007 23.5529H25.4226V25.1989H37.9007V23.5529ZM24.5996 24.3759V45.7152H26.2457V24.3759H24.5996ZM88.8378 94H88.0148V94.823H88.8378V94ZM88.8378 3.5791V2.75607H88.0148V3.5791H88.8378ZM149.118 3.5791H149.941V2.75607H149.118V3.5791ZM149.118 24.3759V25.1989H149.941V24.3759H149.118ZM112.709 24.3759V23.5529H111.886V24.3759H112.709ZM112.709 38.361H111.886V39.184H112.709V38.361ZM146.707 38.361H147.53V37.538H146.707V38.361ZM146.707 59.1578V59.9808H147.53V59.1578H146.707ZM112.709 59.1578V58.3348H111.886V59.1578H112.709ZM112.709 73.2032H111.886V74.0262H112.709V73.2032ZM149.721 73.2032H150.544V72.3802H149.721V73.2032ZM149.721 94V94.823H150.544V94H149.721ZM89.6609 94V3.5791H88.0148V94H89.6609ZM88.8378 4.40213H149.118V2.75607H88.8378V4.40213ZM148.295 3.5791V24.3759H149.941V3.5791H148.295ZM149.118 23.5529H112.709V25.1989H149.118V23.5529ZM111.886 24.3759V38.361H113.532V24.3759H111.886ZM112.709 39.184H146.707V37.538H112.709V39.184ZM145.884 38.361V59.1578H147.53V38.361H145.884ZM146.707 58.3348H112.709V59.9808H146.707V58.3348ZM111.886 59.1578V73.2032H113.532V59.1578H111.886ZM112.709 74.0262H149.721V72.3802H112.709V74.0262ZM148.898 73.2032V94H150.544V73.2032H148.898ZM149.721 93.177H88.8378V94.823H149.721V93.177ZM156.352 83.6317L155.651 83.2001L155.264 83.8284L155.847 84.2814L156.352 83.6317ZM167.564 65.427L168.071 64.7783L167.346 64.2122L166.864 64.9954L167.564 65.427ZM175.762 71.0331L175.354 71.7477L175.359 71.7504L175.762 71.0331ZM183.237 74.228L183.013 75.0198L183.021 75.022L183.028 75.0241L183.237 74.228ZM197.102 74.3485L197.351 75.1328L197.359 75.1303L197.367 75.1275L197.102 74.3485ZM201.141 71.8167L200.516 71.2811L200.514 71.283L201.141 71.8167ZM195.052 59.2181L194.695 59.9595L194.7 59.9619L195.052 59.2181ZM187.638 55.9629L187.945 55.1996L187.945 55.1995L187.638 55.9629ZM178.777 52.105L178.42 52.847L178.428 52.8508L178.777 52.105ZM164.309 39.3858L163.581 39.7695L163.583 39.7736L164.309 39.3858ZM166.178 14.1282L165.507 13.6517L165.506 13.653L166.178 14.1282ZM177.812 4.96555L178.135 5.72268L178.138 5.7214L177.812 4.96555ZM224.349 9.24547L225.089 9.6042L225.445 8.8705L224.714 8.50819L224.349 9.24547ZM215.065 28.4147L214.636 29.117L215.411 29.5902L215.806 28.7734L215.065 28.4147ZM205.541 24.1951L205.292 24.9795L205.303 24.9829L205.541 24.1951ZM190.953 23.3511L190.68 22.5746L190.674 22.577L190.953 23.3511ZM187.577 25.6418L188.21 26.1687L188.215 26.1624L188.22 26.1559L187.577 25.6418ZM188.421 33.7797L187.839 34.3617L187.848 34.3703L188.421 33.7797ZM201.201 40.8928L200.87 41.6463L200.875 41.6487L201.201 40.8928ZM210.062 45.0522L209.69 45.7863L209.694 45.7883L210.062 45.0522ZM218.441 50.4774L217.917 51.1122L217.922 51.1162L218.441 50.4774ZM224.65 58.0125L223.924 58.4003L223.926 58.4045L224.65 58.0125ZM222.54 82.7878L221.872 82.3076L221.871 82.3088L222.54 82.7878ZM210.183 92.3724L209.856 91.6168L209.854 91.6177L210.183 92.3724ZM157.053 84.0633L168.265 65.8586L166.864 64.9954L155.651 83.2001L157.053 84.0633ZM167.058 66.0757C170.015 68.3844 172.78 70.2769 175.354 71.7477L176.171 70.3185C173.681 68.8958 170.981 67.0509 168.071 64.7783L167.058 66.0757ZM175.359 71.7504C177.978 73.2235 180.529 74.3162 183.013 75.0198L183.462 73.4361C181.123 72.7734 178.691 71.7361 176.166 70.3158L175.359 71.7504ZM183.028 75.0241C185.548 75.6849 188.11 76.0155 190.712 76.0155V74.3694C188.251 74.3694 185.829 74.057 183.446 73.4319L183.028 75.0241ZM190.712 76.0155C193.261 76.0155 195.48 75.7282 197.351 75.1328L196.852 73.5642C195.187 74.0941 193.146 74.3694 190.712 74.3694V76.0155ZM197.367 75.1275C199.233 74.4914 200.721 73.5781 201.767 72.3504L200.514 71.283C199.711 72.2255 198.507 73 196.836 73.5695L197.367 75.1275ZM201.765 72.3524C202.862 71.0731 203.41 69.5553 203.41 67.8382H201.764C201.764 69.1754 201.348 70.3099 200.516 71.2811L201.765 72.3524ZM203.41 67.8382C203.41 65.6905 202.64 63.8336 201.12 62.3132L199.956 63.4772C201.168 64.6895 201.764 66.1279 201.764 67.8382H203.41ZM201.12 62.3132C199.67 60.863 197.755 59.5878 195.405 58.4743L194.7 59.9619C196.93 61.0184 198.673 62.1947 199.956 63.4772L201.12 62.3132ZM195.41 58.4767C193.141 57.3827 190.652 56.2903 187.945 55.1996L187.33 56.7263C190.008 57.8056 192.463 58.8834 194.695 59.9595L195.41 58.4767ZM187.945 55.1995C185.066 54.0399 182.126 52.7599 179.125 51.3592L178.428 52.8508C181.455 54.2632 184.422 55.5551 187.33 56.7264L187.945 55.1995ZM179.133 51.363C176.175 49.9432 173.456 48.2291 170.976 46.2209L169.94 47.5003C172.523 49.5911 175.35 51.3733 178.42 52.847L179.133 51.363ZM170.976 46.2209C168.531 44.242 166.552 41.8367 165.035 38.9979L163.583 39.7736C165.201 42.8022 167.321 45.38 169.94 47.5003L170.976 46.2209ZM165.037 39.002C163.547 36.1739 162.781 32.6963 162.781 28.5353H161.135C161.135 32.8939 161.937 36.6499 163.581 39.7695L165.037 39.002ZM162.781 28.5353C162.781 23.0521 164.15 18.4222 166.85 14.6034L165.506 13.653C162.58 17.7912 161.135 22.7661 161.135 28.5353H162.781ZM166.849 14.6047C169.607 10.72 173.36 7.75784 178.135 5.72268L177.489 4.20842C172.458 6.35271 168.455 9.49904 165.507 13.6517L166.849 14.6047ZM178.138 5.7214C182.963 3.64223 188.436 2.59371 194.57 2.59371V0.947647C188.246 0.947647 182.547 2.02904 177.486 4.2097L178.138 5.7214ZM194.57 2.59371C199.038 2.59371 203.776 3.18689 208.786 4.37975L209.168 2.77845C204.051 1.56008 199.184 0.947647 194.57 0.947647V2.59371ZM208.786 4.37975C213.783 5.56943 218.848 7.43543 223.983 9.98275L224.714 8.50819C219.481 5.91157 214.298 3.99999 209.168 2.77845L208.786 4.37975ZM223.608 8.88675L214.325 28.056L215.806 28.7734L225.089 9.6042L223.608 8.88675ZM215.495 27.7124C212.538 25.9054 209.298 24.4711 205.779 23.4072L205.303 24.9829C208.696 26.0088 211.806 27.3876 214.636 29.117L215.495 27.7124ZM205.79 23.4107C202.313 22.3063 199.094 21.7445 196.137 21.7445V23.3905C198.888 23.3905 201.937 23.9138 205.292 24.9795L205.79 23.4107ZM196.137 21.7445C194.097 21.7445 192.274 22.0148 190.68 22.5746L191.226 24.1276C192.607 23.6426 194.239 23.3905 196.137 23.3905V21.7445ZM190.674 22.577C189.112 23.1408 187.85 23.9832 186.935 25.1277L188.22 26.1559C188.912 25.2911 189.901 24.6063 191.233 24.1252L190.674 22.577ZM186.945 25.1149C186.011 26.2361 185.549 27.5708 185.549 29.0778H187.195C187.195 27.9324 187.537 26.9765 188.21 26.1687L186.945 25.1149ZM185.549 29.0778C185.549 31.0856 186.334 32.8567 187.839 34.3616L189.003 33.1977C187.776 31.9699 187.195 30.6064 187.195 29.0778H185.549ZM187.848 34.3703C189.291 35.7706 191.175 37.0413 193.479 38.1929L194.215 36.7207C192.017 35.6218 190.285 34.4411 188.995 33.1891L187.848 34.3703ZM193.479 38.1929C195.743 39.3251 198.207 40.4762 200.87 41.6463L201.532 40.1393C198.89 38.9785 196.451 37.839 194.215 36.7207L193.479 38.1929ZM200.875 41.6487C203.752 42.8873 206.69 44.2664 209.69 45.7863L210.434 44.318C207.406 42.7837 204.437 41.3899 201.526 40.1368L200.875 41.6487ZM209.694 45.7883C212.695 47.2887 215.435 49.0636 217.917 51.1121L218.965 49.8427C216.383 47.7118 213.538 45.8698 210.43 44.316L209.694 45.7883ZM217.922 51.1162C220.409 53.1366 222.408 55.5629 223.924 58.4003L225.376 57.6247C223.757 54.5948 221.617 51.9977 218.96 49.8386L217.922 51.1162ZM223.926 58.4045C225.415 61.1526 226.178 64.4875 226.178 68.441H227.824C227.824 64.2768 227.02 60.6593 225.374 57.6205L223.926 58.4045ZM226.178 68.441C226.178 73.7057 224.738 78.3175 221.872 82.3076L223.209 83.268C226.29 78.9796 227.824 74.0268 227.824 68.441H226.178ZM221.871 82.3088C219.036 86.2693 215.044 89.3766 209.856 91.6168L210.509 93.128C215.931 90.7869 220.177 87.5045 223.21 83.2668L221.871 82.3088ZM209.854 91.6177C204.713 93.8546 198.701 94.9854 191.797 94.9854V96.6314C198.879 96.6314 205.123 95.4715 210.511 93.1271L209.854 91.6177ZM191.797 94.9854C185.377 94.9854 179.199 93.9553 173.259 91.8962L172.72 93.4515C178.837 95.5719 185.197 96.6314 191.797 96.6314V94.9854ZM173.259 91.8962C167.317 89.8361 161.85 86.8655 156.857 82.9821L155.847 84.2814C160.981 88.2747 166.606 91.3321 172.72 93.4515L173.259 91.8962ZM317.06 3.5791H317.883V2.75607H317.06V3.5791ZM312.177 76.0364L311.444 75.6628L311.443 75.6646L312.177 76.0364ZM298.253 90.6846L297.849 89.9674L297.847 89.9685L298.253 90.6846ZM240.866 76.0364L240.13 76.4063L240.133 76.4118L240.866 76.0364ZM236.043 3.5791V2.75607H235.22V3.5791H236.043ZM259.914 3.5791H260.737V2.75607H259.914V3.5791ZM261.662 64.1008L260.877 64.3483L260.88 64.356L261.662 64.1008ZM267.148 72.3593L266.659 73.0216L266.666 73.0268L267.148 72.3593ZM285.955 72.3593L286.437 73.0268L286.444 73.0216L285.955 72.3593ZM291.381 64.1008L290.598 63.8457L290.596 63.8534L291.381 64.1008ZM293.189 3.5791V2.75607H292.366V3.5791H293.189ZM316.237 3.5791V53.19H317.883V3.5791H316.237ZM316.237 53.19C316.237 61.931 314.628 69.4126 311.444 75.6628L312.911 76.41C316.237 69.8807 317.883 62.1313 317.883 53.19H316.237ZM311.443 75.6646C308.3 81.8722 303.772 86.6332 297.849 89.9674L298.656 91.4018C304.87 87.9041 309.625 82.8996 312.912 76.4082L311.443 75.6646ZM297.847 89.9685C291.967 93.3005 284.88 94.9854 276.552 94.9854V96.6314C285.102 96.6314 292.482 94.9004 298.658 91.4006L297.847 89.9685ZM276.552 94.9854C268.265 94.9854 261.176 93.3009 255.254 89.9674L254.447 91.4018C260.661 94.9 268.04 96.6314 276.552 96.6314V94.9854ZM255.254 89.9674C249.33 86.6327 244.781 81.8705 241.598 75.6609L240.133 76.4118C243.46 82.9013 248.234 87.9046 254.447 91.4018L255.254 89.9674ZM241.601 75.6665C238.456 69.4154 236.866 61.9325 236.866 53.19H235.22C235.22 62.1299 236.846 69.8779 240.13 76.4063L241.601 75.6665ZM236.866 53.19V3.5791H235.22V53.19H236.866ZM236.043 4.40213H259.914V2.75607H236.043V4.40213ZM259.091 3.5791V49.9349H260.737V3.5791H259.091ZM259.091 49.9349C259.091 55.7292 259.678 60.5424 260.877 64.3483L262.447 63.8534C261.316 60.2648 260.737 55.6341 260.737 49.9349H259.091ZM260.88 64.356C262.124 68.171 264.036 71.0864 266.659 73.0216L267.636 71.697C265.357 70.0153 263.612 67.425 262.445 63.8457L260.88 64.356ZM266.666 73.0268C269.291 74.92 272.607 75.8346 276.552 75.8346V74.1886C272.861 74.1886 269.908 73.335 267.629 71.6918L266.666 73.0268ZM276.552 75.8346C280.496 75.8346 283.812 74.92 286.437 73.0268L285.474 71.6918C283.196 73.335 280.242 74.1886 276.552 74.1886V75.8346ZM286.444 73.0216C289.07 71.0846 290.962 68.1661 292.166 64.3483L290.596 63.8534C289.468 67.43 287.744 70.0171 285.467 71.697L286.444 73.0216ZM292.163 64.356C293.405 60.5471 294.012 55.731 294.012 49.9349H292.366C292.366 55.6323 291.767 60.2601 290.598 63.8457L292.163 64.356ZM294.012 49.9349V3.5791H292.366V49.9349H294.012ZM293.189 4.40213H317.06V2.75607H293.189V4.40213ZM390.603 94V94.823H391.426V94H390.603ZM329.116 94H328.293V94.823H329.116V94ZM329.116 3.5791V2.75607H328.293V3.5791H329.116ZM352.987 3.5791H353.81V2.75607H352.987V3.5791ZM352.987 73.2032H352.164V74.0262H352.987V73.2032ZM390.603 73.2032H391.426V72.3802H390.603V73.2032ZM390.603 93.177H329.116V94.823H390.603V93.177ZM329.939 94V3.5791H328.293V94H329.939ZM329.116 4.40213H352.987V2.75607H329.116V4.40213ZM352.164 3.5791V73.2032H353.81V3.5791H352.164ZM352.987 74.0262H390.603V72.3802H352.987V74.0262ZM389.78 73.2032V94H391.426V73.2032H389.78ZM426.891 94V94.823H427.714V94H426.891ZM403.02 94H402.197V94.823H403.02V94ZM403.02 24.3759H403.843V23.5529H403.02V24.3759ZM377.944 24.3759H377.121V25.1989H377.944V24.3759ZM377.944 3.5791V2.75607H377.121V3.5791H377.944ZM451.968 3.5791H452.791V2.75607H451.968V3.5791ZM451.968 24.3759V25.1989H452.791V24.3759H451.968ZM426.891 24.3759V23.5529H426.068V24.3759H426.891ZM426.891 93.177H403.02V94.823H426.891V93.177ZM403.843 94V24.3759H402.197V94H403.843ZM403.02 23.5529H377.944V25.1989H403.02V23.5529ZM378.767 24.3759V3.5791H377.121V24.3759H378.767ZM377.944 4.40213H451.968V2.75607H377.944V4.40213ZM451.145 3.5791V24.3759H452.791V3.5791H451.145ZM451.968 23.5529H426.891V25.1989H451.968V23.5529ZM426.068 24.3759V94H427.714V24.3759H426.068ZM454.379 83.6317L453.679 83.2001L453.292 83.8284L453.874 84.2814L454.379 83.6317ZM465.592 65.427L466.098 64.7783L465.373 64.2122L464.891 64.9954L465.592 65.427ZM473.79 71.0331L473.381 71.7477L473.386 71.7504L473.79 71.0331ZM481.265 74.228L481.04 75.0198L481.048 75.022L481.056 75.0241L481.265 74.228ZM495.129 74.3485L495.379 75.1328L495.387 75.1303L495.395 75.1275L495.129 74.3485ZM499.168 71.8167L498.543 71.2811L498.541 71.283L499.168 71.8167ZM493.08 59.2181L492.722 59.9595L492.727 59.9619L493.08 59.2181ZM485.665 55.9629L485.973 55.1996L485.973 55.1995L485.665 55.9629ZM476.804 52.105L476.448 52.847L476.456 52.8508L476.804 52.105ZM462.336 39.3858L461.608 39.7695L461.611 39.7736L462.336 39.3858ZM464.205 14.1282L463.534 13.6517L463.533 13.653L464.205 14.1282ZM475.839 4.96555L476.162 5.72268L476.165 5.7214L475.839 4.96555ZM522.376 9.24547L523.117 9.6042L523.472 8.8705L522.742 8.50819L522.376 9.24547ZM513.093 28.4147L512.664 29.117L513.438 29.5902L513.833 28.7734L513.093 28.4147ZM503.568 24.1951L503.319 24.9795L503.33 24.9829L503.568 24.1951ZM488.98 23.3511L488.708 22.5746L488.701 22.577L488.98 23.3511ZM485.605 25.6418L486.237 26.1687L486.242 26.1624L486.247 26.1559L485.605 25.6418ZM486.449 33.7797L485.867 34.3617L485.875 34.3703L486.449 33.7797ZM499.228 40.8928L498.897 41.6463L498.903 41.6487L499.228 40.8928ZM508.089 45.0522L507.717 45.7863L507.721 45.7883L508.089 45.0522ZM516.468 50.4774L515.944 51.1122L515.949 51.1162L516.468 50.4774ZM522.677 58.0125L521.951 58.4003L521.954 58.4045L522.677 58.0125ZM520.568 82.7878L519.899 82.3076L519.898 82.3088L520.568 82.7878ZM508.21 92.3724L507.884 91.6168L507.882 91.6177L508.21 92.3724ZM455.08 84.0633L466.292 65.8586L464.891 64.9954L453.679 83.2001L455.08 84.0633ZM465.085 66.0757C468.042 68.3844 470.808 70.2769 473.381 71.7477L474.198 70.3185C471.708 68.8958 469.009 67.0509 466.098 64.7783L465.085 66.0757ZM473.386 71.7504C476.005 73.2235 478.557 74.3162 481.04 75.0198L481.489 73.4361C479.15 72.7734 476.718 71.7361 474.193 70.3158L473.386 71.7504ZM481.056 75.0241C483.575 75.6849 486.137 76.0155 488.739 76.0155V74.3694C486.278 74.3694 483.857 74.057 481.473 73.4319L481.056 75.0241ZM488.739 76.0155C491.289 76.0155 493.507 75.7282 495.379 75.1328L494.88 73.5642C493.214 74.0941 491.173 74.3694 488.739 74.3694V76.0155ZM495.395 75.1275C497.261 74.4914 498.749 73.5781 499.794 72.3504L498.541 71.283C497.739 72.2255 496.534 73 494.864 73.5695L495.395 75.1275ZM499.793 72.3524C500.889 71.0731 501.438 69.5553 501.438 67.8382H499.792C499.792 69.1754 499.375 70.3099 498.543 71.2811L499.793 72.3524ZM501.438 67.8382C501.438 65.6905 500.667 63.8336 499.147 62.3132L497.983 63.4772C499.195 64.6895 499.792 66.1279 499.792 67.8382H501.438ZM499.147 62.3132C497.697 60.863 495.783 59.5878 493.432 58.4743L492.727 59.9619C494.958 61.0184 496.701 62.1947 497.983 63.4772L499.147 62.3132ZM493.437 58.4767C491.168 57.3827 488.679 56.2903 485.973 55.1996L485.357 56.7263C488.036 57.8056 490.49 58.8834 492.722 59.9595L493.437 58.4767ZM485.973 55.1995C483.094 54.0399 480.153 52.7599 477.152 51.3592L476.456 52.8508C479.482 54.2632 482.45 55.5551 485.358 56.7264L485.973 55.1995ZM477.16 51.363C474.202 49.9432 471.484 48.2291 469.003 46.2209L467.967 47.5003C470.55 49.5911 473.377 51.3733 476.448 52.847L477.16 51.363ZM469.003 46.2209C466.558 44.242 464.579 41.8367 463.062 38.9979L461.611 39.7736C463.229 42.8022 465.348 45.38 467.967 47.5003L469.003 46.2209ZM463.065 39.002C461.574 36.1739 460.809 32.6963 460.809 28.5353H459.162C459.162 32.8939 459.964 36.6499 461.608 39.7695L463.065 39.002ZM460.809 28.5353C460.809 23.0521 462.177 18.4222 464.877 14.6034L463.533 13.653C460.607 17.7912 459.162 22.7661 459.162 28.5353H460.809ZM464.876 14.6047C467.634 10.72 471.387 7.75784 476.162 5.72268L475.517 4.20842C470.486 6.35271 466.482 9.49904 463.534 13.6517L464.876 14.6047ZM476.165 5.7214C480.99 3.64223 486.463 2.59371 492.597 2.59371V0.947647C486.274 0.947647 480.574 2.02904 475.514 4.2097L476.165 5.7214ZM492.597 2.59371C497.066 2.59371 501.804 3.18689 506.814 4.37975L507.195 2.77845C502.078 1.56008 497.211 0.947647 492.597 0.947647V2.59371ZM506.814 4.37975C511.81 5.56943 516.876 7.43543 522.01 9.98275L522.742 8.50819C517.508 5.91157 512.325 3.99999 507.195 2.77845L506.814 4.37975ZM521.635 8.88675L512.352 28.056L513.833 28.7734L523.117 9.6042L521.635 8.88675ZM513.522 27.7124C510.565 25.9054 507.325 24.4711 503.807 23.4072L503.33 24.9829C506.724 26.0088 509.834 27.3876 512.664 29.117L513.522 27.7124ZM503.818 23.4107C500.341 22.3063 497.121 21.7445 494.165 21.7445V23.3905C496.915 23.3905 499.964 23.9138 503.319 24.9795L503.818 23.4107ZM494.165 21.7445C492.125 21.7445 490.301 22.0148 488.708 22.5746L489.253 24.1276C490.634 23.6426 492.266 23.3905 494.165 23.3905V21.7445ZM488.701 22.577C487.14 23.1408 485.878 23.9832 484.962 25.1277L486.247 26.1559C486.939 25.2911 487.928 24.6063 489.26 24.1252L488.701 22.577ZM484.972 25.1149C484.038 26.2361 483.576 27.5708 483.576 29.0778H485.222C485.222 27.9324 485.564 26.9765 486.237 26.1687L484.972 25.1149ZM483.576 29.0778C483.576 31.0856 484.362 32.8567 485.867 34.3616L487.031 33.1977C485.803 31.9699 485.222 30.6064 485.222 29.0778H483.576ZM485.875 34.3703C487.318 35.7706 489.203 37.0413 491.506 38.1929L492.242 36.7207C490.044 35.6218 488.312 34.4411 487.022 33.1891L485.875 34.3703ZM491.506 38.1929C493.77 39.3251 496.234 40.4762 498.897 41.6463L499.559 40.1393C496.918 38.9785 494.479 37.839 492.242 36.7207L491.506 38.1929ZM498.903 41.6487C501.779 42.8873 504.718 44.2664 507.717 45.7863L508.461 44.318C505.433 42.7837 502.464 41.3899 499.554 40.1368L498.903 41.6487ZM507.721 45.7883C510.722 47.2887 513.463 49.0636 515.945 51.1121L516.992 49.8427C514.411 47.7118 511.565 45.8698 508.457 44.316L507.721 45.7883ZM515.949 51.1162C518.436 53.1366 520.436 55.5629 521.951 58.4003L523.403 57.6247C521.785 54.5948 519.645 51.9977 516.987 49.8386L515.949 51.1162ZM521.954 58.4045C523.442 61.1526 524.205 64.4875 524.205 68.441H525.851C525.851 64.2768 525.047 60.6593 523.401 57.6205L521.954 58.4045ZM524.205 68.441C524.205 73.7057 522.766 78.3175 519.899 82.3076L521.236 83.268C524.317 78.9796 525.851 74.0268 525.851 68.441H524.205ZM519.898 82.3088C517.064 86.2693 513.072 89.3766 507.884 91.6168L508.536 93.128C513.958 90.7869 518.204 87.5045 521.237 83.2668L519.898 82.3088ZM507.882 91.6177C502.741 93.8546 496.728 94.9854 489.824 94.9854V96.6314C496.906 96.6314 503.15 95.4715 508.538 93.1271L507.882 91.6177ZM489.824 94.9854C483.404 94.9854 477.226 93.9553 471.286 91.8962L470.747 93.4515C476.864 95.5719 483.224 96.6314 489.824 96.6314V94.9854ZM471.286 91.8962C465.344 89.8361 459.878 86.8655 454.885 82.9821L453.874 84.2814C459.008 88.2747 464.634 91.3321 470.747 93.4515L471.286 91.8962Z" fill="black" fill-opacity="0.15" mask="url(#path-1-outside-1_932_1112)"/>
</svg>
