<svg width="359" height="95" viewBox="0 0 359 95" fill="none" xmlns="http://www.w3.org/2000/svg">
<mask id="path-1-outside-1_158_639" maskUnits="userSpaceOnUse" x="-1" y="-1" width="361" height="97" fill="black">
<rect fill="white" x="-1" y="-1" width="361" height="97"/>
<path d="M0.357422 82.5859L11.6191 64.3008C14.5658 66.6016 17.3105 68.4785 19.8535 69.9316C22.4368 71.3848 24.9395 72.4544 27.3613 73.1406C29.8236 73.7865 32.3262 74.1094 34.8691 74.1094C37.3717 74.1094 39.5111 73.8268 41.2871 73.2617C43.0632 72.6562 44.4154 71.8086 45.3438 70.7188C46.3125 69.5885 46.7969 68.2565 46.7969 66.7227C46.7969 64.7852 46.1107 63.1302 44.7383 61.7578C43.3659 60.3854 41.5293 59.1543 39.2285 58.0645C36.9681 56.9746 34.4857 55.8848 31.7812 54.7949C28.875 53.6243 25.9082 52.3327 22.8809 50.9199C19.8535 49.4668 17.0684 47.7109 14.5254 45.6523C11.9824 43.5938 9.92383 41.0911 8.34961 38.1445C6.77539 35.1576 5.98828 31.5247 5.98828 27.2461C5.98828 21.5951 7.40104 16.7715 10.2266 12.7754C13.0924 8.73893 16.9876 5.67122 21.9121 3.57227C26.877 1.43294 32.4876 0.363281 38.7441 0.363281C43.3053 0.363281 48.1289 0.96875 53.2148 2.17969C58.3008 3.39062 63.4473 5.28776 68.6543 7.87109L59.3301 27.125C56.4238 25.349 53.235 23.9362 49.7637 22.8867C46.3327 21.7969 43.1842 21.252 40.3184 21.252C38.3405 21.252 36.6048 21.5143 35.1113 22.0391C33.6582 22.5638 32.528 23.3307 31.7207 24.3398C30.9134 25.3086 30.5098 26.459 30.5098 27.791C30.5098 29.5671 31.196 31.1413 32.5684 32.5137C33.9408 33.8457 35.7572 35.0768 38.0176 36.207C40.278 37.3372 42.7402 38.4876 45.4043 39.6582C48.3105 40.9095 51.2773 42.3021 54.3047 43.8359C57.3724 45.3698 60.1777 47.1862 62.7207 49.2852C65.304 51.3841 67.3828 53.9069 68.957 56.8535C70.5312 59.7598 71.3184 63.2513 71.3184 67.3281C71.3184 72.7773 69.8249 77.5807 66.8379 81.7383C63.8913 85.8555 59.7539 89.0645 54.4258 91.3652C49.138 93.666 42.9824 94.8164 35.959 94.8164C29.4199 94.8164 23.123 93.7669 17.0684 91.668C11.0137 89.569 5.44336 86.5417 0.357422 82.5859ZM98.8672 93H73.7402L109.221 2.17969H134.348L169.768 93H144.641L138.768 76.834H104.74L98.8672 93ZM112.369 55.9453H131.199L121.754 30.0312L112.369 55.9453ZM217.842 93H193.865V54.1895L160.08 2.17969H189.203L205.732 32.8164L222.504 2.17969H251.627L217.842 54.25V93ZM270.76 28.2148H258.287L264.402 0.96875H279.539L270.76 28.2148ZM287.471 82.5859L298.732 64.3008C301.679 66.6016 304.424 68.4785 306.967 69.9316C309.55 71.3848 312.053 72.4544 314.475 73.1406C316.937 73.7865 319.439 74.1094 321.982 74.1094C324.485 74.1094 326.624 73.8268 328.4 73.2617C330.176 72.6562 331.529 71.8086 332.457 70.7188C333.426 69.5885 333.91 68.2565 333.91 66.7227C333.91 64.7852 333.224 63.1302 331.852 61.7578C330.479 60.3854 328.643 59.1543 326.342 58.0645C324.081 56.9746 321.599 55.8848 318.895 54.7949C315.988 53.6243 313.021 52.3327 309.994 50.9199C306.967 49.4668 304.182 47.7109 301.639 45.6523C299.096 43.5938 297.037 41.0911 295.463 38.1445C293.889 35.1576 293.102 31.5247 293.102 27.2461C293.102 21.5951 294.514 16.7715 297.34 12.7754C300.206 8.73893 304.101 5.67122 309.025 3.57227C313.99 1.43294 319.601 0.363281 325.857 0.363281C330.419 0.363281 335.242 0.96875 340.328 2.17969C345.414 3.39062 350.561 5.28776 355.768 7.87109L346.443 27.125C343.537 25.349 340.348 23.9362 336.877 22.8867C333.446 21.7969 330.298 21.252 327.432 21.252C325.454 21.252 323.718 21.5143 322.225 22.0391C320.771 22.5638 319.641 23.3307 318.834 24.3398C318.027 25.3086 317.623 26.459 317.623 27.791C317.623 29.5671 318.309 31.1413 319.682 32.5137C321.054 33.8457 322.87 35.0768 325.131 36.207C327.391 37.3372 329.854 38.4876 332.518 39.6582C335.424 40.9095 338.391 42.3021 341.418 43.8359C344.486 45.3698 347.291 47.1862 349.834 49.2852C352.417 51.3841 354.496 53.9069 356.07 56.8535C357.645 59.7598 358.432 63.2513 358.432 67.3281C358.432 72.7773 356.938 77.5807 353.951 81.7383C351.005 85.8555 346.867 89.0645 341.539 91.3652C336.251 93.666 330.096 94.8164 323.072 94.8164C316.533 94.8164 310.236 93.7669 304.182 91.668C298.127 89.569 292.557 86.5417 287.471 82.5859Z"/>
</mask>
<path d="M0.357422 82.5859L-0.182339 82.2535L-0.480374 82.7374L-0.0317678 83.0863L0.357422 82.5859ZM11.6191 64.3008L12.0093 63.8011L11.4509 63.3651L11.0794 63.9683L11.6191 64.3008ZM19.8535 69.9316L19.539 70.4821L19.5427 70.4842L19.8535 69.9316ZM27.3613 73.1406L27.1885 73.7507L27.2005 73.7538L27.3613 73.1406ZM41.2871 73.2617L41.4794 73.8659L41.4917 73.8617L41.2871 73.2617ZM45.3438 70.7188L44.8624 70.3062L44.8612 70.3077L45.3438 70.7188ZM44.7383 61.7578L45.1865 61.3096L44.7383 61.7578ZM39.2285 58.0645L38.9532 58.6355L38.9571 58.6374L39.2285 58.0645ZM31.7812 54.7949L32.0182 54.2069L32.0181 54.2069L31.7812 54.7949ZM22.8809 50.9199L22.6065 51.4914L22.6128 51.4944L22.8809 50.9199ZM8.34961 38.1445L7.7888 38.4401L7.79048 38.4432L8.34961 38.1445ZM10.2266 12.7754L9.70967 12.4084L9.70896 12.4094L10.2266 12.7754ZM21.9121 3.57227L22.1607 4.15543L22.163 4.15444L21.9121 3.57227ZM68.6543 7.87109L69.2248 8.14739L69.4985 7.58228L68.936 7.30322L68.6543 7.87109ZM59.3301 27.125L58.9995 27.6659L59.596 28.0304L59.9006 27.4013L59.3301 27.125ZM49.7637 22.8867L49.5717 23.491L49.5802 23.4935L49.7637 22.8867ZM35.1113 22.0391L34.9012 21.441L34.896 21.4428L35.1113 22.0391ZM31.7207 24.3398L32.2078 24.7458L32.2157 24.7359L31.7207 24.3398ZM32.5684 32.5137L32.1201 32.962L32.1268 32.9686L32.5684 32.5137ZM45.4043 39.6582L45.1493 40.2386L45.1536 40.2404L45.4043 39.6582ZM54.3047 43.8359L54.0182 44.4014L54.0212 44.4029L54.3047 43.8359ZM62.7207 49.2852L62.3172 49.7741L62.321 49.7772L62.7207 49.2852ZM68.957 56.8535L68.3979 57.1522L68.3996 57.1554L68.957 56.8535ZM66.8379 81.7383L66.3231 81.3684L66.3224 81.3693L66.8379 81.7383ZM54.4258 91.3652L54.1745 90.7833L54.1729 90.784L54.4258 91.3652ZM0.897183 82.9184L12.1589 64.6332L11.0794 63.9683L-0.182339 82.2535L0.897183 82.9184ZM11.229 64.8004C14.1934 67.1151 16.9636 69.0104 19.539 70.482L20.168 69.3812C17.6575 67.9467 14.9381 66.088 12.0093 63.8011L11.229 64.8004ZM19.5427 70.4842C22.1622 71.9576 24.7109 73.0486 27.1885 73.7505L27.5341 72.5307C25.168 71.8603 22.7115 70.812 20.1643 69.3791L19.5427 70.4842ZM27.2005 73.7538C29.7152 74.4134 32.2718 74.7433 34.8691 74.7433V73.4755C32.3805 73.4755 29.932 73.1595 27.5222 72.5274L27.2005 73.7538ZM34.8691 74.7433C37.4161 74.7433 39.624 74.4561 41.4793 73.8658L41.0949 72.6576C39.3982 73.1975 37.3274 73.4755 34.8691 73.4755V74.7433ZM41.4917 73.8617C43.343 73.2306 44.8044 72.3295 45.8263 71.1298L44.8612 70.3077C44.0264 71.2877 42.7833 72.0819 41.0826 72.6617L41.4917 73.8617ZM45.8251 71.1313C46.8955 69.8824 47.4308 68.4028 47.4308 66.7227H46.163C46.163 68.1102 45.7295 69.2946 44.8624 70.3062L45.8251 71.1313ZM47.4308 66.7227C47.4308 64.6167 46.6776 62.8006 45.1865 61.3096L44.29 62.2061C45.5438 63.4598 46.163 64.9536 46.163 66.7227H47.4308ZM45.1865 61.3096C43.7495 59.8726 41.847 58.6034 39.4999 57.4916L38.9571 58.6374C41.2116 59.7052 42.9822 60.8983 44.29 62.2061L45.1865 61.3096ZM39.5038 57.4934C37.229 56.3966 34.7336 55.3012 32.0182 54.2069L31.5443 55.3829C34.2378 56.4683 36.7072 57.5526 38.9532 58.6355L39.5038 57.4934ZM32.0181 54.2069C29.123 53.0408 26.1667 51.7537 23.1489 50.3455L22.6128 51.4944C25.6497 52.9116 28.627 54.2079 31.5444 55.3829L32.0181 54.2069ZM23.1552 50.3484C20.1711 48.9161 17.4279 47.1864 14.9243 45.1596L14.1265 46.1451C16.7088 48.2355 19.5359 50.0175 22.6065 51.4914L23.1552 50.3484ZM14.9243 45.1596C12.4485 43.1555 10.4439 40.7193 8.90874 37.8458L7.79048 38.4432C9.40376 41.463 11.5163 44.032 14.1265 46.1451L14.9243 45.1596ZM8.91041 37.849C7.39535 34.9742 6.6222 31.4486 6.6222 27.2461H5.35436C5.35436 31.6009 6.15543 35.3409 7.78881 38.4401L8.91041 37.849ZM6.6222 27.2461C6.6222 21.7052 8.00558 17.0145 10.7442 13.1414L9.70896 12.4094C6.7965 16.5285 5.35436 21.4849 5.35436 27.2461H6.6222ZM10.7435 13.1424C13.5361 9.20912 17.3348 6.21236 22.1607 4.15542L21.6636 2.98911C16.6405 5.13009 12.6488 8.26874 9.70967 12.4084L10.7435 13.1424ZM22.163 4.15444C27.0371 2.0542 32.5604 0.997202 38.7441 0.997202V-0.27064C32.4148 -0.27064 26.7168 0.811681 21.6613 2.99009L22.163 4.15444ZM38.7441 0.997202C43.2493 0.997202 48.0233 1.59525 53.068 2.79637L53.3617 1.56301C48.2345 0.342245 43.3614 -0.27064 38.7441 -0.27064V0.997202ZM53.068 2.79637C58.1024 3.99504 63.2038 5.87462 68.3726 8.43897L68.936 7.30322C63.6907 4.7009 58.4991 2.78621 53.3617 1.56301L53.068 2.79637ZM68.0838 7.5948L58.7595 26.8487L59.9006 27.4013L69.2248 8.14739L68.0838 7.5948ZM59.6606 26.5841C56.7055 24.7782 53.4668 23.344 49.9471 22.2799L49.5802 23.4935C53.0033 24.5284 56.1422 25.9198 58.9995 27.6659L59.6606 26.5841ZM49.9556 22.2825C46.4777 21.1778 43.2636 20.618 40.3184 20.618V21.8859C43.1049 21.8859 46.1877 22.4159 49.5718 23.4909L49.9556 22.2825ZM40.3184 20.618C38.286 20.618 36.4767 20.8874 34.9012 21.441L35.3215 22.6371C36.733 22.1412 38.3949 21.8859 40.3184 21.8859V20.618ZM34.896 21.4428C33.3546 21.9994 32.1191 22.827 31.2257 23.9438L32.2157 24.7359C32.9369 23.8344 33.9618 23.1282 35.3266 22.6353L34.896 21.4428ZM31.2337 23.934C30.3259 25.0234 29.8758 26.3197 29.8758 27.791H31.1437C31.1437 26.5982 31.501 25.5937 32.2077 24.7457L31.2337 23.934ZM29.8758 27.791C29.8758 29.7516 30.641 31.4828 32.1201 32.9619L33.0166 32.0654C31.751 30.7998 31.1437 29.3825 31.1437 27.791H29.8758ZM32.1268 32.9686C33.5581 34.3577 35.4331 35.6235 37.7341 36.774L38.3011 35.64C36.0813 34.5301 34.3234 33.3337 33.0099 32.0588L32.1268 32.9686ZM37.7341 36.774C40.0052 37.9096 42.477 39.0644 45.1493 40.2386L45.6593 39.0778C43.0034 37.9109 40.5508 36.7649 38.3011 35.64L37.7341 36.774ZM45.1536 40.2404C48.0469 41.4862 51.0018 42.8731 54.0182 44.4014L54.5912 43.2705C51.5529 41.7311 48.5742 40.3328 45.655 39.076L45.1536 40.2404ZM54.0212 44.4029C57.0478 45.9162 59.8126 47.7068 62.3172 49.7741L63.1242 48.7963C60.5429 46.6656 57.697 44.8234 54.5882 43.2689L54.0212 44.4029ZM62.321 49.7772C64.8386 51.8227 66.8633 54.2797 68.3979 57.1522L69.5162 56.5548C67.9024 53.5341 65.7695 50.9455 63.1204 48.7932L62.321 49.7772ZM68.3996 57.1554C69.9132 59.9497 70.6844 63.3324 70.6844 67.3281H71.9523C71.9523 63.1702 71.1493 59.5698 69.5144 56.5516L68.3996 57.1554ZM70.6844 67.3281C70.6844 72.6537 69.2275 77.3258 66.3231 81.3684L67.3527 82.1082C70.4223 77.8357 71.9523 72.901 71.9523 67.3281H70.6844ZM66.3224 81.3693C63.4522 85.3798 59.4126 88.5213 54.1745 90.7833L54.6771 91.9472C60.0952 89.6076 64.3304 86.3312 67.3534 82.1072L66.3224 81.3693ZM54.1729 90.784C48.9803 93.0433 42.9139 94.1825 35.959 94.1825V95.4503C43.0509 95.4503 49.2958 94.2887 54.6787 91.9465L54.1729 90.784ZM35.959 94.1825C29.4891 94.1825 23.2625 93.1444 17.276 91.069L16.8607 92.2669C22.9836 94.3895 29.3507 95.4503 35.959 95.4503V94.1825ZM17.276 91.069C11.2872 88.9929 5.77813 85.999 0.746612 82.0856L-0.0317678 83.0863C5.10859 87.0844 10.7402 90.1451 16.8607 92.2669L17.276 91.069ZM98.8672 93V93.6339H99.3113L99.463 93.2165L98.8672 93ZM73.7402 93L73.1498 92.7693L72.812 93.6339H73.7402V93ZM109.221 2.17969V1.54577H108.788L108.63 1.94901L109.221 2.17969ZM134.348 2.17969L134.938 1.94936L134.781 1.54577H134.348V2.17969ZM169.768 93V93.6339H170.695L170.358 92.7697L169.768 93ZM144.641 93L144.045 93.2165L144.196 93.6339H144.641V93ZM138.768 76.834L139.363 76.6175L139.212 76.2001H138.768V76.834ZM104.74 76.834V76.2001H104.296L104.144 76.6175L104.74 76.834ZM112.369 55.9453L111.773 55.7295L111.465 56.5792H112.369V55.9453ZM131.199 55.9453V56.5792H132.105L131.795 55.7282L131.199 55.9453ZM121.754 30.0312L122.349 29.8142L121.752 28.1748L121.158 29.8154L121.754 30.0312ZM98.8672 92.3661H73.7402V93.6339H98.8672V92.3661ZM74.3307 93.2307L109.811 2.41036L108.63 1.94901L73.1498 92.7693L74.3307 93.2307ZM109.221 2.81361H134.348V1.54577H109.221V2.81361ZM133.757 2.41002L169.177 93.2303L170.358 92.7697L134.938 1.94936L133.757 2.41002ZM169.768 92.3661H144.641V93.6339H169.768V92.3661ZM145.236 92.7835L139.363 76.6175L138.172 77.0504L144.045 93.2165L145.236 92.7835ZM138.768 76.2001H104.74V77.4679H138.768V76.2001ZM104.144 76.6175L98.2714 92.7835L99.463 93.2165L105.336 77.0504L104.144 76.6175ZM112.369 56.5792H131.199V55.3114H112.369V56.5792ZM131.795 55.7282L122.349 29.8142L121.158 30.2483L130.604 56.1624L131.795 55.7282ZM121.158 29.8154L111.773 55.7295L112.965 56.1612L122.35 30.2471L121.158 29.8154ZM217.842 93V93.6339H218.476V93H217.842ZM193.865 93H193.231V93.6339H193.865V93ZM193.865 54.1895H194.499V54.0016L194.397 53.8441L193.865 54.1895ZM160.08 2.17969V1.54577H158.912L159.548 2.52501L160.08 2.17969ZM189.203 2.17969L189.761 1.87869L189.581 1.54577H189.203V2.17969ZM205.732 32.8164L205.175 33.1174L205.728 34.144L206.288 33.1208L205.732 32.8164ZM222.504 2.17969V1.54577H222.128L221.948 1.87529L222.504 2.17969ZM251.627 2.17969L252.159 2.52473L252.794 1.54577H251.627V2.17969ZM217.842 54.25L217.31 53.905L217.208 54.0624V54.25H217.842ZM217.842 92.3661H193.865V93.6339H217.842V92.3661ZM194.499 93V54.1895H193.231V93H194.499ZM194.397 53.8441L160.612 1.83436L159.548 2.52501L193.334 54.5348L194.397 53.8441ZM160.08 2.81361H189.203V1.54577H160.08V2.81361ZM188.645 2.48069L205.175 33.1174L206.29 32.5154L189.761 1.87869L188.645 2.48069ZM206.288 33.1208L223.06 2.48409L221.948 1.87529L205.176 32.512L206.288 33.1208ZM222.504 2.81361H251.627V1.54577H222.504V2.81361ZM251.095 1.83464L217.31 53.905L218.374 54.595L252.159 2.52473L251.095 1.83464ZM217.208 54.25V93H218.476V54.25H217.208ZM270.76 28.2148V28.8488H271.222L271.363 28.4093L270.76 28.2148ZM258.287 28.2148L257.669 28.076L257.495 28.8488H258.287V28.2148ZM264.402 0.96875V0.334829H263.895L263.784 0.829924L264.402 0.96875ZM279.539 0.96875L280.142 1.16317L280.409 0.334829H279.539V0.96875ZM270.76 27.5809H258.287V28.8488H270.76V27.5809ZM258.906 28.3537L265.021 1.10758L263.784 0.829924L257.669 28.076L258.906 28.3537ZM264.402 1.60267H279.539V0.334829H264.402V1.60267ZM278.936 0.77433L270.156 28.0204L271.363 28.4093L280.142 1.16317L278.936 0.77433ZM287.471 82.5859L286.931 82.2535L286.633 82.7374L287.082 83.0863L287.471 82.5859ZM298.732 64.3008L299.123 63.8011L298.564 63.3651L298.193 63.9683L298.732 64.3008ZM306.967 69.9316L306.652 70.4821L306.656 70.4842L306.967 69.9316ZM314.475 73.1406L314.302 73.7507L314.314 73.7538L314.475 73.1406ZM328.4 73.2617L328.593 73.8659L328.605 73.8617L328.4 73.2617ZM332.457 70.7188L331.976 70.3062L331.974 70.3077L332.457 70.7188ZM331.852 61.7578L332.3 61.3096L331.852 61.7578ZM326.342 58.0645L326.066 58.6355L326.07 58.6374L326.342 58.0645ZM318.895 54.7949L319.131 54.2069L319.131 54.2069L318.895 54.7949ZM309.994 50.9199L309.72 51.4914L309.726 51.4944L309.994 50.9199ZM295.463 38.1445L294.902 38.4401L294.904 38.4432L295.463 38.1445ZM297.34 12.7754L296.823 12.4084L296.822 12.4094L297.34 12.7754ZM309.025 3.57227L309.274 4.15543L309.276 4.15444L309.025 3.57227ZM355.768 7.87109L356.338 8.14739L356.612 7.58228L356.049 7.30322L355.768 7.87109ZM346.443 27.125L346.113 27.6659L346.709 28.0304L347.014 27.4013L346.443 27.125ZM336.877 22.8867L336.685 23.491L336.694 23.4935L336.877 22.8867ZM322.225 22.0391L322.014 21.441L322.009 21.4428L322.225 22.0391ZM318.834 24.3398L319.321 24.7458L319.329 24.7359L318.834 24.3398ZM319.682 32.5137L319.233 32.962L319.24 32.9686L319.682 32.5137ZM332.518 39.6582L332.263 40.2386L332.267 40.2404L332.518 39.6582ZM341.418 43.8359L341.131 44.4014L341.134 44.4029L341.418 43.8359ZM349.834 49.2852L349.43 49.7741L349.434 49.7772L349.834 49.2852ZM356.07 56.8535L355.511 57.1522L355.513 57.1554L356.07 56.8535ZM353.951 81.7383L353.436 81.3684L353.436 81.3693L353.951 81.7383ZM341.539 91.3652L341.288 90.7833L341.286 90.784L341.539 91.3652ZM288.01 82.9184L299.272 64.6332L298.193 63.9683L286.931 82.2535L288.01 82.9184ZM298.342 64.8004C301.307 67.1151 304.077 69.0104 306.652 70.482L307.281 69.3812C304.771 67.9467 302.051 66.088 299.123 63.8011L298.342 64.8004ZM306.656 70.4842C309.275 71.9576 311.824 73.0486 314.302 73.7505L314.647 72.5307C312.281 71.8603 309.825 70.812 307.278 69.3791L306.656 70.4842ZM314.314 73.7538C316.828 74.4134 319.385 74.7433 321.982 74.7433V73.4755C319.494 73.4755 317.045 73.1595 314.635 72.5274L314.314 73.7538ZM321.982 74.7433C324.529 74.7433 326.737 74.4561 328.593 73.8658L328.208 72.6576C326.511 73.1975 324.441 73.4755 321.982 73.4755V74.7433ZM328.605 73.8617C330.456 73.2306 331.918 72.3295 332.94 71.1298L331.974 70.3077C331.14 71.2877 329.897 72.0819 328.196 72.6617L328.605 73.8617ZM332.938 71.1313C334.009 69.8824 334.544 68.4028 334.544 66.7227H333.276C333.276 68.1102 332.843 69.2946 331.976 70.3062L332.938 71.1313ZM334.544 66.7227C334.544 64.6167 333.791 62.8006 332.3 61.3096L331.403 62.2061C332.657 63.4598 333.276 64.9536 333.276 66.7227H334.544ZM332.3 61.3096C330.863 59.8726 328.96 58.6034 326.613 57.4916L326.07 58.6374C328.325 59.7052 330.096 60.8983 331.403 62.2061L332.3 61.3096ZM326.617 57.4934C324.342 56.3966 321.847 55.3012 319.131 54.2069L318.658 55.3829C321.351 56.4683 323.82 57.5526 326.066 58.6355L326.617 57.4934ZM319.131 54.2069C316.236 53.0408 313.28 51.7537 310.262 50.3455L309.726 51.4944C312.763 52.9116 315.74 54.2079 318.658 55.3829L319.131 54.2069ZM310.268 50.3484C307.284 48.9161 304.541 47.1864 302.038 45.1596L301.24 46.1451C303.822 48.2355 306.649 50.0175 309.72 51.4914L310.268 50.3484ZM302.038 45.1596C299.562 43.1555 297.557 40.7193 296.022 37.8458L294.904 38.4432C296.517 41.463 298.63 44.032 301.24 46.1451L302.038 45.1596ZM296.024 37.849C294.509 34.9742 293.735 31.4486 293.735 27.2461H292.468C292.468 31.6009 293.269 35.3409 294.902 38.4401L296.024 37.849ZM293.735 27.2461C293.735 21.7052 295.119 17.0145 297.857 13.1414L296.822 12.4094C293.91 16.5285 292.468 21.4849 292.468 27.2461H293.735ZM297.857 13.1424C300.649 9.20912 304.448 6.21236 309.274 4.15542L308.777 2.98911C303.754 5.13009 299.762 8.26874 296.823 12.4084L297.857 13.1424ZM309.276 4.15444C314.15 2.0542 319.674 0.997202 325.857 0.997202V-0.27064C319.528 -0.27064 313.83 0.811681 308.775 2.99009L309.276 4.15444ZM325.857 0.997202C330.363 0.997202 335.137 1.59525 340.181 2.79637L340.475 1.56301C335.348 0.342245 330.475 -0.27064 325.857 -0.27064V0.997202ZM340.181 2.79637C345.216 3.99504 350.317 5.87462 355.486 8.43897L356.049 7.30322C350.804 4.7009 345.612 2.78621 340.475 1.56301L340.181 2.79637ZM355.197 7.5948L345.873 26.8487L347.014 27.4013L356.338 8.14739L355.197 7.5948ZM346.774 26.5841C343.819 24.7782 340.58 23.344 337.06 22.2799L336.694 23.4935C340.117 24.5284 343.255 25.9198 346.113 27.6659L346.774 26.5841ZM337.069 22.2825C333.591 21.1778 330.377 20.618 327.432 20.618V21.8859C330.218 21.8859 333.301 22.4159 336.685 23.4909L337.069 22.2825ZM327.432 20.618C325.399 20.618 323.59 20.8874 322.014 21.441L322.435 22.6371C323.846 22.1412 325.508 21.8859 327.432 21.8859V20.618ZM322.009 21.4428C320.468 21.9994 319.232 22.827 318.339 23.9438L319.329 24.7359C320.05 23.8344 321.075 23.1282 322.44 22.6353L322.009 21.4428ZM318.347 23.934C317.439 25.0234 316.989 26.3197 316.989 27.791H318.257C318.257 26.5982 318.614 25.5937 319.321 24.7457L318.347 23.934ZM316.989 27.791C316.989 29.7516 317.754 31.4828 319.233 32.9619L320.13 32.0654C318.864 30.7998 318.257 29.3825 318.257 27.791H316.989ZM319.24 32.9686C320.671 34.3577 322.546 35.6235 324.847 36.774L325.414 35.64C323.195 34.5301 321.437 33.3337 320.123 32.0588L319.24 32.9686ZM324.847 36.774C327.118 37.9096 329.59 39.0644 332.263 40.2386L332.773 39.0778C330.117 37.9109 327.664 36.7649 325.414 35.64L324.847 36.774ZM332.267 40.2404C335.16 41.4862 338.115 42.8731 341.131 44.4014L341.704 43.2705C338.666 41.7311 335.687 40.3328 332.768 39.076L332.267 40.2404ZM341.134 44.4029C344.161 45.9162 346.926 47.7068 349.43 49.7741L350.238 48.7963C347.656 46.6656 344.81 44.8234 341.701 43.2689L341.134 44.4029ZM349.434 49.7772C351.952 51.8227 353.977 54.2797 355.511 57.1522L356.629 56.5548C355.016 53.5341 352.883 50.9455 350.234 48.7932L349.434 49.7772ZM355.513 57.1554C357.026 59.9497 357.798 63.3324 357.798 67.3281H359.066C359.066 63.1702 358.263 59.5698 356.628 56.5516L355.513 57.1554ZM357.798 67.3281C357.798 72.6537 356.341 77.3258 353.436 81.3684L354.466 82.1082C357.536 77.8357 359.066 72.901 359.066 67.3281H357.798ZM353.436 81.3693C350.565 85.3798 346.526 88.5213 341.288 90.7833L341.79 91.9472C347.209 89.6076 351.444 86.3312 354.467 82.1072L353.436 81.3693ZM341.286 90.784C336.094 93.0433 330.027 94.1825 323.072 94.1825V95.4503C330.164 95.4503 336.409 94.2887 341.792 91.9465L341.286 90.784ZM323.072 94.1825C316.602 94.1825 310.376 93.1444 304.389 91.069L303.974 92.2669C310.097 94.3895 316.464 95.4503 323.072 95.4503V94.1825ZM304.389 91.069C298.4 88.9929 292.891 85.999 287.86 82.0856L287.082 83.0863C292.222 87.0844 297.853 90.1451 303.974 92.2669L304.389 91.069Z" fill="black" fill-opacity="0.15" mask="url(#path-1-outside-1_158_639)"/>
</svg>
