<svg width="392" height="106" viewBox="0 0 392 106" fill="none" xmlns="http://www.w3.org/2000/svg">
<mask id="path-1-outside-1_1715_2233" maskUnits="userSpaceOnUse" x="0" y="0" width="392" height="106" fill="black">
<rect fill="white" width="392" height="106"/>
<path d="M2.64505 90.761L14.7988 71.0275C17.9788 73.5105 20.9411 75.5361 23.6854 77.1044C26.4734 78.6726 29.1742 79.827 31.788 80.5675C34.4452 81.2645 37.1461 81.613 39.8905 81.613C42.5913 81.613 44.9001 81.3081 46.8168 80.6982C48.7335 80.0448 50.1929 79.13 51.1948 77.9538C52.2403 76.7341 52.763 75.2966 52.763 73.6412C52.763 71.5502 52.0225 69.7642 50.5414 68.2831C49.0603 66.802 47.0782 65.4734 44.5952 64.2972C42.1557 63.121 39.4766 61.9448 36.558 60.7687C33.4215 59.5054 30.2197 58.1114 26.9526 56.5867C23.6854 55.0185 20.6797 53.1236 17.9353 50.9019C15.1909 48.6802 12.9692 45.9794 11.2703 42.7994C9.5714 39.5758 8.72194 35.6552 8.72194 31.0377C8.72194 24.939 10.2466 19.7334 13.2959 15.4207C16.3888 11.0645 20.5926 7.75384 25.9071 5.48862C31.2652 3.17984 37.3203 2.02545 44.0724 2.02545C48.9949 2.02545 54.2006 2.67888 59.6894 3.98573C65.1782 5.29259 70.7323 7.34 76.3518 10.128L66.289 30.907C63.1525 28.9903 59.7111 27.4656 55.9648 26.333C52.2621 25.1568 48.8642 24.5687 45.7713 24.5687C43.6368 24.5687 41.7636 24.8519 40.1518 25.4182C38.5836 25.9845 37.3639 26.8122 36.4926 27.9012C35.6214 28.9467 35.1858 30.1882 35.1858 31.6258C35.1858 33.5425 35.9263 35.2414 37.4074 36.7225C38.8886 38.16 40.8488 39.4887 43.2883 40.7084C45.7278 41.9281 48.385 43.1697 51.2601 44.433C54.3966 45.7834 57.5984 47.2863 60.8655 48.9416C64.1762 50.597 67.2038 52.5572 69.9482 54.8225C72.7361 57.0877 74.9796 59.8103 76.6785 62.9903C78.3774 66.1268 79.2269 69.8949 79.2269 74.2946C79.2269 80.1755 77.6151 85.3594 74.3915 89.8462C71.2115 94.2895 66.7464 97.7527 60.9962 100.236C55.2896 102.719 48.6464 103.96 41.0666 103.96C34.0096 103.96 27.214 102.828 20.6797 100.562C14.1454 98.2972 8.13385 95.0301 2.64505 90.761ZM108.958 102H81.8406L120.131 3.98573H147.249L185.474 102H158.357L152.019 84.5535H115.296L108.958 102ZM123.529 62.0102H143.851L133.657 34.0434L123.529 62.0102ZM237.357 102H211.481V60.1152L175.019 3.98573H206.449L224.288 37.0492L242.388 3.98573H273.818L237.357 60.1806V102ZM294.466 32.0832H281.006L287.605 2.67888H303.941L294.466 32.0832ZM312.501 90.761L324.655 71.0275C327.835 73.5105 330.797 75.5361 333.541 77.1044C336.329 78.6726 339.03 79.827 341.644 80.5675C344.301 81.2645 347.002 81.613 349.746 81.613C352.447 81.613 354.756 81.3081 356.673 80.6982C358.589 80.0448 360.049 79.13 361.051 77.9538C362.096 76.7341 362.619 75.2966 362.619 73.6412C362.619 71.5502 361.878 69.7642 360.397 68.2831C358.916 66.802 356.934 65.4734 354.451 64.2972C352.011 63.121 349.332 61.9448 346.414 60.7687C343.277 59.5054 340.075 58.1114 336.808 56.5867C333.541 55.0185 330.535 53.1236 327.791 50.9019C325.047 48.6802 322.825 45.9794 321.126 42.7994C319.427 39.5758 318.578 35.6552 318.578 31.0377C318.578 24.939 320.102 19.7334 323.152 15.4207C326.245 11.0645 330.448 7.75384 335.763 5.48862C341.121 3.17984 347.176 2.02545 353.928 2.02545C358.851 2.02545 364.056 2.67888 369.545 3.98573C375.034 5.29259 380.588 7.34 386.208 10.128L376.145 30.907C373.008 28.9903 369.567 27.4656 365.821 26.333C362.118 25.1568 358.72 24.5687 355.627 24.5687C353.493 24.5687 351.619 24.8519 350.008 25.4182C348.439 25.9845 347.22 26.8122 346.348 27.9012C345.477 28.9467 345.042 30.1882 345.042 31.6258C345.042 33.5425 345.782 35.2414 347.263 36.7225C348.744 38.16 350.705 39.4887 353.144 40.7084C355.584 41.9281 358.241 43.1697 361.116 44.433C364.252 45.7834 367.454 47.2863 370.721 48.9416C374.032 50.597 377.06 52.5572 379.804 54.8225C382.592 57.0877 384.835 59.8103 386.534 62.9903C388.233 66.1268 389.083 69.8949 389.083 74.2946C389.083 80.1755 387.471 85.3594 384.247 89.8462C381.067 94.2895 376.602 97.7527 370.852 100.236C365.145 102.719 358.502 103.96 350.922 103.96C343.865 103.96 337.07 102.828 330.535 100.562C324.001 98.2972 317.99 95.0301 312.501 90.761Z"/>
</mask>
<path d="M2.64505 90.761L0.942125 89.7122L0.00183363 91.2389L1.41717 92.3397L2.64505 90.761ZM14.7988 71.0275L16.0297 69.4511L14.268 68.0756L13.0959 69.9787L14.7988 71.0275ZM23.6854 77.1044L22.6931 78.8409L22.7049 78.8475L23.6854 77.1044ZM31.788 80.5675L31.2428 82.4918L31.2616 82.4971L31.2805 82.5021L31.788 80.5675ZM46.8168 80.6982L47.4232 82.6041L47.4428 82.5979L47.4622 82.5913L46.8168 80.6982ZM51.1948 77.9538L49.6763 76.6522L49.6723 76.6569L51.1948 77.9538ZM50.5414 68.2831L51.9556 66.8689L50.5414 68.2831ZM44.5952 64.2972L43.7265 66.0988L43.739 66.1047L44.5952 64.2972ZM36.558 60.7687L37.3055 58.9136L37.3052 58.9135L36.558 60.7687ZM26.9526 56.5867L26.0871 58.3898L26.0969 58.3945L26.1068 58.3991L26.9526 56.5867ZM11.2703 42.7994L9.50096 43.7319L9.50627 43.7418L11.2703 42.7994ZM13.2959 15.4207L11.6652 14.2629L11.6629 14.2661L13.2959 15.4207ZM25.9071 5.48862L26.6913 7.32848L26.6985 7.32536L25.9071 5.48862ZM76.3518 10.128L78.1518 10.9997L79.0152 9.21676L77.2406 8.33634L76.3518 10.128ZM66.289 30.907L65.2461 32.6135L67.1278 33.7635L68.089 31.7787L66.289 30.907ZM55.9648 26.333L55.3593 28.2391L55.3727 28.2434L55.386 28.2474L55.9648 26.333ZM40.1518 25.4182L39.4889 23.5313L39.4807 23.5341L39.4726 23.5371L40.1518 25.4182ZM36.4926 27.9012L38.0291 29.1816L38.0419 29.1662L38.0544 29.1506L36.4926 27.9012ZM37.4074 36.7225L35.9932 38.1367L36.0038 38.1473L36.0145 38.1577L37.4074 36.7225ZM51.2601 44.433L50.4556 46.264L50.4624 46.267L50.4692 46.2699L51.2601 44.433ZM60.8655 48.9416L59.9616 50.7257L59.9711 50.7305L60.8655 48.9416ZM69.9482 54.8225L68.6751 56.3649L68.681 56.3698L68.687 56.3747L69.9482 54.8225ZM76.6785 62.9903L74.9144 63.9328L74.9199 63.9429L76.6785 62.9903ZM74.3915 89.8462L72.7672 88.6793L72.7651 88.6822L74.3915 89.8462ZM60.9962 100.236L60.2033 98.3996L60.1982 98.4018L60.9962 100.236ZM4.34798 91.8099L16.5018 72.0763L13.0959 69.9787L0.942125 89.7122L4.34798 91.8099ZM13.568 72.6039C16.804 75.1307 19.8464 77.2142 22.6932 78.8409L24.6777 75.3679C22.0357 73.8581 19.1537 71.8904 16.0297 69.4511L13.568 72.6039ZM22.7049 78.8475C25.6068 80.4798 28.4533 81.7015 31.2428 82.4918L32.3332 78.6433C29.8952 77.9525 27.34 76.8654 24.666 75.3612L22.7049 78.8475ZM31.2805 82.5021C34.1033 83.2425 36.9747 83.613 39.8905 83.613V79.613C37.3175 79.613 34.7872 79.2866 32.2954 78.633L31.2805 82.5021ZM39.8905 83.613C42.7313 83.613 45.2563 83.2936 47.4232 82.6041L46.2104 78.7924C44.5439 79.3226 42.4513 79.613 39.8905 79.613V83.613ZM47.4622 82.5913C49.6164 81.8569 51.4201 80.7735 52.7173 79.2508L49.6723 76.6569C48.9656 77.4865 47.8507 78.2327 46.1715 78.8052L47.4622 82.5913ZM52.7133 79.2554C54.0797 77.6613 54.763 75.7581 54.763 73.6412H50.763C50.763 74.835 50.4009 75.8069 49.6763 76.6523L52.7133 79.2554ZM54.763 73.6412C54.763 71.0188 53.811 68.7243 51.9556 66.8689L49.1271 69.6973C50.2339 70.8041 50.763 72.0817 50.763 73.6412H54.763ZM51.9556 66.8689C50.2707 65.184 48.0806 63.7351 45.4513 62.4897L43.739 66.1047C46.0758 67.2116 47.8498 68.42 49.1271 69.6973L51.9556 66.8689ZM45.4638 62.4956C42.9788 61.2975 40.2588 60.1037 37.3055 58.9136L35.8104 62.6237C38.6945 63.7859 41.3326 64.9445 43.7266 66.0987L45.4638 62.4956ZM37.3052 58.9135C34.2041 57.6644 31.0352 56.2849 27.7984 54.7744L26.1068 58.3991C29.4043 59.9379 32.639 61.3463 35.8108 62.6238L37.3052 58.9135ZM27.8181 54.7837C24.6874 53.281 21.814 51.4687 19.1937 49.3474L16.6769 52.4564C19.5453 54.7784 22.6835 56.756 26.0871 58.3898L27.8181 54.7837ZM19.1937 49.3474C16.6615 47.2975 14.61 44.8063 13.0343 41.857L9.50627 43.7418C11.3284 47.1525 13.7203 50.063 16.6769 52.4564L19.1937 49.3474ZM13.0396 41.8669C11.5273 38.9975 10.7219 35.4151 10.7219 31.0377H6.72194C6.72194 35.8954 7.61544 40.1542 9.50099 43.7319L13.0396 41.8669ZM10.7219 31.0377C10.7219 25.2865 12.1539 20.5001 14.929 16.5754L11.6629 14.2661C8.33929 18.9666 6.72194 24.5915 6.72194 31.0377H10.7219ZM14.9267 16.5786C17.7884 12.548 21.6878 9.4611 26.6913 7.32847L25.1229 3.64877C19.4973 6.04657 14.9892 9.58111 11.6652 14.2629L14.9267 16.5786ZM26.6985 7.32536C31.7705 5.1399 37.5501 4.02545 44.0724 4.02545V0.0254494C37.0906 0.0254494 30.76 1.21978 25.1157 3.65188L26.6985 7.32536ZM44.0724 4.02545C48.8182 4.02545 53.8675 4.65548 59.2261 5.93135L60.1526 2.04012C54.5336 0.702275 49.1717 0.0254494 44.0724 0.0254494V4.02545ZM59.2261 5.93135C64.5523 7.1995 69.9641 9.19151 75.4629 11.9196L77.2406 8.33634C71.5005 5.48849 65.804 3.38569 60.1526 2.04012L59.2261 5.93135ZM74.5517 9.25625L64.489 30.0353L68.089 31.7787L78.1518 10.9997L74.5517 9.25625ZM67.3319 29.2004C64.0411 27.1894 60.4423 25.5973 56.5436 24.4186L55.386 28.2474C58.9799 29.3339 62.2639 30.7911 65.2461 32.6135L67.3319 29.2004ZM56.5703 24.4268C52.7195 23.2037 49.1145 22.5687 45.7713 22.5687V26.5687C48.614 26.5687 51.8046 27.11 55.3593 28.2391L56.5703 24.4268ZM45.7713 22.5687C43.465 22.5687 41.3593 22.8741 39.4889 23.5313L40.8148 27.3051C42.168 26.8297 43.8086 26.5687 45.7713 26.5687V22.5687ZM39.4726 23.5371C37.6259 24.2039 36.074 25.223 34.9309 26.6518L38.0544 29.1506C38.6538 28.4013 39.5414 27.7651 40.8311 27.2993L39.4726 23.5371ZM34.9562 26.6208C33.7677 28.0471 33.1858 29.7488 33.1858 31.6258H37.1858C37.1858 30.6276 37.4751 29.8463 38.0291 29.1816L34.9562 26.6208ZM33.1858 31.6258C33.1858 34.1247 34.1754 36.3188 35.9932 38.1367L38.8217 35.3083C37.6773 34.1639 37.1858 32.9602 37.1858 31.6258H33.1858ZM36.0145 38.1577C37.6812 39.7754 39.8263 41.2135 42.3939 42.4973L44.1827 38.9196C41.8713 37.7639 40.0959 36.5447 38.8004 35.2873L36.0145 38.1577ZM42.3939 42.4973C44.867 43.7338 47.5546 44.9893 50.4556 46.264L52.0647 42.6019C49.2155 41.35 46.5886 40.1225 44.1827 38.9196L42.3939 42.4973ZM50.4692 46.2699C53.5648 47.6028 56.7289 49.0878 59.9616 50.7257L61.7695 47.1575C58.4678 45.4847 55.2283 43.964 52.051 42.596L50.4692 46.2699ZM59.9711 50.7305C63.1521 52.321 66.0518 54.1997 68.6751 56.3649L71.2213 53.28C68.3558 50.9148 65.2004 48.873 61.76 47.1528L59.9711 50.7305ZM68.687 56.3747C71.2677 58.4715 73.3405 60.9865 74.9145 63.9328L78.4425 62.0479C76.6187 58.6341 74.2046 55.7039 71.2094 53.2702L68.687 56.3747ZM74.9199 63.9429C76.4275 66.7261 77.2269 70.1509 77.2269 74.2946H81.2269C81.2269 69.6389 80.3273 65.5274 78.4371 62.0378L74.9199 63.9429ZM77.2269 74.2946C77.2269 79.7854 75.7303 84.555 72.7672 88.6793L76.0158 91.0132C79.4998 86.1637 81.2269 80.5656 81.2269 74.2946H77.2269ZM72.7651 88.6822C69.8261 92.7888 65.6695 96.0392 60.2033 98.3996L61.7891 102.072C67.8233 99.4662 72.5968 95.7903 76.0179 91.0102L72.7651 88.6822ZM60.1982 98.4018C54.792 100.754 48.4303 101.96 41.0666 101.96V105.96C48.8626 105.96 55.7872 104.683 61.7942 102.07L60.1982 98.4018ZM41.0666 101.96C34.228 101.96 27.654 100.863 21.3348 98.6728L20.0246 102.452C26.7739 104.792 33.7913 105.96 41.0666 105.96V101.96ZM21.3348 98.6728C15.0083 96.4796 9.19005 93.3179 3.87294 89.1823L1.41717 92.3397C7.07765 96.7423 13.2825 100.115 20.0246 102.452L21.3348 98.6728ZM108.958 102V104H110.359L110.838 102.683L108.958 102ZM81.8406 102L79.9777 101.272L78.912 104H81.8406V102ZM120.131 3.98573V1.98573H118.766L118.269 3.25797L120.131 3.98573ZM147.249 3.98573L149.112 3.25904L148.615 1.98573H147.249V3.98573ZM185.474 102V104H188.401L187.338 101.273L185.474 102ZM158.357 102L156.477 102.683L156.956 104H158.357V102ZM152.019 84.5535L153.899 83.8705L153.42 82.5535H152.019V84.5535ZM115.296 84.5535V82.5535H113.895L113.416 83.8705L115.296 84.5535ZM123.529 62.0102L121.649 61.3292L120.678 64.0102H123.529V62.0102ZM143.851 62.0102V64.0102H146.709L145.73 61.3253L143.851 62.0102ZM133.657 34.0434L135.537 33.3585L133.651 28.1866L131.777 33.3624L133.657 34.0434ZM108.958 100H81.8406V104H108.958V100ZM83.7035 102.728L121.994 4.7135L118.269 3.25797L79.9777 101.272L83.7035 102.728ZM120.131 5.98573H147.249V1.98573H120.131V5.98573ZM145.385 4.71243L183.611 102.727L187.338 101.273L149.112 3.25904L145.385 4.71243ZM185.474 100H158.357V104H185.474V100ZM160.237 101.317L153.899 83.8705L150.139 85.2364L156.477 102.683L160.237 101.317ZM152.019 82.5535H115.296V86.5535H152.019V82.5535ZM113.416 83.8705L107.078 101.317L110.838 102.683L117.176 85.2364L113.416 83.8705ZM123.529 64.0102H143.851V60.0102H123.529V64.0102ZM145.73 61.3253L135.537 33.3585L131.778 34.7283L141.972 62.6951L145.73 61.3253ZM131.777 33.3624L121.649 61.3292L125.41 62.6912L135.538 34.7245L131.777 33.3624ZM237.357 102V104H239.357V102H237.357ZM211.481 102H209.481V104H211.481V102ZM211.481 60.1152H213.481V59.5227L213.158 59.0257L211.481 60.1152ZM175.019 3.98573V1.98573H171.335L173.342 5.07523L175.019 3.98573ZM206.449 3.98573L208.21 3.03608L207.643 1.98573H206.449V3.98573ZM224.288 37.0492L222.528 37.9989L224.275 41.2376L226.042 38.0096L224.288 37.0492ZM242.388 3.98573V1.98573H241.203L240.634 3.02536L242.388 3.98573ZM273.818 3.98573L275.496 5.07434L277.5 1.98573H273.818V3.98573ZM237.357 60.1806L235.679 59.092L235.357 59.5886V60.1806H237.357ZM237.357 100H211.481V104H237.357V100ZM213.481 102V60.1152H209.481V102H213.481ZM213.158 59.0257L176.697 2.89624L173.342 5.07523L209.804 61.2047L213.158 59.0257ZM175.019 5.98573H206.449V1.98573H175.019V5.98573ZM204.689 4.93539L222.528 37.9989L226.048 36.0996L208.21 3.03608L204.689 4.93539ZM226.042 38.0096L244.142 4.94611L240.634 3.02536L222.534 36.0888L226.042 38.0096ZM242.388 5.98573H273.818V1.98573H242.388V5.98573ZM272.14 2.89713L235.679 59.092L239.034 61.2692L275.496 5.07434L272.14 2.89713ZM235.357 60.1806V102H239.357V60.1806H235.357ZM294.466 32.0832V34.0832H295.923L296.37 32.6965L294.466 32.0832ZM281.006 32.0832L279.054 31.6452L278.507 34.0832H281.006V32.0832ZM287.605 2.67888V0.678878H286.004L285.654 2.24089L287.605 2.67888ZM303.941 2.67888L305.844 3.29227L306.687 0.678878H303.941V2.67888ZM294.466 30.0832H281.006V34.0832H294.466V30.0832ZM282.957 32.5211L289.557 3.11687L285.654 2.24089L279.054 31.6452L282.957 32.5211ZM287.605 4.67888H303.941V0.678878H287.605V4.67888ZM302.037 2.06549L292.563 31.4698L296.37 32.6965L305.844 3.29227L302.037 2.06549ZM312.501 90.761L310.798 89.7122L309.858 91.2389L311.273 92.3397L312.501 90.761ZM324.655 71.0275L325.885 69.4511L324.124 68.0756L322.952 69.9787L324.655 71.0275ZM333.541 77.1044L332.549 78.8409L332.561 78.8475L333.541 77.1044ZM341.644 80.5675L341.099 82.4918L341.117 82.4971L341.136 82.5021L341.644 80.5675ZM356.673 80.6982L357.279 82.6041L357.299 82.5979L357.318 82.5913L356.673 80.6982ZM361.051 77.9538L359.532 76.6522L359.528 76.6569L361.051 77.9538ZM360.397 68.2831L361.811 66.8689L360.397 68.2831ZM354.451 64.2972L353.582 66.0988L353.595 66.1047L354.451 64.2972ZM346.414 60.7687L347.161 58.9136L347.161 58.9135L346.414 60.7687ZM336.808 56.5867L335.943 58.3898L335.953 58.3945L335.963 58.3991L336.808 56.5867ZM321.126 42.7994L319.357 43.7319L319.362 43.7418L321.126 42.7994ZM323.152 15.4207L321.521 14.2629L321.519 14.2661L323.152 15.4207ZM335.763 5.48862L336.547 7.32848L336.554 7.32536L335.763 5.48862ZM386.208 10.128L388.008 10.9997L388.871 9.21676L387.096 8.33634L386.208 10.128ZM376.145 30.907L375.102 32.6135L376.984 33.7635L377.945 31.7787L376.145 30.907ZM365.821 26.333L365.215 28.2391L365.228 28.2434L365.242 28.2474L365.821 26.333ZM350.008 25.4182L349.345 23.5313L349.336 23.5341L349.328 23.5371L350.008 25.4182ZM346.348 27.9012L347.885 29.1816L347.898 29.1662L347.91 29.1506L346.348 27.9012ZM347.263 36.7225L345.849 38.1367L345.86 38.1473L345.87 38.1577L347.263 36.7225ZM361.116 44.433L360.311 46.264L360.318 46.267L360.325 46.2699L361.116 44.433ZM370.721 48.9416L369.817 50.7257L369.827 50.7305L370.721 48.9416ZM379.804 54.8225L378.531 56.3649L378.537 56.3698L378.543 56.3747L379.804 54.8225ZM386.534 62.9903L384.77 63.9328L384.776 63.9429L386.534 62.9903ZM384.247 89.8462L382.623 88.6793L382.621 88.6822L384.247 89.8462ZM370.852 100.236L370.059 98.3996L370.054 98.4018L370.852 100.236ZM314.204 91.8099L326.358 72.0763L322.952 69.9787L310.798 89.7122L314.204 91.8099ZM323.424 72.6039C326.66 75.1307 329.702 77.2142 332.549 78.8409L334.533 75.3679C331.891 73.8581 329.009 71.8904 325.885 69.4511L323.424 72.6039ZM332.561 78.8475C335.463 80.4798 338.309 81.7015 341.099 82.4918L342.189 78.6433C339.751 77.9525 337.196 76.8654 334.522 75.3612L332.561 78.8475ZM341.136 82.5021C343.959 83.2425 346.83 83.613 349.746 83.613V79.613C347.173 79.613 344.643 79.2866 342.151 78.633L341.136 82.5021ZM349.746 83.613C352.587 83.613 355.112 83.2936 357.279 82.6041L356.066 78.7924C354.4 79.3226 352.307 79.613 349.746 79.613V83.613ZM357.318 82.5913C359.472 81.8569 361.276 80.7735 362.573 79.2508L359.528 76.6569C358.821 77.4865 357.706 78.2327 356.027 78.8052L357.318 82.5913ZM362.569 79.2554C363.935 77.6613 364.619 75.7581 364.619 73.6412H360.619C360.619 74.835 360.257 75.8069 359.532 76.6523L362.569 79.2554ZM364.619 73.6412C364.619 71.0188 363.667 68.7243 361.811 66.8689L358.983 69.6973C360.09 70.8041 360.619 72.0817 360.619 73.6412H364.619ZM361.811 66.8689C360.126 65.184 357.936 63.7351 355.307 62.4897L353.595 66.1047C355.932 67.2116 357.706 68.42 358.983 69.6973L361.811 66.8689ZM355.32 62.4956C352.835 61.2975 350.115 60.1037 347.161 58.9136L345.666 62.6237C348.55 63.7859 351.188 64.9445 353.582 66.0987L355.32 62.4956ZM347.161 58.9135C344.06 57.6644 340.891 56.2849 337.654 54.7744L335.963 58.3991C339.26 59.9379 342.495 61.3463 345.667 62.6238L347.161 58.9135ZM337.674 54.7837C334.543 53.281 331.67 51.4687 329.049 49.3474L326.533 52.4564C329.401 54.7784 332.539 56.756 335.943 58.3898L337.674 54.7837ZM329.049 49.3474C326.517 47.2975 324.466 44.8063 322.89 41.857L319.362 43.7418C321.184 47.1525 323.576 50.063 326.533 52.4564L329.049 49.3474ZM322.895 41.8669C321.383 38.9975 320.578 35.4151 320.578 31.0377H316.578C316.578 35.8954 317.471 40.1542 319.357 43.7319L322.895 41.8669ZM320.578 31.0377C320.578 25.2865 322.01 20.5001 324.785 16.5754L321.519 14.2661C318.195 18.9666 316.578 24.5915 316.578 31.0377H320.578ZM324.782 16.5786C327.644 12.548 331.544 9.4611 336.547 7.32847L334.979 3.64877C329.353 6.04657 324.845 9.58111 321.521 14.2629L324.782 16.5786ZM336.554 7.32536C341.626 5.1399 347.406 4.02545 353.928 4.02545V0.0254494C346.946 0.0254494 340.616 1.21978 334.971 3.65188L336.554 7.32536ZM353.928 4.02545C358.674 4.02545 363.723 4.65548 369.082 5.93135L370.008 2.04012C364.389 0.702275 359.027 0.0254494 353.928 0.0254494V4.02545ZM369.082 5.93135C374.408 7.1995 379.82 9.19151 385.319 11.9196L387.096 8.33634C381.356 5.48849 375.66 3.38569 370.008 2.04012L369.082 5.93135ZM384.408 9.25625L374.345 30.0353L377.945 31.7787L388.008 10.9997L384.408 9.25625ZM377.188 29.2004C373.897 27.1894 370.298 25.5973 366.399 24.4186L365.242 28.2474C368.836 29.3339 372.12 30.7911 375.102 32.6135L377.188 29.2004ZM366.426 24.4268C362.575 23.2037 358.97 22.5687 355.627 22.5687V26.5687C358.47 26.5687 361.66 27.11 365.215 28.2391L366.426 24.4268ZM355.627 22.5687C353.321 22.5687 351.215 22.8741 349.345 23.5313L350.671 27.3051C352.024 26.8297 353.664 26.5687 355.627 26.5687V22.5687ZM349.328 23.5371C347.482 24.2039 345.93 25.223 344.787 26.6518L347.91 29.1506C348.51 28.4013 349.397 27.7651 350.687 27.2993L349.328 23.5371ZM344.812 26.6208C343.623 28.0471 343.042 29.7488 343.042 31.6258H347.042C347.042 30.6276 347.331 29.8463 347.885 29.1816L344.812 26.6208ZM343.042 31.6258C343.042 34.1247 344.031 36.3188 345.849 38.1367L348.677 35.3083C347.533 34.1639 347.042 32.9602 347.042 31.6258H343.042ZM345.87 38.1577C347.537 39.7754 349.682 41.2135 352.25 42.4973L354.038 38.9196C351.727 37.7639 349.952 36.5447 348.656 35.2873L345.87 38.1577ZM352.25 42.4973C354.723 43.7338 357.41 44.9893 360.311 46.264L361.92 42.6019C359.071 41.35 356.444 40.1225 354.038 38.9196L352.25 42.4973ZM360.325 46.2699C363.421 47.6028 366.585 49.0878 369.817 50.7257L371.625 47.1575C368.324 45.4847 365.084 43.964 361.907 42.596L360.325 46.2699ZM369.827 50.7305C373.008 52.321 375.908 54.1997 378.531 56.3649L381.077 53.28C378.212 50.9148 375.056 48.873 371.616 47.1528L369.827 50.7305ZM378.543 56.3747C381.123 58.4715 383.196 60.9865 384.77 63.9328L388.298 62.0479C386.474 58.6341 384.06 55.7039 381.065 53.2702L378.543 56.3747ZM384.776 63.9429C386.283 66.7261 387.083 70.1509 387.083 74.2946H391.083C391.083 69.6389 390.183 65.5274 388.293 62.0378L384.776 63.9429ZM387.083 74.2946C387.083 79.7854 385.586 84.555 382.623 88.6793L385.872 91.0132C389.356 86.1637 391.083 80.5656 391.083 74.2946H387.083ZM382.621 88.6822C379.682 92.7888 375.525 96.0392 370.059 98.3996L371.645 102.072C377.679 99.4662 382.453 95.7903 385.874 91.0102L382.621 88.6822ZM370.054 98.4018C364.648 100.754 358.286 101.96 350.922 101.96V105.96C358.718 105.96 365.643 104.683 371.65 102.07L370.054 98.4018ZM350.922 101.96C344.084 101.96 337.51 100.863 331.191 98.6728L329.88 102.452C336.63 104.792 343.647 105.96 350.922 105.96V101.96ZM331.191 98.6728C324.864 96.4796 319.046 93.3179 313.729 89.1823L311.273 92.3397C316.933 96.7423 323.138 100.115 329.88 102.452L331.191 98.6728Z" fill="#252735" fill-opacity="0.4" mask="url(#path-1-outside-1_1715_2233)"/>
</svg>
