<svg width="653" height="106" viewBox="0 0 653 106" fill="none" xmlns="http://www.w3.org/2000/svg">
<mask id="path-1-outside-1_1715_2232" maskUnits="userSpaceOnUse" x="0" y="0" width="653" height="106" fill="black">
<rect fill="white" width="653" height="106"/>
<path d="M2.89403 90.761L15.0478 71.0275C18.2278 73.5105 21.19 75.5361 23.9344 77.1044C26.7224 78.6726 29.4232 79.827 32.0369 80.5675C34.6942 81.2645 37.3951 81.613 40.1395 81.613C42.8403 81.613 45.1491 81.3081 47.0658 80.6982C48.9825 80.0448 50.4418 79.13 51.4438 77.9538C52.4892 76.7341 53.012 75.2966 53.012 73.6412C53.012 71.5502 52.2714 69.7642 50.7903 68.2831C49.3092 66.802 47.3272 65.4734 44.8441 64.2972C42.4047 63.121 39.7256 61.9448 36.807 60.7687C33.6705 59.5054 30.4687 58.1114 27.2016 56.5867C23.9344 55.0185 20.9287 53.1236 18.1843 50.9019C15.4399 48.6802 13.2182 45.9794 11.5193 42.7994C9.82037 39.5758 8.97092 35.6552 8.97092 31.0377C8.97092 24.939 10.4956 19.7334 13.5449 15.4207C16.6378 11.0645 20.8415 7.75384 26.1561 5.48862C31.5142 3.17984 37.5693 2.02545 44.3214 2.02545C49.2439 2.02545 54.4495 2.67888 59.9383 3.98573C65.4271 5.29259 70.9813 7.34 76.6008 10.128L66.538 30.907C63.4015 28.9903 59.9601 27.4656 56.2138 26.333C52.511 25.1568 49.1132 24.5687 46.0203 24.5687C43.8858 24.5687 42.0126 24.8519 40.4008 25.4182C38.8326 25.9845 37.6129 26.8122 36.7416 27.9012C35.8704 28.9467 35.4348 30.1882 35.4348 31.6258C35.4348 33.5425 36.1753 35.2414 37.6564 36.7225C39.1375 38.16 41.0978 39.4887 43.5373 40.7084C45.9767 41.9281 48.634 43.1697 51.5091 44.433C54.6456 45.7834 57.8474 47.2863 61.1145 48.9416C64.4252 50.597 67.4528 52.5572 70.1972 54.8225C72.9851 57.0877 75.2286 59.8103 76.9275 62.9903C78.6264 66.1268 79.4758 69.8949 79.4758 74.2946C79.4758 80.1755 77.8641 85.3594 74.6405 89.8462C71.4605 94.2895 66.9954 97.7527 61.2452 100.236C55.5386 102.719 48.8954 103.96 41.3156 103.96C34.2586 103.96 27.4629 102.828 20.9287 100.562C14.3944 98.2972 8.38283 95.0301 2.89403 90.761ZM89.2773 102V3.98573H154.62V26.529H115.153V41.6886H152.006V64.2318H115.153V79.4567H155.274V102H89.2773ZM254.464 102H225.844L207.156 69.5899H193.564V102H167.689V3.98573H209.116C217.611 3.98573 224.842 5.27081 230.81 7.84096C236.778 10.4111 241.33 14.1574 244.467 19.0799C247.647 23.9589 249.237 29.8615 249.237 36.7878C249.237 43.2786 247.843 48.8763 245.055 53.581C242.267 58.2856 238.237 61.9884 232.966 64.6892L254.464 102ZM193.564 49.6604H207.09C212.274 49.6604 216.173 48.702 218.787 46.7853C221.444 44.825 222.773 41.9281 222.773 38.0947C222.773 34.2613 221.444 31.3862 218.787 29.4694C216.173 27.5092 212.274 26.529 207.09 26.529H193.564V49.6604ZM320.526 102H293.408L255.117 3.98573H282.235L306.934 71.9423L331.634 3.98573H358.751L320.526 102ZM365.939 102V3.98573H391.815V102H365.939ZM491.201 89.8462C486.584 94.2895 481.117 97.7527 474.8 100.236C468.527 102.719 461.688 103.96 454.282 103.96C446.833 103.96 439.929 102.697 433.569 100.17C427.252 97.6002 421.742 94.0282 417.037 89.4542C412.376 84.8366 408.738 79.4349 406.125 73.2491C403.555 67.0634 402.269 60.3113 402.269 52.9929C402.269 45.6745 403.555 38.9224 406.125 32.7366C408.738 26.5508 412.376 21.1709 417.037 16.5969C421.742 11.9793 427.252 8.40727 433.569 5.88068C439.929 3.31053 446.833 2.02545 454.282 2.02545C461.644 2.02545 468.44 3.28874 474.669 5.81533C480.942 8.29836 486.387 11.7615 491.005 16.2048L472.97 34.3702C470.705 31.3208 467.917 28.9249 464.607 27.1824C461.339 25.44 457.767 24.5687 453.89 24.5687C450.318 24.5687 447.008 25.2875 443.958 26.725C440.909 28.1626 438.23 30.1664 435.921 32.7366C433.656 35.3067 431.892 38.3125 430.628 41.7539C429.365 45.1953 428.733 48.9198 428.733 52.9275C428.733 56.9788 429.365 60.7251 430.628 64.1665C431.892 67.6079 433.656 70.6354 435.921 73.2491C438.23 75.8193 440.909 77.8231 443.958 79.2607C447.008 80.6982 450.318 81.417 453.89 81.417C457.767 81.417 461.339 80.5458 464.607 78.8033C467.874 77.0608 470.64 74.6649 472.905 71.6156L491.201 89.8462ZM501.068 102V3.98573H566.411V26.529H526.944V41.6886H563.797V64.2318H526.944V79.4567H567.064V102H501.068ZM574.252 90.761L586.406 71.0275C589.586 73.5105 592.548 75.5361 595.292 77.1044C598.08 78.6726 600.781 79.827 603.395 80.5675C606.052 81.2645 608.753 81.613 611.497 81.613C614.198 81.613 616.507 81.3081 618.424 80.6982C620.34 80.0448 621.8 79.13 622.802 77.9538C623.847 76.7341 624.37 75.2966 624.37 73.6412C624.37 71.5502 623.629 69.7642 622.148 68.2831C620.667 66.802 618.685 65.4734 616.202 64.2972C613.762 63.121 611.083 61.9448 608.165 60.7687C605.028 59.5054 601.826 58.1114 598.559 56.5867C595.292 55.0185 592.286 53.1236 589.542 50.9019C586.798 48.6802 584.576 45.9794 582.877 42.7994C581.178 39.5758 580.329 35.6552 580.329 31.0377C580.329 24.939 581.853 19.7334 584.903 15.4207C587.996 11.0645 592.199 7.75384 597.514 5.48862C602.872 3.17984 608.927 2.02545 615.679 2.02545C620.602 2.02545 625.807 2.67888 631.296 3.98573C636.785 5.29259 642.339 7.34 647.959 10.128L637.896 30.907C634.759 28.9903 631.318 27.4656 627.572 26.333C623.869 25.1568 620.471 24.5687 617.378 24.5687C615.244 24.5687 613.37 24.8519 611.759 25.4182C610.19 25.9845 608.971 26.8122 608.099 27.9012C607.228 28.9467 606.793 30.1882 606.793 31.6258C606.793 33.5425 607.533 35.2414 609.014 36.7225C610.495 38.16 612.456 39.4887 614.895 40.7084C617.335 41.9281 619.992 43.1697 622.867 44.433C626.003 45.7834 629.205 47.2863 632.472 48.9416C635.783 50.597 638.811 52.5572 641.555 54.8225C644.343 57.0877 646.586 59.8103 648.285 62.9903C649.984 66.1268 650.834 69.8949 650.834 74.2946C650.834 80.1755 649.222 85.3594 645.998 89.8462C642.818 94.2895 638.353 97.7527 632.603 100.236C626.896 102.719 620.253 103.96 612.673 103.96C605.616 103.96 598.821 102.828 592.286 100.562C585.752 98.2972 579.741 95.0301 574.252 90.761Z"/>
</mask>
<path d="M2.89403 90.761L1.1911 89.7122L0.250811 91.2389L1.66615 92.3397L2.89403 90.761ZM15.0478 71.0275L16.2787 69.4511L14.517 68.0756L13.3449 69.9787L15.0478 71.0275ZM23.9344 77.1044L22.9421 78.8409L22.9539 78.8475L23.9344 77.1044ZM32.0369 80.5675L31.4917 82.4918L31.5106 82.4971L31.5295 82.5021L32.0369 80.5675ZM47.0658 80.6982L47.6722 82.6041L47.6917 82.5979L47.7111 82.5913L47.0658 80.6982ZM51.4438 77.9538L49.9252 76.6522L49.9213 76.6569L51.4438 77.9538ZM50.7903 68.2831L52.2045 66.8689L50.7903 68.2831ZM44.8441 64.2972L43.9755 66.0988L43.988 66.1047L44.8441 64.2972ZM36.807 60.7687L37.5545 58.9136L37.5542 58.9135L36.807 60.7687ZM27.2016 56.5867L26.3361 58.3898L26.3459 58.3945L26.3558 58.3991L27.2016 56.5867ZM11.5193 42.7994L9.74994 43.7319L9.75525 43.7418L11.5193 42.7994ZM13.5449 15.4207L11.9141 14.2629L11.9119 14.2661L13.5449 15.4207ZM26.1561 5.48862L26.9403 7.32848L26.9475 7.32536L26.1561 5.48862ZM76.6008 10.128L78.4008 10.9997L79.2642 9.21676L77.4896 8.33634L76.6008 10.128ZM66.538 30.907L65.4951 32.6135L67.3768 33.7635L68.338 31.7787L66.538 30.907ZM56.2138 26.333L55.6083 28.2391L55.6216 28.2434L55.635 28.2474L56.2138 26.333ZM40.4008 25.4182L39.7379 23.5313L39.7297 23.5341L39.7215 23.5371L40.4008 25.4182ZM36.7416 27.9012L38.2781 29.1816L38.2909 29.1662L38.3034 29.1506L36.7416 27.9012ZM37.6564 36.7225L36.2422 38.1367L36.2528 38.1473L36.2635 38.1577L37.6564 36.7225ZM51.5091 44.433L50.7046 46.264L50.7114 46.267L50.7182 46.2699L51.5091 44.433ZM61.1145 48.9416L60.2106 50.7257L60.2201 50.7305L61.1145 48.9416ZM70.1972 54.8225L68.924 56.3649L68.93 56.3698L68.936 56.3747L70.1972 54.8225ZM76.9275 62.9903L75.1634 63.9328L75.1689 63.9429L76.9275 62.9903ZM74.6405 89.8462L73.0162 88.6793L73.0141 88.6822L74.6405 89.8462ZM61.2452 100.236L60.4523 98.3996L60.4472 98.4018L61.2452 100.236ZM4.59696 91.8099L16.7507 72.0763L13.3449 69.9787L1.1911 89.7122L4.59696 91.8099ZM13.8169 72.6039C17.053 75.1307 20.0954 77.2142 22.9421 78.8409L24.9267 75.3679C22.2846 73.8581 19.4026 71.8904 16.2787 69.4511L13.8169 72.6039ZM22.9539 78.8475C25.8558 80.4798 28.7023 81.7015 31.4917 82.4918L32.5821 78.6433C30.1441 77.9525 27.589 76.8654 24.9149 75.3612L22.9539 78.8475ZM31.5295 82.5021C34.3523 83.2425 37.2236 83.613 40.1395 83.613V79.613C37.5665 79.613 35.0362 79.2866 32.5444 78.633L31.5295 82.5021ZM40.1395 83.613C42.9803 83.613 45.5053 83.2936 47.6722 82.6041L46.4594 78.7924C44.7929 79.3226 42.7003 79.613 40.1395 79.613V83.613ZM47.7111 82.5913C49.8654 81.8569 51.6691 80.7735 52.9663 79.2508L49.9213 76.6569C49.2146 77.4865 48.0997 78.2327 46.4204 78.8052L47.7111 82.5913ZM52.9623 79.2554C54.3286 77.6613 55.012 75.7581 55.012 73.6412H51.012C51.012 74.835 50.6499 75.8069 49.9253 76.6523L52.9623 79.2554ZM55.012 73.6412C55.012 71.0188 54.06 68.7243 52.2045 66.8689L49.3761 69.6973C50.4829 70.8041 51.012 72.0817 51.012 73.6412H55.012ZM52.2045 66.8689C50.5197 65.184 48.3296 63.7351 45.7003 62.4897L43.988 66.1047C46.3248 67.2116 48.0988 68.42 49.3761 69.6973L52.2045 66.8689ZM45.7127 62.4956C43.2278 61.2975 40.5077 60.1037 37.5545 58.9136L36.0594 62.6237C38.9435 63.7859 41.5816 64.9445 43.9755 66.0987L45.7127 62.4956ZM37.5542 58.9135C34.4531 57.6644 31.2841 56.2849 28.0473 54.7744L26.3558 58.3991C29.6533 59.9379 32.888 61.3463 36.0597 62.6238L37.5542 58.9135ZM28.067 54.7837C24.9364 53.281 22.063 51.4687 19.4427 49.3474L16.9259 52.4564C19.7943 54.7784 22.9325 56.756 26.3361 58.3898L28.067 54.7837ZM19.4427 49.3474C16.9105 47.2975 14.859 44.8063 13.2833 41.857L9.75525 43.7418C11.5774 47.1525 13.9693 50.063 16.9259 52.4564L19.4427 49.3474ZM13.2886 41.8669C11.7763 38.9975 10.9709 35.4151 10.9709 31.0377H6.97092C6.97092 35.8954 7.86442 40.1542 9.74997 43.7319L13.2886 41.8669ZM10.9709 31.0377C10.9709 25.2865 12.4029 20.5001 15.1779 16.5754L11.9119 14.2661C8.58827 18.9666 6.97092 24.5915 6.97092 31.0377H10.9709ZM15.1757 16.5786C18.0374 12.548 21.9368 9.4611 26.9403 7.32847L25.3719 3.64877C19.7463 6.04657 15.2382 9.58111 11.9141 14.2629L15.1757 16.5786ZM26.9475 7.32536C32.0194 5.1399 37.799 4.02545 44.3214 4.02545V0.0254494C37.3396 0.0254494 31.0089 1.21978 25.3646 3.65188L26.9475 7.32536ZM44.3214 4.02545C49.0671 4.02545 54.1165 4.65548 59.4751 5.93135L60.4016 2.04012C54.7826 0.702275 49.4206 0.0254494 44.3214 0.0254494V4.02545ZM59.4751 5.93135C64.8013 7.1995 70.2131 9.19151 75.7119 11.9196L77.4896 8.33634C71.7494 5.48849 66.0529 3.38569 60.4016 2.04012L59.4751 5.93135ZM74.8007 9.25625L64.7379 30.0353L68.338 31.7787L78.4008 10.9997L74.8007 9.25625ZM67.5809 29.2004C64.2901 27.1894 60.6913 25.5973 56.7926 24.4186L55.635 28.2474C59.2289 29.3339 62.5129 30.7911 65.4951 32.6135L67.5809 29.2004ZM56.8193 24.4268C52.9685 23.2037 49.3634 22.5687 46.0203 22.5687V26.5687C48.863 26.5687 52.0535 27.11 55.6083 28.2391L56.8193 24.4268ZM46.0203 22.5687C43.714 22.5687 41.6083 22.8741 39.7379 23.5313L41.0638 27.3051C42.417 26.8297 44.0576 26.5687 46.0203 26.5687V22.5687ZM39.7215 23.5371C37.8749 24.2039 36.3229 25.223 35.1799 26.6518L38.3034 29.1506C38.9028 28.4013 39.7903 27.7651 41.0801 27.2993L39.7215 23.5371ZM35.2052 26.6208C34.0167 28.0471 33.4348 29.7488 33.4348 31.6258H37.4348C37.4348 30.6276 37.7241 29.8463 38.2781 29.1816L35.2052 26.6208ZM33.4348 31.6258C33.4348 34.1247 34.4243 36.3188 36.2422 38.1367L39.0706 35.3083C37.9263 34.1639 37.4348 32.9602 37.4348 31.6258H33.4348ZM36.2635 38.1577C37.9302 39.7754 40.0753 41.2135 42.6429 42.4973L44.4317 38.9196C42.1203 37.7639 40.3448 36.5447 39.0494 35.2873L36.2635 38.1577ZM42.6429 42.4973C45.1159 43.7338 47.8036 44.9893 50.7046 46.264L52.3137 42.6019C49.4645 41.35 46.8375 40.1225 44.4317 38.9196L42.6429 42.4973ZM50.7182 46.2699C53.8138 47.6028 56.9779 49.0878 60.2106 50.7257L62.0184 47.1575C58.7168 45.4847 55.4773 43.964 52.3 42.596L50.7182 46.2699ZM60.2201 50.7305C63.4011 52.321 66.3007 54.1997 68.924 56.3649L71.4703 53.28C68.6048 50.9148 65.4493 48.873 62.0089 47.1528L60.2201 50.7305ZM68.936 56.3747C71.5166 58.4715 73.5894 60.9865 75.1634 63.9328L78.6915 62.0479C76.8677 58.6341 74.4536 55.7039 71.4583 53.2702L68.936 56.3747ZM75.1689 63.9429C76.6765 66.7261 77.4758 70.1509 77.4758 74.2946H81.4758C81.4758 69.6389 80.5763 65.5274 78.6861 62.0378L75.1689 63.9429ZM77.4758 74.2946C77.4758 79.7854 75.9793 84.555 73.0162 88.6793L76.2647 91.0132C79.7488 86.1637 81.4758 80.5656 81.4758 74.2946H77.4758ZM73.0141 88.6822C70.0751 92.7888 65.9185 96.0392 60.4523 98.3996L62.0381 102.072C68.0722 99.4662 72.8458 95.7903 76.2669 91.0102L73.0141 88.6822ZM60.4472 98.4018C55.0409 100.754 48.6793 101.96 41.3156 101.96V105.96C49.1115 105.96 56.0362 104.683 62.0432 102.07L60.4472 98.4018ZM41.3156 101.96C34.477 101.96 27.903 100.863 21.5837 98.6728L20.2736 102.452C27.0229 104.792 34.0402 105.96 41.3156 105.96V101.96ZM21.5837 98.6728C15.2573 96.4796 9.43903 93.3179 4.12191 89.1823L1.66615 92.3397C7.32663 96.7423 13.5315 100.115 20.2736 102.452L21.5837 98.6728ZM89.2773 102H87.2773V104H89.2773V102ZM89.2773 3.98573V1.98573H87.2773V3.98573H89.2773ZM154.62 3.98573H156.62V1.98573H154.62V3.98573ZM154.62 26.529V28.529H156.62V26.529H154.62ZM115.153 26.529V24.529H113.153V26.529H115.153ZM115.153 41.6886H113.153V43.6886H115.153V41.6886ZM152.006 41.6886H154.006V39.6886H152.006V41.6886ZM152.006 64.2318V66.2318H154.006V64.2318H152.006ZM115.153 64.2318V62.2318H113.153V64.2318H115.153ZM115.153 79.4567H113.153V81.4567H115.153V79.4567ZM155.274 79.4567H157.274V77.4567H155.274V79.4567ZM155.274 102V104H157.274V102H155.274ZM91.2773 102V3.98573H87.2773V102H91.2773ZM89.2773 5.98573H154.62V1.98573H89.2773V5.98573ZM152.62 3.98573V26.529H156.62V3.98573H152.62ZM154.62 24.529H115.153V28.529H154.62V24.529ZM113.153 26.529V41.6886H117.153V26.529H113.153ZM115.153 43.6886H152.006V39.6886H115.153V43.6886ZM150.006 41.6886V64.2318H154.006V41.6886H150.006ZM152.006 62.2318H115.153V66.2318H152.006V62.2318ZM113.153 64.2318V79.4567H117.153V64.2318H113.153ZM115.153 81.4567H155.274V77.4567H115.153V81.4567ZM153.274 79.4567V102H157.274V79.4567H153.274ZM155.274 100H89.2773V104H155.274V100ZM254.464 102V104H257.925L256.197 101.002L254.464 102ZM225.844 102L224.111 102.999L224.688 104H225.844V102ZM207.156 69.5899L208.888 68.5909L208.311 67.5899H207.156V69.5899ZM193.564 69.5899V67.5899H191.564V69.5899H193.564ZM193.564 102V104H195.564V102H193.564ZM167.689 102H165.689V104H167.689V102ZM167.689 3.98573V1.98573H165.689V3.98573H167.689ZM230.81 7.84096L231.601 6.00406L230.81 7.84096ZM244.467 19.0799L242.78 20.1546L242.785 20.1634L242.791 20.172L244.467 19.0799ZM232.966 64.6892L232.054 62.9093L230.184 63.8674L231.233 65.6877L232.966 64.6892ZM193.564 49.6604H191.564V51.6604H193.564V49.6604ZM218.787 46.7853L219.97 48.3981L219.974 48.3947L218.787 46.7853ZM218.787 29.4694L217.587 31.0694L217.602 31.0806L217.617 31.0915L218.787 29.4694ZM193.564 26.529V24.529H191.564V26.529H193.564ZM254.464 100H225.844V104H254.464V100ZM227.576 101.001L208.888 68.5909L205.423 70.589L224.111 102.999L227.576 101.001ZM207.156 67.5899H193.564V71.5899H207.156V67.5899ZM191.564 69.5899V102H195.564V69.5899H191.564ZM193.564 100H167.689V104H193.564V100ZM169.689 102V3.98573H165.689V102H169.689ZM167.689 5.98573H209.116V1.98573H167.689V5.98573ZM209.116 5.98573C217.418 5.98573 224.365 7.2429 230.019 9.67786L231.601 6.00406C225.319 3.29872 217.803 1.98573 209.116 1.98573V5.98573ZM230.019 9.67786C235.662 12.1081 239.883 15.608 242.78 20.1546L246.153 18.0052C242.777 12.7069 237.894 8.7141 231.601 6.00406L230.019 9.67786ZM242.791 20.172C245.722 24.6688 247.237 30.1747 247.237 36.7878H251.237C251.237 29.5483 249.571 23.2489 246.142 17.9879L242.791 20.172ZM247.237 36.7878C247.237 42.9873 245.907 48.2186 243.334 52.5613L246.775 54.6006C249.778 49.5339 251.237 43.5698 251.237 36.7878H247.237ZM243.334 52.5613C240.754 56.9144 237.018 60.3657 232.054 62.9093L233.878 66.4692C239.456 63.6111 243.779 59.6568 246.775 54.6006L243.334 52.5613ZM231.233 65.6877L252.731 102.998L256.197 101.002L234.699 63.6908L231.233 65.6877ZM193.564 51.6604H207.09V47.6604H193.564V51.6604ZM207.09 51.6604C212.464 51.6604 216.862 50.6769 219.97 48.3981L217.604 45.1725C215.484 46.7271 212.084 47.6604 207.09 47.6604V51.6604ZM219.974 48.3947C223.229 45.9933 224.773 42.4468 224.773 38.0947H220.773C220.773 41.4095 219.659 43.6567 217.599 45.1758L219.974 48.3947ZM224.773 38.0947C224.773 33.7433 223.229 30.2075 219.957 27.8474L217.617 31.0915C219.659 32.5648 220.773 34.7792 220.773 38.0947H224.773ZM219.987 27.8694C216.877 25.5368 212.471 24.529 207.09 24.529V28.529C212.077 28.529 215.47 29.4815 217.587 31.0694L219.987 27.8694ZM207.09 24.529H193.564V28.529H207.09V24.529ZM191.564 26.529V49.6604H195.564V26.529H191.564ZM320.526 102V104H321.892L322.389 102.727L320.526 102ZM293.408 102L291.545 102.728L292.042 104H293.408V102ZM255.117 3.98573V1.98573H252.189L253.255 4.7135L255.117 3.98573ZM282.235 3.98573L284.114 3.30254L283.636 1.98573H282.235V3.98573ZM306.934 71.9423L305.055 72.6255L306.934 77.7971L308.814 72.6255L306.934 71.9423ZM331.634 3.98573V1.98573H330.233L329.754 3.30254L331.634 3.98573ZM358.751 3.98573L360.614 4.71243L361.678 1.98573H358.751V3.98573ZM320.526 100H293.408V104H320.526V100ZM295.271 101.272L256.98 3.25797L253.255 4.7135L291.545 102.728L295.271 101.272ZM255.117 5.98573H282.235V1.98573H255.117V5.98573ZM280.355 4.66893L305.055 72.6255L308.814 71.2591L284.114 3.30254L280.355 4.66893ZM308.814 72.6255L333.514 4.66893L329.754 3.30254L305.055 71.2591L308.814 72.6255ZM331.634 5.98573H358.751V1.98573H331.634V5.98573ZM356.888 3.25904L318.662 101.273L322.389 102.727L360.614 4.71243L356.888 3.25904ZM365.939 102H363.939V104H365.939V102ZM365.939 3.98573V1.98573H363.939V3.98573H365.939ZM391.815 3.98573H393.815V1.98573H391.815V3.98573ZM391.815 102V104H393.815V102H391.815ZM367.939 102V3.98573H363.939V102H367.939ZM365.939 5.98573H391.815V1.98573H365.939V5.98573ZM389.815 3.98573V102H393.815V3.98573H389.815ZM391.815 100H365.939V104H391.815V100ZM491.201 89.8462L492.588 91.2874L494.06 89.8712L492.613 88.4295L491.201 89.8462ZM474.8 100.236L474.068 98.3744L474.064 98.3761L474.8 100.236ZM433.569 100.17L432.815 102.023L432.823 102.026L432.83 102.029L433.569 100.17ZM417.037 89.4542L415.629 90.875L415.636 90.8816L415.643 90.8882L417.037 89.4542ZM406.125 73.2491L404.278 74.0165L404.282 74.0276L406.125 73.2491ZM406.125 32.7366L404.282 31.9581L404.278 31.9692L406.125 32.7366ZM417.037 16.5969L418.438 18.0244L418.438 18.0243L417.037 16.5969ZM433.569 5.88068L434.311 7.73764L434.318 7.73499L433.569 5.88068ZM474.669 5.81533L473.918 7.66869L473.925 7.67185L473.933 7.67495L474.669 5.81533ZM491.005 16.2048L492.424 17.6139L493.856 16.1723L492.392 14.7637L491.005 16.2048ZM472.97 34.3702L471.365 35.5628L472.752 37.4293L474.39 35.7793L472.97 34.3702ZM464.607 27.1824L463.665 28.9472L463.675 28.9523L464.607 27.1824ZM435.921 32.7366L434.433 31.4001L434.427 31.4071L434.421 31.4142L435.921 32.7366ZM430.628 41.7539L428.751 41.0647L430.628 41.7539ZM430.628 64.1665L428.751 64.8557L430.628 64.1665ZM435.921 73.2491L434.41 74.559L434.421 74.5725L434.433 74.5857L435.921 73.2491ZM472.905 71.6156L474.317 70.1988L472.679 68.5665L471.3 70.4229L472.905 71.6156ZM489.814 88.4051C485.396 92.6562 480.156 95.9814 474.068 98.3744L475.532 102.097C482.077 99.524 487.771 95.9229 492.588 91.2874L489.814 88.4051ZM474.064 98.3761C468.047 100.758 461.461 101.96 454.282 101.96V105.96C461.915 105.96 469.007 104.68 475.536 102.095L474.064 98.3761ZM454.282 101.96C447.064 101.96 440.412 100.737 434.307 98.3117L432.83 102.029C439.445 104.657 446.603 105.96 454.282 105.96V101.96ZM434.322 98.3179C428.235 95.8409 422.944 92.4077 418.431 88.0202L415.643 90.8882C420.539 95.6486 426.27 99.3596 432.815 102.023L434.322 98.3179ZM418.445 88.0333C413.973 83.6039 410.482 78.4218 407.967 72.4707L404.282 74.0276C406.995 80.448 410.778 86.0694 415.629 90.875L418.445 88.0333ZM407.972 72.4818C405.512 66.5609 404.269 60.0724 404.269 52.9929H400.269C400.269 60.5501 401.598 67.5659 404.278 74.0165L407.972 72.4818ZM404.269 52.9929C404.269 45.9133 405.512 39.4249 407.972 33.504L404.278 31.9692C401.598 38.4199 400.269 45.4356 400.269 52.9929H404.269ZM407.967 33.515C410.481 27.5656 413.971 22.408 418.438 18.0244L415.636 15.1694C410.781 19.9338 406.996 25.536 404.282 31.9582L407.967 33.515ZM418.438 18.0243C422.948 13.598 428.233 10.1692 434.311 7.73763L432.826 4.02372C426.272 6.64536 420.536 10.3607 415.636 15.1695L418.438 18.0243ZM434.318 7.73499C440.42 5.26905 447.068 4.02545 454.282 4.02545V0.0254494C446.599 0.0254494 439.437 1.35201 432.819 4.02636L434.318 7.73499ZM454.282 4.02545C461.411 4.02545 467.949 5.24779 473.918 7.66869L475.421 3.96198C468.931 1.3297 461.877 0.0254494 454.282 0.0254494V4.02545ZM473.933 7.67495C479.977 10.0673 485.198 13.3926 489.618 17.646L492.392 14.7637C487.577 10.1305 481.907 6.52943 475.405 3.95572L473.933 7.67495ZM489.586 14.7957L471.551 32.9611L474.39 35.7793L492.424 17.6139L489.586 14.7957ZM474.576 33.1775C472.135 29.8916 469.118 27.2968 465.538 25.4126L463.675 28.9523C466.717 30.5531 469.276 32.7501 471.365 35.5628L474.576 33.1775ZM465.548 25.4177C461.977 23.5134 458.08 22.5687 453.89 22.5687V26.5687C457.455 26.5687 460.702 27.3665 463.665 28.9472L465.548 25.4177ZM453.89 22.5687C450.041 22.5687 446.437 23.3453 443.105 24.916L444.811 28.5341C447.578 27.2297 450.595 26.5687 453.89 26.5687V22.5687ZM443.105 24.916C439.809 26.47 436.916 28.6367 434.433 31.4001L437.409 34.0731C439.544 31.6962 442.009 29.8552 444.811 28.5341L443.105 24.916ZM434.421 31.4142C431.98 34.1829 430.093 37.4071 428.751 41.0647L432.506 42.4431C433.69 39.2179 435.331 36.4306 437.421 34.059L434.421 31.4142ZM428.751 41.0647C427.399 44.7465 426.733 48.7066 426.733 52.9275H430.733C430.733 49.1331 431.331 45.6441 432.506 42.4431L428.751 41.0647ZM426.733 52.9275C426.733 57.1893 427.398 61.1716 428.751 64.8557L432.506 63.4773C431.332 60.2786 430.733 56.7683 430.733 52.9275H426.733ZM428.751 64.8557C430.092 68.5107 431.977 71.7515 434.41 74.559L437.432 71.9393C435.335 69.5193 433.691 66.7051 432.506 63.4773L428.751 64.8557ZM434.433 74.5857C436.916 77.349 439.809 79.5157 443.105 81.0697L444.811 77.4516C442.009 76.1306 439.544 74.2896 437.409 71.9126L434.433 74.5857ZM443.105 81.0697C446.437 82.6405 450.041 83.417 453.89 83.417V79.417C450.595 79.417 447.578 78.756 444.811 77.4516L443.105 81.0697ZM453.89 83.417C458.08 83.417 461.977 82.4723 465.548 80.568L463.665 77.0386C460.702 78.6192 457.455 79.417 453.89 79.417V83.417ZM465.548 80.568C469.083 78.6826 472.074 76.0887 474.511 72.8082L471.3 70.4229C469.206 73.2411 466.665 75.439 463.665 77.0386L465.548 80.568ZM471.493 73.0323L489.789 91.263L492.613 88.4295L474.317 70.1988L471.493 73.0323ZM501.068 102H499.068V104H501.068V102ZM501.068 3.98573V1.98573H499.068V3.98573H501.068ZM566.411 3.98573H568.411V1.98573H566.411V3.98573ZM566.411 26.529V28.529H568.411V26.529H566.411ZM526.944 26.529V24.529H524.944V26.529H526.944ZM526.944 41.6886H524.944V43.6886H526.944V41.6886ZM563.797 41.6886H565.797V39.6886H563.797V41.6886ZM563.797 64.2318V66.2318H565.797V64.2318H563.797ZM526.944 64.2318V62.2318H524.944V64.2318H526.944ZM526.944 79.4567H524.944V81.4567H526.944V79.4567ZM567.064 79.4567H569.064V77.4567H567.064V79.4567ZM567.064 102V104H569.064V102H567.064ZM503.068 102V3.98573H499.068V102H503.068ZM501.068 5.98573H566.411V1.98573H501.068V5.98573ZM564.411 3.98573V26.529H568.411V3.98573H564.411ZM566.411 24.529H526.944V28.529H566.411V24.529ZM524.944 26.529V41.6886H528.944V26.529H524.944ZM526.944 43.6886H563.797V39.6886H526.944V43.6886ZM561.797 41.6886V64.2318H565.797V41.6886H561.797ZM563.797 62.2318H526.944V66.2318H563.797V62.2318ZM524.944 64.2318V79.4567H528.944V64.2318H524.944ZM526.944 81.4567H567.064V77.4567H526.944V81.4567ZM565.064 79.4567V102H569.064V79.4567H565.064ZM567.064 100H501.068V104H567.064V100ZM574.252 90.761L572.549 89.7122L571.609 91.2389L573.024 92.3397L574.252 90.761ZM586.406 71.0275L587.636 69.4511L585.875 68.0756L584.703 69.9787L586.406 71.0275ZM595.292 77.1044L594.3 78.8409L594.312 78.8475L595.292 77.1044ZM603.395 80.5675L602.849 82.4918L602.868 82.4971L602.887 82.5021L603.395 80.5675ZM618.424 80.6982L619.03 82.6041L619.049 82.5979L619.069 82.5913L618.424 80.6982ZM622.802 77.9538L621.283 76.6522L621.279 76.6569L622.802 77.9538ZM622.148 68.2831L623.562 66.8689L622.148 68.2831ZM616.202 64.2972L615.333 66.0988L615.346 66.1047L616.202 64.2972ZM608.165 60.7687L608.912 58.9136L608.912 58.9135L608.165 60.7687ZM598.559 56.5867L597.694 58.3898L597.704 58.3945L597.714 58.3991L598.559 56.5867ZM582.877 42.7994L581.108 43.7319L581.113 43.7418L582.877 42.7994ZM584.903 15.4207L583.272 14.2629L583.27 14.2661L584.903 15.4207ZM597.514 5.48862L598.298 7.32848L598.305 7.32536L597.514 5.48862ZM647.959 10.128L649.759 10.9997L650.622 9.21676L648.847 8.33634L647.959 10.128ZM637.896 30.907L636.853 32.6135L638.735 33.7635L639.696 31.7787L637.896 30.907ZM627.572 26.333L626.966 28.2391L626.979 28.2434L626.993 28.2474L627.572 26.333ZM611.759 25.4182L611.096 23.5313L611.087 23.5341L611.079 23.5371L611.759 25.4182ZM608.099 27.9012L609.636 29.1816L609.649 29.1662L609.661 29.1506L608.099 27.9012ZM609.014 36.7225L607.6 38.1367L607.611 38.1473L607.621 38.1577L609.014 36.7225ZM622.867 44.433L622.062 46.264L622.069 46.267L622.076 46.2699L622.867 44.433ZM632.472 48.9416L631.568 50.7257L631.578 50.7305L632.472 48.9416ZM641.555 54.8225L640.282 56.3649L640.288 56.3698L640.294 56.3747L641.555 54.8225ZM648.285 62.9903L646.521 63.9328L646.527 63.9429L648.285 62.9903ZM645.998 89.8462L644.374 88.6793L644.372 88.6822L645.998 89.8462ZM632.603 100.236L631.81 98.3996L631.805 98.4018L632.603 100.236ZM575.955 91.8099L588.108 72.0763L584.703 69.9787L572.549 89.7122L575.955 91.8099ZM585.175 72.6039C588.411 75.1307 591.453 77.2142 594.3 78.8409L596.284 75.3679C593.642 73.8581 590.76 71.8904 587.636 69.4511L585.175 72.6039ZM594.312 78.8475C597.214 80.4798 600.06 81.7015 602.849 82.4918L603.94 78.6433C601.502 77.9525 598.947 76.8654 596.273 75.3612L594.312 78.8475ZM602.887 82.5021C605.71 83.2425 608.581 83.613 611.497 83.613V79.613C608.924 79.613 606.394 79.2866 603.902 78.633L602.887 82.5021ZM611.497 83.613C614.338 83.613 616.863 83.2936 619.03 82.6041L617.817 78.7924C616.151 79.3226 614.058 79.613 611.497 79.613V83.613ZM619.069 82.5913C621.223 81.8569 623.027 80.7735 624.324 79.2508L621.279 76.6569C620.572 77.4865 619.457 78.2327 617.778 78.8052L619.069 82.5913ZM624.32 79.2554C625.686 77.6613 626.37 75.7581 626.37 73.6412H622.37C622.37 74.835 622.008 75.8069 621.283 76.6523L624.32 79.2554ZM626.37 73.6412C626.37 71.0188 625.418 68.7243 623.562 66.8689L620.734 69.6973C621.841 70.8041 622.37 72.0817 622.37 73.6412H626.37ZM623.562 66.8689C621.877 65.184 619.687 63.7351 617.058 62.4897L615.346 66.1047C617.683 67.2116 619.457 68.42 620.734 69.6973L623.562 66.8689ZM617.07 62.4956C614.586 61.2975 611.865 60.1037 608.912 58.9136L607.417 62.6237C610.301 63.7859 612.939 64.9445 615.333 66.0987L617.07 62.4956ZM608.912 58.9135C605.811 57.6644 602.642 56.2849 599.405 54.7744L597.714 58.3991C601.011 59.9379 604.246 61.3463 607.418 62.6238L608.912 58.9135ZM599.425 54.7837C596.294 53.281 593.421 51.4687 590.8 49.3474L588.284 52.4564C591.152 54.7784 594.29 56.756 597.694 58.3898L599.425 54.7837ZM590.8 49.3474C588.268 47.2975 586.217 44.8063 584.641 41.857L581.113 43.7418C582.935 47.1525 585.327 50.063 588.284 52.4564L590.8 49.3474ZM584.646 41.8669C583.134 38.9975 582.329 35.4151 582.329 31.0377H578.329C578.329 35.8954 579.222 40.1542 581.108 43.7319L584.646 41.8669ZM582.329 31.0377C582.329 25.2865 583.761 20.5001 586.536 16.5754L583.27 14.2661C579.946 18.9666 578.329 24.5915 578.329 31.0377H582.329ZM586.533 16.5786C589.395 12.548 593.295 9.4611 598.298 7.32847L596.73 3.64877C591.104 6.04657 586.596 9.58111 583.272 14.2629L586.533 16.5786ZM598.305 7.32536C603.377 5.1399 609.157 4.02545 615.679 4.02545V0.0254494C608.697 0.0254494 602.367 1.21978 596.722 3.65188L598.305 7.32536ZM615.679 4.02545C620.425 4.02545 625.474 4.65548 630.833 5.93135L631.759 2.04012C626.14 0.702275 620.778 0.0254494 615.679 0.0254494V4.02545ZM630.833 5.93135C636.159 7.1995 641.571 9.19151 647.07 11.9196L648.847 8.33634C643.107 5.48849 637.411 3.38569 631.759 2.04012L630.833 5.93135ZM646.158 9.25625L636.096 30.0353L639.696 31.7787L649.759 10.9997L646.158 9.25625ZM638.939 29.2004C635.648 27.1894 632.049 25.5973 628.15 24.4186L626.993 28.2474C630.587 29.3339 633.871 30.7911 636.853 32.6135L638.939 29.2004ZM628.177 24.4268C624.326 23.2037 620.721 22.5687 617.378 22.5687V26.5687C620.221 26.5687 623.411 27.11 626.966 28.2391L628.177 24.4268ZM617.378 22.5687C615.072 22.5687 612.966 22.8741 611.096 23.5313L612.422 27.3051C613.775 26.8297 615.415 26.5687 617.378 26.5687V22.5687ZM611.079 23.5371C609.233 24.2039 607.681 25.223 606.538 26.6518L609.661 29.1506C610.261 28.4013 611.148 27.7651 612.438 27.2993L611.079 23.5371ZM606.563 26.6208C605.374 28.0471 604.793 29.7488 604.793 31.6258H608.793C608.793 30.6276 609.082 29.8463 609.636 29.1816L606.563 26.6208ZM604.793 31.6258C604.793 34.1247 605.782 36.3188 607.6 38.1367L610.428 35.3083C609.284 34.1639 608.793 32.9602 608.793 31.6258H604.793ZM607.621 38.1577C609.288 39.7754 611.433 41.2135 614.001 42.4973L615.789 38.9196C613.478 37.7639 611.703 36.5447 610.407 35.2873L607.621 38.1577ZM614.001 42.4973C616.474 43.7338 619.161 44.9893 622.062 46.264L623.671 42.6019C620.822 41.35 618.195 40.1225 615.789 38.9196L614.001 42.4973ZM622.076 46.2699C625.172 47.6028 628.336 49.0878 631.568 50.7257L633.376 47.1575C630.075 45.4847 626.835 43.964 623.658 42.596L622.076 46.2699ZM631.578 50.7305C634.759 52.321 637.658 54.1997 640.282 56.3649L642.828 53.28C639.963 50.9148 636.807 48.873 633.367 47.1528L631.578 50.7305ZM640.294 56.3747C642.874 58.4715 644.947 60.9865 646.521 63.9328L650.049 62.0479C648.225 58.6341 645.811 55.7039 642.816 53.2702L640.294 56.3747ZM646.527 63.9429C648.034 66.7261 648.834 70.1509 648.834 74.2946H652.834C652.834 69.6389 651.934 65.5274 650.044 62.0378L646.527 63.9429ZM648.834 74.2946C648.834 79.7854 647.337 84.555 644.374 88.6793L647.622 91.0132C651.107 86.1637 652.834 80.5656 652.834 74.2946H648.834ZM644.372 88.6822C641.433 92.7888 637.276 96.0392 631.81 98.3996L633.396 102.072C639.43 99.4662 644.204 95.7903 647.625 91.0102L644.372 88.6822ZM631.805 98.4018C626.399 100.754 620.037 101.96 612.673 101.96V105.96C620.469 105.96 627.394 104.683 633.401 102.07L631.805 98.4018ZM612.673 101.96C605.835 101.96 599.261 100.863 592.942 98.6728L591.631 102.452C598.381 104.792 605.398 105.96 612.673 105.96V101.96ZM592.942 98.6728C586.615 96.4796 580.797 93.3179 575.48 89.1823L573.024 92.3397C578.684 96.7423 584.889 100.115 591.631 102.452L592.942 98.6728Z" fill="#252735" fill-opacity="0.4" mask="url(#path-1-outside-1_1715_2232)"/>
</svg>
