<svg width="649" height="102" viewBox="0 0 649 102" fill="none" xmlns="http://www.w3.org/2000/svg">
<mask id="path-1-outside-1_80_2445" maskUnits="userSpaceOnUse" x="-1" y="-1" width="651" height="104" fill="black">
<rect fill="white" x="-1" y="-1" width="651" height="104"/>
<path d="M0.894032 88.761L13.0478 69.0275C16.2278 71.5105 19.19 73.5361 21.9344 75.1044C24.7224 76.6726 27.4232 77.827 30.0369 78.5675C32.6942 79.2645 35.3951 79.613 38.1395 79.613C40.8403 79.613 43.1491 79.3081 45.0658 78.6982C46.9825 78.0448 48.4418 77.13 49.4438 75.9538C50.4892 74.7341 51.012 73.2966 51.012 71.6412C51.012 69.5502 50.2714 67.7642 48.7903 66.2831C47.3092 64.802 45.3272 63.4734 42.8441 62.2972C40.4047 61.121 37.7256 59.9448 34.807 58.7687C31.6705 57.5054 28.4687 56.1114 25.2016 54.5867C21.9344 53.0185 18.9287 51.1236 16.1843 48.9019C13.4399 46.6802 11.2182 43.9794 9.51929 40.7994C7.82037 37.5758 6.97092 33.6552 6.97092 29.0377C6.97092 22.939 8.49558 17.7334 11.5449 13.4207C14.6378 9.06454 18.8415 5.75384 24.1561 3.48862C29.5142 1.17984 35.5693 0.0254494 42.3214 0.0254494C47.2439 0.0254494 52.4495 0.678878 57.9383 1.98573C63.4271 3.29259 68.9813 5.34 74.6008 8.12796L64.538 28.907C61.4015 26.9903 57.9601 25.4656 54.2138 24.333C50.511 23.1568 47.1132 22.5687 44.0203 22.5687C41.8858 22.5687 40.0126 22.8519 38.4008 23.4182C36.8326 23.9845 35.6129 24.8122 34.7416 25.9012C33.8704 26.9467 33.4348 28.1882 33.4348 29.6258C33.4348 31.5425 34.1753 33.2414 35.6564 34.7225C37.1375 36.16 39.0978 37.4887 41.5373 38.7084C43.9767 39.9281 46.634 41.1697 49.5091 42.433C52.6456 43.7834 55.8474 45.2863 59.1145 46.9416C62.4252 48.597 65.4528 50.5572 68.1972 52.8225C70.9851 55.0877 73.2286 57.8103 74.9275 60.9903C76.6264 64.1268 77.4758 67.8949 77.4758 72.2946C77.4758 78.1755 75.8641 83.3594 72.6405 87.8462C69.4605 92.2895 64.9954 95.7527 59.2452 98.2357C53.5386 100.719 46.8954 101.96 39.3156 101.96C32.2586 101.96 25.4629 100.828 18.9287 98.5625C12.3944 96.2972 6.38283 93.0301 0.894032 88.761ZM87.2773 100V1.98573H152.62V24.529H113.153V39.6886H150.006V62.2318H113.153V77.4567H153.274V100H87.2773ZM252.464 100H223.844L205.156 67.5899H191.564V100H165.689V1.98573H207.116C215.611 1.98573 222.842 3.27081 228.81 5.84096C234.778 8.41111 239.33 12.1574 242.467 17.0799C245.647 21.9589 247.237 27.8615 247.237 34.7878C247.237 41.2786 245.843 46.8763 243.055 51.581C240.267 56.2856 236.237 59.9884 230.966 62.6892L252.464 100ZM191.564 47.6604H205.09C210.274 47.6604 214.173 46.702 216.787 44.7853C219.444 42.825 220.773 39.9281 220.773 36.0947C220.773 32.2613 219.444 29.3862 216.787 27.4694C214.173 25.5092 210.274 24.529 205.09 24.529H191.564V47.6604ZM318.526 100H291.408L253.117 1.98573H280.235L304.934 69.9423L329.634 1.98573H356.751L318.526 100ZM363.939 100V1.98573H389.815V100H363.939ZM489.201 87.8462C484.584 92.2895 479.117 95.7527 472.8 98.2357C466.527 100.719 459.688 101.96 452.282 101.96C444.833 101.96 437.929 100.697 431.569 98.1704C425.252 95.6002 419.742 92.0282 415.037 87.4542C410.376 82.8366 406.738 77.4349 404.125 71.2491C401.555 65.0634 400.269 58.3113 400.269 50.9929C400.269 43.6745 401.555 36.9224 404.125 30.7366C406.738 24.5508 410.376 19.1709 415.037 14.5969C419.742 9.97934 425.252 6.40727 431.569 3.88068C437.929 1.31053 444.833 0.0254494 452.282 0.0254494C459.644 0.0254494 466.44 1.28874 472.669 3.81533C478.942 6.29836 484.387 9.76153 489.005 14.2048L470.97 32.3702C468.705 29.3208 465.917 26.9249 462.607 25.1824C459.339 23.44 455.767 22.5687 451.89 22.5687C448.318 22.5687 445.008 23.2875 441.958 24.725C438.909 26.1626 436.23 28.1664 433.921 30.7366C431.656 33.3067 429.892 36.3125 428.628 39.7539C427.365 43.1953 426.733 46.9198 426.733 50.9275C426.733 54.9788 427.365 58.7251 428.628 62.1665C429.892 65.6079 431.656 68.6354 433.921 71.2491C436.23 73.8193 438.909 75.8231 441.958 77.2607C445.008 78.6982 448.318 79.417 451.89 79.417C455.767 79.417 459.339 78.5458 462.607 76.8033C465.874 75.0608 468.64 72.6649 470.905 69.6156L489.201 87.8462ZM499.068 100V1.98573H564.411V24.529H524.944V39.6886H561.797V62.2318H524.944V77.4567H565.064V100H499.068ZM572.252 88.761L584.406 69.0275C587.586 71.5105 590.548 73.5361 593.292 75.1044C596.08 76.6726 598.781 77.827 601.395 78.5675C604.052 79.2645 606.753 79.613 609.497 79.613C612.198 79.613 614.507 79.3081 616.424 78.6982C618.34 78.0448 619.8 77.13 620.802 75.9538C621.847 74.7341 622.37 73.2966 622.37 71.6412C622.37 69.5502 621.629 67.7642 620.148 66.2831C618.667 64.802 616.685 63.4734 614.202 62.2972C611.762 61.121 609.083 59.9448 606.165 58.7687C603.028 57.5054 599.826 56.1114 596.559 54.5867C593.292 53.0185 590.286 51.1236 587.542 48.9019C584.798 46.6802 582.576 43.9794 580.877 40.7994C579.178 37.5758 578.329 33.6552 578.329 29.0377C578.329 22.939 579.853 17.7334 582.903 13.4207C585.996 9.06454 590.199 5.75384 595.514 3.48862C600.872 1.17984 606.927 0.0254494 613.679 0.0254494C618.602 0.0254494 623.807 0.678878 629.296 1.98573C634.785 3.29259 640.339 5.34 645.959 8.12796L635.896 28.907C632.759 26.9903 629.318 25.4656 625.572 24.333C621.869 23.1568 618.471 22.5687 615.378 22.5687C613.244 22.5687 611.37 22.8519 609.759 23.4182C608.19 23.9845 606.971 24.8122 606.099 25.9012C605.228 26.9467 604.793 28.1882 604.793 29.6258C604.793 31.5425 605.533 33.2414 607.014 34.7225C608.495 36.16 610.456 37.4887 612.895 38.7084C615.335 39.9281 617.992 41.1697 620.867 42.433C624.003 43.7834 627.205 45.2863 630.472 46.9416C633.783 48.597 636.811 50.5572 639.555 52.8225C642.343 55.0877 644.586 57.8103 646.285 60.9903C647.984 64.1268 648.834 67.8949 648.834 72.2946C648.834 78.1755 647.222 83.3594 643.998 87.8462C640.818 92.2895 636.353 95.7527 630.603 98.2357C624.896 100.719 618.253 101.96 610.673 101.96C603.616 101.96 596.821 100.828 590.286 98.5625C583.752 96.2972 577.741 93.0301 572.252 88.761Z"/>
</mask>
<path d="M0.894032 88.761L0.048645 88.2404L-0.418148 88.9983L0.284473 89.5448L0.894032 88.761ZM13.0478 69.0275L13.6588 68.2449L12.7843 67.5621L12.2024 68.5068L13.0478 69.0275ZM21.9344 75.1044L21.4418 75.9664L21.4477 75.9697L21.9344 75.1044ZM30.0369 78.5676L29.7663 79.5228L29.7756 79.5255L29.785 79.5279L30.0369 78.5676ZM45.0658 78.6982L45.3668 79.6444L45.3765 79.6413L45.3862 79.638L45.0658 78.6982ZM49.4438 75.9538L48.6899 75.3077L48.688 75.31L49.4438 75.9538ZM48.7903 66.2831L49.4924 65.581L48.7903 66.2831ZM42.8441 62.2972L42.4129 63.1915L42.4191 63.1945L42.8441 62.2972ZM34.807 58.7687L35.1781 57.8478L35.1779 57.8477L34.807 58.7687ZM25.2016 54.5867L24.7719 55.4819L24.7817 55.4864L25.2016 54.5867ZM9.51929 40.7994L8.64093 41.2623L8.64356 41.2672L9.51929 40.7994ZM11.5449 13.4207L10.7353 12.8459L10.7342 12.8475L11.5449 13.4207ZM24.1561 3.48862L24.5454 4.40199L24.549 4.40044L24.1561 3.48862ZM74.6008 8.12796L75.4944 8.56071L75.923 7.67561L75.042 7.23854L74.6008 8.12796ZM64.538 28.907L64.0202 29.7542L64.9544 30.3251L65.4316 29.3397L64.538 28.907ZM54.2138 24.333L53.9132 25.2794L53.9265 25.2834L54.2138 24.333ZM38.4008 23.4182L38.0717 22.4814L38.0636 22.4843L38.4008 23.4182ZM34.7416 25.9012L35.5044 26.5368L35.5107 26.5292L35.5169 26.5215L34.7416 25.9012ZM35.6564 34.7225L34.9544 35.4246L34.9596 35.4298L34.9649 35.435L35.6564 34.7225ZM49.5091 42.433L49.1097 43.342L49.1165 43.3449L49.5091 42.433ZM59.1145 46.9416L58.6658 47.8273L58.6705 47.8297L59.1145 46.9416ZM68.1972 52.8225L67.5651 53.5882L67.5711 53.593L68.1972 52.8225ZM74.9275 60.9903L74.0517 61.4582L74.0545 61.4632L74.9275 60.9903ZM72.6405 87.8462L71.8341 87.2669L71.8331 87.2684L72.6405 87.8462ZM59.2452 98.2357L58.8516 97.3242L58.8491 97.3253L59.2452 98.2357ZM1.73942 89.2817L13.8932 69.5482L12.2024 68.5068L0.048645 88.2404L1.73942 89.2817ZM12.4368 69.8101C15.6446 72.3148 18.6466 74.3692 21.4418 75.9664L22.427 74.2423C19.7334 72.7031 16.811 70.7062 13.6588 68.2449L12.4368 69.8101ZM21.4477 75.9697C24.2922 77.5698 27.0653 78.7575 29.7663 79.5228L30.3076 77.6123C27.7811 76.8964 25.1526 75.7754 22.4212 74.239L21.4477 75.9697ZM29.785 79.5279C32.5245 80.2465 35.31 80.6059 38.1395 80.6059V78.6202C35.4801 78.6202 32.864 78.2826 30.2888 77.6072L29.785 79.5279ZM38.1395 80.6059C40.9098 80.6059 43.3259 80.2937 45.3668 79.6444L44.7648 77.7521C42.9722 78.3224 40.7708 78.6202 38.1395 78.6202V80.6059ZM45.3862 79.638C47.4208 78.9444 49.0511 77.9459 50.1996 76.5977L48.688 75.31C47.8326 76.3141 46.5443 77.1452 44.7454 77.7585L45.3862 79.638ZM50.1976 76.6C51.4024 75.1944 52.0049 73.5257 52.0049 71.6412H50.0191C50.0191 73.0674 49.5761 74.2738 48.6899 75.3077L50.1976 76.6ZM52.0049 71.6412C52.0049 69.2864 51.1593 67.248 49.4924 65.581L48.0883 66.9852C49.3835 68.2804 50.0191 69.8141 50.0191 71.6412H52.0049ZM49.4924 65.581C47.9101 63.9988 45.8248 62.6104 43.2692 61.3999L42.4191 63.1945C44.8295 64.3363 46.7083 65.6052 48.0883 66.9852L49.4924 65.581ZM43.2753 61.4028C40.8133 60.2158 38.1139 59.0309 35.1781 57.8478L34.4359 59.6896C37.3373 60.8588 39.996 62.0262 42.4129 63.1915L43.2753 61.4028ZM35.1779 57.8477C32.059 56.5915 28.8735 55.2046 25.6214 53.687L24.7817 55.4864C28.0639 57.0181 31.282 58.4193 34.436 59.6896L35.1779 57.8477ZM25.6312 53.6916C22.4318 52.1559 19.4918 50.302 16.809 48.1302L15.5595 49.6736C18.3655 51.9451 21.437 53.8811 24.7719 55.4818L25.6312 53.6916ZM16.809 48.1302C14.1699 45.9938 12.0327 43.397 10.395 40.3315L8.64356 41.2672C10.4037 44.5618 12.7098 47.3667 15.5595 49.6736L16.809 48.1302ZM10.3976 40.3365C8.79137 37.2887 7.96378 33.536 7.96378 29.0377H5.97805C5.97805 33.7745 6.84938 37.8629 8.64094 41.2623L10.3976 40.3365ZM7.96378 29.0377C7.96378 23.1115 9.44243 18.114 12.3556 13.9939L10.7342 12.8475C7.54873 17.3527 5.97805 22.7665 5.97805 29.0377H7.96378ZM12.3545 13.9955C15.3326 9.80097 19.3853 6.60138 24.5454 4.40198L23.7668 2.57526C18.2978 4.9063 13.943 8.32812 10.7354 12.8459L12.3545 13.9955ZM24.549 4.40044C29.765 2.15288 35.6833 1.01831 42.3214 1.01831V-0.967415C35.4553 -0.967415 29.2634 0.206802 23.7632 2.5768L24.549 4.40044ZM42.3214 1.01831C47.1561 1.01831 52.2842 1.66013 57.7084 2.9516L58.1683 1.01987C52.6149 -0.302372 47.3316 -0.967415 42.3214 -0.967415V1.01831ZM57.7084 2.9516C63.1165 4.23924 68.5999 6.25915 74.1595 9.01738L75.042 7.23854C69.3626 4.42085 63.7378 2.34594 58.1683 1.01987L57.7084 2.9516ZM73.7072 7.69522L63.6444 28.4742L65.4316 29.3397L75.4944 8.56071L73.7072 7.69522ZM65.0557 28.0598C61.8426 26.0963 58.3231 24.5381 54.5011 23.3826L53.9265 25.2834C57.5971 26.3931 60.9604 27.8843 64.0202 29.7542L65.0557 28.0598ZM54.5144 23.3867C50.7381 22.1872 47.2374 21.5759 44.0203 21.5759V23.5616C46.989 23.5616 50.2839 24.1264 53.9132 25.2793L54.5144 23.3867ZM44.0203 21.5759C41.8005 21.5759 39.8119 21.87 38.0717 22.4815L38.7299 24.3549C40.2133 23.8337 41.9711 23.5616 44.0203 23.5616V21.5759ZM38.0636 22.4843C36.3571 23.1006 34.9725 24.0233 33.9663 25.281L35.5169 26.5215C36.2532 25.6011 37.308 24.8684 38.738 24.352L38.0636 22.4843ZM33.9789 25.2656C32.9501 26.5001 32.4419 27.9701 32.4419 29.6258H34.4276C34.4276 28.4063 34.7906 27.3933 35.5044 26.5368L33.9789 25.2656ZM32.4419 29.6258C32.4419 31.8315 33.3061 33.7763 34.9544 35.4246L36.3585 34.0204C35.0446 32.7065 34.4276 31.2534 34.4276 29.6258H32.4419ZM34.9649 35.435C36.5382 36.962 38.5902 38.3449 41.0933 39.5965L41.9813 37.8204C39.6054 36.6324 37.7369 35.3581 36.3479 34.01L34.9649 35.435ZM41.0933 39.5965C43.5494 40.8245 46.2218 42.073 49.1097 43.3419L49.9085 41.524C47.0463 40.2663 44.4041 39.0318 41.9813 37.8204L41.0933 39.5965ZM49.1165 43.3449C52.2327 44.6866 55.4157 46.1806 58.6658 47.8273L59.5632 46.0559C56.279 44.3919 53.0585 42.8802 49.9017 41.521L49.1165 43.3449ZM58.6705 47.8297C61.9168 49.4528 64.8809 51.3726 67.5651 53.5882L68.8292 52.0567C66.0247 49.7419 62.9336 47.7411 59.5585 46.0536L58.6705 47.8297ZM67.5711 53.593C70.2561 55.7747 72.4148 58.3942 74.0518 61.4582L75.8032 60.5225C74.0423 57.2264 71.7141 54.4007 68.8232 52.0519L67.5711 53.593ZM74.0545 61.4632C75.6584 64.4243 76.483 68.022 76.483 72.2946H78.4687C78.4687 67.7678 77.5944 63.8292 75.8005 60.5174L74.0545 61.4632ZM76.483 72.2946C76.483 77.9818 74.9284 82.96 71.8341 87.2669L73.4468 88.4255C76.7997 83.7587 78.4687 78.3692 78.4687 72.2946H76.483ZM71.8331 87.2684C68.7727 91.5445 64.4608 94.9021 58.8516 97.3242L59.6388 99.1472C65.53 96.6033 70.1482 93.0346 73.4479 88.4241L71.8331 87.2684ZM58.8491 97.3253C53.2915 99.7435 46.7881 100.967 39.3156 100.967V102.953C47.0027 102.953 53.7856 101.694 59.6413 99.1462L58.8491 97.3253ZM39.3156 100.967C32.367 100.967 25.6814 99.8526 19.2539 97.6244L18.6035 99.5005C25.2445 101.803 32.1502 102.953 39.3156 102.953V100.967ZM19.2539 97.6244C12.8227 95.3949 6.90716 92.1801 1.50359 87.9773L0.284473 89.5448C5.8585 93.8801 11.966 97.1996 18.6035 99.5005L19.2539 97.6244ZM87.2773 100H86.2844V100.993H87.2773V100ZM87.2773 1.98573V0.99287H86.2844V1.98573H87.2773ZM152.62 1.98573H153.613V0.99287H152.62V1.98573ZM152.62 24.529V25.5219H153.613V24.529H152.62ZM113.153 24.529V23.5361H112.16V24.529H113.153ZM113.153 39.6886H112.16V40.6814H113.153V39.6886ZM150.006 39.6886H150.999V38.6957H150.006V39.6886ZM150.006 62.2318V63.2247H150.999V62.2318H150.006ZM113.153 62.2318V61.239H112.16V62.2318H113.153ZM113.153 77.4567H112.16V78.4496H113.153V77.4567ZM153.274 77.4567H154.266V76.4639H153.274V77.4567ZM153.274 100V100.993H154.266V100H153.274ZM88.2701 100V1.98573H86.2844V100H88.2701ZM87.2773 2.9786H152.62V0.99287H87.2773V2.9786ZM151.627 1.98573V24.529H153.613V1.98573H151.627ZM152.62 23.5361H113.153V25.5219H152.62V23.5361ZM112.16 24.529V39.6886H114.146V24.529H112.16ZM113.153 40.6814H150.006V38.6957H113.153V40.6814ZM149.014 39.6886V62.2318H150.999V39.6886H149.014ZM150.006 61.239H113.153V63.2247H150.006V61.239ZM112.16 62.2318V77.4567H114.146V62.2318H112.16ZM113.153 78.4496H153.274V76.4639H113.153V78.4496ZM152.281 77.4567V100H154.266V77.4567H152.281ZM153.274 99.0071H87.2773V100.993H153.274V99.0071ZM252.464 100V100.993H254.182L253.324 99.5043L252.464 100ZM223.844 100L222.984 100.496L223.27 100.993H223.844V100ZM205.156 67.59L206.016 67.094L205.729 66.5971H205.156V67.59ZM191.564 67.59V66.5971H190.572V67.59H191.564ZM191.564 100V100.993H192.557V100H191.564ZM165.689 100H164.696V100.993H165.689V100ZM165.689 1.98573V0.99287H164.696V1.98573H165.689ZM228.81 5.84096L229.203 4.92907L228.81 5.84096ZM242.467 17.0799L241.629 17.6135L241.635 17.6221L242.467 17.0799ZM230.966 62.6892L230.513 61.8056L229.585 62.2812L230.106 63.1849L230.966 62.6892ZM191.564 47.6604H190.572V48.6532H191.564V47.6604ZM216.787 44.7853L217.374 45.586L217.376 45.5843L216.787 44.7853ZM216.787 27.4694L216.191 28.2637L216.198 28.2693L216.206 28.2747L216.787 27.4694ZM191.564 24.529V23.5361H190.572V24.529H191.564ZM252.464 99.0071H223.844V100.993H252.464V99.0071ZM224.704 99.504L206.016 67.094L204.296 68.0859L222.984 100.496L224.704 99.504ZM205.156 66.5971H191.564V68.5828H205.156V66.5971ZM190.572 67.59V100H192.557V67.59H190.572ZM191.564 99.0071H165.689V100.993H191.564V99.0071ZM166.682 100V1.98573H164.696V100H166.682ZM165.689 2.9786H207.116V0.99287H165.689V2.9786ZM207.116 2.9786C215.515 2.9786 222.605 4.24982 228.417 6.75286L229.203 4.92907C223.079 2.2918 215.706 0.99287 207.116 0.99287V2.9786ZM228.417 6.75286C234.224 9.25357 238.612 12.8775 241.629 17.6135L243.304 16.5464C240.049 11.4373 235.332 7.56866 229.203 4.92907L228.417 6.75286ZM241.635 17.6221C244.691 22.3113 246.244 28.017 246.244 34.7878H248.229C248.229 27.706 246.602 21.6064 243.298 16.5378L241.635 17.6221ZM246.244 34.7878C246.244 41.134 244.882 46.5498 242.2 51.0748L243.909 52.0871C246.803 47.2027 248.229 41.4232 248.229 34.7878H246.244ZM242.2 51.0748C239.516 55.6049 235.632 59.1828 230.513 61.8056L231.419 63.5729C236.842 60.794 241.017 56.9663 243.909 52.0871L242.2 51.0748ZM230.106 63.1849L251.604 100.496L253.324 99.5043L231.826 62.1936L230.106 63.1849ZM191.564 48.6532H205.09V46.6675H191.564V48.6532ZM205.09 48.6532C210.369 48.6532 214.515 47.6824 217.374 45.5859L216.2 43.9846C213.831 45.7216 210.18 46.6675 205.09 46.6675V48.6532ZM217.376 45.5843C220.33 43.405 221.766 40.1856 221.766 36.0947H219.78C219.78 39.6707 218.558 42.245 216.197 43.9863L217.376 45.5843ZM221.766 36.0947C221.766 32.0041 220.33 28.801 217.368 26.6642L216.206 28.2747C218.558 29.9713 219.78 32.5184 219.78 36.0947H221.766ZM217.383 26.6752C214.522 24.53 210.372 23.5361 205.09 23.5361V25.5219C210.177 25.5219 213.824 26.4883 216.191 28.2637L217.383 26.6752ZM205.09 23.5361H191.564V25.5219H205.09V23.5361ZM190.572 24.529V47.6604H192.557V24.529H190.572ZM318.526 100V100.993H319.204L319.451 100.361L318.526 100ZM291.408 100L290.484 100.361L290.73 100.993H291.408V100ZM253.117 1.98573V0.99287H251.664L252.193 2.34702L253.117 1.98573ZM280.235 1.98573L281.168 1.64658L280.93 0.99287H280.235V1.98573ZM304.934 69.9423L304.001 70.2815L304.934 72.8488L305.867 70.2815L304.934 69.9423ZM329.634 1.98573V0.99287H328.938L328.701 1.64658L329.634 1.98573ZM356.751 1.98573L357.676 2.34649L358.204 0.99287H356.751V1.98573ZM318.526 99.0071H291.408V100.993H318.526V99.0071ZM292.333 99.6387L254.042 1.62445L252.193 2.34702L290.484 100.361L292.333 99.6387ZM253.117 2.9786H280.235V0.99287H253.117V2.9786ZM279.302 2.32489L304.001 70.2815L305.867 69.6031L281.168 1.64658L279.302 2.32489ZM305.867 70.2815L330.567 2.32489L328.701 1.64658L304.001 69.6031L305.867 70.2815ZM329.634 2.9786H356.751V0.99287H329.634V2.9786ZM355.826 1.62498L317.601 99.6393L319.451 100.361L357.676 2.34649L355.826 1.62498ZM363.939 100H362.946V100.993H363.939V100ZM363.939 1.98573V0.99287H362.946V1.98573H363.939ZM389.815 1.98573H390.807V0.99287H389.815V1.98573ZM389.815 100V100.993H390.807V100H389.815ZM364.932 100V1.98573H362.946V100H364.932ZM363.939 2.9786H389.815V0.99287H363.939V2.9786ZM388.822 1.98573V100H390.807V1.98573H388.822ZM389.815 99.0071H363.939V100.993H389.815V99.0071ZM489.201 87.8462L489.89 88.5617L490.62 87.8586L489.902 87.1429L489.201 87.8462ZM472.8 98.2357L472.437 97.3117L472.435 97.3126L472.8 98.2357ZM431.569 98.1704L431.194 99.0901L431.202 99.0931L431.569 98.1704ZM415.037 87.4542L414.338 88.1596L414.345 88.166L415.037 87.4542ZM404.125 71.2491L403.208 71.6301L403.21 71.6356L404.125 71.2491ZM404.125 30.7366L403.21 30.3501L403.208 30.3556L404.125 30.7366ZM415.037 14.5969L415.732 15.3056L415.732 15.3055L415.037 14.5969ZM431.569 3.88068L431.937 4.80253L431.941 4.80122L431.569 3.88068ZM472.669 3.81533L472.296 4.73543L472.304 4.73851L472.669 3.81533ZM489.005 14.2048L489.71 14.9044L490.42 14.1887L489.693 13.4894L489.005 14.2048ZM470.97 32.3702L470.173 32.9622L470.862 33.8888L471.675 33.0697L470.97 32.3702ZM462.607 25.1824L462.139 26.0585L462.144 26.0611L462.607 25.1824ZM433.921 30.7366L433.182 30.0731L433.176 30.0801L433.921 30.7366ZM428.628 39.7539L427.696 39.4118L428.628 39.7539ZM428.628 62.1665L427.696 62.5086L428.628 62.1665ZM433.921 71.2491L433.171 71.8994L433.177 71.9061L433.182 71.9127L433.921 71.2491ZM470.905 69.6156L471.606 68.9123L470.793 68.1019L470.108 69.0235L470.905 69.6156ZM488.513 87.1308C483.994 91.4787 478.64 94.8734 472.437 97.3117L473.163 99.1598C479.594 96.632 485.173 93.1004 489.89 88.5617L488.513 87.1308ZM472.435 97.3126C466.289 99.7453 459.575 100.967 452.282 100.967V102.953C459.801 102.953 466.765 101.692 473.165 99.1589L472.435 97.3126ZM452.282 100.967C444.948 100.967 438.169 99.724 431.935 97.2477L431.202 99.0931C437.689 101.67 444.719 102.953 452.282 102.953V100.967ZM431.943 97.2507C425.74 94.7268 420.339 91.2237 415.729 86.7423L414.345 88.166C419.145 92.8326 424.764 96.4737 431.194 99.09L431.943 97.2507ZM415.736 86.7488C411.169 82.2246 407.604 76.932 405.039 70.8627L403.21 71.6356C405.873 77.9379 409.583 83.4486 414.338 88.1595L415.736 86.7488ZM405.042 70.8682C402.526 64.8139 401.262 58.1927 401.262 50.9929H399.277C399.277 58.4298 400.583 65.3128 403.208 71.6301L405.042 70.8682ZM401.262 50.9929C401.262 43.793 402.526 37.1718 405.042 31.1175L403.208 30.3556C400.583 36.6729 399.277 43.5559 399.277 50.9929H401.262ZM405.039 31.123C407.603 25.0546 411.168 19.7851 415.732 15.3056L414.342 13.8883C409.584 18.5567 405.873 24.047 403.21 30.3501L405.039 31.123ZM415.732 15.3055C420.34 10.7829 425.739 7.28194 431.937 4.80253L431.2 2.95883C424.766 5.5326 419.143 9.17579 414.341 13.8883L415.732 15.3055ZM431.941 4.80122C438.173 2.2828 444.95 1.01831 452.282 1.01831V-0.967415C444.717 -0.967415 437.685 0.338253 431.197 2.96014L431.941 4.80122ZM452.282 1.01831C459.529 1.01831 466.196 2.26128 472.296 4.7354L473.043 2.89527C466.684 0.316212 459.76 -0.967415 452.282 -0.967415V1.01831ZM472.304 4.73851C478.463 7.17652 483.797 10.5713 488.317 14.9203L489.693 13.4894C484.978 8.95181 479.421 5.42021 473.035 2.89216L472.304 4.73851ZM488.3 13.5053L470.266 31.6706L471.675 33.0697L489.71 14.9044L488.3 13.5053ZM471.767 31.7781C469.415 28.6113 466.513 26.1167 463.069 24.3038L462.144 26.0611C465.321 27.7332 467.995 30.0304 470.173 32.9622L471.767 31.7781ZM463.074 24.3064C459.656 22.4836 455.922 21.5759 451.89 21.5759V23.5616C455.612 23.5616 459.023 24.3964 462.139 26.0585L463.074 24.3064ZM451.89 21.5759C448.181 21.5759 444.724 22.3233 441.535 23.827L442.382 25.6231C445.291 24.2517 448.456 23.5616 451.89 23.5616V21.5759ZM441.535 23.827C438.363 25.3223 435.577 27.407 433.182 30.0731L434.66 31.4001C436.882 28.9258 439.455 27.0028 442.382 25.6231L441.535 23.827ZM433.176 30.0801C430.824 32.7488 428.999 35.8631 427.696 39.4118L429.56 40.096C430.784 36.762 432.488 33.8646 434.666 31.3931L433.176 30.0801ZM427.696 39.4118C426.389 42.9725 425.74 46.814 425.74 50.9275H427.726C427.726 47.0257 428.341 43.4181 429.56 40.096L427.696 39.4118ZM425.74 50.9275C425.74 55.0833 426.389 58.9467 427.696 62.5086L429.56 61.8243C428.341 58.5035 427.726 54.8743 427.726 50.9275H425.74ZM427.696 62.5086C428.998 66.0561 430.822 69.1895 433.171 71.8994L434.671 70.5989C432.489 68.0814 430.785 65.1597 429.56 61.8243L427.696 62.5086ZM433.182 71.9127C435.577 74.5787 438.363 76.6634 441.535 78.1588L442.382 76.3626C439.455 74.9829 436.882 73.0599 434.66 70.5856L433.182 71.9127ZM441.535 78.1588C444.724 79.6624 448.181 80.4099 451.89 80.4099V78.4241C448.456 78.4241 445.291 77.734 442.382 76.3626L441.535 78.1588ZM451.89 80.4099C455.922 80.4099 459.656 79.5022 463.074 77.6793L462.139 75.9272C459.023 77.5894 455.612 78.4241 451.89 78.4241V80.4099ZM463.074 77.6793C466.474 75.8659 469.352 73.3717 471.702 70.2076L470.108 69.0235C467.928 71.9581 465.273 74.2557 462.139 75.9272L463.074 77.6793ZM470.204 70.3189L488.5 88.5495L489.902 87.1429L471.606 68.9123L470.204 70.3189ZM499.068 100H498.075V100.993H499.068V100ZM499.068 1.98573V0.99287H498.075V1.98573H499.068ZM564.411 1.98573H565.404V0.99287H564.411V1.98573ZM564.411 24.529V25.5219H565.404V24.529H564.411ZM524.944 24.529V23.5361H523.951V24.529H524.944ZM524.944 39.6886H523.951V40.6814H524.944V39.6886ZM561.797 39.6886H562.79V38.6957H561.797V39.6886ZM561.797 62.2318V63.2247H562.79V62.2318H561.797ZM524.944 62.2318V61.239H523.951V62.2318H524.944ZM524.944 77.4567H523.951V78.4496H524.944V77.4567ZM565.064 77.4567H566.057V76.4639H565.064V77.4567ZM565.064 100V100.993H566.057V100H565.064ZM500.061 100V1.98573H498.075V100H500.061ZM499.068 2.9786H564.411V0.99287H499.068V2.9786ZM563.418 1.98573V24.529H565.404V1.98573H563.418ZM564.411 23.5361H524.944V25.5219H564.411V23.5361ZM523.951 24.529V39.6886H525.936V24.529H523.951ZM524.944 40.6814H561.797V38.6957H524.944V40.6814ZM560.804 39.6886V62.2318H562.79V39.6886H560.804ZM561.797 61.239H524.944V63.2247H561.797V61.239ZM523.951 62.2318V77.4567H525.936V62.2318H523.951ZM524.944 78.4496H565.064V76.4639H524.944V78.4496ZM564.071 77.4567V100H566.057V77.4567H564.071ZM565.064 99.0071H499.068V100.993H565.064V99.0071ZM572.252 88.761L571.406 88.2404L570.94 88.9983L571.642 89.5448L572.252 88.761ZM584.406 69.0275L585.017 68.2449L584.142 67.5621L583.56 68.5068L584.406 69.0275ZM593.292 75.1044L592.8 75.9664L592.805 75.9697L593.292 75.1044ZM601.395 78.5676L601.124 79.5228L601.133 79.5255L601.143 79.5279L601.395 78.5676ZM616.424 78.6982L616.725 79.6444L616.734 79.6413L616.744 79.638L616.424 78.6982ZM620.802 75.9538L620.048 75.3077L620.046 75.31L620.802 75.9538ZM620.148 66.2831L620.85 65.581L620.148 66.2831ZM614.202 62.2972L613.771 63.1915L613.777 63.1945L614.202 62.2972ZM606.165 58.7687L606.536 57.8478L606.536 57.8477L606.165 58.7687ZM596.559 54.5867L596.13 55.4819L596.139 55.4864L596.559 54.5867ZM580.877 40.7994L579.999 41.2623L580.001 41.2672L580.877 40.7994ZM582.903 13.4207L582.093 12.8459L582.092 12.8475L582.903 13.4207ZM595.514 3.48862L595.903 4.40199L595.907 4.40044L595.514 3.48862ZM645.958 8.12796L646.852 8.56071L647.281 7.67561L646.4 7.23854L645.958 8.12796ZM635.896 28.907L635.378 29.7542L636.312 30.3251L636.789 29.3397L635.896 28.907ZM625.572 24.333L625.271 25.2794L625.284 25.2834L625.572 24.333ZM609.759 23.4182L609.429 22.4814L609.421 22.4843L609.759 23.4182ZM606.099 25.9012L606.862 26.5368L606.868 26.5292L606.875 26.5215L606.099 25.9012ZM607.014 34.7225L606.312 35.4246L606.317 35.4298L606.323 35.435L607.014 34.7225ZM620.867 42.433L620.467 43.342L620.474 43.3449L620.867 42.433ZM630.472 46.9416L630.023 47.8273L630.028 47.8297L630.472 46.9416ZM639.555 52.8225L638.923 53.5882L638.929 53.593L639.555 52.8225ZM646.285 60.9903L645.409 61.4582L645.412 61.4632L646.285 60.9903ZM643.998 87.8462L643.192 87.2669L643.191 87.2684L643.998 87.8462ZM630.603 98.2357L630.209 97.3242L630.207 97.3253L630.603 98.2357ZM573.097 89.2817L585.251 69.5482L583.56 68.5068L571.406 88.2404L573.097 89.2817ZM583.794 69.8101C587.002 72.3148 590.004 74.3692 592.8 75.9664L593.785 74.2423C591.091 72.7031 588.169 70.7062 585.017 68.2449L583.794 69.8101ZM592.805 75.9697C595.65 77.5698 598.423 78.7575 601.124 79.5228L601.665 77.6123C599.139 76.8964 596.51 75.7754 593.779 74.239L592.805 75.9697ZM601.143 79.5279C603.882 80.2465 606.668 80.6059 609.497 80.6059V78.6202C606.838 78.6202 604.222 78.2826 601.647 77.6072L601.143 79.5279ZM609.497 80.6059C612.268 80.6059 614.684 80.2937 616.725 79.6444L616.122 77.7521C614.33 78.3224 612.129 78.6202 609.497 78.6202V80.6059ZM616.744 79.638C618.779 78.9444 620.409 77.9459 621.557 76.5977L620.046 75.31C619.19 76.3141 617.902 77.1452 616.103 77.7585L616.744 79.638ZM621.555 76.6C622.76 75.1944 623.363 73.5257 623.363 71.6412H621.377C621.377 73.0674 620.934 74.2738 620.048 75.3077L621.555 76.6ZM623.363 71.6412C623.363 69.2864 622.517 67.248 620.85 65.581L619.446 66.9852C620.741 68.2804 621.377 69.8141 621.377 71.6412H623.363ZM620.85 65.581C619.268 63.9988 617.183 62.6104 614.627 61.3999L613.777 63.1945C616.187 64.3363 618.066 65.6052 619.446 66.9852L620.85 65.581ZM614.633 61.4028C612.171 60.2158 609.472 59.0309 606.536 57.8478L605.794 59.6896C608.695 60.8588 611.354 62.0262 613.771 63.1915L614.633 61.4028ZM606.536 57.8477C603.417 56.5915 600.231 55.2046 596.979 53.687L596.139 55.4864C599.422 57.0181 602.64 58.4193 605.794 59.6896L606.536 57.8477ZM596.989 53.6916C593.79 52.1559 590.85 50.302 588.167 48.1302L586.917 49.6736C589.723 51.9451 592.795 53.8811 596.13 55.4818L596.989 53.6916ZM588.167 48.1302C585.528 45.9938 583.391 43.397 581.753 40.3315L580.001 41.2672C581.761 44.5618 584.068 47.3667 586.917 49.6736L588.167 48.1302ZM581.755 40.3365C580.149 37.2887 579.322 33.536 579.322 29.0377H577.336C577.336 33.7745 578.207 37.8629 579.999 41.2623L581.755 40.3365ZM579.322 29.0377C579.322 23.1115 580.8 18.114 583.713 13.9939L582.092 12.8475C578.906 17.3527 577.336 22.7665 577.336 29.0377H579.322ZM583.712 13.9955C586.69 9.80097 590.743 6.60138 595.903 4.40198L595.125 2.57526C589.656 4.9063 585.301 8.32812 582.093 12.8459L583.712 13.9955ZM595.907 4.40044C601.123 2.15288 607.041 1.01831 613.679 1.01831V-0.967415C606.813 -0.967415 600.621 0.206802 595.121 2.5768L595.907 4.40044ZM613.679 1.01831C618.514 1.01831 623.642 1.66013 629.066 2.9516L629.526 1.01987C623.973 -0.302372 618.689 -0.967415 613.679 -0.967415V1.01831ZM629.066 2.9516C634.474 4.23924 639.958 6.25915 645.517 9.01738L646.4 7.23854C640.72 4.42085 635.096 2.34594 629.526 1.01987L629.066 2.9516ZM645.065 7.69522L635.002 28.4742L636.789 29.3397L646.852 8.56071L645.065 7.69522ZM636.413 28.0598C633.2 26.0963 629.681 24.5381 625.859 23.3826L625.284 25.2834C628.955 26.3931 632.318 27.8843 635.378 29.7542L636.413 28.0598ZM625.872 23.3867C622.096 22.1872 618.595 21.5759 615.378 21.5759V23.5616C618.347 23.5616 621.642 24.1264 625.271 25.2793L625.872 23.3867ZM615.378 21.5759C613.158 21.5759 611.17 21.87 609.429 22.4815L610.088 24.3549C611.571 23.8337 613.329 23.5616 615.378 23.5616V21.5759ZM609.421 22.4843C607.715 23.1006 606.33 24.0233 605.324 25.281L606.875 26.5215C607.611 25.6011 608.666 24.8684 610.096 24.352L609.421 22.4843ZM605.337 25.2656C604.308 26.5001 603.8 27.9701 603.8 29.6258H605.785C605.785 28.4063 606.148 27.3933 606.862 26.5368L605.337 25.2656ZM603.8 29.6258C603.8 31.8315 604.664 33.7763 606.312 35.4246L607.716 34.0204C606.402 32.7065 605.785 31.2534 605.785 29.6258H603.8ZM606.323 35.435C607.896 36.962 609.948 38.3449 612.451 39.5965L613.339 37.8204C610.963 36.6324 609.095 35.3581 607.706 34.01L606.323 35.435ZM612.451 39.5965C614.907 40.8245 617.58 42.073 620.467 43.3419L621.266 41.524C618.404 40.2663 615.762 39.0318 613.339 37.8204L612.451 39.5965ZM620.474 43.3449C623.59 44.6866 626.773 46.1806 630.023 47.8273L630.921 46.0559C627.637 44.3919 624.416 42.8802 621.26 41.521L620.474 43.3449ZM630.028 47.8297C633.275 49.4528 636.239 51.3726 638.923 53.5882L640.187 52.0567C637.382 49.7419 634.291 47.7411 630.916 46.0536L630.028 47.8297ZM638.929 53.593C641.614 55.7747 643.773 58.3942 645.409 61.4582L647.161 60.5225C645.4 57.2264 643.072 54.4007 640.181 52.0519L638.929 53.593ZM645.412 61.4632C647.016 64.4243 647.841 68.022 647.841 72.2946H649.826C649.826 67.7678 648.952 63.8292 647.158 60.5174L645.412 61.4632ZM647.841 72.2946C647.841 77.9818 646.286 82.96 643.192 87.2669L644.805 88.4255C648.157 83.7587 649.826 78.3692 649.826 72.2946H647.841ZM643.191 87.2684C640.13 91.5445 635.819 94.9021 630.209 97.3242L630.997 99.1472C636.888 96.6033 641.506 93.0346 644.806 88.4241L643.191 87.2684ZM630.207 97.3253C624.649 99.7435 618.146 100.967 610.673 100.967V102.953C618.36 102.953 625.143 101.694 630.999 99.1462L630.207 97.3253ZM610.673 100.967C603.725 100.967 597.039 99.8526 590.612 97.6244L589.961 99.5005C596.602 101.803 603.508 102.953 610.673 102.953V100.967ZM590.612 97.6244C584.18 95.3949 578.265 92.1801 572.861 87.9773L571.642 89.5448C577.216 93.8801 583.324 97.1996 589.961 99.5005L590.612 97.6244Z" fill="black" fill-opacity="0.15" mask="url(#path-1-outside-1_80_2445)"/>
</svg>
