<svg width="586" height="93" viewBox="0 0 586 93" fill="none" xmlns="http://www.w3.org/2000/svg">
<mask id="path-1-outside-1_78_710" maskUnits="userSpaceOnUse" x="-1" y="0" width="588" height="94" fill="black">
<rect fill="white" x="-1" width="588" height="94"/>
<path d="M0.768517 80.8605L11.7333 63.0574C14.6023 65.2976 17.2747 67.125 19.7506 68.5398C22.2658 69.9546 24.7024 70.9961 27.0605 71.6642C29.4578 72.293 31.8944 72.6074 34.3703 72.6074C36.807 72.6074 38.8899 72.3323 40.6191 71.7821C42.3483 71.1926 43.6649 70.3673 44.5688 69.3062C45.512 68.2058 45.9836 66.9089 45.9836 65.4155C45.9836 63.529 45.3155 61.9177 43.9793 60.5815C42.6431 59.2453 40.8549 58.0466 38.6148 56.9855C36.414 55.9244 33.997 54.8633 31.3639 53.8022C28.5342 52.6625 25.6457 51.4049 22.6981 50.0294C19.7506 48.6145 17.0389 46.905 14.563 44.9007C12.087 42.8963 10.0827 40.4597 8.54999 37.5908C7.01728 34.6826 6.25092 31.1455 6.25092 26.9797C6.25092 21.4776 7.62643 16.7812 10.3775 12.8905C13.1678 8.96046 16.9603 5.97363 21.7549 3.93001C26.5889 1.84709 32.0516 0.805629 38.1432 0.805629C42.5841 0.805629 47.2805 1.39513 52.2324 2.57415C57.1842 3.75316 62.195 5.60028 67.2648 8.1155L58.1864 26.8618C55.3567 25.1326 52.252 23.7571 48.8722 22.7352C45.5316 21.6741 42.4662 21.1436 39.6759 21.1436C37.7502 21.1436 36.0603 21.399 34.6061 21.9099C33.1913 22.4208 32.0909 23.1675 31.3049 24.1501C30.5189 25.0933 30.1259 26.2133 30.1259 27.5102C30.1259 29.2395 30.794 30.7722 32.1302 32.1084C33.4664 33.4053 35.235 34.604 37.4358 35.7044C39.6366 36.8048 42.0339 37.9248 44.6277 39.0645C47.4574 40.2829 50.3459 41.6387 53.2935 43.1321C56.2803 44.6256 59.0117 46.3941 61.4876 48.4377C64.0028 50.4813 66.0268 52.9376 67.5595 55.8065C69.0922 58.6361 69.8586 62.0356 69.8586 66.005C69.8586 71.3105 68.4045 75.9873 65.4962 80.0352C62.6273 84.0438 58.599 87.1682 53.4114 89.4083C48.263 91.6485 42.2697 92.7685 35.4315 92.7685C29.0648 92.7685 22.9339 91.7467 17.0389 89.7031C11.1438 87.6595 5.72036 84.7119 0.768517 80.8605ZM78.7012 91V2.57415H137.652V22.9121H102.046V36.5886H135.294V56.9266H102.046V70.6621H138.241V91H78.7012ZM227.728 91H201.908L185.048 61.7605H172.786V91H149.442V2.57415H186.817C194.48 2.57415 201.004 3.73351 206.388 6.05223C211.772 8.37095 215.879 11.7508 218.709 16.1917C221.578 20.5934 223.012 25.9186 223.012 32.1673C223.012 38.0231 221.755 43.0732 219.239 47.3176C216.724 51.5621 213.089 54.9026 208.333 57.3392L227.728 91ZM172.786 43.7806H184.989C189.666 43.7806 193.183 42.916 195.541 41.1868C197.939 39.4183 199.137 36.8048 199.137 33.3463C199.137 29.8879 197.939 27.2941 195.541 25.5649C193.183 23.7964 189.666 22.9121 184.989 22.9121H172.786V43.7806ZM287.327 91H262.863L228.318 2.57415H252.782L275.066 63.8827L297.349 2.57415H321.813L287.327 91ZM328.298 91V2.57415H351.642V91H328.298ZM441.306 80.0352C437.14 84.0438 432.208 87.1682 426.51 89.4083C420.85 91.6485 414.68 92.7685 407.999 92.7685C401.279 92.7685 395.05 91.6288 389.312 89.3494C383.613 87.0307 378.642 83.808 374.397 79.6815C370.192 75.5157 366.91 70.6424 364.552 65.0617C362.234 59.4811 361.074 53.3895 361.074 46.7871C361.074 40.1846 362.234 34.0931 364.552 28.5124C366.91 22.9317 370.192 18.0781 374.397 13.9516C378.642 9.78577 383.613 6.56313 389.312 4.28371C395.05 1.96499 401.279 0.805629 407.999 0.805629C414.641 0.805629 420.772 1.94534 426.392 4.22476C432.051 6.46488 436.963 9.58926 441.129 13.5979L424.859 29.9862C422.815 27.2351 420.3 25.0736 417.313 23.5016C414.366 21.9296 411.143 21.1436 407.645 21.1436C404.423 21.1436 401.436 21.792 398.685 23.0889C395.934 24.3859 393.517 26.1937 391.434 28.5124C389.39 30.8311 387.799 33.5428 386.659 36.6476C385.519 39.7523 384.949 43.1125 384.949 46.7281C384.949 50.3831 385.519 53.7629 386.659 56.8676C387.799 59.9724 389.39 62.7037 391.434 65.0617C393.517 67.3805 395.934 69.1883 398.685 70.4852C401.436 71.7821 404.423 72.4306 407.645 72.4306C411.143 72.4306 414.366 71.6446 417.313 70.0725C420.261 68.5005 422.756 66.339 424.8 63.588L441.306 80.0352ZM450.208 91V2.57415H509.158V22.9121H473.552V36.5886H506.8V56.9266H473.552V70.6621H509.748V91H450.208ZM516.232 80.8605L527.197 63.0574C530.066 65.2976 532.738 67.125 535.214 68.5398C537.73 69.9546 540.166 70.9961 542.524 71.6642C544.922 72.293 547.358 72.6074 549.834 72.6074C552.271 72.6074 554.354 72.3323 556.083 71.7821C557.812 71.1926 559.129 70.3673 560.033 69.3062C560.976 68.2058 561.447 66.9089 561.447 65.4155C561.447 63.529 560.779 61.9177 559.443 60.5815C558.107 59.2453 556.319 58.0466 554.079 56.9855C551.878 55.9244 549.461 54.8633 546.828 53.8022C543.998 52.6625 541.109 51.4049 538.162 50.0294C535.214 48.6145 532.503 46.905 530.027 44.9007C527.551 42.8963 525.547 40.4597 524.014 37.5908C522.481 34.6826 521.715 31.1455 521.715 26.9797C521.715 21.4776 523.09 16.7812 525.841 12.8905C528.632 8.96046 532.424 5.97363 537.219 3.93001C542.053 1.84709 547.515 0.805629 553.607 0.805629C558.048 0.805629 562.744 1.39513 567.696 2.57415C572.648 3.75316 577.659 5.60028 582.729 8.1155L573.65 26.8618C570.821 25.1326 567.716 23.7571 564.336 22.7352C560.995 21.6741 557.93 21.1436 555.14 21.1436C553.214 21.1436 551.524 21.399 550.07 21.9099C548.655 22.4208 547.555 23.1675 546.769 24.1501C545.983 25.0933 545.59 26.2133 545.59 27.5102C545.59 29.2395 546.258 30.7722 547.594 32.1084C548.93 33.4053 550.699 34.604 552.9 35.7044C555.1 36.8048 557.498 37.9248 560.092 39.0645C562.921 40.2829 565.81 41.6387 568.757 43.1321C571.744 44.6256 574.475 46.3941 576.951 48.4377C579.467 50.4813 581.491 52.9376 583.023 55.8065C584.556 58.6361 585.322 62.0356 585.322 66.005C585.322 71.3105 583.868 75.9873 580.96 80.0352C578.091 84.0438 574.063 87.1682 568.875 89.4083C563.727 91.6485 557.734 92.7685 550.895 92.7685C544.529 92.7685 538.398 91.7467 532.503 89.7031C526.608 87.6595 521.184 84.7119 516.232 80.8605Z"/>
</mask>
<path d="M0.768517 80.8605L0.083197 80.4384L-0.29521 81.0528L0.274374 81.4958L0.768517 80.8605ZM11.7333 63.0574L12.2287 62.423L11.5197 61.8695L11.048 62.6353L11.7333 63.0574ZM19.7506 68.5398L19.3513 69.2387L19.356 69.2413L19.7506 68.5398ZM27.0605 71.6642L26.8411 72.4386L26.8486 72.4408L26.8563 72.4427L27.0605 71.6642ZM40.6191 71.7821L40.8631 72.5491L40.871 72.5466L40.8788 72.5439L40.6191 71.7821ZM44.5688 69.3062L43.9577 68.7824L43.9561 68.7843L44.5688 69.3062ZM43.9793 60.5815L44.5484 60.0124L43.9793 60.5815ZM38.6148 56.9855L38.2652 57.7105L38.2702 57.7129L38.6148 56.9855ZM31.3639 53.8022L31.6647 53.0557L31.6646 53.0556L31.3639 53.8022ZM22.6981 50.0294L22.3498 50.755L22.3578 50.7587L22.6981 50.0294ZM8.54999 37.5908L7.83794 37.9661L7.84008 37.9701L8.54999 37.5908ZM10.3775 12.8905L9.72118 12.4245L9.72027 12.4258L10.3775 12.8905ZM21.7549 3.93001L22.0705 4.67043L22.0734 4.66918L21.7549 3.93001ZM67.2648 8.1155L67.9892 8.46631L68.3366 7.7488L67.6225 7.39449L67.2648 8.1155ZM58.1864 26.8618L57.7667 27.5486L58.524 28.0113L58.9108 27.2126L58.1864 26.8618ZM48.8722 22.7352L48.6285 23.5024L48.6393 23.5057L48.8722 22.7352ZM34.6061 21.9099L34.3393 21.1505L34.3328 21.1529L34.6061 21.9099ZM31.3049 24.1501L31.9232 24.6653L31.9284 24.6591L31.9334 24.6529L31.3049 24.1501ZM32.1302 32.1084L31.561 32.6776L31.5696 32.6859L32.1302 32.1084ZM44.6277 39.0645L44.304 39.8014L44.3094 39.8038L44.6277 39.0645ZM53.2935 43.1321L52.9297 43.8501L52.9335 43.852L53.2935 43.1321ZM61.4876 48.4377L60.9752 49.0584L60.9801 49.0624L61.4876 48.4377ZM67.5595 55.8065L66.8496 56.1858L66.8518 56.1899L67.5595 55.8065ZM65.4962 80.0352L64.8426 79.5656L64.8417 79.5668L65.4962 80.0352ZM53.4114 89.4083L53.0923 88.6694L53.0902 88.6703L53.4114 89.4083ZM1.45384 81.2826L12.4186 63.4795L11.048 62.6353L0.083197 80.4384L1.45384 81.2826ZM11.238 63.6918C14.1295 65.9496 16.8342 67.8003 19.3513 69.2387L20.1499 67.841C17.7152 66.4497 15.075 64.6456 12.2287 62.423L11.238 63.6918ZM19.356 69.2413C21.9171 70.6819 24.4123 71.7505 26.8411 72.4386L27.2799 70.8898C24.9926 70.2418 22.6146 69.2274 20.1452 67.8383L19.356 69.2413ZM26.8563 72.4427C29.3202 73.089 31.8254 73.4123 34.3703 73.4123V71.8026C31.9634 71.8026 29.5954 71.497 27.2647 70.8857L26.8563 72.4427ZM34.3703 73.4123C36.8633 73.4123 39.0332 73.1313 40.8631 72.5491L40.3751 71.0151C38.7465 71.5333 36.7506 71.8026 34.3703 71.8026V73.4123ZM40.8788 72.5439C42.7036 71.9218 44.1588 71.0287 45.1815 69.8281L43.9561 68.7843C43.171 69.7059 41.993 70.4634 40.3594 71.0203L40.8788 72.5439ZM45.1799 69.83C46.2522 68.5789 46.7885 67.0946 46.7885 65.4155H45.1787C45.1787 66.7231 44.7718 67.8326 43.9577 68.7824L45.1799 69.83ZM46.7885 65.4155C46.7885 63.3152 46.0353 61.4992 44.5484 60.0124L43.4102 61.1506C44.5957 62.3362 45.1787 63.7429 45.1787 65.4155H46.7885ZM44.5484 60.0124C43.1302 58.5942 41.2583 57.3471 38.9593 56.2581L38.2702 57.7129C40.4515 58.7462 42.1559 59.8964 43.4102 61.1506L44.5484 60.0124ZM38.9643 56.2605C36.7452 55.1906 34.3117 54.1224 31.6647 53.0557L31.063 54.5487C33.6822 55.6042 36.0827 56.6582 38.2652 57.7105L38.9643 56.2605ZM31.6646 53.0556C28.8492 51.9216 25.9738 50.6698 23.0385 49.3L22.3578 50.7587C25.3175 52.1399 28.2193 53.4033 31.0632 54.5488L31.6646 53.0556ZM23.0464 49.3037C20.1538 47.9153 17.4954 46.239 15.0694 44.2751L14.0565 45.5262C16.5824 47.571 19.3474 49.3138 22.3498 50.755L23.0464 49.3037ZM15.0694 44.2751C12.6788 42.3399 10.743 39.9876 9.2599 37.2115L7.84008 37.9701C9.42239 40.9318 11.4952 43.4528 14.0565 45.5262L15.0694 44.2751ZM9.26203 37.2155C7.80442 34.4498 7.05579 31.0489 7.05579 26.9797H5.44605C5.44605 31.2422 6.23013 34.9153 7.83796 37.966L9.26203 37.2155ZM7.05579 26.9797C7.05579 21.6175 8.394 17.0898 11.0346 13.3552L9.72027 12.4258C6.85886 16.4727 5.44605 21.3378 5.44605 26.9797H7.05579ZM11.0337 13.3565C13.731 9.55744 17.401 6.66069 22.0705 4.67043L21.4393 3.18959C16.5195 5.28656 12.6045 8.36347 9.72118 12.4245L11.0337 13.3565ZM22.0734 4.66918C26.7922 2.63589 32.1441 1.6105 38.1432 1.6105V0.000756718C31.9592 0.000756718 26.3855 1.05829 21.4364 3.19084L22.0734 4.66918ZM38.1432 1.6105C42.513 1.6105 47.1465 2.19059 52.0459 3.35713L52.4188 1.79116C47.4146 0.599678 42.6553 0.000756718 38.1432 0.000756718V1.6105ZM52.0459 3.35713C56.9324 4.52056 61.8859 6.34539 66.907 8.83651L67.6225 7.39449C62.5041 4.85516 57.4361 2.98575 52.4188 1.79116L52.0459 3.35713ZM66.5404 7.76469L57.462 26.511L58.9108 27.2126L67.9892 8.46631L66.5404 7.76469ZM58.6061 26.175C55.7143 24.4078 52.5463 23.0052 49.1051 21.9648L48.6393 23.5057C51.9578 24.5089 54.9991 25.8573 57.7667 27.5486L58.6061 26.175ZM49.1158 21.9681C45.7158 20.8881 42.5669 20.3387 39.6759 20.3387V21.9484C42.3655 21.9484 45.3475 22.4601 48.6285 23.5023L49.1158 21.9681ZM39.6759 20.3387C37.681 20.3387 35.8975 20.6031 34.3393 21.1506L34.8729 22.6693C36.223 22.195 37.8193 21.9484 39.6759 21.9484V20.3387ZM34.3328 21.1529C32.8059 21.7043 31.5718 22.528 30.6764 23.6473L31.9334 24.6529C32.61 23.8071 33.5768 23.1374 34.8795 22.667L34.3328 21.1529ZM30.6866 23.6348C29.7729 24.7312 29.321 26.0365 29.321 27.5102H30.9308C30.9308 26.3901 31.2649 25.4553 31.9232 24.6653L30.6866 23.6348ZM29.321 27.5102C29.321 29.4738 30.0894 31.2058 31.5611 32.6775L32.6994 31.5393C31.4987 30.3386 30.9308 29.0051 30.9308 27.5102H29.321ZM31.5696 32.6859C32.9806 34.0554 34.8235 35.2981 37.0758 36.4243L37.7957 34.9845C35.6464 33.9098 33.9523 32.7552 32.6908 31.5308L31.5696 32.6859ZM37.0758 36.4243C39.2902 37.5314 41.6997 38.6571 44.304 39.8014L44.9515 38.3277C42.3681 37.1925 39.983 36.0781 37.7957 34.9845L37.0758 36.4243ZM44.3094 39.8038C47.1226 41.015 49.996 42.3637 52.9297 43.8501L53.6572 42.4142C50.6959 40.9137 47.7921 39.5507 44.946 38.3253L44.3094 39.8038ZM52.9335 43.852C55.8682 45.3194 58.5481 47.055 60.9753 49.0584L62 47.817C59.4753 45.7331 56.6925 43.9318 53.6534 42.4122L52.9335 43.852ZM60.9801 49.0624C63.4119 51.0382 65.3672 53.4109 66.8496 56.1858L68.2694 55.4272C66.6864 52.4642 64.5938 49.9244 61.9952 47.813L60.9801 49.0624ZM66.8518 56.1899C68.3075 58.8773 69.0537 62.1386 69.0537 66.005H70.6635C70.6635 61.9326 69.8769 58.3949 68.2672 55.4232L66.8518 56.1899ZM69.0537 66.005C69.0537 71.1535 67.646 75.6635 64.8426 79.5656L66.1499 80.5048C69.163 76.311 70.6635 71.4675 70.6635 66.005H69.0537ZM64.8417 79.5668C62.0698 83.4399 58.1656 86.4786 53.0923 88.6694L53.7305 90.1473C59.0324 87.8578 63.1848 84.6478 66.1508 80.5036L64.8417 79.5668ZM53.0902 88.6703C48.0628 90.8578 42.1827 91.9636 35.4315 91.9636V93.5734C42.3567 93.5734 48.4633 92.4391 53.7325 90.1464L53.0902 88.6703ZM35.4315 91.9636C29.1527 91.9636 23.111 90.9562 17.3025 88.9426L16.7752 90.4636C22.7568 92.5372 28.9769 93.5734 35.4315 93.5734V91.9636ZM17.3025 88.9426C11.4911 86.928 6.14542 84.0229 1.26266 80.2252L0.274374 81.4958C5.29531 85.401 10.7966 88.391 16.7752 90.4636L17.3025 88.9426ZM78.7012 91H77.8963V91.8049H78.7012V91ZM78.7012 2.57415V1.76927H77.8963V2.57415H78.7012ZM137.652 2.57415H138.457V1.76927H137.652V2.57415ZM137.652 22.9121V23.717H138.457V22.9121H137.652ZM102.046 22.9121V22.1072H101.241V22.9121H102.046ZM102.046 36.5886H101.241V37.3935H102.046V36.5886ZM135.294 36.5886H136.099V35.7838H135.294V36.5886ZM135.294 56.9266V57.7314H136.099V56.9266H135.294ZM102.046 56.9266V56.1217H101.241V56.9266H102.046ZM102.046 70.6621H101.241V71.4669H102.046V70.6621ZM138.241 70.6621H139.046V69.8572H138.241V70.6621ZM138.241 91V91.8049H139.046V91H138.241ZM79.506 91V2.57415H77.8963V91H79.506ZM78.7012 3.37902H137.652V1.76927H78.7012V3.37902ZM136.847 2.57415V22.9121H138.457V2.57415H136.847ZM137.652 22.1072H102.046V23.717H137.652V22.1072ZM101.241 22.9121V36.5886H102.85V22.9121H101.241ZM102.046 37.3935H135.294V35.7838H102.046V37.3935ZM134.489 36.5886V56.9266H136.099V36.5886H134.489ZM135.294 56.1217H102.046V57.7314H135.294V56.1217ZM101.241 56.9266V70.6621H102.85V56.9266H101.241ZM102.046 71.4669H138.241V69.8572H102.046V71.4669ZM137.436 70.6621V91H139.046V70.6621H137.436ZM138.241 90.1951H78.7012V91.8049H138.241V90.1951ZM227.728 91V91.8049H229.121L228.426 90.5982L227.728 91ZM201.908 91L201.211 91.4021L201.443 91.8049H201.908V91ZM185.048 61.7605L185.745 61.3585L185.513 60.9556H185.048V61.7605ZM172.786 61.7605V60.9556H171.981V61.7605H172.786ZM172.786 91V91.8049H173.591V91H172.786ZM149.442 91H148.637V91.8049H149.442V91ZM149.442 2.57415V1.76927H148.637V2.57415H149.442ZM206.388 6.05223L206.706 5.31299L206.388 6.05223ZM218.709 16.1917L218.03 16.6243L218.034 16.6312L218.709 16.1917ZM208.333 57.3392L207.966 56.6229L207.214 57.0085L207.636 57.7411L208.333 57.3392ZM172.786 43.7806H171.981V44.5855H172.786V43.7806ZM195.541 41.1868L196.017 41.8358L196.019 41.8345L195.541 41.1868ZM195.541 25.5649L195.058 26.2088L195.064 26.2133L195.07 26.2176L195.541 25.5649ZM172.786 22.9121V22.1072H171.981V22.9121H172.786ZM227.728 90.1951H201.908V91.8049H227.728V90.1951ZM202.605 90.5979L185.745 61.3585L184.351 62.1626L201.211 91.4021L202.605 90.5979ZM185.048 60.9556H172.786V62.5654H185.048V60.9556ZM171.981 61.7605V91H173.591V61.7605H171.981ZM172.786 90.1951H149.442V91.8049H172.786V90.1951ZM150.247 91V2.57415H148.637V91H150.247ZM149.442 3.37902H186.817V1.76927H149.442V3.37902ZM186.817 3.37902C194.403 3.37902 200.812 4.52715 206.07 6.79146L206.706 5.31299C201.196 2.93987 194.557 1.76927 186.817 1.76927V3.37902ZM206.07 6.79146C211.323 9.05389 215.297 12.3345 218.03 16.6242L219.388 15.7592C216.462 11.167 212.221 7.68801 206.706 5.31299L206.07 6.79146ZM218.034 16.6312C220.803 20.8791 222.207 26.0446 222.207 32.1673H223.817C223.817 25.7925 222.352 20.3077 219.383 15.7522L218.034 16.6312ZM222.207 32.1673C222.207 37.9059 220.976 42.8085 218.547 46.9073L219.932 47.728C222.533 43.3378 223.817 38.1403 223.817 32.1673H222.207ZM218.547 46.9073C216.116 51.0103 212.598 54.2496 207.966 56.6229L208.701 58.0555C213.579 55.5556 217.333 52.1139 219.932 47.728L218.547 46.9073ZM207.636 57.7411L227.031 91.4018L228.426 90.5982L209.031 56.9374L207.636 57.7411ZM172.786 44.5855H184.989V42.9757H172.786V44.5855ZM184.989 44.5855C189.742 44.5855 193.46 43.7108 196.017 41.8358L195.065 40.5377C192.906 42.1212 189.589 42.9757 184.989 42.9757V44.5855ZM196.019 41.8345C198.657 39.8884 199.942 37.0135 199.942 33.3463H198.332C198.332 36.5961 197.22 38.9481 195.063 40.5391L196.019 41.8345ZM199.942 33.3463C199.942 29.6795 198.657 26.8197 196.012 24.9121L195.07 26.2176C197.22 27.7684 198.332 30.0963 198.332 33.3463H199.942ZM196.024 24.921C193.466 23.0026 189.745 22.1072 184.989 22.1072V23.717C189.587 23.717 192.9 24.5901 195.058 26.2088L196.024 24.921ZM184.989 22.1072H172.786V23.717H184.989V22.1072ZM171.981 22.9121V43.7806H173.591V22.9121H171.981ZM287.327 91V91.8049H287.877L288.077 91.2924L287.327 91ZM262.863 91L262.113 91.2929L262.313 91.8049H262.863V91ZM228.318 2.57415V1.76927H227.139L227.568 2.86703L228.318 2.57415ZM252.782 2.57415L253.539 2.2992L253.346 1.76927H252.782V2.57415ZM275.066 63.8827L274.309 64.1577L275.066 66.2389L275.822 64.1577L275.066 63.8827ZM297.349 2.57415V1.76927H296.785L296.592 2.2992L297.349 2.57415ZM321.813 2.57415L322.563 2.86659L322.991 1.76927H321.813V2.57415ZM287.327 90.1951H262.863V91.8049H287.327V90.1951ZM263.612 90.7071L229.067 2.28127L227.568 2.86703L262.113 91.2929L263.612 90.7071ZM228.318 3.37902H252.782V1.76927H228.318V3.37902ZM252.026 2.84909L274.309 64.1577L275.822 63.6078L253.539 2.2992L252.026 2.84909ZM275.822 64.1577L298.105 2.84909L296.592 2.2992L274.309 63.6078L275.822 64.1577ZM297.349 3.37902H321.813V1.76927H297.349V3.37902ZM321.063 2.2817L286.577 90.7076L288.077 91.2924L322.563 2.86659L321.063 2.2817ZM328.298 91H327.493V91.8049H328.298V91ZM328.298 2.57415V1.76927H327.493V2.57415H328.298ZM351.642 2.57415H352.447V1.76927H351.642V2.57415ZM351.642 91V91.8049H352.447V91H351.642ZM329.103 91V2.57415H327.493V91H329.103ZM328.298 3.37902H351.642V1.76927H328.298V3.37902ZM350.837 2.57415V91H352.447V2.57415H350.837ZM351.642 90.1951H328.298V91.8049H351.642V90.1951ZM441.306 80.0352L441.864 80.6152L442.456 80.0452L441.874 79.465L441.306 80.0352ZM426.51 89.4083L426.215 88.6593L426.213 88.66L426.51 89.4083ZM389.312 89.3494L389.008 90.0949L389.015 90.0974L389.312 89.3494ZM374.397 79.6815L373.831 80.2533L373.836 80.2586L374.397 79.6815ZM364.552 65.0618L363.809 65.3706L363.811 65.375L364.552 65.0618ZM364.552 28.5124L363.811 28.1991L363.809 28.2036L364.552 28.5124ZM374.397 13.9516L374.961 14.5261L374.961 14.526L374.397 13.9516ZM389.312 4.28371L389.611 5.03102L389.613 5.02995L389.312 4.28371ZM426.392 4.22476L426.089 4.97065L426.095 4.97314L426.392 4.22476ZM441.129 13.5979L441.7 14.165L442.276 13.5848L441.687 13.0179L441.129 13.5979ZM424.859 29.9862L424.213 30.4661L424.771 31.2173L425.43 30.5532L424.859 29.9862ZM417.313 23.5016L416.934 24.2118L416.938 24.2138L417.313 23.5016ZM391.434 28.5124L390.835 27.9745L390.83 27.9802L391.434 28.5124ZM386.659 36.6476L385.903 36.3702L386.659 36.6476ZM386.659 56.8676L385.903 57.145L386.659 56.8676ZM391.434 65.0618L390.826 65.5889L390.83 65.5943L390.835 65.5996L391.434 65.0618ZM424.8 63.588L425.368 63.0178L424.709 62.3609L424.154 63.108L424.8 63.588ZM440.748 79.4552C436.663 83.3865 431.821 86.4554 426.215 88.6593L426.804 90.1574C432.595 87.881 437.618 84.7011 441.864 80.6152L440.748 79.4552ZM426.213 88.66C420.657 90.8593 414.589 91.9636 407.999 91.9636V93.5734C414.772 93.5734 421.043 92.4376 426.806 90.1567L426.213 88.66ZM407.999 91.9636C401.371 91.9636 395.244 90.84 389.609 88.6014L389.015 90.0974C394.855 92.4176 401.186 93.5734 407.999 93.5734V91.9636ZM389.615 88.6039C384.009 86.3226 379.126 83.1559 374.958 79.1044L373.836 80.2586C378.158 84.4602 383.218 87.7387 389.008 90.0949L389.615 88.6039ZM374.964 79.1097C370.835 75.0195 367.612 70.2347 365.294 64.7485L363.811 65.375C366.209 71.0501 369.549 76.0118 373.831 80.2533L374.964 79.1097ZM365.296 64.7529C363.021 59.2789 361.879 53.2934 361.879 46.7871H360.27C360.27 53.4857 361.446 59.6833 363.809 65.3706L365.296 64.7529ZM361.879 46.7871C361.879 40.2807 363.021 34.2953 365.296 28.8212L363.809 28.2036C361.446 33.8908 360.27 40.0885 360.27 46.7871H361.879ZM365.294 28.8257C367.612 23.3401 370.834 18.576 374.961 14.5261L373.833 13.3771C369.55 17.5803 366.209 22.5234 363.811 28.1991L365.294 28.8257ZM374.961 14.526C379.127 10.4372 384.008 7.27219 389.611 5.03102L389.013 3.53641C383.219 5.85408 378.156 9.13436 373.833 13.3772L374.961 14.526ZM389.613 5.02995C395.247 2.75317 401.373 1.6105 407.999 1.6105V0.000756718C401.184 0.000756718 394.852 1.17681 389.01 3.53747L389.613 5.02995ZM407.999 1.6105C414.547 1.6105 420.574 2.73373 426.089 4.97062L426.694 3.4789C420.969 1.15695 414.735 0.000756718 407.999 0.000756718V1.6105ZM426.095 4.97314C431.662 7.17677 436.485 10.2457 440.571 14.1779L441.687 13.0179C437.442 8.93286 432.439 5.753 426.688 3.47639L426.095 4.97314ZM440.558 13.0308L424.288 29.4191L425.43 30.5532L441.7 14.165L440.558 13.0308ZM425.505 29.5062C423.391 26.6599 420.783 24.4184 417.688 22.7894L416.938 24.2138C419.817 25.7288 422.24 27.8103 424.213 30.4661L425.505 29.5062ZM417.692 22.7914C414.622 21.1543 411.269 20.3387 407.645 20.3387V21.9484C411.017 21.9484 414.109 22.7049 416.934 24.2118L417.692 22.7914ZM407.645 20.3387C404.311 20.3387 401.206 21.0104 398.342 22.3609L399.028 23.817C401.665 22.5737 404.534 21.9484 407.645 21.9484V20.3387ZM398.342 22.3609C395.491 23.7047 392.988 25.5781 390.835 27.9745L392.033 29.0503C394.046 26.8093 396.376 25.067 399.028 23.817L398.342 22.3609ZM390.83 27.9802C388.716 30.3789 387.075 33.1785 385.903 36.3702L387.415 36.9249C388.522 33.9072 390.065 31.2834 392.038 29.0446L390.83 27.9802ZM385.903 36.3702C384.728 39.5717 384.145 43.0267 384.145 46.7281H385.754C385.754 43.1983 386.31 39.9329 387.415 36.9249L385.903 36.3702ZM384.145 46.7281C384.145 50.4678 384.728 53.9426 385.903 57.145L387.415 56.5903C386.311 53.5832 385.754 50.2983 385.754 46.7281H384.145ZM385.903 57.145C387.075 60.3357 388.715 63.1529 390.826 65.5889L392.042 64.5346C390.066 62.2546 388.523 59.609 387.415 56.5903L385.903 57.145ZM390.835 65.5996C392.988 67.9961 395.491 69.8694 398.342 71.2132L399.028 69.7572C396.376 68.5071 394.046 66.7649 392.033 64.5239L390.835 65.5996ZM398.342 71.2132C401.206 72.5637 404.311 73.2354 407.645 73.2354V71.6257C404.534 71.6257 401.665 71.0005 399.028 69.7572L398.342 71.2132ZM407.645 73.2354C411.269 73.2354 414.622 72.4199 417.692 70.7827L416.934 69.3624C414.109 70.8693 411.017 71.6257 407.645 71.6257V73.2354ZM417.692 70.7827C420.747 69.1532 423.333 66.912 425.446 64.0679L424.154 63.108C422.179 65.766 419.774 67.8479 416.934 69.3624L417.692 70.7827ZM424.232 64.1581L440.738 80.6053L441.874 79.465L425.368 63.0178L424.232 64.1581ZM450.208 91H449.403V91.8049H450.208V91ZM450.208 2.57415V1.76927H449.403V2.57415H450.208ZM509.158 2.57415H509.963V1.76927H509.158V2.57415ZM509.158 22.9121V23.717H509.963V22.9121H509.158ZM473.552 22.9121V22.1072H472.747V22.9121H473.552ZM473.552 36.5886H472.747V37.3935H473.552V36.5886ZM506.8 36.5886H507.605V35.7838H506.8V36.5886ZM506.8 56.9266V57.7314H507.605V56.9266H506.8ZM473.552 56.9266V56.1217H472.747V56.9266H473.552ZM473.552 70.6621H472.747V71.4669H473.552V70.6621ZM509.748 70.6621H510.553V69.8572H509.748V70.6621ZM509.748 91V91.8049H510.553V91H509.748ZM451.013 91V2.57415H449.403V91H451.013ZM450.208 3.37902H509.158V1.76927H450.208V3.37902ZM508.353 2.57415V22.9121H509.963V2.57415H508.353ZM509.158 22.1072H473.552V23.717H509.158V22.1072ZM472.747 22.9121V36.5886H474.357V22.9121H472.747ZM473.552 37.3935H506.8V35.7838H473.552V37.3935ZM505.995 36.5886V56.9266H507.605V36.5886H505.995ZM506.8 56.1217H473.552V57.7314H506.8V56.1217ZM472.747 56.9266V70.6621H474.357V56.9266H472.747ZM473.552 71.4669H509.748V69.8572H473.552V71.4669ZM508.943 70.6621V91H510.553V70.6621H508.943ZM509.748 90.1951H450.208V91.8049H509.748V90.1951ZM516.232 80.8605L515.547 80.4384L515.169 81.0528L515.738 81.4958L516.232 80.8605ZM527.197 63.0574L527.693 62.423L526.984 61.8695L526.512 62.6353L527.197 63.0574ZM535.214 68.5398L534.815 69.2387L534.82 69.2413L535.214 68.5398ZM542.524 71.6642L542.305 72.4386L542.312 72.4408L542.32 72.4427L542.524 71.6642ZM556.083 71.7821L556.327 72.5491L556.335 72.5466L556.343 72.5439L556.083 71.7821ZM560.033 69.3062L559.422 68.7824L559.42 68.7843L560.033 69.3062ZM559.443 60.5815L560.012 60.0124L559.443 60.5815ZM554.079 56.9855L553.729 57.7105L553.734 57.7129L554.079 56.9855ZM546.828 53.8022L547.129 53.0557L547.128 53.0556L546.828 53.8022ZM538.162 50.0294L537.814 50.755L537.822 50.7587L538.162 50.0294ZM524.014 37.5908L523.302 37.9661L523.304 37.9701L524.014 37.5908ZM525.841 12.8905L525.185 12.4245L525.184 12.4258L525.841 12.8905ZM537.219 3.93001L537.534 4.67043L537.537 4.66918L537.219 3.93001ZM582.729 8.1155L583.453 8.46631L583.8 7.7488L583.086 7.39449L582.729 8.1155ZM573.65 26.8618L573.23 27.5486L573.988 28.0113L574.375 27.2126L573.65 26.8618ZM564.336 22.7352L564.092 23.5024L564.103 23.5057L564.336 22.7352ZM550.07 21.9099L549.803 21.1505L549.797 21.1529L550.07 21.9099ZM546.769 24.1501L547.387 24.6653L547.392 24.6591L547.397 24.6529L546.769 24.1501ZM547.594 32.1084L547.025 32.6776L547.033 32.6859L547.594 32.1084ZM560.092 39.0645L559.768 39.8014L559.773 39.8038L560.092 39.0645ZM568.757 43.1321L568.393 43.8501L568.397 43.852L568.757 43.1321ZM576.951 48.4377L576.439 49.0584L576.444 49.0624L576.951 48.4377ZM583.023 55.8065L582.313 56.1858L582.316 56.1899L583.023 55.8065ZM580.96 80.0352L580.306 79.5656L580.306 79.5668L580.96 80.0352ZM568.875 89.4083L568.556 88.6694L568.554 88.6703L568.875 89.4083ZM516.918 81.2826L527.882 63.4795L526.512 62.6353L515.547 80.4384L516.918 81.2826ZM526.702 63.6918C529.593 65.9496 532.298 67.8003 534.815 69.2387L535.614 67.841C533.179 66.4497 530.539 64.6456 527.693 62.423L526.702 63.6918ZM534.82 69.2413C537.381 70.6819 539.876 71.7505 542.305 72.4386L542.744 70.8898C540.456 70.2418 538.078 69.2274 535.609 67.8383L534.82 69.2413ZM542.32 72.4427C544.784 73.089 547.289 73.4123 549.834 73.4123V71.8026C547.427 71.8026 545.059 71.497 542.728 70.8857L542.32 72.4427ZM549.834 73.4123C552.327 73.4123 554.497 73.1313 556.327 72.5491L555.839 71.0151C554.21 71.5333 552.214 71.8026 549.834 71.8026V73.4123ZM556.343 72.5439C558.167 71.9218 559.623 71.0287 560.645 69.8281L559.42 68.7843C558.635 69.7059 557.457 70.4634 555.823 71.0203L556.343 72.5439ZM560.644 69.83C561.716 68.5789 562.252 67.0946 562.252 65.4155H560.643C560.643 66.7231 560.236 67.8326 559.422 68.7824L560.644 69.83ZM562.252 65.4155C562.252 63.3152 561.499 61.4992 560.012 60.0124L558.874 61.1506C560.06 62.3362 560.643 63.7429 560.643 65.4155H562.252ZM560.012 60.0124C558.594 58.5942 556.722 57.3471 554.423 56.2581L553.734 57.7129C555.915 58.7462 557.62 59.8964 558.874 61.1506L560.012 60.0124ZM554.428 56.2605C552.209 55.1906 549.776 54.1224 547.129 53.0557L546.527 54.5487C549.146 55.6042 551.547 56.6582 553.729 57.7105L554.428 56.2605ZM547.128 53.0556C544.313 51.9216 541.438 50.6698 538.502 49.3L537.822 50.7587C540.781 52.1399 543.683 53.4033 546.527 54.5488L547.128 53.0556ZM538.51 49.3037C535.618 47.9153 532.959 46.239 530.533 44.2751L529.52 45.5262C532.046 47.571 534.811 49.3138 537.814 50.755L538.51 49.3037ZM530.533 44.2751C528.143 42.3399 526.207 39.9876 524.724 37.2115L523.304 37.9701C524.886 40.9318 526.959 43.4528 529.52 45.5262L530.533 44.2751ZM524.726 37.2155C523.268 34.4498 522.52 31.0489 522.52 26.9797H520.91C520.91 31.2422 521.694 34.9153 523.302 37.966L524.726 37.2155ZM522.52 26.9797C522.52 21.6175 523.858 17.0898 526.498 13.3552L525.184 12.4258C522.323 16.4727 520.91 21.3378 520.91 26.9797H522.52ZM526.498 13.3565C529.195 9.55744 532.865 6.66069 537.534 4.67043L536.903 3.18959C531.983 5.28656 528.068 8.36347 525.185 12.4245L526.498 13.3565ZM537.537 4.66918C542.256 2.63589 547.608 1.6105 553.607 1.6105V0.000756718C547.423 0.000756718 541.849 1.05829 536.9 3.19084L537.537 4.66918ZM553.607 1.6105C557.977 1.6105 562.61 2.19059 567.51 3.35713L567.883 1.79116C562.878 0.599678 558.119 0.000756718 553.607 0.000756718V1.6105ZM567.51 3.35713C572.396 4.52056 577.35 6.34539 582.371 8.83651L583.086 7.39449C577.968 4.85516 572.9 2.98575 567.883 1.79116L567.51 3.35713ZM582.004 7.76469L572.926 26.511L574.375 27.2126L583.453 8.46631L582.004 7.76469ZM574.07 26.175C571.178 24.4078 568.01 23.0052 564.569 21.9648L564.103 23.5057C567.422 24.5089 570.463 25.8573 573.23 27.5486L574.07 26.175ZM564.58 21.9681C561.18 20.8881 558.031 20.3387 555.14 20.3387V21.9484C557.829 21.9484 560.811 22.4601 564.092 23.5023L564.58 21.9681ZM555.14 20.3387C553.145 20.3387 551.361 20.6031 549.803 21.1506L550.337 22.6693C551.687 22.195 553.283 21.9484 555.14 21.9484V20.3387ZM549.797 21.1529C548.27 21.7043 547.036 22.528 546.14 23.6473L547.397 24.6529C548.074 23.8071 549.041 23.1374 550.343 22.667L549.797 21.1529ZM546.15 23.6348C545.237 24.7312 544.785 26.0365 544.785 27.5102H546.395C546.395 26.3901 546.729 25.4553 547.387 24.6653L546.15 23.6348ZM544.785 27.5102C544.785 29.4738 545.553 31.2058 547.025 32.6775L548.163 31.5393C546.962 30.3386 546.395 29.0051 546.395 27.5102H544.785ZM547.033 32.6859C548.444 34.0554 550.287 35.2981 552.54 36.4243L553.26 34.9845C551.11 33.9098 549.416 32.7552 548.155 31.5308L547.033 32.6859ZM552.54 36.4243C554.754 37.5314 557.164 38.6571 559.768 39.8014L560.415 38.3277C557.832 37.1925 555.447 36.0781 553.26 34.9845L552.54 36.4243ZM559.773 39.8038C562.586 41.015 565.46 42.3637 568.393 43.8501L569.121 42.4142C566.16 40.9137 563.256 39.5507 560.41 38.3253L559.773 39.8038ZM568.397 43.852C571.332 45.3194 574.012 47.055 576.439 49.0584L577.464 47.817C574.939 45.7331 572.156 43.9318 569.117 42.4122L568.397 43.852ZM576.444 49.0624C578.876 51.0382 580.831 53.4109 582.313 56.1858L583.733 55.4272C582.15 52.4642 580.058 49.9244 577.459 47.813L576.444 49.0624ZM582.316 56.1899C583.771 58.8773 584.518 62.1386 584.518 66.005H586.127C586.127 61.9326 585.341 58.3949 583.731 55.4232L582.316 56.1899ZM584.518 66.005C584.518 71.1535 583.11 75.6635 580.306 79.5656L581.614 80.5048C584.627 76.311 586.127 71.4675 586.127 66.005H584.518ZM580.306 79.5668C577.534 83.4399 573.629 86.4786 568.556 88.6694L569.194 90.1473C574.496 87.8578 578.649 84.6478 581.615 80.5036L580.306 79.5668ZM568.554 88.6703C563.527 90.8578 557.647 91.9636 550.895 91.9636V93.5734C557.82 93.5734 563.927 92.4391 569.196 90.1464L568.554 88.6703ZM550.895 91.9636C544.616 91.9636 538.575 90.9562 532.766 88.9426L532.239 90.4636C538.221 92.5372 544.441 93.5734 550.895 93.5734V91.9636ZM532.766 88.9426C526.955 86.928 521.609 84.0229 516.726 80.2252L515.738 81.4958C520.759 85.401 526.26 88.391 532.239 90.4636L532.766 88.9426Z" fill="black" fill-opacity="0.15" mask="url(#path-1-outside-1_78_710)"/>
</svg>
