<svg width="778" height="249" viewBox="0 0 778 249" fill="none" xmlns="http://www.w3.org/2000/svg">
<g opacity="0.999946" filter="url(#filter0_dd_1630_2151)">
<g clip-path="url(#clip0_1630_2151)">
<rect x="72.7002" y="67" width="632.59" height="100" rx="12" fill="url(#paint0_linear_1630_2151)"/>
<circle cx="675" cy="65" r="54" fill="white" fill-opacity="0.1"/>
<circle cx="90" cy="164" r="54" fill="white" fill-opacity="0.1"/>
</g>
</g>
<path d="M138.23 113.28C138.31 111.14 139.01 109.49 140.33 108.33C141.65 107.17 143.44 106.59 145.7 106.59C147.2 106.59 148.48 106.85 149.54 107.37C150.62 107.89 151.43 108.6 151.97 109.5C152.53 110.4 152.81 111.41 152.81 112.53C152.81 113.85 152.48 114.93 151.82 115.77C151.16 116.59 150.39 117.15 149.51 117.45V117.57C150.65 117.95 151.55 118.58 152.21 119.46C152.87 120.34 153.2 121.47 153.2 122.85C153.2 124.09 152.91 125.19 152.33 126.15C151.77 127.09 150.94 127.83 149.84 128.37C148.76 128.91 147.47 129.18 145.97 129.18C143.57 129.18 141.65 128.59 140.21 127.41C138.79 126.23 138.04 124.45 137.96 122.07H142.94C142.96 122.95 143.21 123.65 143.69 124.17C144.17 124.67 144.87 124.92 145.79 124.92C146.57 124.92 147.17 124.7 147.59 124.26C148.03 123.8 148.25 123.2 148.25 122.46C148.25 121.5 147.94 120.81 147.32 120.39C146.72 119.95 145.75 119.73 144.41 119.73H143.45V115.56H144.41C145.43 115.56 146.25 115.39 146.87 115.05C147.51 114.69 147.83 114.06 147.83 113.16C147.83 112.44 147.63 111.88 147.23 111.48C146.83 111.08 146.28 110.88 145.58 110.88C144.82 110.88 144.25 111.11 143.87 111.57C143.51 112.03 143.3 112.6 143.24 113.28H138.23ZM159.124 129.24C158.224 129.24 157.484 128.98 156.904 128.46C156.344 127.92 156.064 127.26 156.064 126.48C156.064 125.68 156.344 125.01 156.904 124.47C157.484 123.93 158.224 123.66 159.124 123.66C160.004 123.66 160.724 123.93 161.284 124.47C161.864 125.01 162.154 125.68 162.154 126.48C162.154 127.26 161.864 127.92 161.284 128.46C160.724 128.98 160.004 129.24 159.124 129.24ZM164.8 125.1V120.96L174.28 107.4H180.01V120.66H182.47V125.1H180.01V129H174.88V125.1H164.8ZM175.24 113.04L170.2 120.66H175.24V113.04ZM198.392 129L194.103 122.55L190.323 129H184.503L191.253 118.29L184.353 107.94H190.323L194.553 114.3L198.272 107.94H204.092L197.402 118.56L204.362 129H198.392Z" fill="white"/>
<path d="M276.01 97.4363V110H273.49V101.828L270.124 110H268.216L264.832 101.828V110H262.312V97.4363H265.174L269.17 106.778L273.166 97.4363H276.01ZM287.771 104.798C287.771 105.158 287.747 105.482 287.699 105.77H280.409C280.469 106.49 280.721 107.054 281.165 107.462C281.609 107.87 282.155 108.074 282.803 108.074C283.739 108.074 284.405 107.672 284.801 106.868H287.519C287.231 107.828 286.679 108.62 285.863 109.244C285.047 109.856 284.045 110.162 282.857 110.162C281.897 110.162 281.033 109.952 280.265 109.532C279.509 109.1 278.915 108.494 278.483 107.714C278.063 106.934 277.853 106.034 277.853 105.014C277.853 103.982 278.063 103.076 278.483 102.296C278.903 101.516 279.491 100.916 280.247 100.496C281.003 100.076 281.873 99.8662 282.857 99.8662C283.805 99.8662 284.651 100.07 285.395 100.478C286.151 100.886 286.733 101.468 287.141 102.224C287.561 102.968 287.771 103.826 287.771 104.798ZM285.161 104.078C285.149 103.43 284.915 102.914 284.459 102.53C284.003 102.134 283.445 101.936 282.785 101.936C282.161 101.936 281.633 102.128 281.201 102.512C280.781 102.884 280.523 103.406 280.427 104.078H285.161ZM288.963 104.978C288.963 103.97 289.161 103.076 289.557 102.296C289.965 101.516 290.51 100.916 291.194 100.496C291.89 100.076 292.664 99.8662 293.516 99.8662C294.26 99.8662 294.908 100.016 295.46 100.316C296.024 100.616 296.474 100.994 296.81 101.45V100.028H299.348V110H296.81V108.542C296.486 109.01 296.036 109.4 295.46 109.712C294.896 110.012 294.242 110.162 293.498 110.162C292.658 110.162 291.89 109.946 291.194 109.514C290.51 109.082 289.965 108.476 289.557 107.696C289.161 106.904 288.963 105.998 288.963 104.978ZM296.81 105.014C296.81 104.402 296.69 103.88 296.45 103.448C296.21 103.004 295.886 102.668 295.478 102.44C295.07 102.2 294.632 102.08 294.164 102.08C293.696 102.08 293.264 102.194 292.868 102.422C292.472 102.65 292.148 102.986 291.896 103.43C291.656 103.862 291.536 104.378 291.536 104.978C291.536 105.578 291.656 106.106 291.896 106.562C292.148 107.006 292.472 107.348 292.868 107.588C293.276 107.828 293.708 107.948 294.164 107.948C294.632 107.948 295.07 107.834 295.478 107.606C295.886 107.366 296.21 107.03 296.45 106.598C296.69 106.154 296.81 105.626 296.81 105.014ZM305.625 110.162C304.809 110.162 304.077 110.018 303.429 109.73C302.781 109.43 302.265 109.028 301.881 108.524C301.509 108.02 301.305 107.462 301.269 106.85H303.807C303.855 107.234 304.041 107.552 304.365 107.804C304.701 108.056 305.115 108.182 305.607 108.182C306.087 108.182 306.459 108.086 306.723 107.894C306.999 107.702 307.137 107.456 307.137 107.156C307.137 106.832 306.969 106.592 306.633 106.436C306.309 106.268 305.787 106.088 305.067 105.896C304.323 105.716 303.711 105.53 303.231 105.338C302.763 105.146 302.355 104.852 302.007 104.456C301.671 104.06 301.503 103.526 301.503 102.854C301.503 102.302 301.659 101.798 301.971 101.342C302.295 100.886 302.751 100.526 303.339 100.262C303.939 99.9982 304.641 99.8662 305.445 99.8662C306.633 99.8662 307.581 100.166 308.289 100.766C308.997 101.354 309.387 102.152 309.459 103.16H307.047C307.011 102.764 306.843 102.452 306.543 102.224C306.255 101.984 305.865 101.864 305.373 101.864C304.917 101.864 304.563 101.948 304.311 102.116C304.071 102.284 303.951 102.518 303.951 102.818C303.951 103.154 304.119 103.412 304.455 103.592C304.791 103.76 305.313 103.934 306.021 104.114C306.741 104.294 307.335 104.48 307.803 104.672C308.271 104.864 308.673 105.164 309.009 105.572C309.357 105.968 309.537 106.496 309.549 107.156C309.549 107.732 309.387 108.248 309.063 108.704C308.751 109.16 308.295 109.52 307.695 109.784C307.107 110.036 306.417 110.162 305.625 110.162ZM321.032 100.028V110H318.494V108.74C318.17 109.172 317.744 109.514 317.216 109.766C316.7 110.006 316.136 110.126 315.524 110.126C314.744 110.126 314.054 109.964 313.454 109.64C312.854 109.304 312.38 108.818 312.032 108.182C311.696 107.534 311.528 106.766 311.528 105.878V100.028H314.048V105.518C314.048 106.31 314.246 106.922 314.642 107.354C315.038 107.774 315.578 107.984 316.262 107.984C316.958 107.984 317.504 107.774 317.9 107.354C318.296 106.922 318.494 106.31 318.494 105.518V100.028H321.032ZM326.038 101.576C326.362 101.048 326.782 100.634 327.298 100.334C327.826 100.034 328.426 99.8842 329.098 99.8842V102.53H328.432C327.64 102.53 327.04 102.716 326.632 103.088C326.236 103.46 326.038 104.108 326.038 105.032V110H323.518V100.028H326.038V101.576ZM330.147 104.978C330.147 103.97 330.345 103.076 330.741 102.296C331.149 101.516 331.695 100.916 332.379 100.496C333.075 100.076 333.849 99.8662 334.701 99.8662C335.445 99.8662 336.093 100.016 336.645 100.316C337.209 100.616 337.659 100.994 337.995 101.45V100.028H340.533V110H337.995V108.542C337.671 109.01 337.221 109.4 336.645 109.712C336.081 110.012 335.427 110.162 334.683 110.162C333.843 110.162 333.075 109.946 332.379 109.514C331.695 109.082 331.149 108.476 330.741 107.696C330.345 106.904 330.147 105.998 330.147 104.978ZM337.995 105.014C337.995 104.402 337.875 103.88 337.635 103.448C337.395 103.004 337.071 102.668 336.663 102.44C336.255 102.2 335.817 102.08 335.349 102.08C334.881 102.08 334.449 102.194 334.053 102.422C333.657 102.65 333.333 102.986 333.081 103.43C332.841 103.862 332.721 104.378 332.721 104.978C332.721 105.578 332.841 106.106 333.081 106.562C333.333 107.006 333.657 107.348 334.053 107.588C334.461 107.828 334.893 107.948 335.349 107.948C335.817 107.948 336.255 107.834 336.663 107.606C337.071 107.366 337.395 107.03 337.635 106.598C337.875 106.154 337.995 105.626 337.995 105.014ZM345.514 101.486C345.838 101.006 346.282 100.616 346.846 100.316C347.422 100.016 348.076 99.8662 348.808 99.8662C349.66 99.8662 350.428 100.076 351.112 100.496C351.808 100.916 352.354 101.516 352.75 102.296C353.158 103.064 353.362 103.958 353.362 104.978C353.362 105.998 353.158 106.904 352.75 107.696C352.354 108.476 351.808 109.082 351.112 109.514C350.428 109.946 349.66 110.162 348.808 110.162C348.064 110.162 347.41 110.018 346.846 109.73C346.294 109.43 345.85 109.046 345.514 108.578V110H342.994V96.6803H345.514V101.486ZM350.788 104.978C350.788 104.378 350.662 103.862 350.41 103.43C350.17 102.986 349.846 102.65 349.438 102.422C349.042 102.194 348.61 102.08 348.142 102.08C347.686 102.08 347.254 102.2 346.846 102.44C346.45 102.668 346.126 103.004 345.874 103.448C345.634 103.892 345.514 104.414 345.514 105.014C345.514 105.614 345.634 106.136 345.874 106.58C346.126 107.024 346.45 107.366 346.846 107.606C347.254 107.834 347.686 107.948 348.142 107.948C348.61 107.948 349.042 107.828 349.438 107.588C349.846 107.348 350.17 107.006 350.41 106.562C350.662 106.118 350.788 105.59 350.788 104.978ZM357.713 96.6803V110H355.193V96.6803H357.713ZM369.473 104.798C369.473 105.158 369.449 105.482 369.401 105.77H362.111C362.171 106.49 362.423 107.054 362.867 107.462C363.311 107.87 363.857 108.074 364.505 108.074C365.441 108.074 366.107 107.672 366.503 106.868H369.221C368.933 107.828 368.381 108.62 367.565 109.244C366.749 109.856 365.747 110.162 364.559 110.162C363.599 110.162 362.735 109.952 361.967 109.532C361.211 109.1 360.617 108.494 360.185 107.714C359.765 106.934 359.555 106.034 359.555 105.014C359.555 103.982 359.765 103.076 360.185 102.296C360.605 101.516 361.193 100.916 361.949 100.496C362.705 100.076 363.575 99.8662 364.559 99.8662C365.507 99.8662 366.353 100.07 367.097 100.478C367.853 100.886 368.435 101.468 368.843 102.224C369.263 102.968 369.473 103.826 369.473 104.798ZM366.863 104.078C366.851 103.43 366.617 102.914 366.161 102.53C365.705 102.134 365.147 101.936 364.487 101.936C363.863 101.936 363.335 102.128 362.903 102.512C362.483 102.884 362.225 103.406 362.129 104.078H366.863Z" fill="white"/>
<path d="M263.758 128.656C264.014 128.155 264.377 127.766 264.846 127.488C265.326 127.211 265.908 127.072 266.59 127.072V128.576H266.206C264.574 128.576 263.758 129.461 263.758 131.232V136H262.302V127.232H263.758V128.656ZM276.271 131.28C276.271 131.557 276.255 131.851 276.223 132.16H269.215C269.268 133.024 269.562 133.701 270.095 134.192C270.639 134.672 271.295 134.912 272.063 134.912C272.692 134.912 273.215 134.768 273.631 134.48C274.057 134.181 274.356 133.787 274.527 133.296H276.095C275.86 134.139 275.391 134.827 274.687 135.36C273.983 135.883 273.108 136.144 272.063 136.144C271.231 136.144 270.484 135.957 269.823 135.584C269.172 135.211 268.66 134.683 268.287 134C267.914 133.307 267.727 132.507 267.727 131.6C267.727 130.693 267.908 129.899 268.271 129.216C268.634 128.533 269.14 128.011 269.791 127.648C270.452 127.275 271.21 127.088 272.063 127.088C272.895 127.088 273.631 127.27 274.271 127.632C274.911 127.995 275.401 128.496 275.743 129.136C276.095 129.765 276.271 130.48 276.271 131.28ZM274.767 130.976C274.767 130.421 274.644 129.947 274.399 129.552C274.153 129.147 273.817 128.843 273.391 128.64C272.975 128.427 272.511 128.32 271.999 128.32C271.263 128.32 270.634 128.555 270.111 129.024C269.599 129.493 269.306 130.144 269.231 130.976H274.767ZM281.296 136.144C280.625 136.144 280.022 136.032 279.489 135.808C278.955 135.573 278.534 135.253 278.225 134.848C277.915 134.432 277.745 133.957 277.713 133.424H279.217C279.259 133.861 279.462 134.219 279.825 134.496C280.198 134.773 280.683 134.912 281.28 134.912C281.835 134.912 282.272 134.789 282.592 134.544C282.912 134.299 283.072 133.989 283.072 133.616C283.072 133.232 282.902 132.949 282.56 132.768C282.219 132.576 281.691 132.389 280.977 132.208C280.326 132.037 279.793 131.867 279.377 131.696C278.971 131.515 278.619 131.253 278.321 130.912C278.033 130.56 277.889 130.101 277.889 129.536C277.889 129.088 278.022 128.677 278.289 128.304C278.555 127.931 278.934 127.638 279.425 127.424C279.915 127.2 280.475 127.088 281.104 127.088C282.075 127.088 282.859 127.334 283.456 127.824C284.054 128.315 284.374 128.987 284.416 129.84H282.96C282.928 129.381 282.742 129.013 282.4 128.736C282.07 128.459 281.622 128.32 281.056 128.32C280.534 128.32 280.118 128.432 279.809 128.656C279.499 128.88 279.345 129.173 279.345 129.536C279.345 129.824 279.435 130.064 279.617 130.256C279.809 130.437 280.043 130.587 280.321 130.704C280.609 130.811 281.003 130.933 281.504 131.072C282.134 131.243 282.646 131.413 283.04 131.584C283.435 131.744 283.771 131.989 284.048 132.32C284.336 132.651 284.486 133.083 284.496 133.616C284.496 134.096 284.363 134.528 284.096 134.912C283.83 135.296 283.451 135.6 282.96 135.824C282.48 136.037 281.926 136.144 281.296 136.144ZM294.328 127.232V136H292.872V134.704C292.594 135.152 292.205 135.504 291.704 135.76C291.213 136.005 290.669 136.128 290.072 136.128C289.389 136.128 288.776 135.989 288.232 135.712C287.688 135.424 287.256 134.997 286.936 134.432C286.626 133.867 286.472 133.179 286.472 132.368V127.232H287.912V132.176C287.912 133.04 288.13 133.707 288.568 134.176C289.005 134.635 289.602 134.864 290.36 134.864C291.138 134.864 291.752 134.624 292.2 134.144C292.648 133.664 292.872 132.965 292.872 132.048V127.232H294.328ZM298.242 124.16V136H296.786V124.16H298.242ZM302.499 128.432V133.6C302.499 134.027 302.59 134.331 302.771 134.512C302.953 134.683 303.267 134.768 303.715 134.768H304.787V136H303.475C302.665 136 302.057 135.813 301.651 135.44C301.246 135.067 301.043 134.453 301.043 133.6V128.432H299.907V127.232H301.043V125.024H302.499V127.232H304.787V128.432H302.499ZM309.655 136.144C308.983 136.144 308.381 136.032 307.847 135.808C307.314 135.573 306.893 135.253 306.583 134.848C306.274 134.432 306.103 133.957 306.071 133.424H307.575C307.618 133.861 307.821 134.219 308.183 134.496C308.557 134.773 309.042 134.912 309.639 134.912C310.194 134.912 310.631 134.789 310.951 134.544C311.271 134.299 311.431 133.989 311.431 133.616C311.431 133.232 311.261 132.949 310.919 132.768C310.578 132.576 310.05 132.389 309.335 132.208C308.685 132.037 308.151 131.867 307.735 131.696C307.33 131.515 306.978 131.253 306.679 130.912C306.391 130.56 306.247 130.101 306.247 129.536C306.247 129.088 306.381 128.677 306.647 128.304C306.914 127.931 307.293 127.638 307.783 127.424C308.274 127.2 308.834 127.088 309.463 127.088C310.434 127.088 311.218 127.334 311.815 127.824C312.413 128.315 312.733 128.987 312.775 129.84H311.319C311.287 129.381 311.101 129.013 310.759 128.736C310.429 128.459 309.981 128.32 309.415 128.32C308.893 128.32 308.477 128.432 308.167 128.656C307.858 128.88 307.703 129.173 307.703 129.536C307.703 129.824 307.794 130.064 307.975 130.256C308.167 130.437 308.402 130.587 308.679 130.704C308.967 130.811 309.362 130.933 309.863 131.072C310.493 131.243 311.005 131.413 311.399 131.584C311.794 131.744 312.13 131.989 312.407 132.32C312.695 132.651 312.845 133.083 312.855 133.616C312.855 134.096 312.722 134.528 312.455 134.912C312.189 135.296 311.81 135.6 311.319 135.824C310.839 136.037 310.285 136.144 309.655 136.144ZM318.632 131.584C318.632 130.688 318.813 129.904 319.176 129.232C319.539 128.549 320.035 128.022 320.664 127.648C321.304 127.275 322.013 127.088 322.792 127.088C323.56 127.088 324.227 127.254 324.792 127.584C325.357 127.915 325.779 128.331 326.056 128.832V127.232H327.528V136H326.056V134.368C325.768 134.88 325.336 135.307 324.76 135.648C324.195 135.979 323.533 136.144 322.776 136.144C321.997 136.144 321.293 135.952 320.664 135.568C320.035 135.184 319.539 134.645 319.176 133.952C318.813 133.259 318.632 132.469 318.632 131.584ZM326.056 131.6C326.056 130.939 325.923 130.363 325.656 129.872C325.389 129.381 325.027 129.008 324.568 128.752C324.12 128.485 323.624 128.352 323.08 128.352C322.536 128.352 322.04 128.48 321.592 128.736C321.144 128.992 320.787 129.365 320.52 129.856C320.253 130.347 320.12 130.923 320.12 131.584C320.12 132.256 320.253 132.843 320.52 133.344C320.787 133.835 321.144 134.213 321.592 134.48C322.04 134.736 322.536 134.864 323.08 134.864C323.624 134.864 324.12 134.736 324.568 134.48C325.027 134.213 325.389 133.835 325.656 133.344C325.923 132.843 326.056 132.261 326.056 131.6ZM329.444 131.6C329.444 130.693 329.626 129.904 329.988 129.232C330.351 128.549 330.852 128.022 331.492 127.648C332.143 127.275 332.884 127.088 333.716 127.088C334.794 127.088 335.679 127.35 336.372 127.872C337.076 128.395 337.54 129.12 337.764 130.048H336.196C336.047 129.515 335.754 129.093 335.316 128.784C334.89 128.475 334.356 128.32 333.716 128.32C332.884 128.32 332.212 128.608 331.7 129.184C331.188 129.749 330.932 130.555 330.932 131.6C330.932 132.656 331.188 133.472 331.7 134.048C332.212 134.624 332.884 134.912 333.716 134.912C334.356 134.912 334.89 134.763 335.316 134.464C335.743 134.165 336.036 133.739 336.196 133.184H337.764C337.529 134.08 337.06 134.8 336.356 135.344C335.652 135.877 334.772 136.144 333.716 136.144C332.884 136.144 332.143 135.957 331.492 135.584C330.852 135.211 330.351 134.683 329.988 134C329.626 133.317 329.444 132.517 329.444 131.6ZM344.059 127.072C344.72 127.072 345.317 127.216 345.851 127.504C346.384 127.782 346.8 128.203 347.099 128.768C347.408 129.333 347.563 130.021 347.563 130.832V136H346.123V131.04C346.123 130.165 345.904 129.499 345.467 129.04C345.029 128.571 344.432 128.336 343.675 128.336C342.907 128.336 342.293 128.576 341.835 129.056C341.387 129.536 341.163 130.235 341.163 131.152V136H339.707V124.16H341.163V128.48C341.451 128.032 341.845 127.686 342.347 127.44C342.859 127.195 343.429 127.072 344.059 127.072ZM350.693 125.808C350.416 125.808 350.181 125.712 349.989 125.52C349.797 125.328 349.701 125.094 349.701 124.816C349.701 124.539 349.797 124.304 349.989 124.112C350.181 123.92 350.416 123.824 350.693 123.824C350.96 123.824 351.184 123.92 351.365 124.112C351.557 124.304 351.653 124.539 351.653 124.816C351.653 125.094 351.557 125.328 351.365 125.52C351.184 125.712 350.96 125.808 350.693 125.808ZM351.397 127.232V136H349.941V127.232H351.397ZM361.878 131.28C361.878 131.557 361.862 131.851 361.83 132.16H354.822C354.876 133.024 355.169 133.701 355.702 134.192C356.246 134.672 356.902 134.912 357.67 134.912C358.3 134.912 358.822 134.768 359.238 134.48C359.665 134.181 359.964 133.787 360.134 133.296H361.702C361.468 134.139 360.998 134.827 360.294 135.36C359.59 135.883 358.716 136.144 357.67 136.144C356.838 136.144 356.092 135.957 355.43 135.584C354.78 135.211 354.268 134.683 353.894 134C353.521 133.307 353.334 132.507 353.334 131.6C353.334 130.693 353.516 129.899 353.878 129.216C354.241 128.533 354.748 128.011 355.398 127.648C356.06 127.275 356.817 127.088 357.67 127.088C358.502 127.088 359.238 127.27 359.878 127.632C360.518 127.995 361.009 128.496 361.35 129.136C361.702 129.765 361.878 130.48 361.878 131.28ZM360.374 130.976C360.374 130.421 360.252 129.947 360.006 129.552C359.761 129.147 359.425 128.843 358.998 128.64C358.582 128.427 358.118 128.32 357.606 128.32C356.87 128.32 356.241 128.555 355.718 129.024C355.206 129.493 354.913 130.144 354.838 130.976H360.374ZM367.064 134.656L369.784 127.232H371.336L367.896 136H366.2L362.76 127.232H364.328L367.064 134.656ZM380.768 131.28C380.768 131.557 380.752 131.851 380.72 132.16H373.713C373.766 133.024 374.059 133.701 374.593 134.192C375.137 134.672 375.793 134.912 376.561 134.912C377.19 134.912 377.713 134.768 378.128 134.48C378.555 134.181 378.854 133.787 379.024 133.296H380.592C380.358 134.139 379.888 134.827 379.184 135.36C378.48 135.883 377.606 136.144 376.561 136.144C375.729 136.144 374.982 135.957 374.321 135.584C373.67 135.211 373.158 134.683 372.785 134C372.411 133.307 372.225 132.507 372.225 131.6C372.225 130.693 372.406 129.899 372.769 129.216C373.131 128.533 373.638 128.011 374.289 127.648C374.95 127.275 375.707 127.088 376.561 127.088C377.393 127.088 378.128 127.27 378.768 127.632C379.408 127.995 379.899 128.496 380.24 129.136C380.592 129.765 380.768 130.48 380.768 131.28ZM379.264 130.976C379.264 130.421 379.142 129.947 378.896 129.552C378.651 129.147 378.315 128.843 377.888 128.64C377.473 128.427 377.009 128.32 376.497 128.32C375.761 128.32 375.131 128.555 374.609 129.024C374.097 129.493 373.803 130.144 373.729 130.976H379.264ZM382.146 131.584C382.146 130.688 382.328 129.904 382.69 129.232C383.053 128.549 383.549 128.022 384.178 127.648C384.818 127.275 385.533 127.088 386.322 127.088C387.005 127.088 387.639 127.248 388.226 127.568C388.813 127.878 389.261 128.288 389.57 128.8V124.16H391.042V136H389.57V134.352C389.282 134.875 388.855 135.307 388.29 135.648C387.725 135.979 387.064 136.144 386.306 136.144C385.528 136.144 384.818 135.952 384.178 135.568C383.549 135.184 383.053 134.645 382.69 133.952C382.328 133.259 382.146 132.469 382.146 131.584ZM389.57 131.6C389.57 130.939 389.437 130.363 389.17 129.872C388.903 129.381 388.541 129.008 388.082 128.752C387.634 128.485 387.138 128.352 386.594 128.352C386.05 128.352 385.554 128.48 385.106 128.736C384.658 128.992 384.301 129.365 384.034 129.856C383.768 130.347 383.634 130.923 383.634 131.584C383.634 132.256 383.768 132.843 384.034 133.344C384.301 133.835 384.658 134.213 385.106 134.48C385.554 134.736 386.05 134.864 386.594 134.864C387.138 134.864 387.634 134.736 388.082 134.48C388.541 134.213 388.903 133.835 389.17 133.344C389.437 132.843 389.57 132.261 389.57 131.6ZM401.592 136.144C400.771 136.144 400.024 135.957 399.352 135.584C398.691 135.211 398.168 134.683 397.784 134C397.411 133.307 397.224 132.507 397.224 131.6C397.224 130.704 397.416 129.915 397.8 129.232C398.195 128.539 398.728 128.011 399.4 127.648C400.072 127.275 400.824 127.088 401.656 127.088C402.488 127.088 403.24 127.275 403.912 127.648C404.584 128.011 405.112 128.533 405.496 129.216C405.891 129.899 406.088 130.693 406.088 131.6C406.088 132.507 405.885 133.307 405.48 134C405.085 134.683 404.547 135.211 403.864 135.584C403.181 135.957 402.424 136.144 401.592 136.144ZM401.592 134.864C402.115 134.864 402.605 134.741 403.064 134.496C403.523 134.251 403.891 133.883 404.168 133.392C404.456 132.901 404.6 132.304 404.6 131.6C404.6 130.896 404.461 130.299 404.184 129.808C403.907 129.317 403.544 128.955 403.096 128.72C402.648 128.475 402.163 128.352 401.64 128.352C401.107 128.352 400.616 128.475 400.168 128.72C399.731 128.955 399.379 129.317 399.112 129.808C398.845 130.299 398.712 130.896 398.712 131.6C398.712 132.315 398.84 132.917 399.096 133.408C399.363 133.899 399.715 134.267 400.152 134.512C400.589 134.747 401.069 134.864 401.592 134.864ZM411.266 134.656L413.986 127.232H415.538L412.098 136H410.402L406.962 127.232H408.53L411.266 134.656ZM424.971 131.28C424.971 131.557 424.955 131.851 424.923 132.16H417.915C417.968 133.024 418.261 133.701 418.795 134.192C419.339 134.672 419.995 134.912 420.763 134.912C421.392 134.912 421.915 134.768 422.331 134.48C422.757 134.181 423.056 133.787 423.227 133.296H424.795C424.56 134.139 424.091 134.827 423.387 135.36C422.683 135.883 421.808 136.144 420.763 136.144C419.931 136.144 419.184 135.957 418.523 135.584C417.872 135.211 417.36 134.683 416.987 134C416.613 133.307 416.427 132.507 416.427 131.6C416.427 130.693 416.608 129.899 416.971 129.216C417.333 128.533 417.84 128.011 418.491 127.648C419.152 127.275 419.909 127.088 420.763 127.088C421.595 127.088 422.331 127.27 422.971 127.632C423.611 127.995 424.101 128.496 424.443 129.136C424.795 129.765 424.971 130.48 424.971 131.28ZM423.467 130.976C423.467 130.421 423.344 129.947 423.099 129.552C422.853 129.147 422.517 128.843 422.091 128.64C421.675 128.427 421.211 128.32 420.699 128.32C419.963 128.32 419.333 128.555 418.811 129.024C418.299 129.493 418.005 130.144 417.931 130.976H423.467ZM428.348 128.656C428.604 128.155 428.967 127.766 429.436 127.488C429.916 127.211 430.498 127.072 431.18 127.072V128.576H430.796C429.164 128.576 428.348 129.461 428.348 131.232V136H426.892V127.232H428.348V128.656ZM438.583 128.864C438.881 128.342 439.319 127.915 439.895 127.584C440.47 127.254 441.126 127.088 441.862 127.088C442.652 127.088 443.361 127.275 443.99 127.648C444.62 128.022 445.116 128.549 445.478 129.232C445.841 129.904 446.022 130.688 446.022 131.584C446.022 132.469 445.841 133.259 445.478 133.952C445.116 134.645 444.614 135.184 443.974 135.568C443.345 135.952 442.641 136.144 441.862 136.144C441.105 136.144 440.438 135.979 439.863 135.648C439.297 135.317 438.871 134.896 438.583 134.384V136H437.127V124.16H438.583V128.864ZM444.534 131.584C444.534 130.923 444.401 130.347 444.134 129.856C443.868 129.365 443.505 128.992 443.046 128.736C442.598 128.48 442.102 128.352 441.558 128.352C441.025 128.352 440.529 128.485 440.071 128.752C439.623 129.008 439.26 129.387 438.983 129.888C438.716 130.379 438.583 130.949 438.583 131.6C438.583 132.261 438.716 132.843 438.983 133.344C439.26 133.835 439.623 134.213 440.071 134.48C440.529 134.736 441.025 134.864 441.558 134.864C442.102 134.864 442.598 134.736 443.046 134.48C443.505 134.213 443.868 133.835 444.134 133.344C444.401 132.843 444.534 132.256 444.534 131.584ZM447.395 131.584C447.395 130.688 447.576 129.904 447.939 129.232C448.301 128.549 448.797 128.022 449.427 127.648C450.067 127.275 450.776 127.088 451.555 127.088C452.323 127.088 452.989 127.254 453.555 127.584C454.12 127.915 454.541 128.331 454.819 128.832V127.232H456.291V136H454.819V134.368C454.531 134.88 454.099 135.307 453.523 135.648C452.957 135.979 452.296 136.144 451.539 136.144C450.76 136.144 450.056 135.952 449.427 135.568C448.797 135.184 448.301 134.645 447.939 133.952C447.576 133.259 447.395 132.469 447.395 131.584ZM454.819 131.6C454.819 130.939 454.685 130.363 454.419 129.872C454.152 129.381 453.789 129.008 453.331 128.752C452.883 128.485 452.387 128.352 451.843 128.352C451.299 128.352 450.803 128.48 450.355 128.736C449.907 128.992 449.549 129.365 449.283 129.856C449.016 130.347 448.883 130.923 448.883 131.584C448.883 132.256 449.016 132.843 449.283 133.344C449.549 133.835 449.907 134.213 450.355 134.48C450.803 134.736 451.299 134.864 451.843 134.864C452.387 134.864 452.883 134.736 453.331 134.48C453.789 134.213 454.152 133.835 454.419 133.344C454.685 132.843 454.819 132.261 454.819 131.6ZM461.855 136.144C461.183 136.144 460.58 136.032 460.047 135.808C459.514 135.573 459.092 135.253 458.783 134.848C458.474 134.432 458.303 133.957 458.271 133.424H459.775C459.818 133.861 460.02 134.219 460.383 134.496C460.756 134.773 461.242 134.912 461.839 134.912C462.394 134.912 462.831 134.789 463.151 134.544C463.471 134.299 463.631 133.989 463.631 133.616C463.631 133.232 463.46 132.949 463.119 132.768C462.778 132.576 462.25 132.389 461.535 132.208C460.884 132.037 460.351 131.867 459.935 131.696C459.53 131.515 459.178 131.253 458.879 130.912C458.591 130.56 458.447 130.101 458.447 129.536C458.447 129.088 458.58 128.677 458.847 128.304C459.114 127.931 459.492 127.638 459.983 127.424C460.474 127.2 461.034 127.088 461.663 127.088C462.634 127.088 463.418 127.334 464.015 127.824C464.612 128.315 464.932 128.987 464.975 129.84H463.519C463.487 129.381 463.3 129.013 462.959 128.736C462.628 128.459 462.18 128.32 461.615 128.32C461.092 128.32 460.676 128.432 460.367 128.656C460.058 128.88 459.903 129.173 459.903 129.536C459.903 129.824 459.994 130.064 460.175 130.256C460.367 130.437 460.602 130.587 460.879 130.704C461.167 130.811 461.562 130.933 462.063 131.072C462.692 131.243 463.204 131.413 463.599 131.584C463.994 131.744 464.33 131.989 464.607 132.32C464.895 132.651 465.044 133.083 465.055 133.616C465.055 134.096 464.922 134.528 464.655 134.912C464.388 135.296 464.01 135.6 463.519 135.824C463.039 136.037 462.484 136.144 461.855 136.144ZM475.11 131.28C475.11 131.557 475.094 131.851 475.062 132.16H468.054C468.108 133.024 468.401 133.701 468.934 134.192C469.478 134.672 470.134 134.912 470.902 134.912C471.532 134.912 472.054 134.768 472.47 134.48C472.897 134.181 473.195 133.787 473.366 133.296H474.934C474.699 134.139 474.23 134.827 473.526 135.36C472.822 135.883 471.948 136.144 470.902 136.144C470.07 136.144 469.324 135.957 468.662 135.584C468.012 135.211 467.5 134.683 467.126 134C466.753 133.307 466.566 132.507 466.566 131.6C466.566 130.693 466.748 129.899 467.11 129.216C467.473 128.533 467.98 128.011 468.63 127.648C469.292 127.275 470.049 127.088 470.902 127.088C471.734 127.088 472.47 127.27 473.11 127.632C473.75 127.995 474.241 128.496 474.582 129.136C474.934 129.765 475.11 130.48 475.11 131.28ZM473.606 130.976C473.606 130.421 473.483 129.947 473.238 129.552C472.993 129.147 472.657 128.843 472.23 128.64C471.814 128.427 471.35 128.32 470.838 128.32C470.102 128.32 469.473 128.555 468.95 129.024C468.438 129.493 468.145 130.144 468.07 130.976H473.606ZM478.488 124.16V136H477.032V124.16H478.488ZM481.721 125.808C481.444 125.808 481.209 125.712 481.017 125.52C480.825 125.328 480.729 125.094 480.729 124.816C480.729 124.539 480.825 124.304 481.017 124.112C481.209 123.92 481.444 123.824 481.721 123.824C481.988 123.824 482.212 123.92 482.393 124.112C482.585 124.304 482.681 124.539 482.681 124.816C482.681 125.094 482.585 125.328 482.393 125.52C482.212 125.712 481.988 125.808 481.721 125.808ZM482.425 127.232V136H480.969V127.232H482.425ZM489.179 127.072C490.245 127.072 491.109 127.398 491.771 128.048C492.432 128.688 492.763 129.616 492.763 130.832V136H491.323V131.04C491.323 130.165 491.104 129.499 490.667 129.04C490.229 128.571 489.632 128.336 488.875 128.336C488.107 128.336 487.493 128.576 487.035 129.056C486.587 129.536 486.363 130.235 486.363 131.152V136H484.907V127.232H486.363V128.48C486.651 128.032 487.04 127.686 487.531 127.44C488.032 127.195 488.581 127.072 489.179 127.072ZM503.141 131.28C503.141 131.557 503.125 131.851 503.093 132.16H496.085C496.138 133.024 496.432 133.701 496.965 134.192C497.509 134.672 498.165 134.912 498.933 134.912C499.562 134.912 500.085 134.768 500.501 134.48C500.927 134.181 501.226 133.787 501.397 133.296H502.965C502.73 134.139 502.261 134.827 501.557 135.36C500.853 135.883 499.978 136.144 498.933 136.144C498.101 136.144 497.354 135.957 496.693 135.584C496.042 135.211 495.53 134.683 495.157 134C494.784 133.307 494.597 132.507 494.597 131.6C494.597 130.693 494.778 129.899 495.141 129.216C495.504 128.533 496.01 128.011 496.661 127.648C497.322 127.275 498.08 127.088 498.933 127.088C499.765 127.088 500.501 127.27 501.141 127.632C501.781 127.995 502.271 128.496 502.613 129.136C502.965 129.765 503.141 130.48 503.141 131.28ZM501.637 130.976C501.637 130.421 501.514 129.947 501.269 129.552C501.023 129.147 500.687 128.843 500.261 128.64C499.845 128.427 499.381 128.32 498.869 128.32C498.133 128.32 497.504 128.555 496.981 129.024C496.469 129.493 496.176 130.144 496.101 130.976H501.637ZM510.784 128.848C511.072 128.347 511.499 127.931 512.064 127.6C512.64 127.259 513.307 127.088 514.064 127.088C514.843 127.088 515.547 127.275 516.176 127.648C516.816 128.022 517.317 128.549 517.68 129.232C518.043 129.904 518.224 130.688 518.224 131.584C518.224 132.469 518.043 133.259 517.68 133.952C517.317 134.645 516.816 135.184 516.176 135.568C515.547 135.952 514.843 136.144 514.064 136.144C513.317 136.144 512.656 135.979 512.08 135.648C511.515 135.307 511.083 134.885 510.784 134.384V140.16H509.328V127.232H510.784V128.848ZM516.736 131.584C516.736 130.923 516.603 130.347 516.336 129.856C516.069 129.365 515.707 128.992 515.248 128.736C514.8 128.48 514.304 128.352 513.76 128.352C513.227 128.352 512.731 128.485 512.272 128.752C511.824 129.008 511.461 129.387 511.184 129.888C510.917 130.379 510.784 130.949 510.784 131.6C510.784 132.261 510.917 132.843 511.184 133.344C511.461 133.835 511.824 134.213 512.272 134.48C512.731 134.736 513.227 134.864 513.76 134.864C514.304 134.864 514.8 134.736 515.248 134.48C515.707 134.213 516.069 133.835 516.336 133.344C516.603 132.843 516.736 132.256 516.736 131.584ZM528.14 131.28C528.14 131.557 528.124 131.851 528.092 132.16H521.084C521.138 133.024 521.431 133.701 521.964 134.192C522.508 134.672 523.164 134.912 523.932 134.912C524.562 134.912 525.084 134.768 525.5 134.48C525.927 134.181 526.226 133.787 526.396 133.296H527.964C527.73 134.139 527.26 134.827 526.556 135.36C525.852 135.883 524.978 136.144 523.932 136.144C523.1 136.144 522.354 135.957 521.692 135.584C521.042 135.211 520.53 134.683 520.156 134C519.783 133.307 519.596 132.507 519.596 131.6C519.596 130.693 519.778 129.899 520.14 129.216C520.503 128.533 521.01 128.011 521.66 127.648C522.322 127.275 523.079 127.088 523.932 127.088C524.764 127.088 525.5 127.27 526.14 127.632C526.78 127.995 527.271 128.496 527.612 129.136C527.964 129.765 528.14 130.48 528.14 131.28ZM526.636 130.976C526.636 130.421 526.514 129.947 526.268 129.552C526.023 129.147 525.687 128.843 525.26 128.64C524.844 128.427 524.38 128.32 523.868 128.32C523.132 128.32 522.503 128.555 521.98 129.024C521.468 129.493 521.175 130.144 521.1 130.976H526.636ZM531.518 128.656C531.774 128.155 532.137 127.766 532.606 127.488C533.086 127.211 533.667 127.072 534.35 127.072V128.576H533.966C532.334 128.576 531.518 129.461 531.518 131.232V136H530.062V127.232H531.518V128.656ZM539.599 128.432H537.759V136H536.303V128.432H535.167V127.232H536.303V126.608C536.303 125.627 536.553 124.912 537.055 124.464C537.567 124.006 538.383 123.776 539.503 123.776V124.992C538.863 124.992 538.409 125.12 538.143 125.376C537.887 125.622 537.759 126.032 537.759 126.608V127.232H539.599V128.432ZM545.12 136.144C544.299 136.144 543.552 135.957 542.88 135.584C542.219 135.211 541.696 134.683 541.312 134C540.939 133.307 540.752 132.507 540.752 131.6C540.752 130.704 540.944 129.915 541.328 129.232C541.723 128.539 542.256 128.011 542.928 127.648C543.6 127.275 544.352 127.088 545.184 127.088C546.016 127.088 546.768 127.275 547.44 127.648C548.112 128.011 548.64 128.533 549.024 129.216C549.419 129.899 549.616 130.693 549.616 131.6C549.616 132.507 549.413 133.307 549.008 134C548.613 134.683 548.075 135.211 547.392 135.584C546.709 135.957 545.952 136.144 545.12 136.144ZM545.12 134.864C545.643 134.864 546.133 134.741 546.592 134.496C547.051 134.251 547.419 133.883 547.696 133.392C547.984 132.901 548.128 132.304 548.128 131.6C548.128 130.896 547.989 130.299 547.712 129.808C547.435 129.317 547.072 128.955 546.624 128.72C546.176 128.475 545.691 128.352 545.168 128.352C544.635 128.352 544.144 128.475 543.696 128.72C543.259 128.955 542.907 129.317 542.64 129.808C542.373 130.299 542.24 130.896 542.24 131.6C542.24 132.315 542.368 132.917 542.624 133.408C542.891 133.899 543.243 134.267 543.68 134.512C544.117 134.747 544.597 134.864 545.12 134.864ZM552.986 128.656C553.242 128.155 553.605 127.766 554.074 127.488C554.554 127.211 555.136 127.072 555.818 127.072V128.576H555.434C553.802 128.576 552.986 129.461 552.986 131.232V136H551.53V127.232H552.986V128.656ZM568.043 127.072C568.725 127.072 569.333 127.216 569.867 127.504C570.4 127.782 570.821 128.203 571.131 128.768C571.44 129.333 571.595 130.021 571.595 130.832V136H570.155V131.04C570.155 130.165 569.936 129.499 569.499 129.04C569.072 128.571 568.491 128.336 567.755 128.336C566.997 128.336 566.395 128.581 565.947 129.072C565.499 129.552 565.275 130.251 565.275 131.168V136H563.835V131.04C563.835 130.165 563.616 129.499 563.179 129.04C562.752 128.571 562.171 128.336 561.435 128.336C560.678 128.336 560.075 128.581 559.627 129.072C559.179 129.552 558.955 130.251 558.955 131.168V136H557.499V127.232H558.955V128.496C559.243 128.038 559.627 127.686 560.107 127.44C560.598 127.195 561.136 127.072 561.723 127.072C562.459 127.072 563.109 127.238 563.675 127.568C564.24 127.899 564.661 128.384 564.939 129.024C565.184 128.406 565.589 127.926 566.155 127.584C566.72 127.243 567.349 127.072 568.043 127.072ZM573.439 131.584C573.439 130.688 573.62 129.904 573.983 129.232C574.346 128.549 574.842 128.022 575.471 127.648C576.111 127.275 576.82 127.088 577.599 127.088C578.367 127.088 579.033 127.254 579.599 127.584C580.164 127.915 580.585 128.331 580.863 128.832V127.232H582.335V136H580.863V134.368C580.575 134.88 580.143 135.307 579.567 135.648C579.001 135.979 578.34 136.144 577.583 136.144C576.804 136.144 576.1 135.952 575.471 135.568C574.842 135.184 574.346 134.645 573.983 133.952C573.62 133.259 573.439 132.469 573.439 131.584ZM580.863 131.6C580.863 130.939 580.729 130.363 580.463 129.872C580.196 129.381 579.833 129.008 579.375 128.752C578.927 128.485 578.431 128.352 577.887 128.352C577.343 128.352 576.847 128.48 576.399 128.736C575.951 128.992 575.594 129.365 575.327 129.856C575.06 130.347 574.927 130.923 574.927 131.584C574.927 132.256 575.06 132.843 575.327 133.344C575.594 133.835 575.951 134.213 576.399 134.48C576.847 134.736 577.343 134.864 577.887 134.864C578.431 134.864 578.927 134.736 579.375 134.48C579.833 134.213 580.196 133.835 580.463 133.344C580.729 132.843 580.863 132.261 580.863 131.6ZM589.067 127.072C590.134 127.072 590.998 127.398 591.659 128.048C592.32 128.688 592.651 129.616 592.651 130.832V136H591.211V131.04C591.211 130.165 590.992 129.499 590.555 129.04C590.118 128.571 589.52 128.336 588.763 128.336C587.995 128.336 587.382 128.576 586.923 129.056C586.475 129.536 586.251 130.235 586.251 131.152V136H584.795V127.232H586.251V128.48C586.539 128.032 586.928 127.686 587.419 127.44C587.92 127.195 588.47 127.072 589.067 127.072ZM594.485 131.6C594.485 130.693 594.667 129.904 595.029 129.232C595.392 128.549 595.893 128.022 596.533 127.648C597.184 127.275 597.925 127.088 598.757 127.088C599.835 127.088 600.72 127.35 601.413 127.872C602.117 128.395 602.581 129.12 602.805 130.048H601.237C601.088 129.515 600.795 129.093 600.357 128.784C599.931 128.475 599.397 128.32 598.757 128.32C597.925 128.32 597.253 128.608 596.741 129.184C596.229 129.749 595.973 130.555 595.973 131.6C595.973 132.656 596.229 133.472 596.741 134.048C597.253 134.624 597.925 134.912 598.757 134.912C599.397 134.912 599.931 134.763 600.357 134.464C600.784 134.165 601.077 133.739 601.237 133.184H602.805C602.571 134.08 602.101 134.8 601.397 135.344C600.693 135.877 599.813 136.144 598.757 136.144C597.925 136.144 597.184 135.957 596.533 135.584C595.893 135.211 595.392 134.683 595.029 134C594.667 133.317 594.485 132.517 594.485 131.6ZM612.748 131.28C612.748 131.557 612.732 131.851 612.7 132.16H605.692C605.745 133.024 606.039 133.701 606.572 134.192C607.116 134.672 607.772 134.912 608.54 134.912C609.169 134.912 609.692 134.768 610.108 134.48C610.534 134.181 610.833 133.787 611.004 133.296H612.572C612.337 134.139 611.868 134.827 611.164 135.36C610.46 135.883 609.585 136.144 608.54 136.144C607.708 136.144 606.961 135.957 606.3 135.584C605.649 135.211 605.137 134.683 604.764 134C604.391 133.307 604.204 132.507 604.204 131.6C604.204 130.693 604.385 129.899 604.748 129.216C605.111 128.533 605.617 128.011 606.268 127.648C606.929 127.275 607.686 127.088 608.54 127.088C609.372 127.088 610.108 127.27 610.748 127.632C611.388 127.995 611.878 128.496 612.22 129.136C612.572 129.765 612.748 130.48 612.748 131.28ZM611.244 130.976C611.244 130.421 611.121 129.947 610.876 129.552C610.63 129.147 610.294 128.843 609.868 128.64C609.452 128.427 608.988 128.32 608.476 128.32C607.74 128.32 607.11 128.555 606.588 129.024C606.076 129.493 605.783 130.144 605.708 130.976H611.244ZM629.479 127.072C630.161 127.072 630.769 127.216 631.303 127.504C631.836 127.782 632.257 128.203 632.567 128.768C632.876 129.333 633.031 130.021 633.031 130.832V136H631.591V131.04C631.591 130.165 631.372 129.499 630.935 129.04C630.508 128.571 629.927 128.336 629.191 128.336C628.434 128.336 627.831 128.581 627.383 129.072C626.935 129.552 626.711 130.251 626.711 131.168V136H625.271V131.04C625.271 130.165 625.052 129.499 624.615 129.04C624.188 128.571 623.607 128.336 622.871 128.336C622.114 128.336 621.511 128.581 621.063 129.072C620.615 129.552 620.391 130.251 620.391 131.168V136H618.935V127.232H620.391V128.496C620.679 128.038 621.063 127.686 621.543 127.44C622.034 127.195 622.572 127.072 623.159 127.072C623.895 127.072 624.546 127.238 625.111 127.568C625.676 127.899 626.098 128.384 626.375 129.024C626.62 128.406 627.026 127.926 627.591 127.584C628.156 127.243 628.786 127.072 629.479 127.072ZM643.419 131.28C643.419 131.557 643.403 131.851 643.371 132.16H636.363C636.416 133.024 636.71 133.701 637.243 134.192C637.787 134.672 638.443 134.912 639.211 134.912C639.84 134.912 640.363 134.768 640.779 134.48C641.206 134.181 641.504 133.787 641.675 133.296H643.243C643.008 134.139 642.539 134.827 641.835 135.36C641.131 135.883 640.256 136.144 639.211 136.144C638.379 136.144 637.632 135.957 636.971 135.584C636.32 135.211 635.808 134.683 635.435 134C635.062 133.307 634.875 132.507 634.875 131.6C634.875 130.693 635.056 129.899 635.419 129.216C635.782 128.533 636.288 128.011 636.939 127.648C637.6 127.275 638.358 127.088 639.211 127.088C640.043 127.088 640.779 127.27 641.419 127.632C642.059 127.995 642.55 128.496 642.891 129.136C643.243 129.765 643.419 130.48 643.419 131.28ZM641.915 130.976C641.915 130.421 641.792 129.947 641.547 129.552C641.302 129.147 640.966 128.843 640.539 128.64C640.123 128.427 639.659 128.32 639.147 128.32C638.411 128.32 637.782 128.555 637.259 129.024C636.747 129.493 636.454 130.144 636.379 130.976H641.915ZM647.117 128.432V133.6C647.117 134.027 647.207 134.331 647.389 134.512C647.57 134.683 647.885 134.768 648.333 134.768H649.405V136H648.093C647.282 136 646.674 135.813 646.269 135.44C645.863 135.067 645.661 134.453 645.661 133.6V128.432H644.525V127.232H645.661V125.024H647.117V127.232H649.405V128.432H647.117ZM652.625 128.656C652.881 128.155 653.243 127.766 653.713 127.488C654.193 127.211 654.774 127.072 655.457 127.072V128.576H655.073C653.441 128.576 652.625 129.461 652.625 131.232V136H651.169V127.232H652.625V128.656ZM657.889 125.808C657.612 125.808 657.377 125.712 657.185 125.52C656.993 125.328 656.897 125.094 656.897 124.816C656.897 124.539 656.993 124.304 657.185 124.112C657.377 123.92 657.612 123.824 657.889 123.824C658.156 123.824 658.38 123.92 658.561 124.112C658.753 124.304 658.849 124.539 658.849 124.816C658.849 125.094 658.753 125.328 658.561 125.52C658.38 125.712 658.156 125.808 657.889 125.808ZM658.593 127.232V136H657.137V127.232H658.593ZM660.531 131.6C660.531 130.693 660.712 129.904 661.075 129.232C661.437 128.549 661.939 128.022 662.579 127.648C663.229 127.275 663.971 127.088 664.803 127.088C665.88 127.088 666.765 127.35 667.459 127.872C668.163 128.395 668.627 129.12 668.851 130.048H667.283C667.133 129.515 666.84 129.093 666.403 128.784C665.976 128.475 665.443 128.32 664.803 128.32C663.971 128.32 663.299 128.608 662.787 129.184C662.275 129.749 662.019 130.555 662.019 131.6C662.019 132.656 662.275 133.472 662.787 134.048C663.299 134.624 663.971 134.912 664.803 134.912C665.443 134.912 665.976 134.763 666.403 134.464C666.829 134.165 667.123 133.739 667.283 133.184H668.851C668.616 134.08 668.147 134.8 667.443 135.344C666.739 135.877 665.859 136.144 664.803 136.144C663.971 136.144 663.229 135.957 662.579 135.584C661.939 135.211 661.437 134.683 661.075 134C660.712 133.317 660.531 132.517 660.531 131.6ZM673.897 136.144C673.225 136.144 672.623 136.032 672.089 135.808C671.556 135.573 671.135 135.253 670.825 134.848C670.516 134.432 670.345 133.957 670.313 133.424H671.817C671.86 133.861 672.063 134.219 672.425 134.496C672.799 134.773 673.284 134.912 673.881 134.912C674.436 134.912 674.873 134.789 675.193 134.544C675.513 134.299 675.673 133.989 675.673 133.616C675.673 133.232 675.503 132.949 675.161 132.768C674.82 132.576 674.292 132.389 673.577 132.208C672.927 132.037 672.393 131.867 671.977 131.696C671.572 131.515 671.22 131.253 670.921 130.912C670.633 130.56 670.489 130.101 670.489 129.536C670.489 129.088 670.623 128.677 670.889 128.304C671.156 127.931 671.535 127.638 672.025 127.424C672.516 127.2 673.076 127.088 673.705 127.088C674.676 127.088 675.46 127.334 676.057 127.824C676.655 128.315 676.975 128.987 677.017 129.84H675.561C675.529 129.381 675.343 129.013 675.001 128.736C674.671 128.459 674.223 128.32 673.657 128.32C673.135 128.32 672.719 128.432 672.409 128.656C672.1 128.88 671.945 129.173 671.945 129.536C671.945 129.824 672.036 130.064 672.217 130.256C672.409 130.437 672.644 130.587 672.921 130.704C673.209 130.811 673.604 130.933 674.105 131.072C674.735 131.243 675.247 131.413 675.641 131.584C676.036 131.744 676.372 131.989 676.649 132.32C676.937 132.651 677.087 133.083 677.097 133.616C677.097 134.096 676.964 134.528 676.697 134.912C676.431 135.296 676.052 135.6 675.561 135.824C675.081 136.037 674.527 136.144 673.897 136.144ZM679.616 136.096C679.339 136.096 679.105 136 678.913 135.808C678.721 135.616 678.625 135.381 678.625 135.104C678.625 134.827 678.721 134.592 678.913 134.4C679.105 134.208 679.339 134.112 679.616 134.112C679.883 134.112 680.107 134.208 680.288 134.4C680.48 134.592 680.576 134.827 680.576 135.104C680.576 135.381 680.48 135.616 680.288 135.808C680.107 136 679.883 136.096 679.616 136.096Z" fill="white"/>
<defs>
<filter id="filter0_dd_1630_2151" x="0.700195" y="0" width="776.59" height="249" filterUnits="userSpaceOnUse" color-interpolation-filters="sRGB">
<feFlood flood-opacity="0" result="BackgroundImageFix"/>
<feColorMatrix in="SourceAlpha" type="matrix" values="0 0 0 0 0 0 0 0 0 0 0 0 0 0 0 0 0 0 127 0" result="hardAlpha"/>
<feMorphology radius="4" operator="erode" in="SourceAlpha" result="effect1_dropShadow_1630_2151"/>
<feOffset dy="4"/>
<feGaussianBlur stdDeviation="37.5"/>
<feComposite in2="hardAlpha" operator="out"/>
<feColorMatrix type="matrix" values="0 0 0 0 0 0 0 0 0 0 0 0 0 0 0 0 0 0 0.1 0"/>
<feBlend mode="normal" in2="BackgroundImageFix" result="effect1_dropShadow_1630_2151"/>
<feColorMatrix in="SourceAlpha" type="matrix" values="0 0 0 0 0 0 0 0 0 0 0 0 0 0 0 0 0 0 127 0" result="hardAlpha"/>
<feMorphology radius="3" operator="erode" in="SourceAlpha" result="effect2_dropShadow_1630_2151"/>
<feOffset dy="10"/>
<feGaussianBlur stdDeviation="37.5"/>
<feComposite in2="hardAlpha" operator="out"/>
<feColorMatrix type="matrix" values="0 0 0 0 0 0 0 0 0 0 0 0 0 0 0 0 0 0 0.1 0"/>
<feBlend mode="normal" in2="effect1_dropShadow_1630_2151" result="effect2_dropShadow_1630_2151"/>
<feBlend mode="normal" in="SourceGraphic" in2="effect2_dropShadow_1630_2151" result="shape"/>
</filter>
<linearGradient id="paint0_linear_1630_2151" x1="73" y1="67" x2="711" y2="178.5" gradientUnits="userSpaceOnUse">
<stop stop-color="#CF3A7A"/>
<stop offset="1" stop-color="#9C27B0"/>
</linearGradient>
<clipPath id="clip0_1630_2151">
<rect x="72.7002" y="67" width="632.59" height="100" rx="12" fill="white"/>
</clipPath>
</defs>
</svg>
