<svg width="444" height="102" viewBox="0 0 444 102" fill="none" xmlns="http://www.w3.org/2000/svg">
<mask id="path-1-outside-1_158_552" maskUnits="userSpaceOnUse" x="-0.979492" y="-0.26416" width="446" height="103" fill="black">
<rect fill="white" x="-0.979492" y="-0.26416" width="446" height="103"/>
<path d="M0.961909 88.6051L12.9986 69.0617C16.148 71.5208 19.0817 73.5269 21.7996 75.08C24.5607 76.6332 27.2355 77.7764 29.8241 78.5098C32.4558 79.2001 35.1306 79.5453 37.8485 79.5453C40.5234 79.5453 42.8099 79.2433 44.7082 78.6393C46.6064 77.9921 48.0517 77.0862 49.044 75.9213C50.0794 74.7133 50.5971 73.2896 50.5971 71.6502C50.5971 69.5794 49.8637 67.8106 48.3968 66.3437C46.93 64.8769 44.967 63.5611 42.5079 62.3962C40.0919 61.2314 37.4387 60.0665 34.5482 58.9017C31.4419 57.6506 28.271 56.27 25.0353 54.76C21.7996 53.2069 18.8228 51.3302 16.1048 49.13C13.3869 46.9297 11.1866 44.2549 9.50408 41.1055C7.82153 37.913 6.98025 34.0302 6.98025 29.4571C6.98025 23.4172 8.49023 18.2617 11.5102 13.9906C14.5733 9.67637 18.7365 6.39756 23.9999 4.15416C29.3064 1.86763 35.3031 0.724355 41.9902 0.724355C46.8653 0.724355 52.0208 1.37149 57.4567 2.66576C62.8926 3.96002 68.3933 5.98771 73.9586 8.74882L63.9928 29.3277C60.8865 27.4294 57.4783 25.9194 53.768 24.7977C50.1009 23.6329 46.7358 23.0505 43.6727 23.0505C41.5588 23.0505 39.7037 23.3309 38.1074 23.8917C36.5543 24.4526 35.3463 25.2723 34.4834 26.3509C33.6206 27.3863 33.1892 28.6158 33.1892 30.0395C33.1892 31.9378 33.9226 33.6203 35.3894 35.0872C36.8563 36.5109 38.7977 37.8267 41.2136 39.0347C43.6296 40.2427 46.2613 41.4722 49.1087 42.7233C52.2149 44.0608 55.3859 45.5492 58.6215 47.1886C61.9004 48.828 64.8987 50.7694 67.6167 53.0128C70.3778 55.2562 72.5996 57.9526 74.2822 61.1019C75.9647 64.2082 76.806 67.94 76.806 72.2974C76.806 78.1216 75.2097 83.2555 72.0172 87.6991C68.8678 92.0997 64.4457 95.5295 58.751 97.9886C53.0993 100.448 46.5201 101.677 39.0134 101.677C32.0243 101.677 25.2941 100.556 18.8228 98.3121C12.3515 96.0687 6.39783 92.8331 0.961909 88.6051ZM112.14 99.7358H86.513V2.66576H112.14V43.2411C114.426 39.876 116.605 36.7697 118.676 33.9223C120.746 31.0749 122.494 28.7668 123.917 26.998L143.267 2.66576H173.423L137.637 47.6416L179.894 99.7358H146.826L121.264 68.2204L112.14 79.7394V99.7358ZM186.43 99.7358V2.66576H212.057V99.7358H186.43ZM291.007 99.7358H225V2.66576H250.626V77.4097H291.007V99.7358ZM364.781 99.7358H298.773V2.66576H324.399V77.4097H364.781V99.7358ZM368.016 88.6051L380.053 69.0617C383.202 71.5208 386.136 73.5269 388.854 75.08C391.615 76.6332 394.29 77.7764 396.878 78.5098C399.51 79.2001 402.185 79.5453 404.903 79.5453C407.578 79.5453 409.864 79.2433 411.763 78.6393C413.661 77.9921 415.106 77.0862 416.098 75.9213C417.134 74.7133 417.651 73.2896 417.651 71.6502C417.651 69.5794 416.918 67.8106 415.451 66.3437C413.984 64.8769 412.021 63.5611 409.562 62.3962C407.146 61.2314 404.493 60.0665 401.603 58.9017C398.496 57.6506 395.325 56.27 392.09 54.76C388.854 53.2069 385.877 51.3302 383.159 49.13C380.441 46.9297 378.241 44.2549 376.558 41.1055C374.876 37.913 374.035 34.0302 374.035 29.4571C374.035 23.4172 375.545 18.2617 378.565 13.9906C381.628 9.67637 385.791 6.39756 391.054 4.15416C396.361 1.86763 402.357 0.724355 409.045 0.724355C413.92 0.724355 419.075 1.37149 424.511 2.66576C429.947 3.96002 435.448 5.98771 441.013 8.74882L431.047 29.3277C427.941 27.4294 424.533 25.9194 420.822 24.7977C417.155 23.6329 413.79 23.0505 410.727 23.0505C408.613 23.0505 406.758 23.3309 405.162 23.8917C403.609 24.4526 402.401 25.2723 401.538 26.3509C400.675 27.3863 400.244 28.6158 400.244 30.0395C400.244 31.9378 400.977 33.6203 402.444 35.0872C403.911 36.5109 405.852 37.8267 408.268 39.0347C410.684 40.2427 413.316 41.4722 416.163 42.7233C419.269 44.0608 422.44 45.5492 425.676 47.1886C428.955 48.828 431.953 50.7694 434.671 53.0128C437.432 55.2562 439.654 57.9526 441.337 61.1019C443.019 64.2082 443.86 67.94 443.86 72.2974C443.86 78.1216 442.264 83.2555 439.072 87.6991C435.922 92.0997 431.5 95.5295 425.805 97.9886C420.154 100.448 413.574 101.677 406.068 101.677C399.079 101.677 392.348 100.556 385.877 98.3121C379.406 96.0687 373.452 92.8331 368.016 88.6051Z"/>
</mask>
<path d="M0.961909 88.6051L0.209595 88.1418L-0.205804 88.8163L0.41946 89.3026L0.961909 88.6051ZM12.9986 69.0617L13.5424 68.3653L12.7641 67.7576L12.2463 68.5983L12.9986 69.0617ZM21.7996 75.08L21.3612 75.8472L21.3664 75.8501L21.7996 75.08ZM29.8241 78.5098L29.5832 79.3599L29.5915 79.3623L29.5999 79.3645L29.8241 78.5098ZM44.7082 78.6393L44.9761 79.4812L44.9847 79.4785L44.9933 79.4756L44.7082 78.6393ZM49.044 75.9213L48.3731 75.3463L48.3714 75.3484L49.044 75.9213ZM42.5079 62.3962L42.1242 63.1921L42.1297 63.1947L42.5079 62.3962ZM34.5482 58.9017L34.8784 58.0822L34.8783 58.0821L34.5482 58.9017ZM25.0353 54.76L24.6529 55.5566L24.6616 55.5607L25.0353 54.76ZM9.50408 41.1055L8.72242 41.5175L8.72477 41.5219L9.50408 41.1055ZM11.5102 13.9906L10.7898 13.4791L10.7888 13.4805L11.5102 13.9906ZM23.9999 4.15416L24.3463 4.96697L24.3495 4.96559L23.9999 4.15416ZM73.9586 8.74882L74.7538 9.13392L75.1353 8.34627L74.3513 7.95732L73.9586 8.74882ZM63.9928 29.3277L63.532 30.0816L64.3633 30.5896L64.788 29.7128L63.9928 29.3277ZM53.768 24.7977L53.5005 25.6399L53.5123 25.6435L53.768 24.7977ZM38.1074 23.8917L37.8145 23.0581L37.8073 23.0607L38.1074 23.8917ZM34.4834 26.3509L35.1622 26.9165L35.1679 26.9097L35.1734 26.9028L34.4834 26.3509ZM35.3894 35.0872L34.7646 35.712L34.7741 35.7212L35.3894 35.0872ZM49.1087 42.7233L48.7532 43.5323L48.7593 43.5349L49.1087 42.7233ZM58.6215 47.1886L58.2222 47.9767L58.2264 47.9788L58.6215 47.1886ZM67.6167 53.0128L67.0542 53.6942L67.0595 53.6985L67.6167 53.0128ZM74.2822 61.1019L73.5029 61.5183L73.5053 61.5228L74.2822 61.1019ZM72.0172 87.6991L71.2996 87.1836L71.2987 87.1849L72.0172 87.6991ZM58.751 97.9886L58.4007 97.1774L58.3984 97.1784L58.751 97.9886ZM1.71422 89.0685L13.7509 69.525L12.2463 68.5983L0.209595 88.1418L1.71422 89.0685ZM12.4548 69.7581C15.629 72.2365 18.5981 74.2682 21.3613 75.8472L22.238 74.3129C19.5652 72.7856 16.667 70.8051 13.5424 68.3653L12.4548 69.7581ZM21.3664 75.8501C24.1779 77.4315 26.9171 78.6045 29.5832 79.3599L30.0649 77.6598C27.554 76.9483 24.9436 75.8348 22.2328 74.31L21.3664 75.8501ZM29.5999 79.3645C32.3047 80.0739 35.0548 80.4288 37.8485 80.4288V78.6617C35.2063 78.6617 32.6068 78.3263 30.0482 77.6552L29.5999 79.3645ZM37.8485 80.4288C40.5852 80.4288 42.9673 80.1204 44.9761 79.4812L44.4403 77.7973C42.6525 78.3661 40.4615 78.6617 37.8485 78.6617V80.4288ZM44.9933 79.4756C46.9964 78.7927 48.5939 77.8122 49.7166 76.4943L48.3714 75.3484C47.5095 76.3601 46.2164 77.1916 44.4231 77.803L44.9933 79.4756ZM49.7148 76.4963C50.892 75.123 51.4806 73.4935 51.4806 71.6502H49.7135C49.7135 73.0857 49.2668 74.3037 48.3731 75.3463L49.7148 76.4963ZM51.4806 71.6502C51.4806 69.3446 50.6538 67.3512 49.0216 65.719L47.7721 66.9685C49.0735 68.27 49.7135 69.8142 49.7135 71.6502H51.4806ZM49.0216 65.719C47.4647 64.1621 45.4098 62.7932 42.8861 61.5977L42.1297 63.1947C44.5242 64.329 46.3952 65.5917 47.7721 66.9685L49.0216 65.719ZM42.8916 61.6003C40.4556 60.4258 37.7842 59.2532 34.8784 58.0822L34.2179 59.7212C37.0932 60.8799 39.7283 62.0369 42.1242 63.1921L42.8916 61.6003ZM34.8783 58.0821C31.7876 56.8373 28.6312 55.4631 25.4089 53.9594L24.6616 55.5607C27.9107 57.0769 31.0962 58.4639 34.2181 59.7213L34.8783 58.0821ZM25.4176 53.9635C22.2423 52.4393 19.3239 50.5991 16.6608 48.4432L15.5489 49.8167C18.3217 52.0613 21.357 53.9745 24.6529 55.5566L25.4176 53.9635ZM16.6608 48.4432C14.0366 46.3189 11.9115 43.7366 10.2834 40.6892L8.72477 41.5219C10.4618 44.7731 12.7372 47.5406 15.5489 49.8167L16.6608 48.4432ZM10.2857 40.6936C8.68562 37.6575 7.86381 33.9241 7.86381 29.4571H6.0967C6.0967 34.1363 6.95744 38.1685 8.72243 41.5175L10.2857 40.6936ZM7.86381 29.4571C7.86381 23.5707 9.33284 18.6004 12.2316 14.5007L10.7888 13.4805C7.64763 17.923 6.0967 23.2637 6.0967 29.4571H7.86381ZM12.2306 14.5021C15.1916 10.3317 19.2204 7.15179 24.3463 4.96697L23.6534 3.34136C18.2527 5.64333 13.955 9.02103 10.7898 13.4791L12.2306 14.5021ZM24.3495 4.96559C29.5296 2.73353 35.4046 1.60791 41.9902 1.60791V-0.159198C35.2017 -0.159198 29.0832 1.00172 23.6502 3.34273L24.3495 4.96559ZM41.9902 1.60791C46.7872 1.60791 51.8736 2.24471 57.252 3.52528L57.6613 1.80623C52.1679 0.498272 46.9434 -0.159198 41.9902 -0.159198V1.60791ZM57.252 3.52528C62.6162 4.80245 68.0539 6.80567 73.5659 9.54031L74.3513 7.95732C68.7326 5.16976 63.1691 3.1176 57.6613 1.80623L57.252 3.52528ZM73.1634 8.36371L63.1975 28.9426L64.788 29.7128L74.7538 9.13392L73.1634 8.36371ZM64.4535 28.5738C61.2791 26.6338 57.8013 25.094 54.0237 23.952L53.5123 25.6435C57.1552 26.7448 60.4939 28.225 63.532 30.0816L64.4535 28.5738ZM54.0355 23.9556C50.3031 22.77 46.8464 22.1669 43.6727 22.1669V23.934C46.6253 23.934 49.8988 24.4958 53.5005 25.6398L54.0355 23.9556ZM43.6727 22.1669C41.4829 22.1669 39.525 22.4572 37.8145 23.0582L38.4003 24.7253C39.8823 24.2046 41.6347 23.934 43.6727 23.934V22.1669ZM37.8073 23.0607C36.1312 23.666 34.7764 24.5703 33.7935 25.7989L35.1734 26.9028C35.9162 25.9743 36.9774 25.2392 38.4075 24.7228L37.8073 23.0607ZM33.8047 25.7852C32.8017 26.9888 32.3056 28.4217 32.3056 30.0395H34.0727C34.0727 28.8099 34.4395 27.7837 35.1622 26.9165L33.8047 25.7852ZM32.3056 30.0395C32.3056 32.195 33.1491 34.0963 34.7647 35.7119L36.0142 34.4624C34.6961 33.1443 34.0727 31.6805 34.0727 30.0395H32.3056ZM34.7741 35.7212C36.3229 37.2245 38.3459 38.5887 40.8185 39.825L41.6088 38.2444C39.2494 37.0647 37.3896 35.7972 36.0048 34.4531L34.7741 35.7212ZM40.8185 39.825C43.2493 41.0404 45.8944 42.2761 48.7532 43.5323L49.4641 41.9144C46.6281 40.6683 44.0099 39.445 41.6088 38.2444L40.8185 39.825ZM48.7593 43.5349C51.8475 44.8645 55.0018 46.345 58.2222 47.9767L59.0209 46.4004C55.77 44.7533 52.5824 43.257 49.4581 41.9118L48.7593 43.5349ZM58.2264 47.9788C61.4479 49.5896 64.3898 51.495 67.0543 53.6942L68.1791 52.3314C65.4077 50.0438 62.3528 48.0664 59.0167 46.3983L58.2264 47.9788ZM67.0595 53.6985C69.7291 55.8675 71.8755 58.4722 73.5029 61.5183L75.0615 60.6856C73.3238 57.4329 71.0265 54.6448 68.1739 52.327L67.0595 53.6985ZM73.5053 61.5228C75.1033 64.473 75.9224 68.0531 75.9224 72.2974H77.6896C77.6896 67.8269 76.8262 63.9434 75.0591 60.6811L73.5053 61.5228ZM75.9224 72.2974C75.9224 77.9492 74.3771 82.9001 71.2996 87.1836L72.7348 88.2147C76.0424 83.6109 77.6896 78.2939 77.6896 72.2974H75.9224ZM71.2987 87.1849C68.2558 91.4366 63.97 94.7725 58.4007 97.1774L59.1012 98.7997C64.9215 96.2864 69.4798 92.7627 72.7357 88.2134L71.2987 87.1849ZM58.3984 97.1784C52.8795 99.5798 46.4247 100.794 39.0134 100.794V102.561C46.6156 102.561 53.3192 101.316 59.1035 98.7988L58.3984 97.1784ZM39.0134 100.794C32.1208 100.794 25.4886 99.6878 19.1122 97.4773L18.5334 99.147C25.0997 101.423 31.9279 102.561 39.0134 102.561V100.794ZM19.1122 97.4773C12.7327 95.2658 6.86444 92.0767 1.50436 87.9077L0.41946 89.3026C5.93123 93.5895 11.9703 96.8717 18.5334 99.147L19.1122 97.4773ZM112.14 99.7358V100.619H113.023V99.7358H112.14ZM86.513 99.7358H85.6295V100.619H86.513V99.7358ZM86.513 2.66576V1.7822H85.6295V2.66576H86.513ZM112.14 2.66576H113.023V1.7822H112.14V2.66576ZM112.14 43.2411H111.256V46.1135L112.87 43.7376L112.14 43.2411ZM123.917 26.998L124.606 27.552L124.609 27.5479L123.917 26.998ZM143.267 2.66576V1.7822H142.84L142.575 2.11583L143.267 2.66576ZM173.423 2.66576L174.114 3.21589L175.255 1.7822H173.423V2.66576ZM137.637 47.6416L136.945 47.0914L136.503 47.6469L136.95 48.1982L137.637 47.6416ZM179.894 99.7358V100.619H181.749L180.581 99.1792L179.894 99.7358ZM146.826 99.7358L146.14 100.292L146.405 100.619H146.826V99.7358ZM121.264 68.2204L121.95 67.6638L121.256 66.8078L120.572 67.6718L121.264 68.2204ZM112.14 79.7394L111.447 79.1908L111.256 79.4319V79.7394H112.14ZM112.14 98.8523H86.513V100.619H112.14V98.8523ZM87.3966 99.7358V2.66576H85.6295V99.7358H87.3966ZM86.513 3.54931H112.14V1.7822H86.513V3.54931ZM111.256 2.66576V43.2411H113.023V2.66576H111.256ZM112.87 43.7376C115.152 40.3792 117.326 37.2807 119.39 34.442L117.961 33.4026C115.884 36.2587 113.7 39.3728 111.409 42.7445L112.87 43.7376ZM119.39 34.442C121.457 31.6007 123.194 29.3053 124.606 27.552L123.229 26.444C121.793 28.2284 120.036 30.5492 117.961 33.4026L119.39 34.442ZM124.609 27.5479L143.958 3.21569L142.575 2.11583L123.226 26.4481L124.609 27.5479ZM143.267 3.54931H173.423V1.7822H143.267V3.54931ZM172.732 2.11563L136.945 47.0914L138.328 48.1917L174.114 3.21589L172.732 2.11563ZM136.95 48.1982L179.208 100.292L180.581 99.1792L138.323 47.0849L136.95 48.1982ZM179.894 98.8523H146.826V100.619H179.894V98.8523ZM147.512 99.1793L121.95 67.6638L120.578 68.777L146.14 100.292L147.512 99.1793ZM120.572 67.6718L111.447 79.1908L112.832 80.288L121.957 68.769L120.572 67.6718ZM111.256 79.7394V99.7358H113.023V79.7394H111.256ZM186.43 99.7358H185.547V100.619H186.43V99.7358ZM186.43 2.66576V1.7822H185.547V2.66576H186.43ZM212.057 2.66576H212.941V1.7822H212.057V2.66576ZM212.057 99.7358V100.619H212.941V99.7358H212.057ZM187.314 99.7358V2.66576H185.547V99.7358H187.314ZM186.43 3.54931H212.057V1.7822H186.43V3.54931ZM211.173 2.66576V99.7358H212.941V2.66576H211.173ZM212.057 98.8523H186.43V100.619H212.057V98.8523ZM291.007 99.7358V100.619H291.891V99.7358H291.007ZM225 99.7358H224.116V100.619H225V99.7358ZM225 2.66576V1.7822H224.116V2.66576H225ZM250.626 2.66576H251.51V1.7822H250.626V2.66576ZM250.626 77.4097H249.743V78.2933H250.626V77.4097ZM291.007 77.4097H291.891V76.5262H291.007V77.4097ZM291.007 98.8523H225V100.619H291.007V98.8523ZM225.883 99.7358V2.66576H224.116V99.7358H225.883ZM225 3.54931H250.626V1.7822H225V3.54931ZM249.743 2.66576V77.4097H251.51V2.66576H249.743ZM250.626 78.2933H291.007V76.5262H250.626V78.2933ZM290.124 77.4097V99.7358H291.891V77.4097H290.124ZM364.781 99.7358V100.619H365.664V99.7358H364.781ZM298.773 99.7358H297.889V100.619H298.773V99.7358ZM298.773 2.66576V1.7822H297.889V2.66576H298.773ZM324.399 2.66576H325.283V1.7822H324.399V2.66576ZM324.399 77.4097H323.516V78.2933H324.399V77.4097ZM364.781 77.4097H365.664V76.5262H364.781V77.4097ZM364.781 98.8523H298.773V100.619H364.781V98.8523ZM299.656 99.7358V2.66576H297.889V99.7358H299.656ZM298.773 3.54931H324.399V1.7822H298.773V3.54931ZM323.516 2.66576V77.4097H325.283V2.66576H323.516ZM324.399 78.2933H364.781V76.5262H324.399V78.2933ZM363.897 77.4097V99.7358H365.664V77.4097H363.897ZM368.016 88.6051L367.264 88.1418L366.849 88.8163L367.474 89.3026L368.016 88.6051ZM380.053 69.0617L380.597 68.3653L379.818 67.7576L379.301 68.5983L380.053 69.0617ZM388.854 75.08L388.416 75.8472L388.421 75.8501L388.854 75.08ZM396.878 78.5098L396.638 79.3599L396.646 79.3623L396.654 79.3645L396.878 78.5098ZM411.763 78.6393L412.03 79.4812L412.039 79.4785L412.048 79.4756L411.763 78.6393ZM416.098 75.9213L415.427 75.3463L415.426 75.3484L416.098 75.9213ZM409.562 62.3962L409.179 63.1921L409.184 63.1947L409.562 62.3962ZM401.603 58.9017L401.933 58.0822L401.933 58.0821L401.603 58.9017ZM392.09 54.76L391.707 55.5566L391.716 55.5607L392.09 54.76ZM376.558 41.1055L375.777 41.5175L375.779 41.5219L376.558 41.1055ZM378.565 13.9906L377.844 13.4791L377.843 13.4805L378.565 13.9906ZM391.054 4.15416L391.401 4.96697L391.404 4.96559L391.054 4.15416ZM441.013 8.74882L441.808 9.13392L442.19 8.34627L441.406 7.95732L441.013 8.74882ZM431.047 29.3277L430.586 30.0816L431.418 30.5896L431.842 29.7128L431.047 29.3277ZM420.822 24.7977L420.555 25.6399L420.567 25.6435L420.822 24.7977ZM405.162 23.8917L404.869 23.0581L404.862 23.0607L405.162 23.8917ZM401.538 26.3509L402.217 26.9165L402.222 26.9097L402.228 26.9028L401.538 26.3509ZM402.444 35.0872L401.819 35.712L401.828 35.7212L402.444 35.0872ZM416.163 42.7233L415.808 43.5323L415.814 43.5349L416.163 42.7233ZM425.676 47.1886L425.277 47.9767L425.281 47.9788L425.676 47.1886ZM434.671 53.0128L434.109 53.6942L434.114 53.6985L434.671 53.0128ZM441.337 61.1019L440.557 61.5183L440.56 61.5228L441.337 61.1019ZM439.072 87.6991L438.354 87.1836L438.353 87.1849L439.072 87.6991ZM425.805 97.9886L425.455 97.1774L425.453 97.1784L425.805 97.9886ZM368.769 89.0685L380.805 69.525L379.301 68.5983L367.264 88.1418L368.769 89.0685ZM379.509 69.7581C382.683 72.2365 385.652 74.2682 388.416 75.8472L389.292 74.3129C386.62 72.7856 383.721 70.8051 380.597 68.3653L379.509 69.7581ZM388.421 75.8501C391.232 77.4315 393.971 78.6045 396.638 79.3599L397.119 77.6598C394.608 76.9483 391.998 75.8348 389.287 74.31L388.421 75.8501ZM396.654 79.3645C399.359 80.0739 402.109 80.4288 404.903 80.4288V78.6617C402.261 78.6617 399.661 78.3263 397.103 77.6552L396.654 79.3645ZM404.903 80.4288C407.64 80.4288 410.022 80.1204 412.03 79.4812L411.495 77.7973C409.707 78.3661 407.516 78.6617 404.903 78.6617V80.4288ZM412.048 79.4756C414.051 78.7927 415.648 77.8122 416.771 76.4943L415.426 75.3484C414.564 76.3601 413.271 77.1916 411.477 77.803L412.048 79.4756ZM416.769 76.4963C417.946 75.123 418.535 73.4935 418.535 71.6502H416.768C416.768 73.0857 416.321 74.3037 415.427 75.3463L416.769 76.4963ZM418.535 71.6502C418.535 69.3446 417.708 67.3512 416.076 65.719L414.826 66.9685C416.128 68.27 416.768 69.8142 416.768 71.6502H418.535ZM416.076 65.719C414.519 64.1621 412.464 62.7932 409.94 61.5977L409.184 63.1947C411.579 64.329 413.45 65.5917 414.826 66.9685L416.076 65.719ZM409.946 61.6003C407.51 60.4258 404.839 59.2532 401.933 58.0822L401.272 59.7212C404.148 60.8799 406.783 62.0369 409.179 63.1921L409.946 61.6003ZM401.933 58.0821C398.842 56.8373 395.686 55.4631 392.463 53.9594L391.716 55.5607C394.965 57.0769 398.151 58.4639 401.272 59.7213L401.933 58.0821ZM392.472 53.9635C389.297 52.4393 386.378 50.5991 383.715 48.4432L382.603 49.8167C385.376 52.0613 388.411 53.9745 391.707 55.5566L392.472 53.9635ZM383.715 48.4432C381.091 46.3189 378.966 43.7366 377.338 40.6892L375.779 41.5219C377.516 44.7731 379.792 47.5406 382.603 49.8167L383.715 48.4432ZM377.34 40.6936C375.74 37.6575 374.918 33.9241 374.918 29.4571H373.151C373.151 34.1363 374.012 38.1685 375.777 41.5175L377.34 40.6936ZM374.918 29.4571C374.918 23.5707 376.387 18.6004 379.286 14.5007L377.843 13.4805C374.702 17.923 373.151 23.2637 373.151 29.4571H374.918ZM379.285 14.5021C382.246 10.3317 386.275 7.15179 391.401 4.96697L390.708 3.34136C385.307 5.64333 381.009 9.02103 377.844 13.4791L379.285 14.5021ZM391.404 4.96559C396.584 2.73353 402.459 1.60791 409.045 1.60791V-0.159198C402.256 -0.159198 396.138 1.00172 390.705 3.34273L391.404 4.96559ZM409.045 1.60791C413.842 1.60791 418.928 2.24471 424.306 3.52528L424.716 1.80623C419.222 0.498272 413.998 -0.159198 409.045 -0.159198V1.60791ZM424.306 3.52528C429.671 4.80245 435.108 6.80567 440.62 9.54031L441.406 7.95732C435.787 5.16976 430.223 3.1176 424.716 1.80623L424.306 3.52528ZM440.218 8.36371L430.252 28.9426L431.842 29.7128L441.808 9.13392L440.218 8.36371ZM431.508 28.5738C428.333 26.6338 424.856 25.094 421.078 23.952L420.567 25.6435C424.21 26.7448 427.548 28.225 430.586 30.0816L431.508 28.5738ZM421.09 23.9556C417.357 22.77 413.901 22.1669 410.727 22.1669V23.934C413.68 23.934 416.953 24.4958 420.555 25.6398L421.09 23.9556ZM410.727 22.1669C408.537 22.1669 406.579 22.4572 404.869 23.0582L405.455 24.7253C406.937 24.2046 408.689 23.934 410.727 23.934V22.1669ZM404.862 23.0607C403.186 23.666 401.831 24.5703 400.848 25.7989L402.228 26.9028C402.971 25.9743 404.032 25.2392 405.462 24.7228L404.862 23.0607ZM400.859 25.7852C399.856 26.9888 399.36 28.4217 399.36 30.0395H401.127C401.127 28.8099 401.494 27.7837 402.217 26.9165L400.859 25.7852ZM399.36 30.0395C399.36 32.195 400.203 34.0963 401.819 35.7119L403.069 34.4624C401.75 33.1443 401.127 31.6805 401.127 30.0395H399.36ZM401.828 35.7212C403.377 37.2245 405.4 38.5887 407.873 39.825L408.663 38.2444C406.304 37.0647 404.444 35.7972 403.059 34.4531L401.828 35.7212ZM407.873 39.825C410.304 41.0404 412.949 42.2761 415.808 43.5323L416.518 41.9144C413.682 40.6683 411.064 39.445 408.663 38.2444L407.873 39.825ZM415.814 43.5349C418.902 44.8645 422.056 46.345 425.277 47.9767L426.075 46.4004C422.824 44.7533 419.637 43.257 416.512 41.9118L415.814 43.5349ZM425.281 47.9788C428.502 49.5896 431.444 51.495 434.109 53.6942L435.233 52.3314C432.462 50.0438 429.407 48.0664 426.071 46.3983L425.281 47.9788ZM434.114 53.6985C436.783 55.8675 438.93 58.4722 440.557 61.5183L442.116 60.6856C440.378 57.4329 438.081 54.6448 435.228 52.327L434.114 53.6985ZM440.56 61.5228C442.158 64.473 442.977 68.0531 442.977 72.2974H444.744C444.744 67.8269 443.881 63.9434 442.113 60.6811L440.56 61.5228ZM442.977 72.2974C442.977 77.9492 441.431 82.9001 438.354 87.1836L439.789 88.2147C443.097 83.6109 444.744 78.2939 444.744 72.2974H442.977ZM438.353 87.1849C435.31 91.4366 431.024 94.7725 425.455 97.1774L426.156 98.7997C431.976 96.2864 436.534 92.7627 439.79 88.2134L438.353 87.1849ZM425.453 97.1784C419.934 99.5798 413.479 100.794 406.068 100.794V102.561C413.67 102.561 420.374 101.316 426.158 98.7988L425.453 97.1784ZM406.068 100.794C399.175 100.794 392.543 99.6878 386.167 97.4773L385.588 99.147C392.154 101.423 398.982 102.561 406.068 102.561V100.794ZM386.167 97.4773C379.787 95.2658 373.919 92.0767 368.559 87.9077L367.474 89.3026C372.986 93.5895 379.025 96.8717 385.588 99.147L386.167 97.4773Z" fill="black" fill-opacity="0.15" mask="url(#path-1-outside-1_158_552)"/>
</svg>
