<svg width="453" height="106" viewBox="0 0 453 106" fill="none" xmlns="http://www.w3.org/2000/svg">
<mask id="path-1-outside-1_1715_2233" maskUnits="userSpaceOnUse" x="0" y="0" width="453" height="106" fill="black">
<rect fill="white" width="453" height="106"/>
<path d="M3.26062 90.761L15.4144 71.0275C18.5944 73.5105 21.5566 75.5361 24.301 77.1044C27.089 78.6726 29.7898 79.827 32.4035 80.5675C35.0608 81.2645 37.7616 81.613 40.506 81.613C43.2069 81.613 45.5157 81.3081 47.4324 80.6982C49.3491 80.0448 50.8084 79.13 51.8104 77.9538C52.8558 76.7341 53.3786 75.2966 53.3786 73.6412C53.3786 71.5502 52.638 69.7642 51.1569 68.2831C49.6758 66.802 47.6938 65.4734 45.2107 64.2972C42.7713 63.121 40.0922 61.9448 37.1736 60.7687C34.0371 59.5054 30.8353 58.1114 27.5682 56.5867C24.301 55.0185 21.2952 53.1236 18.5508 50.9019C15.8065 48.6802 13.5848 45.9794 11.8859 42.7994C10.187 39.5758 9.33751 35.6552 9.33751 31.0377C9.33751 24.939 10.8622 19.7334 13.9115 15.4207C17.0044 11.0645 21.2081 7.75384 26.5227 5.48862C31.8808 3.17984 37.9359 2.02545 44.688 2.02545C49.6105 2.02545 54.8161 2.67888 60.3049 3.98573C65.7937 5.29259 71.3479 7.34 76.9674 10.128L66.9046 30.907C63.7681 28.9903 60.3267 27.4656 56.5804 26.333C52.8776 25.1568 49.4798 24.5687 46.3869 24.5687C44.2524 24.5687 42.3792 24.8519 40.7674 25.4182C39.1992 25.9845 37.9795 26.8122 37.1082 27.9012C36.237 28.9467 35.8014 30.1882 35.8014 31.6258C35.8014 33.5425 36.5419 35.2414 38.023 36.7225C39.5041 38.16 41.4644 39.4887 43.9039 40.7084C46.3433 41.9281 49.0006 43.1697 51.8757 44.433C55.0122 45.7834 58.214 47.2863 61.4811 48.9416C64.7918 50.597 67.8194 52.5572 70.5638 54.8225C73.3517 57.0877 75.5952 59.8103 77.2941 62.9903C78.993 66.1268 79.8424 69.8949 79.8424 74.2946C79.8424 80.1755 78.2306 85.3594 75.0071 89.8462C71.827 94.2895 67.362 97.7527 61.6118 100.236C55.9052 102.719 49.262 103.96 41.6822 103.96C34.6252 103.96 27.8295 102.828 21.2952 100.562C14.761 98.2972 8.74942 95.0301 3.26062 90.761ZM115.52 102H89.6439V3.98573H115.52V44.9557C117.828 41.5579 120.028 38.4214 122.119 35.5463C124.21 32.6712 125.974 30.3407 127.412 28.5546L146.95 3.98573H177.399L141.265 49.399L183.934 102H150.543L124.733 70.178L115.52 81.8091V102ZM190.533 102V3.98573H216.409V102H190.533ZM296.127 102H229.478V3.98573H255.353V79.4567H296.127V102ZM370.618 102H303.968V3.98573H329.844V79.4567H370.618V102ZM373.885 90.761L386.039 71.0275C389.219 73.5105 392.181 75.5361 394.926 77.1044C397.714 78.6726 400.414 79.827 403.028 80.5675C405.685 81.2645 408.386 81.613 411.131 81.613C413.832 81.613 416.14 81.3081 418.057 80.6982C419.974 80.0448 421.433 79.13 422.435 77.9538C423.48 76.7341 424.003 75.2966 424.003 73.6412C424.003 71.5502 423.263 69.7642 421.782 68.2831C420.3 66.802 418.318 65.4734 415.835 64.2972C413.396 63.121 410.717 61.9448 407.798 60.7687C404.662 59.5054 401.46 58.1114 398.193 56.5867C394.926 55.0185 391.92 53.1236 389.175 50.9019C386.431 48.6802 384.209 45.9794 382.511 42.7994C380.812 39.5758 379.962 35.6552 379.962 31.0377C379.962 24.939 381.487 19.7334 384.536 15.4207C387.629 11.0645 391.833 7.75384 397.147 5.48862C402.505 3.17984 408.561 2.02545 415.313 2.02545C420.235 2.02545 425.441 2.67888 430.93 3.98573C436.418 5.29259 441.973 7.34 447.592 10.128L437.529 30.907C434.393 28.9903 430.951 27.4656 427.205 26.333C423.502 25.1568 420.104 24.5687 417.012 24.5687C414.877 24.5687 413.004 24.8519 411.392 25.4182C409.824 25.9845 408.604 26.8122 407.733 27.9012C406.862 28.9467 406.426 30.1882 406.426 31.6258C406.426 33.5425 407.167 35.2414 408.648 36.7225C410.129 38.16 412.089 39.4887 414.529 40.7084C416.968 41.9281 419.625 43.1697 422.5 44.433C425.637 45.7834 428.839 47.2863 432.106 48.9416C435.416 50.597 438.444 52.5572 441.188 54.8225C443.976 57.0877 446.22 59.8103 447.919 62.9903C449.618 66.1268 450.467 69.8949 450.467 74.2946C450.467 80.1755 448.855 85.3594 445.632 89.8462C442.452 94.2895 437.987 97.7527 432.236 100.236C426.53 102.719 419.887 103.96 412.307 103.96C405.25 103.96 398.454 102.828 391.92 100.562C385.386 98.2972 379.374 95.0301 373.885 90.761Z"/>
</mask>
<path d="M3.26062 90.761L1.55769 89.7122L0.617404 91.2389L2.03274 92.3397L3.26062 90.761ZM15.4144 71.0275L16.6453 69.4511L14.8836 68.0756L13.7115 69.9787L15.4144 71.0275ZM24.301 77.1044L23.3087 78.8409L23.3205 78.8475L24.301 77.1044ZM32.4035 80.5675L31.8583 82.4918L31.8772 82.4971L31.8961 82.5021L32.4035 80.5675ZM47.4324 80.6982L48.0388 82.6041L48.0583 82.5979L48.0777 82.5913L47.4324 80.6982ZM51.8104 77.9538L50.2918 76.6522L50.2879 76.6569L51.8104 77.9538ZM51.1569 68.2831L52.5711 66.8689L51.1569 68.2831ZM45.2107 64.2972L44.3421 66.0988L44.3546 66.1047L45.2107 64.2972ZM37.1736 60.7687L37.9211 58.9136L37.9208 58.9135L37.1736 60.7687ZM27.5682 56.5867L26.7027 58.3898L26.7125 58.3945L26.7224 58.3991L27.5682 56.5867ZM11.8859 42.7994L10.1165 43.7319L10.1218 43.7418L11.8859 42.7994ZM13.9115 15.4207L12.2807 14.2629L12.2785 14.2661L13.9115 15.4207ZM26.5227 5.48862L27.3069 7.32848L27.3141 7.32536L26.5227 5.48862ZM76.9674 10.128L78.7674 10.9997L79.6308 9.21676L77.8562 8.33634L76.9674 10.128ZM66.9046 30.907L65.8617 32.6135L67.7434 33.7635L68.7046 31.7787L66.9046 30.907ZM56.5804 26.333L55.9749 28.2391L55.9882 28.2434L56.0016 28.2474L56.5804 26.333ZM40.7674 25.4182L40.1044 23.5313L40.0963 23.5341L40.0881 23.5371L40.7674 25.4182ZM37.1082 27.9012L38.6447 29.1816L38.6575 29.1662L38.67 29.1506L37.1082 27.9012ZM38.023 36.7225L36.6088 38.1367L36.6194 38.1473L36.6301 38.1577L38.023 36.7225ZM51.8757 44.433L51.0712 46.264L51.078 46.267L51.0848 46.2699L51.8757 44.433ZM61.4811 48.9416L60.5772 50.7257L60.5867 50.7305L61.4811 48.9416ZM70.5638 54.8225L69.2906 56.3649L69.2966 56.3698L69.3026 56.3747L70.5638 54.8225ZM77.2941 62.9903L75.53 63.9328L75.5355 63.9429L77.2941 62.9903ZM75.0071 89.8462L73.3828 88.6793L73.3807 88.6822L75.0071 89.8462ZM61.6118 100.236L60.8189 98.3996L60.8138 98.4018L61.6118 100.236ZM4.96355 91.8099L17.1173 72.0763L13.7115 69.9787L1.55769 89.7122L4.96355 91.8099ZM14.1835 72.6039C17.4196 75.1307 20.462 77.2142 23.3087 78.8409L25.2933 75.3679C22.6512 73.8581 19.7692 71.8904 16.6453 69.4511L14.1835 72.6039ZM23.3205 78.8475C26.2223 80.4798 29.0689 81.7015 31.8583 82.4918L32.9487 78.6433C30.5107 77.9525 27.9556 76.8654 25.2815 75.3612L23.3205 78.8475ZM31.8961 82.5021C34.7189 83.2425 37.5902 83.613 40.506 83.613V79.613C37.9331 79.613 35.4028 79.2866 32.911 78.633L31.8961 82.5021ZM40.506 83.613C43.3469 83.613 45.8719 83.2936 48.0388 82.6041L46.826 78.7924C45.1595 79.3226 43.0669 79.613 40.506 79.613V83.613ZM48.0777 82.5913C50.2319 81.8569 52.0357 80.7735 53.3328 79.2508L50.2879 76.6569C49.5812 77.4865 48.4663 78.2327 46.787 78.8052L48.0777 82.5913ZM53.3289 79.2554C54.6952 77.6613 55.3786 75.7581 55.3786 73.6412H51.3786C51.3786 74.835 51.0164 75.8069 50.2918 76.6523L53.3289 79.2554ZM55.3786 73.6412C55.3786 71.0188 54.4266 68.7243 52.5711 66.8689L49.7427 69.6973C50.8495 70.8041 51.3786 72.0817 51.3786 73.6412H55.3786ZM52.5711 66.8689C50.8863 65.184 48.6961 63.7351 46.0669 62.4897L44.3546 66.1047C46.6914 67.2116 48.4654 68.42 49.7427 69.6973L52.5711 66.8689ZM46.0793 62.4956C43.5944 61.2975 40.8743 60.1037 37.9211 58.9136L36.426 62.6237C39.3101 63.7859 41.9481 64.9445 44.3421 66.0987L46.0793 62.4956ZM37.9208 58.9135C34.8197 57.6644 31.6507 56.2849 28.4139 54.7744L26.7224 58.3991C30.0199 59.9379 33.2546 61.3463 36.4263 62.6238L37.9208 58.9135ZM28.4336 54.7837C25.303 53.281 22.4296 51.4687 19.8092 49.3474L17.2925 52.4564C20.1609 54.7784 23.2991 56.756 26.7027 58.3898L28.4336 54.7837ZM19.8092 49.3474C17.277 47.2975 15.2256 44.8063 13.6499 41.857L10.1218 43.7418C11.944 47.1525 14.3359 50.063 17.2925 52.4564L19.8092 49.3474ZM13.6552 41.8669C12.1429 38.9975 11.3375 35.4151 11.3375 31.0377H7.33751C7.33751 35.8954 8.23101 40.1542 10.1166 43.7319L13.6552 41.8669ZM11.3375 31.0377C11.3375 25.2865 12.7695 20.5001 15.5445 16.5754L12.2785 14.2661C8.95486 18.9666 7.33751 24.5915 7.33751 31.0377H11.3375ZM15.5423 16.5786C18.404 12.548 22.3034 9.4611 27.3069 7.32847L25.7385 3.64877C20.1129 6.04657 15.6048 9.58111 12.2807 14.2629L15.5423 16.5786ZM27.3141 7.32536C32.386 5.1399 38.1656 4.02545 44.688 4.02545V0.0254494C37.7062 0.0254494 31.3755 1.21978 25.7312 3.65188L27.3141 7.32536ZM44.688 4.02545C49.4337 4.02545 54.483 4.65548 59.8417 5.93135L60.7682 2.04012C55.1492 0.702275 49.7872 0.0254494 44.688 0.0254494V4.02545ZM59.8417 5.93135C65.1679 7.1995 70.5797 9.19151 76.0785 11.9196L77.8562 8.33634C72.116 5.48849 66.4195 3.38569 60.7682 2.04012L59.8417 5.93135ZM75.1673 9.25625L65.1045 30.0353L68.7046 31.7787L78.7674 10.9997L75.1673 9.25625ZM67.9475 29.2004C64.6567 27.1894 61.0579 25.5973 57.1592 24.4186L56.0016 28.2474C59.5955 29.3339 62.8795 30.7911 65.8617 32.6135L67.9475 29.2004ZM57.1859 24.4268C53.3351 23.2037 49.73 22.5687 46.3869 22.5687V26.5687C49.2296 26.5687 52.4201 27.11 55.9749 28.2391L57.1859 24.4268ZM46.3869 22.5687C44.0806 22.5687 41.9748 22.8741 40.1044 23.5313L41.4304 27.3051C42.7836 26.8297 44.4242 26.5687 46.3869 26.5687V22.5687ZM40.0881 23.5371C38.2415 24.2039 36.6895 25.223 35.5465 26.6518L38.67 29.1506C39.2694 28.4013 40.1569 27.7651 41.4467 27.2993L40.0881 23.5371ZM35.5718 26.6208C34.3833 28.0471 33.8014 29.7488 33.8014 31.6258H37.8014C37.8014 30.6276 38.0907 29.8463 38.6447 29.1816L35.5718 26.6208ZM33.8014 31.6258C33.8014 34.1247 34.7909 36.3188 36.6088 38.1367L39.4372 35.3083C38.2929 34.1639 37.8014 32.9602 37.8014 31.6258H33.8014ZM36.6301 38.1577C38.2968 39.7754 40.4419 41.2135 43.0094 42.4973L44.7983 38.9196C42.4869 37.7639 40.7114 36.5447 39.416 35.2873L36.6301 38.1577ZM43.0094 42.4973C45.4825 43.7338 48.1702 44.9893 51.0712 46.264L52.6802 42.6019C49.831 41.35 47.2041 40.1225 44.7983 38.9196L43.0094 42.4973ZM51.0848 46.2699C54.1804 47.6028 57.3445 49.0878 60.5772 50.7257L62.385 47.1575C59.0834 45.4847 55.8439 43.964 52.6666 42.596L51.0848 46.2699ZM60.5867 50.7305C63.7677 52.321 66.6673 54.1997 69.2906 56.3649L71.8369 53.28C68.9714 50.9148 65.8159 48.873 62.3755 47.1528L60.5867 50.7305ZM69.3026 56.3747C71.8832 58.4715 73.956 60.9865 75.53 63.9328L79.0581 62.0479C77.2343 58.6341 74.8202 55.7039 71.8249 53.2702L69.3026 56.3747ZM75.5355 63.9429C77.0431 66.7261 77.8424 70.1509 77.8424 74.2946H81.8424C81.8424 69.6389 80.9429 65.5274 79.0526 62.0378L75.5355 63.9429ZM77.8424 74.2946C77.8424 79.7854 76.3459 84.555 73.3828 88.6793L76.6313 91.0132C80.1154 86.1637 81.8424 80.5656 81.8424 74.2946H77.8424ZM73.3807 88.6822C70.4417 92.7888 66.2851 96.0392 60.8189 98.3996L62.4047 102.072C68.4388 99.4662 73.2124 95.7903 76.6335 91.0102L73.3807 88.6822ZM60.8138 98.4018C55.4075 100.754 49.0458 101.96 41.6822 101.96V105.96C49.4781 105.96 56.4028 104.683 62.4097 102.07L60.8138 98.4018ZM41.6822 101.96C34.8435 101.96 28.2696 100.863 21.9503 98.6728L20.6402 102.452C27.3895 104.792 34.4068 105.96 41.6822 105.96V101.96ZM21.9503 98.6728C15.6238 96.4796 9.80562 93.3179 4.48851 89.1823L2.03274 92.3397C7.69322 96.7423 13.8981 100.115 20.6402 102.452L21.9503 98.6728ZM115.52 102V104H117.52V102H115.52ZM89.6439 102H87.6439V104H89.6439V102ZM89.6439 3.98573V1.98573H87.6439V3.98573H89.6439ZM115.52 3.98573H117.52V1.98573H115.52V3.98573ZM115.52 44.9557H113.52V51.4577L117.174 46.0797L115.52 44.9557ZM127.412 28.5546L128.97 29.8087L128.977 29.7995L127.412 28.5546ZM146.95 3.98573V1.98573H145.985L145.384 2.74092L146.95 3.98573ZM177.399 3.98573L178.964 5.231L181.547 1.98573H177.399V3.98573ZM141.265 49.399L139.7 48.1537L138.699 49.4111L139.711 50.659L141.265 49.399ZM183.934 102V104H188.131L185.487 100.74L183.934 102ZM150.543 102L148.99 103.26L149.59 104H150.543V102ZM124.733 70.178L126.286 68.9182L124.715 66.9803L123.165 68.9362L124.733 70.178ZM115.52 81.8091L113.952 80.5672L113.52 81.1129V81.8091H115.52ZM115.52 100H89.6439V104H115.52V100ZM91.6439 102V3.98573H87.6439V102H91.6439ZM89.6439 5.98573H115.52V1.98573H89.6439V5.98573ZM113.52 3.98573V44.9557H117.52V3.98573H113.52ZM117.174 46.0797C119.472 42.6969 121.66 39.5781 123.737 36.7227L120.502 34.37C118.397 37.2647 116.184 40.4188 113.865 43.8317L117.174 46.0797ZM123.737 36.7227C125.818 33.8613 127.561 31.5595 128.97 29.8087L125.854 27.3006C124.388 29.1219 122.603 31.4811 120.502 34.37L123.737 36.7227ZM128.977 29.7995L148.515 5.23055L145.384 2.74092L125.847 27.3098L128.977 29.7995ZM146.95 5.98573H177.399V1.98573H146.95V5.98573ZM175.834 2.74047L139.7 48.1537L142.83 50.6443L178.964 5.231L175.834 2.74047ZM139.711 50.659L182.38 103.26L185.487 100.74L142.818 48.1391L139.711 50.659ZM183.934 100H150.543V104H183.934V100ZM152.097 100.74L126.286 68.9182L123.18 71.4379L148.99 103.26L152.097 100.74ZM123.165 68.9362L113.952 80.5672L117.087 83.0509L126.301 71.4199L123.165 68.9362ZM113.52 81.8091V102H117.52V81.8091H113.52ZM190.533 102H188.533V104H190.533V102ZM190.533 3.98573V1.98573H188.533V3.98573H190.533ZM216.409 3.98573H218.409V1.98573H216.409V3.98573ZM216.409 102V104H218.409V102H216.409ZM192.533 102V3.98573H188.533V102H192.533ZM190.533 5.98573H216.409V1.98573H190.533V5.98573ZM214.409 3.98573V102H218.409V3.98573H214.409ZM216.409 100H190.533V104H216.409V100ZM296.127 102V104H298.127V102H296.127ZM229.478 102H227.478V104H229.478V102ZM229.478 3.98573V1.98573H227.478V3.98573H229.478ZM255.353 3.98573H257.353V1.98573H255.353V3.98573ZM255.353 79.4567H253.353V81.4567H255.353V79.4567ZM296.127 79.4567H298.127V77.4567H296.127V79.4567ZM296.127 100H229.478V104H296.127V100ZM231.478 102V3.98573H227.478V102H231.478ZM229.478 5.98573H255.353V1.98573H229.478V5.98573ZM253.353 3.98573V79.4567H257.353V3.98573H253.353ZM255.353 81.4567H296.127V77.4567H255.353V81.4567ZM294.127 79.4567V102H298.127V79.4567H294.127ZM370.618 102V104H372.618V102H370.618ZM303.968 102H301.968V104H303.968V102ZM303.968 3.98573V1.98573H301.968V3.98573H303.968ZM329.844 3.98573H331.844V1.98573H329.844V3.98573ZM329.844 79.4567H327.844V81.4567H329.844V79.4567ZM370.618 79.4567H372.618V77.4567H370.618V79.4567ZM370.618 100H303.968V104H370.618V100ZM305.968 102V3.98573H301.968V102H305.968ZM303.968 5.98573H329.844V1.98573H303.968V5.98573ZM327.844 3.98573V79.4567H331.844V3.98573H327.844ZM329.844 81.4567H370.618V77.4567H329.844V81.4567ZM368.618 79.4567V102H372.618V79.4567H368.618ZM373.885 90.761L372.182 89.7122L371.242 91.2389L372.657 92.3397L373.885 90.761ZM386.039 71.0275L387.27 69.4511L385.508 68.0756L384.336 69.9787L386.039 71.0275ZM394.926 77.1044L393.933 78.8409L393.945 78.8475L394.926 77.1044ZM403.028 80.5675L402.483 82.4918L402.502 82.4971L402.521 82.5021L403.028 80.5675ZM418.057 80.6982L418.663 82.6041L418.683 82.5979L418.702 82.5913L418.057 80.6982ZM422.435 77.9538L420.916 76.6522L420.913 76.6569L422.435 77.9538ZM421.782 68.2831L423.196 66.8689L421.782 68.2831ZM415.835 64.2972L414.967 66.0988L414.979 66.1047L415.835 64.2972ZM407.798 60.7687L408.546 58.9136L408.545 58.9135L407.798 60.7687ZM398.193 56.5867L397.327 58.3898L397.337 58.3945L397.347 58.3991L398.193 56.5867ZM382.511 42.7994L380.741 43.7319L380.746 43.7418L382.511 42.7994ZM384.536 15.4207L382.905 14.2629L382.903 14.2661L384.536 15.4207ZM397.147 5.48862L397.932 7.32848L397.939 7.32536L397.147 5.48862ZM447.592 10.128L449.392 10.9997L450.255 9.21676L448.481 8.33634L447.592 10.128ZM437.529 30.907L436.486 32.6135L438.368 33.7635L439.329 31.7787L437.529 30.907ZM427.205 26.333L426.6 28.2391L426.613 28.2434L426.626 28.2474L427.205 26.333ZM411.392 25.4182L410.729 23.5313L410.721 23.5341L410.713 23.5371L411.392 25.4182ZM407.733 27.9012L409.269 29.1816L409.282 29.1662L409.295 29.1506L407.733 27.9012ZM408.648 36.7225L407.233 38.1367L407.244 38.1473L407.255 38.1577L408.648 36.7225ZM422.5 44.433L421.696 46.264L421.703 46.267L421.709 46.2699L422.5 44.433ZM432.106 48.9416L431.202 50.7257L431.211 50.7305L432.106 48.9416ZM441.188 54.8225L439.915 56.3649L439.921 56.3698L439.927 56.3747L441.188 54.8225ZM447.919 62.9903L446.155 63.9328L446.16 63.9429L447.919 62.9903ZM445.632 89.8462L444.007 88.6793L444.005 88.6822L445.632 89.8462ZM432.236 100.236L431.444 98.3996L431.438 98.4018L432.236 100.236ZM375.588 91.8099L387.742 72.0763L384.336 69.9787L372.182 89.7122L375.588 91.8099ZM384.808 72.6039C388.044 75.1307 391.087 77.2142 393.933 78.8409L395.918 75.3679C393.276 73.8581 390.394 71.8904 387.27 69.4511L384.808 72.6039ZM393.945 78.8475C396.847 80.4798 399.694 81.7015 402.483 82.4918L403.573 78.6433C401.135 77.9525 398.58 76.8654 395.906 75.3612L393.945 78.8475ZM402.521 82.5021C405.344 83.2425 408.215 83.613 411.131 83.613V79.613C408.558 79.613 406.027 79.2866 403.536 78.633L402.521 82.5021ZM411.131 83.613C413.972 83.613 416.497 83.2936 418.663 82.6041L417.451 78.7924C415.784 79.3226 413.692 79.613 411.131 79.613V83.613ZM418.702 82.5913C420.857 81.8569 422.66 80.7735 423.957 79.2508L420.913 76.6569C420.206 77.4865 419.091 78.2327 417.412 78.8052L418.702 82.5913ZM423.954 79.2554C425.32 77.6613 426.003 75.7581 426.003 73.6412H422.003C422.003 74.835 421.641 75.8069 420.916 76.6523L423.954 79.2554ZM426.003 73.6412C426.003 71.0188 425.051 68.7243 423.196 66.8689L420.367 69.6973C421.474 70.8041 422.003 72.0817 422.003 73.6412H426.003ZM423.196 66.8689C421.511 65.184 419.321 63.7351 416.692 62.4897L414.979 66.1047C417.316 67.2116 419.09 68.42 420.367 69.6973L423.196 66.8689ZM416.704 62.4956C414.219 61.2975 411.499 60.1037 408.546 58.9136L407.051 62.6237C409.935 63.7859 412.573 64.9445 414.967 66.0987L416.704 62.4956ZM408.545 58.9135C405.444 57.6644 402.275 56.2849 399.039 54.7744L397.347 58.3991C400.645 59.9379 403.879 61.3463 407.051 62.6238L408.545 58.9135ZM399.058 54.7837C395.928 53.281 393.054 51.4687 390.434 49.3474L387.917 52.4564C390.786 54.7784 393.924 56.756 397.327 58.3898L399.058 54.7837ZM390.434 49.3474C387.902 47.2975 385.85 44.8063 384.275 41.857L380.746 43.7418C382.569 47.1525 384.961 50.063 387.917 52.4564L390.434 49.3474ZM384.28 41.8669C382.768 38.9975 381.962 35.4151 381.962 31.0377H377.962C377.962 35.8954 378.856 40.1542 380.741 43.7319L384.28 41.8669ZM381.962 31.0377C381.962 25.2865 383.394 20.5001 386.169 16.5754L382.903 14.2661C379.58 18.9666 377.962 24.5915 377.962 31.0377H381.962ZM386.167 16.5786C389.029 12.548 392.928 9.4611 397.932 7.32847L396.363 3.64877C390.738 6.04657 386.229 9.58111 382.905 14.2629L386.167 16.5786ZM397.939 7.32536C403.011 5.1399 408.79 4.02545 415.313 4.02545V0.0254494C408.331 0.0254494 402 1.21978 396.356 3.65188L397.939 7.32536ZM415.313 4.02545C420.058 4.02545 425.108 4.65548 430.466 5.93135L431.393 2.04012C425.774 0.702275 420.412 0.0254494 415.313 0.0254494V4.02545ZM430.466 5.93135C435.793 7.1995 441.204 9.19151 446.703 11.9196L448.481 8.33634C442.741 5.48849 437.044 3.38569 431.393 2.04012L430.466 5.93135ZM445.792 9.25625L435.729 30.0353L439.329 31.7787L449.392 10.9997L445.792 9.25625ZM438.572 29.2004C435.281 27.1894 431.683 25.5973 427.784 24.4186L426.626 28.2474C430.22 29.3339 433.504 30.7911 436.486 32.6135L438.572 29.2004ZM427.811 24.4268C423.96 23.2037 420.355 22.5687 417.012 22.5687V26.5687C419.854 26.5687 423.045 27.11 426.6 28.2391L427.811 24.4268ZM417.012 22.5687C414.705 22.5687 412.599 22.8741 410.729 23.5313L412.055 27.3051C413.408 26.8297 415.049 26.5687 417.012 26.5687V22.5687ZM410.713 23.5371C408.866 24.2039 407.314 25.223 406.171 26.6518L409.295 29.1506C409.894 28.4013 410.782 27.7651 412.071 27.2993L410.713 23.5371ZM406.196 26.6208C405.008 28.0471 404.426 29.7488 404.426 31.6258H408.426C408.426 30.6276 408.715 29.8463 409.269 29.1816L406.196 26.6208ZM404.426 31.6258C404.426 34.1247 405.416 36.3188 407.233 38.1367L410.062 35.3083C408.918 34.1639 408.426 32.9602 408.426 31.6258H404.426ZM407.255 38.1577C408.921 39.7754 411.067 41.2135 413.634 42.4973L415.423 38.9196C413.112 37.7639 411.336 36.5447 410.041 35.2873L407.255 38.1577ZM413.634 42.4973C416.107 43.7338 418.795 44.9893 421.696 46.264L423.305 42.6019C420.456 41.35 417.829 40.1225 415.423 38.9196L413.634 42.4973ZM421.709 46.2699C424.805 47.6028 427.969 49.0878 431.202 50.7257L433.01 47.1575C429.708 45.4847 426.469 43.964 423.291 42.596L421.709 46.2699ZM431.211 50.7305C434.392 52.321 437.292 54.1997 439.915 56.3649L442.462 53.28C439.596 50.9148 436.441 48.873 433 47.1528L431.211 50.7305ZM439.927 56.3747C442.508 58.4715 444.581 60.9865 446.155 63.9328L449.683 62.0479C447.859 58.6341 445.445 55.7039 442.45 53.2702L439.927 56.3747ZM446.16 63.9429C447.668 66.7261 448.467 70.1509 448.467 74.2946H452.467C452.467 69.6389 451.568 65.5274 449.677 62.0378L446.16 63.9429ZM448.467 74.2946C448.467 79.7854 446.971 84.555 444.007 88.6793L447.256 91.0132C450.74 86.1637 452.467 80.5656 452.467 74.2946H448.467ZM444.005 88.6822C441.066 92.7888 436.91 96.0392 431.444 98.3996L433.029 102.072C439.063 99.4662 443.837 95.7903 447.258 91.0102L444.005 88.6822ZM431.438 98.4018C426.032 100.754 419.67 101.96 412.307 101.96V105.96C420.103 105.96 427.027 104.683 433.034 102.07L431.438 98.4018ZM412.307 101.96C405.468 101.96 398.894 100.863 392.575 98.6728L391.265 102.452C398.014 104.792 405.031 105.96 412.307 105.96V101.96ZM392.575 98.6728C386.248 96.4796 380.43 93.3179 375.113 89.1823L372.657 92.3397C378.318 96.7423 384.523 100.115 391.265 102.452L392.575 98.6728Z" fill="#252735" fill-opacity="0.4" mask="url(#path-1-outside-1_1715_2233)"/>
</svg>
