<svg width="23" height="21" viewBox="0 0 23 21" fill="none" xmlns="http://www.w3.org/2000/svg">
<g id="social-buffer">
<g id="Group">
<g id="Group_2">
<path id="Shape" fill-rule="evenodd" clip-rule="evenodd" d="M0.855777 6.02445L10.6701 10.2932C10.9254 10.4029 11.2676 10.4604 11.604 10.4604C11.9404 10.4604 12.2827 10.4029 12.5379 10.2932L22.3522 6.02445C22.8685 5.79978 22.8685 5.43404 22.3522 5.20937L12.5379 0.940634C12.2827 0.830911 11.9404 0.773438 11.604 0.773438C11.2676 0.773438 10.9254 0.830911 10.6701 0.940634L0.855777 5.20937C0.339537 5.43404 0.339537 5.79978 0.855777 6.02445Z" fill="black" fill-opacity="0.54"/>
<path id="Shape_2" fill-rule="evenodd" clip-rule="evenodd" d="M22.3518 10.3963C22.3518 10.3963 20.5594 9.61781 20.3216 9.51331C20.0838 9.40881 20.02 9.41404 19.7706 9.51853C19.5212 9.62303 12.5316 12.6639 12.5316 12.6639C12.2706 12.7736 11.9342 12.8311 11.5978 12.8311C11.2613 12.8311 10.9191 12.7736 10.6639 12.6639C10.6639 12.6639 3.85996 9.70663 3.54093 9.56556C3.1929 9.41404 3.0943 9.41404 2.78107 9.54988C2.45625 9.69096 0.843723 10.3911 0.843723 10.3911C0.327483 10.6158 0.327483 10.9815 0.843723 11.2062L10.6581 15.4749C10.9133 15.5846 11.2555 15.6421 11.592 15.6421C11.9284 15.6421 12.2706 15.5846 12.5258 15.4749L22.3402 11.2062C22.868 10.9867 22.868 10.621 22.3518 10.3963Z" fill="black" fill-opacity="0.54"/>
</g>
<path id="Shape_3" fill-rule="evenodd" clip-rule="evenodd" d="M22.3514 15.5877C22.3514 15.5877 20.559 14.8092 20.3212 14.7047C20.0834 14.6002 20.0196 14.6054 19.7702 14.7099C19.5207 14.8144 12.537 17.8605 12.537 17.8605C12.276 17.9703 11.9395 18.0277 11.6031 18.0277C11.2667 18.0277 10.9245 17.9703 10.6693 17.8605C10.6693 17.8605 3.86533 14.9033 3.5463 14.7622C3.19828 14.6107 3.09967 14.6107 2.78644 14.7465C2.46162 14.8876 0.849094 15.5877 0.849094 15.5877C0.332854 15.8124 0.332854 16.1781 0.849094 16.4028L10.6635 20.6715C10.9187 20.7865 11.2609 20.8387 11.5973 20.8387C11.9337 20.8387 12.276 20.7813 12.5312 20.6715L22.3456 16.4028C22.8676 16.1781 22.8676 15.8124 22.3514 15.5877Z" fill="black" fill-opacity="0.54"/>
</g>
</g>
</svg>
