<svg width="592" height="79" viewBox="0 0 592 79" fill="none" xmlns="http://www.w3.org/2000/svg">
<mask id="path-1-outside-1_78_696" maskUnits="userSpaceOnUse" x="-1" y="0" width="594" height="80" fill="black">
<rect fill="white" x="-1" width="594" height="80"/>
<path d="M0.492279 68.4443L9.74441 53.422C12.1652 55.3122 14.4202 56.8542 16.5094 58.0481C18.6318 59.2419 20.6878 60.1207 22.6775 60.6844C24.7004 61.215 26.7564 61.4803 28.8456 61.4803C30.9016 61.4803 32.6592 61.2482 34.1183 60.7839C35.5774 60.2865 36.6883 59.5901 37.451 58.6947C38.2469 57.7662 38.6449 56.6719 38.6449 55.4117C38.6449 53.8199 38.0811 52.4603 36.9536 51.3328C35.8261 50.2053 34.3173 49.1939 32.427 48.2985C30.57 47.4031 28.5305 46.5078 26.3087 45.6124C23.9211 44.6507 21.4837 43.5895 18.9965 42.4289C16.5094 41.2351 14.2212 39.7925 12.1321 38.1013C10.0429 36.41 8.35161 34.354 7.0583 31.9332C5.765 29.4792 5.11834 26.4947 5.11834 22.9795C5.11834 18.3369 6.279 14.374 8.60033 11.091C10.9548 7.77486 14.1549 5.25457 18.2007 3.53016C22.2795 1.77258 26.889 0.893796 32.0291 0.893796C35.7764 0.893796 39.7392 1.39122 43.9176 2.38607C48.096 3.38093 52.3241 4.93953 56.602 7.06188L48.9416 22.88C46.5539 21.4209 43.9342 20.2603 41.0823 19.398C38.2635 18.5027 35.6769 18.055 33.3224 18.055C31.6975 18.055 30.2715 18.2706 29.0445 18.7017C27.8507 19.1328 26.9222 19.7628 26.259 20.5919C25.5957 21.3878 25.2641 22.3329 25.2641 23.4272C25.2641 24.8863 25.8279 26.1796 26.9554 27.3071C28.0828 28.4015 29.5751 29.4129 31.4322 30.3414C33.2892 31.27 35.3121 32.2151 37.5008 33.1768C39.8884 34.2048 42.3258 35.3488 44.8129 36.609C47.3332 37.8691 49.638 39.3614 51.7272 41.0858C53.8495 42.8102 55.5574 44.8829 56.8507 47.3037C58.144 49.6913 58.7906 52.5598 58.7906 55.9091C58.7906 60.386 57.5636 64.3322 55.1097 67.7479C52.6889 71.1304 49.2898 73.7667 44.9124 75.6569C40.5682 77.5472 35.5111 78.4923 29.7409 78.4923C24.3687 78.4923 19.1955 77.6301 14.2212 75.9057C9.24698 74.1813 4.67066 71.6941 0.492279 68.4443ZM103.857 78.4923C98.1536 78.4923 92.8809 77.5306 88.0393 75.6072C83.2308 73.6507 79.0359 70.9314 75.4544 67.4494C71.9061 63.9343 69.1537 59.8222 67.1971 55.1132C65.2406 50.4043 64.2623 45.2642 64.2623 39.693C64.2623 34.1219 65.2406 28.9818 67.1971 24.2728C69.1537 19.5639 71.9061 15.4684 75.4544 11.9864C79.0359 8.47126 83.2308 5.75199 88.0393 3.82861C92.8809 1.87207 98.1536 0.893796 103.857 0.893796C109.594 0.893796 114.867 1.87207 119.676 3.82861C124.484 5.75199 128.646 8.47126 132.161 11.9864C135.709 15.4684 138.462 19.5639 140.418 24.2728C142.375 28.9818 143.353 34.1219 143.353 39.693C143.353 45.2642 142.375 50.4043 140.418 55.1132C138.462 59.8222 135.709 63.9343 132.161 67.4494C128.646 70.9314 124.484 73.6507 119.676 75.6072C114.867 77.5306 109.594 78.4923 103.857 78.4923ZM103.857 61.3311C106.61 61.3311 109.163 60.7839 111.518 59.6896C113.872 58.5952 115.912 57.0698 117.636 55.1132C119.394 53.1235 120.753 50.8188 121.715 48.199C122.71 45.5792 123.207 42.7439 123.207 39.693C123.207 36.6422 122.71 33.8068 121.715 31.1871C120.753 28.5673 119.394 26.2791 117.636 24.3226C115.912 22.3329 113.872 20.7908 111.518 19.6965C109.163 18.6022 106.61 18.055 103.857 18.055C101.105 18.055 98.535 18.6022 96.1473 19.6965C93.7928 20.7908 91.7368 22.3329 89.9792 24.3226C88.2217 26.2791 86.8455 28.5673 85.8506 31.1871C84.8889 33.8068 84.4081 36.6422 84.4081 39.693C84.4081 42.7439 84.8889 45.5792 85.8506 48.199C86.8455 50.8188 88.2217 53.1235 89.9792 55.1132C91.7368 57.0698 93.7928 58.5952 96.1473 59.6896C98.535 60.7839 101.105 61.3311 103.857 61.3311ZM202.049 77H151.312V2.38607H171.01V59.8388H202.049V77ZM270.396 2.38607V43.3242C270.396 50.6198 269.053 56.904 266.367 62.1767C263.714 67.4163 259.883 71.4454 254.876 74.2642C249.902 77.0829 243.933 78.4923 236.969 78.4923C230.038 78.4923 224.069 77.0829 219.061 74.2642C214.054 71.4454 210.207 67.4163 207.521 62.1767C204.868 56.904 203.542 50.6198 203.542 43.3242V2.38607H223.24V40.6381C223.24 45.3803 223.721 49.2768 224.682 52.3277C225.677 55.3785 227.186 57.6501 229.209 59.1424C231.232 60.6015 233.818 61.3311 236.969 61.3311C240.119 61.3311 242.706 60.6015 244.729 59.1424C246.751 57.6501 248.244 55.3785 249.205 52.3277C250.2 49.2768 250.698 45.3803 250.698 40.6381V2.38607H270.396ZM316.258 77H296.56V19.5473H275.867V2.38607H336.951V19.5473H316.258V77ZM342.423 77V2.38607H362.121V77H342.423ZM409.675 78.4923C403.971 78.4923 398.699 77.5306 393.857 75.6072C389.048 73.6507 384.853 70.9314 381.272 67.4494C377.724 63.9343 374.971 59.8222 373.015 55.1132C371.058 50.4043 370.08 45.2642 370.08 39.693C370.08 34.1219 371.058 28.9818 373.015 24.2728C374.971 19.5639 377.724 15.4684 381.272 11.9864C384.853 8.47126 389.048 5.75199 393.857 3.82861C398.699 1.87207 403.971 0.893796 409.675 0.893796C415.412 0.893796 420.685 1.87207 425.493 3.82861C430.302 5.75199 434.463 8.47126 437.979 11.9864C441.527 15.4684 444.279 19.5639 446.236 24.2728C448.192 28.9818 449.171 34.1219 449.171 39.693C449.171 45.2642 448.192 50.4043 446.236 55.1132C444.279 59.8222 441.527 63.9343 437.979 67.4494C434.463 70.9314 430.302 73.6507 425.493 75.6072C420.685 77.5306 415.412 78.4923 409.675 78.4923ZM409.675 61.3311C412.427 61.3311 414.981 60.7839 417.335 59.6896C419.69 58.5952 421.729 57.0698 423.454 55.1132C425.211 53.1235 426.571 50.8188 427.533 48.199C428.527 45.5792 429.025 42.7439 429.025 39.693C429.025 36.6422 428.527 33.8068 427.533 31.1871C426.571 28.5673 425.211 26.2791 423.454 24.3226C421.729 22.3329 419.69 20.7908 417.335 19.6965C414.981 18.6022 412.427 18.055 409.675 18.055C406.923 18.055 404.353 18.6022 401.965 19.6965C399.61 20.7908 397.554 22.3329 395.797 24.3226C394.039 26.2791 392.663 28.5673 391.668 31.1871C390.707 33.8068 390.226 36.6422 390.226 39.693C390.226 42.7439 390.707 45.5792 391.668 48.199C392.663 50.8188 394.039 53.1235 395.797 55.1132C397.554 57.0698 399.61 58.5952 401.965 59.6896C404.353 60.7839 406.923 61.3311 409.675 61.3311ZM526.869 77H503.689L476.828 32.7291V77H457.13V2.38607H480.31L507.171 46.8062V2.38607H526.869V77ZM533.335 68.4443L542.587 53.422C545.008 55.3122 547.263 56.8542 549.352 58.0481C551.475 59.2419 553.531 60.1207 555.52 60.6844C557.543 61.215 559.599 61.4803 561.688 61.4803C563.744 61.4803 565.502 61.2482 566.961 60.7839C568.42 60.2865 569.531 59.5901 570.294 58.6947C571.09 57.7662 571.488 56.6719 571.488 55.4117C571.488 53.8199 570.924 52.4603 569.797 51.3328C568.669 50.2053 567.16 49.1939 565.27 48.2985C563.413 47.4031 561.373 46.5078 559.152 45.6124C556.764 44.6507 554.327 43.5895 551.839 42.4289C549.352 41.2351 547.064 39.7925 544.975 38.1013C542.886 36.41 541.195 34.354 539.901 31.9332C538.608 29.4792 537.961 26.4947 537.961 22.9795C537.961 18.3369 539.122 14.374 541.443 11.091C543.798 7.77486 546.998 5.25457 551.044 3.53016C555.122 1.77258 559.732 0.893796 564.872 0.893796C568.619 0.893796 572.582 1.39122 576.76 2.38607C580.939 3.38093 585.167 4.93953 589.445 7.06188L581.784 22.88C579.397 21.4209 576.777 20.2603 573.925 19.398C571.106 18.5027 568.52 18.055 566.165 18.055C564.54 18.055 563.114 18.2706 561.887 18.7017C560.694 19.1328 559.765 19.7628 559.102 20.5919C558.439 21.3878 558.107 22.3329 558.107 23.4272C558.107 24.8863 558.671 26.1796 559.798 27.3071C560.926 28.4015 562.418 29.4129 564.275 30.3414C566.132 31.27 568.155 32.2151 570.344 33.1768C572.731 34.2048 575.169 35.3488 577.656 36.609C580.176 37.8691 582.481 39.3614 584.57 41.0858C586.692 42.8102 588.4 44.8829 589.694 47.3037C590.987 49.6913 591.634 52.5598 591.634 55.9091C591.634 60.386 590.407 64.3322 587.953 67.7479C585.532 71.1304 582.133 73.7667 577.755 75.6569C573.411 77.5472 568.354 78.4923 562.584 78.4923C557.212 78.4923 552.038 77.6301 547.064 75.9057C542.09 74.1813 537.514 71.6941 533.335 68.4443Z"/>
</mask>
<path d="M0.492278 68.4443L-0.085996 68.0881L-0.405297 68.6066L0.0753191 68.9804L0.492278 68.4443ZM9.7444 53.422L10.1624 52.8867L9.56415 52.4196L9.16613 53.0658L9.7444 53.422ZM16.5094 58.0481L16.1724 58.6377L16.1764 58.64L16.5094 58.0481ZM22.6775 60.6844L22.4923 61.338L22.5052 61.3414L22.6775 60.6844ZM34.1183 60.7839L34.3243 61.4312L34.3374 61.4267L34.1183 60.7839ZM37.451 58.6947L36.9354 58.2527L36.934 58.2543L37.451 58.6947ZM32.427 48.2985L32.1321 48.9103L32.1363 48.9123L32.427 48.2985ZM26.3087 45.6124L26.5625 44.9825L26.5624 44.9824L26.3087 45.6124ZM18.9965 42.4289L18.7026 43.0412L18.7093 43.0443L18.9965 42.4289ZM7.0583 31.9332L6.45748 32.2498L6.45928 32.2532L7.0583 31.9332ZM8.60032 11.091L8.04655 10.6979L8.04579 10.6989L8.60032 11.091ZM18.2006 3.53016L18.4669 4.15493L18.4694 4.15387L18.2006 3.53016ZM56.602 7.06188L57.2132 7.35789L57.5064 6.75246L56.9038 6.45349L56.602 7.06188ZM48.9416 22.88L48.5874 23.4595L49.2264 23.85L49.5528 23.176L48.9416 22.88ZM41.0823 19.3981L40.8766 20.0454L40.8857 20.0481L41.0823 19.3981ZM29.0445 18.7017L28.8194 18.0609L28.8139 18.0629L29.0445 18.7017ZM26.259 20.5919L26.7808 21.0267L26.7893 21.0161L26.259 20.5919ZM26.9554 27.3071L26.4751 27.7874L26.4823 27.7945L26.9554 27.3071ZM37.5008 33.1768L37.2276 33.7985L37.2322 33.8005L37.5008 33.1768ZM44.813 36.609L44.506 37.2148L44.5092 37.2164L44.813 36.609ZM51.7272 41.0858L51.2948 41.6096L51.2989 41.6129L51.7272 41.0858ZM56.8507 47.3037L56.2516 47.6237L56.2535 47.6271L56.8507 47.3037ZM55.1097 67.7479L54.5581 67.3516L54.5574 67.3526L55.1097 67.7479ZM44.9124 75.657L44.6432 75.0334L44.6415 75.0342L44.9124 75.657ZM1.07055 68.8004L10.3227 53.7782L9.16613 53.0658L-0.085996 68.0881L1.07055 68.8004ZM9.32643 53.9573C11.7663 55.8624 14.0485 57.4241 16.1724 58.6377L16.8464 57.4584C14.7919 56.2844 12.5642 54.7621 10.1624 52.8867L9.32643 53.9573ZM16.1764 58.64C18.3375 59.8556 20.443 60.7572 22.4923 61.3379L22.8626 60.031C20.9326 59.4841 18.926 58.6282 16.8424 57.4561L16.1764 58.64ZM22.5052 61.3414C24.5842 61.8867 26.6982 62.1595 28.8456 62.1595V60.8012C26.8146 60.8012 24.8165 60.5433 22.8498 60.0275L22.5052 61.3414ZM28.8456 62.1595C30.9491 62.1595 32.7801 61.9224 34.3242 61.4311L33.9124 60.1367C32.5382 60.574 30.8541 60.8012 28.8456 60.8012V62.1595ZM34.3374 61.4267C35.8772 60.9018 37.1051 60.1482 37.968 59.1351L36.934 58.2543C36.2716 59.032 35.2776 59.6712 33.8991 60.1411L34.3374 61.4267ZM37.9667 59.1367C38.8715 58.0811 39.324 56.8286 39.324 55.4117H37.9657C37.9657 56.5151 37.6223 57.4513 36.9354 58.2527L37.9667 59.1367ZM39.324 55.4117C39.324 53.6395 38.6885 52.1072 37.4338 50.8526L36.4734 51.813C37.4738 52.8134 37.9657 54.0004 37.9657 55.4117H39.324ZM37.4338 50.8526C36.2372 49.6559 34.6576 48.6036 32.7178 47.6847L32.1363 48.9123C33.9769 49.7841 35.4151 50.7547 36.4734 51.813L37.4338 50.8526ZM32.722 47.6868C30.8495 46.7839 28.7961 45.8826 26.5625 44.9825L26.0548 46.2423C28.2649 47.133 30.2905 48.0224 32.1321 48.9103L32.722 47.6868ZM26.5624 44.9824C24.1868 44.0256 21.7606 42.9693 19.2837 41.8134L18.7093 43.0443C21.2068 44.2098 23.6553 45.2759 26.055 46.2424L26.5624 44.9824ZM19.2904 41.8166C16.8496 40.645 14.6064 39.2306 12.5594 37.5734L11.7047 38.6291C13.836 40.3545 16.1692 41.8251 18.7026 43.0412L19.2904 41.8166ZM12.5594 37.5734C10.5422 35.9405 8.90879 33.9556 7.65733 31.6132L6.45928 32.2532C7.79443 34.7523 9.54348 36.8796 11.7047 38.6291L12.5594 37.5734ZM7.65912 31.6165C6.42919 29.2828 5.79749 26.4131 5.79749 22.9795H4.43919C4.43919 26.5762 5.1008 29.6756 6.45749 32.2498L7.65912 31.6165ZM5.79749 22.9795C5.79749 18.4549 6.92668 14.6344 9.15486 11.4831L8.04579 10.6989C5.63133 14.1137 4.43919 18.2189 4.43919 22.9795H5.79749ZM9.15409 11.4842C11.4301 8.2786 14.5268 5.83431 18.4669 4.15492L17.9344 2.90539C13.783 4.67482 10.4795 7.27112 8.04656 10.6979L9.15409 11.4842ZM18.4694 4.15387C22.4511 2.43817 26.967 1.57295 32.0291 1.57295V0.214644C26.811 0.214644 22.108 1.10699 17.9319 2.90644L18.4694 4.15387ZM32.0291 1.57295C35.7164 1.57295 39.6261 2.06243 43.7603 3.04676L44.0749 1.72539C39.8523 0.720015 35.8364 0.214644 32.0291 0.214644V1.57295ZM43.7603 3.04676C47.8835 4.02847 52.0632 5.56826 56.3001 7.67027L56.9038 6.45349C52.5849 4.3108 48.3085 2.73339 44.0749 1.72539L43.7603 3.04676ZM55.9907 6.76587L48.3303 22.584L49.5528 23.176L57.2132 7.35789L55.9907 6.76587ZM49.2957 22.3005C46.8557 20.8094 44.1825 19.6258 41.2788 18.748L40.8857 20.0481C43.6859 20.8947 46.2522 22.0324 48.5874 23.4595L49.2957 22.3005ZM41.2879 18.7508C38.4189 17.8394 35.7619 17.3758 33.3224 17.3758V18.7342C35.5919 18.7342 38.1082 19.1659 40.8766 20.0453L41.2879 18.7508ZM33.3224 17.3758C31.6391 17.3758 30.1342 17.5989 28.8194 18.0609L29.2697 19.3424C30.4088 18.9422 31.7558 18.7342 33.3224 18.7342V17.3758ZM28.8139 18.0629C27.5255 18.5281 26.4842 19.2232 25.7286 20.1676L26.7893 21.0161C27.3602 20.3025 28.1759 19.7374 29.2752 19.3404L28.8139 18.0629ZM25.7372 20.1571C24.9662 21.0823 24.5849 22.1837 24.5849 23.4272H25.9433C25.9433 22.4821 26.2252 21.6933 26.7807 21.0267L25.7372 20.1571ZM24.5849 23.4272C24.5849 25.084 25.2333 26.5455 26.4751 27.7874L27.4356 26.8269C26.4224 25.8137 25.9433 24.6886 25.9433 23.4272H24.5849ZM26.4823 27.7945C27.6729 28.95 29.2279 29.9986 31.1285 30.9489L31.7359 29.734C29.9223 28.8272 28.4928 27.8529 27.4284 26.8198L26.4823 27.7945ZM31.1285 30.9489C32.9969 31.8831 35.0301 32.833 37.2276 33.7985L37.774 32.555C35.5941 31.5971 33.5816 30.6568 31.7359 29.734L31.1285 30.9489ZM37.2322 33.8005C39.606 34.8226 42.0306 35.9606 44.506 37.2148L45.1199 36.0032C42.6211 34.7371 40.1709 33.5869 37.7694 32.553L37.2322 33.8005ZM44.5092 37.2164C46.9855 38.4546 49.2468 39.9191 51.2948 41.6096L52.1595 40.5621C50.0292 38.8037 47.681 37.2837 45.1167 36.0015L44.5092 37.2164ZM51.2989 41.6129C53.3509 43.2801 55.0007 45.2823 56.2516 47.6237L57.4497 46.9836C56.114 44.4834 54.3482 42.3403 52.1554 40.5587L51.2989 41.6129ZM56.2535 47.6271C57.4818 49.8948 58.1115 52.6467 58.1115 55.9091H59.4698C59.4698 52.4729 58.8061 49.4878 57.4478 46.9802L56.2535 47.6271ZM58.1115 55.9091C58.1115 60.2535 56.9236 64.0591 54.5581 67.3516L55.6612 68.1441C58.2037 64.6054 59.4698 60.5184 59.4698 55.9091H58.1115ZM54.5574 67.3526C52.2184 70.6207 48.9241 73.1849 44.6432 75.0334L45.1817 76.2805C49.6555 74.3486 53.1593 71.64 55.662 68.1431L54.5574 67.3526ZM44.6415 75.0342C40.3993 76.88 35.4377 77.8131 29.7409 77.8131V79.1714C35.5845 79.1714 40.7372 78.2143 45.1834 76.2797L44.6415 75.0342ZM29.7409 77.8131C24.4429 77.8131 19.3449 76.9631 14.4437 75.264L13.9988 76.5473C19.0461 78.2971 24.2946 79.1714 29.7409 79.1714V77.8131ZM14.4437 75.264C9.53999 73.564 5.02932 71.1127 0.909238 67.9082L0.0753191 68.9804C4.312 72.2756 8.95396 74.7985 13.9988 76.5473L14.4437 75.264ZM88.0393 75.6072L87.7833 76.2363L87.7885 76.2384L88.0393 75.6072ZM75.4544 67.4494L74.9764 67.9319L74.981 67.9364L75.4544 67.4494ZM75.4544 11.9864L75.9301 12.4711L75.9301 12.4711L75.4544 11.9864ZM88.0393 3.82861L88.2915 4.45919L88.2937 4.45829L88.0393 3.82861ZM119.676 3.82861L119.42 4.45769L119.423 4.45919L119.676 3.82861ZM132.161 11.9864L131.681 12.4667L131.685 12.4711L132.161 11.9864ZM132.161 67.4494L132.639 67.9319L132.639 67.9319L132.161 67.4494ZM119.676 75.6072L119.928 76.2378L119.932 76.2363L119.676 75.6072ZM117.636 55.1132L117.127 54.6636L117.127 54.6642L117.636 55.1132ZM121.715 48.199L121.08 47.9579L121.077 47.965L121.715 48.199ZM121.715 31.187L121.077 31.4211L121.08 31.4282L121.715 31.187ZM117.636 24.3226L117.123 24.7674L117.131 24.7764L117.636 24.3226ZM96.1473 19.6965L95.8644 19.0791L95.8611 19.0806L96.1473 19.6965ZM89.9792 24.3226L90.4845 24.7764L90.4883 24.7722L89.9792 24.3226ZM85.8506 31.187L85.2157 30.9459L85.2131 30.953L85.8506 31.187ZM85.8506 48.199L85.213 48.4331L85.2157 48.4401L85.8506 48.199ZM89.9792 55.1132L89.4702 55.5629L89.474 55.5671L89.9792 55.1132ZM96.1473 59.6896L95.8611 60.3055L95.8644 60.307L96.1473 59.6896ZM103.857 77.8131C98.2313 77.8131 93.0446 76.8648 88.29 74.976L87.7885 76.2384C92.7172 78.1963 98.0759 79.1714 103.857 79.1714V77.8131ZM88.2952 74.9781C83.5645 73.0532 79.4442 70.3811 75.9278 66.9625L74.981 67.9364C78.6276 71.4817 82.8971 74.2481 87.7833 76.2363L88.2952 74.9781ZM75.9324 66.9669C72.4494 63.5165 69.747 59.4803 67.8243 54.8527L66.57 55.3738C68.5603 60.1641 71.3628 64.3521 74.9764 67.9319L75.9324 66.9669ZM67.8243 54.8527C65.9051 50.2336 64.9415 45.1831 64.9415 39.693H63.5832C63.5832 45.3453 64.576 50.5749 66.57 55.3738L67.8243 54.8527ZM64.9415 39.693C64.9415 34.203 65.9051 29.1524 67.8243 24.5334L66.57 24.0122C64.576 28.8112 63.5832 34.0408 63.5832 39.693H64.9415ZM67.8243 24.5334C69.7468 19.9064 72.4485 15.8877 75.9301 12.4711L74.9787 11.5017C71.3637 15.0491 68.5605 19.2214 66.57 24.0122L67.8243 24.5334ZM75.9301 12.4711C79.4454 9.02091 83.5637 6.3503 88.2915 4.45919L87.7871 3.19803C82.8979 5.15369 78.6263 7.9216 74.9787 11.5017L75.9301 12.4711ZM88.2937 4.45829C93.0473 2.53732 98.2327 1.57295 103.857 1.57295V0.214644C98.0745 0.214644 92.7145 1.20681 87.7848 3.19893L88.2937 4.45829ZM103.857 1.57295C109.516 1.57295 114.701 2.53753 119.42 4.45768L119.932 3.19954C115.034 1.20661 109.673 0.214644 103.857 0.214644V1.57295ZM119.423 4.45919C124.15 6.34987 128.233 9.01924 131.681 12.4666L132.641 11.5062C129.058 7.92327 124.818 5.15412 119.928 3.19803L119.423 4.45919ZM131.685 12.4711C135.167 15.8877 137.869 19.9064 139.791 24.5334L141.045 24.0122C139.055 19.2214 136.252 15.0491 132.637 11.5017L131.685 12.4711ZM139.791 24.5334C141.71 29.1524 142.674 34.203 142.674 39.693H144.032C144.032 34.0408 143.039 28.8112 141.045 24.0122L139.791 24.5334ZM142.674 39.693C142.674 45.1831 141.71 50.2336 139.791 54.8527L141.045 55.3738C143.039 50.5749 144.032 45.3453 144.032 39.693H142.674ZM139.791 54.8527C137.868 59.4803 135.166 63.5165 131.683 66.9669L132.639 67.9319C136.253 64.3521 139.055 60.1641 141.045 55.3738L139.791 54.8527ZM131.683 66.9669C128.235 70.3828 124.149 73.0536 119.42 74.9781L119.932 76.2363C124.819 74.2477 129.057 71.48 132.639 67.9319L131.683 66.9669ZM119.423 74.9766C114.703 76.8646 109.517 77.8131 103.857 77.8131V79.1714C109.672 79.1714 115.031 78.1965 119.928 76.2378L119.423 74.9766ZM103.857 62.0102C106.703 62.0102 109.355 61.444 111.804 60.3055L111.232 59.0737C108.972 60.1239 106.517 60.6519 103.857 60.6519V62.0102ZM111.804 60.3055C114.244 59.1714 116.359 57.589 118.146 55.5623L117.127 54.6642C115.464 56.5506 113.5 58.0191 111.232 59.0737L111.804 60.3055ZM118.145 55.5629C119.961 53.5067 121.363 51.128 122.353 48.4331L121.077 47.965C120.143 50.5097 118.826 52.7404 117.127 54.6636L118.145 55.5629ZM122.35 48.4401C123.377 45.7368 123.886 42.819 123.886 39.693H122.528C122.528 42.6689 122.043 45.4217 121.08 47.9579L122.35 48.4401ZM123.886 39.693C123.886 36.5671 123.377 33.6493 122.35 30.9459L121.08 31.4282C122.043 33.9644 122.528 36.7172 122.528 39.693H123.886ZM122.353 30.953C121.363 28.2572 119.96 25.8933 118.141 23.8687L117.131 24.7764C118.827 26.6649 120.144 28.8773 121.077 31.4211L122.353 30.953ZM118.149 23.8778C116.363 21.8167 114.247 20.2159 111.804 19.0806L111.232 20.3124C113.498 21.3658 115.46 22.849 117.123 24.7674L118.149 23.8778ZM111.804 19.0806C109.355 17.9421 106.703 17.3758 103.857 17.3758V18.7342C106.517 18.7342 108.972 19.2622 111.232 20.3124L111.804 19.0806ZM103.857 17.3758C101.012 17.3758 98.345 17.9421 95.8644 19.0791L96.4303 20.3139C98.7249 19.2622 101.198 18.7342 103.857 18.7342V17.3758ZM95.8611 19.0806C93.4197 20.2153 91.2884 21.8147 89.4702 23.8729L90.4883 24.7722C92.1853 22.851 94.166 21.3664 96.4336 20.3124L95.8611 19.0806ZM89.474 23.8687C87.6569 25.8916 86.2383 28.253 85.2157 30.9459L86.4855 31.4282C87.4526 28.8815 88.7865 26.6667 90.4845 24.7764L89.474 23.8687ZM85.2131 30.953C84.2214 33.6544 83.7289 36.5697 83.7289 39.693H85.0872C85.0872 36.7146 85.5564 33.9592 86.4882 31.4211L85.2131 30.953ZM83.7289 39.693C83.7289 42.8163 84.2214 45.7316 85.2131 48.4331L86.4882 47.965C85.5564 45.4269 85.0872 42.6715 85.0872 39.693H83.7289ZM85.2157 48.4401C86.238 51.1321 87.6555 53.5085 89.4702 55.5629L90.4883 54.6636C88.7878 52.7386 87.4529 50.5055 86.4855 47.9579L85.2157 48.4401ZM89.474 55.5671C91.2921 57.591 93.4223 59.1719 95.8611 60.3055L96.4336 59.0737C94.1634 58.0185 92.1816 56.5486 90.4845 54.6594L89.474 55.5671ZM95.8644 60.307C98.345 61.4439 101.012 62.0102 103.857 62.0102V60.6519C101.198 60.6519 98.7249 60.1239 96.4303 59.0722L95.8644 60.307ZM202.049 77V77.6792H202.729V77H202.049ZM151.312 77H150.633V77.6792H151.312V77ZM151.312 2.38608V1.70692H150.633V2.38608H151.312ZM171.01 2.38608H171.689V1.70692H171.01V2.38608ZM171.01 59.8388H170.331V60.5179H171.01V59.8388ZM202.049 59.8388H202.729V59.1596H202.049V59.8388ZM202.049 76.3208H151.312V77.6792H202.049V76.3208ZM151.991 77V2.38608H150.633V77H151.991ZM151.312 3.06523H171.01V1.70692H151.312V3.06523ZM170.331 2.38608V59.8388H171.689V2.38608H170.331ZM171.01 60.5179H202.049V59.1596H171.01V60.5179ZM201.37 59.8388V77H202.729V59.8388H201.37ZM270.396 2.38608H271.075V1.70692H270.396V2.38608ZM266.367 62.1767L265.761 61.8684L265.761 61.8699L266.367 62.1767ZM254.876 74.2642L254.543 73.6723L254.541 73.6733L254.876 74.2642ZM207.521 62.1767L206.914 62.482L206.917 62.4865L207.521 62.1767ZM203.542 2.38608V1.70692H202.862V2.38608H203.542ZM223.24 2.38608H223.919V1.70692H223.24V2.38608ZM224.682 52.3277L224.034 52.5318L224.037 52.5382L224.682 52.3277ZM229.209 59.1424L228.806 59.689L228.812 59.6932L229.209 59.1424ZM244.729 59.1424L245.126 59.6932L245.132 59.6889L244.729 59.1424ZM249.205 52.3277L248.56 52.1171L248.558 52.1235L249.205 52.3277ZM250.698 2.38608V1.70692H250.018V2.38608H250.698ZM269.717 2.38608V43.3242H271.075V2.38608H269.717ZM269.717 43.3242C269.717 50.5372 268.389 56.7109 265.761 61.8684L266.972 62.485C269.716 57.0971 271.075 50.7025 271.075 43.3242H269.717ZM265.761 61.8699C263.167 66.9924 259.43 70.921 254.543 73.6723L255.209 74.856C260.336 71.9698 264.26 67.8401 266.972 62.4835L265.761 61.8699ZM254.541 73.6733C249.689 76.4228 243.841 77.8131 236.969 77.8131V79.1714C244.025 79.1714 250.114 77.743 255.211 74.855L254.541 73.6733ZM236.969 77.8131C230.131 77.8131 224.281 76.4231 219.394 73.6723L218.728 74.856C223.856 77.7427 229.945 79.1714 236.969 79.1714V77.8131ZM219.394 73.6723C214.506 70.9206 210.752 66.991 208.125 61.8669L206.917 62.4865C209.662 67.8416 213.602 71.9702 218.728 74.856L219.394 73.6723ZM208.128 61.8714C205.532 56.7132 204.221 50.5384 204.221 43.3242H202.862C202.862 50.7013 204.204 57.0948 206.914 62.482L208.128 61.8714ZM204.221 43.3242V2.38608H202.862V43.3242H204.221ZM203.542 3.06523H223.24V1.70692H203.542V3.06523ZM222.561 2.38608V40.6381H223.919V2.38608H222.561ZM222.561 40.6381C222.561 45.4195 223.045 49.3913 224.035 52.5318L225.33 52.1235C224.397 49.1622 223.919 45.3411 223.919 40.6381H222.561ZM224.037 52.5382C225.063 55.6863 226.641 58.092 228.806 59.6889L229.612 58.5959C227.731 57.2082 226.291 55.0708 225.328 52.1171L224.037 52.5382ZM228.812 59.6932C230.977 61.2554 233.713 62.0102 236.969 62.0102V60.6519C233.923 60.6519 231.486 59.9476 229.606 58.5916L228.812 59.6932ZM236.969 62.0102C240.224 62.0102 242.96 61.2554 245.126 59.6932L244.331 58.5916C242.451 59.9476 240.014 60.6519 236.969 60.6519V62.0102ZM245.132 59.6889C247.298 58.0905 248.86 55.6823 249.853 52.5318L248.558 52.1235C247.627 55.0748 246.204 57.2097 244.325 58.5959L245.132 59.6889ZM249.851 52.5382C250.876 49.3952 251.377 45.421 251.377 40.6381H250.018C250.018 45.3396 249.524 49.1583 248.56 52.1171L249.851 52.5382ZM251.377 40.6381V2.38608H250.018V40.6381H251.377ZM250.698 3.06523H270.396V1.70692H250.698V3.06523ZM316.258 77V77.6792H316.938V77H316.258ZM296.56 77H295.881V77.6792H296.56V77ZM296.56 19.5473H297.239V18.8681H296.56V19.5473ZM275.867 19.5473H275.188V20.2264H275.867V19.5473ZM275.867 2.38608V1.70692H275.188V2.38608H275.867ZM336.951 2.38608H337.63V1.70692H336.951V2.38608ZM336.951 19.5473V20.2264H337.63V19.5473H336.951ZM316.258 19.5473V18.8681H315.579V19.5473H316.258ZM316.258 76.3208H296.56V77.6792H316.258V76.3208ZM297.239 77V19.5473H295.881V77H297.239ZM296.56 18.8681H275.867V20.2264H296.56V18.8681ZM276.547 19.5473V2.38608H275.188V19.5473H276.547ZM275.867 3.06523H336.951V1.70692H275.867V3.06523ZM336.272 2.38608V19.5473H337.63V2.38608H336.272ZM336.951 18.8681H316.258V20.2264H336.951V18.8681ZM315.579 19.5473V77H316.938V19.5473H315.579ZM342.423 77H341.744V77.6792H342.423V77ZM342.423 2.38608V1.70692H341.744V2.38608H342.423ZM362.121 2.38608H362.8V1.70692H362.121V2.38608ZM362.121 77V77.6792H362.8V77H362.121ZM343.102 77V2.38608H341.744V77H343.102ZM342.423 3.06523H362.121V1.70692H342.423V3.06523ZM361.442 2.38608V77H362.8V2.38608H361.442ZM362.121 76.3208H342.423V77.6792H362.121V76.3208ZM393.857 75.6072L393.601 76.2363L393.606 76.2384L393.857 75.6072ZM381.272 67.4494L380.794 67.9319L380.799 67.9364L381.272 67.4494ZM381.272 11.9864L381.748 12.4711L381.748 12.4711L381.272 11.9864ZM393.857 3.82861L394.109 4.45919L394.111 4.45829L393.857 3.82861ZM425.493 3.82861L425.237 4.45769L425.241 4.45919L425.493 3.82861ZM437.979 11.9864L437.498 12.4667L437.503 12.4711L437.979 11.9864ZM437.979 67.4494L438.457 67.9319L438.457 67.9319L437.979 67.4494ZM425.493 75.6072L425.745 76.2378L425.749 76.2363L425.493 75.6072ZM423.454 55.1132L422.945 54.6636L422.944 54.6642L423.454 55.1132ZM427.533 48.199L426.898 47.9579L426.895 47.965L427.533 48.199ZM427.533 31.187L426.895 31.4211L426.898 31.4282L427.533 31.187ZM423.454 24.3226L422.94 24.7674L422.949 24.7764L423.454 24.3226ZM401.965 19.6965L401.682 19.0791L401.679 19.0806L401.965 19.6965ZM395.797 24.3226L396.302 24.7764L396.306 24.7722L395.797 24.3226ZM391.668 31.187L391.033 30.9459L391.031 30.953L391.668 31.187ZM391.668 48.199L391.031 48.4331L391.033 48.4401L391.668 48.199ZM395.797 55.1132L395.288 55.5629L395.292 55.5671L395.797 55.1132ZM401.965 59.6896L401.679 60.3055L401.682 60.307L401.965 59.6896ZM409.675 77.8131C404.049 77.8131 398.862 76.8648 394.108 74.976L393.606 76.2384C398.535 78.1963 403.894 79.1714 409.675 79.1714V77.8131ZM394.113 74.9781C389.382 73.0532 385.262 70.3811 381.745 66.9625L380.799 67.9364C384.445 71.4817 388.715 74.2481 393.601 76.2363L394.113 74.9781ZM381.75 66.9669C378.267 63.5165 375.565 59.4803 373.642 54.8527L372.388 55.3738C374.378 60.1641 377.18 64.3521 380.794 67.9319L381.75 66.9669ZM373.642 54.8527C371.723 50.2336 370.759 45.1831 370.759 39.693H369.401C369.401 45.3453 370.394 50.5749 372.388 55.3738L373.642 54.8527ZM370.759 39.693C370.759 34.203 371.723 29.1524 373.642 24.5334L372.388 24.0122C370.394 28.8112 369.401 34.0408 369.401 39.693H370.759ZM373.642 24.5334C375.564 19.9064 378.266 15.8877 381.748 12.4711L380.796 11.5017C377.181 15.0491 374.378 19.2214 372.388 24.0122L373.642 24.5334ZM381.748 12.4711C385.263 9.02091 389.381 6.3503 394.109 4.45919L393.605 3.19803C388.716 5.15369 384.444 7.9216 380.796 11.5017L381.748 12.4711ZM394.111 4.45829C398.865 2.53732 404.05 1.57295 409.675 1.57295V0.214644C403.892 0.214644 398.532 1.20681 393.602 3.19893L394.111 4.45829ZM409.675 1.57295C415.334 1.57295 420.518 2.53753 425.237 4.45768L425.749 3.19954C420.851 1.20661 415.491 0.214644 409.675 0.214644V1.57295ZM425.241 4.45919C429.968 6.34987 434.051 9.01924 437.498 12.4666L438.459 11.5062C434.876 7.92327 430.636 5.15412 425.745 3.19803L425.241 4.45919ZM437.503 12.4711C440.984 15.8877 443.686 19.9064 445.609 24.5334L446.863 24.0122C444.872 19.2214 442.069 15.0491 438.454 11.5017L437.503 12.4711ZM445.609 24.5334C447.528 29.1524 448.492 34.203 448.492 39.693H449.85C449.85 34.0408 448.857 28.8112 446.863 24.0122L445.609 24.5334ZM448.492 39.693C448.492 45.1831 447.528 50.2336 445.609 54.8527L446.863 55.3738C448.857 50.5749 449.85 45.3453 449.85 39.693H448.492ZM445.609 54.8527C443.686 59.4803 440.984 63.5165 437.501 66.9669L438.457 67.9319C442.07 64.3521 444.873 60.1641 446.863 55.3738L445.609 54.8527ZM437.501 66.9669C434.052 70.3828 429.967 73.0536 425.237 74.9781L425.749 76.2363C430.636 74.2477 434.875 71.48 438.457 67.9319L437.501 66.9669ZM425.241 74.9766C420.521 76.8646 415.335 77.8131 409.675 77.8131V79.1714C415.489 79.1714 420.849 78.1965 425.745 76.2378L425.241 74.9766ZM409.675 62.0102C412.52 62.0102 415.172 61.444 417.622 60.3055L417.049 59.0737C414.79 60.1239 412.335 60.6519 409.675 60.6519V62.0102ZM417.622 60.3055C420.062 59.1714 422.177 57.589 423.963 55.5623L422.944 54.6642C421.282 56.5506 419.318 58.0191 417.049 59.0737L417.622 60.3055ZM423.963 55.5629C425.779 53.5067 427.181 51.128 428.17 48.4331L426.895 47.965C425.961 50.5097 424.644 52.7404 422.945 54.6636L423.963 55.5629ZM428.168 48.4401C429.194 45.7368 429.704 42.819 429.704 39.693H428.346C428.346 42.6689 427.861 45.4217 426.898 47.9579L428.168 48.4401ZM429.704 39.693C429.704 36.5671 429.194 33.6493 428.168 30.9459L426.898 31.4282C427.861 33.9644 428.346 36.7172 428.346 39.693H429.704ZM428.17 30.953C427.181 28.2572 425.778 25.8933 423.959 23.8687L422.949 24.7764C424.645 26.6649 425.961 28.8773 426.895 31.4211L428.17 30.953ZM423.967 23.8778C422.181 21.8167 420.064 20.2159 417.622 19.0806L417.049 20.3124C419.316 21.3658 421.278 22.849 422.941 24.7674L423.967 23.8778ZM417.622 19.0806C415.172 17.9421 412.52 17.3758 409.675 17.3758V18.7342C412.335 18.7342 414.79 19.2622 417.049 20.3124L417.622 19.0806ZM409.675 17.3758C406.83 17.3758 404.163 17.9421 401.682 19.0791L402.248 20.3139C404.543 19.2622 407.016 18.7342 409.675 18.7342V17.3758ZM401.679 19.0806C399.237 20.2153 397.106 21.8147 395.288 23.8729L396.306 24.7722C398.003 22.851 399.984 21.3664 402.251 20.3124L401.679 19.0806ZM395.292 23.8687C393.474 25.8916 392.056 28.253 391.033 30.9459L392.303 31.4282C393.27 28.8815 394.604 26.6667 396.302 24.7764L395.292 23.8687ZM391.031 30.953C390.039 33.6544 389.547 36.5697 389.547 39.693H390.905C390.905 36.7146 391.374 33.9592 392.306 31.4211L391.031 30.953ZM389.547 39.693C389.547 42.8163 390.039 45.7316 391.031 48.4331L392.306 47.965C391.374 45.4269 390.905 42.6715 390.905 39.693H389.547ZM391.033 48.4401C392.056 51.1321 393.473 53.5085 395.288 55.5629L396.306 54.6636C394.605 52.7386 393.271 50.5055 392.303 47.9579L391.033 48.4401ZM395.292 55.5671C397.11 57.591 399.24 59.1719 401.679 60.3055L402.251 59.0737C399.981 58.0185 397.999 56.5486 396.302 54.6594L395.292 55.5671ZM401.682 60.307C404.163 61.4439 406.83 62.0102 409.675 62.0102V60.6519C407.016 60.6519 404.543 60.1239 402.248 59.0722L401.682 60.307ZM526.869 77V77.6792H527.548V77H526.869ZM503.689 77L503.108 77.3523L503.306 77.6792H503.689V77ZM476.828 32.7291L477.408 32.3768L476.148 30.3005V32.7291H476.828ZM476.828 77V77.6792H477.507V77H476.828ZM457.13 77H456.45V77.6792H457.13V77ZM457.13 2.38608V1.70692H456.45V2.38608H457.13ZM480.31 2.38608L480.891 2.03465L480.693 1.70692H480.31V2.38608ZM507.171 46.8062L506.589 47.1577L507.85 49.2418V46.8062H507.171ZM507.171 2.38608V1.70692H506.491V2.38608H507.171ZM526.869 2.38608H527.548V1.70692H526.869V2.38608ZM526.869 76.3208H503.689V77.6792H526.869V76.3208ZM504.269 76.6477L477.408 32.3768L476.247 33.0814L503.108 77.3523L504.269 76.6477ZM476.148 32.7291V77H477.507V32.7291H476.148ZM476.828 76.3208H457.13V77.6792H476.828V76.3208ZM457.809 77V2.38608H456.45V77H457.809ZM457.13 3.06523H480.31V1.70692H457.13V3.06523ZM479.728 2.7375L506.589 47.1577L507.752 46.4548L480.891 2.03465L479.728 2.7375ZM507.85 46.8062V2.38608H506.491V46.8062H507.85ZM507.171 3.06523H526.869V1.70692H507.171V3.06523ZM526.19 2.38608V77H527.548V2.38608H526.19ZM533.335 68.4443L532.757 68.0881L532.438 68.6066L532.918 68.9804L533.335 68.4443ZM542.587 53.422L543.005 52.8867L542.407 52.4196L542.009 53.0658L542.587 53.422ZM549.352 58.0481L549.015 58.6377L549.019 58.64L549.352 58.0481ZM555.52 60.6844L555.335 61.338L555.348 61.3414L555.52 60.6844ZM566.961 60.7839L567.167 61.4312L567.18 61.4267L566.961 60.7839ZM570.294 58.6947L569.778 58.2527L569.777 58.2543L570.294 58.6947ZM565.27 48.2985L564.975 48.9103L564.979 48.9123L565.27 48.2985ZM559.152 45.6124L559.405 44.9825L559.405 44.9824L559.152 45.6124ZM551.839 42.4289L551.546 43.0412L551.552 43.0443L551.839 42.4289ZM539.901 31.9332L539.3 32.2498L539.302 32.2532L539.901 31.9332ZM541.443 11.091L540.889 10.6979L540.889 10.6989L541.443 11.091ZM551.044 3.53016L551.31 4.15493L551.312 4.15387L551.044 3.53016ZM589.445 7.06188L590.056 7.35789L590.349 6.75246L589.747 6.45349L589.445 7.06188ZM581.784 22.88L581.43 23.4595L582.069 23.85L582.396 23.176L581.784 22.88ZM573.925 19.3981L573.72 20.0454L573.729 20.0481L573.925 19.3981ZM561.887 18.7017L561.662 18.0609L561.657 18.0629L561.887 18.7017ZM559.102 20.5919L559.624 21.0267L559.632 21.0161L559.102 20.5919ZM559.798 27.3071L559.318 27.7874L559.325 27.7945L559.798 27.3071ZM570.344 33.1768L570.07 33.7985L570.075 33.8005L570.344 33.1768ZM577.656 36.609L577.349 37.2148L577.352 37.2164L577.656 36.609ZM584.57 41.0858L584.138 41.6096L584.142 41.6129L584.57 41.0858ZM589.694 47.3037L589.095 47.6237L589.096 47.6271L589.694 47.3037ZM587.953 67.7479L587.401 67.3516L587.4 67.3526L587.953 67.7479ZM577.755 75.657L577.486 75.0334L577.484 75.0342L577.755 75.657ZM533.913 68.8004L543.166 53.7782L542.009 53.0658L532.757 68.0881L533.913 68.8004ZM542.169 53.9573C544.609 55.8624 546.891 57.4241 549.015 58.6377L549.689 57.4584C547.635 56.2844 545.407 54.7621 543.005 52.8867L542.169 53.9573ZM549.019 58.64C551.18 59.8556 553.286 60.7572 555.335 61.3379L555.706 60.031C553.776 59.4841 551.769 58.6282 549.685 57.4561L549.019 58.64ZM555.348 61.3414C557.427 61.8867 559.541 62.1595 561.688 62.1595V60.8012C559.657 60.8012 557.659 60.5433 555.693 60.0275L555.348 61.3414ZM561.688 62.1595C563.792 62.1595 565.623 61.9224 567.167 61.4311L566.755 60.1367C565.381 60.574 563.697 60.8012 561.688 60.8012V62.1595ZM567.18 61.4267C568.72 60.9018 569.948 60.1482 570.811 59.1351L569.777 58.2543C569.114 59.032 568.12 59.6712 566.742 60.1411L567.18 61.4267ZM570.81 59.1367C571.714 58.0811 572.167 56.8286 572.167 55.4117H570.809C570.809 56.5151 570.465 57.4513 569.778 58.2527L570.81 59.1367ZM572.167 55.4117C572.167 53.6395 571.531 52.1072 570.277 50.8526L569.316 51.813C570.317 52.8134 570.809 54.0004 570.809 55.4117H572.167ZM570.277 50.8526C569.08 49.6559 567.501 48.6036 565.561 47.6847L564.979 48.9123C566.82 49.7841 568.258 50.7547 569.316 51.813L570.277 50.8526ZM565.565 47.6868C563.692 46.7839 561.639 45.8826 559.405 44.9825L558.898 46.2423C561.108 47.133 563.133 48.0224 564.975 48.9103L565.565 47.6868ZM559.405 44.9824C557.03 44.0256 554.603 42.9693 552.127 41.8134L551.552 43.0443C554.05 44.2098 556.498 45.2759 558.898 46.2424L559.405 44.9824ZM552.133 41.8166C549.693 40.645 547.449 39.2306 545.402 37.5734L544.548 38.6291C546.679 40.3545 549.012 41.8251 551.546 43.0412L552.133 41.8166ZM545.402 37.5734C543.385 35.9405 541.752 33.9556 540.5 31.6132L539.302 32.2532C540.637 34.7523 542.386 36.8796 544.548 38.6291L545.402 37.5734ZM540.502 31.6165C539.272 29.2828 538.64 26.4131 538.64 22.9795H537.282C537.282 26.5762 537.944 29.6756 539.3 32.2498L540.502 31.6165ZM538.64 22.9795C538.64 18.4549 539.77 14.6344 541.998 11.4831L540.889 10.6989C538.474 14.1137 537.282 18.2189 537.282 22.9795H538.64ZM541.997 11.4842C544.273 8.2786 547.37 5.83431 551.31 4.15492L550.777 2.90539C546.626 4.67482 543.322 7.27112 540.889 10.6979L541.997 11.4842ZM551.312 4.15387C555.294 2.43817 559.81 1.57295 564.872 1.57295V0.214644C559.654 0.214644 554.951 1.10699 550.775 2.90644L551.312 4.15387ZM564.872 1.57295C568.559 1.57295 572.469 2.06243 576.603 3.04676L576.918 1.72539C572.695 0.720015 568.679 0.214644 564.872 0.214644V1.57295ZM576.603 3.04676C580.726 4.02847 584.906 5.56826 589.143 7.67027L589.747 6.45349C585.428 4.3108 581.151 2.73339 576.918 1.72539L576.603 3.04676ZM588.834 6.76587L581.173 22.584L582.396 23.176L590.056 7.35789L588.834 6.76587ZM582.139 22.3005C579.699 20.8094 577.025 19.6258 574.122 18.748L573.729 20.0481C576.529 20.8947 579.095 22.0324 581.43 23.4595L582.139 22.3005ZM574.131 18.7508C571.262 17.8394 568.605 17.3758 566.165 17.3758V18.7342C568.435 18.7342 570.951 19.1659 573.72 20.0453L574.131 18.7508ZM566.165 17.3758C564.482 17.3758 562.977 17.5989 561.662 18.0609L562.113 19.3424C563.252 18.9422 564.599 18.7342 566.165 18.7342V17.3758ZM561.657 18.0629C560.368 18.5281 559.327 19.2232 558.572 20.1676L559.632 21.0161C560.203 20.3025 561.019 19.7374 562.118 19.3404L561.657 18.0629ZM558.58 20.1571C557.809 21.0823 557.428 22.1837 557.428 23.4272H558.786C558.786 22.4821 559.068 21.6933 559.624 21.0267L558.58 20.1571ZM557.428 23.4272C557.428 25.084 558.076 26.5455 559.318 27.7874L560.279 26.8269C559.265 25.8137 558.786 24.6886 558.786 23.4272H557.428ZM559.325 27.7945C560.516 28.95 562.071 29.9986 563.971 30.9489L564.579 29.734C562.765 28.8272 561.336 27.8529 560.271 26.8198L559.325 27.7945ZM563.971 30.9489C565.84 31.8831 567.873 32.833 570.07 33.7985L570.617 32.555C568.437 31.5971 566.424 30.6568 564.579 29.734L563.971 30.9489ZM570.075 33.8005C572.449 34.8226 574.873 35.9606 577.349 37.2148L577.963 36.0032C575.464 34.7371 573.014 33.5869 570.612 32.553L570.075 33.8005ZM577.352 37.2164C579.828 38.4546 582.09 39.9191 584.138 41.6096L585.002 40.5621C582.872 38.8037 580.524 37.2837 577.96 36.0015L577.352 37.2164ZM584.142 41.6129C586.194 43.2801 587.844 45.2823 589.095 47.6237L590.293 46.9836C588.957 44.4834 587.191 42.3403 584.998 40.5587L584.142 41.6129ZM589.096 47.6271C590.325 49.8948 590.954 52.6467 590.954 55.9091H592.313C592.313 52.4729 591.649 49.4878 590.291 46.9802L589.096 47.6271ZM590.954 55.9091C590.954 60.2535 589.767 64.0591 587.401 67.3516L588.504 68.1441C591.047 64.6054 592.313 60.5184 592.313 55.9091H590.954ZM587.4 67.3526C585.061 70.6207 581.767 73.1849 577.486 75.0334L578.025 76.2805C582.498 74.3486 586.002 71.64 588.505 68.1431L587.4 67.3526ZM577.484 75.0342C573.242 76.88 568.281 77.8131 562.584 77.8131V79.1714C568.427 79.1714 573.58 78.2143 578.026 76.2797L577.484 75.0342ZM562.584 77.8131C557.286 77.8131 552.188 76.9631 547.287 75.264L546.842 76.5473C551.889 78.2971 557.137 79.1714 562.584 79.1714V77.8131ZM547.287 75.264C542.383 73.564 537.872 71.1127 533.752 67.9082L532.918 68.9804C537.155 72.2756 541.797 74.7985 546.842 76.5473L547.287 75.264Z" fill="black" fill-opacity="0.15" mask="url(#path-1-outside-1_78_696)"/>
</svg>
