<svg width="783" height="106" viewBox="0 0 783 106" fill="none" xmlns="http://www.w3.org/2000/svg">
<mask id="path-1-outside-1_1715_2232" maskUnits="userSpaceOnUse" x="0" y="0" width="783" height="106" fill="black">
<rect fill="white" width="783" height="106"/>
<path d="M3.5794 90.761L15.7332 71.0275C18.9132 73.5105 21.8754 75.5361 24.6198 77.1044C27.4078 78.6726 30.1086 79.827 32.7223 80.5675C35.3796 81.2645 38.0804 81.613 40.8248 81.613C43.5257 81.613 45.8344 81.3081 47.7512 80.6982C49.6679 80.0448 51.1272 79.13 52.1291 77.9538C53.1746 76.7341 53.6974 75.2966 53.6974 73.6412C53.6974 71.5502 52.9568 69.7642 51.4757 68.2831C49.9946 66.802 48.0125 65.4734 45.5295 64.2972C43.09 63.121 40.411 61.9448 37.4923 60.7687C34.3559 59.5054 31.1541 58.1114 27.8869 56.5867C24.6198 55.0185 21.614 53.1236 18.8696 50.9019C16.1252 48.6802 13.9036 45.9794 12.2047 42.7994C10.5057 39.5758 9.65628 35.6552 9.65628 31.0377C9.65628 24.939 11.1809 19.7334 14.2303 15.4207C17.3232 11.0645 21.5269 7.75384 26.8414 5.48862C32.1996 3.17984 38.2547 2.02545 45.0068 2.02545C49.9293 2.02545 55.1349 2.67888 60.6237 3.98573C66.1125 5.29259 71.6666 7.34 77.2861 10.128L67.2233 30.907C64.0869 28.9903 60.6455 27.4656 56.8992 26.333C53.1964 25.1568 49.7986 24.5687 46.7057 24.5687C44.5711 24.5687 42.698 24.8519 41.0862 25.4182C39.518 25.9845 38.2982 26.8122 37.427 27.9012C36.5558 28.9467 36.1201 30.1882 36.1201 31.6258C36.1201 33.5425 36.8607 35.2414 38.3418 36.7225C39.8229 38.16 41.7832 39.4887 44.2226 40.7084C46.6621 41.9281 49.3194 43.1697 52.1945 44.433C55.3309 45.7834 58.5327 47.2863 61.7999 48.9416C65.1106 50.597 68.1381 52.5572 70.8825 54.8225C73.6705 57.0877 75.9139 59.8103 77.6128 62.9903C79.3118 66.1268 80.1612 69.8949 80.1612 74.2946C80.1612 80.1755 78.5494 85.3594 75.3258 89.8462C72.1458 94.2895 67.6807 97.7527 61.9306 100.236C56.2239 102.719 49.5808 103.96 42.001 103.96C34.944 103.96 28.1483 102.828 21.614 100.562C15.0797 98.2972 9.06819 95.0301 3.5794 90.761ZM139.362 103.96C131.869 103.96 124.943 102.697 118.583 100.17C112.266 97.6002 106.756 94.0282 102.051 89.4542C97.3899 84.8366 93.7743 79.4349 91.2042 73.2491C88.634 67.0634 87.3489 60.3113 87.3489 52.9929C87.3489 45.6745 88.634 38.9224 91.2042 32.7366C93.7743 26.5508 97.3899 21.1709 102.051 16.5969C106.756 11.9793 112.266 8.40727 118.583 5.88068C124.943 3.31053 131.869 2.02545 139.362 2.02545C146.898 2.02545 153.824 3.31053 160.141 5.88068C166.457 8.40727 171.924 11.9793 176.542 16.5969C181.203 21.1709 184.819 26.5508 187.389 32.7366C189.959 38.9224 191.244 45.6745 191.244 52.9929C191.244 60.3113 189.959 67.0634 187.389 73.2491C184.819 79.4349 181.203 84.8366 176.542 89.4542C171.924 94.0282 166.457 97.6002 160.141 100.17C153.824 102.697 146.898 103.96 139.362 103.96ZM139.362 81.417C142.977 81.417 146.332 80.6982 149.425 79.2607C152.518 77.8231 155.197 75.8193 157.462 73.2491C159.771 70.6354 161.557 67.6079 162.82 64.1665C164.127 60.7251 164.78 57.0006 164.78 52.9929C164.78 48.9852 164.127 45.2606 162.82 41.8192C161.557 38.3779 159.771 35.3721 157.462 32.8019C155.197 30.1882 152.518 28.1626 149.425 26.725C146.332 25.2875 142.977 24.5687 139.362 24.5687C135.746 24.5687 132.37 25.2875 129.234 26.725C126.141 28.1626 123.44 30.1882 121.131 32.8019C118.822 35.3721 117.015 38.3779 115.708 41.8192C114.444 45.2606 113.813 48.9852 113.813 52.9929C113.813 57.0006 114.444 60.7251 115.708 64.1665C117.015 67.6079 118.822 70.6354 121.131 73.2491C123.44 75.8193 126.141 77.8231 129.234 79.2607C132.37 80.6982 135.746 81.417 139.362 81.417ZM268.349 102H201.699V3.98573H227.575V79.4567H268.349V102ZM358.13 3.98573V57.7629C358.13 67.3465 356.365 75.6015 352.837 82.5278C349.352 89.4106 344.321 94.7034 337.743 98.4061C331.208 102.109 323.367 103.96 314.219 103.96C305.115 103.96 297.274 102.109 290.696 98.4061C284.118 94.7034 279.065 89.4106 275.536 82.5278C272.051 75.6015 270.309 67.3465 270.309 57.7629V3.98573H296.185V54.2344C296.185 60.4637 296.816 65.5823 298.08 69.5899C299.386 73.5976 301.369 76.5816 304.026 78.5419C306.683 80.4586 310.081 81.417 314.219 81.417C318.358 81.417 321.755 80.4586 324.413 78.5419C327.07 76.5816 329.03 73.5976 330.294 69.5899C331.6 65.5823 332.254 60.4637 332.254 54.2344V3.98573H358.13ZM418.376 102H392.5V26.529H365.317V3.98573H445.558V26.529H418.376V102ZM452.746 102V3.98573H478.622V102H452.746ZM541.09 103.96C533.597 103.96 526.671 102.697 520.311 100.17C513.994 97.6002 508.484 94.0282 503.779 89.4542C499.118 84.8366 495.502 79.4349 492.932 73.2491C490.362 67.0634 489.077 60.3113 489.077 52.9929C489.077 45.6745 490.362 38.9224 492.932 32.7366C495.502 26.5508 499.118 21.1709 503.779 16.5969C508.484 11.9793 513.994 8.40727 520.311 5.88068C526.671 3.31053 533.597 2.02545 541.09 2.02545C548.626 2.02545 555.552 3.31053 561.869 5.88068C568.185 8.40727 573.652 11.9793 578.27 16.5969C582.931 21.1709 586.546 26.5508 589.117 32.7366C591.687 38.9224 592.972 45.6745 592.972 52.9929C592.972 60.3113 591.687 67.0634 589.117 73.2491C586.546 79.4349 582.931 84.8366 578.27 89.4542C573.652 94.0282 568.185 97.6002 561.869 100.17C555.552 102.697 548.626 103.96 541.09 103.96ZM541.09 81.417C544.705 81.417 548.06 80.6982 551.152 79.2607C554.245 77.8231 556.924 75.8193 559.19 73.2491C561.498 70.6354 563.284 67.6079 564.548 64.1665C565.855 60.7251 566.508 57.0006 566.508 52.9929C566.508 48.9852 565.855 45.2606 564.548 41.8192C563.284 38.3779 561.498 35.3721 559.19 32.8019C556.924 30.1882 554.245 28.1626 551.152 26.725C548.06 25.2875 544.705 24.5687 541.09 24.5687C537.474 24.5687 534.098 25.2875 530.961 26.725C527.869 28.1626 525.168 30.1882 522.859 32.8019C520.55 35.3721 518.742 38.3779 517.435 41.8192C516.172 45.2606 515.541 48.9852 515.541 52.9929C515.541 57.0006 516.172 60.7251 517.435 64.1665C518.742 67.6079 520.55 70.6354 522.859 73.2491C525.168 75.8193 527.869 77.8231 530.961 79.2607C534.098 80.6982 537.474 81.417 541.09 81.417ZM695.037 102H664.588L629.303 43.8449V102H603.427V3.98573H633.877L669.162 62.3369V3.98573H695.037V102ZM703.532 90.761L715.686 71.0275C718.866 73.5105 721.828 75.5361 724.572 77.1044C727.36 78.6726 730.061 79.827 732.675 80.5675C735.332 81.2645 738.033 81.613 740.777 81.613C743.478 81.613 745.787 81.3081 747.704 80.6982C749.62 80.0448 751.08 79.13 752.082 77.9538C753.127 76.7341 753.65 75.2966 753.65 73.6412C753.65 71.5502 752.909 69.7642 751.428 68.2831C749.947 66.802 747.965 65.4734 745.482 64.2972C743.043 63.121 740.364 61.9448 737.445 60.7687C734.308 59.5054 731.107 58.1114 727.839 56.5867C724.572 55.0185 721.567 53.1236 718.822 50.9019C716.078 48.6802 713.856 45.9794 712.157 42.7994C710.458 39.5758 709.609 35.6552 709.609 31.0377C709.609 24.939 711.133 19.7334 714.183 15.4207C717.276 11.0645 721.479 7.75384 726.794 5.48862C732.152 3.17984 738.207 2.02545 744.959 2.02545C749.882 2.02545 755.087 2.67888 760.576 3.98573C766.065 5.29259 771.619 7.34 777.239 10.128L767.176 30.907C764.039 28.9903 760.598 27.4656 756.852 26.333C753.149 25.1568 749.751 24.5687 746.658 24.5687C744.524 24.5687 742.651 24.8519 741.039 25.4182C739.471 25.9845 738.251 26.8122 737.38 27.9012C736.508 28.9467 736.073 30.1882 736.073 31.6258C736.073 33.5425 736.813 35.2414 738.294 36.7225C739.775 38.16 741.736 39.4887 744.175 40.7084C746.615 41.9281 749.272 43.1697 752.147 44.433C755.283 45.7834 758.485 47.2863 761.752 48.9416C765.063 50.597 768.091 52.5572 770.835 54.8225C773.623 57.0877 775.866 59.8103 777.565 62.9903C779.264 66.1268 780.114 69.8949 780.114 74.2946C780.114 80.1755 778.502 85.3594 775.278 89.8462C772.098 94.2895 767.633 97.7527 761.883 100.236C756.176 102.719 749.533 103.96 741.954 103.96C734.897 103.96 728.101 102.828 721.567 100.562C715.032 98.2972 709.021 95.0301 703.532 90.761Z"/>
</mask>
<path d="M3.5794 90.761L1.87647 89.7122L0.936175 91.2389L2.35151 92.3397L3.5794 90.761ZM15.7332 71.0275L16.964 69.4511L15.2024 68.0756L14.0302 69.9787L15.7332 71.0275ZM24.6198 77.1044L23.6275 78.8409L23.6393 78.8475L24.6198 77.1044ZM32.7223 80.5675L32.1771 82.4918L32.1959 82.4971L32.2149 82.5021L32.7223 80.5675ZM47.7512 80.6982L48.3576 82.6041L48.3771 82.5979L48.3965 82.5913L47.7512 80.6982ZM52.1291 77.9538L50.6106 76.6522L50.6066 76.6569L52.1291 77.9538ZM51.4757 68.2831L52.8899 66.8689L51.4757 68.2831ZM45.5295 64.2972L44.6609 66.0988L44.6733 66.1047L45.5295 64.2972ZM37.4923 60.7687L38.2399 58.9136L38.2396 58.9135L37.4923 60.7687ZM27.8869 56.5867L27.0215 58.3898L27.0313 58.3945L27.0412 58.3991L27.8869 56.5867ZM12.2047 42.7994L10.4353 43.7319L10.4406 43.7418L12.2047 42.7994ZM14.2303 15.4207L12.5995 14.2629L12.5973 14.2661L14.2303 15.4207ZM26.8414 5.48862L27.6257 7.32848L27.6329 7.32536L26.8414 5.48862ZM77.2861 10.128L79.0862 10.9997L79.9496 9.21676L78.175 8.33634L77.2861 10.128ZM67.2233 30.907L66.1804 32.6135L68.0622 33.7635L69.0234 31.7787L67.2233 30.907ZM56.8992 26.333L56.2937 28.2391L56.307 28.2434L56.3204 28.2474L56.8992 26.333ZM41.0862 25.4182L40.4232 23.5313L40.415 23.5341L40.4069 23.5371L41.0862 25.4182ZM37.427 27.9012L38.9634 29.1816L38.9762 29.1662L38.9887 29.1506L37.427 27.9012ZM38.3418 36.7225L36.9276 38.1367L36.9381 38.1473L36.9488 38.1577L38.3418 36.7225ZM52.1945 44.433L51.3899 46.264L51.3967 46.267L51.4036 46.2699L52.1945 44.433ZM61.7999 48.9416L60.8959 50.7257L60.9054 50.7305L61.7999 48.9416ZM70.8825 54.8225L69.6094 56.3649L69.6153 56.3698L69.6213 56.3747L70.8825 54.8225ZM77.6128 62.9903L75.8488 63.9328L75.8543 63.9429L77.6128 62.9903ZM75.3258 89.8462L73.7016 88.6793L73.6994 88.6822L75.3258 89.8462ZM61.9306 100.236L61.1377 98.3996L61.1326 98.4018L61.9306 100.236ZM5.28232 91.8099L17.4361 72.0763L14.0302 69.9787L1.87647 89.7122L5.28232 91.8099ZM14.5023 72.6039C17.7384 75.1307 20.7808 77.2142 23.6275 78.8409L25.6121 75.3679C22.97 73.8581 20.088 71.8904 16.964 69.4511L14.5023 72.6039ZM23.6393 78.8475C26.5411 80.4798 29.3877 81.7015 32.1771 82.4918L33.2675 78.6433C30.8295 77.9525 28.2744 76.8654 25.6003 75.3612L23.6393 78.8475ZM32.2149 82.5021C35.0376 83.2425 37.909 83.613 40.8248 83.613V79.613C38.2518 79.613 35.7215 79.2866 33.2297 78.633L32.2149 82.5021ZM40.8248 83.613C43.6657 83.613 46.1906 83.2936 48.3576 82.6041L47.1448 78.7924C45.4782 79.3226 43.3856 79.613 40.8248 79.613V83.613ZM48.3965 82.5913C50.5507 81.8569 52.3545 80.7735 53.6516 79.2508L50.6066 76.6569C49.8999 77.4865 48.785 78.2327 47.1058 78.8052L48.3965 82.5913ZM53.6476 79.2554C55.014 77.6613 55.6974 75.7581 55.6974 73.6412H51.6974C51.6974 74.835 51.3352 75.8069 50.6106 76.6523L53.6476 79.2554ZM55.6974 73.6412C55.6974 71.0188 54.7454 68.7243 52.8899 66.8689L50.0615 69.6973C51.1683 70.8041 51.6974 72.0817 51.6974 73.6412H55.6974ZM52.8899 66.8689C51.205 65.184 49.0149 63.7351 46.3857 62.4897L44.6733 66.1047C47.0101 67.2116 48.7842 68.42 50.0615 69.6973L52.8899 66.8689ZM46.3981 62.4956C43.9132 61.2975 41.1931 60.1037 38.2399 58.9136L36.7448 62.6237C39.6289 63.7859 42.2669 64.9445 44.6609 66.0987L46.3981 62.4956ZM38.2396 58.9135C35.1384 57.6644 31.9695 56.2849 28.7327 54.7744L27.0412 58.3991C30.3386 59.9379 33.5733 61.3463 36.7451 62.6238L38.2396 58.9135ZM28.7524 54.7837C25.6217 53.281 22.7484 51.4687 20.128 49.3474L17.6112 52.4564C20.4797 54.7784 23.6178 56.756 27.0215 58.3898L28.7524 54.7837ZM20.128 49.3474C17.5958 47.2975 15.5444 44.8063 13.9687 41.857L10.4406 43.7418C12.2628 47.1525 14.6546 50.063 17.6112 52.4564L20.128 49.3474ZM13.974 41.8669C12.4617 38.9975 11.6563 35.4151 11.6563 31.0377H7.65628C7.65628 35.8954 8.54979 40.1542 10.4353 43.7319L13.974 41.8669ZM11.6563 31.0377C11.6563 25.2865 13.0883 20.5001 15.8633 16.5754L12.5973 14.2661C9.27364 18.9666 7.65628 24.5915 7.65628 31.0377H11.6563ZM15.861 16.5786C18.7228 12.548 22.6222 9.4611 27.6256 7.32847L26.0573 3.64877C20.4316 6.04657 15.9236 9.58111 12.5995 14.2629L15.861 16.5786ZM27.6329 7.32536C32.7048 5.1399 38.4844 4.02545 45.0068 4.02545V0.0254494C38.0249 0.0254494 31.6943 1.21978 26.05 3.65188L27.6329 7.32536ZM45.0068 4.02545C49.7525 4.02545 54.8018 4.65548 60.1605 5.93135L61.0869 2.04012C55.468 0.702275 50.106 0.0254494 45.0068 0.0254494V4.02545ZM60.1605 5.93135C65.4867 7.1995 70.8985 9.19151 76.3973 11.9196L78.175 8.33634C72.4348 5.48849 66.7383 3.38569 61.0869 2.04012L60.1605 5.93135ZM75.4861 9.25625L65.4233 30.0353L69.0234 31.7787L79.0862 10.9997L75.4861 9.25625ZM68.2662 29.2004C64.9755 27.1894 61.3767 25.5973 57.4779 24.4186L56.3204 28.2474C59.9143 29.3339 63.1983 30.7911 66.1804 32.6135L68.2662 29.2004ZM57.5046 24.4268C53.6539 23.2037 50.0488 22.5687 46.7057 22.5687V26.5687C49.5483 26.5687 52.7389 27.11 56.2937 28.2391L57.5046 24.4268ZM46.7057 22.5687C44.3993 22.5687 42.2936 22.8741 40.4232 23.5313L41.7492 27.3051C43.1023 26.8297 44.7429 26.5687 46.7057 26.5687V22.5687ZM40.4069 23.5371C38.5602 24.2039 37.0083 25.223 35.8653 26.6518L38.9887 29.1506C39.5882 28.4013 40.4757 27.7651 41.7655 27.2993L40.4069 23.5371ZM35.8905 26.6208C34.702 28.0471 34.1201 29.7488 34.1201 31.6258H38.1201C38.1201 30.6276 38.4095 29.8463 38.9634 29.1816L35.8905 26.6208ZM34.1201 31.6258C34.1201 34.1247 35.1097 36.3188 36.9276 38.1367L39.756 35.3083C38.6117 34.1639 38.1201 32.9602 38.1201 31.6258H34.1201ZM36.9488 38.1577C38.6156 39.7754 40.7607 41.2135 43.3282 42.4973L45.1171 38.9196C42.8057 37.7639 41.0302 36.5447 39.7347 35.2873L36.9488 38.1577ZM43.3282 42.4973C45.8013 43.7338 48.489 44.9893 51.3899 46.264L52.999 42.6019C50.1498 41.35 47.5229 40.1225 45.1171 38.9196L43.3282 42.4973ZM51.4036 46.2699C54.4992 47.6028 57.6633 49.0878 60.8959 50.7257L62.7038 47.1575C59.4022 45.4847 56.1627 43.964 52.9854 42.596L51.4036 46.2699ZM60.9054 50.7305C64.0864 52.321 66.9861 54.1997 69.6094 56.3649L72.1557 53.28C69.2901 50.9148 66.1347 48.873 62.6943 47.1528L60.9054 50.7305ZM69.6213 56.3747C72.202 58.4715 74.2748 60.9865 75.8488 63.9328L79.3769 62.0479C77.553 58.6341 75.139 55.7039 72.1437 53.2702L69.6213 56.3747ZM75.8543 63.9429C77.3618 66.7261 78.1612 70.1509 78.1612 74.2946H82.1612C82.1612 69.6389 81.2617 65.5274 79.3714 62.0378L75.8543 63.9429ZM78.1612 74.2946C78.1612 79.7854 76.6647 84.555 73.7016 88.6793L76.9501 91.0132C80.4342 86.1637 82.1612 80.5656 82.1612 74.2946H78.1612ZM73.6994 88.6822C70.7605 92.7888 66.6038 96.0392 61.1377 98.3996L62.7234 102.072C68.7576 99.4662 73.5312 95.7903 76.9522 91.0102L73.6994 88.6822ZM61.1326 98.4018C55.7263 100.754 49.3646 101.96 42.001 101.96V105.96C49.7969 105.96 56.7216 104.683 62.7285 102.07L61.1326 98.4018ZM42.001 101.96C35.1623 101.96 28.5884 100.863 22.2691 98.6728L20.9589 102.452C27.7082 104.792 34.7256 105.96 42.001 105.96V101.96ZM22.2691 98.6728C15.9426 96.4796 10.1244 93.3179 4.80728 89.1823L2.35151 92.3397C8.012 96.7423 14.2169 100.115 20.9589 102.452L22.2691 98.6728ZM118.583 100.17L117.829 102.023L117.837 102.026L117.844 102.029L118.583 100.17ZM102.051 89.4542L100.644 90.875L100.65 90.8816L100.657 90.8882L102.051 89.4542ZM102.051 16.5969L103.452 18.0244L103.452 18.0243L102.051 16.5969ZM118.583 5.88068L119.326 7.73764L119.332 7.73499L118.583 5.88068ZM160.141 5.88068L159.387 7.73322L159.398 7.73763L160.141 5.88068ZM176.542 16.5969L175.128 18.0111L175.134 18.0178L175.141 18.0244L176.542 16.5969ZM187.389 32.7366L185.542 33.504L187.389 32.7366ZM187.389 73.2491L185.542 72.4818L187.389 73.2491ZM176.542 89.4542L177.949 90.8751L177.949 90.875L176.542 89.4542ZM160.141 100.17L160.884 102.027L160.895 102.023L160.141 100.17ZM149.425 79.2607L150.268 81.0744L149.425 79.2607ZM157.462 73.2491L155.963 71.9251L155.961 71.9267L157.462 73.2491ZM162.82 64.1665L160.95 63.4565L160.946 63.4669L160.942 63.4773L162.82 64.1665ZM162.82 41.8192L160.942 42.5084L160.946 42.5189L160.95 42.5293L162.82 41.8192ZM157.462 32.8019L155.95 34.1118L155.962 34.1252L155.974 34.1385L157.462 32.8019ZM149.425 26.725L150.268 24.9114L149.425 26.725ZM129.234 26.725L128.4 24.9069L128.391 24.9114L129.234 26.725ZM121.131 32.8019L122.619 34.1385L122.625 34.1323L122.63 34.126L121.131 32.8019ZM115.708 41.8192L113.838 41.1092L113.834 41.1196L113.83 41.13L115.708 41.8192ZM115.708 64.1665L113.83 64.8557L113.834 64.8661L113.838 64.8765L115.708 64.1665ZM121.131 73.2491L119.632 74.5732L119.638 74.5795L119.643 74.5857L121.131 73.2491ZM129.234 79.2607L128.391 81.0744L128.4 81.0788L129.234 79.2607ZM139.362 101.96C132.098 101.96 125.425 100.736 119.321 98.3117L117.844 102.029C124.461 104.658 131.64 105.96 139.362 105.96V101.96ZM119.337 98.3179C113.249 95.8409 107.958 92.4077 103.445 88.0202L100.657 90.8882C105.553 95.6486 111.284 99.3596 117.829 102.023L119.337 98.3179ZM103.459 88.0333C98.9898 83.6063 95.5217 78.428 93.0511 72.4818L89.3572 74.0165C92.0269 80.4419 95.7901 86.0669 100.644 90.875L103.459 88.0333ZM93.0511 72.4818C90.591 66.5609 89.3489 60.0724 89.3489 52.9929H85.3489C85.3489 60.5501 86.677 67.5659 89.3572 74.0165L93.0511 72.4818ZM89.3489 52.9929C89.3489 45.9133 90.591 39.4249 93.0511 33.504L89.3572 31.9692C86.677 38.4199 85.3489 45.4356 85.3489 52.9929H89.3489ZM93.0511 33.504C95.521 27.5594 98.9872 22.4056 103.452 18.0244L100.65 15.1694C95.7927 19.9362 92.0276 25.5422 89.3572 31.9692L93.0511 33.504ZM103.452 18.0243C107.962 13.598 113.247 10.1692 119.326 7.73763L117.84 4.02372C111.286 6.64536 105.55 10.3607 100.65 15.1695L103.452 18.0243ZM119.332 7.73499C125.433 5.2696 132.102 4.02545 139.362 4.02545V0.0254494C131.636 0.0254494 124.453 1.35145 117.833 4.02636L119.332 7.73499ZM139.362 4.02545C146.667 4.02545 153.334 5.2702 159.387 7.73319L160.895 4.02816C154.315 1.35085 147.129 0.0254494 139.362 0.0254494V4.02545ZM159.398 7.73763C165.474 10.1679 170.71 13.5931 175.128 18.0111L177.956 15.1827C173.139 10.3656 167.441 6.64662 160.884 4.02372L159.398 7.73763ZM175.141 18.0244C179.606 22.4056 183.072 27.5594 185.542 33.504L189.236 31.9692C186.565 25.5422 182.8 19.9362 177.943 15.1694L175.141 18.0244ZM185.542 33.504C188.002 39.4249 189.244 45.9133 189.244 52.9929H193.244C193.244 45.4356 191.916 38.4199 189.236 31.9692L185.542 33.504ZM189.244 52.9929C189.244 60.0724 188.002 66.5609 185.542 72.4818L189.236 74.0165C191.916 67.5659 193.244 60.5501 193.244 52.9929H189.244ZM185.542 72.4818C183.071 78.428 179.603 83.6063 175.134 88.0333L177.949 90.875C182.803 86.0669 186.566 80.4419 189.236 74.0165L185.542 72.4818ZM175.134 88.0333C170.713 92.4126 165.472 95.8421 159.387 98.3179L160.895 102.023C167.443 99.3584 173.135 95.6437 177.949 90.8751L175.134 88.0333ZM159.398 98.3134C153.342 100.736 146.671 101.96 139.362 101.96V105.96C147.125 105.96 154.307 104.658 160.884 102.027L159.398 98.3134ZM139.362 83.417C143.251 83.417 146.895 82.642 150.268 81.0744L148.582 77.447C145.769 78.7545 142.704 79.417 139.362 79.417V83.417ZM150.268 81.0744C153.612 79.5197 156.515 77.3482 158.962 74.5716L155.961 71.9267C153.878 74.2904 151.423 76.1266 148.582 77.447L150.268 81.0744ZM158.961 74.5732C161.442 71.7638 163.353 68.5183 164.697 64.8557L160.942 63.4773C159.76 66.6975 158.099 69.5071 155.963 71.9251L158.961 74.5732ZM164.69 64.8765C166.09 61.189 166.78 57.2216 166.78 52.9929H162.78C162.78 56.7795 162.164 60.2612 160.95 63.4565L164.69 64.8765ZM166.78 52.9929C166.78 48.7641 166.09 44.7968 164.69 41.1092L160.95 42.5293C162.164 45.7245 162.78 49.2062 162.78 52.9929H166.78ZM164.697 41.13C163.352 37.4648 161.438 34.236 158.95 31.4654L155.974 34.1385C158.103 36.5082 159.761 39.2909 160.942 42.5084L164.697 41.13ZM158.973 31.4921C156.526 28.6683 153.62 26.4695 150.268 24.9114L148.582 28.5387C151.415 29.8556 153.867 31.7082 155.95 34.1118L158.973 31.4921ZM150.268 24.9114C146.895 23.3438 143.251 22.5687 139.362 22.5687V26.5687C142.704 26.5687 145.769 27.2312 148.582 28.5387L150.268 24.9114ZM139.362 22.5687C135.473 22.5687 131.811 23.3438 128.4 24.9069L130.067 28.5432C132.929 27.2312 136.02 26.5687 139.362 26.5687V22.5687ZM128.391 24.9114C125.042 26.4678 122.119 28.6622 119.632 31.4779L122.63 34.126C124.761 31.7142 127.24 29.8574 130.077 28.5387L128.391 24.9114ZM119.643 31.4654C117.159 34.2308 115.227 37.4525 113.838 41.1092L117.577 42.5293C118.803 39.3032 120.486 36.5134 122.619 34.1385L119.643 31.4654ZM113.83 41.13C112.479 44.8118 111.813 48.7719 111.813 52.9929H115.813C115.813 49.1984 116.41 45.7094 117.585 42.5084L113.83 41.13ZM111.813 52.9929C111.813 57.2138 112.479 61.1739 113.83 64.8557L117.585 63.4773C116.41 60.2763 115.813 56.7873 115.813 52.9929H111.813ZM113.838 64.8765C115.226 68.5306 117.155 71.769 119.632 74.5732L122.63 71.9251C120.49 69.5019 118.804 66.6852 117.577 63.4565L113.838 64.8765ZM119.643 74.5857C122.13 77.3541 125.05 79.5214 128.391 81.0744L130.077 77.447C127.232 76.1248 124.75 74.2845 122.619 71.9126L119.643 74.5857ZM128.4 81.0788C131.811 82.6419 135.473 83.417 139.362 83.417V79.417C136.02 79.417 132.929 78.7545 130.067 77.4426L128.4 81.0788ZM268.349 102V104H270.349V102H268.349ZM201.699 102H199.699V104H201.699V102ZM201.699 3.98573V1.98573H199.699V3.98573H201.699ZM227.575 3.98573H229.575V1.98573H227.575V3.98573ZM227.575 79.4567H225.575V81.4567H227.575V79.4567ZM268.349 79.4567H270.349V77.4567H268.349V79.4567ZM268.349 100H201.699V104H268.349V100ZM203.699 102V3.98573H199.699V102H203.699ZM201.699 5.98573H227.575V1.98573H201.699V5.98573ZM225.575 3.98573V79.4567H229.575V3.98573H225.575ZM227.575 81.4567H268.349V77.4567H227.575V81.4567ZM266.349 79.4567V102H270.349V79.4567H266.349ZM358.13 3.98573H360.13V1.98573H358.13V3.98573ZM352.837 82.5278L351.055 81.62L351.053 81.6244L352.837 82.5278ZM337.743 98.4061L336.762 96.6633L336.757 96.6661L337.743 98.4061ZM275.536 82.5278L273.75 83.4268L273.753 83.4335L273.757 83.4402L275.536 82.5278ZM270.309 3.98573V1.98573H268.309V3.98573H270.309ZM296.185 3.98573H298.185V1.98573H296.185V3.98573ZM298.08 69.5899L296.172 70.1912L296.175 70.2006L296.178 70.21L298.08 69.5899ZM304.026 78.5419L302.838 80.1514L302.847 80.1577L302.856 80.164L304.026 78.5419ZM324.413 78.5419L325.583 80.164L325.591 80.1577L325.6 80.1514L324.413 78.5419ZM330.294 69.5899L328.392 68.9699L328.389 68.9793L328.386 68.9887L330.294 69.5899ZM332.254 3.98573V1.98573H330.254V3.98573H332.254ZM356.13 3.98573V57.7629H360.13V3.98573H356.13ZM356.13 57.7629C356.13 67.1032 354.411 75.0328 351.055 81.62L354.619 83.4357C358.32 76.1702 360.13 67.5899 360.13 57.7629H356.13ZM351.053 81.6244C347.742 88.1623 342.987 93.1592 336.762 96.6633L338.724 100.149C345.655 96.2476 350.962 90.6589 354.621 83.4313L351.053 81.6244ZM336.757 96.6661C330.582 100.165 323.097 101.96 314.219 101.96V105.96C323.638 105.96 331.835 104.053 338.729 100.146L336.757 96.6661ZM314.219 101.96C305.388 101.96 297.899 100.166 291.677 96.6633L289.715 100.149C296.648 104.052 304.842 105.96 314.219 105.96V101.96ZM291.677 96.6633C285.45 93.158 280.67 88.1582 277.316 81.6154L273.757 83.4402C277.459 90.663 282.786 96.2488 289.715 100.149L291.677 96.6633ZM277.323 81.6289C274.008 75.0395 272.309 67.1066 272.309 57.7629H268.309C268.309 67.5864 270.095 76.1634 273.75 83.4268L277.323 81.6289ZM272.309 57.7629V3.98573H268.309V57.7629H272.309ZM270.309 5.98573H296.185V1.98573H270.309V5.98573ZM294.185 3.98573V54.2344H298.185V3.98573H294.185ZM294.185 54.2344C294.185 60.5792 294.826 65.9195 296.172 70.1912L299.987 68.9887C298.807 65.245 298.185 60.3482 298.185 54.2344H294.185ZM296.178 70.21C297.578 74.504 299.764 77.883 302.838 80.1514L305.213 76.9325C302.973 75.2803 301.195 72.6913 299.981 68.9699L296.178 70.21ZM302.856 80.164C305.934 82.3844 309.772 83.417 314.219 83.417V79.417C310.39 79.417 307.432 78.5329 305.196 76.9199L302.856 80.164ZM314.219 83.417C318.666 83.417 322.505 82.3844 325.583 80.164L323.243 76.9199C321.006 78.5329 318.049 79.417 314.219 79.417V83.417ZM325.6 80.1514C328.681 77.8786 330.845 74.492 332.201 70.1912L328.386 68.9887C327.215 72.7032 325.459 75.2846 323.225 76.9325L325.6 80.1514ZM332.195 70.21C333.59 65.931 334.254 60.5836 334.254 54.2344H330.254C330.254 60.3438 329.611 65.2335 328.392 68.9699L332.195 70.21ZM334.254 54.2344V3.98573H330.254V54.2344H334.254ZM332.254 5.98573H358.13V1.98573H332.254V5.98573ZM418.376 102V104H420.376V102H418.376ZM392.5 102H390.5V104H392.5V102ZM392.5 26.529H394.5V24.529H392.5V26.529ZM365.317 26.529H363.317V28.529H365.317V26.529ZM365.317 3.98573V1.98573H363.317V3.98573H365.317ZM445.558 3.98573H447.558V1.98573H445.558V3.98573ZM445.558 26.529V28.529H447.558V26.529H445.558ZM418.376 26.529V24.529H416.376V26.529H418.376ZM418.376 100H392.5V104H418.376V100ZM394.5 102V26.529H390.5V102H394.5ZM392.5 24.529H365.317V28.529H392.5V24.529ZM367.317 26.529V3.98573H363.317V26.529H367.317ZM365.317 5.98573H445.558V1.98573H365.317V5.98573ZM443.558 3.98573V26.529H447.558V3.98573H443.558ZM445.558 24.529H418.376V28.529H445.558V24.529ZM416.376 26.529V102H420.376V26.529H416.376ZM452.746 102H450.746V104H452.746V102ZM452.746 3.98573V1.98573H450.746V3.98573H452.746ZM478.622 3.98573H480.622V1.98573H478.622V3.98573ZM478.622 102V104H480.622V102H478.622ZM454.746 102V3.98573H450.746V102H454.746ZM452.746 5.98573H478.622V1.98573H452.746V5.98573ZM476.622 3.98573V102H480.622V3.98573H476.622ZM478.622 100H452.746V104H478.622V100ZM520.311 100.17L519.557 102.023L519.564 102.026L519.572 102.029L520.311 100.17ZM503.779 89.4542L502.371 90.875L502.378 90.8816L502.385 90.8882L503.779 89.4542ZM503.779 16.5969L505.18 18.0244L505.18 18.0243L503.779 16.5969ZM520.311 5.88068L521.053 7.73764L521.06 7.73499L520.311 5.88068ZM561.869 5.88068L561.115 7.73322L561.126 7.73763L561.869 5.88068ZM578.27 16.5969L576.855 18.0111L576.862 18.0178L576.869 18.0244L578.27 16.5969ZM589.117 32.7366L587.27 33.504L589.117 32.7366ZM589.117 73.2491L587.27 72.4818L589.117 73.2491ZM578.27 89.4542L579.677 90.8751L579.677 90.875L578.27 89.4542ZM561.869 100.17L562.611 102.027L562.622 102.023L561.869 100.17ZM551.152 79.2607L551.995 81.0744L551.152 79.2607ZM559.19 73.2491L557.691 71.9251L557.689 71.9267L559.19 73.2491ZM564.548 64.1665L562.678 63.4565L562.674 63.4669L562.67 63.4773L564.548 64.1665ZM564.548 41.8192L562.67 42.5084L562.674 42.5189L562.678 42.5293L564.548 41.8192ZM559.19 32.8019L557.678 34.1118L557.69 34.1252L557.702 34.1385L559.19 32.8019ZM551.152 26.725L551.995 24.9114L551.152 26.725ZM530.961 26.725L530.128 24.9069L530.118 24.9114L530.961 26.725ZM522.859 32.8019L524.347 34.1385L524.352 34.1323L524.358 34.126L522.859 32.8019ZM517.435 41.8192L515.566 41.1092L515.562 41.1196L515.558 41.13L517.435 41.8192ZM517.435 64.1665L515.558 64.8557L515.562 64.8661L515.566 64.8765L517.435 64.1665ZM522.859 73.2491L521.36 74.5732L521.366 74.5795L521.371 74.5857L522.859 73.2491ZM530.961 79.2607L530.118 81.0744L530.128 81.0788L530.961 79.2607ZM541.09 101.96C533.826 101.96 527.153 100.736 521.049 98.3117L519.572 102.029C526.189 104.658 533.368 105.96 541.09 105.96V101.96ZM521.064 98.3179C514.977 95.8409 509.686 92.4077 505.173 88.0202L502.385 90.8882C507.281 95.6486 513.011 99.3596 519.557 102.023L521.064 98.3179ZM505.186 88.0333C500.718 83.6063 497.249 78.428 494.779 72.4818L491.085 74.0165C493.755 80.4419 497.518 86.0669 502.371 90.875L505.186 88.0333ZM494.779 72.4818C492.319 66.5609 491.077 60.0724 491.077 52.9929H487.077C487.077 60.5501 488.405 67.5659 491.085 74.0165L494.779 72.4818ZM491.077 52.9929C491.077 45.9133 492.319 39.4249 494.779 33.504L491.085 31.9692C488.405 38.4199 487.077 45.4356 487.077 52.9929H491.077ZM494.779 33.504C497.249 27.5594 500.715 22.4056 505.18 18.0244L502.378 15.1694C497.52 19.9362 493.755 25.5422 491.085 31.9692L494.779 33.504ZM505.18 18.0243C509.69 13.598 514.974 10.1692 521.053 7.73763L519.568 4.02372C513.014 6.64536 507.277 10.3607 502.378 15.1695L505.18 18.0243ZM521.06 7.73499C527.161 5.2696 533.83 4.02545 541.09 4.02545V0.0254494C533.364 0.0254494 526.18 1.35145 519.561 4.02636L521.06 7.73499ZM541.09 4.02545C548.395 4.02545 555.062 5.2702 561.115 7.73319L562.622 4.02816C556.043 1.35085 548.857 0.0254494 541.09 0.0254494V4.02545ZM561.126 7.73763C567.202 10.1679 572.437 13.5931 576.855 18.0111L579.684 15.1827C574.867 10.3656 569.169 6.64662 562.611 4.02372L561.126 7.73763ZM576.869 18.0244C581.334 22.4056 584.8 27.5594 587.27 33.504L590.964 31.9692C588.293 25.5422 584.528 19.9362 579.67 15.1694L576.869 18.0244ZM587.27 33.504C589.73 39.4249 590.972 45.9133 590.972 52.9929H594.972C594.972 45.4356 593.644 38.4199 590.964 31.9692L587.27 33.504ZM590.972 52.9929C590.972 60.0724 589.73 66.5609 587.27 72.4818L590.964 74.0165C593.644 67.5659 594.972 60.5501 594.972 52.9929H590.972ZM587.27 72.4818C584.799 78.428 581.331 83.6063 576.862 88.0333L579.677 90.875C584.531 86.0669 588.294 80.4419 590.964 74.0165L587.27 72.4818ZM576.862 88.0333C572.441 92.4126 567.199 95.8421 561.115 98.3179L562.622 102.023C569.171 99.3584 574.863 95.6437 579.677 90.8751L576.862 88.0333ZM561.126 98.3134C555.07 100.736 548.399 101.96 541.09 101.96V105.96C548.853 105.96 556.035 104.658 562.611 102.027L561.126 98.3134ZM541.09 83.417C544.979 83.417 548.623 82.642 551.995 81.0744L550.309 77.447C547.496 78.7545 544.432 79.417 541.09 79.417V83.417ZM551.995 81.0744C555.34 79.5197 558.243 77.3482 560.69 74.5716L557.689 71.9267C555.606 74.2904 553.15 76.1266 550.309 77.447L551.995 81.0744ZM560.689 74.5732C563.17 71.7638 565.081 68.5183 566.425 64.8557L562.67 63.4773C561.488 66.6975 559.827 69.5071 557.691 71.9251L560.689 74.5732ZM566.417 64.8765C567.818 61.189 568.508 57.2216 568.508 52.9929H564.508C564.508 56.7795 563.891 60.2612 562.678 63.4565L566.417 64.8765ZM568.508 52.9929C568.508 48.7641 567.818 44.7968 566.417 41.1092L562.678 42.5293C563.891 45.7245 564.508 49.2062 564.508 52.9929H568.508ZM566.425 41.13C565.08 37.4648 563.166 34.236 560.677 31.4654L557.702 34.1385C559.83 36.5082 561.489 39.2909 562.67 42.5084L566.425 41.13ZM560.701 31.4921C558.254 28.6683 555.348 26.4695 551.995 24.9114L550.309 28.5387C553.143 29.8556 555.595 31.7082 557.678 34.1118L560.701 31.4921ZM551.995 24.9114C548.623 23.3438 544.979 22.5687 541.09 22.5687V26.5687C544.432 26.5687 547.496 27.2312 550.309 28.5387L551.995 24.9114ZM541.09 22.5687C537.2 22.5687 533.539 23.3438 530.128 24.9069L531.795 28.5432C534.657 27.2312 537.747 26.5687 541.09 26.5687V22.5687ZM530.118 24.9114C526.77 26.4678 523.847 28.6622 521.36 31.4779L524.358 34.126C526.488 31.7142 528.967 29.8574 531.804 28.5387L530.118 24.9114ZM521.371 31.4654C518.887 34.2308 516.954 37.4525 515.566 41.1092L519.305 42.5293C520.53 39.3032 522.213 36.5134 524.347 34.1385L521.371 31.4654ZM515.558 41.13C514.206 44.8118 513.541 48.7719 513.541 52.9929H517.541C517.541 49.1984 518.138 45.7094 519.313 42.5084L515.558 41.13ZM513.541 52.9929C513.541 57.2138 514.206 61.1739 515.558 64.8557L519.313 63.4773C518.138 60.2763 517.541 56.7873 517.541 52.9929H513.541ZM515.566 64.8765C516.953 68.5306 518.883 71.769 521.36 74.5732L524.358 71.9251C522.217 69.5019 520.531 66.6852 519.305 63.4565L515.566 64.8765ZM521.371 74.5857C523.858 77.3541 526.777 79.5214 530.118 81.0744L531.804 77.447C528.96 76.1248 526.477 74.2845 524.347 71.9126L521.371 74.5857ZM530.128 81.0788C533.539 82.6419 537.2 83.417 541.09 83.417V79.417C537.747 79.417 534.657 78.7545 531.795 77.4426L530.128 81.0788ZM695.037 102V104H697.037V102H695.037ZM664.588 102L662.878 103.037L663.462 104H664.588V102ZM629.303 43.8449L631.012 42.8074L627.303 36.693V43.8449H629.303ZM629.303 102V104H631.303V102H629.303ZM603.427 102H601.427V104H603.427V102ZM603.427 3.98573V1.98573H601.427V3.98573H603.427ZM633.877 3.98573L635.588 2.95083L635.004 1.98573H633.877V3.98573ZM669.162 62.3369L667.45 63.3718L671.162 69.5094V62.3369H669.162ZM669.162 3.98573V1.98573H667.162V3.98573H669.162ZM695.037 3.98573H697.037V1.98573H695.037V3.98573ZM695.037 100H664.588V104H695.037V100ZM666.298 100.963L631.012 42.8074L627.593 44.8823L662.878 103.037L666.298 100.963ZM627.303 43.8449V102H631.303V43.8449H627.303ZM629.303 100H603.427V104H629.303V100ZM605.427 102V3.98573H601.427V102H605.427ZM603.427 5.98573H633.877V1.98573H603.427V5.98573ZM632.165 5.02064L667.45 63.3718L670.873 61.302L635.588 2.95083L632.165 5.02064ZM671.162 62.3369V3.98573H667.162V62.3369H671.162ZM669.162 5.98573H695.037V1.98573H669.162V5.98573ZM693.037 3.98573V102H697.037V3.98573H693.037ZM703.532 90.761L701.829 89.7122L700.889 91.2389L702.304 92.3397L703.532 90.761ZM715.686 71.0275L716.917 69.4511L715.155 68.0756L713.983 69.9787L715.686 71.0275ZM724.572 77.1044L723.58 78.8409L723.592 78.8475L724.572 77.1044ZM732.675 80.5675L732.13 82.4918L732.148 82.4971L732.167 82.5021L732.675 80.5675ZM747.704 80.6982L748.31 82.6041L748.33 82.5979L748.349 82.5913L747.704 80.6982ZM752.082 77.9538L750.563 76.6522L750.559 76.6569L752.082 77.9538ZM751.428 68.2831L752.842 66.8689L751.428 68.2831ZM745.482 64.2972L744.613 66.0988L744.626 66.1047L745.482 64.2972ZM737.445 60.7687L738.192 58.9136L738.192 58.9135L737.445 60.7687ZM727.839 56.5867L726.974 58.3898L726.984 58.3945L726.994 58.3991L727.839 56.5867ZM712.157 42.7994L710.388 43.7319L710.393 43.7418L712.157 42.7994ZM714.183 15.4207L712.552 14.2629L712.55 14.2661L714.183 15.4207ZM726.794 5.48862L727.578 7.32848L727.585 7.32536L726.794 5.48862ZM777.239 10.128L779.039 10.9997L779.902 9.21676L778.128 8.33634L777.239 10.128ZM767.176 30.907L766.133 32.6135L768.015 33.7635L768.976 31.7787L767.176 30.907ZM756.852 26.333L756.246 28.2391L756.26 28.2434L756.273 28.2474L756.852 26.333ZM741.039 25.4182L740.376 23.5313L740.368 23.5341L740.359 23.5371L741.039 25.4182ZM737.38 27.9012L738.916 29.1816L738.929 29.1662L738.941 29.1506L737.38 27.9012ZM738.294 36.7225L736.88 38.1367L736.891 38.1473L736.901 38.1577L738.294 36.7225ZM752.147 44.433L751.342 46.264L751.349 46.267L751.356 46.2699L752.147 44.433ZM761.752 48.9416L760.848 50.7257L760.858 50.7305L761.752 48.9416ZM770.835 54.8225L769.562 56.3649L769.568 56.3698L769.574 56.3747L770.835 54.8225ZM777.565 62.9903L775.801 63.9328L775.807 63.9429L777.565 62.9903ZM775.278 89.8462L773.654 88.6793L773.652 88.6822L775.278 89.8462ZM761.883 100.236L761.09 98.3996L761.085 98.4018L761.883 100.236ZM705.235 91.8099L717.389 72.0763L713.983 69.9787L701.829 89.7122L705.235 91.8099ZM714.455 72.6039C717.691 75.1307 720.733 77.2142 723.58 78.8409L725.565 75.3679C722.923 73.8581 720.041 71.8904 716.917 69.4511L714.455 72.6039ZM723.592 78.8475C726.494 80.4798 729.34 81.7015 732.13 82.4918L733.22 78.6433C730.782 77.9525 728.227 76.8654 725.553 75.3612L723.592 78.8475ZM732.167 82.5021C734.99 83.2425 737.862 83.613 740.777 83.613V79.613C738.204 79.613 735.674 79.2866 733.182 78.633L732.167 82.5021ZM740.777 83.613C743.618 83.613 746.143 83.2936 748.31 82.6041L747.097 78.7924C745.431 79.3226 743.338 79.613 740.777 79.613V83.613ZM748.349 82.5913C750.503 81.8569 752.307 80.7735 753.604 79.2508L750.559 76.6569C749.852 77.4865 748.738 78.2327 747.058 78.8052L748.349 82.5913ZM753.6 79.2554C754.967 77.6613 755.65 75.7581 755.65 73.6412H751.65C751.65 74.835 751.288 75.8069 750.563 76.6523L753.6 79.2554ZM755.65 73.6412C755.65 71.0188 754.698 68.7243 752.842 66.8689L750.014 69.6973C751.121 70.8041 751.65 72.0817 751.65 73.6412H755.65ZM752.842 66.8689C751.158 65.184 748.967 63.7351 746.338 62.4897L744.626 66.1047C746.963 67.2116 748.737 68.42 750.014 69.6973L752.842 66.8689ZM746.351 62.4956C743.866 61.2975 741.146 60.1037 738.192 58.9136L736.697 62.6237C739.581 63.7859 742.219 64.9445 744.613 66.0987L746.351 62.4956ZM738.192 58.9135C735.091 57.6644 731.922 56.2849 728.685 54.7744L726.994 58.3991C730.291 59.9379 733.526 61.3463 736.698 62.6238L738.192 58.9135ZM728.705 54.7837C725.574 53.281 722.701 51.4687 720.081 49.3474L717.564 52.4564C720.432 54.7784 723.57 56.756 726.974 58.3898L728.705 54.7837ZM720.081 49.3474C717.548 47.2975 715.497 44.8063 713.921 41.857L710.393 43.7418C712.215 47.1525 714.607 50.063 717.564 52.4564L720.081 49.3474ZM713.927 41.8669C712.414 38.9975 711.609 35.4151 711.609 31.0377H707.609C707.609 35.8954 708.502 40.1542 710.388 43.7319L713.927 41.8669ZM711.609 31.0377C711.609 25.2865 713.041 20.5001 715.816 16.5754L712.55 14.2661C709.226 18.9666 707.609 24.5915 707.609 31.0377H711.609ZM715.814 16.5786C718.675 12.548 722.575 9.4611 727.578 7.32847L726.01 3.64877C720.384 6.04657 715.876 9.58111 712.552 14.2629L715.814 16.5786ZM727.585 7.32536C732.657 5.1399 738.437 4.02545 744.959 4.02545V0.0254494C737.977 0.0254494 731.647 1.21978 726.003 3.65188L727.585 7.32536ZM744.959 4.02545C749.705 4.02545 754.754 4.65548 760.113 5.93135L761.039 2.04012C755.421 0.702275 750.059 0.0254494 744.959 0.0254494V4.02545ZM760.113 5.93135C765.439 7.1995 770.851 9.19151 776.35 11.9196L778.128 8.33634C772.387 5.48849 766.691 3.38569 761.039 2.04012L760.113 5.93135ZM775.439 9.25625L765.376 30.0353L768.976 31.7787L779.039 10.9997L775.439 9.25625ZM768.219 29.2004C764.928 27.1894 761.329 25.5973 757.43 24.4186L756.273 28.2474C759.867 29.3339 763.151 30.7911 766.133 32.6135L768.219 29.2004ZM757.457 24.4268C753.606 23.2037 750.001 22.5687 746.658 22.5687V26.5687C749.501 26.5687 752.691 27.11 756.246 28.2391L757.457 24.4268ZM746.658 22.5687C744.352 22.5687 742.246 22.8741 740.376 23.5313L741.702 27.3051C743.055 26.8297 744.695 26.5687 746.658 26.5687V22.5687ZM740.359 23.5371C738.513 24.2039 736.961 25.223 735.818 26.6518L738.941 29.1506C739.541 28.4013 740.428 27.7651 741.718 27.2993L740.359 23.5371ZM735.843 26.6208C734.655 28.0471 734.073 29.7488 734.073 31.6258H738.073C738.073 30.6276 738.362 29.8463 738.916 29.1816L735.843 26.6208ZM734.073 31.6258C734.073 34.1247 735.062 36.3188 736.88 38.1367L739.709 35.3083C738.564 34.1639 738.073 32.9602 738.073 31.6258H734.073ZM736.901 38.1577C738.568 39.7754 740.713 41.2135 743.281 42.4973L745.07 38.9196C742.758 37.7639 740.983 36.5447 739.687 35.2873L736.901 38.1577ZM743.281 42.4973C745.754 43.7338 748.441 44.9893 751.342 46.264L752.952 42.6019C750.102 41.35 747.475 40.1225 745.07 38.9196L743.281 42.4973ZM751.356 46.2699C754.452 47.6028 757.616 49.0878 760.848 50.7257L762.656 47.1575C759.355 45.4847 756.115 43.964 752.938 42.596L751.356 46.2699ZM760.858 50.7305C764.039 52.321 766.939 54.1997 769.562 56.3649L772.108 53.28C769.243 50.9148 766.087 48.873 762.647 47.1528L760.858 50.7305ZM769.574 56.3747C772.155 58.4715 774.227 60.9865 775.801 63.9328L779.329 62.0479C777.506 58.6341 775.092 55.7039 772.096 53.2702L769.574 56.3747ZM775.807 63.9429C777.314 66.7261 778.114 70.1509 778.114 74.2946H782.114C782.114 69.6389 781.214 65.5274 779.324 62.0378L775.807 63.9429ZM778.114 74.2946C778.114 79.7854 776.617 84.555 773.654 88.6793L776.903 91.0132C780.387 86.1637 782.114 80.5656 782.114 74.2946H778.114ZM773.652 88.6822C770.713 92.7888 766.556 96.0392 761.09 98.3996L762.676 102.072C768.71 99.4662 773.484 95.7903 776.905 91.0102L773.652 88.6822ZM761.085 98.4018C755.679 100.754 749.317 101.96 741.954 101.96V105.96C749.749 105.96 756.674 104.683 762.681 102.07L761.085 98.4018ZM741.954 101.96C735.115 101.96 728.541 100.863 722.222 98.6728L720.911 102.452C727.661 104.792 734.678 105.96 741.954 105.96V101.96ZM722.222 98.6728C715.895 96.4796 710.077 93.3179 704.76 89.1823L702.304 92.3397C707.965 96.7423 714.169 100.115 720.911 102.452L722.222 98.6728Z" fill="#252735" fill-opacity="0.4" mask="url(#path-1-outside-1_1715_2232)"/>
</svg>
