<svg width="314" height="181" viewBox="0 0 314 181" fill="none" xmlns="http://www.w3.org/2000/svg">
<g clip-path="url(#clip0_1487_1714)">
<path d="M0.403564 0.617188H313.402V181.461H0.403564V0.617188Z" fill="url(#paint0_linear_1487_1714)"/>
<ellipse cx="67.1276" cy="66.4695" rx="67.1276" ry="66.4695" transform="matrix(0.866025 -0.5 -0.5 -0.866025 284.016 78.0518)" fill="url(#paint1_linear_1487_1714)"/>
<ellipse cx="67.1276" cy="66.4695" rx="67.1276" ry="66.4695" transform="matrix(-0.866025 -0.5 -0.5 0.866025 76.2004 153.388)" fill="url(#paint2_linear_1487_1714)"/>
</g>
<path d="M95.7198 62.6201L89.4745 50.5866C88.7637 50.5866 87.9851 50.5866 87.1389 50.5866C86.2926 50.5527 85.4464 50.5358 84.6002 50.5358C83.7539 50.5019 82.9415 50.485 82.163 50.485V44.189H90.7946C91.3701 44.189 91.9286 44.1044 92.4702 43.9351C93.0118 43.732 93.4857 43.3935 93.8919 42.9196C94.3319 42.4457 94.6704 41.8026 94.9074 40.9902C95.1782 40.1439 95.3136 39.0777 95.3136 37.7914C95.3136 36.2343 95.1274 35.0326 94.755 34.1864C94.3827 33.3063 93.8919 32.697 93.2826 32.3585C92.6733 31.9862 91.9455 31.8 91.0993 31.8H82.163V25.047H92.1148C93.3334 25.047 94.5689 25.2332 95.8213 25.6055C97.1076 25.9779 98.2754 26.6379 99.3248 27.5857C100.374 28.5335 101.22 29.8367 101.863 31.4954C102.507 33.1201 102.828 35.2188 102.828 37.7914C102.828 39.8901 102.659 41.6503 102.32 43.0719C102.016 44.4598 101.593 45.5937 101.051 46.4738C100.509 47.3539 99.8833 48.0478 99.1724 48.5556C98.4616 49.0295 97.7507 49.4188 97.0399 49.7234L103.894 62.6201H95.7198ZM82.163 39.8224V36.0143H108.921V39.8224H82.163ZM90.7946 28.8551V25.047H108.921V28.8551H90.7946ZM118.689 62.6201V31.9016L112.037 32.7647V27.9411L119.501 24.6916H126.203V62.6201H118.689ZM134.686 67.139C134.043 67.139 133.485 67.0883 133.011 66.9867C132.537 66.8852 132.3 66.8344 132.3 66.8344V64.448C132.774 64.448 133.112 64.3803 133.315 64.2449C133.552 64.1095 133.671 63.8387 133.671 63.4325V62.1124H133.163C132.859 62.1124 132.605 62.0277 132.402 61.8585C132.198 61.6554 132.097 61.3677 132.097 60.9953V56.578C132.097 55.7994 132.452 55.4101 133.163 55.4101H137.428C137.834 55.4101 138.105 55.5286 138.241 55.7656C138.41 55.9687 138.494 56.2395 138.494 56.578V63.5341C138.494 64.5157 138.291 65.2773 137.885 65.8189C137.479 66.3605 136.988 66.7159 136.413 66.8852C135.837 67.0544 135.262 67.139 134.686 67.139ZM154.926 62.874C153.267 62.874 151.591 62.8063 149.899 62.6709C148.24 62.5355 146.734 62.3324 145.38 62.0616V56.121H154.215C156.753 56.121 158.615 55.3424 159.8 53.7854C160.985 52.1944 161.577 49.8588 161.577 46.7785C160.832 47.0154 160.003 47.2016 159.089 47.337C158.209 47.4724 157.278 47.557 156.296 47.5909C155.315 47.6247 154.249 47.6416 153.098 47.6416C150.627 47.6416 148.663 47.3031 147.208 46.6262C145.752 45.9153 144.703 44.9167 144.06 43.6305C143.451 42.3442 143.146 40.804 143.146 39.01V33.6279C143.146 31.5292 143.535 29.8367 144.314 28.5504C145.092 27.2303 146.175 26.2825 147.563 25.7071C148.985 25.0978 150.61 24.7931 152.438 24.7931H157.871C159.698 24.7931 161.306 25.0808 162.694 25.6563C164.116 26.1979 165.301 27.1457 166.248 28.4997C167.196 29.8537 167.907 31.7492 168.381 34.1864C168.889 36.5897 169.142 39.6362 169.142 43.3258C169.142 46.9816 168.821 50.0788 168.178 52.6175C167.535 55.1224 166.604 57.1365 165.385 58.6597C164.167 60.1491 162.677 61.2323 160.917 61.9093C159.157 62.5524 157.16 62.874 154.926 62.874ZM155.23 41.2441H161.577C161.577 39.3146 161.475 37.7237 161.272 36.4713C161.069 35.2188 160.748 34.2372 160.308 33.5263C159.901 32.7816 159.377 32.2739 158.734 32.0031C158.091 31.6985 157.312 31.5461 156.398 31.5461H154.113C153.402 31.5461 152.776 31.6646 152.235 31.9016C151.727 32.1385 151.338 32.5108 151.067 33.0186C150.796 33.5263 150.661 34.2372 150.661 35.1511V37.5883C150.661 38.5699 150.813 39.3316 151.117 39.8731C151.456 40.3809 151.964 40.7363 152.641 40.9394C153.318 41.1425 154.181 41.2441 155.23 41.2441ZM185.767 62.874C184.108 62.874 182.433 62.8063 180.74 62.6709C179.082 62.5355 177.576 62.3324 176.222 62.0616V56.121H185.056C187.595 56.121 189.457 55.3424 190.641 53.7854C191.826 52.1944 192.419 49.8588 192.419 46.7785C191.674 47.0154 190.845 47.2016 189.931 47.337C189.051 47.4724 188.12 47.557 187.138 47.5909C186.156 47.6247 185.09 47.6416 183.939 47.6416C181.468 47.6416 179.505 47.3031 178.049 46.6262C176.594 45.9153 175.545 44.9167 174.901 43.6305C174.292 42.3442 173.987 40.804 173.987 39.01V33.6279C173.987 31.5292 174.377 29.8367 175.155 28.5504C175.934 27.2303 177.017 26.2825 178.405 25.7071C179.827 25.0978 181.451 24.7931 183.279 24.7931H188.712C190.54 24.7931 192.148 25.0808 193.536 25.6563C194.957 26.1979 196.142 27.1457 197.09 28.4997C198.038 29.8537 198.748 31.7492 199.222 34.1864C199.73 36.5897 199.984 39.6362 199.984 43.3258C199.984 46.9816 199.662 50.0788 199.019 52.6175C198.376 55.1224 197.445 57.1365 196.227 58.6597C195.008 60.1491 193.519 61.2323 191.759 61.9093C189.998 62.5524 188.001 62.874 185.767 62.874ZM186.072 41.2441H192.419C192.419 39.3146 192.317 37.7237 192.114 36.4713C191.911 35.2188 191.589 34.2372 191.149 33.5263C190.743 32.7816 190.218 32.2739 189.575 32.0031C188.932 31.6985 188.154 31.5461 187.24 31.5461H184.955C184.244 31.5461 183.618 31.6646 183.076 31.9016C182.568 32.1385 182.179 32.5108 181.908 33.0186C181.637 33.5263 181.502 34.2372 181.502 35.1511V37.5883C181.502 38.5699 181.654 39.3316 181.959 39.8731C182.298 40.3809 182.805 40.7363 183.482 40.9394C184.159 41.1425 185.022 41.2441 186.072 41.2441ZM216.609 62.874C214.95 62.874 213.274 62.8063 211.582 62.6709C209.923 62.5355 208.417 62.3324 207.063 62.0616V56.121H215.898C218.437 56.121 220.298 55.3424 221.483 53.7854C222.668 52.1944 223.26 49.8588 223.26 46.7785C222.515 47.0154 221.686 47.2016 220.772 47.337C219.892 47.4724 218.961 47.557 217.98 47.5909C216.998 47.6247 215.932 47.6416 214.781 47.6416C212.31 47.6416 210.346 47.3031 208.891 46.6262C207.435 45.9153 206.386 44.9167 205.743 43.6305C205.134 42.3442 204.829 40.804 204.829 39.01V33.6279C204.829 31.5292 205.218 29.8367 205.997 28.5504C206.775 27.2303 207.859 26.2825 209.246 25.7071C210.668 25.0978 212.293 24.7931 214.121 24.7931H219.554C221.381 24.7931 222.989 25.0808 224.377 25.6563C225.799 26.1979 226.984 27.1457 227.931 28.4997C228.879 29.8537 229.59 31.7492 230.064 34.1864C230.572 36.5897 230.826 39.6362 230.826 43.3258C230.826 46.9816 230.504 50.0788 229.861 52.6175C229.218 55.1224 228.287 57.1365 227.068 58.6597C225.85 60.1491 224.36 61.2323 222.6 61.9093C220.84 62.5524 218.843 62.874 216.609 62.874ZM216.913 41.2441H223.26C223.26 39.3146 223.159 37.7237 222.955 36.4713C222.752 35.2188 222.431 34.2372 221.991 33.5263C221.585 32.7816 221.06 32.2739 220.417 32.0031C219.774 31.6985 218.995 31.5461 218.081 31.5461H215.796C215.085 31.5461 214.459 31.6646 213.918 31.9016C213.41 32.1385 213.021 32.5108 212.75 33.0186C212.479 33.5263 212.344 34.2372 212.344 35.1511V37.5883C212.344 38.5699 212.496 39.3316 212.801 39.8731C213.139 40.3809 213.647 40.7363 214.324 40.9394C215.001 41.1425 215.864 41.2441 216.913 41.2441Z" fill="white"/>
<path d="M98.7181 87.3473L102.761 75.2342H104.199L100.157 87.3473H98.7181ZM111.457 86.3259C110.987 86.3259 110.589 86.2444 110.263 86.0813C109.947 85.9183 109.707 85.6594 109.544 85.3045C109.391 84.94 109.314 84.4509 109.314 83.8371V75.3349H110.752V83.6501C110.752 84.0529 110.791 84.3646 110.868 84.5852C110.954 84.7962 111.069 84.9448 111.213 85.0312C111.366 85.1175 111.544 85.175 111.745 85.2038L112.464 85.2901V86.3259H111.457ZM113.828 77.3202C113.656 77.3202 113.569 77.2387 113.569 77.0756V75.8672C113.569 75.6946 113.656 75.6083 113.828 75.6083H114.893C114.97 75.6083 115.027 75.6322 115.065 75.6802C115.104 75.7281 115.123 75.7905 115.123 75.8672V77.0756C115.123 77.2387 115.046 77.3202 114.893 77.3202H113.828ZM113.627 86.3115V78.615H115.065V86.3115H113.627ZM119.946 86.3978C119.495 86.3978 119.078 86.3403 118.694 86.2252C118.32 86.1005 117.989 85.8943 117.701 85.6066C117.423 85.3189 117.208 84.9209 117.054 84.4126C116.901 83.9042 116.824 83.2617 116.824 82.4848C116.824 81.6888 116.896 81.0366 117.04 80.5283C117.184 80.0104 117.39 79.6076 117.658 79.3199C117.936 79.0226 118.272 78.8164 118.665 78.7013C119.059 78.5862 119.5 78.5286 119.989 78.5286C120.392 78.5286 120.814 78.5478 121.255 78.5862C121.706 78.6245 122.142 78.6869 122.564 78.7732V79.622H120.392C119.922 79.622 119.529 79.6987 119.212 79.8522C118.896 79.996 118.661 80.279 118.507 80.7009C118.354 81.1133 118.277 81.7128 118.277 82.4992C118.277 83.2569 118.358 83.8419 118.521 84.2543C118.685 84.6571 118.919 84.9305 119.226 85.0743C119.543 85.2182 119.936 85.2901 120.406 85.2901H122.679V86.1101C122.458 86.1677 122.195 86.2204 121.888 86.2684C121.591 86.3067 121.274 86.3355 120.938 86.3547C120.612 86.3835 120.281 86.3978 119.946 86.3978ZM127.171 86.3978C126.356 86.3978 125.704 86.278 125.214 86.0382C124.735 85.7984 124.39 85.3956 124.179 84.8298C123.977 84.2543 123.876 83.4631 123.876 82.456C123.876 81.4298 123.977 80.6338 124.179 80.068C124.39 79.4925 124.735 79.0897 125.214 78.8595C125.694 78.6293 126.341 78.5143 127.157 78.5143C127.866 78.5143 128.437 78.591 128.868 78.7444C129.31 78.8883 129.631 79.152 129.832 79.5357C130.043 79.9097 130.149 80.4324 130.149 81.1038C130.149 81.5737 130.053 81.9477 129.861 82.2259C129.679 82.504 129.415 82.7054 129.07 82.8301C128.734 82.9548 128.331 83.0171 127.861 83.0171H125.315C125.325 83.5734 125.387 84.0193 125.502 84.355C125.627 84.6811 125.843 84.9209 126.149 85.0743C126.466 85.2182 126.926 85.2901 127.531 85.2901H129.933V86.1533C129.521 86.2108 129.099 86.2636 128.667 86.3115C128.235 86.3691 127.737 86.3978 127.171 86.3978ZM125.301 82.1108H127.732C128.116 82.1108 128.399 82.0389 128.581 81.895C128.763 81.7511 128.854 81.4874 128.854 81.1038C128.854 80.7201 128.797 80.418 128.681 80.1974C128.576 79.9768 128.399 79.8186 128.149 79.7227C127.9 79.6268 127.569 79.5788 127.157 79.5788C126.687 79.5788 126.313 79.6508 126.034 79.7946C125.766 79.9385 125.574 80.1926 125.459 80.5571C125.353 80.9215 125.301 81.4394 125.301 82.1108ZM131.904 86.3115V78.615H133.055L133.343 79.4494C133.688 79.2 134.096 78.9794 134.566 78.7876C135.045 78.5862 135.539 78.4855 136.048 78.4855C136.623 78.4855 137.083 78.6102 137.429 78.8595C137.784 79.0993 138.038 79.4206 138.191 79.8234C138.345 80.2262 138.421 80.6626 138.421 81.1325V86.3115H136.983V81.3052C136.983 80.9983 136.92 80.7345 136.796 80.5139C136.681 80.2837 136.518 80.1063 136.307 79.9816C136.096 79.857 135.837 79.7946 135.53 79.7946C135.242 79.7946 134.974 79.8234 134.724 79.8809C134.484 79.9385 134.254 80.02 134.034 80.1255C133.813 80.2214 133.583 80.3413 133.343 80.4852V86.3115H131.904ZM143.08 86.3978C142.879 86.3978 142.639 86.393 142.361 86.3835C142.083 86.3739 141.795 86.3547 141.498 86.3259C141.21 86.3067 140.942 86.2828 140.692 86.254C140.452 86.2252 140.261 86.1916 140.117 86.1533V85.2901H143.354C143.632 85.2901 143.871 85.2709 144.073 85.2326C144.274 85.1846 144.428 85.0887 144.533 84.9448C144.648 84.801 144.706 84.59 144.706 84.3119V83.9954C144.706 83.7076 144.61 83.4823 144.418 83.3192C144.226 83.1562 143.91 83.0747 143.469 83.0747H142.347C141.896 83.0747 141.493 83.0171 141.138 82.902C140.793 82.7773 140.52 82.5711 140.318 82.2834C140.126 81.9957 140.03 81.6073 140.03 81.1181V80.7009C140.03 80.2118 140.121 79.809 140.304 79.4925C140.496 79.176 140.798 78.941 141.21 78.7876C141.622 78.6245 142.169 78.543 142.85 78.543C143.138 78.543 143.454 78.5574 143.8 78.5862C144.154 78.6054 144.5 78.6341 144.835 78.6725C145.171 78.7109 145.44 78.754 145.641 78.802V79.6651H142.591C142.169 79.6651 141.843 79.7371 141.613 79.8809C141.392 80.0248 141.282 80.2981 141.282 80.7009V80.9887C141.282 81.238 141.335 81.4298 141.44 81.5641C141.546 81.6984 141.694 81.7847 141.886 81.8231C142.088 81.8614 142.323 81.8806 142.591 81.8806H143.742C144.471 81.8806 145.022 82.0532 145.396 82.3985C145.77 82.7342 145.957 83.2089 145.957 83.8227V84.4126C145.957 84.9305 145.838 85.3333 145.598 85.621C145.358 85.9087 145.022 86.1101 144.591 86.2252C144.169 86.3403 143.665 86.3978 143.08 86.3978ZM150.633 86.3978C149.817 86.3978 149.165 86.278 148.676 86.0382C148.197 85.7984 147.851 85.3956 147.64 84.8298C147.439 84.2543 147.338 83.4631 147.338 82.456C147.338 81.4298 147.439 80.6338 147.64 80.068C147.851 79.4925 148.197 79.0897 148.676 78.8595C149.156 78.6293 149.803 78.5143 150.618 78.5143C151.328 78.5143 151.899 78.591 152.33 78.7444C152.771 78.8883 153.093 79.152 153.294 79.5357C153.505 79.9097 153.611 80.4324 153.611 81.1038C153.611 81.5737 153.515 81.9477 153.323 82.2259C153.141 82.504 152.877 82.7054 152.532 82.8301C152.196 82.9548 151.793 83.0171 151.323 83.0171H148.777C148.786 83.5734 148.849 84.0193 148.964 84.355C149.088 84.6811 149.304 84.9209 149.611 85.0743C149.928 85.2182 150.388 85.2901 150.992 85.2901H153.395V86.1533C152.982 86.2108 152.56 86.2636 152.129 86.3115C151.697 86.3691 151.198 86.3978 150.633 86.3978ZM148.762 82.1108H151.194C151.577 82.1108 151.86 82.0389 152.042 81.895C152.225 81.7511 152.316 81.4874 152.316 81.1038C152.316 80.7201 152.258 80.418 152.143 80.1974C152.038 79.9768 151.86 79.8186 151.611 79.7227C151.362 79.6268 151.031 79.5788 150.618 79.5788C150.148 79.5788 149.774 79.6508 149.496 79.7946C149.228 79.9385 149.036 80.1926 148.921 80.5571C148.815 80.9215 148.762 81.4394 148.762 82.1108ZM159.188 86.3115V78.615H160.338L160.626 79.4494C161 79.1904 161.413 78.965 161.863 78.7732C162.314 78.5814 162.832 78.4855 163.417 78.4855C163.897 78.4855 164.304 78.591 164.64 78.802C164.976 79.013 165.23 79.2815 165.402 79.6076C165.632 79.435 165.911 79.2623 166.237 79.0897C166.563 78.9171 166.913 78.7732 167.287 78.6581C167.661 78.543 168.021 78.4855 168.366 78.4855C168.941 78.4855 169.406 78.6054 169.761 78.8451C170.126 79.0753 170.385 79.3966 170.538 79.809C170.701 80.2118 170.783 80.6722 170.783 81.1901V86.3115H169.344V81.3052C169.344 80.9983 169.282 80.7345 169.157 80.5139C169.042 80.2837 168.874 80.1063 168.654 79.9816C168.443 79.857 168.184 79.7946 167.877 79.7946C167.493 79.7946 167.1 79.8713 166.697 80.0248C166.294 80.1687 165.925 80.3461 165.589 80.5571C165.628 80.6818 165.656 80.8112 165.676 80.9455C165.695 81.0702 165.704 81.1949 165.704 81.3195V86.3115H164.266V81.3052C164.266 80.9983 164.203 80.7345 164.079 80.5139C163.964 80.2837 163.801 80.1063 163.59 79.9816C163.379 79.857 163.12 79.7946 162.813 79.7946C162.525 79.7946 162.257 79.8234 162.007 79.8809C161.767 79.9385 161.537 80.02 161.317 80.1255C161.096 80.2214 160.866 80.3413 160.626 80.4852V86.3115H159.188ZM175.895 86.3978C175.31 86.3978 174.802 86.3355 174.37 86.2108C173.948 86.0861 173.598 85.8799 173.32 85.5922C173.042 85.2949 172.835 84.8921 172.701 84.3838C172.567 83.8755 172.5 83.2329 172.5 82.456C172.5 81.6504 172.567 80.9935 172.701 80.4852C172.835 79.9673 173.042 79.5644 173.32 79.2767C173.598 78.989 173.953 78.7924 174.384 78.6869C174.816 78.5718 175.319 78.5143 175.895 78.5143C176.47 78.5143 176.974 78.5718 177.405 78.6869C177.837 78.802 178.192 79.0034 178.47 79.2911C178.748 79.5788 178.954 79.9816 179.089 80.4995C179.223 81.0078 179.29 81.66 179.29 82.456C179.29 83.2425 179.223 83.8947 179.089 84.4126C178.954 84.9209 178.748 85.3189 178.47 85.6066C178.202 85.8943 177.851 86.1005 177.42 86.2252C176.988 86.3403 176.48 86.3978 175.895 86.3978ZM175.895 85.2182C176.211 85.2182 176.49 85.1894 176.729 85.1319C176.979 85.0743 177.185 84.9544 177.348 84.7722C177.511 84.5804 177.636 84.2975 177.722 83.9234C177.808 83.5494 177.851 83.0555 177.851 82.4417C177.851 81.8279 177.808 81.3387 177.722 80.9743C177.636 80.6002 177.511 80.3221 177.348 80.1399C177.185 79.9577 176.979 79.8378 176.729 79.7802C176.49 79.7131 176.211 79.6795 175.895 79.6795C175.569 79.6795 175.281 79.7131 175.032 79.7802C174.792 79.8378 174.591 79.9577 174.428 80.1399C174.274 80.3221 174.154 80.6002 174.068 80.9743C173.991 81.3387 173.953 81.8279 173.953 82.4417C173.953 83.0555 173.991 83.5494 174.068 83.9234C174.154 84.2975 174.274 84.5804 174.428 84.7722C174.591 84.9544 174.792 85.0743 175.032 85.1319C175.281 85.1894 175.569 85.2182 175.895 85.2182ZM181.048 86.3115V78.615H182.199L182.486 79.4494C182.832 79.2 183.239 78.9794 183.709 78.7876C184.189 78.5862 184.683 78.4855 185.191 78.4855C185.766 78.4855 186.227 78.6102 186.572 78.8595C186.927 79.0993 187.181 79.4206 187.334 79.8234C187.488 80.2262 187.565 80.6626 187.565 81.1325V86.3115H186.126V81.3052C186.126 80.9983 186.064 80.7345 185.939 80.5139C185.824 80.2837 185.661 80.1063 185.45 79.9816C185.239 79.857 184.98 79.7946 184.673 79.7946C184.385 79.7946 184.117 79.8234 183.867 79.8809C183.628 79.9385 183.397 80.02 183.177 80.1255C182.956 80.2214 182.726 80.3413 182.486 80.4852V86.3115H181.048ZM192.195 86.3115C191.677 86.3115 191.245 86.23 190.9 86.067C190.564 85.8943 190.315 85.621 190.152 85.247C189.998 84.8729 189.926 84.3742 189.936 83.7508L189.994 79.7946H188.771V78.8595L190.022 78.615L190.238 76.457H191.375V78.615H193.461V79.7946H191.375V83.7364C191.375 84.0337 191.403 84.2735 191.461 84.4557C191.518 84.6379 191.6 84.777 191.705 84.8729C191.811 84.9688 191.926 85.0408 192.051 85.0887C192.175 85.1271 192.295 85.151 192.41 85.1606L193.36 85.247V86.3115H192.195ZM194.914 86.3115V75.3349H196.353V79.4494C196.688 79.2 197.096 78.9794 197.575 78.7876C198.055 78.5862 198.549 78.4855 199.057 78.4855C199.613 78.4855 200.064 78.6006 200.409 78.8307C200.764 79.0609 201.023 79.3774 201.186 79.7802C201.349 80.1735 201.431 80.6194 201.431 81.1181V86.3115H199.992V81.2908C199.992 80.9935 199.93 80.7345 199.805 80.5139C199.69 80.2837 199.522 80.1063 199.302 79.9816C199.091 79.857 198.837 79.7946 198.539 79.7946C198.252 79.7946 197.983 79.8234 197.734 79.8809C197.494 79.9385 197.264 80.02 197.043 80.1255C196.822 80.231 196.592 80.3509 196.353 80.4852V86.3115H194.914ZM205.543 86.3259C205.073 86.3259 204.675 86.2444 204.349 86.0813C204.032 85.9183 203.793 85.6594 203.63 85.3045C203.476 84.94 203.399 84.4509 203.399 83.8371V75.3349H204.838V83.6501C204.838 84.0529 204.876 84.3646 204.953 84.5852C205.039 84.7962 205.155 84.9448 205.298 85.0312C205.452 85.1175 205.629 85.175 205.831 85.2038L206.55 85.2901V86.3259H205.543ZM209.885 89.721L210.82 86.3115C210.513 86.3019 210.22 86.2396 209.942 86.1245C209.664 85.9998 209.415 85.8032 209.194 85.5347C208.983 85.2565 208.811 84.8873 208.676 84.4269L206.95 78.615H208.461L210.014 84.1248C210.101 84.3838 210.197 84.5804 210.302 84.7147C210.417 84.8489 210.527 84.9448 210.633 85.0024C210.748 85.0503 210.849 85.0791 210.935 85.0887C211.021 85.0983 211.074 85.1031 211.093 85.1031L212.891 78.615H214.373L211.726 88.2968L211.036 89.721H209.885Z" fill="#E1E1E1"/>
<path d="M47.0121 121.251C46.3419 121.251 45.758 121.174 45.2604 121.022C44.7628 120.87 44.3465 120.596 44.0114 120.2C43.6763 119.793 43.4275 119.215 43.265 118.463C43.1025 117.701 43.0213 116.716 43.0213 115.508C43.0213 114.371 43.1025 113.431 43.265 112.69C43.4376 111.949 43.6915 111.37 44.0266 110.954C44.3719 110.537 44.7984 110.248 45.3061 110.085C45.8139 109.923 46.4028 109.842 47.0731 109.842C47.4488 109.842 47.8347 109.862 48.2307 109.902C48.6369 109.943 49.0228 109.999 49.3884 110.07C49.7641 110.131 50.0992 110.202 50.3937 110.283V111.441C50.2109 111.41 49.9621 111.38 49.6473 111.35C49.3325 111.309 48.9771 111.278 48.5811 111.258C48.185 111.228 47.7738 111.212 47.3473 111.212C46.8395 111.212 46.4079 111.273 46.0525 111.395C45.6971 111.507 45.4077 111.72 45.1843 112.035C44.9609 112.34 44.7984 112.776 44.6968 113.345C44.5953 113.904 44.5445 114.63 44.5445 115.523C44.5445 116.427 44.5902 117.168 44.6816 117.747C44.7831 118.316 44.9405 118.758 45.1538 119.072C45.367 119.377 45.6514 119.59 46.0068 119.712C46.3622 119.824 46.804 119.88 47.332 119.88C48.0936 119.88 48.7182 119.859 49.2056 119.819C49.693 119.778 50.0891 119.737 50.3937 119.697V120.87C50.0891 120.941 49.754 121.007 49.3884 121.068C49.0228 121.129 48.6369 121.174 48.2307 121.205C47.8347 121.235 47.4285 121.251 47.0121 121.251ZM55.2874 121.251C54.6679 121.251 54.1297 121.185 53.6727 121.053C53.2259 120.921 52.8553 120.702 52.5608 120.398C52.2663 120.083 52.0479 119.656 51.9058 119.118C51.7636 118.58 51.6925 117.899 51.6925 117.077C51.6925 116.224 51.7636 115.528 51.9058 114.99C52.0479 114.442 52.2663 114.015 52.5608 113.711C52.8553 113.406 53.231 113.198 53.688 113.086C54.1449 112.964 54.6781 112.903 55.2874 112.903C55.8966 112.903 56.4298 112.964 56.8867 113.086C57.3437 113.208 57.7194 113.421 58.0139 113.726C58.3084 114.03 58.5268 114.457 58.6689 115.005C58.8111 115.544 58.8822 116.234 58.8822 117.077C58.8822 117.91 58.8111 118.6 58.6689 119.149C58.5268 119.687 58.3084 120.108 58.0139 120.413C57.7296 120.717 57.3589 120.936 56.902 121.068C56.445 121.19 55.9068 121.251 55.2874 121.251ZM55.2874 120.002C55.6225 120.002 55.917 119.971 56.1708 119.91C56.4349 119.849 56.6532 119.722 56.8258 119.529C56.9985 119.326 57.1305 119.027 57.2219 118.631C57.3133 118.235 57.3589 117.712 57.3589 117.062C57.3589 116.412 57.3133 115.894 57.2219 115.508C57.1305 115.112 56.9985 114.817 56.8258 114.625C56.6532 114.432 56.4349 114.305 56.1708 114.244C55.917 114.173 55.6225 114.137 55.2874 114.137C54.9421 114.137 54.6374 114.173 54.3734 114.244C54.1195 114.305 53.9063 114.432 53.7337 114.625C53.5712 114.817 53.4442 115.112 53.3528 115.508C53.2716 115.894 53.231 116.412 53.231 117.062C53.231 117.712 53.2716 118.235 53.3528 118.631C53.4442 119.027 53.5712 119.326 53.7337 119.529C53.9063 119.722 54.1195 119.849 54.3734 119.91C54.6374 119.971 54.9421 120.002 55.2874 120.002ZM60.7431 121.159V113.01H61.9617L62.2664 113.893C62.6624 113.619 63.0991 113.381 63.5764 113.177C64.0536 112.974 64.602 112.873 65.2215 112.873C65.7292 112.873 66.1608 112.984 66.5162 113.208C66.8716 113.431 67.1407 113.716 67.3235 114.061C67.5672 113.878 67.8617 113.695 68.207 113.513C68.5523 113.33 68.9229 113.177 69.319 113.056C69.715 112.934 70.0958 112.873 70.4614 112.873C71.0707 112.873 71.5632 113 71.9389 113.254C72.3248 113.497 72.599 113.837 72.7615 114.274C72.9341 114.701 73.0204 115.188 73.0204 115.736V121.159H71.4972V115.858C71.4972 115.533 71.4312 115.254 71.2992 115.021C71.1773 114.777 70.9996 114.589 70.766 114.457C70.5426 114.325 70.2684 114.259 69.9435 114.259C69.5373 114.259 69.1209 114.34 68.6944 114.503C68.2679 114.655 67.877 114.843 67.5215 115.066C67.5622 115.198 67.5926 115.335 67.6129 115.478C67.6332 115.61 67.6434 115.742 67.6434 115.874V121.159H66.1202V115.858C66.1202 115.533 66.0542 115.254 65.9221 115.021C65.8003 114.777 65.6277 114.589 65.4042 114.457C65.1808 114.325 64.9067 114.259 64.5817 114.259C64.2771 114.259 63.9927 114.289 63.7287 114.35C63.4748 114.411 63.2311 114.498 62.9975 114.609C62.764 114.711 62.5203 114.838 62.2664 114.99V121.159H60.7431ZM75.1127 124.769V113.01H76.3618L76.636 113.832C76.8289 113.69 77.0574 113.548 77.3214 113.406C77.5956 113.264 77.8901 113.147 78.2049 113.056C78.5298 112.954 78.8548 112.903 79.1798 112.903C79.6977 112.903 80.1394 113.01 80.505 113.223C80.8807 113.436 81.1854 113.736 81.4189 114.122C81.6525 114.498 81.82 114.939 81.9216 115.447C82.0333 115.955 82.0891 116.498 82.0891 117.077C82.0891 117.981 81.9876 118.747 81.7845 119.377C81.5915 119.996 81.2818 120.469 80.8553 120.794C80.439 121.108 79.8804 121.266 79.1798 121.266C78.7533 121.266 78.3166 121.205 77.8698 121.083C77.423 120.951 77.0117 120.778 76.636 120.565V124.769H75.1127ZM78.7228 119.986C79.0681 119.986 79.3778 119.9 79.652 119.727C79.9261 119.555 80.1445 119.26 80.307 118.844C80.4796 118.417 80.5659 117.828 80.5659 117.077C80.5659 116.366 80.4796 115.797 80.307 115.371C80.1343 114.934 79.9109 114.625 79.6367 114.442C79.3625 114.249 79.063 114.152 78.738 114.152C78.3115 114.152 77.9206 114.218 77.5651 114.35C77.2199 114.482 76.9101 114.619 76.636 114.762V119.407C76.9508 119.58 77.2859 119.722 77.6413 119.834C78.0069 119.936 78.3674 119.986 78.7228 119.986ZM86.2183 121.174C85.7207 121.174 85.2993 121.088 84.954 120.915C84.6189 120.743 84.365 120.469 84.1924 120.093C84.0299 119.707 83.9487 119.189 83.9487 118.539V109.537H85.4719V118.341C85.4719 118.768 85.5125 119.098 85.5938 119.331C85.6852 119.555 85.807 119.712 85.9593 119.804C86.1218 119.895 86.3097 119.956 86.5229 119.986L87.2846 120.078V121.174H86.2183ZM91.7294 121.251C90.8663 121.251 90.1757 121.124 89.6578 120.87C89.1501 120.616 88.7845 120.189 88.5611 119.59C88.3478 118.981 88.2412 118.143 88.2412 117.077C88.2412 115.99 88.3478 115.147 88.5611 114.548C88.7845 113.939 89.1501 113.513 89.6578 113.269C90.1656 113.025 90.851 112.903 91.7142 112.903C92.4657 112.903 93.0699 112.984 93.5268 113.147C93.994 113.299 94.3342 113.579 94.5474 113.985C94.7708 114.381 94.8825 114.934 94.8825 115.645C94.8825 116.143 94.781 116.539 94.5779 116.833C94.3849 117.128 94.1057 117.341 93.7401 117.473C93.3847 117.605 92.9582 117.671 92.4606 117.671H89.7645C89.7746 118.26 89.8406 118.732 89.9625 119.088C90.0945 119.433 90.323 119.687 90.6479 119.849C90.983 120.002 91.4705 120.078 92.1102 120.078H94.654V120.992C94.2174 121.053 93.7706 121.108 93.3136 121.159C92.8566 121.22 92.3286 121.251 91.7294 121.251ZM89.7492 116.711H92.3235C92.7297 116.711 93.0293 116.635 93.2222 116.483C93.4151 116.331 93.5116 116.051 93.5116 115.645C93.5116 115.239 93.4507 114.919 93.3288 114.685C93.2171 114.452 93.0293 114.284 92.7652 114.183C92.5012 114.081 92.1509 114.03 91.7142 114.03C91.2166 114.03 90.8206 114.107 90.5261 114.259C90.2417 114.411 90.0386 114.68 89.9168 115.066C89.8051 115.452 89.7492 116 89.7492 116.711ZM96.7415 121.159V113.01H97.96L98.2647 113.893C98.6607 113.619 99.0974 113.381 99.5747 113.177C100.052 112.974 100.6 112.873 101.22 112.873C101.728 112.873 102.159 112.984 102.515 113.208C102.87 113.431 103.139 113.716 103.322 114.061C103.566 113.878 103.86 113.695 104.205 113.513C104.551 113.33 104.921 113.177 105.317 113.056C105.713 112.934 106.094 112.873 106.46 112.873C107.069 112.873 107.562 113 107.937 113.254C108.323 113.497 108.597 113.837 108.76 114.274C108.932 114.701 109.019 115.188 109.019 115.736V121.159H107.495V115.858C107.495 115.533 107.429 115.254 107.297 115.021C107.176 114.777 106.998 114.589 106.764 114.457C106.541 114.325 106.267 114.259 105.942 114.259C105.536 114.259 105.119 114.34 104.693 114.503C104.266 114.655 103.875 114.843 103.52 115.066C103.56 115.198 103.591 115.335 103.611 115.478C103.632 115.61 103.642 115.742 103.642 115.874V121.159H102.118V115.858C102.118 115.533 102.052 115.254 101.92 115.021C101.799 114.777 101.626 114.589 101.403 114.457C101.179 114.325 100.905 114.259 100.58 114.259C100.275 114.259 99.991 114.289 99.727 114.35C99.4731 114.411 99.2294 114.498 98.9958 114.609C98.7623 114.711 98.5186 114.838 98.2647 114.99V121.159H96.7415ZM114.325 121.251C113.462 121.251 112.771 121.124 112.253 120.87C111.746 120.616 111.38 120.189 111.157 119.59C110.943 118.981 110.837 118.143 110.837 117.077C110.837 115.99 110.943 115.147 111.157 114.548C111.38 113.939 111.746 113.513 112.253 113.269C112.761 113.025 113.447 112.903 114.31 112.903C115.061 112.903 115.666 112.984 116.122 113.147C116.59 113.299 116.93 113.579 117.143 113.985C117.366 114.381 117.478 114.934 117.478 115.645C117.478 116.143 117.377 116.539 117.174 116.833C116.981 117.128 116.701 117.341 116.336 117.473C115.98 117.605 115.554 117.671 115.056 117.671H112.36C112.37 118.26 112.436 118.732 112.558 119.088C112.69 119.433 112.919 119.687 113.244 119.849C113.579 120.002 114.066 120.078 114.706 120.078H117.25V120.992C116.813 121.053 116.366 121.108 115.909 121.159C115.452 121.22 114.924 121.251 114.325 121.251ZM112.345 116.711H114.919C115.325 116.711 115.625 116.635 115.818 116.483C116.011 116.331 116.107 116.051 116.107 115.645C116.107 115.239 116.046 114.919 115.924 114.685C115.813 114.452 115.625 114.284 115.361 114.183C115.097 114.081 114.746 114.03 114.31 114.03C113.812 114.03 113.416 114.107 113.122 114.259C112.837 114.411 112.634 114.68 112.512 115.066C112.401 115.452 112.345 116 112.345 116.711ZM119.337 121.159V113.01H120.556L120.86 113.893C121.226 113.629 121.657 113.396 122.155 113.193C122.663 112.979 123.186 112.873 123.724 112.873C124.333 112.873 124.821 113.005 125.186 113.269C125.562 113.523 125.831 113.863 125.994 114.289C126.156 114.716 126.237 115.178 126.237 115.676V121.159H124.714V115.858C124.714 115.533 124.648 115.254 124.516 115.021C124.394 114.777 124.222 114.589 123.998 114.457C123.775 114.325 123.501 114.259 123.176 114.259C122.871 114.259 122.587 114.289 122.323 114.35C122.069 114.411 121.825 114.498 121.591 114.609C121.358 114.711 121.114 114.838 120.86 114.99V121.159H119.337ZM131.14 121.159C130.591 121.159 130.134 121.073 129.769 120.9C129.413 120.717 129.149 120.428 128.977 120.032C128.814 119.636 128.738 119.108 128.748 118.448L128.809 114.259H127.514V113.269L128.84 113.01L129.068 110.725H130.272V113.01H132.48V114.259H130.272V118.433C130.272 118.747 130.302 119.001 130.363 119.194C130.424 119.387 130.51 119.534 130.622 119.636C130.734 119.737 130.855 119.814 130.987 119.864C131.119 119.905 131.246 119.93 131.368 119.941L132.374 120.032V121.159H131.14ZM135.649 121.251C135.05 121.251 134.552 121.073 134.156 120.717C133.77 120.352 133.577 119.849 133.577 119.209V118.57C133.577 117.94 133.791 117.427 134.217 117.031C134.654 116.625 135.309 116.422 136.182 116.422H138.726V115.569C138.726 115.254 138.67 114.99 138.558 114.777C138.457 114.553 138.264 114.386 137.979 114.274C137.695 114.162 137.274 114.107 136.715 114.107H134.217V113.208C134.583 113.127 135.009 113.056 135.497 112.995C135.994 112.934 136.573 112.898 137.233 112.888C137.903 112.888 138.462 112.974 138.909 113.147C139.366 113.309 139.706 113.584 139.929 113.97C140.153 114.345 140.264 114.848 140.264 115.478V121.159H139.061L138.802 120.26C138.741 120.301 138.614 120.377 138.421 120.489C138.228 120.591 137.979 120.702 137.675 120.824C137.38 120.946 137.055 121.047 136.7 121.129C136.355 121.21 136.004 121.251 135.649 121.251ZM136.35 120.139C136.502 120.149 136.68 120.134 136.883 120.093C137.096 120.052 137.304 120.007 137.507 119.956C137.721 119.895 137.913 119.834 138.086 119.773C138.269 119.712 138.416 119.661 138.528 119.621C138.65 119.57 138.716 119.539 138.726 119.529V117.184L136.593 117.275C136.065 117.305 135.684 117.437 135.451 117.671C135.227 117.905 135.116 118.209 135.116 118.585V118.95C135.116 119.245 135.177 119.484 135.299 119.666C135.42 119.839 135.573 119.961 135.756 120.032C135.948 120.103 136.147 120.139 136.35 120.139ZM142.334 121.159V113.01H143.507L143.858 114.381C144.203 113.964 144.589 113.614 145.015 113.33C145.442 113.045 145.939 112.903 146.508 112.903C146.64 112.903 146.767 112.913 146.889 112.934C147.011 112.944 147.127 112.964 147.239 112.995V114.564C147.097 114.543 146.95 114.528 146.797 114.518C146.645 114.498 146.488 114.487 146.325 114.487C145.98 114.487 145.67 114.528 145.396 114.609C145.122 114.691 144.858 114.817 144.604 114.99C144.36 115.153 144.111 115.356 143.858 115.599V121.159H142.334ZM150.971 124.769L151.961 121.159C151.636 121.149 151.327 121.083 151.032 120.961C150.738 120.829 150.474 120.621 150.24 120.337C150.017 120.042 149.834 119.651 149.692 119.164L147.864 113.01H149.463L151.108 118.844C151.2 119.118 151.301 119.326 151.413 119.468C151.535 119.611 151.652 119.712 151.763 119.773C151.885 119.824 151.992 119.854 152.083 119.864C152.175 119.875 152.231 119.88 152.251 119.88L154.155 113.01H155.724L152.921 123.261L152.19 124.769H150.971ZM165.281 121.251C164.55 121.251 163.905 121.179 163.347 121.037C162.798 120.895 162.336 120.631 161.96 120.245C161.595 119.859 161.321 119.291 161.138 118.539C160.955 117.788 160.864 116.803 160.864 115.584C160.864 114.366 160.955 113.381 161.138 112.629C161.321 111.867 161.6 111.289 161.976 110.893C162.351 110.486 162.813 110.212 163.362 110.07C163.91 109.918 164.55 109.842 165.281 109.842C166.033 109.842 166.682 109.918 167.231 110.07C167.789 110.212 168.251 110.486 168.617 110.893C168.983 111.289 169.257 111.867 169.439 112.629C169.622 113.381 169.714 114.366 169.714 115.584C169.714 116.803 169.622 117.788 169.439 118.539C169.257 119.291 168.977 119.859 168.602 120.245C168.236 120.631 167.774 120.895 167.216 121.037C166.667 121.179 166.022 121.251 165.281 121.251ZM165.281 119.88C165.809 119.88 166.256 119.824 166.622 119.712C166.997 119.6 167.297 119.397 167.52 119.103C167.754 118.798 167.921 118.367 168.023 117.808C168.124 117.239 168.175 116.498 168.175 115.584C168.175 114.619 168.119 113.848 168.008 113.269C167.906 112.69 167.744 112.253 167.52 111.959C167.297 111.664 166.997 111.466 166.622 111.365C166.256 111.263 165.809 111.212 165.281 111.212C164.783 111.212 164.352 111.263 163.986 111.365C163.621 111.466 163.321 111.664 163.088 111.959C162.854 112.253 162.676 112.69 162.554 113.269C162.443 113.848 162.387 114.619 162.387 115.584C162.387 116.498 162.433 117.239 162.524 117.808C162.626 118.367 162.788 118.798 163.011 119.103C163.245 119.397 163.545 119.6 163.91 119.712C164.286 119.824 164.743 119.88 165.281 119.88ZM171.609 121.159V113.01H172.828L173.132 113.893C173.498 113.629 173.929 113.396 174.427 113.193C174.935 112.979 175.458 112.873 175.996 112.873C176.605 112.873 177.093 113.005 177.458 113.269C177.834 113.523 178.103 113.863 178.266 114.289C178.428 114.716 178.509 115.178 178.509 115.676V121.159H176.986V115.858C176.986 115.533 176.92 115.254 176.788 115.021C176.666 114.777 176.494 114.589 176.27 114.457C176.047 114.325 175.773 114.259 175.448 114.259C175.143 114.259 174.859 114.289 174.595 114.35C174.341 114.411 174.097 114.498 173.863 114.609C173.63 114.711 173.386 114.838 173.132 114.99V121.159H171.609ZM184.737 121.251C184.361 121.251 184.011 121.205 183.686 121.113C183.371 121.022 183.082 120.91 182.818 120.778C182.564 120.636 182.33 120.494 182.117 120.352L181.843 121.159H180.594V109.537H182.117V113.695C182.493 113.492 182.909 113.309 183.366 113.147C183.833 112.984 184.265 112.903 184.661 112.903C185.331 112.903 185.879 113.045 186.306 113.33C186.732 113.604 187.047 114.051 187.25 114.67C187.464 115.29 187.57 116.117 187.57 117.153C187.57 118.016 187.474 118.758 187.281 119.377C187.088 119.986 186.783 120.453 186.367 120.778C185.95 121.093 185.407 121.251 184.737 121.251ZM184.204 119.986C184.6 119.986 184.93 119.89 185.194 119.697C185.468 119.494 185.676 119.179 185.818 118.752C185.971 118.316 186.047 117.757 186.047 117.077C186.047 116.244 185.966 115.62 185.803 115.203C185.641 114.787 185.422 114.508 185.148 114.366C184.874 114.223 184.559 114.152 184.204 114.152C183.798 114.152 183.427 114.213 183.092 114.335C182.767 114.447 182.442 114.589 182.117 114.762V119.407C182.391 119.55 182.701 119.682 183.046 119.804C183.391 119.925 183.777 119.986 184.204 119.986ZM192.75 121.251C192.131 121.251 191.593 121.185 191.136 121.053C190.689 120.921 190.318 120.702 190.024 120.398C189.729 120.083 189.511 119.656 189.369 119.118C189.227 118.58 189.156 117.899 189.156 117.077C189.156 116.224 189.227 115.528 189.369 114.99C189.511 114.442 189.729 114.015 190.024 113.711C190.318 113.406 190.694 113.198 191.151 113.086C191.608 112.964 192.141 112.903 192.75 112.903C193.36 112.903 193.893 112.964 194.35 113.086C194.807 113.208 195.182 113.421 195.477 113.726C195.771 114.03 195.99 114.457 196.132 115.005C196.274 115.544 196.345 116.234 196.345 117.077C196.345 117.91 196.274 118.6 196.132 119.149C195.99 119.687 195.771 120.108 195.477 120.413C195.193 120.717 194.822 120.936 194.365 121.068C193.908 121.19 193.37 121.251 192.75 121.251ZM192.75 120.002C193.085 120.002 193.38 119.971 193.634 119.91C193.898 119.849 194.116 119.722 194.289 119.529C194.461 119.326 194.593 119.027 194.685 118.631C194.776 118.235 194.822 117.712 194.822 117.062C194.822 116.412 194.776 115.894 194.685 115.508C194.593 115.112 194.461 114.817 194.289 114.625C194.116 114.432 193.898 114.305 193.634 114.244C193.38 114.173 193.085 114.137 192.75 114.137C192.405 114.137 192.1 114.173 191.836 114.244C191.583 114.305 191.369 114.432 191.197 114.625C191.034 114.817 190.907 115.112 190.816 115.508C190.735 115.894 190.694 116.412 190.694 117.062C190.694 117.712 190.735 118.235 190.816 118.631C190.907 119.027 191.034 119.326 191.197 119.529C191.369 119.722 191.583 119.849 191.836 119.91C192.1 119.971 192.405 120.002 192.75 120.002ZM199.836 121.251C199.237 121.251 198.739 121.073 198.343 120.717C197.957 120.352 197.764 119.849 197.764 119.209V118.57C197.764 117.94 197.978 117.427 198.404 117.031C198.841 116.625 199.496 116.422 200.369 116.422H202.913V115.569C202.913 115.254 202.857 114.99 202.745 114.777C202.644 114.553 202.451 114.386 202.167 114.274C201.882 114.162 201.461 114.107 200.902 114.107H198.404V113.208C198.77 113.127 199.196 113.056 199.684 112.995C200.181 112.934 200.76 112.898 201.42 112.888C202.09 112.888 202.649 112.974 203.096 113.147C203.553 113.309 203.893 113.584 204.116 113.97C204.34 114.345 204.451 114.848 204.451 115.478V121.159H203.248L202.989 120.26C202.928 120.301 202.801 120.377 202.608 120.489C202.415 120.591 202.167 120.702 201.862 120.824C201.567 120.946 201.242 121.047 200.887 121.129C200.542 121.21 200.191 121.251 199.836 121.251ZM200.537 120.139C200.689 120.149 200.867 120.134 201.07 120.093C201.283 120.052 201.491 120.007 201.694 119.956C201.908 119.895 202.101 119.834 202.273 119.773C202.456 119.712 202.603 119.661 202.715 119.621C202.837 119.57 202.903 119.539 202.913 119.529V117.184L200.78 117.275C200.252 117.305 199.872 117.437 199.638 117.671C199.415 117.905 199.303 118.209 199.303 118.585V118.95C199.303 119.245 199.364 119.484 199.486 119.666C199.608 119.839 199.76 119.961 199.943 120.032C200.136 120.103 200.334 120.139 200.537 120.139ZM206.521 121.159V113.01H207.694L208.045 114.381C208.39 113.964 208.776 113.614 209.202 113.33C209.629 113.045 210.126 112.903 210.695 112.903C210.827 112.903 210.954 112.913 211.076 112.934C211.198 112.944 211.315 112.964 211.426 112.995V114.564C211.284 114.543 211.137 114.528 210.985 114.518C210.832 114.498 210.675 114.487 210.512 114.487C210.167 114.487 209.857 114.528 209.583 114.609C209.309 114.691 209.045 114.817 208.791 114.99C208.547 115.153 208.299 115.356 208.045 115.599V121.159H206.521ZM215.509 121.251C214.849 121.251 214.3 121.108 213.864 120.824C213.437 120.54 213.117 120.098 212.904 119.499C212.691 118.89 212.584 118.108 212.584 117.153C212.584 116.148 212.681 115.335 212.874 114.716C213.077 114.086 213.402 113.629 213.848 113.345C214.295 113.05 214.899 112.903 215.661 112.903C216.088 112.903 216.509 112.949 216.925 113.04C217.352 113.132 217.723 113.233 218.037 113.345V109.537H219.561V121.159H218.312L218.037 120.352C217.875 120.494 217.651 120.636 217.367 120.778C217.083 120.91 216.778 121.022 216.453 121.113C216.128 121.205 215.813 121.251 215.509 121.251ZM215.996 120.002C216.413 120.002 216.788 119.936 217.123 119.804C217.469 119.671 217.773 119.534 218.037 119.392V114.442C217.723 114.35 217.413 114.269 217.108 114.198C216.814 114.117 216.484 114.076 216.118 114.076C215.641 114.076 215.255 114.162 214.96 114.335C214.666 114.508 214.453 114.812 214.321 115.249C214.189 115.686 214.123 116.295 214.123 117.077C214.123 117.798 214.184 118.377 214.305 118.813C214.427 119.24 214.625 119.545 214.899 119.727C215.184 119.91 215.549 120.002 215.996 120.002ZM221.863 111.639C221.68 111.639 221.589 111.553 221.589 111.38V110.1C221.589 109.918 221.68 109.826 221.863 109.826H222.99C223.071 109.826 223.132 109.852 223.173 109.902C223.214 109.953 223.234 110.019 223.234 110.1V111.38C223.234 111.553 223.153 111.639 222.99 111.639H221.863ZM221.65 121.159V113.01H223.173V121.159H221.65ZM225.309 121.159V113.01H226.528L226.832 113.893C227.198 113.629 227.629 113.396 228.127 113.193C228.635 112.979 229.158 112.873 229.696 112.873C230.305 112.873 230.793 113.005 231.158 113.269C231.534 113.523 231.803 113.863 231.966 114.289C232.128 114.716 232.209 115.178 232.209 115.676V121.159H230.686V115.858C230.686 115.533 230.62 115.254 230.488 115.021C230.366 114.777 230.194 114.589 229.97 114.457C229.747 114.325 229.473 114.259 229.148 114.259C228.843 114.259 228.559 114.289 228.295 114.35C228.041 114.411 227.797 114.498 227.563 114.609C227.33 114.711 227.086 114.838 226.832 114.99V121.159H225.309ZM236.32 124.906C235.802 124.906 235.34 124.83 234.933 124.678C234.537 124.536 234.223 124.312 233.989 124.008C233.755 123.713 233.639 123.348 233.639 122.911V122.576C233.639 122.119 233.766 121.733 234.02 121.418C234.284 121.113 234.614 120.88 235.01 120.717C235.406 120.555 235.817 120.474 236.243 120.474L236.655 121.037C236.381 121.037 236.122 121.078 235.878 121.159C235.644 121.251 235.451 121.388 235.299 121.57C235.157 121.763 235.086 122.007 235.086 122.302V122.591C235.086 123.018 235.228 123.327 235.512 123.52C235.807 123.713 236.208 123.81 236.716 123.81H238.498C239.036 123.81 239.463 123.703 239.777 123.49C240.092 123.287 240.25 122.967 240.25 122.53V122.241C240.25 121.997 240.194 121.784 240.082 121.601C239.98 121.418 239.813 121.276 239.579 121.174C239.346 121.083 239.026 121.037 238.62 121.037H236.365C235.644 121.037 235.096 120.89 234.72 120.596C234.344 120.301 234.157 119.93 234.157 119.484C234.157 119.077 234.273 118.752 234.507 118.509C234.751 118.255 235.091 118.082 235.528 117.991C235.162 117.828 234.873 117.62 234.659 117.366C234.456 117.112 234.314 116.838 234.233 116.544C234.152 116.239 234.111 115.934 234.111 115.63C234.111 115.01 234.238 114.508 234.492 114.122C234.746 113.736 235.111 113.452 235.588 113.269C236.076 113.086 236.655 112.995 237.325 112.995H241.712V113.863L240.052 114.03C240.173 114.122 240.305 114.244 240.448 114.396C240.59 114.538 240.712 114.736 240.813 114.99C240.915 115.244 240.965 115.579 240.965 115.995C240.965 116.432 240.869 116.838 240.676 117.214C240.493 117.59 240.189 117.894 239.762 118.128C239.346 118.362 238.777 118.478 238.056 118.478H236.716C236.33 118.478 236.025 118.534 235.802 118.646C235.578 118.758 235.467 118.956 235.467 119.24C235.467 119.473 235.553 119.636 235.726 119.727C235.898 119.819 236.081 119.864 236.274 119.864H238.848C239.468 119.864 239.986 119.946 240.402 120.108C240.828 120.271 241.148 120.519 241.362 120.855C241.575 121.19 241.681 121.626 241.681 122.165V122.454C241.681 123.226 241.428 123.825 240.92 124.251C240.422 124.688 239.666 124.906 238.65 124.906H236.32ZM236.99 117.305H237.889C238.346 117.305 238.691 117.239 238.924 117.107C239.168 116.965 239.336 116.782 239.427 116.559C239.518 116.336 239.564 116.087 239.564 115.813C239.564 115.406 239.498 115.087 239.366 114.853C239.234 114.609 239.051 114.437 238.818 114.335C238.594 114.223 238.32 114.168 237.995 114.168H237.142C236.624 114.168 236.218 114.284 235.924 114.518C235.639 114.751 235.497 115.153 235.497 115.721C235.497 116.28 235.629 116.686 235.893 116.94C236.157 117.184 236.523 117.305 236.99 117.305ZM247.192 121.159V112.279C247.192 111.832 247.258 111.456 247.39 111.152C247.532 110.847 247.715 110.608 247.938 110.436C248.161 110.253 248.41 110.126 248.684 110.055C248.969 109.974 249.248 109.933 249.522 109.933C249.939 109.943 250.411 109.953 250.939 109.963C251.467 109.963 252.015 109.974 252.584 109.994C253.163 110.014 253.721 110.05 254.259 110.1V111.35H249.903C249.527 111.35 249.238 111.451 249.035 111.654C248.832 111.857 248.73 112.152 248.73 112.538V115.142L253.574 115.234V116.422L248.73 116.513V121.159H247.192ZM258.69 121.251C257.827 121.251 257.137 121.124 256.619 120.87C256.111 120.616 255.745 120.189 255.522 119.59C255.309 118.981 255.202 118.143 255.202 117.077C255.202 115.99 255.309 115.147 255.522 114.548C255.745 113.939 256.111 113.513 256.619 113.269C257.126 113.025 257.812 112.903 258.675 112.903C259.426 112.903 260.031 112.984 260.488 113.147C260.955 113.299 261.295 113.579 261.508 113.985C261.732 114.381 261.843 114.934 261.843 115.645C261.843 116.143 261.742 116.539 261.539 116.833C261.346 117.128 261.066 117.341 260.701 117.473C260.345 117.605 259.919 117.671 259.421 117.671H256.725C256.735 118.26 256.801 118.732 256.923 119.088C257.055 119.433 257.284 119.687 257.609 119.849C257.944 120.002 258.431 120.078 259.071 120.078H261.615V120.992C261.178 121.053 260.731 121.108 260.274 121.159C259.817 121.22 259.289 121.251 258.69 121.251ZM256.71 116.711H259.284C259.69 116.711 259.99 116.635 260.183 116.483C260.376 116.331 260.472 116.051 260.472 115.645C260.472 115.239 260.411 114.919 260.29 114.685C260.178 114.452 259.99 114.284 259.726 114.183C259.462 114.081 259.112 114.03 258.675 114.03C258.177 114.03 257.781 114.107 257.487 114.259C257.203 114.411 256.999 114.68 256.878 115.066C256.766 115.452 256.71 116 256.71 116.711ZM266.916 121.251C266.053 121.251 265.363 121.124 264.845 120.87C264.337 120.616 263.971 120.189 263.748 119.59C263.535 118.981 263.428 118.143 263.428 117.077C263.428 115.99 263.535 115.147 263.748 114.548C263.971 113.939 264.337 113.513 264.845 113.269C265.352 113.025 266.038 112.903 266.901 112.903C267.652 112.903 268.257 112.984 268.714 113.147C269.181 113.299 269.521 113.579 269.734 113.985C269.958 114.381 270.069 114.934 270.069 115.645C270.069 116.143 269.968 116.539 269.765 116.833C269.572 117.128 269.293 117.341 268.927 117.473C268.572 117.605 268.145 117.671 267.647 117.671H264.951C264.961 118.26 265.027 118.732 265.149 119.088C265.281 119.433 265.51 119.687 265.835 119.849C266.17 120.002 266.657 120.078 267.297 120.078H269.841V120.992C269.404 121.053 268.957 121.108 268.5 121.159C268.043 121.22 267.515 121.251 266.916 121.251ZM264.936 116.711H267.51C267.917 116.711 268.216 116.635 268.409 116.483C268.602 116.331 268.698 116.051 268.698 115.645C268.698 115.239 268.638 114.919 268.516 114.685C268.404 114.452 268.216 114.284 267.952 114.183C267.688 114.081 267.338 114.03 266.901 114.03C266.403 114.03 266.007 114.107 265.713 114.259C265.429 114.411 265.225 114.68 265.104 115.066C264.992 115.452 264.936 116 264.936 116.711ZM99.5959 143.159L97.4938 139.046C97.2805 139.046 97.0267 139.046 96.7322 139.046C96.4377 139.036 96.1381 139.026 95.8335 139.016C95.5288 139.006 95.2546 138.996 95.0109 138.986V137.736H97.7832C98.0066 137.736 98.2199 137.706 98.423 137.645C98.6362 137.584 98.819 137.472 98.9713 137.31C99.1338 137.147 99.2607 136.919 99.3521 136.625C99.4537 136.32 99.5045 135.934 99.5045 135.467C99.5045 134.868 99.4334 134.416 99.2912 134.111C99.149 133.807 98.9612 133.598 98.7276 133.487C98.4941 133.365 98.2351 133.304 97.9508 133.304H95.0109V131.933H98.0269C98.3722 131.933 98.7175 131.984 99.0627 132.085C99.4181 132.177 99.7431 132.349 100.038 132.603C100.342 132.847 100.586 133.202 100.769 133.669C100.952 134.126 101.043 134.726 101.043 135.467C101.043 136.107 100.982 136.64 100.86 137.066C100.738 137.483 100.576 137.813 100.373 138.056C100.18 138.3 99.9665 138.488 99.7329 138.62C99.4994 138.742 99.2658 138.833 99.0323 138.894L101.241 143.159H99.5959ZM95.0109 135.909V135.086H102.977V135.909H95.0109ZM97.4481 132.755V131.933H102.977V132.755H97.4481ZM108.278 143.159V141.925L112.3 138.011C112.686 137.645 112.995 137.305 113.229 136.99C113.462 136.675 113.63 136.36 113.731 136.046C113.843 135.721 113.899 135.37 113.899 134.995C113.899 134.66 113.833 134.365 113.701 134.111C113.579 133.847 113.361 133.644 113.046 133.502C112.731 133.36 112.284 133.289 111.706 133.289H108.629V132.1C109.096 132.04 109.614 131.984 110.182 131.933C110.761 131.872 111.376 131.842 112.025 131.842C112.889 131.842 113.564 131.963 114.051 132.207C114.549 132.441 114.899 132.781 115.102 133.228C115.316 133.664 115.422 134.182 115.422 134.781C115.422 135.299 115.351 135.777 115.209 136.213C115.077 136.64 114.869 137.056 114.584 137.462C114.3 137.858 113.935 138.275 113.488 138.711L110.335 141.758H115.818V143.159H108.278ZM117.933 144.408C117.801 144.408 117.684 144.393 117.583 144.363C117.491 144.342 117.445 144.332 117.445 144.332V143.86C117.567 143.86 117.654 143.84 117.704 143.799C117.765 143.758 117.796 143.687 117.796 143.586V143.068H117.659C117.588 143.068 117.527 143.042 117.476 142.992C117.425 142.941 117.4 142.87 117.4 142.778V141.621C117.4 141.418 117.486 141.316 117.659 141.316H118.512C118.613 141.316 118.679 141.347 118.71 141.407C118.75 141.458 118.771 141.529 118.771 141.621V143.54C118.771 143.784 118.725 143.966 118.634 144.088C118.552 144.22 118.446 144.307 118.314 144.347C118.182 144.388 118.055 144.408 117.933 144.408ZM123.937 143.235C123.48 143.235 122.998 143.215 122.49 143.174C121.983 143.144 121.526 143.103 121.119 143.053V141.849H123.846C124.689 141.849 125.334 141.55 125.78 140.95C126.227 140.341 126.451 139.422 126.451 138.193C126.177 138.244 125.867 138.285 125.522 138.315C125.186 138.346 124.846 138.366 124.501 138.376C124.156 138.386 123.831 138.391 123.526 138.391C122.836 138.391 122.262 138.305 121.805 138.133C121.348 137.96 121.008 137.696 120.784 137.34C120.561 136.985 120.449 136.528 120.449 135.97V134.37C120.449 133.761 120.566 133.273 120.8 132.908C121.033 132.542 121.348 132.278 121.744 132.116C122.15 131.953 122.602 131.872 123.1 131.872H124.806C125.303 131.872 125.75 131.958 126.146 132.131C126.542 132.293 126.872 132.583 127.136 132.999C127.41 133.405 127.619 133.974 127.761 134.705C127.913 135.436 127.989 136.36 127.989 137.478C127.989 138.513 127.898 139.397 127.715 140.128C127.532 140.859 127.263 141.458 126.908 141.925C126.562 142.382 126.141 142.717 125.643 142.931C125.146 143.134 124.577 143.235 123.937 143.235ZM123.907 137.081H126.451C126.451 136.32 126.41 135.69 126.329 135.193C126.248 134.685 126.126 134.294 125.963 134.02C125.801 133.735 125.598 133.537 125.354 133.426C125.12 133.304 124.846 133.243 124.531 133.243H123.419C123.145 133.243 122.897 133.284 122.673 133.365C122.46 133.446 122.287 133.588 122.155 133.791C122.033 133.994 121.972 134.279 121.972 134.644V135.695C121.972 136.081 122.049 136.371 122.201 136.564C122.353 136.757 122.572 136.894 122.856 136.975C123.15 137.046 123.501 137.081 123.907 137.081ZM133.353 143.235C132.897 143.235 132.414 143.215 131.906 143.174C131.399 143.144 130.942 143.103 130.535 143.053V141.849H133.262C134.105 141.849 134.75 141.55 135.197 140.95C135.643 140.341 135.867 139.422 135.867 138.193C135.593 138.244 135.283 138.285 134.938 138.315C134.603 138.346 134.262 138.366 133.917 138.376C133.572 138.386 133.247 138.391 132.942 138.391C132.252 138.391 131.678 138.305 131.221 138.133C130.764 137.96 130.424 137.696 130.2 137.34C129.977 136.985 129.865 136.528 129.865 135.97V134.37C129.865 133.761 129.982 133.273 130.216 132.908C130.449 132.542 130.764 132.278 131.16 132.116C131.566 131.953 132.018 131.872 132.516 131.872H134.222C134.719 131.872 135.166 131.958 135.562 132.131C135.958 132.293 136.288 132.583 136.552 132.999C136.826 133.405 137.035 133.974 137.177 134.705C137.329 135.436 137.405 136.36 137.405 137.478C137.405 138.513 137.314 139.397 137.131 140.128C136.948 140.859 136.679 141.458 136.324 141.925C135.979 142.382 135.557 142.717 135.059 142.931C134.562 143.134 133.993 143.235 133.353 143.235ZM133.323 137.081H135.867C135.867 136.32 135.826 135.69 135.745 135.193C135.664 134.685 135.542 134.294 135.379 134.02C135.217 133.735 135.014 133.537 134.77 133.426C134.537 133.304 134.262 133.243 133.948 133.243H132.836C132.561 133.243 132.313 133.284 132.089 133.365C131.876 133.446 131.703 133.588 131.571 133.791C131.449 133.994 131.388 134.279 131.388 134.644V135.695C131.388 136.081 131.465 136.371 131.617 136.564C131.769 136.757 131.988 136.894 132.272 136.975C132.566 137.046 132.917 137.081 133.323 137.081ZM139.814 144.408C139.682 144.408 139.566 144.393 139.464 144.363C139.373 144.342 139.327 144.332 139.327 144.332V143.86C139.449 143.86 139.535 143.84 139.586 143.799C139.647 143.758 139.677 143.687 139.677 143.586V143.068H139.54C139.469 143.068 139.408 143.042 139.358 142.992C139.307 142.941 139.281 142.87 139.281 142.778V141.621C139.281 141.418 139.368 141.316 139.54 141.316H140.393C140.495 141.316 140.561 141.347 140.591 141.407C140.632 141.458 140.652 141.529 140.652 141.621V143.54C140.652 143.784 140.607 143.966 140.515 144.088C140.434 144.22 140.327 144.307 140.195 144.347C140.063 144.388 139.936 144.408 139.814 144.408ZM145.465 143.205C144.896 143.205 144.399 143.108 143.972 142.915C143.546 142.712 143.216 142.408 142.982 142.002C142.749 141.595 142.632 141.083 142.632 140.463V134.66C142.632 134.04 142.749 133.522 142.982 133.106C143.216 132.689 143.546 132.375 143.972 132.161C144.409 131.948 144.907 131.842 145.465 131.842H147.704C148.334 131.842 148.847 131.958 149.243 132.192C149.649 132.425 149.948 132.75 150.141 133.167C150.345 133.583 150.446 134.081 150.446 134.66V140.463C150.446 141.387 150.197 142.078 149.7 142.535C149.212 142.981 148.542 143.205 147.689 143.205H145.465ZM145.785 141.819H147.323C147.882 141.819 148.283 141.682 148.527 141.407C148.781 141.133 148.908 140.747 148.908 140.25V134.797C148.908 134.248 148.776 133.847 148.512 133.593C148.248 133.339 147.872 133.212 147.384 133.212H145.739C145.252 133.212 144.866 133.35 144.582 133.624C144.297 133.898 144.155 134.289 144.155 134.797V140.25C144.155 140.778 144.297 141.174 144.582 141.438C144.876 141.692 145.277 141.819 145.785 141.819ZM155.417 143.205C154.848 143.205 154.35 143.108 153.924 142.915C153.497 142.712 153.167 142.408 152.934 142.002C152.7 141.595 152.583 141.083 152.583 140.463V134.66C152.583 134.04 152.7 133.522 152.934 133.106C153.167 132.689 153.497 132.375 153.924 132.161C154.361 131.948 154.858 131.842 155.417 131.842H157.656C158.285 131.842 158.798 131.958 159.194 132.192C159.601 132.425 159.9 132.75 160.093 133.167C160.296 133.583 160.398 134.081 160.398 134.66V140.463C160.398 141.387 160.149 142.078 159.651 142.535C159.164 142.981 158.494 143.205 157.641 143.205H155.417ZM155.737 141.819H157.275C157.834 141.819 158.235 141.682 158.478 141.407C158.732 141.133 158.859 140.747 158.859 140.25V134.797C158.859 134.248 158.727 133.847 158.463 133.593C158.199 133.339 157.823 133.212 157.336 133.212H155.691C155.203 133.212 154.818 133.35 154.533 133.624C154.249 133.898 154.107 134.289 154.107 134.797V140.25C154.107 140.778 154.249 141.174 154.533 141.438C154.828 141.692 155.229 141.819 155.737 141.819ZM165.368 143.205C164.8 143.205 164.302 143.108 163.876 142.915C163.449 142.712 163.119 142.408 162.885 142.002C162.652 141.595 162.535 141.083 162.535 140.463V134.66C162.535 134.04 162.652 133.522 162.885 133.106C163.119 132.689 163.449 132.375 163.876 132.161C164.312 131.948 164.81 131.842 165.368 131.842H167.607C168.237 131.842 168.75 131.958 169.146 132.192C169.552 132.425 169.852 132.75 170.045 133.167C170.248 133.583 170.349 134.081 170.349 134.66V140.463C170.349 141.387 170.1 142.078 169.603 142.535C169.115 142.981 168.445 143.205 167.592 143.205H165.368ZM165.688 141.819H167.227C167.785 141.819 168.186 141.682 168.43 141.407C168.684 141.133 168.811 140.747 168.811 140.25V134.797C168.811 134.248 168.679 133.847 168.415 133.593C168.151 133.339 167.775 133.212 167.288 133.212H165.642C165.155 133.212 164.769 133.35 164.485 133.624C164.2 133.898 164.058 134.289 164.058 134.797V140.25C164.058 140.778 164.2 141.174 164.485 141.438C164.779 141.692 165.18 141.819 165.688 141.819ZM179.381 143.251C179.168 143.251 178.914 143.245 178.62 143.235C178.325 143.225 178.02 143.205 177.706 143.174C177.401 143.154 177.117 143.129 176.853 143.098C176.599 143.068 176.396 143.032 176.243 142.992V142.078H179.671C179.965 142.078 180.219 142.057 180.432 142.017C180.645 141.966 180.808 141.864 180.92 141.712C181.042 141.56 181.102 141.336 181.102 141.042V140.707C181.102 140.402 181.001 140.163 180.798 139.991C180.595 139.818 180.26 139.732 179.792 139.732H178.604C178.127 139.732 177.701 139.671 177.325 139.549C176.959 139.417 176.67 139.199 176.457 138.894C176.253 138.589 176.152 138.178 176.152 137.66V137.219C176.152 136.701 176.248 136.274 176.441 135.939C176.644 135.604 176.964 135.355 177.401 135.193C177.838 135.02 178.416 134.934 179.137 134.934C179.442 134.934 179.777 134.949 180.143 134.979C180.519 135 180.884 135.03 181.24 135.071C181.595 135.111 181.879 135.157 182.093 135.208V136.122H178.863C178.416 136.122 178.071 136.198 177.828 136.35C177.594 136.503 177.477 136.792 177.477 137.219V137.523C177.477 137.787 177.533 137.99 177.645 138.133C177.756 138.275 177.914 138.366 178.117 138.407C178.33 138.447 178.579 138.468 178.863 138.468H180.082C180.854 138.468 181.438 138.65 181.834 139.016C182.23 139.371 182.428 139.874 182.428 140.524V141.149C182.428 141.697 182.301 142.123 182.047 142.428C181.793 142.733 181.438 142.946 180.981 143.068C180.534 143.19 180.001 143.251 179.381 143.251ZM187.378 143.251C186.515 143.251 185.824 143.124 185.306 142.87C184.798 142.616 184.433 142.189 184.21 141.59C183.996 140.981 183.89 140.143 183.89 139.077C183.89 137.99 183.996 137.147 184.21 136.548C184.433 135.939 184.798 135.513 185.306 135.269C185.814 135.025 186.499 134.903 187.363 134.903C188.114 134.903 188.718 134.984 189.175 135.147C189.642 135.299 189.983 135.579 190.196 135.985C190.419 136.381 190.531 136.934 190.531 137.645C190.531 138.143 190.429 138.539 190.226 138.833C190.033 139.128 189.754 139.341 189.389 139.473C189.033 139.605 188.607 139.671 188.109 139.671H185.413C185.423 140.26 185.489 140.732 185.611 141.088C185.743 141.433 185.971 141.687 186.296 141.849C186.631 142.002 187.119 142.078 187.759 142.078H190.302V142.992C189.866 143.053 189.419 143.108 188.962 143.159C188.505 143.22 187.977 143.251 187.378 143.251ZM185.398 138.711H187.972C188.378 138.711 188.678 138.635 188.871 138.483C189.064 138.331 189.16 138.051 189.16 137.645C189.16 137.239 189.099 136.919 188.977 136.685C188.866 136.452 188.678 136.284 188.414 136.183C188.15 136.081 187.799 136.03 187.363 136.03C186.865 136.03 186.469 136.107 186.174 136.259C185.89 136.411 185.687 136.68 185.565 137.066C185.453 137.452 185.398 138 185.398 138.711ZM195.208 143.159C194.659 143.159 194.203 143.073 193.837 142.9C193.482 142.717 193.217 142.428 193.045 142.032C192.882 141.636 192.806 141.108 192.816 140.448L192.877 136.259H191.583V135.269L192.908 135.01L193.136 132.725H194.34V135.01H196.548V136.259H194.34V140.433C194.34 140.747 194.37 141.001 194.431 141.194C194.492 141.387 194.578 141.534 194.69 141.636C194.802 141.737 194.924 141.814 195.056 141.864C195.188 141.905 195.314 141.93 195.436 141.941L196.442 142.032V143.159H195.208ZM204.525 143.251C203.763 143.251 203.169 143.047 202.743 142.641C202.326 142.225 202.118 141.595 202.118 140.752V135.01H203.641V140.341C203.641 140.95 203.778 141.362 204.052 141.575C204.337 141.788 204.733 141.895 205.241 141.895C205.647 141.895 206.033 141.834 206.398 141.712C206.774 141.58 207.14 141.402 207.495 141.179V135.01H209.018V143.159H207.8L207.495 142.291C207.099 142.545 206.642 142.768 206.124 142.961C205.616 143.154 205.083 143.251 204.525 143.251ZM211.118 146.769V135.01H212.367L212.641 135.832C212.834 135.69 213.063 135.548 213.327 135.406C213.601 135.264 213.895 135.147 214.21 135.056C214.535 134.954 214.86 134.903 215.185 134.903C215.703 134.903 216.145 135.01 216.51 135.223C216.886 135.436 217.191 135.736 217.424 136.122C217.658 136.498 217.825 136.939 217.927 137.447C218.038 137.955 218.094 138.498 218.094 139.077C218.094 139.981 217.993 140.747 217.79 141.377C217.597 141.996 217.287 142.469 216.861 142.794C216.444 143.108 215.886 143.266 215.185 143.266C214.758 143.266 214.322 143.205 213.875 143.083C213.428 142.951 213.017 142.778 212.641 142.565V146.769H211.118ZM214.728 141.986C215.073 141.986 215.383 141.9 215.657 141.727C215.931 141.555 216.15 141.26 216.312 140.844C216.485 140.417 216.571 139.828 216.571 139.077C216.571 138.366 216.485 137.797 216.312 137.371C216.14 136.934 215.916 136.625 215.642 136.442C215.368 136.249 215.068 136.152 214.743 136.152C214.317 136.152 213.926 136.218 213.57 136.35C213.225 136.482 212.915 136.619 212.641 136.762V141.407C212.956 141.58 213.291 141.722 213.646 141.834C214.012 141.936 214.373 141.986 214.728 141.986Z" fill="white"/>
<defs>
<linearGradient id="paint0_linear_1487_1714" x1="5.36983" y1="-134.211" x2="301.037" y2="79.3484" gradientUnits="userSpaceOnUse">
<stop stop-color="#CE3A79"/>
<stop offset="1" stop-color="#7030A0"/>
</linearGradient>
<linearGradient id="paint1_linear_1487_1714" x1="-21.2957" y1="-23.9519" x2="66.3769" y2="52.9995" gradientUnits="userSpaceOnUse">
<stop stop-color="white" stop-opacity="0.4"/>
<stop offset="1" stop-color="white" stop-opacity="0"/>
</linearGradient>
<linearGradient id="paint2_linear_1487_1714" x1="-21.2957" y1="-23.9519" x2="66.3769" y2="52.9995" gradientUnits="userSpaceOnUse">
<stop stop-color="white" stop-opacity="0.4"/>
<stop offset="1" stop-color="white" stop-opacity="0"/>
</linearGradient>
<clipPath id="clip0_1487_1714">
<rect x="0.403564" y="0.700195" width="312.999" height="179.73" rx="17.2376" fill="white"/>
</clipPath>
</defs>
</svg>
