<svg width="314" height="176" viewBox="0 0 314 176" fill="none" xmlns="http://www.w3.org/2000/svg">
<rect x="0.548584" y="0.929688" width="313.109" height="174.326" rx="16.9248" fill="#303030"/>
<mask id="mask0_1487_1744" style="mask-type:alpha" maskUnits="userSpaceOnUse" x="0" y="0" width="314" height="176">
<rect x="0.548584" y="0.929688" width="313.109" height="174.326" rx="16.9248" fill="#625FFB"/>
</mask>
<g mask="url(#mask0_1487_1744)">
<circle cx="0.548504" cy="167.639" r="52.467" fill="#B53783"/>
<path d="M404.688 31.1555C421.52 60.9353 411.759 98.8807 382.886 115.909C354.013 132.937 316.962 122.6 300.13 92.8197C283.298 63.0398 293.06 25.0944 321.933 8.06634C350.806 -8.96176 387.857 1.3756 404.688 31.1555Z" fill="#B53783"/>
<circle cx="-21.4537" cy="116.019" r="52.467" fill="#545454"/>
<ellipse cx="60.6938" cy="61.938" rx="60.6938" ry="61.938" transform="matrix(0.861361 -0.507994 0.492048 0.870568 216.34 -19.4922)" fill="#545454"/>
</g>
<path d="M81.9957 61.541C79.7955 61.541 77.8491 61.2871 76.1566 60.7794C74.498 60.2716 73.0763 59.3407 71.8916 57.9868C70.7407 56.6328 69.8606 54.7033 69.2513 52.1985C68.6758 49.6597 68.3881 46.3763 68.3881 42.3482C68.3881 38.4555 68.6928 35.2736 69.3021 32.8026C69.9452 30.2977 70.8591 28.3683 72.0439 27.0143C73.2286 25.6265 74.6672 24.6618 76.3597 24.1202C78.0522 23.5786 79.9647 23.3078 82.0972 23.3078C83.7897 23.3078 85.3637 23.4093 86.8193 23.6124C88.3086 23.7817 89.6457 24.0017 90.8304 24.2725C92.0152 24.5095 93.0137 24.7803 93.8261 25.0849V30.924C93.2168 30.7886 92.3875 30.6532 91.3382 30.5178C90.3227 30.3824 89.1549 30.2808 87.8348 30.2131C86.5146 30.1116 85.1268 30.0608 83.6712 30.0608C82.2496 30.0608 81.031 30.23 80.0155 30.5685C79.0338 30.8732 78.2384 31.4656 77.6291 32.3456C77.0536 33.1919 76.6136 34.4274 76.3089 36.0522C76.0381 37.677 75.9027 39.7926 75.9027 42.399C75.9027 44.9039 76.0212 46.9687 76.2582 48.5935C76.529 50.2183 76.9521 51.4876 77.5275 52.4016C78.103 53.2817 78.8815 53.9079 79.8632 54.2802C80.8786 54.6187 82.148 54.788 83.6712 54.788C86.2438 54.788 88.3256 54.7372 89.9165 54.6356C91.5413 54.5341 92.8445 54.4156 93.8261 54.2802V60.0685C92.9122 60.3732 91.8629 60.644 90.6781 60.8809C89.4934 61.084 88.1902 61.2363 86.7685 61.3379C85.3468 61.4733 83.7559 61.541 81.9957 61.541ZM106.466 61.541C104.029 61.541 102.116 60.8301 100.728 59.4084C99.3405 57.9529 98.6465 55.905 98.6465 53.2647V33.9704H106.161V51.0307C106.161 52.5539 106.517 53.5863 107.227 54.1279C107.972 54.6356 108.937 54.8895 110.122 54.8895C111.069 54.8895 112.034 54.7203 113.016 54.3818C114.031 54.0094 114.928 53.5186 115.707 52.9093V33.9704H123.272V61.2363H117.027L115.707 58.4437C114.488 59.2561 113.083 59.9839 111.492 60.627C109.902 61.2363 108.226 61.541 106.466 61.541ZM138.846 61.541C138 61.541 137.086 61.5071 136.104 61.4394C135.123 61.4056 134.141 61.3379 133.159 61.2363C132.178 61.1348 131.264 61.0163 130.417 60.8809C129.571 60.7117 128.86 60.5255 128.285 60.3224V55.905H140.369C141.08 55.905 141.656 55.8542 142.096 55.7527C142.57 55.6173 142.908 55.3973 143.111 55.0926C143.348 54.7541 143.467 54.2802 143.467 53.6709V52.8078C143.467 52.1308 143.246 51.6061 142.806 51.2338C142.366 50.8614 141.554 50.6752 140.369 50.6752H136.104C134.547 50.6752 133.142 50.4383 131.89 49.9644C130.638 49.4905 129.639 48.712 128.894 47.6288C128.183 46.5456 127.828 45.09 127.828 43.2622V41.6882C127.828 39.9618 128.166 38.5063 128.843 37.3215C129.52 36.1368 130.654 35.2398 132.245 34.6305C133.836 34.0212 136.02 33.7166 138.795 33.7166C139.912 33.7166 141.097 33.7843 142.349 33.9197C143.636 34.0212 144.837 34.1735 145.954 34.3766C147.105 34.5459 148.019 34.749 148.696 34.9859V39.4033H137.272C136.29 39.4033 135.546 39.5725 135.038 39.911C134.53 40.2157 134.276 40.8081 134.276 41.6882V42.5005C134.276 43.1098 134.395 43.5668 134.632 43.8715C134.869 44.1423 135.224 44.3454 135.698 44.4807C136.206 44.5823 136.832 44.6331 137.577 44.6331H141.943C144.719 44.6331 146.733 45.2762 147.985 46.5625C149.272 47.8149 149.915 49.5582 149.915 51.7923V54.2294C149.915 56.0573 149.475 57.5129 148.595 58.5961C147.749 59.6454 146.496 60.407 144.837 60.8809C143.213 61.321 141.216 61.541 138.846 61.541ZM164.938 61.2363C162.839 61.2363 161.13 60.9317 159.81 60.3224C158.524 59.7131 157.593 58.6976 157.017 57.2759C156.442 55.8542 156.188 53.9417 156.256 51.5384L156.51 40.0126H152.245V35.189L156.763 33.9704L157.779 26.3543H163.72V33.9704H170.117V40.0126H163.72V51.4876C163.72 52.2323 163.787 52.8416 163.923 53.3155C164.058 53.7894 164.244 54.1787 164.481 54.4833C164.752 54.7541 165.057 54.9572 165.395 55.0926C165.734 55.228 166.072 55.3126 166.411 55.3465L169.863 55.6511V61.2363H164.938ZM185.993 61.4902C183.759 61.4902 181.846 61.2702 180.255 60.8301C178.664 60.3562 177.361 59.5777 176.346 58.4945C175.364 57.4113 174.636 55.9727 174.162 54.1787C173.722 52.3846 173.502 50.1675 173.502 47.5272C173.502 44.7515 173.722 42.4667 174.162 40.6727C174.636 38.8448 175.364 37.4231 176.346 36.4076C177.361 35.3583 178.664 34.6305 180.255 34.2243C181.88 33.7843 183.793 33.5642 185.993 33.5642C188.261 33.5642 190.19 33.7843 191.781 34.2243C193.372 34.6643 194.658 35.409 195.64 36.4584C196.656 37.4739 197.383 38.8956 197.823 40.7234C198.297 42.5175 198.534 44.7854 198.534 47.5272C198.534 50.2352 198.314 52.5031 197.874 54.331C197.434 56.125 196.723 57.5467 195.742 58.5961C194.76 59.6454 193.457 60.3901 191.832 60.8301C190.241 61.2702 188.295 61.4902 185.993 61.4902ZM185.993 55.4988C186.907 55.4988 187.668 55.4142 188.278 55.2449C188.921 55.0757 189.429 54.7372 189.801 54.2294C190.207 53.6879 190.512 52.8755 190.715 51.7923C190.918 50.7091 191.02 49.2874 191.02 47.5272C191.02 45.7332 190.918 44.3115 190.715 43.2622C190.512 42.179 190.207 41.3835 189.801 40.8758C189.429 40.3342 188.921 39.9787 188.278 39.8095C187.668 39.6402 186.907 39.5556 185.993 39.5556C185.113 39.5556 184.351 39.6402 183.708 39.8095C183.099 39.9787 182.591 40.3342 182.185 40.8758C181.779 41.3835 181.474 42.179 181.271 43.2622C181.102 44.3115 181.017 45.7332 181.017 47.5272C181.017 49.2874 181.102 50.7091 181.271 51.7923C181.474 52.8755 181.779 53.6879 182.185 54.2294C182.591 54.7372 183.099 55.0757 183.708 55.2449C184.351 55.4142 185.113 55.4988 185.993 55.4988ZM203.52 61.2363V33.9704H209.715L211.035 36.763C212.219 35.8829 213.506 35.1213 214.894 34.4782C216.315 33.835 218.058 33.5135 220.123 33.5135C221.85 33.5135 223.271 33.8689 224.388 34.5797C225.539 35.2906 226.402 36.2214 226.978 37.3723C227.756 36.763 228.653 36.1707 229.669 35.5952C230.718 35.0198 231.835 34.529 233.02 34.1228C234.205 33.7166 235.373 33.5135 236.523 33.5135C238.724 33.5135 240.45 33.9366 241.702 34.7828C242.989 35.5952 243.886 36.763 244.393 38.2863C244.901 39.7756 245.155 41.5358 245.155 43.5668V61.2363H237.64V44.2269C237.64 43.3468 237.471 42.619 237.133 42.0436C236.828 41.4681 236.388 41.0281 235.813 40.7234C235.237 40.4188 234.543 40.2665 233.731 40.2665C232.715 40.2665 231.683 40.4865 230.634 40.9265C229.618 41.3327 228.704 41.8236 227.892 42.399C227.959 42.7375 228.01 43.076 228.044 43.4145C228.078 43.7191 228.095 44.0407 228.095 44.3792V61.2363H220.58V44.2269C220.58 43.3468 220.411 42.619 220.073 42.0436C219.768 41.4681 219.328 41.0281 218.752 40.7234C218.177 40.4188 217.483 40.2665 216.671 40.2665C215.96 40.2665 215.266 40.3511 214.589 40.5203C213.946 40.6896 213.32 40.9265 212.71 41.2312C212.135 41.5358 211.576 41.8913 211.035 42.2974V61.2363H203.52Z" fill="white"/>
<path d="M60.6309 106.175C59.9607 106.175 59.3768 106.099 58.8792 105.947C58.3816 105.795 57.9653 105.52 57.6302 105.124C57.2951 104.718 57.0463 104.139 56.8838 103.388C56.7213 102.626 56.6401 101.641 56.6401 100.433C56.6401 99.2954 56.7213 98.3561 56.8838 97.6148C57.0564 96.8735 57.3103 96.2947 57.6454 95.8783C57.9907 95.462 58.4172 95.1725 58.9249 95.0101C59.4327 94.8476 60.0216 94.7664 60.6919 94.7664C61.0676 94.7664 61.4535 94.7867 61.8495 94.8273C62.2557 94.8679 62.6416 94.9238 63.0072 94.9948C63.3829 95.0558 63.718 95.1269 64.0125 95.2081V96.3657C63.8297 96.3353 63.5809 96.3048 63.2661 96.2744C62.9513 96.2337 62.5959 96.2033 62.1999 96.183C61.8038 96.1525 61.3926 96.1373 60.966 96.1373C60.4583 96.1373 60.0267 96.1982 59.6713 96.3201C59.3159 96.4318 59.0265 96.645 58.8031 96.9598C58.5796 97.2645 58.4172 97.7011 58.3156 98.2698C58.2141 98.8283 58.1633 99.5544 58.1633 100.448C58.1633 101.352 58.209 102.093 58.3004 102.672C58.4019 103.241 58.5593 103.682 58.7726 103.997C58.9858 104.302 59.2702 104.515 59.6256 104.637C59.981 104.749 60.4228 104.804 60.9508 104.804C61.7124 104.804 62.337 104.784 62.8244 104.744C63.3118 104.703 63.7079 104.662 64.0125 104.622V105.795C63.7079 105.866 63.3728 105.932 63.0072 105.993C62.6416 106.054 62.2557 106.099 61.8495 106.13C61.4535 106.16 61.0473 106.175 60.6309 106.175ZM68.9061 106.175C68.2867 106.175 67.7485 106.109 67.2915 105.977C66.8447 105.845 66.474 105.627 66.1796 105.322C65.8851 105.008 65.6667 104.581 65.5246 104.043C65.3824 103.505 65.3113 102.824 65.3113 102.002C65.3113 101.149 65.3824 100.453 65.5246 99.9149C65.6667 99.3665 65.8851 98.94 66.1796 98.6354C66.474 98.3307 66.8498 98.1225 67.3068 98.0108C67.7637 97.889 68.2969 97.8281 68.9061 97.8281C69.5154 97.8281 70.0486 97.889 70.5055 98.0108C70.9625 98.1327 71.3382 98.346 71.6327 98.6506C71.9272 98.9552 72.1456 99.3818 72.2877 99.9301C72.4299 100.468 72.501 101.159 72.501 102.002C72.501 102.834 72.4299 103.525 72.2877 104.073C72.1456 104.612 71.9272 105.033 71.6327 105.338C71.3484 105.642 70.9777 105.861 70.5208 105.993C70.0638 106.114 69.5256 106.175 68.9061 106.175ZM68.9061 104.926C69.2413 104.926 69.5358 104.896 69.7896 104.835C70.0537 104.774 70.272 104.647 70.4446 104.454C70.6172 104.251 70.7493 103.951 70.8407 103.555C70.932 103.159 70.9777 102.636 70.9777 101.986C70.9777 101.337 70.932 100.819 70.8407 100.433C70.7493 100.037 70.6172 99.7423 70.4446 99.5493C70.272 99.3564 70.0537 99.2294 69.7896 99.1685C69.5358 99.0974 69.2413 99.0619 68.9061 99.0619C68.5609 99.0619 68.2562 99.0974 67.9922 99.1685C67.7383 99.2294 67.5251 99.3564 67.3524 99.5493C67.19 99.7423 67.063 100.037 66.9716 100.433C66.8904 100.819 66.8498 101.337 66.8498 101.986C66.8498 102.636 66.8904 103.159 66.9716 103.555C67.063 103.951 67.19 104.251 67.3524 104.454C67.5251 104.647 67.7383 104.774 67.9922 104.835C68.2562 104.896 68.5609 104.926 68.9061 104.926ZM74.3619 106.084V97.9347H75.5805L75.8852 98.8182C76.2812 98.544 76.7179 98.3053 77.1952 98.1022C77.6724 97.8991 78.2208 97.7976 78.8403 97.7976C79.348 97.7976 79.7796 97.9093 80.135 98.1327C80.4904 98.3561 80.7595 98.6404 80.9423 98.9857C81.186 98.8029 81.4805 98.6201 81.8258 98.4373C82.1711 98.2546 82.5417 98.1022 82.9378 97.9804C83.3338 97.8585 83.7146 97.7976 84.0802 97.7976C84.6895 97.7976 85.182 97.9245 85.5577 98.1784C85.9436 98.4221 86.2178 98.7623 86.3803 99.199C86.5529 99.6255 86.6392 100.113 86.6392 100.661V106.084H85.116V100.783C85.116 100.458 85.05 100.179 84.918 99.9453C84.7961 99.7016 84.6184 99.5138 84.3848 99.3818C84.1614 99.2497 83.8872 99.1837 83.5623 99.1837C83.1561 99.1837 82.7397 99.265 82.3132 99.4274C81.8867 99.5798 81.4958 99.7676 81.1403 99.991C81.181 100.123 81.2114 100.26 81.2317 100.402C81.252 100.534 81.2622 100.666 81.2622 100.798V106.084H79.739V100.783C79.739 100.458 79.673 100.179 79.5409 99.9453C79.4191 99.7016 79.2465 99.5138 79.023 99.3818C78.7996 99.2497 78.5255 99.1837 78.2005 99.1837C77.8958 99.1837 77.6115 99.2142 77.3475 99.2751C77.0936 99.3361 76.8499 99.4224 76.6163 99.5341C76.3828 99.6356 76.1391 99.7626 75.8852 99.9149V106.084H74.3619ZM88.7315 109.694V97.9347H89.9806L90.2548 98.7572C90.4477 98.6151 90.6762 98.4729 90.9402 98.3307C91.2144 98.1886 91.5089 98.0718 91.8237 97.9804C92.1486 97.8788 92.4736 97.8281 92.7986 97.8281C93.3165 97.8281 93.7582 97.9347 94.1238 98.1479C94.4995 98.3612 94.8041 98.6608 95.0377 99.0466C95.2713 99.4224 95.4388 99.8641 95.5404 100.372C95.6521 100.88 95.7079 101.423 95.7079 102.002C95.7079 102.906 95.6064 103.672 95.4033 104.302C95.2103 104.921 94.9006 105.393 94.4741 105.718C94.0578 106.033 93.4992 106.191 92.7986 106.191C92.3721 106.191 91.9354 106.13 91.4886 106.008C91.0418 105.876 90.6305 105.703 90.2548 105.49V109.694H88.7315ZM92.3416 104.911C92.6869 104.911 92.9966 104.825 93.2708 104.652C93.5449 104.48 93.7633 104.185 93.9258 103.769C94.0984 103.342 94.1847 102.753 94.1847 102.002C94.1847 101.291 94.0984 100.722 93.9258 100.296C93.7531 99.859 93.5297 99.5493 93.2555 99.3665C92.9813 99.1736 92.6818 99.0771 92.3568 99.0771C91.9303 99.0771 91.5393 99.1431 91.1839 99.2751C90.8387 99.4071 90.5289 99.5442 90.2548 99.6864V104.332C90.5696 104.505 90.9047 104.647 91.2601 104.759C91.6257 104.86 91.9862 104.911 92.3416 104.911ZM97.5675 106.084V97.9347H98.7404L99.0907 99.3056C99.436 98.8892 99.8219 98.5389 100.248 98.2546C100.675 97.9702 101.172 97.8281 101.741 97.8281C101.873 97.8281 102 97.8382 102.122 97.8585C102.244 97.8687 102.361 97.889 102.472 97.9194V99.4884C102.33 99.4681 102.183 99.4528 102.031 99.4427C101.878 99.4224 101.721 99.4122 101.558 99.4122C101.213 99.4122 100.903 99.4528 100.629 99.5341C100.355 99.6153 100.091 99.7423 99.8371 99.9149C99.5934 100.077 99.3446 100.28 99.0907 100.524V106.084H97.5675ZM107.118 106.175C106.255 106.175 105.565 106.048 105.047 105.795C104.539 105.541 104.173 105.114 103.95 104.515C103.737 103.906 103.63 103.068 103.63 102.002C103.63 100.915 103.737 100.072 103.95 99.4731C104.173 98.8639 104.539 98.4373 105.047 98.1936C105.555 97.9499 106.24 97.8281 107.103 97.8281C107.855 97.8281 108.459 97.9093 108.916 98.0718C109.383 98.2241 109.723 98.5034 109.936 98.9095C110.16 99.3056 110.271 99.859 110.271 100.57C110.271 101.067 110.17 101.464 109.967 101.758C109.774 102.052 109.495 102.266 109.129 102.398C108.774 102.53 108.347 102.596 107.85 102.596H105.153C105.164 103.185 105.23 103.657 105.351 104.012C105.483 104.358 105.712 104.612 106.037 104.774C106.372 104.926 106.859 105.002 107.499 105.002H110.043V105.916C109.606 105.977 109.16 106.033 108.703 106.084C108.246 106.145 107.718 106.175 107.118 106.175ZM105.138 101.636H107.712C108.119 101.636 108.418 101.56 108.611 101.408C108.804 101.255 108.901 100.976 108.901 100.57C108.901 100.164 108.84 99.8438 108.718 99.6102C108.606 99.3767 108.418 99.2091 108.154 99.1076C107.89 99.006 107.54 98.9552 107.103 98.9552C106.606 98.9552 106.21 99.0314 105.915 99.1837C105.631 99.3361 105.428 99.6052 105.306 99.991C105.194 100.377 105.138 100.925 105.138 101.636ZM112.13 106.084V94.4617H113.654V98.8182C114.009 98.5541 114.441 98.3206 114.948 98.1175C115.456 97.9042 115.979 97.7976 116.517 97.7976C117.106 97.7976 117.584 97.9194 117.949 98.1632C118.325 98.4069 118.599 98.742 118.772 99.1685C118.944 99.5849 119.031 100.057 119.031 100.585V106.084H117.507V100.768C117.507 100.453 117.441 100.179 117.309 99.9453C117.188 99.7016 117.01 99.5138 116.776 99.3818C116.553 99.2497 116.284 99.1837 115.969 99.1837C115.664 99.1837 115.38 99.2142 115.116 99.2751C114.862 99.3361 114.618 99.4224 114.385 99.5341C114.151 99.6458 113.908 99.7727 113.654 99.9149V106.084H112.13ZM124.329 106.175C123.466 106.175 122.775 106.048 122.258 105.795C121.75 105.541 121.384 105.114 121.161 104.515C120.948 103.906 120.841 103.068 120.841 102.002C120.841 100.915 120.948 100.072 121.161 99.4731C121.384 98.8639 121.75 98.4373 122.258 98.1936C122.765 97.9499 123.451 97.8281 124.314 97.8281C125.065 97.8281 125.67 97.9093 126.127 98.0718C126.594 98.2241 126.934 98.5034 127.147 98.9095C127.371 99.3056 127.482 99.859 127.482 100.57C127.482 101.067 127.381 101.464 127.178 101.758C126.985 102.052 126.705 102.266 126.34 102.398C125.984 102.53 125.558 102.596 125.06 102.596H122.364C122.374 103.185 122.44 103.657 122.562 104.012C122.694 104.358 122.923 104.612 123.248 104.774C123.583 104.926 124.07 105.002 124.71 105.002H127.254V105.916C126.817 105.977 126.37 106.033 125.913 106.084C125.456 106.145 124.928 106.175 124.329 106.175ZM122.349 101.636H124.923C125.329 101.636 125.629 101.56 125.822 101.408C126.015 101.255 126.111 100.976 126.111 100.57C126.111 100.164 126.05 99.8438 125.929 99.6102C125.817 99.3767 125.629 99.2091 125.365 99.1076C125.101 99.006 124.751 98.9552 124.314 98.9552C123.816 98.9552 123.42 99.0314 123.126 99.1837C122.841 99.3361 122.638 99.6052 122.517 99.991C122.405 100.377 122.349 100.925 122.349 101.636ZM129.341 106.084V97.9347H130.56L130.864 98.8182C131.23 98.5541 131.662 98.3206 132.159 98.1175C132.667 97.9042 133.19 97.7976 133.728 97.7976C134.337 97.7976 134.825 97.9296 135.19 98.1936C135.566 98.4475 135.835 98.7877 135.998 99.2142C136.16 99.6407 136.241 100.103 136.241 100.6V106.084H134.718V100.783C134.718 100.458 134.652 100.179 134.52 99.9453C134.398 99.7016 134.226 99.5138 134.002 99.3818C133.779 99.2497 133.505 99.1837 133.18 99.1837C132.875 99.1837 132.591 99.2142 132.327 99.2751C132.073 99.3361 131.829 99.4224 131.596 99.5341C131.362 99.6356 131.118 99.7626 130.864 99.9149V106.084H129.341ZM141.174 106.175C140.961 106.175 140.707 106.17 140.413 106.16C140.118 106.15 139.814 106.13 139.499 106.099C139.194 106.079 138.91 106.054 138.646 106.023C138.392 105.993 138.189 105.957 138.036 105.916V105.002H141.464C141.758 105.002 142.012 104.982 142.225 104.942C142.439 104.891 142.601 104.789 142.713 104.637C142.835 104.485 142.896 104.261 142.896 103.967V103.632C142.896 103.327 142.794 103.088 142.591 102.916C142.388 102.743 142.053 102.657 141.586 102.657H140.397C139.92 102.657 139.494 102.596 139.118 102.474C138.752 102.342 138.463 102.124 138.25 101.819C138.047 101.514 137.945 101.103 137.945 100.585V100.143C137.945 99.6255 138.042 99.199 138.234 98.8639C138.438 98.5287 138.757 98.2799 139.194 98.1175C139.631 97.9448 140.21 97.8585 140.931 97.8585C141.235 97.8585 141.57 97.8738 141.936 97.9042C142.312 97.9245 142.677 97.955 143.033 97.9956C143.388 98.0362 143.672 98.0819 143.886 98.1327V99.0466H140.656C140.21 99.0466 139.864 99.1228 139.621 99.2751C139.387 99.4274 139.27 99.7169 139.27 100.143V100.448C139.27 100.712 139.326 100.915 139.438 101.057C139.55 101.199 139.707 101.291 139.91 101.331C140.123 101.372 140.372 101.392 140.656 101.392H141.875C142.647 101.392 143.231 101.575 143.627 101.941C144.023 102.296 144.221 102.799 144.221 103.449V104.073C144.221 104.622 144.094 105.048 143.84 105.353C143.586 105.657 143.231 105.871 142.774 105.993C142.327 106.114 141.794 106.175 141.174 106.175ZM146.17 96.5638C145.987 96.5638 145.896 96.4775 145.896 96.3048V95.0253C145.896 94.8425 145.987 94.7511 146.17 94.7511H147.297C147.379 94.7511 147.44 94.7765 147.48 94.8273C147.521 94.8781 147.541 94.9441 147.541 95.0253V96.3048C147.541 96.4775 147.46 96.5638 147.297 96.5638H146.17ZM145.957 106.084V97.9347H147.48V106.084H145.957ZM151.764 106.084L148.809 97.9347H150.378L152.678 104.667L155.024 97.9347H156.593L153.531 106.084H151.764ZM160.833 106.175C159.97 106.175 159.28 106.048 158.762 105.795C158.254 105.541 157.888 105.114 157.665 104.515C157.452 103.906 157.345 103.068 157.345 102.002C157.345 100.915 157.452 100.072 157.665 99.4731C157.888 98.8639 158.254 98.4373 158.762 98.1936C159.269 97.9499 159.955 97.8281 160.818 97.8281C161.569 97.8281 162.174 97.9093 162.631 98.0718C163.098 98.2241 163.438 98.5034 163.651 98.9095C163.875 99.3056 163.986 99.859 163.986 100.57C163.986 101.067 163.885 101.464 163.682 101.758C163.489 102.052 163.209 102.266 162.844 102.398C162.488 102.53 162.062 102.596 161.564 102.596H158.868C158.878 103.185 158.944 103.657 159.066 104.012C159.198 104.358 159.427 104.612 159.752 104.774C160.087 104.926 160.574 105.002 161.214 105.002H163.758V105.916C163.321 105.977 162.874 106.033 162.417 106.084C161.96 106.145 161.432 106.175 160.833 106.175ZM158.853 101.636H161.427C161.833 101.636 162.133 101.56 162.326 101.408C162.519 101.255 162.615 100.976 162.615 100.57C162.615 100.164 162.554 99.8438 162.433 99.6102C162.321 99.3767 162.133 99.2091 161.869 99.1076C161.605 99.006 161.255 98.9552 160.818 98.9552C160.32 98.9552 159.924 99.0314 159.63 99.1837C159.346 99.3361 159.142 99.6052 159.021 99.991C158.909 100.377 158.853 100.925 158.853 101.636ZM172.74 106.175C172.527 106.175 172.273 106.17 171.978 106.16C171.684 106.15 171.379 106.13 171.064 106.099C170.76 106.079 170.475 106.054 170.211 106.023C169.957 105.993 169.754 105.957 169.602 105.916V105.002H173.029C173.324 105.002 173.578 104.982 173.791 104.942C174.004 104.891 174.167 104.789 174.278 104.637C174.4 104.485 174.461 104.261 174.461 103.967V103.632C174.461 103.327 174.36 103.088 174.156 102.916C173.953 102.743 173.618 102.657 173.151 102.657H171.963C171.486 102.657 171.059 102.596 170.683 102.474C170.318 102.342 170.028 102.124 169.815 101.819C169.612 101.514 169.511 101.103 169.511 100.585V100.143C169.511 99.6255 169.607 99.199 169.8 98.8639C170.003 98.5287 170.323 98.2799 170.76 98.1175C171.196 97.9448 171.775 97.8585 172.496 97.8585C172.801 97.8585 173.136 97.8738 173.501 97.9042C173.877 97.9245 174.243 97.955 174.598 97.9956C174.954 98.0362 175.238 98.0819 175.451 98.1327V99.0466H172.222C171.775 99.0466 171.43 99.1228 171.186 99.2751C170.953 99.4274 170.836 99.7169 170.836 100.143V100.448C170.836 100.712 170.892 100.915 171.003 101.057C171.115 101.199 171.272 101.291 171.476 101.331C171.689 101.372 171.938 101.392 172.222 101.392H173.44C174.212 101.392 174.796 101.575 175.192 101.941C175.588 102.296 175.786 102.799 175.786 103.449V104.073C175.786 104.622 175.659 105.048 175.405 105.353C175.152 105.657 174.796 105.871 174.339 105.993C173.892 106.114 173.359 106.175 172.74 106.175ZM180.843 106.175C180.224 106.175 179.685 106.109 179.228 105.977C178.782 105.845 178.411 105.627 178.116 105.322C177.822 105.008 177.604 104.581 177.461 104.043C177.319 103.505 177.248 102.824 177.248 102.002C177.248 101.149 177.319 100.453 177.461 99.9149C177.604 99.3665 177.822 98.94 178.116 98.6354C178.411 98.3307 178.787 98.1225 179.244 98.0108C179.701 97.889 180.234 97.8281 180.843 97.8281C181.452 97.8281 181.985 97.889 182.442 98.0108C182.899 98.1327 183.275 98.346 183.57 98.6506C183.864 98.9552 184.082 99.3818 184.225 99.9301C184.367 100.468 184.438 101.159 184.438 102.002C184.438 102.834 184.367 103.525 184.225 104.073C184.082 104.612 183.864 105.033 183.57 105.338C183.285 105.642 182.915 105.861 182.458 105.993C182.001 106.114 181.463 106.175 180.843 106.175ZM180.843 104.926C181.178 104.926 181.473 104.896 181.727 104.835C181.991 104.774 182.209 104.647 182.382 104.454C182.554 104.251 182.686 103.951 182.778 103.555C182.869 103.159 182.915 102.636 182.915 101.986C182.915 101.337 182.869 100.819 182.778 100.433C182.686 100.037 182.554 99.7423 182.382 99.5493C182.209 99.3564 181.991 99.2294 181.727 99.1685C181.473 99.0974 181.178 99.0619 180.843 99.0619C180.498 99.0619 180.193 99.0974 179.929 99.1685C179.675 99.2294 179.462 99.3564 179.289 99.5493C179.127 99.7423 179 100.037 178.909 100.433C178.827 100.819 178.787 101.337 178.787 101.986C178.787 102.636 178.827 103.159 178.909 103.555C179 103.951 179.127 104.251 179.289 104.454C179.462 104.647 179.675 104.774 179.929 104.835C180.193 104.896 180.498 104.926 180.843 104.926ZM188.568 106.099C188.071 106.099 187.649 106.013 187.304 105.84C186.969 105.668 186.715 105.393 186.543 105.018C186.38 104.632 186.299 104.114 186.299 103.464V94.4617H187.822V103.266C187.822 103.693 187.863 104.023 187.944 104.256C188.035 104.48 188.157 104.637 188.31 104.728C188.472 104.82 188.66 104.881 188.873 104.911L189.635 105.002V106.099H188.568ZM193.257 106.175C192.495 106.175 191.901 105.972 191.475 105.566C191.059 105.15 190.85 104.52 190.85 103.677V97.9347H192.374V103.266C192.374 103.875 192.511 104.287 192.785 104.5C193.069 104.713 193.465 104.82 193.973 104.82C194.379 104.82 194.765 104.759 195.131 104.637C195.506 104.505 195.872 104.327 196.227 104.104V97.9347H197.751V106.084H196.532L196.227 105.216C195.831 105.47 195.374 105.693 194.856 105.886C194.349 106.079 193.816 106.175 193.257 106.175ZM202.668 106.084C202.12 106.084 201.663 105.998 201.297 105.825C200.942 105.642 200.678 105.353 200.505 104.957C200.343 104.561 200.267 104.033 200.277 103.373L200.338 99.1837H199.043V98.1936L200.368 97.9347L200.597 95.6498H201.8V97.9347H204.009V99.1837H201.8V103.357C201.8 103.672 201.83 103.926 201.891 104.119C201.952 104.312 202.039 104.459 202.15 104.561C202.262 104.662 202.384 104.738 202.516 104.789C202.648 104.83 202.775 104.855 202.897 104.865L203.902 104.957V106.084H202.668ZM205.761 96.5638C205.578 96.5638 205.487 96.4775 205.487 96.3048V95.0253C205.487 94.8425 205.578 94.7511 205.761 94.7511H206.888C206.969 94.7511 207.03 94.7765 207.071 94.8273C207.111 94.8781 207.132 94.9441 207.132 95.0253V96.3048C207.132 96.4775 207.05 96.5638 206.888 96.5638H205.761ZM205.548 106.084V97.9347H207.071V106.084H205.548ZM212.528 106.175C211.908 106.175 211.37 106.109 210.913 105.977C210.466 105.845 210.095 105.627 209.801 105.322C209.506 105.008 209.288 104.581 209.146 104.043C209.004 103.505 208.933 102.824 208.933 102.002C208.933 101.149 209.004 100.453 209.146 99.9149C209.288 99.3665 209.506 98.94 209.801 98.6354C210.095 98.3307 210.471 98.1225 210.928 98.0108C211.385 97.889 211.918 97.8281 212.528 97.8281C213.137 97.8281 213.67 97.889 214.127 98.0108C214.584 98.1327 214.96 98.346 215.254 98.6506C215.549 98.9552 215.767 99.3818 215.909 99.9301C216.051 100.468 216.122 101.159 216.122 102.002C216.122 102.834 216.051 103.525 215.909 104.073C215.767 104.612 215.549 105.033 215.254 105.338C214.97 105.642 214.599 105.861 214.142 105.993C213.685 106.114 213.147 106.175 212.528 106.175ZM212.528 104.926C212.863 104.926 213.157 104.896 213.411 104.835C213.675 104.774 213.893 104.647 214.066 104.454C214.239 104.251 214.371 103.951 214.462 103.555C214.553 103.159 214.599 102.636 214.599 101.986C214.599 101.337 214.553 100.819 214.462 100.433C214.371 100.037 214.239 99.7423 214.066 99.5493C213.893 99.3564 213.675 99.2294 213.411 99.1685C213.157 99.0974 212.863 99.0619 212.528 99.0619C212.182 99.0619 211.878 99.0974 211.614 99.1685C211.36 99.2294 211.146 99.3564 210.974 99.5493C210.811 99.7423 210.684 100.037 210.593 100.433C210.512 100.819 210.471 101.337 210.471 101.986C210.471 102.636 210.512 103.159 210.593 103.555C210.684 103.951 210.811 104.251 210.974 104.454C211.146 104.647 211.36 104.774 211.614 104.835C211.878 104.896 212.182 104.926 212.528 104.926ZM217.983 106.084V97.9347H219.202L219.507 98.8182C219.872 98.5541 220.304 98.3206 220.801 98.1175C221.309 97.9042 221.832 97.7976 222.37 97.7976C222.98 97.7976 223.467 97.9296 223.833 98.1936C224.208 98.4475 224.477 98.7877 224.64 99.2142C224.802 99.6407 224.884 100.103 224.884 100.6V106.084H223.36V100.783C223.36 100.458 223.294 100.179 223.162 99.9453C223.04 99.7016 222.868 99.5138 222.644 99.3818C222.421 99.2497 222.147 99.1837 221.822 99.1837C221.517 99.1837 221.233 99.2142 220.969 99.2751C220.715 99.3361 220.471 99.4224 220.238 99.5341C220.004 99.6356 219.76 99.7626 219.507 99.9149V106.084H217.983ZM229.816 106.175C229.603 106.175 229.349 106.17 229.055 106.16C228.76 106.15 228.456 106.13 228.141 106.099C227.836 106.079 227.552 106.054 227.288 106.023C227.034 105.993 226.831 105.957 226.679 105.916V105.002H230.106C230.4 105.002 230.654 104.982 230.868 104.942C231.081 104.891 231.243 104.789 231.355 104.637C231.477 104.485 231.538 104.261 231.538 103.967V103.632C231.538 103.327 231.436 103.088 231.233 102.916C231.03 102.743 230.695 102.657 230.228 102.657H229.04C228.562 102.657 228.136 102.596 227.76 102.474C227.395 102.342 227.105 102.124 226.892 101.819C226.689 101.514 226.587 101.103 226.587 100.585V100.143C226.587 99.6255 226.684 99.199 226.877 98.8639C227.08 98.5287 227.4 98.2799 227.836 98.1175C228.273 97.9448 228.852 97.8585 229.573 97.8585C229.877 97.8585 230.213 97.8738 230.578 97.9042C230.954 97.9245 231.319 97.955 231.675 97.9956C232.03 98.0362 232.315 98.0819 232.528 98.1327V99.0466H229.299C228.852 99.0466 228.506 99.1228 228.263 99.2751C228.029 99.4274 227.912 99.7169 227.912 100.143V100.448C227.912 100.712 227.968 100.915 228.08 101.057C228.192 101.199 228.349 101.291 228.552 101.331C228.765 101.372 229.014 101.392 229.299 101.392H230.517C231.289 101.392 231.873 101.575 232.269 101.941C232.665 102.296 232.863 102.799 232.863 103.449V104.073C232.863 104.622 232.736 105.048 232.482 105.353C232.228 105.657 231.873 105.871 231.416 105.993C230.969 106.114 230.436 106.175 229.816 106.175ZM239.133 106.084V99.1837H237.914V98.1936L239.133 97.9347V97.1274C239.133 96.5181 239.209 96.0103 239.361 95.6041C239.513 95.1878 239.767 94.8781 240.123 94.675C240.478 94.4719 240.966 94.3703 241.585 94.3703C241.94 94.3703 242.245 94.3906 242.499 94.4312C242.763 94.4719 242.991 94.5074 243.184 94.5379V95.6346H241.859C241.534 95.6346 241.285 95.6854 241.113 95.7869C240.94 95.8885 240.818 96.0459 240.747 96.2591C240.686 96.4724 240.656 96.7364 240.656 97.0512V97.9347H243.047V99.1837H240.656V106.084H239.133ZM247.678 106.175C247.058 106.175 246.52 106.109 246.063 105.977C245.616 105.845 245.246 105.627 244.951 105.322C244.657 105.008 244.439 104.581 244.296 104.043C244.154 103.505 244.083 102.824 244.083 102.002C244.083 101.149 244.154 100.453 244.296 99.9149C244.439 99.3665 244.657 98.94 244.951 98.6354C245.246 98.3307 245.622 98.1225 246.079 98.0108C246.536 97.889 247.069 97.8281 247.678 97.8281C248.287 97.8281 248.82 97.889 249.277 98.0108C249.734 98.1327 250.11 98.346 250.405 98.6506C250.699 98.9552 250.917 99.3818 251.06 99.9301C251.202 100.468 251.273 101.159 251.273 102.002C251.273 102.834 251.202 103.525 251.06 104.073C250.917 104.612 250.699 105.033 250.405 105.338C250.12 105.642 249.75 105.861 249.293 105.993C248.836 106.114 248.297 106.175 247.678 106.175ZM247.678 104.926C248.013 104.926 248.308 104.896 248.561 104.835C248.825 104.774 249.044 104.647 249.216 104.454C249.389 104.251 249.521 103.951 249.612 103.555C249.704 103.159 249.75 102.636 249.75 101.986C249.75 101.337 249.704 100.819 249.612 100.433C249.521 100.037 249.389 99.7423 249.216 99.5493C249.044 99.3564 248.825 99.2294 248.561 99.1685C248.308 99.0974 248.013 99.0619 247.678 99.0619C247.333 99.0619 247.028 99.0974 246.764 99.1685C246.51 99.2294 246.297 99.3564 246.124 99.5493C245.962 99.7423 245.835 100.037 245.743 100.433C245.662 100.819 245.622 101.337 245.622 101.986C245.622 102.636 245.662 103.159 245.743 103.555C245.835 103.951 245.962 104.251 246.124 104.454C246.297 104.647 246.51 104.774 246.764 104.835C247.028 104.896 247.333 104.926 247.678 104.926ZM253.134 106.084V97.9347H254.307L254.657 99.3056C255.002 98.8892 255.388 98.5389 255.815 98.2546C256.241 97.9702 256.739 97.8281 257.307 97.8281C257.439 97.8281 257.566 97.8382 257.688 97.8585C257.81 97.8687 257.927 97.889 258.039 97.9194V99.4884C257.896 99.4681 257.749 99.4528 257.597 99.4427C257.444 99.4224 257.287 99.4122 257.125 99.4122C256.779 99.4122 256.47 99.4528 256.195 99.5341C255.921 99.6153 255.657 99.7423 255.403 99.9149C255.16 100.077 254.911 100.28 254.657 100.524V106.084H253.134ZM71.8715 128.099C71.3739 128.099 70.9524 128.013 70.6072 127.84C70.2721 127.668 70.0182 127.393 69.8455 127.018C69.6831 126.632 69.6018 126.114 69.6018 125.464V116.462H71.1251V125.266C71.1251 125.693 71.1657 126.023 71.2469 126.256C71.3383 126.48 71.4602 126.637 71.6125 126.728C71.775 126.82 71.9628 126.881 72.1761 126.911L72.9377 127.002V128.099H71.8715ZM75.7984 128.175C75.1993 128.175 74.7017 127.998 74.3057 127.642C73.9198 127.277 73.7268 126.774 73.7268 126.134V125.494C73.7268 124.865 73.9401 124.352 74.3666 123.956C74.8032 123.55 75.4582 123.347 76.3316 123.347H78.8754V122.494C78.8754 122.179 78.8195 121.915 78.7078 121.702C78.6062 121.478 78.4133 121.311 78.129 121.199C77.8446 121.087 77.4232 121.031 76.8647 121.031H74.3666V120.133C74.7322 120.051 75.1587 119.98 75.6461 119.919C76.1437 119.859 76.7225 119.823 77.3826 119.813C78.0528 119.813 78.6113 119.899 79.0581 120.072C79.5151 120.234 79.8553 120.508 80.0787 120.894C80.3021 121.27 80.4138 121.773 80.4138 122.402V128.084H79.2105L78.9515 127.185C78.8906 127.226 78.7637 127.302 78.5707 127.414C78.3778 127.515 78.129 127.627 77.8243 127.749C77.5298 127.871 77.2049 127.972 76.8495 128.054C76.5042 128.135 76.1538 128.175 75.7984 128.175ZM76.4991 127.063C76.6514 127.074 76.8291 127.058 77.0322 127.018C77.2455 126.977 77.4537 126.931 77.6568 126.881C77.87 126.82 78.063 126.759 78.2356 126.698C78.4184 126.637 78.5656 126.586 78.6773 126.546C78.7992 126.495 78.8652 126.464 78.8754 126.454V124.108L76.7428 124.2C76.2148 124.23 75.834 124.362 75.6004 124.596C75.377 124.829 75.2653 125.134 75.2653 125.51V125.875C75.2653 126.17 75.3262 126.408 75.4481 126.591C75.5699 126.764 75.7223 126.886 75.905 126.957C76.098 127.028 76.296 127.063 76.4991 127.063ZM82.4839 128.084V119.935H83.6568L84.0071 121.306C84.3524 120.889 84.7383 120.539 85.1648 120.255C85.5913 119.97 86.0889 119.828 86.6575 119.828C86.7896 119.828 86.9165 119.838 87.0383 119.859C87.1602 119.869 87.277 119.889 87.3887 119.919V121.488C87.2465 121.468 87.0993 121.453 86.947 121.443C86.7946 121.422 86.6372 121.412 86.4747 121.412C86.1295 121.412 85.8198 121.453 85.5456 121.534C85.2714 121.615 85.0074 121.742 84.7535 121.915C84.5098 122.077 84.261 122.28 84.0071 122.524V128.084H82.4839ZM90.8467 131.831C90.3288 131.831 89.8667 131.755 89.4605 131.603C89.0645 131.46 88.7497 131.237 88.5161 130.932C88.2826 130.638 88.1658 130.272 88.1658 129.836V129.501C88.1658 129.044 88.2927 128.658 88.5466 128.343C88.8106 128.038 89.1406 127.805 89.5367 127.642C89.9327 127.48 90.344 127.399 90.7705 127.399L91.1818 127.962C90.9076 127.962 90.6486 128.003 90.4049 128.084C90.1714 128.175 89.9784 128.312 89.8261 128.495C89.6839 128.688 89.6128 128.932 89.6128 129.226V129.516C89.6128 129.942 89.755 130.252 90.0394 130.445C90.3338 130.638 90.735 130.734 91.2427 130.734H93.0249C93.5631 130.734 93.9896 130.628 94.3044 130.415C94.6192 130.211 94.7766 129.892 94.7766 129.455V129.165C94.7766 128.922 94.7208 128.709 94.6091 128.526C94.5075 128.343 94.34 128.201 94.1064 128.099C93.8728 128.008 93.5529 127.962 93.1468 127.962H90.8924C90.1714 127.962 89.623 127.815 89.2473 127.52C88.8715 127.226 88.6837 126.855 88.6837 126.408C88.6837 126.002 88.8005 125.677 89.034 125.434C89.2777 125.18 89.6179 125.007 90.0546 124.916C89.689 124.753 89.3996 124.545 89.1863 124.291C88.9832 124.037 88.8411 123.763 88.7598 123.469C88.6786 123.164 88.638 122.859 88.638 122.555C88.638 121.935 88.7649 121.433 89.0188 121.047C89.2727 120.661 89.6382 120.376 90.1155 120.194C90.6029 120.011 91.1818 119.919 91.852 119.919H96.2389V120.788L94.5786 120.955C94.7005 121.047 94.8325 121.168 94.9746 121.321C95.1168 121.463 95.2387 121.661 95.3402 121.915C95.4418 122.169 95.4925 122.504 95.4925 122.92C95.4925 123.357 95.3961 123.763 95.2031 124.139C95.0203 124.515 94.7157 124.819 94.2892 125.053C93.8728 125.286 93.3042 125.403 92.5832 125.403H91.2427C90.8568 125.403 90.5522 125.459 90.3288 125.571C90.1054 125.682 89.9937 125.88 89.9937 126.165C89.9937 126.398 90.08 126.561 90.2526 126.652C90.4252 126.744 90.608 126.789 90.801 126.789H93.3752C93.9947 126.789 94.5126 126.87 94.9289 127.033C95.3554 127.195 95.6753 127.444 95.8886 127.779C96.1018 128.114 96.2085 128.551 96.2085 129.089V129.379C96.2085 130.151 95.9546 130.75 95.4468 131.176C94.9492 131.613 94.1927 131.831 93.1772 131.831H90.8467ZM91.5169 124.23H92.4156C92.8726 124.23 93.2178 124.164 93.4514 124.032C93.6951 123.89 93.8627 123.707 93.9541 123.484C94.0455 123.26 94.0912 123.012 94.0912 122.737C94.0912 122.331 94.0252 122.011 93.8931 121.778C93.7611 121.534 93.5783 121.361 93.3448 121.26C93.1214 121.148 92.8472 121.092 92.5222 121.092H91.6692C91.1513 121.092 90.7451 121.209 90.4506 121.443C90.1663 121.676 90.0241 122.077 90.0241 122.646C90.0241 123.205 90.1561 123.611 90.4202 123.865C90.6842 124.108 91.0498 124.23 91.5169 124.23ZM100.841 128.175C99.9778 128.175 99.2873 128.048 98.7694 127.795C98.2616 127.541 97.8961 127.114 97.6727 126.515C97.4594 125.906 97.3528 125.068 97.3528 124.002C97.3528 122.915 97.4594 122.072 97.6727 121.473C97.8961 120.864 98.2616 120.437 98.7694 120.194C99.2771 119.95 99.9626 119.828 100.826 119.828C101.577 119.828 102.181 119.909 102.638 120.072C103.106 120.224 103.446 120.503 103.659 120.91C103.882 121.306 103.994 121.859 103.994 122.57C103.994 123.067 103.893 123.464 103.689 123.758C103.496 124.052 103.217 124.266 102.852 124.398C102.496 124.53 102.07 124.596 101.572 124.596H98.876C98.8862 125.185 98.9522 125.657 99.074 126.012C99.2061 126.358 99.4345 126.612 99.7595 126.774C100.095 126.926 100.582 127.002 101.222 127.002H103.766V127.916C103.329 127.977 102.882 128.033 102.425 128.084C101.968 128.145 101.44 128.175 100.841 128.175ZM98.8608 123.636H101.435C101.841 123.636 102.141 123.56 102.334 123.408C102.527 123.255 102.623 122.976 102.623 122.57C102.623 122.164 102.562 121.844 102.44 121.61C102.329 121.377 102.141 121.209 101.877 121.108C101.613 121.006 101.262 120.955 100.826 120.955C100.328 120.955 99.9321 121.031 99.6376 121.184C99.3533 121.336 99.1502 121.605 99.0283 121.991C98.9166 122.377 98.8608 122.925 98.8608 123.636ZM105.152 124.291V123.042H109.676V124.291H105.152ZM113.952 128.175C113.739 128.175 113.485 128.17 113.191 128.16C112.896 128.15 112.592 128.13 112.277 128.099C111.972 128.079 111.688 128.054 111.424 128.023C111.17 127.993 110.967 127.957 110.815 127.916V127.002H114.242C114.536 127.002 114.79 126.982 115.004 126.942C115.217 126.891 115.379 126.789 115.491 126.637C115.613 126.485 115.674 126.261 115.674 125.967V125.632C115.674 125.327 115.572 125.088 115.369 124.916C115.166 124.743 114.831 124.657 114.364 124.657H113.176C112.698 124.657 112.272 124.596 111.896 124.474C111.531 124.342 111.241 124.124 111.028 123.819C110.825 123.514 110.723 123.103 110.723 122.585V122.143C110.723 121.625 110.82 121.199 111.013 120.864C111.216 120.529 111.536 120.28 111.972 120.117C112.409 119.945 112.988 119.859 113.709 119.859C114.013 119.859 114.349 119.874 114.714 119.904C115.09 119.925 115.455 119.955 115.811 119.996C116.166 120.036 116.451 120.082 116.664 120.133V121.047H113.435C112.988 121.047 112.642 121.123 112.399 121.275C112.165 121.427 112.048 121.717 112.048 122.143V122.448C112.048 122.712 112.104 122.915 112.216 123.057C112.328 123.199 112.485 123.291 112.688 123.331C112.901 123.372 113.15 123.392 113.435 123.392H114.653C115.425 123.392 116.009 123.575 116.405 123.941C116.801 124.296 116.999 124.799 116.999 125.449V126.073C116.999 126.622 116.872 127.048 116.618 127.353C116.364 127.657 116.009 127.871 115.552 127.993C115.105 128.114 114.572 128.175 113.952 128.175ZM121.766 128.175C121.289 128.175 120.847 128.114 120.441 127.993C120.045 127.861 119.695 127.642 119.39 127.338C119.096 127.033 118.867 126.612 118.705 126.073C118.542 125.535 118.461 124.855 118.461 124.032C118.461 123.189 118.537 122.499 118.689 121.961C118.842 121.412 119.06 120.986 119.344 120.681C119.639 120.366 119.994 120.148 120.411 120.026C120.827 119.904 121.294 119.843 121.812 119.843C122.239 119.843 122.685 119.864 123.152 119.904C123.63 119.945 124.092 120.011 124.539 120.102V121.001H122.239C121.741 121.001 121.325 121.082 120.989 121.245C120.654 121.397 120.406 121.697 120.243 122.143C120.081 122.58 119.999 123.215 119.999 124.047C119.999 124.85 120.086 125.469 120.258 125.906C120.431 126.332 120.68 126.622 121.005 126.774C121.34 126.926 121.756 127.002 122.254 127.002H124.66V127.871C124.427 127.932 124.148 127.988 123.823 128.038C123.508 128.079 123.173 128.109 122.817 128.13C122.472 128.16 122.122 128.175 121.766 128.175ZM127.832 128.175C127.233 128.175 126.736 127.998 126.34 127.642C125.954 127.277 125.761 126.774 125.761 126.134V125.494C125.761 124.865 125.974 124.352 126.401 123.956C126.837 123.55 127.492 123.347 128.365 123.347H130.909V122.494C130.909 122.179 130.853 121.915 130.742 121.702C130.64 121.478 130.447 121.311 130.163 121.199C129.879 121.087 129.457 121.031 128.899 121.031H126.401V120.133C126.766 120.051 127.193 119.98 127.68 119.919C128.178 119.859 128.756 119.823 129.417 119.813C130.087 119.813 130.645 119.899 131.092 120.072C131.549 120.234 131.889 120.508 132.113 120.894C132.336 121.27 132.448 121.773 132.448 122.402V128.084H131.244L130.985 127.185C130.925 127.226 130.798 127.302 130.605 127.414C130.412 127.515 130.163 127.627 129.858 127.749C129.564 127.871 129.239 127.972 128.883 128.054C128.538 128.135 128.188 128.175 127.832 128.175ZM128.533 127.063C128.685 127.074 128.863 127.058 129.066 127.018C129.279 126.977 129.488 126.931 129.691 126.881C129.904 126.82 130.097 126.759 130.27 126.698C130.452 126.637 130.6 126.586 130.711 126.546C130.833 126.495 130.899 126.464 130.909 126.454V124.108L128.777 124.2C128.249 124.23 127.868 124.362 127.634 124.596C127.411 124.829 127.299 125.134 127.299 125.51V125.875C127.299 126.17 127.36 126.408 127.482 126.591C127.604 126.764 127.756 126.886 127.939 126.957C128.132 127.028 128.33 127.063 128.533 127.063ZM136.787 128.099C136.29 128.099 135.868 128.013 135.523 127.84C135.188 127.668 134.934 127.393 134.762 127.018C134.599 126.632 134.518 126.114 134.518 125.464V116.462H136.041V125.266C136.041 125.693 136.082 126.023 136.163 126.256C136.254 126.48 136.376 126.637 136.528 126.728C136.691 126.82 136.879 126.881 137.092 126.911L137.854 127.002V128.099H136.787ZM142.299 128.175C141.435 128.175 140.745 128.048 140.227 127.795C139.719 127.541 139.354 127.114 139.13 126.515C138.917 125.906 138.81 125.068 138.81 124.002C138.81 122.915 138.917 122.072 139.13 121.473C139.354 120.864 139.719 120.437 140.227 120.194C140.735 119.95 141.42 119.828 142.283 119.828C143.035 119.828 143.639 119.909 144.096 120.072C144.563 120.224 144.903 120.503 145.117 120.91C145.34 121.306 145.452 121.859 145.452 122.57C145.452 123.067 145.35 123.464 145.147 123.758C144.954 124.052 144.675 124.266 144.309 124.398C143.954 124.53 143.527 124.596 143.03 124.596H140.334C140.344 125.185 140.41 125.657 140.532 126.012C140.664 126.358 140.892 126.612 141.217 126.774C141.552 126.926 142.04 127.002 142.679 127.002H145.223V127.916C144.787 127.977 144.34 128.033 143.883 128.084C143.426 128.145 142.898 128.175 142.299 128.175ZM140.318 123.636H142.893C143.299 123.636 143.598 123.56 143.791 123.408C143.984 123.255 144.081 122.976 144.081 122.57C144.081 122.164 144.02 121.844 143.898 121.61C143.786 121.377 143.598 121.209 143.334 121.108C143.07 121.006 142.72 120.955 142.283 120.955C141.786 120.955 141.39 121.031 141.095 121.184C140.811 121.336 140.608 121.605 140.486 121.991C140.374 122.377 140.318 122.925 140.318 123.636ZM154.677 128.175C154.058 128.175 153.52 128.109 153.063 127.977C152.616 127.845 152.245 127.627 151.951 127.322C151.656 127.008 151.438 126.581 151.296 126.043C151.154 125.505 151.083 124.824 151.083 124.002C151.083 123.149 151.154 122.453 151.296 121.915C151.438 121.367 151.656 120.94 151.951 120.635C152.245 120.331 152.621 120.123 153.078 120.011C153.535 119.889 154.068 119.828 154.677 119.828C155.287 119.828 155.82 119.889 156.277 120.011C156.734 120.133 157.109 120.346 157.404 120.651C157.698 120.955 157.917 121.382 158.059 121.93C158.201 122.468 158.272 123.159 158.272 124.002C158.272 124.834 158.201 125.525 158.059 126.073C157.917 126.612 157.698 127.033 157.404 127.338C157.12 127.642 156.749 127.861 156.292 127.993C155.835 128.114 155.297 128.175 154.677 128.175ZM154.677 126.926C155.012 126.926 155.307 126.896 155.561 126.835C155.825 126.774 156.043 126.647 156.216 126.454C156.388 126.251 156.52 125.951 156.612 125.555C156.703 125.159 156.749 124.636 156.749 123.986C156.749 123.337 156.703 122.819 156.612 122.433C156.52 122.037 156.388 121.742 156.216 121.549C156.043 121.356 155.825 121.229 155.561 121.168C155.307 121.097 155.012 121.062 154.677 121.062C154.332 121.062 154.027 121.097 153.763 121.168C153.51 121.229 153.296 121.356 153.124 121.549C152.961 121.742 152.834 122.037 152.743 122.433C152.662 122.819 152.621 123.337 152.621 123.986C152.621 124.636 152.662 125.159 152.743 125.555C152.834 125.951 152.961 126.251 153.124 126.454C153.296 126.647 153.51 126.774 153.763 126.835C154.027 126.896 154.332 126.926 154.677 126.926ZM160.133 128.084V119.935H161.306L161.656 121.306C162.002 120.889 162.388 120.539 162.814 120.255C163.241 119.97 163.738 119.828 164.307 119.828C164.439 119.828 164.566 119.838 164.688 119.859C164.809 119.869 164.926 119.889 165.038 119.919V121.488C164.896 121.468 164.749 121.453 164.596 121.443C164.444 121.422 164.286 121.412 164.124 121.412C163.779 121.412 163.469 121.453 163.195 121.534C162.921 121.615 162.657 121.742 162.403 121.915C162.159 122.077 161.91 122.28 161.656 122.524V128.084H160.133ZM168.496 131.831C167.978 131.831 167.516 131.755 167.11 131.603C166.714 131.46 166.399 131.237 166.165 130.932C165.932 130.638 165.815 130.272 165.815 129.836V129.501C165.815 129.044 165.942 128.658 166.196 128.343C166.46 128.038 166.79 127.805 167.186 127.642C167.582 127.48 167.993 127.399 168.42 127.399L168.831 127.962C168.557 127.962 168.298 128.003 168.054 128.084C167.821 128.175 167.628 128.312 167.475 128.495C167.333 128.688 167.262 128.932 167.262 129.226V129.516C167.262 129.942 167.404 130.252 167.689 130.445C167.983 130.638 168.384 130.734 168.892 130.734H170.674C171.212 130.734 171.639 130.628 171.954 130.415C172.268 130.211 172.426 129.892 172.426 129.455V129.165C172.426 128.922 172.37 128.709 172.258 128.526C172.157 128.343 171.989 128.201 171.756 128.099C171.522 128.008 171.202 127.962 170.796 127.962H168.542C167.821 127.962 167.272 127.815 166.897 127.52C166.521 127.226 166.333 126.855 166.333 126.408C166.333 126.002 166.45 125.677 166.683 125.434C166.927 125.18 167.267 125.007 167.704 124.916C167.338 124.753 167.049 124.545 166.836 124.291C166.633 124.037 166.49 123.763 166.409 123.469C166.328 123.164 166.287 122.859 166.287 122.555C166.287 121.935 166.414 121.433 166.668 121.047C166.922 120.661 167.287 120.376 167.765 120.194C168.252 120.011 168.831 119.919 169.501 119.919H173.888V120.788L172.228 120.955C172.35 121.047 172.482 121.168 172.624 121.321C172.766 121.463 172.888 121.661 172.989 121.915C173.091 122.169 173.142 122.504 173.142 122.92C173.142 123.357 173.045 123.763 172.852 124.139C172.67 124.515 172.365 124.819 171.938 125.053C171.522 125.286 170.953 125.403 170.232 125.403H168.892C168.506 125.403 168.201 125.459 167.978 125.571C167.755 125.682 167.643 125.88 167.643 126.165C167.643 126.398 167.729 126.561 167.902 126.652C168.075 126.744 168.257 126.789 168.45 126.789H171.024C171.644 126.789 172.162 126.87 172.578 127.033C173.005 127.195 173.325 127.444 173.538 127.779C173.751 128.114 173.858 128.551 173.858 129.089V129.379C173.858 130.151 173.604 130.75 173.096 131.176C172.599 131.613 171.842 131.831 170.826 131.831H168.496ZM169.166 124.23H170.065C170.522 124.23 170.867 124.164 171.101 124.032C171.344 123.89 171.512 123.707 171.603 123.484C171.695 123.26 171.74 123.012 171.74 122.737C171.74 122.331 171.674 122.011 171.542 121.778C171.41 121.534 171.228 121.361 170.994 121.26C170.771 121.148 170.496 121.092 170.171 121.092H169.318C168.801 121.092 168.394 121.209 168.1 121.443C167.816 121.676 167.673 122.077 167.673 122.646C167.673 123.205 167.805 123.611 168.069 123.865C168.333 124.108 168.699 124.23 169.166 124.23ZM176.757 128.175C176.158 128.175 175.661 127.998 175.265 127.642C174.879 127.277 174.686 126.774 174.686 126.134V125.494C174.686 124.865 174.899 124.352 175.325 123.956C175.762 123.55 176.417 123.347 177.29 123.347H179.834V122.494C179.834 122.179 179.778 121.915 179.667 121.702C179.565 121.478 179.372 121.311 179.088 121.199C178.804 121.087 178.382 121.031 177.824 121.031H175.325V120.133C175.691 120.051 176.118 119.98 176.605 119.919C177.103 119.859 177.681 119.823 178.341 119.813C179.012 119.813 179.57 119.899 180.017 120.072C180.474 120.234 180.814 120.508 181.038 120.894C181.261 121.27 181.373 121.773 181.373 122.402V128.084H180.169L179.91 127.185C179.849 127.226 179.723 127.302 179.53 127.414C179.337 127.515 179.088 127.627 178.783 127.749C178.489 127.871 178.164 127.972 177.808 128.054C177.463 128.135 177.113 128.175 176.757 128.175ZM177.458 127.063C177.61 127.074 177.788 127.058 177.991 127.018C178.204 126.977 178.413 126.931 178.616 126.881C178.829 126.82 179.022 126.759 179.195 126.698C179.377 126.637 179.525 126.586 179.636 126.546C179.758 126.495 179.824 126.464 179.834 126.454V124.108L177.702 124.2C177.174 124.23 176.793 124.362 176.559 124.596C176.336 124.829 176.224 125.134 176.224 125.51V125.875C176.224 126.17 176.285 126.408 176.407 126.591C176.529 126.764 176.681 126.886 176.864 126.957C177.057 127.028 177.255 127.063 177.458 127.063ZM183.443 128.084V119.935H184.661L184.966 120.818C185.332 120.554 185.763 120.321 186.261 120.117C186.769 119.904 187.291 119.798 187.83 119.798C188.439 119.798 188.926 119.93 189.292 120.194C189.668 120.448 189.937 120.788 190.099 121.214C190.262 121.641 190.343 122.103 190.343 122.6V128.084H188.82V122.783C188.82 122.458 188.754 122.179 188.622 121.945C188.5 121.702 188.327 121.514 188.104 121.382C187.88 121.25 187.606 121.184 187.281 121.184C186.977 121.184 186.692 121.214 186.428 121.275C186.174 121.336 185.931 121.422 185.697 121.534C185.464 121.636 185.22 121.763 184.966 121.915V128.084H183.443ZM192.641 118.564C192.458 118.564 192.367 118.477 192.367 118.305V117.025C192.367 116.843 192.458 116.751 192.641 116.751H193.768C193.849 116.751 193.91 116.777 193.951 116.827C193.991 116.878 194.012 116.944 194.012 117.025V118.305C194.012 118.477 193.93 118.564 193.768 118.564H192.641ZM192.427 128.084V119.935H193.951V128.084H192.427ZM195.767 128.084V126.957L200.2 121.184H195.645V119.935H201.982V121.077L197.534 126.85H201.982V128.084H195.767ZM205.303 128.175C204.704 128.175 204.206 127.998 203.81 127.642C203.424 127.277 203.232 126.774 203.232 126.134V125.494C203.232 124.865 203.445 124.352 203.871 123.956C204.308 123.55 204.963 123.347 205.836 123.347H208.38V122.494C208.38 122.179 208.324 121.915 208.212 121.702C208.111 121.478 207.918 121.311 207.634 121.199C207.349 121.087 206.928 121.031 206.369 121.031H203.871V120.133C204.237 120.051 204.663 119.98 205.151 119.919C205.648 119.859 206.227 119.823 206.887 119.813C207.557 119.813 208.116 119.899 208.563 120.072C209.02 120.234 209.36 120.508 209.583 120.894C209.807 121.27 209.919 121.773 209.919 122.402V128.084H208.715L208.456 127.185C208.395 127.226 208.268 127.302 208.075 127.414C207.882 127.515 207.634 127.627 207.329 127.749C207.035 127.871 206.71 127.972 206.354 128.054C206.009 128.135 205.659 128.175 205.303 128.175ZM206.004 127.063C206.156 127.074 206.334 127.058 206.537 127.018C206.75 126.977 206.958 126.931 207.161 126.881C207.375 126.82 207.568 126.759 207.74 126.698C207.923 126.637 208.07 126.586 208.182 126.546C208.304 126.495 208.37 126.464 208.38 126.454V124.108L206.248 124.2C205.719 124.23 205.339 124.362 205.105 124.596C204.882 124.829 204.77 125.134 204.77 125.51V125.875C204.77 126.17 204.831 126.408 204.953 126.591C205.075 126.764 205.227 126.886 205.41 126.957C205.603 127.028 205.801 127.063 206.004 127.063ZM214.807 128.084C214.258 128.084 213.801 127.998 213.436 127.825C213.08 127.642 212.816 127.353 212.644 126.957C212.481 126.561 212.405 126.033 212.415 125.373L212.476 121.184H211.181V120.194L212.506 119.935L212.735 117.65H213.938V119.935H216.147V121.184H213.938V125.357C213.938 125.672 213.969 125.926 214.03 126.119C214.091 126.312 214.177 126.459 214.289 126.561C214.4 126.662 214.522 126.738 214.654 126.789C214.786 126.83 214.913 126.855 215.035 126.865L216.04 126.957V128.084H214.807ZM217.899 118.564C217.716 118.564 217.625 118.477 217.625 118.305V117.025C217.625 116.843 217.716 116.751 217.899 116.751H219.026C219.107 116.751 219.168 116.777 219.209 116.827C219.25 116.878 219.27 116.944 219.27 117.025V118.305C219.27 118.477 219.189 118.564 219.026 118.564H217.899ZM217.686 128.084V119.935H219.209V128.084H217.686ZM224.666 128.175C224.046 128.175 223.508 128.109 223.051 127.977C222.604 127.845 222.234 127.627 221.939 127.322C221.645 127.008 221.426 126.581 221.284 126.043C221.142 125.505 221.071 124.824 221.071 124.002C221.071 123.149 221.142 122.453 221.284 121.915C221.426 121.367 221.645 120.94 221.939 120.635C222.234 120.331 222.609 120.123 223.066 120.011C223.523 119.889 224.056 119.828 224.666 119.828C225.275 119.828 225.808 119.889 226.265 120.011C226.722 120.133 227.098 120.346 227.392 120.651C227.687 120.955 227.905 121.382 228.047 121.93C228.19 122.468 228.261 123.159 228.261 124.002C228.261 124.834 228.19 125.525 228.047 126.073C227.905 126.612 227.687 127.033 227.392 127.338C227.108 127.642 226.737 127.861 226.28 127.993C225.823 128.114 225.285 128.175 224.666 128.175ZM224.666 126.926C225.001 126.926 225.295 126.896 225.549 126.835C225.813 126.774 226.032 126.647 226.204 126.454C226.377 126.251 226.509 125.951 226.6 125.555C226.692 125.159 226.737 124.636 226.737 123.986C226.737 123.337 226.692 122.819 226.6 122.433C226.509 122.037 226.377 121.742 226.204 121.549C226.032 121.356 225.813 121.229 225.549 121.168C225.295 121.097 225.001 121.062 224.666 121.062C224.321 121.062 224.016 121.097 223.752 121.168C223.498 121.229 223.285 121.356 223.112 121.549C222.95 121.742 222.823 122.037 222.731 122.433C222.65 122.819 222.609 123.337 222.609 123.986C222.609 124.636 222.65 125.159 222.731 125.555C222.823 125.951 222.95 126.251 223.112 126.454C223.285 126.647 223.498 126.774 223.752 126.835C224.016 126.896 224.321 126.926 224.666 126.926ZM230.122 128.084V119.935H231.34L231.645 120.818C232.01 120.554 232.442 120.321 232.94 120.117C233.447 119.904 233.97 119.798 234.509 119.798C235.118 119.798 235.605 119.93 235.971 120.194C236.347 120.448 236.616 120.788 236.778 121.214C236.941 121.641 237.022 122.103 237.022 122.6V128.084H235.499V122.783C235.499 122.458 235.433 122.179 235.301 121.945C235.179 121.702 235.006 121.514 234.783 121.382C234.559 121.25 234.285 121.184 233.96 121.184C233.655 121.184 233.371 121.214 233.107 121.275C232.853 121.336 232.61 121.422 232.376 121.534C232.142 121.636 231.899 121.763 231.645 121.915V128.084H230.122ZM241.955 128.175C241.741 128.175 241.488 128.17 241.193 128.16C240.899 128.15 240.594 128.13 240.279 128.099C239.975 128.079 239.69 128.054 239.426 128.023C239.172 127.993 238.969 127.957 238.817 127.916V127.002H242.244C242.539 127.002 242.793 126.982 243.006 126.942C243.219 126.891 243.381 126.789 243.493 126.637C243.615 126.485 243.676 126.261 243.676 125.967V125.632C243.676 125.327 243.574 125.088 243.371 124.916C243.168 124.743 242.833 124.657 242.366 124.657H241.178C240.701 124.657 240.274 124.596 239.898 124.474C239.533 124.342 239.243 124.124 239.03 123.819C238.827 123.514 238.725 123.103 238.725 122.585V122.143C238.725 121.625 238.822 121.199 239.015 120.864C239.218 120.529 239.538 120.28 239.975 120.117C240.411 119.945 240.99 119.859 241.711 119.859C242.016 119.859 242.351 119.874 242.716 119.904C243.092 119.925 243.458 119.955 243.813 119.996C244.169 120.036 244.453 120.082 244.666 120.133V121.047H241.437C240.99 121.047 240.645 121.123 240.401 121.275C240.167 121.427 240.051 121.717 240.051 122.143V122.448C240.051 122.712 240.107 122.915 240.218 123.057C240.33 123.199 240.487 123.291 240.69 123.331C240.904 123.372 241.152 123.392 241.437 123.392H242.655C243.427 123.392 244.011 123.575 244.407 123.941C244.803 124.296 245.001 124.799 245.001 125.449V126.073C245.001 126.622 244.874 127.048 244.62 127.353C244.367 127.657 244.011 127.871 243.554 127.993C243.107 128.114 242.574 128.175 241.955 128.175Z" fill="white"/>
</svg>
