<svg width="314" height="176" viewBox="0 0 314 176" fill="none" xmlns="http://www.w3.org/2000/svg">
<rect x="0.387207" y="0.929688" width="313.109" height="174.326" rx="16.9248" fill="#303030"/>
<mask id="mask0_1487_1682" style="mask-type:alpha" maskUnits="userSpaceOnUse" x="0" y="0" width="314" height="176">
<rect x="0.387207" y="0.929688" width="313.109" height="174.326" rx="16.9248" fill="url(#paint0_linear_1487_1682)"/>
</mask>
<g mask="url(#mask0_1487_1682)">
<path d="M52.8542 167.639C52.8542 196.616 29.364 220.106 0.387249 220.106C-28.5895 220.106 -52.0797 196.616 -52.0797 167.639C-52.0797 138.662 -28.5895 115.172 0.387249 115.172C29.364 115.172 52.8542 138.662 52.8542 167.639Z" fill="#7030A0"/>
<ellipse cx="60.6938" cy="61.938" rx="60.6938" ry="61.938" transform="matrix(0.861361 -0.507994 0.492048 0.870568 269.492 38.8984)" fill="#7030A0"/>
<circle cx="-21.6151" cy="116.019" r="52.467" fill="#545454"/>
<ellipse cx="60.6938" cy="61.938" rx="60.6938" ry="61.938" transform="matrix(0.861361 -0.507994 0.492048 0.870568 216.179 -19.4922)" fill="#545454"/>
</g>
<path d="M111.139 61.2363L104.894 49.2028C104.183 49.2028 103.404 49.2028 102.558 49.2028C101.712 49.1689 100.866 49.152 100.019 49.152C99.1731 49.1182 98.3607 49.1012 97.5822 49.1012V42.8052H106.214C106.789 42.8052 107.348 42.7206 107.889 42.5513C108.431 42.3482 108.905 42.0097 109.311 41.5358C109.751 41.0619 110.09 40.4188 110.327 39.6064C110.597 38.7602 110.733 37.6939 110.733 36.4076C110.733 34.8505 110.547 33.6489 110.174 32.8026C109.802 31.9225 109.311 31.3132 108.702 30.9747C108.092 30.6024 107.365 30.4162 106.518 30.4162H97.5822V23.6632H107.534C108.753 23.6632 109.988 23.8494 111.241 24.2217C112.527 24.5941 113.695 25.2541 114.744 26.2019C115.793 27.1497 116.64 28.4529 117.283 30.1116C117.926 31.7364 118.247 33.835 118.247 36.4076C118.247 38.5063 118.078 40.2665 117.74 41.6882C117.435 43.076 117.012 44.21 116.47 45.09C115.929 45.9701 115.302 46.6641 114.592 47.1718C113.881 47.6457 113.17 48.035 112.459 48.3396L119.314 61.2363H111.139ZM97.5822 38.4386V34.6305H124.34V38.4386H97.5822ZM106.214 27.4713V23.6632H124.34V27.4713H106.214ZM140.049 61.4902C138.39 61.4902 136.714 61.4225 135.022 61.2871C133.363 61.1517 131.857 60.9486 130.503 60.6778V54.7372H139.338C141.877 54.7372 143.738 53.9587 144.923 52.4016C146.108 50.8106 146.7 48.475 146.7 45.3947C145.955 45.6316 145.126 45.8178 144.212 45.9532C143.332 46.0886 142.401 46.1732 141.42 46.2071C140.438 46.2409 139.372 46.2579 138.221 46.2579C135.75 46.2579 133.786 45.9194 132.331 45.2424C130.875 44.5315 129.826 43.533 129.183 42.2467C128.574 40.9604 128.269 39.4202 128.269 37.6262V32.2441C128.269 30.1454 128.658 28.4529 129.437 27.1667C130.215 25.8465 131.299 24.8987 132.686 24.3233C134.108 23.714 135.733 23.4093 137.561 23.4093H142.994C144.821 23.4093 146.429 23.6971 147.817 24.2725C149.239 24.8141 150.424 25.7619 151.371 27.1159C152.319 28.4699 153.03 30.3654 153.504 32.8026C154.012 35.2059 154.266 38.2524 154.266 41.942C154.266 45.5978 153.944 48.695 153.301 51.2338C152.658 53.7386 151.727 55.7527 150.508 57.2759C149.29 58.7653 147.8 59.8485 146.04 60.5255C144.28 61.1686 142.283 61.4902 140.049 61.4902ZM140.353 39.8603H146.7C146.7 37.9308 146.599 36.3399 146.395 35.0875C146.192 33.835 145.871 32.8534 145.431 32.1426C145.025 31.3979 144.5 30.8901 143.857 30.6193C143.214 30.3147 142.435 30.1623 141.521 30.1623H139.236C138.525 30.1623 137.899 30.2808 137.358 30.5178C136.85 30.7547 136.461 31.1271 136.19 31.6348C135.919 32.1426 135.784 32.8534 135.784 33.7673V36.2045C135.784 37.1861 135.936 37.9478 136.241 38.4894C136.579 38.9971 137.087 39.3525 137.764 39.5556C138.441 39.7587 139.304 39.8603 140.353 39.8603ZM170.89 61.4902C169.232 61.4902 167.556 61.4225 165.864 61.2871C164.205 61.1517 162.699 60.9486 161.345 60.6778V54.7372H170.179C172.718 54.7372 174.58 53.9587 175.765 52.4016C176.949 50.8106 177.542 48.475 177.542 45.3947C176.797 45.6316 175.968 45.8178 175.054 45.9532C174.174 46.0886 173.243 46.1732 172.261 46.2071C171.279 46.2409 170.213 46.2579 169.062 46.2579C166.591 46.2579 164.628 45.9194 163.172 45.2424C161.717 44.5315 160.668 43.533 160.024 42.2467C159.415 40.9604 159.111 39.4202 159.111 37.6262V32.2441C159.111 30.1454 159.5 28.4529 160.278 27.1667C161.057 25.8465 162.14 24.8987 163.528 24.3233C164.95 23.714 166.574 23.4093 168.402 23.4093H173.835C175.663 23.4093 177.271 23.6971 178.659 24.2725C180.08 24.8141 181.265 25.7619 182.213 27.1159C183.161 28.4699 183.872 30.3654 184.345 32.8026C184.853 35.2059 185.107 38.2524 185.107 41.942C185.107 45.5978 184.785 48.695 184.142 51.2338C183.499 53.7386 182.568 55.7527 181.35 57.2759C180.131 58.7653 178.642 59.8485 176.882 60.5255C175.121 61.1686 173.124 61.4902 170.89 61.4902ZM171.195 39.8603H177.542C177.542 37.9308 177.44 36.3399 177.237 35.0875C177.034 33.835 176.712 32.8534 176.272 32.1426C175.866 31.3979 175.341 30.8901 174.698 30.6193C174.055 30.3147 173.277 30.1623 172.363 30.1623H170.078C169.367 30.1623 168.741 30.2808 168.199 30.5178C167.691 30.7547 167.302 31.1271 167.031 31.6348C166.761 32.1426 166.625 32.8534 166.625 33.7673V36.2045C166.625 37.1861 166.777 37.9478 167.082 38.4894C167.421 38.9971 167.928 39.3525 168.605 39.5556C169.282 39.7587 170.146 39.8603 171.195 39.8603ZM201.732 61.4902C200.073 61.4902 198.398 61.4225 196.705 61.2871C195.046 61.1517 193.54 60.9486 192.186 60.6778V54.7372H201.021C203.56 54.7372 205.421 53.9587 206.606 52.4016C207.791 50.8106 208.383 48.475 208.383 45.3947C207.638 45.6316 206.809 45.8178 205.895 45.9532C205.015 46.0886 204.084 46.1732 203.103 46.2071C202.121 46.2409 201.055 46.2579 199.904 46.2579C197.433 46.2579 195.47 45.9194 194.014 45.2424C192.558 44.5315 191.509 43.533 190.866 42.2467C190.257 40.9604 189.952 39.4202 189.952 37.6262V32.2441C189.952 30.1454 190.341 28.4529 191.12 27.1667C191.898 25.8465 192.982 24.8987 194.369 24.3233C195.791 23.714 197.416 23.4093 199.244 23.4093H204.677C206.505 23.4093 208.112 23.6971 209.5 24.2725C210.922 24.8141 212.107 25.7619 213.054 27.1159C214.002 28.4699 214.713 30.3654 215.187 32.8026C215.695 35.2059 215.949 38.2524 215.949 41.942C215.949 45.5978 215.627 48.695 214.984 51.2338C214.341 53.7386 213.41 55.7527 212.191 57.2759C210.973 58.7653 209.483 59.8485 207.723 60.5255C205.963 61.1686 203.966 61.4902 201.732 61.4902ZM202.036 39.8603H208.383C208.383 37.9308 208.282 36.3399 208.079 35.0875C207.875 33.835 207.554 32.8534 207.114 32.1426C206.708 31.3979 206.183 30.8901 205.54 30.6193C204.897 30.3147 204.118 30.1623 203.204 30.1623H200.919C200.208 30.1623 199.582 30.2808 199.041 30.5178C198.533 30.7547 198.144 31.1271 197.873 31.6348C197.602 32.1426 197.467 32.8534 197.467 33.7673V36.2045C197.467 37.1861 197.619 37.9478 197.924 38.4894C198.262 38.9971 198.77 39.3525 199.447 39.5556C200.124 39.7587 200.987 39.8603 202.036 39.8603Z" fill="white"/>
<path d="M99.1373 85.9635L103.18 73.8504H104.618L100.576 85.9635H99.1373ZM111.877 84.9421C111.407 84.9421 111.009 84.8606 110.682 84.6976C110.366 84.5345 110.126 84.2756 109.963 83.9207C109.81 83.5563 109.733 83.0671 109.733 82.4533V73.9511H111.172V82.2663C111.172 82.6691 111.21 82.9808 111.287 83.2014C111.373 83.4124 111.488 83.5611 111.632 83.6474C111.785 83.7337 111.963 83.7912 112.164 83.82L112.884 83.9063V84.9421H111.877ZM114.247 75.9364C114.075 75.9364 113.988 75.8549 113.988 75.6919V74.4834C113.988 74.3108 114.075 74.2245 114.247 74.2245H115.312C115.389 74.2245 115.446 74.2485 115.485 74.2964C115.523 74.3444 115.542 74.4067 115.542 74.4834V75.6919C115.542 75.8549 115.465 75.9364 115.312 75.9364H114.247ZM114.046 84.9277V77.2312H115.485V84.9277H114.046ZM120.365 85.0141C119.914 85.0141 119.497 84.9565 119.113 84.8414C118.739 84.7167 118.408 84.5105 118.121 84.2228C117.843 83.9351 117.627 83.5371 117.473 83.0288C117.32 82.5205 117.243 81.8779 117.243 81.101C117.243 80.305 117.315 79.6528 117.459 79.1445C117.603 78.6266 117.809 78.2238 118.078 77.9361C118.356 77.6388 118.691 77.4326 119.085 77.3175C119.478 77.2024 119.919 77.1449 120.408 77.1449C120.811 77.1449 121.233 77.164 121.674 77.2024C122.125 77.2408 122.561 77.3031 122.983 77.3894V78.2382H120.811C120.341 78.2382 119.948 78.3149 119.631 78.4684C119.315 78.6122 119.08 78.8952 118.926 79.3172C118.773 79.7296 118.696 80.329 118.696 81.1154C118.696 81.8731 118.778 82.4581 118.941 82.8705C119.104 83.2733 119.339 83.5467 119.646 83.6905C119.962 83.8344 120.355 83.9063 120.825 83.9063H123.098V84.7263C122.878 84.7839 122.614 84.8366 122.307 84.8846C122.01 84.9229 121.693 84.9517 121.358 84.9709C121.031 84.9997 120.701 85.0141 120.365 85.0141ZM127.59 85.0141C126.775 85.0141 126.123 84.8942 125.634 84.6544C125.154 84.4146 124.809 84.0118 124.598 83.446C124.396 82.8705 124.296 82.0793 124.296 81.0723C124.296 80.046 124.396 79.25 124.598 78.6842C124.809 78.1087 125.154 77.7059 125.634 77.4757C126.113 77.2456 126.76 77.1305 127.576 77.1305C128.285 77.1305 128.856 77.2072 129.288 77.3606C129.729 77.5045 130.05 77.7683 130.252 78.1519C130.463 78.5259 130.568 79.0486 130.568 79.72C130.568 80.1899 130.472 80.5639 130.28 80.8421C130.098 81.1202 129.834 81.3216 129.489 81.4463C129.153 81.571 128.751 81.6333 128.281 81.6333H125.734C125.744 82.1896 125.806 82.6355 125.921 82.9712C126.046 83.2973 126.262 83.5371 126.569 83.6905C126.885 83.8344 127.346 83.9063 127.95 83.9063H130.352V84.7695C129.94 84.827 129.518 84.8798 129.086 84.9277C128.655 84.9853 128.156 85.0141 127.59 85.0141ZM125.72 80.727H128.151C128.535 80.727 128.818 80.6551 129 80.5112C129.182 80.3673 129.273 80.1036 129.273 79.72C129.273 79.3363 129.216 79.0342 129.101 78.8136C128.995 78.5931 128.818 78.4348 128.568 78.3389C128.319 78.243 127.988 78.195 127.576 78.195C127.106 78.195 126.732 78.267 126.454 78.4108C126.185 78.5547 125.993 78.8088 125.878 79.1733C125.773 79.5377 125.72 80.0556 125.72 80.727ZM132.324 84.9277V77.2312H133.475L133.762 78.0656C134.108 77.8162 134.515 77.5956 134.985 77.4038C135.465 77.2024 135.959 77.1017 136.467 77.1017C137.042 77.1017 137.503 77.2264 137.848 77.4757C138.203 77.7155 138.457 78.0368 138.61 78.4396C138.764 78.8424 138.841 79.2788 138.841 79.7487V84.9277H137.402V79.9214C137.402 79.6145 137.34 79.3507 137.215 79.1301C137.1 78.9 136.937 78.7225 136.726 78.5978C136.515 78.4732 136.256 78.4108 135.949 78.4108C135.661 78.4108 135.393 78.4396 135.143 78.4971C134.904 78.5547 134.673 78.6362 134.453 78.7417C134.232 78.8376 134.002 78.9575 133.762 79.1014V84.9277H132.324ZM143.499 85.0141C143.298 85.0141 143.058 85.0093 142.78 84.9997C142.502 84.9901 142.214 84.9709 141.917 84.9421C141.629 84.9229 141.361 84.899 141.111 84.8702C140.872 84.8414 140.68 84.8079 140.536 84.7695V83.9063H143.773C144.051 83.9063 144.291 83.8871 144.492 83.8488C144.693 83.8008 144.847 83.7049 144.952 83.5611C145.068 83.4172 145.125 83.2062 145.125 82.9281V82.6116C145.125 82.3238 145.029 82.0985 144.837 81.9354C144.646 81.7724 144.329 81.6909 143.888 81.6909H142.766C142.315 81.6909 141.912 81.6333 141.557 81.5182C141.212 81.3935 140.939 81.1873 140.737 80.8996C140.545 80.6119 140.45 80.2235 140.45 79.7344V79.3172C140.45 78.828 140.541 78.4252 140.723 78.1087C140.915 77.7922 141.217 77.5573 141.629 77.4038C142.042 77.2408 142.588 77.1592 143.269 77.1592C143.557 77.1592 143.873 77.1736 144.219 77.2024C144.574 77.2216 144.919 77.2504 145.255 77.2887C145.59 77.3271 145.859 77.3702 146.06 77.4182V78.2814H143.01C142.588 78.2814 142.262 78.3533 142.032 78.4971C141.811 78.641 141.701 78.9143 141.701 79.3172V79.6049C141.701 79.8542 141.754 80.0461 141.859 80.1803C141.965 80.3146 142.114 80.4009 142.305 80.4393C142.507 80.4776 142.742 80.4968 143.01 80.4968H144.161C144.89 80.4968 145.442 80.6694 145.816 81.0147C146.19 81.3504 146.377 81.8251 146.377 82.4389V83.0288C146.377 83.5467 146.257 83.9495 146.017 84.2372C145.777 84.5249 145.442 84.7263 145.01 84.8414C144.588 84.9565 144.084 85.0141 143.499 85.0141ZM151.052 85.0141C150.237 85.0141 149.584 84.8942 149.095 84.6544C148.616 84.4146 148.27 84.0118 148.059 83.446C147.858 82.8705 147.757 82.0793 147.757 81.0723C147.757 80.046 147.858 79.25 148.059 78.6842C148.27 78.1087 148.616 77.7059 149.095 77.4757C149.575 77.2456 150.222 77.1305 151.037 77.1305C151.747 77.1305 152.318 77.2072 152.749 77.3606C153.191 77.5045 153.512 77.7683 153.713 78.1519C153.924 78.5259 154.03 79.0486 154.03 79.72C154.03 80.1899 153.934 80.5639 153.742 80.8421C153.56 81.1202 153.296 81.3216 152.951 81.4463C152.615 81.571 152.212 81.6333 151.742 81.6333H149.196C149.206 82.1896 149.268 82.6355 149.383 82.9712C149.508 83.2973 149.723 83.5371 150.03 83.6905C150.347 83.8344 150.807 83.9063 151.411 83.9063H153.814V84.7695C153.402 84.827 152.98 84.8798 152.548 84.9277C152.116 84.9853 151.618 85.0141 151.052 85.0141ZM149.182 80.727H151.613C151.996 80.727 152.279 80.6551 152.462 80.5112C152.644 80.3673 152.735 80.1036 152.735 79.72C152.735 79.3363 152.677 79.0342 152.562 78.8136C152.457 78.5931 152.279 78.4348 152.03 78.3389C151.781 78.243 151.45 78.195 151.037 78.195C150.567 78.195 150.193 78.267 149.915 78.4108C149.647 78.5547 149.455 78.8088 149.34 79.1733C149.234 79.5377 149.182 80.0556 149.182 80.727ZM159.607 84.9277V77.2312H160.758L161.045 78.0656C161.419 77.8066 161.832 77.5812 162.283 77.3894C162.733 77.1976 163.251 77.1017 163.836 77.1017C164.316 77.1017 164.723 77.2072 165.059 77.4182C165.395 77.6292 165.649 77.8977 165.821 78.2238C166.052 78.0512 166.33 77.8785 166.656 77.7059C166.982 77.5333 167.332 77.3894 167.706 77.2743C168.08 77.1592 168.44 77.1017 168.785 77.1017C169.36 77.1017 169.826 77.2216 170.18 77.4613C170.545 77.6915 170.804 78.0128 170.957 78.4252C171.12 78.828 171.202 79.2884 171.202 79.8063V84.9277H169.763V79.9214C169.763 79.6145 169.701 79.3507 169.576 79.1301C169.461 78.9 169.293 78.7225 169.073 78.5978C168.862 78.4732 168.603 78.4108 168.296 78.4108C167.912 78.4108 167.519 78.4876 167.116 78.641C166.713 78.7849 166.344 78.9623 166.009 79.1733C166.047 79.298 166.076 79.4274 166.095 79.5617C166.114 79.6864 166.124 79.8111 166.124 79.9358V84.9277H164.685V79.9214C164.685 79.6145 164.623 79.3507 164.498 79.1301C164.383 78.9 164.22 78.7225 164.009 78.5978C163.798 78.4732 163.539 78.4108 163.232 78.4108C162.944 78.4108 162.676 78.4396 162.426 78.4971C162.187 78.5547 161.956 78.6362 161.736 78.7417C161.515 78.8376 161.285 78.9575 161.045 79.1014V84.9277H159.607ZM176.314 85.0141C175.729 85.0141 175.221 84.9517 174.789 84.827C174.367 84.7024 174.017 84.4962 173.739 84.2084C173.461 83.9111 173.255 83.5083 173.12 83C172.986 82.4917 172.919 81.8491 172.919 81.0723C172.919 80.2666 172.986 79.6097 173.12 79.1014C173.255 78.5835 173.461 78.1807 173.739 77.8929C174.017 77.6052 174.372 77.4086 174.804 77.3031C175.235 77.188 175.739 77.1305 176.314 77.1305C176.89 77.1305 177.393 77.188 177.825 77.3031C178.256 77.4182 178.611 77.6196 178.889 77.9073C179.167 78.195 179.374 78.5978 179.508 79.1157C179.642 79.6241 179.709 80.2762 179.709 81.0723C179.709 81.8587 179.642 82.5109 179.508 83.0288C179.374 83.5371 179.167 83.9351 178.889 84.2228C178.621 84.5105 178.271 84.7167 177.839 84.8414C177.407 84.9565 176.899 85.0141 176.314 85.0141ZM176.314 83.8344C176.631 83.8344 176.909 83.8056 177.149 83.7481C177.398 83.6905 177.604 83.5706 177.767 83.3884C177.93 83.1966 178.055 82.9137 178.141 82.5396C178.227 82.1656 178.271 81.6717 178.271 81.0579C178.271 80.4441 178.227 79.9549 178.141 79.5905C178.055 79.2165 177.93 78.9383 177.767 78.7561C177.604 78.5739 177.398 78.454 177.149 78.3964C176.909 78.3293 176.631 78.2957 176.314 78.2957C175.988 78.2957 175.7 78.3293 175.451 78.3964C175.211 78.454 175.01 78.5739 174.847 78.7561C174.693 78.9383 174.573 79.2165 174.487 79.5905C174.41 79.9549 174.372 80.4441 174.372 81.0579C174.372 81.6717 174.41 82.1656 174.487 82.5396C174.573 82.9137 174.693 83.1966 174.847 83.3884C175.01 83.5706 175.211 83.6905 175.451 83.7481C175.7 83.8056 175.988 83.8344 176.314 83.8344ZM181.467 84.9277V77.2312H182.618L182.905 78.0656C183.251 77.8162 183.658 77.5956 184.128 77.4038C184.608 77.2024 185.102 77.1017 185.61 77.1017C186.185 77.1017 186.646 77.2264 186.991 77.4757C187.346 77.7155 187.6 78.0368 187.754 78.4396C187.907 78.8424 187.984 79.2788 187.984 79.7487V84.9277H186.545V79.9214C186.545 79.6145 186.483 79.3507 186.358 79.1301C186.243 78.9 186.08 78.7225 185.869 78.5978C185.658 78.4732 185.399 78.4108 185.092 78.4108C184.804 78.4108 184.536 78.4396 184.287 78.4971C184.047 78.5547 183.817 78.6362 183.596 78.7417C183.375 78.8376 183.145 78.9575 182.905 79.1014V84.9277H181.467ZM192.614 84.9277C192.096 84.9277 191.664 84.8462 191.319 84.6832C190.983 84.5105 190.734 84.2372 190.571 83.8632C190.418 83.4891 190.346 82.9904 190.355 82.367L190.413 78.4108H189.19V77.4757L190.442 77.2312L190.657 75.0733H191.794V77.2312H193.88V78.4108H191.794V82.3526C191.794 82.6499 191.823 82.8897 191.88 83.0719C191.938 83.2542 192.019 83.3932 192.125 83.4891C192.23 83.585 192.345 83.657 192.47 83.7049C192.595 83.7433 192.715 83.7673 192.83 83.7768L193.779 83.8632V84.9277H192.614ZM195.333 84.9277V73.9511H196.772V78.0656C197.107 77.8162 197.515 77.5956 197.995 77.4038C198.474 77.2024 198.968 77.1017 199.476 77.1017C200.033 77.1017 200.483 77.2168 200.829 77.447C201.183 77.6771 201.442 77.9936 201.605 78.3964C201.769 78.7897 201.85 79.2356 201.85 79.7344V84.9277H200.411V79.907C200.411 79.6097 200.349 79.3507 200.224 79.1301C200.109 78.9 199.941 78.7225 199.721 78.5978C199.51 78.4732 199.256 78.4108 198.958 78.4108C198.671 78.4108 198.402 78.4396 198.153 78.4971C197.913 78.5547 197.683 78.6362 197.462 78.7417C197.242 78.8472 197.012 78.9671 196.772 79.1014V84.9277H195.333ZM205.962 84.9421C205.492 84.9421 205.094 84.8606 204.768 84.6976C204.452 84.5345 204.212 84.2756 204.049 83.9207C203.895 83.5563 203.819 83.0671 203.819 82.4533V73.9511H205.257V82.2663C205.257 82.6691 205.296 82.9808 205.372 83.2014C205.459 83.4124 205.574 83.5611 205.718 83.6474C205.871 83.7337 206.049 83.7912 206.25 83.82L206.969 83.9063V84.9421H205.962ZM210.304 88.3372L211.239 84.9277C210.932 84.9181 210.64 84.8558 210.362 84.7407C210.083 84.616 209.834 84.4194 209.613 84.1509C209.402 83.8728 209.23 83.5035 209.096 83.0432L207.369 77.2312H208.88L210.433 82.741C210.52 83 210.616 83.1966 210.721 83.3309C210.836 83.4651 210.947 83.5611 211.052 83.6186C211.167 83.6666 211.268 83.6953 211.354 83.7049C211.44 83.7145 211.493 83.7193 211.512 83.7193L213.311 77.2312H214.792L212.145 86.913L211.455 88.3372H210.304Z" fill="#878787"/>
<path d="M76.6608 119.775L74.5587 115.663C74.3455 115.663 74.0916 115.663 73.7971 115.663C73.5026 115.653 73.203 115.642 72.8984 115.632C72.5937 115.622 72.3196 115.612 72.0758 115.602V114.353H74.8481C75.0715 114.353 75.2848 114.322 75.4879 114.261C75.7011 114.2 75.8839 114.089 76.0362 113.926C76.1987 113.764 76.3257 113.535 76.4171 113.241C76.5186 112.936 76.5694 112.55 76.5694 112.083C76.5694 111.484 76.4983 111.032 76.3561 110.727C76.214 110.423 76.0261 110.215 75.7925 110.103C75.559 109.981 75.3 109.92 75.0157 109.92H72.0758V108.549H75.0918C75.4371 108.549 75.7824 108.6 76.1276 108.701C76.4831 108.793 76.808 108.966 77.1025 109.219C77.4072 109.463 77.6509 109.819 77.8337 110.286C78.0165 110.743 78.1078 111.342 78.1078 112.083C78.1078 112.723 78.0469 113.256 77.9251 113.682C77.8032 114.099 77.6407 114.429 77.4376 114.673C77.2447 114.916 77.0314 115.104 76.7979 115.236C76.5643 115.358 76.3307 115.449 76.0972 115.51L78.3059 119.775H76.6608ZM72.0758 112.525V111.702H80.0424V112.525H72.0758ZM74.513 109.372V108.549H80.0424V109.372H74.513ZM86.3847 119.76V117.064H81.2057L80.8858 116.272L84.9376 108.549H86.5066L82.6833 115.754H86.3847V112.997L86.7046 111.885H87.9232V115.754H89.3398V116.805L87.9232 117.064V119.76H86.3847ZM94.0704 119.852C93.6134 119.852 93.1311 119.831 92.6233 119.791C92.1156 119.76 91.6586 119.72 91.2524 119.669V118.465H93.979C94.8219 118.465 95.4667 118.166 95.9135 117.567C96.3603 116.957 96.5837 116.038 96.5837 114.81C96.3095 114.86 95.9998 114.901 95.6546 114.932C95.3194 114.962 94.9793 114.982 94.634 114.992C94.2887 115.003 93.9638 115.008 93.6591 115.008C92.9686 115.008 92.3948 114.921 91.9379 114.749C91.4809 114.576 91.1407 114.312 90.9173 113.957C90.6939 113.601 90.5822 113.144 90.5822 112.586V110.986C90.5822 110.377 90.699 109.89 90.9325 109.524C91.1661 109.158 91.4809 108.894 91.8769 108.732C92.2831 108.569 92.735 108.488 93.2326 108.488H94.9386C95.4362 108.488 95.883 108.575 96.2791 108.747C96.6751 108.91 97.0052 109.199 97.2692 109.615C97.5434 110.022 97.7515 110.59 97.8937 111.321C98.046 112.053 98.1222 112.977 98.1222 114.094C98.1222 115.13 98.0308 116.013 97.848 116.744C97.6652 117.475 97.3961 118.074 97.0407 118.542C96.6954 118.999 96.274 119.334 95.7764 119.547C95.2788 119.75 94.7101 119.852 94.0704 119.852ZM94.0399 113.698H96.5837C96.5837 112.936 96.5431 112.306 96.4619 111.809C96.3806 111.301 96.2588 110.91 96.0963 110.636C95.9338 110.352 95.7307 110.154 95.487 110.042C95.2534 109.92 94.9793 109.859 94.6645 109.859H93.5525C93.2783 109.859 93.0295 109.9 92.8061 109.981C92.5929 110.062 92.4202 110.204 92.2882 110.407C92.1663 110.611 92.1054 110.895 92.1054 111.261V112.312C92.1054 112.697 92.1816 112.987 92.3339 113.18C92.4862 113.373 92.7046 113.51 92.9889 113.591C93.2834 113.662 93.6337 113.698 94.0399 113.698ZM100.531 121.024C100.399 121.024 100.283 121.009 100.181 120.979C100.09 120.958 100.044 120.948 100.044 120.948V120.476C100.166 120.476 100.252 120.456 100.303 120.415C100.364 120.375 100.394 120.303 100.394 120.202V119.684H100.257C100.186 119.684 100.125 119.659 100.074 119.608C100.024 119.557 99.9983 119.486 99.9983 119.395V118.237C99.9983 118.034 100.085 117.932 100.257 117.932H101.11C101.212 117.932 101.278 117.963 101.308 118.024C101.349 118.074 101.369 118.146 101.369 118.237V120.156C101.369 120.4 101.323 120.583 101.232 120.705C101.151 120.837 101.044 120.923 100.912 120.964C100.78 121.004 100.653 121.024 100.531 121.024ZM106.182 119.821C105.613 119.821 105.116 119.725 104.689 119.532C104.263 119.329 103.933 119.024 103.699 118.618C103.466 118.212 103.349 117.699 103.349 117.079V111.276C103.349 110.656 103.466 110.138 103.699 109.722C103.933 109.306 104.263 108.991 104.689 108.778C105.126 108.564 105.623 108.458 106.182 108.458H108.421C109.051 108.458 109.564 108.575 109.96 108.808C110.366 109.042 110.665 109.367 110.858 109.783C111.061 110.199 111.163 110.697 111.163 111.276V117.079C111.163 118.003 110.914 118.694 110.417 119.151C109.929 119.598 109.259 119.821 108.406 119.821H106.182ZM106.502 118.435H108.04C108.599 118.435 109 118.298 109.244 118.024C109.498 117.749 109.625 117.364 109.625 116.866V111.413C109.625 110.864 109.493 110.463 109.228 110.209C108.964 109.956 108.589 109.829 108.101 109.829H106.456C105.969 109.829 105.583 109.966 105.299 110.24C105.014 110.514 104.872 110.905 104.872 111.413V116.866C104.872 117.394 105.014 117.79 105.299 118.054C105.593 118.308 105.994 118.435 106.502 118.435ZM116.134 119.821C115.565 119.821 115.067 119.725 114.641 119.532C114.214 119.329 113.884 119.024 113.651 118.618C113.417 118.212 113.3 117.699 113.3 117.079V111.276C113.3 110.656 113.417 110.138 113.651 109.722C113.884 109.306 114.214 108.991 114.641 108.778C115.078 108.564 115.575 108.458 116.134 108.458H118.373C119.002 108.458 119.515 108.575 119.911 108.808C120.317 109.042 120.617 109.367 120.81 109.783C121.013 110.199 121.115 110.697 121.115 111.276V117.079C121.115 118.003 120.866 118.694 120.368 119.151C119.881 119.598 119.211 119.821 118.358 119.821H116.134ZM116.453 118.435H117.992C118.55 118.435 118.952 118.298 119.195 118.024C119.449 117.749 119.576 117.364 119.576 116.866V111.413C119.576 110.864 119.444 110.463 119.18 110.209C118.916 109.956 118.54 109.829 118.053 109.829H116.408C115.92 109.829 115.534 109.966 115.25 110.24C114.966 110.514 114.824 110.905 114.824 111.413V116.866C114.824 117.394 114.966 117.79 115.25 118.054C115.545 118.308 115.946 118.435 116.453 118.435ZM126.085 119.821C125.517 119.821 125.019 119.725 124.592 119.532C124.166 119.329 123.836 119.024 123.602 118.618C123.369 118.212 123.252 117.699 123.252 117.079V111.276C123.252 110.656 123.369 110.138 123.602 109.722C123.836 109.306 124.166 108.991 124.592 108.778C125.029 108.564 125.527 108.458 126.085 108.458H128.324C128.954 108.458 129.467 108.575 129.863 108.808C130.269 109.042 130.569 109.367 130.762 109.783C130.965 110.199 131.066 110.697 131.066 111.276V117.079C131.066 118.003 130.817 118.694 130.32 119.151C129.832 119.598 129.162 119.821 128.309 119.821H126.085ZM126.405 118.435H127.944C128.502 118.435 128.903 118.298 129.147 118.024C129.401 117.749 129.528 117.364 129.528 116.866V111.413C129.528 110.864 129.396 110.463 129.132 110.209C128.868 109.956 128.492 109.829 128.004 109.829H126.359C125.872 109.829 125.486 109.966 125.202 110.24C124.917 110.514 124.775 110.905 124.775 111.413V116.866C124.775 117.394 124.917 117.79 125.202 118.054C125.496 118.308 125.897 118.435 126.405 118.435ZM140.57 119.867C139.951 119.867 139.413 119.801 138.956 119.669C138.509 119.537 138.138 119.318 137.844 119.014C137.549 118.699 137.331 118.272 137.189 117.734C137.047 117.196 136.976 116.516 136.976 115.693C136.976 114.84 137.047 114.145 137.189 113.606C137.331 113.058 137.549 112.631 137.844 112.327C138.138 112.022 138.514 111.814 138.971 111.702C139.428 111.58 139.961 111.519 140.57 111.519C141.18 111.519 141.713 111.58 142.17 111.702C142.627 111.824 143.002 112.037 143.297 112.342C143.591 112.647 143.81 113.073 143.952 113.622C144.094 114.16 144.165 114.85 144.165 115.693C144.165 116.526 144.094 117.216 143.952 117.765C143.81 118.303 143.591 118.724 143.297 119.029C143.013 119.334 142.642 119.552 142.185 119.684C141.728 119.806 141.19 119.867 140.57 119.867ZM140.57 118.618C140.905 118.618 141.2 118.587 141.454 118.526C141.718 118.465 141.936 118.338 142.109 118.146C142.281 117.942 142.413 117.643 142.505 117.247C142.596 116.851 142.642 116.328 142.642 115.678C142.642 115.028 142.596 114.51 142.505 114.124C142.413 113.728 142.281 113.434 142.109 113.241C141.936 113.048 141.718 112.921 141.454 112.86C141.2 112.789 140.905 112.753 140.57 112.753C140.225 112.753 139.92 112.789 139.656 112.86C139.403 112.921 139.189 113.048 139.017 113.241C138.854 113.434 138.727 113.728 138.636 114.124C138.555 114.51 138.514 115.028 138.514 115.678C138.514 116.328 138.555 116.851 138.636 117.247C138.727 117.643 138.854 117.942 139.017 118.146C139.189 118.338 139.403 118.465 139.656 118.526C139.92 118.587 140.225 118.618 140.57 118.618ZM146.026 119.775V111.626H147.245L147.549 112.51C147.915 112.246 148.347 112.012 148.844 111.809C149.352 111.596 149.875 111.489 150.413 111.489C151.022 111.489 151.51 111.621 151.875 111.885C152.251 112.139 152.52 112.479 152.683 112.906C152.845 113.332 152.926 113.794 152.926 114.292V119.775H151.403V114.475C151.403 114.15 151.337 113.87 151.205 113.637C151.083 113.393 150.911 113.205 150.687 113.073C150.464 112.941 150.19 112.875 149.865 112.875C149.56 112.875 149.276 112.906 149.012 112.967C148.758 113.027 148.514 113.114 148.281 113.225C148.047 113.327 147.803 113.454 147.549 113.606V119.775H146.026ZM159.154 119.867C158.778 119.867 158.428 119.821 158.103 119.73C157.788 119.638 157.499 119.527 157.235 119.395C156.981 119.252 156.747 119.11 156.534 118.968L156.26 119.775H155.011V108.153H156.534V112.312C156.91 112.108 157.326 111.926 157.783 111.763C158.25 111.601 158.682 111.519 159.078 111.519C159.748 111.519 160.296 111.662 160.723 111.946C161.149 112.22 161.464 112.667 161.667 113.286C161.881 113.906 161.987 114.733 161.987 115.769C161.987 116.632 161.891 117.374 161.698 117.993C161.505 118.603 161.2 119.07 160.784 119.395C160.368 119.709 159.824 119.867 159.154 119.867ZM158.621 118.602C159.017 118.602 159.347 118.506 159.611 118.313C159.885 118.11 160.093 117.795 160.236 117.369C160.388 116.932 160.464 116.374 160.464 115.693C160.464 114.86 160.383 114.236 160.22 113.82C160.058 113.403 159.839 113.124 159.565 112.982C159.291 112.84 158.976 112.769 158.621 112.769C158.215 112.769 157.844 112.829 157.509 112.951C157.184 113.063 156.859 113.205 156.534 113.378V118.024C156.808 118.166 157.118 118.298 157.463 118.42C157.809 118.542 158.194 118.602 158.621 118.602ZM167.167 119.867C166.548 119.867 166.01 119.801 165.553 119.669C165.106 119.537 164.735 119.318 164.441 119.014C164.146 118.699 163.928 118.272 163.786 117.734C163.644 117.196 163.573 116.516 163.573 115.693C163.573 114.84 163.644 114.145 163.786 113.606C163.928 113.058 164.146 112.631 164.441 112.327C164.735 112.022 165.111 111.814 165.568 111.702C166.025 111.58 166.558 111.519 167.167 111.519C167.777 111.519 168.31 111.58 168.767 111.702C169.224 111.824 169.6 112.037 169.894 112.342C170.189 112.647 170.407 113.073 170.549 113.622C170.691 114.16 170.762 114.85 170.762 115.693C170.762 116.526 170.691 117.216 170.549 117.765C170.407 118.303 170.189 118.724 169.894 119.029C169.61 119.334 169.239 119.552 168.782 119.684C168.325 119.806 167.787 119.867 167.167 119.867ZM167.167 118.618C167.503 118.618 167.797 118.587 168.051 118.526C168.315 118.465 168.533 118.338 168.706 118.146C168.879 117.942 169.011 117.643 169.102 117.247C169.193 116.851 169.239 116.328 169.239 115.678C169.239 115.028 169.193 114.51 169.102 114.124C169.011 113.728 168.879 113.434 168.706 113.241C168.533 113.048 168.315 112.921 168.051 112.86C167.797 112.789 167.503 112.753 167.167 112.753C166.822 112.753 166.518 112.789 166.253 112.86C166 112.921 165.786 113.048 165.614 113.241C165.451 113.434 165.324 113.728 165.233 114.124C165.152 114.51 165.111 115.028 165.111 115.678C165.111 116.328 165.152 116.851 165.233 117.247C165.324 117.643 165.451 117.942 165.614 118.146C165.786 118.338 166 118.465 166.253 118.526C166.518 118.587 166.822 118.618 167.167 118.618ZM174.253 119.867C173.654 119.867 173.156 119.689 172.76 119.334C172.374 118.968 172.182 118.465 172.182 117.826V117.186C172.182 116.556 172.395 116.043 172.821 115.647C173.258 115.241 173.913 115.038 174.786 115.038H177.33V114.185C177.33 113.87 177.274 113.606 177.162 113.393C177.061 113.17 176.868 113.002 176.584 112.89C176.299 112.779 175.878 112.723 175.319 112.723H172.821V111.824C173.187 111.743 173.613 111.672 174.101 111.611C174.598 111.55 175.177 111.514 175.837 111.504C176.507 111.504 177.066 111.591 177.513 111.763C177.97 111.926 178.31 112.2 178.533 112.586C178.757 112.961 178.869 113.464 178.869 114.094V119.775H177.665L177.406 118.877C177.345 118.917 177.218 118.993 177.025 119.105C176.832 119.207 176.584 119.318 176.279 119.44C175.985 119.562 175.66 119.664 175.304 119.745C174.959 119.826 174.609 119.867 174.253 119.867ZM174.954 118.755C175.106 118.765 175.284 118.75 175.487 118.709C175.7 118.669 175.908 118.623 176.111 118.572C176.325 118.511 176.518 118.45 176.69 118.389C176.873 118.328 177.02 118.278 177.132 118.237C177.254 118.186 177.32 118.156 177.33 118.146V115.8L175.198 115.891C174.669 115.922 174.289 116.054 174.055 116.287C173.832 116.521 173.72 116.825 173.72 117.201V117.567C173.72 117.861 173.781 118.1 173.903 118.283C174.025 118.455 174.177 118.577 174.36 118.648C174.553 118.719 174.751 118.755 174.954 118.755ZM180.939 119.775V111.626H182.111L182.462 112.997C182.807 112.581 183.193 112.23 183.619 111.946C184.046 111.662 184.544 111.519 185.112 111.519C185.244 111.519 185.371 111.53 185.493 111.55C185.615 111.56 185.732 111.58 185.843 111.611V113.18C185.701 113.159 185.554 113.144 185.402 113.134C185.249 113.114 185.092 113.104 184.929 113.104C184.584 113.104 184.274 113.144 184 113.225C183.726 113.307 183.462 113.434 183.208 113.606C182.964 113.769 182.716 113.972 182.462 114.216V119.775H180.939ZM189.926 119.867C189.266 119.867 188.717 119.725 188.281 119.44C187.854 119.156 187.534 118.714 187.321 118.115C187.108 117.506 187.001 116.724 187.001 115.769C187.001 114.764 187.098 113.952 187.291 113.332C187.494 112.703 187.819 112.246 188.266 111.961C188.712 111.667 189.317 111.519 190.078 111.519C190.505 111.519 190.926 111.565 191.342 111.657C191.769 111.748 192.14 111.849 192.454 111.961V108.153H193.978V119.775H192.729L192.454 118.968C192.292 119.11 192.069 119.252 191.784 119.395C191.5 119.527 191.195 119.638 190.87 119.73C190.545 119.821 190.231 119.867 189.926 119.867ZM190.413 118.618C190.83 118.618 191.205 118.552 191.54 118.42C191.886 118.288 192.19 118.151 192.454 118.008V113.058C192.14 112.967 191.83 112.885 191.525 112.814C191.231 112.733 190.901 112.692 190.535 112.692C190.058 112.692 189.672 112.779 189.377 112.951C189.083 113.124 188.87 113.429 188.738 113.865C188.606 114.302 188.54 114.911 188.54 115.693C188.54 116.414 188.601 116.993 188.723 117.43C188.844 117.856 189.042 118.161 189.317 118.344C189.601 118.526 189.966 118.618 190.413 118.618ZM196.28 110.255C196.097 110.255 196.006 110.169 196.006 109.996V108.717C196.006 108.534 196.097 108.443 196.28 108.443H197.407C197.488 108.443 197.549 108.468 197.59 108.519C197.631 108.569 197.651 108.635 197.651 108.717V109.996C197.651 110.169 197.57 110.255 197.407 110.255H196.28ZM196.067 119.775V111.626H197.59V119.775H196.067ZM199.726 119.775V111.626H200.945L201.249 112.51C201.615 112.246 202.046 112.012 202.544 111.809C203.052 111.596 203.575 111.489 204.113 111.489C204.722 111.489 205.21 111.621 205.575 111.885C205.951 112.139 206.22 112.479 206.383 112.906C206.545 113.332 206.626 113.794 206.626 114.292V119.775H205.103V114.475C205.103 114.15 205.037 113.87 204.905 113.637C204.783 113.393 204.611 113.205 204.387 113.073C204.164 112.941 203.89 112.875 203.565 112.875C203.26 112.875 202.976 112.906 202.712 112.967C202.458 113.027 202.214 113.114 201.98 113.225C201.747 113.327 201.503 113.454 201.249 113.606V119.775H199.726ZM210.737 123.523C210.219 123.523 209.757 123.446 209.351 123.294C208.955 123.152 208.64 122.928 208.406 122.624C208.173 122.329 208.056 121.964 208.056 121.527V121.192C208.056 120.735 208.183 120.349 208.437 120.034C208.701 119.73 209.031 119.496 209.427 119.334C209.823 119.171 210.234 119.09 210.661 119.09L211.072 119.654C210.798 119.654 210.539 119.694 210.295 119.775C210.061 119.867 209.868 120.004 209.716 120.187C209.574 120.38 209.503 120.623 209.503 120.918V121.207C209.503 121.634 209.645 121.943 209.929 122.136C210.224 122.329 210.625 122.426 211.133 122.426H212.915C213.453 122.426 213.88 122.319 214.194 122.106C214.509 121.903 214.667 121.583 214.667 121.146V120.857C214.667 120.613 214.611 120.4 214.499 120.217C214.398 120.034 214.23 119.892 213.996 119.791C213.763 119.699 213.443 119.654 213.037 119.654H210.782C210.061 119.654 209.513 119.506 209.137 119.212C208.762 118.917 208.574 118.547 208.574 118.1C208.574 117.694 208.69 117.369 208.924 117.125C209.168 116.871 209.508 116.698 209.945 116.607C209.579 116.445 209.29 116.236 209.076 115.983C208.873 115.729 208.731 115.454 208.65 115.16C208.569 114.855 208.528 114.551 208.528 114.246C208.528 113.627 208.655 113.124 208.909 112.738C209.163 112.352 209.528 112.068 210.006 111.885C210.493 111.702 211.072 111.611 211.742 111.611H216.129V112.479L214.469 112.647C214.59 112.738 214.722 112.86 214.865 113.012C215.007 113.154 215.129 113.352 215.23 113.606C215.332 113.86 215.383 114.195 215.383 114.612C215.383 115.048 215.286 115.454 215.093 115.83C214.91 116.206 214.606 116.511 214.179 116.744C213.763 116.978 213.194 117.094 212.473 117.094H211.133C210.747 117.094 210.442 117.15 210.219 117.262C209.995 117.374 209.884 117.572 209.884 117.856C209.884 118.09 209.97 118.252 210.143 118.344C210.315 118.435 210.498 118.481 210.691 118.481H213.265C213.885 118.481 214.403 118.562 214.819 118.724C215.245 118.887 215.565 119.136 215.779 119.471C215.992 119.806 216.098 120.243 216.098 120.781V121.07C216.098 121.842 215.845 122.441 215.337 122.868C214.839 123.304 214.083 123.523 213.067 123.523H210.737ZM211.407 115.922H212.306C212.763 115.922 213.108 115.856 213.341 115.724C213.585 115.581 213.753 115.399 213.844 115.175C213.935 114.952 213.981 114.703 213.981 114.429C213.981 114.023 213.915 113.703 213.783 113.469C213.651 113.225 213.468 113.053 213.235 112.951C213.011 112.84 212.737 112.784 212.412 112.784H211.559C211.041 112.784 210.635 112.901 210.341 113.134C210.056 113.368 209.914 113.769 209.914 114.337C209.914 114.896 210.046 115.302 210.31 115.556C210.574 115.8 210.94 115.922 211.407 115.922ZM222.051 119.775V112.875H220.832V111.885L222.051 111.626V110.819C222.051 110.209 222.127 109.702 222.279 109.296C222.431 108.879 222.685 108.569 223.041 108.366C223.396 108.163 223.883 108.062 224.503 108.062C224.858 108.062 225.163 108.082 225.417 108.123C225.681 108.163 225.909 108.199 226.102 108.229V109.326H224.777C224.452 109.326 224.203 109.377 224.031 109.478C223.858 109.58 223.736 109.737 223.665 109.951C223.604 110.164 223.574 110.428 223.574 110.743V111.626H225.965V112.875H223.574V119.775H222.051ZM230.489 119.867C229.626 119.867 228.936 119.74 228.418 119.486C227.91 119.232 227.544 118.806 227.321 118.206C227.108 117.597 227.001 116.759 227.001 115.693C227.001 114.607 227.108 113.764 227.321 113.165C227.544 112.555 227.91 112.129 228.418 111.885C228.925 111.641 229.611 111.519 230.474 111.519C231.225 111.519 231.83 111.601 232.287 111.763C232.754 111.916 233.094 112.195 233.307 112.601C233.531 112.997 233.642 113.55 233.642 114.261C233.642 114.759 233.541 115.155 233.338 115.449C233.145 115.744 232.865 115.957 232.5 116.089C232.144 116.221 231.718 116.287 231.22 116.287H228.524C228.534 116.876 228.6 117.348 228.722 117.704C228.854 118.049 229.083 118.303 229.408 118.465C229.743 118.618 230.23 118.694 230.87 118.694H233.414V119.608C232.977 119.669 232.53 119.725 232.073 119.775C231.616 119.836 231.088 119.867 230.489 119.867ZM228.509 115.328H231.083C231.49 115.328 231.789 115.251 231.982 115.099C232.175 114.947 232.271 114.667 232.271 114.261C232.271 113.855 232.21 113.535 232.089 113.302C231.977 113.068 231.789 112.901 231.525 112.799C231.261 112.697 230.911 112.647 230.474 112.647C229.976 112.647 229.58 112.723 229.286 112.875C229.002 113.027 228.798 113.297 228.677 113.682C228.565 114.068 228.509 114.617 228.509 115.328ZM238.715 119.867C237.852 119.867 237.162 119.74 236.644 119.486C236.136 119.232 235.77 118.806 235.547 118.206C235.334 117.597 235.227 116.759 235.227 115.693C235.227 114.607 235.334 113.764 235.547 113.165C235.77 112.555 236.136 112.129 236.644 111.885C237.151 111.641 237.837 111.519 238.7 111.519C239.452 111.519 240.056 111.601 240.513 111.763C240.98 111.916 241.32 112.195 241.533 112.601C241.757 112.997 241.868 113.55 241.868 114.261C241.868 114.759 241.767 115.155 241.564 115.449C241.371 115.744 241.092 115.957 240.726 116.089C240.371 116.221 239.944 116.287 239.446 116.287H236.75C236.76 116.876 236.826 117.348 236.948 117.704C237.08 118.049 237.309 118.303 237.634 118.465C237.969 118.618 238.456 118.694 239.096 118.694H241.64V119.608C241.203 119.669 240.756 119.725 240.299 119.775C239.842 119.836 239.314 119.867 238.715 119.867ZM236.735 115.328H239.309C239.716 115.328 240.015 115.251 240.208 115.099C240.401 114.947 240.497 114.667 240.497 114.261C240.497 113.855 240.437 113.535 240.315 113.302C240.203 113.068 240.015 112.901 239.751 112.799C239.487 112.697 239.137 112.647 238.7 112.647C238.202 112.647 237.806 112.723 237.512 112.875C237.228 113.027 237.025 113.297 236.903 113.682C236.791 114.068 236.735 114.617 236.735 115.328ZM89.2304 141.775L87.1284 137.663C86.9151 137.663 86.6612 137.663 86.3667 137.663C86.0723 137.653 85.7727 137.642 85.468 137.632C85.1634 137.622 84.8892 137.612 84.6455 137.602V136.353H87.4178C87.6412 136.353 87.8544 136.322 88.0575 136.261C88.2708 136.2 88.4536 136.089 88.6059 135.926C88.7684 135.764 88.8953 135.535 88.9867 135.241C89.0883 134.936 89.139 134.55 89.139 134.083C89.139 133.484 89.0679 133.032 88.9258 132.727C88.7836 132.423 88.5957 132.215 88.3622 132.103C88.1286 131.981 87.8697 131.92 87.5853 131.92H84.6455V130.549H87.6615C88.0068 130.549 88.352 130.6 88.6973 130.701C89.0527 130.793 89.3777 130.966 89.6722 131.219C89.9768 131.463 90.2205 131.819 90.4033 132.286C90.5861 132.743 90.6775 133.342 90.6775 134.083C90.6775 134.723 90.6166 135.256 90.4947 135.682C90.3729 136.099 90.2104 136.429 90.0073 136.673C89.8143 136.916 89.6011 137.104 89.3675 137.236C89.134 137.358 88.9004 137.449 88.6668 137.51L90.8755 141.775H89.2304ZM84.6455 134.525V133.702H92.612V134.525H84.6455ZM87.0827 131.372V130.549H92.612V131.372H87.0827ZM101.523 141.852C101.066 141.852 100.584 141.831 100.076 141.791C99.5681 141.76 99.1111 141.72 98.7049 141.669V140.465H101.432C102.274 140.465 102.919 140.166 103.366 139.567C103.813 138.957 104.036 138.038 104.036 136.81C103.762 136.86 103.452 136.901 103.107 136.932C102.772 136.962 102.432 136.982 102.087 136.992C101.741 137.003 101.416 137.008 101.112 137.008C100.421 137.008 99.8474 136.921 99.3904 136.749C98.9334 136.576 98.5932 136.312 98.3698 135.957C98.1464 135.601 98.0347 135.144 98.0347 134.586V132.986C98.0347 132.377 98.1515 131.89 98.3851 131.524C98.6186 131.158 98.9334 130.894 99.3295 130.732C99.7357 130.569 100.188 130.488 100.685 130.488H102.391C102.889 130.488 103.336 130.575 103.732 130.747C104.128 130.91 104.458 131.199 104.722 131.615C104.996 132.022 105.204 132.59 105.346 133.321C105.499 134.053 105.575 134.977 105.575 136.094C105.575 137.13 105.483 138.013 105.301 138.744C105.118 139.475 104.849 140.074 104.493 140.542C104.148 140.999 103.727 141.334 103.229 141.547C102.731 141.75 102.163 141.852 101.523 141.852ZM101.492 135.698H104.036C104.036 134.936 103.996 134.306 103.914 133.809C103.833 133.301 103.711 132.91 103.549 132.636C103.386 132.352 103.183 132.154 102.94 132.042C102.706 131.92 102.432 131.859 102.117 131.859H101.005C100.731 131.859 100.482 131.9 100.259 131.981C100.045 132.062 99.8728 132.204 99.7407 132.407C99.6189 132.611 99.558 132.895 99.558 133.261V134.312C99.558 134.697 99.6341 134.987 99.7864 135.18C99.9388 135.373 100.157 135.51 100.441 135.591C100.736 135.662 101.086 135.698 101.492 135.698ZM110.939 141.852C110.482 141.852 110 141.831 109.492 141.791C108.984 141.76 108.527 141.72 108.121 141.669V140.465H110.848C111.69 140.465 112.335 140.166 112.782 139.567C113.229 138.957 113.452 138.038 113.452 136.81C113.178 136.86 112.868 136.901 112.523 136.932C112.188 136.962 111.848 136.982 111.503 136.992C111.157 137.003 110.832 137.008 110.528 137.008C109.837 137.008 109.263 136.921 108.806 136.749C108.35 136.576 108.009 136.312 107.786 135.957C107.563 135.601 107.451 135.144 107.451 134.586V132.986C107.451 132.377 107.568 131.89 107.801 131.524C108.035 131.158 108.35 130.894 108.746 130.732C109.152 130.569 109.604 130.488 110.101 130.488H111.807C112.305 130.488 112.752 130.575 113.148 130.747C113.544 130.91 113.874 131.199 114.138 131.615C114.412 132.022 114.62 132.59 114.762 133.321C114.915 134.053 114.991 134.977 114.991 136.094C114.991 137.13 114.899 138.013 114.717 138.744C114.534 139.475 114.265 140.074 113.909 140.542C113.564 140.999 113.143 141.334 112.645 141.547C112.147 141.75 111.579 141.852 110.939 141.852ZM110.909 135.698H113.452C113.452 134.936 113.412 134.306 113.33 133.809C113.249 133.301 113.127 132.91 112.965 132.636C112.802 132.352 112.599 132.154 112.356 132.042C112.122 131.92 111.848 131.859 111.533 131.859H110.421C110.147 131.859 109.898 131.9 109.675 131.981C109.461 132.062 109.289 132.204 109.157 132.407C109.035 132.611 108.974 132.895 108.974 133.261V134.312C108.974 134.697 109.05 134.987 109.203 135.18C109.355 135.373 109.573 135.51 109.858 135.591C110.152 135.662 110.502 135.698 110.909 135.698ZM117.4 143.024C117.268 143.024 117.151 143.009 117.05 142.979C116.958 142.958 116.913 142.948 116.913 142.948V142.476C117.034 142.476 117.121 142.456 117.172 142.415C117.232 142.375 117.263 142.303 117.263 142.202V141.684H117.126C117.055 141.684 116.994 141.659 116.943 141.608C116.892 141.557 116.867 141.486 116.867 141.395V140.237C116.867 140.034 116.953 139.932 117.126 139.932H117.979C118.08 139.932 118.146 139.963 118.177 140.024C118.217 140.074 118.238 140.146 118.238 140.237V142.156C118.238 142.4 118.192 142.583 118.101 142.705C118.019 142.837 117.913 142.923 117.781 142.964C117.649 143.004 117.522 143.024 117.4 143.024ZM123.051 141.821C122.482 141.821 121.984 141.725 121.558 141.532C121.131 141.329 120.801 141.024 120.568 140.618C120.334 140.212 120.217 139.699 120.217 139.079V133.276C120.217 132.656 120.334 132.138 120.568 131.722C120.801 131.306 121.131 130.991 121.558 130.778C121.995 130.564 122.492 130.458 123.051 130.458H125.29C125.919 130.458 126.432 130.575 126.828 130.808C127.234 131.042 127.534 131.367 127.727 131.783C127.93 132.199 128.032 132.697 128.032 133.276V139.079C128.032 140.003 127.783 140.694 127.285 141.151C126.798 141.598 126.128 141.821 125.275 141.821H123.051ZM123.371 140.435H124.909C125.467 140.435 125.869 140.298 126.112 140.024C126.366 139.749 126.493 139.364 126.493 138.866V133.413C126.493 132.864 126.361 132.463 126.097 132.209C125.833 131.956 125.457 131.829 124.97 131.829H123.325C122.837 131.829 122.451 131.966 122.167 132.24C121.883 132.514 121.741 132.905 121.741 133.413V138.866C121.741 139.394 121.883 139.79 122.167 140.054C122.462 140.308 122.863 140.435 123.371 140.435ZM133.002 141.821C132.434 141.821 131.936 141.725 131.509 141.532C131.083 141.329 130.753 141.024 130.519 140.618C130.286 140.212 130.169 139.699 130.169 139.079V133.276C130.169 132.656 130.286 132.138 130.519 131.722C130.753 131.306 131.083 130.991 131.509 130.778C131.946 130.564 132.444 130.458 133.002 130.458H135.241C135.871 130.458 136.384 130.575 136.78 130.808C137.186 131.042 137.486 131.367 137.679 131.783C137.882 132.199 137.983 132.697 137.983 133.276V139.079C137.983 140.003 137.734 140.694 137.237 141.151C136.749 141.598 136.079 141.821 135.226 141.821H133.002ZM133.322 140.435H134.861C135.419 140.435 135.82 140.298 136.064 140.024C136.318 139.749 136.445 139.364 136.445 138.866V133.413C136.445 132.864 136.313 132.463 136.049 132.209C135.785 131.956 135.409 131.829 134.922 131.829H133.276C132.789 131.829 132.403 131.966 132.119 132.24C131.834 132.514 131.692 132.905 131.692 133.413V138.866C131.692 139.394 131.834 139.79 132.119 140.054C132.413 140.308 132.814 140.435 133.322 140.435ZM142.954 141.821C142.385 141.821 141.888 141.725 141.461 141.532C141.035 141.329 140.705 141.024 140.471 140.618C140.237 140.212 140.121 139.699 140.121 139.079V133.276C140.121 132.656 140.237 132.138 140.471 131.722C140.705 131.306 141.035 130.991 141.461 130.778C141.898 130.564 142.395 130.458 142.954 130.458H145.193C145.823 130.458 146.335 130.575 146.731 130.808C147.138 131.042 147.437 131.367 147.63 131.783C147.833 132.199 147.935 132.697 147.935 133.276V139.079C147.935 140.003 147.686 140.694 147.188 141.151C146.701 141.598 146.031 141.821 145.178 141.821H142.954ZM143.274 140.435H144.812C145.371 140.435 145.772 140.298 146.016 140.024C146.269 139.749 146.396 139.364 146.396 138.866V133.413C146.396 132.864 146.264 132.463 146 132.209C145.736 131.956 145.361 131.829 144.873 131.829H143.228C142.741 131.829 142.355 131.966 142.07 132.24C141.786 132.514 141.644 132.905 141.644 133.413V138.866C141.644 139.394 141.786 139.79 142.07 140.054C142.365 140.308 142.766 140.435 143.274 140.435ZM156.967 141.867C156.754 141.867 156.5 141.862 156.205 141.852C155.911 141.841 155.606 141.821 155.291 141.791C154.987 141.77 154.702 141.745 154.438 141.714C154.184 141.684 153.981 141.648 153.829 141.608V140.694H157.256C157.551 140.694 157.805 140.674 158.018 140.633C158.231 140.582 158.394 140.481 158.505 140.328C158.627 140.176 158.688 139.953 158.688 139.658V139.323C158.688 139.018 158.586 138.78 158.383 138.607C158.18 138.434 157.845 138.348 157.378 138.348H156.19C155.713 138.348 155.286 138.287 154.91 138.165C154.545 138.033 154.255 137.815 154.042 137.51C153.839 137.206 153.738 136.794 153.738 136.277V135.835C153.738 135.317 153.834 134.89 154.027 134.555C154.23 134.22 154.55 133.971 154.987 133.809C155.423 133.636 156.002 133.55 156.723 133.55C157.028 133.55 157.363 133.565 157.728 133.596C158.104 133.616 158.47 133.646 158.825 133.687C159.181 133.728 159.465 133.773 159.678 133.824V134.738H156.449C156.002 134.738 155.657 134.814 155.413 134.967C155.179 135.119 155.063 135.408 155.063 135.835V136.139C155.063 136.403 155.119 136.607 155.23 136.749C155.342 136.891 155.499 136.982 155.702 137.023C155.916 137.064 156.165 137.084 156.449 137.084H157.667C158.439 137.084 159.023 137.267 159.419 137.632C159.815 137.988 160.013 138.49 160.013 139.14V139.765C160.013 140.313 159.886 140.74 159.632 141.044C159.379 141.349 159.023 141.562 158.566 141.684C158.119 141.806 157.586 141.867 156.967 141.867ZM164.963 141.867C164.1 141.867 163.41 141.74 162.892 141.486C162.384 141.232 162.018 140.806 161.795 140.206C161.582 139.597 161.475 138.759 161.475 137.693C161.475 136.607 161.582 135.764 161.795 135.165C162.018 134.555 162.384 134.129 162.892 133.885C163.4 133.641 164.085 133.519 164.948 133.519C165.7 133.519 166.304 133.601 166.761 133.763C167.228 133.916 167.568 134.195 167.781 134.601C168.005 134.997 168.116 135.55 168.116 136.261C168.116 136.759 168.015 137.155 167.812 137.449C167.619 137.744 167.34 137.957 166.974 138.089C166.619 138.221 166.192 138.287 165.695 138.287H162.998C163.009 138.876 163.075 139.348 163.196 139.704C163.328 140.049 163.557 140.303 163.882 140.465C164.217 140.618 164.704 140.694 165.344 140.694H167.888V141.608C167.451 141.669 167.005 141.725 166.548 141.775C166.091 141.836 165.563 141.867 164.963 141.867ZM162.983 137.328H165.557C165.964 137.328 166.263 137.251 166.456 137.099C166.649 136.947 166.746 136.667 166.746 136.261C166.746 135.855 166.685 135.535 166.563 135.302C166.451 135.068 166.263 134.901 165.999 134.799C165.735 134.697 165.385 134.647 164.948 134.647C164.451 134.647 164.055 134.723 163.76 134.875C163.476 135.027 163.273 135.297 163.151 135.682C163.039 136.068 162.983 136.617 162.983 137.328ZM172.793 141.775C172.245 141.775 171.788 141.689 171.422 141.516C171.067 141.334 170.803 141.044 170.63 140.648C170.468 140.252 170.392 139.724 170.402 139.064L170.463 134.875H169.168V133.885L170.493 133.626L170.722 131.341H171.925V133.626H174.134V134.875H171.925V139.049C171.925 139.364 171.956 139.617 172.017 139.81C172.077 140.003 172.164 140.151 172.275 140.252C172.387 140.354 172.509 140.43 172.641 140.481C172.773 140.521 172.9 140.547 173.022 140.557L174.027 140.648V141.775H172.793ZM182.11 141.867C181.349 141.867 180.755 141.664 180.328 141.257C179.912 140.841 179.704 140.212 179.704 139.369V133.626H181.227V138.957C181.227 139.567 181.364 139.978 181.638 140.191C181.922 140.404 182.318 140.511 182.826 140.511C183.232 140.511 183.618 140.45 183.984 140.328C184.36 140.196 184.725 140.019 185.081 139.795V133.626H186.604V141.775H185.385L185.081 140.907C184.685 141.161 184.228 141.384 183.71 141.577C183.202 141.77 182.669 141.867 182.11 141.867ZM188.703 145.385V133.626H189.953L190.227 134.449C190.42 134.306 190.648 134.164 190.912 134.022C191.186 133.88 191.481 133.763 191.796 133.672C192.121 133.57 192.446 133.519 192.771 133.519C193.288 133.519 193.73 133.626 194.096 133.839C194.471 134.053 194.776 134.352 195.01 134.738C195.243 135.114 195.411 135.556 195.512 136.063C195.624 136.571 195.68 137.114 195.68 137.693C195.68 138.597 195.578 139.364 195.375 139.993C195.182 140.613 194.873 141.085 194.446 141.41C194.03 141.725 193.471 141.882 192.771 141.882C192.344 141.882 191.907 141.821 191.461 141.699C191.014 141.567 190.602 141.395 190.227 141.181V145.385H188.703ZM192.314 140.602C192.659 140.602 192.969 140.516 193.243 140.344C193.517 140.171 193.735 139.876 193.898 139.46C194.07 139.034 194.157 138.445 194.157 137.693C194.157 136.982 194.07 136.414 193.898 135.987C193.725 135.55 193.502 135.241 193.227 135.058C192.953 134.865 192.654 134.769 192.329 134.769C191.902 134.769 191.511 134.835 191.156 134.967C190.811 135.099 190.501 135.236 190.227 135.378V140.024C190.542 140.196 190.877 140.338 191.232 140.45C191.598 140.552 191.958 140.602 192.314 140.602ZM204.617 141.867C204.139 141.867 203.698 141.806 203.292 141.684C202.896 141.552 202.545 141.334 202.241 141.029C201.946 140.724 201.718 140.303 201.555 139.765C201.393 139.227 201.311 138.546 201.311 137.724C201.311 136.881 201.388 136.19 201.54 135.652C201.692 135.104 201.91 134.677 202.195 134.372C202.489 134.058 202.845 133.839 203.261 133.717C203.677 133.596 204.145 133.535 204.662 133.535C205.089 133.535 205.536 133.555 206.003 133.596C206.48 133.636 206.942 133.702 207.389 133.794V134.692H205.089C204.591 134.692 204.175 134.774 203.84 134.936C203.505 135.088 203.256 135.388 203.094 135.835C202.931 136.271 202.85 136.906 202.85 137.739C202.85 138.541 202.936 139.161 203.109 139.597C203.281 140.024 203.53 140.313 203.855 140.465C204.19 140.618 204.607 140.694 205.104 140.694H207.511V141.562C207.277 141.623 206.998 141.679 206.673 141.73C206.358 141.77 206.023 141.801 205.668 141.821C205.323 141.852 204.972 141.867 204.617 141.867ZM212.374 141.867C211.754 141.867 211.216 141.801 210.759 141.669C210.312 141.537 209.941 141.318 209.647 141.014C209.352 140.699 209.134 140.272 208.992 139.734C208.85 139.196 208.779 138.516 208.779 137.693C208.779 136.84 208.85 136.145 208.992 135.606C209.134 135.058 209.352 134.631 209.647 134.327C209.941 134.022 210.317 133.814 210.774 133.702C211.231 133.58 211.764 133.519 212.374 133.519C212.983 133.519 213.516 133.58 213.973 133.702C214.43 133.824 214.806 134.037 215.1 134.342C215.395 134.647 215.613 135.073 215.755 135.622C215.897 136.16 215.968 136.85 215.968 137.693C215.968 138.526 215.897 139.216 215.755 139.765C215.613 140.303 215.395 140.724 215.1 141.029C214.816 141.334 214.445 141.552 213.988 141.684C213.531 141.806 212.993 141.867 212.374 141.867ZM212.374 140.618C212.709 140.618 213.003 140.587 213.257 140.526C213.521 140.465 213.739 140.338 213.912 140.146C214.085 139.942 214.217 139.643 214.308 139.247C214.399 138.851 214.445 138.328 214.445 137.678C214.445 137.028 214.399 136.51 214.308 136.124C214.217 135.728 214.085 135.434 213.912 135.241C213.739 135.048 213.521 134.921 213.257 134.86C213.003 134.789 212.709 134.753 212.374 134.753C212.028 134.753 211.724 134.789 211.46 134.86C211.206 134.921 210.993 135.048 210.82 135.241C210.657 135.434 210.53 135.728 210.439 136.124C210.358 136.51 210.317 137.028 210.317 137.678C210.317 138.328 210.358 138.851 210.439 139.247C210.53 139.643 210.657 139.942 210.82 140.146C210.993 140.338 211.206 140.465 211.46 140.526C211.724 140.587 212.028 140.618 212.374 140.618ZM220.678 141.867C220.465 141.867 220.211 141.862 219.916 141.852C219.622 141.841 219.317 141.821 219.002 141.791C218.698 141.77 218.413 141.745 218.149 141.714C217.895 141.684 217.692 141.648 217.54 141.608V140.694H220.967C221.262 140.694 221.516 140.674 221.729 140.633C221.942 140.582 222.105 140.481 222.216 140.328C222.338 140.176 222.399 139.953 222.399 139.658V139.323C222.399 139.018 222.298 138.78 222.094 138.607C221.891 138.434 221.556 138.348 221.089 138.348H219.901C219.424 138.348 218.997 138.287 218.621 138.165C218.256 138.033 217.966 137.815 217.753 137.51C217.55 137.206 217.449 136.794 217.449 136.277V135.835C217.449 135.317 217.545 134.89 217.738 134.555C217.941 134.22 218.261 133.971 218.698 133.809C219.134 133.636 219.713 133.55 220.434 133.55C220.739 133.55 221.074 133.565 221.439 133.596C221.815 133.616 222.181 133.646 222.536 133.687C222.892 133.728 223.176 133.773 223.389 133.824V134.738H220.16C219.713 134.738 219.368 134.814 219.124 134.967C218.891 135.119 218.774 135.408 218.774 135.835V136.139C218.774 136.403 218.83 136.607 218.941 136.749C219.053 136.891 219.21 136.982 219.414 137.023C219.627 137.064 219.876 137.084 220.16 137.084H221.379C222.15 137.084 222.734 137.267 223.13 137.632C223.526 137.988 223.724 138.49 223.724 139.14V139.765C223.724 140.313 223.597 140.74 223.343 141.044C223.09 141.349 222.734 141.562 222.277 141.684C221.83 141.806 221.297 141.867 220.678 141.867ZM228.278 141.775C227.73 141.775 227.273 141.689 226.908 141.516C226.552 141.334 226.288 141.044 226.115 140.648C225.953 140.252 225.877 139.724 225.887 139.064L225.948 134.875H224.653V133.885L225.978 133.626L226.207 131.341H227.41V133.626H229.619V134.875H227.41V139.049C227.41 139.364 227.441 139.617 227.502 139.81C227.562 140.003 227.649 140.151 227.761 140.252C227.872 140.354 227.994 140.43 228.126 140.481C228.258 140.521 228.385 140.547 228.507 140.557L229.512 140.648V141.775H228.278Z" fill="white"/>
<defs>
<linearGradient id="paint0_linear_1487_1682" x1="0.387207" y1="0.929688" x2="313.497" y2="175.255" gradientUnits="userSpaceOnUse">
<stop stop-color="#CB397A"/>
<stop offset="1" stop-color="#3A3895"/>
</linearGradient>
</defs>
</svg>
