<svg width="250" height="132" viewBox="0 0 250 132" fill="none" xmlns="http://www.w3.org/2000/svg">
<g clip-path="url(#clip0_1459_348)">
<rect y="0.642578" width="250" height="131" rx="15" fill="#303030"/>
<circle cx="5.5" cy="131.143" r="47.5" fill="#7030A0"/>
<circle cx="275.5" cy="46.1426" r="47.5" fill="#7030A0"/>
<circle cx="-20.5" cy="84.1426" r="47.5" fill="#545454"/>
<circle cx="234.5" cy="10.1426" r="47.5" fill="#545454"/>
<path d="M66.16 62.0706C65.632 62.0706 65.2 61.8906 64.864 61.5306C64.528 61.1946 64.36 60.7746 64.36 60.2706V57.0666L65.188 57.8586C63.532 57.8106 62.056 57.5946 60.76 57.2106C59.488 56.8266 58.408 56.3826 57.52 55.8786C57.088 55.6146 56.788 55.2906 56.62 54.9066C56.452 54.4986 56.392 54.0906 56.44 53.6826C56.488 53.2746 56.632 52.9266 56.872 52.6386C57.136 52.3266 57.46 52.1346 57.844 52.0626C58.228 51.9666 58.672 52.0626 59.176 52.3506C59.848 52.7346 60.724 53.1066 61.804 53.4666C62.908 53.8026 64.228 53.9706 65.764 53.9706C66.964 53.9706 67.936 53.8266 68.68 53.5386C69.424 53.2506 69.964 52.8546 70.3 52.3506C70.66 51.8466 70.84 51.2706 70.84 50.6226C70.84 50.0946 70.72 49.6386 70.48 49.2546C70.24 48.8466 69.844 48.4986 69.292 48.2106C68.74 47.8986 67.996 47.6466 67.06 47.4546L63.244 46.6266C61.06 46.1466 59.428 45.3426 58.348 44.2146C57.268 43.0866 56.728 41.6106 56.728 39.7866C56.728 38.3706 57.076 37.1106 57.772 36.0066C58.468 34.8786 59.44 33.9786 60.688 33.3066C61.936 32.6346 63.4 32.2386 65.08 32.1186L64.36 32.6586V29.6346C64.36 29.1306 64.528 28.7106 64.864 28.3746C65.2 28.0146 65.632 27.8346 66.16 27.8346C66.664 27.8346 67.084 28.0146 67.42 28.3746C67.78 28.7106 67.96 29.1306 67.96 29.6346V32.6586L67.204 32.0826C68.236 32.1066 69.364 32.3106 70.588 32.6946C71.836 33.0786 72.904 33.6186 73.792 34.3146C74.152 34.6026 74.392 34.9386 74.512 35.3226C74.632 35.6826 74.644 36.0426 74.548 36.4026C74.452 36.7386 74.272 37.0266 74.008 37.2666C73.744 37.5066 73.408 37.6506 73 37.6986C72.616 37.7226 72.172 37.5906 71.668 37.3026C70.972 36.8946 70.192 36.5706 69.328 36.3306C68.464 36.0666 67.432 35.9346 66.232 35.9346C64.696 35.9346 63.484 36.2826 62.596 36.9786C61.732 37.6506 61.3 38.5386 61.3 39.6426C61.3 40.4586 61.564 41.1186 62.092 41.6226C62.62 42.1026 63.52 42.4866 64.792 42.7746L68.716 43.6386C71.02 44.1426 72.712 44.9466 73.792 46.0506C74.872 47.1306 75.412 48.5586 75.412 50.3346C75.412 51.7266 75.064 52.9626 74.368 54.0426C73.672 55.0986 72.712 55.9506 71.488 56.5986C70.288 57.2226 68.884 57.6186 67.276 57.7866L67.96 57.0306V60.2706C67.96 60.7746 67.792 61.1946 67.456 61.5306C67.12 61.8906 66.688 62.0706 66.16 62.0706ZM87.6019 58.0026C86.3299 58.0026 85.0339 57.8346 83.7139 57.4986C82.3939 57.1626 81.1819 56.6466 80.0779 55.9506C79.6219 55.6626 79.3099 55.3266 79.1419 54.9426C78.9979 54.5346 78.9619 54.1386 79.0339 53.7546C79.1299 53.3466 79.3099 53.0106 79.5739 52.7466C79.8619 52.4586 80.1979 52.2906 80.5819 52.2426C80.9899 52.1946 81.4339 52.3026 81.9139 52.5666C82.8019 53.0706 83.7019 53.4546 84.6139 53.7186C85.5259 53.9826 86.4979 54.1146 87.5299 54.1146C88.5379 54.1146 89.4019 53.9346 90.1219 53.5746C90.8419 53.2146 91.3939 52.7106 91.7779 52.0626C92.1619 51.4146 92.3539 50.6586 92.3539 49.7946C92.3539 48.4506 91.9459 47.3706 91.1299 46.5546C90.3139 45.7146 89.1979 45.2946 87.7819 45.2946C87.0139 45.2946 86.2699 45.4266 85.5499 45.6906C84.8299 45.9306 84.1219 46.3626 83.4259 46.9866C83.2099 47.1786 82.9339 47.3706 82.5979 47.5626C82.2619 47.7306 81.9019 47.8146 81.5179 47.8146C80.9179 47.8146 80.4619 47.6586 80.1499 47.3466C79.8379 47.0346 79.6819 46.6026 79.6819 46.0506V34.2786C79.6819 33.6306 79.8499 33.1386 80.1859 32.8026C80.5459 32.4426 81.0499 32.2626 81.6979 32.2626H93.5419C94.1899 32.2626 94.6819 32.4306 95.0179 32.7666C95.3779 33.0786 95.5579 33.5466 95.5579 34.1706C95.5579 34.7706 95.3779 35.2386 95.0179 35.5746C94.6819 35.9106 94.1899 36.0786 93.5419 36.0786H84.1819V44.1426H82.9939C83.6179 43.3026 84.4459 42.6546 85.4779 42.1986C86.5099 41.7426 87.6379 41.5146 88.8619 41.5146C90.4699 41.5146 91.8619 41.8626 93.0379 42.5586C94.2379 43.2306 95.1619 44.1786 95.8099 45.4026C96.4819 46.6026 96.8179 48.0066 96.8179 49.6146C96.8179 51.2706 96.4459 52.7346 95.7019 54.0066C94.9579 55.2546 93.8899 56.2386 92.4979 56.9586C91.1299 57.6546 89.4979 58.0026 87.6019 58.0026ZM106.992 58.0026C105.96 58.0026 104.892 57.8466 103.788 57.5346C102.684 57.1986 101.652 56.7066 100.692 56.0586C100.308 55.8186 100.056 55.5066 99.9359 55.1226C99.8159 54.7386 99.7919 54.3666 99.8639 54.0066C99.9599 53.6226 100.128 53.2986 100.368 53.0346C100.632 52.7466 100.956 52.5786 101.34 52.5306C101.724 52.4586 102.144 52.5546 102.6 52.8186C103.416 53.2986 104.184 53.6346 104.904 53.8266C105.624 54.0186 106.344 54.1146 107.064 54.1146C108.456 54.1146 109.632 53.7906 110.592 53.1426C111.552 52.4946 112.272 51.5226 112.752 50.2266C113.256 48.9066 113.508 47.2866 113.508 45.3666V42.6666H113.94C113.772 43.8666 113.376 44.9106 112.752 45.7986C112.128 46.6866 111.336 47.3706 110.376 47.8506C109.416 48.3066 108.348 48.5346 107.172 48.5346C105.732 48.5346 104.436 48.1866 103.284 47.4906C102.156 46.7946 101.268 45.8346 100.62 44.6106C99.9719 43.3626 99.6479 41.9586 99.6479 40.3986C99.6479 38.7426 99.9959 37.2786 100.692 36.0066C101.412 34.7346 102.408 33.7386 103.68 33.0186C104.952 32.2746 106.404 31.9026 108.036 31.9026C110.148 31.9026 111.936 32.3946 113.4 33.3786C114.864 34.3626 115.98 35.8026 116.748 37.6986C117.516 39.5706 117.9 41.8386 117.9 44.5026C117.9 46.6626 117.648 48.5826 117.144 50.2626C116.664 51.9186 115.956 53.3226 115.02 54.4746C114.084 55.6266 112.932 56.5026 111.564 57.1026C110.22 57.7026 108.696 58.0026 106.992 58.0026ZM108.324 44.8626C109.188 44.8626 109.944 44.6706 110.592 44.2866C111.264 43.8786 111.78 43.3266 112.14 42.6306C112.5 41.9106 112.68 41.0946 112.68 40.1826C112.68 39.2466 112.5 38.4306 112.14 37.7346C111.78 37.0386 111.264 36.4986 110.592 36.1146C109.944 35.7306 109.188 35.5386 108.324 35.5386C107.46 35.5386 106.704 35.7306 106.056 36.1146C105.408 36.4986 104.892 37.0386 104.508 37.7346C104.148 38.4306 103.968 39.2466 103.968 40.1826C103.968 41.0946 104.148 41.9106 104.508 42.6306C104.892 43.3266 105.408 43.8786 106.056 44.2866C106.704 44.6706 107.46 44.8626 108.324 44.8626ZM124.834 61.4946C124.522 61.8786 124.186 62.0946 123.826 62.1426C123.49 62.2146 123.19 62.1546 122.926 61.9626C122.662 61.7706 122.518 61.4946 122.494 61.1346C122.47 60.7986 122.626 60.4266 122.962 60.0186C123.442 59.4186 123.766 58.8186 123.934 58.2186C124.102 57.6186 124.186 57.0786 124.186 56.5986L124.366 57.8226C123.526 57.8226 122.842 57.5826 122.314 57.1026C121.81 56.5986 121.558 55.9386 121.558 55.1226C121.558 54.3546 121.798 53.7306 122.278 53.2506C122.758 52.7466 123.406 52.4946 124.222 52.4946C125.062 52.4946 125.722 52.7826 126.202 53.3586C126.682 53.9106 126.922 54.7146 126.922 55.7706C126.922 56.3466 126.862 56.9466 126.742 57.5706C126.646 58.1706 126.442 58.7946 126.13 59.4426C125.842 60.1146 125.41 60.7986 124.834 61.4946ZM137.508 58.0026C136.476 58.0026 135.408 57.8466 134.304 57.5346C133.2 57.1986 132.168 56.7066 131.208 56.0586C130.824 55.8186 130.572 55.5066 130.452 55.1226C130.332 54.7386 130.308 54.3666 130.38 54.0066C130.476 53.6226 130.644 53.2986 130.884 53.0346C131.148 52.7466 131.472 52.5786 131.856 52.5306C132.24 52.4586 132.66 52.5546 133.116 52.8186C133.932 53.2986 134.7 53.6346 135.42 53.8266C136.14 54.0186 136.86 54.1146 137.58 54.1146C138.972 54.1146 140.148 53.7906 141.108 53.1426C142.068 52.4946 142.788 51.5226 143.268 50.2266C143.772 48.9066 144.024 47.2866 144.024 45.3666V42.6666H144.456C144.288 43.8666 143.892 44.9106 143.268 45.7986C142.644 46.6866 141.852 47.3706 140.892 47.8506C139.932 48.3066 138.864 48.5346 137.688 48.5346C136.248 48.5346 134.952 48.1866 133.8 47.4906C132.672 46.7946 131.784 45.8346 131.136 44.6106C130.488 43.3626 130.164 41.9586 130.164 40.3986C130.164 38.7426 130.512 37.2786 131.208 36.0066C131.928 34.7346 132.924 33.7386 134.196 33.0186C135.468 32.2746 136.92 31.9026 138.552 31.9026C140.664 31.9026 142.452 32.3946 143.916 33.3786C145.38 34.3626 146.496 35.8026 147.264 37.6986C148.032 39.5706 148.416 41.8386 148.416 44.5026C148.416 46.6626 148.164 48.5826 147.66 50.2626C147.18 51.9186 146.472 53.3226 145.536 54.4746C144.6 55.6266 143.448 56.5026 142.08 57.1026C140.736 57.7026 139.212 58.0026 137.508 58.0026ZM138.84 44.8626C139.704 44.8626 140.46 44.6706 141.108 44.2866C141.78 43.8786 142.296 43.3266 142.656 42.6306C143.016 41.9106 143.196 41.0946 143.196 40.1826C143.196 39.2466 143.016 38.4306 142.656 37.7346C142.296 37.0386 141.78 36.4986 141.108 36.1146C140.46 35.7306 139.704 35.5386 138.84 35.5386C137.976 35.5386 137.22 35.7306 136.572 36.1146C135.924 36.4986 135.408 37.0386 135.024 37.7346C134.664 38.4306 134.484 39.2466 134.484 40.1826C134.484 41.0946 134.664 41.9106 135.024 42.6306C135.408 43.3266 135.924 43.8786 136.572 44.2866C137.22 44.6706 137.976 44.8626 138.84 44.8626ZM159.093 58.0026C158.061 58.0026 156.993 57.8466 155.889 57.5346C154.785 57.1986 153.753 56.7066 152.793 56.0586C152.409 55.8186 152.157 55.5066 152.037 55.1226C151.917 54.7386 151.893 54.3666 151.965 54.0066C152.061 53.6226 152.229 53.2986 152.469 53.0346C152.733 52.7466 153.057 52.5786 153.441 52.5306C153.825 52.4586 154.245 52.5546 154.701 52.8186C155.517 53.2986 156.285 53.6346 157.005 53.8266C157.725 54.0186 158.445 54.1146 159.165 54.1146C160.557 54.1146 161.733 53.7906 162.693 53.1426C163.653 52.4946 164.373 51.5226 164.853 50.2266C165.357 48.9066 165.609 47.2866 165.609 45.3666V42.6666H166.041C165.873 43.8666 165.477 44.9106 164.853 45.7986C164.229 46.6866 163.437 47.3706 162.477 47.8506C161.517 48.3066 160.449 48.5346 159.273 48.5346C157.833 48.5346 156.537 48.1866 155.385 47.4906C154.257 46.7946 153.369 45.8346 152.721 44.6106C152.073 43.3626 151.749 41.9586 151.749 40.3986C151.749 38.7426 152.097 37.2786 152.793 36.0066C153.513 34.7346 154.509 33.7386 155.781 33.0186C157.053 32.2746 158.505 31.9026 160.137 31.9026C162.249 31.9026 164.037 32.3946 165.501 33.3786C166.965 34.3626 168.081 35.8026 168.849 37.6986C169.617 39.5706 170.001 41.8386 170.001 44.5026C170.001 46.6626 169.749 48.5826 169.245 50.2626C168.765 51.9186 168.057 53.3226 167.121 54.4746C166.185 55.6266 165.033 56.5026 163.665 57.1026C162.321 57.7026 160.797 58.0026 159.093 58.0026ZM160.425 44.8626C161.289 44.8626 162.045 44.6706 162.693 44.2866C163.365 43.8786 163.881 43.3266 164.241 42.6306C164.601 41.9106 164.781 41.0946 164.781 40.1826C164.781 39.2466 164.601 38.4306 164.241 37.7346C163.881 37.0386 163.365 36.4986 162.693 36.1146C162.045 35.7306 161.289 35.5386 160.425 35.5386C159.561 35.5386 158.805 35.7306 158.157 36.1146C157.509 36.4986 156.993 37.0386 156.609 37.7346C156.249 38.4306 156.069 39.2466 156.069 40.1826C156.069 41.0946 156.249 41.9106 156.609 42.6306C156.993 43.3266 157.509 43.8786 158.157 44.2866C158.805 44.6706 159.561 44.8626 160.425 44.8626ZM180.679 58.0026C179.647 58.0026 178.579 57.8466 177.475 57.5346C176.371 57.1986 175.339 56.7066 174.379 56.0586C173.995 55.8186 173.743 55.5066 173.623 55.1226C173.503 54.7386 173.479 54.3666 173.551 54.0066C173.647 53.6226 173.815 53.2986 174.055 53.0346C174.319 52.7466 174.643 52.5786 175.027 52.5306C175.411 52.4586 175.831 52.5546 176.287 52.8186C177.103 53.2986 177.871 53.6346 178.591 53.8266C179.311 54.0186 180.031 54.1146 180.751 54.1146C182.143 54.1146 183.319 53.7906 184.279 53.1426C185.239 52.4946 185.959 51.5226 186.439 50.2266C186.943 48.9066 187.195 47.2866 187.195 45.3666V42.6666H187.627C187.459 43.8666 187.063 44.9106 186.439 45.7986C185.815 46.6866 185.023 47.3706 184.063 47.8506C183.103 48.3066 182.035 48.5346 180.859 48.5346C179.419 48.5346 178.123 48.1866 176.971 47.4906C175.843 46.7946 174.955 45.8346 174.307 44.6106C173.659 43.3626 173.335 41.9586 173.335 40.3986C173.335 38.7426 173.683 37.2786 174.379 36.0066C175.099 34.7346 176.095 33.7386 177.367 33.0186C178.639 32.2746 180.091 31.9026 181.723 31.9026C183.835 31.9026 185.623 32.3946 187.087 33.3786C188.551 34.3626 189.667 35.8026 190.435 37.6986C191.203 39.5706 191.587 41.8386 191.587 44.5026C191.587 46.6626 191.335 48.5826 190.831 50.2626C190.351 51.9186 189.643 53.3226 188.707 54.4746C187.771 55.6266 186.619 56.5026 185.251 57.1026C183.907 57.7026 182.383 58.0026 180.679 58.0026ZM182.011 44.8626C182.875 44.8626 183.631 44.6706 184.279 44.2866C184.951 43.8786 185.467 43.3266 185.827 42.6306C186.187 41.9106 186.367 41.0946 186.367 40.1826C186.367 39.2466 186.187 38.4306 185.827 37.7346C185.467 37.0386 184.951 36.4986 184.279 36.1146C183.631 35.7306 182.875 35.5386 182.011 35.5386C181.147 35.5386 180.391 35.7306 179.743 36.1146C179.095 36.4986 178.579 37.0386 178.195 37.7346C177.835 38.4306 177.655 39.2466 177.655 40.1826C177.655 41.0946 177.835 41.9106 178.195 42.6306C178.579 43.3266 179.095 43.8786 179.743 44.2866C180.391 44.6706 181.147 44.8626 182.011 44.8626Z" fill="white"/>
<path d="M84.806 77.6426C84.6007 77.6426 84.4467 77.5959 84.344 77.5026C84.2507 77.3999 84.204 77.2646 84.204 77.0966C84.204 76.9939 84.2273 76.8959 84.274 76.8026C84.33 76.6999 84.4047 76.5972 84.498 76.4946L87.634 73.1346C88.11 72.6212 88.4507 72.1499 88.656 71.7206C88.8707 71.2819 88.978 70.8386 88.978 70.3906C88.978 69.8306 88.8053 69.4059 88.46 69.1166C88.124 68.8179 87.6293 68.6686 86.976 68.6686C86.556 68.6686 86.1593 68.7339 85.786 68.8646C85.4127 68.9952 85.0533 69.1959 84.708 69.4666C84.5867 69.5599 84.4747 69.6019 84.372 69.5926C84.2787 69.5832 84.1947 69.5459 84.12 69.4806C84.0453 69.4152 83.994 69.3312 83.966 69.2286C83.938 69.1259 83.938 69.0232 83.966 68.9206C84.0033 68.8179 84.078 68.7246 84.19 68.6406C84.554 68.3419 84.9927 68.1039 85.506 67.9266C86.0193 67.7399 86.542 67.6466 87.074 67.6466C87.7367 67.6466 88.2967 67.7492 88.754 67.9546C89.2113 68.1599 89.5567 68.4632 89.79 68.8646C90.0233 69.2566 90.14 69.7372 90.14 70.3066C90.14 70.6986 90.0747 71.0859 89.944 71.4686C89.8227 71.8419 89.6313 72.2246 89.37 72.6166C89.118 73.0086 88.7867 73.4146 88.376 73.8346L85.394 76.9846V76.6626H90.112C90.2893 76.6626 90.42 76.7046 90.504 76.7886C90.5973 76.8632 90.644 76.9799 90.644 77.1386C90.644 77.3066 90.5973 77.4326 90.504 77.5166C90.42 77.6006 90.2893 77.6426 90.112 77.6426H84.806ZM95.8045 77.7686C95.2725 77.7686 94.7405 77.6892 94.2085 77.5306C93.6859 77.3719 93.2099 77.1246 92.7805 76.7886C92.6685 76.7139 92.5939 76.6252 92.5565 76.5226C92.5192 76.4199 92.5145 76.3172 92.5425 76.2146C92.5705 76.1119 92.6219 76.0279 92.6965 75.9626C92.7712 75.8879 92.8599 75.8459 92.9625 75.8366C93.0745 75.8272 93.1912 75.8646 93.3125 75.9486C93.6952 76.2192 94.0919 76.4199 94.5025 76.5506C94.9132 76.6812 95.3425 76.7466 95.7905 76.7466C96.2479 76.7466 96.6399 76.6626 96.9665 76.4946C97.3025 76.3172 97.5545 76.0746 97.7225 75.7666C97.8999 75.4492 97.9885 75.0806 97.9885 74.6606C97.9885 74.0166 97.8019 73.4892 97.4285 73.0786C97.0552 72.6679 96.5419 72.4626 95.8885 72.4626C95.4872 72.4626 95.1185 72.5372 94.7825 72.6866C94.4465 72.8359 94.1385 73.0739 93.8585 73.4006C93.7932 73.4752 93.7139 73.5406 93.6205 73.5966C93.5365 73.6432 93.4385 73.6666 93.3265 73.6666C93.1679 73.6666 93.0419 73.6246 92.9485 73.5406C92.8645 73.4472 92.8225 73.3259 92.8225 73.1766V68.3046C92.8225 68.1272 92.8692 67.9966 92.9625 67.9126C93.0559 67.8192 93.1865 67.7726 93.3545 67.7726H98.1145C98.2919 67.7726 98.4225 67.8146 98.5065 67.8986C98.5999 67.9826 98.6465 68.1039 98.6465 68.2626C98.6465 68.4212 98.5999 68.5426 98.5065 68.6266C98.4225 68.7106 98.2919 68.7526 98.1145 68.7526H93.9565V72.6866H93.6485C93.8912 72.2946 94.2272 71.9959 94.6565 71.7906C95.0859 71.5759 95.5665 71.4686 96.0985 71.4686C96.7239 71.4686 97.2605 71.5992 97.7085 71.8606C98.1659 72.1219 98.5159 72.4906 98.7585 72.9666C99.0105 73.4332 99.1365 73.9792 99.1365 74.6046C99.1365 75.2206 99.0012 75.7666 98.7305 76.2426C98.4599 76.7186 98.0772 77.0919 97.5825 77.3626C97.0879 77.6332 96.4952 77.7686 95.8045 77.7686ZM105.022 77.7406C104.836 77.7406 104.696 77.6892 104.602 77.5866C104.509 77.4839 104.462 77.3392 104.462 77.1526V68.2486C104.462 68.0619 104.509 67.9219 104.602 67.8286C104.696 67.7259 104.836 67.6746 105.022 67.6746C105.2 67.6746 105.34 67.7259 105.442 67.8286C105.545 67.9219 105.596 68.0619 105.596 68.2486V72.3506H105.414C105.61 71.8092 105.928 71.4032 106.366 71.1326C106.814 70.8526 107.328 70.7126 107.906 70.7126C108.448 70.7126 108.896 70.8106 109.25 71.0066C109.614 71.2026 109.885 71.5012 110.062 71.9026C110.24 72.2946 110.328 72.7939 110.328 73.4006V77.1526C110.328 77.3392 110.277 77.4839 110.174 77.5866C110.081 77.6892 109.946 77.7406 109.768 77.7406C109.582 77.7406 109.437 77.6892 109.334 77.5866C109.241 77.4839 109.194 77.3392 109.194 77.1526V73.4706C109.194 72.8359 109.068 72.3739 108.816 72.0846C108.574 71.7859 108.182 71.6366 107.64 71.6366C107.015 71.6366 106.516 71.8326 106.142 72.2246C105.778 72.6072 105.596 73.1206 105.596 73.7646V77.1526C105.596 77.5446 105.405 77.7406 105.022 77.7406ZM112.993 77.7406C112.807 77.7406 112.662 77.6892 112.559 77.5866C112.466 77.4839 112.419 77.3392 112.419 77.1526V71.3146C112.419 71.1279 112.466 70.9879 112.559 70.8946C112.653 70.7919 112.788 70.7406 112.965 70.7406C113.143 70.7406 113.278 70.7919 113.371 70.8946C113.474 70.9879 113.525 71.1279 113.525 71.3146V72.4486H113.385C113.535 71.8979 113.819 71.4732 114.239 71.1746C114.659 70.8759 115.177 70.7172 115.793 70.6986C115.933 70.6892 116.045 70.7219 116.129 70.7966C116.213 70.8619 116.26 70.9786 116.269 71.1466C116.279 71.3052 116.241 71.4312 116.157 71.5246C116.073 71.6179 115.943 71.6739 115.765 71.6926L115.541 71.7206C114.907 71.7766 114.417 71.9819 114.071 72.3366C113.735 72.6819 113.567 73.1579 113.567 73.7646V77.1526C113.567 77.3392 113.516 77.4839 113.413 77.5866C113.32 77.6892 113.18 77.7406 112.993 77.7406ZM119.665 77.7686C119.245 77.7686 118.82 77.7172 118.391 77.6146C117.971 77.5119 117.579 77.3346 117.215 77.0826C117.121 77.0172 117.056 76.9426 117.019 76.8586C116.981 76.7652 116.967 76.6766 116.977 76.5926C116.995 76.4992 117.033 76.4199 117.089 76.3546C117.154 76.2892 117.229 76.2519 117.313 76.2426C117.406 76.2239 117.509 76.2426 117.621 76.2986C117.985 76.5226 118.335 76.6812 118.671 76.7746C119.016 76.8586 119.357 76.9006 119.693 76.9006C120.225 76.9006 120.626 76.8026 120.897 76.6066C121.167 76.4106 121.303 76.1446 121.303 75.8086C121.303 75.5472 121.214 75.3419 121.037 75.1926C120.859 75.0339 120.579 74.9126 120.197 74.8286L118.923 74.5486C118.335 74.4272 117.896 74.2172 117.607 73.9186C117.327 73.6199 117.187 73.2326 117.187 72.7566C117.187 72.3366 117.294 71.9772 117.509 71.6786C117.733 71.3706 118.045 71.1326 118.447 70.9646C118.848 70.7966 119.315 70.7126 119.847 70.7126C120.257 70.7126 120.645 70.7686 121.009 70.8806C121.382 70.9832 121.718 71.1512 122.017 71.3846C122.11 71.4499 122.171 71.5292 122.199 71.6226C122.236 71.7066 122.241 71.7952 122.213 71.8886C122.194 71.9726 122.152 72.0472 122.087 72.1126C122.021 72.1686 121.942 72.2012 121.849 72.2106C121.755 72.2199 121.657 72.1919 121.555 72.1266C121.275 71.9399 120.99 71.8046 120.701 71.7206C120.411 71.6272 120.127 71.5806 119.847 71.5806C119.324 71.5806 118.927 71.6832 118.657 71.8886C118.386 72.0939 118.251 72.3646 118.251 72.7006C118.251 72.9619 118.335 73.1766 118.503 73.3446C118.671 73.5126 118.932 73.6339 119.287 73.7086L120.561 73.9746C121.167 74.1052 121.62 74.3152 121.919 74.6046C122.227 74.8846 122.381 75.2672 122.381 75.7526C122.381 76.3686 122.133 76.8586 121.639 77.2226C121.144 77.5866 120.486 77.7686 119.665 77.7686ZM123.815 78.1186C123.768 78.2399 123.703 78.3286 123.619 78.3846C123.544 78.4406 123.456 78.4686 123.353 78.4686C123.25 78.4686 123.157 78.4406 123.073 78.3846C122.998 78.3379 122.942 78.2679 122.905 78.1746C122.868 78.0812 122.868 77.9739 122.905 77.8526L126.237 67.5206C126.284 67.3992 126.349 67.3106 126.433 67.2546C126.517 67.1986 126.606 67.1706 126.699 67.1706C126.802 67.1706 126.89 67.1986 126.965 67.2546C127.049 67.3012 127.105 67.3712 127.133 67.4646C127.17 67.5579 127.17 67.6652 127.133 67.7866L123.815 78.1186ZM127.828 77.7406C127.641 77.7406 127.501 77.6892 127.408 77.5866C127.314 77.4839 127.268 77.3392 127.268 77.1526V71.3146C127.268 71.1279 127.314 70.9879 127.408 70.8946C127.501 70.7919 127.636 70.7406 127.814 70.7406C127.991 70.7406 128.126 70.7919 128.22 70.8946C128.322 70.9879 128.374 71.1279 128.374 71.3146V72.5466L128.22 72.3506C128.397 71.8279 128.682 71.4266 129.074 71.1466C129.475 70.8572 129.951 70.7126 130.502 70.7126C131.08 70.7126 131.547 70.8526 131.902 71.1326C132.266 71.4032 132.508 71.8279 132.63 72.4066H132.42C132.588 71.8839 132.886 71.4732 133.316 71.1746C133.754 70.8666 134.263 70.7126 134.842 70.7126C135.355 70.7126 135.775 70.8106 136.102 71.0066C136.438 71.2026 136.69 71.5012 136.858 71.9026C137.026 72.2946 137.11 72.7939 137.11 73.4006V77.1526C137.11 77.3392 137.058 77.4839 136.956 77.5866C136.862 77.6892 136.722 77.7406 136.536 77.7406C136.358 77.7406 136.218 77.6892 136.116 77.5866C136.022 77.4839 135.976 77.3392 135.976 77.1526V73.4566C135.976 72.8312 135.868 72.3739 135.654 72.0846C135.439 71.7859 135.075 71.6366 134.562 71.6366C134.002 71.6366 133.558 71.8326 133.232 72.2246C132.914 72.6072 132.756 73.1299 132.756 73.7926V77.1526C132.756 77.3392 132.704 77.4839 132.602 77.5866C132.508 77.6892 132.368 77.7406 132.182 77.7406C132.004 77.7406 131.864 77.6892 131.762 77.5866C131.668 77.4839 131.622 77.3392 131.622 77.1526V73.4566C131.622 72.8312 131.51 72.3739 131.286 72.0846C131.071 71.7859 130.712 71.6366 130.208 71.6366C129.648 71.6366 129.204 71.8326 128.878 72.2246C128.56 72.6072 128.402 73.1299 128.402 73.7926V77.1526C128.402 77.5446 128.21 77.7406 127.828 77.7406ZM142.058 77.7686C141.395 77.7686 140.821 77.6239 140.336 77.3346C139.851 77.0452 139.473 76.6392 139.202 76.1166C138.941 75.5846 138.81 74.9592 138.81 74.2406C138.81 73.6992 138.885 73.2139 139.034 72.7846C139.183 72.3459 139.403 71.9726 139.692 71.6646C139.981 71.3566 140.322 71.1232 140.714 70.9646C141.115 70.7966 141.563 70.7126 142.058 70.7126C142.721 70.7126 143.295 70.8572 143.78 71.1466C144.265 71.4359 144.639 71.8466 144.9 72.3786C145.171 72.9012 145.306 73.5219 145.306 74.2406C145.306 74.7819 145.231 75.2672 145.082 75.6966C144.933 76.1259 144.713 76.4992 144.424 76.8166C144.135 77.1246 143.789 77.3626 143.388 77.5306C142.996 77.6892 142.553 77.7686 142.058 77.7686ZM142.058 76.8586C142.478 76.8586 142.847 76.7559 143.164 76.5506C143.481 76.3452 143.724 76.0466 143.892 75.6546C144.069 75.2626 144.158 74.7912 144.158 74.2406C144.158 73.3912 143.967 72.7426 143.584 72.2946C143.211 71.8466 142.702 71.6226 142.058 71.6226C141.629 71.6226 141.255 71.7252 140.938 71.9306C140.63 72.1266 140.387 72.4206 140.21 72.8126C140.042 73.1952 139.958 73.6712 139.958 74.2406C139.958 75.0806 140.149 75.7292 140.532 76.1866C140.915 76.6346 141.423 76.8586 142.058 76.8586ZM147.569 77.7406C147.383 77.7406 147.243 77.6892 147.149 77.5866C147.056 77.4839 147.009 77.3392 147.009 77.1526V71.3146C147.009 71.1279 147.056 70.9879 147.149 70.8946C147.243 70.7919 147.378 70.7406 147.555 70.7406C147.733 70.7406 147.868 70.7919 147.961 70.8946C148.064 70.9879 148.115 71.1279 148.115 71.3146V72.5186L147.961 72.3506C148.157 71.8092 148.475 71.4032 148.913 71.1326C149.361 70.8526 149.875 70.7126 150.453 70.7126C150.995 70.7126 151.443 70.8106 151.797 71.0066C152.161 71.2026 152.432 71.5012 152.609 71.9026C152.787 72.2946 152.875 72.7939 152.875 73.4006V77.1526C152.875 77.3392 152.824 77.4839 152.721 77.5866C152.628 77.6892 152.493 77.7406 152.315 77.7406C152.129 77.7406 151.984 77.6892 151.881 77.5866C151.788 77.4839 151.741 77.3392 151.741 77.1526V73.4706C151.741 72.8359 151.615 72.3739 151.363 72.0846C151.121 71.7859 150.729 71.6366 150.187 71.6366C149.562 71.6366 149.063 71.8326 148.689 72.2246C148.325 72.6072 148.143 73.1206 148.143 73.7646V77.1526C148.143 77.5446 147.952 77.7406 147.569 77.7406ZM157.696 77.7686C157.164 77.7686 156.716 77.6752 156.352 77.4886C155.998 77.2926 155.732 77.0126 155.554 76.6486C155.377 76.2752 155.288 75.8226 155.288 75.2906V71.7206H154.35C154.192 71.7206 154.07 71.6832 153.986 71.6086C153.902 71.5246 153.86 71.4126 153.86 71.2726C153.86 71.1326 153.902 71.0252 153.986 70.9506C154.07 70.8759 154.192 70.8386 154.35 70.8386H155.288V69.2286C155.288 69.0419 155.34 68.9019 155.442 68.8086C155.545 68.7059 155.685 68.6546 155.862 68.6546C156.04 68.6546 156.175 68.7059 156.268 68.8086C156.371 68.9019 156.422 69.0419 156.422 69.2286V70.8386H158.186C158.345 70.8386 158.466 70.8759 158.55 70.9506C158.634 71.0252 158.676 71.1326 158.676 71.2726C158.676 71.4126 158.634 71.5246 158.55 71.6086C158.466 71.6832 158.345 71.7206 158.186 71.7206H156.422V75.1786C156.422 75.7106 156.534 76.1166 156.758 76.3966C156.982 76.6672 157.346 76.8026 157.85 76.8026C158.028 76.8026 158.177 76.7839 158.298 76.7466C158.429 76.7092 158.536 76.6906 158.62 76.6906C158.704 76.6812 158.774 76.7092 158.83 76.7746C158.886 76.8399 158.914 76.9519 158.914 77.1106C158.914 77.2226 158.891 77.3252 158.844 77.4186C158.807 77.5119 158.737 77.5772 158.634 77.6146C158.522 77.6519 158.373 77.6846 158.186 77.7126C158.009 77.7499 157.846 77.7686 157.696 77.7686ZM160.503 77.7406C160.316 77.7406 160.176 77.6892 160.083 77.5866C159.99 77.4839 159.943 77.3392 159.943 77.1526V68.2486C159.943 68.0619 159.99 67.9219 160.083 67.8286C160.176 67.7259 160.316 67.6746 160.503 67.6746C160.68 67.6746 160.82 67.7259 160.923 67.8286C161.026 67.9219 161.077 68.0619 161.077 68.2486V72.3506H160.895C161.091 71.8092 161.408 71.4032 161.847 71.1326C162.295 70.8526 162.808 70.7126 163.387 70.7126C163.928 70.7126 164.376 70.8106 164.731 71.0066C165.095 71.2026 165.366 71.5012 165.543 71.9026C165.72 72.2946 165.809 72.7939 165.809 73.4006V77.1526C165.809 77.3392 165.758 77.4839 165.655 77.5866C165.562 77.6892 165.426 77.7406 165.249 77.7406C165.062 77.7406 164.918 77.6892 164.815 77.5866C164.722 77.4839 164.675 77.3392 164.675 77.1526V73.4706C164.675 72.8359 164.549 72.3739 164.297 72.0846C164.054 71.7859 163.662 71.6366 163.121 71.6366C162.496 71.6366 161.996 71.8326 161.623 72.2246C161.259 72.6072 161.077 73.1206 161.077 73.7646V77.1526C161.077 77.5446 160.886 77.7406 160.503 77.7406Z" fill="white" fill-opacity="0.6"/>
<path d="M47.34 108.365C47.1347 108.365 46.9667 108.295 46.836 108.155C46.7053 108.024 46.64 107.861 46.64 107.665V106.419L46.962 106.727C46.318 106.708 45.744 106.624 45.24 106.475C44.7453 106.325 44.3253 106.153 43.98 105.957C43.812 105.854 43.6953 105.728 43.63 105.579C43.5647 105.42 43.5413 105.261 43.56 105.103C43.5787 104.944 43.6347 104.809 43.728 104.697C43.8307 104.575 43.9567 104.501 44.106 104.473C44.2553 104.435 44.428 104.473 44.624 104.585C44.8853 104.734 45.226 104.879 45.646 105.019C46.0753 105.149 46.5887 105.215 47.186 105.215C47.6527 105.215 48.0307 105.159 48.32 105.047C48.6093 104.935 48.8193 104.781 48.95 104.585C49.09 104.389 49.16 104.165 49.16 103.913C49.16 103.707 49.1133 103.53 49.02 103.381C48.9267 103.222 48.7727 103.087 48.558 102.975C48.3433 102.853 48.054 102.755 47.69 102.681L46.206 102.359C45.3567 102.172 44.722 101.859 44.302 101.421C43.882 100.982 43.672 100.408 43.672 99.6986C43.672 99.1479 43.8073 98.6579 44.078 98.2286C44.3487 97.7899 44.7267 97.4399 45.212 97.1786C45.6973 96.9172 46.2667 96.7632 46.92 96.7166L46.64 96.9266V95.7506C46.64 95.5546 46.7053 95.3912 46.836 95.2606C46.9667 95.1206 47.1347 95.0506 47.34 95.0506C47.536 95.0506 47.6993 95.1206 47.83 95.2606C47.97 95.3912 48.04 95.5546 48.04 95.7506V96.9266L47.746 96.7026C48.1473 96.7119 48.586 96.7912 49.062 96.9406C49.5473 97.0899 49.9627 97.2999 50.308 97.5706C50.448 97.6826 50.5413 97.8132 50.588 97.9626C50.6347 98.1026 50.6393 98.2426 50.602 98.3826C50.5647 98.5132 50.4947 98.6252 50.392 98.7186C50.2893 98.8119 50.1587 98.8679 50 98.8866C49.8507 98.8959 49.678 98.8446 49.482 98.7326C49.2113 98.5739 48.908 98.4479 48.572 98.3546C48.236 98.2519 47.8347 98.2006 47.368 98.2006C46.7707 98.2006 46.2993 98.3359 45.954 98.6066C45.618 98.8679 45.45 99.2132 45.45 99.6426C45.45 99.9599 45.5527 100.217 45.758 100.413C45.9633 100.599 46.3133 100.749 46.808 100.861L48.334 101.197C49.23 101.393 49.888 101.705 50.308 102.135C50.728 102.555 50.938 103.11 50.938 103.801C50.938 104.342 50.8027 104.823 50.532 105.243C50.2613 105.653 49.888 105.985 49.412 106.237C48.9453 106.479 48.3993 106.633 47.774 106.699L48.04 106.405V107.665C48.04 107.861 47.9747 108.024 47.844 108.155C47.7133 108.295 47.5453 108.365 47.34 108.365ZM55.5945 106.783C54.8292 106.783 54.1712 106.675 53.6205 106.461C53.0792 106.237 52.6592 105.915 52.3605 105.495C52.0712 105.075 51.9265 104.571 51.9265 103.983C51.9265 103.516 52.0199 103.105 52.2065 102.751C52.4025 102.387 52.6685 102.093 53.0045 101.869C53.3405 101.645 53.7232 101.505 54.1525 101.449V101.743C53.5552 101.612 53.0745 101.327 52.7105 100.889C52.3559 100.441 52.1785 99.9086 52.1785 99.2926C52.1785 98.7326 52.3185 98.2566 52.5985 97.8646C52.8785 97.4632 53.2752 97.1599 53.7885 96.9546C54.3019 96.7399 54.9039 96.6326 55.5945 96.6326C56.2945 96.6326 56.9012 96.7399 57.4145 96.9546C57.9279 97.1599 58.3245 97.4632 58.6045 97.8646C58.8845 98.2566 59.0245 98.7326 59.0245 99.2926C59.0245 99.7032 58.9405 100.081 58.7725 100.427C58.6139 100.772 58.3852 101.057 58.0865 101.281C57.7972 101.505 57.4565 101.654 57.0645 101.729V101.449C57.7179 101.542 58.2452 101.817 58.6465 102.275C59.0572 102.723 59.2625 103.292 59.2625 103.983C59.2625 104.571 59.1132 105.075 58.8145 105.495C58.5252 105.915 58.1052 106.237 57.5545 106.461C57.0132 106.675 56.3599 106.783 55.5945 106.783ZM55.5945 105.383C56.2572 105.383 56.7565 105.257 57.0925 105.005C57.4285 104.743 57.5965 104.361 57.5965 103.857C57.5965 103.353 57.4285 102.975 57.0925 102.723C56.7565 102.471 56.2572 102.345 55.5945 102.345C54.9412 102.345 54.4419 102.471 54.0965 102.723C53.7605 102.975 53.5925 103.353 53.5925 103.857C53.5925 104.361 53.7605 104.743 54.0965 105.005C54.4419 105.257 54.9412 105.383 55.5945 105.383ZM55.5945 100.945C55.9679 100.945 56.2852 100.889 56.5465 100.777C56.8079 100.655 57.0085 100.483 57.1485 100.259C57.2885 100.035 57.3585 99.7732 57.3585 99.4746C57.3585 99.0266 57.1999 98.6766 56.8825 98.4246C56.5745 98.1632 56.1452 98.0326 55.5945 98.0326C55.0439 98.0326 54.6145 98.1632 54.3065 98.4246C53.9985 98.6766 53.8445 99.0266 53.8445 99.4746C53.8445 99.9319 53.9985 100.291 54.3065 100.553C54.6145 100.814 55.0439 100.945 55.5945 100.945ZM63.2191 106.783C62.8177 106.783 62.4024 106.722 61.9731 106.601C61.5437 106.47 61.1424 106.279 60.7691 106.027C60.6197 105.933 60.5217 105.812 60.4751 105.663C60.4284 105.513 60.4191 105.369 60.4471 105.229C60.4844 105.079 60.5497 104.953 60.6431 104.851C60.7457 104.739 60.8717 104.673 61.0211 104.655C61.1704 104.627 61.3337 104.664 61.5111 104.767C61.8284 104.953 62.1271 105.084 62.4071 105.159C62.6871 105.233 62.9671 105.271 63.2471 105.271C63.7884 105.271 64.2457 105.145 64.6191 104.893C64.9924 104.641 65.2724 104.263 65.4591 103.759C65.6551 103.245 65.7531 102.615 65.7531 101.869V100.819H65.9211C65.8557 101.285 65.7017 101.691 65.4591 102.037C65.2164 102.382 64.9084 102.648 64.5351 102.835C64.1617 103.012 63.7464 103.101 63.2891 103.101C62.7291 103.101 62.2251 102.965 61.7771 102.695C61.3384 102.424 60.9931 102.051 60.7411 101.575C60.4891 101.089 60.3631 100.543 60.3631 99.9366C60.3631 99.2926 60.4984 98.7232 60.7691 98.2286C61.0491 97.7339 61.4364 97.3466 61.9311 97.0666C62.4257 96.7772 62.9904 96.6326 63.6251 96.6326C64.4464 96.6326 65.1417 96.8239 65.7111 97.2066C66.2804 97.5892 66.7144 98.1492 67.0131 98.8866C67.3117 99.6146 67.4611 100.497 67.4611 101.533C67.4611 102.373 67.3631 103.119 67.1671 103.773C66.9804 104.417 66.7051 104.963 66.3411 105.411C65.9771 105.859 65.5291 106.199 64.9971 106.433C64.4744 106.666 63.8817 106.783 63.2191 106.783ZM63.7371 101.673C64.0731 101.673 64.3671 101.598 64.6191 101.449C64.8804 101.29 65.0811 101.075 65.2211 100.805C65.3611 100.525 65.4311 100.207 65.4311 99.8526C65.4311 99.4886 65.3611 99.1712 65.2211 98.9006C65.0811 98.6299 64.8804 98.4199 64.6191 98.2706C64.3671 98.1212 64.0731 98.0466 63.7371 98.0466C63.4011 98.0466 63.1071 98.1212 62.8551 98.2706C62.6031 98.4199 62.4024 98.6299 62.2531 98.9006C62.1131 99.1712 62.0431 99.4886 62.0431 99.8526C62.0431 100.207 62.1131 100.525 62.2531 100.805C62.4024 101.075 62.6031 101.29 62.8551 101.449C63.1071 101.598 63.4011 101.673 63.7371 101.673ZM70.1576 108.141C70.0363 108.29 69.9056 108.374 69.7656 108.393C69.6349 108.421 69.5183 108.397 69.4156 108.323C69.3129 108.248 69.2569 108.141 69.2476 108.001C69.2383 107.87 69.2989 107.725 69.4296 107.567C69.6163 107.333 69.7423 107.1 69.8076 106.867C69.8729 106.633 69.9056 106.423 69.9056 106.237L69.9756 106.713C69.6489 106.713 69.3829 106.619 69.1776 106.433C68.9816 106.237 68.8836 105.98 68.8836 105.663C68.8836 105.364 68.9769 105.121 69.1636 104.935C69.3503 104.739 69.6023 104.641 69.9196 104.641C70.2463 104.641 70.5029 104.753 70.6896 104.977C70.8763 105.191 70.9696 105.504 70.9696 105.915C70.9696 106.139 70.9463 106.372 70.8996 106.615C70.8623 106.848 70.7829 107.091 70.6616 107.343C70.5496 107.604 70.3816 107.87 70.1576 108.141ZM75.0863 106.783C74.6849 106.783 74.2696 106.722 73.8403 106.601C73.4109 106.47 73.0096 106.279 72.6363 106.027C72.4869 105.933 72.3889 105.812 72.3423 105.663C72.2956 105.513 72.2863 105.369 72.3143 105.229C72.3516 105.079 72.4169 104.953 72.5103 104.851C72.6129 104.739 72.7389 104.673 72.8883 104.655C73.0376 104.627 73.2009 104.664 73.3783 104.767C73.6956 104.953 73.9943 105.084 74.2743 105.159C74.5543 105.233 74.8343 105.271 75.1143 105.271C75.6556 105.271 76.1129 105.145 76.4863 104.893C76.8596 104.641 77.1396 104.263 77.3263 103.759C77.5223 103.245 77.6203 102.615 77.6203 101.869V100.819H77.7883C77.7229 101.285 77.5689 101.691 77.3263 102.037C77.0836 102.382 76.7756 102.648 76.4023 102.835C76.0289 103.012 75.6136 103.101 75.1562 103.101C74.5963 103.101 74.0923 102.965 73.6443 102.695C73.2056 102.424 72.8603 102.051 72.6083 101.575C72.3563 101.089 72.2303 100.543 72.2303 99.9366C72.2303 99.2926 72.3656 98.7232 72.6363 98.2286C72.9163 97.7339 73.3036 97.3466 73.7983 97.0666C74.2929 96.7772 74.8576 96.6326 75.4923 96.6326C76.3136 96.6326 77.0089 96.8239 77.5783 97.2066C78.1476 97.5892 78.5816 98.1492 78.8803 98.8866C79.1789 99.6146 79.3283 100.497 79.3283 101.533C79.3283 102.373 79.2303 103.119 79.0343 103.773C78.8476 104.417 78.5723 104.963 78.2083 105.411C77.8443 105.859 77.3963 106.199 76.8643 106.433C76.3416 106.666 75.7489 106.783 75.0863 106.783ZM75.6043 101.673C75.9403 101.673 76.2343 101.598 76.4863 101.449C76.7476 101.29 76.9483 101.075 77.0883 100.805C77.2283 100.525 77.2983 100.207 77.2983 99.8526C77.2983 99.4886 77.2283 99.1712 77.0883 98.9006C76.9483 98.6299 76.7476 98.4199 76.4863 98.2706C76.2343 98.1212 75.9403 98.0466 75.6043 98.0466C75.2683 98.0466 74.9743 98.1212 74.7223 98.2706C74.4703 98.4199 74.2696 98.6299 74.1203 98.9006C73.9803 99.1712 73.9103 99.4886 73.9103 99.8526C73.9103 100.207 73.9803 100.525 74.1203 100.805C74.2696 101.075 74.4703 101.29 74.7223 101.449C74.9743 101.598 75.2683 101.673 75.6043 101.673ZM83.4808 106.783C83.0794 106.783 82.6641 106.722 82.2348 106.601C81.8054 106.47 81.4041 106.279 81.0308 106.027C80.8814 105.933 80.7834 105.812 80.7368 105.663C80.6901 105.513 80.6808 105.369 80.7088 105.229C80.7461 105.079 80.8114 104.953 80.9048 104.851C81.0074 104.739 81.1334 104.673 81.2828 104.655C81.4321 104.627 81.5954 104.664 81.7728 104.767C82.0901 104.953 82.3888 105.084 82.6688 105.159C82.9488 105.233 83.2288 105.271 83.5088 105.271C84.0501 105.271 84.5074 105.145 84.8808 104.893C85.2541 104.641 85.5341 104.263 85.7208 103.759C85.9168 103.245 86.0148 102.615 86.0148 101.869V100.819H86.1828C86.1174 101.285 85.9634 101.691 85.7208 102.037C85.4781 102.382 85.1701 102.648 84.7968 102.835C84.4234 103.012 84.0081 103.101 83.5508 103.101C82.9908 103.101 82.4868 102.965 82.0388 102.695C81.6001 102.424 81.2548 102.051 81.0028 101.575C80.7508 101.089 80.6248 100.543 80.6248 99.9366C80.6248 99.2926 80.7601 98.7232 81.0308 98.2286C81.3108 97.7339 81.6981 97.3466 82.1928 97.0666C82.6874 96.7772 83.2521 96.6326 83.8868 96.6326C84.7081 96.6326 85.4034 96.8239 85.9728 97.2066C86.5421 97.5892 86.9761 98.1492 87.2748 98.8866C87.5734 99.6146 87.7228 100.497 87.7228 101.533C87.7228 102.373 87.6248 103.119 87.4288 103.773C87.2421 104.417 86.9668 104.963 86.6028 105.411C86.2388 105.859 85.7908 106.199 85.2588 106.433C84.7361 106.666 84.1434 106.783 83.4808 106.783ZM83.9988 101.673C84.3348 101.673 84.6288 101.598 84.8808 101.449C85.1421 101.29 85.3428 101.075 85.4828 100.805C85.6228 100.525 85.6928 100.207 85.6928 99.8526C85.6928 99.4886 85.6228 99.1712 85.4828 98.9006C85.3428 98.6299 85.1421 98.4199 84.8808 98.2706C84.6288 98.1212 84.3348 98.0466 83.9988 98.0466C83.6628 98.0466 83.3688 98.1212 83.1168 98.2706C82.8648 98.4199 82.6641 98.6299 82.5148 98.9006C82.3748 99.1712 82.3048 99.4886 82.3048 99.8526C82.3048 100.207 82.3748 100.525 82.5148 100.805C82.6641 101.075 82.8648 101.29 83.1168 101.449C83.3688 101.598 83.6628 101.673 83.9988 101.673ZM91.8753 106.783C91.474 106.783 91.0586 106.722 90.6293 106.601C90.2 106.47 89.7986 106.279 89.4253 106.027C89.276 105.933 89.178 105.812 89.1313 105.663C89.0846 105.513 89.0753 105.369 89.1033 105.229C89.1406 105.079 89.206 104.953 89.2993 104.851C89.402 104.739 89.528 104.673 89.6773 104.655C89.8266 104.627 89.99 104.664 90.1673 104.767C90.4846 104.953 90.7833 105.084 91.0633 105.159C91.3433 105.233 91.6233 105.271 91.9033 105.271C92.4446 105.271 92.902 105.145 93.2753 104.893C93.6486 104.641 93.9286 104.263 94.1153 103.759C94.3113 103.245 94.4093 102.615 94.4093 101.869V100.819H94.5773C94.512 101.285 94.358 101.691 94.1153 102.037C93.8726 102.382 93.5646 102.648 93.1913 102.835C92.818 103.012 92.4026 103.101 91.9453 103.101C91.3853 103.101 90.8813 102.965 90.4333 102.695C89.9946 102.424 89.6493 102.051 89.3973 101.575C89.1453 101.089 89.0193 100.543 89.0193 99.9366C89.0193 99.2926 89.1546 98.7232 89.4253 98.2286C89.7053 97.7339 90.0926 97.3466 90.5873 97.0666C91.082 96.7772 91.6466 96.6326 92.2813 96.6326C93.1026 96.6326 93.798 96.8239 94.3673 97.2066C94.9366 97.5892 95.3706 98.1492 95.6693 98.8866C95.968 99.6146 96.1173 100.497 96.1173 101.533C96.1173 102.373 96.0193 103.119 95.8233 103.773C95.6366 104.417 95.3613 104.963 94.9973 105.411C94.6333 105.859 94.1853 106.199 93.6533 106.433C93.1306 106.666 92.538 106.783 91.8753 106.783ZM92.3933 101.673C92.7293 101.673 93.0233 101.598 93.2753 101.449C93.5366 101.29 93.7373 101.075 93.8773 100.805C94.0173 100.525 94.0873 100.207 94.0873 99.8526C94.0873 99.4886 94.0173 99.1712 93.8773 98.9006C93.7373 98.6299 93.5366 98.4199 93.2753 98.2706C93.0233 98.1212 92.7293 98.0466 92.3933 98.0466C92.0573 98.0466 91.7633 98.1212 91.5113 98.2706C91.2593 98.4199 91.0586 98.6299 90.9093 98.9006C90.7693 99.1712 90.6993 99.4886 90.6993 99.8526C90.6993 100.207 90.7693 100.525 90.9093 100.805C91.0586 101.075 91.2593 101.29 91.5113 101.449C91.7633 101.598 92.0573 101.673 92.3933 101.673Z" fill="white"/>
<path d="M102.437 106.741C102.26 106.741 102.12 106.689 102.017 106.587C101.924 106.484 101.877 106.339 101.877 106.153V100.721H100.981C100.832 100.721 100.711 100.683 100.617 100.609C100.533 100.525 100.491 100.413 100.491 100.273C100.491 100.133 100.533 100.025 100.617 99.9506C100.711 99.8759 100.832 99.8386 100.981 99.8386H102.185L101.877 100.133V99.6006C101.877 98.7139 102.092 98.0372 102.521 97.5706C102.96 97.1039 103.599 96.8332 104.439 96.7586L104.845 96.7166C104.976 96.7072 105.079 96.7306 105.153 96.7866C105.237 96.8426 105.289 96.9126 105.307 96.9966C105.335 97.0806 105.34 97.1692 105.321 97.2626C105.303 97.3466 105.261 97.4212 105.195 97.4866C105.13 97.5519 105.051 97.5892 104.957 97.5986L104.635 97.6266C104.066 97.6732 103.651 97.8459 103.389 98.1446C103.137 98.4432 103.011 98.8819 103.011 99.4606V100.049L102.843 99.8386H104.523C104.682 99.8386 104.803 99.8759 104.887 99.9506C104.971 100.025 105.013 100.133 105.013 100.273C105.013 100.413 104.971 100.525 104.887 100.609C104.803 100.683 104.682 100.721 104.523 100.721H103.011V106.153C103.011 106.545 102.82 106.741 102.437 106.741ZM108.812 106.769C108.149 106.769 107.575 106.624 107.09 106.335C106.605 106.045 106.227 105.639 105.956 105.117C105.695 104.585 105.564 103.959 105.564 103.241C105.564 102.699 105.639 102.214 105.788 101.785C105.937 101.346 106.157 100.973 106.446 100.665C106.735 100.357 107.076 100.123 107.468 99.9646C107.869 99.7966 108.317 99.7126 108.812 99.7126C109.475 99.7126 110.049 99.8572 110.534 100.147C111.019 100.436 111.393 100.847 111.654 101.379C111.925 101.901 112.06 102.522 112.06 103.241C112.06 103.782 111.985 104.267 111.836 104.697C111.687 105.126 111.467 105.499 111.178 105.817C110.889 106.125 110.543 106.363 110.142 106.531C109.75 106.689 109.307 106.769 108.812 106.769ZM108.812 105.859C109.232 105.859 109.601 105.756 109.918 105.551C110.235 105.345 110.478 105.047 110.646 104.655C110.823 104.263 110.912 103.791 110.912 103.241C110.912 102.391 110.721 101.743 110.338 101.295C109.965 100.847 109.456 100.623 108.812 100.623C108.383 100.623 108.009 100.725 107.692 100.931C107.384 101.127 107.141 101.421 106.964 101.813C106.796 102.195 106.712 102.671 106.712 103.241C106.712 104.081 106.903 104.729 107.286 105.187C107.669 105.635 108.177 105.859 108.812 105.859ZM114.337 106.741C114.151 106.741 114.006 106.689 113.903 106.587C113.81 106.484 113.763 106.339 113.763 106.153V100.315C113.763 100.128 113.81 99.9879 113.903 99.8946C113.997 99.7919 114.132 99.7406 114.309 99.7406C114.487 99.7406 114.622 99.7919 114.715 99.8946C114.818 99.9879 114.869 100.128 114.869 100.315V101.449H114.729C114.879 100.898 115.163 100.473 115.583 100.175C116.003 99.8759 116.521 99.7172 117.137 99.6986C117.277 99.6892 117.389 99.7219 117.473 99.7966C117.557 99.8619 117.604 99.9786 117.613 100.147C117.623 100.305 117.585 100.431 117.501 100.525C117.417 100.618 117.287 100.674 117.109 100.693L116.885 100.721C116.251 100.777 115.761 100.982 115.415 101.337C115.079 101.682 114.911 102.158 114.911 102.765V106.153C114.911 106.339 114.86 106.484 114.757 106.587C114.664 106.689 114.524 106.741 114.337 106.741ZM125.736 106.769C125.204 106.769 124.672 106.689 124.14 106.531C123.618 106.372 123.142 106.125 122.712 105.789C122.6 105.714 122.526 105.625 122.488 105.523C122.451 105.42 122.446 105.317 122.474 105.215C122.502 105.112 122.554 105.028 122.628 104.963C122.703 104.888 122.792 104.846 122.894 104.837C123.006 104.827 123.123 104.865 123.244 104.949C123.627 105.219 124.024 105.42 124.434 105.551C124.845 105.681 125.274 105.747 125.722 105.747C126.18 105.747 126.572 105.663 126.898 105.495C127.234 105.317 127.486 105.075 127.654 104.767C127.832 104.449 127.92 104.081 127.92 103.661C127.92 103.017 127.734 102.489 127.36 102.079C126.987 101.668 126.474 101.463 125.82 101.463C125.419 101.463 125.05 101.537 124.714 101.687C124.378 101.836 124.07 102.074 123.79 102.401C123.725 102.475 123.646 102.541 123.552 102.597C123.468 102.643 123.37 102.667 123.258 102.667C123.1 102.667 122.974 102.625 122.88 102.541C122.796 102.447 122.754 102.326 122.754 102.177V97.3046C122.754 97.1272 122.801 96.9966 122.894 96.9126C122.988 96.8192 123.118 96.7726 123.286 96.7726H128.046C128.224 96.7726 128.354 96.8146 128.438 96.8986C128.532 96.9826 128.578 97.1039 128.578 97.2626C128.578 97.4212 128.532 97.5426 128.438 97.6266C128.354 97.7106 128.224 97.7526 128.046 97.7526H123.888V101.687H123.58C123.823 101.295 124.159 100.996 124.588 100.791C125.018 100.576 125.498 100.469 126.03 100.469C126.656 100.469 127.192 100.599 127.64 100.861C128.098 101.122 128.448 101.491 128.69 101.967C128.942 102.433 129.068 102.979 129.068 103.605C129.068 104.221 128.933 104.767 128.662 105.243C128.392 105.719 128.009 106.092 127.514 106.363C127.02 106.633 126.427 106.769 125.736 106.769ZM133.921 106.769C132.791 106.769 131.933 106.335 131.345 105.467C130.757 104.599 130.463 103.343 130.463 101.701C130.463 100.599 130.593 99.6752 130.855 98.9286C131.116 98.1726 131.503 97.6032 132.017 97.2206C132.539 96.8379 133.174 96.6466 133.921 96.6466C135.059 96.6466 135.918 97.0759 136.497 97.9346C137.085 98.7839 137.379 100.035 137.379 101.687C137.379 102.788 137.248 103.717 136.987 104.473C136.725 105.229 136.338 105.803 135.825 106.195C135.311 106.577 134.677 106.769 133.921 106.769ZM133.921 105.775C134.705 105.775 135.283 105.443 135.657 104.781C136.039 104.109 136.231 103.077 136.231 101.687C136.231 100.287 136.039 99.2646 135.657 98.6206C135.283 97.9672 134.705 97.6406 133.921 97.6406C133.146 97.6406 132.567 97.9672 132.185 98.6206C131.802 99.2739 131.611 100.296 131.611 101.687C131.611 103.077 131.802 104.109 132.185 104.781C132.567 105.443 133.146 105.775 133.921 105.775ZM143.349 106.741C143.162 106.741 143.022 106.689 142.929 106.587C142.835 106.484 142.789 106.339 142.789 106.153V97.2486C142.789 97.0619 142.835 96.9219 142.929 96.8286C143.022 96.7259 143.162 96.6746 143.349 96.6746C143.526 96.6746 143.666 96.7259 143.769 96.8286C143.871 96.9219 143.923 97.0619 143.923 97.2486V101.351H143.741C143.937 100.809 144.254 100.403 144.693 100.133C145.141 99.8526 145.654 99.7126 146.233 99.7126C146.774 99.7126 147.222 99.8106 147.577 100.007C147.941 100.203 148.211 100.501 148.389 100.903C148.566 101.295 148.655 101.794 148.655 102.401V106.153C148.655 106.339 148.603 106.484 148.501 106.587C148.407 106.689 148.272 106.741 148.095 106.741C147.908 106.741 147.763 106.689 147.661 106.587C147.567 106.484 147.521 106.339 147.521 106.153V102.471C147.521 101.836 147.395 101.374 147.143 101.085C146.9 100.786 146.508 100.637 145.967 100.637C145.341 100.637 144.842 100.833 144.469 101.225C144.105 101.607 143.923 102.121 143.923 102.765V106.153C143.923 106.545 143.731 106.741 143.349 106.741ZM151.32 106.741C151.133 106.741 150.988 106.689 150.886 106.587C150.792 106.484 150.746 106.339 150.746 106.153V100.315C150.746 100.128 150.792 99.9879 150.886 99.8946C150.979 99.7919 151.114 99.7406 151.292 99.7406C151.469 99.7406 151.604 99.7919 151.698 99.8946C151.8 99.9879 151.852 100.128 151.852 100.315V101.449H151.712C151.861 100.898 152.146 100.473 152.566 100.175C152.986 99.8759 153.504 99.7172 154.12 99.6986C154.26 99.6892 154.372 99.7219 154.456 99.7966C154.54 99.8619 154.586 99.9786 154.596 100.147C154.605 100.305 154.568 100.431 154.484 100.525C154.4 100.618 154.269 100.674 154.092 100.693L153.868 100.721C153.233 100.777 152.743 100.982 152.398 101.337C152.062 101.682 151.894 102.158 151.894 102.765V106.153C151.894 106.339 151.842 106.484 151.74 106.587C151.646 106.689 151.506 106.741 151.32 106.741ZM157.991 106.769C157.571 106.769 157.146 106.717 156.717 106.615C156.297 106.512 155.905 106.335 155.541 106.083C155.448 106.017 155.382 105.943 155.345 105.859C155.308 105.765 155.294 105.677 155.303 105.593C155.322 105.499 155.359 105.42 155.415 105.355C155.48 105.289 155.555 105.252 155.639 105.243C155.732 105.224 155.835 105.243 155.947 105.299C156.311 105.523 156.661 105.681 156.997 105.775C157.342 105.859 157.683 105.901 158.019 105.901C158.551 105.901 158.952 105.803 159.223 105.607C159.494 105.411 159.629 105.145 159.629 104.809C159.629 104.547 159.54 104.342 159.363 104.193C159.186 104.034 158.906 103.913 158.523 103.829L157.249 103.549C156.661 103.427 156.222 103.217 155.933 102.919C155.653 102.62 155.513 102.233 155.513 101.757C155.513 101.337 155.62 100.977 155.835 100.679C156.059 100.371 156.372 100.133 156.773 99.9646C157.174 99.7966 157.641 99.7126 158.173 99.7126C158.584 99.7126 158.971 99.7686 159.335 99.8806C159.708 99.9832 160.044 100.151 160.343 100.385C160.436 100.45 160.497 100.529 160.525 100.623C160.562 100.707 160.567 100.795 160.539 100.889C160.52 100.973 160.478 101.047 160.413 101.113C160.348 101.169 160.268 101.201 160.175 101.211C160.082 101.22 159.984 101.192 159.881 101.127C159.601 100.94 159.316 100.805 159.027 100.721C158.738 100.627 158.453 100.581 158.173 100.581C157.65 100.581 157.254 100.683 156.983 100.889C156.712 101.094 156.577 101.365 156.577 101.701C156.577 101.962 156.661 102.177 156.829 102.345C156.997 102.513 157.258 102.634 157.613 102.709L158.887 102.975C159.494 103.105 159.946 103.315 160.245 103.605C160.553 103.885 160.707 104.267 160.707 104.753C160.707 105.369 160.46 105.859 159.965 106.223C159.47 106.587 158.812 106.769 157.991 106.769ZM162.141 107.119C162.094 107.24 162.029 107.329 161.945 107.385C161.87 107.441 161.782 107.469 161.679 107.469C161.576 107.469 161.483 107.441 161.399 107.385C161.324 107.338 161.268 107.268 161.231 107.175C161.194 107.081 161.194 106.974 161.231 106.853L164.563 96.5206C164.61 96.3992 164.675 96.3106 164.759 96.2546C164.843 96.1986 164.932 96.1706 165.025 96.1706C165.128 96.1706 165.216 96.1986 165.291 96.2546C165.375 96.3012 165.431 96.3712 165.459 96.4646C165.496 96.5579 165.496 96.6652 165.459 96.7866L162.141 107.119ZM166.154 106.741C165.967 106.741 165.827 106.689 165.734 106.587C165.641 106.484 165.594 106.339 165.594 106.153V100.315C165.594 100.128 165.641 99.9879 165.734 99.8946C165.827 99.7919 165.963 99.7406 166.14 99.7406C166.317 99.7406 166.453 99.7919 166.546 99.8946C166.649 99.9879 166.7 100.128 166.7 100.315V101.547L166.546 101.351C166.723 100.828 167.008 100.427 167.4 100.147C167.801 99.8572 168.277 99.7126 168.828 99.7126C169.407 99.7126 169.873 99.8526 170.228 100.133C170.592 100.403 170.835 100.828 170.956 101.407H170.746C170.914 100.884 171.213 100.473 171.642 100.175C172.081 99.8666 172.589 99.7126 173.168 99.7126C173.681 99.7126 174.101 99.8106 174.428 100.007C174.764 100.203 175.016 100.501 175.184 100.903C175.352 101.295 175.436 101.794 175.436 102.401V106.153C175.436 106.339 175.385 106.484 175.282 106.587C175.189 106.689 175.049 106.741 174.862 106.741C174.685 106.741 174.545 106.689 174.442 106.587C174.349 106.484 174.302 106.339 174.302 106.153V102.457C174.302 101.831 174.195 101.374 173.98 101.085C173.765 100.786 173.401 100.637 172.888 100.637C172.328 100.637 171.885 100.833 171.558 101.225C171.241 101.607 171.082 102.13 171.082 102.793V106.153C171.082 106.339 171.031 106.484 170.928 106.587C170.835 106.689 170.695 106.741 170.508 106.741C170.331 106.741 170.191 106.689 170.088 106.587C169.995 106.484 169.948 106.339 169.948 106.153V102.457C169.948 101.831 169.836 101.374 169.612 101.085C169.397 100.786 169.038 100.637 168.534 100.637C167.974 100.637 167.531 100.833 167.204 101.225C166.887 101.607 166.728 102.13 166.728 102.793V106.153C166.728 106.545 166.537 106.741 166.154 106.741ZM180.384 106.769C179.722 106.769 179.148 106.624 178.662 106.335C178.177 106.045 177.799 105.639 177.528 105.117C177.267 104.585 177.136 103.959 177.136 103.241C177.136 102.699 177.211 102.214 177.36 101.785C177.51 101.346 177.729 100.973 178.018 100.665C178.308 100.357 178.648 100.123 179.04 99.9646C179.442 99.7966 179.89 99.7126 180.384 99.7126C181.047 99.7126 181.621 99.8572 182.106 100.147C182.592 100.436 182.965 100.847 183.226 101.379C183.497 101.901 183.632 102.522 183.632 103.241C183.632 103.782 183.558 104.267 183.408 104.697C183.259 105.126 183.04 105.499 182.75 105.817C182.461 106.125 182.116 106.363 181.714 106.531C181.322 106.689 180.879 106.769 180.384 106.769ZM180.384 105.859C180.804 105.859 181.173 105.756 181.49 105.551C181.808 105.345 182.05 105.047 182.218 104.655C182.396 104.263 182.484 103.791 182.484 103.241C182.484 102.391 182.293 101.743 181.91 101.295C181.537 100.847 181.028 100.623 180.384 100.623C179.955 100.623 179.582 100.725 179.264 100.931C178.956 101.127 178.714 101.421 178.536 101.813C178.368 102.195 178.284 102.671 178.284 103.241C178.284 104.081 178.476 104.729 178.858 105.187C179.241 105.635 179.75 105.859 180.384 105.859ZM185.895 106.741C185.709 106.741 185.569 106.689 185.475 106.587C185.382 106.484 185.335 106.339 185.335 106.153V100.315C185.335 100.128 185.382 99.9879 185.475 99.8946C185.569 99.7919 185.704 99.7406 185.881 99.7406C186.059 99.7406 186.194 99.7919 186.287 99.8946C186.39 99.9879 186.441 100.128 186.441 100.315V101.519L186.287 101.351C186.483 100.809 186.801 100.403 187.239 100.133C187.687 99.8526 188.201 99.7126 188.779 99.7126C189.321 99.7126 189.769 99.8106 190.123 100.007C190.487 100.203 190.758 100.501 190.935 100.903C191.113 101.295 191.201 101.794 191.201 102.401V106.153C191.201 106.339 191.15 106.484 191.047 106.587C190.954 106.689 190.819 106.741 190.641 106.741C190.455 106.741 190.31 106.689 190.207 106.587C190.114 106.484 190.067 106.339 190.067 106.153V102.471C190.067 101.836 189.941 101.374 189.689 101.085C189.447 100.786 189.055 100.637 188.513 100.637C187.888 100.637 187.389 100.833 187.015 101.225C186.651 101.607 186.469 102.121 186.469 102.765V106.153C186.469 106.545 186.278 106.741 185.895 106.741ZM196.023 106.769C195.491 106.769 195.043 106.675 194.679 106.489C194.324 106.293 194.058 106.013 193.881 105.649C193.703 105.275 193.615 104.823 193.615 104.291V100.721H192.677C192.518 100.721 192.397 100.683 192.313 100.609C192.229 100.525 192.187 100.413 192.187 100.273C192.187 100.133 192.229 100.025 192.313 99.9506C192.397 99.8759 192.518 99.8386 192.677 99.8386H193.615V98.2286C193.615 98.0419 193.666 97.9019 193.769 97.8086C193.871 97.7059 194.011 97.6546 194.189 97.6546C194.366 97.6546 194.501 97.7059 194.595 97.8086C194.697 97.9019 194.749 98.0419 194.749 98.2286V99.8386H196.513C196.671 99.8386 196.793 99.8759 196.877 99.9506C196.961 100.025 197.003 100.133 197.003 100.273C197.003 100.413 196.961 100.525 196.877 100.609C196.793 100.683 196.671 100.721 196.513 100.721H194.749V104.179C194.749 104.711 194.861 105.117 195.085 105.397C195.309 105.667 195.673 105.803 196.177 105.803C196.354 105.803 196.503 105.784 196.625 105.747C196.755 105.709 196.863 105.691 196.947 105.691C197.031 105.681 197.101 105.709 197.157 105.775C197.213 105.84 197.241 105.952 197.241 106.111C197.241 106.223 197.217 106.325 197.171 106.419C197.133 106.512 197.063 106.577 196.961 106.615C196.849 106.652 196.699 106.685 196.513 106.713C196.335 106.75 196.172 106.769 196.023 106.769ZM198.829 106.741C198.642 106.741 198.502 106.689 198.409 106.587C198.316 106.484 198.269 106.339 198.269 106.153V97.2486C198.269 97.0619 198.316 96.9219 198.409 96.8286C198.502 96.7259 198.642 96.6746 198.829 96.6746C199.006 96.6746 199.146 96.7259 199.249 96.8286C199.352 96.9219 199.403 97.0619 199.403 97.2486V101.351H199.221C199.417 100.809 199.734 100.403 200.173 100.133C200.621 99.8526 201.134 99.7126 201.713 99.7126C202.254 99.7126 202.702 99.8106 203.057 100.007C203.421 100.203 203.692 100.501 203.869 100.903C204.046 101.295 204.135 101.794 204.135 102.401V106.153C204.135 106.339 204.084 106.484 203.981 106.587C203.888 106.689 203.752 106.741 203.575 106.741C203.388 106.741 203.244 106.689 203.141 106.587C203.048 106.484 203.001 106.339 203.001 106.153V102.471C203.001 101.836 202.875 101.374 202.623 101.085C202.38 100.786 201.988 100.637 201.447 100.637C200.822 100.637 200.322 100.833 199.949 101.225C199.585 101.607 199.403 102.121 199.403 102.765V106.153C199.403 106.545 199.212 106.741 198.829 106.741Z" fill="white" fill-opacity="0.6"/>
</g>
<defs>
<clipPath id="clip0_1459_348">
<rect y="0.642578" width="250" height="131" rx="15" fill="white"/>
</clipPath>
</defs>
</svg>
