<svg width="250" height="132" viewBox="0 0 250 132" fill="none" xmlns="http://www.w3.org/2000/svg">
<g clip-path="url(#clip0_1459_376)">
<rect y="0.642578" width="250" height="131" rx="15" fill="url(#paint0_linear_1459_376)"/>
<path d="M41.0001 130.971C41.0001 157.204 19.7336 178.471 -6.49994 178.471C-32.7335 178.471 -53.9999 157.204 -53.9999 130.971C-53.9999 104.737 -32.7335 83.4707 -6.49994 83.4707C19.7336 83.4707 41.0001 104.737 41.0001 130.971Z" fill="white" fill-opacity="0.2"/>
<circle cx="249.5" cy="1.5" r="47.5" fill="white" fill-opacity="0.2"/>
<path d="M74.9726 69.0026C72.3326 69.0026 70.0646 68.4746 68.1686 67.4186C66.2966 66.3386 64.8566 64.8266 63.8486 62.8826C62.8406 60.9146 62.3366 58.5986 62.3366 55.9346C62.3366 53.9426 62.6246 52.1546 63.2006 50.5706C63.7766 48.9626 64.6046 47.5946 65.6846 46.4666C66.7646 45.3146 68.0846 44.4386 69.6446 43.8386C71.2286 43.2146 73.0046 42.9026 74.9726 42.9026C76.2926 42.9026 77.5886 43.0706 78.8606 43.4066C80.1326 43.7426 81.2486 44.2226 82.2086 44.8466C82.7126 45.1586 83.0486 45.5426 83.2166 45.9986C83.3846 46.4306 83.4206 46.8626 83.3246 47.2946C83.2286 47.7026 83.0246 48.0506 82.7126 48.3386C82.4246 48.6266 82.0526 48.7946 81.5966 48.8426C81.1646 48.8666 80.6846 48.7106 80.1566 48.3746C79.4126 47.8946 78.6086 47.5466 77.7446 47.3306C76.8806 47.1146 76.0046 47.0066 75.1166 47.0066C73.4126 47.0066 71.9726 47.3546 70.7966 48.0506C69.6206 48.7466 68.7326 49.7546 68.1326 51.0746C67.5326 52.3946 67.2326 54.0146 67.2326 55.9346C67.2326 57.8306 67.5326 59.4506 68.1326 60.7946C68.7326 62.1386 69.6206 63.1586 70.7966 63.8546C71.9726 64.5506 73.4126 64.8986 75.1166 64.8986C76.0286 64.8986 76.9286 64.7906 77.8166 64.5746C78.7046 64.3346 79.5446 63.9746 80.3366 63.4946C80.8646 63.1826 81.3326 63.0506 81.7406 63.0986C82.1726 63.1226 82.5326 63.2666 82.8206 63.5306C83.1086 63.7946 83.3006 64.1306 83.3966 64.5386C83.4926 64.9226 83.4686 65.3306 83.3246 65.7626C83.1806 66.1706 82.8926 66.5306 82.4606 66.8426C81.5006 67.5386 80.3486 68.0786 79.0046 68.4626C77.6846 68.8226 76.3406 69.0026 74.9726 69.0026ZM93.1163 69.0026C91.6523 69.0026 90.4403 68.7386 89.4803 68.2106C88.5203 67.6586 87.8003 66.8426 87.3203 65.7626C86.8643 64.6826 86.6363 63.3386 86.6363 61.7306V53.0186C86.6363 52.2506 86.8283 51.6866 87.2123 51.3266C87.5963 50.9426 88.1483 50.7506 88.8683 50.7506C89.5883 50.7506 90.1403 50.9426 90.5243 51.3266C90.9323 51.6866 91.1363 52.2506 91.1363 53.0186V61.8026C91.1363 63.0506 91.3883 63.9746 91.8923 64.5746C92.3963 65.1746 93.2003 65.4746 94.3043 65.4746C95.5043 65.4746 96.4883 65.0666 97.2563 64.2506C98.0243 63.4106 98.4083 62.3066 98.4083 60.9386V53.0186C98.4083 52.2506 98.6003 51.6866 98.9843 51.3266C99.3683 50.9426 99.9203 50.7506 100.64 50.7506C101.36 50.7506 101.912 50.9426 102.296 51.3266C102.704 51.6866 102.908 52.2506 102.908 53.0186V66.6266C102.908 68.1626 102.176 68.9306 100.712 68.9306C100.016 68.9306 99.4763 68.7386 99.0923 68.3546C98.7083 67.9466 98.5163 67.3706 98.5163 66.6266V63.8906L99.0203 64.9706C98.5163 66.2666 97.7483 67.2626 96.7163 67.9586C95.7083 68.6546 94.5083 69.0026 93.1163 69.0026ZM114.036 69.0026C113.004 69.0026 111.912 68.8946 110.76 68.6786C109.608 68.4626 108.576 68.0906 107.664 67.5626C107.28 67.3226 107.004 67.0466 106.836 66.7346C106.692 66.3986 106.632 66.0746 106.656 65.7626C106.704 65.4266 106.824 65.1386 107.016 64.8986C107.232 64.6586 107.496 64.5026 107.808 64.4306C108.144 64.3586 108.504 64.4186 108.888 64.6106C109.848 65.0666 110.748 65.3906 111.588 65.5826C112.428 65.7506 113.256 65.8346 114.072 65.8346C115.224 65.8346 116.076 65.6426 116.628 65.2586C117.204 64.8506 117.492 64.3226 117.492 63.6746C117.492 63.1226 117.3 62.7026 116.916 62.4146C116.556 62.1026 116.004 61.8746 115.26 61.7306L111.66 61.0466C110.172 60.7586 109.032 60.2186 108.24 59.4266C107.472 58.6106 107.088 57.5666 107.088 56.2946C107.088 55.1426 107.4 54.1466 108.024 53.3066C108.672 52.4666 109.56 51.8186 110.688 51.3626C111.816 50.9066 113.112 50.6786 114.576 50.6786C115.632 50.6786 116.616 50.7986 117.528 51.0386C118.464 51.2546 119.364 51.6026 120.228 52.0826C120.588 52.2746 120.828 52.5266 120.948 52.8386C121.092 53.1506 121.128 53.4746 121.056 53.8106C120.984 54.1226 120.84 54.4106 120.624 54.6746C120.408 54.9146 120.132 55.0706 119.796 55.1426C119.484 55.1906 119.124 55.1186 118.716 54.9266C117.972 54.5426 117.252 54.2666 116.556 54.0986C115.884 53.9306 115.236 53.8466 114.612 53.8466C113.436 53.8466 112.56 54.0506 111.984 54.4586C111.432 54.8666 111.156 55.4066 111.156 56.0786C111.156 56.5826 111.324 57.0026 111.66 57.3386C111.996 57.6746 112.512 57.9026 113.208 58.0226L116.808 58.7066C118.368 58.9946 119.544 59.5226 120.336 60.2906C121.152 61.0586 121.56 62.0906 121.56 63.3866C121.56 65.1386 120.876 66.5186 119.508 67.5266C118.14 68.5106 116.316 69.0026 114.036 69.0026ZM133.058 69.0026C131.498 69.0026 130.19 68.7386 129.134 68.2106C128.102 67.6826 127.334 66.9146 126.83 65.9066C126.326 64.8746 126.074 63.6026 126.074 62.0906V54.4226H124.202C123.626 54.4226 123.182 54.2786 122.87 53.9906C122.558 53.6786 122.402 53.2586 122.402 52.7306C122.402 52.1786 122.558 51.7586 122.87 51.4706C123.182 51.1826 123.626 51.0386 124.202 51.0386H126.074V47.7626C126.074 47.0186 126.266 46.4546 126.65 46.0706C127.058 45.6866 127.622 45.4946 128.342 45.4946C129.062 45.4946 129.614 45.6866 129.998 46.0706C130.382 46.4546 130.574 47.0186 130.574 47.7626V51.0386H134.39C134.966 51.0386 135.41 51.1826 135.722 51.4706C136.034 51.7586 136.19 52.1786 136.19 52.7306C136.19 53.2586 136.034 53.6786 135.722 53.9906C135.41 54.2786 134.966 54.4226 134.39 54.4226H130.574V61.8386C130.574 62.9906 130.826 63.8546 131.33 64.4306C131.834 65.0066 132.65 65.2946 133.778 65.2946C134.186 65.2946 134.546 65.2586 134.858 65.1866C135.17 65.1146 135.446 65.0666 135.686 65.0426C135.974 65.0186 136.214 65.1146 136.406 65.3306C136.598 65.5226 136.694 65.9306 136.694 66.5546C136.694 67.0346 136.61 67.4666 136.442 67.8506C136.298 68.2106 136.022 68.4626 135.614 68.6066C135.302 68.7026 134.894 68.7866 134.39 68.8586C133.886 68.9546 133.442 69.0026 133.058 69.0026ZM146.663 69.0026C144.839 69.0026 143.255 68.6306 141.911 67.8866C140.567 67.1426 139.523 66.0866 138.779 64.7186C138.035 63.3266 137.663 61.6946 137.663 59.8226C137.663 58.4066 137.867 57.1466 138.275 56.0426C138.707 54.9146 139.319 53.9546 140.111 53.1626C140.903 52.3466 141.851 51.7346 142.955 51.3266C144.059 50.8946 145.295 50.6786 146.663 50.6786C148.487 50.6786 150.071 51.0506 151.415 51.7946C152.759 52.5386 153.803 53.5946 154.547 54.9626C155.291 56.3306 155.663 57.9506 155.663 59.8226C155.663 61.2386 155.447 62.5106 155.015 63.6386C154.607 64.7666 154.007 65.7386 153.215 66.5546C152.423 67.3466 151.475 67.9586 150.371 68.3906C149.267 68.7986 148.031 69.0026 146.663 69.0026ZM146.663 65.5826C147.551 65.5826 148.331 65.3666 149.003 64.9346C149.675 64.5026 150.191 63.8666 150.551 63.0266C150.935 62.1626 151.127 61.0946 151.127 59.8226C151.127 57.9026 150.719 56.4746 149.903 55.5386C149.087 54.5786 148.007 54.0986 146.663 54.0986C145.775 54.0986 144.995 54.3146 144.323 54.7466C143.651 55.1546 143.123 55.7906 142.739 56.6546C142.379 57.4946 142.199 58.5506 142.199 59.8226C142.199 61.7186 142.607 63.1586 143.423 64.1426C144.239 65.1026 145.319 65.5826 146.663 65.5826ZM161.681 68.9306C160.961 68.9306 160.409 68.7386 160.025 68.3546C159.641 67.9466 159.449 67.3706 159.449 66.6266V53.0186C159.449 52.2746 159.641 51.7106 160.025 51.3266C160.409 50.9426 160.949 50.7506 161.645 50.7506C162.341 50.7506 162.881 50.9426 163.265 51.3266C163.649 51.7106 163.841 52.2746 163.841 53.0186V55.6466L163.445 54.5666C163.925 53.3666 164.669 52.4186 165.677 51.7226C166.685 51.0266 167.885 50.6786 169.277 50.6786C170.693 50.6786 171.857 51.0146 172.769 51.6866C173.681 52.3586 174.317 53.3906 174.677 54.7826H174.173C174.653 53.5106 175.445 52.5146 176.549 51.7946C177.653 51.0506 178.925 50.6786 180.365 50.6786C181.709 50.6786 182.813 50.9426 183.677 51.4706C184.565 51.9986 185.225 52.8026 185.657 53.8826C186.089 54.9386 186.305 56.2826 186.305 57.9146V66.6266C186.305 67.3706 186.101 67.9466 185.693 68.3546C185.309 68.7386 184.757 68.9306 184.037 68.9306C183.317 68.9306 182.765 68.7386 182.381 68.3546C181.997 67.9466 181.805 67.3706 181.805 66.6266V58.0946C181.805 56.7506 181.577 55.7666 181.121 55.1426C180.689 54.5186 179.945 54.2066 178.889 54.2066C177.713 54.2066 176.789 54.6266 176.117 55.4666C175.445 56.2826 175.109 57.4226 175.109 58.8866V66.6266C175.109 67.3706 174.917 67.9466 174.533 68.3546C174.149 68.7386 173.597 68.9306 172.877 68.9306C172.157 68.9306 171.593 68.7386 171.185 68.3546C170.801 67.9466 170.609 67.3706 170.609 66.6266V58.0946C170.609 56.7506 170.381 55.7666 169.925 55.1426C169.493 54.5186 168.761 54.2066 167.729 54.2066C166.553 54.2066 165.629 54.6266 164.957 55.4666C164.285 56.2826 163.949 57.4226 163.949 58.8866V66.6266C163.949 68.1626 163.193 68.9306 161.681 68.9306Z" fill="white"/>
<path d="M56.792 91.7406C56.6053 91.7406 56.4607 91.6892 56.358 91.5866C56.2647 91.4746 56.218 91.3252 56.218 91.1386V82.3606C56.218 82.1646 56.2693 82.0199 56.372 81.9266C56.4747 81.8239 56.6193 81.7726 56.806 81.7726H60.124C61.1787 81.7726 61.9907 82.0339 62.56 82.5566C63.1293 83.0699 63.414 83.7979 63.414 84.7406C63.414 85.6739 63.1293 86.4019 62.56 86.9246C61.9907 87.4472 61.1787 87.7086 60.124 87.7086H57.366V91.1386C57.366 91.3252 57.3193 91.4746 57.226 91.5866C57.1327 91.6892 56.988 91.7406 56.792 91.7406ZM57.366 86.7426H59.984C60.74 86.7426 61.3093 86.5746 61.692 86.2386C62.084 85.8932 62.28 85.3939 62.28 84.7406C62.28 84.0779 62.084 83.5786 61.692 83.2426C61.3093 82.8972 60.74 82.7246 59.984 82.7246H57.366V86.7426ZM65.3607 91.7406C65.174 91.7406 65.0293 91.6892 64.9267 91.5866C64.8333 91.4839 64.7867 91.3392 64.7867 91.1526V85.3146C64.7867 85.1279 64.8333 84.9879 64.9267 84.8946C65.02 84.7919 65.1553 84.7406 65.3327 84.7406C65.51 84.7406 65.6453 84.7919 65.7387 84.8946C65.8413 84.9879 65.8927 85.1279 65.8927 85.3146V86.4486H65.7527C65.902 85.8979 66.1867 85.4732 66.6067 85.1746C67.0267 84.8759 67.5447 84.7172 68.1607 84.6986C68.3007 84.6892 68.4127 84.7219 68.4967 84.7966C68.5807 84.8619 68.6273 84.9786 68.6367 85.1466C68.646 85.3052 68.6087 85.4312 68.5247 85.5246C68.4407 85.6179 68.31 85.6739 68.1327 85.6926L67.9087 85.7206C67.274 85.7766 66.784 85.9819 66.4387 86.3366C66.1027 86.6819 65.9347 87.1579 65.9347 87.7646V91.1526C65.9347 91.3392 65.8833 91.4839 65.7807 91.5866C65.6873 91.6892 65.5473 91.7406 65.3607 91.7406ZM70.3642 91.7126C70.1776 91.7126 70.0376 91.6612 69.9442 91.5586C69.8509 91.4466 69.8042 91.2926 69.8042 91.0966V85.3706C69.8042 85.1746 69.8509 85.0252 69.9442 84.9226C70.0376 84.8199 70.1776 84.7686 70.3642 84.7686C70.5416 84.7686 70.6816 84.8199 70.7842 84.9226C70.8869 85.0252 70.9382 85.1746 70.9382 85.3706V91.0966C70.9382 91.2926 70.8869 91.4466 70.7842 91.5586C70.6909 91.6612 70.5509 91.7126 70.3642 91.7126ZM70.3642 83.2006C70.1309 83.2006 69.9489 83.1399 69.8182 83.0186C69.6876 82.8879 69.6222 82.7152 69.6222 82.5006C69.6222 82.2766 69.6876 82.1086 69.8182 81.9966C69.9489 81.8752 70.1309 81.8146 70.3642 81.8146C70.6069 81.8146 70.7889 81.8752 70.9102 81.9966C71.0409 82.1086 71.1062 82.2766 71.1062 82.5006C71.1062 82.7152 71.0409 82.8879 70.9102 83.0186C70.7889 83.1399 70.6069 83.2006 70.3642 83.2006ZM75.9421 91.7686C75.2608 91.7686 74.6728 91.6192 74.1781 91.3206C73.6835 91.0219 73.3008 90.6066 73.0301 90.0746C72.7688 89.5332 72.6381 88.9079 72.6381 88.1986C72.6381 87.6572 72.7128 87.1719 72.8621 86.7426C73.0115 86.3132 73.2308 85.9492 73.5201 85.6506C73.8095 85.3426 74.1548 85.1092 74.5561 84.9506C74.9668 84.7919 75.4288 84.7126 75.9421 84.7126C76.2781 84.7126 76.6281 84.7639 76.9921 84.8666C77.3561 84.9692 77.6875 85.1466 77.9861 85.3986C78.0795 85.4639 78.1401 85.5432 78.1681 85.6366C78.1961 85.7299 78.1961 85.8232 78.1681 85.9166C78.1401 86.0006 78.0935 86.0752 78.0281 86.1406C77.9628 86.1966 77.8788 86.2292 77.7761 86.2386C77.6828 86.2479 77.5848 86.2152 77.4821 86.1406C77.2395 85.9539 76.9921 85.8232 76.7401 85.7486C76.4881 85.6739 76.2455 85.6366 76.0121 85.6366C75.6481 85.6366 75.3308 85.6972 75.0601 85.8186C74.7895 85.9306 74.5608 86.0939 74.3741 86.3086C74.1875 86.5232 74.0428 86.7892 73.9401 87.1066C73.8468 87.4239 73.8001 87.7926 73.8001 88.2126C73.8001 89.0246 73.9915 89.6686 74.3741 90.1446C74.7568 90.6112 75.3028 90.8446 76.0121 90.8446C76.2455 90.8446 76.4835 90.8072 76.7261 90.7326C76.9781 90.6579 77.2301 90.5272 77.4821 90.3406C77.5848 90.2659 77.6828 90.2332 77.7761 90.2426C77.8695 90.2519 77.9488 90.2892 78.0141 90.3546C78.0795 90.4106 78.1215 90.4852 78.1401 90.5786C78.1681 90.6719 78.1681 90.7652 78.1401 90.8586C78.1121 90.9426 78.0515 91.0172 77.9581 91.0826C77.6595 91.3252 77.3328 91.5026 76.9781 91.6146C76.6235 91.7172 76.2781 91.7686 75.9421 91.7686ZM80.0986 91.7126C79.9119 91.7126 79.7719 91.6612 79.6786 91.5586C79.5853 91.4466 79.5386 91.2926 79.5386 91.0966V85.3706C79.5386 85.1746 79.5853 85.0252 79.6786 84.9226C79.7719 84.8199 79.9119 84.7686 80.0986 84.7686C80.2759 84.7686 80.4159 84.8199 80.5186 84.9226C80.6213 85.0252 80.6726 85.1746 80.6726 85.3706V91.0966C80.6726 91.2926 80.6213 91.4466 80.5186 91.5586C80.4253 91.6612 80.2853 91.7126 80.0986 91.7126ZM80.0986 83.2006C79.8653 83.2006 79.6833 83.1399 79.5526 83.0186C79.4219 82.8879 79.3566 82.7152 79.3566 82.5006C79.3566 82.2766 79.4219 82.1086 79.5526 81.9966C79.6833 81.8752 79.8653 81.8146 80.0986 81.8146C80.3413 81.8146 80.5233 81.8752 80.6446 81.9966C80.7753 82.1086 80.8406 82.2766 80.8406 82.5006C80.8406 82.7152 80.7753 82.8879 80.6446 83.0186C80.5233 83.1399 80.3413 83.2006 80.0986 83.2006ZM83.3525 91.7406C83.1658 91.7406 83.0258 91.6892 82.9325 91.5866C82.8392 91.4839 82.7925 91.3392 82.7925 91.1526V85.3146C82.7925 85.1279 82.8392 84.9879 82.9325 84.8946C83.0258 84.7919 83.1612 84.7406 83.3385 84.7406C83.5158 84.7406 83.6512 84.7919 83.7445 84.8946C83.8472 84.9879 83.8985 85.1279 83.8985 85.3146V86.5186L83.7445 86.3506C83.9405 85.8092 84.2578 85.4032 84.6965 85.1326C85.1445 84.8526 85.6578 84.7126 86.2365 84.7126C86.7778 84.7126 87.2258 84.8106 87.5805 85.0066C87.9445 85.2026 88.2152 85.5012 88.3925 85.9026C88.5698 86.2946 88.6585 86.7939 88.6585 87.4006V91.1526C88.6585 91.3392 88.6072 91.4839 88.5045 91.5866C88.4112 91.6892 88.2758 91.7406 88.0985 91.7406C87.9118 91.7406 87.7672 91.6892 87.6645 91.5866C87.5712 91.4839 87.5245 91.3392 87.5245 91.1526V87.4706C87.5245 86.8359 87.3985 86.3739 87.1465 86.0846C86.9038 85.7859 86.5118 85.6366 85.9705 85.6366C85.3452 85.6366 84.8458 85.8326 84.4725 86.2246C84.1085 86.6072 83.9265 87.1206 83.9265 87.7646V91.1526C83.9265 91.5446 83.7352 91.7406 83.3525 91.7406ZM93.7595 94.2886C93.2649 94.2886 92.7795 94.2279 92.3035 94.1066C91.8369 93.9946 91.4122 93.8126 91.0295 93.5606C90.9175 93.4952 90.8429 93.4159 90.8055 93.3226C90.7775 93.2292 90.7729 93.1359 90.7915 93.0426C90.8102 92.9586 90.8522 92.8792 90.9175 92.8046C90.9829 92.7392 91.0575 92.6972 91.1415 92.6786C91.2349 92.6599 91.3282 92.6739 91.4215 92.7206C91.8322 92.9726 92.2242 93.1452 92.5975 93.2386C92.9709 93.3319 93.3395 93.3786 93.7035 93.3786C94.3662 93.3786 94.8655 93.2012 95.2015 92.8466C95.5469 92.4919 95.7195 91.9786 95.7195 91.3066V89.7246H95.8595C95.7195 90.2659 95.4209 90.6952 94.9635 91.0126C94.5155 91.3299 93.9882 91.4886 93.3815 91.4886C92.7562 91.4886 92.2149 91.3486 91.7575 91.0686C91.3002 90.7792 90.9455 90.3779 90.6935 89.8646C90.4509 89.3512 90.3295 88.7586 90.3295 88.0866C90.3295 87.5826 90.3995 87.1252 90.5395 86.7146C90.6795 86.2946 90.8802 85.9399 91.1415 85.6506C91.4122 85.3519 91.7342 85.1232 92.1075 84.9646C92.4902 84.7966 92.9149 84.7126 93.3815 84.7126C93.9975 84.7126 94.5295 84.8712 94.9775 85.1886C95.4255 85.4966 95.7149 85.9166 95.8455 86.4486L95.7055 86.6166V85.3146C95.7055 85.1279 95.7522 84.9879 95.8455 84.8946C95.9482 84.7919 96.0882 84.7406 96.2655 84.7406C96.4522 84.7406 96.5922 84.7919 96.6855 84.8946C96.7789 84.9879 96.8255 85.1279 96.8255 85.3146V91.1526C96.8255 92.1886 96.5642 92.9679 96.0415 93.4906C95.5282 94.0226 94.7675 94.2886 93.7595 94.2886ZM93.5915 90.5646C94.0302 90.5646 94.4082 90.4666 94.7255 90.2706C95.0429 90.0652 95.2855 89.7759 95.4535 89.4026C95.6309 89.0292 95.7195 88.5906 95.7195 88.0866C95.7195 87.3306 95.5282 86.7332 95.1455 86.2946C94.7629 85.8466 94.2449 85.6226 93.5915 85.6226C93.1622 85.6226 92.7889 85.7252 92.4715 85.9306C92.1542 86.1266 91.9069 86.4112 91.7295 86.7846C91.5615 87.1486 91.4775 87.5826 91.4775 88.0866C91.4775 88.8426 91.6689 89.4446 92.0515 89.8926C92.4342 90.3406 92.9475 90.5646 93.5915 90.5646ZM106.006 91.7686C105.39 91.7686 104.858 91.6099 104.41 91.2926C103.971 90.9752 103.677 90.5506 103.528 90.0186L103.682 89.8646V91.1526C103.682 91.3392 103.631 91.4839 103.528 91.5866C103.435 91.6892 103.299 91.7406 103.122 91.7406C102.935 91.7406 102.795 91.6892 102.702 91.5866C102.609 91.4839 102.562 91.3392 102.562 91.1526V82.2486C102.562 82.0619 102.609 81.9219 102.702 81.8286C102.795 81.7259 102.935 81.6746 103.122 81.6746C103.299 81.6746 103.439 81.7259 103.542 81.8286C103.645 81.9219 103.696 82.0619 103.696 82.2486V86.4206H103.528C103.687 85.8979 103.985 85.4826 104.424 85.1746C104.863 84.8666 105.39 84.7126 106.006 84.7126C106.622 84.7126 107.154 84.8572 107.602 85.1466C108.05 85.4266 108.395 85.8326 108.638 86.3646C108.89 86.8872 109.016 87.5126 109.016 88.2406C109.016 88.9592 108.89 89.5846 108.638 90.1166C108.395 90.6392 108.045 91.0452 107.588 91.3346C107.14 91.6239 106.613 91.7686 106.006 91.7686ZM105.768 90.8586C106.197 90.8586 106.566 90.7559 106.874 90.5506C107.191 90.3452 107.434 90.0466 107.602 89.6546C107.779 89.2626 107.868 88.7912 107.868 88.2406C107.868 87.3912 107.677 86.7426 107.294 86.2946C106.921 85.8466 106.412 85.6226 105.768 85.6226C105.348 85.6226 104.979 85.7252 104.662 85.9306C104.345 86.1266 104.097 86.4206 103.92 86.8126C103.752 87.1952 103.668 87.6712 103.668 88.2406C103.668 89.0806 103.859 89.7292 104.242 90.1866C104.625 90.6346 105.133 90.8586 105.768 90.8586ZM112.866 91.7686C112.399 91.7686 111.979 91.6799 111.606 91.5026C111.242 91.3159 110.953 91.0639 110.738 90.7466C110.523 90.4292 110.416 90.0746 110.416 89.6826C110.416 89.1786 110.542 88.7819 110.794 88.4926C111.055 88.2032 111.48 87.9979 112.068 87.8766C112.665 87.7552 113.477 87.6946 114.504 87.6946H115.134V88.4366H114.518C113.762 88.4366 113.165 88.4739 112.726 88.5486C112.297 88.6139 111.993 88.7306 111.816 88.8986C111.648 89.0666 111.564 89.3046 111.564 89.6126C111.564 89.9952 111.695 90.3079 111.956 90.5506C112.227 90.7932 112.591 90.9146 113.048 90.9146C113.421 90.9146 113.748 90.8259 114.028 90.6486C114.317 90.4712 114.541 90.2286 114.7 89.9206C114.868 89.6126 114.952 89.2579 114.952 88.8566V87.2606C114.952 86.6819 114.835 86.2666 114.602 86.0146C114.369 85.7532 113.986 85.6226 113.454 85.6226C113.127 85.6226 112.801 85.6646 112.474 85.7486C112.147 85.8326 111.802 85.9679 111.438 86.1546C111.307 86.2199 111.195 86.2432 111.102 86.2246C111.009 86.1966 110.934 86.1452 110.878 86.0706C110.822 85.9959 110.789 85.9119 110.78 85.8186C110.771 85.7159 110.789 85.6179 110.836 85.5246C110.892 85.4312 110.976 85.3566 111.088 85.3006C111.499 85.0952 111.905 84.9459 112.306 84.8526C112.707 84.7592 113.09 84.7126 113.454 84.7126C114.042 84.7126 114.527 84.8106 114.91 85.0066C115.293 85.1932 115.577 85.4826 115.764 85.8746C115.951 86.2572 116.044 86.7519 116.044 87.3586V91.1526C116.044 91.3392 115.997 91.4839 115.904 91.5866C115.82 91.6892 115.694 91.7406 115.526 91.7406C115.349 91.7406 115.213 91.6892 115.12 91.5866C115.027 91.4839 114.98 91.3392 114.98 91.1526V90.0606H115.106C115.031 90.4152 114.887 90.7186 114.672 90.9706C114.467 91.2226 114.21 91.4186 113.902 91.5586C113.594 91.6986 113.249 91.7686 112.866 91.7686ZM120.444 91.7686C120.024 91.7686 119.599 91.7172 119.17 91.6146C118.75 91.5119 118.358 91.3346 117.994 91.0826C117.901 91.0172 117.835 90.9426 117.798 90.8586C117.761 90.7652 117.747 90.6766 117.756 90.5926C117.775 90.4992 117.812 90.4199 117.868 90.3546C117.933 90.2892 118.008 90.2519 118.092 90.2426C118.185 90.2239 118.288 90.2426 118.4 90.2986C118.764 90.5226 119.114 90.6812 119.45 90.7746C119.795 90.8586 120.136 90.9006 120.472 90.9006C121.004 90.9006 121.405 90.8026 121.676 90.6066C121.947 90.4106 122.082 90.1446 122.082 89.8086C122.082 89.5472 121.993 89.3419 121.816 89.1926C121.639 89.0339 121.359 88.9126 120.976 88.8286L119.702 88.5486C119.114 88.4272 118.675 88.2172 118.386 87.9186C118.106 87.6199 117.966 87.2326 117.966 86.7566C117.966 86.3366 118.073 85.9772 118.288 85.6786C118.512 85.3706 118.825 85.1326 119.226 84.9646C119.627 84.7966 120.094 84.7126 120.626 84.7126C121.037 84.7126 121.424 84.7686 121.788 84.8806C122.161 84.9832 122.497 85.1512 122.796 85.3846C122.889 85.4499 122.95 85.5292 122.978 85.6226C123.015 85.7066 123.02 85.7952 122.992 85.8886C122.973 85.9726 122.931 86.0472 122.866 86.1126C122.801 86.1686 122.721 86.2012 122.628 86.2106C122.535 86.2199 122.437 86.1919 122.334 86.1266C122.054 85.9399 121.769 85.8046 121.48 85.7206C121.191 85.6272 120.906 85.5806 120.626 85.5806C120.103 85.5806 119.707 85.6832 119.436 85.8886C119.165 86.0939 119.03 86.3646 119.03 86.7006C119.03 86.9619 119.114 87.1766 119.282 87.3446C119.45 87.5126 119.711 87.6339 120.066 87.7086L121.34 87.9746C121.947 88.1052 122.399 88.3152 122.698 88.6046C123.006 88.8846 123.16 89.2672 123.16 89.7526C123.16 90.3686 122.913 90.8586 122.418 91.2226C121.923 91.5866 121.265 91.7686 120.444 91.7686ZM127.954 91.7686C127.236 91.7686 126.615 91.6286 126.092 91.3486C125.579 91.0592 125.178 90.6532 124.888 90.1306C124.608 89.6079 124.468 88.9826 124.468 88.2546C124.468 87.5452 124.608 86.9292 124.888 86.4066C125.168 85.8746 125.551 85.4592 126.036 85.1606C126.531 84.8619 127.1 84.7126 127.744 84.7126C128.202 84.7126 128.612 84.7919 128.976 84.9506C129.34 85.0999 129.648 85.3192 129.9 85.6086C130.162 85.8979 130.358 86.2479 130.488 86.6586C130.628 87.0692 130.698 87.5312 130.698 88.0446C130.698 88.1939 130.656 88.3059 130.572 88.3806C130.488 88.4459 130.367 88.4786 130.208 88.4786H125.336V87.7366H129.942L129.718 87.9186C129.718 87.4146 129.644 86.9899 129.494 86.6446C129.345 86.2899 129.126 86.0192 128.836 85.8326C128.556 85.6459 128.202 85.5526 127.772 85.5526C127.296 85.5526 126.89 85.6646 126.554 85.8886C126.228 86.1032 125.98 86.4066 125.812 86.7986C125.644 87.1812 125.56 87.6292 125.56 88.1426V88.2266C125.56 89.0852 125.766 89.7386 126.176 90.1866C126.596 90.6346 127.189 90.8586 127.954 90.8586C128.272 90.8586 128.584 90.8166 128.892 90.7326C129.21 90.6486 129.518 90.5086 129.816 90.3126C129.947 90.2286 130.064 90.1912 130.166 90.2006C130.278 90.2006 130.367 90.2332 130.432 90.2986C130.498 90.3546 130.54 90.4292 130.558 90.5226C130.586 90.6066 130.577 90.6999 130.53 90.8026C130.493 90.9052 130.414 90.9939 130.292 91.0686C129.984 91.2926 129.62 91.4652 129.2 91.5866C128.78 91.7079 128.365 91.7686 127.954 91.7686ZM134.929 91.7686C134.323 91.7686 133.791 91.6239 133.333 91.3346C132.885 91.0452 132.535 90.6392 132.283 90.1166C132.041 89.5846 131.919 88.9592 131.919 88.2406C131.919 87.5126 132.041 86.8872 132.283 86.3646C132.535 85.8326 132.885 85.4266 133.333 85.1466C133.791 84.8572 134.323 84.7126 134.929 84.7126C135.545 84.7126 136.073 84.8666 136.511 85.1746C136.95 85.4826 137.244 85.8979 137.393 86.4206H137.239V82.2486C137.239 82.0619 137.286 81.9219 137.379 81.8286C137.482 81.7259 137.627 81.6746 137.813 81.6746C137.991 81.6746 138.126 81.7259 138.219 81.8286C138.322 81.9219 138.373 82.0619 138.373 82.2486V91.1526C138.373 91.3392 138.327 91.4839 138.233 91.5866C138.14 91.6892 138 91.7406 137.813 91.7406C137.636 91.7406 137.496 91.6892 137.393 91.5866C137.3 91.4839 137.253 91.3392 137.253 91.1526V89.8226L137.407 90.0186C137.258 90.5506 136.959 90.9752 136.511 91.2926C136.073 91.6099 135.545 91.7686 134.929 91.7686ZM135.167 90.8586C135.587 90.8586 135.956 90.7559 136.273 90.5506C136.591 90.3452 136.833 90.0466 137.001 89.6546C137.179 89.2626 137.267 88.7912 137.267 88.2406C137.267 87.3912 137.076 86.7426 136.693 86.2946C136.32 85.8466 135.811 85.6226 135.167 85.6226C134.738 85.6226 134.365 85.7252 134.047 85.9306C133.739 86.1266 133.497 86.4206 133.319 86.8126C133.151 87.1952 133.067 87.6712 133.067 88.2406C133.067 89.0806 133.259 89.7292 133.641 90.1866C134.024 90.6346 134.533 90.8586 135.167 90.8586ZM146.939 91.7686C146.276 91.7686 145.702 91.6239 145.217 91.3346C144.732 91.0452 144.354 90.6392 144.083 90.1166C143.822 89.5846 143.691 88.9592 143.691 88.2406C143.691 87.6992 143.766 87.2139 143.915 86.7846C144.064 86.3459 144.284 85.9726 144.573 85.6646C144.862 85.3566 145.203 85.1232 145.595 84.9646C145.996 84.7966 146.444 84.7126 146.939 84.7126C147.602 84.7126 148.176 84.8572 148.661 85.1466C149.146 85.4359 149.52 85.8466 149.781 86.3786C150.052 86.9012 150.187 87.5219 150.187 88.2406C150.187 88.7819 150.112 89.2672 149.963 89.6966C149.814 90.1259 149.594 90.4992 149.305 90.8166C149.016 91.1246 148.67 91.3626 148.269 91.5306C147.877 91.6892 147.434 91.7686 146.939 91.7686ZM146.939 90.8586C147.359 90.8586 147.728 90.7559 148.045 90.5506C148.362 90.3452 148.605 90.0466 148.773 89.6546C148.95 89.2626 149.039 88.7912 149.039 88.2406C149.039 87.3912 148.848 86.7426 148.465 86.2946C148.092 85.8466 147.583 85.6226 146.939 85.6226C146.51 85.6226 146.136 85.7252 145.819 85.9306C145.511 86.1266 145.268 86.4206 145.091 86.8126C144.923 87.1952 144.839 87.6712 144.839 88.2406C144.839 89.0806 145.03 89.7292 145.413 90.1866C145.796 90.6346 146.304 90.8586 146.939 90.8586ZM152.45 91.7406C152.264 91.7406 152.124 91.6892 152.03 91.5866C151.937 91.4839 151.89 91.3392 151.89 91.1526V85.3146C151.89 85.1279 151.937 84.9879 152.03 84.8946C152.124 84.7919 152.259 84.7406 152.436 84.7406C152.614 84.7406 152.749 84.7919 152.842 84.8946C152.945 84.9879 152.996 85.1279 152.996 85.3146V86.5186L152.842 86.3506C153.038 85.8092 153.356 85.4032 153.794 85.1326C154.242 84.8526 154.756 84.7126 155.334 84.7126C155.876 84.7126 156.324 84.8106 156.678 85.0066C157.042 85.2026 157.313 85.5012 157.49 85.9026C157.668 86.2946 157.756 86.7939 157.756 87.4006V91.1526C157.756 91.3392 157.705 91.4839 157.602 91.5866C157.509 91.6892 157.374 91.7406 157.196 91.7406C157.01 91.7406 156.865 91.6892 156.762 91.5866C156.669 91.4839 156.622 91.3392 156.622 91.1526V87.4706C156.622 86.8359 156.496 86.3739 156.244 86.0846C156.002 85.7859 155.61 85.6366 155.068 85.6366C154.443 85.6366 153.944 85.8326 153.57 86.2246C153.206 86.6072 153.024 87.1206 153.024 87.7646V91.1526C153.024 91.5446 152.833 91.7406 152.45 91.7406ZM164.017 91.7406C163.83 91.7406 163.69 91.6892 163.597 91.5866C163.503 91.4839 163.457 91.3392 163.457 91.1526V85.3146C163.457 85.1279 163.503 84.9879 163.597 84.8946C163.69 84.7919 163.825 84.7406 164.003 84.7406C164.18 84.7406 164.315 84.7919 164.409 84.8946C164.511 84.9879 164.563 85.1279 164.563 85.3146V86.5186L164.409 86.3506C164.605 85.8092 164.922 85.4032 165.361 85.1326C165.809 84.8526 166.322 84.7126 166.901 84.7126C167.442 84.7126 167.89 84.8106 168.245 85.0066C168.609 85.2026 168.879 85.5012 169.057 85.9026C169.234 86.2946 169.323 86.7939 169.323 87.4006V91.1526C169.323 91.3392 169.271 91.4839 169.169 91.5866C169.075 91.6892 168.94 91.7406 168.763 91.7406C168.576 91.7406 168.431 91.6892 168.329 91.5866C168.235 91.4839 168.189 91.3392 168.189 91.1526V87.4706C168.189 86.8359 168.063 86.3739 167.811 86.0846C167.568 85.7859 167.176 85.6366 166.635 85.6366C166.009 85.6366 165.51 85.8326 165.137 86.2246C164.773 86.6072 164.591 87.1206 164.591 87.7646V91.1526C164.591 91.5446 164.399 91.7406 164.017 91.7406ZM174.48 91.7686C173.761 91.7686 173.14 91.6286 172.618 91.3486C172.104 91.0592 171.703 90.6532 171.414 90.1306C171.134 89.6079 170.994 88.9826 170.994 88.2546C170.994 87.5452 171.134 86.9292 171.414 86.4066C171.694 85.8746 172.076 85.4592 172.562 85.1606C173.056 84.8619 173.626 84.7126 174.27 84.7126C174.727 84.7126 175.138 84.7919 175.502 84.9506C175.866 85.0999 176.174 85.3192 176.426 85.6086C176.687 85.8979 176.883 86.2479 177.014 86.6586C177.154 87.0692 177.224 87.5312 177.224 88.0446C177.224 88.1939 177.182 88.3059 177.098 88.3806C177.014 88.4459 176.892 88.4786 176.734 88.4786H171.862V87.7366H176.468L176.244 87.9186C176.244 87.4146 176.169 86.9899 176.02 86.6446C175.87 86.2899 175.651 86.0192 175.362 85.8326C175.082 85.6459 174.727 85.5526 174.298 85.5526C173.822 85.5526 173.416 85.6646 173.08 85.8886C172.753 86.1032 172.506 86.4066 172.338 86.7986C172.17 87.1812 172.086 87.6292 172.086 88.1426V88.2266C172.086 89.0852 172.291 89.7386 172.702 90.1866C173.122 90.6346 173.714 90.8586 174.48 90.8586C174.797 90.8586 175.11 90.8166 175.418 90.7326C175.735 90.6486 176.043 90.5086 176.342 90.3126C176.472 90.2286 176.589 90.1912 176.692 90.2006C176.804 90.2006 176.892 90.2332 176.958 90.2986C177.023 90.3546 177.065 90.4292 177.084 90.5226C177.112 90.6066 177.102 90.6999 177.056 90.8026C177.018 90.9052 176.939 90.9939 176.818 91.0686C176.51 91.2926 176.146 91.4652 175.726 91.5866C175.306 91.7079 174.89 91.7686 174.48 91.7686ZM181.931 91.7686C181.212 91.7686 180.591 91.6286 180.069 91.3486C179.555 91.0592 179.154 90.6532 178.865 90.1306C178.585 89.6079 178.445 88.9826 178.445 88.2546C178.445 87.5452 178.585 86.9292 178.865 86.4066C179.145 85.8746 179.527 85.4592 180.013 85.1606C180.507 84.8619 181.077 84.7126 181.721 84.7126C182.178 84.7126 182.589 84.7919 182.953 84.9506C183.317 85.0999 183.625 85.3192 183.877 85.6086C184.138 85.8979 184.334 86.2479 184.465 86.6586C184.605 87.0692 184.675 87.5312 184.675 88.0446C184.675 88.1939 184.633 88.3059 184.549 88.3806C184.465 88.4459 184.343 88.4786 184.185 88.4786H179.313V87.7366H183.919L183.695 87.9186C183.695 87.4146 183.62 86.9899 183.471 86.6446C183.321 86.2899 183.102 86.0192 182.813 85.8326C182.533 85.6459 182.178 85.5526 181.749 85.5526C181.273 85.5526 180.867 85.6646 180.531 85.8886C180.204 86.1032 179.957 86.4066 179.789 86.7986C179.621 87.1812 179.537 87.6292 179.537 88.1426V88.2266C179.537 89.0852 179.742 89.7386 180.153 90.1866C180.573 90.6346 181.165 90.8586 181.931 90.8586C182.248 90.8586 182.561 90.8166 182.869 90.7326C183.186 90.6486 183.494 90.5086 183.793 90.3126C183.923 90.2286 184.04 90.1912 184.143 90.2006C184.255 90.2006 184.343 90.2332 184.409 90.2986C184.474 90.3546 184.516 90.4292 184.535 90.5226C184.563 90.6066 184.553 90.6999 184.507 90.8026C184.469 90.9052 184.39 90.9939 184.269 91.0686C183.961 91.2926 183.597 91.4652 183.177 91.5866C182.757 91.7079 182.341 91.7686 181.931 91.7686ZM188.906 91.7686C188.299 91.7686 187.767 91.6239 187.31 91.3346C186.862 91.0452 186.512 90.6392 186.26 90.1166C186.017 89.5846 185.896 88.9592 185.896 88.2406C185.896 87.5126 186.017 86.8872 186.26 86.3646C186.512 85.8326 186.862 85.4266 187.31 85.1466C187.767 84.8572 188.299 84.7126 188.906 84.7126C189.522 84.7126 190.049 84.8666 190.488 85.1746C190.927 85.4826 191.221 85.8979 191.37 86.4206H191.216V82.2486C191.216 82.0619 191.263 81.9219 191.356 81.8286C191.459 81.7259 191.603 81.6746 191.79 81.6746C191.967 81.6746 192.103 81.7259 192.196 81.8286C192.299 81.9219 192.35 82.0619 192.35 82.2486V91.1526C192.35 91.3392 192.303 91.4839 192.21 91.5866C192.117 91.6892 191.977 91.7406 191.79 91.7406C191.613 91.7406 191.473 91.6892 191.37 91.5866C191.277 91.4839 191.23 91.3392 191.23 91.1526V89.8226L191.384 90.0186C191.235 90.5506 190.936 90.9752 190.488 91.2926C190.049 91.6099 189.522 91.7686 188.906 91.7686ZM189.144 90.8586C189.564 90.8586 189.933 90.7559 190.25 90.5506C190.567 90.3452 190.81 90.0466 190.978 89.6546C191.155 89.2626 191.244 88.7912 191.244 88.2406C191.244 87.3912 191.053 86.7426 190.67 86.2946C190.297 85.8466 189.788 85.6226 189.144 85.6226C188.715 85.6226 188.341 85.7252 188.024 85.9306C187.716 86.1266 187.473 86.4206 187.296 86.8126C187.128 87.1952 187.044 87.6712 187.044 88.2406C187.044 89.0806 187.235 89.7292 187.618 90.1866C188.001 90.6346 188.509 90.8586 189.144 90.8586Z" fill="white"/>
</g>
<defs>
<linearGradient id="paint0_linear_1459_376" x1="-3.34337e-06" y1="9.14259" x2="250" y2="131.643" gradientUnits="userSpaceOnUse">
<stop stop-color="#B73783"/>
<stop offset="1" stop-color="#7030A0"/>
</linearGradient>
<clipPath id="clip0_1459_376">
<rect y="0.642578" width="250" height="131" rx="15" fill="white"/>
</clipPath>
</defs>
</svg>
