<svg width="250" height="132" viewBox="0 0 250 132" fill="none" xmlns="http://www.w3.org/2000/svg">
<g clip-path="url(#clip0_1459_363)">
<rect y="0.642578" width="250" height="131" rx="15" fill="#303030"/>
<circle cx="5.5" cy="131.143" r="47.5" fill="#B53784"/>
<circle cx="275.5" cy="46.1426" r="47.5" fill="#B53784"/>
<circle cx="-20.5" cy="84.1426" r="47.5" fill="#545454"/>
<circle cx="234.5" cy="10.1426" r="47.5" fill="#545454"/>
<path d="M93.484 71.6426L89.056 63.1106C88.552 63.1106 88 63.1106 87.4 63.1106C86.8 63.0866 86.2 63.0746 85.6 63.0746C85 63.0506 84.424 63.0386 83.872 63.0386V58.5746H89.992C90.4 58.5746 90.796 58.5146 91.18 58.3946C91.564 58.2506 91.9 58.0106 92.188 57.6746C92.5 57.3386 92.74 56.8826 92.908 56.3066C93.1 55.7066 93.196 54.9506 93.196 54.0386C93.196 52.9346 93.064 52.0826 92.8 51.4826C92.536 50.8586 92.188 50.4266 91.756 50.1866C91.324 49.9226 90.808 49.7906 90.208 49.7906H83.872V45.0026H90.928C91.792 45.0026 92.668 45.1346 93.556 45.3986C94.468 45.6626 95.296 46.1306 96.04 46.8026C96.784 47.4746 97.384 48.3986 97.84 49.5746C98.296 50.7266 98.524 52.2146 98.524 54.0386C98.524 55.5266 98.404 56.7746 98.164 57.7826C97.948 58.7666 97.648 59.5706 97.264 60.1946C96.88 60.8186 96.436 61.3106 95.932 61.6706C95.428 62.0066 94.924 62.2826 94.42 62.4986L99.28 71.6426H93.484ZM83.872 55.4786V52.7786H102.844V55.4786H83.872ZM89.992 47.7026V45.0026H102.844V47.7026H89.992ZM113.982 71.8226C112.806 71.8226 111.618 71.7746 110.418 71.6786C109.242 71.5826 108.174 71.4386 107.214 71.2466V67.0346H113.478C115.278 67.0346 116.598 66.4826 117.438 65.3786C118.278 64.2506 118.698 62.5946 118.698 60.4106C118.17 60.5786 117.582 60.7106 116.934 60.8066C116.31 60.9026 115.65 60.9626 114.954 60.9866C114.258 61.0106 113.502 61.0226 112.686 61.0226C110.934 61.0226 109.542 60.7826 108.51 60.3026C107.478 59.7986 106.734 59.0906 106.278 58.1786C105.846 57.2666 105.63 56.1746 105.63 54.9026V51.0866C105.63 49.5986 105.906 48.3986 106.458 47.4866C107.01 46.5506 107.778 45.8786 108.762 45.4706C109.77 45.0386 110.922 44.8226 112.218 44.8226H116.07C117.366 44.8226 118.506 45.0266 119.49 45.4346C120.498 45.8186 121.338 46.4906 122.01 47.4506C122.682 48.4106 123.186 49.7546 123.522 51.4826C123.882 53.1866 124.062 55.3466 124.062 57.9626C124.062 60.5546 123.834 62.7506 123.378 64.5506C122.922 66.3266 122.262 67.7546 121.398 68.8346C120.534 69.8906 119.478 70.6586 118.23 71.1386C116.982 71.5946 115.566 71.8226 113.982 71.8226ZM114.198 56.4866H118.698C118.698 55.1186 118.626 53.9906 118.482 53.1026C118.338 52.2146 118.11 51.5186 117.798 51.0146C117.51 50.4866 117.138 50.1266 116.682 49.9346C116.226 49.7186 115.674 49.6106 115.026 49.6106H113.406C112.902 49.6106 112.458 49.6946 112.074 49.8626C111.714 50.0306 111.438 50.2946 111.246 50.6546C111.054 51.0146 110.958 51.5186 110.958 52.1666V53.8946C110.958 54.5906 111.066 55.1306 111.282 55.5146C111.522 55.8746 111.882 56.1266 112.362 56.2706C112.842 56.4146 113.454 56.4866 114.198 56.4866ZM135.849 71.8226C134.673 71.8226 133.485 71.7746 132.285 71.6786C131.109 71.5826 130.041 71.4386 129.081 71.2466V67.0346H135.345C137.145 67.0346 138.465 66.4826 139.305 65.3786C140.145 64.2506 140.565 62.5946 140.565 60.4106C140.037 60.5786 139.449 60.7106 138.801 60.8066C138.177 60.9026 137.517 60.9626 136.821 60.9866C136.125 61.0106 135.369 61.0226 134.553 61.0226C132.801 61.0226 131.409 60.7826 130.377 60.3026C129.345 59.7986 128.601 59.0906 128.145 58.1786C127.713 57.2666 127.497 56.1746 127.497 54.9026V51.0866C127.497 49.5986 127.773 48.3986 128.325 47.4866C128.877 46.5506 129.645 45.8786 130.629 45.4706C131.637 45.0386 132.789 44.8226 134.085 44.8226H137.937C139.233 44.8226 140.373 45.0266 141.357 45.4346C142.365 45.8186 143.205 46.4906 143.877 47.4506C144.549 48.4106 145.053 49.7546 145.389 51.4826C145.749 53.1866 145.929 55.3466 145.929 57.9626C145.929 60.5546 145.701 62.7506 145.245 64.5506C144.789 66.3266 144.129 67.7546 143.265 68.8346C142.401 69.8906 141.345 70.6586 140.097 71.1386C138.849 71.5946 137.433 71.8226 135.849 71.8226ZM136.065 56.4866H140.565C140.565 55.1186 140.493 53.9906 140.349 53.1026C140.205 52.2146 139.977 51.5186 139.665 51.0146C139.377 50.4866 139.005 50.1266 138.549 49.9346C138.093 49.7186 137.541 49.6106 136.893 49.6106H135.273C134.769 49.6106 134.325 49.6946 133.941 49.8626C133.581 50.0306 133.305 50.2946 133.113 50.6546C132.921 51.0146 132.825 51.5186 132.825 52.1666V53.8946C132.825 54.5906 132.933 55.1306 133.149 55.5146C133.389 55.8746 133.749 56.1266 134.229 56.2706C134.709 56.4146 135.321 56.4866 136.065 56.4866ZM157.716 71.8226C156.54 71.8226 155.352 71.7746 154.152 71.6786C152.976 71.5826 151.908 71.4386 150.948 71.2466V67.0346H157.212C159.012 67.0346 160.332 66.4826 161.172 65.3786C162.012 64.2506 162.432 62.5946 162.432 60.4106C161.904 60.5786 161.316 60.7106 160.668 60.8066C160.044 60.9026 159.384 60.9626 158.688 60.9866C157.992 61.0106 157.236 61.0226 156.42 61.0226C154.668 61.0226 153.276 60.7826 152.244 60.3026C151.212 59.7986 150.468 59.0906 150.012 58.1786C149.58 57.2666 149.364 56.1746 149.364 54.9026V51.0866C149.364 49.5986 149.64 48.3986 150.192 47.4866C150.744 46.5506 151.512 45.8786 152.496 45.4706C153.504 45.0386 154.656 44.8226 155.952 44.8226H159.804C161.1 44.8226 162.24 45.0266 163.224 45.4346C164.232 45.8186 165.072 46.4906 165.744 47.4506C166.416 48.4106 166.92 49.7546 167.256 51.4826C167.616 53.1866 167.796 55.3466 167.796 57.9626C167.796 60.5546 167.568 62.7506 167.112 64.5506C166.656 66.3266 165.996 67.7546 165.132 68.8346C164.268 69.8906 163.212 70.6586 161.964 71.1386C160.716 71.5946 159.3 71.8226 157.716 71.8226ZM157.932 56.4866H162.432C162.432 55.1186 162.36 53.9906 162.216 53.1026C162.072 52.2146 161.844 51.5186 161.532 51.0146C161.244 50.4866 160.872 50.1266 160.416 49.9346C159.96 49.7186 159.408 49.6106 158.76 49.6106H157.14C156.636 49.6106 156.192 49.6946 155.808 49.8626C155.448 50.0306 155.172 50.2946 154.98 50.6546C154.788 51.0146 154.692 51.5186 154.692 52.1666V53.8946C154.692 54.5906 154.8 55.1306 155.016 55.5146C155.256 55.8746 155.616 56.1266 156.096 56.2706C156.576 56.4146 157.188 56.4866 157.932 56.4866Z" fill="white"/>
<path d="M58.624 94.2606C58.4373 94.2606 58.2973 94.2092 58.204 94.1066C58.1107 94.0132 58.064 93.8732 58.064 93.6866V85.3146C58.064 85.1279 58.1107 84.9879 58.204 84.8946C58.2973 84.7919 58.4327 84.7406 58.61 84.7406C58.7967 84.7406 58.9367 84.7919 59.03 84.8946C59.1327 84.9879 59.184 85.1279 59.184 85.3146V86.6446L59.03 86.4486C59.1793 85.9166 59.4733 85.4966 59.912 85.1886C60.36 84.8712 60.892 84.7126 61.508 84.7126C62.1147 84.7126 62.642 84.8572 63.09 85.1466C63.5473 85.4266 63.8973 85.8326 64.14 86.3646C64.392 86.8872 64.518 87.5126 64.518 88.2406C64.518 88.9592 64.392 89.5846 64.14 90.1166C63.8973 90.6392 63.552 91.0452 63.104 91.3346C62.656 91.6239 62.124 91.7686 61.508 91.7686C60.892 91.7686 60.3647 91.6146 59.926 91.3066C59.4873 90.9892 59.1887 90.5692 59.03 90.0466H59.198V93.6866C59.198 93.8732 59.1467 94.0132 59.044 94.1066C58.9413 94.2092 58.8013 94.2606 58.624 94.2606ZM61.27 90.8586C61.6993 90.8586 62.068 90.7559 62.376 90.5506C62.6933 90.3452 62.936 90.0466 63.104 89.6546C63.2813 89.2626 63.37 88.7912 63.37 88.2406C63.37 87.3912 63.1787 86.7426 62.796 86.2946C62.4227 85.8466 61.914 85.6226 61.27 85.6226C60.85 85.6226 60.4813 85.7252 60.164 85.9306C59.8467 86.1266 59.5993 86.4206 59.422 86.8126C59.254 87.1952 59.17 87.6712 59.17 88.2406C59.17 89.0806 59.3613 89.7292 59.744 90.1866C60.1267 90.6346 60.6353 90.8586 61.27 90.8586ZM69.2921 91.7686C68.5734 91.7686 67.9528 91.6286 67.4301 91.3486C66.9168 91.0592 66.5154 90.6532 66.2261 90.1306C65.9461 89.6079 65.8061 88.9826 65.8061 88.2546C65.8061 87.5452 65.9461 86.9292 66.2261 86.4066C66.5061 85.8746 66.8888 85.4592 67.3741 85.1606C67.8688 84.8619 68.4381 84.7126 69.0821 84.7126C69.5394 84.7126 69.9501 84.7919 70.3141 84.9506C70.6781 85.0999 70.9861 85.3192 71.2381 85.6086C71.4994 85.8979 71.6954 86.2479 71.8261 86.6586C71.9661 87.0692 72.0361 87.5312 72.0361 88.0446C72.0361 88.1939 71.9941 88.3059 71.9101 88.3806C71.8261 88.4459 71.7048 88.4786 71.5461 88.4786H66.6741V87.7366H71.2801L71.0561 87.9186C71.0561 87.4146 70.9814 86.9899 70.8321 86.6446C70.6828 86.2899 70.4634 86.0192 70.1741 85.8326C69.8941 85.6459 69.5394 85.5526 69.1101 85.5526C68.6341 85.5526 68.2281 85.6646 67.8921 85.8886C67.5654 86.1032 67.3181 86.4066 67.1501 86.7986C66.9821 87.1812 66.8981 87.6292 66.8981 88.1426V88.2266C66.8981 89.0852 67.1034 89.7386 67.5141 90.1866C67.9341 90.6346 68.5268 90.8586 69.2921 90.8586C69.6094 90.8586 69.9221 90.8166 70.2301 90.7326C70.5474 90.6486 70.8554 90.5086 71.1541 90.3126C71.2848 90.2286 71.4014 90.1912 71.5041 90.2006C71.6161 90.2006 71.7048 90.2332 71.7701 90.2986C71.8354 90.3546 71.8774 90.4292 71.8961 90.5226C71.9241 90.6066 71.9148 90.6999 71.8681 90.8026C71.8308 90.9052 71.7514 90.9939 71.6301 91.0686C71.3221 91.2926 70.9581 91.4652 70.5381 91.5866C70.1181 91.7079 69.7028 91.7686 69.2921 91.7686ZM74.2513 91.7406C74.0646 91.7406 73.9199 91.6892 73.8173 91.5866C73.7239 91.4839 73.6773 91.3392 73.6773 91.1526V85.3146C73.6773 85.1279 73.7239 84.9879 73.8173 84.8946C73.9106 84.7919 74.0459 84.7406 74.2233 84.7406C74.4006 84.7406 74.5359 84.7919 74.6293 84.8946C74.7319 84.9879 74.7833 85.1279 74.7833 85.3146V86.4486H74.6433C74.7926 85.8979 75.0773 85.4732 75.4973 85.1746C75.9173 84.8759 76.4353 84.7172 77.0513 84.6986C77.1913 84.6892 77.3033 84.7219 77.3873 84.7966C77.4713 84.8619 77.5179 84.9786 77.5273 85.1466C77.5366 85.3052 77.4993 85.4312 77.4153 85.5246C77.3313 85.6179 77.2006 85.6739 77.0233 85.6926L76.7993 85.7206C76.1646 85.7766 75.6746 85.9819 75.3293 86.3366C74.9933 86.6819 74.8253 87.1579 74.8253 87.7646V91.1526C74.8253 91.3392 74.7739 91.4839 74.6713 91.5866C74.5779 91.6892 74.4379 91.7406 74.2513 91.7406ZM82.8642 94.2606C82.6776 94.2606 82.5376 94.2092 82.4442 94.1066C82.3509 94.0132 82.3042 93.8732 82.3042 93.6866V85.3146C82.3042 85.1279 82.3509 84.9879 82.4442 84.8946C82.5376 84.7919 82.6729 84.7406 82.8502 84.7406C83.0369 84.7406 83.1769 84.7919 83.2702 84.8946C83.3729 84.9879 83.4242 85.1279 83.4242 85.3146V86.6446L83.2702 86.4486C83.4196 85.9166 83.7136 85.4966 84.1522 85.1886C84.6002 84.8712 85.1322 84.7126 85.7482 84.7126C86.3549 84.7126 86.8822 84.8572 87.3302 85.1466C87.7876 85.4266 88.1376 85.8326 88.3802 86.3646C88.6322 86.8872 88.7582 87.5126 88.7582 88.2406C88.7582 88.9592 88.6322 89.5846 88.3802 90.1166C88.1376 90.6392 87.7922 91.0452 87.3442 91.3346C86.8962 91.6239 86.3642 91.7686 85.7482 91.7686C85.1322 91.7686 84.6049 91.6146 84.1662 91.3066C83.7276 90.9892 83.4289 90.5692 83.2702 90.0466H83.4382V93.6866C83.4382 93.8732 83.3869 94.0132 83.2842 94.1066C83.1816 94.2092 83.0416 94.2606 82.8642 94.2606ZM85.5102 90.8586C85.9396 90.8586 86.3082 90.7559 86.6162 90.5506C86.9336 90.3452 87.1762 90.0466 87.3442 89.6546C87.5216 89.2626 87.6102 88.7912 87.6102 88.2406C87.6102 87.3912 87.4189 86.7426 87.0362 86.2946C86.6629 85.8466 86.1542 85.6226 85.5102 85.6226C85.0902 85.6226 84.7216 85.7252 84.4042 85.9306C84.0869 86.1266 83.8396 86.4206 83.6622 86.8126C83.4942 87.1952 83.4102 87.6712 83.4102 88.2406C83.4102 89.0806 83.6016 89.7292 83.9842 90.1866C84.3669 90.6346 84.8756 90.8586 85.5102 90.8586ZM93.5323 91.7686C92.8137 91.7686 92.193 91.6286 91.6703 91.3486C91.157 91.0592 90.7557 90.6532 90.4663 90.1306C90.1863 89.6079 90.0463 88.9826 90.0463 88.2546C90.0463 87.5452 90.1863 86.9292 90.4663 86.4066C90.7463 85.8746 91.129 85.4592 91.6143 85.1606C92.109 84.8619 92.6783 84.7126 93.3223 84.7126C93.7797 84.7126 94.1903 84.7919 94.5543 84.9506C94.9183 85.0999 95.2263 85.3192 95.4783 85.6086C95.7397 85.8979 95.9357 86.2479 96.0663 86.6586C96.2063 87.0692 96.2763 87.5312 96.2763 88.0446C96.2763 88.1939 96.2343 88.3059 96.1503 88.3806C96.0663 88.4459 95.945 88.4786 95.7863 88.4786H90.9143V87.7366H95.5203L95.2963 87.9186C95.2963 87.4146 95.2217 86.9899 95.0723 86.6446C94.923 86.2899 94.7037 86.0192 94.4143 85.8326C94.1343 85.6459 93.7797 85.5526 93.3503 85.5526C92.8743 85.5526 92.4683 85.6646 92.1323 85.8886C91.8057 86.1032 91.5583 86.4066 91.3903 86.7986C91.2223 87.1812 91.1383 87.6292 91.1383 88.1426V88.2266C91.1383 89.0852 91.3437 89.7386 91.7543 90.1866C92.1743 90.6346 92.767 90.8586 93.5323 90.8586C93.8497 90.8586 94.1623 90.8166 94.4703 90.7326C94.7877 90.6486 95.0957 90.5086 95.3943 90.3126C95.525 90.2286 95.6417 90.1912 95.7443 90.2006C95.8563 90.2006 95.945 90.2332 96.0103 90.2986C96.0757 90.3546 96.1177 90.4292 96.1363 90.5226C96.1643 90.6066 96.155 90.6999 96.1083 90.8026C96.071 90.9052 95.9917 90.9939 95.8703 91.0686C95.5623 91.2926 95.1983 91.4652 94.7783 91.5866C94.3583 91.7079 93.943 91.7686 93.5323 91.7686ZM98.4915 91.7406C98.3048 91.7406 98.1602 91.6892 98.0575 91.5866C97.9642 91.4839 97.9175 91.3392 97.9175 91.1526V85.3146C97.9175 85.1279 97.9642 84.9879 98.0575 84.8946C98.1508 84.7919 98.2862 84.7406 98.4635 84.7406C98.6408 84.7406 98.7762 84.7919 98.8695 84.8946C98.9722 84.9879 99.0235 85.1279 99.0235 85.3146V86.4486H98.8835C99.0328 85.8979 99.3175 85.4732 99.7375 85.1746C100.158 84.8759 100.676 84.7172 101.292 84.6986C101.432 84.6892 101.544 84.7219 101.628 84.7966C101.712 84.8619 101.758 84.9786 101.768 85.1466C101.777 85.3052 101.74 85.4312 101.656 85.5246C101.572 85.6179 101.441 85.6739 101.264 85.6926L101.04 85.7206C100.405 85.7766 99.9148 85.9819 99.5695 86.3366C99.2335 86.6819 99.0655 87.1579 99.0655 87.7646V91.1526C99.0655 91.3392 99.0142 91.4839 98.9115 91.5866C98.8182 91.6892 98.6782 91.7406 98.4915 91.7406ZM105.163 91.7686C104.743 91.7686 104.318 91.7172 103.889 91.6146C103.469 91.5119 103.077 91.3346 102.713 91.0826C102.619 91.0172 102.554 90.9426 102.517 90.8586C102.479 90.7652 102.465 90.6766 102.475 90.5926C102.493 90.4992 102.531 90.4199 102.587 90.3546C102.652 90.2892 102.727 90.2519 102.811 90.2426C102.904 90.2239 103.007 90.2426 103.119 90.2986C103.483 90.5226 103.833 90.6812 104.169 90.7746C104.514 90.8586 104.855 90.9006 105.191 90.9006C105.723 90.9006 106.124 90.8026 106.395 90.6066C106.665 90.4106 106.801 90.1446 106.801 89.8086C106.801 89.5472 106.712 89.3419 106.535 89.1926C106.357 89.0339 106.077 88.9126 105.695 88.8286L104.421 88.5486C103.833 88.4272 103.394 88.2172 103.105 87.9186C102.825 87.6199 102.685 87.2326 102.685 86.7566C102.685 86.3366 102.792 85.9772 103.007 85.6786C103.231 85.3706 103.543 85.1326 103.945 84.9646C104.346 84.7966 104.813 84.7126 105.345 84.7126C105.755 84.7126 106.143 84.7686 106.507 84.8806C106.88 84.9832 107.216 85.1512 107.515 85.3846C107.608 85.4499 107.669 85.5292 107.697 85.6226C107.734 85.7066 107.739 85.7952 107.711 85.8886C107.692 85.9726 107.65 86.0472 107.585 86.1126C107.519 86.1686 107.44 86.2012 107.347 86.2106C107.253 86.2199 107.155 86.1919 107.053 86.1266C106.773 85.9399 106.488 85.8046 106.199 85.7206C105.909 85.6272 105.625 85.5806 105.345 85.5806C104.822 85.5806 104.425 85.6832 104.155 85.8886C103.884 86.0939 103.749 86.3646 103.749 86.7006C103.749 86.9619 103.833 87.1766 104.001 87.3446C104.169 87.5126 104.43 87.6339 104.785 87.7086L106.059 87.9746C106.665 88.1052 107.118 88.3152 107.417 88.6046C107.725 88.8846 107.879 89.2672 107.879 89.7526C107.879 90.3686 107.631 90.8586 107.137 91.2226C106.642 91.5866 105.984 91.7686 105.163 91.7686ZM112.435 91.7686C111.772 91.7686 111.198 91.6239 110.713 91.3346C110.228 91.0452 109.85 90.6392 109.579 90.1166C109.318 89.5846 109.187 88.9592 109.187 88.2406C109.187 87.6992 109.262 87.2139 109.411 86.7846C109.56 86.3459 109.78 85.9726 110.069 85.6646C110.358 85.3566 110.699 85.1232 111.091 84.9646C111.492 84.7966 111.94 84.7126 112.435 84.7126C113.098 84.7126 113.672 84.8572 114.157 85.1466C114.642 85.4359 115.016 85.8466 115.277 86.3786C115.548 86.9012 115.683 87.5219 115.683 88.2406C115.683 88.7819 115.608 89.2672 115.459 89.6966C115.31 90.1259 115.09 90.4992 114.801 90.8166C114.512 91.1246 114.166 91.3626 113.765 91.5306C113.373 91.6892 112.93 91.7686 112.435 91.7686ZM112.435 90.8586C112.855 90.8586 113.224 90.7559 113.541 90.5506C113.858 90.3452 114.101 90.0466 114.269 89.6546C114.446 89.2626 114.535 88.7912 114.535 88.2406C114.535 87.3912 114.344 86.7426 113.961 86.2946C113.588 85.8466 113.079 85.6226 112.435 85.6226C112.006 85.6226 111.632 85.7252 111.315 85.9306C111.007 86.1266 110.764 86.4206 110.587 86.8126C110.419 87.1952 110.335 87.6712 110.335 88.2406C110.335 89.0806 110.526 89.7292 110.909 90.1866C111.292 90.6346 111.8 90.8586 112.435 90.8586ZM117.946 91.7406C117.76 91.7406 117.62 91.6892 117.526 91.5866C117.433 91.4839 117.386 91.3392 117.386 91.1526V85.3146C117.386 85.1279 117.433 84.9879 117.526 84.8946C117.62 84.7919 117.755 84.7406 117.932 84.7406C118.11 84.7406 118.245 84.7919 118.338 84.8946C118.441 84.9879 118.492 85.1279 118.492 85.3146V86.5186L118.338 86.3506C118.534 85.8092 118.852 85.4032 119.29 85.1326C119.738 84.8526 120.252 84.7126 120.83 84.7126C121.372 84.7126 121.82 84.8106 122.174 85.0066C122.538 85.2026 122.809 85.5012 122.986 85.9026C123.164 86.2946 123.252 86.7939 123.252 87.4006V91.1526C123.252 91.3392 123.201 91.4839 123.098 91.5866C123.005 91.6892 122.87 91.7406 122.692 91.7406C122.506 91.7406 122.361 91.6892 122.258 91.5866C122.165 91.4839 122.118 91.3392 122.118 91.1526V87.4706C122.118 86.8359 121.992 86.3739 121.74 86.0846C121.498 85.7859 121.106 85.6366 120.564 85.6366C119.939 85.6366 119.44 85.8326 119.066 86.2246C118.702 86.6072 118.52 87.1206 118.52 87.7646V91.1526C118.52 91.5446 118.329 91.7406 117.946 91.7406ZM129.513 94.2606C129.326 94.2606 129.186 94.2092 129.093 94.1066C128.999 94.0132 128.953 93.8732 128.953 93.6866V85.3146C128.953 85.1279 128.999 84.9879 129.093 84.8946C129.186 84.7919 129.321 84.7406 129.499 84.7406C129.685 84.7406 129.825 84.7919 129.919 84.8946C130.021 84.9879 130.073 85.1279 130.073 85.3146V86.6446L129.919 86.4486C130.068 85.9166 130.362 85.4966 130.801 85.1886C131.249 84.8712 131.781 84.7126 132.397 84.7126C133.003 84.7126 133.531 84.8572 133.979 85.1466C134.436 85.4266 134.786 85.8326 135.029 86.3646C135.281 86.8872 135.407 87.5126 135.407 88.2406C135.407 88.9592 135.281 89.5846 135.029 90.1166C134.786 90.6392 134.441 91.0452 133.993 91.3346C133.545 91.6239 133.013 91.7686 132.397 91.7686C131.781 91.7686 131.253 91.6146 130.815 91.3066C130.376 90.9892 130.077 90.5692 129.919 90.0466H130.087V93.6866C130.087 93.8732 130.035 94.0132 129.933 94.1066C129.83 94.2092 129.69 94.2606 129.513 94.2606ZM132.159 90.8586C132.588 90.8586 132.957 90.7559 133.265 90.5506C133.582 90.3452 133.825 90.0466 133.993 89.6546C134.17 89.2626 134.259 88.7912 134.259 88.2406C134.259 87.3912 134.067 86.7426 133.685 86.2946C133.311 85.8466 132.803 85.6226 132.159 85.6226C131.739 85.6226 131.37 85.7252 131.053 85.9306C130.735 86.1266 130.488 86.4206 130.311 86.8126C130.143 87.1952 130.059 87.6712 130.059 88.2406C130.059 89.0806 130.25 89.7292 130.633 90.1866C131.015 90.6346 131.524 90.8586 132.159 90.8586ZM140.181 91.7686C139.462 91.7686 138.841 91.6286 138.319 91.3486C137.805 91.0592 137.404 90.6532 137.115 90.1306C136.835 89.6079 136.695 88.9826 136.695 88.2546C136.695 87.5452 136.835 86.9292 137.115 86.4066C137.395 85.8746 137.777 85.4592 138.263 85.1606C138.757 84.8619 139.327 84.7126 139.971 84.7126C140.428 84.7126 140.839 84.7919 141.203 84.9506C141.567 85.0999 141.875 85.3192 142.127 85.6086C142.388 85.8979 142.584 86.2479 142.715 86.6586C142.855 87.0692 142.925 87.5312 142.925 88.0446C142.925 88.1939 142.883 88.3059 142.799 88.3806C142.715 88.4459 142.593 88.4786 142.435 88.4786H137.563V87.7366H142.169L141.945 87.9186C141.945 87.4146 141.87 86.9899 141.721 86.6446C141.571 86.2899 141.352 86.0192 141.063 85.8326C140.783 85.6459 140.428 85.5526 139.999 85.5526C139.523 85.5526 139.117 85.6646 138.781 85.8886C138.454 86.1032 138.207 86.4066 138.039 86.7986C137.871 87.1812 137.787 87.6292 137.787 88.1426V88.2266C137.787 89.0852 137.992 89.7386 138.403 90.1866C138.823 90.6346 139.415 90.8586 140.181 90.8586C140.498 90.8586 140.811 90.8166 141.119 90.7326C141.436 90.6486 141.744 90.5086 142.043 90.3126C142.173 90.2286 142.29 90.1912 142.393 90.2006C142.505 90.2006 142.593 90.2332 142.659 90.2986C142.724 90.3546 142.766 90.4292 142.785 90.5226C142.813 90.6066 142.803 90.6999 142.757 90.8026C142.719 90.9052 142.64 90.9939 142.519 91.0686C142.211 91.2926 141.847 91.4652 141.427 91.5866C141.007 91.7079 140.591 91.7686 140.181 91.7686ZM145.14 91.7406C144.953 91.7406 144.809 91.6892 144.706 91.5866C144.613 91.4839 144.566 91.3392 144.566 91.1526V85.3146C144.566 85.1279 144.613 84.9879 144.706 84.8946C144.799 84.7919 144.935 84.7406 145.112 84.7406C145.289 84.7406 145.425 84.7919 145.518 84.8946C145.621 84.9879 145.672 85.1279 145.672 85.3146V86.4486H145.532C145.681 85.8979 145.966 85.4732 146.386 85.1746C146.806 84.8759 147.324 84.7172 147.94 84.6986C148.08 84.6892 148.192 84.7219 148.276 84.7966C148.36 84.8619 148.407 84.9786 148.416 85.1466C148.425 85.3052 148.388 85.4312 148.304 85.5246C148.22 85.6179 148.089 85.6739 147.912 85.6926L147.688 85.7206C147.053 85.7766 146.563 85.9819 146.218 86.3366C145.882 86.6819 145.714 87.1579 145.714 87.7646V91.1526C145.714 91.3392 145.663 91.4839 145.56 91.5866C145.467 91.6892 145.327 91.7406 145.14 91.7406ZM153.781 91.7406C153.594 91.7406 153.454 91.6892 153.361 91.5866C153.268 91.4839 153.221 91.3392 153.221 91.1526V85.3146C153.221 85.1279 153.268 84.9879 153.361 84.8946C153.454 84.7919 153.59 84.7406 153.767 84.7406C153.944 84.7406 154.08 84.7919 154.173 84.8946C154.276 84.9879 154.327 85.1279 154.327 85.3146V86.5466L154.173 86.3506C154.35 85.8279 154.635 85.4266 155.027 85.1466C155.428 84.8572 155.904 84.7126 156.455 84.7126C157.034 84.7126 157.5 84.8526 157.855 85.1326C158.219 85.4032 158.462 85.8279 158.583 86.4066H158.373C158.541 85.8839 158.84 85.4732 159.269 85.1746C159.708 84.8666 160.216 84.7126 160.795 84.7126C161.308 84.7126 161.728 84.8106 162.055 85.0066C162.391 85.2026 162.643 85.5012 162.811 85.9026C162.979 86.2946 163.063 86.7939 163.063 87.4006V91.1526C163.063 91.3392 163.012 91.4839 162.909 91.5866C162.816 91.6892 162.676 91.7406 162.489 91.7406C162.312 91.7406 162.172 91.6892 162.069 91.5866C161.976 91.4839 161.929 91.3392 161.929 91.1526V87.4566C161.929 86.8312 161.822 86.3739 161.607 86.0846C161.392 85.7859 161.028 85.6366 160.515 85.6366C159.955 85.6366 159.512 85.8326 159.185 86.2246C158.868 86.6072 158.709 87.1299 158.709 87.7926V91.1526C158.709 91.3392 158.658 91.4839 158.555 91.5866C158.462 91.6892 158.322 91.7406 158.135 91.7406C157.958 91.7406 157.818 91.6892 157.715 91.5866C157.622 91.4839 157.575 91.3392 157.575 91.1526V87.4566C157.575 86.8312 157.463 86.3739 157.239 86.0846C157.024 85.7859 156.665 85.6366 156.161 85.6366C155.601 85.6366 155.158 85.8326 154.831 86.2246C154.514 86.6072 154.355 87.1299 154.355 87.7926V91.1526C154.355 91.5446 154.164 91.7406 153.781 91.7406ZM168.011 91.7686C167.348 91.7686 166.774 91.6239 166.289 91.3346C165.804 91.0452 165.426 90.6392 165.155 90.1166C164.894 89.5846 164.763 88.9592 164.763 88.2406C164.763 87.6992 164.838 87.2139 164.987 86.7846C165.136 86.3459 165.356 85.9726 165.645 85.6646C165.934 85.3566 166.275 85.1232 166.667 84.9646C167.068 84.7966 167.516 84.7126 168.011 84.7126C168.674 84.7126 169.248 84.8572 169.733 85.1466C170.218 85.4359 170.592 85.8466 170.853 86.3786C171.124 86.9012 171.259 87.5219 171.259 88.2406C171.259 88.7819 171.184 89.2672 171.035 89.6966C170.886 90.1259 170.666 90.4992 170.377 90.8166C170.088 91.1246 169.742 91.3626 169.341 91.5306C168.949 91.6892 168.506 91.7686 168.011 91.7686ZM168.011 90.8586C168.431 90.8586 168.8 90.7559 169.117 90.5506C169.434 90.3452 169.677 90.0466 169.845 89.6546C170.022 89.2626 170.111 88.7912 170.111 88.2406C170.111 87.3912 169.92 86.7426 169.537 86.2946C169.164 85.8466 168.655 85.6226 168.011 85.6226C167.582 85.6226 167.208 85.7252 166.891 85.9306C166.583 86.1266 166.34 86.4206 166.163 86.8126C165.995 87.1952 165.911 87.6712 165.911 88.2406C165.911 89.0806 166.102 89.7292 166.485 90.1866C166.868 90.6346 167.376 90.8586 168.011 90.8586ZM173.522 91.7406C173.336 91.7406 173.196 91.6892 173.102 91.5866C173.009 91.4839 172.962 91.3392 172.962 91.1526V85.3146C172.962 85.1279 173.009 84.9879 173.102 84.8946C173.196 84.7919 173.331 84.7406 173.508 84.7406C173.686 84.7406 173.821 84.7919 173.914 84.8946C174.017 84.9879 174.068 85.1279 174.068 85.3146V86.5186L173.914 86.3506C174.11 85.8092 174.428 85.4032 174.866 85.1326C175.314 84.8526 175.828 84.7126 176.406 84.7126C176.948 84.7126 177.396 84.8106 177.75 85.0066C178.114 85.2026 178.385 85.5012 178.562 85.9026C178.74 86.2946 178.828 86.7939 178.828 87.4006V91.1526C178.828 91.3392 178.777 91.4839 178.674 91.5866C178.581 91.6892 178.446 91.7406 178.268 91.7406C178.082 91.7406 177.937 91.6892 177.834 91.5866C177.741 91.4839 177.694 91.3392 177.694 91.1526V87.4706C177.694 86.8359 177.568 86.3739 177.316 86.0846C177.074 85.7859 176.682 85.6366 176.14 85.6366C175.515 85.6366 175.016 85.8326 174.642 86.2246C174.278 86.6072 174.096 87.1206 174.096 87.7646V91.1526C174.096 91.5446 173.905 91.7406 173.522 91.7406ZM183.649 91.7686C183.117 91.7686 182.669 91.6752 182.305 91.4886C181.951 91.2926 181.685 91.0126 181.507 90.6486C181.33 90.2752 181.241 89.8226 181.241 89.2906V85.7206H180.303C180.145 85.7206 180.023 85.6832 179.939 85.6086C179.855 85.5246 179.813 85.4126 179.813 85.2726C179.813 85.1326 179.855 85.0252 179.939 84.9506C180.023 84.8759 180.145 84.8386 180.303 84.8386H181.241V83.2286C181.241 83.0419 181.293 82.9019 181.395 82.8086C181.498 82.7059 181.638 82.6546 181.815 82.6546C181.993 82.6546 182.128 82.7059 182.221 82.8086C182.324 82.9019 182.375 83.0419 182.375 83.2286V84.8386H184.139C184.298 84.8386 184.419 84.8759 184.503 84.9506C184.587 85.0252 184.629 85.1326 184.629 85.2726C184.629 85.4126 184.587 85.5246 184.503 85.6086C184.419 85.6832 184.298 85.7206 184.139 85.7206H182.375V89.1786C182.375 89.7106 182.487 90.1166 182.711 90.3966C182.935 90.6672 183.299 90.8026 183.803 90.8026C183.981 90.8026 184.13 90.7839 184.251 90.7466C184.382 90.7092 184.489 90.6906 184.573 90.6906C184.657 90.6812 184.727 90.7092 184.783 90.7746C184.839 90.8399 184.867 90.9519 184.867 91.1106C184.867 91.2226 184.844 91.3252 184.797 91.4186C184.76 91.5119 184.69 91.5772 184.587 91.6146C184.475 91.6519 184.326 91.6846 184.139 91.7126C183.962 91.7499 183.799 91.7686 183.649 91.7686ZM186.456 91.7406C186.269 91.7406 186.129 91.6892 186.036 91.5866C185.943 91.4839 185.896 91.3392 185.896 91.1526V82.2486C185.896 82.0619 185.943 81.9219 186.036 81.8286C186.129 81.7259 186.269 81.6746 186.456 81.6746C186.633 81.6746 186.773 81.7259 186.876 81.8286C186.979 81.9219 187.03 82.0619 187.03 82.2486V86.3506H186.848C187.044 85.8092 187.361 85.4032 187.8 85.1326C188.248 84.8526 188.761 84.7126 189.34 84.7126C189.881 84.7126 190.329 84.8106 190.684 85.0066C191.048 85.2026 191.319 85.5012 191.496 85.9026C191.673 86.2946 191.762 86.7939 191.762 87.4006V91.1526C191.762 91.3392 191.711 91.4839 191.608 91.5866C191.515 91.6892 191.379 91.7406 191.202 91.7406C191.015 91.7406 190.871 91.6892 190.768 91.5866C190.675 91.4839 190.628 91.3392 190.628 91.1526V87.4706C190.628 86.8359 190.502 86.3739 190.25 86.0846C190.007 85.7859 189.615 85.6366 189.074 85.6366C188.449 85.6366 187.949 85.8326 187.576 86.2246C187.212 86.6072 187.03 87.1206 187.03 87.7646V91.1526C187.03 91.5446 186.839 91.7406 186.456 91.7406Z" fill="white" fill-opacity="0.6"/>
</g>
<defs>
<clipPath id="clip0_1459_363">
<rect y="0.642578" width="250" height="131" rx="15" fill="white"/>
</clipPath>
</defs>
</svg>
