<svg width="527" height="443" viewBox="0 0 527 443" fill="none" xmlns="http://www.w3.org/2000/svg">
<rect x="1.43143" y="1.35746" width="524.089" height="440.153" rx="33.438" fill="url(#paint0_linear_39_122)" stroke="url(#paint1_linear_39_122)" stroke-width="1.36481"/>
<path d="M45.933 313.868C44.492 313.868 43.2581 313.51 42.2311 312.793C41.2121 312.069 40.4319 311.03 39.8906 309.676C39.3492 308.315 39.0785 306.671 39.0785 304.745C39.0785 302.818 39.3492 301.174 39.8906 299.813C40.4319 298.443 41.2121 297.4 42.2311 296.684C43.2581 295.96 44.492 295.597 45.933 295.597C47.366 295.597 48.5959 295.96 49.6229 296.684C50.6499 297.408 51.434 298.451 51.9754 299.813C52.5167 301.174 52.7874 302.818 52.7874 304.745C52.7874 306.671 52.5167 308.315 51.9754 309.676C51.434 311.03 50.6539 312.069 49.6348 312.793C48.6158 313.51 47.3819 313.868 45.933 313.868ZM45.933 311.169C46.7052 311.169 47.358 310.918 47.8914 310.417C48.4327 309.915 48.8427 309.187 49.1214 308.231C49.408 307.268 49.5513 306.106 49.5513 304.745C49.5513 303.375 49.408 302.209 49.1214 301.246C48.8427 300.282 48.4327 299.55 47.8914 299.048C47.358 298.539 46.7052 298.284 45.933 298.284C44.7707 298.284 43.875 298.849 43.2461 299.98C42.6252 301.102 42.3147 302.691 42.3147 304.745C42.3147 306.106 42.454 307.268 42.7326 308.231C43.0113 309.187 43.4213 309.915 43.9626 310.417C44.504 310.918 45.1608 311.169 45.933 311.169ZM63.294 313.868C61.8531 313.868 60.6191 313.51 59.5922 312.793C58.5732 312.069 57.793 311.03 57.2516 309.676C56.7103 308.315 56.4396 306.671 56.4396 304.745C56.4396 302.818 56.7103 301.174 57.2516 299.813C57.793 298.443 58.5732 297.4 59.5922 296.684C60.6191 295.96 61.8531 295.597 63.294 295.597C64.727 295.597 65.957 295.96 66.984 296.684C68.0109 297.408 68.7951 298.451 69.3365 299.813C69.8778 301.174 70.1485 302.818 70.1485 304.745C70.1485 306.671 69.8778 308.315 69.3365 309.676C68.7951 311.03 68.0149 312.069 66.9959 312.793C65.9769 313.51 64.7429 313.868 63.294 313.868ZM63.294 311.169C64.0663 311.169 64.7191 310.918 65.2525 310.417C65.7938 309.915 66.2038 309.187 66.4824 308.231C66.769 307.268 66.9123 306.106 66.9123 304.745C66.9123 303.375 66.769 302.209 66.4824 301.246C66.2038 300.282 65.7938 299.55 65.2525 299.048C64.7191 298.539 64.0663 298.284 63.294 298.284C62.1317 298.284 61.2361 298.849 60.6072 299.98C59.9862 301.102 59.6758 302.691 59.6758 304.745C59.6758 306.106 59.8151 307.268 60.0937 308.231C60.3723 309.187 60.7823 309.915 61.3237 310.417C61.865 310.918 62.5218 311.169 63.294 311.169ZM80.6551 313.868C79.2142 313.868 77.9802 313.51 76.9532 312.793C75.9342 312.069 75.154 311.03 74.6127 309.676C74.0714 308.315 73.8007 306.671 73.8007 304.745C73.8007 302.818 74.0714 301.174 74.6127 299.813C75.154 298.443 75.9342 297.4 76.9532 296.684C77.9802 295.96 79.2142 295.597 80.6551 295.597C82.0881 295.597 83.3181 295.96 84.345 296.684C85.372 297.408 86.1562 298.451 86.6975 299.813C87.2389 301.174 87.5096 302.818 87.5096 304.745C87.5096 306.671 87.2389 308.315 86.6975 309.676C86.1562 311.03 85.376 312.069 84.357 312.793C83.338 313.51 82.104 313.868 80.6551 313.868ZM80.6551 311.169C81.4273 311.169 82.0801 310.918 82.6135 310.417C83.1549 309.915 83.5649 309.187 83.8435 308.231C84.1301 307.268 84.2734 306.106 84.2734 304.745C84.2734 303.375 84.1301 302.209 83.8435 301.246C83.5649 300.282 83.1549 299.55 82.6135 299.048C82.0801 298.539 81.4273 298.284 80.6551 298.284C79.4928 298.284 78.5972 298.849 77.9683 299.98C77.3473 301.102 77.0368 302.691 77.0368 304.745C77.0368 306.106 77.1761 307.268 77.4548 308.231C77.7334 309.187 78.1434 309.915 78.6848 310.417C79.2261 310.918 79.8829 311.169 80.6551 311.169Z" fill="white"/>
<path d="M51.418 324.373H75.1699C78.2854 324.373 80.811 326.899 80.811 330.014V398.591H45.7769V330.014C45.7769 326.899 48.3025 324.373 51.418 324.373Z" fill="url(#paint2_linear_39_122)" fill-opacity="0.25" stroke="url(#paint3_linear_39_122)" stroke-width="0.593799"/>
<path d="M113.219 319.212C111.778 319.212 110.544 318.854 109.517 318.137C108.498 317.413 107.718 316.374 107.176 315.021C106.635 313.659 106.364 312.015 106.364 310.089C106.364 308.162 106.635 306.518 107.176 305.157C107.718 303.788 108.498 302.745 109.517 302.028C110.544 301.304 111.778 300.941 113.219 300.941C114.652 300.941 115.882 301.304 116.909 302.028C117.936 302.753 118.72 303.796 119.261 305.157C119.802 306.518 120.073 308.162 120.073 310.089C120.073 312.015 119.802 313.659 119.261 315.021C118.72 316.374 117.94 317.413 116.92 318.137C115.901 318.854 114.668 319.212 113.219 319.212ZM113.219 316.513C113.991 316.513 114.644 316.262 115.177 315.761C115.718 315.259 116.128 314.531 116.407 313.576C116.694 312.612 116.837 311.45 116.837 310.089C116.837 308.719 116.694 307.553 116.407 306.59C116.128 305.627 115.718 304.894 115.177 304.393C114.644 303.883 113.991 303.628 113.219 303.628C112.056 303.628 111.161 304.194 110.532 305.324C109.911 306.447 109.6 308.035 109.6 310.089C109.6 311.45 109.74 312.612 110.018 313.576C110.297 314.531 110.707 315.259 111.248 315.761C111.79 316.262 112.446 316.513 113.219 316.513ZM130.58 319.212C129.139 319.212 127.905 318.854 126.878 318.137C125.859 317.413 125.079 316.374 124.537 315.021C123.996 313.659 123.725 312.015 123.725 310.089C123.725 308.162 123.996 306.518 124.537 305.157C125.079 303.788 125.859 302.745 126.878 302.028C127.905 301.304 129.139 300.941 130.58 300.941C132.013 300.941 133.243 301.304 134.27 302.028C135.297 302.753 136.081 303.796 136.622 305.157C137.163 306.518 137.434 308.162 137.434 310.089C137.434 312.015 137.163 313.659 136.622 315.021C136.081 316.374 135.301 317.413 134.282 318.137C133.263 318.854 132.029 319.212 130.58 319.212ZM130.58 316.513C131.352 316.513 132.005 316.262 132.538 315.761C133.079 315.259 133.489 314.531 133.768 313.576C134.055 312.612 134.198 311.45 134.198 310.089C134.198 308.719 134.055 307.553 133.768 306.59C133.489 305.627 133.079 304.894 132.538 304.393C132.005 303.883 131.352 303.628 130.58 303.628C129.417 303.628 128.522 304.194 127.893 305.324C127.272 306.447 126.961 308.035 126.961 310.089C126.961 311.45 127.101 312.612 127.379 313.576C127.658 314.531 128.068 315.259 128.609 315.761C129.151 316.262 129.807 316.513 130.58 316.513ZM147.941 319.212C146.5 319.212 145.266 318.854 144.239 318.137C143.22 317.413 142.44 316.374 141.898 315.021C141.357 313.659 141.086 312.015 141.086 310.089C141.086 308.162 141.357 306.518 141.898 305.157C142.44 303.788 143.22 302.745 144.239 302.028C145.266 301.304 146.5 300.941 147.941 300.941C149.374 300.941 150.604 301.304 151.631 302.028C152.658 302.753 153.442 303.796 153.983 305.157C154.525 306.518 154.795 308.162 154.795 310.089C154.795 312.015 154.525 313.659 153.983 315.021C153.442 316.374 152.662 317.413 151.643 318.137C150.624 318.854 149.39 319.212 147.941 319.212ZM147.941 316.513C148.713 316.513 149.366 316.262 149.899 315.761C150.441 315.259 150.851 314.531 151.129 313.576C151.416 312.612 151.559 311.45 151.559 310.089C151.559 308.719 151.416 307.553 151.129 306.59C150.851 305.627 150.441 304.894 149.899 304.393C149.366 303.883 148.713 303.628 147.941 303.628C146.778 303.628 145.883 304.194 145.254 305.324C144.633 306.447 144.322 308.035 144.322 310.089C144.322 311.45 144.462 312.612 144.74 313.576C145.019 314.531 145.429 315.259 145.97 315.761C146.512 316.262 147.169 316.513 147.941 316.513Z" fill="white"/>
<path d="M118.704 329.717H142.456C145.571 329.717 148.097 332.243 148.097 335.358V398.591H113.063V335.358C113.063 332.243 115.588 329.717 118.704 329.717Z" fill="url(#paint4_linear_39_122)" fill-opacity="0.25" stroke="url(#paint5_linear_39_122)" stroke-width="0.593799"/>
<path d="M180.505 303.179C179.064 303.179 177.83 302.821 176.803 302.105C175.784 301.38 175.003 300.341 174.462 298.988C173.921 297.627 173.65 295.983 173.65 294.056C173.65 292.13 173.921 290.486 174.462 289.124C175.003 287.755 175.784 286.712 176.803 285.996C177.83 285.271 179.064 284.909 180.505 284.909C181.937 284.909 183.167 285.271 184.194 285.996C185.221 286.72 186.006 287.763 186.547 289.124C187.088 290.486 187.359 292.13 187.359 294.056C187.359 295.983 187.088 297.627 186.547 298.988C186.006 300.341 185.225 301.38 184.206 302.105C183.187 302.821 181.953 303.179 180.505 303.179ZM180.505 300.481C181.277 300.481 181.93 300.23 182.463 299.728C183.004 299.227 183.414 298.498 183.693 297.543C183.979 296.58 184.123 295.417 184.123 294.056C184.123 292.687 183.979 291.521 183.693 290.557C183.414 289.594 183.004 288.862 182.463 288.36C181.93 287.851 181.277 287.596 180.505 287.596C179.342 287.596 178.447 288.161 177.818 289.291C177.197 290.414 176.886 292.002 176.886 294.056C176.886 295.417 177.026 296.58 177.304 297.543C177.583 298.498 177.993 299.227 178.534 299.728C179.076 300.23 179.732 300.481 180.505 300.481ZM197.866 303.179C196.425 303.179 195.191 302.821 194.164 302.105C193.145 301.38 192.365 300.341 191.823 298.988C191.282 297.627 191.011 295.983 191.011 294.056C191.011 292.13 191.282 290.486 191.823 289.124C192.365 287.755 193.145 286.712 194.164 285.996C195.191 285.271 196.425 284.909 197.866 284.909C199.299 284.909 200.529 285.271 201.556 285.996C202.582 286.72 203.367 287.763 203.908 289.124C204.449 290.486 204.72 292.13 204.72 294.056C204.72 295.983 204.449 297.627 203.908 298.988C203.367 300.341 202.586 301.38 201.567 302.105C200.548 302.821 199.314 303.179 197.866 303.179ZM197.866 300.481C198.638 300.481 199.291 300.23 199.824 299.728C200.365 299.227 200.775 298.498 201.054 297.543C201.341 296.58 201.484 295.417 201.484 294.056C201.484 292.687 201.341 291.521 201.054 290.557C200.775 289.594 200.365 288.862 199.824 288.36C199.291 287.851 198.638 287.596 197.866 287.596C196.703 287.596 195.808 288.161 195.179 289.291C194.558 290.414 194.247 292.002 194.247 294.056C194.247 295.417 194.387 296.58 194.665 297.543C194.944 298.498 195.354 299.227 195.895 299.728C196.437 300.23 197.093 300.481 197.866 300.481ZM215.227 303.179C213.786 303.179 212.552 302.821 211.525 302.105C210.506 301.38 209.726 300.341 209.184 298.988C208.643 297.627 208.372 295.983 208.372 294.056C208.372 292.13 208.643 290.486 209.184 289.124C209.726 287.755 210.506 286.712 211.525 285.996C212.552 285.271 213.786 284.909 215.227 284.909C216.66 284.909 217.89 285.271 218.917 285.996C219.944 286.72 220.728 287.763 221.269 289.124C221.81 290.486 222.081 292.13 222.081 294.056C222.081 295.983 221.81 297.627 221.269 298.988C220.728 300.341 219.948 301.38 218.929 302.105C217.91 302.821 216.676 303.179 215.227 303.179ZM215.227 300.481C215.999 300.481 216.652 300.23 217.185 299.728C217.726 299.227 218.136 298.498 218.415 297.543C218.702 296.58 218.845 295.417 218.845 294.056C218.845 292.687 218.702 291.521 218.415 290.557C218.136 289.594 217.726 288.862 217.185 288.36C216.652 287.851 215.999 287.596 215.227 287.596C214.064 287.596 213.169 288.161 212.54 289.291C211.919 290.414 211.608 292.002 211.608 294.056C211.608 295.417 211.748 296.58 212.026 297.543C212.305 298.498 212.715 299.227 213.256 299.728C213.798 300.23 214.454 300.481 215.227 300.481Z" fill="white"/>
<path d="M185.989 313.685H209.741C212.857 313.685 215.383 316.21 215.383 319.326V398.591H180.348V319.326C180.348 316.21 182.874 313.685 185.989 313.685Z" fill="url(#paint6_linear_39_122)" fill-opacity="0.25" stroke="url(#paint7_linear_39_122)" stroke-width="0.593799"/>
<path d="M247.79 269.927C246.349 269.927 245.115 269.568 244.088 268.852C243.069 268.128 242.289 267.089 241.748 265.735C241.206 264.374 240.936 262.73 240.936 260.803C240.936 258.877 241.206 257.233 241.748 255.872C242.289 254.502 243.069 253.459 244.088 252.743C245.115 252.018 246.349 251.656 247.79 251.656C249.223 251.656 250.453 252.018 251.48 252.743C252.507 253.467 253.291 254.51 253.833 255.872C254.374 257.233 254.645 258.877 254.645 260.803C254.645 262.73 254.374 264.374 253.833 265.735C253.291 267.089 252.511 268.128 251.492 268.852C250.473 269.568 249.239 269.927 247.79 269.927ZM247.79 267.228C248.562 267.228 249.215 266.977 249.749 266.476C250.29 265.974 250.7 265.246 250.979 264.29C251.265 263.327 251.408 262.165 251.408 260.803C251.408 259.434 251.265 258.268 250.979 257.305C250.7 256.341 250.29 255.609 249.749 255.107C249.215 254.598 248.562 254.343 247.79 254.343C246.628 254.343 245.732 254.908 245.103 256.039C244.482 257.161 244.172 258.749 244.172 260.803C244.172 262.165 244.311 263.327 244.59 264.29C244.868 265.246 245.278 265.974 245.82 266.476C246.361 266.977 247.018 267.228 247.79 267.228ZM265.151 269.927C263.71 269.927 262.476 269.568 261.449 268.852C260.43 268.128 259.65 267.089 259.109 265.735C258.567 264.374 258.297 262.73 258.297 260.803C258.297 258.877 258.567 257.233 259.109 255.872C259.65 254.502 260.43 253.459 261.449 252.743C262.476 252.018 263.71 251.656 265.151 251.656C266.584 251.656 267.814 252.018 268.841 252.743C269.868 253.467 270.652 254.51 271.194 255.872C271.735 257.233 272.006 258.877 272.006 260.803C272.006 262.73 271.735 264.374 271.194 265.735C270.652 267.089 269.872 268.128 268.853 268.852C267.834 269.568 266.6 269.927 265.151 269.927ZM265.151 267.228C265.923 267.228 266.576 266.977 267.11 266.476C267.651 265.974 268.061 265.246 268.34 264.29C268.626 263.327 268.77 262.165 268.77 260.803C268.77 259.434 268.626 258.268 268.34 257.305C268.061 256.341 267.651 255.609 267.11 255.107C266.576 254.598 265.923 254.343 265.151 254.343C263.989 254.343 263.093 254.908 262.464 256.039C261.843 257.161 261.533 258.749 261.533 260.803C261.533 262.165 261.672 263.327 261.951 264.29C262.23 265.246 262.64 265.974 263.181 266.476C263.722 266.977 264.379 267.228 265.151 267.228ZM282.512 269.927C281.071 269.927 279.837 269.568 278.81 268.852C277.791 268.128 277.011 267.089 276.47 265.735C275.929 264.374 275.658 262.73 275.658 260.803C275.658 258.877 275.929 257.233 276.47 255.872C277.011 254.502 277.791 253.459 278.81 252.743C279.837 252.018 281.071 251.656 282.512 251.656C283.945 251.656 285.175 252.018 286.202 252.743C287.229 253.467 288.013 254.51 288.555 255.872C289.096 257.233 289.367 258.877 289.367 260.803C289.367 262.73 289.096 264.374 288.555 265.735C288.013 267.089 287.233 268.128 286.214 268.852C285.195 269.568 283.961 269.927 282.512 269.927ZM282.512 267.228C283.285 267.228 283.937 266.977 284.471 266.476C285.012 265.974 285.422 265.246 285.701 264.29C285.987 263.327 286.131 262.165 286.131 260.803C286.131 259.434 285.987 258.268 285.701 257.305C285.422 256.341 285.012 255.609 284.471 255.107C283.937 254.598 283.285 254.343 282.512 254.343C281.35 254.343 280.454 254.908 279.825 256.039C279.204 257.161 278.894 258.749 278.894 260.803C278.894 262.165 279.033 263.327 279.312 264.29C279.591 265.246 280.001 265.974 280.542 266.476C281.083 266.977 281.74 267.228 282.512 267.228Z" fill="white"/>
<path d="M253.275 280.432H277.027C280.143 280.432 282.668 282.958 282.668 286.073V398.591H247.634V286.073C247.634 282.958 250.16 280.432 253.275 280.432Z" fill="url(#paint8_linear_39_122)" fill-opacity="0.25" stroke="url(#paint9_linear_39_122)" stroke-width="0.593799"/>
<path d="M315.076 259.832C313.635 259.832 312.401 259.474 311.374 258.757C310.355 258.033 309.575 256.994 309.034 255.641C308.492 254.279 308.222 252.635 308.222 250.709C308.222 248.782 308.492 247.138 309.034 245.777C309.575 244.408 310.355 243.365 311.374 242.648C312.401 241.924 313.635 241.562 315.076 241.562C316.509 241.562 317.739 241.924 318.766 242.648C319.793 243.373 320.577 244.416 321.118 245.777C321.66 247.138 321.93 248.782 321.93 250.709C321.93 252.635 321.66 254.279 321.118 255.641C320.577 256.994 319.797 258.033 318.778 258.757C317.759 259.474 316.525 259.832 315.076 259.832ZM315.076 257.133C315.848 257.133 316.501 256.883 317.034 256.381C317.576 255.88 317.986 255.151 318.264 254.196C318.551 253.232 318.694 252.07 318.694 250.709C318.694 249.34 318.551 248.173 318.264 247.21C317.986 246.247 317.576 245.514 317.034 245.013C316.501 244.503 315.848 244.248 315.076 244.248C313.914 244.248 313.018 244.814 312.389 245.944C311.768 247.067 311.458 248.655 311.458 250.709C311.458 252.07 311.597 253.232 311.876 254.196C312.154 255.151 312.564 255.88 313.106 256.381C313.647 256.883 314.304 257.133 315.076 257.133ZM332.437 259.832C330.996 259.832 329.762 259.474 328.735 258.757C327.716 258.033 326.936 256.994 326.395 255.641C325.853 254.279 325.583 252.635 325.583 250.709C325.583 248.782 325.853 247.138 326.395 245.777C326.936 244.408 327.716 243.365 328.735 242.648C329.762 241.924 330.996 241.562 332.437 241.562C333.87 241.562 335.1 241.924 336.127 242.648C337.154 243.373 337.938 244.416 338.48 245.777C339.021 247.138 339.292 248.782 339.292 250.709C339.292 252.635 339.021 254.279 338.48 255.641C337.938 256.994 337.158 258.033 336.139 258.757C335.12 259.474 333.886 259.832 332.437 259.832ZM332.437 257.133C333.209 257.133 333.862 256.883 334.396 256.381C334.937 255.88 335.347 255.151 335.625 254.196C335.912 253.232 336.055 252.07 336.055 250.709C336.055 249.34 335.912 248.173 335.625 247.21C335.347 246.247 334.937 245.514 334.396 245.013C333.862 244.503 333.209 244.248 332.437 244.248C331.275 244.248 330.379 244.814 329.75 245.944C329.129 247.067 328.819 248.655 328.819 250.709C328.819 252.07 328.958 253.232 329.237 254.196C329.515 255.151 329.925 255.88 330.467 256.381C331.008 256.883 331.665 257.133 332.437 257.133ZM349.798 259.832C348.357 259.832 347.123 259.474 346.096 258.757C345.077 258.033 344.297 256.994 343.756 255.641C343.214 254.279 342.944 252.635 342.944 250.709C342.944 248.782 343.214 247.138 343.756 245.777C344.297 244.408 345.077 243.365 346.096 242.648C347.123 241.924 348.357 241.562 349.798 241.562C351.231 241.562 352.461 241.924 353.488 242.648C354.515 243.373 355.299 244.416 355.841 245.777C356.382 247.138 356.653 248.782 356.653 250.709C356.653 252.635 356.382 254.279 355.841 255.641C355.299 256.994 354.519 258.033 353.5 258.757C352.481 259.474 351.247 259.832 349.798 259.832ZM349.798 257.133C350.57 257.133 351.223 256.883 351.757 256.381C352.298 255.88 352.708 255.151 352.987 254.196C353.273 253.232 353.416 252.07 353.416 250.709C353.416 249.34 353.273 248.173 352.987 247.21C352.708 246.247 352.298 245.514 351.757 245.013C351.223 244.503 350.57 244.248 349.798 244.248C348.636 244.248 347.74 244.814 347.111 245.944C346.49 247.067 346.18 248.655 346.18 250.709C346.18 252.07 346.319 253.232 346.598 254.196C346.876 255.151 347.286 255.88 347.828 256.381C348.369 256.883 349.026 257.133 349.798 257.133Z" fill="white"/>
<path d="M320.561 270.338H344.313C347.428 270.338 349.954 272.863 349.954 275.979V398.591H314.92V275.979C314.92 272.863 317.446 270.338 320.561 270.338Z" fill="url(#paint10_linear_39_122)" fill-opacity="0.25" stroke="url(#paint11_linear_39_122)" stroke-width="0.593799"/>
<path d="M382.362 225.986C380.921 225.986 379.687 225.627 378.66 224.911C377.641 224.186 376.861 223.148 376.319 221.794C375.778 220.433 375.507 218.789 375.507 216.862C375.507 214.936 375.778 213.292 376.319 211.93C376.861 210.561 377.641 209.518 378.66 208.802C379.687 208.077 380.921 207.715 382.362 207.715C383.795 207.715 385.025 208.077 386.052 208.802C387.079 209.526 387.863 210.569 388.404 211.93C388.945 213.292 389.216 214.936 389.216 216.862C389.216 218.789 388.945 220.433 388.404 221.794C387.863 223.148 387.083 224.186 386.064 224.911C385.045 225.627 383.811 225.986 382.362 225.986ZM382.362 223.287C383.134 223.287 383.787 223.036 384.32 222.535C384.861 222.033 385.271 221.305 385.55 220.349C385.837 219.386 385.98 218.224 385.98 216.862C385.98 215.493 385.837 214.327 385.55 213.363C385.271 212.4 384.861 211.668 384.32 211.166C383.787 210.657 383.134 210.402 382.362 210.402C381.199 210.402 380.304 210.967 379.675 212.098C379.054 213.22 378.743 214.808 378.743 216.862C378.743 218.224 378.883 219.386 379.161 220.349C379.44 221.305 379.85 222.033 380.391 222.535C380.933 223.036 381.589 223.287 382.362 223.287ZM399.723 225.986C398.282 225.986 397.048 225.627 396.021 224.911C395.002 224.186 394.222 223.148 393.68 221.794C393.139 220.433 392.868 218.789 392.868 216.862C392.868 214.936 393.139 213.292 393.68 211.93C394.222 210.561 395.002 209.518 396.021 208.802C397.048 208.077 398.282 207.715 399.723 207.715C401.156 207.715 402.386 208.077 403.413 208.802C404.44 209.526 405.224 210.569 405.765 211.93C406.307 213.292 406.577 214.936 406.577 216.862C406.577 218.789 406.307 220.433 405.765 221.794C405.224 223.148 404.444 224.186 403.425 224.911C402.406 225.627 401.172 225.986 399.723 225.986ZM399.723 223.287C400.495 223.287 401.148 223.036 401.681 222.535C402.223 222.033 402.633 221.305 402.911 220.349C403.198 219.386 403.341 218.224 403.341 216.862C403.341 215.493 403.198 214.327 402.911 213.363C402.633 212.4 402.223 211.668 401.681 211.166C401.148 210.657 400.495 210.402 399.723 210.402C398.56 210.402 397.665 210.967 397.036 212.098C396.415 213.22 396.104 214.808 396.104 216.862C396.104 218.224 396.244 219.386 396.522 220.349C396.801 221.305 397.211 222.033 397.752 222.535C398.294 223.036 398.951 223.287 399.723 223.287ZM417.084 225.986C415.643 225.986 414.409 225.627 413.382 224.911C412.363 224.186 411.583 223.148 411.041 221.794C410.5 220.433 410.229 218.789 410.229 216.862C410.229 214.936 410.5 213.292 411.041 211.93C411.583 210.561 412.363 209.518 413.382 208.802C414.409 208.077 415.643 207.715 417.084 207.715C418.517 207.715 419.747 208.077 420.774 208.802C421.801 209.526 422.585 210.569 423.126 211.93C423.668 213.292 423.938 214.936 423.938 216.862C423.938 218.789 423.668 220.433 423.126 221.794C422.585 223.148 421.805 224.186 420.786 224.911C419.767 225.627 418.533 225.986 417.084 225.986ZM417.084 223.287C417.856 223.287 418.509 223.036 419.042 222.535C419.584 222.033 419.994 221.305 420.272 220.349C420.559 219.386 420.702 218.224 420.702 216.862C420.702 215.493 420.559 214.327 420.272 213.363C419.994 212.4 419.584 211.668 419.042 211.166C418.509 210.657 417.856 210.402 417.084 210.402C415.922 210.402 415.026 210.967 414.397 212.098C413.776 213.22 413.466 214.808 413.466 216.862C413.466 218.224 413.605 219.386 413.883 220.349C414.162 221.305 414.572 222.033 415.113 222.535C415.655 223.036 416.312 223.287 417.084 223.287Z" fill="white"/>
<path d="M387.847 236.491H411.599C414.714 236.491 417.24 239.017 417.24 242.132V398.591H382.206V242.132C382.206 239.017 384.731 236.491 387.847 236.491Z" fill="url(#paint12_linear_39_122)" fill-opacity="0.25" stroke="url(#paint13_linear_39_122)" stroke-width="0.593799"/>
<path d="M449.647 184.42C448.206 184.42 446.972 184.061 445.945 183.345C444.926 182.621 444.146 181.582 443.605 180.228C443.064 178.867 442.793 177.223 442.793 175.296C442.793 173.37 443.064 171.726 443.605 170.365C444.146 168.995 444.926 167.952 445.945 167.236C446.972 166.511 448.206 166.149 449.647 166.149C451.08 166.149 452.31 166.511 453.337 167.236C454.364 167.96 455.148 169.003 455.69 170.365C456.231 171.726 456.502 173.37 456.502 175.296C456.502 177.223 456.231 178.867 455.69 180.228C455.148 181.582 454.368 182.621 453.349 183.345C452.33 184.061 451.096 184.42 449.647 184.42ZM449.647 181.721C450.42 181.721 451.072 181.47 451.606 180.969C452.147 180.467 452.557 179.739 452.836 178.783C453.122 177.82 453.266 176.658 453.266 175.296C453.266 173.927 453.122 172.761 452.836 171.798C452.557 170.834 452.147 170.102 451.606 169.6C451.072 169.091 450.42 168.836 449.647 168.836C448.485 168.836 447.589 169.401 446.96 170.532C446.34 171.654 446.029 173.242 446.029 175.296C446.029 176.658 446.168 177.82 446.447 178.783C446.726 179.739 447.136 180.467 447.677 180.969C448.218 181.47 448.875 181.721 449.647 181.721ZM467.008 184.42C465.567 184.42 464.333 184.061 463.307 183.345C462.288 182.621 461.507 181.582 460.966 180.228C460.425 178.867 460.154 177.223 460.154 175.296C460.154 173.37 460.425 171.726 460.966 170.365C461.507 168.995 462.288 167.952 463.307 167.236C464.333 166.511 465.567 166.149 467.008 166.149C468.441 166.149 469.671 166.511 470.698 167.236C471.725 167.96 472.509 169.003 473.051 170.365C473.592 171.726 473.863 173.37 473.863 175.296C473.863 177.223 473.592 178.867 473.051 180.228C472.509 181.582 471.729 182.621 470.71 183.345C469.691 184.061 468.457 184.42 467.008 184.42ZM467.008 181.721C467.781 181.721 468.433 181.47 468.967 180.969C469.508 180.467 469.918 179.739 470.197 178.783C470.483 177.82 470.627 176.658 470.627 175.296C470.627 173.927 470.483 172.761 470.197 171.798C469.918 170.834 469.508 170.102 468.967 169.6C468.433 169.091 467.781 168.836 467.008 168.836C465.846 168.836 464.95 169.401 464.322 170.532C463.701 171.654 463.39 173.242 463.39 175.296C463.39 176.658 463.529 177.82 463.808 178.783C464.087 179.739 464.497 180.467 465.038 180.969C465.579 181.47 466.236 181.721 467.008 181.721ZM484.369 184.42C482.929 184.42 481.695 184.061 480.668 183.345C479.649 182.621 478.868 181.582 478.327 180.228C477.786 178.867 477.515 177.223 477.515 175.296C477.515 173.37 477.786 171.726 478.327 170.365C478.868 168.995 479.649 167.952 480.668 167.236C481.695 166.511 482.929 166.149 484.369 166.149C485.802 166.149 487.032 166.511 488.059 167.236C489.086 167.96 489.871 169.003 490.412 170.365C490.953 171.726 491.224 173.37 491.224 175.296C491.224 177.223 490.953 178.867 490.412 180.228C489.871 181.582 489.09 182.621 488.071 183.345C487.052 184.061 485.818 184.42 484.369 184.42ZM484.369 181.721C485.142 181.721 485.794 181.47 486.328 180.969C486.869 180.467 487.279 179.739 487.558 178.783C487.844 177.82 487.988 176.658 487.988 175.296C487.988 173.927 487.844 172.761 487.558 171.798C487.279 170.834 486.869 170.102 486.328 169.6C485.794 169.091 485.142 168.836 484.369 168.836C483.207 168.836 482.312 169.401 481.683 170.532C481.062 171.654 480.751 173.242 480.751 175.296C480.751 176.658 480.891 177.82 481.169 178.783C481.448 179.739 481.858 180.467 482.399 180.969C482.94 181.47 483.597 181.721 484.369 181.721Z" fill="white"/>
<path d="M455.132 194.925H478.884C482 194.925 484.525 197.451 484.525 200.566V398.591H449.491V200.566C449.491 197.451 452.017 194.925 455.132 194.925Z" fill="url(#paint14_linear_39_122)" fill-opacity="0.25" stroke="url(#paint15_linear_39_122)" stroke-width="0.593799"/>
<path d="M47.39 40.1143V71.8889H41.6322V40.1143H47.39ZM57.3702 57.9422V71.8889H51.7617V48.0473H57.2636V52.1204H57.5408C58.0811 50.784 58.927 49.7249 60.0786 48.943C61.2443 48.1468 62.7229 47.7488 64.5142 47.7488C66.1633 47.7488 67.5992 48.0971 68.8219 48.7937C70.0445 49.4903 70.99 50.5139 71.6582 51.8645C72.3406 53.2009 72.6818 54.8216 72.6818 56.7267V71.8889H67.0732V57.601C67.0732 56.0087 66.6609 54.7648 65.8364 53.8691C65.0118 52.9592 63.8744 52.5043 62.4243 52.5043C61.4434 52.5043 60.569 52.7175 59.8013 53.144C59.0478 53.5705 58.4507 54.189 58.01 54.9993C57.5835 55.7955 57.3702 56.7764 57.3702 57.9422ZM95.649 54.3809L90.5523 54.914C90.3391 54.1321 89.877 53.4426 89.1662 52.8455C88.4553 52.2342 87.453 51.9285 86.1593 51.9285C84.9935 51.9285 84.0126 52.1844 83.2164 52.6962C82.4345 53.208 82.0435 53.862 82.0435 54.6581C82.0435 55.3548 82.2994 55.9305 82.8112 56.3855C83.3373 56.8262 84.2045 57.1816 85.4129 57.4517L89.486 58.3047C91.7181 58.7739 93.3886 59.5416 94.4975 60.6079C95.6064 61.6741 96.1608 63.0532 96.1608 64.745C96.1608 66.2377 95.7272 67.5599 94.86 68.7115C93.9928 69.863 92.7915 70.7587 91.256 71.3984C89.7348 72.0382 87.9791 72.3581 85.9887 72.3581C83.0743 72.3581 80.7285 71.7467 78.9514 70.5241C77.1885 69.2872 76.1293 67.5741 75.7739 65.3847L81.2545 64.8729C81.4962 65.9392 82.0222 66.7495 82.8326 67.304C83.6571 67.8442 84.7092 68.1144 85.9887 68.1144C87.3251 68.1144 88.3985 67.8442 89.2088 67.304C90.0192 66.7495 90.4244 66.0742 90.4244 65.2781C90.4244 63.9417 89.3581 63.0318 87.2256 62.5485L83.1524 61.6955C80.8635 61.1979 79.1717 60.3946 78.077 59.2857C76.9823 58.1626 76.435 56.7338 76.435 54.9993C76.435 53.5208 76.8402 52.2413 77.6505 51.1608C78.4609 50.0803 79.5911 49.2415 81.0413 48.6444C82.4914 48.0473 84.169 47.7488 86.074 47.7488C88.8747 47.7488 91.0712 48.353 92.6635 49.5614C94.27 50.7556 95.2652 52.3621 95.649 54.3809ZM109.745 72.3581C107.357 72.3581 105.295 71.8605 103.561 70.8653C101.826 69.8559 100.49 68.4342 99.5516 66.6003C98.6275 64.7663 98.1654 62.6053 98.1654 60.1174C98.1654 57.6579 98.6275 55.504 99.5516 53.6558C100.476 51.7934 101.776 50.3433 103.454 49.3055C105.132 48.2677 107.108 47.7488 109.382 47.7488C110.847 47.7488 112.233 47.9833 113.541 48.4525C114.863 48.9216 116.029 49.6467 117.038 50.6277C118.062 51.6086 118.865 52.8597 119.448 54.3809C120.031 55.8879 120.322 57.6863 120.322 59.7762V61.5249H100.788V57.7503H117.529L114.906 58.8592C114.906 57.5086 114.7 56.3357 114.287 55.3405C113.875 54.3311 113.264 53.5421 112.453 52.9734C111.643 52.4048 110.634 52.1204 109.425 52.1204C108.217 52.1204 107.186 52.4048 106.333 52.9734C105.48 53.5421 104.833 54.3098 104.392 55.2766C103.952 56.2291 103.731 57.2953 103.731 58.4753V61.0983C103.731 62.5485 103.98 63.7924 104.478 64.8303C104.989 65.8539 105.7 66.6358 106.61 67.176C107.534 67.7163 108.608 67.9864 109.83 67.9864C110.626 67.9864 111.352 67.8727 112.005 67.6452C112.674 67.4177 113.242 67.0765 113.712 66.6216C114.195 66.1524 114.565 65.5766 114.82 64.8942L120.066 65.5127C119.725 66.8917 119.093 68.1001 118.168 69.138C117.259 70.1616 116.086 70.9577 114.65 71.5264C113.228 72.0808 111.593 72.3581 109.745 72.3581ZM123.372 71.8889V48.0473H128.81V52.0565H129.066C129.492 50.6632 130.239 49.5969 131.305 48.8577C132.371 48.1042 133.587 47.7274 134.951 47.7274C135.25 47.7274 135.591 47.7416 135.975 47.7701C136.373 47.7985 136.7 47.8341 136.956 47.8767V53.0374C136.714 52.9521 136.338 52.881 135.826 52.8242C135.314 52.7673 134.823 52.7389 134.354 52.7389C133.317 52.7389 132.392 52.9592 131.582 53.3999C130.772 53.8407 130.132 54.4449 129.663 55.2126C129.208 55.9803 128.98 56.876 128.98 57.8996V71.8889H123.372ZM152.225 48.0473V52.3977H138.555V48.0473H152.225ZM141.903 42.3748H147.512V64.7236C147.512 65.6619 147.718 66.3586 148.13 66.8135C148.543 67.2542 149.197 67.4746 150.092 67.4746C150.334 67.4746 150.604 67.4533 150.903 67.4106C151.201 67.368 151.471 67.3182 151.713 67.2613L152.673 71.6543C152.076 71.8392 151.471 71.9742 150.86 72.0595C150.249 72.159 149.637 72.2088 149.026 72.2088C146.808 72.2088 145.067 71.6259 143.801 70.4601C142.536 69.2801 141.903 67.6736 141.903 65.6406V42.3748ZM164.53 71.8889V48.0473H169.882V52.1204H170.181C170.678 50.7556 171.503 49.6894 172.654 48.9216C173.806 48.1397 175.171 47.7488 176.749 47.7488C178.37 47.7488 179.734 48.1397 180.843 48.9216C181.952 49.7036 182.727 50.7698 183.168 52.1204H183.424C183.964 50.7983 184.86 49.7391 186.111 48.943C187.362 48.1468 188.855 47.7488 190.589 47.7488C192.778 47.7488 194.563 48.4454 195.942 49.8386C197.335 51.2177 198.031 53.2364 198.031 55.895V71.8889H192.402V56.748C192.402 55.2837 192.004 54.2103 191.207 53.5279C190.425 52.8313 189.466 52.483 188.328 52.483C186.978 52.483 185.926 52.9095 185.172 53.7625C184.419 54.6013 184.042 55.6817 184.042 57.0039V71.8889H178.498V56.5347C178.498 55.2979 178.135 54.3169 177.41 53.5919C176.685 52.8526 175.725 52.483 174.531 52.483C173.721 52.483 172.981 52.6891 172.313 53.1014C171.645 53.5137 171.112 54.0895 170.714 54.8287C170.33 55.568 170.138 56.421 170.138 57.3878V71.8889H164.53ZM209.057 72.3794C207.535 72.3794 206.171 72.1093 204.962 71.569C203.754 71.0146 202.801 70.2042 202.105 69.138C201.408 68.0717 201.06 66.7566 201.06 65.1928C201.06 63.8564 201.308 62.7475 201.806 61.8661C202.304 60.9846 202.979 60.2809 203.832 59.7549C204.699 59.2288 205.673 58.8308 206.753 58.5606C207.834 58.2763 208.95 58.0773 210.102 57.9635C211.509 57.8072 212.646 57.6721 213.514 57.5584C214.381 57.4446 215.006 57.2598 215.39 57.0039C215.788 56.748 215.987 56.3499 215.987 55.8097V55.7031C215.987 54.5515 215.646 53.6558 214.964 53.0161C214.281 52.3763 213.286 52.0565 211.978 52.0565C210.599 52.0565 209.504 52.355 208.694 52.9521C207.898 53.5492 207.358 54.253 207.073 55.0633L201.849 54.3169C202.261 52.8668 202.943 51.6584 203.896 50.6916C204.848 49.7107 206.007 48.9785 207.372 48.4951C208.751 47.9975 210.272 47.7488 211.936 47.7488C213.073 47.7488 214.21 47.8838 215.348 48.1539C216.485 48.4098 217.53 48.8506 218.482 49.4761C219.435 50.1016 220.195 50.9404 220.764 51.9925C221.333 53.0445 221.617 54.3596 221.617 55.9376V71.8889H216.222V68.6048H216.051C215.71 69.2588 215.227 69.8772 214.601 70.4601C213.99 71.0288 213.222 71.4908 212.298 71.8463C211.388 72.2017 210.308 72.3794 209.057 72.3794ZM210.485 68.2423C211.623 68.2423 212.604 68.0219 213.428 67.5812C214.253 67.1263 214.893 66.5292 215.348 65.7899C215.802 65.0364 216.03 64.2189 216.03 63.3375V60.5439C215.845 60.6861 215.547 60.8211 215.134 60.9491C214.722 61.0628 214.253 61.1694 213.727 61.269C213.201 61.3685 212.682 61.4538 212.17 61.5249C211.673 61.5959 211.239 61.6528 210.869 61.6955C210.03 61.8092 209.277 62.0011 208.609 62.2712C207.955 62.5271 207.436 62.8826 207.052 63.3375C206.668 63.7924 206.476 64.3824 206.476 65.1075C206.476 66.1453 206.853 66.9272 207.606 67.4533C208.36 67.9793 209.32 68.2423 210.485 68.2423ZM225.776 48.0473H231.384V73.2537C231.398 74.974 231.078 76.3885 230.425 77.4975C229.771 78.6206 228.825 79.4523 227.588 79.9925C226.351 80.5327 224.852 80.8029 223.089 80.8029H221.958V76.2393H222.769C223.849 76.2393 224.617 75.9763 225.072 75.4502C225.541 74.9384 225.776 74.1849 225.776 73.1898V48.0473ZM228.569 44.6992C227.674 44.6992 226.906 44.4007 226.266 43.8036C225.626 43.2065 225.306 42.4885 225.306 41.6497C225.306 40.7967 225.626 40.0717 226.266 39.4746C226.906 38.8775 227.674 38.5789 228.569 38.5789C229.451 38.5789 230.211 38.8775 230.851 39.4746C231.491 40.0717 231.811 40.7896 231.811 41.6284C231.811 42.4814 231.491 43.2065 230.851 43.8036C230.211 44.4007 229.451 44.6992 228.569 44.6992ZM245.928 72.3581C243.596 72.3581 241.578 71.8463 239.872 70.8227C238.166 69.799 236.843 68.3631 235.905 66.515C234.981 64.6668 234.519 62.52 234.519 60.0747C234.519 57.6152 234.981 55.4614 235.905 53.6132C236.843 51.7508 238.166 50.3078 239.872 49.2842C241.578 48.2606 243.596 47.7488 245.928 47.7488C248.26 47.7488 250.278 48.2606 251.984 49.2842C253.69 50.3078 255.012 51.7508 255.951 53.6132C256.889 55.4614 257.358 57.6152 257.358 60.0747C257.358 62.52 256.889 64.6668 255.951 66.515C255.012 68.3631 253.69 69.799 251.984 70.8227C250.278 71.8463 248.26 72.3581 245.928 72.3581ZM245.928 67.8371C247.222 67.8371 248.288 67.4959 249.127 66.8135C249.966 66.1169 250.591 65.1786 251.003 63.9986C251.43 62.8186 251.643 61.5106 251.643 60.0747C251.643 58.6104 251.43 57.2882 251.003 56.1082C250.591 54.9282 249.966 53.997 249.127 53.3146C248.288 52.618 247.222 52.2697 245.928 52.2697C244.663 52.2697 243.603 52.618 242.75 53.3146C241.897 53.997 241.258 54.9282 240.831 56.1082C240.419 57.2882 240.213 58.6104 240.213 60.0747C240.213 61.5106 240.419 62.8186 240.831 63.9986C241.258 65.1786 241.897 66.1169 242.75 66.8135C243.603 67.4959 244.663 67.8371 245.928 67.8371ZM260.45 71.8889V48.0473H265.888V52.0565H266.144C266.571 50.6632 267.317 49.5969 268.383 48.8577C269.45 48.1042 270.665 47.7274 272.03 47.7274C272.329 47.7274 272.67 47.7416 273.054 47.7701C273.452 47.7985 273.779 47.8341 274.035 47.8767V53.0374C273.793 52.9521 273.416 52.881 272.904 52.8242C272.393 52.7673 271.902 52.7389 271.433 52.7389C270.395 52.7389 269.471 52.9592 268.661 53.3999C267.85 53.8407 267.211 54.4449 266.741 55.2126C266.286 55.9803 266.059 56.876 266.059 57.8996V71.8889H260.45ZM53.5104 98.0473V102.398H39.4571V98.0473H53.5104ZM42.9544 121.889V95.8082C42.9544 94.2017 43.2885 92.8653 43.9567 91.799C44.6249 90.7328 45.5205 89.9366 46.6437 89.4106C47.781 88.8846 49.0321 88.6216 50.3969 88.6216C51.3779 88.6216 52.2451 88.6997 52.9986 88.8561C53.7663 89.0125 54.3278 89.1547 54.6833 89.2826L53.5317 93.633C53.3042 93.5477 53.0128 93.4695 52.6574 93.3984C52.302 93.3131 51.8968 93.2705 51.4418 93.2705C50.404 93.2705 49.6576 93.5264 49.2027 94.0382C48.762 94.55 48.5416 95.275 48.5416 96.2133V121.889H42.9544ZM65.9856 122.358C63.5972 122.358 61.5358 121.86 59.8013 120.865C58.0669 119.856 56.7305 118.434 55.7922 116.6C54.8681 114.766 54.406 112.605 54.406 110.117C54.406 107.658 54.8681 105.504 55.7922 103.656C56.7163 101.793 58.0171 100.343 59.6947 99.3055C61.3723 98.2677 63.3484 97.7488 65.6231 97.7488C67.0874 97.7488 68.4736 97.9833 69.7815 98.4525C71.1037 98.9216 72.2695 99.6467 73.2789 100.628C74.3025 101.609 75.1057 102.86 75.6886 104.381C76.2715 105.888 76.563 107.686 76.563 109.776V111.525H57.029V107.75H73.7693L71.1463 108.859C71.1463 107.509 70.9402 106.336 70.5279 105.341C70.1156 104.331 69.5043 103.542 68.6939 102.973C67.8836 102.405 66.8742 102.12 65.6658 102.12C64.4573 102.12 63.4266 102.405 62.5736 102.973C61.7206 103.542 61.0737 104.31 60.633 105.277C60.1923 106.229 59.9719 107.295 59.9719 108.475V111.098C59.9719 112.548 60.2207 113.792 60.7183 114.83C61.2301 115.854 61.941 116.636 62.8508 117.176C63.7749 117.716 64.8483 117.986 66.0709 117.986C66.8671 117.986 67.5921 117.873 68.2461 117.645C68.9143 117.418 69.483 117.077 69.9521 116.622C70.4355 116.152 70.8051 115.577 71.061 114.894L76.3071 115.513C75.9658 116.892 75.3332 118.1 74.4091 119.138C73.4992 120.162 72.3263 120.958 70.8904 121.526C69.4688 122.081 67.8338 122.358 65.9856 122.358ZM86.4792 122.379C84.958 122.379 83.5932 122.109 82.3847 121.569C81.1763 121.015 80.2238 120.204 79.5272 119.138C78.8305 118.072 78.4822 116.757 78.4822 115.193C78.4822 113.856 78.731 112.748 79.2286 111.866C79.7262 110.985 80.4015 110.281 81.2545 109.755C82.1217 109.229 83.0956 108.831 84.1761 108.561C85.2565 108.276 86.3726 108.077 87.5241 107.964C88.9316 107.807 90.0689 107.672 90.9362 107.558C91.8034 107.445 92.4289 107.26 92.8128 107.004C93.2109 106.748 93.4099 106.35 93.4099 105.81V105.703C93.4099 104.552 93.0687 103.656 92.3863 103.016C91.7039 102.376 90.7087 102.056 89.4007 102.056C88.0217 102.056 86.927 102.355 86.1167 102.952C85.3205 103.549 84.7803 104.253 84.4959 105.063L79.2713 104.317C79.6836 102.867 80.366 101.658 81.3185 100.692C82.271 99.7107 83.4297 98.9785 84.7945 98.4951C86.1735 97.9975 87.6947 97.7488 89.3581 97.7488C90.4954 97.7488 91.6328 97.8838 92.7701 98.1539C93.9075 98.4098 94.9524 98.8506 95.9049 99.4761C96.8575 100.102 97.6181 100.94 98.1867 101.992C98.7554 103.045 99.0398 104.36 99.0398 105.938V121.889H93.6445V118.605H93.4739C93.1327 119.259 92.6493 119.877 92.0238 120.46C91.4124 121.029 90.6447 121.491 89.7206 121.846C88.8107 122.202 87.7303 122.379 86.4792 122.379ZM87.908 118.242C89.0453 118.242 90.0263 118.022 90.8509 117.581C91.6754 117.126 92.3152 116.529 92.7701 115.79C93.2251 115.036 93.4525 114.219 93.4525 113.337V110.544C93.2677 110.686 92.9692 110.821 92.5569 110.949C92.1446 111.063 91.6754 111.169 91.1494 111.269C90.6234 111.368 90.1045 111.454 89.5927 111.525C89.0951 111.596 88.6615 111.653 88.2918 111.695C87.453 111.809 86.6996 112.001 86.0314 112.271C85.3774 112.527 84.8585 112.883 84.4746 113.337C84.0908 113.792 83.8988 114.382 83.8988 115.107C83.8988 116.145 84.2756 116.927 85.0291 117.453C85.7826 117.979 86.7422 118.242 87.908 118.242ZM115.076 98.0473V102.398H101.407V98.0473H115.076ZM104.755 92.3748H110.363V114.724C110.363 115.662 110.57 116.359 110.982 116.814C111.394 117.254 112.048 117.475 112.944 117.475C113.185 117.475 113.456 117.453 113.754 117.411C114.053 117.368 114.323 117.318 114.565 117.261L115.524 121.654C114.927 121.839 114.323 121.974 113.712 122.06C113.1 122.159 112.489 122.209 111.878 122.209C109.66 122.209 107.918 121.626 106.653 120.46C105.388 119.28 104.755 117.674 104.755 115.641V92.3748ZM133.352 111.887V98.0473H138.961V121.889H133.523V117.645H133.267C132.727 118.982 131.845 120.076 130.622 120.929C129.4 121.782 127.893 122.202 126.101 122.187C124.538 122.187 123.159 121.846 121.964 121.164C120.784 120.467 119.853 119.451 119.171 118.114C118.503 116.764 118.168 115.136 118.168 113.231V98.0473H123.777V112.378C123.777 113.871 124.189 115.065 125.014 115.961C125.853 116.856 126.947 117.297 128.298 117.283C129.123 117.283 129.919 117.084 130.686 116.686C131.468 116.287 132.108 115.69 132.606 114.894C133.103 114.098 133.352 113.096 133.352 111.887ZM143.119 121.889V98.0473H148.557V102.056H148.813C149.239 100.663 149.986 99.5969 151.052 98.8577C152.118 98.1042 153.334 97.7274 154.699 97.7274C154.997 97.7274 155.338 97.7416 155.722 97.7701C156.12 97.7985 156.447 97.8341 156.703 97.8767V103.037C156.461 102.952 156.085 102.881 155.573 102.824C155.061 102.767 154.571 102.739 154.101 102.739C153.064 102.739 152.14 102.959 151.329 103.4C150.519 103.841 149.879 104.445 149.41 105.213C148.955 105.98 148.728 106.876 148.728 107.9V121.889H143.119ZM168.389 122.358C166.001 122.358 163.94 121.86 162.205 120.865C160.471 119.856 159.134 118.434 158.196 116.6C157.272 114.766 156.81 112.605 156.81 110.117C156.81 107.658 157.272 105.504 158.196 103.656C159.12 101.793 160.421 100.343 162.098 99.3055C163.776 98.2677 165.752 97.7488 168.027 97.7488C169.491 97.7488 170.877 97.9833 172.185 98.4525C173.507 98.9216 174.673 99.6467 175.683 100.628C176.706 101.609 177.509 102.86 178.092 104.381C178.675 105.888 178.967 107.686 178.967 109.776V111.525H159.433V107.75H176.173L173.55 108.859C173.55 107.509 173.344 106.336 172.932 105.341C172.519 104.331 171.908 103.542 171.098 102.973C170.287 102.405 169.278 102.12 168.07 102.12C166.861 102.12 165.83 102.405 164.977 102.973C164.124 103.542 163.477 104.31 163.037 105.277C162.596 106.229 162.376 107.295 162.376 108.475V111.098C162.376 112.548 162.624 113.792 163.122 114.83C163.634 115.854 164.345 116.636 165.255 117.176C166.179 117.716 167.252 117.986 168.475 117.986C169.271 117.986 169.996 117.873 170.65 117.645C171.318 117.418 171.887 117.077 172.356 116.622C172.839 116.152 173.209 115.577 173.465 114.894L178.711 115.513C178.37 116.892 177.737 118.1 176.813 119.138C175.903 120.162 174.73 120.958 173.294 121.526C171.873 122.081 170.238 122.358 168.389 122.358ZM196.837 107.942V121.889H191.229V98.0473H196.731V102.12H197.008C197.548 100.784 198.394 99.7249 199.546 98.943C200.711 98.1468 202.19 97.7488 203.981 97.7488C205.63 97.7488 207.066 98.0971 208.289 98.7937C209.512 99.4903 210.457 100.514 211.125 101.865C211.808 103.201 212.149 104.822 212.149 106.727V121.889H206.54V107.601C206.54 106.009 206.128 104.765 205.303 103.869C204.479 102.959 203.341 102.504 201.891 102.504C200.91 102.504 200.036 102.718 199.268 103.144C198.515 103.571 197.918 104.189 197.477 104.999C197.051 105.795 196.837 106.776 196.837 107.942ZM223.174 122.379C221.653 122.379 220.288 122.109 219.079 121.569C217.871 121.015 216.919 120.204 216.222 119.138C215.525 118.072 215.177 116.757 215.177 115.193C215.177 113.856 215.426 112.748 215.923 111.866C216.421 110.985 217.096 110.281 217.949 109.755C218.816 109.229 219.79 108.831 220.871 108.561C221.951 108.276 223.067 108.077 224.219 107.964C225.626 107.807 226.764 107.672 227.631 107.558C228.498 107.445 229.124 107.26 229.508 107.004C229.906 106.748 230.105 106.35 230.105 105.81V105.703C230.105 104.552 229.763 103.656 229.081 103.016C228.399 102.376 227.403 102.056 226.095 102.056C224.716 102.056 223.622 102.355 222.811 102.952C222.015 103.549 221.475 104.253 221.191 105.063L215.966 104.317C216.378 102.867 217.061 101.658 218.013 100.692C218.966 99.7107 220.124 98.9785 221.489 98.4951C222.868 97.9975 224.389 97.7488 226.053 97.7488C227.19 97.7488 228.328 97.8838 229.465 98.1539C230.602 98.4098 231.647 98.8506 232.6 99.4761C233.552 100.102 234.313 100.94 234.881 101.992C235.45 103.045 235.734 104.36 235.734 105.938V121.889H230.339V118.605H230.169C229.827 119.259 229.344 119.877 228.718 120.46C228.107 121.029 227.339 121.491 226.415 121.846C225.505 122.202 224.425 122.379 223.174 122.379ZM224.603 118.242C225.74 118.242 226.721 118.022 227.546 117.581C228.37 117.126 229.01 116.529 229.465 115.79C229.92 115.036 230.147 114.219 230.147 113.337V110.544C229.962 110.686 229.664 110.821 229.252 110.949C228.839 111.063 228.37 111.169 227.844 111.269C227.318 111.368 226.799 111.454 226.287 111.525C225.79 111.596 225.356 111.653 224.987 111.695C224.148 111.809 223.394 112.001 222.726 112.271C222.072 112.527 221.553 112.883 221.169 113.337C220.785 113.792 220.594 114.382 220.594 115.107C220.594 116.145 220.97 116.927 221.724 117.453C222.477 117.979 223.437 118.242 224.603 118.242ZM239.893 121.889V98.0473H245.246V102.12H245.544C246.042 100.756 246.866 99.6894 248.018 98.9216C249.169 98.1397 250.534 97.7488 252.112 97.7488C253.733 97.7488 255.098 98.1397 256.207 98.9216C257.316 99.7036 258.09 100.77 258.531 102.12H258.787C259.327 100.798 260.223 99.7391 261.474 98.943C262.725 98.1468 264.218 97.7488 265.952 97.7488C268.142 97.7488 269.926 98.4454 271.305 99.8386C272.698 101.218 273.395 103.236 273.395 105.895V121.889H267.765V106.748C267.765 105.284 267.367 104.21 266.571 103.528C265.789 102.831 264.829 102.483 263.692 102.483C262.341 102.483 261.289 102.909 260.536 103.762C259.782 104.601 259.405 105.682 259.405 107.004V121.889H253.861V106.535C253.861 105.298 253.498 104.317 252.773 103.592C252.048 102.853 251.089 102.483 249.894 102.483C249.084 102.483 248.345 102.689 247.677 103.101C247.008 103.514 246.475 104.089 246.077 104.829C245.693 105.568 245.501 106.421 245.501 107.388V121.889H239.893ZM288.109 122.358C285.721 122.358 283.659 121.86 281.925 120.865C280.19 119.856 278.854 118.434 277.916 116.6C276.992 114.766 276.53 112.605 276.53 110.117C276.53 107.658 276.992 105.504 277.916 103.656C278.84 101.793 280.141 100.343 281.818 99.3055C283.496 98.2677 285.472 97.7488 287.747 97.7488C289.211 97.7488 290.597 97.9833 291.905 98.4525C293.227 98.9216 294.393 99.6467 295.402 100.628C296.426 101.609 297.229 102.86 297.812 104.381C298.395 105.888 298.687 107.686 298.687 109.776V111.525H279.153V107.75H295.893L293.27 108.859C293.27 107.509 293.064 106.336 292.652 105.341C292.239 104.331 291.628 103.542 290.818 102.973C290.007 102.405 288.998 102.12 287.789 102.12C286.581 102.12 285.55 102.405 284.697 102.973C283.844 103.542 283.197 104.31 282.757 105.277C282.316 106.229 282.096 107.295 282.096 108.475V111.098C282.096 112.548 282.344 113.792 282.842 114.83C283.354 115.854 284.065 116.636 284.974 117.176C285.899 117.716 286.972 117.986 288.195 117.986C288.991 117.986 289.716 117.873 290.37 117.645C291.038 117.418 291.607 117.077 292.076 116.622C292.559 116.152 292.929 115.577 293.185 114.894L298.431 115.513C298.089 116.892 297.457 118.1 296.533 119.138C295.623 120.162 294.45 120.958 293.014 121.526C291.592 122.081 289.957 122.358 288.109 122.358Z" fill="white"/>
<path d="M43.4563 196.313V211.49H40.9669V196.313H43.4563ZM52.7954 199.261C53.7417 199.261 54.586 199.458 55.3285 199.851C56.0855 200.244 56.6751 200.826 57.0973 201.598C57.5195 202.369 57.7306 203.301 57.7306 204.393V211.49H55.263V204.764C55.263 203.687 54.9936 202.864 54.455 202.296C53.9164 201.714 53.1812 201.423 52.2495 201.423C51.3177 201.423 50.5753 201.714 50.0221 202.296C49.4834 202.864 49.2141 203.687 49.2141 204.764V211.49H46.7247V199.458H49.2141V200.833C49.6217 200.338 50.1385 199.953 50.7645 199.676C51.4051 199.399 52.082 199.261 52.7954 199.261ZM65.2734 211.686C64.3271 211.686 63.4755 211.519 62.7184 211.184C61.976 210.835 61.3864 210.369 60.9496 209.787C60.5129 209.19 60.28 208.527 60.2509 207.799H62.8276C62.8713 208.309 63.1115 208.738 63.5483 209.088C63.9996 209.423 64.56 209.59 65.2297 209.59C65.9285 209.59 66.4671 209.459 66.8456 209.197C67.2387 208.92 67.4352 208.571 67.4352 208.149C67.4352 207.697 67.2169 207.363 66.7801 207.144C66.358 206.926 65.681 206.686 64.7493 206.424C63.8467 206.176 63.1115 205.936 62.5437 205.703C61.976 205.47 61.481 205.113 61.0588 204.633C60.6512 204.153 60.4474 203.519 60.4474 202.733C60.4474 202.093 60.6366 201.51 61.0152 200.986C61.3937 200.448 61.9323 200.025 62.6311 199.72C63.3444 199.414 64.1597 199.261 65.0768 199.261C66.4453 199.261 67.5444 199.61 68.3742 200.309C69.2186 200.994 69.6699 201.932 69.7281 203.126H67.2387C67.195 202.588 66.9767 202.158 66.5836 201.838C66.1905 201.518 65.6592 201.357 64.9895 201.357C64.3344 201.357 63.8321 201.481 63.4827 201.729C63.1333 201.976 62.9587 202.304 62.9587 202.711C62.9587 203.032 63.0751 203.301 63.308 203.519C63.541 203.738 63.8249 203.912 64.1597 204.043C64.4945 204.16 64.9895 204.313 65.6446 204.502C66.5181 204.735 67.2314 204.975 67.7846 205.223C68.3524 205.456 68.8401 205.805 69.2477 206.271C69.6553 206.737 69.8664 207.355 69.881 208.127C69.881 208.811 69.6917 209.423 69.3132 209.961C68.9347 210.5 68.3961 210.922 67.6973 211.228C67.0131 211.534 66.2051 211.686 65.2734 211.686ZM83.5986 205.179C83.5986 205.63 83.5695 206.038 83.5112 206.402H74.3178C74.3906 207.363 74.7473 208.134 75.3878 208.717C76.0284 209.299 76.8145 209.59 77.7462 209.59C79.0856 209.59 80.0319 209.03 80.5851 207.909H83.271C82.9071 209.015 82.2447 209.925 81.2838 210.638C80.3376 211.337 79.1584 211.686 77.7462 211.686C76.5962 211.686 75.5625 211.432 74.6454 210.922C73.7428 210.398 73.0294 209.67 72.5054 208.738C71.9958 207.792 71.7411 206.7 71.7411 205.463C71.7411 204.225 71.9886 203.141 72.4835 202.209C72.9931 201.263 73.6991 200.535 74.6017 200.025C75.5189 199.516 76.567 199.261 77.7462 199.261C78.8818 199.261 79.8936 199.509 80.7816 200.004C81.6696 200.499 82.3611 201.197 82.8561 202.1C83.3511 202.988 83.5986 204.014 83.5986 205.179ZM81 204.393C80.9854 203.476 80.6579 202.74 80.0173 202.187C79.3767 201.634 78.5833 201.357 77.6371 201.357C76.7781 201.357 76.043 201.634 75.4315 202.187C74.8201 202.726 74.4561 203.461 74.3397 204.393H81ZM88.5378 201.205C88.9018 200.593 89.3822 200.12 89.9791 199.785C90.5905 199.436 91.3111 199.261 92.1409 199.261V201.838H91.5077C90.5323 201.838 89.7898 202.085 89.2803 202.58C88.7853 203.075 88.5378 203.934 88.5378 205.157V211.49H86.0484V199.458H88.5378V201.205ZM97.3336 201.488V208.149C97.3336 208.6 97.4355 208.928 97.6393 209.131C97.8576 209.321 98.2216 209.415 98.7311 209.415H100.26V211.49H98.2944C97.1734 211.49 96.3145 211.228 95.7176 210.704C95.1207 210.18 94.8223 209.328 94.8223 208.149V201.488H93.4029V199.458H94.8223V196.466H97.3336V199.458H100.26V201.488H97.3336ZM112.594 211.686C111.648 211.686 110.796 211.519 110.039 211.184C109.297 210.835 108.707 210.369 108.27 209.787C107.834 209.19 107.601 208.527 107.572 207.799H110.148C110.192 208.309 110.432 208.738 110.869 209.088C111.32 209.423 111.881 209.59 112.55 209.59C113.249 209.59 113.788 209.459 114.166 209.197C114.559 208.92 114.756 208.571 114.756 208.149C114.756 207.697 114.538 207.363 114.101 207.144C113.679 206.926 113.002 206.686 112.07 206.424C111.167 206.176 110.432 205.936 109.864 205.703C109.297 205.47 108.802 205.113 108.38 204.633C107.972 204.153 107.768 203.519 107.768 202.733C107.768 202.093 107.957 201.51 108.336 200.986C108.714 200.448 109.253 200.025 109.952 199.72C110.665 199.414 111.48 199.261 112.398 199.261C113.766 199.261 114.865 199.61 115.695 200.309C116.539 200.994 116.991 201.932 117.049 203.126H114.559C114.516 202.588 114.297 202.158 113.904 201.838C113.511 201.518 112.98 201.357 112.31 201.357C111.655 201.357 111.153 201.481 110.803 201.729C110.454 201.976 110.279 202.304 110.279 202.711C110.279 203.032 110.396 203.301 110.629 203.519C110.862 203.738 111.146 203.912 111.48 204.043C111.815 204.16 112.31 204.313 112.965 204.502C113.839 204.735 114.552 204.975 115.105 205.223C115.673 205.456 116.161 205.805 116.568 206.271C116.976 206.737 117.187 207.355 117.202 208.127C117.202 208.811 117.012 209.423 116.634 209.961C116.255 210.5 115.717 210.922 115.018 211.228C114.334 211.534 113.526 211.686 112.594 211.686ZM125.111 211.686C123.975 211.686 122.949 211.432 122.032 210.922C121.114 210.398 120.394 209.67 119.87 208.738C119.346 207.792 119.084 206.7 119.084 205.463C119.084 204.24 119.353 203.155 119.892 202.209C120.43 201.263 121.165 200.535 122.097 200.025C123.029 199.516 124.07 199.261 125.22 199.261C126.37 199.261 127.411 199.516 128.342 200.025C129.274 200.535 130.009 201.263 130.548 202.209C131.087 203.155 131.356 204.24 131.356 205.463C131.356 206.686 131.079 207.77 130.526 208.717C129.973 209.663 129.216 210.398 128.255 210.922C127.309 211.432 126.261 211.686 125.111 211.686ZM125.111 209.525C125.751 209.525 126.348 209.372 126.901 209.066C127.469 208.76 127.928 208.302 128.277 207.69C128.626 207.079 128.801 206.336 128.801 205.463C128.801 204.589 128.634 203.854 128.299 203.257C127.964 202.646 127.52 202.187 126.967 201.882C126.414 201.576 125.817 201.423 125.176 201.423C124.536 201.423 123.939 201.576 123.385 201.882C122.847 202.187 122.417 202.646 122.097 203.257C121.777 203.854 121.617 204.589 121.617 205.463C121.617 206.758 121.944 207.763 122.599 208.476C123.269 209.175 124.106 209.525 125.111 209.525ZM148.382 199.261C149.329 199.261 150.173 199.458 150.915 199.851C151.672 200.244 152.262 200.826 152.684 201.598C153.121 202.369 153.339 203.301 153.339 204.393V211.49H150.872V204.764C150.872 203.687 150.602 202.864 150.064 202.296C149.525 201.714 148.79 201.423 147.858 201.423C146.926 201.423 146.184 201.714 145.631 202.296C145.092 202.864 144.823 203.687 144.823 204.764V211.49H142.355V204.764C142.355 203.687 142.086 202.864 141.547 202.296C141.009 201.714 140.273 201.423 139.342 201.423C138.41 201.423 137.668 201.714 137.114 202.296C136.576 202.864 136.306 203.687 136.306 204.764V211.49H133.817V199.458H136.306V200.833C136.714 200.338 137.231 199.953 137.857 199.676C138.483 199.399 139.152 199.261 139.866 199.261C140.827 199.261 141.686 199.465 142.443 199.873C143.2 200.28 143.782 200.87 144.19 201.641C144.553 200.913 145.121 200.338 145.893 199.916C146.664 199.479 147.494 199.261 148.382 199.261ZM167.535 205.179C167.535 205.63 167.506 206.038 167.447 206.402H158.254C158.327 207.363 158.683 208.134 159.324 208.717C159.965 209.299 160.751 209.59 161.682 209.59C163.022 209.59 163.968 209.03 164.521 207.909H167.207C166.843 209.015 166.181 209.925 165.22 210.638C164.274 211.337 163.094 211.686 161.682 211.686C160.532 211.686 159.499 211.432 158.581 210.922C157.679 210.398 156.966 209.67 156.441 208.738C155.932 207.792 155.677 206.7 155.677 205.463C155.677 204.225 155.925 203.141 156.42 202.209C156.929 201.263 157.635 200.535 158.538 200.025C159.455 199.516 160.503 199.261 161.682 199.261C162.818 199.261 163.83 199.509 164.718 200.004C165.606 200.499 166.297 201.197 166.792 202.1C167.287 202.988 167.535 204.014 167.535 205.179ZM164.936 204.393C164.922 203.476 164.594 202.74 163.953 202.187C163.313 201.634 162.519 201.357 161.573 201.357C160.714 201.357 159.979 201.634 159.368 202.187C158.756 202.726 158.392 203.461 158.276 204.393H164.936ZM180.024 211.686C179.078 211.686 178.227 211.519 177.47 211.184C176.727 210.835 176.137 210.369 175.701 209.787C175.264 209.19 175.031 208.527 175.002 207.799H177.579C177.622 208.309 177.863 208.738 178.299 209.088C178.751 209.423 179.311 209.59 179.981 209.59C180.68 209.59 181.218 209.459 181.597 209.197C181.99 208.92 182.186 208.571 182.186 208.149C182.186 207.697 181.968 207.363 181.531 207.144C181.109 206.926 180.432 206.686 179.5 206.424C178.598 206.176 177.863 205.936 177.295 205.703C176.727 205.47 176.232 205.113 175.81 204.633C175.402 204.153 175.198 203.519 175.198 202.733C175.198 202.093 175.388 201.51 175.766 200.986C176.145 200.448 176.683 200.025 177.382 199.72C178.096 199.414 178.911 199.261 179.828 199.261C181.196 199.261 182.295 199.61 183.125 200.309C183.97 200.994 184.421 201.932 184.479 203.126H181.99C181.946 202.588 181.728 202.158 181.335 201.838C180.942 201.518 180.41 201.357 179.741 201.357C179.085 201.357 178.583 201.481 178.234 201.729C177.884 201.976 177.71 202.304 177.71 202.711C177.71 203.032 177.826 203.301 178.059 203.519C178.292 203.738 178.576 203.912 178.911 204.043C179.246 204.16 179.741 204.313 180.396 204.502C181.269 204.735 181.982 204.975 182.536 205.223C183.103 205.456 183.591 205.805 183.999 206.271C184.406 206.737 184.617 207.355 184.632 208.127C184.632 208.811 184.443 209.423 184.064 209.961C183.686 210.5 183.147 210.922 182.448 211.228C181.764 211.534 180.956 211.686 180.024 211.686ZM190.226 201.488V208.149C190.226 208.6 190.328 208.928 190.532 209.131C190.75 209.321 191.114 209.415 191.624 209.415H193.152V211.49H191.187C190.066 211.49 189.207 211.228 188.61 210.704C188.013 210.18 187.715 209.328 187.715 208.149V201.488H186.296V199.458H187.715V196.466H190.226V199.458H193.152V201.488H190.226ZM194.617 205.419C194.617 204.211 194.865 203.141 195.359 202.209C195.869 201.277 196.553 200.557 197.412 200.047C198.286 199.523 199.246 199.261 200.295 199.261C201.241 199.261 202.063 199.45 202.762 199.829C203.476 200.193 204.043 200.651 204.466 201.205V199.458H206.977V211.49H204.466V209.699C204.043 210.267 203.468 210.74 202.74 211.119C202.013 211.497 201.183 211.686 200.251 211.686C199.217 211.686 198.271 211.424 197.412 210.9C196.553 210.362 195.869 209.619 195.359 208.673C194.865 207.712 194.617 206.627 194.617 205.419ZM204.466 205.463C204.466 204.633 204.291 203.912 203.941 203.301C203.607 202.69 203.163 202.224 202.609 201.903C202.056 201.583 201.459 201.423 200.819 201.423C200.178 201.423 199.581 201.583 199.028 201.903C198.475 202.209 198.024 202.668 197.674 203.279C197.339 203.876 197.172 204.589 197.172 205.419C197.172 206.249 197.339 206.977 197.674 207.603C198.024 208.229 198.475 208.709 199.028 209.044C199.596 209.364 200.193 209.525 200.819 209.525C201.459 209.525 202.056 209.364 202.609 209.044C203.163 208.724 203.607 208.258 203.941 207.647C204.291 207.021 204.466 206.293 204.466 205.463ZM213.151 201.488V208.149C213.151 208.6 213.253 208.928 213.457 209.131C213.675 209.321 214.039 209.415 214.548 209.415H216.077V211.49H214.112C212.991 211.49 212.132 211.228 211.535 210.704C210.938 210.18 210.64 209.328 210.64 208.149V201.488H209.22V199.458H210.64V196.466H213.151V199.458H216.077V201.488H213.151ZM219.638 197.864C219.187 197.864 218.808 197.711 218.502 197.405C218.197 197.099 218.044 196.721 218.044 196.269C218.044 195.818 218.197 195.44 218.502 195.134C218.808 194.828 219.187 194.675 219.638 194.675C220.075 194.675 220.446 194.828 220.752 195.134C221.057 195.44 221.21 195.818 221.21 196.269C221.21 196.721 221.057 197.099 220.752 197.405C220.446 197.711 220.075 197.864 219.638 197.864ZM220.861 199.458V211.49H218.371V199.458H220.861ZM228.497 211.686C227.55 211.686 226.699 211.519 225.942 211.184C225.199 210.835 224.61 210.369 224.173 209.787C223.736 209.19 223.503 208.527 223.474 207.799H226.051C226.095 208.309 226.335 208.738 226.772 209.088C227.223 209.423 227.783 209.59 228.453 209.59C229.152 209.59 229.69 209.459 230.069 209.197C230.462 208.92 230.659 208.571 230.659 208.149C230.659 207.697 230.44 207.363 230.003 207.144C229.581 206.926 228.904 206.686 227.973 206.424C227.07 206.176 226.335 205.936 225.767 205.703C225.199 205.47 224.704 205.113 224.282 204.633C223.875 204.153 223.671 203.519 223.671 202.733C223.671 202.093 223.86 201.51 224.238 200.986C224.617 200.448 225.156 200.025 225.854 199.72C226.568 199.414 227.383 199.261 228.3 199.261C229.669 199.261 230.768 199.61 231.598 200.309C232.442 200.994 232.893 201.932 232.951 203.126H230.462C230.418 202.588 230.2 202.158 229.807 201.838C229.414 201.518 228.882 201.357 228.213 201.357C227.558 201.357 227.055 201.481 226.706 201.729C226.357 201.976 226.182 202.304 226.182 202.711C226.182 203.032 226.298 203.301 226.531 203.519C226.764 203.738 227.048 203.912 227.383 204.043C227.718 204.16 228.213 204.313 228.868 204.502C229.741 204.735 230.455 204.975 231.008 205.223C231.576 205.456 232.063 205.805 232.471 206.271C232.879 206.737 233.09 207.355 233.104 208.127C233.104 208.811 232.915 209.423 232.537 209.961C232.158 210.5 231.619 210.922 230.921 211.228C230.236 211.534 229.428 211.686 228.497 211.686ZM238.699 201.488V208.149C238.699 208.6 238.8 208.928 239.004 209.131C239.223 209.321 239.587 209.415 240.096 209.415H241.625V211.49H239.659C238.538 211.49 237.679 211.228 237.083 210.704C236.486 210.18 236.187 209.328 236.187 208.149V201.488H234.768V199.458H236.187V196.466H238.699V199.458H241.625V201.488H238.699ZM245.186 197.864C244.734 197.864 244.356 197.711 244.05 197.405C243.744 197.099 243.592 196.721 243.592 196.269C243.592 195.818 243.744 195.44 244.05 195.134C244.356 194.828 244.734 194.675 245.186 194.675C245.622 194.675 245.994 194.828 246.299 195.134C246.605 195.44 246.758 195.818 246.758 196.269C246.758 196.721 246.605 197.099 246.299 197.405C245.994 197.711 245.622 197.864 245.186 197.864ZM246.409 199.458V211.49H243.919V199.458H246.409ZM248.847 205.463C248.847 204.225 249.095 203.141 249.59 202.209C250.099 201.263 250.798 200.535 251.686 200.025C252.574 199.516 253.593 199.261 254.743 199.261C256.199 199.261 257.4 199.61 258.346 200.309C259.307 200.994 259.955 201.976 260.29 203.257H257.604C257.385 202.66 257.036 202.195 256.556 201.86C256.075 201.525 255.471 201.357 254.743 201.357C253.724 201.357 252.909 201.721 252.297 202.449C251.7 203.163 251.402 204.167 251.402 205.463C251.402 206.758 251.7 207.77 252.297 208.498C252.909 209.226 253.724 209.59 254.743 209.59C256.184 209.59 257.138 208.957 257.604 207.69H260.29C259.94 208.913 259.285 209.888 258.324 210.616C257.364 211.33 256.17 211.686 254.743 211.686C253.593 211.686 252.574 211.432 251.686 210.922C250.798 210.398 250.099 209.67 249.59 208.738C249.095 207.792 248.847 206.7 248.847 205.463ZM46.1859 244.686C45.0504 244.686 44.0241 244.432 43.1069 243.922C42.1898 243.398 41.4691 242.67 40.945 241.738C40.421 240.792 40.1589 239.7 40.1589 238.463C40.1589 237.24 40.4282 236.155 40.9669 235.209C41.5055 234.263 42.2407 233.535 43.1724 233.025C44.1041 232.516 45.145 232.261 46.2951 232.261C47.4452 232.261 48.4861 232.516 49.4178 233.025C50.3495 233.535 51.0847 234.263 51.6234 235.209C52.162 236.155 52.4313 237.24 52.4313 238.463C52.4313 239.686 52.1547 240.77 51.6015 241.717C51.0483 242.663 50.2913 243.398 49.3305 243.922C48.3842 244.432 47.336 244.686 46.1859 244.686ZM46.1859 242.525C46.8265 242.525 47.4234 242.372 47.9766 242.066C48.5443 241.76 49.0029 241.302 49.3523 240.69C49.7017 240.079 49.8764 239.336 49.8764 238.463C49.8764 237.589 49.709 236.854 49.3741 236.257C49.0393 235.646 48.5953 235.187 48.0421 234.882C47.4889 234.576 46.892 234.423 46.2514 234.423C45.6109 234.423 45.014 234.576 44.4608 234.882C43.9222 235.187 43.4927 235.646 43.1724 236.257C42.8521 236.854 42.692 237.589 42.692 238.463C42.692 239.758 43.0196 240.763 43.6747 241.476C44.3443 242.175 45.1814 242.525 46.1859 242.525ZM57.3817 234.205C57.7456 233.593 58.226 233.12 58.8229 232.785C59.4344 232.436 60.155 232.261 60.9848 232.261V234.838H60.3515C59.3761 234.838 58.6337 235.085 58.1241 235.58C57.6292 236.075 57.3817 236.934 57.3817 238.157V244.49H54.8923V232.458H57.3817V234.205ZM83.5109 232.261C84.4572 232.261 85.3015 232.458 86.044 232.851C86.801 233.244 87.3906 233.826 87.8128 234.598C88.2495 235.369 88.4679 236.301 88.4679 237.393V244.49H86.0003V237.764C86.0003 236.687 85.731 235.864 85.1923 235.296C84.6537 234.714 83.9185 234.423 82.9868 234.423C82.0551 234.423 81.3126 234.714 80.7594 235.296C80.2208 235.864 79.9514 236.687 79.9514 237.764V244.49H77.4839V237.764C77.4839 236.687 77.2145 235.864 76.6759 235.296C76.1372 234.714 75.4021 234.423 74.4704 234.423C73.5386 234.423 72.7962 234.714 72.243 235.296C71.7043 235.864 71.435 236.687 71.435 237.764V244.49H68.9456V232.458H71.435V233.833C71.8426 233.338 72.3594 232.953 72.9854 232.676C73.6114 232.399 74.2811 232.261 74.9944 232.261C75.9553 232.261 76.8142 232.465 77.5712 232.873C78.3282 233.28 78.9105 233.87 79.3182 234.641C79.6821 233.913 80.2499 233.338 81.0215 232.916C81.793 232.479 82.6228 232.261 83.5109 232.261ZM102.663 238.179C102.663 238.63 102.634 239.038 102.576 239.402H93.3826C93.4554 240.363 93.8121 241.134 94.4526 241.717C95.0932 242.299 95.8793 242.59 96.811 242.59C98.1503 242.59 99.0966 242.03 99.6498 240.909H102.336C101.972 242.015 101.309 242.925 100.349 243.638C99.4023 244.337 98.2231 244.686 96.811 244.686C95.6609 244.686 94.6273 244.432 93.7101 243.922C92.8075 243.398 92.0942 242.67 91.5701 241.738C91.0606 240.792 90.8058 239.7 90.8058 238.463C90.8058 237.225 91.0533 236.141 91.5483 235.209C92.0578 234.263 92.7639 233.535 93.6665 233.025C94.5836 232.516 95.6318 232.261 96.811 232.261C97.9465 232.261 98.9583 232.509 99.8464 233.004C100.734 233.499 101.426 234.197 101.921 235.1C102.416 235.988 102.663 237.014 102.663 238.179ZM100.065 237.393C100.05 236.476 99.7226 235.74 99.0821 235.187C98.4415 234.634 97.6481 234.357 96.7018 234.357C95.8429 234.357 95.1077 234.634 94.4963 235.187C93.8848 235.726 93.5209 236.461 93.4044 237.393H100.065ZM108.017 234.488V241.149C108.017 241.6 108.119 241.928 108.323 242.131C108.542 242.321 108.906 242.415 109.415 242.415H110.944V244.49H108.978C107.857 244.49 106.998 244.228 106.402 243.704C105.805 243.18 105.506 242.328 105.506 241.149V234.488H104.087V232.458H105.506V229.466H108.017V232.458H110.944V234.488H108.017ZM115.728 234.205C116.091 233.593 116.572 233.12 117.169 232.785C117.78 232.436 118.501 232.261 119.331 232.261V234.838H118.697C117.722 234.838 116.98 235.085 116.47 235.58C115.975 236.075 115.728 236.934 115.728 238.157V244.49H113.238V232.458H115.728V234.205ZM122.885 230.864C122.434 230.864 122.056 230.711 121.75 230.405C121.444 230.099 121.291 229.721 121.291 229.269C121.291 228.818 121.444 228.44 121.75 228.134C122.056 227.828 122.434 227.675 122.885 227.675C123.322 227.675 123.693 227.828 123.999 228.134C124.305 228.44 124.458 228.818 124.458 229.269C124.458 229.721 124.305 230.099 123.999 230.405C123.693 230.711 123.322 230.864 122.885 230.864ZM124.108 232.458V244.49H121.619V232.458H124.108ZM126.547 238.463C126.547 237.225 126.794 236.141 127.289 235.209C127.799 234.263 128.498 233.535 129.386 233.025C130.274 232.516 131.293 232.261 132.443 232.261C133.899 232.261 135.1 232.61 136.046 233.309C137.007 233.994 137.655 234.976 137.99 236.257H135.304C135.085 235.66 134.736 235.195 134.255 234.86C133.775 234.525 133.171 234.357 132.443 234.357C131.424 234.357 130.609 234.721 129.997 235.449C129.4 236.163 129.102 237.167 129.102 238.463C129.102 239.758 129.4 240.77 129.997 241.498C130.609 242.226 131.424 242.59 132.443 242.59C133.884 242.59 134.838 241.957 135.304 240.69H137.99C137.64 241.913 136.985 242.888 136.024 243.616C135.063 244.33 133.87 244.686 132.443 244.686C131.293 244.686 130.274 244.432 129.386 243.922C128.498 243.398 127.799 242.67 127.289 241.738C126.794 240.792 126.547 239.7 126.547 238.463ZM152.214 232.261C153.16 232.261 154.004 232.458 154.747 232.851C155.504 233.244 156.093 233.826 156.516 234.598C156.938 235.369 157.149 236.301 157.149 237.393V244.49H154.681V237.764C154.681 236.687 154.412 235.864 153.873 235.296C153.335 234.714 152.599 234.423 151.668 234.423C150.736 234.423 149.994 234.714 149.44 235.296C148.902 235.864 148.632 236.687 148.632 237.764V244.49H146.143V232.458H148.632V233.833C149.04 233.338 149.557 232.953 150.183 232.676C150.823 232.399 151.5 232.261 152.214 232.261ZM159.494 238.419C159.494 237.211 159.742 236.141 160.237 235.209C160.746 234.277 161.431 233.557 162.29 233.047C163.163 232.523 164.124 232.261 165.172 232.261C166.118 232.261 166.941 232.45 167.64 232.829C168.353 233.193 168.921 233.651 169.343 234.205V232.458H171.854V244.49H169.343V242.699C168.921 243.267 168.346 243.74 167.618 244.119C166.89 244.497 166.06 244.686 165.128 244.686C164.095 244.686 163.148 244.424 162.29 243.9C161.431 243.362 160.746 242.619 160.237 241.673C159.742 240.712 159.494 239.627 159.494 238.419ZM169.343 238.463C169.343 237.633 169.168 236.912 168.819 236.301C168.484 235.69 168.04 235.224 167.487 234.903C166.934 234.583 166.337 234.423 165.696 234.423C165.056 234.423 164.459 234.583 163.905 234.903C163.352 235.209 162.901 235.668 162.552 236.279C162.217 236.876 162.049 237.589 162.049 238.419C162.049 239.249 162.217 239.977 162.552 240.603C162.901 241.229 163.352 241.709 163.905 242.044C164.473 242.364 165.07 242.525 165.696 242.525C166.337 242.525 166.934 242.364 167.487 242.044C168.04 241.724 168.484 241.258 168.819 240.647C169.168 240.021 169.343 239.293 169.343 238.463ZM189.689 232.261C190.635 232.261 191.48 232.458 192.222 232.851C192.979 233.244 193.569 233.826 193.991 234.598C194.428 235.369 194.646 236.301 194.646 237.393V244.49H192.179V237.764C192.179 236.687 191.909 235.864 191.371 235.296C190.832 234.714 190.097 234.423 189.165 234.423C188.233 234.423 187.491 234.714 186.938 235.296C186.399 235.864 186.13 236.687 186.13 237.764V244.49H183.662V237.764C183.662 236.687 183.393 235.864 182.854 235.296C182.316 234.714 181.58 234.423 180.649 234.423C179.717 234.423 178.975 234.714 178.421 235.296C177.883 235.864 177.613 236.687 177.613 237.764V244.49H175.124V232.458H177.613V233.833C178.021 233.338 178.538 232.953 179.164 232.676C179.79 232.399 180.459 232.261 181.173 232.261C182.134 232.261 182.993 232.465 183.75 232.873C184.507 233.28 185.089 233.87 185.496 234.641C185.86 233.913 186.428 233.338 187.2 232.916C187.971 232.479 188.801 232.261 189.689 232.261ZM208.842 238.179C208.842 238.63 208.813 239.038 208.754 239.402H199.561C199.634 240.363 199.99 241.134 200.631 241.717C201.271 242.299 202.058 242.59 202.989 242.59C204.329 242.59 205.275 242.03 205.828 240.909H208.514C208.15 242.015 207.488 242.925 206.527 243.638C205.581 244.337 204.401 244.686 202.989 244.686C201.839 244.686 200.806 244.432 199.888 243.922C198.986 243.398 198.273 242.67 197.748 241.738C197.239 240.792 196.984 239.7 196.984 238.463C196.984 237.225 197.232 236.141 197.727 235.209C198.236 234.263 198.942 233.535 199.845 233.025C200.762 232.516 201.81 232.261 202.989 232.261C204.125 232.261 205.137 232.509 206.025 233.004C206.913 233.499 207.604 234.197 208.099 235.1C208.594 235.988 208.842 237.014 208.842 238.179ZM206.243 237.393C206.228 236.476 205.901 235.74 205.26 235.187C204.62 234.634 203.826 234.357 202.88 234.357C202.021 234.357 201.286 234.634 200.675 235.187C200.063 235.726 199.699 236.461 199.583 237.393H206.243Z" fill="white" fill-opacity="0.66"/>
<rect x="404.417" y="31.8889" width="94.8546" height="53.2278" rx="26.6139" fill="url(#paint16_radial_39_122)"/>
<rect x="405.099" y="32.5713" width="93.4898" height="51.863" rx="25.9315" stroke="url(#paint17_linear_39_122)" stroke-opacity="0.3" stroke-width="1.36481"/>
<path d="M428.621 66.9524V53.5308H431.66V66.9524H428.621ZM423.436 61.7677V58.7155H436.844V61.7677H423.436ZM447.893 48.2661V68.1252H444.321V51.7715H444.202L439.563 54.7437V51.4383L444.495 48.2661H447.893ZM458.396 48.2661V68.1252H454.824V51.7715H454.704L450.066 54.7437V51.4383L454.997 48.2661H458.396ZM471.711 64.3933V63.3537C471.711 62.5807 471.871 61.8698 472.191 61.2212C472.511 60.5726 472.986 60.0528 473.617 59.6618C474.248 59.2708 475.012 59.0753 475.909 59.0753C476.825 59.0753 477.593 59.2708 478.215 59.6618C478.837 60.0528 479.304 60.5726 479.615 61.2212C479.935 61.861 480.095 62.5718 480.095 63.3537V64.3933C480.095 65.1664 479.935 65.8772 479.615 66.5259C479.295 67.1745 478.824 67.6943 478.202 68.0853C477.58 68.4762 476.816 68.6717 475.909 68.6717C475.003 68.6717 474.235 68.4762 473.604 68.0853C472.973 67.6943 472.497 67.1745 472.178 66.5259C471.867 65.8772 471.711 65.1664 471.711 64.3933ZM474.23 63.3537V64.3933C474.23 64.9087 474.354 65.3796 474.603 65.8061C474.852 66.2326 475.287 66.4459 475.909 66.4459C476.523 66.4459 476.949 66.2326 477.189 65.8061C477.429 65.3796 477.549 64.9087 477.549 64.3933V63.3537C477.549 62.8384 477.433 62.3674 477.202 61.9409C476.98 61.5144 476.549 61.3012 475.909 61.3012C475.296 61.3012 474.861 61.5144 474.603 61.9409C474.354 62.3674 474.23 62.8384 474.23 63.3537ZM461.622 53.0376V51.998C461.622 51.2161 461.786 50.5053 462.115 49.8655C462.443 49.2169 462.919 48.6971 463.541 48.3061C464.163 47.9151 464.918 47.7197 465.807 47.7197C466.731 47.7197 467.504 47.9151 468.126 48.3061C468.748 48.6971 469.219 49.2169 469.539 49.8655C469.858 50.5053 470.014 51.2161 470.005 51.998V53.0376C470.014 53.8107 469.854 54.5215 469.525 55.1702C469.196 55.8188 468.721 56.3386 468.099 56.7296C467.477 57.1117 466.713 57.3027 465.807 57.3027C464.9 57.3027 464.136 57.1072 463.514 56.7162C462.892 56.3253 462.421 55.8055 462.101 55.1568C461.781 54.5082 461.622 53.8018 461.622 53.0376ZM464.167 51.998V53.0376C464.167 53.553 464.287 54.0239 464.527 54.4504C464.767 54.8769 465.194 55.0858 465.807 55.0769C466.437 55.0858 466.868 54.8769 467.099 54.4504C467.339 54.0239 467.459 53.553 467.459 53.0376V51.998C467.459 51.4827 467.344 51.0117 467.113 50.5852C466.891 50.1499 466.455 49.9322 465.807 49.9322C465.202 49.9322 464.776 50.1499 464.527 50.5852C464.287 51.0206 464.167 51.4916 464.167 51.998ZM462.714 68.1252L476.363 48.2661H478.802L465.154 68.1252H462.714Z" fill="#222222"/>
<defs>
<linearGradient id="paint0_linear_39_122" x1="0.749023" y1="221.434" x2="526.203" y2="221.434" gradientUnits="userSpaceOnUse">
<stop stop-color="#CC2B5E"/>
<stop offset="1" stop-color="#753A88"/>
</linearGradient>
<linearGradient id="paint1_linear_39_122" x1="0.749023" y1="16.8903" x2="594.381" y2="200.74" gradientUnits="userSpaceOnUse">
<stop stop-color="#7A3A86"/>
<stop offset="0.325893" stop-color="#90357B"/>
<stop offset="0.695684" stop-color="#B22F6B"/>
<stop offset="1" stop-color="#C52C60"/>
</linearGradient>
<linearGradient id="paint2_linear_39_122" x1="63.2939" y1="324.076" x2="63.2939" y2="398.888" gradientUnits="userSpaceOnUse">
<stop stop-color="white"/>
<stop offset="1" stop-color="white" stop-opacity="0"/>
</linearGradient>
<linearGradient id="paint3_linear_39_122" x1="63.2939" y1="324.076" x2="63.2939" y2="398.888" gradientUnits="userSpaceOnUse">
<stop stop-color="white"/>
<stop offset="1" stop-color="white" stop-opacity="0.07"/>
</linearGradient>
<linearGradient id="paint4_linear_39_122" x1="130.58" y1="329.42" x2="130.58" y2="398.888" gradientUnits="userSpaceOnUse">
<stop stop-color="white"/>
<stop offset="1" stop-color="white" stop-opacity="0"/>
</linearGradient>
<linearGradient id="paint5_linear_39_122" x1="130.58" y1="329.42" x2="130.58" y2="398.888" gradientUnits="userSpaceOnUse">
<stop stop-color="white"/>
<stop offset="1" stop-color="white" stop-opacity="0.07"/>
</linearGradient>
<linearGradient id="paint6_linear_39_122" x1="197.865" y1="313.388" x2="197.865" y2="398.888" gradientUnits="userSpaceOnUse">
<stop stop-color="white"/>
<stop offset="1" stop-color="white" stop-opacity="0"/>
</linearGradient>
<linearGradient id="paint7_linear_39_122" x1="197.865" y1="313.388" x2="197.865" y2="398.888" gradientUnits="userSpaceOnUse">
<stop stop-color="white"/>
<stop offset="1" stop-color="white" stop-opacity="0.07"/>
</linearGradient>
<linearGradient id="paint8_linear_39_122" x1="265.151" y1="280.135" x2="265.151" y2="398.888" gradientUnits="userSpaceOnUse">
<stop stop-color="white"/>
<stop offset="1" stop-color="white" stop-opacity="0"/>
</linearGradient>
<linearGradient id="paint9_linear_39_122" x1="265.151" y1="280.135" x2="265.151" y2="398.888" gradientUnits="userSpaceOnUse">
<stop stop-color="white"/>
<stop offset="1" stop-color="white" stop-opacity="0.07"/>
</linearGradient>
<linearGradient id="paint10_linear_39_122" x1="332.437" y1="270.041" x2="332.437" y2="398.888" gradientUnits="userSpaceOnUse">
<stop stop-color="white"/>
<stop offset="1" stop-color="white" stop-opacity="0"/>
</linearGradient>
<linearGradient id="paint11_linear_39_122" x1="332.437" y1="270.041" x2="332.437" y2="398.888" gradientUnits="userSpaceOnUse">
<stop stop-color="white"/>
<stop offset="1" stop-color="white" stop-opacity="0.07"/>
</linearGradient>
<linearGradient id="paint12_linear_39_122" x1="399.723" y1="236.194" x2="399.723" y2="398.888" gradientUnits="userSpaceOnUse">
<stop stop-color="white"/>
<stop offset="1" stop-color="white" stop-opacity="0"/>
</linearGradient>
<linearGradient id="paint13_linear_39_122" x1="399.723" y1="236.194" x2="399.723" y2="398.888" gradientUnits="userSpaceOnUse">
<stop stop-color="white"/>
<stop offset="1" stop-color="white" stop-opacity="0.07"/>
</linearGradient>
<linearGradient id="paint14_linear_39_122" x1="467.008" y1="194.628" x2="467.008" y2="398.888" gradientUnits="userSpaceOnUse">
<stop stop-color="white"/>
<stop offset="1" stop-color="white" stop-opacity="0"/>
</linearGradient>
<linearGradient id="paint15_linear_39_122" x1="467.008" y1="194.628" x2="467.008" y2="398.888" gradientUnits="userSpaceOnUse">
<stop stop-color="white"/>
<stop offset="1" stop-color="white" stop-opacity="0.07"/>
</linearGradient>
<radialGradient id="paint16_radial_39_122" cx="0" cy="0" r="1" gradientUnits="userSpaceOnUse" gradientTransform="translate(409.834 8.39927) rotate(41.4119) scale(108.896 119.879)">
<stop stop-color="white"/>
<stop offset="1" stop-color="white" stop-opacity="0.27"/>
</radialGradient>
<linearGradient id="paint17_linear_39_122" x1="404.417" y1="33.8438" x2="501.071" y2="78.6668" gradientUnits="userSpaceOnUse">
<stop stop-color="#222222"/>
<stop offset="0.325893" stop-color="#222222" stop-opacity="0.256139"/>
<stop offset="0.695684" stop-color="#222222" stop-opacity="0.735087"/>
<stop offset="1" stop-color="#222222" stop-opacity="0.07"/>
</linearGradient>
</defs>
</svg>
