<svg width="759" height="639" viewBox="0 0 759 639" fill="none" xmlns="http://www.w3.org/2000/svg">
<rect x="233.431" y="197.353" width="524.089" height="440.153" rx="33.438" fill="url(#paint0_linear_1109_2478)" stroke="url(#paint1_linear_1109_2478)" stroke-width="1.36481"/>
<ellipse cx="150.656" cy="149.179" rx="150.656" ry="149.179" transform="matrix(-0.558653 -0.829402 -0.829402 0.558653 415.787 249.904)" fill="url(#paint2_linear_1109_2478)"/>
<path d="M277.933 509.864C276.492 509.864 275.258 509.506 274.231 508.789C273.212 508.065 272.432 507.026 271.891 505.672C271.349 504.311 271.079 502.667 271.079 500.741C271.079 498.814 271.349 497.17 271.891 495.809C272.432 494.439 273.212 493.396 274.231 492.68C275.258 491.956 276.492 491.593 277.933 491.593C279.366 491.593 280.596 491.956 281.623 492.68C282.65 493.404 283.434 494.447 283.975 495.809C284.517 497.17 284.787 498.814 284.787 500.741C284.787 502.667 284.517 504.311 283.975 505.672C283.434 507.026 282.654 508.065 281.635 508.789C280.616 509.506 279.382 509.864 277.933 509.864ZM277.933 507.165C278.705 507.165 279.358 506.914 279.891 506.413C280.433 505.911 280.843 505.183 281.121 504.227C281.408 503.264 281.551 502.102 281.551 500.741C281.551 499.371 281.408 498.205 281.121 497.242C280.843 496.278 280.433 495.546 279.891 495.044C279.358 494.535 278.705 494.28 277.933 494.28C276.771 494.28 275.875 494.845 275.246 495.976C274.625 497.098 274.315 498.687 274.315 500.741C274.315 502.102 274.454 503.264 274.733 504.227C275.011 505.183 275.421 505.911 275.963 506.413C276.504 506.914 277.161 507.165 277.933 507.165ZM295.294 509.864C293.853 509.864 292.619 509.506 291.592 508.789C290.573 508.065 289.793 507.026 289.252 505.672C288.71 504.311 288.44 502.667 288.44 500.741C288.44 498.814 288.71 497.17 289.252 495.809C289.793 494.439 290.573 493.396 291.592 492.68C292.619 491.956 293.853 491.593 295.294 491.593C296.727 491.593 297.957 491.956 298.984 492.68C300.011 493.404 300.795 494.447 301.336 495.809C301.878 497.17 302.148 498.814 302.148 500.741C302.148 502.667 301.878 504.311 301.336 505.672C300.795 507.026 300.015 508.065 298.996 508.789C297.977 509.506 296.743 509.864 295.294 509.864ZM295.294 507.165C296.066 507.165 296.719 506.914 297.252 506.413C297.794 505.911 298.204 505.183 298.482 504.227C298.769 503.264 298.912 502.102 298.912 500.741C298.912 499.371 298.769 498.205 298.482 497.242C298.204 496.278 297.794 495.546 297.252 495.044C296.719 494.535 296.066 494.28 295.294 494.28C294.132 494.28 293.236 494.845 292.607 495.976C291.986 497.098 291.676 498.687 291.676 500.741C291.676 502.102 291.815 503.264 292.094 504.227C292.372 505.183 292.782 505.911 293.324 506.413C293.865 506.914 294.522 507.165 295.294 507.165ZM312.655 509.864C311.214 509.864 309.98 509.506 308.953 508.789C307.934 508.065 307.154 507.026 306.613 505.672C306.071 504.311 305.801 502.667 305.801 500.741C305.801 498.814 306.071 497.17 306.613 495.809C307.154 494.439 307.934 493.396 308.953 492.68C309.98 491.956 311.214 491.593 312.655 491.593C314.088 491.593 315.318 491.956 316.345 492.68C317.372 493.404 318.156 494.447 318.698 495.809C319.239 497.17 319.51 498.814 319.51 500.741C319.51 502.667 319.239 504.311 318.698 505.672C318.156 507.026 317.376 508.065 316.357 508.789C315.338 509.506 314.104 509.864 312.655 509.864ZM312.655 507.165C313.427 507.165 314.08 506.914 314.614 506.413C315.155 505.911 315.565 505.183 315.844 504.227C316.13 503.264 316.273 502.102 316.273 500.741C316.273 499.371 316.13 498.205 315.844 497.242C315.565 496.278 315.155 495.546 314.614 495.044C314.08 494.535 313.427 494.28 312.655 494.28C311.493 494.28 310.597 494.845 309.968 495.976C309.347 497.098 309.037 498.687 309.037 500.741C309.037 502.102 309.176 503.264 309.455 504.227C309.733 505.183 310.143 505.911 310.685 506.413C311.226 506.914 311.883 507.165 312.655 507.165Z" fill="white"/>
<path d="M277.777 526.01C277.777 522.895 280.303 520.369 283.418 520.369H307.17C310.286 520.369 312.811 522.895 312.811 526.01V594.587H277.777V526.01Z" fill="url(#paint3_linear_1109_2478)" fill-opacity="0.25" stroke="url(#paint4_linear_1109_2478)" stroke-width="0.593799"/>
<path d="M345.219 515.208C343.778 515.208 342.544 514.85 341.517 514.133C340.498 513.409 339.718 512.37 339.176 511.017C338.635 509.655 338.364 508.011 338.364 506.085C338.364 504.158 338.635 502.514 339.176 501.153C339.718 499.784 340.498 498.741 341.517 498.024C342.544 497.3 343.778 496.938 345.219 496.938C346.652 496.938 347.882 497.3 348.909 498.024C349.936 498.749 350.72 499.792 351.261 501.153C351.803 502.514 352.073 504.158 352.073 506.085C352.073 508.011 351.803 509.655 351.261 511.017C350.72 512.37 349.94 513.409 348.921 514.133C347.902 514.85 346.668 515.208 345.219 515.208ZM345.219 512.509C345.991 512.509 346.644 512.259 347.177 511.757C347.718 511.255 348.128 510.527 348.407 509.572C348.694 508.608 348.837 507.446 348.837 506.085C348.837 504.715 348.694 503.549 348.407 502.586C348.128 501.623 347.718 500.89 347.177 500.389C346.644 499.879 345.991 499.624 345.219 499.624C344.056 499.624 343.161 500.19 342.532 501.32C341.911 502.443 341.6 504.031 341.6 506.085C341.6 507.446 341.74 508.608 342.018 509.572C342.297 510.527 342.707 511.255 343.248 511.757C343.79 512.259 344.447 512.509 345.219 512.509ZM362.58 515.208C361.139 515.208 359.905 514.85 358.878 514.133C357.859 513.409 357.079 512.37 356.537 511.017C355.996 509.655 355.725 508.011 355.725 506.085C355.725 504.158 355.996 502.514 356.537 501.153C357.079 499.784 357.859 498.741 358.878 498.024C359.905 497.3 361.139 496.938 362.58 496.938C364.013 496.938 365.243 497.3 366.27 498.024C367.297 498.749 368.081 499.792 368.622 501.153C369.164 502.514 369.434 504.158 369.434 506.085C369.434 508.011 369.164 509.655 368.622 511.017C368.081 512.37 367.301 513.409 366.282 514.133C365.263 514.85 364.029 515.208 362.58 515.208ZM362.58 512.509C363.352 512.509 364.005 512.259 364.538 511.757C365.08 511.255 365.49 510.527 365.768 509.572C366.055 508.608 366.198 507.446 366.198 506.085C366.198 504.715 366.055 503.549 365.768 502.586C365.49 501.623 365.08 500.89 364.538 500.389C364.005 499.879 363.352 499.624 362.58 499.624C361.418 499.624 360.522 500.19 359.893 501.32C359.272 502.443 358.962 504.031 358.962 506.085C358.962 507.446 359.101 508.608 359.379 509.572C359.658 510.527 360.068 511.255 360.609 511.757C361.151 512.259 361.808 512.509 362.58 512.509ZM379.941 515.208C378.5 515.208 377.266 514.85 376.239 514.133C375.22 513.409 374.44 512.37 373.898 511.017C373.357 509.655 373.086 508.011 373.086 506.085C373.086 504.158 373.357 502.514 373.898 501.153C374.44 499.784 375.22 498.741 376.239 498.024C377.266 497.3 378.5 496.938 379.941 496.938C381.374 496.938 382.604 497.3 383.631 498.024C384.658 498.749 385.442 499.792 385.983 501.153C386.525 502.514 386.795 504.158 386.795 506.085C386.795 508.011 386.525 509.655 385.983 511.017C385.442 512.37 384.662 513.409 383.643 514.133C382.624 514.85 381.39 515.208 379.941 515.208ZM379.941 512.509C380.713 512.509 381.366 512.259 381.899 511.757C382.441 511.255 382.851 510.527 383.129 509.572C383.416 508.608 383.559 507.446 383.559 506.085C383.559 504.715 383.416 503.549 383.129 502.586C382.851 501.623 382.441 500.89 381.899 500.389C381.366 499.879 380.713 499.624 379.941 499.624C378.779 499.624 377.883 500.19 377.254 501.32C376.633 502.443 376.323 504.031 376.323 506.085C376.323 507.446 376.462 508.608 376.741 509.572C377.019 510.527 377.429 511.255 377.971 511.757C378.512 512.259 379.169 512.509 379.941 512.509Z" fill="white"/>
<path d="M345.063 531.354C345.063 528.239 347.588 525.713 350.704 525.713H374.456C377.571 525.713 380.097 528.239 380.097 531.354V594.587H345.063V531.354Z" fill="url(#paint5_linear_1109_2478)" fill-opacity="0.25" stroke="url(#paint6_linear_1109_2478)" stroke-width="0.593799"/>
<path d="M412.504 499.175C411.063 499.175 409.83 498.817 408.803 498.101C407.784 497.376 407.003 496.337 406.462 494.984C405.921 493.623 405.65 491.979 405.65 490.052C405.65 488.125 405.921 486.482 406.462 485.12C407.003 483.751 407.784 482.708 408.803 481.991C409.83 481.267 411.063 480.905 412.504 480.905C413.937 480.905 415.167 481.267 416.194 481.991C417.221 482.716 418.006 483.759 418.547 485.12C419.088 486.482 419.359 488.125 419.359 490.052C419.359 491.979 419.088 493.623 418.547 494.984C418.006 496.337 417.225 497.376 416.206 498.101C415.187 498.817 413.953 499.175 412.504 499.175ZM412.504 496.477C413.277 496.477 413.929 496.226 414.463 495.724C415.004 495.223 415.414 494.494 415.693 493.539C415.979 492.576 416.123 491.413 416.123 490.052C416.123 488.683 415.979 487.516 415.693 486.553C415.414 485.59 415.004 484.857 414.463 484.356C413.929 483.846 413.277 483.592 412.504 483.592C411.342 483.592 410.447 484.157 409.818 485.287C409.197 486.41 408.886 487.998 408.886 490.052C408.886 491.413 409.025 492.576 409.304 493.539C409.583 494.494 409.993 495.223 410.534 495.724C411.075 496.226 411.732 496.477 412.504 496.477ZM429.866 499.175C428.425 499.175 427.191 498.817 426.164 498.101C425.145 497.376 424.364 496.337 423.823 494.984C423.282 493.623 423.011 491.979 423.011 490.052C423.011 488.125 423.282 486.482 423.823 485.12C424.364 483.751 425.145 482.708 426.164 481.991C427.191 481.267 428.425 480.905 429.866 480.905C431.298 480.905 432.528 481.267 433.555 481.991C434.582 482.716 435.367 483.759 435.908 485.12C436.449 486.482 436.72 488.125 436.72 490.052C436.72 491.979 436.449 493.623 435.908 494.984C435.367 496.337 434.586 497.376 433.567 498.101C432.548 498.817 431.314 499.175 429.866 499.175ZM429.866 496.477C430.638 496.477 431.291 496.226 431.824 495.724C432.365 495.223 432.775 494.494 433.054 493.539C433.341 492.576 433.484 491.413 433.484 490.052C433.484 488.683 433.341 487.516 433.054 486.553C432.775 485.59 432.365 484.857 431.824 484.356C431.291 483.846 430.638 483.592 429.866 483.592C428.703 483.592 427.808 484.157 427.179 485.287C426.558 486.41 426.247 487.998 426.247 490.052C426.247 491.413 426.387 492.576 426.665 493.539C426.944 494.494 427.354 495.223 427.895 495.724C428.437 496.226 429.093 496.477 429.866 496.477ZM447.227 499.175C445.786 499.175 444.552 498.817 443.525 498.101C442.506 497.376 441.726 496.337 441.184 494.984C440.643 493.623 440.372 491.979 440.372 490.052C440.372 488.125 440.643 486.482 441.184 485.12C441.726 483.751 442.506 482.708 443.525 481.991C444.552 481.267 445.786 480.905 447.227 480.905C448.66 480.905 449.89 481.267 450.917 481.991C451.943 482.716 452.728 483.759 453.269 485.12C453.81 486.482 454.081 488.125 454.081 490.052C454.081 491.979 453.81 493.623 453.269 494.984C452.728 496.337 451.947 497.376 450.928 498.101C449.909 498.817 448.675 499.175 447.227 499.175ZM447.227 496.477C447.999 496.477 448.652 496.226 449.185 495.724C449.726 495.223 450.136 494.494 450.415 493.539C450.702 492.576 450.845 491.413 450.845 490.052C450.845 488.683 450.702 487.516 450.415 486.553C450.136 485.59 449.726 484.857 449.185 484.356C448.652 483.846 447.999 483.592 447.227 483.592C446.064 483.592 445.169 484.157 444.54 485.287C443.919 486.41 443.608 487.998 443.608 490.052C443.608 491.413 443.748 492.576 444.026 493.539C444.305 494.494 444.715 495.223 445.256 495.724C445.798 496.226 446.454 496.477 447.227 496.477Z" fill="white"/>
<path d="M412.348 515.322C412.348 512.206 414.874 509.681 417.99 509.681H441.742C444.857 509.681 447.383 512.206 447.383 515.322V594.587H412.348V515.322Z" fill="url(#paint7_linear_1109_2478)" fill-opacity="0.25" stroke="url(#paint8_linear_1109_2478)" stroke-width="0.593799"/>
<path d="M479.79 465.922C478.349 465.922 477.115 465.564 476.088 464.848C475.069 464.123 474.289 463.084 473.748 461.731C473.206 460.37 472.936 458.726 472.936 456.799C472.936 454.873 473.206 453.229 473.748 451.867C474.289 450.498 475.069 449.455 476.088 448.739C477.115 448.014 478.349 447.652 479.79 447.652C481.223 447.652 482.453 448.014 483.48 448.739C484.507 449.463 485.291 450.506 485.833 451.867C486.374 453.229 486.645 454.873 486.645 456.799C486.645 458.726 486.374 460.37 485.833 461.731C485.291 463.084 484.511 464.123 483.492 464.848C482.473 465.564 481.239 465.922 479.79 465.922ZM479.79 463.224C480.562 463.224 481.215 462.973 481.749 462.471C482.29 461.97 482.7 461.241 482.979 460.286C483.265 459.323 483.408 458.16 483.408 456.799C483.408 455.43 483.265 454.264 482.979 453.3C482.7 452.337 482.29 451.605 481.749 451.103C481.215 450.593 480.562 450.339 479.79 450.339C478.628 450.339 477.732 450.904 477.103 452.034C476.482 453.157 476.172 454.745 476.172 456.799C476.172 458.16 476.311 459.323 476.59 460.286C476.868 461.241 477.278 461.97 477.82 462.471C478.361 462.973 479.018 463.224 479.79 463.224ZM497.151 465.922C495.71 465.922 494.476 465.564 493.449 464.848C492.43 464.123 491.65 463.084 491.109 461.731C490.567 460.37 490.297 458.726 490.297 456.799C490.297 454.873 490.567 453.229 491.109 451.867C491.65 450.498 492.43 449.455 493.449 448.739C494.476 448.014 495.71 447.652 497.151 447.652C498.584 447.652 499.814 448.014 500.841 448.739C501.868 449.463 502.652 450.506 503.194 451.867C503.735 453.229 504.006 454.873 504.006 456.799C504.006 458.726 503.735 460.37 503.194 461.731C502.652 463.084 501.872 464.123 500.853 464.848C499.834 465.564 498.6 465.922 497.151 465.922ZM497.151 463.224C497.923 463.224 498.576 462.973 499.11 462.471C499.651 461.97 500.061 461.241 500.34 460.286C500.626 459.323 500.77 458.16 500.77 456.799C500.77 455.43 500.626 454.264 500.34 453.3C500.061 452.337 499.651 451.605 499.11 451.103C498.576 450.593 497.923 450.339 497.151 450.339C495.989 450.339 495.093 450.904 494.464 452.034C493.843 453.157 493.533 454.745 493.533 456.799C493.533 458.16 493.672 459.323 493.951 460.286C494.23 461.241 494.64 461.97 495.181 462.471C495.722 462.973 496.379 463.224 497.151 463.224ZM514.512 465.922C513.071 465.922 511.837 465.564 510.81 464.848C509.791 464.123 509.011 463.084 508.47 461.731C507.929 460.37 507.658 458.726 507.658 456.799C507.658 454.873 507.929 453.229 508.47 451.867C509.011 450.498 509.791 449.455 510.81 448.739C511.837 448.014 513.071 447.652 514.512 447.652C515.945 447.652 517.175 448.014 518.202 448.739C519.229 449.463 520.013 450.506 520.555 451.867C521.096 453.229 521.367 454.873 521.367 456.799C521.367 458.726 521.096 460.37 520.555 461.731C520.013 463.084 519.233 464.123 518.214 464.848C517.195 465.564 515.961 465.922 514.512 465.922ZM514.512 463.224C515.285 463.224 515.937 462.973 516.471 462.471C517.012 461.97 517.422 461.241 517.701 460.286C517.987 459.323 518.131 458.16 518.131 456.799C518.131 455.43 517.987 454.264 517.701 453.3C517.422 452.337 517.012 451.605 516.471 451.103C515.937 450.593 515.285 450.339 514.512 450.339C513.35 450.339 512.454 450.904 511.825 452.034C511.204 453.157 510.894 454.745 510.894 456.799C510.894 458.16 511.033 459.323 511.312 460.286C511.591 461.241 512.001 461.97 512.542 462.471C513.083 462.973 513.74 463.224 514.512 463.224Z" fill="white"/>
<path d="M479.634 482.069C479.634 478.953 482.16 476.428 485.275 476.428H509.027C512.143 476.428 514.668 478.953 514.668 482.069V594.587H479.634V482.069Z" fill="url(#paint9_linear_1109_2478)" fill-opacity="0.25" stroke="url(#paint10_linear_1109_2478)" stroke-width="0.593799"/>
<path d="M547.076 455.828C545.635 455.828 544.401 455.47 543.374 454.753C542.355 454.029 541.575 452.99 541.034 451.637C540.492 450.275 540.221 448.631 540.221 446.705C540.221 444.778 540.492 443.134 541.034 441.773C541.575 440.404 542.355 439.361 543.374 438.644C544.401 437.92 545.635 437.558 547.076 437.558C548.509 437.558 549.739 437.92 550.766 438.644C551.793 439.369 552.577 440.412 553.118 441.773C553.66 443.134 553.93 444.778 553.93 446.705C553.93 448.631 553.66 450.275 553.118 451.637C552.577 452.99 551.797 454.029 550.778 454.753C549.759 455.47 548.525 455.828 547.076 455.828ZM547.076 453.129C547.848 453.129 548.501 452.879 549.034 452.377C549.576 451.876 549.986 451.147 550.264 450.192C550.551 449.229 550.694 448.066 550.694 446.705C550.694 445.336 550.551 444.169 550.264 443.206C549.986 442.243 549.576 441.51 549.034 441.009C548.501 440.499 547.848 440.244 547.076 440.244C545.914 440.244 545.018 440.81 544.389 441.94C543.768 443.063 543.458 444.651 543.458 446.705C543.458 448.066 543.597 449.229 543.876 450.192C544.154 451.147 544.564 451.876 545.106 452.377C545.647 452.879 546.304 453.129 547.076 453.129ZM564.437 455.828C562.996 455.828 561.762 455.47 560.735 454.753C559.716 454.029 558.936 452.99 558.395 451.637C557.853 450.275 557.583 448.631 557.583 446.705C557.583 444.778 557.853 443.134 558.395 441.773C558.936 440.404 559.716 439.361 560.735 438.644C561.762 437.92 562.996 437.558 564.437 437.558C565.87 437.558 567.1 437.92 568.127 438.644C569.154 439.369 569.938 440.412 570.479 441.773C571.021 443.134 571.291 444.778 571.291 446.705C571.291 448.631 571.021 450.275 570.479 451.637C569.938 452.99 569.158 454.029 568.139 454.753C567.12 455.47 565.886 455.828 564.437 455.828ZM564.437 453.129C565.209 453.129 565.862 452.879 566.395 452.377C566.937 451.876 567.347 451.147 567.625 450.192C567.912 449.229 568.055 448.066 568.055 446.705C568.055 445.336 567.912 444.169 567.625 443.206C567.347 442.243 566.937 441.51 566.395 441.009C565.862 440.499 565.209 440.244 564.437 440.244C563.275 440.244 562.379 440.81 561.75 441.94C561.129 443.063 560.819 444.651 560.819 446.705C560.819 448.066 560.958 449.229 561.237 450.192C561.515 451.147 561.925 451.876 562.467 452.377C563.008 452.879 563.665 453.129 564.437 453.129ZM581.798 455.828C580.357 455.828 579.123 455.47 578.096 454.753C577.077 454.029 576.297 452.99 575.756 451.637C575.214 450.275 574.944 448.631 574.944 446.705C574.944 444.778 575.214 443.134 575.756 441.773C576.297 440.404 577.077 439.361 578.096 438.644C579.123 437.92 580.357 437.558 581.798 437.558C583.231 437.558 584.461 437.92 585.488 438.644C586.515 439.369 587.299 440.412 587.84 441.773C588.382 443.134 588.652 444.778 588.652 446.705C588.652 448.631 588.382 450.275 587.84 451.637C587.299 452.99 586.519 454.029 585.5 454.753C584.481 455.47 583.247 455.828 581.798 455.828ZM581.798 453.129C582.57 453.129 583.223 452.879 583.756 452.377C584.298 451.876 584.708 451.147 584.986 450.192C585.273 449.229 585.416 448.066 585.416 446.705C585.416 445.336 585.273 444.169 584.986 443.206C584.708 442.243 584.298 441.51 583.756 441.009C583.223 440.499 582.57 440.244 581.798 440.244C580.636 440.244 579.74 440.81 579.111 441.94C578.49 443.063 578.18 444.651 578.18 446.705C578.18 448.066 578.319 449.229 578.598 450.192C578.876 451.147 579.286 451.876 579.828 452.377C580.369 452.879 581.026 453.129 581.798 453.129Z" fill="white"/>
<path d="M546.92 471.975C546.92 468.859 549.446 466.334 552.561 466.334H576.313C579.428 466.334 581.954 468.859 581.954 471.975V594.587H546.92V471.975Z" fill="url(#paint11_linear_1109_2478)" fill-opacity="0.25" stroke="url(#paint12_linear_1109_2478)" stroke-width="0.593799"/>
<path d="M614.362 421.982C612.921 421.982 611.687 421.623 610.66 420.907C609.641 420.182 608.861 419.143 608.319 417.79C607.778 416.429 607.507 414.785 607.507 412.858C607.507 410.932 607.778 409.288 608.319 407.926C608.861 406.557 609.641 405.514 610.66 404.798C611.687 404.073 612.921 403.711 614.362 403.711C615.795 403.711 617.025 404.073 618.052 404.798C619.079 405.522 619.863 406.565 620.404 407.926C620.945 409.288 621.216 410.932 621.216 412.858C621.216 414.785 620.945 416.429 620.404 417.79C619.863 419.143 619.083 420.182 618.064 420.907C617.045 421.623 615.811 421.982 614.362 421.982ZM614.362 419.283C615.134 419.283 615.787 419.032 616.32 418.53C616.861 418.029 617.271 417.3 617.55 416.345C617.837 415.382 617.98 414.22 617.98 412.858C617.98 411.489 617.837 410.323 617.55 409.359C617.271 408.396 616.861 407.664 616.32 407.162C615.787 406.653 615.134 406.398 614.362 406.398C613.199 406.398 612.304 406.963 611.675 408.094C611.054 409.216 610.743 410.804 610.743 412.858C610.743 414.22 610.883 415.382 611.161 416.345C611.44 417.3 611.85 418.029 612.391 418.53C612.933 419.032 613.589 419.283 614.362 419.283ZM631.723 421.982C630.282 421.982 629.048 421.623 628.021 420.907C627.002 420.182 626.222 419.143 625.68 417.79C625.139 416.429 624.868 414.785 624.868 412.858C624.868 410.932 625.139 409.288 625.68 407.926C626.222 406.557 627.002 405.514 628.021 404.798C629.048 404.073 630.282 403.711 631.723 403.711C633.156 403.711 634.386 404.073 635.413 404.798C636.44 405.522 637.224 406.565 637.765 407.926C638.307 409.288 638.577 410.932 638.577 412.858C638.577 414.785 638.307 416.429 637.765 417.79C637.224 419.143 636.444 420.182 635.425 420.907C634.406 421.623 633.172 421.982 631.723 421.982ZM631.723 419.283C632.495 419.283 633.148 419.032 633.681 418.53C634.223 418.029 634.633 417.3 634.911 416.345C635.198 415.382 635.341 414.22 635.341 412.858C635.341 411.489 635.198 410.323 634.911 409.359C634.633 408.396 634.223 407.664 633.681 407.162C633.148 406.653 632.495 406.398 631.723 406.398C630.56 406.398 629.665 406.963 629.036 408.094C628.415 409.216 628.104 410.804 628.104 412.858C628.104 414.22 628.244 415.382 628.522 416.345C628.801 417.3 629.211 418.029 629.752 418.53C630.294 419.032 630.951 419.283 631.723 419.283ZM649.084 421.982C647.643 421.982 646.409 421.623 645.382 420.907C644.363 420.182 643.583 419.143 643.041 417.79C642.5 416.429 642.229 414.785 642.229 412.858C642.229 410.932 642.5 409.288 643.041 407.926C643.583 406.557 644.363 405.514 645.382 404.798C646.409 404.073 647.643 403.711 649.084 403.711C650.517 403.711 651.747 404.073 652.774 404.798C653.801 405.522 654.585 406.565 655.126 407.926C655.668 409.288 655.938 410.932 655.938 412.858C655.938 414.785 655.668 416.429 655.126 417.79C654.585 419.143 653.805 420.182 652.786 420.907C651.767 421.623 650.533 421.982 649.084 421.982ZM649.084 419.283C649.856 419.283 650.509 419.032 651.042 418.53C651.584 418.029 651.994 417.3 652.272 416.345C652.559 415.382 652.702 414.22 652.702 412.858C652.702 411.489 652.559 410.323 652.272 409.359C651.994 408.396 651.584 407.664 651.042 407.162C650.509 406.653 649.856 406.398 649.084 406.398C647.922 406.398 647.026 406.963 646.397 408.094C645.776 409.216 645.466 410.804 645.466 412.858C645.466 414.22 645.605 415.382 645.883 416.345C646.162 417.3 646.572 418.029 647.113 418.53C647.655 419.032 648.312 419.283 649.084 419.283Z" fill="white"/>
<path d="M614.206 438.128C614.206 435.012 616.731 432.487 619.847 432.487H643.599C646.714 432.487 649.24 435.012 649.24 438.128V594.587H614.206V438.128Z" fill="url(#paint13_linear_1109_2478)" fill-opacity="0.25" stroke="url(#paint14_linear_1109_2478)" stroke-width="0.593799"/>
<path d="M681.647 380.416C680.206 380.416 678.972 380.057 677.945 379.341C676.926 378.616 676.146 377.577 675.605 376.224C675.064 374.863 674.793 373.219 674.793 371.292C674.793 369.366 675.064 367.722 675.605 366.36C676.146 364.991 676.926 363.948 677.945 363.232C678.972 362.507 680.206 362.145 681.647 362.145C683.08 362.145 684.31 362.507 685.337 363.232C686.364 363.956 687.148 364.999 687.69 366.36C688.231 367.722 688.502 369.366 688.502 371.292C688.502 373.219 688.231 374.863 687.69 376.224C687.148 377.577 686.368 378.616 685.349 379.341C684.33 380.057 683.096 380.416 681.647 380.416ZM681.647 377.717C682.42 377.717 683.072 377.466 683.606 376.964C684.147 376.463 684.557 375.735 684.836 374.779C685.122 373.816 685.266 372.654 685.266 371.292C685.266 369.923 685.122 368.757 684.836 367.793C684.557 366.83 684.147 366.098 683.606 365.596C683.072 365.087 682.42 364.832 681.647 364.832C680.485 364.832 679.589 365.397 678.96 366.528C678.34 367.65 678.029 369.238 678.029 371.292C678.029 372.654 678.168 373.816 678.447 374.779C678.726 375.735 679.136 376.463 679.677 376.964C680.218 377.466 680.875 377.717 681.647 377.717ZM699.008 380.416C697.567 380.416 696.333 380.057 695.307 379.341C694.288 378.616 693.507 377.577 692.966 376.224C692.425 374.863 692.154 373.219 692.154 371.292C692.154 369.366 692.425 367.722 692.966 366.36C693.507 364.991 694.288 363.948 695.307 363.232C696.333 362.507 697.567 362.145 699.008 362.145C700.441 362.145 701.671 362.507 702.698 363.232C703.725 363.956 704.509 364.999 705.051 366.36C705.592 367.722 705.863 369.366 705.863 371.292C705.863 373.219 705.592 374.863 705.051 376.224C704.509 377.577 703.729 378.616 702.71 379.341C701.691 380.057 700.457 380.416 699.008 380.416ZM699.008 377.717C699.781 377.717 700.433 377.466 700.967 376.964C701.508 376.463 701.918 375.735 702.197 374.779C702.483 373.816 702.627 372.654 702.627 371.292C702.627 369.923 702.483 368.757 702.197 367.793C701.918 366.83 701.508 366.098 700.967 365.596C700.433 365.087 699.781 364.832 699.008 364.832C697.846 364.832 696.95 365.397 696.322 366.528C695.701 367.65 695.39 369.238 695.39 371.292C695.39 372.654 695.529 373.816 695.808 374.779C696.087 375.735 696.497 376.463 697.038 376.964C697.579 377.466 698.236 377.717 699.008 377.717ZM716.369 380.416C714.929 380.416 713.695 380.057 712.668 379.341C711.649 378.616 710.868 377.577 710.327 376.224C709.786 374.863 709.515 373.219 709.515 371.292C709.515 369.366 709.786 367.722 710.327 366.36C710.868 364.991 711.649 363.948 712.668 363.232C713.695 362.507 714.929 362.145 716.369 362.145C717.802 362.145 719.032 362.507 720.059 363.232C721.086 363.956 721.871 364.999 722.412 366.36C722.953 367.722 723.224 369.366 723.224 371.292C723.224 373.219 722.953 374.863 722.412 376.224C721.871 377.577 721.09 378.616 720.071 379.341C719.052 380.057 717.818 380.416 716.369 380.416ZM716.369 377.717C717.142 377.717 717.794 377.466 718.328 376.964C718.869 376.463 719.279 375.735 719.558 374.779C719.844 373.816 719.988 372.654 719.988 371.292C719.988 369.923 719.844 368.757 719.558 367.793C719.279 366.83 718.869 366.098 718.328 365.596C717.794 365.087 717.142 364.832 716.369 364.832C715.207 364.832 714.312 365.397 713.683 366.528C713.062 367.65 712.751 369.238 712.751 371.292C712.751 372.654 712.891 373.816 713.169 374.779C713.448 375.735 713.858 376.463 714.399 376.964C714.94 377.466 715.597 377.717 716.369 377.717Z" fill="white"/>
<path d="M681.491 396.562C681.491 393.447 684.017 390.921 687.132 390.921H710.884C714 390.921 716.525 393.447 716.525 396.562V594.587H681.491V396.562Z" fill="url(#paint15_linear_1109_2478)" fill-opacity="0.25" stroke="url(#paint16_linear_1109_2478)" stroke-width="0.593799"/>
<path d="M279.39 236.11V267.885H273.632V236.11H279.39ZM289.37 253.938V267.885H283.762V244.043H289.264V248.116H289.541C290.081 246.78 290.927 245.721 292.079 244.939C293.244 244.143 294.723 243.745 296.514 243.745C298.163 243.745 299.599 244.093 300.822 244.79C302.045 245.486 302.99 246.51 303.658 247.86C304.341 249.197 304.682 250.817 304.682 252.723V267.885H299.073V253.597C299.073 252.005 298.661 250.761 297.836 249.865C297.012 248.955 295.874 248.5 294.424 248.5C293.443 248.5 292.569 248.713 291.801 249.14C291.048 249.566 290.451 250.185 290.01 250.995C289.583 251.791 289.37 252.772 289.37 253.938ZM327.649 250.377L322.552 250.91C322.339 250.128 321.877 249.438 321.166 248.841C320.455 248.23 319.453 247.924 318.159 247.924C316.994 247.924 316.013 248.18 315.216 248.692C314.434 249.204 314.044 249.858 314.044 250.654C314.044 251.351 314.299 251.926 314.811 252.381C315.337 252.822 316.204 253.177 317.413 253.448L321.486 254.301C323.718 254.77 325.389 255.537 326.497 256.604C327.606 257.67 328.161 259.049 328.161 260.741C328.161 262.234 327.727 263.556 326.86 264.707C325.993 265.859 324.791 266.755 323.256 267.394C321.735 268.034 319.979 268.354 317.989 268.354C315.074 268.354 312.728 267.743 310.951 266.52C309.188 265.283 308.129 263.57 307.774 261.381L313.255 260.869C313.496 261.935 314.022 262.745 314.833 263.3C315.657 263.84 316.709 264.11 317.989 264.11C319.325 264.11 320.398 263.84 321.209 263.3C322.019 262.745 322.424 262.07 322.424 261.274C322.424 259.938 321.358 259.028 319.226 258.544L315.152 257.691C312.864 257.194 311.172 256.39 310.077 255.282C308.982 254.158 308.435 252.73 308.435 250.995C308.435 249.517 308.84 248.237 309.651 247.157C310.461 246.076 311.591 245.237 313.041 244.64C314.491 244.043 316.169 243.745 318.074 243.745C320.875 243.745 323.071 244.349 324.664 245.557C326.27 246.751 327.265 248.358 327.649 250.377ZM341.745 268.354C339.357 268.354 337.295 267.856 335.561 266.861C333.826 265.852 332.49 264.43 331.552 262.596C330.627 260.762 330.165 258.601 330.165 256.113C330.165 253.654 330.627 251.5 331.552 249.652C332.476 247.789 333.776 246.339 335.454 245.301C337.132 244.264 339.108 243.745 341.382 243.745C342.847 243.745 344.233 243.979 345.541 244.448C346.863 244.917 348.029 245.643 349.038 246.624C350.062 247.604 350.865 248.856 351.448 250.377C352.031 251.884 352.322 253.682 352.322 255.772V257.521H332.788V253.746H349.529L346.906 254.855C346.906 253.504 346.7 252.332 346.287 251.336C345.875 250.327 345.264 249.538 344.453 248.969C343.643 248.401 342.634 248.116 341.425 248.116C340.217 248.116 339.186 248.401 338.333 248.969C337.48 249.538 336.833 250.306 336.392 251.272C335.952 252.225 335.731 253.291 335.731 254.471V257.094C335.731 258.544 335.98 259.788 336.478 260.826C336.989 261.85 337.7 262.632 338.61 263.172C339.534 263.712 340.608 263.982 341.83 263.982C342.626 263.982 343.352 263.869 344.005 263.641C344.674 263.414 345.242 263.072 345.712 262.617C346.195 262.148 346.565 261.572 346.82 260.89L352.066 261.509C351.725 262.888 351.093 264.096 350.168 265.134C349.259 266.157 348.086 266.954 346.65 267.522C345.228 268.077 343.593 268.354 341.745 268.354ZM355.372 267.885V244.043H360.81V248.052H361.066C361.492 246.659 362.239 245.593 363.305 244.854C364.371 244.1 365.587 243.723 366.951 243.723C367.25 243.723 367.591 243.737 367.975 243.766C368.373 243.794 368.7 243.83 368.956 243.873V249.033C368.714 248.948 368.338 248.877 367.826 248.82C367.314 248.763 366.823 248.735 366.354 248.735C365.317 248.735 364.392 248.955 363.582 249.396C362.772 249.837 362.132 250.441 361.663 251.208C361.208 251.976 360.98 252.872 360.98 253.895V267.885H355.372ZM384.225 244.043V248.394H370.555V244.043H384.225ZM373.903 238.371H379.512V260.719C379.512 261.658 379.718 262.354 380.13 262.809C380.543 263.25 381.197 263.47 382.092 263.47C382.334 263.47 382.604 263.449 382.903 263.406C383.201 263.364 383.471 263.314 383.713 263.257L384.673 267.65C384.076 267.835 383.471 267.97 382.86 268.055C382.249 268.155 381.637 268.205 381.026 268.205C378.808 268.205 377.067 267.622 375.801 266.456C374.536 265.276 373.903 263.669 373.903 261.636V238.371ZM396.53 267.885V244.043H401.882V248.116H402.181C402.678 246.751 403.503 245.685 404.654 244.917C405.806 244.136 407.171 243.745 408.749 243.745C410.37 243.745 411.734 244.136 412.843 244.917C413.952 245.699 414.727 246.766 415.168 248.116H415.424C415.964 246.794 416.86 245.735 418.111 244.939C419.362 244.143 420.855 243.745 422.589 243.745C424.778 243.745 426.563 244.441 427.942 245.834C429.335 247.214 430.031 249.232 430.031 251.891V267.885H424.402V252.744C424.402 251.28 424.004 250.206 423.207 249.524C422.425 248.827 421.466 248.479 420.328 248.479C418.978 248.479 417.926 248.905 417.172 249.758C416.419 250.597 416.042 251.678 416.042 253V267.885H410.498V252.531C410.498 251.294 410.135 250.313 409.41 249.588C408.685 248.848 407.725 248.479 406.531 248.479C405.721 248.479 404.981 248.685 404.313 249.097C403.645 249.51 403.112 250.085 402.714 250.825C402.33 251.564 402.138 252.417 402.138 253.384V267.885H396.53ZM441.057 268.375C439.535 268.375 438.171 268.105 436.962 267.565C435.754 267.01 434.801 266.2 434.105 265.134C433.408 264.068 433.06 262.752 433.06 261.189C433.06 259.852 433.308 258.743 433.806 257.862C434.304 256.98 434.979 256.277 435.832 255.751C436.699 255.225 437.673 254.827 438.753 254.556C439.834 254.272 440.95 254.073 442.102 253.959C443.509 253.803 444.646 253.668 445.514 253.554C446.381 253.44 447.006 253.256 447.39 253C447.788 252.744 447.987 252.346 447.987 251.806V251.699C447.987 250.547 447.646 249.652 446.964 249.012C446.281 248.372 445.286 248.052 443.978 248.052C442.599 248.052 441.504 248.351 440.694 248.948C439.898 249.545 439.358 250.249 439.073 251.059L433.849 250.313C434.261 248.863 434.943 247.654 435.896 246.687C436.848 245.707 438.007 244.974 439.372 244.491C440.751 243.993 442.272 243.745 443.936 243.745C445.073 243.745 446.21 243.88 447.348 244.15C448.485 244.406 449.53 244.846 450.482 245.472C451.435 246.097 452.195 246.936 452.764 247.988C453.333 249.04 453.617 250.355 453.617 251.933V267.885H448.222V264.601H448.051C447.71 265.255 447.227 265.873 446.601 266.456C445.99 267.025 445.222 267.487 444.298 267.842C443.388 268.198 442.308 268.375 441.057 268.375ZM442.485 264.238C443.623 264.238 444.604 264.018 445.428 263.577C446.253 263.122 446.893 262.525 447.348 261.786C447.802 261.032 448.03 260.215 448.03 259.333V256.54C447.845 256.682 447.547 256.817 447.134 256.945C446.722 257.059 446.253 257.165 445.727 257.265C445.201 257.364 444.682 257.45 444.17 257.521C443.673 257.592 443.239 257.649 442.869 257.691C442.03 257.805 441.277 257.997 440.609 258.267C439.955 258.523 439.436 258.878 439.052 259.333C438.668 259.788 438.476 260.378 438.476 261.103C438.476 262.141 438.853 262.923 439.606 263.449C440.36 263.975 441.32 264.238 442.485 264.238ZM457.776 244.043H463.384V269.25C463.398 270.97 463.078 272.384 462.425 273.493C461.771 274.616 460.825 275.448 459.588 275.988C458.351 276.529 456.852 276.799 455.089 276.799H453.958V272.235H454.769C455.849 272.235 456.617 271.972 457.072 271.446C457.541 270.934 457.776 270.181 457.776 269.186V244.043ZM460.569 240.695C459.674 240.695 458.906 240.397 458.266 239.799C457.626 239.202 457.306 238.484 457.306 237.646C457.306 236.793 457.626 236.068 458.266 235.47C458.906 234.873 459.674 234.575 460.569 234.575C461.451 234.575 462.211 234.873 462.851 235.47C463.491 236.068 463.811 236.785 463.811 237.624C463.811 238.477 463.491 239.202 462.851 239.799C462.211 240.397 461.451 240.695 460.569 240.695ZM477.928 268.354C475.596 268.354 473.578 267.842 471.872 266.819C470.166 265.795 468.843 264.359 467.905 262.511C466.981 260.663 466.519 258.516 466.519 256.071C466.519 253.611 466.981 251.457 467.905 249.609C468.843 247.747 470.166 246.304 471.872 245.28C473.578 244.256 475.596 243.745 477.928 243.745C480.26 243.745 482.278 244.256 483.984 245.28C485.69 246.304 487.012 247.747 487.951 249.609C488.889 251.457 489.358 253.611 489.358 256.071C489.358 258.516 488.889 260.663 487.951 262.511C487.012 264.359 485.69 265.795 483.984 266.819C482.278 267.842 480.26 268.354 477.928 268.354ZM477.928 263.833C479.222 263.833 480.288 263.492 481.127 262.809C481.966 262.113 482.591 261.174 483.003 259.994C483.43 258.814 483.643 257.506 483.643 256.071C483.643 254.606 483.43 253.284 483.003 252.104C482.591 250.924 481.966 249.993 481.127 249.31C480.288 248.614 479.222 248.266 477.928 248.266C476.663 248.266 475.603 248.614 474.75 249.31C473.897 249.993 473.258 250.924 472.831 252.104C472.419 253.284 472.213 254.606 472.213 256.071C472.213 257.506 472.419 258.814 472.831 259.994C473.258 261.174 473.897 262.113 474.75 262.809C475.603 263.492 476.663 263.833 477.928 263.833ZM492.45 267.885V244.043H497.888V248.052H498.144C498.571 246.659 499.317 245.593 500.383 244.854C501.45 244.1 502.665 243.723 504.03 243.723C504.329 243.723 504.67 243.737 505.054 243.766C505.452 243.794 505.779 243.83 506.035 243.873V249.033C505.793 248.948 505.416 248.877 504.904 248.82C504.393 248.763 503.902 248.735 503.433 248.735C502.395 248.735 501.471 248.955 500.661 249.396C499.85 249.837 499.211 250.441 498.741 251.208C498.286 251.976 498.059 252.872 498.059 253.895V267.885H492.45ZM285.51 294.043V298.394H271.457V294.043H285.51ZM274.954 317.885V291.804C274.954 290.198 275.288 288.861 275.957 287.795C276.625 286.729 277.521 285.932 278.644 285.406C279.781 284.88 281.032 284.617 282.397 284.617C283.378 284.617 284.245 284.696 284.999 284.852C285.766 285.008 286.328 285.151 286.683 285.278L285.532 289.629C285.304 289.544 285.013 289.465 284.657 289.394C284.302 289.309 283.897 289.266 283.442 289.266C282.404 289.266 281.658 289.522 281.203 290.034C280.762 290.546 280.542 291.271 280.542 292.209V317.885H274.954ZM297.986 318.354C295.597 318.354 293.536 317.856 291.801 316.861C290.067 315.852 288.73 314.43 287.792 312.596C286.868 310.762 286.406 308.601 286.406 306.113C286.406 303.654 286.868 301.5 287.792 299.652C288.716 297.789 290.017 296.339 291.695 295.301C293.372 294.264 295.348 293.745 297.623 293.745C299.087 293.745 300.474 293.979 301.782 294.448C303.104 294.917 304.269 295.643 305.279 296.624C306.302 297.604 307.106 298.856 307.689 300.377C308.272 301.884 308.563 303.682 308.563 305.772V307.521H289.029V303.746H305.769L303.146 304.855C303.146 303.504 302.94 302.332 302.528 301.336C302.116 300.327 301.504 299.538 300.694 298.969C299.884 298.401 298.874 298.116 297.666 298.116C296.457 298.116 295.427 298.401 294.574 298.969C293.721 299.538 293.074 300.306 292.633 301.272C292.192 302.225 291.972 303.291 291.972 304.471V307.094C291.972 308.544 292.221 309.788 292.718 310.826C293.23 311.85 293.941 312.632 294.851 313.172C295.775 313.712 296.848 313.982 298.071 313.982C298.867 313.982 299.592 313.869 300.246 313.641C300.914 313.414 301.483 313.072 301.952 312.617C302.436 312.148 302.805 311.572 303.061 310.89L308.307 311.509C307.966 312.888 307.333 314.096 306.409 315.134C305.499 316.157 304.326 316.954 302.89 317.522C301.469 318.077 299.834 318.354 297.986 318.354ZM318.479 318.375C316.958 318.375 315.593 318.105 314.385 317.565C313.176 317.01 312.224 316.2 311.527 315.134C310.831 314.068 310.482 312.752 310.482 311.189C310.482 309.852 310.731 308.743 311.229 307.862C311.726 306.98 312.401 306.277 313.255 305.751C314.122 305.225 315.096 304.827 316.176 304.556C317.257 304.272 318.373 304.073 319.524 303.959C320.932 303.803 322.069 303.668 322.936 303.554C323.803 303.44 324.429 303.256 324.813 303C325.211 302.744 325.41 302.346 325.41 301.806V301.699C325.41 300.547 325.069 299.652 324.386 299.012C323.704 298.372 322.709 298.052 321.401 298.052C320.022 298.052 318.927 298.351 318.117 298.948C317.321 299.545 316.78 300.249 316.496 301.059L311.271 300.313C311.684 298.863 312.366 297.654 313.318 296.687C314.271 295.707 315.43 294.974 316.794 294.491C318.174 293.993 319.695 293.745 321.358 293.745C322.495 293.745 323.633 293.88 324.77 294.15C325.907 294.406 326.952 294.846 327.905 295.472C328.857 296.097 329.618 296.936 330.187 297.988C330.755 299.04 331.04 300.355 331.04 301.933V317.885H325.644V314.601H325.474C325.133 315.255 324.649 315.873 324.024 316.456C323.412 317.025 322.645 317.487 321.721 317.842C320.811 318.198 319.73 318.375 318.479 318.375ZM319.908 314.238C321.045 314.238 322.026 314.018 322.851 313.577C323.675 313.122 324.315 312.525 324.77 311.786C325.225 311.032 325.453 310.215 325.453 309.333V306.54C325.268 306.682 324.969 306.817 324.557 306.945C324.145 307.059 323.675 307.165 323.149 307.265C322.623 307.364 322.104 307.45 321.593 307.521C321.095 307.592 320.661 307.649 320.292 307.691C319.453 307.805 318.7 307.997 318.031 308.267C317.377 308.523 316.858 308.878 316.475 309.333C316.091 309.788 315.899 310.378 315.899 311.103C315.899 312.141 316.276 312.923 317.029 313.449C317.783 313.975 318.742 314.238 319.908 314.238ZM347.076 294.043V298.394H333.407V294.043H347.076ZM336.755 288.371H342.363V310.719C342.363 311.658 342.57 312.354 342.982 312.809C343.394 313.25 344.048 313.47 344.944 313.47C345.185 313.47 345.456 313.449 345.754 313.406C346.053 313.364 346.323 313.314 346.565 313.257L347.524 317.65C346.927 317.835 346.323 317.97 345.712 318.055C345.1 318.155 344.489 318.205 343.878 318.205C341.66 318.205 339.918 317.622 338.653 316.456C337.388 315.276 336.755 313.669 336.755 311.636V288.371ZM365.352 307.883V294.043H370.961V317.885H365.523V313.641H365.267C364.727 314.977 363.845 316.072 362.622 316.925C361.4 317.778 359.893 318.198 358.101 318.183C356.538 318.183 355.159 317.842 353.964 317.16C352.784 316.463 351.853 315.447 351.171 314.11C350.503 312.76 350.168 311.132 350.168 309.227V294.043H355.777V308.374C355.777 309.866 356.189 311.061 357.014 311.956C357.853 312.852 358.947 313.293 360.298 313.279C361.123 313.279 361.919 313.079 362.686 312.681C363.468 312.283 364.108 311.686 364.606 310.89C365.103 310.094 365.352 309.092 365.352 307.883ZM375.119 317.885V294.043H380.557V298.052H380.813C381.239 296.659 381.986 295.593 383.052 294.854C384.118 294.1 385.334 293.723 386.699 293.723C386.997 293.723 387.338 293.737 387.722 293.766C388.12 293.794 388.447 293.83 388.703 293.873V299.033C388.461 298.948 388.085 298.877 387.573 298.82C387.061 298.763 386.571 298.735 386.101 298.735C385.064 298.735 384.14 298.955 383.329 299.396C382.519 299.837 381.879 300.441 381.41 301.208C380.955 301.976 380.728 302.872 380.728 303.895V317.885H375.119ZM400.389 318.354C398.001 318.354 395.94 317.856 394.205 316.861C392.471 315.852 391.134 314.43 390.196 312.596C389.272 310.762 388.81 308.601 388.81 306.113C388.81 303.654 389.272 301.5 390.196 299.652C391.12 297.789 392.421 296.339 394.098 295.301C395.776 294.264 397.752 293.745 400.027 293.745C401.491 293.745 402.877 293.979 404.185 294.448C405.507 294.917 406.673 295.643 407.683 296.624C408.706 297.604 409.509 298.856 410.092 300.377C410.675 301.884 410.967 303.682 410.967 305.772V307.521H391.433V303.746H408.173L405.55 304.855C405.55 303.504 405.344 302.332 404.932 301.336C404.519 300.327 403.908 299.538 403.098 298.969C402.287 298.401 401.278 298.116 400.07 298.116C398.861 298.116 397.83 298.401 396.977 298.969C396.124 299.538 395.477 300.306 395.037 301.272C394.596 302.225 394.376 303.291 394.376 304.471V307.094C394.376 308.544 394.624 309.788 395.122 310.826C395.634 311.85 396.345 312.632 397.255 313.172C398.179 313.712 399.252 313.982 400.475 313.982C401.271 313.982 401.996 313.869 402.65 313.641C403.318 313.414 403.887 313.072 404.356 312.617C404.839 312.148 405.209 311.572 405.465 310.89L410.711 311.509C410.37 312.888 409.737 314.096 408.813 315.134C407.903 316.157 406.73 316.954 405.294 317.522C403.873 318.077 402.238 318.354 400.389 318.354ZM428.837 303.938V317.885H423.229V294.043H428.731V298.116H429.008C429.548 296.78 430.394 295.721 431.546 294.939C432.711 294.143 434.19 293.745 435.981 293.745C437.63 293.745 439.066 294.093 440.289 294.79C441.512 295.486 442.457 296.51 443.125 297.86C443.808 299.197 444.149 300.817 444.149 302.723V317.885H438.54V303.597C438.54 302.005 438.128 300.761 437.303 299.865C436.479 298.955 435.341 298.5 433.891 298.5C432.91 298.5 432.036 298.713 431.268 299.14C430.515 299.566 429.918 300.185 429.477 300.995C429.051 301.791 428.837 302.772 428.837 303.938ZM455.174 318.375C453.653 318.375 452.288 318.105 451.079 317.565C449.871 317.01 448.919 316.2 448.222 315.134C447.525 314.068 447.177 312.752 447.177 311.189C447.177 309.852 447.426 308.743 447.923 307.862C448.421 306.98 449.096 306.277 449.949 305.751C450.816 305.225 451.79 304.827 452.871 304.556C453.951 304.272 455.067 304.073 456.219 303.959C457.626 303.803 458.764 303.668 459.631 303.554C460.498 303.44 461.124 303.256 461.508 303C461.906 302.744 462.105 302.346 462.105 301.806V301.699C462.105 300.547 461.763 299.652 461.081 299.012C460.399 298.372 459.403 298.052 458.095 298.052C456.716 298.052 455.622 298.351 454.811 298.948C454.015 299.545 453.475 300.249 453.191 301.059L447.966 300.313C448.378 298.863 449.061 297.654 450.013 296.687C450.966 295.707 452.124 294.974 453.489 294.491C454.868 293.993 456.389 293.745 458.053 293.745C459.19 293.745 460.328 293.88 461.465 294.15C462.602 294.406 463.647 294.846 464.6 295.472C465.552 296.097 466.313 296.936 466.881 297.988C467.45 299.04 467.734 300.355 467.734 301.933V317.885H462.339V314.601H462.169C461.827 315.255 461.344 315.873 460.718 316.456C460.107 317.025 459.339 317.487 458.415 317.842C457.505 318.198 456.425 318.375 455.174 318.375ZM456.603 314.238C457.74 314.238 458.721 314.018 459.546 313.577C460.37 313.122 461.01 312.525 461.465 311.786C461.92 311.032 462.147 310.215 462.147 309.333V306.54C461.962 306.682 461.664 306.817 461.252 306.945C460.839 307.059 460.37 307.165 459.844 307.265C459.318 307.364 458.799 307.45 458.287 307.521C457.79 307.592 457.356 307.649 456.987 307.691C456.148 307.805 455.394 307.997 454.726 308.267C454.072 308.523 453.553 308.878 453.169 309.333C452.785 309.788 452.594 310.378 452.594 311.103C452.594 312.141 452.97 312.923 453.724 313.449C454.477 313.975 455.437 314.238 456.603 314.238ZM471.893 317.885V294.043H477.246V298.116H477.544C478.042 296.751 478.866 295.685 480.018 294.917C481.169 294.136 482.534 293.745 484.112 293.745C485.733 293.745 487.098 294.136 488.207 294.917C489.316 295.699 490.09 296.766 490.531 298.116H490.787C491.327 296.794 492.223 295.735 493.474 294.939C494.725 294.143 496.218 293.745 497.952 293.745C500.142 293.745 501.926 294.441 503.305 295.834C504.698 297.214 505.395 299.232 505.395 301.891V317.885H499.765V302.744C499.765 301.28 499.367 300.206 498.571 299.524C497.789 298.827 496.829 298.479 495.692 298.479C494.341 298.479 493.289 298.905 492.536 299.758C491.782 300.597 491.405 301.678 491.405 303V317.885H485.861V302.531C485.861 301.294 485.498 300.313 484.773 299.588C484.048 298.848 483.089 298.479 481.894 298.479C481.084 298.479 480.345 298.685 479.677 299.097C479.008 299.51 478.475 300.085 478.077 300.825C477.693 301.564 477.501 302.417 477.501 303.384V317.885H471.893ZM520.109 318.354C517.721 318.354 515.659 317.856 513.925 316.861C512.19 315.852 510.854 314.43 509.916 312.596C508.992 310.762 508.53 308.601 508.53 306.113C508.53 303.654 508.992 301.5 509.916 299.652C510.84 297.789 512.141 296.339 513.818 295.301C515.496 294.264 517.472 293.745 519.747 293.745C521.211 293.745 522.597 293.979 523.905 294.448C525.227 294.917 526.393 295.643 527.402 296.624C528.426 297.604 529.229 298.856 529.812 300.377C530.395 301.884 530.687 303.682 530.687 305.772V307.521H511.153V303.746H527.893L525.27 304.855C525.27 303.504 525.064 302.332 524.652 301.336C524.239 300.327 523.628 299.538 522.818 298.969C522.007 298.401 520.998 298.116 519.789 298.116C518.581 298.116 517.55 298.401 516.697 298.969C515.844 299.538 515.197 300.306 514.757 301.272C514.316 302.225 514.096 303.291 514.096 304.471V307.094C514.096 308.544 514.344 309.788 514.842 310.826C515.354 311.85 516.065 312.632 516.974 313.172C517.899 313.712 518.972 313.982 520.195 313.982C520.991 313.982 521.716 313.869 522.37 313.641C523.038 313.414 523.607 313.072 524.076 312.617C524.559 312.148 524.929 311.572 525.185 310.89L530.431 311.509C530.089 312.888 529.457 314.096 528.533 315.134C527.623 316.157 526.45 316.954 525.014 317.522C523.592 318.077 521.957 318.354 520.109 318.354Z" fill="white"/>
<path d="M275.456 392.309V407.486H272.967V392.309H275.456ZM284.795 395.257C285.742 395.257 286.586 395.454 287.328 395.847C288.086 396.24 288.675 396.822 289.097 397.594C289.519 398.365 289.731 399.297 289.731 400.389V407.486H287.263V400.76C287.263 399.683 286.994 398.86 286.455 398.292C285.916 397.71 285.181 397.419 284.249 397.419C283.318 397.419 282.575 397.71 282.022 398.292C281.483 398.86 281.214 399.683 281.214 400.76V407.486H278.725V395.454H281.214V396.829C281.622 396.334 282.139 395.949 282.765 395.672C283.405 395.395 284.082 395.257 284.795 395.257ZM297.273 407.682C296.327 407.682 295.475 407.515 294.718 407.18C293.976 406.831 293.386 406.365 292.95 405.783C292.513 405.186 292.28 404.523 292.251 403.795H294.828C294.871 404.305 295.112 404.734 295.548 405.084C296 405.419 296.56 405.586 297.23 405.586C297.928 405.586 298.467 405.455 298.846 405.193C299.239 404.916 299.435 404.567 299.435 404.145C299.435 403.693 299.217 403.359 298.78 403.14C298.358 402.922 297.681 402.682 296.749 402.42C295.847 402.172 295.112 401.932 294.544 401.699C293.976 401.466 293.481 401.109 293.059 400.629C292.651 400.149 292.447 399.515 292.447 398.729C292.447 398.089 292.637 397.506 293.015 396.982C293.394 396.444 293.932 396.021 294.631 395.716C295.344 395.41 296.16 395.257 297.077 395.257C298.445 395.257 299.544 395.606 300.374 396.305C301.219 396.99 301.67 397.928 301.728 399.122H299.239C299.195 398.584 298.977 398.154 298.584 397.834C298.191 397.514 297.659 397.353 296.989 397.353C296.334 397.353 295.832 397.477 295.483 397.725C295.133 397.972 294.959 398.3 294.959 398.707C294.959 399.028 295.075 399.297 295.308 399.515C295.541 399.734 295.825 399.908 296.16 400.039C296.495 400.156 296.989 400.309 297.645 400.498C298.518 400.731 299.231 400.971 299.785 401.219C300.352 401.452 300.84 401.801 301.248 402.267C301.655 402.733 301.866 403.351 301.881 404.123C301.881 404.807 301.692 405.419 301.313 405.957C300.935 406.496 300.396 406.918 299.697 407.224C299.013 407.53 298.205 407.682 297.273 407.682ZM315.599 401.175C315.599 401.626 315.569 402.034 315.511 402.398H306.318C306.391 403.359 306.747 404.13 307.388 404.713C308.028 405.295 308.815 405.586 309.746 405.586C311.086 405.586 312.032 405.026 312.585 403.905H315.271C314.907 405.011 314.245 405.921 313.284 406.634C312.338 407.333 311.158 407.682 309.746 407.682C308.596 407.682 307.563 407.428 306.645 406.918C305.743 406.394 305.029 405.666 304.505 404.734C303.996 403.788 303.741 402.696 303.741 401.459C303.741 400.221 303.989 399.137 304.484 398.205C304.993 397.259 305.699 396.531 306.602 396.021C307.519 395.512 308.567 395.257 309.746 395.257C310.882 395.257 311.894 395.505 312.782 396C313.67 396.495 314.361 397.193 314.856 398.096C315.351 398.984 315.599 400.01 315.599 401.175ZM313 400.389C312.985 399.472 312.658 398.736 312.017 398.183C311.377 397.63 310.583 397.353 309.637 397.353C308.778 397.353 308.043 397.63 307.432 398.183C306.82 398.722 306.456 399.457 306.34 400.389H313ZM320.538 397.201C320.902 396.589 321.382 396.116 321.979 395.781C322.591 395.432 323.311 395.257 324.141 395.257V397.834H323.508C322.532 397.834 321.79 398.081 321.28 398.576C320.785 399.071 320.538 399.93 320.538 401.153V407.486H318.048V395.454H320.538V397.201ZM329.334 397.484V404.145C329.334 404.596 329.435 404.924 329.639 405.127C329.858 405.317 330.222 405.411 330.731 405.411H332.26V407.486H330.294C329.173 407.486 328.314 407.224 327.718 406.7C327.121 406.176 326.822 405.324 326.822 404.145V397.484H325.403V395.454H326.822V392.462H329.334V395.454H332.26V397.484H329.334ZM344.594 407.682C343.648 407.682 342.796 407.515 342.039 407.18C341.297 406.831 340.707 406.365 340.27 405.783C339.834 405.186 339.601 404.523 339.572 403.795H342.148C342.192 404.305 342.432 404.734 342.869 405.084C343.32 405.419 343.881 405.586 344.55 405.586C345.249 405.586 345.788 405.455 346.166 405.193C346.559 404.916 346.756 404.567 346.756 404.145C346.756 403.693 346.538 403.359 346.101 403.14C345.679 402.922 345.002 402.682 344.07 402.42C343.167 402.172 342.432 401.932 341.864 401.699C341.297 401.466 340.802 401.109 340.38 400.629C339.972 400.149 339.768 399.515 339.768 398.729C339.768 398.089 339.957 397.506 340.336 396.982C340.714 396.444 341.253 396.021 341.952 395.716C342.665 395.41 343.48 395.257 344.398 395.257C345.766 395.257 346.865 395.606 347.695 396.305C348.539 396.99 348.991 397.928 349.049 399.122H346.559C346.516 398.584 346.297 398.154 345.904 397.834C345.511 397.514 344.98 397.353 344.31 397.353C343.655 397.353 343.153 397.477 342.803 397.725C342.454 397.972 342.279 398.3 342.279 398.707C342.279 399.028 342.396 399.297 342.629 399.515C342.862 399.734 343.146 399.908 343.48 400.039C343.815 400.156 344.31 400.309 344.965 400.498C345.839 400.731 346.552 400.971 347.105 401.219C347.673 401.452 348.161 401.801 348.568 402.267C348.976 402.733 349.187 403.351 349.202 404.123C349.202 404.807 349.012 405.419 348.634 405.957C348.255 406.496 347.717 406.918 347.018 407.224C346.334 407.53 345.526 407.682 344.594 407.682ZM357.111 407.682C355.975 407.682 354.949 407.428 354.032 406.918C353.114 406.394 352.394 405.666 351.87 404.734C351.346 403.788 351.084 402.696 351.084 401.459C351.084 400.236 351.353 399.151 351.892 398.205C352.43 397.259 353.165 396.531 354.097 396.021C355.029 395.512 356.07 395.257 357.22 395.257C358.37 395.257 359.411 395.512 360.342 396.021C361.274 396.531 362.009 397.259 362.548 398.205C363.087 399.151 363.356 400.236 363.356 401.459C363.356 402.682 363.079 403.766 362.526 404.713C361.973 405.659 361.216 406.394 360.255 406.918C359.309 407.428 358.261 407.682 357.111 407.682ZM357.111 405.521C357.751 405.521 358.348 405.368 358.901 405.062C359.469 404.756 359.928 404.298 360.277 403.686C360.626 403.075 360.801 402.332 360.801 401.459C360.801 400.585 360.634 399.85 360.299 399.253C359.964 398.642 359.52 398.183 358.967 397.878C358.414 397.572 357.817 397.419 357.176 397.419C356.536 397.419 355.939 397.572 355.385 397.878C354.847 398.183 354.417 398.642 354.097 399.253C353.777 399.85 353.617 400.585 353.617 401.459C353.617 402.754 353.944 403.759 354.599 404.472C355.269 405.171 356.106 405.521 357.111 405.521ZM380.382 395.257C381.329 395.257 382.173 395.454 382.915 395.847C383.672 396.24 384.262 396.822 384.684 397.594C385.121 398.365 385.339 399.297 385.339 400.389V407.486H382.872V400.76C382.872 399.683 382.602 398.86 382.064 398.292C381.525 397.71 380.79 397.419 379.858 397.419C378.926 397.419 378.184 397.71 377.631 398.292C377.092 398.86 376.823 399.683 376.823 400.76V407.486H374.355V400.76C374.355 399.683 374.086 398.86 373.547 398.292C373.009 397.71 372.273 397.419 371.342 397.419C370.41 397.419 369.668 397.71 369.114 398.292C368.576 398.86 368.306 399.683 368.306 400.76V407.486H365.817V395.454H368.306V396.829C368.714 396.334 369.231 395.949 369.857 395.672C370.483 395.395 371.152 395.257 371.866 395.257C372.827 395.257 373.686 395.461 374.443 395.869C375.2 396.276 375.782 396.866 376.19 397.637C376.553 396.909 377.121 396.334 377.893 395.912C378.664 395.475 379.494 395.257 380.382 395.257ZM399.535 401.175C399.535 401.626 399.506 402.034 399.447 402.398H390.254C390.327 403.359 390.683 404.13 391.324 404.713C391.965 405.295 392.751 405.586 393.682 405.586C395.022 405.586 395.968 405.026 396.521 403.905H399.207C398.843 405.011 398.181 405.921 397.22 406.634C396.274 407.333 395.094 407.682 393.682 407.682C392.532 407.682 391.499 407.428 390.581 406.918C389.679 406.394 388.966 405.666 388.441 404.734C387.932 403.788 387.677 402.696 387.677 401.459C387.677 400.221 387.925 399.137 388.42 398.205C388.929 397.259 389.635 396.531 390.538 396.021C391.455 395.512 392.503 395.257 393.682 395.257C394.818 395.257 395.83 395.505 396.718 396C397.606 396.495 398.297 397.193 398.792 398.096C399.287 398.984 399.535 400.01 399.535 401.175ZM396.936 400.389C396.922 399.472 396.594 398.736 395.953 398.183C395.313 397.63 394.519 397.353 393.573 397.353C392.714 397.353 391.979 397.63 391.368 398.183C390.756 398.722 390.392 399.457 390.276 400.389H396.936ZM412.024 407.682C411.078 407.682 410.227 407.515 409.47 407.18C408.727 406.831 408.137 406.365 407.701 405.783C407.264 405.186 407.031 404.523 407.002 403.795H409.579C409.622 404.305 409.863 404.734 410.299 405.084C410.751 405.419 411.311 405.586 411.981 405.586C412.68 405.586 413.218 405.455 413.597 405.193C413.99 404.916 414.186 404.567 414.186 404.145C414.186 403.693 413.968 403.359 413.531 403.14C413.109 402.922 412.432 402.682 411.5 402.42C410.598 402.172 409.863 401.932 409.295 401.699C408.727 401.466 408.232 401.109 407.81 400.629C407.402 400.149 407.198 399.515 407.198 398.729C407.198 398.089 407.388 397.506 407.766 396.982C408.145 396.444 408.683 396.021 409.382 395.716C410.096 395.41 410.911 395.257 411.828 395.257C413.196 395.257 414.295 395.606 415.125 396.305C415.97 396.99 416.421 397.928 416.479 399.122H413.99C413.946 398.584 413.728 398.154 413.335 397.834C412.942 397.514 412.41 397.353 411.741 397.353C411.085 397.353 410.583 397.477 410.234 397.725C409.884 397.972 409.71 398.3 409.71 398.707C409.71 399.028 409.826 399.297 410.059 399.515C410.292 399.734 410.576 399.908 410.911 400.039C411.246 400.156 411.741 400.309 412.396 400.498C413.269 400.731 413.982 400.971 414.536 401.219C415.103 401.452 415.591 401.801 415.999 402.267C416.406 402.733 416.617 403.351 416.632 404.123C416.632 404.807 416.443 405.419 416.064 405.957C415.686 406.496 415.147 406.918 414.448 407.224C413.764 407.53 412.956 407.682 412.024 407.682ZM422.226 397.484V404.145C422.226 404.596 422.328 404.924 422.532 405.127C422.75 405.317 423.114 405.411 423.624 405.411H425.152V407.486H423.187C422.066 407.486 421.207 407.224 420.61 406.7C420.013 406.176 419.715 405.324 419.715 404.145V397.484H418.296V395.454H419.715V392.462H422.226V395.454H425.152V397.484H422.226ZM426.617 401.415C426.617 400.207 426.865 399.137 427.359 398.205C427.869 397.273 428.553 396.553 429.412 396.043C430.286 395.519 431.246 395.257 432.295 395.257C433.241 395.257 434.063 395.446 434.762 395.825C435.476 396.189 436.043 396.647 436.466 397.201V395.454H438.977V407.486H436.466V405.695C436.043 406.263 435.468 406.736 434.74 407.115C434.013 407.493 433.183 407.682 432.251 407.682C431.217 407.682 430.271 407.42 429.412 406.896C428.553 406.358 427.869 405.615 427.359 404.669C426.865 403.708 426.617 402.623 426.617 401.415ZM436.466 401.459C436.466 400.629 436.291 399.908 435.941 399.297C435.607 398.686 435.163 398.22 434.609 397.899C434.056 397.579 433.459 397.419 432.819 397.419C432.178 397.419 431.581 397.579 431.028 397.899C430.475 398.205 430.024 398.664 429.674 399.275C429.339 399.872 429.172 400.585 429.172 401.415C429.172 402.245 429.339 402.973 429.674 403.599C430.024 404.225 430.475 404.705 431.028 405.04C431.596 405.36 432.193 405.521 432.819 405.521C433.459 405.521 434.056 405.36 434.609 405.04C435.163 404.72 435.607 404.254 435.941 403.643C436.291 403.017 436.466 402.289 436.466 401.459ZM445.151 397.484V404.145C445.151 404.596 445.253 404.924 445.457 405.127C445.675 405.317 446.039 405.411 446.548 405.411H448.077V407.486H446.112C444.991 407.486 444.132 407.224 443.535 406.7C442.938 406.176 442.64 405.324 442.64 404.145V397.484H441.22V395.454H442.64V392.462H445.151V395.454H448.077V397.484H445.151ZM451.638 393.86C451.187 393.86 450.808 393.707 450.502 393.401C450.197 393.095 450.044 392.717 450.044 392.265C450.044 391.814 450.197 391.436 450.502 391.13C450.808 390.824 451.187 390.671 451.638 390.671C452.075 390.671 452.446 390.824 452.752 391.13C453.057 391.436 453.21 391.814 453.21 392.265C453.21 392.717 453.057 393.095 452.752 393.401C452.446 393.707 452.075 393.86 451.638 393.86ZM452.861 395.454V407.486H450.371V395.454H452.861ZM460.497 407.682C459.55 407.682 458.699 407.515 457.942 407.18C457.199 406.831 456.61 406.365 456.173 405.783C455.736 405.186 455.503 404.523 455.474 403.795H458.051C458.095 404.305 458.335 404.734 458.772 405.084C459.223 405.419 459.783 405.586 460.453 405.586C461.152 405.586 461.69 405.455 462.069 405.193C462.462 404.916 462.659 404.567 462.659 404.145C462.659 403.693 462.44 403.359 462.003 403.14C461.581 402.922 460.904 402.682 459.973 402.42C459.07 402.172 458.335 401.932 457.767 401.699C457.199 401.466 456.704 401.109 456.282 400.629C455.875 400.149 455.671 399.515 455.671 398.729C455.671 398.089 455.86 397.506 456.238 396.982C456.617 396.444 457.156 396.021 457.854 395.716C458.568 395.41 459.383 395.257 460.3 395.257C461.669 395.257 462.768 395.606 463.598 396.305C464.442 396.99 464.893 397.928 464.951 399.122H462.462C462.418 398.584 462.2 398.154 461.807 397.834C461.414 397.514 460.882 397.353 460.213 397.353C459.558 397.353 459.055 397.477 458.706 397.725C458.357 397.972 458.182 398.3 458.182 398.707C458.182 399.028 458.298 399.297 458.531 399.515C458.764 399.734 459.048 399.908 459.383 400.039C459.718 400.156 460.213 400.309 460.868 400.498C461.741 400.731 462.455 400.971 463.008 401.219C463.576 401.452 464.063 401.801 464.471 402.267C464.879 402.733 465.09 403.351 465.104 404.123C465.104 404.807 464.915 405.419 464.537 405.957C464.158 406.496 463.619 406.918 462.921 407.224C462.236 407.53 461.428 407.682 460.497 407.682ZM470.699 397.484V404.145C470.699 404.596 470.8 404.924 471.004 405.127C471.223 405.317 471.587 405.411 472.096 405.411H473.625V407.486H471.659C470.538 407.486 469.679 407.224 469.083 406.7C468.486 406.176 468.187 405.324 468.187 404.145V397.484H466.768V395.454H468.187V392.462H470.699V395.454H473.625V397.484H470.699ZM477.186 393.86C476.734 393.86 476.356 393.707 476.05 393.401C475.744 393.095 475.592 392.717 475.592 392.265C475.592 391.814 475.744 391.436 476.05 391.13C476.356 390.824 476.734 390.671 477.186 390.671C477.622 390.671 477.994 390.824 478.299 391.13C478.605 391.436 478.758 391.814 478.758 392.265C478.758 392.717 478.605 393.095 478.299 393.401C477.994 393.707 477.622 393.86 477.186 393.86ZM478.409 395.454V407.486H475.919V395.454H478.409ZM480.847 401.459C480.847 400.221 481.095 399.137 481.59 398.205C482.099 397.259 482.798 396.531 483.686 396.021C484.574 395.512 485.593 395.257 486.743 395.257C488.199 395.257 489.4 395.606 490.346 396.305C491.307 396.99 491.955 397.972 492.29 399.253H489.604C489.385 398.656 489.036 398.191 488.556 397.856C488.075 397.521 487.471 397.353 486.743 397.353C485.724 397.353 484.909 397.717 484.297 398.445C483.7 399.159 483.402 400.163 483.402 401.459C483.402 402.754 483.7 403.766 484.297 404.494C484.909 405.222 485.724 405.586 486.743 405.586C488.184 405.586 489.138 404.953 489.604 403.686H492.29C491.94 404.909 491.285 405.884 490.324 406.612C489.364 407.326 488.17 407.682 486.743 407.682C485.593 407.682 484.574 407.428 483.686 406.918C482.798 406.394 482.099 405.666 481.59 404.734C481.095 403.788 480.847 402.696 480.847 401.459ZM278.186 440.682C277.05 440.682 276.024 440.428 275.107 439.918C274.19 439.394 273.469 438.666 272.945 437.734C272.421 436.788 272.159 435.696 272.159 434.459C272.159 433.236 272.428 432.151 272.967 431.205C273.506 430.259 274.241 429.531 275.172 429.021C276.104 428.512 277.145 428.257 278.295 428.257C279.445 428.257 280.486 428.512 281.418 429.021C282.35 429.531 283.085 430.259 283.623 431.205C284.162 432.151 284.431 433.236 284.431 434.459C284.431 435.682 284.155 436.766 283.602 437.713C283.048 438.659 282.291 439.394 281.33 439.918C280.384 440.428 279.336 440.682 278.186 440.682ZM278.186 438.521C278.826 438.521 279.423 438.368 279.977 438.062C280.544 437.756 281.003 437.298 281.352 436.686C281.702 436.075 281.876 435.332 281.876 434.459C281.876 433.585 281.709 432.85 281.374 432.253C281.039 431.642 280.595 431.183 280.042 430.878C279.489 430.572 278.892 430.419 278.251 430.419C277.611 430.419 277.014 430.572 276.461 430.878C275.922 431.183 275.493 431.642 275.172 432.253C274.852 432.85 274.692 433.585 274.692 434.459C274.692 435.754 275.02 436.759 275.675 437.472C276.344 438.171 277.181 438.521 278.186 438.521ZM289.382 430.201C289.746 429.589 290.226 429.116 290.823 428.781C291.434 428.432 292.155 428.257 292.985 428.257V430.834H292.352C291.376 430.834 290.634 431.081 290.124 431.576C289.629 432.071 289.382 432.93 289.382 434.153V440.486H286.892V428.454H289.382V430.201ZM315.511 428.257C316.457 428.257 317.302 428.454 318.044 428.847C318.801 429.24 319.391 429.822 319.813 430.594C320.25 431.365 320.468 432.297 320.468 433.389V440.486H318V433.76C318 432.683 317.731 431.86 317.192 431.292C316.654 430.71 315.919 430.419 314.987 430.419C314.055 430.419 313.313 430.71 312.759 431.292C312.221 431.86 311.951 432.683 311.951 433.76V440.486H309.484V433.76C309.484 432.683 309.215 431.86 308.676 431.292C308.137 430.71 307.402 430.419 306.47 430.419C305.539 430.419 304.796 430.71 304.243 431.292C303.704 431.86 303.435 432.683 303.435 433.76V440.486H300.946V428.454H303.435V429.829C303.843 429.334 304.359 428.949 304.985 428.672C305.611 428.395 306.281 428.257 306.994 428.257C307.955 428.257 308.814 428.461 309.571 428.869C310.328 429.276 310.911 429.866 311.318 430.637C311.682 429.909 312.25 429.334 313.021 428.912C313.793 428.475 314.623 428.257 315.511 428.257ZM334.663 434.175C334.663 434.626 334.634 435.034 334.576 435.398H325.383C325.455 436.359 325.812 437.13 326.453 437.713C327.093 438.295 327.879 438.586 328.811 438.586C330.15 438.586 331.097 438.026 331.65 436.905H334.336C333.972 438.011 333.309 438.921 332.349 439.634C331.402 440.333 330.223 440.682 328.811 440.682C327.661 440.682 326.627 440.428 325.71 439.918C324.808 439.394 324.094 438.666 323.57 437.734C323.061 436.788 322.806 435.696 322.806 434.459C322.806 433.221 323.053 432.137 323.548 431.205C324.058 430.259 324.764 429.531 325.666 429.021C326.584 428.512 327.632 428.257 328.811 428.257C329.947 428.257 330.958 428.505 331.846 429C332.734 429.495 333.426 430.193 333.921 431.096C334.416 431.984 334.663 433.01 334.663 434.175ZM332.065 433.389C332.05 432.472 331.723 431.736 331.082 431.183C330.442 430.63 329.648 430.353 328.702 430.353C327.843 430.353 327.108 430.63 326.496 431.183C325.885 431.722 325.521 432.457 325.404 433.389H332.065ZM340.017 430.484V437.145C340.017 437.596 340.119 437.924 340.323 438.127C340.542 438.317 340.906 438.411 341.415 438.411H342.944V440.486H340.978C339.857 440.486 338.998 440.224 338.402 439.7C337.805 439.176 337.506 438.324 337.506 437.145V430.484H336.087V428.454H337.506V425.462H340.017V428.454H342.944V430.484H340.017ZM347.728 430.201C348.091 429.589 348.572 429.116 349.169 428.781C349.78 428.432 350.501 428.257 351.331 428.257V430.834H350.697C349.722 430.834 348.98 431.081 348.47 431.576C347.975 432.071 347.728 432.93 347.728 434.153V440.486H345.238V428.454H347.728V430.201ZM354.885 426.86C354.434 426.86 354.056 426.707 353.75 426.401C353.444 426.095 353.291 425.717 353.291 425.265C353.291 424.814 353.444 424.436 353.75 424.13C354.056 423.824 354.434 423.671 354.885 423.671C355.322 423.671 355.693 423.824 355.999 424.13C356.305 424.436 356.458 424.814 356.458 425.265C356.458 425.717 356.305 426.095 355.999 426.401C355.693 426.707 355.322 426.86 354.885 426.86ZM356.108 428.454V440.486H353.619V428.454H356.108ZM358.547 434.459C358.547 433.221 358.794 432.137 359.289 431.205C359.799 430.259 360.498 429.531 361.386 429.021C362.274 428.512 363.293 428.257 364.443 428.257C365.899 428.257 367.1 428.606 368.046 429.305C369.007 429.99 369.655 430.972 369.99 432.253H367.304C367.085 431.656 366.736 431.191 366.255 430.856C365.775 430.521 365.171 430.353 364.443 430.353C363.424 430.353 362.609 430.717 361.997 431.445C361.4 432.159 361.102 433.163 361.102 434.459C361.102 435.754 361.4 436.766 361.997 437.494C362.609 438.222 363.424 438.586 364.443 438.586C365.884 438.586 366.838 437.953 367.304 436.686H369.99C369.64 437.909 368.985 438.884 368.024 439.612C367.063 440.326 365.87 440.682 364.443 440.682C363.293 440.682 362.274 440.428 361.386 439.918C360.498 439.394 359.799 438.666 359.289 437.734C358.794 436.788 358.547 435.696 358.547 434.459ZM384.214 428.257C385.16 428.257 386.004 428.454 386.747 428.847C387.504 429.24 388.093 429.822 388.516 430.594C388.938 431.365 389.149 432.297 389.149 433.389V440.486H386.681V433.76C386.681 432.683 386.412 431.86 385.873 431.292C385.335 430.71 384.599 430.419 383.668 430.419C382.736 430.419 381.994 430.71 381.44 431.292C380.902 431.86 380.632 432.683 380.632 433.76V440.486H378.143V428.454H380.632V429.829C381.04 429.334 381.557 428.949 382.183 428.672C382.823 428.395 383.5 428.257 384.214 428.257ZM391.494 434.415C391.494 433.207 391.742 432.137 392.237 431.205C392.746 430.273 393.431 429.553 394.29 429.043C395.163 428.519 396.124 428.257 397.172 428.257C398.118 428.257 398.941 428.446 399.64 428.825C400.353 429.189 400.921 429.647 401.343 430.201V428.454H403.854V440.486H401.343V438.695C400.921 439.263 400.346 439.736 399.618 440.115C398.89 440.493 398.06 440.682 397.128 440.682C396.095 440.682 395.148 440.42 394.29 439.896C393.431 439.358 392.746 438.615 392.237 437.669C391.742 436.708 391.494 435.623 391.494 434.415ZM401.343 434.459C401.343 433.629 401.168 432.908 400.819 432.297C400.484 431.686 400.04 431.22 399.487 430.899C398.934 430.579 398.337 430.419 397.696 430.419C397.056 430.419 396.459 430.579 395.905 430.899C395.352 431.205 394.901 431.664 394.552 432.275C394.217 432.872 394.049 433.585 394.049 434.415C394.049 435.245 394.217 435.973 394.552 436.599C394.901 437.225 395.352 437.705 395.905 438.04C396.473 438.36 397.07 438.521 397.696 438.521C398.337 438.521 398.934 438.36 399.487 438.04C400.04 437.72 400.484 437.254 400.819 436.643C401.168 436.017 401.343 435.289 401.343 434.459ZM421.689 428.257C422.635 428.257 423.48 428.454 424.222 428.847C424.979 429.24 425.569 429.822 425.991 430.594C426.428 431.365 426.646 432.297 426.646 433.389V440.486H424.179V433.76C424.179 432.683 423.909 431.86 423.371 431.292C422.832 430.71 422.097 430.419 421.165 430.419C420.233 430.419 419.491 430.71 418.938 431.292C418.399 431.86 418.13 432.683 418.13 433.76V440.486H415.662V433.76C415.662 432.683 415.393 431.86 414.854 431.292C414.316 430.71 413.58 430.419 412.649 430.419C411.717 430.419 410.975 430.71 410.421 431.292C409.883 431.86 409.613 432.683 409.613 433.76V440.486H407.124V428.454H409.613V429.829C410.021 429.334 410.538 428.949 411.164 428.672C411.79 428.395 412.459 428.257 413.173 428.257C414.134 428.257 414.993 428.461 415.75 428.869C416.507 429.276 417.089 429.866 417.496 430.637C417.86 429.909 418.428 429.334 419.2 428.912C419.971 428.475 420.801 428.257 421.689 428.257ZM440.842 434.175C440.842 434.626 440.813 435.034 440.754 435.398H431.561C431.634 436.359 431.99 437.13 432.631 437.713C433.271 438.295 434.058 438.586 434.989 438.586C436.329 438.586 437.275 438.026 437.828 436.905H440.514C440.15 438.011 439.488 438.921 438.527 439.634C437.581 440.333 436.401 440.682 434.989 440.682C433.839 440.682 432.806 440.428 431.888 439.918C430.986 439.394 430.273 438.666 429.748 437.734C429.239 436.788 428.984 435.696 428.984 434.459C428.984 433.221 429.232 432.137 429.727 431.205C430.236 430.259 430.942 429.531 431.845 429.021C432.762 428.512 433.81 428.257 434.989 428.257C436.125 428.257 437.137 428.505 438.025 429C438.913 429.495 439.604 430.193 440.099 431.096C440.594 431.984 440.842 433.01 440.842 434.175ZM438.243 433.389C438.228 432.472 437.901 431.736 437.26 431.183C436.62 430.63 435.826 430.353 434.88 430.353C434.021 430.353 433.286 430.63 432.675 431.183C432.063 431.722 431.699 432.457 431.583 433.389H438.243Z" fill="white" fill-opacity="0.66"/>
<rect x="636.417" y="227.885" width="94.8546" height="53.2278" rx="26.6139" fill="url(#paint17_radial_1109_2478)"/>
<rect x="637.099" y="228.567" width="93.4898" height="51.863" rx="25.9315" stroke="url(#paint18_linear_1109_2478)" stroke-opacity="0.3" stroke-width="1.36481"/>
<path d="M660.621 262.948V249.527H663.659V262.948H660.621ZM655.436 257.764V254.711H668.844V257.764H655.436ZM679.893 244.262V264.121H676.321V247.767H676.201L671.563 250.74V247.434L676.495 244.262H679.893ZM690.396 244.262V264.121H686.824V247.767H686.704L682.066 250.74V247.434L686.997 244.262H690.396ZM703.711 260.389V259.35C703.711 258.577 703.871 257.866 704.191 257.217C704.511 256.568 704.986 256.049 705.617 255.658C706.248 255.267 707.012 255.071 707.909 255.071C708.825 255.071 709.593 255.267 710.215 255.658C710.837 256.049 711.304 256.568 711.615 257.217C711.934 257.857 712.094 258.568 712.094 259.35V260.389C712.094 261.162 711.934 261.873 711.615 262.522C711.295 263.17 710.824 263.69 710.202 264.081C709.58 264.472 708.816 264.668 707.909 264.668C707.003 264.668 706.234 264.472 705.604 264.081C704.973 263.69 704.497 263.17 704.177 262.522C703.866 261.873 703.711 261.162 703.711 260.389ZM706.23 259.35V260.389C706.23 260.905 706.354 261.375 706.603 261.802C706.852 262.228 707.287 262.442 707.909 262.442C708.522 262.442 708.949 262.228 709.189 261.802C709.429 261.375 709.549 260.905 709.549 260.389V259.35C709.549 258.834 709.433 258.363 709.202 257.937C708.98 257.51 708.549 257.297 707.909 257.297C707.296 257.297 706.861 257.51 706.603 257.937C706.354 258.363 706.23 258.834 706.23 259.35ZM693.621 249.033V247.994C693.621 247.212 693.786 246.501 694.115 245.861C694.443 245.213 694.919 244.693 695.541 244.302C696.163 243.911 696.918 243.716 697.807 243.716C698.731 243.716 699.504 243.911 700.126 244.302C700.748 244.693 701.219 245.213 701.538 245.861C701.858 246.501 702.014 247.212 702.005 247.994V249.033C702.014 249.807 701.854 250.517 701.525 251.166C701.196 251.815 700.721 252.334 700.099 252.725C699.477 253.108 698.713 253.299 697.807 253.299C696.9 253.299 696.136 253.103 695.514 252.712C694.892 252.321 694.421 251.801 694.101 251.153C693.781 250.504 693.621 249.798 693.621 249.033ZM696.167 247.994V249.033C696.167 249.549 696.287 250.02 696.527 250.446C696.767 250.873 697.193 251.082 697.807 251.073C698.437 251.082 698.868 250.873 699.099 250.446C699.339 250.02 699.459 249.549 699.459 249.033V247.994C699.459 247.479 699.344 247.008 699.113 246.581C698.891 246.146 698.455 245.928 697.807 245.928C697.202 245.928 696.776 246.146 696.527 246.581C696.287 247.016 696.167 247.487 696.167 247.994ZM694.714 264.121L708.362 244.262H710.802L697.153 264.121H694.714Z" fill="#222222"/>
<defs>
<linearGradient id="paint0_linear_1109_2478" x1="232.749" y1="417.43" x2="758.203" y2="417.43" gradientUnits="userSpaceOnUse">
<stop stop-color="#CC2B5E"/>
<stop offset="1" stop-color="#753A88"/>
</linearGradient>
<linearGradient id="paint1_linear_1109_2478" x1="232.749" y1="212.886" x2="826.381" y2="396.736" gradientUnits="userSpaceOnUse">
<stop stop-color="#7A3A86"/>
<stop offset="0.325893" stop-color="#90357B"/>
<stop offset="0.695684" stop-color="#B22F6B"/>
<stop offset="1" stop-color="#C52C60"/>
</linearGradient>
<linearGradient id="paint2_linear_1109_2478" x1="-47.7943" y1="-53.7558" x2="148.971" y2="118.948" gradientUnits="userSpaceOnUse">
<stop stop-color="white" stop-opacity="0.4"/>
<stop offset="1" stop-color="white" stop-opacity="0"/>
</linearGradient>
<linearGradient id="paint3_linear_1109_2478" x1="295.294" y1="520.072" x2="295.294" y2="594.884" gradientUnits="userSpaceOnUse">
<stop stop-color="white"/>
<stop offset="1" stop-color="white" stop-opacity="0"/>
</linearGradient>
<linearGradient id="paint4_linear_1109_2478" x1="295.294" y1="520.072" x2="295.294" y2="594.884" gradientUnits="userSpaceOnUse">
<stop stop-color="white"/>
<stop offset="1" stop-color="white" stop-opacity="0.07"/>
</linearGradient>
<linearGradient id="paint5_linear_1109_2478" x1="362.58" y1="525.417" x2="362.58" y2="594.884" gradientUnits="userSpaceOnUse">
<stop stop-color="white"/>
<stop offset="1" stop-color="white" stop-opacity="0"/>
</linearGradient>
<linearGradient id="paint6_linear_1109_2478" x1="362.58" y1="525.417" x2="362.58" y2="594.884" gradientUnits="userSpaceOnUse">
<stop stop-color="white"/>
<stop offset="1" stop-color="white" stop-opacity="0.07"/>
</linearGradient>
<linearGradient id="paint7_linear_1109_2478" x1="429.866" y1="509.384" x2="429.866" y2="594.884" gradientUnits="userSpaceOnUse">
<stop stop-color="white"/>
<stop offset="1" stop-color="white" stop-opacity="0"/>
</linearGradient>
<linearGradient id="paint8_linear_1109_2478" x1="429.866" y1="509.384" x2="429.866" y2="594.884" gradientUnits="userSpaceOnUse">
<stop stop-color="white"/>
<stop offset="1" stop-color="white" stop-opacity="0.07"/>
</linearGradient>
<linearGradient id="paint9_linear_1109_2478" x1="497.151" y1="476.131" x2="497.151" y2="594.884" gradientUnits="userSpaceOnUse">
<stop stop-color="white"/>
<stop offset="1" stop-color="white" stop-opacity="0"/>
</linearGradient>
<linearGradient id="paint10_linear_1109_2478" x1="497.151" y1="476.131" x2="497.151" y2="594.884" gradientUnits="userSpaceOnUse">
<stop stop-color="white"/>
<stop offset="1" stop-color="white" stop-opacity="0.07"/>
</linearGradient>
<linearGradient id="paint11_linear_1109_2478" x1="564.437" y1="466.037" x2="564.437" y2="594.884" gradientUnits="userSpaceOnUse">
<stop stop-color="white"/>
<stop offset="1" stop-color="white" stop-opacity="0"/>
</linearGradient>
<linearGradient id="paint12_linear_1109_2478" x1="564.437" y1="466.037" x2="564.437" y2="594.884" gradientUnits="userSpaceOnUse">
<stop stop-color="white"/>
<stop offset="1" stop-color="white" stop-opacity="0.07"/>
</linearGradient>
<linearGradient id="paint13_linear_1109_2478" x1="631.723" y1="432.19" x2="631.723" y2="594.884" gradientUnits="userSpaceOnUse">
<stop stop-color="white"/>
<stop offset="1" stop-color="white" stop-opacity="0"/>
</linearGradient>
<linearGradient id="paint14_linear_1109_2478" x1="631.723" y1="432.19" x2="631.723" y2="594.884" gradientUnits="userSpaceOnUse">
<stop stop-color="white"/>
<stop offset="1" stop-color="white" stop-opacity="0.07"/>
</linearGradient>
<linearGradient id="paint15_linear_1109_2478" x1="699.008" y1="390.624" x2="699.008" y2="594.884" gradientUnits="userSpaceOnUse">
<stop stop-color="white"/>
<stop offset="1" stop-color="white" stop-opacity="0"/>
</linearGradient>
<linearGradient id="paint16_linear_1109_2478" x1="699.008" y1="390.624" x2="699.008" y2="594.884" gradientUnits="userSpaceOnUse">
<stop stop-color="white"/>
<stop offset="1" stop-color="white" stop-opacity="0.07"/>
</linearGradient>
<radialGradient id="paint17_radial_1109_2478" cx="0" cy="0" r="1" gradientUnits="userSpaceOnUse" gradientTransform="translate(641.834 204.395) rotate(41.4119) scale(108.896 119.879)">
<stop stop-color="white"/>
<stop offset="1" stop-color="white" stop-opacity="0.27"/>
</radialGradient>
<linearGradient id="paint18_linear_1109_2478" x1="636.417" y1="229.84" x2="733.071" y2="274.663" gradientUnits="userSpaceOnUse">
<stop stop-color="#222222"/>
<stop offset="0.325893" stop-color="#222222" stop-opacity="0.256139"/>
<stop offset="0.695684" stop-color="#222222" stop-opacity="0.735087"/>
<stop offset="1" stop-color="#222222" stop-opacity="0.07"/>
</linearGradient>
</defs>
</svg>
