<svg width="314" height="176" viewBox="0 0 314 176" fill="none" xmlns="http://www.w3.org/2000/svg">
<rect x="0.387207" y="0.929688" width="313.109" height="174.326" rx="16.9248" fill="#303030"/>
<mask id="mask0_1493_1544" style="mask-type:alpha" maskUnits="userSpaceOnUse" x="0" y="0" width="314" height="176">
<rect x="0.387207" y="0.929688" width="313.109" height="174.326" rx="16.9248" fill="url(#paint0_linear_1493_1544)"/>
</mask>
<g mask="url(#mask0_1493_1544)">
<path d="M52.8542 167.639C52.8542 196.616 29.364 220.106 0.387249 220.106C-28.5895 220.106 -52.0797 196.616 -52.0797 167.639C-52.0797 138.662 -28.5895 115.172 0.387249 115.172C29.364 115.172 52.8542 138.662 52.8542 167.639Z" fill="#7030A0"/>
<ellipse cx="60.6938" cy="61.938" rx="60.6938" ry="61.938" transform="matrix(0.861361 -0.507994 0.492048 0.870568 269.492 38.8984)" fill="#7030A0"/>
<circle cx="-21.6151" cy="116.018" r="52.467" fill="#545454"/>
<ellipse cx="60.6938" cy="61.938" rx="60.6938" ry="61.938" transform="matrix(0.861361 -0.507994 0.492048 0.870568 216.179 -19.4922)" fill="#545454"/>
</g>
<path d="M89.6971 77L83.4518 64.9664C82.741 64.9664 81.9624 64.9664 81.1162 64.9664C80.2699 64.9326 79.4237 64.9157 78.5774 64.9157C77.7312 64.8818 76.9188 64.8649 76.1403 64.8649V58.5689H84.7719C85.3474 58.5689 85.9059 58.4842 86.4475 58.315C86.9891 58.1119 87.463 57.7734 87.8692 57.2995C88.3092 56.8256 88.6477 56.1825 88.8847 55.3701C89.1555 54.5238 89.2909 53.4576 89.2909 52.1713C89.2909 50.6142 89.1047 49.4125 88.7323 48.5663C88.36 47.6862 87.8692 47.0769 87.2599 46.7384C86.6506 46.3661 85.9228 46.1799 85.0766 46.1799H76.1403V39.4269H86.0921C87.3107 39.4269 88.5462 39.6131 89.7986 39.9854C91.0849 40.3577 92.2527 41.0178 93.302 41.9656C94.3514 42.9134 95.1976 44.2166 95.8408 45.8752C96.4839 47.5 96.8055 49.5987 96.8055 52.1713C96.8055 54.27 96.6362 56.0301 96.2977 57.4518C95.9931 58.8397 95.57 59.9736 95.0284 60.8537C94.4868 61.7338 93.8606 62.4277 93.1497 62.9355C92.4389 63.4094 91.728 63.7986 91.0172 64.1033L97.8718 77H89.6971ZM76.1403 54.2023V50.3942H102.898V54.2023H76.1403ZM84.7719 43.235V39.4269H102.898V43.235H84.7719ZM123.481 76.9492V69.0284H107.03L105.609 65.4742L117.794 39.4269H125.461L114.545 62.6308H123.481V55.3193L124.954 51.0035H130.996V62.6308H134.855V67.8098L130.996 69.0284V76.9492H123.481ZM141.209 81.5189C140.565 81.5189 140.007 81.4682 139.533 81.3666C139.059 81.2651 138.822 81.2143 138.822 81.2143V78.8279C139.296 78.8279 139.635 78.7602 139.838 78.6248C140.075 78.4894 140.193 78.2186 140.193 77.8124V76.4923H139.685C139.381 76.4923 139.127 76.4076 138.924 76.2384C138.721 76.0353 138.619 75.7476 138.619 75.3752V70.9578C138.619 70.1793 138.974 69.79 139.685 69.79H143.95C144.357 69.79 144.627 69.9085 144.763 70.1454C144.932 70.3485 145.017 70.6193 145.017 70.9578V77.9139C145.017 78.8956 144.814 79.6572 144.407 80.1988C144.001 80.7404 143.51 81.0958 142.935 81.2651C142.359 81.4343 141.784 81.5189 141.209 81.5189ZM161.448 77.2539C159.789 77.2539 158.114 77.1862 156.421 77.0508C154.762 76.9154 153.256 76.7123 151.902 76.4415V70.5009H160.737C163.276 70.5009 165.137 69.7223 166.322 68.1652C167.507 66.5743 168.099 64.2387 168.099 61.1584C167.355 61.3953 166.525 61.5815 165.611 61.7169C164.731 61.8523 163.8 61.9369 162.819 61.9708C161.837 62.0046 160.771 62.0215 159.62 62.0215C157.149 62.0215 155.186 61.683 153.73 61.006C152.274 60.2952 151.225 59.2966 150.582 58.0103C149.973 56.7241 149.668 55.1839 149.668 53.3899V48.0078C149.668 45.9091 150.057 44.2166 150.836 42.9303C151.614 41.6102 152.698 40.6624 154.085 40.087C155.507 39.4777 157.132 39.173 158.96 39.173H164.393C166.221 39.173 167.828 39.4607 169.216 40.0362C170.638 40.5778 171.823 41.5256 172.77 42.8795C173.718 44.2335 174.429 46.1291 174.903 48.5663C175.411 50.9696 175.665 54.0161 175.665 57.7057C175.665 61.3615 175.343 64.4587 174.7 66.9974C174.057 69.5023 173.126 71.5164 171.907 73.0396C170.689 74.529 169.199 75.6122 167.439 76.2892C165.679 76.9323 163.682 77.2539 161.448 77.2539ZM161.752 55.6239H168.099C168.099 53.6945 167.998 52.1036 167.795 50.8511C167.591 49.5987 167.27 48.6171 166.83 47.9062C166.424 47.1615 165.899 46.6538 165.256 46.383C164.613 46.0783 163.834 45.926 162.92 45.926H160.635C159.925 45.926 159.298 46.0445 158.757 46.2814C158.249 46.5184 157.86 46.8907 157.589 47.3985C157.318 47.9062 157.183 48.6171 157.183 49.531V51.9682C157.183 52.9498 157.335 53.7114 157.64 54.253C157.978 54.7608 158.486 55.1162 159.163 55.3193C159.84 55.5224 160.703 55.6239 161.752 55.6239ZM192.289 77.2539C190.631 77.2539 188.955 77.1862 187.263 77.0508C185.604 76.9154 184.098 76.7123 182.744 76.4415V70.5009H191.578C194.117 70.5009 195.979 69.7223 197.164 68.1652C198.348 66.5743 198.941 64.2387 198.941 61.1584C198.196 61.3953 197.367 61.5815 196.453 61.7169C195.573 61.8523 194.642 61.9369 193.66 61.9708C192.679 62.0046 191.612 62.0215 190.461 62.0215C187.99 62.0215 186.027 61.683 184.572 61.006C183.116 60.2952 182.067 59.2966 181.424 58.0103C180.814 56.7241 180.51 55.1839 180.51 53.3899V48.0078C180.51 45.9091 180.899 44.2166 181.677 42.9303C182.456 41.6102 183.539 40.6624 184.927 40.087C186.349 39.4777 187.973 39.173 189.801 39.173H195.234C197.062 39.173 198.67 39.4607 200.058 40.0362C201.479 40.5778 202.664 41.5256 203.612 42.8795C204.56 44.2335 205.271 46.1291 205.745 48.5663C206.252 50.9696 206.506 54.0161 206.506 57.7057C206.506 61.3615 206.185 64.4587 205.541 66.9974C204.898 69.5023 203.967 71.5164 202.749 73.0396C201.53 74.529 200.041 75.6122 198.281 76.2892C196.52 76.9323 194.523 77.2539 192.289 77.2539ZM192.594 55.6239H198.941C198.941 53.6945 198.839 52.1036 198.636 50.8511C198.433 49.5987 198.111 48.6171 197.671 47.9062C197.265 47.1615 196.741 46.6538 196.097 46.383C195.454 46.0783 194.676 45.926 193.762 45.926H191.477C190.766 45.926 190.14 46.0445 189.598 46.2814C189.09 46.5184 188.701 46.8907 188.43 47.3985C188.16 47.9062 188.024 48.6171 188.024 49.531V51.9682C188.024 52.9498 188.177 53.7114 188.481 54.253C188.82 54.7608 189.327 55.1162 190.004 55.3193C190.681 55.5224 191.545 55.6239 192.594 55.6239ZM223.131 77.2539C221.472 77.2539 219.797 77.1862 218.104 77.0508C216.445 76.9154 214.939 76.7123 213.585 76.4415V70.5009H222.42C224.959 70.5009 226.82 69.7223 228.005 68.1652C229.19 66.5743 229.782 64.2387 229.782 61.1584C229.038 61.3953 228.208 61.5815 227.294 61.7169C226.414 61.8523 225.483 61.9369 224.502 61.9708C223.52 62.0046 222.454 62.0215 221.303 62.0215C218.832 62.0215 216.869 61.683 215.413 61.006C213.958 60.2952 212.908 59.2966 212.265 58.0103C211.656 56.7241 211.351 55.1839 211.351 53.3899V48.0078C211.351 45.9091 211.74 44.2166 212.519 42.9303C213.297 41.6102 214.381 40.6624 215.769 40.087C217.19 39.4777 218.815 39.173 220.643 39.173H226.076C227.904 39.173 229.511 39.4607 230.899 40.0362C232.321 40.5778 233.506 41.5256 234.454 42.8795C235.401 44.2335 236.112 46.1291 236.586 48.5663C237.094 50.9696 237.348 54.0161 237.348 57.7057C237.348 61.3615 237.026 64.4587 236.383 66.9974C235.74 69.5023 234.809 71.5164 233.59 73.0396C232.372 74.529 230.882 75.6122 229.122 76.2892C227.362 76.9323 225.365 77.2539 223.131 77.2539ZM223.435 55.6239H229.782C229.782 53.6945 229.681 52.1036 229.478 50.8511C229.275 49.5987 228.953 48.6171 228.513 47.9062C228.107 47.1615 227.582 46.6538 226.939 46.383C226.296 46.0783 225.517 45.926 224.603 45.926H222.318C221.608 45.926 220.981 46.0445 220.44 46.2814C219.932 46.5184 219.543 46.8907 219.272 47.3985C219.001 47.9062 218.866 48.6171 218.866 49.531V51.9682C218.866 52.9498 219.018 53.7114 219.323 54.253C219.661 54.7608 220.169 55.1162 220.846 55.3193C221.523 55.5224 222.386 55.6239 223.435 55.6239Z" fill="white"/>
<path d="M122.463 104.101V92.9948H123.643L123.902 93.7717C124.084 93.6374 124.3 93.5031 124.549 93.3689C124.808 93.2346 125.086 93.1243 125.384 93.038C125.691 92.9421 125.997 92.8941 126.304 92.8941C126.793 92.8941 127.211 92.9948 127.556 93.1962C127.911 93.3977 128.198 93.6806 128.419 94.045C128.64 94.3999 128.798 94.8171 128.894 95.2966C128.999 95.7762 129.052 96.2893 129.052 96.8359C129.052 97.6895 128.956 98.4136 128.764 99.0082C128.582 99.5933 128.29 100.039 127.887 100.346C127.494 100.643 126.966 100.792 126.304 100.792C125.902 100.792 125.489 100.735 125.067 100.619C124.645 100.495 124.257 100.332 123.902 100.13V104.101H122.463ZM125.873 99.5837C126.199 99.5837 126.491 99.5022 126.75 99.3391C127.009 99.1761 127.215 98.8979 127.369 98.5047C127.532 98.1019 127.613 97.5456 127.613 96.8359C127.613 96.1646 127.532 95.6275 127.369 95.2247C127.206 94.8123 126.995 94.5198 126.736 94.3471C126.477 94.1649 126.194 94.0738 125.887 94.0738C125.484 94.0738 125.115 94.1361 124.779 94.2608C124.453 94.3855 124.161 94.515 123.902 94.6492V99.037C124.199 99.2 124.516 99.3343 124.851 99.4398C125.197 99.5357 125.537 99.5837 125.873 99.5837ZM133.844 100.778C133.029 100.778 132.376 100.658 131.887 100.418C131.408 100.178 131.062 99.7755 130.851 99.2096C130.65 98.6342 130.549 97.843 130.549 96.8359C130.549 95.8097 130.65 95.0137 130.851 94.4478C131.062 93.8724 131.408 93.4696 131.887 93.2394C132.367 93.0092 133.014 92.8941 133.829 92.8941C134.539 92.8941 135.11 92.9709 135.541 93.1243C135.983 93.2682 136.304 93.5319 136.505 93.9156C136.716 94.2896 136.822 94.8123 136.822 95.4836C136.822 95.9536 136.726 96.3276 136.534 96.6058C136.352 96.8839 136.088 97.0853 135.743 97.21C135.407 97.3346 135.004 97.397 134.534 97.397H131.988C131.998 97.9533 132.06 98.3992 132.175 98.7349C132.3 99.061 132.515 99.3007 132.822 99.4542C133.139 99.5981 133.599 99.67 134.203 99.67H136.606V100.533C136.193 100.591 135.772 100.643 135.34 100.691C134.908 100.749 134.41 100.778 133.844 100.778ZM131.974 96.4907H134.405C134.788 96.4907 135.071 96.4187 135.254 96.2749C135.436 96.131 135.527 95.8673 135.527 95.4836C135.527 95.1 135.469 94.7979 135.354 94.5773C135.249 94.3567 135.071 94.1985 134.822 94.1026C134.573 94.0067 134.242 93.9587 133.829 93.9587C133.359 93.9587 132.985 94.0306 132.707 94.1745C132.439 94.3184 132.247 94.5725 132.132 94.937C132.026 95.3014 131.974 95.8193 131.974 96.4907ZM138.577 100.691V92.9948H139.685L140.016 94.2896C140.342 93.8964 140.707 93.5655 141.109 93.2969C141.512 93.0284 141.982 92.8941 142.519 92.8941C142.644 92.8941 142.764 92.9037 142.879 92.9229C142.994 92.9325 143.104 92.9517 143.21 92.9805V94.4622C143.075 94.443 142.936 94.4287 142.792 94.4191C142.649 94.3999 142.5 94.3903 142.347 94.3903C142.02 94.3903 141.728 94.4287 141.469 94.5054C141.21 94.5821 140.961 94.702 140.721 94.865C140.491 95.0185 140.256 95.2103 140.016 95.4405V100.691H138.577ZM151.491 100.778C151.261 100.778 150.997 100.768 150.7 100.749C150.412 100.739 150.115 100.72 149.808 100.691C149.51 100.663 149.223 100.634 148.945 100.605C148.676 100.576 148.446 100.538 148.254 100.49V99.3679C148.503 99.3871 148.801 99.4062 149.146 99.4254C149.501 99.4446 149.875 99.459 150.268 99.4686C150.671 99.4782 151.059 99.483 151.433 99.483C151.846 99.483 152.21 99.4446 152.527 99.3679C152.853 99.2912 153.107 99.1473 153.289 98.9363C153.481 98.7253 153.577 98.428 153.577 98.0444V97.4258C153.577 96.9942 153.457 96.6633 153.217 96.4331C152.987 96.2029 152.632 96.0879 152.153 96.0879H151.074C150.153 96.0879 149.438 95.8864 148.93 95.4836C148.431 95.0808 148.182 94.3903 148.182 93.412V92.8366C148.182 91.82 148.455 91.0959 149.002 90.6643C149.558 90.2231 150.345 90.0025 151.361 90.0025C151.697 90.0025 152.057 90.0217 152.44 90.0601C152.824 90.0888 153.198 90.1272 153.563 90.1752C153.927 90.2231 154.229 90.2711 154.469 90.319V91.4411C154.037 91.4124 153.553 91.3836 153.016 91.3548C152.488 91.3165 151.99 91.2973 151.52 91.2973C151.117 91.2973 150.767 91.3452 150.469 91.4411C150.182 91.5275 149.956 91.6857 149.793 91.9159C149.64 92.1461 149.563 92.4721 149.563 92.8941V93.3257C149.563 93.8436 149.702 94.2033 149.98 94.4047C150.258 94.6061 150.647 94.7068 151.146 94.7068H152.311C152.915 94.7068 153.409 94.8171 153.793 95.0377C154.186 95.2583 154.478 95.5604 154.67 95.944C154.862 96.3276 154.958 96.764 154.958 97.2531V98.0012C154.958 98.7493 154.805 99.3247 154.498 99.7275C154.191 100.13 153.778 100.408 153.26 100.562C152.743 100.706 152.153 100.778 151.491 100.778ZM159.792 100.778C158.977 100.778 158.325 100.658 157.836 100.418C157.356 100.178 157.011 99.7755 156.8 99.2096C156.598 98.6342 156.498 97.843 156.498 96.8359C156.498 95.8097 156.598 95.0137 156.8 94.4478C157.011 93.8724 157.356 93.4696 157.836 93.2394C158.315 93.0092 158.963 92.8941 159.778 92.8941C160.487 92.8941 161.058 92.9709 161.49 93.1243C161.931 93.2682 162.252 93.5319 162.454 93.9156C162.665 94.2896 162.77 94.8123 162.77 95.4836C162.77 95.9536 162.674 96.3276 162.482 96.6058C162.3 96.8839 162.036 97.0853 161.691 97.21C161.355 97.3346 160.953 97.397 160.483 97.397H157.936C157.946 97.9533 158.008 98.3992 158.123 98.7349C158.248 99.061 158.464 99.3007 158.771 99.4542C159.087 99.5981 159.548 99.67 160.152 99.67H162.554V100.533C162.142 100.591 161.72 100.643 161.288 100.691C160.857 100.749 160.358 100.778 159.792 100.778ZM157.922 96.4907H160.353C160.737 96.4907 161.02 96.4187 161.202 96.2749C161.384 96.131 161.475 95.8673 161.475 95.4836C161.475 95.1 161.418 94.7979 161.303 94.5773C161.197 94.3567 161.02 94.1985 160.77 94.1026C160.521 94.0067 160.19 93.9587 159.778 93.9587C159.308 93.9587 158.934 94.0306 158.656 94.1745C158.387 94.3184 158.195 94.5725 158.08 94.937C157.975 95.3014 157.922 95.8193 157.922 96.4907ZM167.561 100.778C166.746 100.778 166.094 100.658 165.605 100.418C165.125 100.178 164.78 99.7755 164.569 99.2096C164.367 98.6342 164.267 97.843 164.267 96.8359C164.267 95.8097 164.367 95.0137 164.569 94.4478C164.78 93.8724 165.125 93.4696 165.605 93.2394C166.084 93.0092 166.732 92.8941 167.547 92.8941C168.257 92.8941 168.827 92.9709 169.259 93.1243C169.7 93.2682 170.021 93.5319 170.223 93.9156C170.434 94.2896 170.539 94.8123 170.539 95.4836C170.539 95.9536 170.443 96.3276 170.251 96.6058C170.069 96.8839 169.805 97.0853 169.46 97.21C169.124 97.3346 168.722 97.397 168.252 97.397H165.705C165.715 97.9533 165.777 98.3992 165.892 98.7349C166.017 99.061 166.233 99.3007 166.54 99.4542C166.856 99.5981 167.317 99.67 167.921 99.67H170.323V100.533C169.911 100.591 169.489 100.643 169.057 100.691C168.626 100.749 168.127 100.778 167.561 100.778ZM165.691 96.4907H168.122C168.506 96.4907 168.789 96.4187 168.971 96.2749C169.153 96.131 169.244 95.8673 169.244 95.4836C169.244 95.1 169.187 94.7979 169.072 94.5773C168.966 94.3567 168.789 94.1985 168.539 94.1026C168.29 94.0067 167.959 93.9587 167.547 93.9587C167.077 93.9587 166.703 94.0306 166.425 94.1745C166.156 94.3184 165.964 94.5725 165.849 94.937C165.744 95.3014 165.691 95.8193 165.691 96.4907ZM172.295 100.691V89.7148H173.733V95.944H174.784L176.927 92.9948H178.423L175.848 96.5914L178.61 100.691H177.1L174.74 97.2387H173.733V100.691H172.295ZM182.832 100.778C182.017 100.778 181.365 100.658 180.876 100.418C180.396 100.178 180.051 99.7755 179.84 99.2096C179.639 98.6342 179.538 97.843 179.538 96.8359C179.538 95.8097 179.639 95.0137 179.84 94.4478C180.051 93.8724 180.396 93.4696 180.876 93.2394C181.355 93.0092 182.003 92.8941 182.818 92.8941C183.528 92.8941 184.098 92.9709 184.53 93.1243C184.971 93.2682 185.292 93.5319 185.494 93.9156C185.705 94.2896 185.81 94.8123 185.81 95.4836C185.81 95.9536 185.714 96.3276 185.523 96.6058C185.34 96.8839 185.077 97.0853 184.731 97.21C184.396 97.3346 183.993 97.397 183.523 97.397H180.977C180.986 97.9533 181.049 98.3992 181.164 98.7349C181.288 99.061 181.504 99.3007 181.811 99.4542C182.127 99.5981 182.588 99.67 183.192 99.67H185.595V100.533C185.182 100.591 184.76 100.643 184.329 100.691C183.897 100.749 183.398 100.778 182.832 100.778ZM180.962 96.4907H183.393C183.777 96.4907 184.06 96.4187 184.242 96.2749C184.424 96.131 184.516 95.8673 184.516 95.4836C184.516 95.1 184.458 94.7979 184.343 94.5773C184.237 94.3567 184.06 94.1985 183.811 94.1026C183.561 94.0067 183.23 93.9587 182.818 93.9587C182.348 93.9587 181.974 94.0306 181.696 94.1745C181.427 94.3184 181.236 94.5725 181.12 94.937C181.015 95.3014 180.962 95.8193 180.962 96.4907ZM187.566 100.691V92.9948H188.674L189.005 94.2896C189.331 93.8964 189.695 93.5655 190.098 93.2969C190.501 93.0284 190.971 92.8941 191.508 92.8941C191.632 92.8941 191.752 92.9037 191.867 92.9229C191.983 92.9325 192.093 92.9517 192.198 92.9805V94.4622C192.064 94.443 191.925 94.4287 191.781 94.4191C191.637 94.3999 191.489 94.3903 191.335 94.3903C191.009 94.3903 190.717 94.4287 190.458 94.5054C190.199 94.5821 189.949 94.702 189.71 94.865C189.479 95.0185 189.244 95.2103 189.005 95.4405V100.691H187.566Z" fill="#878787"/>
<path d="M93.8701 135.539L91.7681 131.426C91.5548 131.426 91.3009 131.426 91.0065 131.426C90.712 131.416 90.4124 131.406 90.1077 131.396C89.8031 131.386 89.5289 131.376 89.2852 131.365V130.116H92.0575C92.2809 130.116 92.4941 130.086 92.6972 130.025C92.9105 129.964 93.0933 129.852 93.2456 129.69C93.4081 129.527 93.535 129.299 93.6264 129.004C93.728 128.7 93.7787 128.314 93.7787 127.847C93.7787 127.248 93.7077 126.796 93.5655 126.491C93.4233 126.186 93.2355 125.978 93.0019 125.867C92.7683 125.745 92.5094 125.684 92.225 125.684H89.2852V124.313H92.3012C92.6465 124.313 92.9917 124.364 93.337 124.465C93.6924 124.557 94.0174 124.729 94.3119 124.983C94.6165 125.227 94.8602 125.582 95.043 126.049C95.2258 126.506 95.3172 127.105 95.3172 127.847C95.3172 128.486 95.2563 129.02 95.1344 129.446C95.0126 129.862 94.8501 130.193 94.647 130.436C94.454 130.68 94.2408 130.868 94.0072 131C93.7737 131.122 93.5401 131.213 93.3065 131.274L95.5152 135.539H93.8701ZM89.2852 128.288V127.466H97.2517V128.288H89.2852ZM91.7224 125.135V124.313H97.2517V125.135H91.7224ZM106.163 135.615C105.706 135.615 105.223 135.595 104.716 135.554C104.208 135.524 103.751 135.483 103.345 135.432V134.229H106.071C106.914 134.229 107.559 133.93 108.006 133.33C108.453 132.721 108.676 131.802 108.676 130.573C108.402 130.624 108.092 130.665 107.747 130.695C107.412 130.726 107.072 130.746 106.726 130.756C106.381 130.766 106.056 130.771 105.751 130.771C105.061 130.771 104.487 130.685 104.03 130.512C103.573 130.34 103.233 130.076 103.01 129.72C102.786 129.365 102.674 128.908 102.674 128.349V126.75C102.674 126.141 102.791 125.653 103.025 125.288C103.258 124.922 103.573 124.658 103.969 124.496C104.375 124.333 104.827 124.252 105.325 124.252H107.031C107.528 124.252 107.975 124.338 108.371 124.511C108.767 124.673 109.097 124.963 109.361 125.379C109.636 125.785 109.844 126.354 109.986 127.085C110.138 127.816 110.214 128.74 110.214 129.857C110.214 130.893 110.123 131.777 109.94 132.508C109.757 133.239 109.488 133.838 109.133 134.305C108.788 134.762 108.366 135.097 107.869 135.311C107.371 135.514 106.802 135.615 106.163 135.615ZM106.132 129.461H108.676C108.676 128.7 108.635 128.07 108.554 127.573C108.473 127.065 108.351 126.674 108.189 126.4C108.026 126.115 107.823 125.917 107.579 125.806C107.346 125.684 107.072 125.623 106.757 125.623H105.645C105.371 125.623 105.122 125.663 104.898 125.745C104.685 125.826 104.512 125.968 104.38 126.171C104.259 126.374 104.198 126.659 104.198 127.024V128.075C104.198 128.461 104.274 128.751 104.426 128.943C104.578 129.136 104.797 129.273 105.081 129.355C105.376 129.426 105.726 129.461 106.132 129.461ZM115.579 135.615C115.122 135.615 114.639 135.595 114.132 135.554C113.624 135.524 113.167 135.483 112.761 135.432V134.229H115.487C116.33 134.229 116.975 133.93 117.422 133.33C117.869 132.721 118.092 131.802 118.092 130.573C117.818 130.624 117.508 130.665 117.163 130.695C116.828 130.726 116.488 130.746 116.142 130.756C115.797 130.766 115.472 130.771 115.167 130.771C114.477 130.771 113.903 130.685 113.446 130.512C112.989 130.34 112.649 130.076 112.426 129.72C112.202 129.365 112.091 128.908 112.091 128.349V126.75C112.091 126.141 112.207 125.653 112.441 125.288C112.674 124.922 112.989 124.658 113.385 124.496C113.791 124.333 114.243 124.252 114.741 124.252H116.447C116.945 124.252 117.391 124.338 117.787 124.511C118.183 124.673 118.513 124.963 118.778 125.379C119.052 125.785 119.26 126.354 119.402 127.085C119.554 127.816 119.631 128.74 119.631 129.857C119.631 130.893 119.539 131.777 119.356 132.508C119.174 133.239 118.904 133.838 118.549 134.305C118.204 134.762 117.782 135.097 117.285 135.311C116.787 135.514 116.218 135.615 115.579 135.615ZM115.548 129.461H118.092C118.092 128.7 118.051 128.07 117.97 127.573C117.889 127.065 117.767 126.674 117.605 126.4C117.442 126.115 117.239 125.917 116.995 125.806C116.762 125.684 116.488 125.623 116.173 125.623H115.061C114.787 125.623 114.538 125.663 114.314 125.745C114.101 125.826 113.929 125.968 113.797 126.171C113.675 126.374 113.614 126.659 113.614 127.024V128.075C113.614 128.461 113.69 128.751 113.842 128.943C113.995 129.136 114.213 129.273 114.497 129.355C114.792 129.426 115.142 129.461 115.548 129.461ZM122.04 136.788C121.908 136.788 121.791 136.773 121.689 136.742C121.598 136.722 121.552 136.712 121.552 136.712V136.24C121.674 136.24 121.76 136.219 121.811 136.179C121.872 136.138 121.903 136.067 121.903 135.966V135.448H121.766C121.694 135.448 121.634 135.422 121.583 135.372C121.532 135.321 121.507 135.25 121.507 135.158V134.001C121.507 133.797 121.593 133.696 121.766 133.696H122.619C122.72 133.696 122.786 133.726 122.817 133.787C122.857 133.838 122.878 133.909 122.878 134.001V135.92C122.878 136.164 122.832 136.346 122.74 136.468C122.659 136.6 122.553 136.687 122.421 136.727C122.289 136.768 122.162 136.788 122.04 136.788ZM128.044 135.615C127.587 135.615 127.105 135.595 126.597 135.554C126.089 135.524 125.632 135.483 125.226 135.432V134.229H127.953C128.796 134.229 129.441 133.93 129.887 133.33C130.334 132.721 130.558 131.802 130.558 130.573C130.283 130.624 129.974 130.665 129.628 130.695C129.293 130.726 128.953 130.746 128.608 130.756C128.263 130.766 127.938 130.771 127.633 130.771C126.942 130.771 126.369 130.685 125.912 130.512C125.455 130.34 125.115 130.076 124.891 129.72C124.668 129.365 124.556 128.908 124.556 128.349V126.75C124.556 126.141 124.673 125.653 124.906 125.288C125.14 124.922 125.455 124.658 125.851 124.496C126.257 124.333 126.709 124.252 127.206 124.252H128.913C129.41 124.252 129.857 124.338 130.253 124.511C130.649 124.673 130.979 124.963 131.243 125.379C131.517 125.785 131.725 126.354 131.868 127.085C132.02 127.816 132.096 128.74 132.096 129.857C132.096 130.893 132.005 131.777 131.822 132.508C131.639 133.239 131.37 133.838 131.015 134.305C130.669 134.762 130.248 135.097 129.75 135.311C129.253 135.514 128.684 135.615 128.044 135.615ZM128.014 129.461H130.558C130.558 128.7 130.517 128.07 130.436 127.573C130.354 127.065 130.233 126.674 130.07 126.4C129.908 126.115 129.705 125.917 129.461 125.806C129.227 125.684 128.953 125.623 128.638 125.623H127.526C127.252 125.623 127.003 125.663 126.78 125.745C126.567 125.826 126.394 125.968 126.262 126.171C126.14 126.374 126.079 126.659 126.079 127.024V128.075C126.079 128.461 126.155 128.751 126.308 128.943C126.46 129.136 126.678 129.273 126.963 129.355C127.257 129.426 127.608 129.461 128.014 129.461ZM137.46 135.615C137.003 135.615 136.521 135.595 136.013 135.554C135.506 135.524 135.049 135.483 134.642 135.432V134.229H137.369C138.212 134.229 138.857 133.93 139.303 133.33C139.75 132.721 139.974 131.802 139.974 130.573C139.699 130.624 139.39 130.665 139.045 130.695C138.709 130.726 138.369 130.746 138.024 130.756C137.679 130.766 137.354 130.771 137.049 130.771C136.359 130.771 135.785 130.685 135.328 130.512C134.871 130.34 134.531 130.076 134.307 129.72C134.084 129.365 133.972 128.908 133.972 128.349V126.75C133.972 126.141 134.089 125.653 134.322 125.288C134.556 124.922 134.871 124.658 135.267 124.496C135.673 124.333 136.125 124.252 136.623 124.252H138.329C138.826 124.252 139.273 124.338 139.669 124.511C140.065 124.673 140.395 124.963 140.659 125.379C140.933 125.785 141.141 126.354 141.284 127.085C141.436 127.816 141.512 128.74 141.512 129.857C141.512 130.893 141.421 131.777 141.238 132.508C141.055 133.239 140.786 133.838 140.431 134.305C140.085 134.762 139.664 135.097 139.166 135.311C138.669 135.514 138.1 135.615 137.46 135.615ZM137.43 129.461H139.974C139.974 128.7 139.933 128.07 139.852 127.573C139.771 127.065 139.649 126.674 139.486 126.4C139.324 126.115 139.121 125.917 138.877 125.806C138.643 125.684 138.369 125.623 138.054 125.623H136.942C136.668 125.623 136.419 125.663 136.196 125.745C135.983 125.826 135.81 125.968 135.678 126.171C135.556 126.374 135.495 126.659 135.495 127.024V128.075C135.495 128.461 135.572 128.751 135.724 128.943C135.876 129.136 136.095 129.273 136.379 129.355C136.673 129.426 137.024 129.461 137.43 129.461ZM146.876 135.615C146.419 135.615 145.937 135.595 145.429 135.554C144.922 135.524 144.465 135.483 144.058 135.432V134.229H146.785C147.628 134.229 148.273 133.93 148.72 133.33C149.166 132.721 149.39 131.802 149.39 130.573C149.116 130.624 148.806 130.665 148.461 130.695C148.125 130.726 147.785 130.746 147.44 130.756C147.095 130.766 146.77 130.771 146.465 130.771C145.775 130.771 145.201 130.685 144.744 130.512C144.287 130.34 143.947 130.076 143.723 129.72C143.5 129.365 143.388 128.908 143.388 128.349V126.75C143.388 126.141 143.505 125.653 143.739 125.288C143.972 124.922 144.287 124.658 144.683 124.496C145.089 124.333 145.541 124.252 146.039 124.252H147.745C148.242 124.252 148.689 124.338 149.085 124.511C149.481 124.673 149.811 124.963 150.075 125.379C150.349 125.785 150.558 126.354 150.7 127.085C150.852 127.816 150.928 128.74 150.928 129.857C150.928 130.893 150.837 131.777 150.654 132.508C150.471 133.239 150.202 133.838 149.847 134.305C149.501 134.762 149.08 135.097 148.582 135.311C148.085 135.514 147.516 135.615 146.876 135.615ZM146.846 129.461H149.39C149.39 128.7 149.349 128.07 149.268 127.573C149.187 127.065 149.065 126.674 148.902 126.4C148.74 126.115 148.537 125.917 148.293 125.806C148.059 125.684 147.785 125.623 147.47 125.623H146.359C146.084 125.623 145.836 125.663 145.612 125.745C145.399 125.826 145.226 125.968 145.094 126.171C144.972 126.374 144.911 126.659 144.911 127.024V128.075C144.911 128.461 144.988 128.751 145.14 128.943C145.292 129.136 145.511 129.273 145.795 129.355C146.089 129.426 146.44 129.461 146.846 129.461ZM159.851 135.63C159.638 135.63 159.384 135.625 159.09 135.615C158.795 135.605 158.49 135.585 158.176 135.554C157.871 135.534 157.587 135.509 157.323 135.478C157.069 135.448 156.866 135.412 156.713 135.372V134.458H160.141C160.435 134.458 160.689 134.437 160.902 134.397C161.115 134.346 161.278 134.244 161.39 134.092C161.512 133.94 161.572 133.716 161.572 133.422V133.087C161.572 132.782 161.471 132.543 161.268 132.371C161.065 132.198 160.73 132.112 160.262 132.112H159.074C158.597 132.112 158.171 132.051 157.795 131.929C157.429 131.797 157.14 131.579 156.927 131.274C156.723 130.969 156.622 130.558 156.622 130.04V129.598C156.622 129.081 156.718 128.654 156.911 128.319C157.114 127.984 157.434 127.735 157.871 127.573C158.308 127.4 158.886 127.314 159.607 127.314C159.912 127.314 160.247 127.329 160.613 127.359C160.989 127.38 161.354 127.41 161.71 127.451C162.065 127.491 162.349 127.537 162.563 127.588V128.502H159.333C158.886 128.502 158.541 128.578 158.297 128.73C158.064 128.883 157.947 129.172 157.947 129.598V129.903C157.947 130.167 158.003 130.37 158.115 130.512C158.226 130.655 158.384 130.746 158.587 130.787C158.8 130.827 159.049 130.847 159.333 130.847H160.552C161.324 130.847 161.908 131.03 162.304 131.396C162.7 131.751 162.898 132.254 162.898 132.904V133.528C162.898 134.077 162.771 134.503 162.517 134.808C162.263 135.113 161.908 135.326 161.451 135.448C161.004 135.57 160.471 135.63 159.851 135.63ZM167.848 135.63C166.985 135.63 166.294 135.504 165.776 135.25C165.268 134.996 164.903 134.569 164.679 133.97C164.466 133.361 164.36 132.523 164.36 131.457C164.36 130.37 164.466 129.527 164.679 128.928C164.903 128.319 165.268 127.892 165.776 127.649C166.284 127.405 166.969 127.283 167.833 127.283C168.584 127.283 169.188 127.364 169.645 127.527C170.112 127.679 170.453 127.958 170.666 128.365C170.889 128.761 171.001 129.314 171.001 130.025C171.001 130.523 170.899 130.919 170.696 131.213C170.503 131.508 170.224 131.721 169.858 131.853C169.503 131.985 169.077 132.051 168.579 132.051H165.883C165.893 132.64 165.959 133.112 166.081 133.467C166.213 133.813 166.441 134.067 166.766 134.229C167.101 134.381 167.589 134.458 168.229 134.458H170.772V135.372C170.336 135.432 169.889 135.488 169.432 135.539C168.975 135.6 168.447 135.63 167.848 135.63ZM165.868 131.091H168.442C168.848 131.091 169.148 131.015 169.341 130.863C169.534 130.71 169.63 130.431 169.63 130.025C169.63 129.619 169.569 129.299 169.447 129.065C169.335 128.832 169.148 128.664 168.884 128.563C168.62 128.461 168.269 128.41 167.833 128.41C167.335 128.41 166.939 128.486 166.644 128.639C166.36 128.791 166.157 129.06 166.035 129.446C165.923 129.832 165.868 130.38 165.868 131.091ZM175.678 135.539C175.129 135.539 174.672 135.453 174.307 135.28C173.951 135.097 173.687 134.808 173.515 134.412C173.352 134.016 173.276 133.488 173.286 132.828L173.347 128.639H172.053V127.649L173.378 127.39L173.606 125.105H174.81V127.39H177.018V128.639H174.81V132.812C174.81 133.127 174.84 133.381 174.901 133.574C174.962 133.767 175.048 133.914 175.16 134.016C175.272 134.117 175.393 134.194 175.526 134.244C175.658 134.285 175.784 134.31 175.906 134.32L176.912 134.412V135.539H175.678ZM184.995 135.63C184.233 135.63 183.639 135.427 183.212 135.021C182.796 134.605 182.588 133.975 182.588 133.132V127.39H184.111V132.721C184.111 133.33 184.248 133.742 184.522 133.955C184.807 134.168 185.203 134.275 185.711 134.275C186.117 134.275 186.503 134.214 186.868 134.092C187.244 133.96 187.61 133.782 187.965 133.559V127.39H189.488V135.539H188.27L187.965 134.671C187.569 134.925 187.112 135.148 186.594 135.341C186.086 135.534 185.553 135.63 184.995 135.63ZM191.588 139.149V127.39H192.837L193.111 128.212C193.304 128.07 193.533 127.928 193.797 127.786C194.071 127.644 194.365 127.527 194.68 127.435C195.005 127.334 195.33 127.283 195.655 127.283C196.173 127.283 196.615 127.39 196.98 127.603C197.356 127.816 197.661 128.116 197.894 128.502C198.128 128.877 198.295 129.319 198.397 129.827C198.508 130.335 198.564 130.878 198.564 131.457C198.564 132.361 198.463 133.127 198.26 133.757C198.067 134.376 197.757 134.849 197.33 135.173C196.914 135.488 196.356 135.646 195.655 135.646C195.228 135.646 194.792 135.585 194.345 135.463C193.898 135.331 193.487 135.158 193.111 134.945V139.149H191.588ZM195.198 134.366C195.543 134.366 195.853 134.28 196.127 134.107C196.401 133.935 196.62 133.64 196.782 133.224C196.955 132.797 197.041 132.208 197.041 131.457C197.041 130.746 196.955 130.177 196.782 129.751C196.609 129.314 196.386 129.004 196.112 128.822C195.838 128.629 195.538 128.532 195.213 128.532C194.787 128.532 194.396 128.598 194.04 128.73C193.695 128.862 193.385 128.999 193.111 129.141V133.787C193.426 133.96 193.761 134.102 194.116 134.214C194.482 134.315 194.843 134.366 195.198 134.366ZM204.957 135.539V128.639H203.739V127.649L204.957 127.39V126.582C204.957 125.973 205.034 125.465 205.186 125.059C205.338 124.643 205.592 124.333 205.947 124.13C206.303 123.927 206.79 123.825 207.41 123.825C207.765 123.825 208.07 123.846 208.324 123.886C208.588 123.927 208.816 123.962 209.009 123.993V125.09H207.684C207.359 125.09 207.11 125.14 206.938 125.242C206.765 125.344 206.643 125.501 206.572 125.714C206.511 125.927 206.481 126.191 206.481 126.506V127.39H208.872V128.639H206.481V135.539H204.957ZM213.396 135.63C212.533 135.63 211.842 135.504 211.324 135.25C210.817 134.996 210.451 134.569 210.228 133.97C210.015 133.361 209.908 132.523 209.908 131.457C209.908 130.37 210.015 129.527 210.228 128.928C210.451 128.319 210.817 127.892 211.324 127.649C211.832 127.405 212.518 127.283 213.381 127.283C214.132 127.283 214.737 127.364 215.194 127.527C215.661 127.679 216.001 127.958 216.214 128.365C216.437 128.761 216.549 129.314 216.549 130.025C216.549 130.523 216.448 130.919 216.245 131.213C216.052 131.508 215.772 131.721 215.407 131.853C215.051 131.985 214.625 132.051 214.127 132.051H211.431C211.441 132.64 211.507 133.112 211.629 133.467C211.761 133.813 211.99 134.067 212.315 134.229C212.65 134.381 213.137 134.458 213.777 134.458H216.321V135.372C215.884 135.432 215.437 135.488 214.98 135.539C214.523 135.6 213.995 135.63 213.396 135.63ZM211.416 131.091H213.99C214.396 131.091 214.696 131.015 214.889 130.863C215.082 130.71 215.178 130.431 215.178 130.025C215.178 129.619 215.117 129.299 214.995 129.065C214.884 128.832 214.696 128.664 214.432 128.563C214.168 128.461 213.818 128.41 213.381 128.41C212.883 128.41 212.487 128.486 212.193 128.639C211.908 128.791 211.705 129.06 211.583 129.446C211.472 129.832 211.416 130.38 211.416 131.091ZM221.622 135.63C220.759 135.63 220.068 135.504 219.551 135.25C219.043 134.996 218.677 134.569 218.454 133.97C218.241 133.361 218.134 132.523 218.134 131.457C218.134 130.37 218.241 129.527 218.454 128.928C218.677 128.319 219.043 127.892 219.551 127.649C220.058 127.405 220.744 127.283 221.607 127.283C222.358 127.283 222.963 127.364 223.42 127.527C223.887 127.679 224.227 127.958 224.44 128.365C224.664 128.761 224.775 129.314 224.775 130.025C224.775 130.523 224.674 130.919 224.471 131.213C224.278 131.508 223.998 131.721 223.633 131.853C223.277 131.985 222.851 132.051 222.353 132.051H219.657C219.667 132.64 219.733 133.112 219.855 133.467C219.987 133.813 220.216 134.067 220.541 134.229C220.876 134.381 221.363 134.458 222.003 134.458H224.547V135.372C224.11 135.432 223.663 135.488 223.206 135.539C222.749 135.6 222.221 135.63 221.622 135.63ZM219.642 131.091H222.216C222.622 131.091 222.922 131.015 223.115 130.863C223.308 130.71 223.404 130.431 223.404 130.025C223.404 129.619 223.343 129.299 223.222 129.065C223.11 128.832 222.922 128.664 222.658 128.563C222.394 128.461 222.044 128.41 221.607 128.41C221.109 128.41 220.713 128.486 220.419 128.639C220.134 128.791 219.931 129.06 219.809 129.446C219.698 129.832 219.642 130.38 219.642 131.091Z" fill="white"/>
<defs>
<linearGradient id="paint0_linear_1493_1544" x1="0.387207" y1="0.929688" x2="313.497" y2="175.255" gradientUnits="userSpaceOnUse">
<stop stop-color="#CB397A"/>
<stop offset="1" stop-color="#3A3895"/>
</linearGradient>
</defs>
</svg>
