<svg width="314" height="176" viewBox="0 0 314 176" fill="none" xmlns="http://www.w3.org/2000/svg">
<rect x="0.548584" y="0.929688" width="313.109" height="174.326" rx="16.9248" fill="#303030"/>
<mask id="mask0_1493_1606" style="mask-type:alpha" maskUnits="userSpaceOnUse" x="0" y="0" width="314" height="176">
<rect x="0.548584" y="0.929688" width="313.109" height="174.326" rx="16.9248" fill="#625FFB"/>
</mask>
<g mask="url(#mask0_1493_1606)">
<circle cx="0.548504" cy="167.639" r="52.467" fill="#B53783"/>
<path d="M404.688 31.1555C421.52 60.9353 411.759 98.8807 382.886 115.909C354.013 132.937 316.962 122.6 300.13 92.8197C283.298 63.0398 293.06 25.0944 321.933 8.06634C350.806 -8.96176 387.857 1.3756 404.688 31.1555Z" fill="#B53783"/>
<circle cx="-21.4537" cy="116.018" r="52.467" fill="#545454"/>
<ellipse cx="60.6938" cy="61.938" rx="60.6938" ry="61.938" transform="matrix(0.861361 -0.507994 0.492048 0.870568 216.34 -19.4922)" fill="#545454"/>
</g>
<path d="M81.6737 69.3046C79.4734 69.3046 77.5271 69.0508 75.8346 68.543C74.176 68.0353 72.7543 67.1044 71.5695 65.7504C70.4187 64.3964 69.5386 62.467 68.9293 59.9621C68.3538 57.4234 68.0661 54.14 68.0661 50.1119C68.0661 46.2192 68.3707 43.0373 68.98 40.5663C69.6232 38.0614 70.5371 36.132 71.7219 34.778C72.9066 33.3902 74.3452 32.4254 76.0377 31.8839C77.7302 31.3423 79.6427 31.0715 81.7752 31.0715C83.4677 31.0715 85.0417 31.173 86.4972 31.3761C87.9866 31.5454 89.3237 31.7654 90.5084 32.0362C91.6932 32.2731 92.6917 32.5439 93.5041 32.8486V38.6876C92.8948 38.5522 92.0655 38.4168 91.0162 38.2814C90.0007 38.146 88.8329 38.0445 87.5127 37.9768C86.1926 37.8752 84.8048 37.8245 83.3492 37.8245C81.9275 37.8245 80.7089 37.9937 79.6935 38.3322C78.7118 38.6369 77.9164 39.2292 77.3071 40.1093C76.7316 40.9556 76.2916 42.1911 75.9869 43.8159C75.7161 45.4406 75.5807 47.5562 75.5807 50.1627C75.5807 52.6675 75.6992 54.7324 75.9361 56.3572C76.2069 57.9819 76.6301 59.2513 77.2055 60.1652C77.781 61.0453 78.5595 61.6715 79.5411 62.0439C80.5566 62.3824 81.826 62.5516 83.3492 62.5516C85.9218 62.5516 88.0035 62.5009 89.5945 62.3993C91.2193 62.2978 92.5225 62.1793 93.5041 62.0439V67.8322C92.5902 68.1368 91.5408 68.4076 90.3561 68.6446C89.1714 68.8477 87.8681 69 86.4465 69.1015C85.0248 69.2369 83.4338 69.3046 81.6737 69.3046ZM106.144 69.3046C103.707 69.3046 101.794 68.5938 100.406 67.1721C99.0184 65.7166 98.3245 63.6687 98.3245 61.0284V41.7341H105.839V58.7943C105.839 60.3176 106.195 61.35 106.905 61.8916C107.65 62.3993 108.615 62.6532 109.8 62.6532C110.747 62.6532 111.712 62.4839 112.694 62.1454C113.709 61.7731 114.606 61.2823 115.385 60.673V41.7341H122.95V69H116.705L115.385 66.2074C114.166 67.0198 112.761 67.7476 111.17 68.3907C109.58 69 107.904 69.3046 106.144 69.3046ZM138.524 69.3046C137.678 69.3046 136.764 69.2708 135.782 69.2031C134.801 69.1692 133.819 69.1015 132.837 69C131.856 68.8985 130.942 68.78 130.095 68.6446C129.249 68.4753 128.538 68.2892 127.963 68.0861V63.6687H140.047C140.758 63.6687 141.334 63.6179 141.774 63.5164C142.247 63.381 142.586 63.1609 142.789 62.8563C143.026 62.5178 143.144 62.0439 143.144 61.4346V60.5714C143.144 59.8944 142.924 59.3698 142.484 58.9974C142.044 58.6251 141.232 58.4389 140.047 58.4389H135.782C134.225 58.4389 132.82 58.202 131.568 57.7281C130.315 57.2542 129.317 56.4756 128.572 55.3924C127.861 54.3093 127.506 52.8537 127.506 51.0258V49.4518C127.506 47.7255 127.844 46.27 128.521 45.0852C129.198 43.9005 130.332 43.0035 131.923 42.3942C133.514 41.7849 135.698 41.4802 138.473 41.4802C139.59 41.4802 140.775 41.5479 142.027 41.6833C143.314 41.7849 144.515 41.9372 145.632 42.1403C146.783 42.3095 147.697 42.5126 148.374 42.7496V47.167H136.95C135.968 47.167 135.224 47.3362 134.716 47.6747C134.208 47.9794 133.954 48.5717 133.954 49.4518V50.2642C133.954 50.8735 134.073 51.3305 134.31 51.6351C134.547 51.9059 134.902 52.109 135.376 52.2444C135.884 52.346 136.51 52.3967 137.255 52.3967H141.621C144.397 52.3967 146.411 53.0399 147.663 54.3262C148.95 55.5786 149.593 57.3219 149.593 59.5559V61.9931C149.593 63.821 149.153 65.2765 148.273 66.3597C147.426 67.4091 146.174 68.1707 144.515 68.6446C142.891 69.0846 140.893 69.3046 138.524 69.3046ZM164.616 69C162.517 69 160.808 68.6954 159.488 68.0861C158.202 67.4768 157.271 66.4613 156.695 65.0396C156.12 63.6179 155.866 61.7054 155.934 59.3021L156.188 47.7763H151.923V42.9527L156.441 41.7341L157.457 34.1179H163.398V41.7341H169.795V47.7763H163.398V59.2513C163.398 59.996 163.465 60.6053 163.601 61.0792C163.736 61.5531 163.922 61.9423 164.159 62.247C164.43 62.5178 164.735 62.7209 165.073 62.8563C165.412 62.9917 165.75 63.0763 166.089 63.1102L169.541 63.4148V69H164.616ZM185.671 69.2539C183.437 69.2539 181.524 69.0338 179.933 68.5938C178.342 68.1199 177.039 67.3414 176.024 66.2582C175.042 65.175 174.314 63.7364 173.84 61.9423C173.4 60.1483 173.18 57.9312 173.18 55.2909C173.18 52.5152 173.4 50.2304 173.84 48.4363C174.314 46.6085 175.042 45.1868 176.024 44.1713C177.039 43.1219 178.342 42.3942 179.933 41.988C181.558 41.5479 183.471 41.3279 185.671 41.3279C187.939 41.3279 189.868 41.5479 191.459 41.988C193.05 42.428 194.336 43.1727 195.318 44.2221C196.334 45.2375 197.061 46.6592 197.501 48.4871C197.975 50.2811 198.212 52.5491 198.212 55.2909C198.212 57.9989 197.992 60.2668 197.552 62.0947C197.112 63.8887 196.401 65.3104 195.42 66.3597C194.438 67.4091 193.135 68.1538 191.51 68.5938C189.919 69.0338 187.973 69.2539 185.671 69.2539ZM185.671 63.2625C186.585 63.2625 187.346 63.1779 187.956 63.0086C188.599 62.8394 189.107 62.5009 189.479 61.9931C189.885 61.4515 190.19 60.6391 190.393 59.5559C190.596 58.4728 190.698 57.0511 190.698 55.2909C190.698 53.4969 190.596 52.0752 190.393 51.0258C190.19 49.9426 189.885 49.1472 189.479 48.6394C189.107 48.0978 188.599 47.7424 187.956 47.5732C187.346 47.4039 186.585 47.3193 185.671 47.3193C184.791 47.3193 184.029 47.4039 183.386 47.5732C182.777 47.7424 182.269 48.0978 181.863 48.6394C181.457 49.1472 181.152 49.9426 180.949 51.0258C180.78 52.0752 180.695 53.4969 180.695 55.2909C180.695 57.0511 180.78 58.4728 180.949 59.5559C181.152 60.6391 181.457 61.4515 181.863 61.9931C182.269 62.5009 182.777 62.8394 183.386 63.0086C184.029 63.1779 184.791 63.2625 185.671 63.2625ZM203.198 69V41.7341H209.392L210.713 44.5267C211.897 43.6466 213.184 42.885 214.571 42.2418C215.993 41.5987 217.736 41.2771 219.801 41.2771C221.528 41.2771 222.949 41.6326 224.066 42.3434C225.217 43.0542 226.08 43.9851 226.656 45.136C227.434 44.5267 228.331 43.9343 229.347 43.3589C230.396 42.7834 231.513 42.2926 232.698 41.8864C233.883 41.4802 235.051 41.2771 236.201 41.2771C238.402 41.2771 240.128 41.7003 241.38 42.5465C242.667 43.3589 243.564 44.5267 244.071 46.0499C244.579 47.5393 244.833 49.2995 244.833 51.3305V69H237.318V51.9905C237.318 51.1105 237.149 50.3827 236.811 49.8072C236.506 49.2318 236.066 48.7918 235.491 48.4871C234.915 48.1825 234.221 48.0301 233.409 48.0301C232.393 48.0301 231.361 48.2502 230.312 48.6902C229.296 49.0964 228.382 49.5872 227.57 50.1627C227.637 50.5012 227.688 50.8397 227.722 51.1782C227.756 51.4828 227.773 51.8044 227.773 52.1429V69H220.258V51.9905C220.258 51.1105 220.089 50.3827 219.75 49.8072C219.446 49.2318 219.006 48.7918 218.43 48.4871C217.855 48.1825 217.161 48.0301 216.349 48.0301C215.638 48.0301 214.944 48.1148 214.267 48.284C213.624 48.4533 212.997 48.6902 212.388 48.9949C211.813 49.2995 211.254 49.6549 210.713 50.0611V69H203.198Z" fill="white"/>
<path d="M55.6328 113.848V102.621H57.1712V113.848H55.6328ZM59.3505 113.848V105.698H60.5691L60.8738 106.582C61.2393 106.318 61.6709 106.084 62.1685 105.881C62.6763 105.668 63.1992 105.561 63.7374 105.561C64.3467 105.561 64.8342 105.693 65.1998 105.957C65.5755 106.211 65.8446 106.551 66.0071 106.978C66.1695 107.404 66.2508 107.866 66.2508 108.364V113.848H64.7275V108.547C64.7275 108.222 64.6615 107.943 64.5295 107.709C64.4077 107.465 64.235 107.277 64.0116 107.145C63.7882 107.013 63.514 106.947 63.1891 106.947C62.8844 106.947 62.6001 106.978 62.3361 107.039C62.0822 107.1 61.8385 107.186 61.6049 107.298C61.3714 107.399 61.1276 107.526 60.8738 107.679V113.848H59.3505ZM71.1532 113.848C70.6049 113.848 70.1479 113.761 69.7823 113.589C69.4269 113.406 69.1629 113.117 68.9902 112.72C68.8277 112.324 68.7516 111.796 68.7617 111.136L68.8227 106.947H67.5279V105.957L68.8531 105.698L69.0816 103.413H70.285V105.698H72.4937V106.947H70.285V111.121C70.285 111.436 70.3154 111.69 70.3764 111.883C70.4373 112.076 70.5236 112.223 70.6353 112.324C70.747 112.426 70.8689 112.502 71.0009 112.553C71.1329 112.594 71.2598 112.619 71.3817 112.629L72.387 112.72V113.848H71.1532ZM76.424 113.939C75.6623 113.939 75.0683 113.736 74.6418 113.33C74.2254 112.913 74.0173 112.284 74.0173 111.441V105.698H75.5405V111.03C75.5405 111.639 75.6776 112.05 75.9518 112.263C76.2361 112.477 76.6321 112.583 77.1399 112.583C77.5461 112.583 77.932 112.522 78.2975 112.401C78.6733 112.269 79.0389 112.091 79.3943 111.867V105.698H80.9175V113.848H79.6989L79.3943 112.979C78.9982 113.233 78.5413 113.457 78.0234 113.65C77.5156 113.843 76.9825 113.939 76.424 113.939ZM83.2304 104.327C83.0477 104.327 82.9563 104.241 82.9563 104.068V102.789C82.9563 102.606 83.0477 102.515 83.2304 102.515H84.3576C84.4389 102.515 84.4998 102.54 84.5404 102.591C84.581 102.642 84.6014 102.708 84.6014 102.789V104.068C84.6014 104.241 84.5201 104.327 84.3576 104.327H83.2304ZM83.0172 113.848V105.698H84.5404V113.848H83.0172ZM89.4945 113.848C88.9461 113.848 88.4892 113.761 88.1236 113.589C87.7682 113.406 87.5041 113.117 87.3315 112.72C87.169 112.324 87.0929 111.796 87.103 111.136L87.164 106.947H85.8692V105.957L87.1944 105.698L87.4229 103.413H88.6263V105.698H90.835V106.947H88.6263V111.121C88.6263 111.436 88.6567 111.69 88.7177 111.883C88.7786 112.076 88.8649 112.223 88.9766 112.324C89.0883 112.426 89.2102 112.502 89.3422 112.553C89.4742 112.594 89.6011 112.619 89.723 112.629L90.7283 112.72V113.848H89.4945ZM92.587 104.327C92.4042 104.327 92.3128 104.241 92.3128 104.068V102.789C92.3128 102.606 92.4042 102.515 92.587 102.515H93.7142C93.7955 102.515 93.8564 102.54 93.897 102.591C93.9376 102.642 93.9579 102.708 93.9579 102.789V104.068C93.9579 104.241 93.8767 104.327 93.7142 104.327H92.587ZM92.3738 113.848V105.698H93.897V113.848H92.3738ZM98.1809 113.848L95.2258 105.698H96.7947L99.0948 112.431L101.441 105.698H103.01L99.9478 113.848H98.1809ZM107.25 113.939C106.387 113.939 105.696 113.812 105.178 113.558C104.671 113.304 104.305 112.878 104.082 112.279C103.868 111.669 103.762 110.832 103.762 109.765C103.762 108.679 103.868 107.836 104.082 107.237C104.305 106.628 104.671 106.201 105.178 105.957C105.686 105.714 106.372 105.592 107.235 105.592C107.986 105.592 108.591 105.673 109.047 105.835C109.515 105.988 109.855 106.267 110.068 106.673C110.291 107.069 110.403 107.623 110.403 108.334C110.403 108.831 110.302 109.227 110.099 109.522C109.906 109.816 109.626 110.029 109.261 110.161C108.905 110.293 108.479 110.359 107.981 110.359H105.285C105.295 110.948 105.361 111.421 105.483 111.776C105.615 112.121 105.844 112.375 106.169 112.538C106.504 112.69 106.991 112.766 107.631 112.766H110.175V113.68C109.738 113.741 109.291 113.797 108.834 113.848C108.377 113.909 107.849 113.939 107.25 113.939ZM105.27 109.4H107.844C108.25 109.4 108.55 109.324 108.743 109.171C108.936 109.019 109.032 108.74 109.032 108.334C109.032 107.927 108.971 107.607 108.849 107.374C108.738 107.14 108.55 106.973 108.286 106.871C108.022 106.77 107.671 106.719 107.235 106.719C106.737 106.719 106.341 106.795 106.047 106.947C105.762 107.1 105.559 107.369 105.437 107.755C105.326 108.141 105.27 108.689 105.27 109.4ZM112.643 115.097C112.511 115.097 112.394 115.081 112.293 115.051C112.201 115.031 112.155 115.021 112.155 115.021V114.548C112.277 114.548 112.364 114.528 112.414 114.487C112.475 114.447 112.506 114.376 112.506 114.274V113.756H112.369C112.298 113.756 112.237 113.731 112.186 113.68C112.135 113.629 112.11 113.558 112.11 113.467V112.309C112.11 112.106 112.196 112.005 112.369 112.005H113.222C113.323 112.005 113.389 112.035 113.42 112.096C113.46 112.147 113.481 112.218 113.481 112.309V114.228C113.481 114.472 113.435 114.655 113.344 114.777C113.262 114.909 113.156 114.995 113.024 115.036C112.892 115.076 112.765 115.097 112.643 115.097ZM121.075 113.848L118.699 105.698H120.268L122.05 112.431L123.969 105.698H125.264L127.183 112.431L128.89 105.698H130.458L128.113 113.848H126.422L124.594 107.8L122.736 113.848H121.075ZM134.802 113.939C134.182 113.939 133.644 113.873 133.187 113.741C132.74 113.609 132.37 113.391 132.075 113.086C131.781 112.771 131.562 112.345 131.42 111.807C131.278 111.268 131.207 110.588 131.207 109.765C131.207 108.912 131.278 108.217 131.42 107.679C131.562 107.13 131.781 106.704 132.075 106.399C132.37 106.094 132.745 105.886 133.202 105.775C133.659 105.653 134.192 105.592 134.802 105.592C135.411 105.592 135.944 105.653 136.401 105.775C136.858 105.896 137.234 106.11 137.528 106.414C137.823 106.719 138.041 107.145 138.183 107.694C138.325 108.232 138.397 108.923 138.397 109.765C138.397 110.598 138.325 111.289 138.183 111.837C138.041 112.375 137.823 112.797 137.528 113.101C137.244 113.406 136.873 113.624 136.416 113.756C135.959 113.878 135.421 113.939 134.802 113.939ZM134.802 112.69C135.137 112.69 135.431 112.66 135.685 112.599C135.949 112.538 136.168 112.411 136.34 112.218C136.513 112.015 136.645 111.715 136.736 111.319C136.828 110.923 136.873 110.4 136.873 109.75C136.873 109.1 136.828 108.582 136.736 108.196C136.645 107.8 136.513 107.506 136.34 107.313C136.168 107.12 135.949 106.993 135.685 106.932C135.431 106.861 135.137 106.826 134.802 106.826C134.456 106.826 134.152 106.861 133.888 106.932C133.634 106.993 133.421 107.12 133.248 107.313C133.086 107.506 132.959 107.8 132.867 108.196C132.786 108.582 132.745 109.1 132.745 109.75C132.745 110.4 132.786 110.923 132.867 111.319C132.959 111.715 133.086 112.015 133.248 112.218C133.421 112.411 133.634 112.538 133.888 112.599C134.152 112.66 134.456 112.69 134.802 112.69ZM140.257 113.848V105.698H141.43L141.781 107.069C142.126 106.653 142.512 106.303 142.938 106.018C143.365 105.734 143.862 105.592 144.431 105.592C144.563 105.592 144.69 105.602 144.812 105.622C144.934 105.632 145.051 105.653 145.162 105.683V107.252C145.02 107.232 144.873 107.217 144.721 107.206C144.568 107.186 144.411 107.176 144.248 107.176C143.903 107.176 143.593 107.217 143.319 107.298C143.045 107.379 142.781 107.506 142.527 107.679C142.283 107.841 142.035 108.044 141.781 108.288V113.848H140.257ZM148.864 113.863C148.366 113.863 147.945 113.777 147.6 113.604C147.265 113.431 147.011 113.157 146.838 112.781C146.676 112.396 146.594 111.878 146.594 111.228V102.225H148.118V111.03C148.118 111.456 148.158 111.786 148.239 112.02C148.331 112.243 148.453 112.401 148.605 112.492C148.768 112.583 148.955 112.644 149.169 112.675L149.93 112.766V113.863H148.864ZM153.812 113.939C153.151 113.939 152.603 113.797 152.166 113.513C151.74 113.228 151.42 112.786 151.207 112.187C150.994 111.578 150.887 110.796 150.887 109.842C150.887 108.836 150.983 108.024 151.176 107.404C151.379 106.775 151.704 106.318 152.151 106.033C152.598 105.739 153.202 105.592 153.964 105.592C154.39 105.592 154.812 105.637 155.228 105.729C155.655 105.82 156.025 105.922 156.34 106.033V102.225H157.863V113.848H156.614L156.34 113.04C156.178 113.183 155.954 113.325 155.67 113.467C155.386 113.599 155.081 113.711 154.756 113.802C154.431 113.893 154.116 113.939 153.812 113.939ZM154.299 112.69C154.715 112.69 155.091 112.624 155.426 112.492C155.771 112.36 156.076 112.223 156.34 112.081V107.13C156.025 107.039 155.716 106.958 155.411 106.886C155.116 106.805 154.786 106.765 154.421 106.765C153.944 106.765 153.558 106.851 153.263 107.024C152.969 107.196 152.755 107.501 152.623 107.938C152.491 108.374 152.425 108.983 152.425 109.765C152.425 110.486 152.486 111.065 152.608 111.502C152.73 111.928 152.928 112.233 153.202 112.416C153.487 112.599 153.852 112.69 154.299 112.69ZM159.252 110.055V108.806H163.776V110.055H159.252ZM168.235 113.939C167.757 113.939 167.316 113.878 166.909 113.756C166.513 113.624 166.163 113.406 165.858 113.101C165.564 112.797 165.335 112.375 165.173 111.837C165.01 111.299 164.929 110.618 164.929 109.796C164.929 108.953 165.005 108.262 165.158 107.724C165.31 107.176 165.528 106.749 165.813 106.445C166.107 106.13 166.463 105.912 166.879 105.79C167.295 105.668 167.762 105.607 168.28 105.607C168.707 105.607 169.154 105.627 169.621 105.668C170.098 105.709 170.56 105.775 171.007 105.866V106.765H168.707C168.209 106.765 167.793 106.846 167.458 107.008C167.123 107.161 166.874 107.46 166.711 107.907C166.549 108.344 166.468 108.978 166.468 109.811C166.468 110.613 166.554 111.233 166.727 111.669C166.899 112.096 167.148 112.385 167.473 112.538C167.808 112.69 168.225 112.766 168.722 112.766H171.129V113.634C170.895 113.695 170.616 113.751 170.291 113.802C169.976 113.843 169.641 113.873 169.286 113.893C168.94 113.924 168.59 113.939 168.235 113.939ZM174.94 113.863C174.443 113.863 174.021 113.777 173.676 113.604C173.341 113.431 173.087 113.157 172.915 112.781C172.752 112.396 172.671 111.878 172.671 111.228V102.225H174.194V111.03C174.194 111.456 174.235 111.786 174.316 112.02C174.407 112.243 174.529 112.401 174.682 112.492C174.844 112.583 175.032 112.644 175.245 112.675L176.007 112.766V113.863H174.94ZM178.867 113.939C178.268 113.939 177.771 113.761 177.375 113.406C176.989 113.04 176.796 112.538 176.796 111.898V111.258C176.796 110.629 177.009 110.116 177.436 109.72C177.872 109.313 178.527 109.11 179.401 109.11H181.944V108.257C181.944 107.943 181.889 107.679 181.777 107.465C181.675 107.242 181.482 107.074 181.198 106.963C180.914 106.851 180.492 106.795 179.934 106.795H177.436V105.896C177.801 105.815 178.228 105.744 178.715 105.683C179.213 105.622 179.792 105.587 180.452 105.576C181.122 105.576 181.68 105.663 182.127 105.835C182.584 105.998 182.924 106.272 183.148 106.658C183.371 107.034 183.483 107.536 183.483 108.166V113.848H182.279L182.021 112.949C181.96 112.99 181.833 113.066 181.64 113.177C181.447 113.279 181.198 113.391 180.893 113.513C180.599 113.634 180.274 113.736 179.918 113.817C179.573 113.898 179.223 113.939 178.867 113.939ZM179.568 112.827C179.72 112.837 179.898 112.822 180.101 112.781C180.314 112.741 180.523 112.695 180.726 112.644C180.939 112.583 181.132 112.522 181.305 112.462C181.487 112.401 181.635 112.35 181.746 112.309C181.868 112.258 181.934 112.228 181.944 112.218V109.872L179.812 109.963C179.284 109.994 178.903 110.126 178.669 110.359C178.446 110.593 178.334 110.898 178.334 111.273V111.639C178.334 111.933 178.395 112.172 178.517 112.355C178.639 112.528 178.791 112.649 178.974 112.72C179.167 112.792 179.365 112.827 179.568 112.827ZM188.401 113.939C188.188 113.939 187.934 113.934 187.64 113.924C187.345 113.914 187.041 113.893 186.726 113.863C186.421 113.843 186.137 113.817 185.873 113.787C185.619 113.756 185.416 113.721 185.263 113.68V112.766H188.691C188.985 112.766 189.239 112.746 189.452 112.705C189.666 112.654 189.828 112.553 189.94 112.401C190.062 112.248 190.123 112.025 190.123 111.73V111.395C190.123 111.091 190.021 110.852 189.818 110.679C189.615 110.507 189.28 110.42 188.813 110.42H187.624C187.147 110.42 186.721 110.359 186.345 110.238C185.979 110.106 185.69 109.887 185.477 109.583C185.274 109.278 185.172 108.867 185.172 108.349V107.907C185.172 107.389 185.269 106.963 185.462 106.628C185.665 106.292 185.984 106.044 186.421 105.881C186.858 105.709 187.437 105.622 188.158 105.622C188.462 105.622 188.797 105.637 189.163 105.668C189.539 105.688 189.904 105.719 190.26 105.759C190.615 105.8 190.899 105.846 191.113 105.896V106.81H187.883C187.437 106.81 187.091 106.886 186.848 107.039C186.614 107.191 186.497 107.481 186.497 107.907V108.212C186.497 108.476 186.553 108.679 186.665 108.821C186.777 108.963 186.934 109.055 187.137 109.095C187.35 109.136 187.599 109.156 187.883 109.156H189.102C189.874 109.156 190.458 109.339 190.854 109.704C191.25 110.06 191.448 110.563 191.448 111.212V111.837C191.448 112.385 191.321 112.812 191.067 113.117C190.813 113.421 190.458 113.634 190.001 113.756C189.554 113.878 189.021 113.939 188.401 113.939ZM196.032 113.939C195.819 113.939 195.565 113.934 195.271 113.924C194.976 113.914 194.672 113.893 194.357 113.863C194.052 113.843 193.768 113.817 193.504 113.787C193.25 113.756 193.047 113.721 192.895 113.68V112.766H196.322C196.616 112.766 196.87 112.746 197.083 112.705C197.297 112.654 197.459 112.553 197.571 112.401C197.693 112.248 197.754 112.025 197.754 111.73V111.395C197.754 111.091 197.652 110.852 197.449 110.679C197.246 110.507 196.911 110.42 196.444 110.42H195.256C194.778 110.42 194.352 110.359 193.976 110.238C193.61 110.106 193.321 109.887 193.108 109.583C192.905 109.278 192.803 108.867 192.803 108.349V107.907C192.803 107.389 192.9 106.963 193.093 106.628C193.296 106.292 193.616 106.044 194.052 105.881C194.489 105.709 195.068 105.622 195.789 105.622C196.093 105.622 196.428 105.637 196.794 105.668C197.17 105.688 197.535 105.719 197.891 105.759C198.246 105.8 198.53 105.846 198.744 105.896V106.81H195.514C195.068 106.81 194.722 106.886 194.479 107.039C194.245 107.191 194.128 107.481 194.128 107.907V108.212C194.128 108.476 194.184 108.679 194.296 108.821C194.408 108.963 194.565 109.055 194.768 109.095C194.981 109.136 195.23 109.156 195.514 109.156H196.733C197.505 109.156 198.089 109.339 198.485 109.704C198.881 110.06 199.079 110.563 199.079 111.212V111.837C199.079 112.385 198.952 112.812 198.698 113.117C198.444 113.421 198.089 113.634 197.632 113.756C197.185 113.878 196.652 113.939 196.032 113.939ZM207.71 113.939C207.496 113.939 207.242 113.934 206.948 113.924C206.653 113.914 206.349 113.893 206.034 113.863C205.729 113.843 205.445 113.817 205.181 113.787C204.927 113.756 204.724 113.721 204.572 113.68V112.766H207.999C208.293 112.766 208.547 112.746 208.761 112.705C208.974 112.654 209.136 112.553 209.248 112.401C209.37 112.248 209.431 112.025 209.431 111.73V111.395C209.431 111.091 209.329 110.852 209.126 110.679C208.923 110.507 208.588 110.42 208.121 110.42H206.933C206.455 110.42 206.029 110.359 205.653 110.238C205.288 110.106 204.998 109.887 204.785 109.583C204.582 109.278 204.48 108.867 204.48 108.349V107.907C204.48 107.389 204.577 106.963 204.77 106.628C204.973 106.292 205.293 106.044 205.729 105.881C206.166 105.709 206.745 105.622 207.466 105.622C207.77 105.622 208.106 105.637 208.471 105.668C208.847 105.688 209.212 105.719 209.568 105.759C209.923 105.8 210.208 105.846 210.421 105.896V106.81H207.192C206.745 106.81 206.4 106.886 206.156 107.039C205.922 107.191 205.805 107.481 205.805 107.907V108.212C205.805 108.476 205.861 108.679 205.973 108.821C206.085 108.963 206.242 109.055 206.445 109.095C206.658 109.136 206.907 109.156 207.192 109.156H208.41C209.182 109.156 209.766 109.339 210.162 109.704C210.558 110.06 210.756 110.563 210.756 111.212V111.837C210.756 112.385 210.629 112.812 210.375 113.117C210.121 113.421 209.766 113.634 209.309 113.756C208.862 113.878 208.329 113.939 207.71 113.939ZM214.884 113.939C214.122 113.939 213.528 113.736 213.101 113.33C212.685 112.913 212.477 112.284 212.477 111.441V105.698H214V111.03C214 111.639 214.137 112.05 214.411 112.263C214.696 112.477 215.092 112.583 215.6 112.583C216.006 112.583 216.392 112.522 216.757 112.401C217.133 112.269 217.498 112.091 217.854 111.867V105.698H219.377V113.848H218.159L217.854 112.979C217.458 113.233 217.001 113.457 216.483 113.65C215.975 113.843 215.442 113.939 214.884 113.939ZM221.477 117.458V105.698H222.726L223 106.521C223.193 106.379 223.421 106.237 223.686 106.094C223.96 105.952 224.254 105.835 224.569 105.744C224.894 105.642 225.219 105.592 225.544 105.592C226.062 105.592 226.503 105.698 226.869 105.912C227.245 106.125 227.549 106.424 227.783 106.81C228.017 107.186 228.184 107.628 228.286 108.136C228.397 108.643 228.453 109.187 228.453 109.765C228.453 110.669 228.352 111.436 228.149 112.065C227.956 112.685 227.646 113.157 227.219 113.482C226.803 113.797 226.245 113.954 225.544 113.954C225.117 113.954 224.681 113.893 224.234 113.771C223.787 113.639 223.376 113.467 223 113.254V117.458H221.477ZM225.087 112.675C225.432 112.675 225.742 112.588 226.016 112.416C226.29 112.243 226.509 111.949 226.671 111.532C226.844 111.106 226.93 110.517 226.93 109.765C226.93 109.055 226.844 108.486 226.671 108.059C226.498 107.623 226.275 107.313 226.001 107.13C225.727 106.937 225.427 106.841 225.102 106.841C224.676 106.841 224.285 106.907 223.929 107.039C223.584 107.171 223.274 107.308 223 107.45V112.096C223.315 112.269 223.65 112.411 224.005 112.522C224.371 112.624 224.731 112.675 225.087 112.675ZM230.313 117.458V105.698H231.562L231.836 106.521C232.029 106.379 232.257 106.237 232.521 106.094C232.796 105.952 233.09 105.835 233.405 105.744C233.73 105.642 234.055 105.592 234.38 105.592C234.898 105.592 235.339 105.698 235.705 105.912C236.081 106.125 236.385 106.424 236.619 106.81C236.853 107.186 237.02 107.628 237.122 108.136C237.233 108.643 237.289 109.187 237.289 109.765C237.289 110.669 237.188 111.436 236.985 112.065C236.792 112.685 236.482 113.157 236.055 113.482C235.639 113.797 235.081 113.954 234.38 113.954C233.953 113.954 233.517 113.893 233.07 113.771C232.623 113.639 232.212 113.467 231.836 113.254V117.458H230.313ZM233.923 112.675C234.268 112.675 234.578 112.588 234.852 112.416C235.126 112.243 235.345 111.949 235.507 111.532C235.68 111.106 235.766 110.517 235.766 109.765C235.766 109.055 235.68 108.486 235.507 108.059C235.334 107.623 235.111 107.313 234.837 107.13C234.563 106.937 234.263 106.841 233.938 106.841C233.512 106.841 233.121 106.907 232.765 107.039C232.42 107.171 232.11 107.308 231.836 107.45V112.096C232.151 112.269 232.486 112.411 232.841 112.522C233.207 112.624 233.567 112.675 233.923 112.675ZM242.469 113.939C241.85 113.939 241.312 113.873 240.855 113.741C240.408 113.609 240.037 113.391 239.743 113.086C239.448 112.771 239.23 112.345 239.088 111.807C238.946 111.268 238.875 110.588 238.875 109.765C238.875 108.912 238.946 108.217 239.088 107.679C239.23 107.13 239.448 106.704 239.743 106.399C240.037 106.094 240.413 105.886 240.87 105.775C241.327 105.653 241.86 105.592 242.469 105.592C243.079 105.592 243.612 105.653 244.069 105.775C244.526 105.896 244.901 106.11 245.196 106.414C245.49 106.719 245.709 107.145 245.851 107.694C245.993 108.232 246.064 108.923 246.064 109.765C246.064 110.598 245.993 111.289 245.851 111.837C245.709 112.375 245.49 112.797 245.196 113.101C244.912 113.406 244.541 113.624 244.084 113.756C243.627 113.878 243.089 113.939 242.469 113.939ZM242.469 112.69C242.804 112.69 243.099 112.66 243.353 112.599C243.617 112.538 243.835 112.411 244.008 112.218C244.18 112.015 244.312 111.715 244.404 111.319C244.495 110.923 244.541 110.4 244.541 109.75C244.541 109.1 244.495 108.582 244.404 108.196C244.312 107.8 244.18 107.506 244.008 107.313C243.835 107.12 243.617 106.993 243.353 106.932C243.099 106.861 242.804 106.826 242.469 106.826C242.124 106.826 241.819 106.861 241.555 106.932C241.302 106.993 241.088 107.12 240.916 107.313C240.753 107.506 240.626 107.8 240.535 108.196C240.454 108.582 240.413 109.1 240.413 109.75C240.413 110.4 240.454 110.923 240.535 111.319C240.626 111.715 240.753 112.015 240.916 112.218C241.088 112.411 241.302 112.538 241.555 112.599C241.819 112.66 242.124 112.69 242.469 112.69ZM247.925 113.848V105.698H249.098L249.448 107.069C249.794 106.653 250.18 106.303 250.606 106.018C251.033 105.734 251.53 105.592 252.099 105.592C252.231 105.592 252.358 105.602 252.48 105.622C252.602 105.632 252.718 105.653 252.83 105.683V107.252C252.688 107.232 252.541 107.217 252.388 107.206C252.236 107.186 252.079 107.176 251.916 107.176C251.571 107.176 251.261 107.217 250.987 107.298C250.713 107.379 250.449 107.506 250.195 107.679C249.951 107.841 249.702 108.044 249.448 108.288V113.848H247.925ZM257.229 113.848C256.68 113.848 256.223 113.761 255.858 113.589C255.502 113.406 255.238 113.117 255.066 112.72C254.903 112.324 254.827 111.796 254.837 111.136L254.898 106.947H253.603V105.957L254.929 105.698L255.157 103.413H256.361V105.698H258.569V106.947H256.361V111.121C256.361 111.436 256.391 111.69 256.452 111.883C256.513 112.076 256.599 112.223 256.711 112.324C256.823 112.426 256.944 112.502 257.076 112.553C257.208 112.594 257.335 112.619 257.457 112.629L258.463 112.72V113.848H257.229ZM75.6679 135.848C75.1195 135.848 74.6625 135.761 74.297 135.589C73.9415 135.406 73.6775 135.117 73.5049 134.72C73.3424 134.324 73.2662 133.796 73.2764 133.136L73.3373 128.947H72.0426V127.957L73.3678 127.698L73.5963 125.413H74.7996V127.698H77.0083V128.947H74.7996V133.121C74.7996 133.436 74.8301 133.69 74.891 133.883C74.952 134.076 75.0383 134.223 75.15 134.324C75.2617 134.426 75.3835 134.502 75.5156 134.553C75.6476 134.594 75.7745 134.619 75.8964 134.629L76.9017 134.72V135.848H75.6679ZM81.8678 135.939C81.2484 135.939 80.7101 135.873 80.2532 135.741C79.8064 135.609 79.4357 135.391 79.1412 135.086C78.8467 134.771 78.6284 134.345 78.4862 133.807C78.3441 133.268 78.273 132.588 78.273 131.765C78.273 130.912 78.3441 130.217 78.4862 129.679C78.6284 129.13 78.8467 128.704 79.1412 128.399C79.4357 128.094 79.8114 127.886 80.2684 127.775C80.7254 127.653 81.2585 127.592 81.8678 127.592C82.4771 127.592 83.0102 127.653 83.4672 127.775C83.9242 127.896 84.2999 128.11 84.5944 128.414C84.8889 128.719 85.1072 129.145 85.2494 129.694C85.3915 130.232 85.4626 130.923 85.4626 131.765C85.4626 132.598 85.3915 133.289 85.2494 133.837C85.1072 134.375 84.8889 134.797 84.5944 135.101C84.3101 135.406 83.9394 135.624 83.4824 135.756C83.0255 135.878 82.4872 135.939 81.8678 135.939ZM81.8678 134.69C82.2029 134.69 82.4974 134.66 82.7513 134.599C83.0153 134.538 83.2336 134.411 83.4063 134.218C83.5789 134.015 83.7109 133.715 83.8023 133.319C83.8937 132.923 83.9394 132.4 83.9394 131.75C83.9394 131.1 83.8937 130.582 83.8023 130.196C83.7109 129.8 83.5789 129.506 83.4063 129.313C83.2336 129.12 83.0153 128.993 82.7513 128.932C82.4974 128.861 82.2029 128.826 81.8678 128.826C81.5225 128.826 81.2179 128.861 80.9539 128.932C80.7 128.993 80.4867 129.12 80.3141 129.313C80.1516 129.506 80.0247 129.8 79.9333 130.196C79.8521 130.582 79.8114 131.1 79.8114 131.75C79.8114 132.4 79.8521 132.923 79.9333 133.319C80.0247 133.715 80.1516 134.015 80.3141 134.218C80.4867 134.411 80.7 134.538 80.9539 134.599C81.2179 134.66 81.5225 134.69 81.8678 134.69ZM90.6442 135.939C90.0248 135.939 89.4866 135.873 89.0296 135.741C88.5828 135.609 88.2121 135.391 87.9177 135.086C87.6232 134.771 87.4048 134.345 87.2627 133.807C87.1205 133.268 87.0494 132.588 87.0494 131.765C87.0494 130.912 87.1205 130.217 87.2627 129.679C87.4048 129.13 87.6232 128.704 87.9177 128.399C88.2121 128.094 88.5879 127.886 89.0449 127.775C89.5018 127.653 90.035 127.592 90.6442 127.592C91.2535 127.592 91.7867 127.653 92.2436 127.775C92.7006 127.896 93.0763 128.11 93.3708 128.414C93.6653 128.719 93.8837 129.145 94.0258 129.694C94.168 130.232 94.2391 130.923 94.2391 131.765C94.2391 132.598 94.168 133.289 94.0258 133.837C93.8837 134.375 93.6653 134.797 93.3708 135.101C93.0865 135.406 92.7158 135.624 92.2589 135.756C91.8019 135.878 91.2637 135.939 90.6442 135.939ZM90.6442 134.69C90.9794 134.69 91.2739 134.66 91.5277 134.599C91.7918 134.538 92.0101 134.411 92.1827 134.218C92.3553 134.015 92.4874 133.715 92.5788 133.319C92.6701 132.923 92.7158 132.4 92.7158 131.75C92.7158 131.1 92.6701 130.582 92.5788 130.196C92.4874 129.8 92.3553 129.506 92.1827 129.313C92.0101 129.12 91.7918 128.993 91.5277 128.932C91.2739 128.861 90.9794 128.826 90.6442 128.826C90.299 128.826 89.9943 128.861 89.7303 128.932C89.4764 128.993 89.2632 129.12 89.0905 129.313C88.9281 129.506 88.8011 129.8 88.7097 130.196C88.6285 130.582 88.5879 131.1 88.5879 131.75C88.5879 132.4 88.6285 132.923 88.7097 133.319C88.8011 133.715 88.9281 134.015 89.0905 134.218C89.2632 134.411 89.4764 134.538 89.7303 134.599C89.9943 134.66 90.299 134.69 90.6442 134.69ZM98.3697 135.863C97.8721 135.863 97.4506 135.777 97.1054 135.604C96.7703 135.431 96.5164 135.157 96.3438 134.781C96.1813 134.396 96.1 133.878 96.1 133.228V124.225H97.6233V133.03C97.6233 133.456 97.6639 133.786 97.7451 134.02C97.8365 134.243 97.9584 134.401 98.1107 134.492C98.2732 134.583 98.4611 134.644 98.6743 134.675L99.4359 134.766V135.863H98.3697ZM103.515 135.939C103.302 135.939 103.048 135.934 102.754 135.924C102.459 135.914 102.154 135.893 101.84 135.863C101.535 135.843 101.251 135.817 100.987 135.787C100.733 135.756 100.53 135.721 100.377 135.68V134.766H103.805C104.099 134.766 104.353 134.746 104.566 134.705C104.78 134.654 104.942 134.553 105.054 134.401C105.176 134.248 105.236 134.025 105.236 133.73V133.395C105.236 133.091 105.135 132.852 104.932 132.679C104.729 132.507 104.394 132.42 103.926 132.42H102.738C102.261 132.42 101.835 132.359 101.459 132.238C101.093 132.106 100.804 131.887 100.591 131.583C100.388 131.278 100.286 130.867 100.286 130.349V129.907C100.286 129.389 100.382 128.963 100.575 128.628C100.778 128.292 101.098 128.044 101.535 127.881C101.972 127.709 102.551 127.622 103.272 127.622C103.576 127.622 103.911 127.637 104.277 127.668C104.653 127.688 105.018 127.719 105.374 127.759C105.729 127.8 106.013 127.846 106.227 127.896V128.81H102.997C102.551 128.81 102.205 128.886 101.962 129.039C101.728 129.191 101.611 129.481 101.611 129.907V130.212C101.611 130.476 101.667 130.679 101.779 130.821C101.89 130.963 102.048 131.055 102.251 131.095C102.464 131.136 102.713 131.156 102.997 131.156H104.216C104.988 131.156 105.572 131.339 105.968 131.704C106.364 132.06 106.562 132.563 106.562 133.212V133.837C106.562 134.385 106.435 134.812 106.181 135.117C105.927 135.421 105.572 135.634 105.115 135.756C104.668 135.878 104.135 135.939 103.515 135.939ZM112.831 135.848V128.947H111.613V127.957L112.831 127.698V126.891C112.831 126.282 112.908 125.774 113.06 125.368C113.212 124.951 113.466 124.642 113.821 124.439C114.177 124.236 114.664 124.134 115.284 124.134C115.639 124.134 115.944 124.154 116.198 124.195C116.462 124.236 116.69 124.271 116.883 124.302V125.398H115.558C115.233 125.398 114.984 125.449 114.812 125.551C114.639 125.652 114.517 125.81 114.446 126.023C114.385 126.236 114.355 126.5 114.355 126.815V127.698H116.746V128.947H114.355V135.848H112.831ZM121.377 135.939C120.757 135.939 120.219 135.873 119.762 135.741C119.315 135.609 118.945 135.391 118.65 135.086C118.356 134.771 118.137 134.345 117.995 133.807C117.853 133.268 117.782 132.588 117.782 131.765C117.782 130.912 117.853 130.217 117.995 129.679C118.137 129.13 118.356 128.704 118.65 128.399C118.945 128.094 119.32 127.886 119.777 127.775C120.234 127.653 120.767 127.592 121.377 127.592C121.986 127.592 122.519 127.653 122.976 127.775C123.433 127.896 123.809 128.11 124.103 128.414C124.398 128.719 124.616 129.145 124.758 129.694C124.9 130.232 124.972 130.923 124.972 131.765C124.972 132.598 124.9 133.289 124.758 133.837C124.616 134.375 124.398 134.797 124.103 135.101C123.819 135.406 123.448 135.624 122.991 135.756C122.534 135.878 121.996 135.939 121.377 135.939ZM121.377 134.69C121.712 134.69 122.006 134.66 122.26 134.599C122.524 134.538 122.743 134.411 122.915 134.218C123.088 134.015 123.22 133.715 123.311 133.319C123.403 132.923 123.448 132.4 123.448 131.75C123.448 131.1 123.403 130.582 123.311 130.196C123.22 129.8 123.088 129.506 122.915 129.313C122.743 129.12 122.524 128.993 122.26 128.932C122.006 128.861 121.712 128.826 121.377 128.826C121.031 128.826 120.727 128.861 120.463 128.932C120.209 128.993 119.996 129.12 119.823 129.313C119.661 129.506 119.534 129.8 119.442 130.196C119.361 130.582 119.32 131.1 119.32 131.75C119.32 132.4 119.361 132.923 119.442 133.319C119.534 133.715 119.661 134.015 119.823 134.218C119.996 134.411 120.209 134.538 120.463 134.599C120.727 134.66 121.031 134.69 121.377 134.69ZM126.832 135.848V127.698H128.005L128.356 129.069C128.701 128.653 129.087 128.303 129.513 128.018C129.94 127.734 130.437 127.592 131.006 127.592C131.138 127.592 131.265 127.602 131.387 127.622C131.509 127.632 131.626 127.653 131.737 127.683V129.252C131.595 129.232 131.448 129.217 131.296 129.206C131.143 129.186 130.986 129.176 130.823 129.176C130.478 129.176 130.168 129.217 129.894 129.298C129.62 129.379 129.356 129.506 129.102 129.679C128.858 129.841 128.61 130.044 128.356 130.288V135.848H126.832ZM139.241 139.595C138.723 139.595 138.261 139.519 137.855 139.366C137.459 139.224 137.144 139.001 136.911 138.696C136.677 138.402 136.56 138.036 136.56 137.599V137.264C136.56 136.807 136.687 136.421 136.941 136.107C137.205 135.802 137.535 135.568 137.931 135.406C138.327 135.243 138.739 135.162 139.165 135.162L139.576 135.726C139.302 135.726 139.043 135.766 138.8 135.848C138.566 135.939 138.373 136.076 138.221 136.259C138.079 136.452 138.008 136.696 138.008 136.99V137.279C138.008 137.706 138.15 138.016 138.434 138.209C138.729 138.402 139.13 138.498 139.637 138.498H141.42C141.958 138.498 142.384 138.391 142.699 138.178C143.014 137.975 143.171 137.655 143.171 137.219V136.929C143.171 136.685 143.115 136.472 143.004 136.289C142.902 136.107 142.735 135.964 142.501 135.863C142.268 135.771 141.948 135.726 141.541 135.726H139.287C138.566 135.726 138.018 135.579 137.642 135.284C137.266 134.99 137.078 134.619 137.078 134.172C137.078 133.766 137.195 133.441 137.429 133.197C137.672 132.943 138.013 132.771 138.449 132.679C138.084 132.517 137.794 132.309 137.581 132.055C137.378 131.801 137.236 131.527 137.155 131.232C137.073 130.928 137.033 130.623 137.033 130.318C137.033 129.699 137.16 129.196 137.413 128.81C137.667 128.424 138.033 128.14 138.51 127.957C138.998 127.775 139.576 127.683 140.247 127.683H144.634V128.551L142.973 128.719C143.095 128.81 143.227 128.932 143.369 129.084C143.512 129.227 143.633 129.425 143.735 129.679C143.836 129.932 143.887 130.268 143.887 130.684C143.887 131.121 143.791 131.527 143.598 131.902C143.415 132.278 143.11 132.583 142.684 132.816C142.268 133.05 141.699 133.167 140.978 133.167H139.637C139.252 133.167 138.947 133.223 138.723 133.334C138.5 133.446 138.388 133.644 138.388 133.928C138.388 134.162 138.475 134.324 138.647 134.416C138.82 134.507 139.003 134.553 139.196 134.553H141.77C142.389 134.553 142.907 134.634 143.324 134.797C143.75 134.959 144.07 135.208 144.283 135.543C144.497 135.878 144.603 136.315 144.603 136.853V137.142C144.603 137.914 144.349 138.513 143.842 138.94C143.344 139.376 142.587 139.595 141.572 139.595H139.241ZM139.912 131.994H140.81C141.267 131.994 141.613 131.928 141.846 131.796C142.09 131.654 142.257 131.471 142.349 131.247C142.44 131.024 142.486 130.775 142.486 130.501C142.486 130.095 142.42 129.775 142.288 129.541C142.156 129.298 141.973 129.125 141.739 129.024C141.516 128.912 141.242 128.856 140.917 128.856H140.064C139.546 128.856 139.14 128.973 138.845 129.206C138.561 129.44 138.419 129.841 138.419 130.41C138.419 130.968 138.551 131.374 138.815 131.628C139.079 131.872 139.444 131.994 139.912 131.994ZM146.022 135.848V127.698H147.195L147.545 129.069C147.89 128.653 148.276 128.303 148.703 128.018C149.129 127.734 149.627 127.592 150.195 127.592C150.327 127.592 150.454 127.602 150.576 127.622C150.698 127.632 150.815 127.653 150.926 127.683V129.252C150.784 129.232 150.637 129.217 150.485 129.206C150.332 129.186 150.175 129.176 150.013 129.176C149.667 129.176 149.358 129.217 149.083 129.298C148.809 129.379 148.545 129.506 148.291 129.679C148.048 129.841 147.799 130.044 147.545 130.288V135.848H146.022ZM155.679 135.939C155.06 135.939 154.522 135.873 154.065 135.741C153.618 135.609 153.247 135.391 152.953 135.086C152.658 134.771 152.44 134.345 152.298 133.807C152.155 133.268 152.084 132.588 152.084 131.765C152.084 130.912 152.155 130.217 152.298 129.679C152.44 129.13 152.658 128.704 152.953 128.399C153.247 128.094 153.623 127.886 154.08 127.775C154.537 127.653 155.07 127.592 155.679 127.592C156.289 127.592 156.822 127.653 157.279 127.775C157.736 127.896 158.111 128.11 158.406 128.414C158.7 128.719 158.919 129.145 159.061 129.694C159.203 130.232 159.274 130.923 159.274 131.765C159.274 132.598 159.203 133.289 159.061 133.837C158.919 134.375 158.7 134.797 158.406 135.101C158.121 135.406 157.751 135.624 157.294 135.756C156.837 135.878 156.299 135.939 155.679 135.939ZM155.679 134.69C156.014 134.69 156.309 134.66 156.563 134.599C156.827 134.538 157.045 134.411 157.218 134.218C157.39 134.015 157.522 133.715 157.614 133.319C157.705 132.923 157.751 132.4 157.751 131.75C157.751 131.1 157.705 130.582 157.614 130.196C157.522 129.8 157.39 129.506 157.218 129.313C157.045 129.12 156.827 128.993 156.563 128.932C156.309 128.861 156.014 128.826 155.679 128.826C155.334 128.826 155.029 128.861 154.765 128.932C154.511 128.993 154.298 129.12 154.126 129.313C153.963 129.506 153.836 129.8 153.745 130.196C153.663 130.582 153.623 131.1 153.623 131.75C153.623 132.4 153.663 132.923 153.745 133.319C153.836 133.715 153.963 134.015 154.126 134.218C154.298 134.411 154.511 134.538 154.765 134.599C155.029 134.66 155.334 134.69 155.679 134.69ZM162.406 135.848L160.03 127.698H161.599L163.381 134.431L165.301 127.698H166.595L168.515 134.431L170.221 127.698H171.79L169.444 135.848H167.753L165.925 129.8L164.067 135.848H162.406ZM173.323 126.327C173.14 126.327 173.049 126.241 173.049 126.068V124.789C173.049 124.606 173.14 124.515 173.323 124.515H174.45C174.531 124.515 174.592 124.54 174.633 124.591C174.674 124.642 174.694 124.708 174.694 124.789V126.068C174.694 126.241 174.613 126.327 174.45 126.327H173.323ZM173.11 135.848V127.698H174.633V135.848H173.11ZM176.769 135.848V127.698H177.988L178.292 128.582C178.658 128.318 179.089 128.084 179.587 127.881C180.095 127.668 180.618 127.561 181.156 127.561C181.765 127.561 182.253 127.693 182.618 127.957C182.994 128.211 183.263 128.551 183.426 128.978C183.588 129.404 183.669 129.866 183.669 130.364V135.848H182.146V130.547C182.146 130.222 182.08 129.943 181.948 129.709C181.826 129.465 181.653 129.277 181.43 129.145C181.207 129.013 180.933 128.947 180.608 128.947C180.303 128.947 180.019 128.978 179.755 129.039C179.501 129.1 179.257 129.186 179.023 129.298C178.79 129.399 178.546 129.526 178.292 129.679V135.848H176.769ZM187.78 139.595C187.262 139.595 186.8 139.519 186.393 139.366C185.997 139.224 185.683 139.001 185.449 138.696C185.215 138.402 185.099 138.036 185.099 137.599V137.264C185.099 136.807 185.226 136.421 185.48 136.107C185.744 135.802 186.074 135.568 186.47 135.406C186.866 135.243 187.277 135.162 187.703 135.162L188.115 135.726C187.841 135.726 187.582 135.766 187.338 135.848C187.104 135.939 186.911 136.076 186.759 136.259C186.617 136.452 186.546 136.696 186.546 136.99V137.279C186.546 137.706 186.688 138.016 186.972 138.209C187.267 138.402 187.668 138.498 188.176 138.498H189.958C190.496 138.498 190.923 138.391 191.237 138.178C191.552 137.975 191.71 137.655 191.71 137.219V136.929C191.71 136.685 191.654 136.472 191.542 136.289C191.44 136.107 191.273 135.964 191.039 135.863C190.806 135.771 190.486 135.726 190.08 135.726H187.825C187.104 135.726 186.556 135.579 186.18 135.284C185.804 134.99 185.617 134.619 185.617 134.172C185.617 133.766 185.733 133.441 185.967 133.197C186.211 132.943 186.551 132.771 186.988 132.679C186.622 132.517 186.333 132.309 186.119 132.055C185.916 131.801 185.774 131.527 185.693 131.232C185.612 130.928 185.571 130.623 185.571 130.318C185.571 129.699 185.698 129.196 185.952 128.81C186.206 128.424 186.571 128.14 187.048 127.957C187.536 127.775 188.115 127.683 188.785 127.683H193.172V128.551L191.512 128.719C191.633 128.81 191.765 128.932 191.908 129.084C192.05 129.227 192.172 129.425 192.273 129.679C192.375 129.932 192.425 130.268 192.425 130.684C192.425 131.121 192.329 131.527 192.136 131.902C191.953 132.278 191.649 132.583 191.222 132.816C190.806 133.05 190.237 133.167 189.516 133.167H188.176C187.79 133.167 187.485 133.223 187.262 133.334C187.038 133.446 186.927 133.644 186.927 133.928C186.927 134.162 187.013 134.324 187.186 134.416C187.358 134.507 187.541 134.553 187.734 134.553H190.308C190.928 134.553 191.446 134.634 191.862 134.797C192.288 134.959 192.608 135.208 192.822 135.543C193.035 135.878 193.141 136.315 193.141 136.853V137.142C193.141 137.914 192.888 138.513 192.38 138.94C191.882 139.376 191.126 139.595 190.11 139.595H187.78ZM188.45 131.994H189.349C189.806 131.994 190.151 131.928 190.384 131.796C190.628 131.654 190.796 131.471 190.887 131.247C190.978 131.024 191.024 130.775 191.024 130.501C191.024 130.095 190.958 129.775 190.826 129.541C190.694 129.298 190.511 129.125 190.278 129.024C190.054 128.912 189.78 128.856 189.455 128.856H188.602C188.084 128.856 187.678 128.973 187.384 129.206C187.099 129.44 186.957 129.841 186.957 130.41C186.957 130.968 187.089 131.374 187.353 131.628C187.617 131.872 187.983 131.994 188.45 131.994ZM201.424 135.848C200.876 135.848 200.419 135.761 200.053 135.589C199.698 135.406 199.434 135.117 199.261 134.72C199.099 134.324 199.022 133.796 199.033 133.136L199.093 128.947H197.799V127.957L199.124 127.698L199.352 125.413H200.556V127.698H202.764V128.947H200.556V133.121C200.556 133.436 200.586 133.69 200.647 133.883C200.708 134.076 200.794 134.223 200.906 134.324C201.018 134.426 201.14 134.502 201.272 134.553C201.404 134.594 201.531 134.619 201.652 134.629L202.658 134.72V135.848H201.424ZM207.517 135.939C206.654 135.939 205.964 135.812 205.446 135.558C204.938 135.304 204.572 134.878 204.349 134.279C204.136 133.669 204.029 132.832 204.029 131.765C204.029 130.679 204.136 129.836 204.349 129.237C204.572 128.628 204.938 128.201 205.446 127.957C205.953 127.714 206.639 127.592 207.502 127.592C208.254 127.592 208.858 127.673 209.315 127.835C209.782 127.988 210.122 128.267 210.335 128.673C210.559 129.069 210.67 129.623 210.67 130.334C210.67 130.831 210.569 131.227 210.366 131.522C210.173 131.816 209.894 132.029 209.528 132.161C209.173 132.293 208.746 132.359 208.248 132.359H205.552C205.562 132.948 205.628 133.421 205.75 133.776C205.882 134.121 206.111 134.375 206.436 134.538C206.771 134.69 207.258 134.766 207.898 134.766H210.442V135.68C210.005 135.741 209.558 135.797 209.101 135.848C208.644 135.909 208.116 135.939 207.517 135.939ZM205.537 131.4H208.111C208.518 131.4 208.817 131.324 209.01 131.171C209.203 131.019 209.299 130.74 209.299 130.334C209.299 129.927 209.239 129.607 209.117 129.374C209.005 129.14 208.817 128.973 208.553 128.871C208.289 128.77 207.939 128.719 207.502 128.719C207.004 128.719 206.608 128.795 206.314 128.947C206.03 129.1 205.826 129.369 205.705 129.755C205.593 130.141 205.537 130.689 205.537 131.4ZM214.159 135.939C213.56 135.939 213.062 135.761 212.666 135.406C212.281 135.04 212.088 134.538 212.088 133.898V133.258C212.088 132.629 212.301 132.116 212.727 131.72C213.164 131.313 213.819 131.11 214.692 131.11H217.236V130.257C217.236 129.943 217.18 129.679 217.069 129.465C216.967 129.242 216.774 129.074 216.49 128.963C216.205 128.851 215.784 128.795 215.225 128.795H212.727V127.896C213.093 127.815 213.519 127.744 214.007 127.683C214.504 127.622 215.083 127.587 215.743 127.576C216.414 127.576 216.972 127.663 217.419 127.835C217.876 127.998 218.216 128.272 218.439 128.658C218.663 129.034 218.775 129.536 218.775 130.166V135.848H217.571L217.312 134.949C217.251 134.99 217.124 135.066 216.931 135.177C216.739 135.279 216.49 135.391 216.185 135.513C215.891 135.634 215.566 135.736 215.21 135.817C214.865 135.898 214.515 135.939 214.159 135.939ZM214.86 134.827C215.012 134.837 215.19 134.822 215.393 134.781C215.606 134.741 215.814 134.695 216.018 134.644C216.231 134.583 216.424 134.522 216.596 134.462C216.779 134.401 216.926 134.35 217.038 134.309C217.16 134.258 217.226 134.228 217.236 134.218V131.872L215.104 131.963C214.576 131.994 214.195 132.126 213.961 132.359C213.738 132.593 213.626 132.898 213.626 133.273V133.639C213.626 133.933 213.687 134.172 213.809 134.355C213.931 134.528 214.083 134.649 214.266 134.72C214.459 134.792 214.657 134.827 214.86 134.827ZM220.845 135.848V127.698H222.063L222.368 128.582C222.764 128.308 223.201 128.069 223.678 127.866C224.155 127.663 224.703 127.561 225.323 127.561C225.831 127.561 226.262 127.673 226.618 127.896C226.973 128.12 227.242 128.404 227.425 128.749C227.669 128.567 227.963 128.384 228.308 128.201C228.654 128.018 229.024 127.866 229.42 127.744C229.816 127.622 230.197 127.561 230.563 127.561C231.172 127.561 231.665 127.688 232.04 127.942C232.426 128.186 232.7 128.526 232.863 128.963C233.036 129.389 233.122 129.877 233.122 130.425V135.848H231.599V130.547C231.599 130.222 231.533 129.943 231.401 129.709C231.279 129.465 231.101 129.277 230.867 129.145C230.644 129.013 230.37 128.947 230.045 128.947C229.639 128.947 229.222 129.029 228.796 129.191C228.369 129.343 227.978 129.531 227.623 129.755C227.664 129.887 227.694 130.024 227.714 130.166C227.735 130.298 227.745 130.43 227.745 130.562V135.848H226.222V130.547C226.222 130.222 226.156 129.943 226.024 129.709C225.902 129.465 225.729 129.277 225.506 129.145C225.282 129.013 225.008 128.947 224.683 128.947C224.379 128.947 224.094 128.978 223.83 129.039C223.576 129.1 223.333 129.186 223.099 129.298C222.865 129.399 222.622 129.526 222.368 129.679V135.848H220.845ZM238.063 135.939C237.849 135.939 237.596 135.934 237.301 135.924C237.007 135.914 236.702 135.893 236.387 135.863C236.082 135.843 235.798 135.817 235.534 135.787C235.28 135.756 235.077 135.721 234.925 135.68V134.766H238.352C238.647 134.766 238.9 134.746 239.114 134.705C239.327 134.654 239.489 134.553 239.601 134.401C239.723 134.248 239.784 134.025 239.784 133.73V133.395C239.784 133.091 239.682 132.852 239.479 132.679C239.276 132.507 238.941 132.42 238.474 132.42H237.286C236.809 132.42 236.382 132.359 236.006 132.238C235.641 132.106 235.351 131.887 235.138 131.583C234.935 131.278 234.833 130.867 234.833 130.349V129.907C234.833 129.389 234.93 128.963 235.123 128.628C235.326 128.292 235.646 128.044 236.082 127.881C236.519 127.709 237.098 127.622 237.819 127.622C238.124 127.622 238.459 127.637 238.824 127.668C239.2 127.688 239.566 127.719 239.921 127.759C240.276 127.8 240.561 127.846 240.774 127.896V128.81H237.545C237.098 128.81 236.753 128.886 236.509 129.039C236.275 129.191 236.159 129.481 236.159 129.907V130.212C236.159 130.476 236.214 130.679 236.326 130.821C236.438 130.963 236.595 131.055 236.798 131.095C237.012 131.136 237.26 131.156 237.545 131.156H238.763C239.535 131.156 240.119 131.339 240.515 131.704C240.911 132.06 241.109 132.563 241.109 133.212V133.837C241.109 134.385 240.982 134.812 240.728 135.117C240.474 135.421 240.119 135.634 239.662 135.756C239.215 135.878 238.682 135.939 238.063 135.939Z" fill="white"/>
</svg>
