<svg width="314" height="181" viewBox="0 0 314 181" fill="none" xmlns="http://www.w3.org/2000/svg">
<g clip-path="url(#clip0_1493_1576)">
<path d="M0.403564 0.615234H313.402V181.459H0.403564V0.615234Z" fill="url(#paint0_linear_1493_1576)"/>
<ellipse cx="67.1276" cy="66.4695" rx="67.1276" ry="66.4695" transform="matrix(0.866025 -0.5 -0.5 -0.866025 284.016 78.0508)" fill="url(#paint1_linear_1493_1576)"/>
<ellipse cx="67.1276" cy="66.4695" rx="67.1276" ry="66.4695" transform="matrix(-0.866025 -0.5 -0.5 0.866025 76.2004 153.387)" fill="url(#paint2_linear_1493_1576)"/>
</g>
<path d="M89.6971 100.654L83.4518 88.6207C82.741 88.6207 81.9624 88.6207 81.1162 88.6207C80.2699 88.5869 79.4237 88.57 78.5774 88.57C77.7312 88.5361 76.9188 88.5192 76.1403 88.5192V82.2232H84.7719C85.3474 82.2232 85.9059 82.1385 86.4475 81.9693C86.9891 81.7662 87.463 81.4277 87.8692 80.9538C88.3092 80.4799 88.6477 79.8368 88.8847 79.0244C89.1555 78.1781 89.2909 77.1119 89.2909 75.8256C89.2909 74.2685 89.1047 73.0668 88.7323 72.2206C88.36 71.3405 87.8692 70.7312 87.2599 70.3927C86.6506 70.0204 85.9228 69.8342 85.0766 69.8342H76.1403V63.0812H86.0921C87.3107 63.0812 88.5462 63.2674 89.7986 63.6397C91.0849 64.012 92.2527 64.6721 93.302 65.6199C94.3514 66.5677 95.1976 67.8709 95.8408 69.5295C96.4839 71.1543 96.8055 73.253 96.8055 75.8256C96.8055 77.9243 96.6362 79.6844 96.2977 81.1061C95.9931 82.494 95.57 83.6279 95.0284 84.508C94.4868 85.3881 93.8606 86.082 93.1497 86.5898C92.4389 87.0637 91.728 87.4529 91.0172 87.7576L97.8718 100.654H89.6971ZM76.1403 77.8566V74.0485H102.898V77.8566H76.1403ZM84.7719 66.8893V63.0812H102.898V66.8893H84.7719ZM118.251 100.908C116.423 100.908 114.799 100.637 113.377 100.096C111.989 99.5203 110.821 98.5556 109.874 97.2016C108.926 95.8138 108.215 93.9182 107.741 91.5149C107.267 89.1116 107.03 86.0651 107.03 82.3755C107.03 78.6859 107.335 75.5886 107.944 73.0838C108.587 70.5789 109.518 68.5648 110.737 67.0416C111.989 65.5184 113.479 64.4352 115.205 63.792C116.965 63.115 118.962 62.7765 121.196 62.7765C122.855 62.7765 124.53 62.8442 126.223 62.9796C127.915 63.115 129.439 63.3181 130.793 63.5889V69.5295H121.907C119.368 69.5295 117.507 70.325 116.322 71.9159C115.137 73.473 114.545 75.7917 114.545 78.872C115.357 78.6351 116.187 78.4658 117.033 78.3643C117.913 78.2289 118.844 78.1443 119.825 78.1104C120.841 78.0427 121.907 78.0089 123.024 78.0089C125.495 78.0089 127.458 78.3643 128.914 79.0751C130.403 79.7521 131.453 80.7507 132.062 82.0708C132.705 83.3571 133.027 84.8804 133.027 86.6405V92.0226C133.027 94.1552 132.621 95.8646 131.808 97.1509C131.03 98.4371 129.929 99.3849 128.508 99.9942C127.12 100.604 125.529 100.908 123.735 100.908H118.251ZM119.775 94.1552H122.009C122.753 94.1552 123.38 94.0367 123.887 93.7997C124.395 93.5628 124.784 93.1735 125.055 92.6319C125.36 92.0903 125.512 91.3964 125.512 90.5502V88.0622C125.512 87.0806 125.343 86.3359 125.004 85.8281C124.7 85.2866 124.209 84.9142 123.532 84.7111C122.855 84.508 121.992 84.4065 120.942 84.4065H114.545C114.545 86.3359 114.646 87.9438 114.849 89.23C115.053 90.4825 115.374 91.4641 115.814 92.175C116.254 92.8858 116.796 93.3935 117.439 93.6982C118.082 94.0028 118.861 94.1552 119.775 94.1552ZM140.614 105.173C139.97 105.173 139.412 105.122 138.938 105.021C138.464 104.919 138.227 104.869 138.227 104.869V102.482C138.701 102.482 139.04 102.414 139.243 102.279C139.48 102.144 139.598 101.873 139.598 101.467V100.147H139.09C138.786 100.147 138.532 100.062 138.329 99.8927C138.126 99.6896 138.024 99.4019 138.024 99.0295V94.6121C138.024 93.8336 138.379 93.4443 139.09 93.4443H143.355C143.762 93.4443 144.032 93.5628 144.168 93.7997C144.337 94.0028 144.422 94.2736 144.422 94.6121V101.568C144.422 102.55 144.219 103.311 143.812 103.853C143.406 104.395 142.915 104.75 142.34 104.919C141.764 105.089 141.189 105.173 140.614 105.173ZM160.853 100.908C159.194 100.908 157.519 100.84 155.826 100.705C154.167 100.57 152.661 100.367 151.307 100.096V94.1552H160.142C162.681 94.1552 164.542 93.3766 165.727 91.8195C166.912 90.2286 167.504 87.893 167.504 84.8127C166.759 85.0496 165.93 85.2358 165.016 85.3712C164.136 85.5066 163.205 85.5912 162.224 85.6251C161.242 85.6589 160.176 85.6758 159.025 85.6758C156.554 85.6758 154.591 85.3373 153.135 84.6603C151.679 83.9495 150.63 82.9509 149.987 81.6646C149.378 80.3784 149.073 78.8382 149.073 77.0442V71.6621C149.073 69.5634 149.462 67.8709 150.241 66.5846C151.019 65.2645 152.103 64.3167 153.49 63.7412C154.912 63.132 156.537 62.8273 158.365 62.8273H163.798C165.626 62.8273 167.233 63.115 168.621 63.6905C170.043 64.2321 171.228 65.1799 172.175 66.5338C173.123 67.8878 173.834 69.7834 174.308 72.2206C174.816 74.6239 175.07 77.6704 175.07 81.36C175.07 85.0158 174.748 88.113 174.105 90.6517C173.462 93.1566 172.531 95.1707 171.312 96.6939C170.094 98.1833 168.604 99.2665 166.844 99.9435C165.084 100.587 163.087 100.908 160.853 100.908ZM161.157 79.2782H167.504C167.504 77.3488 167.403 75.7579 167.2 74.5054C166.996 73.253 166.675 72.2714 166.235 71.5605C165.829 70.8158 165.304 70.3081 164.661 70.0373C164.018 69.7326 163.239 69.5803 162.325 69.5803H160.04C159.329 69.5803 158.703 69.6988 158.162 69.9357C157.654 70.1727 157.265 70.545 156.994 71.0528C156.723 71.5605 156.588 72.2714 156.588 73.1853V75.6225C156.588 76.6041 156.74 77.3657 157.045 77.9073C157.383 78.4151 157.891 78.7705 158.568 78.9736C159.245 79.1767 160.108 79.2782 161.157 79.2782ZM191.694 100.908C190.036 100.908 188.36 100.84 186.668 100.705C185.009 100.57 183.503 100.367 182.149 100.096V94.1552H190.983C193.522 94.1552 195.384 93.3766 196.569 91.8195C197.753 90.2286 198.346 87.893 198.346 84.8127C197.601 85.0496 196.772 85.2358 195.858 85.3712C194.978 85.5066 194.047 85.5912 193.065 85.6251C192.084 85.6589 191.017 85.6758 189.866 85.6758C187.395 85.6758 185.432 85.3373 183.977 84.6603C182.521 83.9495 181.472 82.9509 180.829 81.6646C180.219 80.3784 179.915 78.8382 179.915 77.0442V71.6621C179.915 69.5634 180.304 67.8709 181.082 66.5846C181.861 65.2645 182.944 64.3167 184.332 63.7412C185.754 63.132 187.378 62.8273 189.206 62.8273H194.639C196.467 62.8273 198.075 63.115 199.463 63.6905C200.884 64.2321 202.069 65.1799 203.017 66.5338C203.965 67.8878 204.676 69.7834 205.15 72.2206C205.657 74.6239 205.911 77.6704 205.911 81.36C205.911 85.0158 205.59 88.113 204.946 90.6517C204.303 93.1566 203.372 95.1707 202.154 96.6939C200.935 98.1833 199.446 99.2665 197.686 99.9435C195.925 100.587 193.928 100.908 191.694 100.908ZM191.999 79.2782H198.346C198.346 77.3488 198.244 75.7579 198.041 74.5054C197.838 73.253 197.516 72.2714 197.076 71.5605C196.67 70.8158 196.145 70.3081 195.502 70.0373C194.859 69.7326 194.081 69.5803 193.167 69.5803H190.882C190.171 69.5803 189.545 69.6988 189.003 69.9357C188.495 70.1727 188.106 70.545 187.835 71.0528C187.565 71.5605 187.429 72.2714 187.429 73.1853V75.6225C187.429 76.6041 187.582 77.3657 187.886 77.9073C188.225 78.4151 188.732 78.7705 189.409 78.9736C190.086 79.1767 190.95 79.2782 191.999 79.2782ZM222.536 100.908C220.877 100.908 219.202 100.84 217.509 100.705C215.85 100.57 214.344 100.367 212.99 100.096V94.1552H221.825C224.364 94.1552 226.225 93.3766 227.41 91.8195C228.595 90.2286 229.187 87.893 229.187 84.8127C228.443 85.0496 227.613 85.2358 226.699 85.3712C225.819 85.5066 224.888 85.5912 223.907 85.6251C222.925 85.6589 221.859 85.6758 220.708 85.6758C218.237 85.6758 216.274 85.3373 214.818 84.6603C213.363 83.9495 212.313 82.9509 211.67 81.6646C211.061 80.3784 210.756 78.8382 210.756 77.0442V71.6621C210.756 69.5634 211.145 67.8709 211.924 66.5846C212.702 65.2645 213.786 64.3167 215.173 63.7412C216.595 63.132 218.22 62.8273 220.048 62.8273H225.481C227.309 62.8273 228.916 63.115 230.304 63.6905C231.726 64.2321 232.911 65.1799 233.858 66.5338C234.806 67.8878 235.517 69.7834 235.991 72.2206C236.499 74.6239 236.753 77.6704 236.753 81.36C236.753 85.0158 236.431 88.113 235.788 90.6517C235.145 93.1566 234.214 95.1707 232.995 96.6939C231.777 98.1833 230.287 99.2665 228.527 99.9435C226.767 100.587 224.77 100.908 222.536 100.908ZM222.84 79.2782H229.187C229.187 77.3488 229.086 75.7579 228.883 74.5054C228.679 73.253 228.358 72.2714 227.918 71.5605C227.512 70.8158 226.987 70.3081 226.344 70.0373C225.701 69.7326 224.922 69.5803 224.008 69.5803H221.723C221.013 69.5803 220.386 69.6988 219.845 69.9357C219.337 70.1727 218.948 70.545 218.677 71.0528C218.406 71.5605 218.271 72.2714 218.271 73.1853V75.6225C218.271 76.6041 218.423 77.3657 218.728 77.9073C219.066 78.4151 219.574 78.7705 220.251 78.9736C220.928 79.1767 221.791 79.2782 222.84 79.2782Z" fill="white"/>
<path d="M121.963 127.755V116.649H123.143L123.402 117.426C123.584 117.292 123.8 117.157 124.049 117.023C124.308 116.889 124.586 116.779 124.884 116.692C125.191 116.596 125.497 116.548 125.804 116.548C126.293 116.548 126.711 116.649 127.056 116.851C127.411 117.052 127.698 117.335 127.919 117.699C128.14 118.054 128.298 118.471 128.394 118.951C128.499 119.43 128.552 119.944 128.552 120.49C128.552 121.344 128.456 122.068 128.264 122.663C128.082 123.248 127.79 123.694 127.387 124C126.994 124.298 126.466 124.446 125.804 124.446C125.402 124.446 124.989 124.389 124.567 124.274C124.145 124.149 123.757 123.986 123.402 123.785V127.755H121.963ZM125.373 123.238C125.699 123.238 125.991 123.156 126.25 122.993C126.509 122.83 126.715 122.552 126.869 122.159C127.032 121.756 127.113 121.2 127.113 120.49C127.113 119.819 127.032 119.282 126.869 118.879C126.706 118.467 126.495 118.174 126.236 118.001C125.977 117.819 125.694 117.728 125.387 117.728C124.984 117.728 124.615 117.79 124.279 117.915C123.953 118.04 123.661 118.169 123.402 118.304V122.691C123.699 122.854 124.016 122.989 124.351 123.094C124.697 123.19 125.037 123.238 125.373 123.238ZM133.344 124.432C132.529 124.432 131.876 124.312 131.387 124.072C130.908 123.833 130.562 123.43 130.351 122.864C130.15 122.288 130.049 121.497 130.049 120.49C130.049 119.464 130.15 118.668 130.351 118.102C130.562 117.527 130.908 117.124 131.387 116.894C131.867 116.664 132.514 116.548 133.329 116.548C134.039 116.548 134.61 116.625 135.041 116.779C135.483 116.922 135.804 117.186 136.005 117.57C136.216 117.944 136.322 118.467 136.322 119.138C136.322 119.608 136.226 119.982 136.034 120.26C135.852 120.538 135.588 120.74 135.243 120.864C134.907 120.989 134.504 121.051 134.034 121.051H131.488C131.498 121.608 131.56 122.054 131.675 122.389C131.8 122.715 132.015 122.955 132.322 123.108C132.639 123.252 133.099 123.324 133.703 123.324H136.106V124.187C135.693 124.245 135.272 124.298 134.84 124.346C134.408 124.403 133.91 124.432 133.344 124.432ZM131.474 120.145H133.905C134.288 120.145 134.571 120.073 134.754 119.929C134.936 119.785 135.027 119.522 135.027 119.138C135.027 118.754 134.969 118.452 134.854 118.232C134.749 118.011 134.571 117.853 134.322 117.757C134.073 117.661 133.742 117.613 133.329 117.613C132.859 117.613 132.485 117.685 132.207 117.829C131.939 117.973 131.747 118.227 131.632 118.591C131.526 118.956 131.474 119.474 131.474 120.145ZM138.077 124.346V116.649H139.185L139.516 117.944C139.842 117.551 140.207 117.22 140.609 116.951C141.012 116.683 141.482 116.548 142.019 116.548C142.144 116.548 142.264 116.558 142.379 116.577C142.494 116.587 142.604 116.606 142.71 116.635V118.117C142.575 118.097 142.436 118.083 142.292 118.073C142.149 118.054 142 118.045 141.847 118.045C141.52 118.045 141.228 118.083 140.969 118.16C140.71 118.236 140.461 118.356 140.221 118.519C139.991 118.673 139.756 118.865 139.516 119.095V124.346H138.077ZM150.991 124.432C150.761 124.432 150.497 124.422 150.2 124.403C149.912 124.394 149.615 124.374 149.308 124.346C149.01 124.317 148.723 124.288 148.445 124.259C148.176 124.231 147.946 124.192 147.754 124.144V123.022C148.003 123.041 148.301 123.061 148.646 123.08C149.001 123.099 149.375 123.113 149.768 123.123C150.171 123.132 150.559 123.137 150.933 123.137C151.346 123.137 151.71 123.099 152.027 123.022C152.353 122.945 152.607 122.802 152.789 122.591C152.981 122.38 153.077 122.082 153.077 121.699V121.08C153.077 120.648 152.957 120.318 152.717 120.087C152.487 119.857 152.132 119.742 151.653 119.742H150.574C149.653 119.742 148.938 119.541 148.43 119.138C147.931 118.735 147.682 118.045 147.682 117.066V116.491C147.682 115.474 147.955 114.75 148.502 114.319C149.058 113.877 149.845 113.657 150.861 113.657C151.197 113.657 151.557 113.676 151.94 113.714C152.324 113.743 152.698 113.782 153.063 113.829C153.427 113.877 153.729 113.925 153.969 113.973V115.095C153.537 115.067 153.053 115.038 152.516 115.009C151.988 114.971 151.49 114.952 151.02 114.952C150.617 114.952 150.267 115 149.969 115.095C149.682 115.182 149.456 115.34 149.293 115.57C149.14 115.8 149.063 116.126 149.063 116.548V116.98C149.063 117.498 149.202 117.858 149.48 118.059C149.758 118.26 150.147 118.361 150.646 118.361H151.811C152.415 118.361 152.909 118.471 153.293 118.692C153.686 118.913 153.978 119.215 154.17 119.598C154.362 119.982 154.458 120.418 154.458 120.907V121.656C154.458 122.404 154.305 122.979 153.998 123.382C153.691 123.785 153.278 124.063 152.76 124.216C152.243 124.36 151.653 124.432 150.991 124.432ZM159.292 124.432C158.477 124.432 157.825 124.312 157.336 124.072C156.856 123.833 156.511 123.43 156.3 122.864C156.098 122.288 155.998 121.497 155.998 120.49C155.998 119.464 156.098 118.668 156.3 118.102C156.511 117.527 156.856 117.124 157.336 116.894C157.815 116.664 158.463 116.548 159.278 116.548C159.987 116.548 160.558 116.625 160.99 116.779C161.431 116.922 161.752 117.186 161.954 117.57C162.165 117.944 162.27 118.467 162.27 119.138C162.27 119.608 162.174 119.982 161.982 120.26C161.8 120.538 161.536 120.74 161.191 120.864C160.855 120.989 160.453 121.051 159.983 121.051H157.436C157.446 121.608 157.508 122.054 157.623 122.389C157.748 122.715 157.964 122.955 158.271 123.108C158.587 123.252 159.048 123.324 159.652 123.324H162.054V124.187C161.642 124.245 161.22 124.298 160.788 124.346C160.357 124.403 159.858 124.432 159.292 124.432ZM157.422 120.145H159.853C160.237 120.145 160.52 120.073 160.702 119.929C160.884 119.785 160.975 119.522 160.975 119.138C160.975 118.754 160.918 118.452 160.803 118.232C160.697 118.011 160.52 117.853 160.27 117.757C160.021 117.661 159.69 117.613 159.278 117.613C158.808 117.613 158.434 117.685 158.156 117.829C157.887 117.973 157.695 118.227 157.58 118.591C157.475 118.956 157.422 119.474 157.422 120.145ZM167.061 124.432C166.246 124.432 165.594 124.312 165.105 124.072C164.625 123.833 164.28 123.43 164.069 122.864C163.867 122.288 163.767 121.497 163.767 120.49C163.767 119.464 163.867 118.668 164.069 118.102C164.28 117.527 164.625 117.124 165.105 116.894C165.584 116.664 166.232 116.548 167.047 116.548C167.757 116.548 168.327 116.625 168.759 116.779C169.2 116.922 169.521 117.186 169.723 117.57C169.934 117.944 170.039 118.467 170.039 119.138C170.039 119.608 169.943 119.982 169.751 120.26C169.569 120.538 169.305 120.74 168.96 120.864C168.624 120.989 168.222 121.051 167.752 121.051H165.205C165.215 121.608 165.277 122.054 165.392 122.389C165.517 122.715 165.733 122.955 166.04 123.108C166.356 123.252 166.817 123.324 167.421 123.324H169.823V124.187C169.411 124.245 168.989 124.298 168.557 124.346C168.126 124.403 167.627 124.432 167.061 124.432ZM165.191 120.145H167.622C168.006 120.145 168.289 120.073 168.471 119.929C168.653 119.785 168.744 119.522 168.744 119.138C168.744 118.754 168.687 118.452 168.572 118.232C168.466 118.011 168.289 117.853 168.039 117.757C167.79 117.661 167.459 117.613 167.047 117.613C166.577 117.613 166.203 117.685 165.925 117.829C165.656 117.973 165.464 118.227 165.349 118.591C165.244 118.956 165.191 119.474 165.191 120.145ZM171.795 124.346V113.369H173.233V119.598H174.284L176.427 116.649H177.923L175.348 120.246L178.11 124.346H176.6L174.24 120.893H173.233V124.346H171.795ZM182.332 124.432C181.517 124.432 180.865 124.312 180.376 124.072C179.896 123.833 179.551 123.43 179.34 122.864C179.139 122.288 179.038 121.497 179.038 120.49C179.038 119.464 179.139 118.668 179.34 118.102C179.551 117.527 179.896 117.124 180.376 116.894C180.855 116.664 181.503 116.548 182.318 116.548C183.028 116.548 183.598 116.625 184.03 116.779C184.471 116.922 184.792 117.186 184.994 117.57C185.205 117.944 185.31 118.467 185.31 119.138C185.31 119.608 185.214 119.982 185.023 120.26C184.84 120.538 184.577 120.74 184.231 120.864C183.896 120.989 183.493 121.051 183.023 121.051H180.477C180.486 121.608 180.549 122.054 180.664 122.389C180.788 122.715 181.004 122.955 181.311 123.108C181.627 123.252 182.088 123.324 182.692 123.324H185.095V124.187C184.682 124.245 184.26 124.298 183.829 124.346C183.397 124.403 182.898 124.432 182.332 124.432ZM180.462 120.145H182.893C183.277 120.145 183.56 120.073 183.742 119.929C183.924 119.785 184.016 119.522 184.016 119.138C184.016 118.754 183.958 118.452 183.843 118.232C183.737 118.011 183.56 117.853 183.311 117.757C183.061 117.661 182.73 117.613 182.318 117.613C181.848 117.613 181.474 117.685 181.196 117.829C180.927 117.973 180.736 118.227 180.62 118.591C180.515 118.956 180.462 119.474 180.462 120.145ZM187.066 124.346V116.649H188.174L188.505 117.944C188.831 117.551 189.195 117.22 189.598 116.951C190.001 116.683 190.471 116.548 191.008 116.548C191.132 116.548 191.252 116.558 191.367 116.577C191.483 116.587 191.593 116.606 191.698 116.635V118.117C191.564 118.097 191.425 118.083 191.281 118.073C191.137 118.054 190.989 118.045 190.835 118.045C190.509 118.045 190.217 118.083 189.958 118.16C189.699 118.236 189.449 118.356 189.21 118.519C188.979 118.673 188.744 118.865 188.505 119.095V124.346H187.066Z" fill="#E1E1E1"/>
<defs>
<linearGradient id="paint0_linear_1493_1576" x1="5.36983" y1="-134.213" x2="301.037" y2="79.3465" gradientUnits="userSpaceOnUse">
<stop stop-color="#CE3A79"/>
<stop offset="1" stop-color="#7030A0"/>
</linearGradient>
<linearGradient id="paint1_linear_1493_1576" x1="-21.2957" y1="-23.9519" x2="66.3769" y2="52.9995" gradientUnits="userSpaceOnUse">
<stop stop-color="white" stop-opacity="0.4"/>
<stop offset="1" stop-color="white" stop-opacity="0"/>
</linearGradient>
<linearGradient id="paint2_linear_1493_1576" x1="-21.2957" y1="-23.9519" x2="66.3769" y2="52.9995" gradientUnits="userSpaceOnUse">
<stop stop-color="white" stop-opacity="0.4"/>
<stop offset="1" stop-color="white" stop-opacity="0"/>
</linearGradient>
<clipPath id="clip0_1493_1576">
<rect x="0.403564" y="0.699219" width="312.999" height="179.73" rx="17.2376" fill="white"/>
</clipPath>
</defs>
</svg>
