<svg width="314" height="181" viewBox="0 0 314 181" fill="none" xmlns="http://www.w3.org/2000/svg">
<g clip-path="url(#clip0_1493_1576)">
<path d="M0.403564 0.615234H313.402V181.459H0.403564V0.615234Z" fill="url(#paint0_linear_1493_1576)"/>
<ellipse cx="67.1276" cy="66.4695" rx="67.1276" ry="66.4695" transform="matrix(0.866025 -0.5 -0.5 -0.866025 284.016 78.0508)" fill="url(#paint1_linear_1493_1576)"/>
<ellipse cx="67.1276" cy="66.4695" rx="67.1276" ry="66.4695" transform="matrix(-0.866025 -0.5 -0.5 0.866025 76.2004 153.387)" fill="url(#paint2_linear_1493_1576)"/>
</g>
<path d="M89.6971 78L83.4518 65.9664C82.741 65.9664 81.9624 65.9664 81.1162 65.9664C80.2699 65.9326 79.4237 65.9157 78.5774 65.9157C77.7312 65.8818 76.9188 65.8649 76.1403 65.8649V59.5689H84.7719C85.3474 59.5689 85.9059 59.4842 86.4475 59.315C86.9891 59.1119 87.463 58.7734 87.8692 58.2995C88.3092 57.8256 88.6477 57.1825 88.8847 56.3701C89.1555 55.5238 89.2909 54.4576 89.2909 53.1713C89.2909 51.6142 89.1047 50.4125 88.7323 49.5663C88.36 48.6862 87.8692 48.0769 87.2599 47.7384C86.6506 47.3661 85.9228 47.1799 85.0766 47.1799H76.1403V40.4269H86.0921C87.3107 40.4269 88.5462 40.6131 89.7986 40.9854C91.0849 41.3577 92.2527 42.0178 93.302 42.9656C94.3514 43.9134 95.1976 45.2166 95.8408 46.8752C96.4839 48.5 96.8055 50.5987 96.8055 53.1713C96.8055 55.27 96.6362 57.0301 96.2977 58.4518C95.9931 59.8397 95.57 60.9736 95.0284 61.8537C94.4868 62.7338 93.8606 63.4277 93.1497 63.9355C92.4389 64.4094 91.728 64.7986 91.0172 65.1033L97.8718 78H89.6971ZM76.1403 55.2023V51.3942H102.898V55.2023H76.1403ZM84.7719 44.235V40.4269H102.898V44.235H84.7719ZM118.251 78.2539C116.423 78.2539 114.799 77.9831 113.377 77.4415C111.989 76.866 110.821 75.9013 109.874 74.5473C108.926 73.1595 108.215 71.2639 107.741 68.8606C107.267 66.4573 107.03 63.4108 107.03 59.7212C107.03 56.0316 107.335 52.9343 107.944 50.4295C108.587 47.9246 109.518 45.9105 110.737 44.3873C111.989 42.8641 113.479 41.7809 115.205 41.1377C116.965 40.4607 118.962 40.1222 121.196 40.1222C122.855 40.1222 124.53 40.1899 126.223 40.3253C127.915 40.4607 129.439 40.6638 130.793 40.9346V46.8752H121.907C119.368 46.8752 117.507 47.6707 116.322 49.2616C115.137 50.8187 114.545 53.1374 114.545 56.2177C115.357 55.9808 116.187 55.8116 117.033 55.71C117.913 55.5746 118.844 55.49 119.825 55.4561C120.841 55.3884 121.907 55.3546 123.024 55.3546C125.495 55.3546 127.458 55.71 128.914 56.4208C130.403 57.0978 131.453 58.0964 132.062 59.4165C132.705 60.7028 133.027 62.2261 133.027 63.9862V69.3683C133.027 71.5009 132.621 73.2103 131.808 74.4966C131.03 75.7828 129.929 76.7306 128.508 77.3399C127.12 77.9492 125.529 78.2539 123.735 78.2539H118.251ZM119.775 71.5009H122.009C122.753 71.5009 123.38 71.3824 123.887 71.1454C124.395 70.9085 124.784 70.5192 125.055 69.9776C125.36 69.436 125.512 68.7421 125.512 67.8959V65.4079C125.512 64.4263 125.343 63.6816 125.004 63.1739C124.7 62.6323 124.209 62.2599 123.532 62.0568C122.855 61.8537 121.992 61.7522 120.942 61.7522H114.545C114.545 63.6816 114.646 65.2895 114.849 66.5757C115.053 67.8282 115.374 68.8098 115.814 69.5207C116.254 70.2315 116.796 70.7392 117.439 71.0439C118.082 71.3485 118.861 71.5009 119.775 71.5009ZM140.614 82.5189C139.97 82.5189 139.412 82.4682 138.938 82.3666C138.464 82.2651 138.227 82.2143 138.227 82.2143V79.8279C138.701 79.8279 139.04 79.7602 139.243 79.6248C139.48 79.4894 139.598 79.2186 139.598 78.8124V77.4923H139.09C138.786 77.4923 138.532 77.4076 138.329 77.2384C138.126 77.0353 138.024 76.7476 138.024 76.3752V71.9578C138.024 71.1793 138.379 70.79 139.09 70.79H143.355C143.762 70.79 144.032 70.9085 144.168 71.1454C144.337 71.3485 144.422 71.6193 144.422 71.9578V78.9139C144.422 79.8956 144.219 80.6572 143.812 81.1988C143.406 81.7404 142.915 82.0958 142.34 82.2651C141.764 82.4343 141.189 82.5189 140.614 82.5189ZM160.853 78.2539C159.194 78.2539 157.519 78.1862 155.826 78.0508C154.167 77.9154 152.661 77.7123 151.307 77.4415V71.5009H160.142C162.681 71.5009 164.542 70.7223 165.727 69.1652C166.912 67.5743 167.504 65.2387 167.504 62.1584C166.759 62.3953 165.93 62.5815 165.016 62.7169C164.136 62.8523 163.205 62.9369 162.224 62.9708C161.242 63.0046 160.176 63.0215 159.025 63.0215C156.554 63.0215 154.591 62.683 153.135 62.006C151.679 61.2952 150.63 60.2966 149.987 59.0103C149.378 57.7241 149.073 56.1839 149.073 54.3899V49.0078C149.073 46.9091 149.462 45.2166 150.241 43.9303C151.019 42.6102 152.103 41.6624 153.49 41.087C154.912 40.4777 156.537 40.173 158.365 40.173H163.798C165.626 40.173 167.233 40.4607 168.621 41.0362C170.043 41.5778 171.228 42.5256 172.175 43.8795C173.123 45.2335 173.834 47.1291 174.308 49.5663C174.816 51.9696 175.07 55.0161 175.07 58.7057C175.07 62.3615 174.748 65.4587 174.105 67.9974C173.462 70.5023 172.531 72.5164 171.312 74.0396C170.094 75.529 168.604 76.6122 166.844 77.2892C165.084 77.9323 163.087 78.2539 160.853 78.2539ZM161.157 56.6239H167.504C167.504 54.6945 167.403 53.1036 167.2 51.8511C166.996 50.5987 166.675 49.6171 166.235 48.9062C165.829 48.1615 165.304 47.6538 164.661 47.383C164.018 47.0783 163.239 46.926 162.325 46.926H160.04C159.329 46.926 158.703 47.0445 158.162 47.2814C157.654 47.5184 157.265 47.8907 156.994 48.3985C156.723 48.9062 156.588 49.6171 156.588 50.531V52.9682C156.588 53.9498 156.74 54.7114 157.045 55.253C157.383 55.7608 157.891 56.1162 158.568 56.3193C159.245 56.5224 160.108 56.6239 161.157 56.6239ZM191.694 78.2539C190.036 78.2539 188.36 78.1862 186.668 78.0508C185.009 77.9154 183.503 77.7123 182.149 77.4415V71.5009H190.983C193.522 71.5009 195.384 70.7223 196.569 69.1652C197.753 67.5743 198.346 65.2387 198.346 62.1584C197.601 62.3953 196.772 62.5815 195.858 62.7169C194.978 62.8523 194.047 62.9369 193.065 62.9708C192.084 63.0046 191.017 63.0215 189.866 63.0215C187.395 63.0215 185.432 62.683 183.977 62.006C182.521 61.2952 181.472 60.2966 180.829 59.0103C180.219 57.7241 179.915 56.1839 179.915 54.3899V49.0078C179.915 46.9091 180.304 45.2166 181.082 43.9303C181.861 42.6102 182.944 41.6624 184.332 41.087C185.754 40.4777 187.378 40.173 189.206 40.173H194.639C196.467 40.173 198.075 40.4607 199.463 41.0362C200.884 41.5778 202.069 42.5256 203.017 43.8795C203.965 45.2335 204.676 47.1291 205.15 49.5663C205.657 51.9696 205.911 55.0161 205.911 58.7057C205.911 62.3615 205.59 65.4587 204.946 67.9974C204.303 70.5023 203.372 72.5164 202.154 74.0396C200.935 75.529 199.446 76.6122 197.686 77.2892C195.925 77.9323 193.928 78.2539 191.694 78.2539ZM191.999 56.6239H198.346C198.346 54.6945 198.244 53.1036 198.041 51.8511C197.838 50.5987 197.516 49.6171 197.076 48.9062C196.67 48.1615 196.145 47.6538 195.502 47.383C194.859 47.0783 194.081 46.926 193.167 46.926H190.882C190.171 46.926 189.545 47.0445 189.003 47.2814C188.495 47.5184 188.106 47.8907 187.835 48.3985C187.565 48.9062 187.429 49.6171 187.429 50.531V52.9682C187.429 53.9498 187.582 54.7114 187.886 55.253C188.225 55.7608 188.732 56.1162 189.409 56.3193C190.086 56.5224 190.95 56.6239 191.999 56.6239ZM222.536 78.2539C220.877 78.2539 219.202 78.1862 217.509 78.0508C215.85 77.9154 214.344 77.7123 212.99 77.4415V71.5009H221.825C224.364 71.5009 226.225 70.7223 227.41 69.1652C228.595 67.5743 229.187 65.2387 229.187 62.1584C228.443 62.3953 227.613 62.5815 226.699 62.7169C225.819 62.8523 224.888 62.9369 223.907 62.9708C222.925 63.0046 221.859 63.0215 220.708 63.0215C218.237 63.0215 216.274 62.683 214.818 62.006C213.363 61.2952 212.313 60.2966 211.67 59.0103C211.061 57.7241 210.756 56.1839 210.756 54.3899V49.0078C210.756 46.9091 211.145 45.2166 211.924 43.9303C212.702 42.6102 213.786 41.6624 215.173 41.087C216.595 40.4777 218.22 40.173 220.048 40.173H225.481C227.309 40.173 228.916 40.4607 230.304 41.0362C231.726 41.5778 232.911 42.5256 233.858 43.8795C234.806 45.2335 235.517 47.1291 235.991 49.5663C236.499 51.9696 236.753 55.0161 236.753 58.7057C236.753 62.3615 236.431 65.4587 235.788 67.9974C235.145 70.5023 234.214 72.5164 232.995 74.0396C231.777 75.529 230.287 76.6122 228.527 77.2892C226.767 77.9323 224.77 78.2539 222.536 78.2539ZM222.84 56.6239H229.187C229.187 54.6945 229.086 53.1036 228.883 51.8511C228.679 50.5987 228.358 49.6171 227.918 48.9062C227.512 48.1615 226.987 47.6538 226.344 47.383C225.701 47.0783 224.922 46.926 224.008 46.926H221.723C221.013 46.926 220.386 47.0445 219.845 47.2814C219.337 47.5184 218.948 47.8907 218.677 48.3985C218.406 48.9062 218.271 49.6171 218.271 50.531V52.9682C218.271 53.9498 218.423 54.7114 218.728 55.253C219.066 55.7608 219.574 56.1162 220.251 56.3193C220.928 56.5224 221.791 56.6239 222.84 56.6239Z" fill="white"/>
<path d="M121.963 105.101V93.9948H123.143L123.402 94.7717C123.584 94.6374 123.8 94.5031 124.049 94.3689C124.308 94.2346 124.586 94.1243 124.884 94.038C125.191 93.9421 125.497 93.8941 125.804 93.8941C126.293 93.8941 126.711 93.9948 127.056 94.1962C127.411 94.3977 127.698 94.6806 127.919 95.045C128.14 95.3999 128.298 95.8171 128.394 96.2966C128.499 96.7762 128.552 97.2893 128.552 97.8359C128.552 98.6895 128.456 99.4136 128.264 100.008C128.082 100.593 127.79 101.039 127.387 101.346C126.994 101.643 126.466 101.792 125.804 101.792C125.402 101.792 124.989 101.735 124.567 101.619C124.145 101.495 123.757 101.332 123.402 101.13V105.101H121.963ZM125.373 100.584C125.699 100.584 125.991 100.502 126.25 100.339C126.509 100.176 126.715 99.8979 126.869 99.5047C127.032 99.1019 127.113 98.5456 127.113 97.8359C127.113 97.1646 127.032 96.6275 126.869 96.2247C126.706 95.8123 126.495 95.5198 126.236 95.3471C125.977 95.1649 125.694 95.0738 125.387 95.0738C124.984 95.0738 124.615 95.1361 124.279 95.2608C123.953 95.3855 123.661 95.515 123.402 95.6492V100.037C123.699 100.2 124.016 100.334 124.351 100.44C124.697 100.536 125.037 100.584 125.373 100.584ZM133.344 101.778C132.529 101.778 131.876 101.658 131.387 101.418C130.908 101.178 130.562 100.775 130.351 100.21C130.15 99.6342 130.049 98.843 130.049 97.8359C130.049 96.8097 130.15 96.0137 130.351 95.4478C130.562 94.8724 130.908 94.4696 131.387 94.2394C131.867 94.0092 132.514 93.8941 133.329 93.8941C134.039 93.8941 134.61 93.9709 135.041 94.1243C135.483 94.2682 135.804 94.5319 136.005 94.9156C136.216 95.2896 136.322 95.8123 136.322 96.4836C136.322 96.9536 136.226 97.3276 136.034 97.6058C135.852 97.8839 135.588 98.0853 135.243 98.21C134.907 98.3346 134.504 98.397 134.034 98.397H131.488C131.498 98.9533 131.56 99.3992 131.675 99.7349C131.8 100.061 132.015 100.301 132.322 100.454C132.639 100.598 133.099 100.67 133.703 100.67H136.106V101.533C135.693 101.591 135.272 101.643 134.84 101.691C134.408 101.749 133.91 101.778 133.344 101.778ZM131.474 97.4907H133.905C134.288 97.4907 134.571 97.4187 134.754 97.2749C134.936 97.131 135.027 96.8673 135.027 96.4836C135.027 96.1 134.969 95.7979 134.854 95.5773C134.749 95.3567 134.571 95.1985 134.322 95.1026C134.073 95.0067 133.742 94.9587 133.329 94.9587C132.859 94.9587 132.485 95.0306 132.207 95.1745C131.939 95.3184 131.747 95.5725 131.632 95.937C131.526 96.3014 131.474 96.8193 131.474 97.4907ZM138.077 101.691V93.9948H139.185L139.516 95.2896C139.842 94.8964 140.207 94.5655 140.609 94.2969C141.012 94.0284 141.482 93.8941 142.019 93.8941C142.144 93.8941 142.264 93.9037 142.379 93.9229C142.494 93.9325 142.604 93.9517 142.71 93.9805V95.4622C142.575 95.443 142.436 95.4287 142.292 95.4191C142.149 95.3999 142 95.3903 141.847 95.3903C141.52 95.3903 141.228 95.4287 140.969 95.5054C140.71 95.5821 140.461 95.702 140.221 95.865C139.991 96.0185 139.756 96.2103 139.516 96.4405V101.691H138.077ZM150.991 101.778C150.761 101.778 150.497 101.768 150.2 101.749C149.912 101.739 149.615 101.72 149.308 101.691C149.01 101.663 148.723 101.634 148.445 101.605C148.176 101.576 147.946 101.538 147.754 101.49V100.368C148.003 100.387 148.301 100.406 148.646 100.425C149.001 100.445 149.375 100.459 149.768 100.469C150.171 100.478 150.559 100.483 150.933 100.483C151.346 100.483 151.71 100.445 152.027 100.368C152.353 100.291 152.607 100.147 152.789 99.9363C152.981 99.7253 153.077 99.428 153.077 99.0444V98.4258C153.077 97.9942 152.957 97.6633 152.717 97.4331C152.487 97.2029 152.132 97.0879 151.653 97.0879H150.574C149.653 97.0879 148.938 96.8864 148.43 96.4836C147.931 96.0808 147.682 95.3903 147.682 94.412V93.8366C147.682 92.82 147.955 92.0959 148.502 91.6643C149.058 91.2231 149.845 91.0025 150.861 91.0025C151.197 91.0025 151.557 91.0217 151.94 91.0601C152.324 91.0888 152.698 91.1272 153.063 91.1752C153.427 91.2231 153.729 91.2711 153.969 91.319V92.4411C153.537 92.4124 153.053 92.3836 152.516 92.3548C151.988 92.3165 151.49 92.2973 151.02 92.2973C150.617 92.2973 150.267 92.3452 149.969 92.4411C149.682 92.5275 149.456 92.6857 149.293 92.9159C149.14 93.1461 149.063 93.4721 149.063 93.8941V94.3257C149.063 94.8436 149.202 95.2033 149.48 95.4047C149.758 95.6061 150.147 95.7068 150.646 95.7068H151.811C152.415 95.7068 152.909 95.8171 153.293 96.0377C153.686 96.2583 153.978 96.5604 154.17 96.944C154.362 97.3276 154.458 97.764 154.458 98.2531V99.0012C154.458 99.7493 154.305 100.325 153.998 100.728C153.691 101.13 153.278 101.408 152.76 101.562C152.243 101.706 151.653 101.778 150.991 101.778ZM159.292 101.778C158.477 101.778 157.825 101.658 157.336 101.418C156.856 101.178 156.511 100.775 156.3 100.21C156.098 99.6342 155.998 98.843 155.998 97.8359C155.998 96.8097 156.098 96.0137 156.3 95.4478C156.511 94.8724 156.856 94.4696 157.336 94.2394C157.815 94.0092 158.463 93.8941 159.278 93.8941C159.987 93.8941 160.558 93.9709 160.99 94.1243C161.431 94.2682 161.752 94.5319 161.954 94.9156C162.165 95.2896 162.27 95.8123 162.27 96.4836C162.27 96.9536 162.174 97.3276 161.982 97.6058C161.8 97.8839 161.536 98.0853 161.191 98.21C160.855 98.3346 160.453 98.397 159.983 98.397H157.436C157.446 98.9533 157.508 99.3992 157.623 99.7349C157.748 100.061 157.964 100.301 158.271 100.454C158.587 100.598 159.048 100.67 159.652 100.67H162.054V101.533C161.642 101.591 161.22 101.643 160.788 101.691C160.357 101.749 159.858 101.778 159.292 101.778ZM157.422 97.4907H159.853C160.237 97.4907 160.52 97.4187 160.702 97.2749C160.884 97.131 160.975 96.8673 160.975 96.4836C160.975 96.1 160.918 95.7979 160.803 95.5773C160.697 95.3567 160.52 95.1985 160.27 95.1026C160.021 95.0067 159.69 94.9587 159.278 94.9587C158.808 94.9587 158.434 95.0306 158.156 95.1745C157.887 95.3184 157.695 95.5725 157.58 95.937C157.475 96.3014 157.422 96.8193 157.422 97.4907ZM167.061 101.778C166.246 101.778 165.594 101.658 165.105 101.418C164.625 101.178 164.28 100.775 164.069 100.21C163.867 99.6342 163.767 98.843 163.767 97.8359C163.767 96.8097 163.867 96.0137 164.069 95.4478C164.28 94.8724 164.625 94.4696 165.105 94.2394C165.584 94.0092 166.232 93.8941 167.047 93.8941C167.757 93.8941 168.327 93.9709 168.759 94.1243C169.2 94.2682 169.521 94.5319 169.723 94.9156C169.934 95.2896 170.039 95.8123 170.039 96.4836C170.039 96.9536 169.943 97.3276 169.751 97.6058C169.569 97.8839 169.305 98.0853 168.96 98.21C168.624 98.3346 168.222 98.397 167.752 98.397H165.205C165.215 98.9533 165.277 99.3992 165.392 99.7349C165.517 100.061 165.733 100.301 166.04 100.454C166.356 100.598 166.817 100.67 167.421 100.67H169.823V101.533C169.411 101.591 168.989 101.643 168.557 101.691C168.126 101.749 167.627 101.778 167.061 101.778ZM165.191 97.4907H167.622C168.006 97.4907 168.289 97.4187 168.471 97.2749C168.653 97.131 168.744 96.8673 168.744 96.4836C168.744 96.1 168.687 95.7979 168.572 95.5773C168.466 95.3567 168.289 95.1985 168.039 95.1026C167.79 95.0067 167.459 94.9587 167.047 94.9587C166.577 94.9587 166.203 95.0306 165.925 95.1745C165.656 95.3184 165.464 95.5725 165.349 95.937C165.244 96.3014 165.191 96.8193 165.191 97.4907ZM171.795 101.691V90.7148H173.233V96.944H174.284L176.427 93.9948H177.923L175.348 97.5914L178.11 101.691H176.6L174.24 98.2387H173.233V101.691H171.795ZM182.332 101.778C181.517 101.778 180.865 101.658 180.376 101.418C179.896 101.178 179.551 100.775 179.34 100.21C179.139 99.6342 179.038 98.843 179.038 97.8359C179.038 96.8097 179.139 96.0137 179.34 95.4478C179.551 94.8724 179.896 94.4696 180.376 94.2394C180.855 94.0092 181.503 93.8941 182.318 93.8941C183.028 93.8941 183.598 93.9709 184.03 94.1243C184.471 94.2682 184.792 94.5319 184.994 94.9156C185.205 95.2896 185.31 95.8123 185.31 96.4836C185.31 96.9536 185.214 97.3276 185.023 97.6058C184.84 97.8839 184.577 98.0853 184.231 98.21C183.896 98.3346 183.493 98.397 183.023 98.397H180.477C180.486 98.9533 180.549 99.3992 180.664 99.7349C180.788 100.061 181.004 100.301 181.311 100.454C181.627 100.598 182.088 100.67 182.692 100.67H185.095V101.533C184.682 101.591 184.26 101.643 183.829 101.691C183.397 101.749 182.898 101.778 182.332 101.778ZM180.462 97.4907H182.893C183.277 97.4907 183.56 97.4187 183.742 97.2749C183.924 97.131 184.016 96.8673 184.016 96.4836C184.016 96.1 183.958 95.7979 183.843 95.5773C183.737 95.3567 183.56 95.1985 183.311 95.1026C183.061 95.0067 182.73 94.9587 182.318 94.9587C181.848 94.9587 181.474 95.0306 181.196 95.1745C180.927 95.3184 180.736 95.5725 180.62 95.937C180.515 96.3014 180.462 96.8193 180.462 97.4907ZM187.066 101.691V93.9948H188.174L188.505 95.2896C188.831 94.8964 189.195 94.5655 189.598 94.2969C190.001 94.0284 190.471 93.8941 191.008 93.8941C191.132 93.8941 191.252 93.9037 191.367 93.9229C191.483 93.9325 191.593 93.9517 191.698 93.9805V95.4622C191.564 95.443 191.425 95.4287 191.281 95.4191C191.137 95.3999 190.989 95.3903 190.835 95.3903C190.509 95.3903 190.217 95.4287 189.958 95.5054C189.699 95.5821 189.449 95.702 189.21 95.865C188.979 96.0185 188.744 96.2103 188.505 96.4405V101.691H187.066Z" fill="#E1E1E1"/>
<path d="M88.0103 136.539V135.305L92.0316 131.391C92.4175 131.025 92.7272 130.685 92.9608 130.37C93.1943 130.055 93.3619 129.74 93.4634 129.426C93.5751 129.101 93.631 128.75 93.631 128.375C93.631 128.039 93.565 127.745 93.433 127.491C93.3111 127.227 93.0928 127.024 92.778 126.882C92.4632 126.74 92.0164 126.669 91.4375 126.669H88.3606V125.48C88.8277 125.419 89.3456 125.364 89.9143 125.313C90.4931 125.252 91.1075 125.221 91.7574 125.221C92.6206 125.221 93.2959 125.343 93.7833 125.587C94.2809 125.821 94.6313 126.161 94.8344 126.608C95.0476 127.044 95.1542 127.562 95.1542 128.161C95.1542 128.679 95.0831 129.156 94.941 129.593C94.809 130.02 94.6008 130.436 94.3165 130.842C94.0321 131.238 93.6665 131.655 93.2197 132.091L90.0666 135.138H95.5503V136.539H88.0103ZM97.6648 137.788C97.5328 137.788 97.416 137.773 97.3145 137.742C97.2231 137.722 97.1774 137.712 97.1774 137.712V137.24C97.2993 137.24 97.3856 137.219 97.4363 137.179C97.4973 137.138 97.5277 137.067 97.5277 136.966V136.448H97.3906C97.3196 136.448 97.2586 136.422 97.2079 136.372C97.1571 136.321 97.1317 136.25 97.1317 136.158V135.001C97.1317 134.797 97.218 134.696 97.3906 134.696H98.2437C98.3452 134.696 98.4112 134.726 98.4417 134.787C98.4823 134.838 98.5026 134.909 98.5026 135.001V136.92C98.5026 137.164 98.4569 137.346 98.3655 137.468C98.2843 137.6 98.1777 137.687 98.0456 137.727C97.9136 137.768 97.7867 137.788 97.6648 137.788ZM105.147 136.524V133.828H99.9679L99.648 133.036L103.7 125.313H105.269L101.445 132.518H105.147V129.761L105.467 128.649H106.685V132.518H108.102V133.569L106.685 133.828V136.524H105.147ZM112.833 136.615C112.376 136.615 111.893 136.595 111.385 136.554C110.878 136.524 110.421 136.483 110.015 136.432V135.229H112.741C113.584 135.229 114.229 134.93 114.676 134.33C115.122 133.721 115.346 132.802 115.346 131.573C115.072 131.624 114.762 131.665 114.417 131.695C114.082 131.726 113.741 131.746 113.396 131.756C113.051 131.766 112.726 131.771 112.421 131.771C111.731 131.771 111.157 131.685 110.7 131.512C110.243 131.34 109.903 131.076 109.679 130.72C109.456 130.365 109.344 129.908 109.344 129.349V127.75C109.344 127.141 109.461 126.653 109.695 126.288C109.928 125.922 110.243 125.658 110.639 125.496C111.045 125.333 111.497 125.252 111.995 125.252H113.701C114.198 125.252 114.645 125.338 115.041 125.511C115.437 125.673 115.767 125.963 116.031 126.379C116.306 126.785 116.514 127.354 116.656 128.085C116.808 128.816 116.884 129.74 116.884 130.857C116.884 131.893 116.793 132.777 116.61 133.508C116.427 134.239 116.158 134.838 115.803 135.305C115.458 135.762 115.036 136.097 114.539 136.311C114.041 136.514 113.472 136.615 112.833 136.615ZM112.802 130.461H115.346C115.346 129.7 115.305 129.07 115.224 128.573C115.143 128.065 115.021 127.674 114.858 127.4C114.696 127.115 114.493 126.917 114.249 126.806C114.016 126.684 113.741 126.623 113.427 126.623H112.315C112.04 126.623 111.792 126.663 111.568 126.745C111.355 126.826 111.182 126.968 111.05 127.171C110.929 127.374 110.868 127.659 110.868 128.024V129.075C110.868 129.461 110.944 129.751 111.096 129.943C111.248 130.136 111.467 130.273 111.751 130.355C112.046 130.426 112.396 130.461 112.802 130.461ZM119.294 137.788C119.162 137.788 119.045 137.773 118.943 137.742C118.852 137.722 118.806 137.712 118.806 137.712V137.24C118.928 137.24 119.014 137.219 119.065 137.179C119.126 137.138 119.156 137.067 119.156 136.966V136.448H119.019C118.948 136.448 118.887 136.422 118.837 136.372C118.786 136.321 118.76 136.25 118.76 136.158V135.001C118.76 134.797 118.847 134.696 119.019 134.696H119.872C119.974 134.696 120.04 134.726 120.07 134.787C120.111 134.838 120.131 134.909 120.131 135.001V136.92C120.131 137.164 120.086 137.346 119.994 137.468C119.913 137.6 119.806 137.687 119.674 137.727C119.542 137.768 119.415 137.788 119.294 137.788ZM124.944 136.585C124.375 136.585 123.878 136.488 123.451 136.295C123.025 136.092 122.695 135.788 122.461 135.381C122.228 134.975 122.111 134.462 122.111 133.843V128.039C122.111 127.42 122.228 126.902 122.461 126.486C122.695 126.069 123.025 125.755 123.451 125.541C123.888 125.328 124.386 125.221 124.944 125.221H127.183C127.813 125.221 128.326 125.338 128.722 125.572C129.128 125.805 129.428 126.13 129.621 126.547C129.824 126.963 129.925 127.461 129.925 128.039V133.843C129.925 134.767 129.676 135.458 129.179 135.915C128.691 136.361 128.021 136.585 127.168 136.585H124.944ZM125.264 135.199H126.803C127.361 135.199 127.762 135.062 128.006 134.787C128.26 134.513 128.387 134.127 128.387 133.63V128.177C128.387 127.628 128.255 127.227 127.991 126.973C127.727 126.719 127.351 126.592 126.863 126.592H125.218C124.731 126.592 124.345 126.729 124.061 127.004C123.776 127.278 123.634 127.669 123.634 128.177V133.63C123.634 134.158 123.776 134.554 124.061 134.818C124.355 135.072 124.756 135.199 125.264 135.199ZM134.896 136.585C134.327 136.585 133.83 136.488 133.403 136.295C132.976 136.092 132.646 135.788 132.413 135.381C132.179 134.975 132.063 134.462 132.063 133.843V128.039C132.063 127.42 132.179 126.902 132.413 126.486C132.646 126.069 132.976 125.755 133.403 125.541C133.84 125.328 134.337 125.221 134.896 125.221H137.135C137.765 125.221 138.277 125.338 138.673 125.572C139.08 125.805 139.379 126.13 139.572 126.547C139.775 126.963 139.877 127.461 139.877 128.039V133.843C139.877 134.767 139.628 135.458 139.13 135.915C138.643 136.361 137.973 136.585 137.12 136.585H134.896ZM135.216 135.199H136.754C137.313 135.199 137.714 135.062 137.957 134.787C138.211 134.513 138.338 134.127 138.338 133.63V128.177C138.338 127.628 138.206 127.227 137.942 126.973C137.678 126.719 137.302 126.592 136.815 126.592H135.17C134.683 126.592 134.297 126.729 134.012 127.004C133.728 127.278 133.586 127.669 133.586 128.177V133.63C133.586 134.158 133.728 134.554 134.012 134.818C134.307 135.072 134.708 135.199 135.216 135.199ZM144.847 136.585C144.279 136.585 143.781 136.488 143.355 136.295C142.928 136.092 142.598 135.788 142.364 135.381C142.131 134.975 142.014 134.462 142.014 133.843V128.039C142.014 127.42 142.131 126.902 142.364 126.486C142.598 126.069 142.928 125.755 143.355 125.541C143.791 125.328 144.289 125.221 144.847 125.221H147.087C147.716 125.221 148.229 125.338 148.625 125.572C149.031 125.805 149.331 126.13 149.524 126.547C149.727 126.963 149.828 127.461 149.828 128.039V133.843C149.828 134.767 149.58 135.458 149.082 135.915C148.595 136.361 147.924 136.585 147.071 136.585H144.847ZM145.167 135.199H146.706C147.264 135.199 147.665 135.062 147.909 134.787C148.163 134.513 148.29 134.127 148.29 133.63V128.177C148.29 127.628 148.158 127.227 147.894 126.973C147.63 126.719 147.254 126.592 146.767 126.592H145.122C144.634 126.592 144.248 126.729 143.964 127.004C143.68 127.278 143.537 127.669 143.537 128.177V133.63C143.537 134.158 143.68 134.554 143.964 134.818C144.258 135.072 144.66 135.199 145.167 135.199ZM158.86 136.63C158.647 136.63 158.393 136.625 158.099 136.615C157.804 136.605 157.5 136.585 157.185 136.554C156.88 136.534 156.596 136.509 156.332 136.478C156.078 136.448 155.875 136.412 155.722 136.372V135.458H159.15C159.444 135.458 159.698 135.437 159.911 135.397C160.125 135.346 160.287 135.244 160.399 135.092C160.521 134.94 160.582 134.716 160.582 134.422V134.087C160.582 133.782 160.48 133.543 160.277 133.371C160.074 133.198 159.739 133.112 159.272 133.112H158.083C157.606 133.112 157.18 133.051 156.804 132.929C156.438 132.797 156.149 132.579 155.936 132.274C155.733 131.969 155.631 131.558 155.631 131.04V130.598C155.631 130.081 155.728 129.654 155.92 129.319C156.124 128.984 156.443 128.735 156.88 128.573C157.317 128.4 157.896 128.314 158.617 128.314C158.921 128.314 159.256 128.329 159.622 128.359C159.998 128.38 160.363 128.41 160.719 128.451C161.074 128.491 161.358 128.537 161.572 128.588V129.502H158.342C157.896 129.502 157.55 129.578 157.307 129.73C157.073 129.883 156.956 130.172 156.956 130.598V130.903C156.956 131.167 157.012 131.37 157.124 131.512C157.236 131.655 157.393 131.746 157.596 131.787C157.809 131.827 158.058 131.847 158.342 131.847H159.561C160.333 131.847 160.917 132.03 161.313 132.396C161.709 132.751 161.907 133.254 161.907 133.904V134.528C161.907 135.077 161.78 135.503 161.526 135.808C161.272 136.113 160.917 136.326 160.46 136.448C160.013 136.57 159.48 136.63 158.86 136.63ZM166.857 136.63C165.994 136.63 165.303 136.504 164.785 136.25C164.278 135.996 163.912 135.569 163.689 134.97C163.475 134.361 163.369 133.523 163.369 132.457C163.369 131.37 163.475 130.527 163.689 129.928C163.912 129.319 164.278 128.892 164.785 128.649C165.293 128.405 165.979 128.283 166.842 128.283C167.593 128.283 168.197 128.364 168.654 128.527C169.121 128.679 169.462 128.958 169.675 129.365C169.898 129.761 170.01 130.314 170.01 131.025C170.01 131.523 169.908 131.919 169.705 132.213C169.512 132.508 169.233 132.721 168.868 132.853C168.512 132.985 168.086 133.051 167.588 133.051H164.892C164.902 133.64 164.968 134.112 165.09 134.467C165.222 134.813 165.45 135.067 165.775 135.229C166.111 135.381 166.598 135.458 167.238 135.458H169.782V136.372C169.345 136.432 168.898 136.488 168.441 136.539C167.984 136.6 167.456 136.63 166.857 136.63ZM164.877 132.091H167.451C167.857 132.091 168.157 132.015 168.35 131.863C168.543 131.71 168.639 131.431 168.639 131.025C168.639 130.619 168.578 130.299 168.456 130.065C168.345 129.832 168.157 129.664 167.893 129.563C167.629 129.461 167.278 129.41 166.842 129.41C166.344 129.41 165.948 129.486 165.654 129.639C165.369 129.791 165.166 130.06 165.044 130.446C164.933 130.832 164.877 131.38 164.877 132.091ZM174.687 136.539C174.139 136.539 173.682 136.453 173.316 136.28C172.961 136.097 172.697 135.808 172.524 135.412C172.361 135.016 172.285 134.488 172.295 133.828L172.356 129.639H171.062V128.649L172.387 128.39L172.615 126.105H173.819V128.39H176.027V129.639H173.819V133.812C173.819 134.127 173.849 134.381 173.91 134.574C173.971 134.767 174.057 134.914 174.169 135.016C174.281 135.117 174.403 135.194 174.535 135.244C174.667 135.285 174.794 135.31 174.915 135.32L175.921 135.412V136.539H174.687ZM176.866 132.746V131.497H181.39V132.746H176.866ZM185.209 136.63C184.447 136.63 183.853 136.427 183.427 136.021C183.01 135.605 182.802 134.975 182.802 134.132V128.39H184.325V133.721C184.325 134.33 184.462 134.742 184.736 134.955C185.021 135.168 185.417 135.275 185.925 135.275C186.331 135.275 186.717 135.214 187.082 135.092C187.458 134.96 187.824 134.782 188.179 134.559V128.39H189.702V136.539H188.484L188.179 135.671C187.783 135.925 187.326 136.148 186.808 136.341C186.3 136.534 185.767 136.63 185.209 136.63ZM191.802 140.149V128.39H193.051L193.325 129.212C193.518 129.07 193.747 128.928 194.011 128.786C194.285 128.644 194.579 128.527 194.894 128.435C195.219 128.334 195.544 128.283 195.869 128.283C196.387 128.283 196.829 128.39 197.194 128.603C197.57 128.816 197.875 129.116 198.108 129.502C198.342 129.877 198.509 130.319 198.611 130.827C198.722 131.335 198.778 131.878 198.778 132.457C198.778 133.361 198.677 134.127 198.474 134.757C198.281 135.376 197.971 135.849 197.544 136.173C197.128 136.488 196.57 136.646 195.869 136.646C195.442 136.646 195.006 136.585 194.559 136.463C194.112 136.331 193.701 136.158 193.325 135.945V140.149H191.802ZM195.412 135.366C195.757 135.366 196.067 135.28 196.341 135.107C196.615 134.935 196.834 134.64 196.996 134.224C197.169 133.797 197.255 133.208 197.255 132.457C197.255 131.746 197.169 131.177 196.996 130.751C196.824 130.314 196.6 130.004 196.326 129.822C196.052 129.629 195.752 129.532 195.427 129.532C195.001 129.532 194.61 129.598 194.254 129.73C193.909 129.862 193.599 129.999 193.325 130.141V134.787C193.64 134.96 193.975 135.102 194.33 135.214C194.696 135.315 195.057 135.366 195.412 135.366ZM205.171 136.539V129.639H203.953V128.649L205.171 128.39V127.582C205.171 126.973 205.248 126.465 205.4 126.059C205.552 125.643 205.806 125.333 206.161 125.13C206.517 124.927 207.004 124.825 207.624 124.825C207.979 124.825 208.284 124.846 208.538 124.886C208.802 124.927 209.03 124.962 209.223 124.993V126.09H207.898C207.573 126.09 207.324 126.14 207.152 126.242C206.979 126.344 206.857 126.501 206.786 126.714C206.725 126.927 206.695 127.191 206.695 127.506V128.39H209.086V129.639H206.695V136.539H205.171ZM213.61 136.63C212.747 136.63 212.056 136.504 211.538 136.25C211.031 135.996 210.665 135.569 210.442 134.97C210.229 134.361 210.122 133.523 210.122 132.457C210.122 131.37 210.229 130.527 210.442 129.928C210.665 129.319 211.031 128.892 211.538 128.649C212.046 128.405 212.732 128.283 213.595 128.283C214.346 128.283 214.951 128.364 215.408 128.527C215.875 128.679 216.215 128.958 216.428 129.365C216.651 129.761 216.763 130.314 216.763 131.025C216.763 131.523 216.662 131.919 216.459 132.213C216.266 132.508 215.986 132.721 215.621 132.853C215.265 132.985 214.839 133.051 214.341 133.051H211.645C211.655 133.64 211.721 134.112 211.843 134.467C211.975 134.813 212.204 135.067 212.529 135.229C212.864 135.381 213.351 135.458 213.991 135.458H216.535V136.372C216.098 136.432 215.651 136.488 215.194 136.539C214.737 136.6 214.209 136.63 213.61 136.63ZM211.63 132.091H214.204C214.61 132.091 214.91 132.015 215.103 131.863C215.296 131.71 215.392 131.431 215.392 131.025C215.392 130.619 215.331 130.299 215.209 130.065C215.098 129.832 214.91 129.664 214.646 129.563C214.382 129.461 214.032 129.41 213.595 129.41C213.097 129.41 212.701 129.486 212.407 129.639C212.122 129.791 211.919 130.06 211.797 130.446C211.686 130.832 211.63 131.38 211.63 132.091ZM221.836 136.63C220.973 136.63 220.282 136.504 219.765 136.25C219.257 135.996 218.891 135.569 218.668 134.97C218.455 134.361 218.348 133.523 218.348 132.457C218.348 131.37 218.455 130.527 218.668 129.928C218.891 129.319 219.257 128.892 219.765 128.649C220.272 128.405 220.958 128.283 221.821 128.283C222.572 128.283 223.177 128.364 223.634 128.527C224.101 128.679 224.441 128.958 224.654 129.365C224.878 129.761 224.989 130.314 224.989 131.025C224.989 131.523 224.888 131.919 224.685 132.213C224.492 132.508 224.212 132.721 223.847 132.853C223.491 132.985 223.065 133.051 222.567 133.051H219.871C219.881 133.64 219.947 134.112 220.069 134.467C220.201 134.813 220.43 135.067 220.755 135.229C221.09 135.381 221.577 135.458 222.217 135.458H224.761V136.372C224.324 136.432 223.877 136.488 223.42 136.539C222.963 136.6 222.435 136.63 221.836 136.63ZM219.856 132.091H222.43C222.836 132.091 223.136 132.015 223.329 131.863C223.522 131.71 223.618 131.431 223.618 131.025C223.618 130.619 223.557 130.299 223.436 130.065C223.324 129.832 223.136 129.664 222.872 129.563C222.608 129.461 222.258 129.41 221.821 129.41C221.323 129.41 220.927 129.486 220.633 129.639C220.348 129.791 220.145 130.06 220.024 130.446C219.912 130.832 219.856 131.38 219.856 132.091Z" fill="white"/>
<defs>
<linearGradient id="paint0_linear_1493_1576" x1="5.36983" y1="-134.213" x2="301.037" y2="79.3465" gradientUnits="userSpaceOnUse">
<stop stop-color="#CE3A79"/>
<stop offset="1" stop-color="#7030A0"/>
</linearGradient>
<linearGradient id="paint1_linear_1493_1576" x1="-21.2957" y1="-23.9519" x2="66.3769" y2="52.9995" gradientUnits="userSpaceOnUse">
<stop stop-color="white" stop-opacity="0.4"/>
<stop offset="1" stop-color="white" stop-opacity="0"/>
</linearGradient>
<linearGradient id="paint2_linear_1493_1576" x1="-21.2957" y1="-23.9519" x2="66.3769" y2="52.9995" gradientUnits="userSpaceOnUse">
<stop stop-color="white" stop-opacity="0.4"/>
<stop offset="1" stop-color="white" stop-opacity="0"/>
</linearGradient>
<clipPath id="clip0_1493_1576">
<rect x="0.403564" y="0.699219" width="312.999" height="179.73" rx="17.2376" fill="white"/>
</clipPath>
</defs>
</svg>
