<svg width="182" height="182" viewBox="0 0 182 182" fill="none" xmlns="http://www.w3.org/2000/svg">
<circle cx="91" cy="91" r="84" stroke="#7030A0" stroke-width="12.31"/>
<mask id="path-2-outside-1_1345_1507" maskUnits="userSpaceOnUse" x="61.6025" y="69.5999" width="61" height="42" fill="black">
<rect fill="white" x="61.6025" y="69.5999" width="61" height="42"/>
<path d="M65.866 102.106C69.3067 99.2386 72.0484 96.8552 74.0913 94.9557C76.1342 93.0203 77.8366 91.0133 79.1985 88.9346C80.5604 86.8559 81.2414 84.813 81.2414 82.8059C81.2414 80.9781 80.8113 79.5445 79.9511 78.5051C79.091 77.4658 77.7649 76.9461 75.9729 76.9461C74.1809 76.9461 72.8011 77.5554 71.8334 78.7739C70.8657 79.9567 70.3639 81.5874 70.3281 83.6661H63.0167C63.1601 79.3653 64.4324 76.1039 66.8337 73.8818C69.2708 71.6597 72.3531 70.5487 76.0804 70.5487C80.1662 70.5487 83.3022 71.6418 85.4884 73.828C87.6747 75.9784 88.7678 78.8277 88.7678 82.3759C88.7678 85.1714 88.0151 87.8415 86.5099 90.3861C85.0046 92.9307 83.2843 95.1528 81.3489 97.0523C79.4135 98.916 76.8868 101.174 73.7687 103.826H89.6279V110.062H63.0705V104.471L65.866 102.106ZM111.681 110.6L105.553 101.353L100.123 110.6H92.0589L101.789 95.6546L91.9514 80.8168H100.445L106.52 90.0098L112.004 80.8168H120.068L110.284 95.6546L120.175 110.6H111.681Z"/>
</mask>
<path d="M65.866 102.106C69.3067 99.2386 72.0484 96.8552 74.0913 94.9557C76.1342 93.0203 77.8366 91.0133 79.1985 88.9346C80.5604 86.8559 81.2414 84.813 81.2414 82.8059C81.2414 80.9781 80.8113 79.5445 79.9511 78.5051C79.091 77.4658 77.7649 76.9461 75.9729 76.9461C74.1809 76.9461 72.8011 77.5554 71.8334 78.7739C70.8657 79.9567 70.3639 81.5874 70.3281 83.6661H63.0167C63.1601 79.3653 64.4324 76.1039 66.8337 73.8818C69.2708 71.6597 72.3531 70.5487 76.0804 70.5487C80.1662 70.5487 83.3022 71.6418 85.4884 73.828C87.6747 75.9784 88.7678 78.8277 88.7678 82.3759C88.7678 85.1714 88.0151 87.8415 86.5099 90.3861C85.0046 92.9307 83.2843 95.1528 81.3489 97.0523C79.4135 98.916 76.8868 101.174 73.7687 103.826H89.6279V110.062H63.0705V104.471L65.866 102.106ZM111.681 110.6L105.553 101.353L100.123 110.6H92.0589L101.789 95.6546L91.9514 80.8168H100.445L106.52 90.0098L112.004 80.8168H120.068L110.284 95.6546L120.175 110.6H111.681Z" fill="#222222"/>
<path d="M65.866 102.106L65.3282 101.46L65.3234 101.465L65.866 102.106ZM74.0913 94.9557L74.6633 95.5709L74.669 95.5655L74.0913 94.9557ZM79.1985 88.9346L79.9011 89.3949L79.1985 88.9346ZM79.9511 78.5051L79.304 79.0407L79.9511 78.5051ZM71.8334 78.7739L72.4836 79.3059L72.4912 79.2963L71.8334 78.7739ZM70.3281 83.6661V84.5061H71.1537L71.168 83.6806L70.3281 83.6661ZM63.0167 83.6661L62.1772 83.6381L62.1483 84.5061H63.0167V83.6661ZM66.8337 73.8818L66.2677 73.261L66.2632 73.2652L66.8337 73.8818ZM85.4884 73.828L84.8944 74.422L84.8994 74.4269L85.4884 73.828ZM86.5099 90.3861L87.2328 90.8138L86.5099 90.3861ZM81.3489 97.0523L81.9316 97.6574L81.9373 97.6518L81.3489 97.0523ZM73.7687 103.826L73.2245 103.186L71.4847 104.666H73.7687V103.826ZM89.6279 103.826H90.4679V102.986H89.6279V103.826ZM89.6279 110.062V110.902H90.4679V110.062H89.6279ZM63.0705 110.062H62.2305V110.902H63.0705V110.062ZM63.0705 104.471L62.5279 103.83L62.2305 104.082V104.471H63.0705ZM66.4038 102.751C69.85 99.8792 72.6047 97.485 74.6633 95.5709L73.5193 94.3405C71.4921 96.2254 68.7633 98.5979 65.3283 101.46L66.4038 102.751ZM74.669 95.5655C76.7531 93.5911 78.4992 91.5348 79.9011 89.3949L78.4959 88.4742C77.174 90.4918 75.5153 92.4495 73.5136 94.3459L74.669 95.5655ZM79.9011 89.3949C81.3313 87.2121 82.0814 85.0117 82.0814 82.8059H80.4014C80.4014 84.6143 79.7896 86.4996 78.4959 88.4742L79.9011 89.3949ZM82.0814 82.8059C82.0814 80.8519 81.6211 79.2055 80.5983 77.9696L79.304 79.0407C80.0015 79.8835 80.4014 81.1043 80.4014 82.8059H82.0814ZM80.5983 77.9696C79.53 76.6787 77.9275 76.1061 75.9729 76.1061V77.7861C77.6023 77.7861 78.652 78.2528 79.304 79.0407L80.5983 77.9696ZM75.9729 76.1061C73.9684 76.1061 72.328 76.8004 71.1756 78.2516L72.4912 79.2963C73.2741 78.3104 74.3933 77.7861 75.9729 77.7861V76.1061ZM71.1832 78.242C70.0592 79.6159 69.5261 81.4516 69.4882 83.6516L71.168 83.6806C71.2017 81.7232 71.6722 80.2975 72.4835 79.3059L71.1832 78.242ZM70.3281 82.8261H63.0167V84.5061H70.3281V82.8261ZM63.8563 83.6941C63.9946 79.544 65.2147 76.5244 67.4042 74.4983L66.2632 73.2652C63.6501 75.6833 62.3256 79.1866 62.1772 83.6381L63.8563 83.6941ZM67.3996 74.5025C69.6617 72.4401 72.5331 71.3887 76.0804 71.3887V69.7087C72.173 69.7087 68.88 70.8793 66.2677 73.2611L67.3996 74.5025ZM76.0804 71.3887C80.0176 71.3887 82.9114 72.439 84.8944 74.422L86.0824 73.234C83.6929 70.8446 80.3147 69.7087 76.0804 69.7087V71.3887ZM84.8994 74.4269C86.8996 76.3943 87.9278 79.0145 87.9278 82.3759H89.6078C89.6078 78.6409 88.4497 75.5625 86.0775 73.2292L84.8994 74.4269ZM87.9278 82.3759C87.9278 85.0121 87.2201 87.5355 85.7869 89.9584L87.2328 90.8138C88.8101 88.1474 89.6078 85.3306 89.6078 82.3759H87.9278ZM85.7869 89.9584C84.3155 92.4458 82.6393 94.6089 80.7605 96.4528L81.9373 97.6518C83.9292 95.6968 85.6937 93.4157 87.2328 90.8138L85.7869 89.9584ZM80.7662 96.4473C78.8479 98.2945 76.3354 100.54 73.2245 103.186L74.313 104.466C77.4382 101.808 79.9791 99.5375 81.9316 97.6574L80.7662 96.4473ZM73.7687 104.666H89.6279V102.986H73.7687V104.666ZM88.7879 103.826V110.062H90.4679V103.826H88.7879ZM89.6279 109.222H63.0705V110.902H89.6279V109.222ZM63.9105 110.062V104.471H62.2305V110.062H63.9105ZM63.6131 105.112L66.4086 102.747L65.3234 101.465L62.5279 103.83L63.6131 105.112ZM111.681 110.6L110.981 111.064L111.23 111.44H111.681V110.6ZM105.553 101.353L106.253 100.889L105.51 99.7676L104.828 100.928L105.553 101.353ZM100.123 110.6V111.44H100.604L100.847 111.025L100.123 110.6ZM92.0589 110.6L91.3549 110.142L90.5096 111.44H92.0589V110.6ZM101.789 95.6546L102.493 96.1129L102.795 95.6504L102.49 95.1904L101.789 95.6546ZM91.9514 80.8168V79.9768H90.3865L91.2513 81.281L91.9514 80.8168ZM100.445 80.8168L101.146 80.3537L100.897 79.9768H100.445V80.8168ZM106.52 90.0098L105.82 90.4729L106.557 91.5885L107.242 90.4401L106.52 90.0098ZM112.004 80.8168V79.9768H111.527L111.282 80.3865L112.004 80.8168ZM120.068 80.8168L120.769 81.2792L121.628 79.9768H120.068V80.8168ZM110.284 95.6546L109.582 95.1922L109.277 95.6554L109.583 96.1182L110.284 95.6546ZM120.175 110.6V111.44H121.739L120.876 110.136L120.175 110.6ZM112.381 110.136L106.253 100.889L104.852 101.817L110.981 111.064L112.381 110.136ZM104.828 100.928L99.3985 110.175L100.847 111.025L106.277 101.778L104.828 100.928ZM100.123 109.76H92.0589V111.44H100.123V109.76ZM92.7628 111.058L102.493 96.1129L101.086 95.1962L91.3549 110.142L92.7628 111.058ZM102.49 95.1904L92.6515 80.3526L91.2513 81.281L101.089 96.1188L102.49 95.1904ZM91.9514 81.6568H100.445V79.9768H91.9514V81.6568ZM99.7446 81.2799L105.82 90.4729L107.221 89.5467L101.146 80.3537L99.7446 81.2799ZM107.242 90.4401L112.725 81.2471L111.282 80.3865L105.799 89.5795L107.242 90.4401ZM112.004 81.6568H120.068V79.9768H112.004V81.6568ZM119.367 80.3544L109.582 95.1922L110.985 96.117L120.769 81.2792L119.367 80.3544ZM109.583 96.1182L119.475 111.063L120.876 110.136L110.984 95.191L109.583 96.1182ZM120.175 109.76H111.681V111.44H120.175V109.76Z" fill="#7030A0" mask="url(#path-2-outside-1_1345_1507)"/>
<circle cx="91" cy="91" r="76.5" stroke="#7030A0" stroke-opacity="0.3" stroke-width="15"/>
<path d="M164.851 131C170.387 120.789 173.744 109.542 174.709 97.9698C175.675 86.3972 174.228 74.7503 170.461 63.7646C166.693 52.7789 160.686 42.6932 152.82 34.1445C144.953 25.5958 135.398 18.7698 124.758 14.0976C114.117 9.42551 102.623 7.00875 91 7" stroke="#7030A0" stroke-width="12.3094" stroke-linecap="round" stroke-linejoin="round"/>
</svg>
