<svg width="314" height="176" viewBox="0 0 314 176" fill="none" xmlns="http://www.w3.org/2000/svg">
<rect x="0.387207" y="0.929688" width="313.109" height="174.326" rx="16.9248" fill="#303030"/>
<mask id="mask0_1493_1544" style="mask-type:alpha" maskUnits="userSpaceOnUse" x="0" y="0" width="314" height="176">
<rect x="0.387207" y="0.929688" width="313.109" height="174.326" rx="16.9248" fill="url(#paint0_linear_1493_1544)"/>
</mask>
<g mask="url(#mask0_1493_1544)">
<path d="M52.8542 167.639C52.8542 196.616 29.364 220.106 0.387249 220.106C-28.5895 220.106 -52.0797 196.616 -52.0797 167.639C-52.0797 138.662 -28.5895 115.172 0.387249 115.172C29.364 115.172 52.8542 138.662 52.8542 167.639Z" fill="#7030A0"/>
<ellipse cx="60.6938" cy="61.938" rx="60.6938" ry="61.938" transform="matrix(0.861361 -0.507994 0.492048 0.870568 269.492 38.8984)" fill="#7030A0"/>
<circle cx="-21.6151" cy="116.018" r="52.467" fill="#545454"/>
<ellipse cx="60.6938" cy="61.938" rx="60.6938" ry="61.938" transform="matrix(0.861361 -0.507994 0.492048 0.870568 216.179 -19.4922)" fill="#545454"/>
</g>
<path d="M89.6971 97.6543L83.4518 85.6207C82.741 85.6207 81.9624 85.6207 81.1162 85.6207C80.2699 85.5869 79.4237 85.57 78.5774 85.57C77.7312 85.5361 76.9188 85.5192 76.1403 85.5192V79.2232H84.7719C85.3474 79.2232 85.9059 79.1385 86.4475 78.9693C86.9891 78.7662 87.463 78.4277 87.8692 77.9538C88.3092 77.4799 88.6477 76.8368 88.8847 76.0244C89.1555 75.1781 89.2909 74.1119 89.2909 72.8256C89.2909 71.2685 89.1047 70.0668 88.7323 69.2206C88.36 68.3405 87.8692 67.7312 87.2599 67.3927C86.6506 67.0204 85.9228 66.8342 85.0766 66.8342H76.1403V60.0812H86.0921C87.3107 60.0812 88.5462 60.2674 89.7986 60.6397C91.0849 61.012 92.2527 61.6721 93.302 62.6199C94.3514 63.5677 95.1976 64.8709 95.8408 66.5295C96.4839 68.1543 96.8055 70.253 96.8055 72.8256C96.8055 74.9243 96.6362 76.6844 96.2977 78.1061C95.9931 79.494 95.57 80.6279 95.0284 81.508C94.4868 82.3881 93.8606 83.082 93.1497 83.5898C92.4389 84.0637 91.728 84.4529 91.0172 84.7576L97.8718 97.6543H89.6971ZM76.1403 74.8566V71.0485H102.898V74.8566H76.1403ZM84.7719 63.8893V60.0812H102.898V63.8893H84.7719ZM123.481 97.6035V89.6827H107.03L105.609 86.1285L117.794 60.0812H125.461L114.545 83.2851H123.481V75.9736L124.954 71.6578H130.996V83.2851H134.855V88.4641L130.996 89.6827V97.6035H123.481ZM141.209 102.173C140.565 102.173 140.007 102.122 139.533 102.021C139.059 101.919 138.822 101.869 138.822 101.869V99.4822C139.296 99.4822 139.635 99.4145 139.838 99.2791C140.075 99.1437 140.193 98.8729 140.193 98.4667V97.1466H139.685C139.381 97.1466 139.127 97.0619 138.924 96.8927C138.721 96.6896 138.619 96.4019 138.619 96.0295V91.6121C138.619 90.8336 138.974 90.4443 139.685 90.4443H143.95C144.357 90.4443 144.627 90.5628 144.763 90.7997C144.932 91.0028 145.017 91.2736 145.017 91.6121V98.5682C145.017 99.5499 144.814 100.311 144.407 100.853C144.001 101.395 143.51 101.75 142.935 101.919C142.359 102.089 141.784 102.173 141.209 102.173ZM161.448 97.9082C159.789 97.9082 158.114 97.8405 156.421 97.7051C154.762 97.5697 153.256 97.3666 151.902 97.0958V91.1552H160.737C163.276 91.1552 165.137 90.3766 166.322 88.8195C167.507 87.2286 168.099 84.893 168.099 81.8127C167.355 82.0496 166.525 82.2358 165.611 82.3712C164.731 82.5066 163.8 82.5912 162.819 82.6251C161.837 82.6589 160.771 82.6758 159.62 82.6758C157.149 82.6758 155.186 82.3373 153.73 81.6603C152.274 80.9495 151.225 79.9509 150.582 78.6646C149.973 77.3784 149.668 75.8382 149.668 74.0442V68.6621C149.668 66.5634 150.057 64.8709 150.836 63.5846C151.614 62.2645 152.698 61.3167 154.085 60.7412C155.507 60.132 157.132 59.8273 158.96 59.8273H164.393C166.221 59.8273 167.828 60.115 169.216 60.6905C170.638 61.2321 171.823 62.1799 172.77 63.5338C173.718 64.8878 174.429 66.7834 174.903 69.2206C175.411 71.6239 175.665 74.6704 175.665 78.36C175.665 82.0158 175.343 85.113 174.7 87.6517C174.057 90.1566 173.126 92.1707 171.907 93.6939C170.689 95.1833 169.199 96.2665 167.439 96.9435C165.679 97.5866 163.682 97.9082 161.448 97.9082ZM161.752 76.2782H168.099C168.099 74.3488 167.998 72.7579 167.795 71.5054C167.591 70.253 167.27 69.2714 166.83 68.5605C166.424 67.8158 165.899 67.3081 165.256 67.0373C164.613 66.7326 163.834 66.5803 162.92 66.5803H160.635C159.925 66.5803 159.298 66.6988 158.757 66.9357C158.249 67.1727 157.86 67.545 157.589 68.0528C157.318 68.5605 157.183 69.2714 157.183 70.1853V72.6225C157.183 73.6041 157.335 74.3657 157.64 74.9073C157.978 75.4151 158.486 75.7705 159.163 75.9736C159.84 76.1767 160.703 76.2782 161.752 76.2782ZM192.289 97.9082C190.631 97.9082 188.955 97.8405 187.263 97.7051C185.604 97.5697 184.098 97.3666 182.744 97.0958V91.1552H191.578C194.117 91.1552 195.979 90.3766 197.164 88.8195C198.348 87.2286 198.941 84.893 198.941 81.8127C198.196 82.0496 197.367 82.2358 196.453 82.3712C195.573 82.5066 194.642 82.5912 193.66 82.6251C192.679 82.6589 191.612 82.6758 190.461 82.6758C187.99 82.6758 186.027 82.3373 184.572 81.6603C183.116 80.9495 182.067 79.9509 181.424 78.6646C180.814 77.3784 180.51 75.8382 180.51 74.0442V68.6621C180.51 66.5634 180.899 64.8709 181.677 63.5846C182.456 62.2645 183.539 61.3167 184.927 60.7412C186.349 60.132 187.973 59.8273 189.801 59.8273H195.234C197.062 59.8273 198.67 60.115 200.058 60.6905C201.479 61.2321 202.664 62.1799 203.612 63.5338C204.56 64.8878 205.271 66.7834 205.745 69.2206C206.252 71.6239 206.506 74.6704 206.506 78.36C206.506 82.0158 206.185 85.113 205.541 87.6517C204.898 90.1566 203.967 92.1707 202.749 93.6939C201.53 95.1833 200.041 96.2665 198.281 96.9435C196.52 97.5866 194.523 97.9082 192.289 97.9082ZM192.594 76.2782H198.941C198.941 74.3488 198.839 72.7579 198.636 71.5054C198.433 70.253 198.111 69.2714 197.671 68.5605C197.265 67.8158 196.741 67.3081 196.097 67.0373C195.454 66.7326 194.676 66.5803 193.762 66.5803H191.477C190.766 66.5803 190.14 66.6988 189.598 66.9357C189.09 67.1727 188.701 67.545 188.43 68.0528C188.16 68.5605 188.024 69.2714 188.024 70.1853V72.6225C188.024 73.6041 188.177 74.3657 188.481 74.9073C188.82 75.4151 189.327 75.7705 190.004 75.9736C190.681 76.1767 191.545 76.2782 192.594 76.2782ZM223.131 97.9082C221.472 97.9082 219.797 97.8405 218.104 97.7051C216.445 97.5697 214.939 97.3666 213.585 97.0958V91.1552H222.42C224.959 91.1552 226.82 90.3766 228.005 88.8195C229.19 87.2286 229.782 84.893 229.782 81.8127C229.038 82.0496 228.208 82.2358 227.294 82.3712C226.414 82.5066 225.483 82.5912 224.502 82.6251C223.52 82.6589 222.454 82.6758 221.303 82.6758C218.832 82.6758 216.869 82.3373 215.413 81.6603C213.958 80.9495 212.908 79.9509 212.265 78.6646C211.656 77.3784 211.351 75.8382 211.351 74.0442V68.6621C211.351 66.5634 211.74 64.8709 212.519 63.5846C213.297 62.2645 214.381 61.3167 215.769 60.7412C217.19 60.132 218.815 59.8273 220.643 59.8273H226.076C227.904 59.8273 229.511 60.115 230.899 60.6905C232.321 61.2321 233.506 62.1799 234.454 63.5338C235.401 64.8878 236.112 66.7834 236.586 69.2206C237.094 71.6239 237.348 74.6704 237.348 78.36C237.348 82.0158 237.026 85.113 236.383 87.6517C235.74 90.1566 234.809 92.1707 233.59 93.6939C232.372 95.1833 230.882 96.2665 229.122 96.9435C227.362 97.5866 225.365 97.9082 223.131 97.9082ZM223.435 76.2782H229.782C229.782 74.3488 229.681 72.7579 229.478 71.5054C229.275 70.253 228.953 69.2714 228.513 68.5605C228.107 67.8158 227.582 67.3081 226.939 67.0373C226.296 66.7326 225.517 66.5803 224.603 66.5803H222.318C221.608 66.5803 220.981 66.6988 220.44 66.9357C219.932 67.1727 219.543 67.545 219.272 68.0528C219.001 68.5605 218.866 69.2714 218.866 70.1853V72.6225C218.866 73.6041 219.018 74.3657 219.323 74.9073C219.661 75.4151 220.169 75.7705 220.846 75.9736C221.523 76.1767 222.386 76.2782 223.435 76.2782Z" fill="white"/>
<path d="M122.463 124.755V113.649H123.643L123.902 114.426C124.084 114.292 124.3 114.157 124.549 114.023C124.808 113.889 125.086 113.779 125.384 113.692C125.691 113.596 125.997 113.548 126.304 113.548C126.793 113.548 127.211 113.649 127.556 113.851C127.911 114.052 128.198 114.335 128.419 114.699C128.64 115.054 128.798 115.471 128.894 115.951C128.999 116.43 129.052 116.944 129.052 117.49C129.052 118.344 128.956 119.068 128.764 119.663C128.582 120.248 128.29 120.694 127.887 121C127.494 121.298 126.966 121.446 126.304 121.446C125.902 121.446 125.489 121.389 125.067 121.274C124.645 121.149 124.257 120.986 123.902 120.785V124.755H122.463ZM125.873 120.238C126.199 120.238 126.491 120.156 126.75 119.993C127.009 119.83 127.215 119.552 127.369 119.159C127.532 118.756 127.613 118.2 127.613 117.49C127.613 116.819 127.532 116.282 127.369 115.879C127.206 115.467 126.995 115.174 126.736 115.001C126.477 114.819 126.194 114.728 125.887 114.728C125.484 114.728 125.115 114.79 124.779 114.915C124.453 115.04 124.161 115.169 123.902 115.304V119.691C124.199 119.854 124.516 119.989 124.851 120.094C125.197 120.19 125.537 120.238 125.873 120.238ZM133.844 121.432C133.029 121.432 132.376 121.312 131.887 121.072C131.408 120.833 131.062 120.43 130.851 119.864C130.65 119.288 130.549 118.497 130.549 117.49C130.549 116.464 130.65 115.668 130.851 115.102C131.062 114.527 131.408 114.124 131.887 113.894C132.367 113.664 133.014 113.548 133.829 113.548C134.539 113.548 135.11 113.625 135.541 113.779C135.983 113.922 136.304 114.186 136.505 114.57C136.716 114.944 136.822 115.467 136.822 116.138C136.822 116.608 136.726 116.982 136.534 117.26C136.352 117.538 136.088 117.74 135.743 117.864C135.407 117.989 135.004 118.051 134.534 118.051H131.988C131.998 118.608 132.06 119.054 132.175 119.389C132.3 119.715 132.515 119.955 132.822 120.108C133.139 120.252 133.599 120.324 134.203 120.324H136.606V121.187C136.193 121.245 135.772 121.298 135.34 121.346C134.908 121.403 134.41 121.432 133.844 121.432ZM131.974 117.145H134.405C134.788 117.145 135.071 117.073 135.254 116.929C135.436 116.785 135.527 116.522 135.527 116.138C135.527 115.754 135.469 115.452 135.354 115.232C135.249 115.011 135.071 114.853 134.822 114.757C134.573 114.661 134.242 114.613 133.829 114.613C133.359 114.613 132.985 114.685 132.707 114.829C132.439 114.973 132.247 115.227 132.132 115.591C132.026 115.956 131.974 116.474 131.974 117.145ZM138.577 121.346V113.649H139.685L140.016 114.944C140.342 114.551 140.707 114.22 141.109 113.951C141.512 113.683 141.982 113.548 142.519 113.548C142.644 113.548 142.764 113.558 142.879 113.577C142.994 113.587 143.104 113.606 143.21 113.635V115.117C143.075 115.097 142.936 115.083 142.792 115.073C142.649 115.054 142.5 115.045 142.347 115.045C142.02 115.045 141.728 115.083 141.469 115.16C141.21 115.236 140.961 115.356 140.721 115.519C140.491 115.673 140.256 115.865 140.016 116.095V121.346H138.577ZM151.491 121.432C151.261 121.432 150.997 121.422 150.7 121.403C150.412 121.394 150.115 121.374 149.808 121.346C149.51 121.317 149.223 121.288 148.945 121.259C148.676 121.231 148.446 121.192 148.254 121.144V120.022C148.503 120.041 148.801 120.061 149.146 120.08C149.501 120.099 149.875 120.113 150.268 120.123C150.671 120.132 151.059 120.137 151.433 120.137C151.846 120.137 152.21 120.099 152.527 120.022C152.853 119.945 153.107 119.802 153.289 119.591C153.481 119.38 153.577 119.082 153.577 118.699V118.08C153.577 117.648 153.457 117.318 153.217 117.087C152.987 116.857 152.632 116.742 152.153 116.742H151.074C150.153 116.742 149.438 116.541 148.93 116.138C148.431 115.735 148.182 115.045 148.182 114.066V113.491C148.182 112.474 148.455 111.75 149.002 111.319C149.558 110.877 150.345 110.657 151.361 110.657C151.697 110.657 152.057 110.676 152.44 110.714C152.824 110.743 153.198 110.782 153.563 110.829C153.927 110.877 154.229 110.925 154.469 110.973V112.095C154.037 112.067 153.553 112.038 153.016 112.009C152.488 111.971 151.99 111.952 151.52 111.952C151.117 111.952 150.767 112 150.469 112.095C150.182 112.182 149.956 112.34 149.793 112.57C149.64 112.8 149.563 113.126 149.563 113.548V113.98C149.563 114.498 149.702 114.858 149.98 115.059C150.258 115.26 150.647 115.361 151.146 115.361H152.311C152.915 115.361 153.409 115.471 153.793 115.692C154.186 115.913 154.478 116.215 154.67 116.598C154.862 116.982 154.958 117.418 154.958 117.907V118.656C154.958 119.404 154.805 119.979 154.498 120.382C154.191 120.785 153.778 121.063 153.26 121.216C152.743 121.36 152.153 121.432 151.491 121.432ZM159.792 121.432C158.977 121.432 158.325 121.312 157.836 121.072C157.356 120.833 157.011 120.43 156.8 119.864C156.598 119.288 156.498 118.497 156.498 117.49C156.498 116.464 156.598 115.668 156.8 115.102C157.011 114.527 157.356 114.124 157.836 113.894C158.315 113.664 158.963 113.548 159.778 113.548C160.487 113.548 161.058 113.625 161.49 113.779C161.931 113.922 162.252 114.186 162.454 114.57C162.665 114.944 162.77 115.467 162.77 116.138C162.77 116.608 162.674 116.982 162.482 117.26C162.3 117.538 162.036 117.74 161.691 117.864C161.355 117.989 160.953 118.051 160.483 118.051H157.936C157.946 118.608 158.008 119.054 158.123 119.389C158.248 119.715 158.464 119.955 158.771 120.108C159.087 120.252 159.548 120.324 160.152 120.324H162.554V121.187C162.142 121.245 161.72 121.298 161.288 121.346C160.857 121.403 160.358 121.432 159.792 121.432ZM157.922 117.145H160.353C160.737 117.145 161.02 117.073 161.202 116.929C161.384 116.785 161.475 116.522 161.475 116.138C161.475 115.754 161.418 115.452 161.303 115.232C161.197 115.011 161.02 114.853 160.77 114.757C160.521 114.661 160.19 114.613 159.778 114.613C159.308 114.613 158.934 114.685 158.656 114.829C158.387 114.973 158.195 115.227 158.08 115.591C157.975 115.956 157.922 116.474 157.922 117.145ZM167.561 121.432C166.746 121.432 166.094 121.312 165.605 121.072C165.125 120.833 164.78 120.43 164.569 119.864C164.367 119.288 164.267 118.497 164.267 117.49C164.267 116.464 164.367 115.668 164.569 115.102C164.78 114.527 165.125 114.124 165.605 113.894C166.084 113.664 166.732 113.548 167.547 113.548C168.257 113.548 168.827 113.625 169.259 113.779C169.7 113.922 170.021 114.186 170.223 114.57C170.434 114.944 170.539 115.467 170.539 116.138C170.539 116.608 170.443 116.982 170.251 117.26C170.069 117.538 169.805 117.74 169.46 117.864C169.124 117.989 168.722 118.051 168.252 118.051H165.705C165.715 118.608 165.777 119.054 165.892 119.389C166.017 119.715 166.233 119.955 166.54 120.108C166.856 120.252 167.317 120.324 167.921 120.324H170.323V121.187C169.911 121.245 169.489 121.298 169.057 121.346C168.626 121.403 168.127 121.432 167.561 121.432ZM165.691 117.145H168.122C168.506 117.145 168.789 117.073 168.971 116.929C169.153 116.785 169.244 116.522 169.244 116.138C169.244 115.754 169.187 115.452 169.072 115.232C168.966 115.011 168.789 114.853 168.539 114.757C168.29 114.661 167.959 114.613 167.547 114.613C167.077 114.613 166.703 114.685 166.425 114.829C166.156 114.973 165.964 115.227 165.849 115.591C165.744 115.956 165.691 116.474 165.691 117.145ZM172.295 121.346V110.369H173.733V116.598H174.784L176.927 113.649H178.423L175.848 117.246L178.61 121.346H177.1L174.74 117.893H173.733V121.346H172.295ZM182.832 121.432C182.017 121.432 181.365 121.312 180.876 121.072C180.396 120.833 180.051 120.43 179.84 119.864C179.639 119.288 179.538 118.497 179.538 117.49C179.538 116.464 179.639 115.668 179.84 115.102C180.051 114.527 180.396 114.124 180.876 113.894C181.355 113.664 182.003 113.548 182.818 113.548C183.528 113.548 184.098 113.625 184.53 113.779C184.971 113.922 185.292 114.186 185.494 114.57C185.705 114.944 185.81 115.467 185.81 116.138C185.81 116.608 185.714 116.982 185.523 117.26C185.34 117.538 185.077 117.74 184.731 117.864C184.396 117.989 183.993 118.051 183.523 118.051H180.977C180.986 118.608 181.049 119.054 181.164 119.389C181.288 119.715 181.504 119.955 181.811 120.108C182.127 120.252 182.588 120.324 183.192 120.324H185.595V121.187C185.182 121.245 184.76 121.298 184.329 121.346C183.897 121.403 183.398 121.432 182.832 121.432ZM180.962 117.145H183.393C183.777 117.145 184.06 117.073 184.242 116.929C184.424 116.785 184.516 116.522 184.516 116.138C184.516 115.754 184.458 115.452 184.343 115.232C184.237 115.011 184.06 114.853 183.811 114.757C183.561 114.661 183.23 114.613 182.818 114.613C182.348 114.613 181.974 114.685 181.696 114.829C181.427 114.973 181.236 115.227 181.12 115.591C181.015 115.956 180.962 116.474 180.962 117.145ZM187.566 121.346V113.649H188.674L189.005 114.944C189.331 114.551 189.695 114.22 190.098 113.951C190.501 113.683 190.971 113.548 191.508 113.548C191.632 113.548 191.752 113.558 191.867 113.577C191.983 113.587 192.093 113.606 192.198 113.635V115.117C192.064 115.097 191.925 115.083 191.781 115.073C191.637 115.054 191.489 115.045 191.335 115.045C191.009 115.045 190.717 115.083 190.458 115.16C190.199 115.236 189.949 115.356 189.71 115.519C189.479 115.673 189.244 115.865 189.005 116.095V121.346H187.566Z" fill="#878787"/>
<defs>
<linearGradient id="paint0_linear_1493_1544" x1="0.387207" y1="0.929688" x2="313.497" y2="175.255" gradientUnits="userSpaceOnUse">
<stop stop-color="#CB397A"/>
<stop offset="1" stop-color="#3A3895"/>
</linearGradient>
</defs>
</svg>
