<svg width="100" height="53" viewBox="0 0 100 53" fill="none" xmlns="http://www.w3.org/2000/svg">
<path d="M38.3846 23.0786C38.2423 23.0786 38.1299 23.0374 38.0476 22.9551C37.9652 22.8652 37.924 22.7454 37.924 22.5956V15.8774H35.3962C35.2614 15.8774 35.1566 15.84 35.0817 15.7651C35.0068 15.6902 34.9693 15.5928 34.9693 15.473C34.9693 15.3456 35.0068 15.2483 35.0817 15.1809C35.1566 15.1135 35.2614 15.0798 35.3962 15.0798H41.3842C41.519 15.0798 41.6238 15.1135 41.6987 15.1809C41.7736 15.2483 41.8111 15.3456 41.8111 15.473C41.8111 15.6003 41.7736 15.7014 41.6987 15.7763C41.6238 15.8437 41.519 15.8774 41.3842 15.8774H38.8564V22.5956C38.8564 22.7454 38.8152 22.8652 38.7328 22.9551C38.658 23.0374 38.5419 23.0786 38.3846 23.0786ZM42.2199 23.0786C42.0701 23.0786 41.954 23.0374 41.8716 22.9551C41.7967 22.8727 41.7593 22.7566 41.7593 22.6068V17.9221C41.7593 17.7723 41.7967 17.6599 41.8716 17.585C41.9465 17.5026 42.0551 17.4615 42.1974 17.4615C42.3397 17.4615 42.4483 17.5026 42.5232 17.585C42.6056 17.6599 42.6468 17.7723 42.6468 17.9221V18.832H42.5345C42.6543 18.3902 42.8827 18.0494 43.2198 17.8097C43.5568 17.5701 43.9725 17.4427 44.4668 17.4277C44.5791 17.4203 44.669 17.4465 44.7364 17.5064C44.8038 17.5588 44.8412 17.6524 44.8487 17.7872C44.8562 17.9146 44.8263 18.0157 44.7589 18.0906C44.6915 18.1655 44.5866 18.2104 44.4443 18.2254L44.2646 18.2479C43.7553 18.2928 43.3621 18.4576 43.0849 18.7422C42.8153 19.0193 42.6805 19.4013 42.6805 19.8881V22.6068C42.6805 22.7566 42.6393 22.8727 42.5569 22.9551C42.482 23.0374 42.3697 23.0786 42.2199 23.0786ZM47.3391 25.1008C47.2267 25.1008 47.1369 25.0709 47.0695 25.011C47.0021 24.951 46.9609 24.8687 46.9459 24.7638C46.9384 24.6664 46.9571 24.5653 47.0021 24.4605L47.7772 22.7191V23.1123L45.6202 18.1018C45.5753 17.9895 45.5603 17.8846 45.5753 17.7872C45.5903 17.6899 45.6352 17.6112 45.7101 17.5513C45.785 17.4914 45.8898 17.4615 46.0247 17.4615C46.1445 17.4615 46.2381 17.4877 46.3055 17.5401C46.3729 17.5925 46.4328 17.6861 46.4853 17.821L48.3277 22.3372H48.0244L49.8893 17.821C49.9492 17.6861 50.0129 17.5925 50.0803 17.5401C50.1477 17.4877 50.245 17.4615 50.3724 17.4615C50.4922 17.4615 50.5821 17.4914 50.642 17.5513C50.7094 17.6112 50.7468 17.6899 50.7543 17.7872C50.7693 17.8771 50.7543 17.9782 50.7094 18.0906L47.8334 24.7413C47.7735 24.8761 47.7061 24.9698 47.6312 25.0222C47.5638 25.0746 47.4664 25.1008 47.3391 25.1008ZM57.3206 23.0786C57.1783 23.0786 57.066 23.0374 56.9836 22.9551C56.9012 22.8652 56.86 22.7454 56.86 22.5956V15.8774H54.3323C54.1975 15.8774 54.0926 15.84 54.0177 15.7651C53.9428 15.6902 53.9054 15.5928 53.9054 15.473C53.9054 15.3456 53.9428 15.2483 54.0177 15.1809C54.0926 15.1135 54.1975 15.0798 54.3323 15.0798H60.3202C60.455 15.0798 60.5599 15.1135 60.6348 15.1809C60.7097 15.2483 60.7471 15.3456 60.7471 15.473C60.7471 15.6003 60.7097 15.7014 60.6348 15.7763C60.5599 15.8437 60.455 15.8774 60.3202 15.8774H57.7925V22.5956C57.7925 22.7454 57.7513 22.8652 57.6689 22.9551C57.594 23.0374 57.4779 23.0786 57.3206 23.0786ZM62.9647 23.1011C62.4329 23.1011 61.9723 22.985 61.5829 22.7528C61.1934 22.5207 60.8901 22.1949 60.6729 21.7755C60.4632 21.3485 60.3583 20.8467 60.3583 20.27C60.3583 19.8357 60.4182 19.4462 60.5381 19.1017C60.6579 18.7497 60.8339 18.4501 61.0661 18.2029C61.2983 17.9558 61.5716 17.7685 61.8862 17.6412C62.2082 17.5064 62.5677 17.439 62.9647 17.439C63.4965 17.439 63.9571 17.5551 64.3465 17.7872C64.736 18.0194 65.0356 18.349 65.2453 18.7759C65.4625 19.1953 65.5711 19.6933 65.5711 20.27C65.5711 20.7044 65.5112 21.0939 65.3913 21.4384C65.2715 21.7829 65.0955 22.0825 64.8633 22.3372C64.6311 22.5843 64.354 22.7753 64.032 22.9101C63.7174 23.0374 63.3616 23.1011 62.9647 23.1011ZM62.9647 22.3709C63.3017 22.3709 63.5976 22.2885 63.8522 22.1237C64.1069 21.9589 64.3016 21.7193 64.4364 21.4047C64.5787 21.0902 64.6499 20.7119 64.6499 20.27C64.6499 19.5885 64.4963 19.068 64.1892 18.7085C63.8897 18.349 63.4815 18.1692 62.9647 18.1692C62.6202 18.1692 62.3206 18.2516 62.0659 18.4164C61.8188 18.5737 61.6241 18.8096 61.4818 19.1241C61.3469 19.4312 61.2795 19.8132 61.2795 20.27C61.2795 20.9441 61.4331 21.4646 61.7401 21.8316C62.0472 22.1911 62.4554 22.3709 62.9647 22.3709ZM70.4184 23.0786C70.2686 23.0786 70.1526 23.0374 70.0702 22.9551C69.9953 22.8652 69.9578 22.7454 69.9578 22.5956V15.4842C69.9578 15.3269 69.9953 15.2071 70.0702 15.1247C70.1526 15.0423 70.2686 15.0011 70.4184 15.0011C70.5682 15.0011 70.6806 15.0423 70.7555 15.1247C70.8379 15.2071 70.879 15.3269 70.879 15.4842V18.5849H75.6312V15.4842C75.6312 15.3269 75.6686 15.2071 75.7435 15.1247C75.8259 15.0423 75.942 15.0011 76.0918 15.0011C76.2416 15.0011 76.3539 15.0423 76.4288 15.1247C76.5112 15.2071 76.5524 15.3269 76.5524 15.4842V22.5956C76.5524 22.7454 76.5112 22.8652 76.4288 22.9551C76.3539 23.0374 76.2416 23.0786 76.0918 23.0786C75.942 23.0786 75.8259 23.0374 75.7435 22.9551C75.6686 22.8652 75.6312 22.7454 75.6312 22.5956V19.3825H70.879V22.5956C70.879 22.7454 70.8416 22.8652 70.7667 22.9551C70.6918 23.0374 70.5757 23.0786 70.4184 23.0786ZM80.6501 23.1011C80.1183 23.1011 79.6577 22.985 79.2682 22.7528C78.8788 22.5207 78.5754 22.1949 78.3582 21.7755C78.1485 21.3485 78.0437 20.8467 78.0437 20.27C78.0437 19.8357 78.1036 19.4462 78.2234 19.1017C78.3433 18.7497 78.5193 18.4501 78.7514 18.2029C78.9836 17.9558 79.257 17.7685 79.5716 17.6412C79.8936 17.5064 80.2531 17.439 80.6501 17.439C81.1818 17.439 81.6424 17.5551 82.0319 17.7872C82.4213 18.0194 82.7209 18.349 82.9306 18.7759C83.1478 19.1953 83.2564 19.6933 83.2564 20.27C83.2564 20.7044 83.1965 21.0939 83.0767 21.4384C82.9568 21.7829 82.7808 22.0825 82.5487 22.3372C82.3165 22.5843 82.0394 22.7753 81.7173 22.9101C81.4028 23.0374 81.047 23.1011 80.6501 23.1011ZM80.6501 22.3709C80.9871 22.3709 81.2829 22.2885 81.5376 22.1237C81.7922 21.9589 81.9869 21.7193 82.1218 21.4047C82.2641 21.0902 82.3352 20.7119 82.3352 20.27C82.3352 19.5885 82.1817 19.068 81.8746 18.7085C81.575 18.349 81.1668 18.1692 80.6501 18.1692C80.3055 18.1692 80.006 18.2516 79.7513 18.4164C79.5042 18.5737 79.3094 18.8096 79.1671 19.1241C79.0323 19.4312 78.9649 19.8132 78.9649 20.27C78.9649 20.9441 79.1184 21.4646 79.4255 21.8316C79.7326 22.1911 80.1408 22.3709 80.6501 22.3709ZM86.5799 23.0786C86.4526 23.0786 86.3402 23.0449 86.2428 22.9775C86.1455 22.9026 86.0631 22.7903 85.9957 22.6405L84.0521 18.1018C83.9997 17.9895 83.981 17.8846 83.996 17.7872C84.0109 17.6899 84.0559 17.6112 84.1308 17.5513C84.2057 17.4914 84.3105 17.4615 84.4453 17.4615C84.5652 17.4615 84.6588 17.4877 84.7262 17.5401C84.7936 17.5925 84.8535 17.6861 84.906 17.821L86.7484 22.3259H86.4451L88.3212 17.821C88.3736 17.6861 88.4335 17.5925 88.501 17.5401C88.5684 17.4877 88.6657 17.4615 88.793 17.4615C88.9129 17.4615 89.0028 17.4914 89.0627 17.5513C89.1301 17.6112 89.1675 17.6899 89.175 17.7872C89.19 17.8771 89.175 17.9782 89.1301 18.0906L87.1641 22.6405C87.1116 22.7903 87.033 22.9026 86.9281 22.9775C86.8308 23.0449 86.7147 23.0786 86.5799 23.0786ZM92.7117 23.1011C92.135 23.1011 91.637 22.9888 91.2176 22.7641C90.8056 22.5319 90.4836 22.2061 90.2514 21.7867C90.0267 21.3673 89.9144 20.8655 89.9144 20.2813C89.9144 19.7121 90.0267 19.2178 90.2514 18.7983C90.4761 18.3714 90.7832 18.0382 91.1726 17.7985C91.5696 17.5588 92.0264 17.439 92.5432 17.439C92.9102 17.439 93.2398 17.5026 93.5318 17.63C93.8239 17.7498 94.0711 17.9258 94.2733 18.158C94.483 18.3902 94.6403 18.671 94.7452 19.0006C94.8575 19.3301 94.9137 19.7008 94.9137 20.1128C94.9137 20.2326 94.88 20.3225 94.8126 20.3824C94.7452 20.4348 94.6478 20.461 94.5205 20.461H90.6109V19.8656H94.307L94.1273 20.0117C94.1273 19.6072 94.0674 19.2664 93.9475 18.9893C93.8277 18.7047 93.6517 18.4875 93.4195 18.3377C93.1948 18.1879 92.9102 18.113 92.5657 18.113C92.1837 18.113 91.8579 18.2029 91.5883 18.3827C91.3262 18.5549 91.1277 18.7983 90.9929 19.1129C90.8581 19.42 90.7907 19.7795 90.7907 20.1914V20.2588C90.7907 20.9479 90.9554 21.4721 91.285 21.8316C91.622 22.1911 92.0976 22.3709 92.7117 22.3709C92.9664 22.3709 93.2173 22.3372 93.4644 22.2698C93.7191 22.2024 93.9662 22.09 94.2059 21.9327C94.3108 21.8653 94.4044 21.8354 94.4868 21.8429C94.5766 21.8429 94.6478 21.8691 94.7002 21.9215C94.7527 21.9664 94.7864 22.0264 94.8013 22.1012C94.8238 22.1687 94.8163 22.2436 94.7789 22.3259C94.7489 22.4083 94.6852 22.4795 94.5879 22.5394C94.3407 22.7191 94.0486 22.8577 93.7116 22.9551C93.3746 23.0524 93.0413 23.1011 92.7117 23.1011ZM96.6913 23.0786C96.5415 23.0786 96.4254 23.0374 96.343 22.9551C96.2681 22.8727 96.2306 22.7566 96.2306 22.6068V17.9221C96.2306 17.7723 96.2681 17.6599 96.343 17.585C96.4179 17.5026 96.5265 17.4615 96.6688 17.4615C96.8111 17.4615 96.9197 17.5026 96.9946 17.585C97.077 17.6599 97.1182 17.7723 97.1182 17.9221V18.832H97.0058C97.1256 18.3902 97.3541 18.0494 97.6911 17.8097C98.0281 17.5701 98.4438 17.4427 98.9381 17.4277C99.0505 17.4203 99.1403 17.4465 99.2078 17.5064C99.2752 17.5588 99.3126 17.6524 99.3201 17.7872C99.3276 17.9146 99.2976 18.0157 99.2302 18.0906C99.1628 18.1655 99.058 18.2104 98.9157 18.2254L98.7359 18.2479C98.2266 18.2928 97.8334 18.4576 97.5563 18.7422C97.2867 19.0193 97.1519 19.4013 97.1519 19.8881V22.6068C97.1519 22.7566 97.1107 22.8727 97.0283 22.9551C96.9534 23.0374 96.841 23.0786 96.6913 23.0786Z" fill="#C4C4C4"/>
<path d="M34.7031 20.2217C16.6419 25.5041 10.457 32.9066 3.24683 50.5545" stroke="#D3D3D3" stroke-width="0.393203"/>
<path d="M1 47.6367L2.52199 52.0116L6.28701 49.9805" stroke="#D3D3D3" stroke-width="0.393203"/>
</svg>
