<svg width="47" height="46" viewBox="0 0 47 46" fill="none" xmlns="http://www.w3.org/2000/svg">
<circle cx="23.5159" cy="22.9427" r="22.9231" fill="#9C27B0"/>
<path fill-rule="evenodd" clip-rule="evenodd" d="M36.047 15.7807C35.1455 16.1729 34.1817 16.4378 33.1661 16.5601C34.2024 15.9488 35.0004 14.9809 35.3734 13.8297C34.4045 14.3951 33.3319 14.8077 32.1868 15.0268C31.2697 14.064 29.964 13.4629 28.5235 13.4629C25.7515 13.4629 23.5079 15.6737 23.5079 18.399C23.5079 18.7861 23.5493 19.1631 23.6374 19.5248C19.4663 19.321 15.7668 17.3547 13.2952 14.3645C12.8652 15.093 12.6165 15.9437 12.6165 16.8453C12.6165 18.5569 13.5077 20.0698 14.8548 20.9562C14.0258 20.9358 13.2486 20.7117 12.575 20.3398C12.575 20.3602 12.575 20.3806 12.575 20.401C12.575 22.7951 14.3056 24.7869 16.601 25.2403C16.1813 25.3523 15.7357 25.4135 15.2797 25.4135C14.9585 25.4135 14.6424 25.3829 14.3367 25.3218C14.974 27.283 16.829 28.7093 19.0259 28.7501C17.3109 30.0745 15.145 30.8641 12.7926 30.8641C12.3885 30.8641 11.9895 30.8386 11.5957 30.7928C13.8082 32.2089 16.4456 33.024 19.2746 33.024C28.5132 33.024 33.5599 25.5001 33.5599 18.9746C33.5599 18.7607 33.5547 18.5467 33.5444 18.3379C34.5237 17.64 35.3734 16.774 36.047 15.7807Z" fill="white"/>
</svg>
