<svg width="20" height="19" viewBox="0 0 20 19" fill="none" xmlns="http://www.w3.org/2000/svg">
<path id="Vector" d="M14.9718 6.54219C15.2485 6.22475 15.2156 5.74306 14.8981 5.46631C14.5807 5.18955 14.099 5.22253 13.8222 5.53997L14.9718 6.54219ZM8.14507 13.2121L7.58783 13.7326C7.73514 13.8903 7.94238 13.9782 8.15815 13.9745C8.37393 13.9708 8.57803 13.8758 8.71984 13.7132L8.14507 13.2121ZM6.02292 9.82315C5.73543 9.51539 5.2529 9.49895 4.94514 9.78643C4.63738 10.0739 4.62094 10.5564 4.90842 10.8642L6.02292 9.82315ZM19.6252 9.62668C19.6252 4.42826 15.2563 0.25894 9.93134 0.25894V1.78403C14.468 1.78403 18.1001 5.32352 18.1001 9.62668H19.6252ZM9.93134 0.25894C4.60634 0.25894 0.237456 4.42826 0.237456 9.62668H1.76254C1.76254 5.32352 5.39465 1.78403 9.93134 1.78403V0.25894ZM0.237456 9.62668C0.237456 14.8251 4.60634 18.9944 9.93134 18.9944V17.4693C5.39465 17.4693 1.76254 13.9298 1.76254 9.62668H0.237456ZM9.93134 18.9944C15.2563 18.9944 19.6252 14.8251 19.6252 9.62668H18.1001C18.1001 13.9298 14.468 17.4693 9.93134 17.4693V18.9944ZM13.8222 5.53997L7.5703 12.711L8.71984 13.7132L14.9718 6.54219L13.8222 5.53997ZM8.70232 12.6915L6.02292 9.82315L4.90842 10.8642L7.58783 13.7326L8.70232 12.6915Z" fill="#31C65B"/>
</svg>
