<svg width="327" height="95" viewBox="0 0 327 95" fill="none" xmlns="http://www.w3.org/2000/svg">
<mask id="path-1-outside-1_158_580" maskUnits="userSpaceOnUse" x="-1.45215" y="-1.62402" width="329" height="97" fill="black">
<rect fill="white" x="-1.45215" y="-1.62402" width="329" height="97"/>
<path d="M105.22 92.376H82.8556L67.4238 40.8361L51.9317 92.376H29.5676L0.150658 1.95507H25.2274L40.7195 53.917L56.2116 1.95507H78.5757L94.0076 53.7964L109.439 1.95507H134.516L105.22 92.376ZM165.078 92.376H141.207V1.95507H165.078V37.5206H196.605V1.95507H220.476V92.376H196.605V58.3174H165.078V92.376ZM278.165 94.1844C271.253 94.1844 264.863 93.019 258.996 90.6881C253.168 88.3171 248.085 85.0217 243.745 80.8021C239.445 76.5423 236.109 71.5591 233.738 65.8525C231.367 60.1459 230.181 53.917 230.181 47.1655C230.181 40.4141 231.367 34.1851 233.738 28.4785C236.109 22.772 239.445 17.8089 243.745 13.5892C248.085 9.3294 253.168 6.03406 258.996 3.70321C264.863 1.33217 271.253 0.146655 278.165 0.146655C285.117 0.146655 291.507 1.33217 297.334 3.70321C303.161 6.03406 308.205 9.3294 312.464 13.5892C316.764 17.8089 320.1 22.772 322.471 28.4785C324.842 34.1851 326.028 40.4141 326.028 47.1655C326.028 53.917 324.842 60.1459 322.471 65.8525C320.1 71.5591 316.764 76.5423 312.464 80.8021C308.205 85.0217 303.161 88.3171 297.334 90.6881C291.507 93.019 285.117 94.1844 278.165 94.1844ZM278.165 73.3876C281.5 73.3876 284.595 72.7245 287.448 71.3983C290.301 70.0722 292.773 68.2235 294.863 65.8525C296.992 63.4413 298.64 60.6483 299.806 57.4735C301.011 54.2987 301.614 50.8627 301.614 47.1655C301.614 43.4683 301.011 40.0323 299.806 36.8575C298.64 33.6828 296.992 30.9099 294.863 28.5388C292.773 26.1276 290.301 24.2589 287.448 22.9327C284.595 21.6065 281.5 20.9435 278.165 20.9435C274.829 20.9435 271.715 21.6065 268.821 22.9327C265.968 24.2589 263.476 26.1276 261.347 28.5388C259.217 30.9099 257.549 33.6828 256.343 36.8575C255.178 40.0323 254.595 43.4683 254.595 47.1655C254.595 50.8627 255.178 54.2987 256.343 57.4735C257.549 60.6483 259.217 63.4413 261.347 65.8525C263.476 68.2235 265.968 70.0722 268.821 71.3983C271.715 72.7245 274.829 73.3876 278.165 73.3876Z"/>
</mask>
<path d="M105.22 92.376V93.199H105.818L106.003 92.6297L105.22 92.376ZM82.8556 92.376L82.0672 92.612L82.2429 93.199H82.8556V92.376ZM67.4238 40.8361L68.2123 40.6L67.4253 37.9718L66.6356 40.5991L67.4238 40.8361ZM51.9317 92.376V93.199H52.5437L52.7199 92.6129L51.9317 92.376ZM29.5676 92.376L28.7849 92.6306L28.9699 93.199H29.5676V92.376ZM0.150658 1.95507V1.13204H-0.982593L-0.631996 2.2097L0.150658 1.95507ZM25.2274 1.95507L26.0161 1.71992L25.8408 1.13204H25.2274V1.95507ZM40.7195 53.917L39.9308 54.1521L40.7195 56.7975L41.5082 54.1521L40.7195 53.917ZM56.2116 1.95507V1.13204H55.5982L55.4229 1.71992L56.2116 1.95507ZM78.5757 1.95507L79.3645 1.72026L79.1894 1.13204H78.5757V1.95507ZM94.0076 53.7964L93.2187 54.0312L94.0076 56.6812L94.7964 54.0312L94.0076 53.7964ZM109.439 1.95507V1.13204H108.826L108.651 1.72026L109.439 1.95507ZM134.516 1.95507L135.299 2.20875L135.648 1.13204H134.516V1.95507ZM105.22 91.5529H82.8556V93.199H105.22V91.5529ZM83.6441 92.1399L68.2123 40.6L66.6354 41.0721L82.0672 92.612L83.6441 92.1399ZM66.6356 40.5991L51.1435 92.1391L52.7199 92.6129L68.212 41.073L66.6356 40.5991ZM51.9317 91.5529H29.5676V93.199H51.9317V91.5529ZM30.3502 92.1214L0.933312 1.70045L-0.631996 2.2097L28.7849 92.6306L30.3502 92.1214ZM0.150658 2.7781H25.2274V1.13204H0.150658V2.7781ZM24.4387 2.19023L39.9308 54.1521L41.5082 53.6818L26.0161 1.71992L24.4387 2.19023ZM41.5082 54.1521L57.0003 2.19023L55.4229 1.71992L39.9308 53.6818L41.5082 54.1521ZM56.2116 2.7781H78.5757V1.13204H56.2116V2.7781ZM77.7869 2.18989L93.2187 54.0312L94.7964 53.5616L79.3645 1.72026L77.7869 2.18989ZM94.7964 54.0312L110.228 2.18989L108.651 1.72026L93.2187 53.5616L94.7964 54.0312ZM109.439 2.7781H134.516V1.13204H109.439V2.7781ZM133.733 1.70139L104.437 92.1223L106.003 92.6297L135.299 2.20875L133.733 1.70139ZM165.078 92.376V93.199H165.901V92.376H165.078ZM141.207 92.376H140.384V93.199H141.207V92.376ZM141.207 1.95507V1.13204H140.384V1.95507H141.207ZM165.078 1.95507H165.901V1.13204H165.078V1.95507ZM165.078 37.5206H164.255V38.3437H165.078V37.5206ZM196.605 37.5206V38.3437H197.428V37.5206H196.605ZM196.605 1.95507V1.13204H195.782V1.95507H196.605ZM220.476 1.95507H221.299V1.13204H220.476V1.95507ZM220.476 92.376V93.199H221.299V92.376H220.476ZM196.605 92.376H195.782V93.199H196.605V92.376ZM196.605 58.3174H197.428V57.4944H196.605V58.3174ZM165.078 58.3174V57.4944H164.255V58.3174H165.078ZM165.078 91.5529H141.207V93.199H165.078V91.5529ZM142.03 92.376V1.95507H140.384V92.376H142.03ZM141.207 2.7781H165.078V1.13204H141.207V2.7781ZM164.255 1.95507V37.5206H165.901V1.95507H164.255ZM165.078 38.3437H196.605V36.6976H165.078V38.3437ZM197.428 37.5206V1.95507H195.782V37.5206H197.428ZM196.605 2.7781H220.476V1.13204H196.605V2.7781ZM219.653 1.95507V92.376H221.299V1.95507H219.653ZM220.476 91.5529H196.605V93.199H220.476V91.5529ZM197.428 92.376V58.3174H195.782V92.376H197.428ZM196.605 57.4944H165.078V59.1405H196.605V57.4944ZM164.255 58.3174V92.376H165.901V58.3174H164.255ZM258.996 90.6881L258.685 91.4505L258.692 91.453L258.996 90.6881ZM243.745 80.8021L243.165 81.3868L243.171 81.3922L243.745 80.8021ZM243.745 13.5892L244.321 14.1767L244.321 14.1766L243.745 13.5892ZM258.996 3.70321L259.301 4.46738L259.304 4.46629L258.996 3.70321ZM297.334 3.70321L297.024 4.46556L297.028 4.46738L297.334 3.70321ZM312.464 13.5892L311.882 14.1712L311.888 14.1767L312.464 13.5892ZM312.464 80.8021L313.044 81.3868L313.044 81.3868L312.464 80.8021ZM297.334 90.6881L297.64 91.4523L297.644 91.4505L297.334 90.6881ZM287.448 71.3983L287.795 72.1447L287.448 71.3983ZM294.863 65.8525L294.246 65.3076L294.245 65.3083L294.863 65.8525ZM299.806 57.4735L299.036 57.1813L299.033 57.1899L299.806 57.4735ZM299.806 36.8575L299.033 37.1412L299.036 37.1497L299.806 36.8575ZM294.863 28.5388L294.241 29.0778L294.245 29.0834L294.25 29.0888L294.863 28.5388ZM287.448 22.9327L287.795 22.1864L287.448 22.9327ZM268.821 22.9327L268.478 22.1845L268.474 22.1864L268.821 22.9327ZM261.347 28.5388L261.959 29.0888L261.963 29.0837L261.347 28.5388ZM256.343 36.8575L255.574 36.5653L255.571 36.5739L256.343 36.8575ZM256.343 57.4735L255.571 57.7571L255.574 57.7657L256.343 57.4735ZM261.347 65.8525L260.73 66.3974L260.734 66.4025L261.347 65.8525ZM268.821 71.3983L268.474 72.1447L268.478 72.1465L268.821 71.3983ZM278.165 93.3614C271.347 93.3614 265.061 92.2122 259.299 89.9232L258.692 91.453C264.665 93.8258 271.158 95.0074 278.165 95.0074V93.3614ZM259.306 89.9258C253.573 87.5931 248.58 84.3549 244.318 80.212L243.171 81.3922C247.59 85.6886 252.764 89.0411 258.685 91.4505L259.306 89.9258ZM244.324 80.2174C240.103 76.036 236.828 71.1447 234.498 65.5367L232.978 66.1683C235.39 71.9734 238.786 77.0486 243.165 81.3868L244.324 80.2174ZM234.498 65.5367C232.172 59.9392 231.004 53.8187 231.004 47.1655H229.358C229.358 54.0152 230.562 60.3527 232.978 66.1683L234.498 65.5367ZM231.004 47.1655C231.004 40.5124 232.172 34.3919 234.498 28.7943L232.978 28.1627C230.562 33.9783 229.358 40.3158 229.358 47.1655H231.004ZM234.498 28.7943C236.828 23.187 240.102 18.317 244.321 14.1767L243.168 13.0018C238.787 17.3008 235.39 22.3569 232.978 28.1627L234.498 28.7943ZM244.321 14.1766C248.581 9.9955 253.572 6.75911 259.301 4.46738L258.69 2.93905C252.765 5.30901 247.588 8.6633 243.168 13.0018L244.321 14.1766ZM259.304 4.46629C265.065 2.13836 271.349 0.969686 278.165 0.969686V-0.676376C271.157 -0.676376 264.661 0.525985 258.687 2.94013L259.304 4.46629ZM278.165 0.969686C285.022 0.969686 291.305 2.13861 297.024 4.46555L297.644 2.94087C291.709 0.525738 285.212 -0.676376 278.165 -0.676376V0.969686ZM297.028 4.46738C302.756 6.7586 307.705 9.99348 311.882 14.1712L313.046 13.0073C308.704 8.66532 303.566 5.30953 297.64 2.93905L297.028 4.46738ZM311.888 14.1767C316.107 18.317 319.381 23.187 321.711 28.7943L323.231 28.1627C320.819 22.3569 317.422 17.3008 313.041 13.0018L311.888 14.1767ZM321.711 28.7943C324.037 34.3919 325.205 40.5124 325.205 47.1655H326.851C326.851 40.3158 325.647 33.9783 323.231 28.1627L321.711 28.7943ZM325.205 47.1655C325.205 53.8187 324.037 59.9392 321.711 65.5367L323.231 66.1683C325.647 60.3527 326.851 54.0152 326.851 47.1655H325.205ZM321.711 65.5367C319.381 71.1447 316.106 76.036 311.885 80.2174L313.044 81.3868C317.423 77.0486 320.819 71.9734 323.231 66.1683L321.711 65.5367ZM311.885 80.2174C307.706 84.3569 302.755 87.5936 297.024 89.9258L297.644 91.4505C303.567 89.0406 308.703 85.6866 313.044 81.3868L311.885 80.2174ZM297.028 89.924C291.308 92.2119 285.024 93.3614 278.165 93.3614V95.0074C285.211 95.0074 291.705 93.826 297.64 91.4523L297.028 89.924ZM278.165 74.2106C281.613 74.2106 284.826 73.5244 287.795 72.1447L287.101 70.652C284.363 71.9246 281.388 72.5646 278.165 72.5646V74.2106ZM287.795 72.1447C290.752 70.7703 293.315 68.8527 295.48 66.3967L294.245 65.3083C292.23 67.5944 289.851 69.374 287.101 70.652L287.795 72.1447ZM295.479 66.3974C297.68 63.9056 299.379 61.0229 300.578 57.7571L299.033 57.1899C297.901 60.2736 296.304 62.9769 294.246 65.3076L295.479 66.3974ZM300.575 57.7657C301.819 54.4896 302.437 50.9537 302.437 47.1655H300.791C300.791 50.7718 300.203 54.1078 299.036 57.1813L300.575 57.7657ZM302.437 47.1655C302.437 43.3774 301.819 39.8414 300.575 36.5654L299.036 37.1497C300.203 40.2232 300.791 43.5593 300.791 47.1655H302.437ZM300.578 36.5739C299.379 33.307 297.679 30.4423 295.475 27.9888L294.25 29.0888C296.306 31.3774 297.901 34.0585 299.033 37.1412L300.578 36.5739ZM295.484 27.9998C293.32 25.5021 290.755 23.5622 287.795 22.1864L287.101 23.6791C289.848 24.9556 292.226 26.7531 294.241 29.0778L295.484 27.9998ZM287.795 22.1864C284.826 20.8067 281.613 20.1204 278.165 20.1204V21.7665C281.388 21.7665 284.363 22.4064 287.101 23.6791L287.795 22.1864ZM278.165 20.1204C274.717 20.1204 271.485 20.8067 268.478 22.1845L269.164 23.6809C271.945 22.4064 274.942 21.7665 278.165 21.7665V20.1204ZM268.474 22.1864C265.516 23.5615 262.933 25.4996 260.73 27.9939L261.963 29.0837C264.02 26.7556 266.42 24.9563 269.168 23.6791L268.474 22.1864ZM260.734 27.9888C258.532 30.4402 256.813 33.302 255.574 36.5654L257.113 37.1497C258.285 34.0636 259.901 31.3795 261.959 29.0888L260.734 27.9888ZM255.571 36.5739C254.369 39.8476 253.772 43.3806 253.772 47.1655H255.418C255.418 43.5561 255.987 40.217 257.116 37.1412L255.571 36.5739ZM253.772 47.1655C253.772 50.9505 254.369 54.4834 255.571 57.7571L257.116 57.1899C255.987 54.114 255.418 50.775 255.418 47.1655H253.772ZM255.574 57.7657C256.813 61.028 258.53 63.9078 260.73 66.3974L261.963 65.3076C259.903 62.9748 258.285 60.2686 257.113 57.1813L255.574 57.7657ZM260.734 66.4025C262.937 68.8552 265.519 70.771 268.474 72.1447L269.168 70.652C266.417 69.3733 264.015 67.5919 261.959 65.3025L260.734 66.4025ZM268.478 72.1465C271.485 73.5244 274.717 74.2106 278.165 74.2106V72.5646C274.942 72.5646 271.945 71.9246 269.164 70.6501L268.478 72.1465Z" fill="black" fill-opacity="0.15" mask="url(#path-1-outside-1_158_580)"/>
</svg>
