<svg width="359" height="106" viewBox="0 0 359 106" fill="none" xmlns="http://www.w3.org/2000/svg">
<mask id="path-1-outside-1_1715_2233" maskUnits="userSpaceOnUse" x="0" y="0" width="359" height="106" fill="black">
<rect fill="white" width="359" height="106"/>
<path d="M117.155 102H92.9124L76.1846 46.1319L59.3915 102H35.1493L3.26199 3.98573H30.4446L47.2377 60.3113L64.0308 3.98573H88.273L105.001 60.1806L121.729 3.98573H148.911L117.155 102ZM182.04 102H156.164V3.98573H182.04V42.538H216.214V3.98573H242.09V102H216.214V65.0813H182.04V102ZM304.623 103.96C297.131 103.96 290.204 102.697 283.844 100.17C277.528 97.6002 272.017 94.0282 267.312 89.4542C262.651 84.8366 259.036 79.4349 256.465 73.2491C253.895 67.0634 252.61 60.3113 252.61 52.9929C252.61 45.6745 253.895 38.9224 256.465 32.7366C259.036 26.5508 262.651 21.1709 267.312 16.5969C272.017 11.9793 277.528 8.40727 283.844 5.88068C290.204 3.31053 297.131 2.02545 304.623 2.02545C312.159 2.02545 319.086 3.31053 325.402 5.88068C331.719 8.40727 337.186 11.9793 341.803 16.5969C346.464 21.1709 350.08 26.5508 352.65 32.7366C355.22 38.9224 356.505 45.6745 356.505 52.9929C356.505 60.3113 355.22 67.0634 352.65 73.2491C350.08 79.4349 346.464 84.8366 341.803 89.4542C337.186 94.0282 331.719 97.6002 325.402 100.17C319.086 102.697 312.159 103.96 304.623 103.96ZM304.623 81.417C308.239 81.417 311.593 80.6982 314.686 79.2607C317.779 77.8231 320.458 75.8193 322.723 73.2491C325.032 70.6354 326.818 67.6079 328.081 64.1665C329.388 60.7251 330.042 57.0006 330.042 52.9929C330.042 48.9852 329.388 45.2606 328.081 41.8192C326.818 38.3779 325.032 35.3721 322.723 32.8019C320.458 30.1882 317.779 28.1626 314.686 26.725C311.593 25.2875 308.239 24.5687 304.623 24.5687C301.008 24.5687 297.631 25.2875 294.495 26.725C291.402 28.1626 288.701 30.1882 286.393 32.8019C284.084 35.3721 282.276 38.3779 280.969 41.8192C279.706 45.2606 279.074 48.9852 279.074 52.9929C279.074 57.0006 279.706 60.7251 280.969 64.1665C282.276 67.6079 284.084 70.6354 286.393 73.2491C288.701 75.8193 291.402 77.8231 294.495 79.2607C297.631 80.6982 301.008 81.417 304.623 81.417Z"/>
</mask>
<path d="M117.155 102V104H118.609L119.057 102.616L117.155 102ZM92.9124 102L90.9964 102.574L91.4235 104H92.9124V102ZM76.1846 46.1319L78.1006 45.5582L76.1883 39.1717L74.2693 45.5561L76.1846 46.1319ZM59.3915 102V104H60.8787L61.3068 102.576L59.3915 102ZM35.1493 102L33.2474 102.619L33.6968 104H35.1493V102ZM3.26199 3.98573V1.98573H0.508148L1.36011 4.60448L3.26199 3.98573ZM30.4446 3.98573L32.3612 3.4143L31.9353 1.98573H30.4446V3.98573ZM47.2377 60.3113L45.3211 60.8827L47.2377 67.3112L49.1544 60.8827L47.2377 60.3113ZM64.0308 3.98573V1.98573H62.5401L62.1142 3.4143L64.0308 3.98573ZM88.273 3.98573L90.1899 3.41513L89.7644 1.98573H88.273V3.98573ZM105.001 60.1806L103.084 60.7512L105.001 67.1907L106.918 60.7512L105.001 60.1806ZM121.729 3.98573V1.98573H120.237L119.812 3.41513L121.729 3.98573ZM148.911 3.98573L150.814 4.60219L151.662 1.98573H148.911V3.98573ZM117.155 100H92.9124V104H117.155V100ZM94.8283 101.426L78.1006 45.5582L74.2686 46.7055L90.9964 102.574L94.8283 101.426ZM74.2693 45.5561L57.4762 101.424L61.3068 102.576L78.1 46.7076L74.2693 45.5561ZM59.3915 100H35.1493V104H59.3915V100ZM37.0512 101.381L5.16388 3.36699L1.36011 4.60448L33.2474 102.619L37.0512 101.381ZM3.26199 5.98573H30.4446V1.98573H3.26199V5.98573ZM28.528 4.55717L45.3211 60.8827L49.1544 59.7398L32.3612 3.4143L28.528 4.55717ZM49.1544 60.8827L65.9475 4.55717L62.1142 3.4143L45.3211 59.7398L49.1544 60.8827ZM64.0308 5.98573H88.273V1.98573H64.0308V5.98573ZM86.3562 4.55634L103.084 60.7512L106.918 59.61L90.1899 3.41513L86.3562 4.55634ZM106.918 60.7512L123.645 4.55634L119.812 3.41513L103.084 59.61L106.918 60.7512ZM121.729 5.98573H148.911V1.98573H121.729V5.98573ZM147.009 3.36928L115.252 101.384L119.057 102.616L150.814 4.60219L147.009 3.36928ZM182.04 102V104H184.04V102H182.04ZM156.164 102H154.164V104H156.164V102ZM156.164 3.98573V1.98573H154.164V3.98573H156.164ZM182.04 3.98573H184.04V1.98573H182.04V3.98573ZM182.04 42.538H180.04V44.538H182.04V42.538ZM216.214 42.538V44.538H218.214V42.538H216.214ZM216.214 3.98573V1.98573H214.214V3.98573H216.214ZM242.09 3.98573H244.09V1.98573H242.09V3.98573ZM242.09 102V104H244.09V102H242.09ZM216.214 102H214.214V104H216.214V102ZM216.214 65.0813H218.214V63.0813H216.214V65.0813ZM182.04 65.0813V63.0813H180.04V65.0813H182.04ZM182.04 100H156.164V104H182.04V100ZM158.164 102V3.98573H154.164V102H158.164ZM156.164 5.98573H182.04V1.98573H156.164V5.98573ZM180.04 3.98573V42.538H184.04V3.98573H180.04ZM182.04 44.538H216.214V40.538H182.04V44.538ZM218.214 42.538V3.98573H214.214V42.538H218.214ZM216.214 5.98573H242.09V1.98573H216.214V5.98573ZM240.09 3.98573V102H244.09V3.98573H240.09ZM242.09 100H216.214V104H242.09V100ZM218.214 102V65.0813H214.214V102H218.214ZM216.214 63.0813H182.04V67.0813H216.214V63.0813ZM180.04 65.0813V102H184.04V65.0813H180.04ZM283.844 100.17L283.09 102.023L283.098 102.026L283.106 102.029L283.844 100.17ZM267.312 89.4542L265.905 90.875L265.912 90.8816L265.918 90.8882L267.312 89.4542ZM267.312 16.5969L268.713 18.0244L268.713 18.0243L267.312 16.5969ZM283.844 5.88068L284.587 7.73764L284.593 7.73499L283.844 5.88068ZM325.402 5.88068L324.648 7.73322L324.659 7.73763L325.402 5.88068ZM341.803 16.5969L340.389 18.0111L340.396 18.0178L340.402 18.0244L341.803 16.5969ZM352.65 32.7366L350.803 33.504L352.65 32.7366ZM352.65 73.2491L350.803 72.4818L352.65 73.2491ZM341.803 89.4542L343.211 90.8751L343.211 90.875L341.803 89.4542ZM325.402 100.17L326.145 102.027L326.156 102.023L325.402 100.17ZM314.686 79.2607L315.529 81.0744L314.686 79.2607ZM322.723 73.2491L321.224 71.9251L321.223 71.9267L322.723 73.2491ZM328.081 64.1665L326.212 63.4565L326.208 63.4669L326.204 63.4773L328.081 64.1665ZM328.081 41.8192L326.204 42.5084L326.208 42.5189L326.212 42.5293L328.081 41.8192ZM322.723 32.8019L321.212 34.1118L321.223 34.1252L321.235 34.1385L322.723 32.8019ZM314.686 26.725L315.529 24.9114L314.686 26.725ZM294.495 26.725L293.662 24.9069L293.652 24.9114L294.495 26.725ZM286.393 32.8019L287.88 34.1385L287.886 34.1323L287.891 34.126L286.393 32.8019ZM280.969 41.8192L279.099 41.1092L279.095 41.1196L279.092 41.13L280.969 41.8192ZM280.969 64.1665L279.092 64.8557L279.095 64.8661L279.099 64.8765L280.969 64.1665ZM286.393 73.2491L284.894 74.5732L284.899 74.5795L284.905 74.5857L286.393 73.2491ZM294.495 79.2607L293.652 81.0744L293.662 81.0788L294.495 79.2607ZM304.623 101.96C297.359 101.96 290.686 100.736 284.583 98.3117L283.106 102.029C289.722 104.658 296.902 105.96 304.623 105.96V101.96ZM284.598 98.3179C278.51 95.8409 273.219 92.4077 268.707 88.0202L265.918 90.8882C270.815 95.6486 276.545 99.3596 283.09 102.023L284.598 98.3179ZM268.72 88.0333C264.251 83.6063 260.783 78.428 258.312 72.4818L254.619 74.0165C257.288 80.4419 261.051 86.0669 265.905 90.875L268.72 88.0333ZM258.312 72.4818C255.852 66.5609 254.61 60.0724 254.61 52.9929H250.61C250.61 60.5501 251.938 67.5659 254.619 74.0165L258.312 72.4818ZM254.61 52.9929C254.61 45.9133 255.852 39.4249 258.312 33.504L254.619 31.9692C251.938 38.4199 250.61 45.4356 250.61 52.9929H254.61ZM258.312 33.504C260.782 27.5594 264.249 22.4056 268.713 18.0244L265.912 15.1694C261.054 19.9362 257.289 25.5422 254.619 31.9692L258.312 33.504ZM268.713 18.0243C273.223 13.598 278.508 10.1692 284.587 7.73763L283.101 4.02372C276.547 6.64536 270.811 10.3607 265.911 15.1695L268.713 18.0243ZM284.593 7.73499C290.694 5.2696 297.364 4.02545 304.623 4.02545V0.0254494C296.898 0.0254494 289.714 1.35145 283.095 4.02636L284.593 7.73499ZM304.623 4.02545C311.928 4.02545 318.595 5.2702 324.648 7.73319L326.156 4.02816C319.576 1.35085 312.391 0.0254494 304.623 0.0254494V4.02545ZM324.659 7.73763C330.735 10.1679 335.971 13.5931 340.389 18.0111L343.217 15.1827C338.4 10.3656 332.702 6.64662 326.145 4.02372L324.659 7.73763ZM340.402 18.0244C344.867 22.4056 348.333 27.5594 350.803 33.504L354.497 31.9692C351.827 25.5422 348.062 19.9362 343.204 15.1694L340.402 18.0244ZM350.803 33.504C353.263 39.4249 354.505 45.9133 354.505 52.9929H358.505C358.505 45.4356 357.177 38.4199 354.497 31.9692L350.803 33.504ZM354.505 52.9929C354.505 60.0724 353.263 66.5609 350.803 72.4818L354.497 74.0165C357.177 67.5659 358.505 60.5501 358.505 52.9929H354.505ZM350.803 72.4818C348.333 78.428 344.865 83.6063 340.396 88.0333L343.211 90.875C348.064 86.0669 351.827 80.4419 354.497 74.0165L350.803 72.4818ZM340.396 88.0333C335.975 92.4126 330.733 95.8421 324.648 98.3179L326.156 102.023C332.704 99.3584 338.397 95.6437 343.211 90.8751L340.396 88.0333ZM324.659 98.3134C318.603 100.736 311.932 101.96 304.623 101.96V105.96C312.386 105.96 319.568 104.658 326.145 102.027L324.659 98.3134ZM304.623 83.417C308.512 83.417 312.156 82.642 315.529 81.0744L313.843 77.447C311.03 78.7545 307.965 79.417 304.623 79.417V83.417ZM315.529 81.0744C318.874 79.5197 321.776 77.3482 324.224 74.5716L321.223 71.9267C319.139 74.2904 316.684 76.1266 313.843 77.447L315.529 81.0744ZM324.222 74.5732C326.704 71.7638 328.614 68.5183 329.959 64.8557L326.204 63.4773C325.022 66.6975 323.36 69.5071 321.224 71.9251L324.222 74.5732ZM329.951 64.8765C331.351 61.189 332.042 57.2216 332.042 52.9929H328.042C328.042 56.7795 327.425 60.2612 326.212 63.4565L329.951 64.8765ZM332.042 52.9929C332.042 48.7641 331.351 44.7968 329.951 41.1092L326.212 42.5293C327.425 45.7245 328.042 49.2062 328.042 52.9929H332.042ZM329.959 41.13C328.613 37.4648 326.7 34.236 324.211 31.4654L321.235 34.1385C323.364 36.5082 325.023 39.2909 326.204 42.5084L329.959 41.13ZM324.235 31.4921C321.787 28.6683 318.881 26.4695 315.529 24.9114L313.843 28.5387C316.676 29.8556 319.129 31.7082 321.212 34.1118L324.235 31.4921ZM315.529 24.9114C312.156 23.3438 308.512 22.5687 304.623 22.5687V26.5687C307.965 26.5687 311.03 27.2312 313.843 28.5387L315.529 24.9114ZM304.623 22.5687C300.734 22.5687 297.072 23.3438 293.662 24.9069L295.328 28.5432C298.191 27.2312 301.281 26.5687 304.623 26.5687V22.5687ZM293.652 24.9114C290.303 26.4678 287.381 28.6622 284.894 31.4779L287.891 34.126C290.022 31.7142 292.501 29.8574 295.338 28.5387L293.652 24.9114ZM284.905 31.4654C282.42 34.2308 280.488 37.4525 279.099 41.1092L282.839 42.5293C284.064 39.3032 285.747 36.5134 287.88 34.1385L284.905 31.4654ZM279.092 41.13C277.74 44.8118 277.074 48.7719 277.074 52.9929H281.074C281.074 49.1984 281.672 45.7094 282.847 42.5084L279.092 41.13ZM277.074 52.9929C277.074 57.2138 277.74 61.1739 279.092 64.8557L282.847 63.4773C281.672 60.2763 281.074 56.7873 281.074 52.9929H277.074ZM279.099 64.8765C280.487 68.5306 282.416 71.769 284.894 74.5732L287.891 71.9251C285.751 69.5019 284.065 66.6852 282.839 63.4565L279.099 64.8765ZM284.905 74.5857C287.392 77.3541 290.311 79.5214 293.652 81.0744L295.338 77.447C292.493 76.1248 290.011 74.2845 287.88 71.9126L284.905 74.5857ZM293.662 81.0788C297.072 82.6419 300.734 83.417 304.623 83.417V79.417C301.281 79.417 298.191 78.7545 295.328 77.4426L293.662 81.0788Z" fill="#252735" fill-opacity="0.4" mask="url(#path-1-outside-1_1715_2233)"/>
</svg>
