<svg width="327" height="96" viewBox="0 0 327 96" fill="none" xmlns="http://www.w3.org/2000/svg">
<g clip-path="url(#clip0_1158_11647)">
<mask id="mask0_1158_11647" style="mask-type:luminance" maskUnits="userSpaceOnUse" x="-2" y="-1" width="330" height="98">
<path d="M327.547 -0.624023H-1.45312V96.376H327.547V-0.624023Z" fill="white"/>
<path d="M105.22 93.376H82.8553L67.4235 41.8361L51.9314 93.376H29.5673L0.150391 2.95505H25.2271L40.7192 54.917L56.2113 2.95505H78.5754L94.0073 54.7964L109.439 2.95505H134.516L105.22 93.376ZM165.078 93.376H141.207V2.95505H165.078V38.5206H196.605V2.95505H220.476V93.376H196.605V59.3174H165.078V93.376ZM278.165 95.1844C271.253 95.1844 264.863 94.019 258.996 91.6881C253.168 89.3171 248.085 86.0217 243.745 81.8021C239.445 77.5423 236.109 72.5591 233.738 66.8525C231.367 61.1459 230.181 54.917 230.181 48.1655C230.181 41.4141 231.367 35.1851 233.738 29.4785C236.109 23.772 239.445 18.8089 243.745 14.5892C248.085 10.3294 253.168 7.03404 258.996 4.70319C264.863 2.33215 271.253 1.14664 278.165 1.14664C285.117 1.14664 291.507 2.33215 297.334 4.70319C303.161 7.03404 308.205 10.3294 312.464 14.5892C316.764 18.8089 320.1 23.772 322.471 29.4785C324.842 35.1851 326.028 41.4141 326.028 48.1655C326.028 54.917 324.842 61.1459 322.471 66.8525C320.1 72.5591 316.764 77.5423 312.464 81.8021C308.205 86.0217 303.161 89.3171 297.334 91.6881C291.507 94.019 285.117 95.1844 278.165 95.1844ZM278.165 74.3876C281.5 74.3876 284.595 73.7245 287.448 72.3983C290.301 71.0722 292.773 69.2235 294.863 66.8525C296.992 64.4413 298.64 61.6483 299.806 58.4735C301.011 55.2987 301.614 51.8627 301.614 48.1655C301.614 44.4683 301.011 41.0323 299.806 37.8575C298.64 34.6828 296.992 31.9099 294.863 29.5388C292.773 27.1276 290.301 25.2589 287.448 23.9327C284.595 22.6065 281.5 21.9435 278.165 21.9435C274.829 21.9435 271.715 22.6065 268.821 23.9327C265.968 25.2589 263.476 27.1276 261.347 29.5388C259.217 31.9099 257.549 34.6828 256.343 37.8575C255.178 41.0323 254.595 44.4683 254.595 48.1655C254.595 51.8627 255.178 55.2987 256.343 58.4735C257.549 61.6483 259.217 64.4413 261.347 66.8525C263.476 69.2235 265.968 71.0722 268.821 72.3983C271.715 73.7245 274.829 74.3876 278.165 74.3876Z" fill="black"/>
</mask>
<g mask="url(#mask0_1158_11647)">
<mask id="path-3-inside-1_1158_11647" fill="white">
<path d="M105.218 93.3756V94.1986H105.816L106.001 93.6293L105.218 93.3756ZM82.8538 93.3756L82.0654 93.6116L82.2411 94.1986H82.8538V93.3756ZM67.422 41.8357L68.2105 41.5996L67.4235 38.9714L66.6338 41.5987L67.422 41.8357ZM51.9299 93.3756V94.1986H52.5419L52.7181 93.6125L51.9299 93.3756ZM29.5658 93.3756L28.7831 93.6302L28.9681 94.1986H29.5658V93.3756ZM0.148876 2.95469V2.13166H-0.984375L-0.633778 3.20932L0.148876 2.95469ZM25.2256 2.95469L26.0143 2.71954L25.839 2.13166H25.2256V2.95469ZM40.7177 54.9166L39.929 55.1517L40.7177 57.7971L41.5064 55.1517L40.7177 54.9166ZM56.2098 2.95469V2.13166H55.5964L55.4211 2.71954L56.2098 2.95469ZM78.5739 2.95469L79.3627 2.71988L79.1876 2.13166H78.5739V2.95469ZM94.0058 54.796L93.2169 55.0308L94.0058 57.6808L94.7946 55.0308L94.0058 54.796ZM109.437 2.95469V2.13166H108.824L108.649 2.71988L109.437 2.95469ZM134.514 2.95469L135.297 3.20837L135.646 2.13166H134.514V2.95469ZM105.218 92.5525H82.8538V94.1986H105.218V92.5525ZM83.6423 93.1395L68.2105 41.5996L66.6336 42.0717L82.0654 93.6116L83.6423 93.1395ZM66.6338 41.5987L51.1417 93.1387L52.7181 93.6125L68.2102 42.0726L66.6338 41.5987ZM51.9299 92.5525H29.5658V94.1986H51.9299V92.5525ZM30.3484 93.121L0.93153 2.70007L-0.633778 3.20932L28.7831 93.6302L30.3484 93.121ZM0.148876 3.77772H25.2256V2.13166H0.148876V3.77772ZM24.4369 3.18985L39.929 55.1517L41.5064 54.6814L26.0143 2.71954L24.4369 3.18985ZM41.5064 55.1517L56.9985 3.18985L55.4211 2.71954L39.929 54.6814L41.5064 55.1517ZM56.2098 3.77772H78.5739V2.13166H56.2098V3.77772ZM77.7851 3.18951L93.2169 55.0308L94.7946 54.5612L79.3627 2.71988L77.7851 3.18951ZM94.7946 55.0308L110.226 3.18951L108.649 2.71988L93.2169 54.5612L94.7946 55.0308ZM109.437 3.77772H134.514V2.13166H109.437V3.77772ZM133.731 2.70101L104.435 93.1219L106.001 93.6293L135.297 3.20837L133.731 2.70101ZM165.076 93.3756V94.1986H165.899V93.3756H165.076ZM141.205 93.3756H140.382V94.1986H141.205V93.3756ZM141.205 2.95469V2.13166H140.382V2.95469H141.205ZM165.076 2.95469H165.899V2.13166H165.076V2.95469ZM165.076 38.5202H164.253V39.3433H165.076V38.5202ZM196.603 38.5202V39.3433H197.426V38.5202H196.603ZM196.603 2.95469V2.13166H195.78V2.95469H196.603ZM220.474 2.95469H221.297V2.13166H220.474V2.95469ZM220.474 93.3756V94.1986H221.297V93.3756H220.474ZM196.603 93.3756H195.78V94.1986H196.603V93.3756ZM196.603 59.317H197.426V58.494H196.603V59.317ZM165.076 59.317V58.494H164.253V59.317H165.076ZM165.076 92.5525H141.205V94.1986H165.076V92.5525ZM142.028 93.3756V2.95469H140.382V93.3756H142.028ZM141.205 3.77772H165.076V2.13166H141.205V3.77772ZM164.253 2.95469V38.5202H165.899V2.95469H164.253ZM165.076 39.3433H196.603V37.6972H165.076V39.3433ZM197.426 38.5202V2.95469H195.78V38.5202H197.426ZM196.603 3.77772H220.474V2.13166H196.603V3.77772ZM219.651 2.95469V93.3756H221.297V2.95469H219.651ZM220.474 92.5525H196.603V94.1986H220.474V92.5525ZM197.426 93.3756V59.317H195.78V93.3756H197.426ZM196.603 58.494H165.076V60.1401H196.603V58.494ZM164.253 59.317V93.3756H165.899V59.317H164.253ZM258.994 91.6877L258.683 92.4501L258.69 92.4526L258.994 91.6877ZM243.743 81.8017L243.163 82.3864L243.169 82.3918L243.743 81.8017ZM258.994 4.70283L259.299 5.467L259.302 5.46591L258.994 4.70283ZM297.332 4.70283L297.022 5.46518L297.026 5.467L297.332 4.70283ZM312.462 14.5888L311.88 15.1708L311.886 15.1763L312.462 14.5888ZM297.332 91.6877L297.638 92.4519L297.642 92.4501L297.332 91.6877ZM294.861 66.8521L294.244 66.3072L294.243 66.3079L294.861 66.8521ZM299.804 58.4731L299.034 58.1809L299.031 58.1895L299.804 58.4731ZM299.804 37.8571L299.031 38.1408L299.034 38.1493L299.804 37.8571ZM294.861 29.5384L294.239 30.0774L294.243 30.083L294.248 30.0884L294.861 29.5384ZM268.819 23.9323L268.476 23.1841L268.472 23.186L268.819 23.9323ZM261.345 29.5384L261.957 30.0884L261.961 30.0833L261.345 29.5384ZM256.341 37.8571L255.572 37.5649L255.569 37.5735L256.341 37.8571ZM256.341 58.4731L255.569 58.7567L255.572 58.7653L256.341 58.4731ZM261.345 66.8521L260.728 67.397L260.732 67.4021L261.345 66.8521ZM268.819 72.3979L268.472 73.1443L268.476 73.1461L268.819 72.3979ZM278.163 94.361C271.345 94.361 265.059 93.2118 259.297 90.9228L258.69 92.4526C264.663 94.8254 271.156 96.007 278.163 96.007V94.361ZM259.304 90.9254C253.571 88.5927 248.578 85.3545 244.316 81.2116L243.169 82.3918C247.588 86.6882 252.762 90.0407 258.683 92.4501L259.304 90.9254ZM244.322 81.217C240.101 77.0356 236.826 72.1443 234.496 66.5363L232.976 67.1679C235.388 72.973 238.784 78.0482 243.163 82.3864L244.322 81.217ZM234.496 66.5363C232.17 60.9388 231.002 54.8183 231.002 48.1651H229.356C229.356 55.0148 230.56 61.3523 232.976 67.1679L234.496 66.5363ZM231.002 48.1651C231.002 41.512 232.17 35.3915 234.496 29.7939L232.976 29.1623C230.56 34.9779 229.356 41.3154 229.356 48.1651H231.002ZM234.496 29.7939C236.826 24.1866 240.1 19.3166 244.319 15.1763L243.166 14.0014C238.785 18.3004 235.388 23.3565 232.976 29.1623L234.496 29.7939ZM244.319 15.1763C248.579 10.9952 253.57 7.75873 259.299 5.467L258.688 3.93867C252.763 6.30863 247.586 9.66292 243.166 14.0014L244.319 15.1763ZM259.302 5.46591C265.063 3.13798 271.347 1.9693 278.163 1.9693V0.323242C271.155 0.323242 264.659 1.5256 258.685 3.93975L259.302 5.46591ZM278.163 1.9693C285.02 1.9693 291.303 3.13824 297.022 5.46518L297.642 3.94049C291.707 1.52536 285.21 0.323242 278.163 0.323242V1.9693ZM297.026 5.467C302.754 7.75822 307.703 10.9931 311.88 15.1708L313.044 14.0069C308.702 9.66494 303.564 6.30915 297.638 3.93867L297.026 5.467ZM311.886 15.1763C316.105 19.3166 319.379 24.1866 321.709 29.7939L323.229 29.1623C320.817 23.3565 317.42 18.3004 313.039 14.0014L311.886 15.1763ZM321.709 29.7939C324.035 35.3915 325.203 41.512 325.203 48.1651H326.849C326.849 41.3154 325.645 34.9779 323.229 29.1623L321.709 29.7939ZM325.203 48.1651C325.203 54.8183 324.035 60.9388 321.709 66.5363L323.229 67.1679C325.645 61.3523 326.849 55.0148 326.849 48.1651H325.203ZM321.709 66.5363C319.379 72.1443 316.104 77.0356 311.883 81.217L313.042 82.3864C317.421 78.0482 320.817 72.973 323.229 67.1679L321.709 66.5363ZM311.883 81.217C307.704 85.3565 302.753 88.5932 297.022 90.9254L297.642 92.4501C303.565 90.0402 308.701 86.6862 313.042 82.3864L311.883 81.217ZM297.026 90.9236C291.306 93.2115 285.022 94.361 278.163 94.361V96.007C285.209 96.007 291.703 94.8256 297.638 92.4519L297.026 90.9236ZM278.163 75.2102C281.611 75.2102 284.824 74.524 287.793 73.1443L287.099 71.6516C284.361 72.9242 281.386 73.5642 278.163 73.5642V75.2102ZM287.793 73.1443C290.75 71.7699 293.313 69.8523 295.478 67.3963L294.243 66.3079C292.228 68.594 289.849 70.3736 287.099 71.6516L287.793 73.1443ZM295.477 67.397C297.678 64.9052 299.377 62.0225 300.576 58.7567L299.031 58.1895C297.899 61.2732 296.302 63.9765 294.244 66.3072L295.477 67.397ZM300.573 58.7653C301.817 55.4892 302.435 51.9533 302.435 48.1651H300.789C300.789 51.7714 300.201 55.1074 299.034 58.1809L300.573 58.7653ZM302.435 48.1651C302.435 44.377 301.817 40.841 300.573 37.565L299.034 38.1493C300.201 41.2228 300.789 44.5589 300.789 48.1651H302.435ZM300.576 37.5735C299.377 34.3066 297.677 31.4419 295.473 28.9884L294.248 30.0884C296.304 32.377 297.899 35.0581 299.031 38.1408L300.576 37.5735ZM295.482 28.9994C293.318 26.5017 290.753 24.5618 287.793 23.186L287.099 24.6787C289.846 25.9552 292.224 27.7527 294.239 30.0774L295.482 28.9994ZM287.793 23.186C284.824 21.8063 281.611 21.12 278.163 21.12V22.7661C281.386 22.7661 284.361 23.406 287.099 24.6787L287.793 23.186ZM278.163 21.12C274.715 21.12 271.483 21.8063 268.476 23.1841L269.162 24.6805C271.943 23.406 274.94 22.7661 278.163 22.7661V21.12ZM268.472 23.186C265.514 24.5611 262.931 26.4992 260.728 28.9935L261.961 30.0833C264.018 27.7552 266.418 25.9559 269.166 24.6787L268.472 23.186ZM260.732 28.9884C258.53 31.4398 256.811 34.3015 255.572 37.5649L257.111 38.1493C258.283 35.0632 259.899 32.3791 261.957 30.0884L260.732 28.9884ZM255.569 37.5735C254.367 40.8472 253.77 44.3802 253.77 48.1651H255.416C255.416 44.5557 255.985 41.2166 257.114 38.1408L255.569 37.5735ZM253.77 48.1651C253.77 51.9501 254.367 55.483 255.569 58.7567L257.114 58.1895C255.985 55.1136 255.416 51.7746 255.416 48.1651H253.77ZM255.572 58.7653C256.811 62.0276 258.528 64.9074 260.728 67.397L261.961 66.3072C259.901 63.9744 258.283 61.2682 257.111 58.1809L255.572 58.7653ZM260.732 67.4021C262.935 69.8548 265.517 71.7706 268.472 73.1443L269.166 71.6516C266.415 70.3729 264.013 68.5915 261.957 66.3021L260.732 67.4021ZM268.476 73.1461C271.483 74.524 274.715 75.2102 278.163 75.2102V73.5642C274.94 73.5642 271.943 72.9242 269.162 71.6497L268.476 73.1461Z"/>
</mask>
<path d="M105.218 93.3756V94.1986H105.816L106.001 93.6293L105.218 93.3756ZM82.8538 93.3756L82.0654 93.6116L82.2411 94.1986H82.8538V93.3756ZM67.422 41.8357L68.2105 41.5996L67.4235 38.9714L66.6338 41.5987L67.422 41.8357ZM51.9299 93.3756V94.1986H52.5419L52.7181 93.6125L51.9299 93.3756ZM29.5658 93.3756L28.7831 93.6302L28.9681 94.1986H29.5658V93.3756ZM0.148876 2.95469V2.13166H-0.984375L-0.633778 3.20932L0.148876 2.95469ZM25.2256 2.95469L26.0143 2.71954L25.839 2.13166H25.2256V2.95469ZM40.7177 54.9166L39.929 55.1517L40.7177 57.7971L41.5064 55.1517L40.7177 54.9166ZM56.2098 2.95469V2.13166H55.5964L55.4211 2.71954L56.2098 2.95469ZM78.5739 2.95469L79.3627 2.71988L79.1876 2.13166H78.5739V2.95469ZM94.0058 54.796L93.2169 55.0308L94.0058 57.6808L94.7946 55.0308L94.0058 54.796ZM109.437 2.95469V2.13166H108.824L108.649 2.71988L109.437 2.95469ZM134.514 2.95469L135.297 3.20837L135.646 2.13166H134.514V2.95469ZM105.218 92.5525H82.8538V94.1986H105.218V92.5525ZM83.6423 93.1395L68.2105 41.5996L66.6336 42.0717L82.0654 93.6116L83.6423 93.1395ZM66.6338 41.5987L51.1417 93.1387L52.7181 93.6125L68.2102 42.0726L66.6338 41.5987ZM51.9299 92.5525H29.5658V94.1986H51.9299V92.5525ZM30.3484 93.121L0.93153 2.70007L-0.633778 3.20932L28.7831 93.6302L30.3484 93.121ZM0.148876 3.77772H25.2256V2.13166H0.148876V3.77772ZM24.4369 3.18985L39.929 55.1517L41.5064 54.6814L26.0143 2.71954L24.4369 3.18985ZM41.5064 55.1517L56.9985 3.18985L55.4211 2.71954L39.929 54.6814L41.5064 55.1517ZM56.2098 3.77772H78.5739V2.13166H56.2098V3.77772ZM77.7851 3.18951L93.2169 55.0308L94.7946 54.5612L79.3627 2.71988L77.7851 3.18951ZM94.7946 55.0308L110.226 3.18951L108.649 2.71988L93.2169 54.5612L94.7946 55.0308ZM109.437 3.77772H134.514V2.13166H109.437V3.77772ZM133.731 2.70101L104.435 93.1219L106.001 93.6293L135.297 3.20837L133.731 2.70101ZM165.076 93.3756V94.1986H165.899V93.3756H165.076ZM141.205 93.3756H140.382V94.1986H141.205V93.3756ZM141.205 2.95469V2.13166H140.382V2.95469H141.205ZM165.076 2.95469H165.899V2.13166H165.076V2.95469ZM165.076 38.5202H164.253V39.3433H165.076V38.5202ZM196.603 38.5202V39.3433H197.426V38.5202H196.603ZM196.603 2.95469V2.13166H195.78V2.95469H196.603ZM220.474 2.95469H221.297V2.13166H220.474V2.95469ZM220.474 93.3756V94.1986H221.297V93.3756H220.474ZM196.603 93.3756H195.78V94.1986H196.603V93.3756ZM196.603 59.317H197.426V58.494H196.603V59.317ZM165.076 59.317V58.494H164.253V59.317H165.076ZM165.076 92.5525H141.205V94.1986H165.076V92.5525ZM142.028 93.3756V2.95469H140.382V93.3756H142.028ZM141.205 3.77772H165.076V2.13166H141.205V3.77772ZM164.253 2.95469V38.5202H165.899V2.95469H164.253ZM165.076 39.3433H196.603V37.6972H165.076V39.3433ZM197.426 38.5202V2.95469H195.78V38.5202H197.426ZM196.603 3.77772H220.474V2.13166H196.603V3.77772ZM219.651 2.95469V93.3756H221.297V2.95469H219.651ZM220.474 92.5525H196.603V94.1986H220.474V92.5525ZM197.426 93.3756V59.317H195.78V93.3756H197.426ZM196.603 58.494H165.076V60.1401H196.603V58.494ZM164.253 59.317V93.3756H165.899V59.317H164.253ZM258.994 91.6877L258.683 92.4501L258.69 92.4526L258.994 91.6877ZM243.743 81.8017L243.163 82.3864L243.169 82.3918L243.743 81.8017ZM258.994 4.70283L259.299 5.467L259.302 5.46591L258.994 4.70283ZM297.332 4.70283L297.022 5.46518L297.026 5.467L297.332 4.70283ZM312.462 14.5888L311.88 15.1708L311.886 15.1763L312.462 14.5888ZM297.332 91.6877L297.638 92.4519L297.642 92.4501L297.332 91.6877ZM294.861 66.8521L294.244 66.3072L294.243 66.3079L294.861 66.8521ZM299.804 58.4731L299.034 58.1809L299.031 58.1895L299.804 58.4731ZM299.804 37.8571L299.031 38.1408L299.034 38.1493L299.804 37.8571ZM294.861 29.5384L294.239 30.0774L294.243 30.083L294.248 30.0884L294.861 29.5384ZM268.819 23.9323L268.476 23.1841L268.472 23.186L268.819 23.9323ZM261.345 29.5384L261.957 30.0884L261.961 30.0833L261.345 29.5384ZM256.341 37.8571L255.572 37.5649L255.569 37.5735L256.341 37.8571ZM256.341 58.4731L255.569 58.7567L255.572 58.7653L256.341 58.4731ZM261.345 66.8521L260.728 67.397L260.732 67.4021L261.345 66.8521ZM268.819 72.3979L268.472 73.1443L268.476 73.1461L268.819 72.3979ZM278.163 94.361C271.345 94.361 265.059 93.2118 259.297 90.9228L258.69 92.4526C264.663 94.8254 271.156 96.007 278.163 96.007V94.361ZM259.304 90.9254C253.571 88.5927 248.578 85.3545 244.316 81.2116L243.169 82.3918C247.588 86.6882 252.762 90.0407 258.683 92.4501L259.304 90.9254ZM244.322 81.217C240.101 77.0356 236.826 72.1443 234.496 66.5363L232.976 67.1679C235.388 72.973 238.784 78.0482 243.163 82.3864L244.322 81.217ZM234.496 66.5363C232.17 60.9388 231.002 54.8183 231.002 48.1651H229.356C229.356 55.0148 230.56 61.3523 232.976 67.1679L234.496 66.5363ZM231.002 48.1651C231.002 41.512 232.17 35.3915 234.496 29.7939L232.976 29.1623C230.56 34.9779 229.356 41.3154 229.356 48.1651H231.002ZM234.496 29.7939C236.826 24.1866 240.1 19.3166 244.319 15.1763L243.166 14.0014C238.785 18.3004 235.388 23.3565 232.976 29.1623L234.496 29.7939ZM244.319 15.1763C248.579 10.9952 253.57 7.75873 259.299 5.467L258.688 3.93867C252.763 6.30863 247.586 9.66292 243.166 14.0014L244.319 15.1763ZM259.302 5.46591C265.063 3.13798 271.347 1.9693 278.163 1.9693V0.323242C271.155 0.323242 264.659 1.5256 258.685 3.93975L259.302 5.46591ZM278.163 1.9693C285.02 1.9693 291.303 3.13824 297.022 5.46518L297.642 3.94049C291.707 1.52536 285.21 0.323242 278.163 0.323242V1.9693ZM297.026 5.467C302.754 7.75822 307.703 10.9931 311.88 15.1708L313.044 14.0069C308.702 9.66494 303.564 6.30915 297.638 3.93867L297.026 5.467ZM311.886 15.1763C316.105 19.3166 319.379 24.1866 321.709 29.7939L323.229 29.1623C320.817 23.3565 317.42 18.3004 313.039 14.0014L311.886 15.1763ZM321.709 29.7939C324.035 35.3915 325.203 41.512 325.203 48.1651H326.849C326.849 41.3154 325.645 34.9779 323.229 29.1623L321.709 29.7939ZM325.203 48.1651C325.203 54.8183 324.035 60.9388 321.709 66.5363L323.229 67.1679C325.645 61.3523 326.849 55.0148 326.849 48.1651H325.203ZM321.709 66.5363C319.379 72.1443 316.104 77.0356 311.883 81.217L313.042 82.3864C317.421 78.0482 320.817 72.973 323.229 67.1679L321.709 66.5363ZM311.883 81.217C307.704 85.3565 302.753 88.5932 297.022 90.9254L297.642 92.4501C303.565 90.0402 308.701 86.6862 313.042 82.3864L311.883 81.217ZM297.026 90.9236C291.306 93.2115 285.022 94.361 278.163 94.361V96.007C285.209 96.007 291.703 94.8256 297.638 92.4519L297.026 90.9236ZM278.163 75.2102C281.611 75.2102 284.824 74.524 287.793 73.1443L287.099 71.6516C284.361 72.9242 281.386 73.5642 278.163 73.5642V75.2102ZM287.793 73.1443C290.75 71.7699 293.313 69.8523 295.478 67.3963L294.243 66.3079C292.228 68.594 289.849 70.3736 287.099 71.6516L287.793 73.1443ZM295.477 67.397C297.678 64.9052 299.377 62.0225 300.576 58.7567L299.031 58.1895C297.899 61.2732 296.302 63.9765 294.244 66.3072L295.477 67.397ZM300.573 58.7653C301.817 55.4892 302.435 51.9533 302.435 48.1651H300.789C300.789 51.7714 300.201 55.1074 299.034 58.1809L300.573 58.7653ZM302.435 48.1651C302.435 44.377 301.817 40.841 300.573 37.565L299.034 38.1493C300.201 41.2228 300.789 44.5589 300.789 48.1651H302.435ZM300.576 37.5735C299.377 34.3066 297.677 31.4419 295.473 28.9884L294.248 30.0884C296.304 32.377 297.899 35.0581 299.031 38.1408L300.576 37.5735ZM295.482 28.9994C293.318 26.5017 290.753 24.5618 287.793 23.186L287.099 24.6787C289.846 25.9552 292.224 27.7527 294.239 30.0774L295.482 28.9994ZM287.793 23.186C284.824 21.8063 281.611 21.12 278.163 21.12V22.7661C281.386 22.7661 284.361 23.406 287.099 24.6787L287.793 23.186ZM278.163 21.12C274.715 21.12 271.483 21.8063 268.476 23.1841L269.162 24.6805C271.943 23.406 274.94 22.7661 278.163 22.7661V21.12ZM268.472 23.186C265.514 24.5611 262.931 26.4992 260.728 28.9935L261.961 30.0833C264.018 27.7552 266.418 25.9559 269.166 24.6787L268.472 23.186ZM260.732 28.9884C258.53 31.4398 256.811 34.3015 255.572 37.5649L257.111 38.1493C258.283 35.0632 259.899 32.3791 261.957 30.0884L260.732 28.9884ZM255.569 37.5735C254.367 40.8472 253.77 44.3802 253.77 48.1651H255.416C255.416 44.5557 255.985 41.2166 257.114 38.1408L255.569 37.5735ZM253.77 48.1651C253.77 51.9501 254.367 55.483 255.569 58.7567L257.114 58.1895C255.985 55.1136 255.416 51.7746 255.416 48.1651H253.77ZM255.572 58.7653C256.811 62.0276 258.528 64.9074 260.728 67.397L261.961 66.3072C259.901 63.9744 258.283 61.2682 257.111 58.1809L255.572 58.7653ZM260.732 67.4021C262.935 69.8548 265.517 71.7706 268.472 73.1443L269.166 71.6516C266.415 70.3729 264.013 68.5915 261.957 66.3021L260.732 67.4021ZM268.476 73.1461C271.483 74.524 274.715 75.2102 278.163 75.2102V73.5642C274.94 73.5642 271.943 72.9242 269.162 71.6497L268.476 73.1461Z" fill="black" fill-opacity="0.15"/>
<path d="M244.319 15.1763L243.605 15.8767L245.033 14.4762L244.319 15.1763ZM313.042 82.3864L312.332 83.0907L313.752 81.6825L313.042 82.3864ZM287.793 73.1443L286.886 73.5659L288.7 72.7227L287.793 73.1443ZM287.793 23.186L288.7 23.6076L286.886 22.7644L287.793 23.186ZM243.029 15.2889L243.605 15.8764L245.033 14.4762L244.457 13.8887L243.029 15.2889ZM311.752 82.506L312.332 83.0907L313.752 81.6822L313.172 81.0975L311.752 82.506ZM286.539 72.8195L286.886 73.5659L288.7 72.7227L288.353 71.9763L286.539 72.8195ZM288.353 24.3539L288.7 23.6076L286.886 22.7644L286.539 23.5107L288.353 24.3539ZM279.163 96.007V94.361H277.163V96.007H279.163ZM234.112 65.6129L232.592 66.2445L233.36 68.0914L234.88 67.4598L234.112 65.6129ZM231.002 47.1651H229.356V49.1651H231.002V47.1651ZM234.88 28.8705L233.36 28.2389L232.592 30.0858L234.112 30.7174L234.88 28.8705ZM245.033 14.4759L243.88 13.301L242.452 14.7018L243.605 15.8767L245.033 14.4759ZM279.163 1.9693V0.323242H277.163V1.9693H279.163ZM322.093 30.7174L323.613 30.0858L322.845 28.2389L321.326 28.8705L322.093 30.7174ZM325.203 49.1651H326.849V47.1651H325.203V49.1651ZM321.326 67.4598L322.845 68.0914L323.613 66.2445L322.093 65.6129L321.326 67.4598ZM311.173 81.921L312.332 83.0904L313.752 81.6825L312.593 80.5131L311.173 81.921ZM288.7 72.7227L288.006 71.23L286.192 72.0732L286.886 73.5659L288.7 72.7227ZM277.163 73.5642V75.2102H279.163V73.5642H277.163ZM302.435 47.1651H300.789V49.1651H302.435V47.1651ZM286.886 22.7644L286.192 24.2571L288.006 25.1003L288.7 23.6076L286.886 22.7644ZM277.163 21.12V22.7661H279.163V21.12H277.163ZM253.77 49.1651H255.416V47.1651H253.77V49.1651ZM105.218 93.3756L105.835 91.473L103.218 90.6252V93.3756H105.218ZM105.816 94.1986V96.1986H107.269L107.718 94.8167L105.816 94.1986ZM106.001 93.6293L107.903 94.2474L107.904 94.2458L106.001 93.6293ZM82.8538 93.3756H84.8538V90.6893L82.2803 91.4596L82.8538 93.3756ZM82.2411 94.1986L80.3251 94.7721L80.7521 96.1986H82.2411V94.1986ZM67.422 41.8357L66.8461 43.751L67.4208 43.9238L67.9957 43.7517L67.422 41.8357ZM68.2105 41.5996L70.1265 41.026L70.1265 41.0259L68.2105 41.5996ZM67.4235 38.9714L69.3395 38.3977L67.4271 32.0115L65.5082 38.3957L67.4235 38.9714ZM51.9299 93.3756L52.5056 91.4603L49.9299 90.6861V93.3756H51.9299ZM52.5419 94.1986V96.1986H54.0291L54.4572 94.7744L52.5419 94.1986ZM52.7181 93.6125L54.6334 94.1883L54.6335 94.1882L52.7181 93.6125ZM29.5658 93.3756H31.5658V90.6219L28.9472 91.4737L29.5658 93.3756ZM28.7831 93.6302L26.8812 94.249L26.8813 94.2492L28.7831 93.6302ZM28.9681 94.1986L27.0663 94.8176L27.5158 96.1986H28.9681V94.1986ZM0.148876 2.95469L0.767636 4.85656L2.14888 4.40719V2.95469H0.148876ZM-0.984375 2.13166V0.131658H-3.73822L-2.88626 2.7504L-0.984375 2.13166ZM-0.633778 3.20932L-2.53566 3.82806L-2.53566 3.82806L-0.633778 3.20932ZM25.2256 2.95469H23.2256V5.63799L25.7971 4.87131L25.2256 2.95469ZM26.0143 2.71954L27.9309 2.14811L27.9309 2.14802L26.0143 2.71954ZM25.839 2.13166L27.7556 1.56014L27.3297 0.131658H25.839V2.13166ZM40.7177 54.9166L41.289 53L40.7177 52.8297L40.1464 53L40.7177 54.9166ZM40.7177 57.7971L38.8011 58.3685L40.7177 64.7972L42.6344 58.3685L40.7177 57.7971ZM56.2098 2.95469L55.6384 4.87131L58.2098 5.63799V2.95469H56.2098ZM55.5964 2.13166V0.131658H54.1058L53.6798 1.56014L55.5964 2.13166ZM55.4211 2.71954L53.5045 2.14802L53.5045 2.14811L55.4211 2.71954ZM78.5739 2.95469H76.5739V5.63678L79.1445 4.87156L78.5739 2.95469ZM79.3627 2.71988L81.2796 2.14927L81.2796 2.14926L79.3627 2.71988ZM79.1876 2.13166L81.1045 1.56104L80.679 0.131658H79.1876V2.13166ZM94.0058 54.796L94.5764 52.8791L94.0058 52.7093L93.4353 52.8791L94.0058 54.796ZM93.2169 55.0308L91.3 55.6014L91.3 55.6015L93.2169 55.0308ZM94.0058 57.6808L92.089 58.2515L94.0059 64.6908L95.9227 58.2514L94.0058 57.6808ZM109.437 2.95469L108.866 4.8714L111.437 5.63756V2.95469H109.437ZM108.824 2.13166V0.131658H107.333L106.907 1.56136L108.824 2.13166ZM134.514 2.95469H132.514V4.40906L133.898 4.85732L134.514 2.95469ZM135.646 2.13166L137.549 2.74834L138.397 0.131658L135.646 0.131658V2.13166ZM105.218 92.5525H107.218V90.5525H105.218V92.5525ZM82.8538 92.5525V90.5525H80.8538V92.5525H82.8538ZM83.6423 93.1395L84.2159 95.0555L86.132 94.4819L85.5583 92.5659L83.6423 93.1395ZM66.6336 42.0717L66.06 40.1557L64.144 40.7294L64.7177 42.6454L66.6336 42.0717ZM51.1417 93.1387L49.2264 92.563L48.6506 94.4784L50.566 95.0541L51.1417 93.1387ZM68.2102 42.0726L70.1256 42.6483L70.7013 40.7331L68.786 40.1573L68.2102 42.0726ZM51.9299 92.5525H53.9299V90.5525H51.9299V92.5525ZM29.5658 92.5525V90.5525H27.5658V92.5525H29.5658ZM30.3484 93.121L30.9671 95.0229L32.8691 94.4042L32.2503 92.5023L30.3484 93.121ZM0.93153 2.70007L2.83341 2.08132L2.21467 0.179437L0.312781 0.798187L0.93153 2.70007ZM0.148876 3.77772H-1.85112V5.77772H0.148876V3.77772ZM25.2256 3.77772V5.77772H27.2256V3.77772H25.2256ZM24.4369 3.18985L23.8655 1.27322L21.9489 1.84467L22.5203 3.76128L24.4369 3.18985ZM41.5064 54.6814L42.0779 56.598L43.9945 56.0266L43.423 54.11L41.5064 54.6814ZM56.9985 3.18985L58.9151 3.76128L59.4866 1.84467L57.57 1.27322L56.9985 3.18985ZM39.929 54.6814L38.0124 54.11L37.441 56.0266L39.3576 56.598L39.929 54.6814ZM56.2098 3.77772H54.2098V5.77772H56.2098V3.77772ZM78.5739 3.77772V5.77772H80.5739V3.77772H78.5739ZM77.7851 3.18951L77.2145 1.27264L75.2976 1.84326L75.8682 3.76011L77.7851 3.18951ZM94.7946 54.5612L95.3652 56.4781L97.2821 55.9075L96.7115 53.9906L94.7946 54.5612ZM110.226 3.18951L112.143 3.7601L112.714 1.84346L110.797 1.2727L110.226 3.18951ZM93.2169 54.5612L91.3 53.9906L90.7294 55.9075L92.6464 56.4781L93.2169 54.5612ZM109.437 3.77772H107.437V5.77772H109.437V3.77772ZM134.514 3.77772V5.77772H136.514V3.77772H134.514ZM133.731 2.70101L134.348 0.798374L132.445 0.181953L131.829 2.08456L133.731 2.70101ZM104.435 93.1219L102.533 92.5055L101.916 94.4081L103.819 95.0245L104.435 93.1219ZM165.076 93.3756V91.3756H163.076V93.3756H165.076ZM165.899 94.1986V96.1986H167.899V94.1986H165.899ZM141.205 93.3756H143.205V91.3756H141.205V93.3756ZM140.382 94.1986H138.382V96.1986H140.382V94.1986ZM141.205 2.95469V4.95469H143.205V2.95469H141.205ZM140.382 2.13166V0.131658H138.382V2.13166H140.382ZM165.076 2.95469H163.076V4.95469H165.076V2.95469ZM165.899 2.13166H167.899V0.131658H165.899V2.13166ZM165.076 38.5202H167.076V36.5202H165.076V38.5202ZM164.253 39.3433H162.253V41.3433H164.253V39.3433ZM196.603 38.5202V36.5202H194.603V38.5202H196.603ZM197.426 39.3433V41.3433H199.426V39.3433H197.426ZM196.603 2.95469V4.95469H198.603V2.95469H196.603ZM195.78 2.13166V0.131658H193.78V2.13166H195.78ZM220.474 2.95469H218.474V4.95469H220.474V2.95469ZM221.297 2.13166H223.297V0.131658H221.297V2.13166ZM220.474 93.3756V91.3756H218.474V93.3756H220.474ZM221.297 94.1986V96.1986H223.297V94.1986H221.297ZM196.603 93.3756H198.603V91.3756H196.603V93.3756ZM195.78 94.1986H193.78V96.1986H195.78V94.1986ZM196.603 59.317H194.603V61.317H196.603V59.317ZM197.426 58.494H199.426V56.494H197.426V58.494ZM165.076 59.317V61.317H167.076V59.317H165.076ZM164.253 58.494V56.494H162.253V58.494H164.253ZM165.076 92.5525H167.076V90.5525H165.076V92.5525ZM141.205 92.5525V90.5525H139.205V92.5525H141.205ZM142.028 93.3756V95.3756H144.028V93.3756H142.028ZM142.028 2.95469H144.028V0.954688H142.028V2.95469ZM141.205 3.77772H139.205V5.77772H141.205V3.77772ZM165.076 3.77772V5.77772H167.076V3.77772H165.076ZM164.253 2.95469V0.954688H162.253V2.95469H164.253ZM165.899 38.5202V40.5202H167.899V38.5202H165.899ZM196.603 37.6972H198.603V35.6972H196.603V37.6972ZM165.076 37.6972V35.6972H163.076V37.6972H165.076ZM197.426 2.95469H199.426V0.954688H197.426V2.95469ZM195.78 38.5202H193.78V40.5202H195.78V38.5202ZM196.603 3.77772H194.603V5.77772H196.603V3.77772ZM220.474 3.77772V5.77772H222.474V3.77772H220.474ZM219.651 2.95469V0.954688H217.651V2.95469H219.651ZM219.651 93.3756H217.651V95.3756H219.651V93.3756ZM220.474 92.5525H222.474V90.5525H220.474V92.5525ZM196.603 92.5525V90.5525H194.603V92.5525H196.603ZM197.426 93.3756V95.3756H199.426V93.3756H197.426ZM195.78 59.317V57.317H193.78V59.317H195.78ZM165.076 60.1401H163.076V62.1401H165.076V60.1401ZM196.603 60.1401V62.1401H198.603V60.1401H196.603ZM164.253 93.3756H162.253V95.3756H164.253V93.3756ZM165.899 59.317H167.899V57.317H165.899V59.317ZM258.994 91.6877L260.853 92.4264L257.142 90.9323L258.994 91.6877ZM258.683 92.4501L257.929 94.3026L257.969 94.3187L258.009 94.333L258.683 92.4501ZM243.743 81.8017L245.177 83.1962L242.323 80.3932L243.743 81.8017ZM243.163 82.3864L241.756 83.8072L241.791 83.842L241.828 83.8751L243.163 82.3864ZM244.319 15.1763L245.72 16.6038L245.72 16.6037L244.319 15.1763ZM258.994 4.70283L260.849 3.95429L257.137 5.44419L258.994 4.70283ZM259.302 5.46591L259.987 7.34499L260.02 7.33317L260.052 7.32024L259.302 5.46591ZM297.332 4.70283L299.189 5.4463L295.48 3.9494L297.332 4.70283ZM297.026 5.467L296.203 7.2896L296.243 7.30766L296.283 7.32395L297.026 5.467ZM312.462 14.5888L313.89 15.989L311.048 13.1746L312.462 14.5888ZM311.88 15.1708L310.466 16.5849L310.497 16.6164L310.53 16.6465L311.88 15.1708ZM313.042 82.3864L314.45 83.8074L314.45 83.8072L313.042 82.3864ZM297.332 91.6877L299.185 90.9344L295.476 92.4312L297.332 91.6877ZM297.638 92.4519L298.381 94.3089L298.421 94.293L298.46 94.2755L297.638 92.4519ZM287.793 73.1443L288.636 74.958L288.636 74.958L287.793 73.1443ZM294.861 66.8521L293.539 68.3531L296.185 65.353L294.861 66.8521ZM294.243 66.3079L293.108 64.6613L292.906 64.8009L292.743 64.9855L294.243 66.3079ZM299.804 58.4731L299.115 60.3507L300.514 56.6032L299.804 58.4731ZM299.034 58.1809L297.164 57.471L297.156 57.4943L297.147 57.5179L299.034 58.1809ZM299.804 37.8571L300.514 39.727L299.115 35.9796L299.804 37.8571ZM299.034 38.1493L297.15 38.8192L297.157 38.8393L297.164 38.8593L299.034 38.1493ZM294.861 29.5384L296.197 31.0271L293.551 28.027L294.861 29.5384ZM294.243 30.083L292.615 31.2451L292.69 31.349L292.776 31.4426L294.243 30.083ZM287.793 23.186L288.636 21.3724L288.636 21.3723L287.793 23.186ZM268.819 23.9323L267.006 24.7756L270.637 23.0988L268.819 23.9323ZM268.476 23.1841L267.643 21.3659L267.63 21.3717L267.618 21.3777L268.476 23.1841ZM261.345 29.5384L262.67 28.0404L260.008 31.026L261.345 29.5384ZM261.957 30.0884L263.445 31.425L263.49 31.3751L263.531 31.3222L261.957 30.0884ZM256.341 37.8571L255.652 39.7345L257.052 35.9875L256.341 37.8571ZM255.572 37.5649L253.702 36.855L253.694 36.8784L253.685 36.9019L255.572 37.5649ZM256.341 58.4731L257.052 60.3427L255.652 56.5958L256.341 58.4731ZM255.572 58.7653L253.685 59.4281L253.694 59.4519L253.703 59.4754L255.572 58.7653ZM261.345 66.8521L262.681 68.3407L260.021 65.3531L261.345 66.8521ZM260.732 67.4021L259.159 68.6365L259.2 68.689L259.244 68.7386L260.732 67.4021ZM268.819 72.3979L270.637 73.2314L267.006 71.5548L268.819 72.3979ZM268.472 73.1443L267.629 74.9579L267.64 74.963L267.651 74.9679L268.472 73.1443ZM259.297 90.9228L260.036 89.0641L258.176 88.3254L257.438 90.1852L259.297 90.9228ZM259.304 90.9254L261.156 91.6798L261.911 89.8269L260.058 89.0729L259.304 90.9254ZM244.316 81.2116L245.71 79.7775L244.276 78.3833L242.882 79.8177L244.316 81.2116ZM244.322 81.217L245.743 82.6249L247.151 81.204L245.73 79.7962L244.322 81.217ZM234.496 66.5363L236.343 65.769L236.343 65.7689L234.496 66.5363ZM232.976 67.1679L231.129 67.9352L231.129 67.9353L232.976 67.1679ZM234.496 29.7939L236.343 30.5614L236.343 30.5614L234.496 29.7939ZM232.976 29.1623L231.129 28.395L231.129 28.395L232.976 29.1623ZM243.166 14.0014L244.567 15.4289L244.567 15.4287L243.166 14.0014ZM258.688 3.93867L260.545 3.19624L259.803 1.3388L257.945 2.08171L258.688 3.93867ZM258.685 3.93975L257.936 2.08543L256.081 2.83488L256.831 4.68934L258.685 3.93975ZM297.642 3.94049L299.495 4.69389L300.248 2.84165L298.396 2.088L297.642 3.94049ZM313.044 14.0069L314.458 15.4212L315.873 14.007L314.458 12.5927L313.044 14.0069ZM297.638 3.93867L298.381 2.08172L296.525 1.33919L295.782 3.19519L297.638 3.93867ZM321.709 29.7939L319.862 30.5614L319.862 30.5614L321.709 29.7939ZM323.229 29.1623L325.076 28.395L325.076 28.395L323.229 29.1623ZM313.039 14.0014L314.44 12.5739L313.013 11.1732L311.612 12.6006L313.039 14.0014ZM321.709 66.5363L319.862 65.7689L319.862 65.769L321.709 66.5363ZM323.229 67.1679L325.076 67.9353L325.076 67.9352L323.229 67.1679ZM311.883 81.217L313.291 82.6379L313.291 82.6379L311.883 81.217ZM297.022 90.9254L296.268 89.0729L294.416 89.8266L295.17 91.6788L297.022 90.9254ZM297.026 90.9236L298.883 90.1801L298.14 88.3242L296.283 89.0667L297.026 90.9236ZM287.099 71.6516L286.256 69.8379L286.256 69.838L287.099 71.6516ZM295.478 67.3963L296.979 68.7189L298.301 67.2184L296.801 65.8958L295.478 67.3963ZM295.477 67.397L294.153 68.8956L295.652 70.2205L296.976 68.7211L295.477 67.397ZM300.576 58.7567L302.454 59.446L303.143 57.5685L301.265 56.8792L300.576 58.7567ZM300.573 58.7653L299.863 60.6351L301.733 61.3451L302.443 59.4753L300.573 58.7653ZM300.573 37.565L302.443 36.855L301.733 34.9854L299.863 35.6952L300.573 37.565ZM300.576 37.5735L301.266 39.451L303.143 38.7617L302.454 36.8844L300.576 37.5735ZM295.473 28.9884L296.961 27.6519L295.625 26.1643L294.137 27.5003L295.473 28.9884ZM295.482 28.9994L296.793 30.5104L298.303 29.2006L296.994 27.6898L295.482 28.9994ZM287.099 24.6787L286.256 26.4924L286.256 26.4925L287.099 24.6787ZM269.162 24.6805L267.344 25.514L268.178 27.3318L269.995 26.4987L269.162 24.6805ZM260.728 28.9935L259.229 27.6696L257.906 29.168L259.404 30.4921L260.728 28.9935ZM269.166 24.6787L270.009 26.4924L271.823 25.6493L270.98 23.8355L269.166 24.6787ZM260.732 28.9884L262.068 27.5003L260.581 26.1643L259.244 27.6519L260.732 28.9884ZM257.111 38.1493L256.401 40.0191L258.271 40.729L258.981 38.8594L257.111 38.1493ZM257.114 38.1408L258.992 38.83L259.681 36.9527L257.804 36.2634L257.114 38.1408ZM257.114 58.1895L257.803 60.067L259.681 59.3778L258.992 57.5004L257.114 58.1895ZM261.961 66.3072L263.286 67.8058L264.784 66.4819L263.46 64.9834L261.961 66.3072ZM257.111 58.1809L258.981 57.4711L258.271 55.6011L256.401 56.3112L257.111 58.1809ZM269.166 71.6516L270.98 72.4948L271.823 70.6811L270.009 69.838L269.166 71.6516ZM261.957 66.3021L263.445 64.9658L262.109 63.4778L260.621 64.814L261.957 66.3021ZM269.162 71.6497L269.995 69.8316L268.178 68.9984L267.344 70.8163L269.162 71.6497ZM103.218 93.3756V94.1986H107.218V93.3756H103.218ZM105.218 96.1986H105.816V92.1986H105.218V96.1986ZM107.718 94.8167L107.903 94.2474L104.099 93.0112L103.914 93.5805L107.718 94.8167ZM106.618 91.7267L105.835 91.473L104.602 95.2782L105.385 95.5319L106.618 91.7267ZM82.2803 91.4596L81.4919 91.6956L82.639 95.5276L83.4274 95.2916L82.2803 91.4596ZM80.1494 94.1851L80.3251 94.7721L84.1571 93.6251L83.9814 93.0381L80.1494 94.1851ZM82.2411 96.1986H82.8538V92.1986H82.2411V96.1986ZM84.8538 94.1986V93.3756H80.8538V94.1986H84.8538ZM67.9957 43.7517L68.7842 43.5156L67.6368 39.6837L66.8483 39.9198L67.9957 43.7517ZM70.1265 41.0259L69.3395 38.3977L65.5076 39.5451L66.2946 42.1733L70.1265 41.0259ZM65.5082 38.3957L64.7185 41.023L68.5492 42.1744L69.3389 39.5471L65.5082 38.3957ZM66.0579 43.514L66.8461 43.751L67.9979 39.9204L67.2097 39.6834L66.0579 43.514ZM49.9299 93.3756V94.1986H53.9299V93.3756H49.9299ZM51.9299 96.1986H52.5419V92.1986H51.9299V96.1986ZM54.4572 94.7744L54.6334 94.1883L50.8028 93.0367L50.6266 93.6228L54.4572 94.7744ZM53.2938 91.6972L52.5056 91.4603L51.3542 95.291L52.1424 95.5279L53.2938 91.6972ZM28.9472 91.4737L28.1645 91.7283L29.4018 95.5321L30.1845 95.2775L28.9472 91.4737ZM26.8813 94.2492L27.0663 94.8176L30.8699 93.5796L30.6849 93.0112L26.8813 94.2492ZM28.9681 96.1986H29.5658V92.1986H28.9681V96.1986ZM31.5658 94.1986V93.3756H27.5658V94.1986H31.5658ZM2.14888 2.95469V2.13166H-1.85112V2.95469H2.14888ZM0.148876 0.131658H-0.984375V4.13166H0.148876V0.131658ZM-2.88626 2.7504L-2.53566 3.82806L1.2681 2.59058L0.917508 1.51292L-2.88626 2.7504ZM-0.0150178 5.1112L0.767636 4.85656L-0.469884 1.05281L-1.25254 1.30744L-0.0150178 5.1112ZM25.7971 4.87131L26.5858 4.63616L25.4429 0.802912L24.6542 1.03806L25.7971 4.87131ZM27.9309 2.14802L27.7556 1.56014L23.9224 2.70317L24.0977 3.29105L27.9309 2.14802ZM25.839 0.131658H25.2256V4.13166H25.839V0.131658ZM23.2256 2.13166V2.95469H27.2256V2.13166H23.2256ZM40.1464 53L39.3577 53.2351L40.5003 57.0684L41.289 56.8333L40.1464 53ZM38.0124 55.7231L38.8011 58.3685L42.6344 57.2257L41.8457 54.5803L38.0124 55.7231ZM42.6344 58.3685L43.4231 55.7231L39.5898 54.5803L38.8011 57.2257L42.6344 58.3685ZM42.0777 53.2351L41.289 53L40.1464 56.8333L40.9351 57.0684L42.0777 53.2351ZM58.2098 2.95469V2.13166H54.2098V2.95469H58.2098ZM56.2098 0.131658H55.5964V4.13166H56.2098V0.131658ZM53.6798 1.56014L53.5045 2.14802L57.3377 3.29105L57.513 2.70317L53.6798 1.56014ZM54.8497 4.63616L55.6384 4.87131L56.7813 1.03806L55.9926 0.802912L54.8497 4.63616ZM79.1445 4.87156L79.9333 4.63675L78.7921 0.803005L78.0033 1.03782L79.1445 4.87156ZM81.2796 2.14926L81.1045 1.56104L77.2707 2.70228L77.4458 3.2905L81.2796 2.14926ZM79.1876 0.131658H78.5739V4.13166H79.1876V0.131658ZM76.5739 2.13166V2.95469H80.5739V2.13166H76.5739ZM93.4353 52.8791L92.6464 53.1139L93.7874 56.9477L94.5763 56.7129L93.4353 52.8791ZM91.3 55.6015L92.089 58.2515L95.9227 57.1102L95.1338 54.4602L91.3 55.6015ZM95.9227 58.2514L96.7115 55.6014L92.8777 54.4602L92.0889 57.1102L95.9227 58.2514ZM95.3652 53.1139L94.5764 52.8791L93.4352 56.7129L94.224 56.9477L95.3652 53.1139ZM111.437 2.95469V2.13166H107.437V2.95469H111.437ZM109.437 0.131658H108.824V4.13166H109.437V0.131658ZM106.907 1.56136L106.732 2.14958L110.566 3.29018L110.741 2.70196L106.907 1.56136ZM108.078 4.63659L108.866 4.8714L110.008 1.03797L109.22 0.803164L108.078 4.63659ZM133.898 4.85732L134.681 5.111L135.914 1.30574L135.131 1.05206L133.898 4.85732ZM137.2 3.82505L137.549 2.74834L133.744 1.51498L133.395 2.59169L137.2 3.82505ZM135.646 0.131658H134.514V4.13166H135.646V0.131658ZM132.514 2.13166V2.95469H136.514V2.13166H132.514ZM105.218 90.5525H82.8538V94.5525H105.218V90.5525ZM80.8538 92.5525V94.1986H84.8538V92.5525H80.8538ZM82.8538 96.1986H105.218V92.1986H82.8538V96.1986ZM107.218 94.1986V92.5525H103.218V94.1986H107.218ZM85.5583 92.5659L70.1265 41.026L66.2946 42.1733L81.7264 93.7132L85.5583 92.5659ZM67.6369 39.6836L66.06 40.1557L67.2072 43.9877L68.7841 43.5156L67.6369 39.6836ZM64.7177 42.6454L80.1495 94.1853L83.9814 93.038L68.5496 41.4981L64.7177 42.6454ZM82.639 95.5276L84.2159 95.0555L83.0687 91.2235L81.4918 91.6956L82.639 95.5276ZM64.7185 41.023L49.2264 92.563L53.0571 93.7144L68.5492 42.1744L64.7185 41.023ZM50.566 95.0541L52.1424 95.5279L53.2938 91.6972L51.7174 91.2234L50.566 95.0541ZM54.6335 94.1882L70.1256 42.6483L66.2949 41.4969L50.8028 93.0368L54.6335 94.1882ZM68.786 40.1573L67.2096 39.6834L66.058 43.514L67.6344 43.9879L68.786 40.1573ZM51.9299 90.5525H29.5658V94.5525H51.9299V90.5525ZM27.5658 92.5525V94.1986H31.5658V92.5525H27.5658ZM29.5658 96.1986H51.9299V92.1986H29.5658V96.1986ZM53.9299 94.1986V92.5525H49.9299V94.1986H53.9299ZM32.2503 92.5023L2.83341 2.08132L-0.970352 3.31881L28.4465 93.7398L32.2503 92.5023ZM0.312781 0.798187L-1.25253 1.30744L-0.0150288 5.1112L1.55028 4.60195L0.312781 0.798187ZM-2.53566 3.82806L26.8812 94.249L30.685 93.0115L1.2681 2.59057L-2.53566 3.82806ZM29.4018 95.5321L30.9671 95.0229L29.7297 91.2191L28.1644 91.7283L29.4018 95.5321ZM0.148876 5.77772H25.2256V1.77772H0.148876V5.77772ZM27.2256 3.77772V2.13166H23.2256V3.77772H27.2256ZM25.2256 0.131658H0.148876V4.13166H25.2256V0.131658ZM-1.85112 2.13166V3.77772H2.14888V2.13166H-1.85112ZM22.5203 3.76128L38.0124 55.7231L41.8456 54.5803L26.3535 2.61842L22.5203 3.76128ZM40.5005 57.0683L42.0779 56.598L40.935 52.7648L39.3576 53.2351L40.5005 57.0683ZM43.423 54.11L27.9309 2.14811L24.0977 3.29097L39.5898 55.2529L43.423 54.11ZM25.4429 0.802915L23.8655 1.27322L25.0084 5.10647L26.5858 4.63616L25.4429 0.802915ZM43.423 55.7231L58.9151 3.76128L55.0819 2.61842L39.5898 54.5803L43.423 55.7231ZM57.57 1.27322L55.9926 0.802915L54.8497 4.63616L56.4271 5.10647L57.57 1.27322ZM53.5045 2.14811L38.0124 54.11L41.8456 55.2528L57.3377 3.29097L53.5045 2.14811ZM39.3576 56.598L40.935 57.0683L42.0779 53.2351L40.5005 52.7648L39.3576 56.598ZM56.2098 5.77772H78.5739V1.77772H56.2098V5.77772ZM80.5739 3.77772V2.13166H76.5739V3.77772H80.5739ZM78.5739 0.131658H56.2098V4.13166H78.5739V0.131658ZM54.2098 2.13166V3.77772H58.2098V2.13166H54.2098ZM75.8682 3.76011L91.3 55.6014L95.1338 54.4602L79.702 2.6189L75.8682 3.76011ZM93.7875 56.9477L95.3652 56.4781L94.2241 52.6443L92.6464 53.1139L93.7875 56.9477ZM96.7115 53.9906L81.2796 2.14927L77.4458 3.29048L92.8777 55.1318L96.7115 53.9906ZM78.7921 0.803009L77.2145 1.27264L78.3557 5.10638L79.9333 4.63675L78.7921 0.803009ZM96.7115 55.6014L112.143 3.7601L108.309 2.61891L92.8777 54.4602L96.7115 55.6014ZM110.797 1.2727L109.22 0.803069L108.078 4.63669L109.655 5.10632L110.797 1.2727ZM106.732 2.14926L91.3 53.9906L95.1338 55.1318L110.566 3.2905L106.732 2.14926ZM92.6464 56.4781L94.2241 56.9477L95.3652 53.1139L93.7875 52.6443L92.6464 56.4781ZM109.437 5.77772H134.514V1.77772H109.437V5.77772ZM136.514 3.77772V2.13166H132.514V3.77772H136.514ZM134.514 0.131658H109.437V4.13166H134.514V0.131658ZM107.437 2.13166V3.77772H111.437V2.13166H107.437ZM131.829 2.08456L102.533 92.5055L106.338 93.7384L135.634 3.31745L131.829 2.08456ZM103.819 95.0245L105.385 95.5319L106.618 91.7267L105.052 91.2193L103.819 95.0245ZM107.904 94.2458L137.2 3.82481L133.395 2.59192L104.099 93.0129L107.904 94.2458ZM135.914 1.30573L134.348 0.798374L133.115 4.60364L134.681 5.111L135.914 1.30573ZM163.076 93.3756V94.1986H167.076V93.3756H163.076ZM165.076 96.1986H165.899V92.1986H165.076V96.1986ZM167.899 94.1986V93.3756H163.899V94.1986H167.899ZM165.899 91.3756H165.076V95.3756H165.899V91.3756ZM141.205 91.3756H140.382V95.3756H141.205V91.3756ZM138.382 93.3756V94.1986H142.382V93.3756H138.382ZM140.382 96.1986H141.205V92.1986H140.382V96.1986ZM143.205 94.1986V93.3756H139.205V94.1986H143.205ZM143.205 2.95469V2.13166H139.205V2.95469H143.205ZM141.205 0.131658H140.382V4.13166H141.205V0.131658ZM138.382 2.13166V2.95469H142.382V2.13166H138.382ZM140.382 4.95469H141.205V0.954688H140.382V4.95469ZM165.076 4.95469H165.899V0.954688H165.076V4.95469ZM167.899 2.95469V2.13166H163.899V2.95469H167.899ZM165.899 0.131658H165.076V4.13166H165.899V0.131658ZM163.076 2.13166V2.95469H167.076V2.13166H163.076ZM165.076 36.5202H164.253V40.5202H165.076V36.5202ZM162.253 38.5202V39.3433H166.253V38.5202H162.253ZM164.253 41.3433H165.076V37.3433H164.253V41.3433ZM167.076 39.3433V38.5202H163.076V39.3433H167.076ZM194.603 38.5202V39.3433H198.603V38.5202H194.603ZM196.603 41.3433H197.426V37.3433H196.603V41.3433ZM199.426 39.3433V38.5202H195.426V39.3433H199.426ZM197.426 36.5202H196.603V40.5202H197.426V36.5202ZM198.603 2.95469V2.13166H194.603V2.95469H198.603ZM196.603 0.131658H195.78V4.13166H196.603V0.131658ZM193.78 2.13166V2.95469H197.78V2.13166H193.78ZM195.78 4.95469H196.603V0.954688H195.78V4.95469ZM220.474 4.95469H221.297V0.954688H220.474V4.95469ZM223.297 2.95469V2.13166H219.297V2.95469H223.297ZM221.297 0.131658H220.474V4.13166H221.297V0.131658ZM218.474 2.13166V2.95469H222.474V2.13166H218.474ZM218.474 93.3756V94.1986H222.474V93.3756H218.474ZM220.474 96.1986H221.297V92.1986H220.474V96.1986ZM223.297 94.1986V93.3756H219.297V94.1986H223.297ZM221.297 91.3756H220.474V95.3756H221.297V91.3756ZM196.603 91.3756H195.78V95.3756H196.603V91.3756ZM193.78 93.3756V94.1986H197.78V93.3756H193.78ZM195.78 96.1986H196.603V92.1986H195.78V96.1986ZM198.603 94.1986V93.3756H194.603V94.1986H198.603ZM196.603 61.317H197.426V57.317H196.603V61.317ZM199.426 59.317V58.494H195.426V59.317H199.426ZM197.426 56.494H196.603V60.494H197.426V56.494ZM194.603 58.494V59.317H198.603V58.494H194.603ZM167.076 59.317V58.494H163.076V59.317H167.076ZM165.076 56.494H164.253V60.494H165.076V56.494ZM162.253 58.494V59.317H166.253V58.494H162.253ZM164.253 61.317H165.076V57.317H164.253V61.317ZM165.076 90.5525H141.205V94.5525H165.076V90.5525ZM139.205 92.5525V94.1986H143.205V92.5525H139.205ZM141.205 96.1986H165.076V92.1986H141.205V96.1986ZM167.076 94.1986V92.5525H163.076V94.1986H167.076ZM144.028 93.3756V2.95469H140.028V93.3756H144.028ZM142.028 0.954688H140.382V4.95469H142.028V0.954688ZM138.382 2.95469V93.3756H142.382V2.95469H138.382ZM140.382 95.3756H142.028V91.3756H140.382V95.3756ZM141.205 5.77772H165.076V1.77772H141.205V5.77772ZM167.076 3.77772V2.13166H163.076V3.77772H167.076ZM165.076 0.131658H141.205V4.13166H165.076V0.131658ZM139.205 2.13166V3.77772H143.205V2.13166H139.205ZM162.253 2.95469V38.5202H166.253V2.95469H162.253ZM164.253 40.5202H165.899V36.5202H164.253V40.5202ZM167.899 38.5202V2.95469H163.899V38.5202H167.899ZM165.899 0.954688H164.253V4.95469H165.899V0.954688ZM165.076 41.3433H196.603V37.3433H165.076V41.3433ZM198.603 39.3433V37.6972H194.603V39.3433H198.603ZM196.603 35.6972H165.076V39.6972H196.603V35.6972ZM163.076 37.6972V39.3433H167.076V37.6972H163.076ZM199.426 38.5202V2.95469H195.426V38.5202H199.426ZM197.426 0.954688H195.78V4.95469H197.426V0.954688ZM193.78 2.95469V38.5202H197.78V2.95469H193.78ZM195.78 40.5202H197.426V36.5202H195.78V40.5202ZM196.603 5.77772H220.474V1.77772H196.603V5.77772ZM222.474 3.77772V2.13166H218.474V3.77772H222.474ZM220.474 0.131658H196.603V4.13166H220.474V0.131658ZM194.603 2.13166V3.77772H198.603V2.13166H194.603ZM217.651 2.95469V93.3756H221.651V2.95469H217.651ZM219.651 95.3756H221.297V91.3756H219.651V95.3756ZM223.297 93.3756V2.95469H219.297V93.3756H223.297ZM221.297 0.954688H219.651V4.95469H221.297V0.954688ZM220.474 90.5525H196.603V94.5525H220.474V90.5525ZM194.603 92.5525V94.1986H198.603V92.5525H194.603ZM196.603 96.1986H220.474V92.1986H196.603V96.1986ZM222.474 94.1986V92.5525H218.474V94.1986H222.474ZM199.426 93.3756V59.317H195.426V93.3756H199.426ZM197.426 57.317H195.78V61.317H197.426V57.317ZM193.78 59.317V93.3756H197.78V59.317H193.78ZM195.78 95.3756H197.426V91.3756H195.78V95.3756ZM196.603 56.494H165.076V60.494H196.603V56.494ZM163.076 58.494V60.1401H167.076V58.494H163.076ZM165.076 62.1401H196.603V58.1401H165.076V62.1401ZM198.603 60.1401V58.494H194.603V60.1401H198.603ZM162.253 59.317V93.3756H166.253V59.317H162.253ZM164.253 95.3756H165.899V91.3756H164.253V95.3756ZM167.899 93.3756V59.317H163.899V93.3756H167.899ZM165.899 57.317H164.253V61.317H165.899V57.317ZM257.142 90.9323L256.831 91.6947L260.535 93.2055L260.846 92.4431L257.142 90.9323ZM258.009 94.333L258.016 94.3355L259.364 90.5697L259.357 90.5672L258.009 94.333ZM260.549 93.1913L260.853 92.4264L257.136 90.949L256.832 91.7139L260.549 93.1913ZM242.323 80.3932L241.743 80.9779L244.583 83.7949L245.163 83.2102L242.323 80.3932ZM241.828 83.8751L241.834 83.8805L244.505 80.9032L244.499 80.8978L241.828 83.8751ZM244.603 83.7863L245.177 83.1962L242.31 80.4072L241.736 80.9973L244.603 83.7863ZM257.137 5.44419L257.442 6.20836L261.157 4.72563L260.852 3.96146L257.137 5.44419ZM259.984 7.34608L259.987 7.34499L258.617 3.58683L258.614 3.58792L259.984 7.34608ZM261.157 4.71737L260.849 3.95429L257.14 5.45137L257.448 6.21445L261.157 4.71737ZM295.48 3.9494L295.17 4.71175L298.875 6.21861L299.185 5.45626L295.48 3.9494ZM296.199 7.28778L296.203 7.2896L297.85 3.6444L297.846 3.64258L296.199 7.28778ZM298.883 6.21047L299.189 5.4463L295.476 3.95935L295.17 4.72352L298.883 6.21047ZM311.048 13.1746L310.466 13.7566L313.294 16.585L313.876 16.003L311.048 13.1746ZM310.53 16.6465L310.536 16.652L313.236 13.7007L313.23 13.6952L310.53 16.6465ZM313.314 16.5765L313.89 15.989L311.034 13.1887L310.458 13.7762L313.314 16.5765ZM295.476 92.4312L295.782 93.1954L299.495 91.7085L299.189 90.9443L295.476 92.4312ZM298.46 94.2755L298.464 94.2737L296.821 90.6265L296.817 90.6283L298.46 94.2755ZM299.495 91.6968L299.185 90.9344L295.48 92.441L295.79 93.2034L299.495 91.6968ZM296.185 65.353L295.568 64.8081L292.92 67.8063L293.537 68.3512L296.185 65.353ZM293.109 64.6606L293.108 64.6613L295.378 67.9545L295.379 67.9538L293.109 64.6606ZM292.921 67.8089L293.539 68.3531L296.183 65.3511L295.565 64.8069L292.921 67.8089ZM300.514 56.6032L299.744 56.311L298.325 60.0508L299.095 60.343L300.514 56.6032ZM297.147 57.5179L297.144 57.5265L300.918 58.8525L300.921 58.8439L297.147 57.5179ZM298.342 60.0671L299.115 60.3507L300.493 56.5955L299.72 56.3119L298.342 60.0671ZM299.115 35.9796L298.342 36.2633L299.72 40.0184L300.493 39.7347L299.115 35.9796ZM297.147 38.8107L297.15 38.8192L300.919 37.4794L300.916 37.4709L297.147 38.8107ZM299.744 40.0192L300.514 39.727L299.095 35.9872L298.325 36.2794L299.744 40.0192ZM293.551 28.027L292.929 28.566L295.549 31.5889L296.171 31.0499L293.551 28.027ZM292.611 31.2395L292.615 31.2451L295.871 28.921L295.867 28.9154L292.611 31.2395ZM292.776 31.4426L292.781 31.448L295.715 28.7288L295.71 28.7234L292.776 31.4426ZM295.584 31.5771L296.197 31.0271L293.526 28.0498L292.913 28.5998L295.584 31.5771ZM270.637 23.0988L270.294 22.3506L266.658 24.0176L267.001 24.7658L270.637 23.0988ZM267.618 21.3777L267.614 21.3796L269.331 24.9924L269.335 24.9905L267.618 21.3777ZM266.659 24.0293L267.006 24.7756L270.633 23.0891L270.286 22.3428L266.659 24.0293ZM260.008 31.026L260.62 31.576L263.294 28.6008L262.682 28.0508L260.008 31.026ZM263.531 31.3222L263.535 31.3171L260.387 28.8495L260.383 28.8546L263.531 31.3222ZM263.286 28.5853L262.67 28.0404L260.02 31.0365L260.636 31.5814L263.286 28.5853ZM257.052 35.9875L256.283 35.6953L254.862 39.4345L255.631 39.7267L257.052 35.9875ZM253.685 36.9019L253.682 36.9105L257.456 38.2365L257.459 38.2279L253.685 36.9019ZM254.88 39.4509L255.652 39.7345L257.031 35.9798L256.259 35.6962L254.88 39.4509ZM255.652 56.5958L254.88 56.8794L256.259 60.6341L257.031 60.3505L255.652 56.5958ZM253.682 59.4195L253.685 59.4281L257.459 58.1026L257.456 58.094L253.682 59.4195ZM256.283 60.6349L257.052 60.3427L255.631 56.6035L254.862 56.8957L256.283 60.6349ZM260.021 65.3531L259.404 65.898L262.052 68.8961L262.669 68.3512L260.021 65.3531ZM259.155 68.6314L259.159 68.6365L262.306 66.1677L262.302 66.1626L259.155 68.6314ZM262.068 68.8907L262.681 68.3407L260.01 65.3635L259.397 65.9135L262.068 68.8907ZM267.006 71.5548L266.659 72.3011L270.286 73.9875L270.633 73.2411L267.006 71.5548ZM267.651 74.9679L267.655 74.9697L269.298 71.3225L269.294 71.3207L267.651 74.9679ZM270.294 73.9796L270.637 73.2314L267.001 71.5644L266.658 72.3126L270.294 73.9796ZM278.163 92.361C271.574 92.361 265.541 91.2513 260.036 89.0641L258.559 92.7815C264.577 95.1724 271.116 96.361 278.163 96.361V92.361ZM257.438 90.1852L256.831 91.715L260.549 93.1903L261.156 91.6605L257.438 90.1852ZM257.952 94.3113C264.181 96.786 270.927 98.007 278.163 98.007V94.007C271.385 94.007 265.145 92.8649 259.429 90.5939L257.952 94.3113ZM260.058 89.0729C254.554 86.8333 249.781 83.7341 245.71 79.7775L242.922 82.6457C247.376 86.9749 252.589 90.3521 258.55 92.7779L260.058 89.0729ZM242.882 79.8177L241.735 80.9979L244.603 83.7857L245.75 82.6055L242.882 79.8177ZM241.775 83.8258C246.386 88.3086 251.78 91.8001 257.929 94.3026L259.437 90.5976C253.745 88.2813 248.791 85.0678 244.563 80.9578L241.775 83.8258ZM260.535 93.2045L261.156 91.6798L257.452 90.171L256.831 91.6957L260.535 93.2045ZM245.73 79.7962C241.701 75.8053 238.574 71.1374 236.343 65.769L232.649 67.3037C235.079 73.1513 238.501 78.266 242.915 82.6379L245.73 79.7962ZM231.129 67.9353C233.641 73.9799 237.184 79.2785 241.756 83.8072L244.571 80.9656C240.384 76.8179 237.136 71.9662 234.823 66.4005L231.129 67.9353ZM244.584 83.7943L245.743 82.6249L242.902 79.8091L241.743 80.9785L244.584 83.7943ZM236.343 65.7689C234.127 60.4362 233.002 54.5794 233.002 48.1651H229.002C229.002 55.0572 230.213 61.4414 232.649 67.3038L236.343 65.7689ZM227.356 48.1651C227.356 55.2538 228.603 61.8549 231.129 67.9352L234.823 66.4006C232.517 60.8497 231.356 54.7758 231.356 48.1651H227.356ZM233.002 48.1651C233.002 41.7509 234.127 35.8941 236.343 30.5614L232.649 29.0265C230.213 34.8889 229.002 41.2731 229.002 48.1651H233.002ZM231.129 28.395C228.603 34.4753 227.356 41.0764 227.356 48.1651H231.356C231.356 41.5544 232.517 35.4805 234.823 29.9296L231.129 28.395ZM236.343 30.5614C238.573 25.1952 241.697 20.5513 245.72 16.6038L242.918 13.7489C238.503 18.0819 235.08 23.178 232.649 29.0265L236.343 30.5614ZM241.765 12.5739C237.188 17.0657 233.641 22.3479 231.129 28.395L234.823 29.9296C237.135 24.3651 240.382 19.5351 244.567 15.4289L241.765 12.5739ZM245.72 16.6037C249.785 12.6139 254.551 9.52063 260.042 7.32394L258.556 3.61006C252.59 5.99683 247.373 9.37657 242.918 13.7489L245.72 16.6037ZM261.156 4.72457L260.545 3.19624L256.831 4.68109L257.442 6.20942L261.156 4.72457ZM257.945 2.08171C251.783 4.54669 246.38 8.04423 241.765 12.5741L244.567 15.4287C248.792 11.2816 253.744 8.07057 259.431 5.79563L257.945 2.08171ZM260.052 7.32024C265.553 5.09704 271.58 3.9693 278.163 3.9693V-0.0306959C271.114 -0.0306959 264.573 1.17891 258.553 3.61158L260.052 7.32024ZM278.163 -1.67676C270.922 -1.67676 264.169 -0.433475 257.936 2.08543L259.435 5.79406C265.149 3.48468 271.388 2.32324 278.163 2.32324V-1.67676ZM256.831 4.68934L257.448 6.2155L261.156 4.71631L260.539 3.19015L256.831 4.68934ZM278.163 3.9693C284.789 3.9693 290.813 5.0979 296.268 7.3177L297.776 3.61265C291.794 1.17858 285.251 -0.0306959 278.163 -0.0306959V3.9693ZM298.875 6.21858L299.495 4.69389L295.79 3.18709L295.17 4.71178L298.875 6.21858ZM298.396 2.088C292.198 -0.434325 285.441 -1.67676 278.163 -1.67676V2.32324C284.979 2.32324 291.217 3.48504 296.888 5.79298L298.396 2.088ZM296.283 7.32395C301.771 9.5189 306.489 12.6069 310.466 16.5849L313.295 13.7567C308.918 9.37932 303.738 5.99753 297.769 3.61005L296.283 7.32395ZM313.294 16.5851L314.458 15.4212L311.63 12.5926L310.466 13.7565L313.294 16.5851ZM314.458 12.5927C309.917 8.05125 304.548 4.54853 298.381 2.08172L296.895 5.79561C302.581 8.06976 307.487 11.2786 311.63 15.4211L314.458 12.5927ZM295.782 3.19519L295.17 4.72352L298.883 6.21048L299.495 4.68215L295.782 3.19519ZM310.485 16.6038C314.508 20.5513 317.633 25.1952 319.862 30.5614L323.556 29.0265C321.126 23.178 317.702 18.0819 313.287 13.7489L310.485 16.6038ZM325.076 28.395C322.564 22.3479 319.017 17.0657 314.44 12.5739L311.638 15.4289C315.823 19.5351 319.07 24.3651 321.382 29.9296L325.076 28.395ZM311.612 12.6006L310.459 13.7755L313.314 16.5772L314.467 15.4023L311.612 12.6006ZM319.862 30.5614C322.078 35.8941 323.203 41.7509 323.203 48.1651H327.203C327.203 41.2731 325.992 34.889 323.556 29.0265L319.862 30.5614ZM328.849 48.1651C328.849 41.0764 327.602 34.4753 325.076 28.395L321.382 29.9296C323.688 35.4805 324.849 41.5544 324.849 48.1651H328.849ZM323.203 48.1651C323.203 54.5794 322.078 60.4362 319.862 65.7689L323.556 67.3038C325.992 61.4414 327.203 55.0572 327.203 48.1651H323.203ZM325.076 67.9352C327.602 61.8549 328.849 55.2538 328.849 48.1651H324.849C324.849 54.7758 323.688 60.8497 321.382 66.4006L325.076 67.9352ZM319.862 65.769C317.632 71.1374 314.504 75.8053 310.476 79.7962L313.291 82.6379C317.704 78.266 321.127 73.1513 323.556 67.3037L319.862 65.769ZM314.45 83.8072C319.021 79.2785 322.565 73.9799 325.076 67.9353L321.382 66.4005C319.07 71.9662 315.821 76.8179 311.635 80.9656L314.45 83.8072ZM310.476 79.7961C306.493 83.741 301.767 86.8351 296.268 89.0729L297.776 92.7779C303.739 90.3513 308.915 86.972 313.291 82.6379L310.476 79.7961ZM295.17 91.6788L295.79 93.2035L299.495 91.6967L298.875 90.172L295.17 91.6788ZM298.396 94.3027C304.551 91.7983 309.912 88.3017 314.45 83.8074L311.635 80.9655C307.49 85.0707 302.579 88.2821 296.889 90.5976L298.396 94.3027ZM296.283 89.0667C290.824 91.2504 284.795 92.361 278.163 92.361V96.361C285.249 96.361 291.789 95.1726 297.769 92.7806L296.283 89.0667ZM278.163 98.007C285.436 98.007 292.186 96.7867 298.381 94.3089L296.896 90.5949C291.221 92.8645 284.982 94.007 278.163 94.007V98.007ZM299.495 91.7084L298.883 90.1801L295.17 91.6671L295.782 93.1954L299.495 91.7084ZM278.163 77.2102C281.885 77.2102 285.387 76.4677 288.636 74.958L286.95 71.3306C284.261 72.5803 281.338 73.2102 278.163 73.2102V77.2102ZM286.256 69.838C283.798 70.9805 281.113 71.5642 278.163 71.5642V75.5642C281.66 75.5642 284.924 74.8679 287.942 73.4653L286.256 69.838ZM288.636 74.958C291.845 73.4664 294.632 71.3811 296.979 68.7189L293.978 66.0738C291.995 68.3235 289.655 70.0734 286.95 71.3307L288.636 74.958ZM296.801 65.8958L295.566 64.8074L292.921 67.8084L294.156 68.8968L296.801 65.8958ZM292.743 64.9855C290.91 67.0652 288.754 68.6771 286.256 69.8379L287.942 73.4653C290.944 72.0702 293.547 70.1228 295.744 67.6304L292.743 64.9855ZM296.976 68.7211C299.35 66.0336 301.173 62.933 302.454 59.446L298.699 58.0674C297.581 61.1121 296.006 63.7768 293.978 66.073L296.976 68.7211ZM301.265 56.8792L299.72 56.312L298.342 60.067L299.887 60.6342L301.265 56.8792ZM297.154 57.5003C296.103 60.3626 294.631 62.8481 292.745 64.9834L295.743 67.631C297.974 65.1049 299.695 62.1838 300.909 58.8787L297.154 57.5003ZM292.92 67.8058L294.153 68.8956L296.802 65.8985L295.569 64.8087L292.92 67.8058ZM302.443 59.4753C303.78 55.9531 304.435 52.1744 304.435 48.1651H300.435C300.435 51.7323 299.854 55.0253 298.704 58.0553L302.443 59.4753ZM298.789 48.1651C298.789 51.5502 298.238 54.6435 297.164 57.471L300.904 58.8909C302.164 55.5714 302.789 51.9926 302.789 48.1651H298.789ZM298.324 60.0507L299.863 60.6351L301.283 56.8956L299.744 56.3112L298.324 60.0507ZM304.435 48.1651C304.435 44.156 303.78 40.3771 302.443 36.855L298.704 38.275C299.854 41.3049 300.435 44.5981 300.435 48.1651H304.435ZM299.863 35.6952L298.324 36.2795L299.744 40.0191L301.283 39.4348L299.863 35.6952ZM297.164 38.8593C298.238 41.6868 298.789 44.7801 298.789 48.1651H302.789C302.789 44.3377 302.164 40.7589 300.904 37.4394L297.164 38.8593ZM302.454 36.8844C301.173 33.3937 299.345 30.3058 296.961 27.6519L293.985 30.325C296.009 32.578 297.582 35.2196 298.699 38.2626L302.454 36.8844ZM294.137 27.5003L292.912 28.6003L295.584 31.5765L296.809 30.4765L294.137 27.5003ZM292.76 31.425C294.636 33.5131 296.104 35.9711 297.154 38.8302L300.909 37.4514C299.695 34.1451 297.972 31.2409 295.736 28.7518L292.76 31.425ZM299.721 40.0183L301.266 39.451L299.887 35.6961L298.342 36.2634L299.721 40.0183ZM296.994 27.6898C294.648 24.9818 291.856 22.8688 288.636 21.3724L286.95 24.9997C289.651 26.2549 291.989 28.0217 293.971 30.309L296.994 27.6898ZM286.256 26.4925C288.744 27.6483 290.895 29.2727 292.728 31.3874L295.751 28.7675C293.554 26.2328 290.949 24.2622 287.942 22.865L286.256 26.4925ZM295.55 31.5884L296.793 30.5104L294.172 27.4885L292.929 28.5665L295.55 31.5884ZM288.636 21.3723C285.387 19.8626 281.885 19.12 278.163 19.12V23.12C281.338 23.12 284.261 23.75 286.95 24.9997L288.636 21.3723ZM278.163 24.7661C281.113 24.7661 283.798 25.3497 286.256 26.4924L287.942 22.8651C284.924 21.4623 281.66 20.7661 278.163 20.7661V24.7661ZM278.163 19.12C274.442 19.12 270.924 19.8626 267.643 21.3659L269.309 25.0023C272.043 23.75 274.989 23.12 278.163 23.12V19.12ZM266.658 24.0176L267.344 25.514L270.98 23.8471L270.294 22.3507L266.658 24.0176ZM269.995 26.4987C272.503 25.3497 275.214 24.7661 278.163 24.7661V20.7661C274.667 20.7661 271.384 21.4623 268.329 22.8624L269.995 26.4987ZM267.629 21.3724C264.415 22.8664 261.611 24.9732 259.229 27.6696L262.227 30.3175C264.252 28.0252 266.613 26.2559 269.315 24.9996L267.629 21.3724ZM259.404 30.4921L260.637 31.5819L263.286 28.5848L262.053 27.495L259.404 30.4921ZM263.46 31.4076C265.339 29.2811 267.517 27.6507 270.009 26.4924L268.323 22.865C265.319 24.2612 262.698 26.2293 260.462 28.7591L263.46 31.4076ZM270.98 23.8355L270.286 22.3428L266.659 24.0292L267.353 25.5219L270.98 23.8355ZM259.244 27.6519C256.867 30.2986 255.023 33.3762 253.702 36.855L257.442 38.2748C258.599 35.2268 260.193 32.5811 262.22 30.3249L259.244 27.6519ZM254.862 39.4347L256.401 40.0191L257.821 36.2796L256.282 35.6952L254.862 39.4347ZM258.981 38.8594C260.071 35.9885 261.563 33.5203 263.445 31.425L260.469 28.7518C258.236 31.2379 256.495 34.138 255.242 37.4393L258.981 38.8594ZM263.293 28.6003L262.068 27.5003L259.396 30.4765L260.621 31.5765L263.293 28.6003ZM253.692 36.8842C252.401 40.3983 251.77 44.1669 251.77 48.1651H255.77C255.77 44.5935 256.333 41.2961 257.447 38.2629L253.692 36.8842ZM257.416 48.1651C257.416 44.7691 257.951 41.6655 258.992 38.83L255.237 37.4517C254.02 40.7677 253.416 44.3423 253.416 48.1651H257.416ZM257.804 36.2634L256.259 35.6961L254.88 39.451L256.425 40.0183L257.804 36.2634ZM251.77 48.1651C251.77 52.1634 252.401 55.9319 253.692 59.4461L257.447 58.0674C256.333 55.0341 255.77 51.7368 255.77 48.1651H251.77ZM256.258 60.6342L257.803 60.067L256.425 56.312L254.88 56.8792L256.258 60.6342ZM258.992 57.5004C257.951 54.6647 257.416 51.5612 257.416 48.1651H253.416C253.416 51.988 254.02 55.5625 255.237 58.8787L258.992 57.5004ZM253.703 59.4754C255.022 62.9501 256.861 66.0409 259.23 68.7214L262.227 66.0727C260.196 63.774 258.6 61.1052 257.442 58.0552L253.703 59.4754ZM262.053 68.8956L263.286 67.8058L260.637 64.8087L259.404 65.8985L262.053 68.8956ZM263.46 64.9834C261.568 62.8409 260.072 60.3454 258.981 57.4711L255.241 58.8907C256.494 62.191 258.234 65.1079 260.462 67.6311L263.46 64.9834ZM256.401 56.3112L254.862 56.8956L256.282 60.6351L257.821 60.0507L256.401 56.3112ZM259.244 68.7386C261.626 71.3897 264.426 73.4689 267.629 74.9579L269.315 71.3307C266.608 70.0723 264.245 68.3199 262.22 66.0657L259.244 68.7386ZM270.286 73.9875L270.98 72.4948L267.353 70.8084L266.659 72.3011L270.286 73.9875ZM270.009 69.838C267.506 68.6746 265.323 67.0567 263.445 64.9658L260.469 67.6384C262.703 70.1264 265.324 72.0712 268.323 73.4653L270.009 69.838ZM260.621 64.814L259.396 65.914L262.068 68.8902L263.293 67.7902L260.621 64.814ZM267.643 74.9643C270.924 76.4677 274.442 77.2102 278.163 77.2102V73.2102C274.989 73.2102 272.042 72.5803 269.309 71.3279L267.643 74.9643ZM278.163 71.5642C275.214 71.5642 272.503 70.9805 269.995 69.8316L268.329 73.4679C271.384 74.8679 274.667 75.5642 278.163 75.5642V71.5642ZM267.344 70.8163L266.658 72.3127L270.294 73.9796L270.98 72.4832L267.344 70.8163Z" fill="black" fill-opacity="0.3" mask="url(#path-3-inside-1_1158_11647)"/>
</g>
</g>
<defs>
<clipPath id="clip0_1158_11647">
<rect width="327" height="97" fill="white" transform="translate(0 -1)"/>
</clipPath>
</defs>
</svg>
